%TF.GenerationSoftware,KiCad,Pcbnew,6.0.6-3a73a75311~116~ubuntu20.04.1*%
%TF.CreationDate,2022-09-22T10:05:30+01:00*%
%TF.ProjectId,UFOMothership,55464f4d-6f74-4686-9572-736869702e6b,rev?*%
%TF.SameCoordinates,Original*%
%TF.FileFunction,Copper,L1,Top*%
%TF.FilePolarity,Positive*%
%FSLAX46Y46*%
G04 Gerber Fmt 4.6, Leading zero omitted, Abs format (unit mm)*
G04 Created by KiCad (PCBNEW 6.0.6-3a73a75311~116~ubuntu20.04.1) date 2022-09-22 10:05:30*
%MOMM*%
%LPD*%
G01*
G04 APERTURE LIST*
G04 Aperture macros list*
%AMRoundRect*
0 Rectangle with rounded corners*
0 $1 Rounding radius*
0 $2 $3 $4 $5 $6 $7 $8 $9 X,Y pos of 4 corners*
0 Add a 4 corners polygon primitive as box body*
4,1,4,$2,$3,$4,$5,$6,$7,$8,$9,$2,$3,0*
0 Add four circle primitives for the rounded corners*
1,1,$1+$1,$2,$3*
1,1,$1+$1,$4,$5*
1,1,$1+$1,$6,$7*
1,1,$1+$1,$8,$9*
0 Add four rect primitives between the rounded corners*
20,1,$1+$1,$2,$3,$4,$5,0*
20,1,$1+$1,$4,$5,$6,$7,0*
20,1,$1+$1,$6,$7,$8,$9,0*
20,1,$1+$1,$8,$9,$2,$3,0*%
G04 Aperture macros list end*
%TA.AperFunction,SMDPad,CuDef*%
%ADD10RoundRect,0.237500X-0.300000X-0.237500X0.300000X-0.237500X0.300000X0.237500X-0.300000X0.237500X0*%
%TD*%
%TA.AperFunction,SMDPad,CuDef*%
%ADD11RoundRect,0.237500X0.237500X-0.300000X0.237500X0.300000X-0.237500X0.300000X-0.237500X-0.300000X0*%
%TD*%
%TA.AperFunction,SMDPad,CuDef*%
%ADD12RoundRect,0.237500X0.300000X0.237500X-0.300000X0.237500X-0.300000X-0.237500X0.300000X-0.237500X0*%
%TD*%
%TA.AperFunction,SMDPad,CuDef*%
%ADD13RoundRect,0.237500X-0.237500X0.300000X-0.237500X-0.300000X0.237500X-0.300000X0.237500X0.300000X0*%
%TD*%
%TA.AperFunction,SMDPad,CuDef*%
%ADD14R,3.400000X1.800000*%
%TD*%
%TA.AperFunction,SMDPad,CuDef*%
%ADD15R,1.800000X3.400000*%
%TD*%
%TA.AperFunction,SMDPad,CuDef*%
%ADD16R,0.750000X2.100000*%
%TD*%
%TA.AperFunction,ComponentPad*%
%ADD17C,0.800000*%
%TD*%
%TA.AperFunction,ComponentPad*%
%ADD18C,6.400000*%
%TD*%
%TA.AperFunction,SMDPad,CuDef*%
%ADD19RoundRect,0.237500X-0.237500X0.250000X-0.237500X-0.250000X0.237500X-0.250000X0.237500X0.250000X0*%
%TD*%
%TA.AperFunction,SMDPad,CuDef*%
%ADD20RoundRect,0.237500X-0.250000X-0.237500X0.250000X-0.237500X0.250000X0.237500X-0.250000X0.237500X0*%
%TD*%
%TA.AperFunction,ComponentPad*%
%ADD21R,1.700000X1.700000*%
%TD*%
%TA.AperFunction,ComponentPad*%
%ADD22O,1.700000X1.700000*%
%TD*%
%TA.AperFunction,SMDPad,CuDef*%
%ADD23C,0.500000*%
%TD*%
%TA.AperFunction,SMDPad,CuDef*%
%ADD24R,4.190000X1.780000*%
%TD*%
%TA.AperFunction,ComponentPad*%
%ADD25C,0.970000*%
%TD*%
%TA.AperFunction,SMDPad,CuDef*%
%ADD26R,0.890000X0.460000*%
%TD*%
%TA.AperFunction,SMDPad,CuDef*%
%ADD27R,4.190000X2.665000*%
%TD*%
%TA.AperFunction,SMDPad,CuDef*%
%ADD28RoundRect,0.100000X0.100000X-0.712500X0.100000X0.712500X-0.100000X0.712500X-0.100000X-0.712500X0*%
%TD*%
%TA.AperFunction,SMDPad,CuDef*%
%ADD29RoundRect,0.062500X0.375000X0.062500X-0.375000X0.062500X-0.375000X-0.062500X0.375000X-0.062500X0*%
%TD*%
%TA.AperFunction,SMDPad,CuDef*%
%ADD30RoundRect,0.062500X0.062500X0.375000X-0.062500X0.375000X-0.062500X-0.375000X0.062500X-0.375000X0*%
%TD*%
%TA.AperFunction,ComponentPad*%
%ADD31C,0.500000*%
%TD*%
%TA.AperFunction,SMDPad,CuDef*%
%ADD32R,6.000000X6.000000*%
%TD*%
%TA.AperFunction,SMDPad,CuDef*%
%ADD33RoundRect,0.150000X0.587500X0.150000X-0.587500X0.150000X-0.587500X-0.150000X0.587500X-0.150000X0*%
%TD*%
%TA.AperFunction,SMDPad,CuDef*%
%ADD34RoundRect,0.062500X0.362500X0.062500X-0.362500X0.062500X-0.362500X-0.062500X0.362500X-0.062500X0*%
%TD*%
%TA.AperFunction,SMDPad,CuDef*%
%ADD35R,1.650000X2.380000*%
%TD*%
%TA.AperFunction,SMDPad,CuDef*%
%ADD36RoundRect,0.150000X-0.825000X-0.150000X0.825000X-0.150000X0.825000X0.150000X-0.825000X0.150000X0*%
%TD*%
%TA.AperFunction,SMDPad,CuDef*%
%ADD37RoundRect,0.150000X-0.150000X0.512500X-0.150000X-0.512500X0.150000X-0.512500X0.150000X0.512500X0*%
%TD*%
%TA.AperFunction,SMDPad,CuDef*%
%ADD38RoundRect,0.237500X0.250000X0.237500X-0.250000X0.237500X-0.250000X-0.237500X0.250000X-0.237500X0*%
%TD*%
%TA.AperFunction,SMDPad,CuDef*%
%ADD39R,2.200000X3.900000*%
%TD*%
%TA.AperFunction,SMDPad,CuDef*%
%ADD40R,2.000000X1.500000*%
%TD*%
%TA.AperFunction,SMDPad,CuDef*%
%ADD41R,2.000000X3.800000*%
%TD*%
%TA.AperFunction,ViaPad*%
%ADD42C,0.400000*%
%TD*%
%TA.AperFunction,ViaPad*%
%ADD43C,0.800000*%
%TD*%
%TA.AperFunction,Conductor*%
%ADD44C,0.250000*%
%TD*%
%TA.AperFunction,Conductor*%
%ADD45C,0.100000*%
%TD*%
G04 APERTURE END LIST*
D10*
%TO.P,C23,1*%
%TO.N,+3.3V*%
X188000000Y-86000000D03*
%TO.P,C23,2*%
%TO.N,GND*%
X189725000Y-86000000D03*
%TD*%
D11*
%TO.P,C22,1*%
%TO.N,+3.3V*%
X182600000Y-77999999D03*
%TO.P,C22,2*%
%TO.N,GND*%
X182600000Y-76274999D03*
%TD*%
%TO.P,C21,1*%
%TO.N,+3.3V*%
X176200000Y-77999999D03*
%TO.P,C21,2*%
%TO.N,GND*%
X176200000Y-76274999D03*
%TD*%
D10*
%TO.P,C20,1*%
%TO.N,+3.3V*%
X188000000Y-84000000D03*
%TO.P,C20,2*%
%TO.N,GND*%
X189725000Y-84000000D03*
%TD*%
D11*
%TO.P,C19,1*%
%TO.N,+3.3V*%
X179200000Y-77999999D03*
%TO.P,C19,2*%
%TO.N,GND*%
X179200000Y-76274999D03*
%TD*%
D10*
%TO.P,C18,1*%
%TO.N,+3.3V*%
X188000000Y-82000000D03*
%TO.P,C18,2*%
%TO.N,GND*%
X189725000Y-82000000D03*
%TD*%
D12*
%TO.P,C17,1*%
%TO.N,+VDC*%
X181262500Y-68000000D03*
%TO.P,C17,2*%
%TO.N,GND*%
X179537500Y-68000000D03*
%TD*%
%TO.P,C16,1*%
%TO.N,+VDC*%
X181262500Y-66400000D03*
%TO.P,C16,2*%
%TO.N,GND*%
X179537500Y-66400000D03*
%TD*%
D10*
%TO.P,C15,1*%
%TO.N,+5V*%
X200800000Y-83000000D03*
%TO.P,C15,2*%
%TO.N,GND*%
X202525000Y-83000000D03*
%TD*%
D13*
%TO.P,C14,2*%
%TO.N,GND*%
X190800000Y-79262500D03*
%TO.P,C14,1*%
%TO.N,+VDC*%
X190800000Y-77537500D03*
%TD*%
D12*
%TO.P,C13,1*%
%TO.N,+3.3V*%
X171725001Y-76400000D03*
%TO.P,C13,2*%
%TO.N,GND*%
X170000001Y-76400000D03*
%TD*%
%TO.P,C12,1*%
%TO.N,/BIAS*%
X186399999Y-72000000D03*
%TO.P,C12,2*%
%TO.N,GND*%
X184674999Y-72000000D03*
%TD*%
D10*
%TO.P,C11,1*%
%TO.N,GND*%
X184475000Y-62200000D03*
%TO.P,C11,2*%
%TO.N,/BIAS*%
X186200000Y-62200000D03*
%TD*%
D14*
%TO.P,TP2,1,1*%
%TO.N,GND*%
X160800000Y-84000000D03*
%TD*%
D15*
%TO.P,TP1,1,1*%
%TO.N,/SET*%
X190512500Y-66800000D03*
%TD*%
D16*
%TO.P,J7,1,Pin_1*%
%TO.N,unconnected-(J7-Pad1)*%
X181555000Y-105800000D03*
%TO.P,J7,2,Pin_2*%
%TO.N,unconnected-(J7-Pad2)*%
X181555000Y-109400000D03*
%TO.P,J7,3,Pin_3*%
%TO.N,unconnected-(J7-Pad3)*%
X182825000Y-105800000D03*
%TO.P,J7,4,Pin_4*%
%TO.N,unconnected-(J7-Pad4)*%
X182825000Y-109400000D03*
%TO.P,J7,5,Pin_5*%
%TO.N,unconnected-(J7-Pad5)*%
X184095000Y-105800000D03*
%TO.P,J7,6,Pin_6*%
%TO.N,unconnected-(J7-Pad6)*%
X184095000Y-109400000D03*
%TO.P,J7,7,Pin_7*%
%TO.N,GND*%
X185365000Y-105800000D03*
%TO.P,J7,8,Pin_8*%
%TO.N,unconnected-(J7-Pad8)*%
X185365000Y-109400000D03*
%TO.P,J7,9,Pin_9*%
%TO.N,TMS*%
X186635000Y-105800000D03*
%TO.P,J7,10,Pin_10*%
%TO.N,unconnected-(J7-Pad10)*%
X186635000Y-109400000D03*
%TO.P,J7,11,Pin_11*%
%TO.N,TCK*%
X187905000Y-105800000D03*
%TO.P,J7,12,Pin_12*%
%TO.N,unconnected-(J7-Pad12)*%
X187905000Y-109400000D03*
%TO.P,J7,13,Pin_13*%
%TO.N,TDI*%
X189175000Y-105800000D03*
%TO.P,J7,14,Pin_14*%
%TO.N,unconnected-(J7-Pad14)*%
X189175000Y-109400000D03*
%TO.P,J7,15,Pin_15*%
%TO.N,TDO*%
X190445000Y-105800000D03*
%TO.P,J7,16,Pin_16*%
%TO.N,unconnected-(J7-Pad16)*%
X190445000Y-109400000D03*
%TD*%
D17*
%TO.P,REF\u002A\u002A,1*%
%TO.N,N/C*%
X206200000Y-110600000D03*
D18*
X206200000Y-108200000D03*
D17*
X207897056Y-106502944D03*
X204502944Y-106502944D03*
X207897056Y-109897056D03*
X204502944Y-109897056D03*
X203800000Y-108200000D03*
X206200000Y-105800000D03*
X208600000Y-108200000D03*
%TD*%
D18*
%TO.P,REF\u002A\u002A,1*%
%TO.N,N/C*%
X206200000Y-56400000D03*
D17*
X207897056Y-54702944D03*
X204502944Y-58097056D03*
X207897056Y-58097056D03*
X208600000Y-56400000D03*
X206200000Y-58800000D03*
X206200000Y-54000000D03*
X204502944Y-54702944D03*
X203800000Y-56400000D03*
%TD*%
D19*
%TO.P,R7,1*%
%TO.N,GND*%
X145200000Y-75887500D03*
%TO.P,R7,2*%
%TO.N,Net-(R7-Pad2)*%
X145200000Y-77712500D03*
%TD*%
D20*
%TO.P,R9,1*%
%TO.N,Net-(R16-Pad1)*%
X192687500Y-74400000D03*
%TO.P,R9,2*%
%TO.N,GND*%
X194512500Y-74400000D03*
%TD*%
D21*
%TO.P,J6,1,Pin_1*%
%TO.N,+5V*%
X139260000Y-108600000D03*
D22*
%TO.P,J6,2,Pin_2*%
%TO.N,GND*%
X141800000Y-108600000D03*
%TD*%
D23*
%TO.P,U1,A1,GND*%
%TO.N,GND*%
X147100000Y-76700000D03*
%TO.P,U1,A2,BIAS*%
%TO.N,Net-(U1-PadA2)*%
X148100000Y-76700000D03*
%TO.P,U1,A3,PG*%
%TO.N,unconnected-(U1-PadA3)*%
X149100000Y-76700000D03*
%TO.P,U1,A4,GND*%
%TO.N,GND*%
X150100000Y-76700000D03*
%TO.P,U1,A5,RT*%
%TO.N,Net-(R6-Pad1)*%
X151100000Y-76700000D03*
%TO.P,U1,A6,GND*%
%TO.N,GND*%
X152100000Y-76700000D03*
%TO.P,U1,B1,FB*%
%TO.N,Net-(R7-Pad2)*%
X147100000Y-77700000D03*
%TO.P,U1,B2,AUX*%
%TO.N,Net-(U1-PadA2)*%
X148100000Y-77700000D03*
%TO.P,U1,B3,GND*%
%TO.N,GND*%
X149100000Y-77700000D03*
%TO.P,U1,B4,SYNC*%
X150100000Y-77700000D03*
%TO.P,U1,B5,TR/SS*%
%TO.N,Net-(C3-Pad2)*%
X151100000Y-77700000D03*
%TO.P,U1,B6,RUN*%
%TO.N,+VDC*%
X152100000Y-77700000D03*
%TO.P,U1,C1,GND*%
%TO.N,GND*%
X147100000Y-78700000D03*
%TO.P,U1,C2,GND*%
X148100000Y-78700000D03*
%TO.P,U1,C3,VIN*%
%TO.N,+VDC*%
X149100000Y-78700000D03*
%TO.P,U1,C4,VIN*%
X150100000Y-78700000D03*
%TO.P,U1,C5,VIN*%
X151100000Y-78700000D03*
%TO.P,U1,C6,VIN*%
X152100000Y-78700000D03*
%TO.P,U1,D1,GND*%
%TO.N,GND*%
X147100000Y-79700000D03*
%TO.P,U1,D2,GND*%
X148100000Y-79700000D03*
%TO.P,U1,D3,GND*%
X149100000Y-79700000D03*
%TO.P,U1,D4,GND*%
X150100000Y-79700000D03*
%TO.P,U1,D5,GND*%
X151100000Y-79700000D03*
%TO.P,U1,D6,GND*%
X152100000Y-79700000D03*
%TO.P,U1,E1,GND*%
X147100000Y-80700000D03*
%TO.P,U1,E2,GND*%
X148100000Y-80700000D03*
%TO.P,U1,E3,GND*%
X149100000Y-80700000D03*
%TO.P,U1,E4,GND*%
X150100000Y-80700000D03*
%TO.P,U1,E5,GND*%
X151100000Y-80700000D03*
%TO.P,U1,E6,GND*%
X152100000Y-80700000D03*
%TO.P,U1,F1,VOUT*%
%TO.N,+5V*%
X147100000Y-81700000D03*
%TO.P,U1,F2,VOUT*%
X148100000Y-81700000D03*
%TO.P,U1,F3,VOUT*%
X149100000Y-81700000D03*
%TO.P,U1,F4,VOUT*%
X150100000Y-81700000D03*
%TO.P,U1,F5,VOUT*%
X151100000Y-81700000D03*
%TO.P,U1,F6,VOUT*%
X152100000Y-81700000D03*
%TD*%
D24*
%TO.P,J4,1,In*%
%TO.N,/TRIG+BIAS*%
X207665000Y-66800000D03*
D25*
%TO.P,J4,2,Ext*%
%TO.N,GND*%
X204680000Y-70292500D03*
X204680000Y-63307500D03*
D26*
X205125000Y-63307500D03*
X205125000Y-70292500D03*
D27*
X207665000Y-70292500D03*
X207665000Y-63307500D03*
%TD*%
D17*
%TO.P,REF\u002A\u002A,1*%
%TO.N,N/C*%
X130502944Y-106502944D03*
X130502944Y-109897056D03*
X134600000Y-108200000D03*
X133897056Y-106502944D03*
X132200000Y-105800000D03*
X133897056Y-109897056D03*
D18*
X132200000Y-108200000D03*
D17*
X132200000Y-110600000D03*
X129800000Y-108200000D03*
%TD*%
D28*
%TO.P,U2,1,REF*%
%TO.N,Net-(R8-Pad2)*%
X172025000Y-82712500D03*
%TO.P,U2,2,ADDR*%
%TO.N,unconnected-(U2-Pad2)*%
X172675000Y-82712500D03*
%TO.P,U2,3,SCL*%
%TO.N,/SCL*%
X173325000Y-82712500D03*
%TO.P,U2,4,SDA*%
%TO.N,/SDA*%
X173975000Y-82712500D03*
%TO.P,U2,5,~{AUX}*%
%TO.N,/~{AUX}*%
X173975000Y-78487500D03*
%TO.P,U2,6,OUT*%
%TO.N,Net-(U2-Pad6)*%
X173325000Y-78487500D03*
%TO.P,U2,7,VDD*%
%TO.N,+3.3V*%
X172675000Y-78487500D03*
%TO.P,U2,8,GND*%
%TO.N,GND*%
X172025000Y-78487500D03*
%TD*%
D20*
%TO.P,R3,1*%
%TO.N,+3.3V*%
X167975000Y-87800000D03*
%TO.P,R3,2*%
%TO.N,Net-(R3-Pad2)*%
X169800000Y-87800000D03*
%TD*%
%TO.P,R8,1*%
%TO.N,+3.3V*%
X168375000Y-84387500D03*
%TO.P,R8,2*%
%TO.N,Net-(R8-Pad2)*%
X170200000Y-84387500D03*
%TD*%
D12*
%TO.P,C3,1*%
%TO.N,GND*%
X153000000Y-73200000D03*
%TO.P,C3,2*%
%TO.N,Net-(C3-Pad2)*%
X151275000Y-73200000D03*
%TD*%
D19*
%TO.P,R10,1*%
%TO.N,+3.3V*%
X169800000Y-103375000D03*
%TO.P,R10,2*%
%TO.N,/SCL*%
X169800000Y-105200000D03*
%TD*%
D29*
%TO.P,U3,1,TDI*%
%TO.N,TDI*%
X186287500Y-89112500D03*
%TO.P,U3,2,TDO*%
%TO.N,TDO*%
X186287500Y-88612500D03*
%TO.P,U3,3,PT11A*%
%TO.N,/GPIO0*%
X186287500Y-88112500D03*
%TO.P,U3,4,PT11B*%
%TO.N,/GPIO1*%
X186287500Y-87612500D03*
%TO.P,U3,5,VCC*%
%TO.N,+3.3V*%
X186287500Y-87112500D03*
%TO.P,U3,6,PL16A-I3C*%
%TO.N,unconnected-(U3-Pad6)*%
X186287500Y-86612500D03*
%TO.P,U3,7,PL16B-I3C*%
%TO.N,unconnected-(U3-Pad7)*%
X186287500Y-86112500D03*
%TO.P,U3,8,PL17A-PCLKT3_0/I3C*%
%TO.N,unconnected-(U3-Pad8)*%
X186287500Y-85612500D03*
%TO.P,U3,9,PL17B-PCLKC3_0/I3C*%
%TO.N,unconnected-(U3-Pad9)*%
X186287500Y-85112500D03*
%TO.P,U3,10,PL19A-I3C*%
%TO.N,unconnected-(U3-Pad10)*%
X186287500Y-84612500D03*
%TO.P,U3,11,PL19B-I3C*%
%TO.N,unconnected-(U3-Pad11)*%
X186287500Y-84112500D03*
%TO.P,U3,12,PL20A-I3C*%
%TO.N,unconnected-(U3-Pad12)*%
X186287500Y-83612500D03*
%TO.P,U3,13,PL20B-I3C*%
%TO.N,unconnected-(U3-Pad13)*%
X186287500Y-83112500D03*
%TO.P,U3,14,PL20C*%
%TO.N,unconnected-(U3-Pad14)*%
X186287500Y-82612500D03*
%TO.P,U3,15,VCCIO3*%
%TO.N,+3.3V*%
X186287500Y-82112500D03*
%TO.P,U3,16,PB4A-CSSPIN*%
%TO.N,unconnected-(U3-Pad16)*%
X186287500Y-81612500D03*
%TO.P,U3,17,PB4B*%
%TO.N,unconnected-(U3-Pad17)*%
X186287500Y-81112500D03*
%TO.P,U3,18,VCCIO2*%
%TO.N,+3.3V*%
X186287500Y-80612500D03*
D30*
%TO.P,U3,19,PB9A-MCLK/CCLK*%
%TO.N,unconnected-(U3-Pad19)*%
X185600000Y-79925000D03*
%TO.P,U3,20,PB9B-SO/SPISO*%
%TO.N,unconnected-(U3-Pad20)*%
X185100000Y-79925000D03*
%TO.P,U3,21,PB10A*%
%TO.N,unconnected-(U3-Pad21)*%
X184600000Y-79925000D03*
%TO.P,U3,22,PB10A*%
%TO.N,unconnected-(U3-Pad22)*%
X184100000Y-79925000D03*
%TO.P,U3,23,PB13A-PCLKT2_0*%
%TO.N,unconnected-(U3-Pad23)*%
X183600000Y-79925000D03*
%TO.P,U3,24,PB13B-PCLKC2_0*%
%TO.N,unconnected-(U3-Pad24)*%
X183100000Y-79925000D03*
%TO.P,U3,25,VCCIO2*%
%TO.N,+3.3V*%
X182600000Y-79925000D03*
%TO.P,U3,26,PB20A-PCLKT2_1*%
%TO.N,unconnected-(U3-Pad26)*%
X182100000Y-79925000D03*
%TO.P,U3,27,PB20B-PCLK_C2_1*%
%TO.N,unconnected-(U3-Pad27)*%
X181600000Y-79925000D03*
%TO.P,U3,28,PB23C*%
%TO.N,unconnected-(U3-Pad28)*%
X181100000Y-79925000D03*
%TO.P,U3,29,VCC*%
%TO.N,+3.3V*%
X180600000Y-79925000D03*
%TO.P,U3,30,PB24A*%
%TO.N,unconnected-(U3-Pad30)*%
X180100000Y-79925000D03*
%TO.P,U3,31,PB24B*%
%TO.N,unconnected-(U3-Pad31)*%
X179600000Y-79925000D03*
%TO.P,U3,32,VCCIO2*%
%TO.N,+3.3V*%
X179100000Y-79925000D03*
%TO.P,U3,33,PB26A*%
%TO.N,unconnected-(U3-Pad33)*%
X178600000Y-79925000D03*
%TO.P,U3,34,PB26B*%
%TO.N,unconnected-(U3-Pad34)*%
X178100000Y-79925000D03*
%TO.P,U3,35,PB30A-SN*%
%TO.N,unconnected-(U3-Pad35)*%
X177600000Y-79925000D03*
%TO.P,U3,36,PB30B-SI/SISPI*%
%TO.N,unconnected-(U3-Pad36)*%
X177100000Y-79925000D03*
D29*
%TO.P,U3,37,PR18A*%
%TO.N,unconnected-(U3-Pad37)*%
X176412500Y-80612500D03*
%TO.P,U3,38,PR15B*%
%TO.N,unconnected-(U3-Pad38)*%
X176412500Y-81112500D03*
%TO.P,U3,39,VCCIO1*%
%TO.N,+3.3V*%
X176412500Y-81612500D03*
%TO.P,U3,40,PR15A*%
%TO.N,unconnected-(U3-Pad40)*%
X176412500Y-82112500D03*
%TO.P,U3,41,PR10B-PCLKC1_0*%
%TO.N,unconnected-(U3-Pad41)*%
X176412500Y-82612500D03*
%TO.P,U3,42,VCCIO1*%
%TO.N,+3.3V*%
X176412500Y-83112500D03*
%TO.P,U3,43,PR10A-PCLKT1_0*%
%TO.N,unconnected-(U3-Pad43)*%
X176412500Y-83612500D03*
%TO.P,U3,44,PR8B*%
%TO.N,unconnected-(U3-Pad44)*%
X176412500Y-84112500D03*
%TO.P,U3,45,PR8A*%
%TO.N,unconnected-(U3-Pad45)*%
X176412500Y-84612500D03*
%TO.P,U3,46,VCC*%
%TO.N,+3.3V*%
X176412500Y-85112500D03*
%TO.P,U3,47,PR5A*%
%TO.N,unconnected-(U3-Pad47)*%
X176412500Y-85612500D03*
%TO.P,U3,48,VCCIO1*%
%TO.N,+3.3V*%
X176412500Y-86112500D03*
%TO.P,U3,49,PR3B-R_GPLLC_IN*%
%TO.N,unconnected-(U3-Pad49)*%
X176412500Y-86612500D03*
%TO.P,U3,50,PR3A-R_GPLLT_IN*%
%TO.N,unconnected-(U3-Pad50)*%
X176412500Y-87112500D03*
%TO.P,U3,51,PR2C*%
%TO.N,unconnected-(U3-Pad51)*%
X176412500Y-87612500D03*
%TO.P,U3,52,PR2B-R_GPLLC_FB*%
%TO.N,/SCL*%
X176412500Y-88112500D03*
%TO.P,U3,53,PR2A-R_GPLLT_FB*%
%TO.N,/SDA*%
X176412500Y-88612500D03*
%TO.P,U3,54,PT28D-DONE*%
%TO.N,Net-(R3-Pad2)*%
X176412500Y-89112500D03*
D30*
%TO.P,U3,55,PT28C-INITN*%
%TO.N,Net-(R2-Pad2)*%
X177100000Y-89800000D03*
%TO.P,U3,56,PT25B*%
%TO.N,/GPIO2*%
X177600000Y-89800000D03*
%TO.P,U3,57,PT25A*%
%TO.N,/GPIO3*%
X178100000Y-89800000D03*
%TO.P,U3,58,PT24B*%
%TO.N,/GPIO4*%
X178600000Y-89800000D03*
%TO.P,U3,59,PT24A*%
%TO.N,/GPIO5*%
X179100000Y-89800000D03*
%TO.P,U3,60,VCCIO0*%
%TO.N,+3.3V*%
X179600000Y-89800000D03*
%TO.P,U3,61,PT23D-PROGRAMN*%
%TO.N,/PROGRAMN*%
X180100000Y-89800000D03*
%TO.P,U3,62,JTAGENB*%
%TO.N,Net-(R5-Pad2)*%
X180600000Y-89800000D03*
%TO.P,U3,63,PT21B*%
%TO.N,/GPIO6*%
X181100000Y-89800000D03*
%TO.P,U3,64,VCCIO0*%
%TO.N,+3.3V*%
X181600000Y-89800000D03*
%TO.P,U3,65,PT21A*%
%TO.N,/GPIO7*%
X182100000Y-89800000D03*
%TO.P,U3,66,PT20D-SDA/PCLKC0_0*%
%TO.N,/CLK*%
X182600000Y-89800000D03*
%TO.P,U3,67,PT20C-SCL/PCLKT0_0*%
%TO.N,/TRIGGER_IN*%
X183100000Y-89800000D03*
%TO.P,U3,68,PT18B-PCLKC0_1*%
%TO.N,/FPGA_PULSE*%
X183600000Y-89800000D03*
%TO.P,U3,69,PT18A-PCLKTO_1*%
%TO.N,/FPGA_TRIGGER*%
X184100000Y-89800000D03*
%TO.P,U3,70,TMS*%
%TO.N,TMS*%
X184600000Y-89800000D03*
%TO.P,U3,71,TCK*%
%TO.N,TCK*%
X185100000Y-89800000D03*
%TO.P,U3,72,VCCIO0*%
%TO.N,+3.3V*%
X185600000Y-89800000D03*
D31*
%TO.P,U3,73,GND*%
%TO.N,GND*%
X180800000Y-86512500D03*
X184100000Y-85412500D03*
X179700000Y-82112500D03*
X178600000Y-82112500D03*
X184100000Y-86512500D03*
X183000000Y-82112500D03*
X180800000Y-87612500D03*
X184100000Y-82112500D03*
X183000000Y-87612500D03*
X184100000Y-84312500D03*
X183000000Y-85412500D03*
X184100000Y-87612500D03*
X178600000Y-85412500D03*
X178600000Y-86512500D03*
X178600000Y-83212500D03*
X179700000Y-84312500D03*
X181900000Y-87612500D03*
X181900000Y-86512500D03*
X179700000Y-86512500D03*
X180800000Y-83212500D03*
X181900000Y-83212500D03*
X178600000Y-87612500D03*
X180800000Y-84312500D03*
X181900000Y-85412500D03*
X180800000Y-82112500D03*
X180800000Y-85412500D03*
X179700000Y-83212500D03*
X181900000Y-84312500D03*
X179700000Y-87612500D03*
X179700000Y-85412500D03*
X183000000Y-86512500D03*
X183000000Y-83212500D03*
X184100000Y-83212500D03*
X181900000Y-82112500D03*
D32*
X181350000Y-84862500D03*
D31*
X183000000Y-84312500D03*
X178600000Y-84312500D03*
%TD*%
D20*
%TO.P,R15,1*%
%TO.N,Net-(R15-Pad1)*%
X200800000Y-84600000D03*
%TO.P,R15,2*%
%TO.N,GND*%
X202625000Y-84600000D03*
%TD*%
D21*
%TO.P,J2,1,Pin_1*%
%TO.N,/GPIO0*%
X148280000Y-108600000D03*
D22*
%TO.P,J2,2,Pin_2*%
%TO.N,/GPIO1*%
X150820000Y-108600000D03*
%TO.P,J2,3,Pin_3*%
%TO.N,/GPIO2*%
X153360000Y-108600000D03*
%TO.P,J2,4,Pin_4*%
%TO.N,/GPIO3*%
X155900000Y-108600000D03*
%TO.P,J2,5,Pin_5*%
%TO.N,/GPIO4*%
X158440000Y-108600000D03*
%TO.P,J2,6,Pin_6*%
%TO.N,/GPIO5*%
X160980000Y-108600000D03*
%TO.P,J2,7,Pin_7*%
%TO.N,/GPIO6*%
X163520000Y-108600000D03*
%TO.P,J2,8,Pin_8*%
%TO.N,/GPIO7*%
X166060000Y-108600000D03*
%TO.P,J2,9,Pin_9*%
%TO.N,/SCL*%
X168600000Y-108600000D03*
%TO.P,J2,10,Pin_10*%
%TO.N,/SDA*%
X171140000Y-108600000D03*
%TO.P,J2,11,Pin_11*%
%TO.N,/TRIGGER_IN*%
X173680000Y-108600000D03*
%TO.P,J2,12,Pin_12*%
%TO.N,GND*%
X176220000Y-108600000D03*
%TD*%
D11*
%TO.P,C4,1*%
%TO.N,+5V*%
X142000000Y-81662500D03*
%TO.P,C4,2*%
%TO.N,GND*%
X142000000Y-79937500D03*
%TD*%
D12*
%TO.P,C5,1*%
%TO.N,+3.3V*%
X146262500Y-92000000D03*
%TO.P,C5,2*%
%TO.N,GND*%
X144537500Y-92000000D03*
%TD*%
D33*
%TO.P,U6,1,K*%
%TO.N,Net-(R8-Pad2)*%
X170137500Y-82737500D03*
%TO.P,U6,2,A*%
%TO.N,GND*%
X170137500Y-80837500D03*
%TO.P,U6,3*%
%TO.N,N/C*%
X168262500Y-81787500D03*
%TD*%
D12*
%TO.P,C2,1*%
%TO.N,+5V*%
X146262500Y-94400000D03*
%TO.P,C2,2*%
%TO.N,GND*%
X144537500Y-94400000D03*
%TD*%
D17*
%TO.P,REF\u002A\u002A,1*%
%TO.N,N/C*%
X130502944Y-54702944D03*
X132200000Y-58800000D03*
X134600000Y-56400000D03*
X133897056Y-58097056D03*
D18*
X132200000Y-56400000D03*
D17*
X133897056Y-54702944D03*
X132200000Y-54000000D03*
X129800000Y-56400000D03*
X130502944Y-58097056D03*
%TD*%
D13*
%TO.P,C10,1*%
%TO.N,/TRIG+BIAS*%
X202800000Y-66800000D03*
%TO.P,C10,2*%
%TO.N,/TRIGGER*%
X202800000Y-68525000D03*
%TD*%
D21*
%TO.P,J1,1,Pin_1*%
%TO.N,+VDC*%
X132600000Y-71800000D03*
D22*
%TO.P,J1,2,Pin_2*%
%TO.N,GND*%
X132600000Y-74340000D03*
%TD*%
D20*
%TO.P,R2,1*%
%TO.N,+3.3V*%
X167975000Y-89400000D03*
%TO.P,R2,2*%
%TO.N,Net-(R2-Pad2)*%
X169800000Y-89400000D03*
%TD*%
D11*
%TO.P,C6,1*%
%TO.N,+5V*%
X140400000Y-81662500D03*
%TO.P,C6,2*%
%TO.N,GND*%
X140400000Y-79937500D03*
%TD*%
D20*
%TO.P,R14,1*%
%TO.N,Net-(R14-Pad1)*%
X200800000Y-87200000D03*
%TO.P,R14,2*%
%TO.N,GND*%
X202625000Y-87200000D03*
%TD*%
D34*
%TO.P,U9,1,OUT*%
%TO.N,/BIAS*%
X186850000Y-70150000D03*
%TO.P,U9,2,OUT*%
X186850000Y-69650000D03*
%TO.P,U9,3*%
%TO.N,N/C*%
X186850000Y-69150000D03*
%TO.P,U9,4,SET*%
%TO.N,/SET*%
X186850000Y-68650000D03*
%TO.P,U9,5*%
%TO.N,N/C*%
X183950000Y-68650000D03*
%TO.P,U9,6*%
X183950000Y-69150000D03*
%TO.P,U9,7,IN*%
%TO.N,+VDC*%
X183950000Y-69650000D03*
%TO.P,U9,8,IN*%
X183950000Y-70150000D03*
D31*
%TO.P,U9,9,OUT*%
%TO.N,/BIAS*%
X184825000Y-70340000D03*
X185975000Y-68460000D03*
X184825000Y-68460000D03*
D35*
X185400000Y-69400000D03*
D31*
X184825000Y-69400000D03*
X185975000Y-70340000D03*
X185975000Y-69400000D03*
%TD*%
D36*
%TO.P,U5,1,1A*%
%TO.N,/FPGA_TRIGGER*%
X193675001Y-83352500D03*
%TO.P,U5,2,1Y*%
%TO.N,/TRIGGER*%
X193675001Y-84622500D03*
%TO.P,U5,3,2A*%
%TO.N,/FPGA_PULSE*%
X193675001Y-85892500D03*
%TO.P,U5,4,2Y*%
%TO.N,/PULSE*%
X193675001Y-87162500D03*
%TO.P,U5,5,3A*%
%TO.N,Net-(R12-Pad1)*%
X193675001Y-88432500D03*
%TO.P,U5,6,3Y*%
%TO.N,unconnected-(U5-Pad6)*%
X193675001Y-89702500D03*
%TO.P,U5,7,GND*%
%TO.N,GND*%
X193675001Y-90972500D03*
%TO.P,U5,8,4Y*%
%TO.N,unconnected-(U5-Pad8)*%
X198625001Y-90972500D03*
%TO.P,U5,9,4A*%
%TO.N,Net-(R13-Pad1)*%
X198625001Y-89702500D03*
%TO.P,U5,10,5Y*%
%TO.N,unconnected-(U5-Pad10)*%
X198625001Y-88432500D03*
%TO.P,U5,11,5A*%
%TO.N,Net-(R14-Pad1)*%
X198625001Y-87162500D03*
%TO.P,U5,12,6Y*%
%TO.N,unconnected-(U5-Pad12)*%
X198625001Y-85892500D03*
%TO.P,U5,13,6A*%
%TO.N,Net-(R15-Pad1)*%
X198625001Y-84622500D03*
%TO.P,U5,14,VCC*%
%TO.N,+5V*%
X198625001Y-83352500D03*
%TD*%
D20*
%TO.P,R13,1*%
%TO.N,Net-(R13-Pad1)*%
X200800000Y-89800000D03*
%TO.P,R13,2*%
%TO.N,GND*%
X202625000Y-89800000D03*
%TD*%
D37*
%TO.P,U7,1,OUT*%
%TO.N,/SET*%
X190862501Y-72662500D03*
%TO.P,U7,2,V-*%
%TO.N,GND*%
X189912501Y-72662500D03*
%TO.P,U7,3,IN+*%
%TO.N,Net-(U2-Pad6)*%
X188962501Y-72662500D03*
%TO.P,U7,4,IN-*%
%TO.N,Net-(R16-Pad1)*%
X188962501Y-74937500D03*
%TO.P,U7,5,V+*%
%TO.N,+VDC*%
X190862501Y-74937500D03*
%TD*%
D38*
%TO.P,R16,1*%
%TO.N,Net-(R16-Pad1)*%
X194512500Y-72800000D03*
%TO.P,R16,2*%
%TO.N,/SET*%
X192687500Y-72800000D03*
%TD*%
D24*
%TO.P,J3,1,In*%
%TO.N,/PULSE*%
X207665000Y-92707500D03*
D27*
%TO.P,J3,2,Ext*%
%TO.N,GND*%
X207665000Y-89215000D03*
X207665000Y-96200000D03*
D25*
X204680000Y-96200000D03*
D26*
X205125000Y-89215000D03*
D25*
X204680000Y-89215000D03*
D26*
X205125000Y-96200000D03*
%TD*%
D20*
%TO.P,R1,1*%
%TO.N,+3.3V*%
X173975000Y-94400000D03*
%TO.P,R1,2*%
%TO.N,/PROGRAMN*%
X175800000Y-94400000D03*
%TD*%
D11*
%TO.P,C7,1*%
%TO.N,+5V*%
X145200000Y-81662500D03*
%TO.P,C7,2*%
%TO.N,GND*%
X145200000Y-79937500D03*
%TD*%
D19*
%TO.P,R12,1*%
%TO.N,Net-(R12-Pad1)*%
X192400000Y-92600000D03*
%TO.P,R12,2*%
%TO.N,GND*%
X192400000Y-94425000D03*
%TD*%
D10*
%TO.P,C9,1*%
%TO.N,GND*%
X189250001Y-70400000D03*
%TO.P,C9,2*%
%TO.N,/SET*%
X190975001Y-70400000D03*
%TD*%
D34*
%TO.P,U8,1,OUT*%
%TO.N,/BIAS*%
X186849999Y-65600001D03*
%TO.P,U8,2,OUT*%
X186849999Y-65100001D03*
%TO.P,U8,3*%
%TO.N,N/C*%
X186849999Y-64600001D03*
%TO.P,U8,4,SET*%
%TO.N,/SET*%
X186849999Y-64100001D03*
%TO.P,U8,5*%
%TO.N,N/C*%
X183949999Y-64100001D03*
%TO.P,U8,6*%
X183949999Y-64600001D03*
%TO.P,U8,7,IN*%
%TO.N,+VDC*%
X183949999Y-65100001D03*
%TO.P,U8,8,IN*%
X183949999Y-65600001D03*
D31*
%TO.P,U8,9,OUT*%
%TO.N,/BIAS*%
X185974999Y-63910001D03*
X185974999Y-64850001D03*
D35*
X185399999Y-64850001D03*
D31*
X184824999Y-65790001D03*
X185974999Y-65790001D03*
X184824999Y-64850001D03*
X184824999Y-63910001D03*
%TD*%
D13*
%TO.P,C1,1*%
%TO.N,+VDC*%
X154000000Y-78274999D03*
%TO.P,C1,2*%
%TO.N,GND*%
X154000000Y-79999999D03*
%TD*%
D11*
%TO.P,C8,1*%
%TO.N,+5V*%
X143600000Y-81662500D03*
%TO.P,C8,2*%
%TO.N,GND*%
X143600000Y-79937500D03*
%TD*%
D19*
%TO.P,R11,1*%
%TO.N,+3.3V*%
X169800000Y-99975000D03*
%TO.P,R11,2*%
%TO.N,/SDA*%
X169800000Y-101800000D03*
%TD*%
D20*
%TO.P,R4,1*%
%TO.N,GND*%
X185775000Y-100600000D03*
%TO.P,R4,2*%
%TO.N,TCK*%
X187600000Y-100600000D03*
%TD*%
D39*
%TO.P,L1,1,1*%
%TO.N,/BIAS*%
X196000000Y-66800000D03*
%TO.P,L1,2,2*%
%TO.N,/TRIG+BIAS*%
X199800000Y-66800000D03*
%TD*%
D20*
%TO.P,R6,1*%
%TO.N,Net-(R6-Pad1)*%
X151175000Y-74800000D03*
%TO.P,R6,2*%
%TO.N,GND*%
X153000000Y-74800000D03*
%TD*%
D40*
%TO.P,U4,1,GND*%
%TO.N,GND*%
X148650000Y-89700000D03*
%TO.P,U4,2,VO*%
%TO.N,+3.3V*%
X148650000Y-92000000D03*
D41*
X154950000Y-92000000D03*
D40*
%TO.P,U4,3,VI*%
%TO.N,+5V*%
X148650000Y-94300000D03*
%TD*%
D42*
%TO.N,+3.3V*%
X175200000Y-78800000D03*
X175200000Y-81600000D03*
X175000000Y-85000000D03*
%TO.N,GND*%
X149200000Y-74600000D03*
X145000000Y-74600000D03*
X147200000Y-74000000D03*
X142200000Y-74000000D03*
X142200000Y-76400000D03*
X144400000Y-78600000D03*
X142200000Y-78600000D03*
X140600000Y-77400000D03*
X140600000Y-75600000D03*
X140600000Y-72600000D03*
X145000000Y-72600000D03*
X149200000Y-72600000D03*
X154400000Y-75600000D03*
X154400000Y-72800000D03*
X202600000Y-96400000D03*
X204200000Y-99000000D03*
X208200000Y-99000000D03*
X201600000Y-91600000D03*
X203800000Y-91600000D03*
X195400000Y-90000000D03*
X196400000Y-93200000D03*
X199200000Y-94000000D03*
X201600000Y-94000000D03*
X203800000Y-94000000D03*
X208600000Y-85400000D03*
X208600000Y-81000000D03*
X208600000Y-77000000D03*
X208600000Y-73200000D03*
X203800000Y-72400000D03*
X203800000Y-75000000D03*
X203000000Y-78600000D03*
X200800000Y-81000000D03*
X195200000Y-81800000D03*
X197800000Y-79800000D03*
X200200000Y-77800000D03*
X201800000Y-75000000D03*
X201800000Y-72400000D03*
X201800000Y-70200000D03*
X203400000Y-89800000D03*
X203400000Y-87200000D03*
X203400000Y-84600000D03*
X203400000Y-83000000D03*
%TO.N,+3.3V*%
X169800000Y-104200000D03*
X170200000Y-99200000D03*
X181400000Y-93000000D03*
X172600000Y-94200000D03*
%TO.N,GND*%
X185400000Y-104200000D03*
X184800000Y-100600000D03*
X192400000Y-95200000D03*
X194000000Y-92000000D03*
X171200000Y-78600000D03*
X183400000Y-62200000D03*
%TO.N,+VDC*%
X182600000Y-73000000D03*
%TO.N,GND*%
X195400000Y-74400000D03*
X179400000Y-69000000D03*
X179400000Y-65400000D03*
%TO.N,/BIAS*%
X187600000Y-72000000D03*
X188000000Y-70200000D03*
%TO.N,GND*%
X190000000Y-71800000D03*
X190000000Y-70400000D03*
X183800000Y-72000000D03*
X183400000Y-76200000D03*
X180000000Y-76200000D03*
X177000000Y-76200000D03*
X170000000Y-77400000D03*
%TO.N,+5V*%
X200000000Y-83200000D03*
%TO.N,GND*%
X189800000Y-87000000D03*
X190800000Y-84000000D03*
X190800000Y-80200000D03*
X190800000Y-82000000D03*
%TO.N,+3.3V*%
X187087500Y-82112500D03*
X179100000Y-78900000D03*
X182600000Y-79000000D03*
X172675000Y-76925000D03*
%TO.N,/BIAS*%
X192600000Y-70400000D03*
X190800000Y-63600000D03*
X188200000Y-62600000D03*
X185800000Y-75800000D03*
X193600000Y-75800000D03*
X197200000Y-75800000D03*
X197200000Y-71000000D03*
X196200000Y-69400000D03*
X193800000Y-69400000D03*
X193800000Y-66600000D03*
X193800000Y-64000000D03*
X196000000Y-64000000D03*
X196000000Y-60600000D03*
X192600000Y-60600000D03*
X189200000Y-60600000D03*
X186200000Y-60600000D03*
%TO.N,GND*%
X170200000Y-79800000D03*
X163000000Y-85600000D03*
X161400000Y-85600000D03*
X159800000Y-85600000D03*
X158600000Y-85600000D03*
%TO.N,+3.3V*%
X167400000Y-84400000D03*
X167000000Y-87800000D03*
X167000000Y-89400000D03*
%TO.N,+5V*%
X146000000Y-95600000D03*
X146800000Y-96400000D03*
X148200000Y-96400000D03*
X149400000Y-96400000D03*
%TO.N,+3.3V*%
X157400000Y-93800000D03*
X157400000Y-92200000D03*
X157400000Y-90600000D03*
X157400000Y-89000000D03*
%TO.N,GND*%
X146000000Y-89800000D03*
X147200000Y-88200000D03*
X144800000Y-88200000D03*
X143600000Y-89800000D03*
X143600000Y-94400000D03*
X143600000Y-92000000D03*
%TO.N,+VDC*%
X155600000Y-78800000D03*
X155600000Y-77600000D03*
X156600000Y-78800000D03*
X156600000Y-77600000D03*
%TO.N,GND*%
X152800000Y-80600000D03*
X152800000Y-79600000D03*
X150600000Y-79400000D03*
X147600000Y-79400000D03*
X148600000Y-79400000D03*
X149600000Y-79400000D03*
X151600000Y-81000000D03*
X150600000Y-81000000D03*
X149600000Y-81000000D03*
X148600000Y-81000000D03*
X147600000Y-81000000D03*
X146400000Y-80200000D03*
X147600000Y-80200000D03*
X148600000Y-80200000D03*
X149600000Y-80200000D03*
X150600000Y-80200000D03*
X151600000Y-80200000D03*
X151600000Y-79400000D03*
%TO.N,Net-(C3-Pad2)*%
X150600000Y-77200000D03*
X150600000Y-74000000D03*
D43*
%TO.N,+VDC*%
X190862501Y-76137499D03*
%TO.N,+5V*%
X140400000Y-83000000D03*
X142000000Y-83000000D03*
X143600000Y-83000000D03*
X145200000Y-83000000D03*
X147600000Y-83000000D03*
X149600000Y-83000000D03*
X152200000Y-83000000D03*
%TO.N,/SDA*%
X174713357Y-86264160D03*
X173800000Y-87400000D03*
X171200000Y-96574001D03*
%TO.N,/SCL*%
X172800000Y-87000000D03*
X168600000Y-96574001D03*
%TO.N,/GPIO0*%
X175600000Y-90400000D03*
X187400000Y-88200000D03*
%TO.N,/GPIO1*%
X188600000Y-87800000D03*
X175800000Y-91400000D03*
%TO.N,Net-(R5-Pad2)*%
X180211829Y-91212770D03*
%TO.N,TDO*%
X187812299Y-89812299D03*
X190400000Y-103200000D03*
%TO.N,TDI*%
X186912299Y-90712299D03*
X189200000Y-103200000D03*
%TO.N,TMS*%
X185498789Y-92125809D03*
X186600000Y-103200000D03*
%TO.N,TCK*%
X186205544Y-91419054D03*
X187800000Y-103200000D03*
%TD*%
D44*
%TO.N,Net-(R8-Pad2)*%
X172025000Y-82712500D02*
X170162500Y-82712500D01*
X170162500Y-82712500D02*
X170137500Y-82737500D01*
X170200000Y-84387500D02*
X170000000Y-84187500D01*
X170000000Y-84187500D02*
X170000000Y-82875000D01*
X170000000Y-82875000D02*
X170137500Y-82737500D01*
%TO.N,GND*%
X202625000Y-89800000D02*
X203400000Y-89800000D01*
X202625000Y-87200000D02*
X203400000Y-87200000D01*
X202625000Y-84600000D02*
X203400000Y-84600000D01*
X202525000Y-83000000D02*
X203400000Y-83000000D01*
%TO.N,/TRIGGER*%
X193675001Y-84622500D02*
X195177500Y-84622500D01*
X195177500Y-84622500D02*
X202800000Y-77000000D01*
X202800000Y-77000000D02*
X202800000Y-68525000D01*
%TO.N,/TRIG+BIAS*%
X202800000Y-66800000D02*
X208065000Y-66800000D01*
%TO.N,+3.3V*%
X169800000Y-103375000D02*
X169800000Y-104200000D01*
X169800000Y-99975000D02*
X169800000Y-99600000D01*
X169800000Y-99600000D02*
X170200000Y-99200000D01*
X173975000Y-94400000D02*
X172800000Y-94400000D01*
X172800000Y-94400000D02*
X172600000Y-94200000D01*
%TO.N,GND*%
X185365000Y-105800000D02*
X185365000Y-104235000D01*
X185365000Y-104235000D02*
X185400000Y-104200000D01*
X185775000Y-100600000D02*
X184800000Y-100600000D01*
X192400000Y-94425000D02*
X192400000Y-95200000D01*
X193675001Y-90972500D02*
X193675001Y-91675001D01*
X193675001Y-91675001D02*
X194000000Y-92000000D01*
X172025000Y-78487500D02*
X171312500Y-78487500D01*
X171312500Y-78487500D02*
X171200000Y-78600000D01*
X184475000Y-62200000D02*
X183400000Y-62200000D01*
X194512500Y-74400000D02*
X195400000Y-74400000D01*
X179537500Y-68000000D02*
X179537500Y-68862500D01*
X179537500Y-68862500D02*
X179400000Y-69000000D01*
X179537500Y-66400000D02*
X179537500Y-65537500D01*
X179537500Y-65537500D02*
X179400000Y-65400000D01*
X189912501Y-72662500D02*
X189912501Y-71887499D01*
X189912501Y-71887499D02*
X190000000Y-71800000D01*
X189250001Y-70400000D02*
X190000000Y-70400000D01*
X184674999Y-72000000D02*
X183800000Y-72000000D01*
X182600000Y-76274999D02*
X183325001Y-76274999D01*
X183325001Y-76274999D02*
X183400000Y-76200000D01*
X179200000Y-76274999D02*
X179925001Y-76274999D01*
X179925001Y-76274999D02*
X180000000Y-76200000D01*
X176200000Y-76274999D02*
X176925001Y-76274999D01*
X176925001Y-76274999D02*
X177000000Y-76200000D01*
X170000001Y-76400000D02*
X170000000Y-77400000D01*
%TO.N,+5V*%
X200000000Y-83200000D02*
X200200000Y-83000000D01*
X198625001Y-83352500D02*
X199847500Y-83352500D01*
X199847500Y-83352500D02*
X200000000Y-83200000D01*
X200200000Y-83000000D02*
X200800000Y-83000000D01*
%TO.N,+VDC*%
X190800000Y-77537500D02*
X190800000Y-76200000D01*
X190800000Y-76200000D02*
X190862501Y-76137499D01*
%TO.N,Net-(R12-Pad1)*%
X193675001Y-88432500D02*
X192767500Y-88432500D01*
X192767500Y-88432500D02*
X192375001Y-88824999D01*
X192375001Y-88824999D02*
X192375001Y-92575001D01*
X192375001Y-92575001D02*
X192400000Y-92600000D01*
%TO.N,GND*%
X189725000Y-86000000D02*
X189725000Y-86925000D01*
X189725000Y-86925000D02*
X189800000Y-87000000D01*
X189725000Y-84000000D02*
X190800000Y-84000000D01*
X190800000Y-79262500D02*
X190800000Y-80200000D01*
X189725000Y-82000000D02*
X190800000Y-82000000D01*
%TO.N,+3.3V*%
X187087500Y-82112500D02*
X187887500Y-82112500D01*
X186287500Y-82112500D02*
X187087500Y-82112500D01*
X187887500Y-82112500D02*
X188000000Y-82000000D01*
X179100000Y-78900000D02*
X179100000Y-78099999D01*
X179100000Y-79925000D02*
X179100000Y-78900000D01*
X179100000Y-78099999D02*
X179200000Y-77999999D01*
X182600000Y-79000000D02*
X182600000Y-77999999D01*
X182600000Y-79925000D02*
X182600000Y-79000000D01*
X172675000Y-76925000D02*
X172675000Y-76675000D01*
X172675000Y-78487500D02*
X172675000Y-76925000D01*
X172675000Y-76675000D02*
X172400000Y-76400000D01*
X172400000Y-76400000D02*
X171725001Y-76400000D01*
%TO.N,Net-(R16-Pad1)*%
X192687500Y-74400000D02*
X192000000Y-74400000D01*
X192000000Y-74400000D02*
X191400000Y-73800000D01*
X191400000Y-73800000D02*
X189400000Y-73800000D01*
X189400000Y-73800000D02*
X188962501Y-74237499D01*
X188962501Y-74237499D02*
X188962501Y-74937500D01*
%TO.N,GND*%
X170137500Y-80837500D02*
X170137500Y-79862500D01*
X170137500Y-79862500D02*
X170200000Y-79800000D01*
%TO.N,+3.3V*%
X168375000Y-84387500D02*
X167412500Y-84387500D01*
X167412500Y-84387500D02*
X167400000Y-84400000D01*
X167975000Y-89400000D02*
X167000000Y-89400000D01*
X167975000Y-87800000D02*
X167000000Y-87800000D01*
%TO.N,+5V*%
X148650000Y-94300000D02*
X146362500Y-94300000D01*
X146362500Y-94300000D02*
X146262500Y-94400000D01*
%TO.N,+3.3V*%
X148650000Y-92000000D02*
X146262500Y-92000000D01*
D45*
%TO.N,Net-(C3-Pad2)*%
X151100000Y-77700000D02*
X150600000Y-77200000D01*
X150600000Y-74000000D02*
X151000000Y-74000000D01*
X151000000Y-74000000D02*
X151275000Y-73725000D01*
X151275000Y-73725000D02*
X151275000Y-73200000D01*
D44*
%TO.N,Net-(R13-Pad1)*%
X198625001Y-89702500D02*
X200702500Y-89702500D01*
X200702500Y-89702500D02*
X200800000Y-89800000D01*
%TO.N,Net-(R15-Pad1)*%
X198625001Y-84622500D02*
X200777500Y-84622500D01*
X200777500Y-84622500D02*
X200800000Y-84600000D01*
%TO.N,Net-(R14-Pad1)*%
X198625001Y-87162500D02*
X200762500Y-87162500D01*
X200762500Y-87162500D02*
X200800000Y-87200000D01*
%TO.N,+VDC*%
X190862501Y-74937500D02*
X190862501Y-76137499D01*
%TO.N,/SET*%
X189112501Y-66800000D02*
X189112501Y-68087499D01*
X189112501Y-68087499D02*
X188550000Y-68650000D01*
X188550000Y-68650000D02*
X186850000Y-68650000D01*
X189112501Y-66800000D02*
X189112501Y-64912501D01*
X189112501Y-64912501D02*
X188300001Y-64100001D01*
X188300001Y-64100001D02*
X186849999Y-64100001D01*
%TO.N,Net-(R3-Pad2)*%
X176412500Y-89112500D02*
X172712500Y-89112500D01*
X172712500Y-89112500D02*
X171400000Y-87800000D01*
X171400000Y-87800000D02*
X169800000Y-87800000D01*
%TO.N,/SCL*%
X172824402Y-87000000D02*
X172800000Y-87000000D01*
X172899902Y-87075500D02*
X172824402Y-87000000D01*
%TO.N,/SDA*%
X175012500Y-88612500D02*
X173800000Y-87400000D01*
%TO.N,/SCL*%
X173299902Y-86675500D02*
X172899902Y-87075500D01*
%TO.N,/SDA*%
X176412500Y-88612500D02*
X175012500Y-88612500D01*
%TO.N,/SCL*%
X176412500Y-88112500D02*
X175537098Y-88112500D01*
X174100098Y-86675500D02*
X173299902Y-86675500D01*
X175537098Y-88112500D02*
X174100098Y-86675500D01*
%TO.N,/SDA*%
X173975000Y-85525803D02*
X174713357Y-86264160D01*
X173975000Y-82712500D02*
X173975000Y-85525803D01*
%TO.N,/SCL*%
X173325000Y-82712500D02*
X173325000Y-86650402D01*
X173325000Y-86650402D02*
X172899902Y-87075500D01*
%TO.N,Net-(R2-Pad2)*%
X177100000Y-89800000D02*
X176600000Y-89800000D01*
X176600000Y-89800000D02*
X176400000Y-89600000D01*
X176400000Y-89600000D02*
X174000000Y-89600000D01*
X174000000Y-89600000D02*
X173800000Y-89800000D01*
X171400000Y-89400000D02*
X169800000Y-89400000D01*
X173800000Y-89800000D02*
X171800000Y-89800000D01*
X171800000Y-89800000D02*
X171400000Y-89400000D01*
%TO.N,/GPIO3*%
X176433694Y-92601996D02*
X166655244Y-92601996D01*
%TO.N,/GPIO5*%
X160980000Y-99548620D02*
X160980000Y-108600000D01*
%TO.N,/GPIO2*%
X166469055Y-92152495D02*
X176247505Y-92152495D01*
%TO.N,/GPIO3*%
X166655244Y-92601996D02*
X155900000Y-103357240D01*
%TO.N,/GPIO2*%
X176247505Y-92152495D02*
X177550000Y-90850000D01*
X153360000Y-108600000D02*
X153360000Y-105261550D01*
%TO.N,/GPIO5*%
X167027622Y-93500998D02*
X160980000Y-99548620D01*
X176899002Y-93500998D02*
X167027622Y-93500998D01*
%TO.N,/GPIO4*%
X178449002Y-91315308D02*
X176712813Y-93051497D01*
%TO.N,/GPIO3*%
X177999501Y-90493429D02*
X177999501Y-91036189D01*
%TO.N,/GPIO4*%
X166841433Y-93051497D02*
X158440000Y-101452930D01*
%TO.N,/GPIO3*%
X155900000Y-103357240D02*
X155900000Y-108600000D01*
%TO.N,Net-(R5-Pad2)*%
X180600000Y-89800000D02*
X180600000Y-90824599D01*
%TO.N,/GPIO5*%
X179100000Y-90664310D02*
X178898503Y-90865807D01*
%TO.N,/GPIO3*%
X178100000Y-89800000D02*
X178100000Y-90392930D01*
%TO.N,/GPIO4*%
X178600000Y-89800000D02*
X178600000Y-90528620D01*
X176712813Y-93051497D02*
X166841433Y-93051497D01*
%TO.N,/GPIO5*%
X178898503Y-91501497D02*
X176899002Y-93500998D01*
%TO.N,/GPIO2*%
X177550000Y-90850000D02*
X177550000Y-89850000D01*
%TO.N,/PROGRAMN*%
X179348004Y-91051996D02*
X179348004Y-92051996D01*
%TO.N,Net-(R5-Pad2)*%
X180600000Y-90824599D02*
X180211829Y-91212770D01*
%TO.N,/GPIO5*%
X178898503Y-90865807D02*
X178898503Y-91501497D01*
%TO.N,/GPIO2*%
X177550000Y-89850000D02*
X177600000Y-89800000D01*
%TO.N,/GPIO4*%
X158440000Y-101452930D02*
X158440000Y-108600000D01*
%TO.N,/GPIO5*%
X179100000Y-89800000D02*
X179100000Y-90664310D01*
%TO.N,/GPIO4*%
X178449002Y-90679618D02*
X178449002Y-91315308D01*
%TO.N,/GPIO2*%
X153360000Y-105261550D02*
X166469055Y-92152495D01*
%TO.N,/GPIO3*%
X178100000Y-90392930D02*
X177999501Y-90493429D01*
%TO.N,/GPIO4*%
X178600000Y-90528620D02*
X178449002Y-90679618D01*
%TO.N,/GPIO3*%
X177999501Y-91036189D02*
X176433694Y-92601996D01*
%TO.N,/PROGRAMN*%
X180100000Y-89800000D02*
X180100000Y-90300000D01*
X180100000Y-90300000D02*
X179348004Y-91051996D01*
X179348004Y-92051996D02*
X177000000Y-94400000D01*
X177000000Y-94400000D02*
X175800000Y-94400000D01*
%TO.N,/SCL*%
X168600000Y-105200000D02*
X168600000Y-96574001D01*
%TO.N,/GPIO7*%
X182100000Y-89800000D02*
X182100000Y-91335690D01*
%TO.N,/GPIO6*%
X181100000Y-91700000D02*
X177400000Y-95400000D01*
%TO.N,/GPIO7*%
X166060000Y-95849501D02*
X165210000Y-96699501D01*
X182100000Y-91335690D02*
X177586189Y-95849501D01*
X177586189Y-95849501D02*
X166060000Y-95849501D01*
%TO.N,/GPIO6*%
X165764310Y-95400000D02*
X163520000Y-97644310D01*
%TO.N,/GPIO7*%
X165210000Y-107750000D02*
X166060000Y-108600000D01*
%TO.N,/SDA*%
X171140000Y-96634001D02*
X171200000Y-96574001D01*
%TO.N,/GPIO7*%
X165210000Y-96699501D02*
X165210000Y-107750000D01*
%TO.N,/GPIO6*%
X163520000Y-97644310D02*
X163520000Y-108600000D01*
%TO.N,/SDA*%
X171140000Y-101740000D02*
X171140000Y-96634001D01*
%TO.N,/GPIO6*%
X181100000Y-89800000D02*
X181100000Y-91700000D01*
X177400000Y-95400000D02*
X165764310Y-95400000D01*
%TO.N,Net-(R7-Pad2)*%
X147100000Y-77700000D02*
X145212500Y-77700000D01*
X145212500Y-77700000D02*
X145200000Y-77712500D01*
%TO.N,Net-(U1-PadA2)*%
X148100000Y-76700000D02*
X148100000Y-77700000D01*
%TO.N,GND*%
X149100000Y-77700000D02*
X148100000Y-78700000D01*
%TO.N,Net-(R6-Pad1)*%
X151100000Y-76700000D02*
X151100000Y-74875000D01*
X151100000Y-74875000D02*
X151175000Y-74800000D01*
%TO.N,+VDC*%
X152100000Y-77700000D02*
X152100000Y-78700000D01*
%TO.N,Net-(U2-Pad6)*%
X173325000Y-78487500D02*
X173325000Y-76475000D01*
X175800000Y-74000000D02*
X187000000Y-74000000D01*
X173325000Y-76475000D02*
X175800000Y-74000000D01*
X187000000Y-74000000D02*
X188337500Y-72662500D01*
X188337500Y-72662500D02*
X188962501Y-72662500D01*
%TO.N,/SET*%
X192687500Y-72800000D02*
X191000001Y-72800000D01*
X191000001Y-72800000D02*
X190862501Y-72662500D01*
%TO.N,Net-(R16-Pad1)*%
X194512500Y-72800000D02*
X193887500Y-72800000D01*
X193887500Y-72800000D02*
X193687500Y-73000000D01*
X193687500Y-74000000D02*
X193287500Y-74400000D01*
X193687500Y-73000000D02*
X193687500Y-74000000D01*
X193287500Y-74400000D02*
X192687500Y-74400000D01*
%TO.N,/SDA*%
X171140000Y-108600000D02*
X171140000Y-101740000D01*
X169800000Y-101800000D02*
X171080000Y-101800000D01*
X171080000Y-101800000D02*
X171140000Y-101740000D01*
%TO.N,/SCL*%
X168600000Y-105600000D02*
X168600000Y-105200000D01*
X169800000Y-105200000D02*
X168600000Y-105200000D01*
X168600000Y-108600000D02*
X168600000Y-105512500D01*
%TO.N,/GPIO0*%
X148280000Y-107500000D02*
X165380000Y-90400000D01*
X148280000Y-108600000D02*
X148280000Y-107500000D01*
X165380000Y-90400000D02*
X175600000Y-90400000D01*
%TO.N,/GPIO1*%
X166585860Y-91400000D02*
X175800000Y-91400000D01*
X150820000Y-108600000D02*
X150820000Y-107165860D01*
X150820000Y-107165860D02*
X166585860Y-91400000D01*
%TO.N,/TRIGGER_IN*%
X173680000Y-108600000D02*
X173680000Y-104520000D01*
X173680000Y-104520000D02*
X183100000Y-95100000D01*
X183100000Y-95100000D02*
X183100000Y-89800000D01*
%TO.N,/GPIO1*%
X188275500Y-87475500D02*
X188600000Y-87800000D01*
X186962902Y-87612500D02*
X187099902Y-87475500D01*
%TO.N,/GPIO0*%
X186287500Y-88112500D02*
X187312500Y-88112500D01*
%TO.N,/GPIO1*%
X187099902Y-87475500D02*
X188275500Y-87475500D01*
%TO.N,/GPIO0*%
X187312500Y-88112500D02*
X187400000Y-88200000D01*
%TO.N,/GPIO1*%
X186287500Y-87612500D02*
X186962902Y-87612500D01*
%TO.N,TDI*%
X186287500Y-89112500D02*
X186287500Y-90087500D01*
%TO.N,TDO*%
X187812299Y-89651791D02*
X187812299Y-89812299D01*
X186287500Y-88612500D02*
X186773008Y-88612500D01*
X186773008Y-88612500D02*
X187812299Y-89651791D01*
%TO.N,TCK*%
X186019054Y-91419054D02*
X186205544Y-91419054D01*
%TO.N,TDI*%
X186287500Y-90087500D02*
X186912299Y-90712299D01*
%TO.N,TMS*%
X184600000Y-89800000D02*
X184600000Y-91227020D01*
%TO.N,TCK*%
X185100000Y-90500000D02*
X186019054Y-91419054D01*
X185100000Y-89800000D02*
X185100000Y-90500000D01*
%TO.N,TMS*%
X184600000Y-91227020D02*
X185498789Y-92125809D01*
%TO.N,TCK*%
X187800000Y-103200000D02*
X187800000Y-100800000D01*
X187800000Y-100800000D02*
X187600000Y-100600000D01*
%TO.N,TDO*%
X190445000Y-103245000D02*
X190445000Y-105800000D01*
X190400000Y-103200000D02*
X190445000Y-103245000D01*
%TO.N,TDI*%
X189175000Y-103225000D02*
X189175000Y-105800000D01*
X189200000Y-103200000D02*
X189175000Y-103225000D01*
%TO.N,TMS*%
X186600000Y-103200000D02*
X186635000Y-103235000D01*
X186635000Y-103235000D02*
X186635000Y-105800000D01*
%TO.N,/FPGA_TRIGGER*%
X187800000Y-93200000D02*
X191000000Y-90000000D01*
X184800000Y-93200000D02*
X187800000Y-93200000D01*
X184100000Y-92500000D02*
X184800000Y-93200000D01*
%TO.N,/FPGA_PULSE*%
X183600000Y-92635690D02*
X184613811Y-93649501D01*
X184613811Y-93649501D02*
X187986189Y-93649501D01*
%TO.N,/FPGA_TRIGGER*%
X191000000Y-90000000D02*
X191000000Y-84756250D01*
X184100000Y-89800000D02*
X184100000Y-92500000D01*
%TO.N,/FPGA_PULSE*%
X183600000Y-89800000D02*
X183600000Y-92635690D01*
%TO.N,/FPGA_TRIGGER*%
X191000000Y-84756250D02*
X192403750Y-83352500D01*
%TO.N,/FPGA_PULSE*%
X187986189Y-93649501D02*
X191449501Y-90186189D01*
X191449501Y-90186189D02*
X191449501Y-86750499D01*
X191449501Y-86750499D02*
X192307500Y-85892500D01*
X192307500Y-85892500D02*
X193675001Y-85892500D01*
%TO.N,/FPGA_TRIGGER*%
X192403750Y-83352500D02*
X193675001Y-83352500D01*
%TO.N,TCK*%
X187800000Y-103200000D02*
X187905000Y-103305000D01*
X187905000Y-103305000D02*
X187905000Y-105800000D01*
%TO.N,/SET*%
X190975001Y-70400000D02*
X190975001Y-69462501D01*
X190975001Y-69462501D02*
X190512500Y-68999999D01*
X190512500Y-68999999D02*
X190512500Y-66800000D01*
X189112501Y-66800000D02*
X190512500Y-66800000D01*
X190862501Y-72662500D02*
X190862501Y-70512500D01*
X190862501Y-70512500D02*
X190975001Y-70400000D01*
%TO.N,/PULSE*%
X208065000Y-92707500D02*
X197907500Y-92707500D01*
X197907500Y-92707500D02*
X196200000Y-91000000D01*
X196200000Y-91000000D02*
X196200000Y-88000000D01*
X196200000Y-88000000D02*
X195362500Y-87162500D01*
X195362500Y-87162500D02*
X193675001Y-87162500D01*
%TD*%
%TA.AperFunction,Conductor*%
%TO.N,/TRIG+BIAS*%
G36*
X201786237Y-64020002D02*
G01*
X201833256Y-64074827D01*
X202600000Y-65800000D01*
X203474000Y-65800000D01*
X203542121Y-65820002D01*
X203588614Y-65873658D01*
X203600000Y-65926000D01*
X203600000Y-67674000D01*
X203579998Y-67742121D01*
X203526342Y-67788614D01*
X203474000Y-67800000D01*
X203170743Y-67800000D01*
X203135273Y-67793953D01*
X203135243Y-67794089D01*
X203132353Y-67793455D01*
X203128996Y-67792882D01*
X203120500Y-67789899D01*
X203112856Y-67789176D01*
X203112854Y-67789176D01*
X203104879Y-67788422D01*
X203089833Y-67787000D01*
X202800147Y-67787000D01*
X202510168Y-67787001D01*
X202507218Y-67787280D01*
X202507213Y-67787280D01*
X202487150Y-67789176D01*
X202487149Y-67789176D01*
X202479500Y-67789899D01*
X202472252Y-67792444D01*
X202472249Y-67792445D01*
X202364121Y-67830417D01*
X202364119Y-67830418D01*
X202355232Y-67833539D01*
X202347657Y-67839134D01*
X202347655Y-67839135D01*
X202256860Y-67906197D01*
X202249289Y-67911789D01*
X202171039Y-68017732D01*
X202127399Y-68142000D01*
X202124500Y-68172667D01*
X202124500Y-68368125D01*
X202104498Y-68436246D01*
X202097958Y-68445482D01*
X201237833Y-69551357D01*
X201180223Y-69592848D01*
X201138375Y-69600000D01*
X198126000Y-69600000D01*
X198057879Y-69579998D01*
X198011386Y-69526342D01*
X198000000Y-69474000D01*
X198000000Y-64126000D01*
X198020002Y-64057879D01*
X198073658Y-64011386D01*
X198126000Y-64000000D01*
X201718116Y-64000000D01*
X201786237Y-64020002D01*
G37*
%TD.AperFunction*%
%TD*%
%TA.AperFunction,Conductor*%
%TO.N,+5V*%
G36*
X147575117Y-81401551D02*
G01*
X147600000Y-81405492D01*
X147624883Y-81401551D01*
X147644593Y-81400000D01*
X148555407Y-81400000D01*
X148575117Y-81401551D01*
X148600000Y-81405492D01*
X148624883Y-81401551D01*
X148644593Y-81400000D01*
X149555407Y-81400000D01*
X149575117Y-81401551D01*
X149600000Y-81405492D01*
X149624883Y-81401551D01*
X149644593Y-81400000D01*
X150555407Y-81400000D01*
X150575117Y-81401551D01*
X150600000Y-81405492D01*
X150624883Y-81401551D01*
X150644593Y-81400000D01*
X151555407Y-81400000D01*
X151575117Y-81401551D01*
X151600000Y-81405492D01*
X151624883Y-81401551D01*
X151644593Y-81400000D01*
X152874000Y-81400000D01*
X152942121Y-81420002D01*
X152988614Y-81473658D01*
X153000000Y-81526000D01*
X153000000Y-83474000D01*
X152979998Y-83542121D01*
X152926342Y-83588614D01*
X152874000Y-83600000D01*
X139526000Y-83600000D01*
X139457879Y-83579998D01*
X139411386Y-83526342D01*
X139400000Y-83474000D01*
X139400000Y-81526000D01*
X139420002Y-81457879D01*
X139473658Y-81411386D01*
X139526000Y-81400000D01*
X147555407Y-81400000D01*
X147575117Y-81401551D01*
G37*
%TD.AperFunction*%
%TD*%
%TA.AperFunction,Conductor*%
%TO.N,GND*%
G36*
X144597911Y-78220002D02*
G01*
X144631140Y-78251139D01*
X144649289Y-78275711D01*
X144713274Y-78322971D01*
X144747655Y-78348365D01*
X144747657Y-78348366D01*
X144755232Y-78353961D01*
X144764119Y-78357082D01*
X144764121Y-78357083D01*
X144872252Y-78395056D01*
X144872254Y-78395057D01*
X144879500Y-78397601D01*
X144887144Y-78398324D01*
X144887146Y-78398324D01*
X144895121Y-78399078D01*
X144910167Y-78400500D01*
X145199853Y-78400500D01*
X145489832Y-78400499D01*
X145492782Y-78400220D01*
X145492787Y-78400220D01*
X145512850Y-78398324D01*
X145512851Y-78398324D01*
X145520500Y-78397601D01*
X145527748Y-78395056D01*
X145527751Y-78395055D01*
X145635879Y-78357083D01*
X145635881Y-78357082D01*
X145644768Y-78353961D01*
X145652343Y-78348366D01*
X145652345Y-78348365D01*
X145686726Y-78322971D01*
X145750711Y-78275711D01*
X145768860Y-78251140D01*
X145825421Y-78208229D01*
X145870210Y-78200000D01*
X148474000Y-78200000D01*
X148542121Y-78220002D01*
X148588614Y-78273658D01*
X148600000Y-78326000D01*
X148600000Y-79200000D01*
X154674000Y-79200000D01*
X154742121Y-79220002D01*
X154788614Y-79273658D01*
X154800000Y-79326000D01*
X154800000Y-81074000D01*
X154779998Y-81142121D01*
X154726342Y-81188614D01*
X154674000Y-81200000D01*
X145925606Y-81200000D01*
X145857485Y-81179998D01*
X145824254Y-81148859D01*
X145756303Y-81056860D01*
X145750711Y-81049289D01*
X145726905Y-81031706D01*
X145652345Y-80976635D01*
X145652343Y-80976634D01*
X145644768Y-80971039D01*
X145635881Y-80967918D01*
X145635879Y-80967917D01*
X145527748Y-80929944D01*
X145527746Y-80929943D01*
X145520500Y-80927399D01*
X145512856Y-80926676D01*
X145512854Y-80926676D01*
X145504879Y-80925922D01*
X145489833Y-80924500D01*
X145200147Y-80924500D01*
X144910168Y-80924501D01*
X144907218Y-80924780D01*
X144907213Y-80924780D01*
X144887150Y-80926676D01*
X144887149Y-80926676D01*
X144879500Y-80927399D01*
X144872252Y-80929944D01*
X144872249Y-80929945D01*
X144764121Y-80967917D01*
X144764119Y-80967918D01*
X144755232Y-80971039D01*
X144747657Y-80976634D01*
X144747655Y-80976635D01*
X144673095Y-81031706D01*
X144649289Y-81049289D01*
X144643697Y-81056860D01*
X144575746Y-81148859D01*
X144519185Y-81191770D01*
X144474394Y-81200000D01*
X144325606Y-81200000D01*
X144257485Y-81179998D01*
X144224254Y-81148859D01*
X144156303Y-81056860D01*
X144150711Y-81049289D01*
X144126905Y-81031706D01*
X144052345Y-80976635D01*
X144052343Y-80976634D01*
X144044768Y-80971039D01*
X144035881Y-80967918D01*
X144035879Y-80967917D01*
X143927748Y-80929944D01*
X143927746Y-80929943D01*
X143920500Y-80927399D01*
X143912856Y-80926676D01*
X143912854Y-80926676D01*
X143904879Y-80925922D01*
X143889833Y-80924500D01*
X143600147Y-80924500D01*
X143310168Y-80924501D01*
X143307218Y-80924780D01*
X143307213Y-80924780D01*
X143287150Y-80926676D01*
X143287149Y-80926676D01*
X143279500Y-80927399D01*
X143272252Y-80929944D01*
X143272249Y-80929945D01*
X143164121Y-80967917D01*
X143164119Y-80967918D01*
X143155232Y-80971039D01*
X143147657Y-80976634D01*
X143147655Y-80976635D01*
X143073095Y-81031706D01*
X143049289Y-81049289D01*
X143043697Y-81056860D01*
X142975746Y-81148859D01*
X142919185Y-81191770D01*
X142874394Y-81200000D01*
X142725606Y-81200000D01*
X142657485Y-81179998D01*
X142624254Y-81148859D01*
X142556303Y-81056860D01*
X142550711Y-81049289D01*
X142526905Y-81031706D01*
X142452345Y-80976635D01*
X142452343Y-80976634D01*
X142444768Y-80971039D01*
X142435881Y-80967918D01*
X142435879Y-80967917D01*
X142327748Y-80929944D01*
X142327746Y-80929943D01*
X142320500Y-80927399D01*
X142312856Y-80926676D01*
X142312854Y-80926676D01*
X142304879Y-80925922D01*
X142289833Y-80924500D01*
X142000147Y-80924500D01*
X141710168Y-80924501D01*
X141707218Y-80924780D01*
X141707213Y-80924780D01*
X141687150Y-80926676D01*
X141687149Y-80926676D01*
X141679500Y-80927399D01*
X141672252Y-80929944D01*
X141672249Y-80929945D01*
X141564121Y-80967917D01*
X141564119Y-80967918D01*
X141555232Y-80971039D01*
X141547657Y-80976634D01*
X141547655Y-80976635D01*
X141473095Y-81031706D01*
X141449289Y-81049289D01*
X141443697Y-81056860D01*
X141375746Y-81148859D01*
X141319185Y-81191770D01*
X141274394Y-81200000D01*
X141125606Y-81200000D01*
X141057485Y-81179998D01*
X141024254Y-81148859D01*
X140956303Y-81056860D01*
X140950711Y-81049289D01*
X140926905Y-81031706D01*
X140852345Y-80976635D01*
X140852343Y-80976634D01*
X140844768Y-80971039D01*
X140835881Y-80967918D01*
X140835879Y-80967917D01*
X140727748Y-80929944D01*
X140727746Y-80929943D01*
X140720500Y-80927399D01*
X140712856Y-80926676D01*
X140712854Y-80926676D01*
X140704879Y-80925922D01*
X140689833Y-80924500D01*
X140400147Y-80924500D01*
X140110168Y-80924501D01*
X140107218Y-80924780D01*
X140107213Y-80924780D01*
X140087150Y-80926676D01*
X140087149Y-80926676D01*
X140079500Y-80927399D01*
X140072252Y-80929944D01*
X140072249Y-80929945D01*
X139964121Y-80967917D01*
X139964119Y-80967918D01*
X139955232Y-80971039D01*
X139947657Y-80976634D01*
X139947655Y-80976635D01*
X139873095Y-81031706D01*
X139849289Y-81049289D01*
X139843697Y-81056860D01*
X139843695Y-81056862D01*
X139827352Y-81078989D01*
X139770791Y-81121901D01*
X139700010Y-81127421D01*
X139637480Y-81093798D01*
X139603054Y-81031706D01*
X139600000Y-81004131D01*
X139600000Y-78200000D01*
X144529790Y-78200000D01*
X144597911Y-78220002D01*
G37*
%TD.AperFunction*%
%TD*%
%TA.AperFunction,Conductor*%
%TO.N,+VDC*%
G36*
X156942121Y-77420002D02*
G01*
X156988614Y-77473658D01*
X157000000Y-77526000D01*
X157000000Y-78874000D01*
X156979998Y-78942121D01*
X156926342Y-78988614D01*
X156874000Y-79000000D01*
X151644593Y-79000000D01*
X151624883Y-78998449D01*
X151600000Y-78994508D01*
X151575117Y-78998449D01*
X151555407Y-79000000D01*
X150644593Y-79000000D01*
X150624883Y-78998449D01*
X150600000Y-78994508D01*
X150575117Y-78998449D01*
X150555407Y-79000000D01*
X149644593Y-79000000D01*
X149624883Y-78998449D01*
X149600000Y-78994508D01*
X149575117Y-78998449D01*
X149555407Y-79000000D01*
X148926000Y-79000000D01*
X148857879Y-78979998D01*
X148811386Y-78926342D01*
X148800000Y-78874000D01*
X148800000Y-78526000D01*
X148820002Y-78457879D01*
X148873658Y-78411386D01*
X148926000Y-78400000D01*
X153000000Y-78400000D01*
X153000000Y-77526000D01*
X153020002Y-77457879D01*
X153073658Y-77411386D01*
X153126000Y-77400000D01*
X156874000Y-77400000D01*
X156942121Y-77420002D01*
G37*
%TD.AperFunction*%
%TD*%
%TA.AperFunction,Conductor*%
%TO.N,GND*%
G36*
X150400000Y-76781811D02*
G01*
X150379998Y-76849932D01*
X150360395Y-76870687D01*
X150361658Y-76871950D01*
X150271950Y-76961658D01*
X150214354Y-77074696D01*
X150194508Y-77200000D01*
X150214354Y-77325304D01*
X150271950Y-77438342D01*
X150361658Y-77528050D01*
X150359117Y-77530591D01*
X150391414Y-77572473D01*
X150400000Y-77618189D01*
X150400000Y-77874000D01*
X150379998Y-77942121D01*
X150326342Y-77988614D01*
X150274000Y-78000000D01*
X148926000Y-78000000D01*
X148857879Y-77979998D01*
X148811386Y-77926342D01*
X148800000Y-77874000D01*
X148800000Y-77526000D01*
X148820002Y-77457879D01*
X148873658Y-77411386D01*
X148926000Y-77400000D01*
X149600000Y-77400000D01*
X149600000Y-75400000D01*
X150400000Y-75400000D01*
X150400000Y-76781811D01*
G37*
%TD.AperFunction*%
%TD*%
%TA.AperFunction,Conductor*%
%TO.N,GND*%
G36*
X154742121Y-72020002D02*
G01*
X154788614Y-72073658D01*
X154800000Y-72126000D01*
X154800000Y-76874000D01*
X154779998Y-76942121D01*
X154726342Y-76988614D01*
X154674000Y-77000000D01*
X151926000Y-77000000D01*
X151857879Y-76979998D01*
X151811386Y-76926342D01*
X151800000Y-76874000D01*
X151800000Y-75926000D01*
X151820002Y-75857879D01*
X151873658Y-75811386D01*
X151926000Y-75800000D01*
X152200000Y-75800000D01*
X152200000Y-72600000D01*
X151862965Y-72600000D01*
X151798198Y-72580983D01*
X151798167Y-72581042D01*
X151797877Y-72580889D01*
X151794844Y-72579998D01*
X151790378Y-72576918D01*
X151789847Y-72576637D01*
X151782268Y-72571039D01*
X151703087Y-72543233D01*
X151665248Y-72529944D01*
X151665246Y-72529943D01*
X151658000Y-72527399D01*
X151650356Y-72526676D01*
X151650354Y-72526676D01*
X151642379Y-72525922D01*
X151627333Y-72524500D01*
X151275179Y-72524500D01*
X150922668Y-72524501D01*
X150919718Y-72524780D01*
X150919713Y-72524780D01*
X150899650Y-72526676D01*
X150899649Y-72526676D01*
X150892000Y-72527399D01*
X150884752Y-72529944D01*
X150884749Y-72529945D01*
X150843105Y-72544570D01*
X150767732Y-72571039D01*
X150760153Y-72576637D01*
X150751833Y-72581042D01*
X150750941Y-72579356D01*
X150695216Y-72599734D01*
X150687035Y-72600000D01*
X150400000Y-72600000D01*
X150400000Y-73581811D01*
X150379998Y-73649932D01*
X150360395Y-73670687D01*
X150361658Y-73671950D01*
X150271950Y-73761658D01*
X150214354Y-73874696D01*
X150212804Y-73884485D01*
X150212803Y-73884487D01*
X150196059Y-73990207D01*
X150194508Y-74000000D01*
X150214354Y-74125304D01*
X150271950Y-74238342D01*
X150361658Y-74328050D01*
X150359117Y-74330591D01*
X150391414Y-74372473D01*
X150400000Y-74418189D01*
X150400000Y-75600000D01*
X147400000Y-75600000D01*
X147400000Y-76874000D01*
X147379998Y-76942121D01*
X147326342Y-76988614D01*
X147274000Y-77000000D01*
X139600000Y-77000000D01*
X139600000Y-72126000D01*
X139620002Y-72057879D01*
X139673658Y-72011386D01*
X139726000Y-72000000D01*
X154674000Y-72000000D01*
X154742121Y-72020002D01*
G37*
%TD.AperFunction*%
%TD*%
%TA.AperFunction,Conductor*%
%TO.N,GND*%
G36*
X143800000Y-78600000D02*
G01*
X139600000Y-78600000D01*
X139600000Y-76800000D01*
X143800000Y-76800000D01*
X143800000Y-78600000D01*
G37*
%TD.AperFunction*%
%TD*%
%TA.AperFunction,Conductor*%
%TO.N,/BIAS*%
G36*
X188390949Y-73173543D02*
G01*
X188447785Y-73216090D01*
X188465550Y-73258773D01*
X188467810Y-73258071D01*
X188470717Y-73267425D01*
X188472143Y-73277112D01*
X188476459Y-73285902D01*
X188511024Y-73356303D01*
X188523569Y-73381855D01*
X188606151Y-73464293D01*
X188615507Y-73468866D01*
X188615508Y-73468867D01*
X188642202Y-73481915D01*
X188710983Y-73515536D01*
X188741474Y-73519984D01*
X188774757Y-73524840D01*
X188774761Y-73524840D01*
X188779283Y-73525500D01*
X188909984Y-73525500D01*
X188978105Y-73545502D01*
X189024598Y-73599158D01*
X189034702Y-73669432D01*
X189005208Y-73734012D01*
X188999079Y-73740595D01*
X188746286Y-73993388D01*
X188738182Y-74000815D01*
X188709307Y-74025044D01*
X188703794Y-74034593D01*
X188690462Y-74057684D01*
X188684555Y-74066956D01*
X188670738Y-74086688D01*
X188623057Y-74127519D01*
X188614996Y-74131477D01*
X188614994Y-74131479D01*
X188605646Y-74136068D01*
X188523208Y-74218650D01*
X188518635Y-74228006D01*
X188518634Y-74228007D01*
X188503628Y-74258707D01*
X188471965Y-74323482D01*
X188462001Y-74391782D01*
X188462001Y-75483218D01*
X188462671Y-75487768D01*
X188462671Y-75487771D01*
X188470717Y-75542426D01*
X188472143Y-75552112D01*
X188476459Y-75560902D01*
X188508938Y-75627054D01*
X188523569Y-75656855D01*
X188606151Y-75739293D01*
X188710983Y-75790536D01*
X188741474Y-75794984D01*
X188774757Y-75799840D01*
X188774761Y-75799840D01*
X188779283Y-75800500D01*
X189145719Y-75800500D01*
X189150269Y-75799830D01*
X189150272Y-75799830D01*
X189204927Y-75791784D01*
X189204928Y-75791784D01*
X189214613Y-75790358D01*
X189277812Y-75759329D01*
X189310008Y-75743522D01*
X189310010Y-75743521D01*
X189319356Y-75738932D01*
X189401794Y-75656350D01*
X189453037Y-75551518D01*
X189463001Y-75483218D01*
X189463001Y-74391782D01*
X189452859Y-74322888D01*
X189448543Y-74314097D01*
X189446870Y-74308714D01*
X189445755Y-74237726D01*
X189478099Y-74182227D01*
X189497921Y-74162405D01*
X189560233Y-74128379D01*
X189587016Y-74125500D01*
X190266903Y-74125500D01*
X190335024Y-74145502D01*
X190381517Y-74199158D01*
X190391621Y-74269432D01*
X190380103Y-74306832D01*
X190376262Y-74314691D01*
X190371965Y-74323482D01*
X190362001Y-74391782D01*
X190362001Y-75483218D01*
X190362671Y-75487768D01*
X190362671Y-75487771D01*
X190370717Y-75542426D01*
X190372143Y-75552112D01*
X190376459Y-75560902D01*
X190408938Y-75627054D01*
X190421006Y-75697017D01*
X190395797Y-75759289D01*
X190342995Y-75828102D01*
X190342993Y-75828105D01*
X190337965Y-75834658D01*
X190277457Y-75980737D01*
X190256819Y-76137499D01*
X190277457Y-76294261D01*
X190280617Y-76301890D01*
X190331935Y-76425782D01*
X190339524Y-76496372D01*
X190307745Y-76559859D01*
X190246687Y-76596086D01*
X190215526Y-76600000D01*
X184726000Y-76600000D01*
X184657879Y-76579998D01*
X184611386Y-76526342D01*
X184600000Y-76474000D01*
X184600000Y-74451500D01*
X184620002Y-74383379D01*
X184673658Y-74336886D01*
X184726000Y-74325500D01*
X186980290Y-74325500D01*
X186991272Y-74325980D01*
X187017820Y-74328303D01*
X187017822Y-74328303D01*
X187028807Y-74329264D01*
X187065215Y-74319508D01*
X187075942Y-74317130D01*
X187079301Y-74316538D01*
X187113045Y-74310588D01*
X187122590Y-74305077D01*
X187125866Y-74303885D01*
X187129034Y-74302408D01*
X187139684Y-74299554D01*
X187170544Y-74277945D01*
X187179815Y-74272039D01*
X187202906Y-74258707D01*
X187212455Y-74253194D01*
X187236685Y-74224317D01*
X187244111Y-74216215D01*
X188257822Y-73202504D01*
X188320134Y-73168478D01*
X188390949Y-73173543D01*
G37*
%TD.AperFunction*%
%TA.AperFunction,Conductor*%
G36*
X197542121Y-59820002D02*
G01*
X197588614Y-59873658D01*
X197600000Y-59926000D01*
X197600000Y-76474000D01*
X197579998Y-76542121D01*
X197526342Y-76588614D01*
X197474000Y-76600000D01*
X191509476Y-76600000D01*
X191441355Y-76579998D01*
X191394862Y-76526342D01*
X191384758Y-76456068D01*
X191393067Y-76425782D01*
X191444385Y-76301890D01*
X191447545Y-76294261D01*
X191468183Y-76137499D01*
X191447545Y-75980737D01*
X191387037Y-75834658D01*
X191329235Y-75759329D01*
X191303635Y-75693109D01*
X191315998Y-75627292D01*
X191348741Y-75560306D01*
X191353037Y-75551518D01*
X191363001Y-75483218D01*
X191363001Y-74527517D01*
X191383003Y-74459396D01*
X191436659Y-74412903D01*
X191506933Y-74402799D01*
X191571513Y-74432293D01*
X191578096Y-74438422D01*
X191755889Y-74616215D01*
X191763316Y-74624319D01*
X191787545Y-74653194D01*
X191797094Y-74658707D01*
X191820185Y-74672039D01*
X191829456Y-74677945D01*
X191860316Y-74699554D01*
X191870967Y-74702408D01*
X191874140Y-74703888D01*
X191877412Y-74705079D01*
X191886955Y-74710588D01*
X191924076Y-74717134D01*
X191934778Y-74719506D01*
X191944805Y-74722193D01*
X192005424Y-74759143D01*
X192031072Y-74802149D01*
X192046039Y-74844768D01*
X192124289Y-74950711D01*
X192131860Y-74956303D01*
X192222655Y-75023365D01*
X192222657Y-75023366D01*
X192230232Y-75028961D01*
X192239119Y-75032082D01*
X192239121Y-75032083D01*
X192347252Y-75070056D01*
X192347254Y-75070057D01*
X192354500Y-75072601D01*
X192362144Y-75073324D01*
X192362146Y-75073324D01*
X192370121Y-75074078D01*
X192385167Y-75075500D01*
X192687347Y-75075500D01*
X192989832Y-75075499D01*
X192992782Y-75075220D01*
X192992787Y-75075220D01*
X193012850Y-75073324D01*
X193012851Y-75073324D01*
X193020500Y-75072601D01*
X193027748Y-75070056D01*
X193027751Y-75070055D01*
X193135879Y-75032083D01*
X193135881Y-75032082D01*
X193144768Y-75028961D01*
X193152343Y-75023366D01*
X193152345Y-75023365D01*
X193243140Y-74956303D01*
X193250711Y-74950711D01*
X193328961Y-74844768D01*
X193342754Y-74805492D01*
X193354025Y-74773397D01*
X193395468Y-74715752D01*
X193417855Y-74702054D01*
X193427184Y-74699554D01*
X193436214Y-74693231D01*
X193436216Y-74693230D01*
X193458044Y-74677945D01*
X193467315Y-74672039D01*
X193490406Y-74658707D01*
X193499955Y-74653194D01*
X193524185Y-74624318D01*
X193531611Y-74616215D01*
X193609406Y-74538420D01*
X193671718Y-74504394D01*
X193742533Y-74509459D01*
X193799369Y-74552006D01*
X193824180Y-74618526D01*
X193824501Y-74627510D01*
X193824501Y-74689832D01*
X193824780Y-74692782D01*
X193824780Y-74692787D01*
X193825552Y-74700951D01*
X193827399Y-74720500D01*
X193829944Y-74727748D01*
X193829945Y-74727751D01*
X193856702Y-74803941D01*
X193871039Y-74844768D01*
X193949289Y-74950711D01*
X193956860Y-74956303D01*
X194047655Y-75023365D01*
X194047657Y-75023366D01*
X194055232Y-75028961D01*
X194064119Y-75032082D01*
X194064121Y-75032083D01*
X194172252Y-75070056D01*
X194172254Y-75070057D01*
X194179500Y-75072601D01*
X194187144Y-75073324D01*
X194187146Y-75073324D01*
X194195121Y-75074078D01*
X194210167Y-75075500D01*
X194512347Y-75075500D01*
X194814832Y-75075499D01*
X194817782Y-75075220D01*
X194817787Y-75075220D01*
X194837850Y-75073324D01*
X194837851Y-75073324D01*
X194845500Y-75072601D01*
X194852748Y-75070056D01*
X194852751Y-75070055D01*
X194960879Y-75032083D01*
X194960881Y-75032082D01*
X194969768Y-75028961D01*
X194977343Y-75023366D01*
X194977345Y-75023365D01*
X195068140Y-74956303D01*
X195075711Y-74950711D01*
X195153961Y-74844768D01*
X195154892Y-74845456D01*
X195198139Y-74801079D01*
X195267313Y-74785096D01*
X195279647Y-74786430D01*
X195400000Y-74805492D01*
X195409793Y-74803941D01*
X195515513Y-74787197D01*
X195515515Y-74787196D01*
X195525304Y-74785646D01*
X195638342Y-74728050D01*
X195728050Y-74638342D01*
X195785646Y-74525304D01*
X195805492Y-74400000D01*
X195794289Y-74329264D01*
X195787197Y-74284487D01*
X195787196Y-74284485D01*
X195785646Y-74274696D01*
X195728050Y-74161658D01*
X195638342Y-74071950D01*
X195525304Y-74014354D01*
X195515515Y-74012804D01*
X195515513Y-74012803D01*
X195409793Y-73996059D01*
X195400000Y-73994508D01*
X195390207Y-73996059D01*
X195379972Y-73997680D01*
X195279654Y-74013569D01*
X195209244Y-74004469D01*
X195155307Y-73959066D01*
X195153961Y-73955232D01*
X195075711Y-73849289D01*
X195017776Y-73806498D01*
X194977345Y-73776635D01*
X194977343Y-73776634D01*
X194969768Y-73771039D01*
X194960881Y-73767918D01*
X194960879Y-73767917D01*
X194852748Y-73729944D01*
X194852746Y-73729943D01*
X194845500Y-73727399D01*
X194837857Y-73726677D01*
X194837855Y-73726676D01*
X194824778Y-73725440D01*
X194758843Y-73699114D01*
X194717607Y-73641320D01*
X194714163Y-73570407D01*
X194749604Y-73508889D01*
X194812678Y-73476298D01*
X194824784Y-73474559D01*
X194845500Y-73472601D01*
X194852748Y-73470056D01*
X194852751Y-73470055D01*
X194960879Y-73432083D01*
X194960881Y-73432082D01*
X194969768Y-73428961D01*
X194977343Y-73423366D01*
X194977345Y-73423365D01*
X195068140Y-73356303D01*
X195075711Y-73350711D01*
X195130072Y-73277112D01*
X195148365Y-73252345D01*
X195148367Y-73252342D01*
X195153961Y-73244768D01*
X195169979Y-73199158D01*
X195195056Y-73127748D01*
X195195057Y-73127746D01*
X195197601Y-73120500D01*
X195200500Y-73089833D01*
X195200499Y-72510168D01*
X195199581Y-72500446D01*
X195198324Y-72487150D01*
X195198324Y-72487149D01*
X195197601Y-72479500D01*
X195183091Y-72438182D01*
X195157083Y-72364121D01*
X195157081Y-72364117D01*
X195153961Y-72355232D01*
X195138426Y-72334198D01*
X195081303Y-72256860D01*
X195075711Y-72249289D01*
X195021359Y-72209144D01*
X194977345Y-72176635D01*
X194977343Y-72176634D01*
X194969768Y-72171039D01*
X194960881Y-72167918D01*
X194960879Y-72167917D01*
X194852748Y-72129944D01*
X194852746Y-72129943D01*
X194845500Y-72127399D01*
X194837856Y-72126676D01*
X194837854Y-72126676D01*
X194829879Y-72125922D01*
X194814833Y-72124500D01*
X194512653Y-72124500D01*
X194210168Y-72124501D01*
X194207218Y-72124780D01*
X194207213Y-72124780D01*
X194187150Y-72126676D01*
X194187149Y-72126676D01*
X194179500Y-72127399D01*
X194172252Y-72129944D01*
X194172249Y-72129945D01*
X194064121Y-72167917D01*
X194064119Y-72167918D01*
X194055232Y-72171039D01*
X194047657Y-72176634D01*
X194047655Y-72176635D01*
X194003641Y-72209144D01*
X193949289Y-72249289D01*
X193943697Y-72256860D01*
X193902340Y-72312854D01*
X193871039Y-72355232D01*
X193867920Y-72364113D01*
X193867916Y-72364121D01*
X193850102Y-72414848D01*
X193808659Y-72472493D01*
X193779786Y-72488472D01*
X193774455Y-72489412D01*
X193764907Y-72494925D01*
X193761631Y-72496117D01*
X193758469Y-72497591D01*
X193747816Y-72500446D01*
X193738785Y-72506770D01*
X193716956Y-72522055D01*
X193707685Y-72527961D01*
X193684594Y-72541293D01*
X193675045Y-72546806D01*
X193667959Y-72555251D01*
X193650815Y-72575682D01*
X193643389Y-72583785D01*
X193590594Y-72636580D01*
X193528282Y-72670606D01*
X193457467Y-72665541D01*
X193400631Y-72622994D01*
X193375820Y-72556474D01*
X193375499Y-72547485D01*
X193375499Y-72510168D01*
X193374581Y-72500446D01*
X193373324Y-72487150D01*
X193373324Y-72487149D01*
X193372601Y-72479500D01*
X193358091Y-72438182D01*
X193332083Y-72364121D01*
X193332081Y-72364117D01*
X193328961Y-72355232D01*
X193313426Y-72334198D01*
X193256303Y-72256860D01*
X193250711Y-72249289D01*
X193196359Y-72209144D01*
X193152345Y-72176635D01*
X193152343Y-72176634D01*
X193144768Y-72171039D01*
X193135881Y-72167918D01*
X193135879Y-72167917D01*
X193027748Y-72129944D01*
X193027746Y-72129943D01*
X193020500Y-72127399D01*
X193012856Y-72126676D01*
X193012854Y-72126676D01*
X193004879Y-72125922D01*
X192989833Y-72124500D01*
X192687653Y-72124500D01*
X192385168Y-72124501D01*
X192382218Y-72124780D01*
X192382213Y-72124780D01*
X192362150Y-72126676D01*
X192362149Y-72126676D01*
X192354500Y-72127399D01*
X192347252Y-72129944D01*
X192347249Y-72129945D01*
X192239121Y-72167917D01*
X192239119Y-72167918D01*
X192230232Y-72171039D01*
X192222657Y-72176634D01*
X192222655Y-72176635D01*
X192178641Y-72209144D01*
X192124289Y-72249289D01*
X192118697Y-72256860D01*
X192077340Y-72312854D01*
X192046039Y-72355232D01*
X192041109Y-72369270D01*
X192033742Y-72390248D01*
X191992299Y-72447894D01*
X191926269Y-72473982D01*
X191914859Y-72474500D01*
X191489001Y-72474500D01*
X191420880Y-72454498D01*
X191374387Y-72400842D01*
X191363001Y-72348500D01*
X191363001Y-72116782D01*
X191354372Y-72058162D01*
X191354285Y-72057574D01*
X191354285Y-72057573D01*
X191352859Y-72047888D01*
X191328361Y-71997992D01*
X191306023Y-71952493D01*
X191306022Y-71952491D01*
X191301433Y-71943145D01*
X191248462Y-71890266D01*
X191224983Y-71866828D01*
X191190904Y-71804545D01*
X191188001Y-71777655D01*
X191188001Y-71201499D01*
X191208003Y-71133378D01*
X191261659Y-71086885D01*
X191314001Y-71075499D01*
X191327333Y-71075499D01*
X191330283Y-71075220D01*
X191330288Y-71075220D01*
X191350351Y-71073324D01*
X191350352Y-71073324D01*
X191358001Y-71072601D01*
X191365249Y-71070056D01*
X191365252Y-71070055D01*
X191473380Y-71032083D01*
X191473382Y-71032082D01*
X191482269Y-71028961D01*
X191489844Y-71023366D01*
X191489846Y-71023365D01*
X191580641Y-70956303D01*
X191588212Y-70950711D01*
X191666462Y-70844768D01*
X191676568Y-70815992D01*
X191707557Y-70727748D01*
X191707558Y-70727746D01*
X191710102Y-70720500D01*
X191713001Y-70689833D01*
X191713000Y-70110168D01*
X191710102Y-70079500D01*
X191690821Y-70024595D01*
X191669584Y-69964121D01*
X191669583Y-69964119D01*
X191666462Y-69955232D01*
X191625668Y-69900000D01*
X191593804Y-69856860D01*
X191588212Y-69849289D01*
X191580641Y-69843697D01*
X191489846Y-69776635D01*
X191489844Y-69776634D01*
X191482269Y-69771039D01*
X191473379Y-69767917D01*
X191384752Y-69736793D01*
X191327107Y-69695350D01*
X191301019Y-69629320D01*
X191300501Y-69617911D01*
X191300501Y-69482212D01*
X191300981Y-69471230D01*
X191301731Y-69462661D01*
X191304265Y-69433695D01*
X191295237Y-69400000D01*
X191294512Y-69397293D01*
X191292134Y-69386566D01*
X191287505Y-69360316D01*
X191287503Y-69360311D01*
X191285589Y-69349456D01*
X191280076Y-69339908D01*
X191278884Y-69336632D01*
X191277410Y-69333470D01*
X191274555Y-69322817D01*
X191252946Y-69291957D01*
X191247040Y-69282686D01*
X191233708Y-69259595D01*
X191228195Y-69250046D01*
X191199326Y-69225822D01*
X191191221Y-69218395D01*
X190888423Y-68915595D01*
X190854398Y-68853283D01*
X190859463Y-68782467D01*
X190902010Y-68725632D01*
X190968531Y-68700821D01*
X190977519Y-68700500D01*
X191432248Y-68700500D01*
X191438316Y-68699293D01*
X191478561Y-68691288D01*
X191478562Y-68691288D01*
X191490731Y-68688867D01*
X191557052Y-68644552D01*
X191601367Y-68578231D01*
X191604676Y-68561599D01*
X191611793Y-68525816D01*
X191613000Y-68519748D01*
X191613000Y-65080252D01*
X191601367Y-65021769D01*
X191557052Y-64955448D01*
X191490731Y-64911133D01*
X191478562Y-64908712D01*
X191478561Y-64908712D01*
X191438316Y-64900707D01*
X191432248Y-64899500D01*
X189592752Y-64899500D01*
X189572186Y-64903591D01*
X189501473Y-64897263D01*
X189445406Y-64853709D01*
X189431093Y-64819827D01*
X189428774Y-64820671D01*
X189425003Y-64810312D01*
X189423089Y-64799456D01*
X189417576Y-64789908D01*
X189416384Y-64786632D01*
X189414910Y-64783470D01*
X189412055Y-64772817D01*
X189390446Y-64741957D01*
X189384540Y-64732686D01*
X189371208Y-64709595D01*
X189365695Y-64700046D01*
X189336818Y-64675816D01*
X189328716Y-64668390D01*
X188544112Y-63883786D01*
X188536685Y-63875682D01*
X188519542Y-63855252D01*
X188519543Y-63855252D01*
X188512456Y-63846807D01*
X188502391Y-63840996D01*
X188479816Y-63827962D01*
X188470545Y-63822056D01*
X188448716Y-63806771D01*
X188439685Y-63800447D01*
X188429035Y-63797593D01*
X188425867Y-63796116D01*
X188422591Y-63794924D01*
X188413046Y-63789413D01*
X188379302Y-63783463D01*
X188375943Y-63782871D01*
X188365216Y-63780493D01*
X188328808Y-63770737D01*
X188317823Y-63771698D01*
X188317821Y-63771698D01*
X188291273Y-63774021D01*
X188280291Y-63774501D01*
X186821524Y-63774501D01*
X186821522Y-63774502D01*
X186461599Y-63774502D01*
X186455532Y-63775709D01*
X186455529Y-63775709D01*
X186397053Y-63787340D01*
X186397052Y-63787340D01*
X186384882Y-63789761D01*
X186374565Y-63796655D01*
X186374564Y-63796655D01*
X186327710Y-63827962D01*
X186297887Y-63847889D01*
X186290994Y-63858205D01*
X186246652Y-63924567D01*
X186246651Y-63924569D01*
X186239759Y-63934884D01*
X186224499Y-64011600D01*
X186224500Y-64188401D01*
X186239759Y-64265118D01*
X186246653Y-64275435D01*
X186249703Y-64280000D01*
X186270917Y-64347753D01*
X186249703Y-64420002D01*
X186239759Y-64434884D01*
X186224499Y-64511600D01*
X186224500Y-64688401D01*
X186239759Y-64765118D01*
X186297887Y-64852113D01*
X186308203Y-64859006D01*
X186374565Y-64903348D01*
X186374567Y-64903349D01*
X186384882Y-64910241D01*
X186397049Y-64912661D01*
X186397051Y-64912662D01*
X186424019Y-64918026D01*
X186461598Y-64925501D01*
X186849967Y-64925501D01*
X187238399Y-64925500D01*
X187244466Y-64924293D01*
X187244469Y-64924293D01*
X187302945Y-64912662D01*
X187302946Y-64912662D01*
X187315116Y-64910241D01*
X187402111Y-64852113D01*
X187423684Y-64819827D01*
X187453346Y-64775435D01*
X187453347Y-64775433D01*
X187460239Y-64765118D01*
X187475499Y-64688402D01*
X187475498Y-64551501D01*
X187495500Y-64483381D01*
X187549155Y-64436888D01*
X187601498Y-64425501D01*
X188112985Y-64425501D01*
X188181106Y-64445503D01*
X188202080Y-64462406D01*
X188750096Y-65010422D01*
X188784122Y-65072734D01*
X188787001Y-65099517D01*
X188787001Y-67900483D01*
X188766999Y-67968604D01*
X188750096Y-67989578D01*
X188452079Y-68287595D01*
X188389767Y-68321621D01*
X188362984Y-68324500D01*
X186821525Y-68324500D01*
X186821523Y-68324501D01*
X186461600Y-68324501D01*
X186455533Y-68325708D01*
X186455530Y-68325708D01*
X186397054Y-68337339D01*
X186397053Y-68337339D01*
X186384883Y-68339760D01*
X186297888Y-68397888D01*
X186290995Y-68408204D01*
X186246653Y-68474566D01*
X186246652Y-68474568D01*
X186239760Y-68484883D01*
X186237340Y-68497050D01*
X186237339Y-68497052D01*
X186232825Y-68519748D01*
X186224500Y-68561599D01*
X186224501Y-68738400D01*
X186239760Y-68815117D01*
X186246654Y-68825434D01*
X186249704Y-68829999D01*
X186270918Y-68897752D01*
X186249704Y-68970001D01*
X186239760Y-68984883D01*
X186224500Y-69061599D01*
X186224501Y-69238400D01*
X186225708Y-69244467D01*
X186225708Y-69244470D01*
X186233309Y-69282686D01*
X186239760Y-69315117D01*
X186246654Y-69325434D01*
X186246654Y-69325435D01*
X186290995Y-69391796D01*
X186297888Y-69402112D01*
X186308204Y-69409005D01*
X186374566Y-69453347D01*
X186374568Y-69453348D01*
X186384883Y-69460240D01*
X186397050Y-69462660D01*
X186397052Y-69462661D01*
X186437320Y-69470671D01*
X186461599Y-69475500D01*
X186849968Y-69475500D01*
X187238400Y-69475499D01*
X187244467Y-69474292D01*
X187244470Y-69474292D01*
X187302946Y-69462661D01*
X187302947Y-69462661D01*
X187315117Y-69460240D01*
X187370787Y-69423043D01*
X187391796Y-69409005D01*
X187402112Y-69402112D01*
X187409005Y-69391796D01*
X187453347Y-69325434D01*
X187453348Y-69325432D01*
X187460240Y-69315117D01*
X187475500Y-69238401D01*
X187475499Y-69101500D01*
X187495501Y-69033380D01*
X187549156Y-68986887D01*
X187601499Y-68975500D01*
X188530290Y-68975500D01*
X188541272Y-68975980D01*
X188567820Y-68978303D01*
X188567822Y-68978303D01*
X188578807Y-68979264D01*
X188615215Y-68969508D01*
X188625942Y-68967130D01*
X188629301Y-68966538D01*
X188663045Y-68960588D01*
X188672590Y-68955077D01*
X188675866Y-68953885D01*
X188679034Y-68952408D01*
X188689684Y-68949554D01*
X188720544Y-68927945D01*
X188729815Y-68922039D01*
X188752906Y-68908707D01*
X188762455Y-68903194D01*
X188786685Y-68874317D01*
X188794111Y-68866215D01*
X189200283Y-68460043D01*
X189262595Y-68426017D01*
X189333410Y-68431082D01*
X189390246Y-68473629D01*
X189412957Y-68524557D01*
X189423633Y-68578231D01*
X189467948Y-68644552D01*
X189534269Y-68688867D01*
X189546438Y-68691288D01*
X189546439Y-68691288D01*
X189586684Y-68699293D01*
X189592752Y-68700500D01*
X190061000Y-68700500D01*
X190129121Y-68720502D01*
X190175614Y-68774158D01*
X190187000Y-68826500D01*
X190187000Y-68980288D01*
X190186520Y-68991270D01*
X190183236Y-69028805D01*
X190186090Y-69039456D01*
X190186090Y-69039457D01*
X190192989Y-69065207D01*
X190195367Y-69075934D01*
X190199996Y-69102184D01*
X190199998Y-69102189D01*
X190201912Y-69113044D01*
X190207425Y-69122592D01*
X190208617Y-69125868D01*
X190210091Y-69129030D01*
X190212946Y-69139683D01*
X190219270Y-69148714D01*
X190234555Y-69170543D01*
X190240461Y-69179814D01*
X190253793Y-69202905D01*
X190259306Y-69212454D01*
X190275237Y-69225822D01*
X190288175Y-69236678D01*
X190296280Y-69244105D01*
X190589206Y-69537032D01*
X190623230Y-69599343D01*
X190618165Y-69670159D01*
X190575618Y-69726994D01*
X190541858Y-69745008D01*
X190476622Y-69767917D01*
X190476620Y-69767918D01*
X190467733Y-69771039D01*
X190460158Y-69776634D01*
X190460156Y-69776635D01*
X190369361Y-69843697D01*
X190361790Y-69849289D01*
X190356198Y-69856860D01*
X190324335Y-69900000D01*
X190283540Y-69955232D01*
X190282011Y-69959585D01*
X190234230Y-70008612D01*
X190165055Y-70024595D01*
X190133863Y-70018715D01*
X190125304Y-70014354D01*
X190069186Y-70005466D01*
X190017536Y-69997285D01*
X189953383Y-69966872D01*
X189935895Y-69947695D01*
X189935866Y-69947655D01*
X189863212Y-69849289D01*
X189855641Y-69843697D01*
X189764846Y-69776635D01*
X189764844Y-69776634D01*
X189757269Y-69771039D01*
X189748382Y-69767918D01*
X189748380Y-69767917D01*
X189640249Y-69729944D01*
X189640247Y-69729943D01*
X189633001Y-69727399D01*
X189625357Y-69726676D01*
X189625355Y-69726676D01*
X189617380Y-69725922D01*
X189602334Y-69724500D01*
X189250180Y-69724500D01*
X188897669Y-69724501D01*
X188894719Y-69724780D01*
X188894714Y-69724780D01*
X188874651Y-69726676D01*
X188874650Y-69726676D01*
X188867001Y-69727399D01*
X188859753Y-69729944D01*
X188859750Y-69729945D01*
X188751622Y-69767917D01*
X188751620Y-69767918D01*
X188742733Y-69771039D01*
X188735158Y-69776634D01*
X188735156Y-69776635D01*
X188644361Y-69843697D01*
X188636790Y-69849289D01*
X188631198Y-69856860D01*
X188599335Y-69900000D01*
X188558540Y-69955232D01*
X188555419Y-69964119D01*
X188555418Y-69964121D01*
X188534181Y-70024595D01*
X188514900Y-70079500D01*
X188512001Y-70110167D01*
X188512002Y-70689832D01*
X188514900Y-70720500D01*
X188517445Y-70727748D01*
X188517446Y-70727751D01*
X188548435Y-70815992D01*
X188558540Y-70844768D01*
X188636790Y-70950711D01*
X188644361Y-70956303D01*
X188735156Y-71023365D01*
X188735158Y-71023366D01*
X188742733Y-71028961D01*
X188751620Y-71032082D01*
X188751622Y-71032083D01*
X188859753Y-71070056D01*
X188859755Y-71070057D01*
X188867001Y-71072601D01*
X188874645Y-71073324D01*
X188874647Y-71073324D01*
X188882622Y-71074078D01*
X188897668Y-71075500D01*
X189249822Y-71075500D01*
X189602333Y-71075499D01*
X189605283Y-71075220D01*
X189605288Y-71075220D01*
X189625351Y-71073324D01*
X189625352Y-71073324D01*
X189633001Y-71072601D01*
X189640249Y-71070056D01*
X189640252Y-71070055D01*
X189748380Y-71032083D01*
X189748382Y-71032082D01*
X189757269Y-71028961D01*
X189764844Y-71023366D01*
X189764846Y-71023365D01*
X189855641Y-70956303D01*
X189863212Y-70950711D01*
X189935895Y-70852305D01*
X189992456Y-70809394D01*
X190017536Y-70802715D01*
X190069186Y-70794534D01*
X190125304Y-70785646D01*
X190133739Y-70781348D01*
X190204459Y-70779329D01*
X190265256Y-70815992D01*
X190281528Y-70839040D01*
X190283540Y-70844768D01*
X190361790Y-70950711D01*
X190467733Y-71028961D01*
X190471864Y-71030412D01*
X190520804Y-71078111D01*
X190537001Y-71139911D01*
X190537001Y-71466419D01*
X190516999Y-71534540D01*
X190463343Y-71581033D01*
X190393069Y-71591137D01*
X190328489Y-71561643D01*
X190321906Y-71555514D01*
X190238342Y-71471950D01*
X190125304Y-71414354D01*
X190115515Y-71412804D01*
X190115513Y-71412803D01*
X190009793Y-71396059D01*
X190000000Y-71394508D01*
X189990207Y-71396059D01*
X189884487Y-71412803D01*
X189884485Y-71412804D01*
X189874696Y-71414354D01*
X189761658Y-71471950D01*
X189671950Y-71561658D01*
X189614354Y-71674696D01*
X189612804Y-71684485D01*
X189612803Y-71684487D01*
X189596438Y-71787812D01*
X189566025Y-71851965D01*
X189556190Y-71860801D01*
X189555646Y-71861068D01*
X189553503Y-71863215D01*
X189526654Y-71890111D01*
X189464371Y-71924191D01*
X189393551Y-71919188D01*
X189348463Y-71890267D01*
X189318851Y-71860707D01*
X189214019Y-71809464D01*
X189180301Y-71804545D01*
X189150245Y-71800160D01*
X189150241Y-71800160D01*
X189145719Y-71799500D01*
X188779283Y-71799500D01*
X188774733Y-71800170D01*
X188774730Y-71800170D01*
X188720075Y-71808216D01*
X188720074Y-71808216D01*
X188710389Y-71809642D01*
X188660493Y-71834140D01*
X188614994Y-71856478D01*
X188614992Y-71856479D01*
X188605646Y-71861068D01*
X188523208Y-71943650D01*
X188471965Y-72048482D01*
X188462001Y-72116782D01*
X188462001Y-72209144D01*
X188441999Y-72277265D01*
X188388343Y-72323758D01*
X188325023Y-72334665D01*
X188308693Y-72333236D01*
X188272285Y-72342992D01*
X188261558Y-72345370D01*
X188258199Y-72345962D01*
X188224455Y-72351912D01*
X188214910Y-72357423D01*
X188211634Y-72358615D01*
X188208466Y-72360092D01*
X188197816Y-72362946D01*
X188188785Y-72369270D01*
X188166956Y-72384555D01*
X188157685Y-72390461D01*
X188139705Y-72400842D01*
X188125045Y-72409306D01*
X188117959Y-72417751D01*
X188100815Y-72438182D01*
X188093389Y-72446285D01*
X186902079Y-73637595D01*
X186839767Y-73671621D01*
X186812984Y-73674500D01*
X184726000Y-73674500D01*
X184657879Y-73654498D01*
X184611386Y-73600842D01*
X184600000Y-73548500D01*
X184600000Y-72801500D01*
X184620002Y-72733379D01*
X184673658Y-72686886D01*
X184726000Y-72675500D01*
X185022187Y-72675499D01*
X185027331Y-72675499D01*
X185030281Y-72675220D01*
X185030286Y-72675220D01*
X185050349Y-72673324D01*
X185050350Y-72673324D01*
X185057999Y-72672601D01*
X185065247Y-72670056D01*
X185065250Y-72670055D01*
X185173378Y-72632083D01*
X185173380Y-72632082D01*
X185182267Y-72628961D01*
X185189842Y-72623366D01*
X185189844Y-72623365D01*
X185280639Y-72556303D01*
X185288210Y-72550711D01*
X185307043Y-72525213D01*
X185360864Y-72452345D01*
X185360865Y-72452343D01*
X185366460Y-72444768D01*
X185376968Y-72414848D01*
X185407555Y-72327748D01*
X185407556Y-72327746D01*
X185410100Y-72320500D01*
X185412999Y-72289833D01*
X185412998Y-71710168D01*
X185410100Y-71679500D01*
X185366460Y-71555232D01*
X185288210Y-71449289D01*
X185280639Y-71443697D01*
X185189844Y-71376635D01*
X185189842Y-71376634D01*
X185182267Y-71371039D01*
X185173380Y-71367918D01*
X185173378Y-71367917D01*
X185065247Y-71329944D01*
X185065245Y-71329943D01*
X185057999Y-71327399D01*
X185050355Y-71326676D01*
X185050353Y-71326676D01*
X185042378Y-71325922D01*
X185027332Y-71324500D01*
X184725998Y-71324500D01*
X184657880Y-71304499D01*
X184611387Y-71250844D01*
X184600000Y-71198501D01*
X184600000Y-63001499D01*
X184620002Y-62933378D01*
X184673658Y-62886885D01*
X184725999Y-62875499D01*
X184827332Y-62875499D01*
X184830282Y-62875220D01*
X184830287Y-62875220D01*
X184850350Y-62873324D01*
X184850351Y-62873324D01*
X184858000Y-62872601D01*
X184865248Y-62870056D01*
X184865251Y-62870055D01*
X184973379Y-62832083D01*
X184973381Y-62832082D01*
X184982268Y-62828961D01*
X184989843Y-62823366D01*
X184989845Y-62823365D01*
X185080640Y-62756303D01*
X185088211Y-62750711D01*
X185166461Y-62644768D01*
X185210101Y-62520500D01*
X185213000Y-62489833D01*
X185212999Y-61910168D01*
X185210101Y-61879500D01*
X185166461Y-61755232D01*
X185088211Y-61649289D01*
X185080640Y-61643697D01*
X184989845Y-61576635D01*
X184989843Y-61576634D01*
X184982268Y-61571039D01*
X184973381Y-61567918D01*
X184973379Y-61567917D01*
X184865248Y-61529944D01*
X184865246Y-61529943D01*
X184858000Y-61527399D01*
X184850356Y-61526676D01*
X184850354Y-61526676D01*
X184842379Y-61525922D01*
X184827333Y-61524500D01*
X184726000Y-61524500D01*
X184657879Y-61504498D01*
X184611386Y-61450842D01*
X184600000Y-61398500D01*
X184600000Y-59926000D01*
X184620002Y-59857879D01*
X184673658Y-59811386D01*
X184726000Y-59800000D01*
X197474000Y-59800000D01*
X197542121Y-59820002D01*
G37*
%TD.AperFunction*%
%TD*%
%TA.AperFunction,Conductor*%
%TO.N,GND*%
G36*
X149942121Y-87820002D02*
G01*
X149988614Y-87873658D01*
X150000000Y-87926000D01*
X150000000Y-90674000D01*
X149979998Y-90742121D01*
X149926342Y-90788614D01*
X149874000Y-90800000D01*
X145200000Y-90800000D01*
X145200000Y-95874000D01*
X145179998Y-95942121D01*
X145126342Y-95988614D01*
X145074000Y-96000000D01*
X143326000Y-96000000D01*
X143257879Y-95979998D01*
X143211386Y-95926342D01*
X143200000Y-95874000D01*
X143200000Y-87926000D01*
X143220002Y-87857879D01*
X143273658Y-87811386D01*
X143326000Y-87800000D01*
X149874000Y-87800000D01*
X149942121Y-87820002D01*
G37*
%TD.AperFunction*%
%TD*%
%TA.AperFunction,Conductor*%
%TO.N,+5V*%
G36*
X149742121Y-93420002D02*
G01*
X149788614Y-93473658D01*
X149800000Y-93526000D01*
X149800000Y-96874000D01*
X149779998Y-96942121D01*
X149726342Y-96988614D01*
X149674000Y-97000000D01*
X145726000Y-97000000D01*
X145657879Y-96979998D01*
X145611386Y-96926342D01*
X145600000Y-96874000D01*
X145600000Y-93526000D01*
X145620002Y-93457879D01*
X145673658Y-93411386D01*
X145726000Y-93400000D01*
X149674000Y-93400000D01*
X149742121Y-93420002D01*
G37*
%TD.AperFunction*%
%TD*%
%TA.AperFunction,Conductor*%
%TO.N,+3.3V*%
G36*
X157942121Y-88620002D02*
G01*
X157988614Y-88673658D01*
X158000000Y-88726000D01*
X158000000Y-94074000D01*
X157979998Y-94142121D01*
X157926342Y-94188614D01*
X157874000Y-94200000D01*
X152526000Y-94200000D01*
X152457879Y-94179998D01*
X152411386Y-94126342D01*
X152400000Y-94074000D01*
X152400000Y-93000000D01*
X145526000Y-93000000D01*
X145457879Y-92979998D01*
X145411386Y-92926342D01*
X145400000Y-92874000D01*
X145400000Y-91126000D01*
X145420002Y-91057879D01*
X145473658Y-91011386D01*
X145526000Y-91000000D01*
X152400000Y-91000000D01*
X152400000Y-88726000D01*
X152420002Y-88657879D01*
X152473658Y-88611386D01*
X152526000Y-88600000D01*
X157874000Y-88600000D01*
X157942121Y-88620002D01*
G37*
%TD.AperFunction*%
%TD*%
%TA.AperFunction,Conductor*%
%TO.N,GND*%
G36*
X163342121Y-82420002D02*
G01*
X163388614Y-82473658D01*
X163400000Y-82526000D01*
X163400000Y-85874000D01*
X163379998Y-85942121D01*
X163326342Y-85988614D01*
X163274000Y-86000000D01*
X158326000Y-86000000D01*
X158257879Y-85979998D01*
X158211386Y-85926342D01*
X158200000Y-85874000D01*
X158200000Y-82526000D01*
X158220002Y-82457879D01*
X158273658Y-82411386D01*
X158326000Y-82400000D01*
X163274000Y-82400000D01*
X163342121Y-82420002D01*
G37*
%TD.AperFunction*%
%TD*%
%TA.AperFunction,Conductor*%
%TO.N,+3.3V*%
G36*
X172866621Y-77820002D02*
G01*
X172913114Y-77873658D01*
X172924500Y-77926000D01*
X172924500Y-79244646D01*
X172927618Y-79270846D01*
X172931456Y-79279486D01*
X172931456Y-79279487D01*
X172955411Y-79333418D01*
X172973061Y-79373153D01*
X173052287Y-79452241D01*
X173062924Y-79456944D01*
X173062926Y-79456945D01*
X173122462Y-79483265D01*
X173154673Y-79497506D01*
X173180354Y-79500500D01*
X173469646Y-79500500D01*
X173473350Y-79500059D01*
X173473353Y-79500059D01*
X173480746Y-79499179D01*
X173495846Y-79497382D01*
X173598153Y-79451939D01*
X173599868Y-79455801D01*
X173646146Y-79440647D01*
X173701088Y-79454954D01*
X173702287Y-79452241D01*
X173804673Y-79497506D01*
X173830354Y-79500500D01*
X174119646Y-79500500D01*
X174123350Y-79500059D01*
X174123353Y-79500059D01*
X174130746Y-79499179D01*
X174145846Y-79497382D01*
X174248153Y-79451939D01*
X174259426Y-79440647D01*
X174287858Y-79412165D01*
X174327241Y-79372713D01*
X174335738Y-79353495D01*
X174368675Y-79278992D01*
X174372506Y-79270327D01*
X174375500Y-79244646D01*
X174375500Y-77926000D01*
X174395502Y-77857879D01*
X174449158Y-77811386D01*
X174501500Y-77800000D01*
X188674000Y-77800000D01*
X188742121Y-77820002D01*
X188788614Y-77873658D01*
X188800000Y-77926000D01*
X188800000Y-87076973D01*
X188779998Y-87145094D01*
X188726342Y-87191587D01*
X188657554Y-87201895D01*
X188608188Y-87195396D01*
X188600000Y-87194318D01*
X188515097Y-87205496D01*
X188444950Y-87194557D01*
X188426384Y-87183788D01*
X188415184Y-87175946D01*
X188404534Y-87173092D01*
X188401366Y-87171615D01*
X188398090Y-87170423D01*
X188388545Y-87164912D01*
X188354801Y-87158962D01*
X188351442Y-87158370D01*
X188340715Y-87155992D01*
X188304307Y-87146236D01*
X188293322Y-87147197D01*
X188293320Y-87147197D01*
X188266772Y-87149520D01*
X188255790Y-87150000D01*
X187119615Y-87150000D01*
X187108634Y-87149521D01*
X187082072Y-87147197D01*
X187082070Y-87147197D01*
X187071095Y-87146237D01*
X187034685Y-87155992D01*
X187023978Y-87158366D01*
X186986857Y-87164912D01*
X186977313Y-87170422D01*
X186974037Y-87171614D01*
X186970866Y-87173093D01*
X186960218Y-87175946D01*
X186951189Y-87182268D01*
X186929351Y-87197559D01*
X186920081Y-87203464D01*
X186896994Y-87216793D01*
X186896990Y-87216796D01*
X186887447Y-87222306D01*
X186880361Y-87230751D01*
X186870927Y-87241993D01*
X186811817Y-87281318D01*
X186774407Y-87287000D01*
X186259025Y-87287000D01*
X186259023Y-87287001D01*
X185886600Y-87287001D01*
X185880533Y-87288208D01*
X185880530Y-87288208D01*
X185822054Y-87299839D01*
X185822053Y-87299839D01*
X185809883Y-87302260D01*
X185722888Y-87360388D01*
X185715995Y-87370704D01*
X185671653Y-87437066D01*
X185671653Y-87437067D01*
X185664760Y-87447383D01*
X185662340Y-87459550D01*
X185662339Y-87459552D01*
X185656382Y-87489502D01*
X185649500Y-87524099D01*
X185649501Y-87700900D01*
X185650708Y-87706967D01*
X185650708Y-87706970D01*
X185652197Y-87714454D01*
X185664760Y-87777617D01*
X185671654Y-87787934D01*
X185674704Y-87792499D01*
X185695918Y-87860252D01*
X185674704Y-87932501D01*
X185664760Y-87947383D01*
X185649500Y-88024099D01*
X185649501Y-88200900D01*
X185650708Y-88206967D01*
X185650708Y-88206970D01*
X185654947Y-88228282D01*
X185664760Y-88277617D01*
X185671654Y-88287934D01*
X185674704Y-88292499D01*
X185695918Y-88360252D01*
X185674704Y-88432501D01*
X185664760Y-88447383D01*
X185649500Y-88524099D01*
X185649501Y-88700900D01*
X185650708Y-88706967D01*
X185650708Y-88706970D01*
X185662339Y-88765446D01*
X185664760Y-88777617D01*
X185671654Y-88787934D01*
X185674704Y-88792499D01*
X185695918Y-88860252D01*
X185674704Y-88932501D01*
X185664760Y-88947383D01*
X185662340Y-88959550D01*
X185662339Y-88959552D01*
X185656382Y-88989502D01*
X185649500Y-89024099D01*
X185649501Y-89200900D01*
X185650708Y-89206967D01*
X185650708Y-89206970D01*
X185662339Y-89265446D01*
X185664760Y-89277617D01*
X185671654Y-89287934D01*
X185671654Y-89287935D01*
X185702804Y-89334554D01*
X185722888Y-89364612D01*
X185733204Y-89371505D01*
X185799566Y-89415847D01*
X185799568Y-89415848D01*
X185809883Y-89422740D01*
X185822050Y-89425160D01*
X185822052Y-89425161D01*
X185860582Y-89432825D01*
X185923492Y-89465733D01*
X185958623Y-89527428D01*
X185962000Y-89556404D01*
X185962000Y-90067790D01*
X185961520Y-90078772D01*
X185958236Y-90116307D01*
X185967991Y-90152710D01*
X185970370Y-90163442D01*
X185976912Y-90200545D01*
X185982423Y-90210090D01*
X185983615Y-90213366D01*
X185985092Y-90216534D01*
X185987946Y-90227184D01*
X186000844Y-90245604D01*
X186009555Y-90258044D01*
X186015461Y-90267315D01*
X186027366Y-90287935D01*
X186034306Y-90299955D01*
X186042751Y-90307041D01*
X186063175Y-90324179D01*
X186071279Y-90331606D01*
X186279590Y-90539917D01*
X186313616Y-90602229D01*
X186315417Y-90645457D01*
X186309460Y-90690706D01*
X186307478Y-90705758D01*
X186278755Y-90770685D01*
X186219489Y-90809776D01*
X186199002Y-90814233D01*
X186094804Y-90827951D01*
X186048782Y-90834010D01*
X186041154Y-90837170D01*
X186041149Y-90837171D01*
X186017352Y-90847028D01*
X185946762Y-90854617D01*
X185880040Y-90819714D01*
X185462405Y-90402079D01*
X185428379Y-90339767D01*
X185425500Y-90312984D01*
X185425500Y-89771525D01*
X185425499Y-89771522D01*
X185425499Y-89399100D01*
X185423150Y-89387286D01*
X185412661Y-89334554D01*
X185412660Y-89334552D01*
X185410240Y-89322383D01*
X185403055Y-89311629D01*
X185359005Y-89245704D01*
X185352112Y-89235388D01*
X185338327Y-89226177D01*
X185275434Y-89184153D01*
X185275432Y-89184152D01*
X185265117Y-89177260D01*
X185252950Y-89174840D01*
X185252948Y-89174839D01*
X185222998Y-89168882D01*
X185188401Y-89162000D01*
X185100015Y-89162000D01*
X185011600Y-89162001D01*
X185005533Y-89163208D01*
X185005530Y-89163208D01*
X184947054Y-89174839D01*
X184947053Y-89174839D01*
X184934883Y-89177260D01*
X184920001Y-89187204D01*
X184852248Y-89208418D01*
X184779999Y-89187204D01*
X184777861Y-89185775D01*
X184765117Y-89177260D01*
X184752950Y-89174840D01*
X184752948Y-89174839D01*
X184722998Y-89168882D01*
X184688401Y-89162000D01*
X184600015Y-89162000D01*
X184511600Y-89162001D01*
X184505533Y-89163208D01*
X184505530Y-89163208D01*
X184447054Y-89174839D01*
X184447053Y-89174839D01*
X184434883Y-89177260D01*
X184420001Y-89187204D01*
X184352248Y-89208418D01*
X184279999Y-89187204D01*
X184277861Y-89185775D01*
X184265117Y-89177260D01*
X184252950Y-89174840D01*
X184252948Y-89174839D01*
X184222998Y-89168882D01*
X184188401Y-89162000D01*
X184100015Y-89162000D01*
X184011600Y-89162001D01*
X184005533Y-89163208D01*
X184005530Y-89163208D01*
X183947054Y-89174839D01*
X183947053Y-89174839D01*
X183934883Y-89177260D01*
X183920001Y-89187204D01*
X183852248Y-89208418D01*
X183779999Y-89187204D01*
X183777861Y-89185775D01*
X183765117Y-89177260D01*
X183752950Y-89174840D01*
X183752948Y-89174839D01*
X183722998Y-89168882D01*
X183688401Y-89162000D01*
X183600015Y-89162000D01*
X183511600Y-89162001D01*
X183505533Y-89163208D01*
X183505530Y-89163208D01*
X183447054Y-89174839D01*
X183447053Y-89174839D01*
X183434883Y-89177260D01*
X183420001Y-89187204D01*
X183352248Y-89208418D01*
X183279999Y-89187204D01*
X183277861Y-89185775D01*
X183265117Y-89177260D01*
X183252950Y-89174840D01*
X183252948Y-89174839D01*
X183222998Y-89168882D01*
X183188401Y-89162000D01*
X183100015Y-89162000D01*
X183011600Y-89162001D01*
X183005533Y-89163208D01*
X183005530Y-89163208D01*
X182947054Y-89174839D01*
X182947053Y-89174839D01*
X182934883Y-89177260D01*
X182920001Y-89187204D01*
X182852248Y-89208418D01*
X182779999Y-89187204D01*
X182777861Y-89185775D01*
X182765117Y-89177260D01*
X182752950Y-89174840D01*
X182752948Y-89174839D01*
X182722998Y-89168882D01*
X182688401Y-89162000D01*
X182600015Y-89162000D01*
X182511600Y-89162001D01*
X182505533Y-89163208D01*
X182505530Y-89163208D01*
X182447054Y-89174839D01*
X182447053Y-89174839D01*
X182434883Y-89177260D01*
X182420001Y-89187204D01*
X182352248Y-89208418D01*
X182279999Y-89187204D01*
X182277861Y-89185775D01*
X182265117Y-89177260D01*
X182252950Y-89174840D01*
X182252948Y-89174839D01*
X182222998Y-89168882D01*
X182188401Y-89162000D01*
X182100015Y-89162000D01*
X182011600Y-89162001D01*
X182005533Y-89163208D01*
X182005530Y-89163208D01*
X181947054Y-89174839D01*
X181947053Y-89174839D01*
X181934883Y-89177260D01*
X181924567Y-89184153D01*
X181924565Y-89184154D01*
X181861673Y-89226177D01*
X181847888Y-89235388D01*
X181840995Y-89245704D01*
X181796653Y-89312066D01*
X181796652Y-89312068D01*
X181789760Y-89322383D01*
X181774500Y-89399099D01*
X181774500Y-91148674D01*
X181754498Y-91216795D01*
X181737595Y-91237769D01*
X181640595Y-91334769D01*
X181578283Y-91368795D01*
X181507468Y-91363730D01*
X181450632Y-91321183D01*
X181425821Y-91254663D01*
X181425500Y-91245674D01*
X181425500Y-89771525D01*
X181425499Y-89771522D01*
X181425499Y-89399100D01*
X181423150Y-89387286D01*
X181412661Y-89334554D01*
X181412660Y-89334552D01*
X181410240Y-89322383D01*
X181403055Y-89311629D01*
X181359005Y-89245704D01*
X181352112Y-89235388D01*
X181338327Y-89226177D01*
X181275434Y-89184153D01*
X181275432Y-89184152D01*
X181265117Y-89177260D01*
X181252950Y-89174840D01*
X181252948Y-89174839D01*
X181222998Y-89168882D01*
X181188401Y-89162000D01*
X181100015Y-89162000D01*
X181011600Y-89162001D01*
X181005533Y-89163208D01*
X181005530Y-89163208D01*
X180947054Y-89174839D01*
X180947053Y-89174839D01*
X180934883Y-89177260D01*
X180920001Y-89187204D01*
X180852248Y-89208418D01*
X180779999Y-89187204D01*
X180777861Y-89185775D01*
X180765117Y-89177260D01*
X180752950Y-89174840D01*
X180752948Y-89174839D01*
X180722998Y-89168882D01*
X180688401Y-89162000D01*
X180600015Y-89162000D01*
X180511600Y-89162001D01*
X180505533Y-89163208D01*
X180505530Y-89163208D01*
X180447054Y-89174839D01*
X180447053Y-89174839D01*
X180434883Y-89177260D01*
X180420001Y-89187204D01*
X180352248Y-89208418D01*
X180279999Y-89187204D01*
X180277861Y-89185775D01*
X180265117Y-89177260D01*
X180252950Y-89174840D01*
X180252948Y-89174839D01*
X180222998Y-89168882D01*
X180188401Y-89162000D01*
X180100015Y-89162000D01*
X180011600Y-89162001D01*
X180005533Y-89163208D01*
X180005530Y-89163208D01*
X179947054Y-89174839D01*
X179947053Y-89174839D01*
X179934883Y-89177260D01*
X179924567Y-89184153D01*
X179924565Y-89184154D01*
X179861673Y-89226177D01*
X179847888Y-89235388D01*
X179840995Y-89245704D01*
X179796653Y-89312066D01*
X179796652Y-89312068D01*
X179789760Y-89322383D01*
X179774500Y-89399099D01*
X179774500Y-90112984D01*
X179754498Y-90181105D01*
X179737595Y-90202079D01*
X179640595Y-90299079D01*
X179578283Y-90333105D01*
X179507468Y-90328040D01*
X179450632Y-90285493D01*
X179425821Y-90218973D01*
X179425500Y-90209984D01*
X179425500Y-89771525D01*
X179425499Y-89771522D01*
X179425499Y-89399100D01*
X179423150Y-89387286D01*
X179412661Y-89334554D01*
X179412660Y-89334552D01*
X179410240Y-89322383D01*
X179403055Y-89311629D01*
X179359005Y-89245704D01*
X179352112Y-89235388D01*
X179338327Y-89226177D01*
X179275434Y-89184153D01*
X179275432Y-89184152D01*
X179265117Y-89177260D01*
X179252950Y-89174840D01*
X179252948Y-89174839D01*
X179222998Y-89168882D01*
X179188401Y-89162000D01*
X179100015Y-89162000D01*
X179011600Y-89162001D01*
X179005533Y-89163208D01*
X179005530Y-89163208D01*
X178947054Y-89174839D01*
X178947053Y-89174839D01*
X178934883Y-89177260D01*
X178920001Y-89187204D01*
X178852248Y-89208418D01*
X178779999Y-89187204D01*
X178777861Y-89185775D01*
X178765117Y-89177260D01*
X178752950Y-89174840D01*
X178752948Y-89174839D01*
X178722998Y-89168882D01*
X178688401Y-89162000D01*
X178600015Y-89162000D01*
X178511600Y-89162001D01*
X178505533Y-89163208D01*
X178505530Y-89163208D01*
X178447054Y-89174839D01*
X178447053Y-89174839D01*
X178434883Y-89177260D01*
X178420001Y-89187204D01*
X178352248Y-89208418D01*
X178279999Y-89187204D01*
X178277861Y-89185775D01*
X178265117Y-89177260D01*
X178252950Y-89174840D01*
X178252948Y-89174839D01*
X178222998Y-89168882D01*
X178188401Y-89162000D01*
X178100015Y-89162000D01*
X178011600Y-89162001D01*
X178005533Y-89163208D01*
X178005530Y-89163208D01*
X177947054Y-89174839D01*
X177947053Y-89174839D01*
X177934883Y-89177260D01*
X177920001Y-89187204D01*
X177852248Y-89208418D01*
X177779999Y-89187204D01*
X177777861Y-89185775D01*
X177765117Y-89177260D01*
X177752950Y-89174840D01*
X177752948Y-89174839D01*
X177722998Y-89168882D01*
X177688401Y-89162000D01*
X177600015Y-89162000D01*
X177511600Y-89162001D01*
X177505533Y-89163208D01*
X177505530Y-89163208D01*
X177447054Y-89174839D01*
X177447053Y-89174839D01*
X177434883Y-89177260D01*
X177420001Y-89187204D01*
X177352248Y-89208418D01*
X177279999Y-89187204D01*
X177277861Y-89185775D01*
X177265117Y-89177260D01*
X177252950Y-89174840D01*
X177252948Y-89174839D01*
X177222998Y-89168882D01*
X177188401Y-89162000D01*
X177176499Y-89162000D01*
X177108378Y-89141998D01*
X177061885Y-89088342D01*
X177050499Y-89036000D01*
X177050499Y-89024100D01*
X177035240Y-88947383D01*
X177025296Y-88932501D01*
X177004082Y-88864748D01*
X177025296Y-88792499D01*
X177028347Y-88787933D01*
X177035240Y-88777617D01*
X177040715Y-88750096D01*
X177045170Y-88727696D01*
X177050500Y-88700901D01*
X177050499Y-88524100D01*
X177035240Y-88447383D01*
X177025296Y-88432501D01*
X177004082Y-88364748D01*
X177025296Y-88292499D01*
X177028347Y-88287933D01*
X177035240Y-88277617D01*
X177050500Y-88200901D01*
X177050499Y-88024100D01*
X177046622Y-88004604D01*
X177037661Y-87959554D01*
X177037660Y-87959552D01*
X177035240Y-87947383D01*
X177025296Y-87932501D01*
X177004082Y-87864748D01*
X177025296Y-87792499D01*
X177028347Y-87787933D01*
X177035240Y-87777617D01*
X177050500Y-87700901D01*
X177050499Y-87606940D01*
X178144901Y-87606940D01*
X178146065Y-87615842D01*
X178146065Y-87615845D01*
X178148436Y-87633973D01*
X178149500Y-87650310D01*
X178149500Y-87882248D01*
X178150707Y-87888316D01*
X178157912Y-87924536D01*
X178161133Y-87940731D01*
X178205448Y-88007052D01*
X178271769Y-88051367D01*
X178283938Y-88053788D01*
X178283939Y-88053788D01*
X178324184Y-88061793D01*
X178330252Y-88063000D01*
X178592736Y-88063000D01*
X178595045Y-88063021D01*
X178647282Y-88063979D01*
X178647285Y-88063979D01*
X178656255Y-88064143D01*
X178659709Y-88063201D01*
X178662952Y-88063000D01*
X179692736Y-88063000D01*
X179695045Y-88063021D01*
X179747282Y-88063979D01*
X179747285Y-88063979D01*
X179756255Y-88064143D01*
X179759709Y-88063201D01*
X179762952Y-88063000D01*
X180792736Y-88063000D01*
X180795045Y-88063021D01*
X180847282Y-88063979D01*
X180847285Y-88063979D01*
X180856255Y-88064143D01*
X180859709Y-88063201D01*
X180862952Y-88063000D01*
X181892736Y-88063000D01*
X181895045Y-88063021D01*
X181947282Y-88063979D01*
X181947285Y-88063979D01*
X181956255Y-88064143D01*
X181959709Y-88063201D01*
X181962952Y-88063000D01*
X182992736Y-88063000D01*
X182995045Y-88063021D01*
X183047282Y-88063979D01*
X183047285Y-88063979D01*
X183056255Y-88064143D01*
X183059709Y-88063201D01*
X183062952Y-88063000D01*
X184092736Y-88063000D01*
X184095045Y-88063021D01*
X184147282Y-88063979D01*
X184147285Y-88063979D01*
X184156255Y-88064143D01*
X184159709Y-88063201D01*
X184162952Y-88063000D01*
X184369748Y-88063000D01*
X184375816Y-88061793D01*
X184416061Y-88053788D01*
X184416062Y-88053788D01*
X184428231Y-88051367D01*
X184494552Y-88007052D01*
X184538867Y-87940731D01*
X184542089Y-87924536D01*
X184549293Y-87888316D01*
X184550500Y-87882248D01*
X184550500Y-87660876D01*
X184552246Y-87639972D01*
X184554190Y-87628417D01*
X184554997Y-87623620D01*
X184555133Y-87612500D01*
X184551773Y-87589038D01*
X184550500Y-87571176D01*
X184550500Y-86560876D01*
X184552246Y-86539972D01*
X184554190Y-86528417D01*
X184554916Y-86524099D01*
X185649500Y-86524099D01*
X185649501Y-86700900D01*
X185664760Y-86777617D01*
X185671653Y-86787933D01*
X185671654Y-86787935D01*
X185701259Y-86832242D01*
X185722888Y-86864612D01*
X185733204Y-86871505D01*
X185799566Y-86915847D01*
X185799568Y-86915848D01*
X185809883Y-86922740D01*
X185822050Y-86925160D01*
X185822052Y-86925161D01*
X185858954Y-86932501D01*
X185886599Y-86938000D01*
X186287467Y-86938000D01*
X186688400Y-86937999D01*
X186694467Y-86936792D01*
X186694470Y-86936792D01*
X186752946Y-86925161D01*
X186752947Y-86925161D01*
X186765117Y-86922740D01*
X186815242Y-86889248D01*
X186841796Y-86871505D01*
X186852112Y-86864612D01*
X186870492Y-86837105D01*
X186903347Y-86787934D01*
X186903348Y-86787932D01*
X186910240Y-86777617D01*
X186925500Y-86700901D01*
X186925499Y-86524100D01*
X186924159Y-86517359D01*
X186912661Y-86459554D01*
X186912660Y-86459552D01*
X186910240Y-86447383D01*
X186900296Y-86432501D01*
X186879082Y-86364748D01*
X186900296Y-86292499D01*
X186903347Y-86287933D01*
X186910240Y-86277617D01*
X186925500Y-86200901D01*
X186925499Y-86024100D01*
X186914530Y-85968949D01*
X186912661Y-85959554D01*
X186912660Y-85959552D01*
X186910240Y-85947383D01*
X186900296Y-85932501D01*
X186879082Y-85864748D01*
X186900296Y-85792499D01*
X186903347Y-85787933D01*
X186910240Y-85777617D01*
X186916798Y-85744651D01*
X186918618Y-85735498D01*
X186925500Y-85700901D01*
X186925499Y-85524100D01*
X186910240Y-85447383D01*
X186900296Y-85432501D01*
X186879082Y-85364748D01*
X186900296Y-85292499D01*
X186903347Y-85287933D01*
X186910240Y-85277617D01*
X186925500Y-85200901D01*
X186925499Y-85024100D01*
X186910240Y-84947383D01*
X186900296Y-84932501D01*
X186879082Y-84864748D01*
X186900296Y-84792499D01*
X186903347Y-84787933D01*
X186910240Y-84777617D01*
X186925500Y-84700901D01*
X186925499Y-84524100D01*
X186910240Y-84447383D01*
X186900296Y-84432501D01*
X186879082Y-84364748D01*
X186900296Y-84292499D01*
X186903347Y-84287933D01*
X186910240Y-84277617D01*
X186925500Y-84200901D01*
X186925499Y-84024100D01*
X186910240Y-83947383D01*
X186900296Y-83932501D01*
X186879082Y-83864748D01*
X186900296Y-83792499D01*
X186903347Y-83787933D01*
X186910240Y-83777617D01*
X186913119Y-83763147D01*
X186920691Y-83725075D01*
X186925500Y-83700901D01*
X186925499Y-83524100D01*
X186919880Y-83495846D01*
X186912661Y-83459554D01*
X186912660Y-83459552D01*
X186910240Y-83447383D01*
X186900296Y-83432501D01*
X186879082Y-83364748D01*
X186900296Y-83292499D01*
X186903347Y-83287933D01*
X186910240Y-83277617D01*
X186925500Y-83200901D01*
X186925499Y-83024100D01*
X186910240Y-82947383D01*
X186900296Y-82932501D01*
X186879082Y-82864748D01*
X186900296Y-82792499D01*
X186903347Y-82787933D01*
X186910240Y-82777617D01*
X186925500Y-82700901D01*
X186925499Y-82524100D01*
X186910240Y-82447383D01*
X186879858Y-82401912D01*
X186859005Y-82370704D01*
X186852112Y-82360388D01*
X186775435Y-82309154D01*
X186775434Y-82309153D01*
X186775432Y-82309152D01*
X186765117Y-82302260D01*
X186752950Y-82299840D01*
X186752948Y-82299839D01*
X186712680Y-82291829D01*
X186688401Y-82287000D01*
X186287533Y-82287000D01*
X185886600Y-82287001D01*
X185880533Y-82288208D01*
X185880530Y-82288208D01*
X185822054Y-82299839D01*
X185822053Y-82299839D01*
X185809883Y-82302260D01*
X185722888Y-82360388D01*
X185715995Y-82370704D01*
X185671653Y-82437066D01*
X185671653Y-82437067D01*
X185664760Y-82447383D01*
X185649500Y-82524099D01*
X185649501Y-82700900D01*
X185664760Y-82777617D01*
X185674704Y-82792499D01*
X185695918Y-82860252D01*
X185674704Y-82932501D01*
X185664760Y-82947383D01*
X185662340Y-82959550D01*
X185662339Y-82959552D01*
X185656382Y-82989502D01*
X185649500Y-83024099D01*
X185649501Y-83200900D01*
X185650708Y-83206967D01*
X185650708Y-83206970D01*
X185661430Y-83260876D01*
X185664760Y-83277617D01*
X185671654Y-83287934D01*
X185674704Y-83292499D01*
X185695918Y-83360252D01*
X185674704Y-83432501D01*
X185664760Y-83447383D01*
X185662340Y-83459550D01*
X185662339Y-83459552D01*
X185659607Y-83473287D01*
X185649500Y-83524099D01*
X185649501Y-83700900D01*
X185650708Y-83706967D01*
X185650708Y-83706970D01*
X185661882Y-83763147D01*
X185664760Y-83777617D01*
X185671654Y-83787934D01*
X185674704Y-83792499D01*
X185695918Y-83860252D01*
X185674704Y-83932501D01*
X185664760Y-83947383D01*
X185649500Y-84024099D01*
X185649501Y-84200900D01*
X185664760Y-84277617D01*
X185674704Y-84292499D01*
X185695918Y-84360252D01*
X185674704Y-84432501D01*
X185664760Y-84447383D01*
X185649500Y-84524099D01*
X185649501Y-84700900D01*
X185664760Y-84777617D01*
X185674704Y-84792499D01*
X185695918Y-84860252D01*
X185674704Y-84932501D01*
X185664760Y-84947383D01*
X185649500Y-85024099D01*
X185649501Y-85200900D01*
X185664760Y-85277617D01*
X185671654Y-85287934D01*
X185674704Y-85292499D01*
X185695918Y-85360252D01*
X185674704Y-85432501D01*
X185664760Y-85447383D01*
X185649500Y-85524099D01*
X185649501Y-85700900D01*
X185650708Y-85706967D01*
X185650708Y-85706970D01*
X185657203Y-85739624D01*
X185664760Y-85777617D01*
X185674704Y-85792499D01*
X185695918Y-85860252D01*
X185674704Y-85932501D01*
X185664760Y-85947383D01*
X185662340Y-85959550D01*
X185662339Y-85959552D01*
X185660470Y-85968949D01*
X185649500Y-86024099D01*
X185649501Y-86200900D01*
X185650708Y-86206967D01*
X185650708Y-86206970D01*
X185657367Y-86240447D01*
X185664760Y-86277617D01*
X185671654Y-86287934D01*
X185674704Y-86292499D01*
X185695918Y-86360252D01*
X185674704Y-86432501D01*
X185664760Y-86447383D01*
X185649500Y-86524099D01*
X184554916Y-86524099D01*
X184554997Y-86523620D01*
X184555133Y-86512500D01*
X184551773Y-86489038D01*
X184550500Y-86471176D01*
X184550500Y-85460876D01*
X184552246Y-85439972D01*
X184554190Y-85428417D01*
X184554997Y-85423620D01*
X184555133Y-85412500D01*
X184551773Y-85389038D01*
X184550500Y-85371176D01*
X184550500Y-84360876D01*
X184552246Y-84339972D01*
X184554190Y-84328417D01*
X184554997Y-84323620D01*
X184555133Y-84312500D01*
X184551773Y-84289038D01*
X184550500Y-84271176D01*
X184550500Y-83260876D01*
X184552246Y-83239972D01*
X184554190Y-83228417D01*
X184554997Y-83223620D01*
X184555133Y-83212500D01*
X184551773Y-83189038D01*
X184550500Y-83171176D01*
X184550500Y-82160876D01*
X184552246Y-82139972D01*
X184554190Y-82128417D01*
X184554997Y-82123620D01*
X184555133Y-82112500D01*
X184551773Y-82089038D01*
X184550500Y-82071176D01*
X184550500Y-81842752D01*
X184538867Y-81784269D01*
X184494552Y-81717948D01*
X184428231Y-81673633D01*
X184416062Y-81671212D01*
X184416061Y-81671212D01*
X184375816Y-81663207D01*
X184369748Y-81662000D01*
X184107778Y-81662000D01*
X184107009Y-81661998D01*
X184038231Y-81661578D01*
X184037011Y-81661927D01*
X184035933Y-81662000D01*
X183007778Y-81662000D01*
X183007009Y-81661998D01*
X182938231Y-81661578D01*
X182937011Y-81661927D01*
X182935933Y-81662000D01*
X181907778Y-81662000D01*
X181907009Y-81661998D01*
X181838231Y-81661578D01*
X181837011Y-81661927D01*
X181835933Y-81662000D01*
X180807778Y-81662000D01*
X180807009Y-81661998D01*
X180738231Y-81661578D01*
X180737011Y-81661927D01*
X180735933Y-81662000D01*
X179707778Y-81662000D01*
X179707009Y-81661998D01*
X179638231Y-81661578D01*
X179637011Y-81661927D01*
X179635933Y-81662000D01*
X178607778Y-81662000D01*
X178607009Y-81661998D01*
X178538231Y-81661578D01*
X178537011Y-81661927D01*
X178535933Y-81662000D01*
X178330252Y-81662000D01*
X178324184Y-81663207D01*
X178283939Y-81671212D01*
X178283938Y-81671212D01*
X178271769Y-81673633D01*
X178205448Y-81717948D01*
X178161133Y-81784269D01*
X178149500Y-81842752D01*
X178149500Y-82067652D01*
X178148000Y-82087036D01*
X178146282Y-82098067D01*
X178146282Y-82098071D01*
X178144901Y-82106940D01*
X178146065Y-82115842D01*
X178146065Y-82115845D01*
X178148436Y-82133973D01*
X178149500Y-82150310D01*
X178149500Y-83167652D01*
X178148000Y-83187036D01*
X178146282Y-83198067D01*
X178146282Y-83198071D01*
X178144901Y-83206940D01*
X178146065Y-83215842D01*
X178146065Y-83215845D01*
X178148436Y-83233973D01*
X178149500Y-83250310D01*
X178149500Y-84267652D01*
X178148000Y-84287036D01*
X178146282Y-84298067D01*
X178146282Y-84298071D01*
X178144901Y-84306940D01*
X178146065Y-84315842D01*
X178146065Y-84315845D01*
X178148436Y-84333973D01*
X178149500Y-84350310D01*
X178149500Y-85367652D01*
X178148000Y-85387036D01*
X178146282Y-85398067D01*
X178146282Y-85398071D01*
X178144901Y-85406940D01*
X178146065Y-85415842D01*
X178146065Y-85415845D01*
X178148436Y-85433973D01*
X178149500Y-85450310D01*
X178149500Y-86467652D01*
X178148000Y-86487036D01*
X178146282Y-86498067D01*
X178146282Y-86498071D01*
X178144901Y-86506940D01*
X178146065Y-86515842D01*
X178146065Y-86515845D01*
X178148436Y-86533973D01*
X178149500Y-86550310D01*
X178149500Y-87567652D01*
X178148000Y-87587036D01*
X178146282Y-87598067D01*
X178146282Y-87598071D01*
X178144901Y-87606940D01*
X177050499Y-87606940D01*
X177050499Y-87524100D01*
X177045795Y-87500446D01*
X177037661Y-87459554D01*
X177037660Y-87459552D01*
X177035240Y-87447383D01*
X177025296Y-87432501D01*
X177004082Y-87364748D01*
X177025296Y-87292499D01*
X177028347Y-87287933D01*
X177035240Y-87277617D01*
X177039663Y-87255384D01*
X177048386Y-87211527D01*
X177050500Y-87200901D01*
X177050499Y-87024100D01*
X177035240Y-86947383D01*
X177025296Y-86932501D01*
X177004082Y-86864748D01*
X177025296Y-86792499D01*
X177028347Y-86787933D01*
X177035240Y-86777617D01*
X177050500Y-86700901D01*
X177050499Y-86524100D01*
X177049159Y-86517359D01*
X177037661Y-86459554D01*
X177037660Y-86459552D01*
X177035240Y-86447383D01*
X177017560Y-86420922D01*
X176984005Y-86370704D01*
X176977112Y-86360388D01*
X176954124Y-86345028D01*
X176900434Y-86309153D01*
X176900432Y-86309152D01*
X176890117Y-86302260D01*
X176877950Y-86299840D01*
X176877948Y-86299839D01*
X176837680Y-86291829D01*
X176813401Y-86287000D01*
X176412533Y-86287000D01*
X176011600Y-86287001D01*
X176005533Y-86288208D01*
X176005530Y-86288208D01*
X175947054Y-86299839D01*
X175947053Y-86299839D01*
X175934883Y-86302260D01*
X175924567Y-86309153D01*
X175924565Y-86309154D01*
X175870876Y-86345028D01*
X175847888Y-86360388D01*
X175840995Y-86370704D01*
X175796653Y-86437066D01*
X175796653Y-86437067D01*
X175789760Y-86447383D01*
X175774500Y-86524099D01*
X175774501Y-86700900D01*
X175789760Y-86777617D01*
X175797163Y-86788696D01*
X175799704Y-86792499D01*
X175820918Y-86860252D01*
X175799704Y-86932501D01*
X175789760Y-86947383D01*
X175787340Y-86959550D01*
X175787339Y-86959552D01*
X175781382Y-86989502D01*
X175774500Y-87024099D01*
X175774501Y-87200900D01*
X175775708Y-87206967D01*
X175775708Y-87206970D01*
X175778904Y-87223039D01*
X175789760Y-87277617D01*
X175796654Y-87287934D01*
X175799704Y-87292499D01*
X175820918Y-87360252D01*
X175799704Y-87432501D01*
X175789760Y-87447383D01*
X175787340Y-87459550D01*
X175787339Y-87459552D01*
X175781382Y-87489502D01*
X175774500Y-87524099D01*
X175774500Y-87585386D01*
X175754498Y-87653507D01*
X175700842Y-87700000D01*
X175630568Y-87710104D01*
X175565988Y-87680610D01*
X175559405Y-87674481D01*
X174907299Y-87022375D01*
X174873273Y-86960063D01*
X174878338Y-86889248D01*
X174920885Y-86832412D01*
X174948175Y-86816872D01*
X174964514Y-86810104D01*
X175008566Y-86791858D01*
X175008570Y-86791855D01*
X175016198Y-86788696D01*
X175141639Y-86692442D01*
X175237893Y-86567001D01*
X175298401Y-86420922D01*
X175319039Y-86264160D01*
X175298401Y-86107398D01*
X175237893Y-85961319D01*
X175141639Y-85835878D01*
X175016198Y-85739624D01*
X174870119Y-85679116D01*
X174713357Y-85658478D01*
X174646516Y-85667278D01*
X174576369Y-85656339D01*
X174540976Y-85631452D01*
X174433622Y-85524099D01*
X175774500Y-85524099D01*
X175774501Y-85700900D01*
X175775708Y-85706967D01*
X175775708Y-85706970D01*
X175782203Y-85739624D01*
X175789760Y-85777617D01*
X175796653Y-85787933D01*
X175796654Y-85787935D01*
X175838930Y-85851206D01*
X175847888Y-85864612D01*
X175858204Y-85871505D01*
X175924566Y-85915847D01*
X175924568Y-85915848D01*
X175934883Y-85922740D01*
X175947050Y-85925160D01*
X175947052Y-85925161D01*
X175983954Y-85932501D01*
X176011599Y-85938000D01*
X176412467Y-85938000D01*
X176813400Y-85937999D01*
X176819467Y-85936792D01*
X176819470Y-85936792D01*
X176877946Y-85925161D01*
X176877947Y-85925161D01*
X176890117Y-85922740D01*
X176977112Y-85864612D01*
X176986070Y-85851206D01*
X177028347Y-85787934D01*
X177028348Y-85787932D01*
X177035240Y-85777617D01*
X177041798Y-85744651D01*
X177043618Y-85735498D01*
X177050500Y-85700901D01*
X177050499Y-85524100D01*
X177035240Y-85447383D01*
X177022568Y-85428417D01*
X176984005Y-85370704D01*
X176977112Y-85360388D01*
X176966796Y-85353495D01*
X176900434Y-85309153D01*
X176900432Y-85309152D01*
X176890117Y-85302260D01*
X176877950Y-85299840D01*
X176877948Y-85299839D01*
X176837680Y-85291829D01*
X176813401Y-85287000D01*
X176412533Y-85287000D01*
X176011600Y-85287001D01*
X176005533Y-85288208D01*
X176005530Y-85288208D01*
X175947054Y-85299839D01*
X175947053Y-85299839D01*
X175934883Y-85302260D01*
X175847888Y-85360388D01*
X175840995Y-85370704D01*
X175796653Y-85437066D01*
X175796653Y-85437067D01*
X175789760Y-85447383D01*
X175774500Y-85524099D01*
X174433622Y-85524099D01*
X174337405Y-85427882D01*
X174303380Y-85365570D01*
X174300500Y-85338786D01*
X174300500Y-84524099D01*
X175774500Y-84524099D01*
X175774501Y-84700900D01*
X175789760Y-84777617D01*
X175847888Y-84864612D01*
X175858204Y-84871505D01*
X175924566Y-84915847D01*
X175924568Y-84915848D01*
X175934883Y-84922740D01*
X175947050Y-84925160D01*
X175947052Y-84925161D01*
X175983954Y-84932501D01*
X176011599Y-84938000D01*
X176412467Y-84938000D01*
X176813400Y-84937999D01*
X176819467Y-84936792D01*
X176819470Y-84936792D01*
X176877946Y-84925161D01*
X176877947Y-84925161D01*
X176890117Y-84922740D01*
X176977112Y-84864612D01*
X176984005Y-84854296D01*
X177028347Y-84787934D01*
X177028348Y-84787932D01*
X177035240Y-84777617D01*
X177050500Y-84700901D01*
X177050499Y-84524100D01*
X177035240Y-84447383D01*
X177025296Y-84432501D01*
X177004082Y-84364748D01*
X177025296Y-84292499D01*
X177028347Y-84287933D01*
X177035240Y-84277617D01*
X177050500Y-84200901D01*
X177050499Y-84024100D01*
X177035240Y-83947383D01*
X177025296Y-83932501D01*
X177004082Y-83864748D01*
X177025296Y-83792499D01*
X177028347Y-83787933D01*
X177035240Y-83777617D01*
X177038119Y-83763147D01*
X177045691Y-83725075D01*
X177050500Y-83700901D01*
X177050499Y-83524100D01*
X177044880Y-83495846D01*
X177037661Y-83459554D01*
X177037660Y-83459552D01*
X177035240Y-83447383D01*
X176977112Y-83360388D01*
X176900435Y-83309154D01*
X176900434Y-83309153D01*
X176900432Y-83309152D01*
X176890117Y-83302260D01*
X176877950Y-83299840D01*
X176877948Y-83299839D01*
X176837680Y-83291829D01*
X176813401Y-83287000D01*
X176412533Y-83287000D01*
X176011600Y-83287001D01*
X176005533Y-83288208D01*
X176005530Y-83288208D01*
X175947054Y-83299839D01*
X175947053Y-83299839D01*
X175934883Y-83302260D01*
X175847888Y-83360388D01*
X175840995Y-83370704D01*
X175796653Y-83437066D01*
X175796653Y-83437067D01*
X175789760Y-83447383D01*
X175787340Y-83459550D01*
X175787339Y-83459552D01*
X175784607Y-83473287D01*
X175774500Y-83524099D01*
X175774501Y-83700900D01*
X175775708Y-83706967D01*
X175775708Y-83706970D01*
X175786882Y-83763147D01*
X175789760Y-83777617D01*
X175796654Y-83787934D01*
X175799704Y-83792499D01*
X175820918Y-83860252D01*
X175799704Y-83932501D01*
X175789760Y-83947383D01*
X175774500Y-84024099D01*
X175774501Y-84200900D01*
X175789760Y-84277617D01*
X175799704Y-84292499D01*
X175820918Y-84360252D01*
X175799704Y-84432501D01*
X175789760Y-84447383D01*
X175774500Y-84524099D01*
X174300500Y-84524099D01*
X174300500Y-83672001D01*
X174321812Y-83603151D01*
X174327241Y-83597713D01*
X174372506Y-83495327D01*
X174375500Y-83469646D01*
X174375500Y-82524099D01*
X175774500Y-82524099D01*
X175774501Y-82700900D01*
X175789760Y-82777617D01*
X175847888Y-82864612D01*
X175858204Y-82871505D01*
X175924566Y-82915847D01*
X175924568Y-82915848D01*
X175934883Y-82922740D01*
X175947050Y-82925160D01*
X175947052Y-82925161D01*
X175983954Y-82932501D01*
X176011599Y-82938000D01*
X176412467Y-82938000D01*
X176813400Y-82937999D01*
X176819467Y-82936792D01*
X176819470Y-82936792D01*
X176877946Y-82925161D01*
X176877947Y-82925161D01*
X176890117Y-82922740D01*
X176977112Y-82864612D01*
X176984005Y-82854296D01*
X177028347Y-82787934D01*
X177028348Y-82787932D01*
X177035240Y-82777617D01*
X177050500Y-82700901D01*
X177050499Y-82524100D01*
X177035240Y-82447383D01*
X177025296Y-82432501D01*
X177004082Y-82364748D01*
X177025296Y-82292499D01*
X177028347Y-82287933D01*
X177035240Y-82277617D01*
X177050500Y-82200901D01*
X177050499Y-82024100D01*
X177035240Y-81947383D01*
X177028164Y-81936792D01*
X176984005Y-81870704D01*
X176977112Y-81860388D01*
X176966796Y-81853495D01*
X176900434Y-81809153D01*
X176900432Y-81809152D01*
X176890117Y-81802260D01*
X176877950Y-81799840D01*
X176877948Y-81799839D01*
X176837680Y-81791829D01*
X176813401Y-81787000D01*
X176412533Y-81787000D01*
X176011600Y-81787001D01*
X176005533Y-81788208D01*
X176005530Y-81788208D01*
X175947054Y-81799839D01*
X175947053Y-81799839D01*
X175934883Y-81802260D01*
X175924567Y-81809153D01*
X175924565Y-81809154D01*
X175882169Y-81837482D01*
X175847888Y-81860388D01*
X175840995Y-81870704D01*
X175796653Y-81937066D01*
X175796652Y-81937068D01*
X175789760Y-81947383D01*
X175774500Y-82024099D01*
X175774501Y-82200900D01*
X175789760Y-82277617D01*
X175796654Y-82287934D01*
X175799704Y-82292499D01*
X175820918Y-82360252D01*
X175799704Y-82432501D01*
X175789760Y-82447383D01*
X175774500Y-82524099D01*
X174375500Y-82524099D01*
X174375500Y-81955354D01*
X174372382Y-81929154D01*
X174339132Y-81854296D01*
X174331663Y-81837482D01*
X174326939Y-81826847D01*
X174247713Y-81747759D01*
X174237076Y-81743056D01*
X174237074Y-81743055D01*
X174155451Y-81706970D01*
X174145327Y-81702494D01*
X174119646Y-81699500D01*
X173830354Y-81699500D01*
X173826650Y-81699941D01*
X173826647Y-81699941D01*
X173819254Y-81700821D01*
X173804154Y-81702618D01*
X173701847Y-81748061D01*
X173700132Y-81744199D01*
X173653854Y-81759353D01*
X173598912Y-81745046D01*
X173597713Y-81747759D01*
X173553610Y-81728261D01*
X173495327Y-81702494D01*
X173469646Y-81699500D01*
X173180354Y-81699500D01*
X173176650Y-81699941D01*
X173176647Y-81699941D01*
X173169254Y-81700821D01*
X173154154Y-81702618D01*
X173051847Y-81748061D01*
X173050132Y-81744199D01*
X173003854Y-81759353D01*
X172948912Y-81745046D01*
X172947713Y-81747759D01*
X172903610Y-81728261D01*
X172845327Y-81702494D01*
X172819646Y-81699500D01*
X172530354Y-81699500D01*
X172526650Y-81699941D01*
X172526647Y-81699941D01*
X172519254Y-81700821D01*
X172504154Y-81702618D01*
X172401847Y-81748061D01*
X172400132Y-81744199D01*
X172353854Y-81759353D01*
X172298912Y-81745046D01*
X172297713Y-81747759D01*
X172253610Y-81728261D01*
X172195327Y-81702494D01*
X172169646Y-81699500D01*
X172126000Y-81699500D01*
X172057879Y-81679498D01*
X172011386Y-81625842D01*
X172000000Y-81573500D01*
X172000000Y-81524099D01*
X185649500Y-81524099D01*
X185649501Y-81700900D01*
X185650708Y-81706967D01*
X185650708Y-81706970D01*
X185658821Y-81747759D01*
X185664760Y-81777617D01*
X185671654Y-81787934D01*
X185671654Y-81787935D01*
X185685832Y-81809154D01*
X185722888Y-81864612D01*
X185733204Y-81871505D01*
X185799566Y-81915847D01*
X185799568Y-81915848D01*
X185809883Y-81922740D01*
X185822050Y-81925160D01*
X185822052Y-81925161D01*
X185862320Y-81933171D01*
X185886599Y-81938000D01*
X186287467Y-81938000D01*
X186688400Y-81937999D01*
X186694467Y-81936792D01*
X186694470Y-81936792D01*
X186752946Y-81925161D01*
X186752947Y-81925161D01*
X186765117Y-81922740D01*
X186852112Y-81864612D01*
X186862584Y-81848939D01*
X186903347Y-81787934D01*
X186903348Y-81787932D01*
X186910240Y-81777617D01*
X186925500Y-81700901D01*
X186925499Y-81524100D01*
X186910240Y-81447383D01*
X186900296Y-81432501D01*
X186879082Y-81364748D01*
X186900296Y-81292499D01*
X186903347Y-81287933D01*
X186910240Y-81277617D01*
X186925500Y-81200901D01*
X186925499Y-81024100D01*
X186910240Y-80947383D01*
X186852112Y-80860388D01*
X186775435Y-80809154D01*
X186775434Y-80809153D01*
X186775432Y-80809152D01*
X186765117Y-80802260D01*
X186752950Y-80799840D01*
X186752948Y-80799839D01*
X186712680Y-80791829D01*
X186688401Y-80787000D01*
X186287533Y-80787000D01*
X185886600Y-80787001D01*
X185880533Y-80788208D01*
X185880530Y-80788208D01*
X185822054Y-80799839D01*
X185822053Y-80799839D01*
X185809883Y-80802260D01*
X185722888Y-80860388D01*
X185715995Y-80870704D01*
X185671653Y-80937066D01*
X185671653Y-80937067D01*
X185664760Y-80947383D01*
X185649500Y-81024099D01*
X185649501Y-81200900D01*
X185664760Y-81277617D01*
X185674704Y-81292499D01*
X185695918Y-81360252D01*
X185674704Y-81432501D01*
X185664760Y-81447383D01*
X185649500Y-81524099D01*
X172000000Y-81524099D01*
X172000000Y-81024099D01*
X175774500Y-81024099D01*
X175774501Y-81200900D01*
X175789760Y-81277617D01*
X175847888Y-81364612D01*
X175858204Y-81371505D01*
X175924566Y-81415847D01*
X175924568Y-81415848D01*
X175934883Y-81422740D01*
X175947050Y-81425160D01*
X175947052Y-81425161D01*
X175983954Y-81432501D01*
X176011599Y-81438000D01*
X176412467Y-81438000D01*
X176813400Y-81437999D01*
X176819467Y-81436792D01*
X176819470Y-81436792D01*
X176877946Y-81425161D01*
X176877947Y-81425161D01*
X176890117Y-81422740D01*
X176977112Y-81364612D01*
X176984005Y-81354296D01*
X177028347Y-81287934D01*
X177028348Y-81287932D01*
X177035240Y-81277617D01*
X177050500Y-81200901D01*
X177050499Y-81024100D01*
X177035240Y-80947383D01*
X177025296Y-80932501D01*
X177004082Y-80864748D01*
X177025296Y-80792499D01*
X177028347Y-80787933D01*
X177035240Y-80777617D01*
X177050500Y-80700901D01*
X177050500Y-80688999D01*
X177070502Y-80620878D01*
X177124158Y-80574385D01*
X177176500Y-80562999D01*
X177188400Y-80562999D01*
X177194467Y-80561792D01*
X177194470Y-80561792D01*
X177252946Y-80550161D01*
X177252947Y-80550161D01*
X177265117Y-80547740D01*
X177279999Y-80537796D01*
X177347752Y-80516582D01*
X177420001Y-80537796D01*
X177434883Y-80547740D01*
X177447050Y-80550160D01*
X177447052Y-80550161D01*
X177477002Y-80556118D01*
X177511599Y-80563000D01*
X177599985Y-80563000D01*
X177688400Y-80562999D01*
X177694467Y-80561792D01*
X177694470Y-80561792D01*
X177752946Y-80550161D01*
X177752947Y-80550161D01*
X177765117Y-80547740D01*
X177779999Y-80537796D01*
X177847752Y-80516582D01*
X177920001Y-80537796D01*
X177934883Y-80547740D01*
X177947050Y-80550160D01*
X177947052Y-80550161D01*
X177977002Y-80556118D01*
X178011599Y-80563000D01*
X178099985Y-80563000D01*
X178188400Y-80562999D01*
X178194467Y-80561792D01*
X178194470Y-80561792D01*
X178252946Y-80550161D01*
X178252947Y-80550161D01*
X178265117Y-80547740D01*
X178279999Y-80537796D01*
X178347752Y-80516582D01*
X178420001Y-80537796D01*
X178434883Y-80547740D01*
X178447050Y-80550160D01*
X178447052Y-80550161D01*
X178477002Y-80556118D01*
X178511599Y-80563000D01*
X178599985Y-80563000D01*
X178688400Y-80562999D01*
X178694467Y-80561792D01*
X178694470Y-80561792D01*
X178752946Y-80550161D01*
X178752947Y-80550161D01*
X178765117Y-80547740D01*
X178780000Y-80537796D01*
X178841796Y-80496505D01*
X178852112Y-80489612D01*
X178859005Y-80479296D01*
X178903347Y-80412934D01*
X178903348Y-80412932D01*
X178910240Y-80402617D01*
X178925500Y-80325901D01*
X178925499Y-79524100D01*
X178925499Y-79524099D01*
X179274500Y-79524099D01*
X179274501Y-80325900D01*
X179275708Y-80331967D01*
X179275708Y-80331970D01*
X179287339Y-80390446D01*
X179289760Y-80402617D01*
X179296654Y-80412934D01*
X179296654Y-80412935D01*
X179340995Y-80479296D01*
X179347888Y-80489612D01*
X179358204Y-80496505D01*
X179424566Y-80540847D01*
X179424568Y-80540848D01*
X179434883Y-80547740D01*
X179447050Y-80550160D01*
X179447052Y-80550161D01*
X179477002Y-80556118D01*
X179511599Y-80563000D01*
X179599985Y-80563000D01*
X179688400Y-80562999D01*
X179694467Y-80561792D01*
X179694470Y-80561792D01*
X179752946Y-80550161D01*
X179752947Y-80550161D01*
X179765117Y-80547740D01*
X179779999Y-80537796D01*
X179847752Y-80516582D01*
X179920001Y-80537796D01*
X179934883Y-80547740D01*
X179947050Y-80550160D01*
X179947052Y-80550161D01*
X179977002Y-80556118D01*
X180011599Y-80563000D01*
X180099985Y-80563000D01*
X180188400Y-80562999D01*
X180194467Y-80561792D01*
X180194470Y-80561792D01*
X180252946Y-80550161D01*
X180252947Y-80550161D01*
X180265117Y-80547740D01*
X180280000Y-80537796D01*
X180341796Y-80496505D01*
X180352112Y-80489612D01*
X180359005Y-80479296D01*
X180403347Y-80412934D01*
X180403348Y-80412932D01*
X180410240Y-80402617D01*
X180425500Y-80325901D01*
X180425499Y-79524100D01*
X180425499Y-79524099D01*
X180774500Y-79524099D01*
X180774501Y-80325900D01*
X180775708Y-80331967D01*
X180775708Y-80331970D01*
X180787339Y-80390446D01*
X180789760Y-80402617D01*
X180796654Y-80412934D01*
X180796654Y-80412935D01*
X180840995Y-80479296D01*
X180847888Y-80489612D01*
X180858204Y-80496505D01*
X180924566Y-80540847D01*
X180924568Y-80540848D01*
X180934883Y-80547740D01*
X180947050Y-80550160D01*
X180947052Y-80550161D01*
X180977002Y-80556118D01*
X181011599Y-80563000D01*
X181099985Y-80563000D01*
X181188400Y-80562999D01*
X181194467Y-80561792D01*
X181194470Y-80561792D01*
X181252946Y-80550161D01*
X181252947Y-80550161D01*
X181265117Y-80547740D01*
X181279999Y-80537796D01*
X181347752Y-80516582D01*
X181420001Y-80537796D01*
X181434883Y-80547740D01*
X181447050Y-80550160D01*
X181447052Y-80550161D01*
X181477002Y-80556118D01*
X181511599Y-80563000D01*
X181599985Y-80563000D01*
X181688400Y-80562999D01*
X181694467Y-80561792D01*
X181694470Y-80561792D01*
X181752946Y-80550161D01*
X181752947Y-80550161D01*
X181765117Y-80547740D01*
X181779999Y-80537796D01*
X181847752Y-80516582D01*
X181920001Y-80537796D01*
X181934883Y-80547740D01*
X181947050Y-80550160D01*
X181947052Y-80550161D01*
X181977002Y-80556118D01*
X182011599Y-80563000D01*
X182099985Y-80563000D01*
X182188400Y-80562999D01*
X182194467Y-80561792D01*
X182194470Y-80561792D01*
X182252946Y-80550161D01*
X182252947Y-80550161D01*
X182265117Y-80547740D01*
X182280000Y-80537796D01*
X182341796Y-80496505D01*
X182352112Y-80489612D01*
X182359005Y-80479296D01*
X182403347Y-80412934D01*
X182403348Y-80412932D01*
X182410240Y-80402617D01*
X182425500Y-80325901D01*
X182425499Y-79524100D01*
X182425499Y-79524099D01*
X182774500Y-79524099D01*
X182774501Y-80325900D01*
X182775708Y-80331967D01*
X182775708Y-80331970D01*
X182787339Y-80390446D01*
X182789760Y-80402617D01*
X182796654Y-80412934D01*
X182796654Y-80412935D01*
X182840995Y-80479296D01*
X182847888Y-80489612D01*
X182858204Y-80496505D01*
X182924566Y-80540847D01*
X182924568Y-80540848D01*
X182934883Y-80547740D01*
X182947050Y-80550160D01*
X182947052Y-80550161D01*
X182977002Y-80556118D01*
X183011599Y-80563000D01*
X183099985Y-80563000D01*
X183188400Y-80562999D01*
X183194467Y-80561792D01*
X183194470Y-80561792D01*
X183252946Y-80550161D01*
X183252947Y-80550161D01*
X183265117Y-80547740D01*
X183279999Y-80537796D01*
X183347752Y-80516582D01*
X183420001Y-80537796D01*
X183434883Y-80547740D01*
X183447050Y-80550160D01*
X183447052Y-80550161D01*
X183477002Y-80556118D01*
X183511599Y-80563000D01*
X183599985Y-80563000D01*
X183688400Y-80562999D01*
X183694467Y-80561792D01*
X183694470Y-80561792D01*
X183752946Y-80550161D01*
X183752947Y-80550161D01*
X183765117Y-80547740D01*
X183779999Y-80537796D01*
X183847752Y-80516582D01*
X183920001Y-80537796D01*
X183934883Y-80547740D01*
X183947050Y-80550160D01*
X183947052Y-80550161D01*
X183977002Y-80556118D01*
X184011599Y-80563000D01*
X184099985Y-80563000D01*
X184188400Y-80562999D01*
X184194467Y-80561792D01*
X184194470Y-80561792D01*
X184252946Y-80550161D01*
X184252947Y-80550161D01*
X184265117Y-80547740D01*
X184279999Y-80537796D01*
X184347752Y-80516582D01*
X184420001Y-80537796D01*
X184434883Y-80547740D01*
X184447050Y-80550160D01*
X184447052Y-80550161D01*
X184477002Y-80556118D01*
X184511599Y-80563000D01*
X184599985Y-80563000D01*
X184688400Y-80562999D01*
X184694467Y-80561792D01*
X184694470Y-80561792D01*
X184752946Y-80550161D01*
X184752947Y-80550161D01*
X184765117Y-80547740D01*
X184779999Y-80537796D01*
X184847752Y-80516582D01*
X184920001Y-80537796D01*
X184934883Y-80547740D01*
X184947050Y-80550160D01*
X184947052Y-80550161D01*
X184977002Y-80556118D01*
X185011599Y-80563000D01*
X185099985Y-80563000D01*
X185188400Y-80562999D01*
X185194467Y-80561792D01*
X185194470Y-80561792D01*
X185252946Y-80550161D01*
X185252947Y-80550161D01*
X185265117Y-80547740D01*
X185279999Y-80537796D01*
X185347752Y-80516582D01*
X185420001Y-80537796D01*
X185434883Y-80547740D01*
X185447050Y-80550160D01*
X185447052Y-80550161D01*
X185477002Y-80556118D01*
X185511599Y-80563000D01*
X185599985Y-80563000D01*
X185688400Y-80562999D01*
X185694467Y-80561792D01*
X185694470Y-80561792D01*
X185752946Y-80550161D01*
X185752947Y-80550161D01*
X185765117Y-80547740D01*
X185780000Y-80537796D01*
X185841796Y-80496505D01*
X185852112Y-80489612D01*
X185859005Y-80479296D01*
X185903347Y-80412934D01*
X185903348Y-80412932D01*
X185910240Y-80402617D01*
X185925500Y-80325901D01*
X185925499Y-79524100D01*
X185920721Y-79500075D01*
X185912661Y-79459554D01*
X185912660Y-79459552D01*
X185910240Y-79447383D01*
X185852112Y-79360388D01*
X185841796Y-79353495D01*
X185775434Y-79309153D01*
X185775432Y-79309152D01*
X185765117Y-79302260D01*
X185752950Y-79299840D01*
X185752948Y-79299839D01*
X185722998Y-79293882D01*
X185688401Y-79287000D01*
X185600015Y-79287000D01*
X185511600Y-79287001D01*
X185505533Y-79288208D01*
X185505530Y-79288208D01*
X185447054Y-79299839D01*
X185447053Y-79299839D01*
X185434883Y-79302260D01*
X185420001Y-79312204D01*
X185352248Y-79333418D01*
X185279999Y-79312204D01*
X185275435Y-79309154D01*
X185265117Y-79302260D01*
X185252950Y-79299840D01*
X185252948Y-79299839D01*
X185222998Y-79293882D01*
X185188401Y-79287000D01*
X185100015Y-79287000D01*
X185011600Y-79287001D01*
X185005533Y-79288208D01*
X185005530Y-79288208D01*
X184947054Y-79299839D01*
X184947053Y-79299839D01*
X184934883Y-79302260D01*
X184920001Y-79312204D01*
X184852248Y-79333418D01*
X184779999Y-79312204D01*
X184775435Y-79309154D01*
X184765117Y-79302260D01*
X184752950Y-79299840D01*
X184752948Y-79299839D01*
X184722998Y-79293882D01*
X184688401Y-79287000D01*
X184600015Y-79287000D01*
X184511600Y-79287001D01*
X184505533Y-79288208D01*
X184505530Y-79288208D01*
X184447054Y-79299839D01*
X184447053Y-79299839D01*
X184434883Y-79302260D01*
X184420001Y-79312204D01*
X184352248Y-79333418D01*
X184279999Y-79312204D01*
X184275435Y-79309154D01*
X184265117Y-79302260D01*
X184252950Y-79299840D01*
X184252948Y-79299839D01*
X184222998Y-79293882D01*
X184188401Y-79287000D01*
X184100015Y-79287000D01*
X184011600Y-79287001D01*
X184005533Y-79288208D01*
X184005530Y-79288208D01*
X183947054Y-79299839D01*
X183947053Y-79299839D01*
X183934883Y-79302260D01*
X183920001Y-79312204D01*
X183852248Y-79333418D01*
X183779999Y-79312204D01*
X183775435Y-79309154D01*
X183765117Y-79302260D01*
X183752950Y-79299840D01*
X183752948Y-79299839D01*
X183722998Y-79293882D01*
X183688401Y-79287000D01*
X183600015Y-79287000D01*
X183511600Y-79287001D01*
X183505533Y-79288208D01*
X183505530Y-79288208D01*
X183447054Y-79299839D01*
X183447053Y-79299839D01*
X183434883Y-79302260D01*
X183420001Y-79312204D01*
X183352248Y-79333418D01*
X183279999Y-79312204D01*
X183275435Y-79309154D01*
X183265117Y-79302260D01*
X183252950Y-79299840D01*
X183252948Y-79299839D01*
X183222998Y-79293882D01*
X183188401Y-79287000D01*
X183100015Y-79287000D01*
X183011600Y-79287001D01*
X183005533Y-79288208D01*
X183005530Y-79288208D01*
X182947054Y-79299839D01*
X182947053Y-79299839D01*
X182934883Y-79302260D01*
X182924567Y-79309153D01*
X182924565Y-79309154D01*
X182858204Y-79353495D01*
X182847888Y-79360388D01*
X182840995Y-79370704D01*
X182796653Y-79437066D01*
X182796652Y-79437068D01*
X182789760Y-79447383D01*
X182774500Y-79524099D01*
X182425499Y-79524099D01*
X182420721Y-79500075D01*
X182412661Y-79459554D01*
X182412660Y-79459552D01*
X182410240Y-79447383D01*
X182352112Y-79360388D01*
X182341796Y-79353495D01*
X182275434Y-79309153D01*
X182275432Y-79309152D01*
X182265117Y-79302260D01*
X182252950Y-79299840D01*
X182252948Y-79299839D01*
X182222998Y-79293882D01*
X182188401Y-79287000D01*
X182100015Y-79287000D01*
X182011600Y-79287001D01*
X182005533Y-79288208D01*
X182005530Y-79288208D01*
X181947054Y-79299839D01*
X181947053Y-79299839D01*
X181934883Y-79302260D01*
X181920001Y-79312204D01*
X181852248Y-79333418D01*
X181779999Y-79312204D01*
X181775435Y-79309154D01*
X181765117Y-79302260D01*
X181752950Y-79299840D01*
X181752948Y-79299839D01*
X181722998Y-79293882D01*
X181688401Y-79287000D01*
X181600015Y-79287000D01*
X181511600Y-79287001D01*
X181505533Y-79288208D01*
X181505530Y-79288208D01*
X181447054Y-79299839D01*
X181447053Y-79299839D01*
X181434883Y-79302260D01*
X181420001Y-79312204D01*
X181352248Y-79333418D01*
X181279999Y-79312204D01*
X181275435Y-79309154D01*
X181265117Y-79302260D01*
X181252950Y-79299840D01*
X181252948Y-79299839D01*
X181222998Y-79293882D01*
X181188401Y-79287000D01*
X181100015Y-79287000D01*
X181011600Y-79287001D01*
X181005533Y-79288208D01*
X181005530Y-79288208D01*
X180947054Y-79299839D01*
X180947053Y-79299839D01*
X180934883Y-79302260D01*
X180924567Y-79309153D01*
X180924565Y-79309154D01*
X180858204Y-79353495D01*
X180847888Y-79360388D01*
X180840995Y-79370704D01*
X180796653Y-79437066D01*
X180796652Y-79437068D01*
X180789760Y-79447383D01*
X180774500Y-79524099D01*
X180425499Y-79524099D01*
X180420721Y-79500075D01*
X180412661Y-79459554D01*
X180412660Y-79459552D01*
X180410240Y-79447383D01*
X180352112Y-79360388D01*
X180341796Y-79353495D01*
X180275434Y-79309153D01*
X180275432Y-79309152D01*
X180265117Y-79302260D01*
X180252950Y-79299840D01*
X180252948Y-79299839D01*
X180222998Y-79293882D01*
X180188401Y-79287000D01*
X180100015Y-79287000D01*
X180011600Y-79287001D01*
X180005533Y-79288208D01*
X180005530Y-79288208D01*
X179947054Y-79299839D01*
X179947053Y-79299839D01*
X179934883Y-79302260D01*
X179920001Y-79312204D01*
X179852248Y-79333418D01*
X179779999Y-79312204D01*
X179775435Y-79309154D01*
X179765117Y-79302260D01*
X179752950Y-79299840D01*
X179752948Y-79299839D01*
X179722998Y-79293882D01*
X179688401Y-79287000D01*
X179600015Y-79287000D01*
X179511600Y-79287001D01*
X179505533Y-79288208D01*
X179505530Y-79288208D01*
X179447054Y-79299839D01*
X179447053Y-79299839D01*
X179434883Y-79302260D01*
X179424567Y-79309153D01*
X179424565Y-79309154D01*
X179358204Y-79353495D01*
X179347888Y-79360388D01*
X179340995Y-79370704D01*
X179296653Y-79437066D01*
X179296652Y-79437068D01*
X179289760Y-79447383D01*
X179274500Y-79524099D01*
X178925499Y-79524099D01*
X178920721Y-79500075D01*
X178912661Y-79459554D01*
X178912660Y-79459552D01*
X178910240Y-79447383D01*
X178852112Y-79360388D01*
X178841796Y-79353495D01*
X178775434Y-79309153D01*
X178775432Y-79309152D01*
X178765117Y-79302260D01*
X178752950Y-79299840D01*
X178752948Y-79299839D01*
X178722998Y-79293882D01*
X178688401Y-79287000D01*
X178600015Y-79287000D01*
X178511600Y-79287001D01*
X178505533Y-79288208D01*
X178505530Y-79288208D01*
X178447054Y-79299839D01*
X178447053Y-79299839D01*
X178434883Y-79302260D01*
X178420001Y-79312204D01*
X178352248Y-79333418D01*
X178279999Y-79312204D01*
X178275435Y-79309154D01*
X178265117Y-79302260D01*
X178252950Y-79299840D01*
X178252948Y-79299839D01*
X178222998Y-79293882D01*
X178188401Y-79287000D01*
X178100015Y-79287000D01*
X178011600Y-79287001D01*
X178005533Y-79288208D01*
X178005530Y-79288208D01*
X177947054Y-79299839D01*
X177947053Y-79299839D01*
X177934883Y-79302260D01*
X177920001Y-79312204D01*
X177852248Y-79333418D01*
X177779999Y-79312204D01*
X177775435Y-79309154D01*
X177765117Y-79302260D01*
X177752950Y-79299840D01*
X177752948Y-79299839D01*
X177722998Y-79293882D01*
X177688401Y-79287000D01*
X177600015Y-79287000D01*
X177511600Y-79287001D01*
X177505533Y-79288208D01*
X177505530Y-79288208D01*
X177447054Y-79299839D01*
X177447053Y-79299839D01*
X177434883Y-79302260D01*
X177420001Y-79312204D01*
X177352248Y-79333418D01*
X177279999Y-79312204D01*
X177275435Y-79309154D01*
X177265117Y-79302260D01*
X177252950Y-79299840D01*
X177252948Y-79299839D01*
X177222998Y-79293882D01*
X177188401Y-79287000D01*
X177100015Y-79287000D01*
X177011600Y-79287001D01*
X177005533Y-79288208D01*
X177005530Y-79288208D01*
X176947054Y-79299839D01*
X176947053Y-79299839D01*
X176934883Y-79302260D01*
X176924567Y-79309153D01*
X176924565Y-79309154D01*
X176858204Y-79353495D01*
X176847888Y-79360388D01*
X176840995Y-79370704D01*
X176796653Y-79437066D01*
X176796652Y-79437068D01*
X176789760Y-79447383D01*
X176774500Y-79524099D01*
X176774500Y-79530286D01*
X176774501Y-80161000D01*
X176754499Y-80229121D01*
X176700843Y-80275614D01*
X176648501Y-80287000D01*
X176047313Y-80287001D01*
X176011600Y-80287001D01*
X176005533Y-80288208D01*
X176005530Y-80288208D01*
X175947054Y-80299839D01*
X175947053Y-80299839D01*
X175934883Y-80302260D01*
X175924566Y-80309154D01*
X175924565Y-80309154D01*
X175858204Y-80353495D01*
X175847888Y-80360388D01*
X175840995Y-80370704D01*
X175796653Y-80437066D01*
X175796652Y-80437068D01*
X175789760Y-80447383D01*
X175774500Y-80524099D01*
X175774501Y-80700900D01*
X175789760Y-80777617D01*
X175796654Y-80787934D01*
X175799704Y-80792499D01*
X175820918Y-80860252D01*
X175799704Y-80932501D01*
X175789760Y-80947383D01*
X175774500Y-81024099D01*
X172000000Y-81024099D01*
X172000000Y-79626500D01*
X172020002Y-79558379D01*
X172073658Y-79511886D01*
X172126000Y-79500500D01*
X172169646Y-79500500D01*
X172173350Y-79500059D01*
X172173353Y-79500059D01*
X172180746Y-79499179D01*
X172195846Y-79497382D01*
X172298153Y-79451939D01*
X172309426Y-79440647D01*
X172337858Y-79412165D01*
X172377241Y-79372713D01*
X172385738Y-79353495D01*
X172418675Y-79278992D01*
X172422506Y-79270327D01*
X172425500Y-79244646D01*
X172425500Y-77926000D01*
X172445502Y-77857879D01*
X172499158Y-77811386D01*
X172551500Y-77800000D01*
X172798500Y-77800000D01*
X172866621Y-77820002D01*
G37*
%TD.AperFunction*%
%TD*%
%TA.AperFunction,Conductor*%
%TO.N,+VDC*%
G36*
X184342121Y-59820002D02*
G01*
X184388614Y-59873658D01*
X184400000Y-59926000D01*
X184400000Y-61398501D01*
X184379998Y-61466622D01*
X184326342Y-61513115D01*
X184274001Y-61524501D01*
X184122668Y-61524501D01*
X184119718Y-61524780D01*
X184119713Y-61524780D01*
X184099650Y-61526676D01*
X184099649Y-61526676D01*
X184092000Y-61527399D01*
X184084752Y-61529944D01*
X184084749Y-61529945D01*
X183976621Y-61567917D01*
X183976619Y-61567918D01*
X183967732Y-61571039D01*
X183960157Y-61576634D01*
X183960155Y-61576635D01*
X183869360Y-61643697D01*
X183861789Y-61649289D01*
X183783539Y-61755232D01*
X183780420Y-61764113D01*
X183780417Y-61764119D01*
X183774464Y-61781071D01*
X183733020Y-61838716D01*
X183666990Y-61864803D01*
X183598380Y-61851588D01*
X183525304Y-61814354D01*
X183515515Y-61812804D01*
X183515513Y-61812803D01*
X183409793Y-61796059D01*
X183400000Y-61794508D01*
X183390207Y-61796059D01*
X183284487Y-61812803D01*
X183284485Y-61812804D01*
X183274696Y-61814354D01*
X183161658Y-61871950D01*
X183071950Y-61961658D01*
X183014354Y-62074696D01*
X182994508Y-62200000D01*
X183014354Y-62325304D01*
X183071950Y-62438342D01*
X183161658Y-62528050D01*
X183274696Y-62585646D01*
X183284485Y-62587196D01*
X183284487Y-62587197D01*
X183390207Y-62603941D01*
X183400000Y-62605492D01*
X183409793Y-62603941D01*
X183515513Y-62587197D01*
X183515515Y-62587196D01*
X183525304Y-62585646D01*
X183598380Y-62548412D01*
X183668155Y-62535308D01*
X183733940Y-62562008D01*
X183774464Y-62618929D01*
X183780417Y-62635881D01*
X183780420Y-62635887D01*
X183783539Y-62644768D01*
X183861789Y-62750711D01*
X183869360Y-62756303D01*
X183960155Y-62823365D01*
X183960157Y-62823366D01*
X183967732Y-62828961D01*
X183976619Y-62832082D01*
X183976621Y-62832083D01*
X184084752Y-62870056D01*
X184084754Y-62870057D01*
X184092000Y-62872601D01*
X184099644Y-62873324D01*
X184099646Y-62873324D01*
X184107621Y-62874078D01*
X184122667Y-62875500D01*
X184274000Y-62875500D01*
X184342121Y-62895502D01*
X184388614Y-62949158D01*
X184400000Y-63001500D01*
X184400000Y-63529554D01*
X184391090Y-63574350D01*
X184386132Y-63581770D01*
X184374499Y-63640253D01*
X184374499Y-63648501D01*
X184374194Y-63649541D01*
X184373892Y-63652603D01*
X184373311Y-63652546D01*
X184354497Y-63716622D01*
X184300841Y-63763115D01*
X184248499Y-63774501D01*
X183611624Y-63774502D01*
X183561599Y-63774502D01*
X183555532Y-63775709D01*
X183555529Y-63775709D01*
X183497053Y-63787340D01*
X183497052Y-63787340D01*
X183484882Y-63789761D01*
X183397887Y-63847889D01*
X183390994Y-63858205D01*
X183346652Y-63924567D01*
X183346651Y-63924569D01*
X183339759Y-63934884D01*
X183324499Y-64011600D01*
X183324500Y-64188401D01*
X183339759Y-64265118D01*
X183346653Y-64275435D01*
X183349703Y-64280000D01*
X183370917Y-64347753D01*
X183349703Y-64420002D01*
X183339759Y-64434884D01*
X183324499Y-64511600D01*
X183324500Y-64688401D01*
X183339759Y-64765118D01*
X183397887Y-64852113D01*
X183408203Y-64859006D01*
X183474565Y-64903348D01*
X183474567Y-64903349D01*
X183484882Y-64910241D01*
X183497049Y-64912661D01*
X183497051Y-64912662D01*
X183525497Y-64918320D01*
X183561598Y-64925501D01*
X183611616Y-64925501D01*
X184248499Y-64925500D01*
X184316620Y-64945502D01*
X184363113Y-64999158D01*
X184374499Y-65051500D01*
X184374499Y-65745153D01*
X184372999Y-65764537D01*
X184371281Y-65775568D01*
X184371281Y-65775572D01*
X184369900Y-65784441D01*
X184371064Y-65793343D01*
X184371064Y-65793346D01*
X184373435Y-65811474D01*
X184374499Y-65827811D01*
X184374499Y-66059749D01*
X184386132Y-66118232D01*
X184391090Y-66125652D01*
X184400000Y-66170448D01*
X184400000Y-68079556D01*
X184391089Y-68124352D01*
X184386133Y-68131769D01*
X184374500Y-68190252D01*
X184374500Y-68198500D01*
X184374195Y-68199540D01*
X184373893Y-68202602D01*
X184373312Y-68202545D01*
X184354498Y-68266621D01*
X184300842Y-68313114D01*
X184248500Y-68324500D01*
X183611625Y-68324501D01*
X183561600Y-68324501D01*
X183555533Y-68325708D01*
X183555530Y-68325708D01*
X183497054Y-68337339D01*
X183497053Y-68337339D01*
X183484883Y-68339760D01*
X183397888Y-68397888D01*
X183390995Y-68408204D01*
X183346653Y-68474566D01*
X183346652Y-68474568D01*
X183339760Y-68484883D01*
X183324500Y-68561599D01*
X183324501Y-68738400D01*
X183339760Y-68815117D01*
X183346654Y-68825434D01*
X183349704Y-68829999D01*
X183370918Y-68897752D01*
X183349704Y-68970001D01*
X183339760Y-68984883D01*
X183324500Y-69061599D01*
X183324501Y-69238400D01*
X183339760Y-69315117D01*
X183397888Y-69402112D01*
X183408204Y-69409005D01*
X183474566Y-69453347D01*
X183474568Y-69453348D01*
X183484883Y-69460240D01*
X183497050Y-69462660D01*
X183497052Y-69462661D01*
X183525498Y-69468319D01*
X183561599Y-69475500D01*
X183611617Y-69475500D01*
X184248500Y-69475499D01*
X184316621Y-69495501D01*
X184363114Y-69549157D01*
X184374500Y-69601499D01*
X184374500Y-70295152D01*
X184373000Y-70314536D01*
X184371282Y-70325567D01*
X184371282Y-70325571D01*
X184369901Y-70334440D01*
X184371065Y-70343342D01*
X184371065Y-70343345D01*
X184373436Y-70361473D01*
X184374500Y-70377810D01*
X184374500Y-70609748D01*
X184386133Y-70668231D01*
X184391089Y-70675648D01*
X184400000Y-70720444D01*
X184400000Y-71203306D01*
X184379998Y-71271427D01*
X184326342Y-71317920D01*
X184301003Y-71326378D01*
X184299641Y-71326677D01*
X184291999Y-71327399D01*
X184284754Y-71329943D01*
X184284755Y-71329943D01*
X184176620Y-71367917D01*
X184176618Y-71367918D01*
X184167731Y-71371039D01*
X184160156Y-71376634D01*
X184160154Y-71376635D01*
X184069359Y-71443697D01*
X184061788Y-71449289D01*
X184056196Y-71456860D01*
X183983815Y-71554857D01*
X183927254Y-71597768D01*
X183862753Y-71604447D01*
X183800000Y-71594508D01*
X183790207Y-71596059D01*
X183684487Y-71612803D01*
X183684485Y-71612804D01*
X183674696Y-71614354D01*
X183561658Y-71671950D01*
X183471950Y-71761658D01*
X183414354Y-71874696D01*
X183394508Y-72000000D01*
X183414354Y-72125304D01*
X183471950Y-72238342D01*
X183561658Y-72328050D01*
X183674696Y-72385646D01*
X183684485Y-72387196D01*
X183684487Y-72387197D01*
X183790207Y-72403941D01*
X183800000Y-72405492D01*
X183862753Y-72395553D01*
X183933163Y-72404653D01*
X183983815Y-72445143D01*
X184061788Y-72550711D01*
X184069359Y-72556303D01*
X184160154Y-72623365D01*
X184160156Y-72623366D01*
X184167731Y-72628961D01*
X184176618Y-72632082D01*
X184176620Y-72632083D01*
X184266910Y-72663790D01*
X184291999Y-72672601D01*
X184299643Y-72673324D01*
X184301003Y-72673622D01*
X184363255Y-72707758D01*
X184397168Y-72770131D01*
X184400000Y-72796694D01*
X184400000Y-73274000D01*
X184379998Y-73342121D01*
X184326342Y-73388614D01*
X184274000Y-73400000D01*
X180726000Y-73400000D01*
X180657879Y-73379998D01*
X180611386Y-73326342D01*
X180600000Y-73274000D01*
X180600000Y-59926000D01*
X180620002Y-59857879D01*
X180673658Y-59811386D01*
X180726000Y-59800000D01*
X184274000Y-59800000D01*
X184342121Y-59820002D01*
G37*
%TD.AperFunction*%
%TD*%
M02*
