%TF.GenerationSoftware,KiCad,Pcbnew,6.0.6-3a73a75311~116~ubuntu20.04.1*%
%TF.CreationDate,2022-09-22T10:05:32+01:00*%
%TF.ProjectId,UFOMothership,55464f4d-6f74-4686-9572-736869702e6b,rev?*%
%TF.SameCoordinates,Original*%
%TF.FileFunction,Soldermask,Bot*%
%TF.FilePolarity,Negative*%
%FSLAX46Y46*%
G04 Gerber Fmt 4.6, Leading zero omitted, Abs format (unit mm)*
G04 Created by KiCad (PCBNEW 6.0.6-3a73a75311~116~ubuntu20.04.1) date 2022-09-22 10:05:32*
%MOMM*%
%LPD*%
G01*
G04 APERTURE LIST*
G04 Aperture macros list*
%AMRoundRect*
0 Rectangle with rounded corners*
0 $1 Rounding radius*
0 $2 $3 $4 $5 $6 $7 $8 $9 X,Y pos of 4 corners*
0 Add a 4 corners polygon primitive as box body*
4,1,4,$2,$3,$4,$5,$6,$7,$8,$9,$2,$3,0*
0 Add four circle primitives for the rounded corners*
1,1,$1+$1,$2,$3*
1,1,$1+$1,$4,$5*
1,1,$1+$1,$6,$7*
1,1,$1+$1,$8,$9*
0 Add four rect primitives between the rounded corners*
20,1,$1+$1,$2,$3,$4,$5,0*
20,1,$1+$1,$4,$5,$6,$7,0*
20,1,$1+$1,$6,$7,$8,$9,0*
20,1,$1+$1,$8,$9,$2,$3,0*%
G04 Aperture macros list end*
%ADD10C,0.800000*%
%ADD11C,6.400000*%
%ADD12RoundRect,0.237500X-0.250000X-0.237500X0.250000X-0.237500X0.250000X0.237500X-0.250000X0.237500X0*%
%ADD13R,1.700000X1.700000*%
%ADD14O,1.700000X1.700000*%
%ADD15R,4.190000X2.665000*%
G04 APERTURE END LIST*
D10*
%TO.C,REF\u002A\u002A*%
X206200000Y-110600000D03*
D11*
X206200000Y-108200000D03*
D10*
X207897056Y-106502944D03*
X204502944Y-106502944D03*
X207897056Y-109897056D03*
X204502944Y-109897056D03*
X203800000Y-108200000D03*
X206200000Y-105800000D03*
X208600000Y-108200000D03*
%TD*%
D11*
%TO.C,REF\u002A\u002A*%
X206200000Y-56400000D03*
D10*
X207897056Y-54702944D03*
X204502944Y-58097056D03*
X207897056Y-58097056D03*
X208600000Y-56400000D03*
X206200000Y-58800000D03*
X206200000Y-54000000D03*
X204502944Y-54702944D03*
X203800000Y-56400000D03*
%TD*%
D12*
%TO.C,R5*%
X178775000Y-90000000D03*
X180600000Y-90000000D03*
%TD*%
D13*
%TO.C,J6*%
X139260000Y-108600000D03*
D14*
X141800000Y-108600000D03*
%TD*%
D15*
%TO.C,J4*%
X207665000Y-70292500D03*
X207665000Y-63307500D03*
%TD*%
D10*
%TO.C,REF\u002A\u002A*%
X130502944Y-106502944D03*
X130502944Y-109897056D03*
X134600000Y-108200000D03*
X133897056Y-106502944D03*
X132200000Y-105800000D03*
X133897056Y-109897056D03*
D11*
X132200000Y-108200000D03*
D10*
X132200000Y-110600000D03*
X129800000Y-108200000D03*
%TD*%
D13*
%TO.C,J2*%
X148280000Y-108600000D03*
D14*
X150820000Y-108600000D03*
X153360000Y-108600000D03*
X155900000Y-108600000D03*
X158440000Y-108600000D03*
X160980000Y-108600000D03*
X163520000Y-108600000D03*
X166060000Y-108600000D03*
X168600000Y-108600000D03*
X171140000Y-108600000D03*
X173680000Y-108600000D03*
X176220000Y-108600000D03*
%TD*%
D10*
%TO.C,REF\u002A\u002A*%
X130502944Y-54702944D03*
X132200000Y-58800000D03*
X134600000Y-56400000D03*
X133897056Y-58097056D03*
D11*
X132200000Y-56400000D03*
D10*
X133897056Y-54702944D03*
X132200000Y-54000000D03*
X129800000Y-56400000D03*
X130502944Y-58097056D03*
%TD*%
D13*
%TO.C,J1*%
X132600000Y-71800000D03*
D14*
X132600000Y-74340000D03*
%TD*%
D15*
%TO.C,J3*%
X207665000Y-89215000D03*
X207665000Y-96200000D03*
%TD*%
M02*
