%TF.GenerationSoftware,KiCad,Pcbnew,6.0.6-3a73a75311~116~ubuntu20.04.1*%
%TF.CreationDate,2022-09-22T10:05:31+01:00*%
%TF.ProjectId,UFOMothership,55464f4d-6f74-4686-9572-736869702e6b,rev?*%
%TF.SameCoordinates,Original*%
%TF.FileFunction,Copper,L4,Bot*%
%TF.FilePolarity,Positive*%
%FSLAX46Y46*%
G04 Gerber Fmt 4.6, Leading zero omitted, Abs format (unit mm)*
G04 Created by KiCad (PCBNEW 6.0.6-3a73a75311~116~ubuntu20.04.1) date 2022-09-22 10:05:31*
%MOMM*%
%LPD*%
G01*
G04 APERTURE LIST*
G04 Aperture macros list*
%AMRoundRect*
0 Rectangle with rounded corners*
0 $1 Rounding radius*
0 $2 $3 $4 $5 $6 $7 $8 $9 X,Y pos of 4 corners*
0 Add a 4 corners polygon primitive as box body*
4,1,4,$2,$3,$4,$5,$6,$7,$8,$9,$2,$3,0*
0 Add four circle primitives for the rounded corners*
1,1,$1+$1,$2,$3*
1,1,$1+$1,$4,$5*
1,1,$1+$1,$6,$7*
1,1,$1+$1,$8,$9*
0 Add four rect primitives between the rounded corners*
20,1,$1+$1,$2,$3,$4,$5,0*
20,1,$1+$1,$4,$5,$6,$7,0*
20,1,$1+$1,$6,$7,$8,$9,0*
20,1,$1+$1,$8,$9,$2,$3,0*%
G04 Aperture macros list end*
%TA.AperFunction,ComponentPad*%
%ADD10C,0.800000*%
%TD*%
%TA.AperFunction,ComponentPad*%
%ADD11C,6.400000*%
%TD*%
%TA.AperFunction,SMDPad,CuDef*%
%ADD12RoundRect,0.237500X-0.250000X-0.237500X0.250000X-0.237500X0.250000X0.237500X-0.250000X0.237500X0*%
%TD*%
%TA.AperFunction,ComponentPad*%
%ADD13R,1.700000X1.700000*%
%TD*%
%TA.AperFunction,ComponentPad*%
%ADD14O,1.700000X1.700000*%
%TD*%
%TA.AperFunction,SMDPad,CuDef*%
%ADD15R,0.890000X0.460000*%
%TD*%
%TA.AperFunction,ComponentPad*%
%ADD16C,0.970000*%
%TD*%
%TA.AperFunction,SMDPad,CuDef*%
%ADD17R,4.190000X2.665000*%
%TD*%
%TA.AperFunction,ComponentPad*%
%ADD18C,0.500000*%
%TD*%
%TA.AperFunction,SMDPad,CuDef*%
%ADD19R,6.000000X6.000000*%
%TD*%
%TA.AperFunction,SMDPad,CuDef*%
%ADD20R,1.650000X2.380000*%
%TD*%
%TA.AperFunction,ViaPad*%
%ADD21C,0.400000*%
%TD*%
%TA.AperFunction,ViaPad*%
%ADD22C,0.800000*%
%TD*%
%TA.AperFunction,Conductor*%
%ADD23C,0.250000*%
%TD*%
%TA.AperFunction,Conductor*%
%ADD24C,0.100000*%
%TD*%
G04 APERTURE END LIST*
D10*
%TO.P,REF\u002A\u002A,1*%
%TO.N,N/C*%
X206200000Y-110600000D03*
D11*
X206200000Y-108200000D03*
D10*
X207897056Y-106502944D03*
X204502944Y-106502944D03*
X207897056Y-109897056D03*
X204502944Y-109897056D03*
X203800000Y-108200000D03*
X206200000Y-105800000D03*
X208600000Y-108200000D03*
%TD*%
D11*
%TO.P,REF\u002A\u002A,1*%
%TO.N,N/C*%
X206200000Y-56400000D03*
D10*
X207897056Y-54702944D03*
X204502944Y-58097056D03*
X207897056Y-58097056D03*
X208600000Y-56400000D03*
X206200000Y-58800000D03*
X206200000Y-54000000D03*
X204502944Y-54702944D03*
X203800000Y-56400000D03*
%TD*%
D12*
%TO.P,R5,1*%
%TO.N,+3.3V*%
X178775000Y-90000000D03*
%TO.P,R5,2*%
%TO.N,Net-(R5-Pad2)*%
X180600000Y-90000000D03*
%TD*%
D13*
%TO.P,J6,1,Pin_1*%
%TO.N,+5V*%
X139260000Y-108600000D03*
D14*
%TO.P,J6,2,Pin_2*%
%TO.N,GND*%
X141800000Y-108600000D03*
%TD*%
D15*
%TO.P,J4,2,Ext*%
%TO.N,GND*%
X205125000Y-63307500D03*
D16*
X204680000Y-70292500D03*
X204680000Y-63307500D03*
D17*
X207665000Y-70292500D03*
X207665000Y-63307500D03*
D15*
X205125000Y-70292500D03*
%TD*%
D10*
%TO.P,REF\u002A\u002A,1*%
%TO.N,N/C*%
X130502944Y-106502944D03*
X130502944Y-109897056D03*
X134600000Y-108200000D03*
X133897056Y-106502944D03*
X132200000Y-105800000D03*
X133897056Y-109897056D03*
D11*
X132200000Y-108200000D03*
D10*
X132200000Y-110600000D03*
X129800000Y-108200000D03*
%TD*%
D18*
%TO.P,U3,73,GND*%
%TO.N,GND*%
X180800000Y-86512500D03*
X184100000Y-85412500D03*
X179700000Y-82112500D03*
X178600000Y-82112500D03*
X184100000Y-86512500D03*
X183000000Y-82112500D03*
X180800000Y-87612500D03*
X184100000Y-82112500D03*
X183000000Y-87612500D03*
X184100000Y-84312500D03*
X183000000Y-85412500D03*
X184100000Y-87612500D03*
X178600000Y-85412500D03*
X178600000Y-86512500D03*
D19*
X181350000Y-84862500D03*
D18*
X178600000Y-83212500D03*
X179700000Y-84312500D03*
X181900000Y-87612500D03*
X181900000Y-86512500D03*
X179700000Y-86512500D03*
X180800000Y-83212500D03*
X181900000Y-83212500D03*
X178600000Y-87612500D03*
X180800000Y-84312500D03*
X181900000Y-85412500D03*
X180800000Y-82112500D03*
X180800000Y-85412500D03*
X179700000Y-83212500D03*
X181900000Y-84312500D03*
X179700000Y-87612500D03*
X179700000Y-85412500D03*
X183000000Y-86512500D03*
X183000000Y-83212500D03*
X184100000Y-83212500D03*
X181900000Y-82112500D03*
X183000000Y-84312500D03*
X178600000Y-84312500D03*
%TD*%
D13*
%TO.P,J2,1,Pin_1*%
%TO.N,/GPIO0*%
X148280000Y-108600000D03*
D14*
%TO.P,J2,2,Pin_2*%
%TO.N,/GPIO1*%
X150820000Y-108600000D03*
%TO.P,J2,3,Pin_3*%
%TO.N,/GPIO2*%
X153360000Y-108600000D03*
%TO.P,J2,4,Pin_4*%
%TO.N,/GPIO3*%
X155900000Y-108600000D03*
%TO.P,J2,5,Pin_5*%
%TO.N,/GPIO4*%
X158440000Y-108600000D03*
%TO.P,J2,6,Pin_6*%
%TO.N,/GPIO5*%
X160980000Y-108600000D03*
%TO.P,J2,7,Pin_7*%
%TO.N,/GPIO6*%
X163520000Y-108600000D03*
%TO.P,J2,8,Pin_8*%
%TO.N,/GPIO7*%
X166060000Y-108600000D03*
%TO.P,J2,9,Pin_9*%
%TO.N,/SCL*%
X168600000Y-108600000D03*
%TO.P,J2,10,Pin_10*%
%TO.N,/SDA*%
X171140000Y-108600000D03*
%TO.P,J2,11,Pin_11*%
%TO.N,/TRIGGER_IN*%
X173680000Y-108600000D03*
%TO.P,J2,12,Pin_12*%
%TO.N,GND*%
X176220000Y-108600000D03*
%TD*%
D10*
%TO.P,REF\u002A\u002A,1*%
%TO.N,N/C*%
X130502944Y-54702944D03*
X132200000Y-58800000D03*
X134600000Y-56400000D03*
X133897056Y-58097056D03*
D11*
X132200000Y-56400000D03*
D10*
X133897056Y-54702944D03*
X132200000Y-54000000D03*
X129800000Y-56400000D03*
X130502944Y-58097056D03*
%TD*%
D13*
%TO.P,J1,1,Pin_1*%
%TO.N,+VDC*%
X132600000Y-71800000D03*
D14*
%TO.P,J1,2,Pin_2*%
%TO.N,GND*%
X132600000Y-74340000D03*
%TD*%
D18*
%TO.P,U9,9,OUT*%
%TO.N,/BIAS*%
X184825000Y-70340000D03*
X185975000Y-68460000D03*
X184825000Y-68460000D03*
D20*
X185400000Y-69400000D03*
D18*
X184825000Y-69400000D03*
X185975000Y-70340000D03*
X185975000Y-69400000D03*
%TD*%
D17*
%TO.P,J3,2,Ext*%
%TO.N,GND*%
X207665000Y-89215000D03*
D16*
X204680000Y-96200000D03*
D15*
X205125000Y-89215000D03*
X205125000Y-96200000D03*
D17*
X207665000Y-96200000D03*
D16*
X204680000Y-89215000D03*
%TD*%
D18*
%TO.P,U8,9,OUT*%
%TO.N,/BIAS*%
X185974999Y-63910001D03*
X185974999Y-64850001D03*
D20*
X185399999Y-64850001D03*
D18*
X184824999Y-65790001D03*
X185974999Y-65790001D03*
X184824999Y-64850001D03*
X184824999Y-63910001D03*
%TD*%
D21*
%TO.N,+3.3V*%
X175200000Y-78800000D03*
X175200000Y-81600000D03*
X175000000Y-85000000D03*
%TO.N,GND*%
X149200000Y-74600000D03*
X145000000Y-74600000D03*
X147200000Y-74000000D03*
X142200000Y-74000000D03*
X142200000Y-76400000D03*
X144400000Y-78600000D03*
X142200000Y-78600000D03*
X140600000Y-77400000D03*
X140600000Y-75600000D03*
X140600000Y-72600000D03*
X145000000Y-72600000D03*
X149200000Y-72600000D03*
X154400000Y-75600000D03*
X154400000Y-72800000D03*
X202600000Y-96400000D03*
X204200000Y-99000000D03*
X208200000Y-99000000D03*
X201600000Y-91600000D03*
X203800000Y-91600000D03*
X195400000Y-90000000D03*
X196400000Y-93200000D03*
X199200000Y-94000000D03*
X201600000Y-94000000D03*
X203800000Y-94000000D03*
X208600000Y-85400000D03*
X208600000Y-81000000D03*
X208600000Y-77000000D03*
X208600000Y-73200000D03*
X203800000Y-72400000D03*
X203800000Y-75000000D03*
X203000000Y-78600000D03*
X200800000Y-81000000D03*
X195200000Y-81800000D03*
X197800000Y-79800000D03*
X200200000Y-77800000D03*
X201800000Y-75000000D03*
X201800000Y-72400000D03*
X201800000Y-70200000D03*
X203400000Y-89800000D03*
X203400000Y-87200000D03*
X203400000Y-84600000D03*
X203400000Y-83000000D03*
%TO.N,+3.3V*%
X169800000Y-104200000D03*
X170200000Y-99200000D03*
X181400000Y-93000000D03*
X172600000Y-94200000D03*
%TO.N,GND*%
X185400000Y-104200000D03*
X184800000Y-100600000D03*
X192400000Y-95200000D03*
X194000000Y-92000000D03*
X171200000Y-78600000D03*
X183400000Y-62200000D03*
%TO.N,+VDC*%
X182600000Y-73000000D03*
%TO.N,GND*%
X195400000Y-74400000D03*
X179400000Y-69000000D03*
X179400000Y-65400000D03*
%TO.N,/BIAS*%
X187600000Y-72000000D03*
X188000000Y-70200000D03*
%TO.N,GND*%
X190000000Y-71800000D03*
X190000000Y-70400000D03*
X183800000Y-72000000D03*
X183400000Y-76200000D03*
X180000000Y-76200000D03*
X177000000Y-76200000D03*
X170000000Y-77400000D03*
%TO.N,+5V*%
X200000000Y-83200000D03*
%TO.N,GND*%
X189800000Y-87000000D03*
X190800000Y-84000000D03*
X190800000Y-80200000D03*
X190800000Y-82000000D03*
%TO.N,+3.3V*%
X187087500Y-82112500D03*
X179100000Y-78900000D03*
X182600000Y-79000000D03*
X172675000Y-76925000D03*
%TO.N,/BIAS*%
X192600000Y-70400000D03*
X190800000Y-63600000D03*
X188200000Y-62600000D03*
X185800000Y-75800000D03*
X193600000Y-75800000D03*
X197200000Y-75800000D03*
X197200000Y-71000000D03*
X196200000Y-69400000D03*
X193800000Y-69400000D03*
X193800000Y-66600000D03*
X193800000Y-64000000D03*
X196000000Y-64000000D03*
X196000000Y-60600000D03*
X192600000Y-60600000D03*
X189200000Y-60600000D03*
X186200000Y-60600000D03*
%TO.N,GND*%
X170200000Y-79800000D03*
X163000000Y-85600000D03*
X161400000Y-85600000D03*
X159800000Y-85600000D03*
X158600000Y-85600000D03*
%TO.N,+3.3V*%
X167400000Y-84400000D03*
X167000000Y-87800000D03*
X167000000Y-89400000D03*
%TO.N,+5V*%
X146000000Y-95600000D03*
X146800000Y-96400000D03*
X148200000Y-96400000D03*
X149400000Y-96400000D03*
%TO.N,+3.3V*%
X157400000Y-93800000D03*
X157400000Y-92200000D03*
X157400000Y-90600000D03*
X157400000Y-89000000D03*
%TO.N,GND*%
X146000000Y-89800000D03*
X147200000Y-88200000D03*
X144800000Y-88200000D03*
X143600000Y-89800000D03*
X143600000Y-94400000D03*
X143600000Y-92000000D03*
%TO.N,+VDC*%
X155600000Y-78800000D03*
X155600000Y-77600000D03*
X156600000Y-78800000D03*
X156600000Y-77600000D03*
%TO.N,GND*%
X152800000Y-80600000D03*
X152800000Y-79600000D03*
X150600000Y-79400000D03*
X147600000Y-79400000D03*
X148600000Y-79400000D03*
X149600000Y-79400000D03*
X151600000Y-81000000D03*
X150600000Y-81000000D03*
X149600000Y-81000000D03*
X148600000Y-81000000D03*
X147600000Y-81000000D03*
X146400000Y-80200000D03*
X147600000Y-80200000D03*
X148600000Y-80200000D03*
X149600000Y-80200000D03*
X150600000Y-80200000D03*
X151600000Y-80200000D03*
X151600000Y-79400000D03*
%TO.N,Net-(C3-Pad2)*%
X150600000Y-77200000D03*
X150600000Y-74000000D03*
D22*
%TO.N,+VDC*%
X190862501Y-76137499D03*
%TO.N,+5V*%
X140400000Y-83000000D03*
X142000000Y-83000000D03*
X143600000Y-83000000D03*
X145200000Y-83000000D03*
X147600000Y-83000000D03*
X149600000Y-83000000D03*
X152200000Y-83000000D03*
%TO.N,/SDA*%
X174713357Y-86264160D03*
X173800000Y-87400000D03*
X171200000Y-96574001D03*
%TO.N,/SCL*%
X172800000Y-87000000D03*
X168600000Y-96574001D03*
%TO.N,/GPIO0*%
X175600000Y-90400000D03*
X187400000Y-88200000D03*
%TO.N,/GPIO1*%
X188600000Y-87800000D03*
X175800000Y-91400000D03*
%TO.N,Net-(R5-Pad2)*%
X180211829Y-91212770D03*
%TO.N,TDO*%
X187812299Y-89812299D03*
X190400000Y-103200000D03*
%TO.N,TDI*%
X186912299Y-90712299D03*
X189200000Y-103200000D03*
%TO.N,TMS*%
X185498789Y-92125809D03*
X186600000Y-103200000D03*
%TO.N,TCK*%
X186205544Y-91419054D03*
X187800000Y-103200000D03*
%TD*%
D23*
%TO.N,+3.3V*%
X169800000Y-104200000D02*
X170200000Y-103800000D01*
X170200000Y-103800000D02*
X170200000Y-99200000D01*
X171400000Y-99200000D02*
X172600000Y-98000000D01*
X172600000Y-98000000D02*
X172600000Y-94200000D01*
X170200000Y-99200000D02*
X171400000Y-99200000D01*
X180200000Y-93000000D02*
X181400000Y-93000000D01*
X178775000Y-90000000D02*
X178775000Y-91575000D01*
X178775000Y-91575000D02*
X180000000Y-92800000D01*
X180000000Y-92800000D02*
X180200000Y-93000000D01*
%TO.N,+VDC*%
X190862501Y-76137499D02*
X187937499Y-76137499D01*
X187937499Y-76137499D02*
X186800000Y-75000000D01*
X186800000Y-75000000D02*
X186600000Y-74800000D01*
X186600000Y-74800000D02*
X183800000Y-74800000D01*
X183800000Y-74800000D02*
X182600000Y-73600000D01*
X182600000Y-73600000D02*
X182600000Y-73000000D01*
D24*
%TO.N,Net-(C3-Pad2)*%
X150600000Y-77200000D02*
X150600000Y-74000000D01*
D23*
%TO.N,/SCL*%
X168600000Y-91200000D02*
X172800000Y-87000000D01*
X168600000Y-96574001D02*
X168600000Y-91200000D01*
%TO.N,/SDA*%
X171200000Y-96574001D02*
X171200000Y-90000000D01*
X171200000Y-90000000D02*
X173800000Y-87400000D01*
X173800000Y-87400000D02*
X174713357Y-86486643D01*
X174713357Y-86486643D02*
X174713357Y-86264160D01*
%TO.N,Net-(R5-Pad2)*%
X180600000Y-90000000D02*
X180600000Y-90824599D01*
X180600000Y-90824599D02*
X180211829Y-91212770D01*
%TO.N,/GPIO0*%
X177800000Y-88200000D02*
X175600000Y-90400000D01*
X187400000Y-88200000D02*
X177800000Y-88200000D01*
%TO.N,/GPIO1*%
X187575097Y-89049501D02*
X178150499Y-89049501D01*
X178150499Y-89049501D02*
X175800000Y-91400000D01*
X188600000Y-87800000D02*
X188600000Y-88024598D01*
X188600000Y-88024598D02*
X187575097Y-89049501D01*
%TO.N,TDI*%
X189200000Y-103200000D02*
X189200000Y-93000000D01*
X189200000Y-93000000D02*
X186912299Y-90712299D01*
%TO.N,TCK*%
X187800000Y-103200000D02*
X187800000Y-93013510D01*
X187800000Y-93013510D02*
X186205544Y-91419054D01*
%TO.N,TMS*%
X186600000Y-103200000D02*
X186600000Y-93227020D01*
%TO.N,TDO*%
X190400000Y-92400000D02*
X187812299Y-89812299D01*
X190400000Y-103200000D02*
X190400000Y-92400000D01*
%TO.N,TMS*%
X186600000Y-93227020D02*
X185498789Y-92125809D01*
%TD*%
%TA.AperFunction,Conductor*%
%TO.N,GND*%
G36*
X204728493Y-53120502D02*
G01*
X204774986Y-53174158D01*
X204785090Y-53244432D01*
X204755596Y-53309012D01*
X204713023Y-53340972D01*
X204611723Y-53387565D01*
X204608789Y-53389321D01*
X204608787Y-53389322D01*
X204514763Y-53445594D01*
X204295672Y-53576718D01*
X204001898Y-53798897D01*
X203733837Y-54051505D01*
X203494626Y-54331585D01*
X203492698Y-54334412D01*
X203492696Y-54334414D01*
X203486251Y-54343862D01*
X203287062Y-54635862D01*
X203113574Y-54960776D01*
X203112299Y-54963948D01*
X203112297Y-54963952D01*
X203012173Y-55213021D01*
X202976192Y-55302526D01*
X202876521Y-55657115D01*
X202875959Y-55660472D01*
X202875959Y-55660473D01*
X202874015Y-55672093D01*
X202815729Y-56020393D01*
X202794527Y-56388113D01*
X202813162Y-56755971D01*
X202813699Y-56759326D01*
X202813700Y-56759332D01*
X202854038Y-57011170D01*
X202871416Y-57119665D01*
X202968608Y-57474941D01*
X203103602Y-57817642D01*
X203274817Y-58143759D01*
X203276718Y-58146588D01*
X203276724Y-58146598D01*
X203461707Y-58421879D01*
X203480252Y-58449477D01*
X203717502Y-58731221D01*
X203820006Y-58829176D01*
X203981329Y-58983341D01*
X203981336Y-58983347D01*
X203983792Y-58985694D01*
X204276008Y-59209919D01*
X204590731Y-59401274D01*
X204924279Y-59557519D01*
X204927497Y-59558621D01*
X204927500Y-59558622D01*
X205269528Y-59675725D01*
X205269536Y-59675727D01*
X205272751Y-59676828D01*
X205632070Y-59757804D01*
X205715002Y-59767253D01*
X205994650Y-59799115D01*
X205994658Y-59799115D01*
X205998033Y-59799500D01*
X206001437Y-59799518D01*
X206001440Y-59799518D01*
X206201074Y-59800563D01*
X206366358Y-59801428D01*
X206369744Y-59801078D01*
X206369746Y-59801078D01*
X206729345Y-59763918D01*
X206729354Y-59763917D01*
X206732737Y-59763567D01*
X206736070Y-59762853D01*
X206736073Y-59762852D01*
X206913488Y-59724817D01*
X207092884Y-59686358D01*
X207442586Y-59570705D01*
X207777752Y-59417961D01*
X207874965Y-59360240D01*
X208091516Y-59231662D01*
X208091521Y-59231659D01*
X208094461Y-59229913D01*
X208121091Y-59209919D01*
X208386276Y-59010812D01*
X208389009Y-59008760D01*
X208657950Y-58757089D01*
X208898138Y-58477846D01*
X208915838Y-58452093D01*
X209104831Y-58177104D01*
X209106762Y-58174295D01*
X209108374Y-58171301D01*
X209108379Y-58171293D01*
X209279761Y-57853001D01*
X209281383Y-57849989D01*
X209356757Y-57664365D01*
X209400919Y-57608774D01*
X209468124Y-57585884D01*
X209537036Y-57602961D01*
X209585776Y-57654584D01*
X209599500Y-57711769D01*
X209599500Y-61341000D01*
X209579498Y-61409121D01*
X209525842Y-61455614D01*
X209473500Y-61467000D01*
X207937115Y-61467000D01*
X207921876Y-61471475D01*
X207920671Y-61472865D01*
X207919000Y-61480548D01*
X207919000Y-65129884D01*
X207923475Y-65145123D01*
X207924865Y-65146328D01*
X207932548Y-65147999D01*
X209473500Y-65147999D01*
X209541621Y-65168001D01*
X209588114Y-65221657D01*
X209599500Y-65273999D01*
X209599500Y-68326000D01*
X209579498Y-68394121D01*
X209525842Y-68440614D01*
X209473500Y-68452000D01*
X207937115Y-68452000D01*
X207921876Y-68456475D01*
X207920671Y-68457865D01*
X207919000Y-68465548D01*
X207919000Y-72114884D01*
X207923475Y-72130123D01*
X207924865Y-72131328D01*
X207932548Y-72132999D01*
X209473500Y-72132999D01*
X209541621Y-72153001D01*
X209588114Y-72206657D01*
X209599500Y-72258999D01*
X209599500Y-87248500D01*
X209579498Y-87316621D01*
X209525842Y-87363114D01*
X209473500Y-87374500D01*
X207937115Y-87374500D01*
X207921876Y-87378975D01*
X207920671Y-87380365D01*
X207919000Y-87388048D01*
X207919000Y-91037384D01*
X207923475Y-91052623D01*
X207924865Y-91053828D01*
X207932548Y-91055499D01*
X209473500Y-91055499D01*
X209541621Y-91075501D01*
X209588114Y-91129157D01*
X209599500Y-91181499D01*
X209599500Y-94233500D01*
X209579498Y-94301621D01*
X209525842Y-94348114D01*
X209473500Y-94359500D01*
X207937115Y-94359500D01*
X207921876Y-94363975D01*
X207920671Y-94365365D01*
X207919000Y-94373048D01*
X207919000Y-98022384D01*
X207923475Y-98037623D01*
X207924865Y-98038828D01*
X207932548Y-98040499D01*
X209473500Y-98040499D01*
X209541621Y-98060501D01*
X209588114Y-98114157D01*
X209599500Y-98166499D01*
X209599500Y-106888303D01*
X209579498Y-106956424D01*
X209525842Y-107002917D01*
X209455568Y-107013021D01*
X209390988Y-106983527D01*
X209356429Y-106934891D01*
X209292690Y-106774722D01*
X209291431Y-106771558D01*
X209261358Y-106714760D01*
X209120677Y-106449060D01*
X209120673Y-106449053D01*
X209119078Y-106446041D01*
X208912578Y-106141041D01*
X208674346Y-105860128D01*
X208407168Y-105606586D01*
X208114172Y-105383382D01*
X208111260Y-105381625D01*
X208111255Y-105381622D01*
X207801705Y-105194889D01*
X207801696Y-105194884D01*
X207798783Y-105193127D01*
X207795693Y-105191693D01*
X207795688Y-105191690D01*
X207631737Y-105115587D01*
X207464691Y-105038047D01*
X207461466Y-105036955D01*
X207461460Y-105036953D01*
X207119032Y-104921048D01*
X207119027Y-104921047D01*
X207115805Y-104919956D01*
X206881920Y-104868104D01*
X206759536Y-104840972D01*
X206759532Y-104840971D01*
X206756206Y-104840234D01*
X206606624Y-104823720D01*
X206393482Y-104800189D01*
X206393475Y-104800189D01*
X206390100Y-104799816D01*
X206386701Y-104799810D01*
X206386700Y-104799810D01*
X206212980Y-104799507D01*
X206021770Y-104799173D01*
X205884556Y-104813837D01*
X205658910Y-104837951D01*
X205658904Y-104837952D01*
X205655526Y-104838313D01*
X205295650Y-104916779D01*
X204946354Y-105033652D01*
X204943261Y-105035075D01*
X204943260Y-105035075D01*
X204933674Y-105039484D01*
X204611723Y-105187565D01*
X204608789Y-105189321D01*
X204608787Y-105189322D01*
X204514763Y-105245594D01*
X204295672Y-105376718D01*
X204001898Y-105598897D01*
X203733837Y-105851505D01*
X203494626Y-106131585D01*
X203492698Y-106134412D01*
X203492696Y-106134414D01*
X203486251Y-106143862D01*
X203287062Y-106435862D01*
X203113574Y-106760776D01*
X203112299Y-106763948D01*
X203112297Y-106763952D01*
X203012173Y-107013021D01*
X202976192Y-107102526D01*
X202975273Y-107105794D01*
X202975271Y-107105801D01*
X202877442Y-107453837D01*
X202876521Y-107457115D01*
X202875959Y-107460472D01*
X202875959Y-107460473D01*
X202832203Y-107721951D01*
X202815729Y-107820393D01*
X202794527Y-108188113D01*
X202813162Y-108555971D01*
X202813699Y-108559326D01*
X202813700Y-108559332D01*
X202824935Y-108629474D01*
X202871416Y-108919665D01*
X202968608Y-109274941D01*
X203052067Y-109486812D01*
X203084521Y-109569201D01*
X203103602Y-109617642D01*
X203113838Y-109637139D01*
X203269900Y-109934393D01*
X203274817Y-109943759D01*
X203276718Y-109946588D01*
X203276724Y-109946598D01*
X203461707Y-110221879D01*
X203480252Y-110249477D01*
X203717502Y-110531221D01*
X203820006Y-110629176D01*
X203981329Y-110783341D01*
X203981336Y-110783347D01*
X203983792Y-110785694D01*
X204276008Y-111009919D01*
X204590731Y-111201274D01*
X204593814Y-111202718D01*
X204714813Y-111259398D01*
X204768016Y-111306408D01*
X204787358Y-111374719D01*
X204766698Y-111442643D01*
X204712595Y-111488615D01*
X204661364Y-111499500D01*
X133740291Y-111499500D01*
X133672170Y-111479498D01*
X133625677Y-111425842D01*
X133615573Y-111355568D01*
X133645067Y-111290988D01*
X133688040Y-111258845D01*
X133774640Y-111219379D01*
X133777752Y-111217961D01*
X133874965Y-111160240D01*
X134091516Y-111031662D01*
X134091521Y-111031659D01*
X134094461Y-111029913D01*
X134121091Y-111009919D01*
X134386276Y-110810812D01*
X134389009Y-110808760D01*
X134657950Y-110557089D01*
X134898138Y-110277846D01*
X134915838Y-110252093D01*
X135104831Y-109977104D01*
X135106762Y-109974295D01*
X135108374Y-109971301D01*
X135108379Y-109971293D01*
X135279761Y-109653001D01*
X135281383Y-109649989D01*
X135354571Y-109469748D01*
X138209500Y-109469748D01*
X138210707Y-109475816D01*
X138217872Y-109511835D01*
X138221133Y-109528231D01*
X138265448Y-109594552D01*
X138331769Y-109638867D01*
X138343938Y-109641288D01*
X138343939Y-109641288D01*
X138371766Y-109646823D01*
X138390252Y-109650500D01*
X140129748Y-109650500D01*
X140148234Y-109646823D01*
X140176061Y-109641288D01*
X140176062Y-109641288D01*
X140188231Y-109638867D01*
X140254552Y-109594552D01*
X140298867Y-109528231D01*
X140302129Y-109511835D01*
X140309293Y-109475816D01*
X140310500Y-109469748D01*
X140310500Y-109186752D01*
X140330502Y-109118631D01*
X140384158Y-109072138D01*
X140454432Y-109062034D01*
X140519012Y-109091528D01*
X140553243Y-109139348D01*
X140581770Y-109209603D01*
X140586413Y-109218794D01*
X140697694Y-109400388D01*
X140703777Y-109408699D01*
X140843213Y-109569667D01*
X140850580Y-109576883D01*
X141014434Y-109712916D01*
X141022881Y-109718831D01*
X141206756Y-109826279D01*
X141216042Y-109830729D01*
X141415001Y-109906703D01*
X141424899Y-109909579D01*
X141528250Y-109930606D01*
X141542299Y-109929410D01*
X141546000Y-109919065D01*
X141546000Y-109918517D01*
X142054000Y-109918517D01*
X142058064Y-109932359D01*
X142071478Y-109934393D01*
X142078184Y-109933534D01*
X142088262Y-109931392D01*
X142292255Y-109870191D01*
X142301842Y-109866433D01*
X142493095Y-109772739D01*
X142501945Y-109767464D01*
X142675328Y-109643792D01*
X142683200Y-109637139D01*
X142834052Y-109486812D01*
X142840730Y-109478965D01*
X142847353Y-109469748D01*
X147229500Y-109469748D01*
X147230707Y-109475816D01*
X147237872Y-109511835D01*
X147241133Y-109528231D01*
X147285448Y-109594552D01*
X147351769Y-109638867D01*
X147363938Y-109641288D01*
X147363939Y-109641288D01*
X147391766Y-109646823D01*
X147410252Y-109650500D01*
X149149748Y-109650500D01*
X149168234Y-109646823D01*
X149196061Y-109641288D01*
X149196062Y-109641288D01*
X149208231Y-109638867D01*
X149274552Y-109594552D01*
X149318867Y-109528231D01*
X149322129Y-109511835D01*
X149329293Y-109475816D01*
X149330500Y-109469748D01*
X149330500Y-108585262D01*
X149764520Y-108585262D01*
X149781759Y-108790553D01*
X149783458Y-108796478D01*
X149829395Y-108956678D01*
X149838544Y-108988586D01*
X149841359Y-108994063D01*
X149841360Y-108994066D01*
X149916025Y-109139348D01*
X149932712Y-109171818D01*
X150060677Y-109333270D01*
X150065370Y-109337264D01*
X150065371Y-109337265D01*
X150190449Y-109443714D01*
X150217564Y-109466791D01*
X150222942Y-109469797D01*
X150222944Y-109469798D01*
X150298161Y-109511835D01*
X150397398Y-109567297D01*
X150481280Y-109594552D01*
X150587471Y-109629056D01*
X150587475Y-109629057D01*
X150593329Y-109630959D01*
X150797894Y-109655351D01*
X150804029Y-109654879D01*
X150804031Y-109654879D01*
X150876625Y-109649293D01*
X151003300Y-109639546D01*
X151009230Y-109637890D01*
X151009232Y-109637890D01*
X151195797Y-109585800D01*
X151195796Y-109585800D01*
X151201725Y-109584145D01*
X151207214Y-109581372D01*
X151207220Y-109581370D01*
X151380116Y-109494033D01*
X151385610Y-109491258D01*
X151401345Y-109478965D01*
X151501919Y-109400388D01*
X151547951Y-109364424D01*
X151593313Y-109311872D01*
X151678540Y-109213134D01*
X151678540Y-109213133D01*
X151682564Y-109208472D01*
X151703387Y-109171818D01*
X151733601Y-109118631D01*
X151784323Y-109029344D01*
X151849351Y-108833863D01*
X151875171Y-108629474D01*
X151875583Y-108600000D01*
X151874138Y-108585262D01*
X152304520Y-108585262D01*
X152321759Y-108790553D01*
X152323458Y-108796478D01*
X152369395Y-108956678D01*
X152378544Y-108988586D01*
X152381359Y-108994063D01*
X152381360Y-108994066D01*
X152456025Y-109139348D01*
X152472712Y-109171818D01*
X152600677Y-109333270D01*
X152605370Y-109337264D01*
X152605371Y-109337265D01*
X152730449Y-109443714D01*
X152757564Y-109466791D01*
X152762942Y-109469797D01*
X152762944Y-109469798D01*
X152838161Y-109511835D01*
X152937398Y-109567297D01*
X153021280Y-109594552D01*
X153127471Y-109629056D01*
X153127475Y-109629057D01*
X153133329Y-109630959D01*
X153337894Y-109655351D01*
X153344029Y-109654879D01*
X153344031Y-109654879D01*
X153416625Y-109649293D01*
X153543300Y-109639546D01*
X153549230Y-109637890D01*
X153549232Y-109637890D01*
X153735797Y-109585800D01*
X153735796Y-109585800D01*
X153741725Y-109584145D01*
X153747214Y-109581372D01*
X153747220Y-109581370D01*
X153920116Y-109494033D01*
X153925610Y-109491258D01*
X153941345Y-109478965D01*
X154041919Y-109400388D01*
X154087951Y-109364424D01*
X154133313Y-109311872D01*
X154218540Y-109213134D01*
X154218540Y-109213133D01*
X154222564Y-109208472D01*
X154243387Y-109171818D01*
X154273601Y-109118631D01*
X154324323Y-109029344D01*
X154389351Y-108833863D01*
X154415171Y-108629474D01*
X154415583Y-108600000D01*
X154414138Y-108585262D01*
X154844520Y-108585262D01*
X154861759Y-108790553D01*
X154863458Y-108796478D01*
X154909395Y-108956678D01*
X154918544Y-108988586D01*
X154921359Y-108994063D01*
X154921360Y-108994066D01*
X154996025Y-109139348D01*
X155012712Y-109171818D01*
X155140677Y-109333270D01*
X155145370Y-109337264D01*
X155145371Y-109337265D01*
X155270449Y-109443714D01*
X155297564Y-109466791D01*
X155302942Y-109469797D01*
X155302944Y-109469798D01*
X155378161Y-109511835D01*
X155477398Y-109567297D01*
X155561280Y-109594552D01*
X155667471Y-109629056D01*
X155667475Y-109629057D01*
X155673329Y-109630959D01*
X155877894Y-109655351D01*
X155884029Y-109654879D01*
X155884031Y-109654879D01*
X155956625Y-109649293D01*
X156083300Y-109639546D01*
X156089230Y-109637890D01*
X156089232Y-109637890D01*
X156275797Y-109585800D01*
X156275796Y-109585800D01*
X156281725Y-109584145D01*
X156287214Y-109581372D01*
X156287220Y-109581370D01*
X156460116Y-109494033D01*
X156465610Y-109491258D01*
X156481345Y-109478965D01*
X156581919Y-109400388D01*
X156627951Y-109364424D01*
X156673313Y-109311872D01*
X156758540Y-109213134D01*
X156758540Y-109213133D01*
X156762564Y-109208472D01*
X156783387Y-109171818D01*
X156813601Y-109118631D01*
X156864323Y-109029344D01*
X156929351Y-108833863D01*
X156955171Y-108629474D01*
X156955583Y-108600000D01*
X156954138Y-108585262D01*
X157384520Y-108585262D01*
X157401759Y-108790553D01*
X157403458Y-108796478D01*
X157449395Y-108956678D01*
X157458544Y-108988586D01*
X157461359Y-108994063D01*
X157461360Y-108994066D01*
X157536025Y-109139348D01*
X157552712Y-109171818D01*
X157680677Y-109333270D01*
X157685370Y-109337264D01*
X157685371Y-109337265D01*
X157810449Y-109443714D01*
X157837564Y-109466791D01*
X157842942Y-109469797D01*
X157842944Y-109469798D01*
X157918161Y-109511835D01*
X158017398Y-109567297D01*
X158101280Y-109594552D01*
X158207471Y-109629056D01*
X158207475Y-109629057D01*
X158213329Y-109630959D01*
X158417894Y-109655351D01*
X158424029Y-109654879D01*
X158424031Y-109654879D01*
X158496625Y-109649293D01*
X158623300Y-109639546D01*
X158629230Y-109637890D01*
X158629232Y-109637890D01*
X158815797Y-109585800D01*
X158815796Y-109585800D01*
X158821725Y-109584145D01*
X158827214Y-109581372D01*
X158827220Y-109581370D01*
X159000116Y-109494033D01*
X159005610Y-109491258D01*
X159021345Y-109478965D01*
X159121919Y-109400388D01*
X159167951Y-109364424D01*
X159213313Y-109311872D01*
X159298540Y-109213134D01*
X159298540Y-109213133D01*
X159302564Y-109208472D01*
X159323387Y-109171818D01*
X159353601Y-109118631D01*
X159404323Y-109029344D01*
X159469351Y-108833863D01*
X159495171Y-108629474D01*
X159495583Y-108600000D01*
X159494138Y-108585262D01*
X159924520Y-108585262D01*
X159941759Y-108790553D01*
X159943458Y-108796478D01*
X159989395Y-108956678D01*
X159998544Y-108988586D01*
X160001359Y-108994063D01*
X160001360Y-108994066D01*
X160076025Y-109139348D01*
X160092712Y-109171818D01*
X160220677Y-109333270D01*
X160225370Y-109337264D01*
X160225371Y-109337265D01*
X160350449Y-109443714D01*
X160377564Y-109466791D01*
X160382942Y-109469797D01*
X160382944Y-109469798D01*
X160458161Y-109511835D01*
X160557398Y-109567297D01*
X160641280Y-109594552D01*
X160747471Y-109629056D01*
X160747475Y-109629057D01*
X160753329Y-109630959D01*
X160957894Y-109655351D01*
X160964029Y-109654879D01*
X160964031Y-109654879D01*
X161036625Y-109649293D01*
X161163300Y-109639546D01*
X161169230Y-109637890D01*
X161169232Y-109637890D01*
X161355797Y-109585800D01*
X161355796Y-109585800D01*
X161361725Y-109584145D01*
X161367214Y-109581372D01*
X161367220Y-109581370D01*
X161540116Y-109494033D01*
X161545610Y-109491258D01*
X161561345Y-109478965D01*
X161661919Y-109400388D01*
X161707951Y-109364424D01*
X161753313Y-109311872D01*
X161838540Y-109213134D01*
X161838540Y-109213133D01*
X161842564Y-109208472D01*
X161863387Y-109171818D01*
X161893601Y-109118631D01*
X161944323Y-109029344D01*
X162009351Y-108833863D01*
X162035171Y-108629474D01*
X162035583Y-108600000D01*
X162034138Y-108585262D01*
X162464520Y-108585262D01*
X162481759Y-108790553D01*
X162483458Y-108796478D01*
X162529395Y-108956678D01*
X162538544Y-108988586D01*
X162541359Y-108994063D01*
X162541360Y-108994066D01*
X162616025Y-109139348D01*
X162632712Y-109171818D01*
X162760677Y-109333270D01*
X162765370Y-109337264D01*
X162765371Y-109337265D01*
X162890449Y-109443714D01*
X162917564Y-109466791D01*
X162922942Y-109469797D01*
X162922944Y-109469798D01*
X162998161Y-109511835D01*
X163097398Y-109567297D01*
X163181280Y-109594552D01*
X163287471Y-109629056D01*
X163287475Y-109629057D01*
X163293329Y-109630959D01*
X163497894Y-109655351D01*
X163504029Y-109654879D01*
X163504031Y-109654879D01*
X163576625Y-109649293D01*
X163703300Y-109639546D01*
X163709230Y-109637890D01*
X163709232Y-109637890D01*
X163895797Y-109585800D01*
X163895796Y-109585800D01*
X163901725Y-109584145D01*
X163907214Y-109581372D01*
X163907220Y-109581370D01*
X164080116Y-109494033D01*
X164085610Y-109491258D01*
X164101345Y-109478965D01*
X164201919Y-109400388D01*
X164247951Y-109364424D01*
X164293313Y-109311872D01*
X164378540Y-109213134D01*
X164378540Y-109213133D01*
X164382564Y-109208472D01*
X164403387Y-109171818D01*
X164433601Y-109118631D01*
X164484323Y-109029344D01*
X164549351Y-108833863D01*
X164575171Y-108629474D01*
X164575583Y-108600000D01*
X164574138Y-108585262D01*
X165004520Y-108585262D01*
X165021759Y-108790553D01*
X165023458Y-108796478D01*
X165069395Y-108956678D01*
X165078544Y-108988586D01*
X165081359Y-108994063D01*
X165081360Y-108994066D01*
X165156025Y-109139348D01*
X165172712Y-109171818D01*
X165300677Y-109333270D01*
X165305370Y-109337264D01*
X165305371Y-109337265D01*
X165430449Y-109443714D01*
X165457564Y-109466791D01*
X165462942Y-109469797D01*
X165462944Y-109469798D01*
X165538161Y-109511835D01*
X165637398Y-109567297D01*
X165721280Y-109594552D01*
X165827471Y-109629056D01*
X165827475Y-109629057D01*
X165833329Y-109630959D01*
X166037894Y-109655351D01*
X166044029Y-109654879D01*
X166044031Y-109654879D01*
X166116625Y-109649293D01*
X166243300Y-109639546D01*
X166249230Y-109637890D01*
X166249232Y-109637890D01*
X166435797Y-109585800D01*
X166435796Y-109585800D01*
X166441725Y-109584145D01*
X166447214Y-109581372D01*
X166447220Y-109581370D01*
X166620116Y-109494033D01*
X166625610Y-109491258D01*
X166641345Y-109478965D01*
X166741919Y-109400388D01*
X166787951Y-109364424D01*
X166833313Y-109311872D01*
X166918540Y-109213134D01*
X166918540Y-109213133D01*
X166922564Y-109208472D01*
X166943387Y-109171818D01*
X166973601Y-109118631D01*
X167024323Y-109029344D01*
X167089351Y-108833863D01*
X167115171Y-108629474D01*
X167115583Y-108600000D01*
X167114138Y-108585262D01*
X167544520Y-108585262D01*
X167561759Y-108790553D01*
X167563458Y-108796478D01*
X167609395Y-108956678D01*
X167618544Y-108988586D01*
X167621359Y-108994063D01*
X167621360Y-108994066D01*
X167696025Y-109139348D01*
X167712712Y-109171818D01*
X167840677Y-109333270D01*
X167845370Y-109337264D01*
X167845371Y-109337265D01*
X167970449Y-109443714D01*
X167997564Y-109466791D01*
X168002942Y-109469797D01*
X168002944Y-109469798D01*
X168078161Y-109511835D01*
X168177398Y-109567297D01*
X168261280Y-109594552D01*
X168367471Y-109629056D01*
X168367475Y-109629057D01*
X168373329Y-109630959D01*
X168577894Y-109655351D01*
X168584029Y-109654879D01*
X168584031Y-109654879D01*
X168656625Y-109649293D01*
X168783300Y-109639546D01*
X168789230Y-109637890D01*
X168789232Y-109637890D01*
X168975797Y-109585800D01*
X168975796Y-109585800D01*
X168981725Y-109584145D01*
X168987214Y-109581372D01*
X168987220Y-109581370D01*
X169160116Y-109494033D01*
X169165610Y-109491258D01*
X169181345Y-109478965D01*
X169281919Y-109400388D01*
X169327951Y-109364424D01*
X169373313Y-109311872D01*
X169458540Y-109213134D01*
X169458540Y-109213133D01*
X169462564Y-109208472D01*
X169483387Y-109171818D01*
X169513601Y-109118631D01*
X169564323Y-109029344D01*
X169629351Y-108833863D01*
X169655171Y-108629474D01*
X169655583Y-108600000D01*
X169654138Y-108585262D01*
X170084520Y-108585262D01*
X170101759Y-108790553D01*
X170103458Y-108796478D01*
X170149395Y-108956678D01*
X170158544Y-108988586D01*
X170161359Y-108994063D01*
X170161360Y-108994066D01*
X170236025Y-109139348D01*
X170252712Y-109171818D01*
X170380677Y-109333270D01*
X170385370Y-109337264D01*
X170385371Y-109337265D01*
X170510449Y-109443714D01*
X170537564Y-109466791D01*
X170542942Y-109469797D01*
X170542944Y-109469798D01*
X170618161Y-109511835D01*
X170717398Y-109567297D01*
X170801280Y-109594552D01*
X170907471Y-109629056D01*
X170907475Y-109629057D01*
X170913329Y-109630959D01*
X171117894Y-109655351D01*
X171124029Y-109654879D01*
X171124031Y-109654879D01*
X171196625Y-109649293D01*
X171323300Y-109639546D01*
X171329230Y-109637890D01*
X171329232Y-109637890D01*
X171515797Y-109585800D01*
X171515796Y-109585800D01*
X171521725Y-109584145D01*
X171527214Y-109581372D01*
X171527220Y-109581370D01*
X171700116Y-109494033D01*
X171705610Y-109491258D01*
X171721345Y-109478965D01*
X171821919Y-109400388D01*
X171867951Y-109364424D01*
X171913313Y-109311872D01*
X171998540Y-109213134D01*
X171998540Y-109213133D01*
X172002564Y-109208472D01*
X172023387Y-109171818D01*
X172053601Y-109118631D01*
X172104323Y-109029344D01*
X172169351Y-108833863D01*
X172195171Y-108629474D01*
X172195583Y-108600000D01*
X172194138Y-108585262D01*
X172624520Y-108585262D01*
X172641759Y-108790553D01*
X172643458Y-108796478D01*
X172689395Y-108956678D01*
X172698544Y-108988586D01*
X172701359Y-108994063D01*
X172701360Y-108994066D01*
X172776025Y-109139348D01*
X172792712Y-109171818D01*
X172920677Y-109333270D01*
X172925370Y-109337264D01*
X172925371Y-109337265D01*
X173050449Y-109443714D01*
X173077564Y-109466791D01*
X173082942Y-109469797D01*
X173082944Y-109469798D01*
X173158161Y-109511835D01*
X173257398Y-109567297D01*
X173341280Y-109594552D01*
X173447471Y-109629056D01*
X173447475Y-109629057D01*
X173453329Y-109630959D01*
X173657894Y-109655351D01*
X173664029Y-109654879D01*
X173664031Y-109654879D01*
X173736625Y-109649293D01*
X173863300Y-109639546D01*
X173869230Y-109637890D01*
X173869232Y-109637890D01*
X174055797Y-109585800D01*
X174055796Y-109585800D01*
X174061725Y-109584145D01*
X174067214Y-109581372D01*
X174067220Y-109581370D01*
X174240116Y-109494033D01*
X174245610Y-109491258D01*
X174261345Y-109478965D01*
X174361919Y-109400388D01*
X174407951Y-109364424D01*
X174453313Y-109311872D01*
X174538540Y-109213134D01*
X174538540Y-109213133D01*
X174542564Y-109208472D01*
X174563387Y-109171818D01*
X174593601Y-109118631D01*
X174644323Y-109029344D01*
X174653271Y-109002444D01*
X174668496Y-108956678D01*
X174708978Y-108898354D01*
X174774566Y-108871175D01*
X174844437Y-108883770D01*
X174896406Y-108932141D01*
X174910971Y-108968751D01*
X174918564Y-109002444D01*
X174921645Y-109012275D01*
X175001770Y-109209603D01*
X175006413Y-109218794D01*
X175117694Y-109400388D01*
X175123777Y-109408699D01*
X175263213Y-109569667D01*
X175270580Y-109576883D01*
X175434434Y-109712916D01*
X175442881Y-109718831D01*
X175626756Y-109826279D01*
X175636042Y-109830729D01*
X175835001Y-109906703D01*
X175844899Y-109909579D01*
X175948250Y-109930606D01*
X175962299Y-109929410D01*
X175966000Y-109919065D01*
X175966000Y-109918517D01*
X176474000Y-109918517D01*
X176478064Y-109932359D01*
X176491478Y-109934393D01*
X176498184Y-109933534D01*
X176508262Y-109931392D01*
X176712255Y-109870191D01*
X176721842Y-109866433D01*
X176913095Y-109772739D01*
X176921945Y-109767464D01*
X177095328Y-109643792D01*
X177103200Y-109637139D01*
X177254052Y-109486812D01*
X177260730Y-109478965D01*
X177385003Y-109306020D01*
X177390313Y-109297183D01*
X177484670Y-109106267D01*
X177488469Y-109096672D01*
X177550377Y-108892910D01*
X177552555Y-108882837D01*
X177553986Y-108871962D01*
X177551775Y-108857778D01*
X177538617Y-108854000D01*
X176492115Y-108854000D01*
X176476876Y-108858475D01*
X176475671Y-108859865D01*
X176474000Y-108867548D01*
X176474000Y-109918517D01*
X175966000Y-109918517D01*
X175966000Y-108327885D01*
X176474000Y-108327885D01*
X176478475Y-108343124D01*
X176479865Y-108344329D01*
X176487548Y-108346000D01*
X177538344Y-108346000D01*
X177551875Y-108342027D01*
X177553180Y-108332947D01*
X177511214Y-108165875D01*
X177507894Y-108156124D01*
X177422972Y-107960814D01*
X177418105Y-107951739D01*
X177302426Y-107772926D01*
X177296136Y-107764757D01*
X177152806Y-107607240D01*
X177145273Y-107600215D01*
X176978139Y-107468222D01*
X176969552Y-107462517D01*
X176783117Y-107359599D01*
X176773705Y-107355369D01*
X176572959Y-107284280D01*
X176562988Y-107281646D01*
X176491837Y-107268972D01*
X176478540Y-107270432D01*
X176474000Y-107284989D01*
X176474000Y-108327885D01*
X175966000Y-108327885D01*
X175966000Y-107283102D01*
X175962082Y-107269758D01*
X175947806Y-107267771D01*
X175909324Y-107273660D01*
X175899288Y-107276051D01*
X175696868Y-107342212D01*
X175687359Y-107346209D01*
X175498463Y-107444542D01*
X175489738Y-107450036D01*
X175319433Y-107577905D01*
X175311726Y-107584748D01*
X175164590Y-107738717D01*
X175158104Y-107746727D01*
X175038098Y-107922649D01*
X175033000Y-107931623D01*
X174943338Y-108124783D01*
X174939775Y-108134470D01*
X174911012Y-108238185D01*
X174873533Y-108298483D01*
X174809405Y-108328946D01*
X174738986Y-108319903D01*
X174684636Y-108274224D01*
X174668973Y-108240933D01*
X174664335Y-108225572D01*
X174655935Y-108197749D01*
X174559218Y-108015849D01*
X174483206Y-107922649D01*
X174432906Y-107860975D01*
X174432903Y-107860972D01*
X174429011Y-107856200D01*
X174411786Y-107841950D01*
X174275025Y-107728811D01*
X174275021Y-107728809D01*
X174270275Y-107724882D01*
X174089055Y-107626897D01*
X173892254Y-107565977D01*
X173886129Y-107565333D01*
X173886128Y-107565333D01*
X173693498Y-107545087D01*
X173693496Y-107545087D01*
X173687369Y-107544443D01*
X173600529Y-107552346D01*
X173488342Y-107562555D01*
X173488339Y-107562556D01*
X173482203Y-107563114D01*
X173284572Y-107621280D01*
X173102002Y-107716726D01*
X173097201Y-107720586D01*
X173097198Y-107720588D01*
X172954138Y-107835611D01*
X172941447Y-107845815D01*
X172809024Y-108003630D01*
X172806056Y-108009028D01*
X172806053Y-108009033D01*
X172725190Y-108156124D01*
X172709776Y-108184162D01*
X172647484Y-108380532D01*
X172646798Y-108386649D01*
X172646797Y-108386653D01*
X172628186Y-108552576D01*
X172624520Y-108585262D01*
X172194138Y-108585262D01*
X172175480Y-108394970D01*
X172115935Y-108197749D01*
X172019218Y-108015849D01*
X171943206Y-107922649D01*
X171892906Y-107860975D01*
X171892903Y-107860972D01*
X171889011Y-107856200D01*
X171871786Y-107841950D01*
X171735025Y-107728811D01*
X171735021Y-107728809D01*
X171730275Y-107724882D01*
X171549055Y-107626897D01*
X171352254Y-107565977D01*
X171346129Y-107565333D01*
X171346128Y-107565333D01*
X171153498Y-107545087D01*
X171153496Y-107545087D01*
X171147369Y-107544443D01*
X171060529Y-107552346D01*
X170948342Y-107562555D01*
X170948339Y-107562556D01*
X170942203Y-107563114D01*
X170744572Y-107621280D01*
X170562002Y-107716726D01*
X170557201Y-107720586D01*
X170557198Y-107720588D01*
X170414138Y-107835611D01*
X170401447Y-107845815D01*
X170269024Y-108003630D01*
X170266056Y-108009028D01*
X170266053Y-108009033D01*
X170185190Y-108156124D01*
X170169776Y-108184162D01*
X170107484Y-108380532D01*
X170106798Y-108386649D01*
X170106797Y-108386653D01*
X170088186Y-108552576D01*
X170084520Y-108585262D01*
X169654138Y-108585262D01*
X169635480Y-108394970D01*
X169575935Y-108197749D01*
X169479218Y-108015849D01*
X169403206Y-107922649D01*
X169352906Y-107860975D01*
X169352903Y-107860972D01*
X169349011Y-107856200D01*
X169331786Y-107841950D01*
X169195025Y-107728811D01*
X169195021Y-107728809D01*
X169190275Y-107724882D01*
X169009055Y-107626897D01*
X168812254Y-107565977D01*
X168806129Y-107565333D01*
X168806128Y-107565333D01*
X168613498Y-107545087D01*
X168613496Y-107545087D01*
X168607369Y-107544443D01*
X168520529Y-107552346D01*
X168408342Y-107562555D01*
X168408339Y-107562556D01*
X168402203Y-107563114D01*
X168204572Y-107621280D01*
X168022002Y-107716726D01*
X168017201Y-107720586D01*
X168017198Y-107720588D01*
X167874138Y-107835611D01*
X167861447Y-107845815D01*
X167729024Y-108003630D01*
X167726056Y-108009028D01*
X167726053Y-108009033D01*
X167645190Y-108156124D01*
X167629776Y-108184162D01*
X167567484Y-108380532D01*
X167566798Y-108386649D01*
X167566797Y-108386653D01*
X167548186Y-108552576D01*
X167544520Y-108585262D01*
X167114138Y-108585262D01*
X167095480Y-108394970D01*
X167035935Y-108197749D01*
X166939218Y-108015849D01*
X166863206Y-107922649D01*
X166812906Y-107860975D01*
X166812903Y-107860972D01*
X166809011Y-107856200D01*
X166791786Y-107841950D01*
X166655025Y-107728811D01*
X166655021Y-107728809D01*
X166650275Y-107724882D01*
X166469055Y-107626897D01*
X166272254Y-107565977D01*
X166266129Y-107565333D01*
X166266128Y-107565333D01*
X166073498Y-107545087D01*
X166073496Y-107545087D01*
X166067369Y-107544443D01*
X165980529Y-107552346D01*
X165868342Y-107562555D01*
X165868339Y-107562556D01*
X165862203Y-107563114D01*
X165664572Y-107621280D01*
X165482002Y-107716726D01*
X165477201Y-107720586D01*
X165477198Y-107720588D01*
X165334138Y-107835611D01*
X165321447Y-107845815D01*
X165189024Y-108003630D01*
X165186056Y-108009028D01*
X165186053Y-108009033D01*
X165105190Y-108156124D01*
X165089776Y-108184162D01*
X165027484Y-108380532D01*
X165026798Y-108386649D01*
X165026797Y-108386653D01*
X165008186Y-108552576D01*
X165004520Y-108585262D01*
X164574138Y-108585262D01*
X164555480Y-108394970D01*
X164495935Y-108197749D01*
X164399218Y-108015849D01*
X164323206Y-107922649D01*
X164272906Y-107860975D01*
X164272903Y-107860972D01*
X164269011Y-107856200D01*
X164251786Y-107841950D01*
X164115025Y-107728811D01*
X164115021Y-107728809D01*
X164110275Y-107724882D01*
X163929055Y-107626897D01*
X163732254Y-107565977D01*
X163726129Y-107565333D01*
X163726128Y-107565333D01*
X163533498Y-107545087D01*
X163533496Y-107545087D01*
X163527369Y-107544443D01*
X163440529Y-107552346D01*
X163328342Y-107562555D01*
X163328339Y-107562556D01*
X163322203Y-107563114D01*
X163124572Y-107621280D01*
X162942002Y-107716726D01*
X162937201Y-107720586D01*
X162937198Y-107720588D01*
X162794138Y-107835611D01*
X162781447Y-107845815D01*
X162649024Y-108003630D01*
X162646056Y-108009028D01*
X162646053Y-108009033D01*
X162565190Y-108156124D01*
X162549776Y-108184162D01*
X162487484Y-108380532D01*
X162486798Y-108386649D01*
X162486797Y-108386653D01*
X162468186Y-108552576D01*
X162464520Y-108585262D01*
X162034138Y-108585262D01*
X162015480Y-108394970D01*
X161955935Y-108197749D01*
X161859218Y-108015849D01*
X161783206Y-107922649D01*
X161732906Y-107860975D01*
X161732903Y-107860972D01*
X161729011Y-107856200D01*
X161711786Y-107841950D01*
X161575025Y-107728811D01*
X161575021Y-107728809D01*
X161570275Y-107724882D01*
X161389055Y-107626897D01*
X161192254Y-107565977D01*
X161186129Y-107565333D01*
X161186128Y-107565333D01*
X160993498Y-107545087D01*
X160993496Y-107545087D01*
X160987369Y-107544443D01*
X160900529Y-107552346D01*
X160788342Y-107562555D01*
X160788339Y-107562556D01*
X160782203Y-107563114D01*
X160584572Y-107621280D01*
X160402002Y-107716726D01*
X160397201Y-107720586D01*
X160397198Y-107720588D01*
X160254138Y-107835611D01*
X160241447Y-107845815D01*
X160109024Y-108003630D01*
X160106056Y-108009028D01*
X160106053Y-108009033D01*
X160025190Y-108156124D01*
X160009776Y-108184162D01*
X159947484Y-108380532D01*
X159946798Y-108386649D01*
X159946797Y-108386653D01*
X159928186Y-108552576D01*
X159924520Y-108585262D01*
X159494138Y-108585262D01*
X159475480Y-108394970D01*
X159415935Y-108197749D01*
X159319218Y-108015849D01*
X159243206Y-107922649D01*
X159192906Y-107860975D01*
X159192903Y-107860972D01*
X159189011Y-107856200D01*
X159171786Y-107841950D01*
X159035025Y-107728811D01*
X159035021Y-107728809D01*
X159030275Y-107724882D01*
X158849055Y-107626897D01*
X158652254Y-107565977D01*
X158646129Y-107565333D01*
X158646128Y-107565333D01*
X158453498Y-107545087D01*
X158453496Y-107545087D01*
X158447369Y-107544443D01*
X158360529Y-107552346D01*
X158248342Y-107562555D01*
X158248339Y-107562556D01*
X158242203Y-107563114D01*
X158044572Y-107621280D01*
X157862002Y-107716726D01*
X157857201Y-107720586D01*
X157857198Y-107720588D01*
X157714138Y-107835611D01*
X157701447Y-107845815D01*
X157569024Y-108003630D01*
X157566056Y-108009028D01*
X157566053Y-108009033D01*
X157485190Y-108156124D01*
X157469776Y-108184162D01*
X157407484Y-108380532D01*
X157406798Y-108386649D01*
X157406797Y-108386653D01*
X157388186Y-108552576D01*
X157384520Y-108585262D01*
X156954138Y-108585262D01*
X156935480Y-108394970D01*
X156875935Y-108197749D01*
X156779218Y-108015849D01*
X156703206Y-107922649D01*
X156652906Y-107860975D01*
X156652903Y-107860972D01*
X156649011Y-107856200D01*
X156631786Y-107841950D01*
X156495025Y-107728811D01*
X156495021Y-107728809D01*
X156490275Y-107724882D01*
X156309055Y-107626897D01*
X156112254Y-107565977D01*
X156106129Y-107565333D01*
X156106128Y-107565333D01*
X155913498Y-107545087D01*
X155913496Y-107545087D01*
X155907369Y-107544443D01*
X155820529Y-107552346D01*
X155708342Y-107562555D01*
X155708339Y-107562556D01*
X155702203Y-107563114D01*
X155504572Y-107621280D01*
X155322002Y-107716726D01*
X155317201Y-107720586D01*
X155317198Y-107720588D01*
X155174138Y-107835611D01*
X155161447Y-107845815D01*
X155029024Y-108003630D01*
X155026056Y-108009028D01*
X155026053Y-108009033D01*
X154945190Y-108156124D01*
X154929776Y-108184162D01*
X154867484Y-108380532D01*
X154866798Y-108386649D01*
X154866797Y-108386653D01*
X154848186Y-108552576D01*
X154844520Y-108585262D01*
X154414138Y-108585262D01*
X154395480Y-108394970D01*
X154335935Y-108197749D01*
X154239218Y-108015849D01*
X154163206Y-107922649D01*
X154112906Y-107860975D01*
X154112903Y-107860972D01*
X154109011Y-107856200D01*
X154091786Y-107841950D01*
X153955025Y-107728811D01*
X153955021Y-107728809D01*
X153950275Y-107724882D01*
X153769055Y-107626897D01*
X153572254Y-107565977D01*
X153566129Y-107565333D01*
X153566128Y-107565333D01*
X153373498Y-107545087D01*
X153373496Y-107545087D01*
X153367369Y-107544443D01*
X153280529Y-107552346D01*
X153168342Y-107562555D01*
X153168339Y-107562556D01*
X153162203Y-107563114D01*
X152964572Y-107621280D01*
X152782002Y-107716726D01*
X152777201Y-107720586D01*
X152777198Y-107720588D01*
X152634138Y-107835611D01*
X152621447Y-107845815D01*
X152489024Y-108003630D01*
X152486056Y-108009028D01*
X152486053Y-108009033D01*
X152405190Y-108156124D01*
X152389776Y-108184162D01*
X152327484Y-108380532D01*
X152326798Y-108386649D01*
X152326797Y-108386653D01*
X152308186Y-108552576D01*
X152304520Y-108585262D01*
X151874138Y-108585262D01*
X151855480Y-108394970D01*
X151795935Y-108197749D01*
X151699218Y-108015849D01*
X151623206Y-107922649D01*
X151572906Y-107860975D01*
X151572903Y-107860972D01*
X151569011Y-107856200D01*
X151551786Y-107841950D01*
X151415025Y-107728811D01*
X151415021Y-107728809D01*
X151410275Y-107724882D01*
X151229055Y-107626897D01*
X151032254Y-107565977D01*
X151026129Y-107565333D01*
X151026128Y-107565333D01*
X150833498Y-107545087D01*
X150833496Y-107545087D01*
X150827369Y-107544443D01*
X150740529Y-107552346D01*
X150628342Y-107562555D01*
X150628339Y-107562556D01*
X150622203Y-107563114D01*
X150424572Y-107621280D01*
X150242002Y-107716726D01*
X150237201Y-107720586D01*
X150237198Y-107720588D01*
X150094138Y-107835611D01*
X150081447Y-107845815D01*
X149949024Y-108003630D01*
X149946056Y-108009028D01*
X149946053Y-108009033D01*
X149865190Y-108156124D01*
X149849776Y-108184162D01*
X149787484Y-108380532D01*
X149786798Y-108386649D01*
X149786797Y-108386653D01*
X149768186Y-108552576D01*
X149764520Y-108585262D01*
X149330500Y-108585262D01*
X149330500Y-107730252D01*
X149318867Y-107671769D01*
X149274552Y-107605448D01*
X149208231Y-107561133D01*
X149196062Y-107558712D01*
X149196061Y-107558712D01*
X149155816Y-107550707D01*
X149149748Y-107549500D01*
X147410252Y-107549500D01*
X147404184Y-107550707D01*
X147363939Y-107558712D01*
X147363938Y-107558712D01*
X147351769Y-107561133D01*
X147285448Y-107605448D01*
X147241133Y-107671769D01*
X147229500Y-107730252D01*
X147229500Y-109469748D01*
X142847353Y-109469748D01*
X142965003Y-109306020D01*
X142970313Y-109297183D01*
X143064670Y-109106267D01*
X143068469Y-109096672D01*
X143130377Y-108892910D01*
X143132555Y-108882837D01*
X143133986Y-108871962D01*
X143131775Y-108857778D01*
X143118617Y-108854000D01*
X142072115Y-108854000D01*
X142056876Y-108858475D01*
X142055671Y-108859865D01*
X142054000Y-108867548D01*
X142054000Y-109918517D01*
X141546000Y-109918517D01*
X141546000Y-108327885D01*
X142054000Y-108327885D01*
X142058475Y-108343124D01*
X142059865Y-108344329D01*
X142067548Y-108346000D01*
X143118344Y-108346000D01*
X143131875Y-108342027D01*
X143133180Y-108332947D01*
X143091214Y-108165875D01*
X143087894Y-108156124D01*
X143002972Y-107960814D01*
X142998105Y-107951739D01*
X142882426Y-107772926D01*
X142876136Y-107764757D01*
X142732806Y-107607240D01*
X142725273Y-107600215D01*
X142558139Y-107468222D01*
X142549552Y-107462517D01*
X142363117Y-107359599D01*
X142353705Y-107355369D01*
X142152959Y-107284280D01*
X142142988Y-107281646D01*
X142071837Y-107268972D01*
X142058540Y-107270432D01*
X142054000Y-107284989D01*
X142054000Y-108327885D01*
X141546000Y-108327885D01*
X141546000Y-107283102D01*
X141542082Y-107269758D01*
X141527806Y-107267771D01*
X141489324Y-107273660D01*
X141479288Y-107276051D01*
X141276868Y-107342212D01*
X141267359Y-107346209D01*
X141078463Y-107444542D01*
X141069738Y-107450036D01*
X140899433Y-107577905D01*
X140891726Y-107584748D01*
X140744590Y-107738717D01*
X140738104Y-107746727D01*
X140618098Y-107922649D01*
X140613000Y-107931623D01*
X140550788Y-108065647D01*
X140503964Y-108119014D01*
X140435720Y-108138595D01*
X140367725Y-108118171D01*
X140321565Y-108064229D01*
X140310500Y-108012597D01*
X140310500Y-107730252D01*
X140298867Y-107671769D01*
X140254552Y-107605448D01*
X140188231Y-107561133D01*
X140176062Y-107558712D01*
X140176061Y-107558712D01*
X140135816Y-107550707D01*
X140129748Y-107549500D01*
X138390252Y-107549500D01*
X138384184Y-107550707D01*
X138343939Y-107558712D01*
X138343938Y-107558712D01*
X138331769Y-107561133D01*
X138265448Y-107605448D01*
X138221133Y-107671769D01*
X138209500Y-107730252D01*
X138209500Y-109469748D01*
X135354571Y-109469748D01*
X135419958Y-109308720D01*
X135423245Y-109297183D01*
X135480361Y-109096672D01*
X135520865Y-108954482D01*
X135533112Y-108882837D01*
X135582353Y-108594765D01*
X135582353Y-108594763D01*
X135582925Y-108591418D01*
X135583677Y-108579137D01*
X135605301Y-108225572D01*
X135605411Y-108223775D01*
X135605450Y-108212700D01*
X135605488Y-108201820D01*
X135605488Y-108201808D01*
X135605494Y-108200000D01*
X135585575Y-107832209D01*
X135526052Y-107468720D01*
X135427620Y-107113786D01*
X135424443Y-107105801D01*
X135292690Y-106774722D01*
X135291431Y-106771558D01*
X135261358Y-106714760D01*
X135120677Y-106449060D01*
X135120673Y-106449053D01*
X135119078Y-106446041D01*
X134912578Y-106141041D01*
X134674346Y-105860128D01*
X134407168Y-105606586D01*
X134114172Y-105383382D01*
X134111260Y-105381625D01*
X134111255Y-105381622D01*
X133801705Y-105194889D01*
X133801696Y-105194884D01*
X133798783Y-105193127D01*
X133795693Y-105191693D01*
X133795688Y-105191690D01*
X133631737Y-105115587D01*
X133464691Y-105038047D01*
X133461466Y-105036955D01*
X133461460Y-105036953D01*
X133119032Y-104921048D01*
X133119027Y-104921047D01*
X133115805Y-104919956D01*
X132881920Y-104868104D01*
X132759536Y-104840972D01*
X132759532Y-104840971D01*
X132756206Y-104840234D01*
X132606624Y-104823720D01*
X132393482Y-104800189D01*
X132393475Y-104800189D01*
X132390100Y-104799816D01*
X132386701Y-104799810D01*
X132386700Y-104799810D01*
X132212980Y-104799507D01*
X132021770Y-104799173D01*
X131884556Y-104813837D01*
X131658910Y-104837951D01*
X131658904Y-104837952D01*
X131655526Y-104838313D01*
X131295650Y-104916779D01*
X130946354Y-105033652D01*
X130943261Y-105035075D01*
X130943260Y-105035075D01*
X130933674Y-105039484D01*
X130611723Y-105187565D01*
X130608789Y-105189321D01*
X130608787Y-105189322D01*
X130514763Y-105245594D01*
X130295672Y-105376718D01*
X130001898Y-105598897D01*
X129733837Y-105851505D01*
X129494626Y-106131585D01*
X129492698Y-106134412D01*
X129492696Y-106134414D01*
X129486251Y-106143862D01*
X129287062Y-106435862D01*
X129113574Y-106760776D01*
X129112299Y-106763948D01*
X129112297Y-106763952D01*
X129043407Y-106935323D01*
X128999441Y-106991068D01*
X128932316Y-107014193D01*
X128863344Y-106997356D01*
X128814425Y-106945904D01*
X128800500Y-106888327D01*
X128800500Y-104200000D01*
X169394508Y-104200000D01*
X169414354Y-104325304D01*
X169471950Y-104438342D01*
X169561658Y-104528050D01*
X169674696Y-104585646D01*
X169684485Y-104587196D01*
X169684487Y-104587197D01*
X169790207Y-104603941D01*
X169800000Y-104605492D01*
X169809793Y-104603941D01*
X169915513Y-104587197D01*
X169915515Y-104587196D01*
X169925304Y-104585646D01*
X170038342Y-104528050D01*
X170128050Y-104438342D01*
X170185646Y-104325304D01*
X170187198Y-104315508D01*
X170188770Y-104305586D01*
X170224123Y-104236204D01*
X170416222Y-104044105D01*
X170424326Y-104036678D01*
X170444749Y-104019541D01*
X170453194Y-104012455D01*
X170472039Y-103979815D01*
X170477943Y-103970547D01*
X170493231Y-103948713D01*
X170499553Y-103939684D01*
X170502406Y-103929038D01*
X170503883Y-103925870D01*
X170505076Y-103922593D01*
X170510588Y-103913045D01*
X170517132Y-103875931D01*
X170519512Y-103865196D01*
X170526410Y-103839454D01*
X170529263Y-103828807D01*
X170527726Y-103811230D01*
X170525979Y-103791269D01*
X170525500Y-103780288D01*
X170525500Y-99651500D01*
X170545502Y-99583379D01*
X170599158Y-99536886D01*
X170651500Y-99525500D01*
X171380290Y-99525500D01*
X171391272Y-99525980D01*
X171417820Y-99528303D01*
X171417822Y-99528303D01*
X171428807Y-99529264D01*
X171465215Y-99519508D01*
X171475942Y-99517130D01*
X171479301Y-99516538D01*
X171513045Y-99510588D01*
X171522590Y-99505077D01*
X171525866Y-99503885D01*
X171529034Y-99502408D01*
X171539684Y-99499554D01*
X171570544Y-99477945D01*
X171579815Y-99472039D01*
X171602910Y-99458705D01*
X171602911Y-99458704D01*
X171612455Y-99453194D01*
X171636685Y-99424319D01*
X171644110Y-99416217D01*
X172816222Y-98244105D01*
X172824326Y-98236678D01*
X172844750Y-98219540D01*
X172853194Y-98212455D01*
X172858704Y-98202912D01*
X172858707Y-98202908D01*
X172872036Y-98179821D01*
X172877941Y-98170551D01*
X172893232Y-98148713D01*
X172899554Y-98139684D01*
X172902407Y-98129036D01*
X172903886Y-98125865D01*
X172905078Y-98122589D01*
X172910588Y-98113045D01*
X172917134Y-98075924D01*
X172919508Y-98065217D01*
X172929263Y-98028807D01*
X172925979Y-97991269D01*
X172925500Y-97980288D01*
X172925500Y-94473597D01*
X172939233Y-94416394D01*
X172940363Y-94414176D01*
X172985646Y-94325304D01*
X173005492Y-94200000D01*
X172994809Y-94132550D01*
X172987197Y-94084487D01*
X172987196Y-94084485D01*
X172985646Y-94074696D01*
X172928050Y-93961658D01*
X172838342Y-93871950D01*
X172725304Y-93814354D01*
X172715515Y-93812804D01*
X172715513Y-93812803D01*
X172609793Y-93796059D01*
X172600000Y-93794508D01*
X172590207Y-93796059D01*
X172484487Y-93812803D01*
X172484485Y-93812804D01*
X172474696Y-93814354D01*
X172361658Y-93871950D01*
X172271950Y-93961658D01*
X172214354Y-94074696D01*
X172212804Y-94084485D01*
X172212803Y-94084487D01*
X172205191Y-94132550D01*
X172194508Y-94200000D01*
X172214354Y-94325304D01*
X172259637Y-94414176D01*
X172260767Y-94416394D01*
X172274500Y-94473597D01*
X172274500Y-97812983D01*
X172254498Y-97881104D01*
X172237600Y-97902073D01*
X171302078Y-98837596D01*
X171239767Y-98871620D01*
X171212984Y-98874500D01*
X170473597Y-98874500D01*
X170416394Y-98860767D01*
X170325304Y-98814354D01*
X170315515Y-98812804D01*
X170315513Y-98812803D01*
X170209793Y-98796059D01*
X170200000Y-98794508D01*
X170190207Y-98796059D01*
X170084487Y-98812803D01*
X170084485Y-98812804D01*
X170074696Y-98814354D01*
X169961658Y-98871950D01*
X169871950Y-98961658D01*
X169814354Y-99074696D01*
X169794508Y-99200000D01*
X169814354Y-99325304D01*
X169818855Y-99334137D01*
X169860767Y-99416394D01*
X169874500Y-99473597D01*
X169874500Y-103612983D01*
X169854498Y-103681104D01*
X169837595Y-103702078D01*
X169763796Y-103775877D01*
X169694414Y-103811230D01*
X169684492Y-103812802D01*
X169684489Y-103812803D01*
X169674696Y-103814354D01*
X169561658Y-103871950D01*
X169471950Y-103961658D01*
X169414354Y-104074696D01*
X169394508Y-104200000D01*
X128800500Y-104200000D01*
X128800500Y-96400000D01*
X146394508Y-96400000D01*
X146396059Y-96409793D01*
X146403990Y-96459865D01*
X146414354Y-96525304D01*
X146471950Y-96638342D01*
X146561658Y-96728050D01*
X146674696Y-96785646D01*
X146684485Y-96787196D01*
X146684487Y-96787197D01*
X146790207Y-96803941D01*
X146800000Y-96805492D01*
X146809793Y-96803941D01*
X146915513Y-96787197D01*
X146915515Y-96787196D01*
X146925304Y-96785646D01*
X147038342Y-96728050D01*
X147128050Y-96638342D01*
X147185646Y-96525304D01*
X147196011Y-96459865D01*
X147203941Y-96409793D01*
X147205492Y-96400000D01*
X147794508Y-96400000D01*
X147796059Y-96409793D01*
X147803990Y-96459865D01*
X147814354Y-96525304D01*
X147871950Y-96638342D01*
X147961658Y-96728050D01*
X148074696Y-96785646D01*
X148084485Y-96787196D01*
X148084487Y-96787197D01*
X148190207Y-96803941D01*
X148200000Y-96805492D01*
X148209793Y-96803941D01*
X148315513Y-96787197D01*
X148315515Y-96787196D01*
X148325304Y-96785646D01*
X148438342Y-96728050D01*
X148528050Y-96638342D01*
X148585646Y-96525304D01*
X148596011Y-96459865D01*
X148603941Y-96409793D01*
X148605492Y-96400000D01*
X148994508Y-96400000D01*
X148996059Y-96409793D01*
X149003990Y-96459865D01*
X149014354Y-96525304D01*
X149071950Y-96638342D01*
X149161658Y-96728050D01*
X149274696Y-96785646D01*
X149284485Y-96787196D01*
X149284487Y-96787197D01*
X149390207Y-96803941D01*
X149400000Y-96805492D01*
X149409793Y-96803941D01*
X149515513Y-96787197D01*
X149515515Y-96787196D01*
X149525304Y-96785646D01*
X149638342Y-96728050D01*
X149728050Y-96638342D01*
X149760834Y-96574001D01*
X167994318Y-96574001D01*
X168014956Y-96730763D01*
X168075464Y-96876842D01*
X168171718Y-97002283D01*
X168297159Y-97098537D01*
X168443238Y-97159045D01*
X168600000Y-97179683D01*
X168608188Y-97178605D01*
X168748574Y-97160123D01*
X168756762Y-97159045D01*
X168902841Y-97098537D01*
X169028282Y-97002283D01*
X169124536Y-96876842D01*
X169185044Y-96730763D01*
X169205682Y-96574001D01*
X169185044Y-96417239D01*
X169124536Y-96271160D01*
X169028282Y-96145719D01*
X168974796Y-96104678D01*
X168932929Y-96047340D01*
X168925500Y-96004715D01*
X168925500Y-91387016D01*
X168945502Y-91318895D01*
X168962405Y-91297921D01*
X172627617Y-87632709D01*
X172689929Y-87598683D01*
X172733157Y-87596882D01*
X172800000Y-87605682D01*
X172808188Y-87604604D01*
X172808190Y-87604604D01*
X172816622Y-87603494D01*
X172886771Y-87614434D01*
X172939869Y-87661563D01*
X172959058Y-87729917D01*
X172938246Y-87797794D01*
X172922162Y-87817511D01*
X170983784Y-89755890D01*
X170975681Y-89763316D01*
X170946806Y-89787545D01*
X170941293Y-89797094D01*
X170927961Y-89820185D01*
X170922055Y-89829456D01*
X170900446Y-89860316D01*
X170897592Y-89870966D01*
X170896115Y-89874134D01*
X170894923Y-89877410D01*
X170889412Y-89886955D01*
X170883702Y-89919342D01*
X170882870Y-89924058D01*
X170880492Y-89934785D01*
X170870736Y-89971193D01*
X170871697Y-89982178D01*
X170871697Y-89982180D01*
X170874020Y-90008728D01*
X170874500Y-90019710D01*
X170874500Y-96004715D01*
X170854498Y-96072836D01*
X170825204Y-96104678D01*
X170771718Y-96145719D01*
X170675464Y-96271160D01*
X170614956Y-96417239D01*
X170594318Y-96574001D01*
X170614956Y-96730763D01*
X170675464Y-96876842D01*
X170771718Y-97002283D01*
X170897159Y-97098537D01*
X171043238Y-97159045D01*
X171200000Y-97179683D01*
X171208188Y-97178605D01*
X171348574Y-97160123D01*
X171356762Y-97159045D01*
X171502841Y-97098537D01*
X171628282Y-97002283D01*
X171724536Y-96876842D01*
X171785044Y-96730763D01*
X171805682Y-96574001D01*
X171785044Y-96417239D01*
X171724536Y-96271160D01*
X171628282Y-96145719D01*
X171574796Y-96104678D01*
X171532929Y-96047340D01*
X171525500Y-96004715D01*
X171525500Y-90400000D01*
X174994318Y-90400000D01*
X175014956Y-90556762D01*
X175075464Y-90702841D01*
X175171718Y-90828282D01*
X175178264Y-90833305D01*
X175266911Y-90901326D01*
X175308778Y-90958664D01*
X175313000Y-91029535D01*
X175290171Y-91077991D01*
X175280493Y-91090604D01*
X175280491Y-91090608D01*
X175275464Y-91097159D01*
X175214956Y-91243238D01*
X175213878Y-91251426D01*
X175212353Y-91263010D01*
X175194318Y-91400000D01*
X175197688Y-91425595D01*
X175209660Y-91516531D01*
X175214956Y-91556762D01*
X175275464Y-91702841D01*
X175371718Y-91828282D01*
X175497159Y-91924536D01*
X175643238Y-91985044D01*
X175800000Y-92005682D01*
X175808188Y-92004604D01*
X175948574Y-91986122D01*
X175956762Y-91985044D01*
X176102841Y-91924536D01*
X176228282Y-91828282D01*
X176324536Y-91702841D01*
X176385044Y-91556762D01*
X176390341Y-91516531D01*
X176402312Y-91425595D01*
X176405682Y-91400000D01*
X176396882Y-91333157D01*
X176407821Y-91263010D01*
X176432709Y-91227617D01*
X177871905Y-89788421D01*
X177934217Y-89754395D01*
X178005032Y-89759460D01*
X178061868Y-89802007D01*
X178086679Y-89868527D01*
X178087000Y-89877516D01*
X178087001Y-90090608D01*
X178087001Y-90289832D01*
X178089899Y-90320500D01*
X178092444Y-90327748D01*
X178092445Y-90327751D01*
X178121042Y-90409181D01*
X178133539Y-90444768D01*
X178139134Y-90452343D01*
X178139135Y-90452345D01*
X178163900Y-90485874D01*
X178211789Y-90550711D01*
X178219360Y-90556303D01*
X178310155Y-90623365D01*
X178310157Y-90623366D01*
X178317732Y-90628961D01*
X178326622Y-90632083D01*
X178365249Y-90645648D01*
X178422894Y-90687091D01*
X178448982Y-90753121D01*
X178449500Y-90764530D01*
X178449500Y-91555290D01*
X178449020Y-91566272D01*
X178445736Y-91603807D01*
X178455491Y-91640210D01*
X178457870Y-91650942D01*
X178464412Y-91688045D01*
X178469923Y-91697590D01*
X178471115Y-91700866D01*
X178472592Y-91704034D01*
X178475446Y-91714684D01*
X178491287Y-91737306D01*
X178497055Y-91745544D01*
X178502961Y-91754815D01*
X178516293Y-91777906D01*
X178521806Y-91787455D01*
X178535436Y-91798892D01*
X178550682Y-91811685D01*
X178558785Y-91819111D01*
X179955889Y-93216215D01*
X179963316Y-93224319D01*
X179987545Y-93253194D01*
X179997094Y-93258707D01*
X180020185Y-93272039D01*
X180029456Y-93277945D01*
X180060316Y-93299554D01*
X180070966Y-93302408D01*
X180074134Y-93303885D01*
X180077410Y-93305077D01*
X180086955Y-93310588D01*
X180120699Y-93316538D01*
X180124058Y-93317130D01*
X180134785Y-93319508D01*
X180171193Y-93329264D01*
X180182169Y-93328304D01*
X180182172Y-93328304D01*
X180208743Y-93325979D01*
X180219724Y-93325500D01*
X181126403Y-93325500D01*
X181183606Y-93339233D01*
X181274696Y-93385646D01*
X181284485Y-93387196D01*
X181284487Y-93387197D01*
X181390207Y-93403941D01*
X181400000Y-93405492D01*
X181409793Y-93403941D01*
X181515513Y-93387197D01*
X181515515Y-93387196D01*
X181525304Y-93385646D01*
X181638342Y-93328050D01*
X181728050Y-93238342D01*
X181785646Y-93125304D01*
X181787441Y-93113975D01*
X181803941Y-93009793D01*
X181805492Y-93000000D01*
X181801384Y-92974062D01*
X181787197Y-92884487D01*
X181787196Y-92884485D01*
X181785646Y-92874696D01*
X181728050Y-92761658D01*
X181638342Y-92671950D01*
X181525304Y-92614354D01*
X181515515Y-92612804D01*
X181515513Y-92612803D01*
X181409793Y-92596059D01*
X181400000Y-92594508D01*
X181390207Y-92596059D01*
X181284487Y-92612803D01*
X181284485Y-92612804D01*
X181274696Y-92614354D01*
X181183606Y-92660767D01*
X181126403Y-92674500D01*
X180387016Y-92674500D01*
X180318895Y-92654498D01*
X180297921Y-92637595D01*
X179137405Y-91477079D01*
X179103379Y-91414767D01*
X179100500Y-91387984D01*
X179100500Y-90764530D01*
X179120502Y-90696409D01*
X179174158Y-90649916D01*
X179184751Y-90645648D01*
X179223378Y-90632083D01*
X179232268Y-90628961D01*
X179239843Y-90623366D01*
X179239845Y-90623365D01*
X179330640Y-90556303D01*
X179338211Y-90550711D01*
X179386100Y-90485874D01*
X179410865Y-90452345D01*
X179410866Y-90452343D01*
X179416461Y-90444768D01*
X179428959Y-90409181D01*
X179457556Y-90327748D01*
X179457557Y-90327746D01*
X179460101Y-90320500D01*
X179463000Y-90289833D01*
X179462999Y-89710168D01*
X179460101Y-89679500D01*
X179457555Y-89672249D01*
X179419583Y-89564121D01*
X179419582Y-89564119D01*
X179416461Y-89555232D01*
X179416397Y-89555145D01*
X179403181Y-89490399D01*
X179428844Y-89424203D01*
X179486221Y-89382390D01*
X179528734Y-89375001D01*
X179846266Y-89375001D01*
X179914387Y-89395003D01*
X179960880Y-89448659D01*
X179970984Y-89518933D01*
X179959651Y-89553727D01*
X179958539Y-89555232D01*
X179955418Y-89564119D01*
X179955417Y-89564121D01*
X179917445Y-89672249D01*
X179914899Y-89679500D01*
X179912000Y-89710167D01*
X179912001Y-90289832D01*
X179914899Y-90320500D01*
X179917444Y-90327748D01*
X179917445Y-90327751D01*
X179946042Y-90409181D01*
X179958539Y-90444768D01*
X179964134Y-90452343D01*
X179964135Y-90452345D01*
X179988900Y-90485874D01*
X180013282Y-90552553D01*
X179997745Y-90621828D01*
X179947221Y-90671707D01*
X179935771Y-90677140D01*
X179908988Y-90688234D01*
X179783547Y-90784488D01*
X179778524Y-90791034D01*
X179764143Y-90809776D01*
X179687293Y-90909929D01*
X179626785Y-91056008D01*
X179606147Y-91212770D01*
X179626785Y-91369532D01*
X179687293Y-91515611D01*
X179783547Y-91641052D01*
X179908988Y-91737306D01*
X180055067Y-91797814D01*
X180211829Y-91818452D01*
X180220017Y-91817374D01*
X180242957Y-91814354D01*
X180368591Y-91797814D01*
X180514670Y-91737306D01*
X180640111Y-91641052D01*
X180736365Y-91515611D01*
X180796873Y-91369532D01*
X180817511Y-91212770D01*
X180809251Y-91150031D01*
X180820190Y-91079884D01*
X180839867Y-91054435D01*
X180837663Y-91052585D01*
X180844748Y-91044141D01*
X180853194Y-91037054D01*
X180862933Y-91020185D01*
X180872039Y-91004414D01*
X180877945Y-90995143D01*
X180893230Y-90973314D01*
X180899554Y-90964283D01*
X180902408Y-90953633D01*
X180903885Y-90950465D01*
X180905077Y-90947189D01*
X180910588Y-90937644D01*
X180916657Y-90903224D01*
X180917130Y-90900541D01*
X180919509Y-90889809D01*
X180920883Y-90884682D01*
X180929264Y-90853406D01*
X180928157Y-90840745D01*
X180925979Y-90815856D01*
X180925500Y-90804875D01*
X180925500Y-90764530D01*
X180945502Y-90696409D01*
X180999158Y-90649916D01*
X181009751Y-90645648D01*
X181048378Y-90632083D01*
X181057268Y-90628961D01*
X181064843Y-90623366D01*
X181064845Y-90623365D01*
X181155640Y-90556303D01*
X181163211Y-90550711D01*
X181211100Y-90485874D01*
X181235865Y-90452345D01*
X181235866Y-90452343D01*
X181241461Y-90444768D01*
X181253959Y-90409181D01*
X181282556Y-90327748D01*
X181282557Y-90327746D01*
X181285101Y-90320500D01*
X181288000Y-90289833D01*
X181287999Y-89710168D01*
X181285101Y-89679500D01*
X181282555Y-89672249D01*
X181244583Y-89564121D01*
X181244582Y-89564119D01*
X181241461Y-89555232D01*
X181241397Y-89555145D01*
X181228181Y-89490399D01*
X181253844Y-89424203D01*
X181311221Y-89382390D01*
X181353734Y-89375001D01*
X187154884Y-89375001D01*
X187223005Y-89395003D01*
X187269498Y-89448659D01*
X187279602Y-89518933D01*
X187271293Y-89549219D01*
X187265121Y-89564121D01*
X187227255Y-89655537D01*
X187206617Y-89812299D01*
X187207695Y-89820487D01*
X187226134Y-89960544D01*
X187227255Y-89969061D01*
X187230192Y-89976151D01*
X187228507Y-90046859D01*
X187188712Y-90105654D01*
X187123447Y-90133600D01*
X187076225Y-90130223D01*
X187069061Y-90127255D01*
X187060877Y-90126178D01*
X187060875Y-90126177D01*
X186920487Y-90107695D01*
X186912299Y-90106617D01*
X186755537Y-90127255D01*
X186609458Y-90187763D01*
X186484017Y-90284017D01*
X186478994Y-90290563D01*
X186467636Y-90305365D01*
X186387763Y-90409458D01*
X186327255Y-90555537D01*
X186326177Y-90563726D01*
X186307478Y-90705757D01*
X186278755Y-90770685D01*
X186219490Y-90809776D01*
X186199002Y-90814233D01*
X186094804Y-90827951D01*
X186048782Y-90834010D01*
X185902703Y-90894518D01*
X185777262Y-90990772D01*
X185681008Y-91116213D01*
X185620500Y-91262292D01*
X185619422Y-91270481D01*
X185600723Y-91412512D01*
X185572000Y-91477440D01*
X185512735Y-91516531D01*
X185492247Y-91520988D01*
X185388049Y-91534706D01*
X185342027Y-91540765D01*
X185195948Y-91601273D01*
X185070507Y-91697527D01*
X184974253Y-91822968D01*
X184913745Y-91969047D01*
X184893107Y-92125809D01*
X184913745Y-92282571D01*
X184974253Y-92428650D01*
X185070507Y-92554091D01*
X185195948Y-92650345D01*
X185342027Y-92710853D01*
X185498789Y-92731491D01*
X185565632Y-92722691D01*
X185635779Y-92733630D01*
X185671172Y-92758518D01*
X186237595Y-93324941D01*
X186271621Y-93387253D01*
X186274500Y-93414036D01*
X186274500Y-102630714D01*
X186254498Y-102698835D01*
X186225204Y-102730677D01*
X186171718Y-102771718D01*
X186075464Y-102897159D01*
X186014956Y-103043238D01*
X185994318Y-103200000D01*
X186014956Y-103356762D01*
X186075464Y-103502841D01*
X186171718Y-103628282D01*
X186297159Y-103724536D01*
X186443238Y-103785044D01*
X186600000Y-103805682D01*
X186608188Y-103804604D01*
X186748574Y-103786122D01*
X186756762Y-103785044D01*
X186902841Y-103724536D01*
X187028282Y-103628282D01*
X187100037Y-103534769D01*
X187157375Y-103492902D01*
X187228246Y-103488680D01*
X187290149Y-103523444D01*
X187299963Y-103534769D01*
X187371718Y-103628282D01*
X187497159Y-103724536D01*
X187643238Y-103785044D01*
X187800000Y-103805682D01*
X187808188Y-103804604D01*
X187948574Y-103786122D01*
X187956762Y-103785044D01*
X188102841Y-103724536D01*
X188228282Y-103628282D01*
X188324536Y-103502841D01*
X188383591Y-103360270D01*
X188428139Y-103304989D01*
X188495503Y-103282568D01*
X188564294Y-103300126D01*
X188612672Y-103352088D01*
X188616409Y-103360270D01*
X188675464Y-103502841D01*
X188771718Y-103628282D01*
X188897159Y-103724536D01*
X189043238Y-103785044D01*
X189200000Y-103805682D01*
X189208188Y-103804604D01*
X189348574Y-103786122D01*
X189356762Y-103785044D01*
X189502841Y-103724536D01*
X189628282Y-103628282D01*
X189700037Y-103534769D01*
X189757375Y-103492902D01*
X189828246Y-103488680D01*
X189890149Y-103523444D01*
X189899963Y-103534769D01*
X189971718Y-103628282D01*
X190097159Y-103724536D01*
X190243238Y-103785044D01*
X190400000Y-103805682D01*
X190408188Y-103804604D01*
X190548574Y-103786122D01*
X190556762Y-103785044D01*
X190702841Y-103724536D01*
X190828282Y-103628282D01*
X190924536Y-103502841D01*
X190985044Y-103356762D01*
X191005682Y-103200000D01*
X190985044Y-103043238D01*
X190924536Y-102897159D01*
X190828282Y-102771718D01*
X190774796Y-102730677D01*
X190732929Y-102673339D01*
X190725500Y-102630714D01*
X190725500Y-97058109D01*
X204186721Y-97058109D01*
X204191630Y-97064667D01*
X204275150Y-97111344D01*
X204286390Y-97116255D01*
X204459877Y-97172624D01*
X204471851Y-97175257D01*
X204652992Y-97196857D01*
X204665241Y-97197114D01*
X204847125Y-97183119D01*
X204859195Y-97180990D01*
X204902117Y-97169006D01*
X204973108Y-97169953D01*
X205032317Y-97209129D01*
X205060946Y-97274097D01*
X205062001Y-97290365D01*
X205062001Y-97577169D01*
X205062371Y-97583990D01*
X205067895Y-97634852D01*
X205071521Y-97650104D01*
X205116676Y-97770554D01*
X205125214Y-97786149D01*
X205201715Y-97888224D01*
X205214276Y-97900785D01*
X205316351Y-97977286D01*
X205331946Y-97985824D01*
X205452394Y-98030978D01*
X205467649Y-98034605D01*
X205518514Y-98040131D01*
X205525328Y-98040500D01*
X207392885Y-98040500D01*
X207408124Y-98036025D01*
X207409329Y-98034635D01*
X207411000Y-98026952D01*
X207411000Y-96472115D01*
X207406525Y-96456876D01*
X207405135Y-96455671D01*
X207397452Y-96454000D01*
X205373115Y-96454000D01*
X205357876Y-96458475D01*
X205356671Y-96459865D01*
X205355000Y-96467548D01*
X205355000Y-96852000D01*
X205334998Y-96920121D01*
X205281342Y-96966614D01*
X205229000Y-96978000D01*
X205021000Y-96978000D01*
X204952879Y-96957998D01*
X204906386Y-96904342D01*
X204895000Y-96852000D01*
X204895000Y-96362325D01*
X204891763Y-96351300D01*
X204884672Y-96354538D01*
X204193481Y-97045729D01*
X204186721Y-97058109D01*
X190725500Y-97058109D01*
X190725500Y-96192212D01*
X203682808Y-96192212D01*
X203698071Y-96373982D01*
X203700286Y-96386047D01*
X203750565Y-96561391D01*
X203755083Y-96572803D01*
X203812286Y-96684107D01*
X203822007Y-96694328D01*
X203828806Y-96691984D01*
X204307978Y-96212812D01*
X204315592Y-96198868D01*
X204315461Y-96197035D01*
X204311210Y-96190420D01*
X203834166Y-95713376D01*
X203821786Y-95706616D01*
X203815398Y-95711398D01*
X203765854Y-95801516D01*
X203761017Y-95812801D01*
X203705861Y-95986675D01*
X203703313Y-95998664D01*
X203682979Y-96179943D01*
X203682808Y-96192212D01*
X190725500Y-96192212D01*
X190725500Y-95342216D01*
X204185934Y-95342216D01*
X204188389Y-95349179D01*
X204882188Y-96042978D01*
X204892277Y-96048487D01*
X204895000Y-96041186D01*
X204895000Y-95548000D01*
X204915002Y-95479879D01*
X204968658Y-95433386D01*
X205021000Y-95422000D01*
X205229000Y-95422000D01*
X205297121Y-95442002D01*
X205343614Y-95495658D01*
X205355000Y-95548000D01*
X205355000Y-95927885D01*
X205359475Y-95943124D01*
X205360865Y-95944329D01*
X205368548Y-95946000D01*
X207392885Y-95946000D01*
X207408124Y-95941525D01*
X207409329Y-95940135D01*
X207411000Y-95932452D01*
X207411000Y-94377616D01*
X207406525Y-94362377D01*
X207405135Y-94361172D01*
X207397452Y-94359501D01*
X205525331Y-94359501D01*
X205518510Y-94359871D01*
X205467648Y-94365395D01*
X205452396Y-94369021D01*
X205331946Y-94414176D01*
X205316351Y-94422714D01*
X205214276Y-94499215D01*
X205201715Y-94511776D01*
X205125214Y-94613851D01*
X205116676Y-94629446D01*
X205071522Y-94749894D01*
X205067895Y-94765149D01*
X205062369Y-94816014D01*
X205062000Y-94822828D01*
X205062000Y-95107814D01*
X205041998Y-95175935D01*
X204988342Y-95222428D01*
X204918068Y-95232532D01*
X204898742Y-95228179D01*
X204886527Y-95224398D01*
X204874511Y-95221931D01*
X204693094Y-95202863D01*
X204680826Y-95202778D01*
X204499169Y-95219310D01*
X204487120Y-95221608D01*
X204312128Y-95273111D01*
X204300751Y-95277708D01*
X204196083Y-95332427D01*
X204185934Y-95342216D01*
X190725500Y-95342216D01*
X190725500Y-92419710D01*
X190725980Y-92408728D01*
X190728303Y-92382180D01*
X190728303Y-92382178D01*
X190729264Y-92371193D01*
X190719508Y-92334785D01*
X190717130Y-92324058D01*
X190712569Y-92298192D01*
X190710588Y-92286955D01*
X190705077Y-92277410D01*
X190703885Y-92274134D01*
X190702408Y-92270966D01*
X190699554Y-92260316D01*
X190677945Y-92229456D01*
X190672039Y-92220185D01*
X190658707Y-92197094D01*
X190653194Y-92187545D01*
X190624317Y-92163315D01*
X190616215Y-92155889D01*
X188533435Y-90073109D01*
X204186721Y-90073109D01*
X204191630Y-90079667D01*
X204275150Y-90126344D01*
X204286390Y-90131255D01*
X204459877Y-90187624D01*
X204471851Y-90190257D01*
X204652992Y-90211857D01*
X204665241Y-90212114D01*
X204847125Y-90198119D01*
X204859195Y-90195990D01*
X204902117Y-90184006D01*
X204973108Y-90184953D01*
X205032317Y-90224129D01*
X205060946Y-90289097D01*
X205062001Y-90305365D01*
X205062001Y-90592169D01*
X205062371Y-90598990D01*
X205067895Y-90649852D01*
X205071521Y-90665104D01*
X205116676Y-90785554D01*
X205125214Y-90801149D01*
X205201715Y-90903224D01*
X205214276Y-90915785D01*
X205316351Y-90992286D01*
X205331946Y-91000824D01*
X205452394Y-91045978D01*
X205467649Y-91049605D01*
X205518514Y-91055131D01*
X205525328Y-91055500D01*
X207392885Y-91055500D01*
X207408124Y-91051025D01*
X207409329Y-91049635D01*
X207411000Y-91041952D01*
X207411000Y-89487115D01*
X207406525Y-89471876D01*
X207405135Y-89470671D01*
X207397452Y-89469000D01*
X205373115Y-89469000D01*
X205357876Y-89473475D01*
X205356671Y-89474865D01*
X205355000Y-89482548D01*
X205355000Y-89867000D01*
X205334998Y-89935121D01*
X205281342Y-89981614D01*
X205229000Y-89993000D01*
X205021000Y-89993000D01*
X204952879Y-89972998D01*
X204906386Y-89919342D01*
X204895000Y-89867000D01*
X204895000Y-89377325D01*
X204891763Y-89366300D01*
X204884672Y-89369538D01*
X204193481Y-90060729D01*
X204186721Y-90073109D01*
X188533435Y-90073109D01*
X188445008Y-89984682D01*
X188410982Y-89922370D01*
X188409181Y-89879141D01*
X188410579Y-89868527D01*
X188417981Y-89812299D01*
X188397343Y-89655537D01*
X188336835Y-89509458D01*
X188240581Y-89384017D01*
X188115140Y-89287763D01*
X188107511Y-89284603D01*
X188107506Y-89284600D01*
X188064512Y-89266791D01*
X188009231Y-89222243D01*
X188004228Y-89207212D01*
X203682808Y-89207212D01*
X203698071Y-89388982D01*
X203700286Y-89401047D01*
X203750565Y-89576391D01*
X203755083Y-89587803D01*
X203812286Y-89699107D01*
X203822007Y-89709328D01*
X203828806Y-89706984D01*
X204307978Y-89227812D01*
X204315592Y-89213868D01*
X204315461Y-89212035D01*
X204311210Y-89205420D01*
X203834166Y-88728376D01*
X203821786Y-88721616D01*
X203815398Y-88726398D01*
X203765854Y-88816516D01*
X203761017Y-88827801D01*
X203705861Y-89001675D01*
X203703313Y-89013664D01*
X203682979Y-89194943D01*
X203682808Y-89207212D01*
X188004228Y-89207212D01*
X187986811Y-89154879D01*
X188004370Y-89086088D01*
X188023636Y-89061288D01*
X188661012Y-88423912D01*
X188723324Y-88389886D01*
X188733658Y-88388086D01*
X188756762Y-88385044D01*
X188823945Y-88357216D01*
X204185934Y-88357216D01*
X204188389Y-88364179D01*
X204882188Y-89057978D01*
X204892277Y-89063487D01*
X204895000Y-89056186D01*
X204895000Y-88563000D01*
X204915002Y-88494879D01*
X204968658Y-88448386D01*
X205021000Y-88437000D01*
X205229000Y-88437000D01*
X205297121Y-88457002D01*
X205343614Y-88510658D01*
X205355000Y-88563000D01*
X205355000Y-88942885D01*
X205359475Y-88958124D01*
X205360865Y-88959329D01*
X205368548Y-88961000D01*
X207392885Y-88961000D01*
X207408124Y-88956525D01*
X207409329Y-88955135D01*
X207411000Y-88947452D01*
X207411000Y-87392616D01*
X207406525Y-87377377D01*
X207405135Y-87376172D01*
X207397452Y-87374501D01*
X205525331Y-87374501D01*
X205518510Y-87374871D01*
X205467648Y-87380395D01*
X205452396Y-87384021D01*
X205331946Y-87429176D01*
X205316351Y-87437714D01*
X205214276Y-87514215D01*
X205201715Y-87526776D01*
X205125214Y-87628851D01*
X205116676Y-87644446D01*
X205071522Y-87764894D01*
X205067895Y-87780149D01*
X205062369Y-87831014D01*
X205062000Y-87837828D01*
X205062000Y-88122814D01*
X205041998Y-88190935D01*
X204988342Y-88237428D01*
X204918068Y-88247532D01*
X204898742Y-88243179D01*
X204886527Y-88239398D01*
X204874511Y-88236931D01*
X204693094Y-88217863D01*
X204680826Y-88217778D01*
X204499169Y-88234310D01*
X204487120Y-88236608D01*
X204312128Y-88288111D01*
X204300751Y-88292708D01*
X204196083Y-88347427D01*
X204185934Y-88357216D01*
X188823945Y-88357216D01*
X188902841Y-88324536D01*
X189028282Y-88228282D01*
X189124536Y-88102841D01*
X189185044Y-87956762D01*
X189189198Y-87925213D01*
X189204604Y-87808188D01*
X189205682Y-87800000D01*
X189185044Y-87643238D01*
X189124536Y-87497159D01*
X189056059Y-87407918D01*
X189033305Y-87378264D01*
X189028282Y-87371718D01*
X188902841Y-87275464D01*
X188756762Y-87214956D01*
X188600000Y-87194318D01*
X188443238Y-87214956D01*
X188297159Y-87275464D01*
X188171718Y-87371718D01*
X188166695Y-87378264D01*
X188143941Y-87407918D01*
X188075464Y-87497159D01*
X188014956Y-87643238D01*
X188011130Y-87672304D01*
X188010952Y-87673653D01*
X187982231Y-87738581D01*
X187922966Y-87777674D01*
X187851975Y-87778519D01*
X187809327Y-87757172D01*
X187709396Y-87680493D01*
X187709392Y-87680491D01*
X187702841Y-87675464D01*
X187556762Y-87614956D01*
X187508195Y-87608562D01*
X187440789Y-87599688D01*
X187400000Y-87594318D01*
X187359211Y-87599688D01*
X187291806Y-87608562D01*
X187243238Y-87614956D01*
X187097159Y-87675464D01*
X186971718Y-87771718D01*
X186966695Y-87778264D01*
X186930677Y-87825204D01*
X186873339Y-87867071D01*
X186830714Y-87874500D01*
X184984000Y-87874500D01*
X184915879Y-87854498D01*
X184869386Y-87800842D01*
X184858000Y-87748500D01*
X184858000Y-87674623D01*
X184859226Y-87657087D01*
X184861948Y-87637722D01*
X184862554Y-87629838D01*
X184862741Y-87616462D01*
X184862354Y-87608562D01*
X184858785Y-87576741D01*
X184858000Y-87562696D01*
X184858000Y-86574623D01*
X184859226Y-86557087D01*
X184861948Y-86537721D01*
X184862554Y-86529838D01*
X184862741Y-86516462D01*
X184862354Y-86508562D01*
X184858785Y-86476740D01*
X184858000Y-86462695D01*
X184858000Y-85474624D01*
X184859226Y-85457089D01*
X184861948Y-85437723D01*
X184862554Y-85429838D01*
X184862741Y-85416447D01*
X184862356Y-85408576D01*
X184858785Y-85376738D01*
X184858000Y-85362694D01*
X184858000Y-85134615D01*
X184853525Y-85119376D01*
X184852135Y-85118171D01*
X184844452Y-85116500D01*
X184767668Y-85116500D01*
X184742023Y-85124030D01*
X184466365Y-85399688D01*
X184458751Y-85413632D01*
X184458882Y-85415465D01*
X184463133Y-85422080D01*
X184751952Y-85710899D01*
X184785978Y-85773211D01*
X184780913Y-85844026D01*
X184751952Y-85889089D01*
X184691352Y-85949689D01*
X184683740Y-85963630D01*
X184683871Y-85965466D01*
X184688123Y-85972082D01*
X184751952Y-86035911D01*
X184785978Y-86098223D01*
X184780913Y-86169038D01*
X184751952Y-86214101D01*
X184466365Y-86499688D01*
X184458751Y-86513632D01*
X184458882Y-86515465D01*
X184463133Y-86522080D01*
X184751952Y-86810899D01*
X184785978Y-86873211D01*
X184780913Y-86944026D01*
X184751952Y-86989089D01*
X184691352Y-87049689D01*
X184683740Y-87063630D01*
X184683871Y-87065466D01*
X184688123Y-87072082D01*
X184751952Y-87135911D01*
X184785978Y-87198223D01*
X184780913Y-87269038D01*
X184751952Y-87314101D01*
X184228458Y-87837595D01*
X184166146Y-87871621D01*
X184139363Y-87874500D01*
X183788637Y-87874500D01*
X183720516Y-87854498D01*
X183674023Y-87800842D01*
X183663919Y-87730568D01*
X183693413Y-87665988D01*
X183699542Y-87659405D01*
X183733635Y-87625312D01*
X183741249Y-87611368D01*
X183741118Y-87609535D01*
X183736867Y-87602920D01*
X183562812Y-87428865D01*
X183548868Y-87421251D01*
X183547035Y-87421382D01*
X183540420Y-87425633D01*
X183366365Y-87599688D01*
X183358751Y-87613632D01*
X183358882Y-87615465D01*
X183363133Y-87622080D01*
X183400458Y-87659405D01*
X183434484Y-87721717D01*
X183429419Y-87792532D01*
X183386872Y-87849368D01*
X183320352Y-87874179D01*
X183311363Y-87874500D01*
X182688637Y-87874500D01*
X182620516Y-87854498D01*
X182574023Y-87800842D01*
X182563919Y-87730568D01*
X182593413Y-87665988D01*
X182599542Y-87659405D01*
X182633635Y-87625312D01*
X182641249Y-87611368D01*
X182641118Y-87609535D01*
X182636867Y-87602920D01*
X182462812Y-87428865D01*
X182448868Y-87421251D01*
X182447035Y-87421382D01*
X182440420Y-87425633D01*
X182266365Y-87599688D01*
X182258751Y-87613632D01*
X182258882Y-87615465D01*
X182263133Y-87622080D01*
X182300458Y-87659405D01*
X182334484Y-87721717D01*
X182329419Y-87792532D01*
X182286872Y-87849368D01*
X182220352Y-87874179D01*
X182211363Y-87874500D01*
X181588637Y-87874500D01*
X181520516Y-87854498D01*
X181474023Y-87800842D01*
X181463919Y-87730568D01*
X181493413Y-87665988D01*
X181499542Y-87659405D01*
X181533635Y-87625312D01*
X181541249Y-87611368D01*
X181541118Y-87609535D01*
X181536867Y-87602920D01*
X181362812Y-87428865D01*
X181348868Y-87421251D01*
X181347035Y-87421382D01*
X181340420Y-87425633D01*
X181166365Y-87599688D01*
X181158751Y-87613632D01*
X181158882Y-87615465D01*
X181163133Y-87622080D01*
X181200458Y-87659405D01*
X181234484Y-87721717D01*
X181229419Y-87792532D01*
X181186872Y-87849368D01*
X181120352Y-87874179D01*
X181111363Y-87874500D01*
X180488637Y-87874500D01*
X180420516Y-87854498D01*
X180374023Y-87800842D01*
X180363919Y-87730568D01*
X180393413Y-87665988D01*
X180399542Y-87659405D01*
X180433635Y-87625312D01*
X180441249Y-87611368D01*
X180441118Y-87609535D01*
X180436867Y-87602920D01*
X180262812Y-87428865D01*
X180248868Y-87421251D01*
X180247035Y-87421382D01*
X180240420Y-87425633D01*
X180066365Y-87599688D01*
X180058751Y-87613632D01*
X180058882Y-87615465D01*
X180063133Y-87622080D01*
X180100458Y-87659405D01*
X180134484Y-87721717D01*
X180129419Y-87792532D01*
X180086872Y-87849368D01*
X180020352Y-87874179D01*
X180011363Y-87874500D01*
X179388637Y-87874500D01*
X179320516Y-87854498D01*
X179274023Y-87800842D01*
X179263919Y-87730568D01*
X179293413Y-87665988D01*
X179299542Y-87659405D01*
X179333635Y-87625312D01*
X179341249Y-87611368D01*
X179341118Y-87609535D01*
X179336867Y-87602920D01*
X179162812Y-87428865D01*
X179148868Y-87421251D01*
X179147035Y-87421382D01*
X179140420Y-87425633D01*
X178966365Y-87599688D01*
X178958751Y-87613632D01*
X178958882Y-87615465D01*
X178963133Y-87622080D01*
X179000458Y-87659405D01*
X179034484Y-87721717D01*
X179029419Y-87792532D01*
X178986872Y-87849368D01*
X178920352Y-87874179D01*
X178911363Y-87874500D01*
X178560637Y-87874500D01*
X178492516Y-87854498D01*
X178471542Y-87837595D01*
X177948048Y-87314101D01*
X177914022Y-87251789D01*
X177919087Y-87180974D01*
X177948048Y-87135911D01*
X178008648Y-87075311D01*
X178015025Y-87063632D01*
X178408751Y-87063632D01*
X178408882Y-87065465D01*
X178413133Y-87072080D01*
X178587188Y-87246135D01*
X178601132Y-87253749D01*
X178602965Y-87253618D01*
X178609580Y-87249367D01*
X178783635Y-87075312D01*
X178790013Y-87063632D01*
X179508751Y-87063632D01*
X179508882Y-87065465D01*
X179513133Y-87072080D01*
X179687188Y-87246135D01*
X179701132Y-87253749D01*
X179702965Y-87253618D01*
X179709580Y-87249367D01*
X179883635Y-87075312D01*
X179890013Y-87063632D01*
X180608751Y-87063632D01*
X180608882Y-87065465D01*
X180613133Y-87072080D01*
X180787188Y-87246135D01*
X180801132Y-87253749D01*
X180802965Y-87253618D01*
X180809580Y-87249367D01*
X180983635Y-87075312D01*
X180990013Y-87063632D01*
X181708751Y-87063632D01*
X181708882Y-87065465D01*
X181713133Y-87072080D01*
X181887188Y-87246135D01*
X181901132Y-87253749D01*
X181902965Y-87253618D01*
X181909580Y-87249367D01*
X182083635Y-87075312D01*
X182090013Y-87063632D01*
X182808751Y-87063632D01*
X182808882Y-87065465D01*
X182813133Y-87072080D01*
X182987188Y-87246135D01*
X183001132Y-87253749D01*
X183002965Y-87253618D01*
X183009580Y-87249367D01*
X183183635Y-87075312D01*
X183190013Y-87063632D01*
X183908751Y-87063632D01*
X183908882Y-87065465D01*
X183913133Y-87072080D01*
X184087188Y-87246135D01*
X184101132Y-87253749D01*
X184102965Y-87253618D01*
X184109580Y-87249367D01*
X184283635Y-87075312D01*
X184291249Y-87061368D01*
X184291118Y-87059535D01*
X184286867Y-87052920D01*
X184112812Y-86878865D01*
X184098868Y-86871251D01*
X184097035Y-86871382D01*
X184090420Y-86875633D01*
X183916365Y-87049688D01*
X183908751Y-87063632D01*
X183190013Y-87063632D01*
X183191249Y-87061368D01*
X183191118Y-87059535D01*
X183186867Y-87052920D01*
X183012812Y-86878865D01*
X182998868Y-86871251D01*
X182997035Y-86871382D01*
X182990420Y-86875633D01*
X182816365Y-87049688D01*
X182808751Y-87063632D01*
X182090013Y-87063632D01*
X182091249Y-87061368D01*
X182091118Y-87059535D01*
X182086867Y-87052920D01*
X181912812Y-86878865D01*
X181898868Y-86871251D01*
X181897035Y-86871382D01*
X181890420Y-86875633D01*
X181716365Y-87049688D01*
X181708751Y-87063632D01*
X180990013Y-87063632D01*
X180991249Y-87061368D01*
X180991118Y-87059535D01*
X180986867Y-87052920D01*
X180812812Y-86878865D01*
X180798868Y-86871251D01*
X180797035Y-86871382D01*
X180790420Y-86875633D01*
X180616365Y-87049688D01*
X180608751Y-87063632D01*
X179890013Y-87063632D01*
X179891249Y-87061368D01*
X179891118Y-87059535D01*
X179886867Y-87052920D01*
X179712812Y-86878865D01*
X179698868Y-86871251D01*
X179697035Y-86871382D01*
X179690420Y-86875633D01*
X179516365Y-87049688D01*
X179508751Y-87063632D01*
X178790013Y-87063632D01*
X178791249Y-87061368D01*
X178791118Y-87059535D01*
X178786867Y-87052920D01*
X178612812Y-86878865D01*
X178598868Y-86871251D01*
X178597035Y-86871382D01*
X178590420Y-86875633D01*
X178416365Y-87049688D01*
X178408751Y-87063632D01*
X178015025Y-87063632D01*
X178016260Y-87061370D01*
X178016129Y-87059534D01*
X178011877Y-87052918D01*
X177948048Y-86989089D01*
X177914022Y-86926777D01*
X177919087Y-86855962D01*
X177948048Y-86810899D01*
X178233635Y-86525312D01*
X178240013Y-86513632D01*
X178958751Y-86513632D01*
X178958882Y-86515465D01*
X178963133Y-86522080D01*
X179137188Y-86696135D01*
X179151132Y-86703749D01*
X179152965Y-86703618D01*
X179159580Y-86699367D01*
X179333635Y-86525312D01*
X179340013Y-86513632D01*
X180058751Y-86513632D01*
X180058882Y-86515465D01*
X180063133Y-86522080D01*
X180237188Y-86696135D01*
X180251132Y-86703749D01*
X180252965Y-86703618D01*
X180259580Y-86699367D01*
X180433635Y-86525312D01*
X180440013Y-86513632D01*
X181158751Y-86513632D01*
X181158882Y-86515465D01*
X181163133Y-86522080D01*
X181337188Y-86696135D01*
X181351132Y-86703749D01*
X181352965Y-86703618D01*
X181359580Y-86699367D01*
X181533635Y-86525312D01*
X181540013Y-86513632D01*
X182258751Y-86513632D01*
X182258882Y-86515465D01*
X182263133Y-86522080D01*
X182437188Y-86696135D01*
X182451132Y-86703749D01*
X182452965Y-86703618D01*
X182459580Y-86699367D01*
X182633635Y-86525312D01*
X182640013Y-86513632D01*
X183358751Y-86513632D01*
X183358882Y-86515465D01*
X183363133Y-86522080D01*
X183537188Y-86696135D01*
X183551132Y-86703749D01*
X183552965Y-86703618D01*
X183559580Y-86699367D01*
X183733635Y-86525312D01*
X183741249Y-86511368D01*
X183741118Y-86509535D01*
X183736867Y-86502920D01*
X183562812Y-86328865D01*
X183548868Y-86321251D01*
X183547035Y-86321382D01*
X183540420Y-86325633D01*
X183366365Y-86499688D01*
X183358751Y-86513632D01*
X182640013Y-86513632D01*
X182641249Y-86511368D01*
X182641118Y-86509535D01*
X182636867Y-86502920D01*
X182462812Y-86328865D01*
X182448868Y-86321251D01*
X182447035Y-86321382D01*
X182440420Y-86325633D01*
X182266365Y-86499688D01*
X182258751Y-86513632D01*
X181540013Y-86513632D01*
X181541249Y-86511368D01*
X181541118Y-86509535D01*
X181536867Y-86502920D01*
X181362812Y-86328865D01*
X181348868Y-86321251D01*
X181347035Y-86321382D01*
X181340420Y-86325633D01*
X181166365Y-86499688D01*
X181158751Y-86513632D01*
X180440013Y-86513632D01*
X180441249Y-86511368D01*
X180441118Y-86509535D01*
X180436867Y-86502920D01*
X180262812Y-86328865D01*
X180248868Y-86321251D01*
X180247035Y-86321382D01*
X180240420Y-86325633D01*
X180066365Y-86499688D01*
X180058751Y-86513632D01*
X179340013Y-86513632D01*
X179341249Y-86511368D01*
X179341118Y-86509535D01*
X179336867Y-86502920D01*
X179162812Y-86328865D01*
X179148868Y-86321251D01*
X179147035Y-86321382D01*
X179140420Y-86325633D01*
X178966365Y-86499688D01*
X178958751Y-86513632D01*
X178240013Y-86513632D01*
X178241249Y-86511368D01*
X178241118Y-86509535D01*
X178236867Y-86502920D01*
X177948048Y-86214101D01*
X177914022Y-86151789D01*
X177919087Y-86080974D01*
X177948048Y-86035911D01*
X178008648Y-85975311D01*
X178015025Y-85963632D01*
X178408751Y-85963632D01*
X178408882Y-85965465D01*
X178413133Y-85972080D01*
X178587188Y-86146135D01*
X178601132Y-86153749D01*
X178602965Y-86153618D01*
X178609580Y-86149367D01*
X178783635Y-85975312D01*
X178790013Y-85963632D01*
X179508751Y-85963632D01*
X179508882Y-85965465D01*
X179513133Y-85972080D01*
X179687188Y-86146135D01*
X179701132Y-86153749D01*
X179702965Y-86153618D01*
X179709580Y-86149367D01*
X179883635Y-85975312D01*
X179890013Y-85963632D01*
X180608751Y-85963632D01*
X180608882Y-85965465D01*
X180613133Y-85972080D01*
X180787188Y-86146135D01*
X180801132Y-86153749D01*
X180802965Y-86153618D01*
X180809580Y-86149367D01*
X180983635Y-85975312D01*
X180990013Y-85963632D01*
X181708751Y-85963632D01*
X181708882Y-85965465D01*
X181713133Y-85972080D01*
X181887188Y-86146135D01*
X181901132Y-86153749D01*
X181902965Y-86153618D01*
X181909580Y-86149367D01*
X182083635Y-85975312D01*
X182090013Y-85963632D01*
X182808751Y-85963632D01*
X182808882Y-85965465D01*
X182813133Y-85972080D01*
X182987188Y-86146135D01*
X183001132Y-86153749D01*
X183002965Y-86153618D01*
X183009580Y-86149367D01*
X183183635Y-85975312D01*
X183190013Y-85963632D01*
X183908751Y-85963632D01*
X183908882Y-85965465D01*
X183913133Y-85972080D01*
X184087188Y-86146135D01*
X184101132Y-86153749D01*
X184102965Y-86153618D01*
X184109580Y-86149367D01*
X184283635Y-85975312D01*
X184291249Y-85961368D01*
X184291118Y-85959535D01*
X184286867Y-85952920D01*
X184112812Y-85778865D01*
X184098868Y-85771251D01*
X184097035Y-85771382D01*
X184090420Y-85775633D01*
X183916365Y-85949688D01*
X183908751Y-85963632D01*
X183190013Y-85963632D01*
X183191249Y-85961368D01*
X183191118Y-85959535D01*
X183186867Y-85952920D01*
X183012812Y-85778865D01*
X182998868Y-85771251D01*
X182997035Y-85771382D01*
X182990420Y-85775633D01*
X182816365Y-85949688D01*
X182808751Y-85963632D01*
X182090013Y-85963632D01*
X182091249Y-85961368D01*
X182091118Y-85959535D01*
X182086867Y-85952920D01*
X181912812Y-85778865D01*
X181898868Y-85771251D01*
X181897035Y-85771382D01*
X181890420Y-85775633D01*
X181716365Y-85949688D01*
X181708751Y-85963632D01*
X180990013Y-85963632D01*
X180991249Y-85961368D01*
X180991118Y-85959535D01*
X180986867Y-85952920D01*
X180812812Y-85778865D01*
X180798868Y-85771251D01*
X180797035Y-85771382D01*
X180790420Y-85775633D01*
X180616365Y-85949688D01*
X180608751Y-85963632D01*
X179890013Y-85963632D01*
X179891249Y-85961368D01*
X179891118Y-85959535D01*
X179886867Y-85952920D01*
X179712812Y-85778865D01*
X179698868Y-85771251D01*
X179697035Y-85771382D01*
X179690420Y-85775633D01*
X179516365Y-85949688D01*
X179508751Y-85963632D01*
X178790013Y-85963632D01*
X178791249Y-85961368D01*
X178791118Y-85959535D01*
X178786867Y-85952920D01*
X178612812Y-85778865D01*
X178598868Y-85771251D01*
X178597035Y-85771382D01*
X178590420Y-85775633D01*
X178416365Y-85949688D01*
X178408751Y-85963632D01*
X178015025Y-85963632D01*
X178016260Y-85961370D01*
X178016129Y-85959534D01*
X178011877Y-85952918D01*
X177948048Y-85889089D01*
X177914022Y-85826777D01*
X177919087Y-85755962D01*
X177948048Y-85710899D01*
X178233635Y-85425312D01*
X178240013Y-85413632D01*
X178958751Y-85413632D01*
X178958882Y-85415465D01*
X178963133Y-85422080D01*
X179137188Y-85596135D01*
X179151132Y-85603749D01*
X179152965Y-85603618D01*
X179159580Y-85599367D01*
X179333635Y-85425312D01*
X179340013Y-85413632D01*
X180058751Y-85413632D01*
X180058882Y-85415465D01*
X180063133Y-85422080D01*
X180237188Y-85596135D01*
X180251132Y-85603749D01*
X180252965Y-85603618D01*
X180259580Y-85599367D01*
X180433635Y-85425312D01*
X180440013Y-85413632D01*
X181158751Y-85413632D01*
X181158882Y-85415465D01*
X181163133Y-85422080D01*
X181337188Y-85596135D01*
X181351132Y-85603749D01*
X181352965Y-85603618D01*
X181359580Y-85599367D01*
X181533635Y-85425312D01*
X181540013Y-85413632D01*
X182258751Y-85413632D01*
X182258882Y-85415465D01*
X182263133Y-85422080D01*
X182437188Y-85596135D01*
X182451132Y-85603749D01*
X182452965Y-85603618D01*
X182459580Y-85599367D01*
X182633635Y-85425312D01*
X182640013Y-85413632D01*
X183358751Y-85413632D01*
X183358882Y-85415465D01*
X183363133Y-85422080D01*
X183537188Y-85596135D01*
X183551132Y-85603749D01*
X183552965Y-85603618D01*
X183559580Y-85599367D01*
X183733635Y-85425312D01*
X183741249Y-85411368D01*
X183741118Y-85409535D01*
X183736867Y-85402920D01*
X183562812Y-85228865D01*
X183548868Y-85221251D01*
X183547035Y-85221382D01*
X183540420Y-85225633D01*
X183366365Y-85399688D01*
X183358751Y-85413632D01*
X182640013Y-85413632D01*
X182641249Y-85411368D01*
X182641118Y-85409535D01*
X182636867Y-85402920D01*
X182462812Y-85228865D01*
X182448868Y-85221251D01*
X182447035Y-85221382D01*
X182440420Y-85225633D01*
X182266365Y-85399688D01*
X182258751Y-85413632D01*
X181540013Y-85413632D01*
X181541249Y-85411368D01*
X181541118Y-85409535D01*
X181536867Y-85402920D01*
X181362812Y-85228865D01*
X181348868Y-85221251D01*
X181347035Y-85221382D01*
X181340420Y-85225633D01*
X181166365Y-85399688D01*
X181158751Y-85413632D01*
X180440013Y-85413632D01*
X180441249Y-85411368D01*
X180441118Y-85409535D01*
X180436867Y-85402920D01*
X180262812Y-85228865D01*
X180248868Y-85221251D01*
X180247035Y-85221382D01*
X180240420Y-85225633D01*
X180066365Y-85399688D01*
X180058751Y-85413632D01*
X179340013Y-85413632D01*
X179341249Y-85411368D01*
X179341118Y-85409535D01*
X179336867Y-85402920D01*
X179162812Y-85228865D01*
X179148868Y-85221251D01*
X179147035Y-85221382D01*
X179140420Y-85225633D01*
X178966365Y-85399688D01*
X178958751Y-85413632D01*
X178240013Y-85413632D01*
X178241249Y-85411368D01*
X178241118Y-85409535D01*
X178236867Y-85402920D01*
X177963259Y-85129312D01*
X177939797Y-85116500D01*
X177860116Y-85116500D01*
X177844877Y-85120975D01*
X177843672Y-85122365D01*
X177842001Y-85130048D01*
X177842001Y-85356541D01*
X177841007Y-85372335D01*
X177838162Y-85394857D01*
X177837965Y-85408871D01*
X177841399Y-85443884D01*
X177842001Y-85456181D01*
X177842001Y-86456541D01*
X177841007Y-86472334D01*
X177838162Y-86494856D01*
X177837966Y-86508862D01*
X177841400Y-86543886D01*
X177842001Y-86556182D01*
X177842001Y-87556540D01*
X177841007Y-87572333D01*
X177838162Y-87594856D01*
X177837966Y-87608862D01*
X177841400Y-87643888D01*
X177842001Y-87656184D01*
X177842001Y-87755080D01*
X177821999Y-87823201D01*
X177768343Y-87869694D01*
X177748613Y-87876786D01*
X177734790Y-87880490D01*
X177724058Y-87882870D01*
X177720699Y-87883462D01*
X177686955Y-87889412D01*
X177677410Y-87894923D01*
X177674134Y-87896115D01*
X177670966Y-87897592D01*
X177660316Y-87900446D01*
X177651285Y-87906770D01*
X177629456Y-87922055D01*
X177620185Y-87927961D01*
X177597094Y-87941293D01*
X177587545Y-87946806D01*
X177580459Y-87955251D01*
X177563315Y-87975682D01*
X177555889Y-87983785D01*
X175772383Y-89767291D01*
X175710071Y-89801317D01*
X175666843Y-89803118D01*
X175600000Y-89794318D01*
X175443238Y-89814956D01*
X175297159Y-89875464D01*
X175171718Y-89971718D01*
X175166695Y-89978264D01*
X175163690Y-89982180D01*
X175075464Y-90097159D01*
X175014956Y-90243238D01*
X174994318Y-90400000D01*
X171525500Y-90400000D01*
X171525500Y-90187016D01*
X171545502Y-90118895D01*
X171562405Y-90097921D01*
X173627618Y-88032709D01*
X173689930Y-87998683D01*
X173733158Y-87996882D01*
X173800000Y-88005682D01*
X173808188Y-88004604D01*
X173948574Y-87986122D01*
X173956762Y-87985044D01*
X174102841Y-87924536D01*
X174228282Y-87828282D01*
X174249984Y-87800000D01*
X174319509Y-87709392D01*
X174324536Y-87702841D01*
X174385044Y-87556762D01*
X174405682Y-87400000D01*
X174396882Y-87333157D01*
X174407821Y-87263010D01*
X174432709Y-87227617D01*
X174771933Y-86888393D01*
X174834245Y-86854367D01*
X174844579Y-86852566D01*
X174870119Y-86849204D01*
X175016198Y-86788696D01*
X175141639Y-86692442D01*
X175237893Y-86567001D01*
X175298401Y-86420922D01*
X175319039Y-86264160D01*
X175298401Y-86107398D01*
X175237893Y-85961319D01*
X175141639Y-85835878D01*
X175016198Y-85739624D01*
X174870119Y-85679116D01*
X174713357Y-85658478D01*
X174556595Y-85679116D01*
X174410516Y-85739624D01*
X174285075Y-85835878D01*
X174188821Y-85961319D01*
X174128313Y-86107398D01*
X174107675Y-86264160D01*
X174128313Y-86420922D01*
X174131473Y-86428550D01*
X174131474Y-86428555D01*
X174151873Y-86477803D01*
X174159462Y-86548393D01*
X174124559Y-86615115D01*
X173972383Y-86767291D01*
X173910071Y-86801317D01*
X173866843Y-86803118D01*
X173800000Y-86794318D01*
X173643238Y-86814956D01*
X173635611Y-86818115D01*
X173635608Y-86818116D01*
X173529265Y-86862165D01*
X173458675Y-86869754D01*
X173395188Y-86837975D01*
X173364638Y-86793974D01*
X173362452Y-86788696D01*
X173324536Y-86697159D01*
X173228282Y-86571718D01*
X173209215Y-86557087D01*
X173154971Y-86515465D01*
X173102841Y-86475464D01*
X172956762Y-86414956D01*
X172800000Y-86394318D01*
X172643238Y-86414956D01*
X172497159Y-86475464D01*
X172445029Y-86515465D01*
X172390786Y-86557087D01*
X172371718Y-86571718D01*
X172275464Y-86697159D01*
X172214956Y-86843238D01*
X172194318Y-87000000D01*
X172202398Y-87061370D01*
X172203118Y-87066842D01*
X172192179Y-87136990D01*
X172167291Y-87172383D01*
X168383785Y-90955889D01*
X168375681Y-90963316D01*
X168346806Y-90987545D01*
X168341293Y-90997094D01*
X168327961Y-91020185D01*
X168322055Y-91029456D01*
X168300446Y-91060316D01*
X168297592Y-91070966D01*
X168296115Y-91074134D01*
X168294923Y-91077410D01*
X168289412Y-91086955D01*
X168284253Y-91116213D01*
X168282870Y-91124058D01*
X168280492Y-91134785D01*
X168270736Y-91171193D01*
X168271697Y-91182178D01*
X168271697Y-91182180D01*
X168274020Y-91208728D01*
X168274500Y-91219710D01*
X168274500Y-96004715D01*
X168254498Y-96072836D01*
X168225204Y-96104678D01*
X168171718Y-96145719D01*
X168075464Y-96271160D01*
X168014956Y-96417239D01*
X167994318Y-96574001D01*
X149760834Y-96574001D01*
X149785646Y-96525304D01*
X149796011Y-96459865D01*
X149803941Y-96409793D01*
X149805492Y-96400000D01*
X149785646Y-96274696D01*
X149728050Y-96161658D01*
X149638342Y-96071950D01*
X149525304Y-96014354D01*
X149515515Y-96012804D01*
X149515513Y-96012803D01*
X149409793Y-95996059D01*
X149400000Y-95994508D01*
X149390207Y-95996059D01*
X149284487Y-96012803D01*
X149284485Y-96012804D01*
X149274696Y-96014354D01*
X149161658Y-96071950D01*
X149071950Y-96161658D01*
X149014354Y-96274696D01*
X148994508Y-96400000D01*
X148605492Y-96400000D01*
X148585646Y-96274696D01*
X148528050Y-96161658D01*
X148438342Y-96071950D01*
X148325304Y-96014354D01*
X148315515Y-96012804D01*
X148315513Y-96012803D01*
X148209793Y-95996059D01*
X148200000Y-95994508D01*
X148190207Y-95996059D01*
X148084487Y-96012803D01*
X148084485Y-96012804D01*
X148074696Y-96014354D01*
X147961658Y-96071950D01*
X147871950Y-96161658D01*
X147814354Y-96274696D01*
X147794508Y-96400000D01*
X147205492Y-96400000D01*
X147185646Y-96274696D01*
X147128050Y-96161658D01*
X147038342Y-96071950D01*
X146925304Y-96014354D01*
X146915515Y-96012804D01*
X146915513Y-96012803D01*
X146809793Y-95996059D01*
X146800000Y-95994508D01*
X146790207Y-95996059D01*
X146684487Y-96012803D01*
X146684485Y-96012804D01*
X146674696Y-96014354D01*
X146561658Y-96071950D01*
X146471950Y-96161658D01*
X146414354Y-96274696D01*
X146394508Y-96400000D01*
X128800500Y-96400000D01*
X128800500Y-95600000D01*
X145594508Y-95600000D01*
X145596059Y-95609793D01*
X145612152Y-95711398D01*
X145614354Y-95725304D01*
X145671950Y-95838342D01*
X145761658Y-95928050D01*
X145874696Y-95985646D01*
X145884485Y-95987196D01*
X145884487Y-95987197D01*
X145990207Y-96003941D01*
X146000000Y-96005492D01*
X146009793Y-96003941D01*
X146115513Y-95987197D01*
X146115515Y-95987196D01*
X146125304Y-95985646D01*
X146238342Y-95928050D01*
X146328050Y-95838342D01*
X146385646Y-95725304D01*
X146387849Y-95711398D01*
X146403941Y-95609793D01*
X146405492Y-95600000D01*
X146385646Y-95474696D01*
X146328050Y-95361658D01*
X146238342Y-95271950D01*
X146125304Y-95214354D01*
X146115515Y-95212804D01*
X146115513Y-95212803D01*
X146009793Y-95196059D01*
X146000000Y-95194508D01*
X145990207Y-95196059D01*
X145884487Y-95212803D01*
X145884485Y-95212804D01*
X145874696Y-95214354D01*
X145761658Y-95271950D01*
X145671950Y-95361658D01*
X145614354Y-95474696D01*
X145594508Y-95600000D01*
X128800500Y-95600000D01*
X128800500Y-93800000D01*
X156994508Y-93800000D01*
X156996059Y-93809793D01*
X157005904Y-93871950D01*
X157014354Y-93925304D01*
X157071950Y-94038342D01*
X157161658Y-94128050D01*
X157274696Y-94185646D01*
X157284485Y-94187196D01*
X157284487Y-94187197D01*
X157390207Y-94203941D01*
X157400000Y-94205492D01*
X157409793Y-94203941D01*
X157515513Y-94187197D01*
X157515515Y-94187196D01*
X157525304Y-94185646D01*
X157638342Y-94128050D01*
X157728050Y-94038342D01*
X157785646Y-93925304D01*
X157794097Y-93871950D01*
X157803941Y-93809793D01*
X157805492Y-93800000D01*
X157785646Y-93674696D01*
X157728050Y-93561658D01*
X157638342Y-93471950D01*
X157525304Y-93414354D01*
X157515515Y-93412804D01*
X157515513Y-93412803D01*
X157409793Y-93396059D01*
X157400000Y-93394508D01*
X157390207Y-93396059D01*
X157284487Y-93412803D01*
X157284485Y-93412804D01*
X157274696Y-93414354D01*
X157161658Y-93471950D01*
X157071950Y-93561658D01*
X157014354Y-93674696D01*
X156994508Y-93800000D01*
X128800500Y-93800000D01*
X128800500Y-92200000D01*
X156994508Y-92200000D01*
X156996059Y-92209793D01*
X157006250Y-92274134D01*
X157014354Y-92325304D01*
X157071950Y-92438342D01*
X157161658Y-92528050D01*
X157274696Y-92585646D01*
X157284485Y-92587196D01*
X157284487Y-92587197D01*
X157390207Y-92603941D01*
X157400000Y-92605492D01*
X157409793Y-92603941D01*
X157515513Y-92587197D01*
X157515515Y-92587196D01*
X157525304Y-92585646D01*
X157638342Y-92528050D01*
X157728050Y-92438342D01*
X157785646Y-92325304D01*
X157793751Y-92274134D01*
X157803941Y-92209793D01*
X157805492Y-92200000D01*
X157799682Y-92163315D01*
X157787197Y-92084487D01*
X157787196Y-92084485D01*
X157785646Y-92074696D01*
X157728050Y-91961658D01*
X157638342Y-91871950D01*
X157525304Y-91814354D01*
X157515515Y-91812804D01*
X157515513Y-91812803D01*
X157409793Y-91796059D01*
X157400000Y-91794508D01*
X157390207Y-91796059D01*
X157284487Y-91812803D01*
X157284485Y-91812804D01*
X157274696Y-91814354D01*
X157161658Y-91871950D01*
X157071950Y-91961658D01*
X157014354Y-92074696D01*
X157012804Y-92084485D01*
X157012803Y-92084487D01*
X157000318Y-92163315D01*
X156994508Y-92200000D01*
X128800500Y-92200000D01*
X128800500Y-90600000D01*
X156994508Y-90600000D01*
X156996059Y-90609793D01*
X157009778Y-90696409D01*
X157014354Y-90725304D01*
X157071950Y-90838342D01*
X157161658Y-90928050D01*
X157274696Y-90985646D01*
X157284485Y-90987196D01*
X157284487Y-90987197D01*
X157390207Y-91003941D01*
X157400000Y-91005492D01*
X157409793Y-91003941D01*
X157515513Y-90987197D01*
X157515515Y-90987196D01*
X157525304Y-90985646D01*
X157638342Y-90928050D01*
X157728050Y-90838342D01*
X157785646Y-90725304D01*
X157790223Y-90696409D01*
X157803941Y-90609793D01*
X157805492Y-90600000D01*
X157797977Y-90552553D01*
X157787197Y-90484487D01*
X157787196Y-90484485D01*
X157785646Y-90474696D01*
X157728050Y-90361658D01*
X157638342Y-90271950D01*
X157525304Y-90214354D01*
X157515515Y-90212804D01*
X157515513Y-90212803D01*
X157409793Y-90196059D01*
X157400000Y-90194508D01*
X157390207Y-90196059D01*
X157284487Y-90212803D01*
X157284485Y-90212804D01*
X157274696Y-90214354D01*
X157161658Y-90271950D01*
X157071950Y-90361658D01*
X157014354Y-90474696D01*
X157012804Y-90484485D01*
X157012803Y-90484487D01*
X157002023Y-90552553D01*
X156994508Y-90600000D01*
X128800500Y-90600000D01*
X128800500Y-89000000D01*
X156994508Y-89000000D01*
X156996059Y-89009793D01*
X157005904Y-89071950D01*
X157014354Y-89125304D01*
X157071950Y-89238342D01*
X157161658Y-89328050D01*
X157274696Y-89385646D01*
X157284485Y-89387196D01*
X157284487Y-89387197D01*
X157390207Y-89403941D01*
X157400000Y-89405492D01*
X157409793Y-89403941D01*
X157434676Y-89400000D01*
X166594508Y-89400000D01*
X166596059Y-89409793D01*
X166610807Y-89502907D01*
X166614354Y-89525304D01*
X166671950Y-89638342D01*
X166761658Y-89728050D01*
X166874696Y-89785646D01*
X166884485Y-89787196D01*
X166884487Y-89787197D01*
X166990207Y-89803941D01*
X167000000Y-89805492D01*
X167009793Y-89803941D01*
X167115513Y-89787197D01*
X167115515Y-89787196D01*
X167125304Y-89785646D01*
X167238342Y-89728050D01*
X167328050Y-89638342D01*
X167385646Y-89525304D01*
X167389194Y-89502907D01*
X167403941Y-89409793D01*
X167405492Y-89400000D01*
X167400667Y-89369538D01*
X167387197Y-89284487D01*
X167387196Y-89284485D01*
X167385646Y-89274696D01*
X167328050Y-89161658D01*
X167238342Y-89071950D01*
X167125304Y-89014354D01*
X167115515Y-89012804D01*
X167115513Y-89012803D01*
X167009793Y-88996059D01*
X167000000Y-88994508D01*
X166990207Y-88996059D01*
X166884487Y-89012803D01*
X166884485Y-89012804D01*
X166874696Y-89014354D01*
X166761658Y-89071950D01*
X166671950Y-89161658D01*
X166614354Y-89274696D01*
X166612804Y-89284485D01*
X166612803Y-89284487D01*
X166599333Y-89369538D01*
X166594508Y-89400000D01*
X157434676Y-89400000D01*
X157515513Y-89387197D01*
X157515515Y-89387196D01*
X157525304Y-89385646D01*
X157638342Y-89328050D01*
X157728050Y-89238342D01*
X157785646Y-89125304D01*
X157794097Y-89071950D01*
X157803941Y-89009793D01*
X157805492Y-89000000D01*
X157799315Y-88961000D01*
X157787197Y-88884487D01*
X157787196Y-88884485D01*
X157785646Y-88874696D01*
X157728050Y-88761658D01*
X157638342Y-88671950D01*
X157525304Y-88614354D01*
X157515515Y-88612804D01*
X157515513Y-88612803D01*
X157409793Y-88596059D01*
X157400000Y-88594508D01*
X157390207Y-88596059D01*
X157284487Y-88612803D01*
X157284485Y-88612804D01*
X157274696Y-88614354D01*
X157161658Y-88671950D01*
X157071950Y-88761658D01*
X157014354Y-88874696D01*
X157012804Y-88884485D01*
X157012803Y-88884487D01*
X157000685Y-88961000D01*
X156994508Y-89000000D01*
X128800500Y-89000000D01*
X128800500Y-87800000D01*
X166594508Y-87800000D01*
X166596059Y-87809793D01*
X166611419Y-87906770D01*
X166614354Y-87925304D01*
X166671950Y-88038342D01*
X166761658Y-88128050D01*
X166874696Y-88185646D01*
X166884485Y-88187196D01*
X166884487Y-88187197D01*
X166990207Y-88203941D01*
X167000000Y-88205492D01*
X167009793Y-88203941D01*
X167115513Y-88187197D01*
X167115515Y-88187196D01*
X167125304Y-88185646D01*
X167238342Y-88128050D01*
X167328050Y-88038342D01*
X167385646Y-87925304D01*
X167388582Y-87906770D01*
X167403941Y-87809793D01*
X167405492Y-87800000D01*
X167398709Y-87757172D01*
X167387197Y-87684487D01*
X167387196Y-87684485D01*
X167385646Y-87674696D01*
X167328050Y-87561658D01*
X167238342Y-87471950D01*
X167125304Y-87414354D01*
X167115515Y-87412804D01*
X167115513Y-87412803D01*
X167009793Y-87396059D01*
X167000000Y-87394508D01*
X166990207Y-87396059D01*
X166884487Y-87412803D01*
X166884485Y-87412804D01*
X166874696Y-87414354D01*
X166761658Y-87471950D01*
X166671950Y-87561658D01*
X166614354Y-87674696D01*
X166612804Y-87684485D01*
X166612803Y-87684487D01*
X166601291Y-87757172D01*
X166594508Y-87800000D01*
X128800500Y-87800000D01*
X128800500Y-85000000D01*
X174594508Y-85000000D01*
X174614354Y-85125304D01*
X174671950Y-85238342D01*
X174761658Y-85328050D01*
X174874696Y-85385646D01*
X174884485Y-85387196D01*
X174884487Y-85387197D01*
X174990207Y-85403941D01*
X175000000Y-85405492D01*
X175009793Y-85403941D01*
X175115513Y-85387197D01*
X175115515Y-85387196D01*
X175125304Y-85385646D01*
X175238342Y-85328050D01*
X175328050Y-85238342D01*
X175385646Y-85125304D01*
X175405492Y-85000000D01*
X175385646Y-84874696D01*
X175328050Y-84761658D01*
X175238342Y-84671950D01*
X175125304Y-84614354D01*
X175115515Y-84612804D01*
X175115513Y-84612803D01*
X175009793Y-84596059D01*
X175000000Y-84594508D01*
X174990207Y-84596059D01*
X174884487Y-84612803D01*
X174884485Y-84612804D01*
X174874696Y-84614354D01*
X174761658Y-84671950D01*
X174671950Y-84761658D01*
X174614354Y-84874696D01*
X174594508Y-85000000D01*
X128800500Y-85000000D01*
X128800500Y-84400000D01*
X166994508Y-84400000D01*
X167014354Y-84525304D01*
X167071950Y-84638342D01*
X167161658Y-84728050D01*
X167274696Y-84785646D01*
X167284485Y-84787196D01*
X167284487Y-84787197D01*
X167390207Y-84803941D01*
X167400000Y-84805492D01*
X167409793Y-84803941D01*
X167515513Y-84787197D01*
X167515515Y-84787196D01*
X167525304Y-84785646D01*
X167638342Y-84728050D01*
X167728050Y-84638342D01*
X167785646Y-84525304D01*
X167805492Y-84400000D01*
X167795626Y-84337707D01*
X167791057Y-84308860D01*
X177837965Y-84308860D01*
X177841399Y-84343882D01*
X177842000Y-84356177D01*
X177842000Y-84590385D01*
X177846475Y-84605624D01*
X177847865Y-84606829D01*
X177855548Y-84608500D01*
X177932332Y-84608500D01*
X177957977Y-84600970D01*
X178233635Y-84325312D01*
X178240013Y-84313632D01*
X178958751Y-84313632D01*
X178958882Y-84315465D01*
X178963133Y-84322080D01*
X179137188Y-84496135D01*
X179151132Y-84503749D01*
X179152965Y-84503618D01*
X179159580Y-84499367D01*
X179333635Y-84325312D01*
X179340013Y-84313632D01*
X180058751Y-84313632D01*
X180058882Y-84315465D01*
X180063133Y-84322080D01*
X180237188Y-84496135D01*
X180251132Y-84503749D01*
X180252965Y-84503618D01*
X180259580Y-84499367D01*
X180433635Y-84325312D01*
X180440013Y-84313632D01*
X182258751Y-84313632D01*
X182258882Y-84315465D01*
X182263133Y-84322080D01*
X182437188Y-84496135D01*
X182451132Y-84503749D01*
X182452965Y-84503618D01*
X182459580Y-84499367D01*
X182633635Y-84325312D01*
X182640013Y-84313632D01*
X183358751Y-84313632D01*
X183358882Y-84315465D01*
X183363133Y-84322080D01*
X183537188Y-84496135D01*
X183551132Y-84503749D01*
X183552965Y-84503618D01*
X183559580Y-84499367D01*
X183733635Y-84325312D01*
X183741249Y-84311368D01*
X183741118Y-84309535D01*
X183736867Y-84302920D01*
X183562812Y-84128865D01*
X183548868Y-84121251D01*
X183547035Y-84121382D01*
X183540420Y-84125633D01*
X183366365Y-84299688D01*
X183358751Y-84313632D01*
X182640013Y-84313632D01*
X182641249Y-84311368D01*
X182641118Y-84309535D01*
X182636867Y-84302920D01*
X182462812Y-84128865D01*
X182448868Y-84121251D01*
X182447035Y-84121382D01*
X182440420Y-84125633D01*
X182266365Y-84299688D01*
X182258751Y-84313632D01*
X180440013Y-84313632D01*
X180441249Y-84311368D01*
X180441118Y-84309535D01*
X180436867Y-84302920D01*
X180262812Y-84128865D01*
X180248868Y-84121251D01*
X180247035Y-84121382D01*
X180240420Y-84125633D01*
X180066365Y-84299688D01*
X180058751Y-84313632D01*
X179340013Y-84313632D01*
X179341249Y-84311368D01*
X179341118Y-84309535D01*
X179336867Y-84302920D01*
X179162812Y-84128865D01*
X179148868Y-84121251D01*
X179147035Y-84121382D01*
X179140420Y-84125633D01*
X178966365Y-84299688D01*
X178958751Y-84313632D01*
X178240013Y-84313632D01*
X178241249Y-84311368D01*
X178241118Y-84309535D01*
X178236867Y-84302920D01*
X177948048Y-84014101D01*
X177914022Y-83951789D01*
X177919087Y-83880974D01*
X177948048Y-83835911D01*
X178008648Y-83775311D01*
X178015025Y-83763632D01*
X178408751Y-83763632D01*
X178408882Y-83765465D01*
X178413133Y-83772080D01*
X178587188Y-83946135D01*
X178601132Y-83953749D01*
X178602965Y-83953618D01*
X178609580Y-83949367D01*
X178783635Y-83775312D01*
X178790013Y-83763632D01*
X179508751Y-83763632D01*
X179508882Y-83765465D01*
X179513133Y-83772080D01*
X179687188Y-83946135D01*
X179701132Y-83953749D01*
X179702965Y-83953618D01*
X179709580Y-83949367D01*
X179883635Y-83775312D01*
X179890013Y-83763632D01*
X180608751Y-83763632D01*
X180608882Y-83765465D01*
X180613133Y-83772080D01*
X180787188Y-83946135D01*
X180801132Y-83953749D01*
X180802965Y-83953618D01*
X180809580Y-83949367D01*
X180983635Y-83775312D01*
X180990013Y-83763632D01*
X181708751Y-83763632D01*
X181708882Y-83765465D01*
X181713133Y-83772080D01*
X181887188Y-83946135D01*
X181901132Y-83953749D01*
X181902965Y-83953618D01*
X181909580Y-83949367D01*
X182083635Y-83775312D01*
X182090013Y-83763632D01*
X182808751Y-83763632D01*
X182808882Y-83765465D01*
X182813133Y-83772080D01*
X182987188Y-83946135D01*
X183001132Y-83953749D01*
X183002965Y-83953618D01*
X183009580Y-83949367D01*
X183183635Y-83775312D01*
X183190013Y-83763632D01*
X183908751Y-83763632D01*
X183908882Y-83765465D01*
X183913133Y-83772080D01*
X184087188Y-83946135D01*
X184101132Y-83953749D01*
X184102965Y-83953618D01*
X184109580Y-83949367D01*
X184283635Y-83775312D01*
X184291249Y-83761368D01*
X184291118Y-83759535D01*
X184286867Y-83752920D01*
X184112812Y-83578865D01*
X184098868Y-83571251D01*
X184097035Y-83571382D01*
X184090420Y-83575633D01*
X183916365Y-83749688D01*
X183908751Y-83763632D01*
X183190013Y-83763632D01*
X183191249Y-83761368D01*
X183191118Y-83759535D01*
X183186867Y-83752920D01*
X183012812Y-83578865D01*
X182998868Y-83571251D01*
X182997035Y-83571382D01*
X182990420Y-83575633D01*
X182816365Y-83749688D01*
X182808751Y-83763632D01*
X182090013Y-83763632D01*
X182091249Y-83761368D01*
X182091118Y-83759535D01*
X182086867Y-83752920D01*
X181912812Y-83578865D01*
X181898868Y-83571251D01*
X181897035Y-83571382D01*
X181890420Y-83575633D01*
X181716365Y-83749688D01*
X181708751Y-83763632D01*
X180990013Y-83763632D01*
X180991249Y-83761368D01*
X180991118Y-83759535D01*
X180986867Y-83752920D01*
X180812812Y-83578865D01*
X180798868Y-83571251D01*
X180797035Y-83571382D01*
X180790420Y-83575633D01*
X180616365Y-83749688D01*
X180608751Y-83763632D01*
X179890013Y-83763632D01*
X179891249Y-83761368D01*
X179891118Y-83759535D01*
X179886867Y-83752920D01*
X179712812Y-83578865D01*
X179698868Y-83571251D01*
X179697035Y-83571382D01*
X179690420Y-83575633D01*
X179516365Y-83749688D01*
X179508751Y-83763632D01*
X178790013Y-83763632D01*
X178791249Y-83761368D01*
X178791118Y-83759535D01*
X178786867Y-83752920D01*
X178612812Y-83578865D01*
X178598868Y-83571251D01*
X178597035Y-83571382D01*
X178590420Y-83575633D01*
X178416365Y-83749688D01*
X178408751Y-83763632D01*
X178015025Y-83763632D01*
X178016260Y-83761370D01*
X178016129Y-83759534D01*
X178011877Y-83752918D01*
X177948048Y-83689089D01*
X177914022Y-83626777D01*
X177919087Y-83555962D01*
X177948048Y-83510899D01*
X178233635Y-83225312D01*
X178240013Y-83213632D01*
X178958751Y-83213632D01*
X178958882Y-83215465D01*
X178963133Y-83222080D01*
X179137188Y-83396135D01*
X179151132Y-83403749D01*
X179152965Y-83403618D01*
X179159580Y-83399367D01*
X179333635Y-83225312D01*
X179340013Y-83213632D01*
X180058751Y-83213632D01*
X180058882Y-83215465D01*
X180063133Y-83222080D01*
X180237188Y-83396135D01*
X180251132Y-83403749D01*
X180252965Y-83403618D01*
X180259580Y-83399367D01*
X180433635Y-83225312D01*
X180440013Y-83213632D01*
X182258751Y-83213632D01*
X182258882Y-83215465D01*
X182263133Y-83222080D01*
X182437188Y-83396135D01*
X182451132Y-83403749D01*
X182452965Y-83403618D01*
X182459580Y-83399367D01*
X182633635Y-83225312D01*
X182640013Y-83213632D01*
X183358751Y-83213632D01*
X183358882Y-83215465D01*
X183363133Y-83222080D01*
X183537188Y-83396135D01*
X183551132Y-83403749D01*
X183552965Y-83403618D01*
X183559580Y-83399367D01*
X183733635Y-83225312D01*
X183741249Y-83211368D01*
X183741118Y-83209535D01*
X183736867Y-83202920D01*
X183562812Y-83028865D01*
X183548868Y-83021251D01*
X183547035Y-83021382D01*
X183540420Y-83025633D01*
X183366365Y-83199688D01*
X183358751Y-83213632D01*
X182640013Y-83213632D01*
X182641249Y-83211368D01*
X182641118Y-83209535D01*
X182636867Y-83202920D01*
X182462812Y-83028865D01*
X182448868Y-83021251D01*
X182447035Y-83021382D01*
X182440420Y-83025633D01*
X182266365Y-83199688D01*
X182258751Y-83213632D01*
X180440013Y-83213632D01*
X180441249Y-83211368D01*
X180441118Y-83209535D01*
X180436867Y-83202920D01*
X180262812Y-83028865D01*
X180248868Y-83021251D01*
X180247035Y-83021382D01*
X180240420Y-83025633D01*
X180066365Y-83199688D01*
X180058751Y-83213632D01*
X179340013Y-83213632D01*
X179341249Y-83211368D01*
X179341118Y-83209535D01*
X179336867Y-83202920D01*
X179162812Y-83028865D01*
X179148868Y-83021251D01*
X179147035Y-83021382D01*
X179140420Y-83025633D01*
X178966365Y-83199688D01*
X178958751Y-83213632D01*
X178240013Y-83213632D01*
X178241249Y-83211368D01*
X178241118Y-83209535D01*
X178236867Y-83202920D01*
X177948048Y-82914101D01*
X177914022Y-82851789D01*
X177919087Y-82780974D01*
X177948048Y-82735911D01*
X178008648Y-82675311D01*
X178015025Y-82663632D01*
X178408751Y-82663632D01*
X178408882Y-82665465D01*
X178413133Y-82672080D01*
X178587188Y-82846135D01*
X178601132Y-82853749D01*
X178602965Y-82853618D01*
X178609580Y-82849367D01*
X178783635Y-82675312D01*
X178790013Y-82663632D01*
X179508751Y-82663632D01*
X179508882Y-82665465D01*
X179513133Y-82672080D01*
X179687188Y-82846135D01*
X179701132Y-82853749D01*
X179702965Y-82853618D01*
X179709580Y-82849367D01*
X179883635Y-82675312D01*
X179890013Y-82663632D01*
X180608751Y-82663632D01*
X180608882Y-82665465D01*
X180613133Y-82672080D01*
X180787188Y-82846135D01*
X180801132Y-82853749D01*
X180802965Y-82853618D01*
X180809580Y-82849367D01*
X180983635Y-82675312D01*
X180990013Y-82663632D01*
X181708751Y-82663632D01*
X181708882Y-82665465D01*
X181713133Y-82672080D01*
X181887188Y-82846135D01*
X181901132Y-82853749D01*
X181902965Y-82853618D01*
X181909580Y-82849367D01*
X182083635Y-82675312D01*
X182090013Y-82663632D01*
X182808751Y-82663632D01*
X182808882Y-82665465D01*
X182813133Y-82672080D01*
X182987188Y-82846135D01*
X183001132Y-82853749D01*
X183002965Y-82853618D01*
X183009580Y-82849367D01*
X183183635Y-82675312D01*
X183190013Y-82663632D01*
X183908751Y-82663632D01*
X183908882Y-82665465D01*
X183913133Y-82672080D01*
X184087188Y-82846135D01*
X184101132Y-82853749D01*
X184102965Y-82853618D01*
X184109580Y-82849367D01*
X184283635Y-82675312D01*
X184291249Y-82661368D01*
X184291118Y-82659535D01*
X184286867Y-82652920D01*
X184112812Y-82478865D01*
X184098868Y-82471251D01*
X184097035Y-82471382D01*
X184090420Y-82475633D01*
X183916365Y-82649688D01*
X183908751Y-82663632D01*
X183190013Y-82663632D01*
X183191249Y-82661368D01*
X183191118Y-82659535D01*
X183186867Y-82652920D01*
X183012812Y-82478865D01*
X182998868Y-82471251D01*
X182997035Y-82471382D01*
X182990420Y-82475633D01*
X182816365Y-82649688D01*
X182808751Y-82663632D01*
X182090013Y-82663632D01*
X182091249Y-82661368D01*
X182091118Y-82659535D01*
X182086867Y-82652920D01*
X181912812Y-82478865D01*
X181898868Y-82471251D01*
X181897035Y-82471382D01*
X181890420Y-82475633D01*
X181716365Y-82649688D01*
X181708751Y-82663632D01*
X180990013Y-82663632D01*
X180991249Y-82661368D01*
X180991118Y-82659535D01*
X180986867Y-82652920D01*
X180812812Y-82478865D01*
X180798868Y-82471251D01*
X180797035Y-82471382D01*
X180790420Y-82475633D01*
X180616365Y-82649688D01*
X180608751Y-82663632D01*
X179890013Y-82663632D01*
X179891249Y-82661368D01*
X179891118Y-82659535D01*
X179886867Y-82652920D01*
X179712812Y-82478865D01*
X179698868Y-82471251D01*
X179697035Y-82471382D01*
X179690420Y-82475633D01*
X179516365Y-82649688D01*
X179508751Y-82663632D01*
X178790013Y-82663632D01*
X178791249Y-82661368D01*
X178791118Y-82659535D01*
X178786867Y-82652920D01*
X178612812Y-82478865D01*
X178598868Y-82471251D01*
X178597035Y-82471382D01*
X178590420Y-82475633D01*
X178416365Y-82649688D01*
X178408751Y-82663632D01*
X178015025Y-82663632D01*
X178016260Y-82661370D01*
X178016129Y-82659534D01*
X178011877Y-82652918D01*
X177948048Y-82589089D01*
X177914022Y-82526777D01*
X177919087Y-82455962D01*
X177948048Y-82410899D01*
X178245315Y-82113632D01*
X178958751Y-82113632D01*
X178958882Y-82115465D01*
X178963133Y-82122080D01*
X179137188Y-82296135D01*
X179151132Y-82303749D01*
X179152965Y-82303618D01*
X179159580Y-82299367D01*
X179333635Y-82125312D01*
X179340013Y-82113632D01*
X180058751Y-82113632D01*
X180058882Y-82115465D01*
X180063133Y-82122080D01*
X180237188Y-82296135D01*
X180251132Y-82303749D01*
X180252965Y-82303618D01*
X180259580Y-82299367D01*
X180433635Y-82125312D01*
X180440013Y-82113632D01*
X182258751Y-82113632D01*
X182258882Y-82115465D01*
X182263133Y-82122080D01*
X182437188Y-82296135D01*
X182451132Y-82303749D01*
X182452965Y-82303618D01*
X182459580Y-82299367D01*
X182633635Y-82125312D01*
X182640013Y-82113632D01*
X183358751Y-82113632D01*
X183358882Y-82115465D01*
X183363133Y-82122080D01*
X183537188Y-82296135D01*
X183551132Y-82303749D01*
X183552965Y-82303618D01*
X183559580Y-82299367D01*
X183733635Y-82125312D01*
X183741249Y-82111368D01*
X183741118Y-82109535D01*
X183736867Y-82102920D01*
X183562812Y-81928865D01*
X183548868Y-81921251D01*
X183547035Y-81921382D01*
X183540420Y-81925633D01*
X183366365Y-82099688D01*
X183358751Y-82113632D01*
X182640013Y-82113632D01*
X182641249Y-82111368D01*
X182641118Y-82109535D01*
X182636867Y-82102920D01*
X182462812Y-81928865D01*
X182448868Y-81921251D01*
X182447035Y-81921382D01*
X182440420Y-81925633D01*
X182266365Y-82099688D01*
X182258751Y-82113632D01*
X180440013Y-82113632D01*
X180441249Y-82111368D01*
X180441118Y-82109535D01*
X180436867Y-82102920D01*
X180262812Y-81928865D01*
X180248868Y-81921251D01*
X180247035Y-81921382D01*
X180240420Y-81925633D01*
X180066365Y-82099688D01*
X180058751Y-82113632D01*
X179340013Y-82113632D01*
X179341249Y-82111368D01*
X179341118Y-82109535D01*
X179336867Y-82102920D01*
X179162812Y-81928865D01*
X179148868Y-81921251D01*
X179147035Y-81921382D01*
X179140420Y-81925633D01*
X178966365Y-82099688D01*
X178958751Y-82113632D01*
X178245315Y-82113632D01*
X178898399Y-81460548D01*
X178960711Y-81426522D01*
X179031526Y-81431587D01*
X179076589Y-81460548D01*
X179137189Y-81521148D01*
X179151130Y-81528760D01*
X179152966Y-81528629D01*
X179159582Y-81524377D01*
X179223411Y-81460548D01*
X179285723Y-81426522D01*
X179356538Y-81431587D01*
X179401601Y-81460548D01*
X179687188Y-81746135D01*
X179701132Y-81753749D01*
X179702965Y-81753618D01*
X179709580Y-81749367D01*
X179998399Y-81460548D01*
X180060711Y-81426522D01*
X180131526Y-81431587D01*
X180176589Y-81460548D01*
X180237189Y-81521148D01*
X180251130Y-81528760D01*
X180252966Y-81528629D01*
X180259582Y-81524377D01*
X180323411Y-81460548D01*
X180385723Y-81426522D01*
X180456538Y-81431587D01*
X180501601Y-81460548D01*
X180787188Y-81746135D01*
X180801132Y-81753749D01*
X180802965Y-81753618D01*
X180809580Y-81749367D01*
X181083188Y-81475759D01*
X181096000Y-81452297D01*
X181096000Y-81444832D01*
X181604000Y-81444832D01*
X181611530Y-81470477D01*
X181887188Y-81746135D01*
X181901132Y-81753749D01*
X181902965Y-81753618D01*
X181909580Y-81749367D01*
X182198399Y-81460548D01*
X182260711Y-81426522D01*
X182331526Y-81431587D01*
X182376589Y-81460548D01*
X182437189Y-81521148D01*
X182451130Y-81528760D01*
X182452966Y-81528629D01*
X182459582Y-81524377D01*
X182523411Y-81460548D01*
X182585723Y-81426522D01*
X182656538Y-81431587D01*
X182701601Y-81460548D01*
X182987188Y-81746135D01*
X183001132Y-81753749D01*
X183002965Y-81753618D01*
X183009580Y-81749367D01*
X183298399Y-81460548D01*
X183360711Y-81426522D01*
X183431526Y-81431587D01*
X183476589Y-81460548D01*
X183537189Y-81521148D01*
X183551130Y-81528760D01*
X183552966Y-81528629D01*
X183559582Y-81524377D01*
X183623411Y-81460548D01*
X183685723Y-81426522D01*
X183756538Y-81431587D01*
X183801601Y-81460548D01*
X184751952Y-82410899D01*
X184785978Y-82473211D01*
X184780913Y-82544026D01*
X184751952Y-82589089D01*
X184691352Y-82649689D01*
X184683740Y-82663630D01*
X184683871Y-82665466D01*
X184688123Y-82672082D01*
X184751952Y-82735911D01*
X184785978Y-82798223D01*
X184780913Y-82869038D01*
X184751952Y-82914101D01*
X184466365Y-83199688D01*
X184458751Y-83213632D01*
X184458882Y-83215465D01*
X184463133Y-83222080D01*
X184751952Y-83510899D01*
X184785978Y-83573211D01*
X184780913Y-83644026D01*
X184751952Y-83689089D01*
X184691352Y-83749689D01*
X184683740Y-83763630D01*
X184683871Y-83765466D01*
X184688123Y-83772082D01*
X184751952Y-83835911D01*
X184785978Y-83898223D01*
X184780913Y-83969038D01*
X184751952Y-84014101D01*
X184466365Y-84299688D01*
X184458751Y-84313632D01*
X184458882Y-84315465D01*
X184463133Y-84322080D01*
X184736741Y-84595688D01*
X184760203Y-84608500D01*
X184839884Y-84608500D01*
X184855123Y-84604025D01*
X184856328Y-84602635D01*
X184857999Y-84594952D01*
X184857999Y-84374623D01*
X184859225Y-84357085D01*
X184861949Y-84337707D01*
X184862554Y-84329843D01*
X184862741Y-84316462D01*
X184862354Y-84308565D01*
X184858784Y-84276737D01*
X184857999Y-84262690D01*
X184857999Y-83274630D01*
X184859226Y-83257092D01*
X184861947Y-83237732D01*
X184862554Y-83229841D01*
X184862741Y-83216462D01*
X184862354Y-83208563D01*
X184861394Y-83200000D01*
X199594508Y-83200000D01*
X199614354Y-83325304D01*
X199671950Y-83438342D01*
X199761658Y-83528050D01*
X199874696Y-83585646D01*
X199884485Y-83587196D01*
X199884487Y-83587197D01*
X199990207Y-83603941D01*
X200000000Y-83605492D01*
X200009793Y-83603941D01*
X200115513Y-83587197D01*
X200115515Y-83587196D01*
X200125304Y-83585646D01*
X200238342Y-83528050D01*
X200328050Y-83438342D01*
X200385646Y-83325304D01*
X200405492Y-83200000D01*
X200399852Y-83164391D01*
X200387197Y-83084487D01*
X200387196Y-83084485D01*
X200385646Y-83074696D01*
X200328050Y-82961658D01*
X200238342Y-82871950D01*
X200125304Y-82814354D01*
X200115515Y-82812804D01*
X200115513Y-82812803D01*
X200009793Y-82796059D01*
X200000000Y-82794508D01*
X199990207Y-82796059D01*
X199884487Y-82812803D01*
X199884485Y-82812804D01*
X199874696Y-82814354D01*
X199761658Y-82871950D01*
X199671950Y-82961658D01*
X199614354Y-83074696D01*
X199612804Y-83084485D01*
X199612803Y-83084487D01*
X199600148Y-83164391D01*
X199594508Y-83200000D01*
X184861394Y-83200000D01*
X184858784Y-83176734D01*
X184857999Y-83162688D01*
X184857999Y-82174630D01*
X184859225Y-82157094D01*
X184861948Y-82137721D01*
X184862554Y-82129838D01*
X184862741Y-82116462D01*
X184862547Y-82112500D01*
X186682008Y-82112500D01*
X186683559Y-82122293D01*
X186686003Y-82137721D01*
X186701854Y-82237804D01*
X186759450Y-82350842D01*
X186849158Y-82440550D01*
X186962196Y-82498146D01*
X186971985Y-82499696D01*
X186971987Y-82499697D01*
X187077707Y-82516441D01*
X187087500Y-82517992D01*
X187097293Y-82516441D01*
X187203013Y-82499697D01*
X187203015Y-82499696D01*
X187212804Y-82498146D01*
X187325842Y-82440550D01*
X187415550Y-82350842D01*
X187473146Y-82237804D01*
X187488998Y-82137721D01*
X187491441Y-82122293D01*
X187492992Y-82112500D01*
X187490963Y-82099688D01*
X187474697Y-81996987D01*
X187474696Y-81996985D01*
X187473146Y-81987196D01*
X187415550Y-81874158D01*
X187325842Y-81784450D01*
X187212804Y-81726854D01*
X187203015Y-81725304D01*
X187203013Y-81725303D01*
X187097293Y-81708559D01*
X187087500Y-81707008D01*
X187077707Y-81708559D01*
X186971987Y-81725303D01*
X186971985Y-81725304D01*
X186962196Y-81726854D01*
X186849158Y-81784450D01*
X186759450Y-81874158D01*
X186701854Y-81987196D01*
X186700304Y-81996985D01*
X186700303Y-81996987D01*
X186684037Y-82099688D01*
X186682008Y-82112500D01*
X184862547Y-82112500D01*
X184862354Y-82108562D01*
X184858784Y-82076732D01*
X184857999Y-82062687D01*
X184857999Y-81817831D01*
X184857629Y-81811010D01*
X184852105Y-81760148D01*
X184848479Y-81744896D01*
X184803324Y-81624446D01*
X184794786Y-81608851D01*
X184718285Y-81506776D01*
X184705724Y-81494215D01*
X184603649Y-81417714D01*
X184588054Y-81409176D01*
X184467606Y-81364022D01*
X184452351Y-81360395D01*
X184401486Y-81354869D01*
X184394672Y-81354500D01*
X184152876Y-81354500D01*
X184137958Y-81353614D01*
X184112319Y-81350557D01*
X184098321Y-81350459D01*
X184066438Y-81353810D01*
X184053268Y-81354500D01*
X183052876Y-81354500D01*
X183037958Y-81353614D01*
X183012318Y-81350557D01*
X182998320Y-81350459D01*
X182966436Y-81353810D01*
X182953267Y-81354500D01*
X181952876Y-81354500D01*
X181937958Y-81353614D01*
X181912317Y-81350557D01*
X181898320Y-81350459D01*
X181866435Y-81353810D01*
X181853266Y-81354500D01*
X181622115Y-81354500D01*
X181606876Y-81358975D01*
X181605671Y-81360365D01*
X181604000Y-81368048D01*
X181604000Y-81444832D01*
X181096000Y-81444832D01*
X181096000Y-81372616D01*
X181091525Y-81357377D01*
X181090135Y-81356172D01*
X181082452Y-81354501D01*
X180852882Y-81354501D01*
X180837962Y-81353615D01*
X180812317Y-81350557D01*
X180798321Y-81350459D01*
X180766433Y-81353811D01*
X180753262Y-81354501D01*
X179752882Y-81354501D01*
X179737963Y-81353615D01*
X179712317Y-81350557D01*
X179698321Y-81350459D01*
X179666431Y-81353811D01*
X179653260Y-81354501D01*
X178652884Y-81354501D01*
X178637965Y-81353615D01*
X178612318Y-81350557D01*
X178598321Y-81350459D01*
X178566429Y-81353811D01*
X178553259Y-81354501D01*
X178305331Y-81354501D01*
X178298510Y-81354871D01*
X178247648Y-81360395D01*
X178232396Y-81364021D01*
X178111946Y-81409176D01*
X178096351Y-81417714D01*
X177994276Y-81494215D01*
X177981715Y-81506776D01*
X177905214Y-81608851D01*
X177896676Y-81624446D01*
X177851522Y-81744894D01*
X177847895Y-81760149D01*
X177842369Y-81811014D01*
X177842000Y-81817828D01*
X177842000Y-82056548D01*
X177841006Y-82072340D01*
X177838162Y-82094856D01*
X177837966Y-82108863D01*
X177841399Y-82143879D01*
X177842000Y-82156175D01*
X177842000Y-83156540D01*
X177841007Y-83172332D01*
X177838161Y-83194864D01*
X177837965Y-83208860D01*
X177841399Y-83243880D01*
X177842000Y-83256175D01*
X177842000Y-84256539D01*
X177841007Y-84272330D01*
X177838161Y-84294863D01*
X177837965Y-84308860D01*
X167791057Y-84308860D01*
X167787197Y-84284487D01*
X167787196Y-84284485D01*
X167785646Y-84274696D01*
X167728050Y-84161658D01*
X167638342Y-84071950D01*
X167525304Y-84014354D01*
X167515515Y-84012804D01*
X167515513Y-84012803D01*
X167409793Y-83996059D01*
X167400000Y-83994508D01*
X167390207Y-83996059D01*
X167284487Y-84012803D01*
X167284485Y-84012804D01*
X167274696Y-84014354D01*
X167161658Y-84071950D01*
X167071950Y-84161658D01*
X167014354Y-84274696D01*
X167012804Y-84284485D01*
X167012803Y-84284487D01*
X167004374Y-84337707D01*
X166994508Y-84400000D01*
X128800500Y-84400000D01*
X128800500Y-83000000D01*
X139794318Y-83000000D01*
X139814956Y-83156762D01*
X139875464Y-83302841D01*
X139971718Y-83428282D01*
X140097159Y-83524536D01*
X140243238Y-83585044D01*
X140400000Y-83605682D01*
X140408188Y-83604604D01*
X140548574Y-83586122D01*
X140556762Y-83585044D01*
X140702841Y-83524536D01*
X140828282Y-83428282D01*
X140924536Y-83302841D01*
X140985044Y-83156762D01*
X141005682Y-83000000D01*
X141394318Y-83000000D01*
X141414956Y-83156762D01*
X141475464Y-83302841D01*
X141571718Y-83428282D01*
X141697159Y-83524536D01*
X141843238Y-83585044D01*
X142000000Y-83605682D01*
X142008188Y-83604604D01*
X142148574Y-83586122D01*
X142156762Y-83585044D01*
X142302841Y-83524536D01*
X142428282Y-83428282D01*
X142524536Y-83302841D01*
X142585044Y-83156762D01*
X142605682Y-83000000D01*
X142994318Y-83000000D01*
X143014956Y-83156762D01*
X143075464Y-83302841D01*
X143171718Y-83428282D01*
X143297159Y-83524536D01*
X143443238Y-83585044D01*
X143600000Y-83605682D01*
X143608188Y-83604604D01*
X143748574Y-83586122D01*
X143756762Y-83585044D01*
X143902841Y-83524536D01*
X144028282Y-83428282D01*
X144124536Y-83302841D01*
X144185044Y-83156762D01*
X144205682Y-83000000D01*
X144594318Y-83000000D01*
X144614956Y-83156762D01*
X144675464Y-83302841D01*
X144771718Y-83428282D01*
X144897159Y-83524536D01*
X145043238Y-83585044D01*
X145200000Y-83605682D01*
X145208188Y-83604604D01*
X145348574Y-83586122D01*
X145356762Y-83585044D01*
X145502841Y-83524536D01*
X145628282Y-83428282D01*
X145724536Y-83302841D01*
X145785044Y-83156762D01*
X145805682Y-83000000D01*
X146994318Y-83000000D01*
X147014956Y-83156762D01*
X147075464Y-83302841D01*
X147171718Y-83428282D01*
X147297159Y-83524536D01*
X147443238Y-83585044D01*
X147600000Y-83605682D01*
X147608188Y-83604604D01*
X147748574Y-83586122D01*
X147756762Y-83585044D01*
X147902841Y-83524536D01*
X148028282Y-83428282D01*
X148124536Y-83302841D01*
X148185044Y-83156762D01*
X148205682Y-83000000D01*
X148994318Y-83000000D01*
X149014956Y-83156762D01*
X149075464Y-83302841D01*
X149171718Y-83428282D01*
X149297159Y-83524536D01*
X149443238Y-83585044D01*
X149600000Y-83605682D01*
X149608188Y-83604604D01*
X149748574Y-83586122D01*
X149756762Y-83585044D01*
X149902841Y-83524536D01*
X150028282Y-83428282D01*
X150124536Y-83302841D01*
X150185044Y-83156762D01*
X150205682Y-83000000D01*
X151594318Y-83000000D01*
X151614956Y-83156762D01*
X151675464Y-83302841D01*
X151771718Y-83428282D01*
X151897159Y-83524536D01*
X152043238Y-83585044D01*
X152200000Y-83605682D01*
X152208188Y-83604604D01*
X152348574Y-83586122D01*
X152356762Y-83585044D01*
X152502841Y-83524536D01*
X152628282Y-83428282D01*
X152724536Y-83302841D01*
X152785044Y-83156762D01*
X152805682Y-83000000D01*
X152785044Y-82843238D01*
X152724536Y-82697159D01*
X152628282Y-82571718D01*
X152502841Y-82475464D01*
X152356762Y-82414956D01*
X152200000Y-82394318D01*
X152043238Y-82414956D01*
X151897159Y-82475464D01*
X151771718Y-82571718D01*
X151675464Y-82697159D01*
X151614956Y-82843238D01*
X151594318Y-83000000D01*
X150205682Y-83000000D01*
X150185044Y-82843238D01*
X150124536Y-82697159D01*
X150028282Y-82571718D01*
X149902841Y-82475464D01*
X149756762Y-82414956D01*
X149600000Y-82394318D01*
X149443238Y-82414956D01*
X149297159Y-82475464D01*
X149171718Y-82571718D01*
X149075464Y-82697159D01*
X149014956Y-82843238D01*
X148994318Y-83000000D01*
X148205682Y-83000000D01*
X148185044Y-82843238D01*
X148124536Y-82697159D01*
X148028282Y-82571718D01*
X147902841Y-82475464D01*
X147756762Y-82414956D01*
X147600000Y-82394318D01*
X147443238Y-82414956D01*
X147297159Y-82475464D01*
X147171718Y-82571718D01*
X147075464Y-82697159D01*
X147014956Y-82843238D01*
X146994318Y-83000000D01*
X145805682Y-83000000D01*
X145785044Y-82843238D01*
X145724536Y-82697159D01*
X145628282Y-82571718D01*
X145502841Y-82475464D01*
X145356762Y-82414956D01*
X145200000Y-82394318D01*
X145043238Y-82414956D01*
X144897159Y-82475464D01*
X144771718Y-82571718D01*
X144675464Y-82697159D01*
X144614956Y-82843238D01*
X144594318Y-83000000D01*
X144205682Y-83000000D01*
X144185044Y-82843238D01*
X144124536Y-82697159D01*
X144028282Y-82571718D01*
X143902841Y-82475464D01*
X143756762Y-82414956D01*
X143600000Y-82394318D01*
X143443238Y-82414956D01*
X143297159Y-82475464D01*
X143171718Y-82571718D01*
X143075464Y-82697159D01*
X143014956Y-82843238D01*
X142994318Y-83000000D01*
X142605682Y-83000000D01*
X142585044Y-82843238D01*
X142524536Y-82697159D01*
X142428282Y-82571718D01*
X142302841Y-82475464D01*
X142156762Y-82414956D01*
X142000000Y-82394318D01*
X141843238Y-82414956D01*
X141697159Y-82475464D01*
X141571718Y-82571718D01*
X141475464Y-82697159D01*
X141414956Y-82843238D01*
X141394318Y-83000000D01*
X141005682Y-83000000D01*
X140985044Y-82843238D01*
X140924536Y-82697159D01*
X140828282Y-82571718D01*
X140702841Y-82475464D01*
X140556762Y-82414956D01*
X140400000Y-82394318D01*
X140243238Y-82414956D01*
X140097159Y-82475464D01*
X139971718Y-82571718D01*
X139875464Y-82697159D01*
X139814956Y-82843238D01*
X139794318Y-83000000D01*
X128800500Y-83000000D01*
X128800500Y-81600000D01*
X174794508Y-81600000D01*
X174814354Y-81725304D01*
X174871950Y-81838342D01*
X174961658Y-81928050D01*
X175074696Y-81985646D01*
X175084485Y-81987196D01*
X175084487Y-81987197D01*
X175190207Y-82003941D01*
X175200000Y-82005492D01*
X175209793Y-82003941D01*
X175315513Y-81987197D01*
X175315515Y-81987196D01*
X175325304Y-81985646D01*
X175438342Y-81928050D01*
X175528050Y-81838342D01*
X175585646Y-81725304D01*
X175605492Y-81600000D01*
X175590727Y-81506776D01*
X175587197Y-81484487D01*
X175587196Y-81484485D01*
X175585646Y-81474696D01*
X175528050Y-81361658D01*
X175438342Y-81271950D01*
X175325304Y-81214354D01*
X175315515Y-81212804D01*
X175315513Y-81212803D01*
X175209793Y-81196059D01*
X175200000Y-81194508D01*
X175190207Y-81196059D01*
X175084487Y-81212803D01*
X175084485Y-81212804D01*
X175074696Y-81214354D01*
X174961658Y-81271950D01*
X174871950Y-81361658D01*
X174814354Y-81474696D01*
X174812804Y-81484485D01*
X174812803Y-81484487D01*
X174809273Y-81506776D01*
X174794508Y-81600000D01*
X128800500Y-81600000D01*
X128800500Y-78800000D01*
X155194508Y-78800000D01*
X155196059Y-78809793D01*
X155212092Y-78911019D01*
X155214354Y-78925304D01*
X155271950Y-79038342D01*
X155361658Y-79128050D01*
X155474696Y-79185646D01*
X155484485Y-79187196D01*
X155484487Y-79187197D01*
X155590207Y-79203941D01*
X155600000Y-79205492D01*
X155609793Y-79203941D01*
X155715513Y-79187197D01*
X155715515Y-79187196D01*
X155725304Y-79185646D01*
X155838342Y-79128050D01*
X155928050Y-79038342D01*
X155985646Y-78925304D01*
X155987588Y-78926294D01*
X156020241Y-78878542D01*
X156085638Y-78850905D01*
X156155595Y-78863012D01*
X156207900Y-78911019D01*
X156214317Y-78925068D01*
X156214354Y-78925304D01*
X156271950Y-79038342D01*
X156361658Y-79128050D01*
X156474696Y-79185646D01*
X156484485Y-79187196D01*
X156484487Y-79187197D01*
X156590207Y-79203941D01*
X156600000Y-79205492D01*
X156609793Y-79203941D01*
X156715513Y-79187197D01*
X156715515Y-79187196D01*
X156725304Y-79185646D01*
X156838342Y-79128050D01*
X156928050Y-79038342D01*
X156985646Y-78925304D01*
X156987909Y-78911019D01*
X157003941Y-78809793D01*
X157005492Y-78800000D01*
X174794508Y-78800000D01*
X174796059Y-78809793D01*
X174812092Y-78911019D01*
X174814354Y-78925304D01*
X174871950Y-79038342D01*
X174961658Y-79128050D01*
X175074696Y-79185646D01*
X175084485Y-79187196D01*
X175084487Y-79187197D01*
X175190207Y-79203941D01*
X175200000Y-79205492D01*
X175209793Y-79203941D01*
X175315513Y-79187197D01*
X175315515Y-79187196D01*
X175325304Y-79185646D01*
X175438342Y-79128050D01*
X175528050Y-79038342D01*
X175585646Y-78925304D01*
X175587909Y-78911019D01*
X175589654Y-78900000D01*
X178694508Y-78900000D01*
X178696059Y-78909793D01*
X178698673Y-78926294D01*
X178714354Y-79025304D01*
X178771950Y-79138342D01*
X178861658Y-79228050D01*
X178974696Y-79285646D01*
X178984485Y-79287196D01*
X178984487Y-79287197D01*
X179090207Y-79303941D01*
X179100000Y-79305492D01*
X179109793Y-79303941D01*
X179215513Y-79287197D01*
X179215515Y-79287196D01*
X179225304Y-79285646D01*
X179338342Y-79228050D01*
X179428050Y-79138342D01*
X179485646Y-79025304D01*
X179489654Y-79000000D01*
X182194508Y-79000000D01*
X182214354Y-79125304D01*
X182271950Y-79238342D01*
X182361658Y-79328050D01*
X182474696Y-79385646D01*
X182484485Y-79387196D01*
X182484487Y-79387197D01*
X182590207Y-79403941D01*
X182600000Y-79405492D01*
X182609793Y-79403941D01*
X182715513Y-79387197D01*
X182715515Y-79387196D01*
X182725304Y-79385646D01*
X182838342Y-79328050D01*
X182928050Y-79238342D01*
X182985646Y-79125304D01*
X183005492Y-79000000D01*
X183003941Y-78990207D01*
X182987197Y-78884487D01*
X182987196Y-78884485D01*
X182985646Y-78874696D01*
X182928050Y-78761658D01*
X182838342Y-78671950D01*
X182725304Y-78614354D01*
X182715515Y-78612804D01*
X182715513Y-78612803D01*
X182609793Y-78596059D01*
X182600000Y-78594508D01*
X182590207Y-78596059D01*
X182484487Y-78612803D01*
X182484485Y-78612804D01*
X182474696Y-78614354D01*
X182361658Y-78671950D01*
X182271950Y-78761658D01*
X182214354Y-78874696D01*
X182212804Y-78884485D01*
X182212803Y-78884487D01*
X182196059Y-78990207D01*
X182194508Y-79000000D01*
X179489654Y-79000000D01*
X179501328Y-78926294D01*
X179503941Y-78909793D01*
X179505492Y-78900000D01*
X179485646Y-78774696D01*
X179428050Y-78661658D01*
X179338342Y-78571950D01*
X179225304Y-78514354D01*
X179215515Y-78512804D01*
X179215513Y-78512803D01*
X179109793Y-78496059D01*
X179100000Y-78494508D01*
X179090207Y-78496059D01*
X178984487Y-78512803D01*
X178984485Y-78512804D01*
X178974696Y-78514354D01*
X178861658Y-78571950D01*
X178771950Y-78661658D01*
X178714354Y-78774696D01*
X178694508Y-78900000D01*
X175589654Y-78900000D01*
X175603941Y-78809793D01*
X175605492Y-78800000D01*
X175593052Y-78721458D01*
X175587197Y-78684487D01*
X175587196Y-78684485D01*
X175585646Y-78674696D01*
X175528050Y-78561658D01*
X175438342Y-78471950D01*
X175325304Y-78414354D01*
X175315515Y-78412804D01*
X175315513Y-78412803D01*
X175209793Y-78396059D01*
X175200000Y-78394508D01*
X175190207Y-78396059D01*
X175084487Y-78412803D01*
X175084485Y-78412804D01*
X175074696Y-78414354D01*
X174961658Y-78471950D01*
X174871950Y-78561658D01*
X174814354Y-78674696D01*
X174812804Y-78684485D01*
X174812803Y-78684487D01*
X174806948Y-78721458D01*
X174794508Y-78800000D01*
X157005492Y-78800000D01*
X156993052Y-78721458D01*
X156987197Y-78684487D01*
X156987196Y-78684485D01*
X156985646Y-78674696D01*
X156928050Y-78561658D01*
X156838342Y-78471950D01*
X156725304Y-78414354D01*
X156715515Y-78412804D01*
X156715513Y-78412803D01*
X156609793Y-78396059D01*
X156600000Y-78394508D01*
X156590207Y-78396059D01*
X156484487Y-78412803D01*
X156484485Y-78412804D01*
X156474696Y-78414354D01*
X156361658Y-78471950D01*
X156271950Y-78561658D01*
X156214354Y-78674696D01*
X156212412Y-78673706D01*
X156179759Y-78721458D01*
X156114362Y-78749095D01*
X156044405Y-78736988D01*
X155992100Y-78688981D01*
X155985683Y-78674932D01*
X155985646Y-78674696D01*
X155928050Y-78561658D01*
X155838342Y-78471950D01*
X155725304Y-78414354D01*
X155715515Y-78412804D01*
X155715513Y-78412803D01*
X155609793Y-78396059D01*
X155600000Y-78394508D01*
X155590207Y-78396059D01*
X155484487Y-78412803D01*
X155484485Y-78412804D01*
X155474696Y-78414354D01*
X155361658Y-78471950D01*
X155271950Y-78561658D01*
X155214354Y-78674696D01*
X155212804Y-78684485D01*
X155212803Y-78684487D01*
X155206948Y-78721458D01*
X155194508Y-78800000D01*
X128800500Y-78800000D01*
X128800500Y-77200000D01*
X150194508Y-77200000D01*
X150196059Y-77209793D01*
X150211320Y-77306145D01*
X150214354Y-77325304D01*
X150271950Y-77438342D01*
X150361658Y-77528050D01*
X150474696Y-77585646D01*
X150484485Y-77587196D01*
X150484487Y-77587197D01*
X150590207Y-77603941D01*
X150600000Y-77605492D01*
X150609793Y-77603941D01*
X150634676Y-77600000D01*
X155194508Y-77600000D01*
X155196059Y-77609793D01*
X155212092Y-77711019D01*
X155214354Y-77725304D01*
X155271950Y-77838342D01*
X155361658Y-77928050D01*
X155474696Y-77985646D01*
X155484485Y-77987196D01*
X155484487Y-77987197D01*
X155590207Y-78003941D01*
X155600000Y-78005492D01*
X155609793Y-78003941D01*
X155715513Y-77987197D01*
X155715515Y-77987196D01*
X155725304Y-77985646D01*
X155838342Y-77928050D01*
X155928050Y-77838342D01*
X155985646Y-77725304D01*
X155987588Y-77726294D01*
X156020241Y-77678542D01*
X156085638Y-77650905D01*
X156155595Y-77663012D01*
X156207900Y-77711019D01*
X156214317Y-77725068D01*
X156214354Y-77725304D01*
X156271950Y-77838342D01*
X156361658Y-77928050D01*
X156474696Y-77985646D01*
X156484485Y-77987196D01*
X156484487Y-77987197D01*
X156590207Y-78003941D01*
X156600000Y-78005492D01*
X156609793Y-78003941D01*
X156715513Y-77987197D01*
X156715515Y-77987196D01*
X156725304Y-77985646D01*
X156838342Y-77928050D01*
X156928050Y-77838342D01*
X156985646Y-77725304D01*
X156987909Y-77711019D01*
X157003941Y-77609793D01*
X157005492Y-77600000D01*
X156994809Y-77532550D01*
X156987197Y-77484487D01*
X156987196Y-77484485D01*
X156985646Y-77474696D01*
X156928050Y-77361658D01*
X156838342Y-77271950D01*
X156725304Y-77214354D01*
X156715515Y-77212804D01*
X156715513Y-77212803D01*
X156609793Y-77196059D01*
X156600000Y-77194508D01*
X156590207Y-77196059D01*
X156484487Y-77212803D01*
X156484485Y-77212804D01*
X156474696Y-77214354D01*
X156361658Y-77271950D01*
X156271950Y-77361658D01*
X156214354Y-77474696D01*
X156212412Y-77473706D01*
X156179759Y-77521458D01*
X156114362Y-77549095D01*
X156044405Y-77536988D01*
X155992100Y-77488981D01*
X155985683Y-77474932D01*
X155985646Y-77474696D01*
X155928050Y-77361658D01*
X155838342Y-77271950D01*
X155725304Y-77214354D01*
X155715515Y-77212804D01*
X155715513Y-77212803D01*
X155609793Y-77196059D01*
X155600000Y-77194508D01*
X155590207Y-77196059D01*
X155484487Y-77212803D01*
X155484485Y-77212804D01*
X155474696Y-77214354D01*
X155361658Y-77271950D01*
X155271950Y-77361658D01*
X155214354Y-77474696D01*
X155212804Y-77484485D01*
X155212803Y-77484487D01*
X155205191Y-77532550D01*
X155194508Y-77600000D01*
X150634676Y-77600000D01*
X150715513Y-77587197D01*
X150715515Y-77587196D01*
X150725304Y-77585646D01*
X150838342Y-77528050D01*
X150928050Y-77438342D01*
X150985646Y-77325304D01*
X150988681Y-77306145D01*
X151003941Y-77209793D01*
X151005492Y-77200000D01*
X151003941Y-77190207D01*
X150987197Y-77084487D01*
X150987196Y-77084485D01*
X150985646Y-77074696D01*
X150928050Y-76961658D01*
X150891392Y-76925000D01*
X172269508Y-76925000D01*
X172271059Y-76934793D01*
X172274204Y-76954647D01*
X172289354Y-77050304D01*
X172346950Y-77163342D01*
X172436658Y-77253050D01*
X172549696Y-77310646D01*
X172559485Y-77312196D01*
X172559487Y-77312197D01*
X172665207Y-77328941D01*
X172675000Y-77330492D01*
X172684793Y-77328941D01*
X172790513Y-77312197D01*
X172790515Y-77312196D01*
X172800304Y-77310646D01*
X172913342Y-77253050D01*
X173003050Y-77163342D01*
X173060646Y-77050304D01*
X173075797Y-76954647D01*
X173078941Y-76934793D01*
X173080492Y-76925000D01*
X173076539Y-76900039D01*
X173062197Y-76809487D01*
X173062196Y-76809485D01*
X173060646Y-76799696D01*
X173003050Y-76686658D01*
X172913342Y-76596950D01*
X172800304Y-76539354D01*
X172790515Y-76537804D01*
X172790513Y-76537803D01*
X172684793Y-76521059D01*
X172675000Y-76519508D01*
X172665207Y-76521059D01*
X172559487Y-76537803D01*
X172559485Y-76537804D01*
X172549696Y-76539354D01*
X172436658Y-76596950D01*
X172346950Y-76686658D01*
X172289354Y-76799696D01*
X172287804Y-76809485D01*
X172287803Y-76809487D01*
X172273461Y-76900039D01*
X172269508Y-76925000D01*
X150891392Y-76925000D01*
X150887405Y-76921013D01*
X150853379Y-76858701D01*
X150850500Y-76831918D01*
X150850500Y-75800000D01*
X185394508Y-75800000D01*
X185414354Y-75925304D01*
X185471950Y-76038342D01*
X185561658Y-76128050D01*
X185674696Y-76185646D01*
X185684485Y-76187196D01*
X185684487Y-76187197D01*
X185790207Y-76203941D01*
X185800000Y-76205492D01*
X185809793Y-76203941D01*
X185915513Y-76187197D01*
X185915515Y-76187196D01*
X185925304Y-76185646D01*
X186038342Y-76128050D01*
X186128050Y-76038342D01*
X186185646Y-75925304D01*
X186205492Y-75800000D01*
X186199585Y-75762703D01*
X186187197Y-75684487D01*
X186187196Y-75684485D01*
X186185646Y-75674696D01*
X186128050Y-75561658D01*
X186038342Y-75471950D01*
X185925304Y-75414354D01*
X185915515Y-75412804D01*
X185915513Y-75412803D01*
X185809793Y-75396059D01*
X185800000Y-75394508D01*
X185790207Y-75396059D01*
X185684487Y-75412803D01*
X185684485Y-75412804D01*
X185674696Y-75414354D01*
X185561658Y-75471950D01*
X185471950Y-75561658D01*
X185414354Y-75674696D01*
X185412804Y-75684485D01*
X185412803Y-75684487D01*
X185400415Y-75762703D01*
X185394508Y-75800000D01*
X150850500Y-75800000D01*
X150850500Y-74368082D01*
X150870502Y-74299961D01*
X150887405Y-74278987D01*
X150928050Y-74238342D01*
X150985646Y-74125304D01*
X150992409Y-74082607D01*
X151003941Y-74009793D01*
X151005492Y-74000000D01*
X150985646Y-73874696D01*
X150928050Y-73761658D01*
X150838342Y-73671950D01*
X150725304Y-73614354D01*
X150715515Y-73612804D01*
X150715513Y-73612803D01*
X150609793Y-73596059D01*
X150600000Y-73594508D01*
X150590207Y-73596059D01*
X150484487Y-73612803D01*
X150484485Y-73612804D01*
X150474696Y-73614354D01*
X150361658Y-73671950D01*
X150271950Y-73761658D01*
X150214354Y-73874696D01*
X150194508Y-74000000D01*
X150196059Y-74009793D01*
X150207592Y-74082607D01*
X150214354Y-74125304D01*
X150271950Y-74238342D01*
X150312595Y-74278987D01*
X150346621Y-74341299D01*
X150349500Y-74368082D01*
X150349500Y-76831918D01*
X150329498Y-76900039D01*
X150312595Y-76921013D01*
X150271950Y-76961658D01*
X150214354Y-77074696D01*
X150212804Y-77084485D01*
X150212803Y-77084487D01*
X150196059Y-77190207D01*
X150194508Y-77200000D01*
X128800500Y-77200000D01*
X128800500Y-74607966D01*
X131268257Y-74607966D01*
X131298565Y-74742446D01*
X131301645Y-74752275D01*
X131381770Y-74949603D01*
X131386413Y-74958794D01*
X131497694Y-75140388D01*
X131503777Y-75148699D01*
X131643213Y-75309667D01*
X131650580Y-75316883D01*
X131814434Y-75452916D01*
X131822881Y-75458831D01*
X132006756Y-75566279D01*
X132016042Y-75570729D01*
X132215001Y-75646703D01*
X132224899Y-75649579D01*
X132328250Y-75670606D01*
X132342299Y-75669410D01*
X132346000Y-75659065D01*
X132346000Y-75658517D01*
X132854000Y-75658517D01*
X132858064Y-75672359D01*
X132871478Y-75674393D01*
X132878184Y-75673534D01*
X132888262Y-75671392D01*
X133092255Y-75610191D01*
X133101842Y-75606433D01*
X133293095Y-75512739D01*
X133301945Y-75507464D01*
X133475328Y-75383792D01*
X133483200Y-75377139D01*
X133634052Y-75226812D01*
X133640730Y-75218965D01*
X133765003Y-75046020D01*
X133770313Y-75037183D01*
X133864670Y-74846267D01*
X133868469Y-74836672D01*
X133930377Y-74632910D01*
X133932555Y-74622837D01*
X133933986Y-74611962D01*
X133931775Y-74597778D01*
X133918617Y-74594000D01*
X132872115Y-74594000D01*
X132856876Y-74598475D01*
X132855671Y-74599865D01*
X132854000Y-74607548D01*
X132854000Y-75658517D01*
X132346000Y-75658517D01*
X132346000Y-74612115D01*
X132341525Y-74596876D01*
X132340135Y-74595671D01*
X132332452Y-74594000D01*
X131283225Y-74594000D01*
X131269694Y-74597973D01*
X131268257Y-74607966D01*
X128800500Y-74607966D01*
X128800500Y-74074183D01*
X131264389Y-74074183D01*
X131265912Y-74082607D01*
X131278292Y-74086000D01*
X133918344Y-74086000D01*
X133931875Y-74082027D01*
X133933180Y-74072947D01*
X133891214Y-73905875D01*
X133887894Y-73896124D01*
X133802972Y-73700814D01*
X133798105Y-73691739D01*
X133682426Y-73512926D01*
X133676136Y-73504757D01*
X133532806Y-73347240D01*
X133525273Y-73340215D01*
X133358139Y-73208222D01*
X133349552Y-73202517D01*
X133163117Y-73099599D01*
X133153705Y-73095369D01*
X133153435Y-73095273D01*
X133153341Y-73095205D01*
X133148989Y-73093249D01*
X133149393Y-73092351D01*
X133095899Y-73053679D01*
X133074852Y-73000000D01*
X182194508Y-73000000D01*
X182196059Y-73009793D01*
X182209598Y-73095273D01*
X182214354Y-73125304D01*
X182247337Y-73190036D01*
X182260767Y-73216394D01*
X182274500Y-73273597D01*
X182274500Y-73580290D01*
X182274020Y-73591272D01*
X182272001Y-73614354D01*
X182270736Y-73628807D01*
X182273590Y-73639456D01*
X182280491Y-73665210D01*
X182282870Y-73675942D01*
X182289412Y-73713045D01*
X182294923Y-73722590D01*
X182296115Y-73725866D01*
X182297592Y-73729034D01*
X182300446Y-73739684D01*
X182315833Y-73761658D01*
X182322055Y-73770544D01*
X182327961Y-73779815D01*
X182341295Y-73802910D01*
X182346806Y-73812455D01*
X182355248Y-73819539D01*
X182375681Y-73836685D01*
X182383783Y-73844110D01*
X183555895Y-75016222D01*
X183563321Y-75024325D01*
X183587545Y-75053194D01*
X183597088Y-75058704D01*
X183597092Y-75058707D01*
X183620179Y-75072036D01*
X183629448Y-75077940D01*
X183660316Y-75099554D01*
X183670964Y-75102407D01*
X183674135Y-75103886D01*
X183677411Y-75105078D01*
X183686955Y-75110588D01*
X183724076Y-75117134D01*
X183734783Y-75119508D01*
X183771193Y-75129263D01*
X183782168Y-75128303D01*
X183782170Y-75128303D01*
X183808731Y-75125979D01*
X183819712Y-75125500D01*
X186412984Y-75125500D01*
X186481105Y-75145502D01*
X186502079Y-75162405D01*
X187693388Y-76353714D01*
X187700815Y-76361818D01*
X187725044Y-76390693D01*
X187734593Y-76396206D01*
X187757684Y-76409538D01*
X187766955Y-76415444D01*
X187797815Y-76437053D01*
X187808468Y-76439908D01*
X187811630Y-76441382D01*
X187814906Y-76442574D01*
X187824454Y-76448087D01*
X187835309Y-76450001D01*
X187835314Y-76450003D01*
X187861564Y-76454632D01*
X187872291Y-76457010D01*
X187898047Y-76463911D01*
X187898050Y-76463911D01*
X187908693Y-76466763D01*
X187919668Y-76465803D01*
X187919670Y-76465803D01*
X187946243Y-76463478D01*
X187957224Y-76462999D01*
X190293215Y-76462999D01*
X190361336Y-76483001D01*
X190393178Y-76512295D01*
X190434219Y-76565781D01*
X190559660Y-76662035D01*
X190705739Y-76722543D01*
X190862501Y-76743181D01*
X190870689Y-76742103D01*
X191011075Y-76723621D01*
X191019263Y-76722543D01*
X191165342Y-76662035D01*
X191290783Y-76565781D01*
X191387037Y-76440340D01*
X191447545Y-76294261D01*
X191468183Y-76137499D01*
X191447545Y-75980737D01*
X191387037Y-75834658D01*
X191360443Y-75800000D01*
X193194508Y-75800000D01*
X193214354Y-75925304D01*
X193271950Y-76038342D01*
X193361658Y-76128050D01*
X193474696Y-76185646D01*
X193484485Y-76187196D01*
X193484487Y-76187197D01*
X193590207Y-76203941D01*
X193600000Y-76205492D01*
X193609793Y-76203941D01*
X193715513Y-76187197D01*
X193715515Y-76187196D01*
X193725304Y-76185646D01*
X193838342Y-76128050D01*
X193928050Y-76038342D01*
X193985646Y-75925304D01*
X194005492Y-75800000D01*
X196794508Y-75800000D01*
X196814354Y-75925304D01*
X196871950Y-76038342D01*
X196961658Y-76128050D01*
X197074696Y-76185646D01*
X197084485Y-76187196D01*
X197084487Y-76187197D01*
X197190207Y-76203941D01*
X197200000Y-76205492D01*
X197209793Y-76203941D01*
X197315513Y-76187197D01*
X197315515Y-76187196D01*
X197325304Y-76185646D01*
X197438342Y-76128050D01*
X197528050Y-76038342D01*
X197585646Y-75925304D01*
X197605492Y-75800000D01*
X197599585Y-75762703D01*
X197587197Y-75684487D01*
X197587196Y-75684485D01*
X197585646Y-75674696D01*
X197528050Y-75561658D01*
X197438342Y-75471950D01*
X197325304Y-75414354D01*
X197315515Y-75412804D01*
X197315513Y-75412803D01*
X197209793Y-75396059D01*
X197200000Y-75394508D01*
X197190207Y-75396059D01*
X197084487Y-75412803D01*
X197084485Y-75412804D01*
X197074696Y-75414354D01*
X196961658Y-75471950D01*
X196871950Y-75561658D01*
X196814354Y-75674696D01*
X196812804Y-75684485D01*
X196812803Y-75684487D01*
X196800415Y-75762703D01*
X196794508Y-75800000D01*
X194005492Y-75800000D01*
X193999585Y-75762703D01*
X193987197Y-75684487D01*
X193987196Y-75684485D01*
X193985646Y-75674696D01*
X193928050Y-75561658D01*
X193838342Y-75471950D01*
X193725304Y-75414354D01*
X193715515Y-75412804D01*
X193715513Y-75412803D01*
X193609793Y-75396059D01*
X193600000Y-75394508D01*
X193590207Y-75396059D01*
X193484487Y-75412803D01*
X193484485Y-75412804D01*
X193474696Y-75414354D01*
X193361658Y-75471950D01*
X193271950Y-75561658D01*
X193214354Y-75674696D01*
X193212804Y-75684485D01*
X193212803Y-75684487D01*
X193200415Y-75762703D01*
X193194508Y-75800000D01*
X191360443Y-75800000D01*
X191290783Y-75709217D01*
X191165342Y-75612963D01*
X191019263Y-75552455D01*
X190862501Y-75531817D01*
X190705739Y-75552455D01*
X190559660Y-75612963D01*
X190434219Y-75709217D01*
X190429196Y-75715763D01*
X190393178Y-75762703D01*
X190335840Y-75804570D01*
X190293215Y-75811999D01*
X188124515Y-75811999D01*
X188056394Y-75791997D01*
X188035420Y-75775094D01*
X186844111Y-74583785D01*
X186836684Y-74575681D01*
X186819541Y-74555251D01*
X186819542Y-74555251D01*
X186812455Y-74546806D01*
X186802906Y-74541293D01*
X186779815Y-74527961D01*
X186770544Y-74522055D01*
X186748715Y-74506770D01*
X186739684Y-74500446D01*
X186729034Y-74497592D01*
X186725866Y-74496115D01*
X186722590Y-74494923D01*
X186713045Y-74489412D01*
X186679301Y-74483462D01*
X186675942Y-74482870D01*
X186665215Y-74480492D01*
X186628807Y-74470736D01*
X186617822Y-74471697D01*
X186617820Y-74471697D01*
X186591272Y-74474020D01*
X186580290Y-74474500D01*
X183987017Y-74474500D01*
X183918896Y-74454498D01*
X183897927Y-74437600D01*
X182962404Y-73502078D01*
X182928380Y-73439767D01*
X182925500Y-73412984D01*
X182925500Y-73273597D01*
X182939233Y-73216394D01*
X182952663Y-73190036D01*
X182985646Y-73125304D01*
X182990403Y-73095273D01*
X183003941Y-73009793D01*
X183005492Y-73000000D01*
X182985646Y-72874696D01*
X182928050Y-72761658D01*
X182838342Y-72671950D01*
X182725304Y-72614354D01*
X182715515Y-72612804D01*
X182715513Y-72612803D01*
X182609793Y-72596059D01*
X182600000Y-72594508D01*
X182590207Y-72596059D01*
X182484487Y-72612803D01*
X182484485Y-72612804D01*
X182474696Y-72614354D01*
X182361658Y-72671950D01*
X182271950Y-72761658D01*
X182214354Y-72874696D01*
X182194508Y-73000000D01*
X133074852Y-73000000D01*
X133069983Y-72987581D01*
X133083917Y-72917965D01*
X133133276Y-72866934D01*
X133195495Y-72850500D01*
X133469748Y-72850500D01*
X133475816Y-72849293D01*
X133516061Y-72841288D01*
X133516062Y-72841288D01*
X133528231Y-72838867D01*
X133594552Y-72794552D01*
X133638867Y-72728231D01*
X133650500Y-72669748D01*
X133650500Y-72000000D01*
X187194508Y-72000000D01*
X187196059Y-72009793D01*
X187212704Y-72114884D01*
X187214354Y-72125304D01*
X187271950Y-72238342D01*
X187361658Y-72328050D01*
X187474696Y-72385646D01*
X187484485Y-72387196D01*
X187484487Y-72387197D01*
X187590207Y-72403941D01*
X187600000Y-72405492D01*
X187609793Y-72403941D01*
X187715513Y-72387197D01*
X187715515Y-72387196D01*
X187725304Y-72385646D01*
X187838342Y-72328050D01*
X187928050Y-72238342D01*
X187985646Y-72125304D01*
X187987297Y-72114884D01*
X188003941Y-72009793D01*
X188005492Y-72000000D01*
X187985646Y-71874696D01*
X187928050Y-71761658D01*
X187838342Y-71671950D01*
X187725304Y-71614354D01*
X187715515Y-71612804D01*
X187715513Y-71612803D01*
X187609793Y-71596059D01*
X187600000Y-71594508D01*
X187590207Y-71596059D01*
X187484487Y-71612803D01*
X187484485Y-71612804D01*
X187474696Y-71614354D01*
X187361658Y-71671950D01*
X187271950Y-71761658D01*
X187214354Y-71874696D01*
X187194508Y-72000000D01*
X133650500Y-72000000D01*
X133650500Y-71000000D01*
X196794508Y-71000000D01*
X196796059Y-71009793D01*
X196803871Y-71059114D01*
X196814354Y-71125304D01*
X196871950Y-71238342D01*
X196961658Y-71328050D01*
X197074696Y-71385646D01*
X197084485Y-71387196D01*
X197084487Y-71387197D01*
X197190207Y-71403941D01*
X197200000Y-71405492D01*
X197209793Y-71403941D01*
X197315513Y-71387197D01*
X197315515Y-71387196D01*
X197325304Y-71385646D01*
X197438342Y-71328050D01*
X197528050Y-71238342D01*
X197572752Y-71150609D01*
X204186721Y-71150609D01*
X204191630Y-71157167D01*
X204275150Y-71203844D01*
X204286390Y-71208755D01*
X204459877Y-71265124D01*
X204471851Y-71267757D01*
X204652992Y-71289357D01*
X204665241Y-71289614D01*
X204847125Y-71275619D01*
X204859195Y-71273490D01*
X204902117Y-71261506D01*
X204973108Y-71262453D01*
X205032317Y-71301629D01*
X205060946Y-71366597D01*
X205062001Y-71382865D01*
X205062001Y-71669669D01*
X205062371Y-71676490D01*
X205067895Y-71727352D01*
X205071521Y-71742604D01*
X205116676Y-71863054D01*
X205125214Y-71878649D01*
X205201715Y-71980724D01*
X205214276Y-71993285D01*
X205316351Y-72069786D01*
X205331946Y-72078324D01*
X205452394Y-72123478D01*
X205467649Y-72127105D01*
X205518514Y-72132631D01*
X205525328Y-72133000D01*
X207392885Y-72133000D01*
X207408124Y-72128525D01*
X207409329Y-72127135D01*
X207411000Y-72119452D01*
X207411000Y-70564615D01*
X207406525Y-70549376D01*
X207405135Y-70548171D01*
X207397452Y-70546500D01*
X205373115Y-70546500D01*
X205357876Y-70550975D01*
X205356671Y-70552365D01*
X205355000Y-70560048D01*
X205355000Y-70944500D01*
X205334998Y-71012621D01*
X205281342Y-71059114D01*
X205229000Y-71070500D01*
X205021000Y-71070500D01*
X204952879Y-71050498D01*
X204906386Y-70996842D01*
X204895000Y-70944500D01*
X204895000Y-70454825D01*
X204891763Y-70443800D01*
X204884672Y-70447038D01*
X204193481Y-71138229D01*
X204186721Y-71150609D01*
X197572752Y-71150609D01*
X197585646Y-71125304D01*
X197596130Y-71059114D01*
X197603941Y-71009793D01*
X197605492Y-71000000D01*
X197585646Y-70874696D01*
X197528050Y-70761658D01*
X197438342Y-70671950D01*
X197325304Y-70614354D01*
X197315515Y-70612804D01*
X197315513Y-70612803D01*
X197209793Y-70596059D01*
X197200000Y-70594508D01*
X197190207Y-70596059D01*
X197084487Y-70612803D01*
X197084485Y-70612804D01*
X197074696Y-70614354D01*
X196961658Y-70671950D01*
X196871950Y-70761658D01*
X196814354Y-70874696D01*
X196794508Y-71000000D01*
X133650500Y-71000000D01*
X133650500Y-70930252D01*
X133638867Y-70871769D01*
X133594552Y-70805448D01*
X133528231Y-70761133D01*
X133516062Y-70758712D01*
X133516061Y-70758712D01*
X133475816Y-70750707D01*
X133469748Y-70749500D01*
X131730252Y-70749500D01*
X131724184Y-70750707D01*
X131683939Y-70758712D01*
X131683938Y-70758712D01*
X131671769Y-70761133D01*
X131605448Y-70805448D01*
X131561133Y-70871769D01*
X131549500Y-70930252D01*
X131549500Y-72669748D01*
X131561133Y-72728231D01*
X131605448Y-72794552D01*
X131671769Y-72838867D01*
X131683938Y-72841288D01*
X131683939Y-72841288D01*
X131724184Y-72849293D01*
X131730252Y-72850500D01*
X132005233Y-72850500D01*
X132073354Y-72870502D01*
X132119847Y-72924158D01*
X132129951Y-72994432D01*
X132100457Y-73059012D01*
X132063413Y-73088263D01*
X131878463Y-73184542D01*
X131869738Y-73190036D01*
X131699433Y-73317905D01*
X131691726Y-73324748D01*
X131544590Y-73478717D01*
X131538104Y-73486727D01*
X131418098Y-73662649D01*
X131413000Y-73671623D01*
X131323338Y-73864783D01*
X131319775Y-73874470D01*
X131264389Y-74074183D01*
X128800500Y-74074183D01*
X128800500Y-70334440D01*
X184369901Y-70334440D01*
X184371065Y-70343342D01*
X184371065Y-70343345D01*
X184373436Y-70361473D01*
X184374500Y-70377810D01*
X184374500Y-70609748D01*
X184375707Y-70615816D01*
X184383281Y-70653891D01*
X184386133Y-70668231D01*
X184430448Y-70734552D01*
X184496769Y-70778867D01*
X184508938Y-70781288D01*
X184508939Y-70781288D01*
X184549184Y-70789293D01*
X184555252Y-70790500D01*
X184817736Y-70790500D01*
X184820045Y-70790521D01*
X184872282Y-70791479D01*
X184872285Y-70791479D01*
X184881255Y-70791643D01*
X184884709Y-70790701D01*
X184887952Y-70790500D01*
X185967736Y-70790500D01*
X185970045Y-70790521D01*
X186022282Y-70791479D01*
X186022285Y-70791479D01*
X186031255Y-70791643D01*
X186034709Y-70790701D01*
X186037952Y-70790500D01*
X186244748Y-70790500D01*
X186250816Y-70789293D01*
X186291061Y-70781288D01*
X186291062Y-70781288D01*
X186303231Y-70778867D01*
X186369552Y-70734552D01*
X186413867Y-70668231D01*
X186416720Y-70653891D01*
X186424293Y-70615816D01*
X186425500Y-70609748D01*
X186425500Y-70388376D01*
X186427246Y-70367472D01*
X186429190Y-70355917D01*
X186429997Y-70351120D01*
X186430133Y-70340000D01*
X186426773Y-70316538D01*
X186425500Y-70298676D01*
X186425500Y-70200000D01*
X187594508Y-70200000D01*
X187596059Y-70209793D01*
X187612649Y-70314536D01*
X187614354Y-70325304D01*
X187671950Y-70438342D01*
X187761658Y-70528050D01*
X187874696Y-70585646D01*
X187884485Y-70587196D01*
X187884487Y-70587197D01*
X187990207Y-70603941D01*
X188000000Y-70605492D01*
X188009793Y-70603941D01*
X188115513Y-70587197D01*
X188115515Y-70587196D01*
X188125304Y-70585646D01*
X188238342Y-70528050D01*
X188328050Y-70438342D01*
X188347586Y-70400000D01*
X192194508Y-70400000D01*
X192196059Y-70409793D01*
X192205038Y-70466482D01*
X192214354Y-70525304D01*
X192271950Y-70638342D01*
X192361658Y-70728050D01*
X192474696Y-70785646D01*
X192484485Y-70787196D01*
X192484487Y-70787197D01*
X192590207Y-70803941D01*
X192600000Y-70805492D01*
X192609793Y-70803941D01*
X192715513Y-70787197D01*
X192715515Y-70787196D01*
X192725304Y-70785646D01*
X192838342Y-70728050D01*
X192928050Y-70638342D01*
X192985646Y-70525304D01*
X192994963Y-70466482D01*
X193003941Y-70409793D01*
X193005492Y-70400000D01*
X193001984Y-70377850D01*
X192987233Y-70284712D01*
X203682808Y-70284712D01*
X203698071Y-70466482D01*
X203700286Y-70478547D01*
X203750565Y-70653891D01*
X203755083Y-70665303D01*
X203812286Y-70776607D01*
X203822007Y-70786828D01*
X203828806Y-70784484D01*
X204307978Y-70305312D01*
X204315592Y-70291368D01*
X204315461Y-70289535D01*
X204311210Y-70282920D01*
X203834166Y-69805876D01*
X203821786Y-69799116D01*
X203815398Y-69803898D01*
X203765854Y-69894016D01*
X203761017Y-69905301D01*
X203705861Y-70079175D01*
X203703313Y-70091164D01*
X203682979Y-70272443D01*
X203682808Y-70284712D01*
X192987233Y-70284712D01*
X192987197Y-70284487D01*
X192987196Y-70284485D01*
X192985646Y-70274696D01*
X192928050Y-70161658D01*
X192838342Y-70071950D01*
X192725304Y-70014354D01*
X192715515Y-70012804D01*
X192715513Y-70012803D01*
X192609793Y-69996059D01*
X192600000Y-69994508D01*
X192590207Y-69996059D01*
X192484487Y-70012803D01*
X192484485Y-70012804D01*
X192474696Y-70014354D01*
X192361658Y-70071950D01*
X192271950Y-70161658D01*
X192214354Y-70274696D01*
X192212804Y-70284485D01*
X192212803Y-70284487D01*
X192198016Y-70377850D01*
X192194508Y-70400000D01*
X188347586Y-70400000D01*
X188385646Y-70325304D01*
X188387352Y-70314536D01*
X188403941Y-70209793D01*
X188405492Y-70200000D01*
X188398309Y-70154647D01*
X188387197Y-70084487D01*
X188387196Y-70084485D01*
X188385646Y-70074696D01*
X188328050Y-69961658D01*
X188238342Y-69871950D01*
X188125304Y-69814354D01*
X188115515Y-69812804D01*
X188115513Y-69812803D01*
X188009793Y-69796059D01*
X188000000Y-69794508D01*
X187990207Y-69796059D01*
X187884487Y-69812803D01*
X187884485Y-69812804D01*
X187874696Y-69814354D01*
X187761658Y-69871950D01*
X187671950Y-69961658D01*
X187614354Y-70074696D01*
X187612804Y-70084485D01*
X187612803Y-70084487D01*
X187601691Y-70154647D01*
X187594508Y-70200000D01*
X186425500Y-70200000D01*
X186425500Y-69448376D01*
X186427246Y-69427472D01*
X186429190Y-69415917D01*
X186429997Y-69411120D01*
X186430133Y-69400000D01*
X193394508Y-69400000D01*
X193414354Y-69525304D01*
X193471950Y-69638342D01*
X193561658Y-69728050D01*
X193674696Y-69785646D01*
X193684485Y-69787196D01*
X193684487Y-69787197D01*
X193790207Y-69803941D01*
X193800000Y-69805492D01*
X193809793Y-69803941D01*
X193915513Y-69787197D01*
X193915515Y-69787196D01*
X193925304Y-69785646D01*
X194038342Y-69728050D01*
X194128050Y-69638342D01*
X194185646Y-69525304D01*
X194205492Y-69400000D01*
X195794508Y-69400000D01*
X195814354Y-69525304D01*
X195871950Y-69638342D01*
X195961658Y-69728050D01*
X196074696Y-69785646D01*
X196084485Y-69787196D01*
X196084487Y-69787197D01*
X196190207Y-69803941D01*
X196200000Y-69805492D01*
X196209793Y-69803941D01*
X196315513Y-69787197D01*
X196315515Y-69787196D01*
X196325304Y-69785646D01*
X196438342Y-69728050D01*
X196528050Y-69638342D01*
X196585646Y-69525304D01*
X196599994Y-69434716D01*
X204185934Y-69434716D01*
X204188389Y-69441679D01*
X204882188Y-70135478D01*
X204892277Y-70140987D01*
X204895000Y-70133686D01*
X204895000Y-69640500D01*
X204915002Y-69572379D01*
X204968658Y-69525886D01*
X205021000Y-69514500D01*
X205229000Y-69514500D01*
X205297121Y-69534502D01*
X205343614Y-69588158D01*
X205355000Y-69640500D01*
X205355000Y-70020385D01*
X205359475Y-70035624D01*
X205360865Y-70036829D01*
X205368548Y-70038500D01*
X207392885Y-70038500D01*
X207408124Y-70034025D01*
X207409329Y-70032635D01*
X207411000Y-70024952D01*
X207411000Y-68470116D01*
X207406525Y-68454877D01*
X207405135Y-68453672D01*
X207397452Y-68452001D01*
X205525331Y-68452001D01*
X205518510Y-68452371D01*
X205467648Y-68457895D01*
X205452396Y-68461521D01*
X205331946Y-68506676D01*
X205316351Y-68515214D01*
X205214276Y-68591715D01*
X205201715Y-68604276D01*
X205125214Y-68706351D01*
X205116676Y-68721946D01*
X205071522Y-68842394D01*
X205067895Y-68857649D01*
X205062369Y-68908514D01*
X205062000Y-68915328D01*
X205062000Y-69200314D01*
X205041998Y-69268435D01*
X204988342Y-69314928D01*
X204918068Y-69325032D01*
X204898742Y-69320679D01*
X204886527Y-69316898D01*
X204874511Y-69314431D01*
X204693094Y-69295363D01*
X204680826Y-69295278D01*
X204499169Y-69311810D01*
X204487120Y-69314108D01*
X204312128Y-69365611D01*
X204300751Y-69370208D01*
X204196083Y-69424927D01*
X204185934Y-69434716D01*
X196599994Y-69434716D01*
X196605492Y-69400000D01*
X196601459Y-69374536D01*
X196587197Y-69284487D01*
X196587196Y-69284485D01*
X196585646Y-69274696D01*
X196528050Y-69161658D01*
X196438342Y-69071950D01*
X196325304Y-69014354D01*
X196315515Y-69012804D01*
X196315513Y-69012803D01*
X196209793Y-68996059D01*
X196200000Y-68994508D01*
X196190207Y-68996059D01*
X196084487Y-69012803D01*
X196084485Y-69012804D01*
X196074696Y-69014354D01*
X195961658Y-69071950D01*
X195871950Y-69161658D01*
X195814354Y-69274696D01*
X195812804Y-69284485D01*
X195812803Y-69284487D01*
X195798541Y-69374536D01*
X195794508Y-69400000D01*
X194205492Y-69400000D01*
X194201459Y-69374536D01*
X194187197Y-69284487D01*
X194187196Y-69284485D01*
X194185646Y-69274696D01*
X194128050Y-69161658D01*
X194038342Y-69071950D01*
X193925304Y-69014354D01*
X193915515Y-69012804D01*
X193915513Y-69012803D01*
X193809793Y-68996059D01*
X193800000Y-68994508D01*
X193790207Y-68996059D01*
X193684487Y-69012803D01*
X193684485Y-69012804D01*
X193674696Y-69014354D01*
X193561658Y-69071950D01*
X193471950Y-69161658D01*
X193414354Y-69274696D01*
X193412804Y-69284485D01*
X193412803Y-69284487D01*
X193398541Y-69374536D01*
X193394508Y-69400000D01*
X186430133Y-69400000D01*
X186426773Y-69376538D01*
X186425500Y-69358676D01*
X186425500Y-68508376D01*
X186427246Y-68487472D01*
X186429190Y-68475917D01*
X186429997Y-68471120D01*
X186430133Y-68460000D01*
X186426773Y-68436538D01*
X186425500Y-68418676D01*
X186425500Y-68190252D01*
X186413867Y-68131769D01*
X186369552Y-68065448D01*
X186303231Y-68021133D01*
X186291062Y-68018712D01*
X186291061Y-68018712D01*
X186250816Y-68010707D01*
X186244748Y-68009500D01*
X185982778Y-68009500D01*
X185982009Y-68009498D01*
X185913231Y-68009078D01*
X185912011Y-68009427D01*
X185910933Y-68009500D01*
X184832778Y-68009500D01*
X184832009Y-68009498D01*
X184763231Y-68009078D01*
X184762011Y-68009427D01*
X184760933Y-68009500D01*
X184555252Y-68009500D01*
X184549184Y-68010707D01*
X184508939Y-68018712D01*
X184508938Y-68018712D01*
X184496769Y-68021133D01*
X184430448Y-68065448D01*
X184386133Y-68131769D01*
X184374500Y-68190252D01*
X184374500Y-68415152D01*
X184373000Y-68434536D01*
X184371282Y-68445567D01*
X184371282Y-68445571D01*
X184369901Y-68454440D01*
X184371065Y-68463342D01*
X184371065Y-68463345D01*
X184373436Y-68481473D01*
X184374500Y-68497810D01*
X184374500Y-69355152D01*
X184373000Y-69374536D01*
X184371282Y-69385567D01*
X184371282Y-69385571D01*
X184369901Y-69394440D01*
X184371065Y-69403342D01*
X184371065Y-69403345D01*
X184373436Y-69421473D01*
X184374500Y-69437810D01*
X184374500Y-70295152D01*
X184373000Y-70314536D01*
X184371282Y-70325567D01*
X184371282Y-70325571D01*
X184369901Y-70334440D01*
X128800500Y-70334440D01*
X128800500Y-66600000D01*
X193394508Y-66600000D01*
X193414354Y-66725304D01*
X193471950Y-66838342D01*
X193561658Y-66928050D01*
X193674696Y-66985646D01*
X193684485Y-66987196D01*
X193684487Y-66987197D01*
X193790207Y-67003941D01*
X193800000Y-67005492D01*
X193809793Y-67003941D01*
X193915513Y-66987197D01*
X193915515Y-66987196D01*
X193925304Y-66985646D01*
X194038342Y-66928050D01*
X194128050Y-66838342D01*
X194185646Y-66725304D01*
X194205492Y-66600000D01*
X194185646Y-66474696D01*
X194128050Y-66361658D01*
X194038342Y-66271950D01*
X193925304Y-66214354D01*
X193915515Y-66212804D01*
X193915513Y-66212803D01*
X193809793Y-66196059D01*
X193800000Y-66194508D01*
X193790207Y-66196059D01*
X193684487Y-66212803D01*
X193684485Y-66212804D01*
X193674696Y-66214354D01*
X193561658Y-66271950D01*
X193471950Y-66361658D01*
X193414354Y-66474696D01*
X193394508Y-66600000D01*
X128800500Y-66600000D01*
X128800500Y-65784441D01*
X184369900Y-65784441D01*
X184371064Y-65793343D01*
X184371064Y-65793346D01*
X184373435Y-65811474D01*
X184374499Y-65827811D01*
X184374499Y-66059749D01*
X184386132Y-66118232D01*
X184430447Y-66184553D01*
X184496768Y-66228868D01*
X184508937Y-66231289D01*
X184508938Y-66231289D01*
X184549183Y-66239294D01*
X184555251Y-66240501D01*
X184817735Y-66240501D01*
X184820044Y-66240522D01*
X184872281Y-66241480D01*
X184872284Y-66241480D01*
X184881254Y-66241644D01*
X184884708Y-66240702D01*
X184887951Y-66240501D01*
X185967735Y-66240501D01*
X185970044Y-66240522D01*
X186022281Y-66241480D01*
X186022284Y-66241480D01*
X186031254Y-66241644D01*
X186034708Y-66240702D01*
X186037951Y-66240501D01*
X186244747Y-66240501D01*
X186250815Y-66239294D01*
X186291060Y-66231289D01*
X186291061Y-66231289D01*
X186303230Y-66228868D01*
X186369551Y-66184553D01*
X186413866Y-66118232D01*
X186425499Y-66059749D01*
X186425499Y-65838377D01*
X186427245Y-65817473D01*
X186429189Y-65805918D01*
X186429996Y-65801121D01*
X186430132Y-65790001D01*
X186426772Y-65766539D01*
X186425499Y-65748677D01*
X186425499Y-64898377D01*
X186427245Y-64877473D01*
X186429189Y-64865918D01*
X186429996Y-64861121D01*
X186430132Y-64850001D01*
X186426772Y-64826539D01*
X186425499Y-64808677D01*
X186425499Y-63958377D01*
X186427245Y-63937473D01*
X186429189Y-63925918D01*
X186429996Y-63921121D01*
X186430132Y-63910001D01*
X186426772Y-63886539D01*
X186425499Y-63868677D01*
X186425499Y-63640253D01*
X186417492Y-63600000D01*
X190394508Y-63600000D01*
X190396059Y-63609793D01*
X190407227Y-63680303D01*
X190414354Y-63725304D01*
X190471950Y-63838342D01*
X190561658Y-63928050D01*
X190674696Y-63985646D01*
X190684485Y-63987196D01*
X190684487Y-63987197D01*
X190790207Y-64003941D01*
X190800000Y-64005492D01*
X190809793Y-64003941D01*
X190834676Y-64000000D01*
X193394508Y-64000000D01*
X193414354Y-64125304D01*
X193471950Y-64238342D01*
X193561658Y-64328050D01*
X193674696Y-64385646D01*
X193684485Y-64387196D01*
X193684487Y-64387197D01*
X193790207Y-64403941D01*
X193800000Y-64405492D01*
X193809793Y-64403941D01*
X193915513Y-64387197D01*
X193915515Y-64387196D01*
X193925304Y-64385646D01*
X194038342Y-64328050D01*
X194128050Y-64238342D01*
X194185646Y-64125304D01*
X194205492Y-64000000D01*
X195594508Y-64000000D01*
X195614354Y-64125304D01*
X195671950Y-64238342D01*
X195761658Y-64328050D01*
X195874696Y-64385646D01*
X195884485Y-64387196D01*
X195884487Y-64387197D01*
X195990207Y-64403941D01*
X196000000Y-64405492D01*
X196009793Y-64403941D01*
X196115513Y-64387197D01*
X196115515Y-64387196D01*
X196125304Y-64385646D01*
X196238342Y-64328050D01*
X196328050Y-64238342D01*
X196365109Y-64165609D01*
X204186721Y-64165609D01*
X204191630Y-64172167D01*
X204275150Y-64218844D01*
X204286390Y-64223755D01*
X204459877Y-64280124D01*
X204471851Y-64282757D01*
X204652992Y-64304357D01*
X204665241Y-64304614D01*
X204847125Y-64290619D01*
X204859195Y-64288490D01*
X204902117Y-64276506D01*
X204973108Y-64277453D01*
X205032317Y-64316629D01*
X205060946Y-64381597D01*
X205062001Y-64397865D01*
X205062001Y-64684669D01*
X205062371Y-64691490D01*
X205067895Y-64742352D01*
X205071521Y-64757604D01*
X205116676Y-64878054D01*
X205125214Y-64893649D01*
X205201715Y-64995724D01*
X205214276Y-65008285D01*
X205316351Y-65084786D01*
X205331946Y-65093324D01*
X205452394Y-65138478D01*
X205467649Y-65142105D01*
X205518514Y-65147631D01*
X205525328Y-65148000D01*
X207392885Y-65148000D01*
X207408124Y-65143525D01*
X207409329Y-65142135D01*
X207411000Y-65134452D01*
X207411000Y-63579615D01*
X207406525Y-63564376D01*
X207405135Y-63563171D01*
X207397452Y-63561500D01*
X205373115Y-63561500D01*
X205357876Y-63565975D01*
X205356671Y-63567365D01*
X205355000Y-63575048D01*
X205355000Y-63959500D01*
X205334998Y-64027621D01*
X205281342Y-64074114D01*
X205229000Y-64085500D01*
X205021000Y-64085500D01*
X204952879Y-64065498D01*
X204906386Y-64011842D01*
X204895000Y-63959500D01*
X204895000Y-63469825D01*
X204891763Y-63458800D01*
X204884672Y-63462038D01*
X204193481Y-64153229D01*
X204186721Y-64165609D01*
X196365109Y-64165609D01*
X196385646Y-64125304D01*
X196405492Y-64000000D01*
X196402506Y-63981145D01*
X196387197Y-63884487D01*
X196387196Y-63884485D01*
X196385646Y-63874696D01*
X196328050Y-63761658D01*
X196238342Y-63671950D01*
X196125304Y-63614354D01*
X196115515Y-63612804D01*
X196115513Y-63612803D01*
X196009793Y-63596059D01*
X196000000Y-63594508D01*
X195990207Y-63596059D01*
X195884487Y-63612803D01*
X195884485Y-63612804D01*
X195874696Y-63614354D01*
X195761658Y-63671950D01*
X195671950Y-63761658D01*
X195614354Y-63874696D01*
X195612804Y-63884485D01*
X195612803Y-63884487D01*
X195597494Y-63981145D01*
X195594508Y-64000000D01*
X194205492Y-64000000D01*
X194202506Y-63981145D01*
X194187197Y-63884487D01*
X194187196Y-63884485D01*
X194185646Y-63874696D01*
X194128050Y-63761658D01*
X194038342Y-63671950D01*
X193925304Y-63614354D01*
X193915515Y-63612804D01*
X193915513Y-63612803D01*
X193809793Y-63596059D01*
X193800000Y-63594508D01*
X193790207Y-63596059D01*
X193684487Y-63612803D01*
X193684485Y-63612804D01*
X193674696Y-63614354D01*
X193561658Y-63671950D01*
X193471950Y-63761658D01*
X193414354Y-63874696D01*
X193412804Y-63884485D01*
X193412803Y-63884487D01*
X193397494Y-63981145D01*
X193394508Y-64000000D01*
X190834676Y-64000000D01*
X190915513Y-63987197D01*
X190915515Y-63987196D01*
X190925304Y-63985646D01*
X191038342Y-63928050D01*
X191128050Y-63838342D01*
X191185646Y-63725304D01*
X191192774Y-63680303D01*
X191203941Y-63609793D01*
X191205492Y-63600000D01*
X191185646Y-63474696D01*
X191128050Y-63361658D01*
X191066104Y-63299712D01*
X203682808Y-63299712D01*
X203698071Y-63481482D01*
X203700286Y-63493547D01*
X203750565Y-63668891D01*
X203755083Y-63680303D01*
X203812286Y-63791607D01*
X203822007Y-63801828D01*
X203828806Y-63799484D01*
X204307978Y-63320312D01*
X204315592Y-63306368D01*
X204315461Y-63304535D01*
X204311210Y-63297920D01*
X203834166Y-62820876D01*
X203821786Y-62814116D01*
X203815398Y-62818898D01*
X203765854Y-62909016D01*
X203761017Y-62920301D01*
X203705861Y-63094175D01*
X203703313Y-63106164D01*
X203682979Y-63287443D01*
X203682808Y-63299712D01*
X191066104Y-63299712D01*
X191038342Y-63271950D01*
X190925304Y-63214354D01*
X190915515Y-63212804D01*
X190915513Y-63212803D01*
X190809793Y-63196059D01*
X190800000Y-63194508D01*
X190790207Y-63196059D01*
X190684487Y-63212803D01*
X190684485Y-63212804D01*
X190674696Y-63214354D01*
X190561658Y-63271950D01*
X190471950Y-63361658D01*
X190414354Y-63474696D01*
X190394508Y-63600000D01*
X186417492Y-63600000D01*
X186413866Y-63581770D01*
X186369551Y-63515449D01*
X186303230Y-63471134D01*
X186291061Y-63468713D01*
X186291060Y-63468713D01*
X186250815Y-63460708D01*
X186244747Y-63459501D01*
X185982777Y-63459501D01*
X185982008Y-63459499D01*
X185913230Y-63459079D01*
X185912010Y-63459428D01*
X185910932Y-63459501D01*
X184832777Y-63459501D01*
X184832008Y-63459499D01*
X184763230Y-63459079D01*
X184762010Y-63459428D01*
X184760932Y-63459501D01*
X184555251Y-63459501D01*
X184549183Y-63460708D01*
X184508938Y-63468713D01*
X184508937Y-63468713D01*
X184496768Y-63471134D01*
X184430447Y-63515449D01*
X184386132Y-63581770D01*
X184374499Y-63640253D01*
X184374499Y-63865153D01*
X184372999Y-63884537D01*
X184371281Y-63895568D01*
X184371281Y-63895572D01*
X184369900Y-63904441D01*
X184371064Y-63913343D01*
X184371064Y-63913346D01*
X184373435Y-63931474D01*
X184374499Y-63947811D01*
X184374499Y-64805153D01*
X184372999Y-64824537D01*
X184371281Y-64835568D01*
X184371281Y-64835572D01*
X184369900Y-64844441D01*
X184371064Y-64853343D01*
X184371064Y-64853346D01*
X184373435Y-64871474D01*
X184374499Y-64887811D01*
X184374499Y-65745153D01*
X184372999Y-65764537D01*
X184371281Y-65775568D01*
X184371281Y-65775572D01*
X184369900Y-65784441D01*
X128800500Y-65784441D01*
X128800500Y-62600000D01*
X187794508Y-62600000D01*
X187814354Y-62725304D01*
X187871950Y-62838342D01*
X187961658Y-62928050D01*
X188074696Y-62985646D01*
X188084485Y-62987196D01*
X188084487Y-62987197D01*
X188190207Y-63003941D01*
X188200000Y-63005492D01*
X188209793Y-63003941D01*
X188315513Y-62987197D01*
X188315515Y-62987196D01*
X188325304Y-62985646D01*
X188438342Y-62928050D01*
X188528050Y-62838342D01*
X188585646Y-62725304D01*
X188605492Y-62600000D01*
X188597494Y-62549502D01*
X188587197Y-62484487D01*
X188587196Y-62484485D01*
X188585646Y-62474696D01*
X188572918Y-62449716D01*
X204185934Y-62449716D01*
X204188389Y-62456679D01*
X204882188Y-63150478D01*
X204892277Y-63155987D01*
X204895000Y-63148686D01*
X204895000Y-62655500D01*
X204915002Y-62587379D01*
X204968658Y-62540886D01*
X205021000Y-62529500D01*
X205229000Y-62529500D01*
X205297121Y-62549502D01*
X205343614Y-62603158D01*
X205355000Y-62655500D01*
X205355000Y-63035385D01*
X205359475Y-63050624D01*
X205360865Y-63051829D01*
X205368548Y-63053500D01*
X207392885Y-63053500D01*
X207408124Y-63049025D01*
X207409329Y-63047635D01*
X207411000Y-63039952D01*
X207411000Y-61485116D01*
X207406525Y-61469877D01*
X207405135Y-61468672D01*
X207397452Y-61467001D01*
X205525331Y-61467001D01*
X205518510Y-61467371D01*
X205467648Y-61472895D01*
X205452396Y-61476521D01*
X205331946Y-61521676D01*
X205316351Y-61530214D01*
X205214276Y-61606715D01*
X205201715Y-61619276D01*
X205125214Y-61721351D01*
X205116676Y-61736946D01*
X205071522Y-61857394D01*
X205067895Y-61872649D01*
X205062369Y-61923514D01*
X205062000Y-61930328D01*
X205062000Y-62215314D01*
X205041998Y-62283435D01*
X204988342Y-62329928D01*
X204918068Y-62340032D01*
X204898742Y-62335679D01*
X204886527Y-62331898D01*
X204874511Y-62329431D01*
X204693094Y-62310363D01*
X204680826Y-62310278D01*
X204499169Y-62326810D01*
X204487120Y-62329108D01*
X204312128Y-62380611D01*
X204300751Y-62385208D01*
X204196083Y-62439927D01*
X204185934Y-62449716D01*
X188572918Y-62449716D01*
X188528050Y-62361658D01*
X188438342Y-62271950D01*
X188325304Y-62214354D01*
X188315515Y-62212804D01*
X188315513Y-62212803D01*
X188209793Y-62196059D01*
X188200000Y-62194508D01*
X188190207Y-62196059D01*
X188084487Y-62212803D01*
X188084485Y-62212804D01*
X188074696Y-62214354D01*
X187961658Y-62271950D01*
X187871950Y-62361658D01*
X187814354Y-62474696D01*
X187812804Y-62484485D01*
X187812803Y-62484487D01*
X187802506Y-62549502D01*
X187794508Y-62600000D01*
X128800500Y-62600000D01*
X128800500Y-60600000D01*
X185794508Y-60600000D01*
X185814354Y-60725304D01*
X185871950Y-60838342D01*
X185961658Y-60928050D01*
X186074696Y-60985646D01*
X186084485Y-60987196D01*
X186084487Y-60987197D01*
X186190207Y-61003941D01*
X186200000Y-61005492D01*
X186209793Y-61003941D01*
X186315513Y-60987197D01*
X186315515Y-60987196D01*
X186325304Y-60985646D01*
X186438342Y-60928050D01*
X186528050Y-60838342D01*
X186585646Y-60725304D01*
X186605492Y-60600000D01*
X188794508Y-60600000D01*
X188814354Y-60725304D01*
X188871950Y-60838342D01*
X188961658Y-60928050D01*
X189074696Y-60985646D01*
X189084485Y-60987196D01*
X189084487Y-60987197D01*
X189190207Y-61003941D01*
X189200000Y-61005492D01*
X189209793Y-61003941D01*
X189315513Y-60987197D01*
X189315515Y-60987196D01*
X189325304Y-60985646D01*
X189438342Y-60928050D01*
X189528050Y-60838342D01*
X189585646Y-60725304D01*
X189605492Y-60600000D01*
X192194508Y-60600000D01*
X192214354Y-60725304D01*
X192271950Y-60838342D01*
X192361658Y-60928050D01*
X192474696Y-60985646D01*
X192484485Y-60987196D01*
X192484487Y-60987197D01*
X192590207Y-61003941D01*
X192600000Y-61005492D01*
X192609793Y-61003941D01*
X192715513Y-60987197D01*
X192715515Y-60987196D01*
X192725304Y-60985646D01*
X192838342Y-60928050D01*
X192928050Y-60838342D01*
X192985646Y-60725304D01*
X193005492Y-60600000D01*
X195594508Y-60600000D01*
X195614354Y-60725304D01*
X195671950Y-60838342D01*
X195761658Y-60928050D01*
X195874696Y-60985646D01*
X195884485Y-60987196D01*
X195884487Y-60987197D01*
X195990207Y-61003941D01*
X196000000Y-61005492D01*
X196009793Y-61003941D01*
X196115513Y-60987197D01*
X196115515Y-60987196D01*
X196125304Y-60985646D01*
X196238342Y-60928050D01*
X196328050Y-60838342D01*
X196385646Y-60725304D01*
X196405492Y-60600000D01*
X196385646Y-60474696D01*
X196328050Y-60361658D01*
X196238342Y-60271950D01*
X196125304Y-60214354D01*
X196115515Y-60212804D01*
X196115513Y-60212803D01*
X196009793Y-60196059D01*
X196000000Y-60194508D01*
X195990207Y-60196059D01*
X195884487Y-60212803D01*
X195884485Y-60212804D01*
X195874696Y-60214354D01*
X195761658Y-60271950D01*
X195671950Y-60361658D01*
X195614354Y-60474696D01*
X195594508Y-60600000D01*
X193005492Y-60600000D01*
X192985646Y-60474696D01*
X192928050Y-60361658D01*
X192838342Y-60271950D01*
X192725304Y-60214354D01*
X192715515Y-60212804D01*
X192715513Y-60212803D01*
X192609793Y-60196059D01*
X192600000Y-60194508D01*
X192590207Y-60196059D01*
X192484487Y-60212803D01*
X192484485Y-60212804D01*
X192474696Y-60214354D01*
X192361658Y-60271950D01*
X192271950Y-60361658D01*
X192214354Y-60474696D01*
X192194508Y-60600000D01*
X189605492Y-60600000D01*
X189585646Y-60474696D01*
X189528050Y-60361658D01*
X189438342Y-60271950D01*
X189325304Y-60214354D01*
X189315515Y-60212804D01*
X189315513Y-60212803D01*
X189209793Y-60196059D01*
X189200000Y-60194508D01*
X189190207Y-60196059D01*
X189084487Y-60212803D01*
X189084485Y-60212804D01*
X189074696Y-60214354D01*
X188961658Y-60271950D01*
X188871950Y-60361658D01*
X188814354Y-60474696D01*
X188794508Y-60600000D01*
X186605492Y-60600000D01*
X186585646Y-60474696D01*
X186528050Y-60361658D01*
X186438342Y-60271950D01*
X186325304Y-60214354D01*
X186315515Y-60212804D01*
X186315513Y-60212803D01*
X186209793Y-60196059D01*
X186200000Y-60194508D01*
X186190207Y-60196059D01*
X186084487Y-60212803D01*
X186084485Y-60212804D01*
X186074696Y-60214354D01*
X185961658Y-60271950D01*
X185871950Y-60361658D01*
X185814354Y-60474696D01*
X185794508Y-60600000D01*
X128800500Y-60600000D01*
X128800500Y-57711835D01*
X128820502Y-57643714D01*
X128874158Y-57597221D01*
X128944432Y-57587117D01*
X129009012Y-57616611D01*
X129043733Y-57665656D01*
X129103602Y-57817642D01*
X129274817Y-58143759D01*
X129276718Y-58146588D01*
X129276724Y-58146598D01*
X129461707Y-58421879D01*
X129480252Y-58449477D01*
X129717502Y-58731221D01*
X129820006Y-58829176D01*
X129981329Y-58983341D01*
X129981336Y-58983347D01*
X129983792Y-58985694D01*
X130276008Y-59209919D01*
X130590731Y-59401274D01*
X130924279Y-59557519D01*
X130927497Y-59558621D01*
X130927500Y-59558622D01*
X131269528Y-59675725D01*
X131269536Y-59675727D01*
X131272751Y-59676828D01*
X131632070Y-59757804D01*
X131715002Y-59767253D01*
X131994650Y-59799115D01*
X131994658Y-59799115D01*
X131998033Y-59799500D01*
X132001437Y-59799518D01*
X132001440Y-59799518D01*
X132201074Y-59800563D01*
X132366358Y-59801428D01*
X132369744Y-59801078D01*
X132369746Y-59801078D01*
X132729345Y-59763918D01*
X132729354Y-59763917D01*
X132732737Y-59763567D01*
X132736070Y-59762853D01*
X132736073Y-59762852D01*
X132913488Y-59724817D01*
X133092884Y-59686358D01*
X133442586Y-59570705D01*
X133777752Y-59417961D01*
X133874965Y-59360240D01*
X134091516Y-59231662D01*
X134091521Y-59231659D01*
X134094461Y-59229913D01*
X134121091Y-59209919D01*
X134386276Y-59010812D01*
X134389009Y-59008760D01*
X134657950Y-58757089D01*
X134898138Y-58477846D01*
X134915838Y-58452093D01*
X135104831Y-58177104D01*
X135106762Y-58174295D01*
X135108374Y-58171301D01*
X135108379Y-58171293D01*
X135279761Y-57853001D01*
X135281383Y-57849989D01*
X135419958Y-57508720D01*
X135520865Y-57154482D01*
X135582925Y-56791418D01*
X135584888Y-56759332D01*
X135605301Y-56425572D01*
X135605411Y-56423775D01*
X135605494Y-56400000D01*
X135585575Y-56032209D01*
X135526052Y-55668720D01*
X135427620Y-55313786D01*
X135424443Y-55305801D01*
X135292690Y-54974722D01*
X135291431Y-54971558D01*
X135261358Y-54914760D01*
X135120677Y-54649060D01*
X135120673Y-54649053D01*
X135119078Y-54646041D01*
X134912578Y-54341041D01*
X134674346Y-54060128D01*
X134407168Y-53806586D01*
X134114172Y-53583382D01*
X134111260Y-53581625D01*
X134111255Y-53581622D01*
X133801705Y-53394889D01*
X133801696Y-53394884D01*
X133798783Y-53393127D01*
X133795693Y-53391693D01*
X133795688Y-53391690D01*
X133686028Y-53340788D01*
X133632661Y-53293964D01*
X133613080Y-53225720D01*
X133633504Y-53157725D01*
X133687446Y-53111565D01*
X133739078Y-53100500D01*
X204660372Y-53100500D01*
X204728493Y-53120502D01*
G37*
%TD.AperFunction*%
%TD*%
M02*
