M48
; DRILL file {KiCad 6.0.6-3a73a75311~116~ubuntu20.04.1} date Thu 22 Sep 2022 10:05:25 BST
; FORMAT={-:-/ absolute / inch / decimal}
; #@! TF.CreationDate,2022-09-22T10:05:25+01:00
; #@! TF.GenerationSoftware,Kicad,Pcbnew,6.0.6-3a73a75311~116~ubuntu20.04.1
; #@! TF.FileFunction,Plated,1,4,PTH
FMAT,2
INCH
; #@! TA.AperFunction,Plated,PTH,ViaDrill
T1C0.0079
; #@! TA.AperFunction,Plated,PTH,ComponentDrill
T2C0.0079
; #@! TA.AperFunction,Plated,PTH,ViaDrill
T3C0.0157
; #@! TA.AperFunction,Plated,PTH,ComponentDrill
T4C0.0181
; #@! TA.AperFunction,Plated,PTH,ComponentDrill
T5C0.0197
; #@! TA.AperFunction,Plated,PTH,ComponentDrill
T6C0.0394
; #@! TA.AperFunction,Plated,PTH,ComponentDrill
T7C0.1260
%
G90
G05
T1
X5.5354Y-2.8583
X5.5354Y-2.9764
X5.5354Y-3.0472
X5.5984Y-2.9134
X5.5984Y-3.0079
X5.5984Y-3.0945
X5.6535Y-3.5354
X5.6535Y-3.622
X5.6535Y-3.7165
X5.685Y-3.0945
X5.7008Y-3.4724
X5.7087Y-2.8583
X5.7087Y-2.937
X5.748Y-3.5354
X5.748Y-3.7638
X5.7638Y-3.1575
X5.7795Y-3.7953
X5.7953Y-2.9134
X5.7953Y-3.4724
X5.811Y-3.126
X5.811Y-3.1575
X5.811Y-3.189
X5.8346Y-3.7953
X5.8504Y-3.126
X5.8504Y-3.1575
X5.8504Y-3.189
X5.874Y-2.8583
X5.874Y-2.937
X5.8819Y-3.7953
X5.8898Y-3.126
X5.8898Y-3.1575
X5.8898Y-3.189
X5.9291Y-2.9134
X5.9291Y-3.0394
X5.9291Y-3.126
X5.9291Y-3.1575
X5.9291Y-3.189
X5.9685Y-3.126
X5.9685Y-3.1575
X5.9685Y-3.189
X6.0157Y-3.1339
X6.0157Y-3.1732
X6.0787Y-2.8661
X6.0787Y-2.9764
X6.126Y-3.0551
X6.126Y-3.1024
X6.1654Y-3.0551
X6.1654Y-3.1024
X6.1969Y-3.5039
X6.1969Y-3.5669
X6.1969Y-3.6299
X6.1969Y-3.6929
X6.2441Y-3.3701
X6.2913Y-3.3701
X6.3543Y-3.3701
X6.4173Y-3.3701
X6.5748Y-3.4567
X6.5748Y-3.5197
X6.5906Y-3.3228
X6.685Y-4.1024
X6.6929Y-3.0472
X6.7008Y-3.1417
X6.7008Y-3.9055
X6.7402Y-3.0945
X6.7953Y-3.7087
X6.7982Y-3.0285
X6.8898Y-3.3465
X6.8976Y-3.1024
X6.8976Y-3.2126
X6.9685Y-3.0
X7.0512Y-3.1063
X7.063Y-2.5748
X7.063Y-2.7165
X7.0866Y-3.0
X7.1417Y-3.6614
X7.189Y-2.874
X7.189Y-3.1102
X7.2205Y-2.4488
X7.2205Y-3.0
X7.2362Y-2.8346
X7.2756Y-3.9606
X7.2992Y-4.1024
X7.315Y-2.9843
X7.3307Y-2.3858
X7.3656Y-3.2328
X7.3858Y-2.8346
X7.4016Y-2.7638
X7.4094Y-2.4646
X7.4488Y-2.3858
X7.4724Y-3.4252
X7.4803Y-2.7717
X7.4803Y-2.8268
X7.5118Y-2.5039
X7.5118Y-3.1575
X7.5118Y-3.2283
X7.5118Y-3.3071
X7.5748Y-3.748
X7.5827Y-2.3858
X7.5827Y-2.7717
X7.622Y-2.9843
X7.6299Y-2.5197
X7.6299Y-2.622
X7.6299Y-2.7323
X7.6378Y-3.622
X7.685Y-3.2205
X7.6929Y-2.9291
X7.6929Y-3.5433
X7.7165Y-2.3858
X7.7165Y-2.5197
X7.7244Y-2.7323
X7.7323Y-3.6693
X7.7638Y-2.7953
X7.7638Y-2.9843
X7.7874Y-3.1417
X7.8425Y-3.7008
X7.874Y-3.2756
X7.8819Y-3.063
X7.9055Y-3.189
X7.937Y-3.6063
X7.937Y-3.7008
X7.9449Y-2.7638
X7.9449Y-2.8504
X7.9449Y-2.9528
X7.9764Y-3.7953
X7.9921Y-3.0945
X8.0079Y-3.2677
X8.0079Y-3.3307
X8.0079Y-3.4331
X8.0079Y-3.5354
X8.0236Y-2.8504
X8.0236Y-2.9528
X8.0236Y-3.6063
X8.0236Y-3.7008
X8.0394Y-3.8976
X8.1969Y-3.8976
X8.2126Y-2.8819
X8.2126Y-3.0315
X8.2126Y-3.189
X8.2126Y-3.3622
T2
X7.0315Y-3.2328
X7.0315Y-3.2761
X7.0315Y-3.3194
X7.0315Y-3.3627
X7.0315Y-3.406
X7.0315Y-3.4493
X7.0748Y-3.2328
X7.0748Y-3.2761
X7.0748Y-3.3194
X7.0748Y-3.3627
X7.0748Y-3.406
X7.0748Y-3.4493
X7.1181Y-3.2328
X7.1181Y-3.2761
X7.1181Y-3.3194
X7.1181Y-3.3627
X7.1181Y-3.406
X7.1181Y-3.4493
X7.1614Y-3.2328
X7.1614Y-3.2761
X7.1614Y-3.3194
X7.1614Y-3.3627
X7.1614Y-3.406
X7.1614Y-3.4493
X7.2047Y-3.2328
X7.2047Y-3.2761
X7.2047Y-3.3194
X7.2047Y-3.3627
X7.2047Y-3.406
X7.2047Y-3.4493
X7.248Y-3.2328
X7.248Y-3.2761
X7.248Y-3.3194
X7.248Y-3.3627
X7.248Y-3.406
X7.248Y-3.4493
X7.2766Y-2.5161
X7.2766Y-2.5531
X7.2766Y-2.5902
X7.2766Y-2.6953
X7.2766Y-2.7323
X7.2766Y-2.7693
X7.3219Y-2.5161
X7.3219Y-2.5531
X7.3219Y-2.5902
X7.3219Y-2.6953
X7.3219Y-2.7323
X7.3219Y-2.7693
T3
X5.5276Y-3.2677
X5.5906Y-3.2677
X5.6535Y-3.2677
X5.7165Y-3.2677
X5.811Y-3.2677
X5.8898Y-3.2677
X5.9921Y-3.2677
X6.6378Y-3.8021
X6.7402Y-3.8021
X6.8031Y-3.4252
X6.8425Y-3.4409
X6.8785Y-3.3962
X6.9134Y-3.5591
X6.9213Y-3.5984
X7.095Y-3.5911
X7.3031Y-3.627
X7.3309Y-3.5992
X7.3465Y-4.063
X7.3588Y-3.5714
X7.378Y-3.4724
X7.3937Y-4.063
X7.3942Y-3.5359
X7.4252Y-3.4567
X7.4488Y-4.063
X7.4961Y-4.063
X7.5143Y-2.9975
T4
X8.0583Y-2.4924
X8.0583Y-2.7674
X8.0583Y-3.5124
X8.0583Y-3.7874
T5
X5.1102Y-2.2205
X5.1102Y-4.2598
X5.1379Y-2.1537
X5.1379Y-2.2873
X5.1379Y-4.193
X5.1379Y-4.3267
X5.2047Y-2.126
X5.2047Y-2.315
X5.2047Y-4.1654
X5.2047Y-4.3543
X5.2715Y-2.1537
X5.2715Y-2.2873
X5.2715Y-4.193
X5.2715Y-4.3267
X5.2992Y-2.2205
X5.2992Y-4.2598
X8.0236Y-2.2205
X8.0236Y-4.2598
X8.0513Y-2.1537
X8.0513Y-2.2873
X8.0513Y-4.193
X8.0513Y-4.3267
X8.1181Y-2.126
X8.1181Y-2.315
X8.1181Y-4.1654
X8.1181Y-4.3543
X8.1849Y-2.1537
X8.1849Y-2.2873
X8.1849Y-4.193
X8.1849Y-4.3267
X8.2126Y-2.2205
X8.2126Y-4.2598
T6
X5.2205Y-2.8268
X5.2205Y-2.9268
X5.4827Y-4.2756
X5.5827Y-4.2756
X5.8378Y-4.2756
X5.9378Y-4.2756
X6.0378Y-4.2756
X6.1378Y-4.2756
X6.2378Y-4.2756
X6.3378Y-4.2756
X6.4378Y-4.2756
X6.5378Y-4.2756
X6.6378Y-4.2756
X6.7378Y-4.2756
X6.8378Y-4.2756
X6.9378Y-4.2756
T7
X5.2047Y-2.2205
X5.2047Y-4.2598
X8.1181Y-2.2205
X8.1181Y-4.2598
T0
M30
