%TF.GenerationSoftware,KiCad,Pcbnew,6.0.6-3a73a75311~116~ubuntu20.04.1*%
%TF.CreationDate,2022-09-22T10:05:31+01:00*%
%TF.ProjectId,UFOMothership,55464f4d-6f74-4686-9572-736869702e6b,rev?*%
%TF.SameCoordinates,Original*%
%TF.FileFunction,Paste,Top*%
%TF.FilePolarity,Positive*%
%FSLAX46Y46*%
G04 Gerber Fmt 4.6, Leading zero omitted, Abs format (unit mm)*
G04 Created by KiCad (PCBNEW 6.0.6-3a73a75311~116~ubuntu20.04.1) date 2022-09-22 10:05:31*
%MOMM*%
%LPD*%
G01*
G04 APERTURE LIST*
G04 Aperture macros list*
%AMRoundRect*
0 Rectangle with rounded corners*
0 $1 Rounding radius*
0 $2 $3 $4 $5 $6 $7 $8 $9 X,Y pos of 4 corners*
0 Add a 4 corners polygon primitive as box body*
4,1,4,$2,$3,$4,$5,$6,$7,$8,$9,$2,$3,0*
0 Add four circle primitives for the rounded corners*
1,1,$1+$1,$2,$3*
1,1,$1+$1,$4,$5*
1,1,$1+$1,$6,$7*
1,1,$1+$1,$8,$9*
0 Add four rect primitives between the rounded corners*
20,1,$1+$1,$2,$3,$4,$5,0*
20,1,$1+$1,$4,$5,$6,$7,0*
20,1,$1+$1,$6,$7,$8,$9,0*
20,1,$1+$1,$8,$9,$2,$3,0*%
G04 Aperture macros list end*
%ADD10RoundRect,0.237500X-0.300000X-0.237500X0.300000X-0.237500X0.300000X0.237500X-0.300000X0.237500X0*%
%ADD11RoundRect,0.237500X0.237500X-0.300000X0.237500X0.300000X-0.237500X0.300000X-0.237500X-0.300000X0*%
%ADD12RoundRect,0.237500X0.300000X0.237500X-0.300000X0.237500X-0.300000X-0.237500X0.300000X-0.237500X0*%
%ADD13RoundRect,0.237500X-0.237500X0.300000X-0.237500X-0.300000X0.237500X-0.300000X0.237500X0.300000X0*%
%ADD14R,3.400000X1.800000*%
%ADD15R,1.800000X3.400000*%
%ADD16R,0.750000X2.100000*%
%ADD17RoundRect,0.237500X-0.237500X0.250000X-0.237500X-0.250000X0.237500X-0.250000X0.237500X0.250000X0*%
%ADD18RoundRect,0.237500X-0.250000X-0.237500X0.250000X-0.237500X0.250000X0.237500X-0.250000X0.237500X0*%
%ADD19C,0.500000*%
%ADD20R,4.190000X1.780000*%
%ADD21R,4.190000X2.665000*%
%ADD22RoundRect,0.100000X0.100000X-0.712500X0.100000X0.712500X-0.100000X0.712500X-0.100000X-0.712500X0*%
%ADD23RoundRect,0.232379X0.232379X0.232379X-0.232379X0.232379X-0.232379X-0.232379X0.232379X-0.232379X0*%
%ADD24RoundRect,0.062500X0.375000X0.062500X-0.375000X0.062500X-0.375000X-0.062500X0.375000X-0.062500X0*%
%ADD25RoundRect,0.062500X0.062500X0.375000X-0.062500X0.375000X-0.062500X-0.375000X0.062500X-0.375000X0*%
%ADD26RoundRect,0.150000X0.587500X0.150000X-0.587500X0.150000X-0.587500X-0.150000X0.587500X-0.150000X0*%
%ADD27RoundRect,0.167500X0.167500X0.312500X-0.167500X0.312500X-0.167500X-0.312500X0.167500X-0.312500X0*%
%ADD28RoundRect,0.062500X0.362500X0.062500X-0.362500X0.062500X-0.362500X-0.062500X0.362500X-0.062500X0*%
%ADD29RoundRect,0.150000X-0.825000X-0.150000X0.825000X-0.150000X0.825000X0.150000X-0.825000X0.150000X0*%
%ADD30RoundRect,0.150000X-0.150000X0.512500X-0.150000X-0.512500X0.150000X-0.512500X0.150000X0.512500X0*%
%ADD31RoundRect,0.237500X0.250000X0.237500X-0.250000X0.237500X-0.250000X-0.237500X0.250000X-0.237500X0*%
%ADD32R,2.200000X3.900000*%
%ADD33R,2.000000X1.500000*%
%ADD34R,2.000000X3.800000*%
G04 APERTURE END LIST*
D10*
%TO.C,C23*%
X188000000Y-86000000D03*
X189725000Y-86000000D03*
%TD*%
D11*
%TO.C,C22*%
X182600000Y-77999999D03*
X182600000Y-76274999D03*
%TD*%
%TO.C,C21*%
X176200000Y-77999999D03*
X176200000Y-76274999D03*
%TD*%
D10*
%TO.C,C20*%
X188000000Y-84000000D03*
X189725000Y-84000000D03*
%TD*%
D11*
%TO.C,C19*%
X179200000Y-77999999D03*
X179200000Y-76274999D03*
%TD*%
D10*
%TO.C,C18*%
X188000000Y-82000000D03*
X189725000Y-82000000D03*
%TD*%
D12*
%TO.C,C17*%
X181262500Y-68000000D03*
X179537500Y-68000000D03*
%TD*%
%TO.C,C16*%
X181262500Y-66400000D03*
X179537500Y-66400000D03*
%TD*%
D10*
%TO.C,C15*%
X200800000Y-83000000D03*
X202525000Y-83000000D03*
%TD*%
D13*
%TO.C,C14*%
X190800000Y-79262500D03*
X190800000Y-77537500D03*
%TD*%
D12*
%TO.C,C13*%
X171725001Y-76400000D03*
X170000001Y-76400000D03*
%TD*%
%TO.C,C12*%
X186399999Y-72000000D03*
X184674999Y-72000000D03*
%TD*%
D10*
%TO.C,C11*%
X184475000Y-62200000D03*
X186200000Y-62200000D03*
%TD*%
D14*
%TO.C,TP2*%
X160800000Y-84000000D03*
%TD*%
D15*
%TO.C,TP1*%
X190512500Y-66800000D03*
%TD*%
D16*
%TO.C,J7*%
X181555000Y-105800000D03*
X181555000Y-109400000D03*
X182825000Y-105800000D03*
X182825000Y-109400000D03*
X184095000Y-105800000D03*
X184095000Y-109400000D03*
X185365000Y-105800000D03*
X185365000Y-109400000D03*
X186635000Y-105800000D03*
X186635000Y-109400000D03*
X187905000Y-105800000D03*
X187905000Y-109400000D03*
X189175000Y-105800000D03*
X189175000Y-109400000D03*
X190445000Y-105800000D03*
X190445000Y-109400000D03*
%TD*%
D17*
%TO.C,R7*%
X145200000Y-75887500D03*
X145200000Y-77712500D03*
%TD*%
D18*
%TO.C,R9*%
X192687500Y-74400000D03*
X194512500Y-74400000D03*
%TD*%
D19*
%TO.C,U1*%
X147100000Y-76700000D03*
X148100000Y-76700000D03*
X149100000Y-76700000D03*
X150100000Y-76700000D03*
X151100000Y-76700000D03*
X152100000Y-76700000D03*
X147100000Y-77700000D03*
X148100000Y-77700000D03*
X149100000Y-77700000D03*
X150100000Y-77700000D03*
X151100000Y-77700000D03*
X152100000Y-77700000D03*
X147100000Y-78700000D03*
X148100000Y-78700000D03*
X149100000Y-78700000D03*
X150100000Y-78700000D03*
X151100000Y-78700000D03*
X152100000Y-78700000D03*
X147100000Y-79700000D03*
X148100000Y-79700000D03*
X149100000Y-79700000D03*
X150100000Y-79700000D03*
X151100000Y-79700000D03*
X152100000Y-79700000D03*
X147100000Y-80700000D03*
X148100000Y-80700000D03*
X149100000Y-80700000D03*
X150100000Y-80700000D03*
X151100000Y-80700000D03*
X152100000Y-80700000D03*
X147100000Y-81700000D03*
X148100000Y-81700000D03*
X149100000Y-81700000D03*
X150100000Y-81700000D03*
X151100000Y-81700000D03*
X152100000Y-81700000D03*
%TD*%
D20*
%TO.C,J4*%
X207665000Y-66800000D03*
D21*
X207665000Y-70292500D03*
X207665000Y-63307500D03*
%TD*%
D22*
%TO.C,U2*%
X172025000Y-82712500D03*
X172675000Y-82712500D03*
X173325000Y-82712500D03*
X173975000Y-82712500D03*
X173975000Y-78487500D03*
X173325000Y-78487500D03*
X172675000Y-78487500D03*
X172025000Y-78487500D03*
%TD*%
D18*
%TO.C,R3*%
X167975000Y-87800000D03*
X169800000Y-87800000D03*
%TD*%
%TO.C,R8*%
X168375000Y-84387500D03*
X170200000Y-84387500D03*
%TD*%
D12*
%TO.C,C3*%
X153000000Y-73200000D03*
X151275000Y-73200000D03*
%TD*%
D17*
%TO.C,R10*%
X169800000Y-103375000D03*
X169800000Y-105200000D03*
%TD*%
D23*
%TO.C,U3*%
X181350000Y-85962500D03*
X183550000Y-85962500D03*
X181350000Y-83762500D03*
X179150000Y-85962500D03*
X183550000Y-84862500D03*
X179150000Y-84862500D03*
X182450000Y-84862500D03*
X183550000Y-83762500D03*
X179150000Y-83762500D03*
X181350000Y-87062500D03*
X180250000Y-82662500D03*
X180250000Y-87062500D03*
X180250000Y-85962500D03*
X182450000Y-87062500D03*
X181350000Y-82662500D03*
X180250000Y-84862500D03*
X179150000Y-82662500D03*
X182450000Y-83762500D03*
X181350000Y-84862500D03*
X179150000Y-87062500D03*
X183550000Y-87062500D03*
X182450000Y-82662500D03*
X182450000Y-85962500D03*
X180250000Y-83762500D03*
X183550000Y-82662500D03*
D24*
X186287500Y-89112500D03*
X186287500Y-88612500D03*
X186287500Y-88112500D03*
X186287500Y-87612500D03*
X186287500Y-87112500D03*
X186287500Y-86612500D03*
X186287500Y-86112500D03*
X186287500Y-85612500D03*
X186287500Y-85112500D03*
X186287500Y-84612500D03*
X186287500Y-84112500D03*
X186287500Y-83612500D03*
X186287500Y-83112500D03*
X186287500Y-82612500D03*
X186287500Y-82112500D03*
X186287500Y-81612500D03*
X186287500Y-81112500D03*
X186287500Y-80612500D03*
D25*
X185600000Y-79925000D03*
X185100000Y-79925000D03*
X184600000Y-79925000D03*
X184100000Y-79925000D03*
X183600000Y-79925000D03*
X183100000Y-79925000D03*
X182600000Y-79925000D03*
X182100000Y-79925000D03*
X181600000Y-79925000D03*
X181100000Y-79925000D03*
X180600000Y-79925000D03*
X180100000Y-79925000D03*
X179600000Y-79925000D03*
X179100000Y-79925000D03*
X178600000Y-79925000D03*
X178100000Y-79925000D03*
X177600000Y-79925000D03*
X177100000Y-79925000D03*
D24*
X176412500Y-80612500D03*
X176412500Y-81112500D03*
X176412500Y-81612500D03*
X176412500Y-82112500D03*
X176412500Y-82612500D03*
X176412500Y-83112500D03*
X176412500Y-83612500D03*
X176412500Y-84112500D03*
X176412500Y-84612500D03*
X176412500Y-85112500D03*
X176412500Y-85612500D03*
X176412500Y-86112500D03*
X176412500Y-86612500D03*
X176412500Y-87112500D03*
X176412500Y-87612500D03*
X176412500Y-88112500D03*
X176412500Y-88612500D03*
X176412500Y-89112500D03*
D25*
X177100000Y-89800000D03*
X177600000Y-89800000D03*
X178100000Y-89800000D03*
X178600000Y-89800000D03*
X179100000Y-89800000D03*
X179600000Y-89800000D03*
X180100000Y-89800000D03*
X180600000Y-89800000D03*
X181100000Y-89800000D03*
X181600000Y-89800000D03*
X182100000Y-89800000D03*
X182600000Y-89800000D03*
X183100000Y-89800000D03*
X183600000Y-89800000D03*
X184100000Y-89800000D03*
X184600000Y-89800000D03*
X185100000Y-89800000D03*
X185600000Y-89800000D03*
%TD*%
D18*
%TO.C,R15*%
X200800000Y-84600000D03*
X202625000Y-84600000D03*
%TD*%
D11*
%TO.C,C4*%
X142000000Y-81662500D03*
X142000000Y-79937500D03*
%TD*%
D12*
%TO.C,C5*%
X146262500Y-92000000D03*
X144537500Y-92000000D03*
%TD*%
D26*
%TO.C,U6*%
X170137500Y-82737500D03*
X170137500Y-80837500D03*
X168262500Y-81787500D03*
%TD*%
D12*
%TO.C,C2*%
X146262500Y-94400000D03*
X144537500Y-94400000D03*
%TD*%
D13*
%TO.C,C10*%
X202800000Y-66800000D03*
X202800000Y-68525000D03*
%TD*%
D18*
%TO.C,R2*%
X167975000Y-89400000D03*
X169800000Y-89400000D03*
%TD*%
D11*
%TO.C,C6*%
X140400000Y-81662500D03*
X140400000Y-79937500D03*
%TD*%
D18*
%TO.C,R14*%
X200800000Y-87200000D03*
X202625000Y-87200000D03*
%TD*%
D27*
%TO.C,U9*%
X184990000Y-68805000D03*
X185810000Y-69995000D03*
X185810000Y-68805000D03*
X184990000Y-69995000D03*
D28*
X186850000Y-70150000D03*
X186850000Y-69650000D03*
X186850000Y-69150000D03*
X186850000Y-68650000D03*
X183950000Y-68650000D03*
X183950000Y-69150000D03*
X183950000Y-69650000D03*
X183950000Y-70150000D03*
%TD*%
D29*
%TO.C,U5*%
X193675001Y-83352500D03*
X193675001Y-84622500D03*
X193675001Y-85892500D03*
X193675001Y-87162500D03*
X193675001Y-88432500D03*
X193675001Y-89702500D03*
X193675001Y-90972500D03*
X198625001Y-90972500D03*
X198625001Y-89702500D03*
X198625001Y-88432500D03*
X198625001Y-87162500D03*
X198625001Y-85892500D03*
X198625001Y-84622500D03*
X198625001Y-83352500D03*
%TD*%
D18*
%TO.C,R13*%
X200800000Y-89800000D03*
X202625000Y-89800000D03*
%TD*%
D30*
%TO.C,U7*%
X190862501Y-72662500D03*
X189912501Y-72662500D03*
X188962501Y-72662500D03*
X188962501Y-74937500D03*
X190862501Y-74937500D03*
%TD*%
D31*
%TO.C,R16*%
X194512500Y-72800000D03*
X192687500Y-72800000D03*
%TD*%
D20*
%TO.C,J3*%
X207665000Y-92707500D03*
D21*
X207665000Y-89215000D03*
X207665000Y-96200000D03*
%TD*%
D18*
%TO.C,R1*%
X173975000Y-94400000D03*
X175800000Y-94400000D03*
%TD*%
D11*
%TO.C,C7*%
X145200000Y-81662500D03*
X145200000Y-79937500D03*
%TD*%
D17*
%TO.C,R12*%
X192400000Y-92600000D03*
X192400000Y-94425000D03*
%TD*%
D10*
%TO.C,C9*%
X189250001Y-70400000D03*
X190975001Y-70400000D03*
%TD*%
D27*
%TO.C,U8*%
X185809999Y-65445001D03*
X184989999Y-65445001D03*
X184989999Y-64255001D03*
X185809999Y-64255001D03*
D28*
X186849999Y-65600001D03*
X186849999Y-65100001D03*
X186849999Y-64600001D03*
X186849999Y-64100001D03*
X183949999Y-64100001D03*
X183949999Y-64600001D03*
X183949999Y-65100001D03*
X183949999Y-65600001D03*
%TD*%
D13*
%TO.C,C1*%
X154000000Y-78274999D03*
X154000000Y-79999999D03*
%TD*%
D11*
%TO.C,C8*%
X143600000Y-81662500D03*
X143600000Y-79937500D03*
%TD*%
D17*
%TO.C,R11*%
X169800000Y-99975000D03*
X169800000Y-101800000D03*
%TD*%
D18*
%TO.C,R4*%
X185775000Y-100600000D03*
X187600000Y-100600000D03*
%TD*%
D32*
%TO.C,L1*%
X196000000Y-66800000D03*
X199800000Y-66800000D03*
%TD*%
D18*
%TO.C,R6*%
X151175000Y-74800000D03*
X153000000Y-74800000D03*
%TD*%
D33*
%TO.C,U4*%
X148650000Y-89700000D03*
X148650000Y-92000000D03*
D34*
X154950000Y-92000000D03*
D33*
X148650000Y-94300000D03*
%TD*%
M02*
