%TF.GenerationSoftware,KiCad,Pcbnew,6.0.6-3a73a75311~116~ubuntu20.04.1*%
%TF.CreationDate,2022-09-22T10:25:09+01:00*%
%TF.ProjectId,UFOPulse,55464f50-756c-4736-952e-6b696361645f,rev?*%
%TF.SameCoordinates,Original*%
%TF.FileFunction,Copper,L3,Inr*%
%TF.FilePolarity,Positive*%
%FSLAX46Y46*%
G04 Gerber Fmt 4.6, Leading zero omitted, Abs format (unit mm)*
G04 Created by KiCad (PCBNEW 6.0.6-3a73a75311~116~ubuntu20.04.1) date 2022-09-22 10:25:09*
%MOMM*%
%LPD*%
G01*
G04 APERTURE LIST*
%TA.AperFunction,ComponentPad*%
%ADD10C,7.500000*%
%TD*%
%TA.AperFunction,ComponentPad*%
%ADD11R,1.700000X1.700000*%
%TD*%
%TA.AperFunction,ComponentPad*%
%ADD12O,1.700000X1.700000*%
%TD*%
%TA.AperFunction,ViaPad*%
%ADD13C,0.800000*%
%TD*%
G04 APERTURE END LIST*
D10*
%TO.N,N/C*%
%TO.C,H4*%
X127130000Y-118570000D03*
%TD*%
%TO.N,N/C*%
%TO.C,H3*%
X154010000Y-118560000D03*
%TD*%
%TO.N,N/C*%
%TO.C,H2*%
X154010000Y-91700000D03*
%TD*%
%TO.N,N/C*%
%TO.C,H1*%
X127150000Y-91720000D03*
%TD*%
D11*
%TO.N,VCC*%
%TO.C,J10*%
X139105000Y-83870000D03*
D12*
%TO.N,GND*%
X141645000Y-83870000D03*
%TD*%
D13*
%TO.N,GND*%
X158550000Y-118160000D03*
X120400000Y-106000000D03*
X118800000Y-104900000D03*
X161600000Y-103800000D03*
X140620000Y-94010000D03*
X122370000Y-93060000D03*
X121900000Y-104800000D03*
X145800000Y-117100000D03*
X133760000Y-93160000D03*
X151900000Y-86600000D03*
X130600000Y-85700000D03*
X130660000Y-100840000D03*
X128779312Y-97719312D03*
X159900000Y-95200000D03*
X140500000Y-92700000D03*
X157500000Y-94700000D03*
X161700000Y-105900000D03*
X150800000Y-95110000D03*
X143460000Y-93400000D03*
X159600000Y-105800000D03*
X122260000Y-95890000D03*
X132170000Y-93510000D03*
X129520000Y-124170000D03*
X159500000Y-103700000D03*
X128650000Y-123440000D03*
X140500000Y-126700000D03*
X148990000Y-98010000D03*
X148900000Y-85100000D03*
X128000000Y-87000000D03*
X150200000Y-124700000D03*
X156750000Y-114780000D03*
X130620000Y-95140000D03*
X153800000Y-106040000D03*
X121600000Y-114300000D03*
X155340000Y-114250000D03*
X160500000Y-96300000D03*
X129860000Y-113960000D03*
X158860000Y-116770000D03*
X123280000Y-115610000D03*
X149520000Y-94950000D03*
X129700000Y-88000000D03*
X146900000Y-114070000D03*
X140470000Y-115740000D03*
X139430000Y-89000000D03*
X122290000Y-117190000D03*
X120300000Y-103800000D03*
X141800000Y-126800000D03*
%TO.N,TRIG1*%
X133350000Y-113290000D03*
%TO.N,TRIG3*%
X133000000Y-94700000D03*
%TO.N,TRIG5*%
X150900000Y-97500000D03*
%TO.N,TRIG7*%
X147200000Y-117000000D03*
%TO.N,TRIG0*%
X134200000Y-113900000D03*
%TO.N,TRIG2*%
X131800000Y-98100000D03*
%TO.N,TRIG4*%
X147800000Y-96600000D03*
%TO.N,TRIG6*%
X148150000Y-112980000D03*
%TO.N,VCC*%
X155700000Y-96400000D03*
X151200000Y-122600000D03*
X154800000Y-106900000D03*
X125400000Y-114400000D03*
X139001042Y-125801040D03*
X131300000Y-89600000D03*
X142000000Y-90700000D03*
X126700000Y-102900000D03*
%TD*%
%TA.AperFunction,Conductor*%
%TO.N,VCC*%
G36*
X142740026Y-82730418D02*
G01*
X142844786Y-82739215D01*
X142893041Y-82743267D01*
X142898289Y-82743819D01*
X143284953Y-82792666D01*
X143827663Y-82861226D01*
X143832867Y-82861994D01*
X144756548Y-83018223D01*
X144761721Y-83019209D01*
X145014670Y-83072975D01*
X145678053Y-83213982D01*
X145683191Y-83215188D01*
X146590510Y-83448148D01*
X146595593Y-83449567D01*
X147492394Y-83720327D01*
X147497413Y-83721958D01*
X147922533Y-83870000D01*
X148382072Y-84030028D01*
X148386996Y-84031859D01*
X148467414Y-84063698D01*
X148523387Y-84107373D01*
X148546863Y-84174375D01*
X148530387Y-84243434D01*
X148479192Y-84292623D01*
X148472278Y-84295957D01*
X148449278Y-84306197D01*
X148449276Y-84306198D01*
X148443248Y-84308882D01*
X148288747Y-84421134D01*
X148284326Y-84426044D01*
X148284325Y-84426045D01*
X148231588Y-84484616D01*
X148160960Y-84563056D01*
X148065473Y-84728444D01*
X148006458Y-84910072D01*
X147986496Y-85100000D01*
X147987186Y-85106565D01*
X148000344Y-85231753D01*
X148006458Y-85289928D01*
X148065473Y-85471556D01*
X148160960Y-85636944D01*
X148165378Y-85641851D01*
X148165379Y-85641852D01*
X148185500Y-85664199D01*
X148288747Y-85778866D01*
X148443248Y-85891118D01*
X148449276Y-85893802D01*
X148449278Y-85893803D01*
X148611681Y-85966109D01*
X148617712Y-85968794D01*
X148711113Y-85988647D01*
X148798056Y-86007128D01*
X148798061Y-86007128D01*
X148804513Y-86008500D01*
X148995487Y-86008500D01*
X149001939Y-86007128D01*
X149001944Y-86007128D01*
X149088887Y-85988647D01*
X149182288Y-85968794D01*
X149188319Y-85966109D01*
X149350722Y-85893803D01*
X149350724Y-85893802D01*
X149356752Y-85891118D01*
X149511253Y-85778866D01*
X149614500Y-85664199D01*
X149634621Y-85641852D01*
X149634622Y-85641851D01*
X149639040Y-85636944D01*
X149734527Y-85471556D01*
X149793542Y-85289928D01*
X149799657Y-85231753D01*
X149812814Y-85106565D01*
X149813504Y-85100000D01*
X149793542Y-84910072D01*
X149768915Y-84834278D01*
X149766887Y-84763313D01*
X149803549Y-84702515D01*
X149867261Y-84671190D01*
X149939997Y-84680237D01*
X150118666Y-84759785D01*
X150123441Y-84762032D01*
X150962517Y-85178554D01*
X150967194Y-85180999D01*
X151588836Y-85522749D01*
X151638895Y-85573095D01*
X151653788Y-85642512D01*
X151628787Y-85708961D01*
X151579383Y-85748271D01*
X151449281Y-85806195D01*
X151449274Y-85806199D01*
X151443248Y-85808882D01*
X151288747Y-85921134D01*
X151160960Y-86063056D01*
X151065473Y-86228444D01*
X151006458Y-86410072D01*
X151005768Y-86416633D01*
X151005768Y-86416635D01*
X150990058Y-86566109D01*
X150986496Y-86600000D01*
X150987186Y-86606565D01*
X150991168Y-86644447D01*
X151006458Y-86789928D01*
X151065473Y-86971556D01*
X151160960Y-87136944D01*
X151165378Y-87141851D01*
X151165379Y-87141852D01*
X151224738Y-87207777D01*
X151288747Y-87278866D01*
X151443248Y-87391118D01*
X151449276Y-87393802D01*
X151449278Y-87393803D01*
X151602322Y-87461942D01*
X151617712Y-87468794D01*
X151711113Y-87488647D01*
X151798056Y-87507128D01*
X151798061Y-87507128D01*
X151804513Y-87508500D01*
X151995487Y-87508500D01*
X152001939Y-87507128D01*
X152001944Y-87507128D01*
X152088887Y-87488647D01*
X152182288Y-87468794D01*
X152197678Y-87461942D01*
X152350722Y-87393803D01*
X152350724Y-87393802D01*
X152356752Y-87391118D01*
X152511253Y-87278866D01*
X152575262Y-87207777D01*
X152634621Y-87141852D01*
X152634622Y-87141851D01*
X152639040Y-87136944D01*
X152734527Y-86971556D01*
X152793542Y-86789928D01*
X152808833Y-86644447D01*
X152812814Y-86606565D01*
X152813504Y-86600000D01*
X152803746Y-86507160D01*
X152816518Y-86437324D01*
X152865020Y-86385477D01*
X152933853Y-86368082D01*
X152998782Y-86389043D01*
X153152418Y-86491118D01*
X153378663Y-86641435D01*
X153382997Y-86644447D01*
X154137141Y-87192365D01*
X154140865Y-87195071D01*
X154145060Y-87198255D01*
X154169203Y-87217390D01*
X154210164Y-87275377D01*
X154213273Y-87346306D01*
X154177541Y-87407655D01*
X154114314Y-87439948D01*
X154088959Y-87442119D01*
X154050000Y-87441507D01*
X153876086Y-87438775D01*
X153873142Y-87439007D01*
X153873132Y-87439007D01*
X153504544Y-87468016D01*
X153475663Y-87470289D01*
X153079984Y-87539346D01*
X153077117Y-87540130D01*
X153077105Y-87540133D01*
X152695423Y-87644549D01*
X152695413Y-87644552D01*
X152692559Y-87645333D01*
X152689795Y-87646377D01*
X152689784Y-87646381D01*
X152319601Y-87786262D01*
X152316828Y-87787310D01*
X151956126Y-87964016D01*
X151953591Y-87965569D01*
X151953590Y-87965570D01*
X151897405Y-88000000D01*
X151613654Y-88173883D01*
X151292452Y-88415049D01*
X150995371Y-88685371D01*
X150725049Y-88982452D01*
X150483883Y-89303654D01*
X150274016Y-89646126D01*
X150272704Y-89648805D01*
X150272703Y-89648806D01*
X150145480Y-89908500D01*
X150097310Y-90006828D01*
X150096263Y-90009598D01*
X150096262Y-90009601D01*
X149956381Y-90379784D01*
X149956377Y-90379795D01*
X149955333Y-90382559D01*
X149954552Y-90385413D01*
X149954549Y-90385423D01*
X149850133Y-90767105D01*
X149850130Y-90767117D01*
X149849346Y-90769984D01*
X149780289Y-91165663D01*
X149780057Y-91168611D01*
X149749158Y-91561221D01*
X149748775Y-91566086D01*
X149751154Y-91717529D01*
X149753856Y-91889496D01*
X149755084Y-91967697D01*
X149755411Y-91970659D01*
X149761526Y-92026045D01*
X149799160Y-92366932D01*
X149799762Y-92369841D01*
X149799764Y-92369851D01*
X149872511Y-92721134D01*
X149880611Y-92760247D01*
X149881484Y-92763083D01*
X149881484Y-92763085D01*
X149891219Y-92794729D01*
X149998716Y-93144151D01*
X150152425Y-93515237D01*
X150340374Y-93870211D01*
X150341999Y-93872685D01*
X150342005Y-93872695D01*
X150487629Y-94094386D01*
X150508311Y-94162304D01*
X150488990Y-94230621D01*
X150433566Y-94278670D01*
X150349278Y-94316197D01*
X150349276Y-94316198D01*
X150343248Y-94318882D01*
X150332865Y-94326426D01*
X150266000Y-94350284D01*
X150196848Y-94334205D01*
X150165168Y-94308801D01*
X150160668Y-94303803D01*
X150131253Y-94271134D01*
X149976752Y-94158882D01*
X149970724Y-94156198D01*
X149970722Y-94156197D01*
X149808319Y-94083891D01*
X149808318Y-94083891D01*
X149802288Y-94081206D01*
X149708887Y-94061353D01*
X149621944Y-94042872D01*
X149621939Y-94042872D01*
X149615487Y-94041500D01*
X149424513Y-94041500D01*
X149418061Y-94042872D01*
X149418056Y-94042872D01*
X149331112Y-94061353D01*
X149237712Y-94081206D01*
X149231682Y-94083891D01*
X149231681Y-94083891D01*
X149069278Y-94156197D01*
X149069276Y-94156198D01*
X149063248Y-94158882D01*
X148908747Y-94271134D01*
X148904329Y-94276041D01*
X148904325Y-94276045D01*
X148798919Y-94393111D01*
X148780960Y-94413056D01*
X148777659Y-94418774D01*
X148703660Y-94546944D01*
X148685473Y-94578444D01*
X148626458Y-94760072D01*
X148625768Y-94766633D01*
X148625768Y-94766635D01*
X148612810Y-94889928D01*
X148606496Y-94950000D01*
X148607186Y-94956565D01*
X148615098Y-95031839D01*
X148626458Y-95139928D01*
X148685473Y-95321556D01*
X148688776Y-95327278D01*
X148688777Y-95327279D01*
X148706124Y-95357324D01*
X148780960Y-95486944D01*
X148785378Y-95491851D01*
X148785379Y-95491852D01*
X148902281Y-95621685D01*
X148908747Y-95628866D01*
X149063248Y-95741118D01*
X149069276Y-95743802D01*
X149069278Y-95743803D01*
X149231681Y-95816109D01*
X149237712Y-95818794D01*
X149331113Y-95838647D01*
X149418056Y-95857128D01*
X149418061Y-95857128D01*
X149424513Y-95858500D01*
X149615487Y-95858500D01*
X149621939Y-95857128D01*
X149621944Y-95857128D01*
X149708887Y-95838647D01*
X149802288Y-95818794D01*
X149808319Y-95816109D01*
X149970722Y-95743803D01*
X149970724Y-95743802D01*
X149976752Y-95741118D01*
X149987135Y-95733574D01*
X150054000Y-95709716D01*
X150123152Y-95725795D01*
X150154831Y-95751198D01*
X150188747Y-95788866D01*
X150231828Y-95820166D01*
X150324937Y-95887814D01*
X150343248Y-95901118D01*
X150349276Y-95903802D01*
X150349278Y-95903803D01*
X150511681Y-95976109D01*
X150517712Y-95978794D01*
X150575692Y-95991118D01*
X150698056Y-96017128D01*
X150698061Y-96017128D01*
X150704513Y-96018500D01*
X150895487Y-96018500D01*
X150901939Y-96017128D01*
X150901944Y-96017128D01*
X151024308Y-95991118D01*
X151082288Y-95978794D01*
X151088319Y-95976109D01*
X151250722Y-95903803D01*
X151250724Y-95903802D01*
X151256752Y-95901118D01*
X151275064Y-95887814D01*
X151368172Y-95820166D01*
X151411253Y-95788866D01*
X151415675Y-95783955D01*
X151534621Y-95651852D01*
X151534622Y-95651851D01*
X151539040Y-95646944D01*
X151609601Y-95524729D01*
X151631223Y-95487279D01*
X151631224Y-95487278D01*
X151634527Y-95481556D01*
X151650805Y-95431459D01*
X151690877Y-95372854D01*
X151756274Y-95345217D01*
X151826230Y-95357324D01*
X151833057Y-95360944D01*
X151951217Y-95428341D01*
X152071913Y-95497185D01*
X152071918Y-95497188D01*
X152074489Y-95498654D01*
X152440564Y-95663943D01*
X152820569Y-95794048D01*
X152823443Y-95794738D01*
X152823450Y-95794740D01*
X153208253Y-95887123D01*
X153208257Y-95887124D01*
X153211132Y-95887814D01*
X153214065Y-95888231D01*
X153214068Y-95888232D01*
X153304611Y-95901118D01*
X153608785Y-95944408D01*
X154010000Y-95963329D01*
X154411215Y-95944408D01*
X154715389Y-95901118D01*
X154805932Y-95888232D01*
X154805935Y-95888231D01*
X154808868Y-95887814D01*
X154811743Y-95887124D01*
X154811747Y-95887123D01*
X155196550Y-95794740D01*
X155196557Y-95794738D01*
X155199431Y-95794048D01*
X155579436Y-95663943D01*
X155945511Y-95498654D01*
X155948082Y-95497188D01*
X155948087Y-95497185D01*
X156180494Y-95364622D01*
X156294406Y-95299648D01*
X156539348Y-95127500D01*
X156606581Y-95104695D01*
X156675472Y-95121860D01*
X156720916Y-95167586D01*
X156760960Y-95236944D01*
X156765378Y-95241851D01*
X156765379Y-95241852D01*
X156874615Y-95363171D01*
X156888747Y-95378866D01*
X156960196Y-95430777D01*
X157021437Y-95475271D01*
X157043248Y-95491118D01*
X157049276Y-95493802D01*
X157049278Y-95493803D01*
X157209799Y-95565271D01*
X157217712Y-95568794D01*
X157311112Y-95588647D01*
X157398056Y-95607128D01*
X157398061Y-95607128D01*
X157404513Y-95608500D01*
X157595487Y-95608500D01*
X157601939Y-95607128D01*
X157601944Y-95607128D01*
X157688888Y-95588647D01*
X157782288Y-95568794D01*
X157790201Y-95565271D01*
X157950722Y-95493803D01*
X157950724Y-95493802D01*
X157956752Y-95491118D01*
X157978564Y-95475271D01*
X158039804Y-95430777D01*
X158111253Y-95378866D01*
X158125385Y-95363171D01*
X158234621Y-95241852D01*
X158234622Y-95241851D01*
X158239040Y-95236944D01*
X158318750Y-95098882D01*
X158331223Y-95077279D01*
X158331224Y-95077278D01*
X158334527Y-95071556D01*
X158393542Y-94889928D01*
X158395822Y-94868241D01*
X158412814Y-94706565D01*
X158413504Y-94700000D01*
X158405201Y-94620999D01*
X158394232Y-94516635D01*
X158394232Y-94516633D01*
X158393542Y-94510072D01*
X158334527Y-94328444D01*
X158329007Y-94318882D01*
X158256183Y-94192749D01*
X158239040Y-94163056D01*
X158153902Y-94068500D01*
X158115675Y-94026045D01*
X158115674Y-94026044D01*
X158111253Y-94021134D01*
X157986047Y-93930166D01*
X157962094Y-93912763D01*
X157962093Y-93912762D01*
X157956752Y-93908882D01*
X157950726Y-93906199D01*
X157950719Y-93906195D01*
X157839144Y-93856520D01*
X157785048Y-93810540D01*
X157764398Y-93742613D01*
X157779038Y-93682454D01*
X157867575Y-93515237D01*
X158021284Y-93144151D01*
X158128781Y-92794729D01*
X158138516Y-92763085D01*
X158138516Y-92763083D01*
X158139389Y-92760247D01*
X158147489Y-92721134D01*
X158220236Y-92369851D01*
X158220238Y-92369841D01*
X158220840Y-92366932D01*
X158243890Y-92158148D01*
X158264645Y-91970153D01*
X158264645Y-91970149D01*
X158264916Y-91967697D01*
X158264993Y-91965244D01*
X158264994Y-91965231D01*
X158273251Y-91702468D01*
X158273329Y-91700000D01*
X158271120Y-91653149D01*
X158287891Y-91584162D01*
X158339298Y-91535194D01*
X158409018Y-91521791D01*
X158474916Y-91548210D01*
X158497340Y-91571033D01*
X158693780Y-91829834D01*
X158739066Y-91889496D01*
X158742166Y-91893763D01*
X159253013Y-92628774D01*
X159276810Y-92663014D01*
X159279720Y-92667395D01*
X159475970Y-92976635D01*
X159781668Y-93458339D01*
X159784402Y-93462853D01*
X160158718Y-94111187D01*
X160175456Y-94180182D01*
X160152236Y-94247274D01*
X160096428Y-94291161D01*
X160023400Y-94297433D01*
X160001948Y-94292873D01*
X160001945Y-94292873D01*
X159995487Y-94291500D01*
X159804513Y-94291500D01*
X159798061Y-94292872D01*
X159798056Y-94292872D01*
X159711112Y-94311353D01*
X159617712Y-94331206D01*
X159611682Y-94333891D01*
X159611681Y-94333891D01*
X159449278Y-94406197D01*
X159449276Y-94406198D01*
X159443248Y-94408882D01*
X159288747Y-94521134D01*
X159284326Y-94526044D01*
X159284325Y-94526045D01*
X159189903Y-94630912D01*
X159160960Y-94663056D01*
X159065473Y-94828444D01*
X159006458Y-95010072D01*
X159005768Y-95016633D01*
X159005768Y-95016635D01*
X158993492Y-95133435D01*
X158986496Y-95200000D01*
X158987186Y-95206565D01*
X159003184Y-95358774D01*
X159006458Y-95389928D01*
X159065473Y-95571556D01*
X159068776Y-95577278D01*
X159068777Y-95577279D01*
X159086803Y-95608500D01*
X159160960Y-95736944D01*
X159165378Y-95741851D01*
X159165379Y-95741852D01*
X159225733Y-95808882D01*
X159288747Y-95878866D01*
X159379150Y-95944548D01*
X159432335Y-95983189D01*
X159443248Y-95991118D01*
X159449274Y-95993801D01*
X159449281Y-95993805D01*
X159527475Y-96028618D01*
X159581571Y-96074598D01*
X159602221Y-96142525D01*
X159601537Y-96156890D01*
X159586496Y-96300000D01*
X159606458Y-96489928D01*
X159665473Y-96671556D01*
X159668776Y-96677278D01*
X159668777Y-96677279D01*
X159672544Y-96683803D01*
X159760960Y-96836944D01*
X159765378Y-96841851D01*
X159765379Y-96841852D01*
X159778658Y-96856600D01*
X159888747Y-96978866D01*
X159918642Y-97000586D01*
X160023690Y-97076908D01*
X160043248Y-97091118D01*
X160049276Y-97093802D01*
X160049278Y-97093803D01*
X160211681Y-97166109D01*
X160217712Y-97168794D01*
X160308473Y-97188086D01*
X160398056Y-97207128D01*
X160398061Y-97207128D01*
X160404513Y-97208500D01*
X160595487Y-97208500D01*
X160601939Y-97207128D01*
X160601944Y-97207128D01*
X160691527Y-97188086D01*
X160782288Y-97168794D01*
X160788319Y-97166109D01*
X160950722Y-97093803D01*
X160950724Y-97093802D01*
X160956752Y-97091118D01*
X160976311Y-97076908D01*
X161081358Y-97000586D01*
X161111253Y-96978866D01*
X161239040Y-96836944D01*
X161242342Y-96831225D01*
X161245807Y-96826456D01*
X161302030Y-96783104D01*
X161372767Y-96777030D01*
X161435558Y-96810164D01*
X161465838Y-96856599D01*
X161778085Y-97696206D01*
X161784186Y-97712610D01*
X161785918Y-97717584D01*
X161848461Y-97910072D01*
X162075391Y-98608491D01*
X162076916Y-98613543D01*
X162328841Y-99515837D01*
X162330154Y-99520949D01*
X162544065Y-100432964D01*
X162545162Y-100438126D01*
X162720696Y-101358308D01*
X162721576Y-101363512D01*
X162858420Y-102290217D01*
X162859082Y-102295452D01*
X162859788Y-102302168D01*
X162953520Y-103193965D01*
X162957005Y-103227125D01*
X162957445Y-103232368D01*
X162963885Y-103334729D01*
X163016265Y-104167295D01*
X163016486Y-104172568D01*
X163020889Y-104382749D01*
X163036100Y-105108882D01*
X163036105Y-105109136D01*
X163036105Y-105114401D01*
X163028434Y-105480614D01*
X163016486Y-106050982D01*
X163016265Y-106056255D01*
X162998606Y-106336944D01*
X162960217Y-106947128D01*
X162957446Y-106991166D01*
X162957005Y-106996425D01*
X162859082Y-107928098D01*
X162858420Y-107933333D01*
X162721576Y-108860038D01*
X162720696Y-108865242D01*
X162545162Y-109785424D01*
X162544065Y-109790586D01*
X162502837Y-109966362D01*
X162371054Y-110528224D01*
X162330154Y-110702601D01*
X162328841Y-110707713D01*
X162076916Y-111610007D01*
X162075391Y-111615059D01*
X161960085Y-111969934D01*
X161804501Y-112448774D01*
X161785921Y-112505956D01*
X161784189Y-112510930D01*
X161459539Y-113383891D01*
X161457647Y-113388978D01*
X161455711Y-113393868D01*
X161246838Y-113890757D01*
X161092686Y-114257470D01*
X161090539Y-114262291D01*
X160691689Y-115109889D01*
X160689343Y-115114616D01*
X160255331Y-115944805D01*
X160252788Y-115949430D01*
X159943709Y-116484770D01*
X159892326Y-116533763D01*
X159822613Y-116547199D01*
X159756702Y-116520813D01*
X159714757Y-116460706D01*
X159701163Y-116418866D01*
X159694527Y-116398444D01*
X159599040Y-116233056D01*
X159521505Y-116146944D01*
X159475675Y-116096045D01*
X159475674Y-116096044D01*
X159471253Y-116091134D01*
X159372157Y-116019136D01*
X159322094Y-115982763D01*
X159322093Y-115982762D01*
X159316752Y-115978882D01*
X159310724Y-115976198D01*
X159310722Y-115976197D01*
X159148319Y-115903891D01*
X159148318Y-115903891D01*
X159142288Y-115901206D01*
X159048887Y-115881353D01*
X158961944Y-115862872D01*
X158961939Y-115862872D01*
X158955487Y-115861500D01*
X158764513Y-115861500D01*
X158758061Y-115862872D01*
X158758056Y-115862872D01*
X158671113Y-115881353D01*
X158577712Y-115901206D01*
X158571682Y-115903891D01*
X158571681Y-115903891D01*
X158409278Y-115976197D01*
X158409276Y-115976198D01*
X158403248Y-115978882D01*
X158397907Y-115982762D01*
X158397906Y-115982763D01*
X158347843Y-116019136D01*
X158248747Y-116091134D01*
X158244326Y-116096044D01*
X158244325Y-116096045D01*
X158198496Y-116146944D01*
X158120960Y-116233056D01*
X158025473Y-116398444D01*
X157988858Y-116511134D01*
X157988067Y-116513568D01*
X157947994Y-116572174D01*
X157882597Y-116599811D01*
X157812640Y-116587704D01*
X157758787Y-116537060D01*
X157611123Y-116278178D01*
X157611112Y-116278161D01*
X157609648Y-116275594D01*
X157378691Y-115946976D01*
X157203283Y-115741599D01*
X157174253Y-115676812D01*
X157184858Y-115606612D01*
X157225034Y-115557835D01*
X157242190Y-115545371D01*
X157351690Y-115465814D01*
X157355909Y-115462749D01*
X157355911Y-115462747D01*
X157361253Y-115458866D01*
X157401836Y-115413794D01*
X157484621Y-115321852D01*
X157484622Y-115321851D01*
X157489040Y-115316944D01*
X157552442Y-115207128D01*
X157581223Y-115157279D01*
X157581224Y-115157278D01*
X157584527Y-115151556D01*
X157643542Y-114969928D01*
X157647097Y-114936109D01*
X157662814Y-114786565D01*
X157663504Y-114780000D01*
X157655398Y-114702872D01*
X157644232Y-114596635D01*
X157644232Y-114596633D01*
X157643542Y-114590072D01*
X157584527Y-114408444D01*
X157489040Y-114243056D01*
X157361253Y-114101134D01*
X157206752Y-113988882D01*
X157200724Y-113986198D01*
X157200722Y-113986197D01*
X157038319Y-113913891D01*
X157038318Y-113913891D01*
X157032288Y-113911206D01*
X156935787Y-113890694D01*
X156851944Y-113872872D01*
X156851939Y-113872872D01*
X156845487Y-113871500D01*
X156654513Y-113871500D01*
X156648061Y-113872872D01*
X156648056Y-113872872D01*
X156564213Y-113890694D01*
X156467712Y-113911206D01*
X156461685Y-113913889D01*
X156461677Y-113913892D01*
X156348717Y-113964185D01*
X156278350Y-113973619D01*
X156214053Y-113943512D01*
X156179396Y-113890694D01*
X156179253Y-113890757D01*
X156178864Y-113889884D01*
X156177636Y-113888012D01*
X156174527Y-113878444D01*
X156168504Y-113868011D01*
X156108334Y-113763794D01*
X156079040Y-113713056D01*
X156033744Y-113662749D01*
X155955675Y-113576045D01*
X155955674Y-113576044D01*
X155951253Y-113571134D01*
X155796752Y-113458882D01*
X155790724Y-113456198D01*
X155790722Y-113456197D01*
X155628319Y-113383891D01*
X155628318Y-113383891D01*
X155622288Y-113381206D01*
X155509721Y-113357279D01*
X155441944Y-113342872D01*
X155441939Y-113342872D01*
X155435487Y-113341500D01*
X155244513Y-113341500D01*
X155238061Y-113342872D01*
X155238056Y-113342872D01*
X155170279Y-113357279D01*
X155057712Y-113381206D01*
X155051682Y-113383891D01*
X155051681Y-113383891D01*
X154889278Y-113456197D01*
X154889276Y-113456198D01*
X154883248Y-113458882D01*
X154728747Y-113571134D01*
X154724326Y-113576044D01*
X154724325Y-113576045D01*
X154646257Y-113662749D01*
X154600960Y-113713056D01*
X154571666Y-113763794D01*
X154511497Y-113868011D01*
X154505473Y-113878444D01*
X154446458Y-114060072D01*
X154445768Y-114066633D01*
X154445768Y-114066635D01*
X154444654Y-114077237D01*
X154434794Y-114171054D01*
X154432306Y-114194723D01*
X154405293Y-114260380D01*
X154347072Y-114301010D01*
X154293171Y-114306792D01*
X154280664Y-114305411D01*
X154280652Y-114305410D01*
X154277697Y-114305084D01*
X154274713Y-114305037D01*
X154274711Y-114305037D01*
X154184470Y-114303619D01*
X153876086Y-114298775D01*
X153873142Y-114299007D01*
X153873132Y-114299007D01*
X153488775Y-114329257D01*
X153475663Y-114330289D01*
X153079984Y-114399346D01*
X153077117Y-114400130D01*
X153077105Y-114400133D01*
X152695423Y-114504549D01*
X152695413Y-114504552D01*
X152692559Y-114505333D01*
X152689795Y-114506377D01*
X152689784Y-114506381D01*
X152333556Y-114640989D01*
X152316828Y-114647310D01*
X152314161Y-114648617D01*
X152314160Y-114648617D01*
X151972087Y-114816197D01*
X151956126Y-114824016D01*
X151953591Y-114825569D01*
X151953590Y-114825570D01*
X151842402Y-114893706D01*
X151613654Y-115033883D01*
X151292452Y-115275049D01*
X150995371Y-115545371D01*
X150725049Y-115842452D01*
X150483883Y-116163654D01*
X150274016Y-116506126D01*
X150272704Y-116508805D01*
X150272703Y-116508806D01*
X150140004Y-116779679D01*
X150097310Y-116866828D01*
X150096263Y-116869598D01*
X150096262Y-116869601D01*
X149956381Y-117239784D01*
X149956377Y-117239795D01*
X149955333Y-117242559D01*
X149954552Y-117245413D01*
X149954549Y-117245423D01*
X149850133Y-117627105D01*
X149850130Y-117627117D01*
X149849346Y-117629984D01*
X149780289Y-118025663D01*
X149780057Y-118028611D01*
X149764700Y-118223744D01*
X149748775Y-118426086D01*
X149755084Y-118827697D01*
X149799160Y-119226932D01*
X149799762Y-119229841D01*
X149799764Y-119229851D01*
X149880008Y-119617337D01*
X149880611Y-119620247D01*
X149881484Y-119623083D01*
X149881484Y-119623085D01*
X149920309Y-119749286D01*
X149998716Y-120004151D01*
X150152425Y-120375237D01*
X150340374Y-120730211D01*
X150341999Y-120732685D01*
X150342005Y-120732695D01*
X150348574Y-120742695D01*
X150560894Y-121065922D01*
X150812030Y-121379390D01*
X150814094Y-121381520D01*
X150814102Y-121381529D01*
X150823793Y-121391529D01*
X151091550Y-121667833D01*
X151396976Y-121928691D01*
X151725594Y-122159648D01*
X151901952Y-122260241D01*
X152071913Y-122357185D01*
X152071918Y-122357188D01*
X152074489Y-122358654D01*
X152440564Y-122523943D01*
X152820569Y-122654048D01*
X152823443Y-122654738D01*
X152823450Y-122654740D01*
X153208253Y-122747123D01*
X153208257Y-122747124D01*
X153211132Y-122747814D01*
X153214065Y-122748231D01*
X153214068Y-122748232D01*
X153277440Y-122757251D01*
X153608785Y-122804408D01*
X153927661Y-122819446D01*
X153988944Y-122822336D01*
X154010000Y-122823329D01*
X154012969Y-122823189D01*
X154012973Y-122823189D01*
X154031070Y-122822336D01*
X154100056Y-122839108D01*
X154149024Y-122890515D01*
X154162425Y-122960236D01*
X154136006Y-123026133D01*
X154111066Y-123050129D01*
X153393061Y-123571791D01*
X153382997Y-123579103D01*
X153378663Y-123582115D01*
X152598399Y-124100521D01*
X152593965Y-124103335D01*
X152181117Y-124353365D01*
X151792678Y-124588612D01*
X151788108Y-124591251D01*
X151295469Y-124862081D01*
X151226138Y-124877370D01*
X151159547Y-124852749D01*
X151116839Y-124796035D01*
X151109458Y-124738496D01*
X151112814Y-124706565D01*
X151113504Y-124700000D01*
X151096851Y-124541556D01*
X151094232Y-124516635D01*
X151094232Y-124516633D01*
X151093542Y-124510072D01*
X151034527Y-124328444D01*
X150939040Y-124163056D01*
X150884044Y-124101976D01*
X150815675Y-124026045D01*
X150815674Y-124026044D01*
X150811253Y-124021134D01*
X150656752Y-123908882D01*
X150650724Y-123906198D01*
X150650722Y-123906197D01*
X150488319Y-123833891D01*
X150488318Y-123833891D01*
X150482288Y-123831206D01*
X150388888Y-123811353D01*
X150301944Y-123792872D01*
X150301939Y-123792872D01*
X150295487Y-123791500D01*
X150104513Y-123791500D01*
X150098061Y-123792872D01*
X150098056Y-123792872D01*
X150011112Y-123811353D01*
X149917712Y-123831206D01*
X149911682Y-123833891D01*
X149911681Y-123833891D01*
X149749278Y-123906197D01*
X149749276Y-123906198D01*
X149743248Y-123908882D01*
X149588747Y-124021134D01*
X149584326Y-124026044D01*
X149584325Y-124026045D01*
X149515957Y-124101976D01*
X149460960Y-124163056D01*
X149365473Y-124328444D01*
X149306458Y-124510072D01*
X149305768Y-124516633D01*
X149305768Y-124516635D01*
X149303149Y-124541556D01*
X149286496Y-124700000D01*
X149287186Y-124706565D01*
X149296590Y-124796035D01*
X149306458Y-124889928D01*
X149365473Y-125071556D01*
X149460960Y-125236944D01*
X149588747Y-125378866D01*
X149685991Y-125449518D01*
X149729344Y-125505741D01*
X149735419Y-125576477D01*
X149702287Y-125639269D01*
X149663178Y-125666561D01*
X149262877Y-125844786D01*
X149258012Y-125846831D01*
X148386996Y-126191691D01*
X148382072Y-126193522D01*
X148048684Y-126309619D01*
X147497413Y-126501592D01*
X147492394Y-126503223D01*
X146595593Y-126773983D01*
X146590510Y-126775402D01*
X145683191Y-127008362D01*
X145678053Y-127009568D01*
X145135758Y-127124837D01*
X144761721Y-127204341D01*
X144756548Y-127205327D01*
X143832867Y-127361556D01*
X143827663Y-127362324D01*
X143284953Y-127430884D01*
X142898289Y-127479731D01*
X142893041Y-127480283D01*
X142843669Y-127484429D01*
X142674199Y-127498660D01*
X142604644Y-127484429D01*
X142553824Y-127434852D01*
X142537875Y-127365670D01*
X142554537Y-127310102D01*
X142593942Y-127241852D01*
X142634527Y-127171556D01*
X142693542Y-126989928D01*
X142703393Y-126896206D01*
X142712814Y-126806565D01*
X142713504Y-126800000D01*
X142693542Y-126610072D01*
X142634527Y-126428444D01*
X142539040Y-126263056D01*
X142411253Y-126121134D01*
X142280368Y-126026040D01*
X142262094Y-126012763D01*
X142262093Y-126012762D01*
X142256752Y-126008882D01*
X142250724Y-126006198D01*
X142250722Y-126006197D01*
X142088319Y-125933891D01*
X142088318Y-125933891D01*
X142082288Y-125931206D01*
X141988887Y-125911353D01*
X141901944Y-125892872D01*
X141901939Y-125892872D01*
X141895487Y-125891500D01*
X141704513Y-125891500D01*
X141698061Y-125892872D01*
X141698056Y-125892872D01*
X141611113Y-125911353D01*
X141517712Y-125931206D01*
X141511682Y-125933891D01*
X141511681Y-125933891D01*
X141349278Y-126006197D01*
X141349276Y-126006198D01*
X141343248Y-126008882D01*
X141331729Y-126017251D01*
X141288114Y-126048939D01*
X141221246Y-126072797D01*
X141152095Y-126056716D01*
X141120417Y-126031311D01*
X141115672Y-126026040D01*
X141115664Y-126026032D01*
X141111253Y-126021134D01*
X140956752Y-125908882D01*
X140950724Y-125906198D01*
X140950722Y-125906197D01*
X140788319Y-125833891D01*
X140788318Y-125833891D01*
X140782288Y-125831206D01*
X140688888Y-125811353D01*
X140601944Y-125792872D01*
X140601939Y-125792872D01*
X140595487Y-125791500D01*
X140404513Y-125791500D01*
X140398061Y-125792872D01*
X140398056Y-125792872D01*
X140311112Y-125811353D01*
X140217712Y-125831206D01*
X140211682Y-125833891D01*
X140211681Y-125833891D01*
X140049278Y-125906197D01*
X140049276Y-125906198D01*
X140043248Y-125908882D01*
X139888747Y-126021134D01*
X139884326Y-126026044D01*
X139884325Y-126026045D01*
X139879584Y-126031311D01*
X139760960Y-126163056D01*
X139665473Y-126328444D01*
X139606458Y-126510072D01*
X139605768Y-126516633D01*
X139605768Y-126516635D01*
X139596049Y-126609105D01*
X139586496Y-126700000D01*
X139606458Y-126889928D01*
X139665473Y-127071556D01*
X139760960Y-127236944D01*
X139765378Y-127241851D01*
X139765379Y-127241852D01*
X139886297Y-127376145D01*
X139917015Y-127440152D01*
X139908250Y-127510606D01*
X139862787Y-127565137D01*
X139795060Y-127586432D01*
X139787398Y-127586344D01*
X139135049Y-127559003D01*
X139129791Y-127558672D01*
X138871930Y-127537019D01*
X138196282Y-127480283D01*
X138191033Y-127479731D01*
X137804369Y-127430884D01*
X137261659Y-127362324D01*
X137256455Y-127361556D01*
X136332774Y-127205327D01*
X136327601Y-127204341D01*
X135953564Y-127124837D01*
X135411269Y-127009568D01*
X135406131Y-127008362D01*
X134498812Y-126775402D01*
X134493729Y-126773983D01*
X133596928Y-126503223D01*
X133591909Y-126501592D01*
X133040638Y-126309619D01*
X132707250Y-126193522D01*
X132702326Y-126191691D01*
X131831310Y-125846831D01*
X131826445Y-125844786D01*
X130970656Y-125463765D01*
X130965881Y-125461518D01*
X130445324Y-125203111D01*
X130154662Y-125058825D01*
X130102539Y-125010620D01*
X130084752Y-124941887D01*
X130106948Y-124874450D01*
X130126178Y-124852554D01*
X130131253Y-124848866D01*
X130135674Y-124843956D01*
X130254621Y-124711852D01*
X130254622Y-124711851D01*
X130259040Y-124706944D01*
X130354527Y-124541556D01*
X130413542Y-124359928D01*
X130416191Y-124334729D01*
X130432814Y-124176565D01*
X130433504Y-124170000D01*
X130426498Y-124103342D01*
X130414232Y-123986635D01*
X130414232Y-123986633D01*
X130413542Y-123980072D01*
X130354527Y-123798444D01*
X130259040Y-123633056D01*
X130220307Y-123590038D01*
X130135675Y-123496045D01*
X130135674Y-123496044D01*
X130131253Y-123491134D01*
X129976752Y-123378882D01*
X129970724Y-123376198D01*
X129970722Y-123376197D01*
X129808319Y-123303891D01*
X129808318Y-123303891D01*
X129802288Y-123301206D01*
X129615487Y-123261500D01*
X129616007Y-123259053D01*
X129560778Y-123236318D01*
X129519790Y-123176972D01*
X129486569Y-123074729D01*
X129484527Y-123068444D01*
X129389040Y-122903056D01*
X129316360Y-122822336D01*
X129265675Y-122766045D01*
X129265674Y-122766044D01*
X129261253Y-122761134D01*
X129114815Y-122654740D01*
X129112094Y-122652763D01*
X129112093Y-122652762D01*
X129106752Y-122648882D01*
X129100724Y-122646198D01*
X129100722Y-122646197D01*
X129030216Y-122614806D01*
X128976120Y-122568826D01*
X128955471Y-122500899D01*
X128974823Y-122432590D01*
X129029615Y-122384862D01*
X129062799Y-122369879D01*
X129062807Y-122369875D01*
X129065511Y-122368654D01*
X129068082Y-122367188D01*
X129068087Y-122367185D01*
X129238048Y-122270241D01*
X129414406Y-122169648D01*
X129743024Y-121938691D01*
X129756993Y-121926761D01*
X130046196Y-121679758D01*
X130048450Y-121677833D01*
X130116780Y-121607321D01*
X130325898Y-121391529D01*
X130325906Y-121391520D01*
X130327970Y-121389390D01*
X130337844Y-121377066D01*
X130577247Y-121078242D01*
X130579106Y-121075922D01*
X130610905Y-121027512D01*
X130797995Y-120742695D01*
X130798001Y-120742685D01*
X130799626Y-120740211D01*
X130987575Y-120385237D01*
X131141284Y-120014151D01*
X131259389Y-119630247D01*
X131259992Y-119627337D01*
X131340236Y-119239851D01*
X131340238Y-119239841D01*
X131340840Y-119236932D01*
X131384916Y-118837697D01*
X131384993Y-118835244D01*
X131384994Y-118835231D01*
X131393251Y-118572468D01*
X131393329Y-118570000D01*
X131374408Y-118168785D01*
X131321041Y-117793803D01*
X131318232Y-117774068D01*
X131318231Y-117774065D01*
X131317814Y-117771132D01*
X131286777Y-117641852D01*
X131224740Y-117383450D01*
X131224738Y-117383443D01*
X131224048Y-117380569D01*
X131127988Y-117100000D01*
X144886496Y-117100000D01*
X144887186Y-117106565D01*
X144896608Y-117196206D01*
X144906458Y-117289928D01*
X144965473Y-117471556D01*
X145060960Y-117636944D01*
X145065378Y-117641851D01*
X145065379Y-117641852D01*
X145124165Y-117707140D01*
X145188747Y-117778866D01*
X145343248Y-117891118D01*
X145349276Y-117893802D01*
X145349278Y-117893803D01*
X145511681Y-117966109D01*
X145517712Y-117968794D01*
X145575692Y-117981118D01*
X145698056Y-118007128D01*
X145698061Y-118007128D01*
X145704513Y-118008500D01*
X145895487Y-118008500D01*
X145901939Y-118007128D01*
X145901944Y-118007128D01*
X146024308Y-117981118D01*
X146082288Y-117968794D01*
X146088319Y-117966109D01*
X146250722Y-117893803D01*
X146250724Y-117893802D01*
X146256752Y-117891118D01*
X146411253Y-117778866D01*
X146459967Y-117724764D01*
X146520411Y-117687526D01*
X146591395Y-117688878D01*
X146627662Y-117707140D01*
X146731729Y-117782749D01*
X146743248Y-117791118D01*
X146749276Y-117793802D01*
X146749278Y-117793803D01*
X146911681Y-117866109D01*
X146917712Y-117868794D01*
X147004479Y-117887237D01*
X147098056Y-117907128D01*
X147098061Y-117907128D01*
X147104513Y-117908500D01*
X147295487Y-117908500D01*
X147301939Y-117907128D01*
X147301944Y-117907128D01*
X147395521Y-117887237D01*
X147482288Y-117868794D01*
X147488319Y-117866109D01*
X147650722Y-117793803D01*
X147650724Y-117793802D01*
X147656752Y-117791118D01*
X147673616Y-117778866D01*
X147712157Y-117750864D01*
X147811253Y-117678866D01*
X147857859Y-117627105D01*
X147934621Y-117541852D01*
X147934622Y-117541851D01*
X147939040Y-117536944D01*
X148027660Y-117383450D01*
X148031223Y-117377279D01*
X148031224Y-117377278D01*
X148034527Y-117371556D01*
X148093542Y-117189928D01*
X148113504Y-117000000D01*
X148104052Y-116910072D01*
X148094232Y-116816635D01*
X148094232Y-116816633D01*
X148093542Y-116810072D01*
X148034527Y-116628444D01*
X147939040Y-116463056D01*
X147902748Y-116422749D01*
X147815675Y-116326045D01*
X147815671Y-116326041D01*
X147811253Y-116321134D01*
X147656752Y-116208882D01*
X147650724Y-116206198D01*
X147650722Y-116206197D01*
X147488319Y-116133891D01*
X147488318Y-116133891D01*
X147482288Y-116131206D01*
X147388887Y-116111353D01*
X147301944Y-116092872D01*
X147301939Y-116092872D01*
X147295487Y-116091500D01*
X147104513Y-116091500D01*
X147098061Y-116092872D01*
X147098056Y-116092872D01*
X147011113Y-116111353D01*
X146917712Y-116131206D01*
X146911682Y-116133891D01*
X146911681Y-116133891D01*
X146749278Y-116206197D01*
X146749276Y-116206198D01*
X146743248Y-116208882D01*
X146588747Y-116321134D01*
X146540033Y-116375236D01*
X146479589Y-116412474D01*
X146408605Y-116411122D01*
X146372338Y-116392860D01*
X146262094Y-116312763D01*
X146262093Y-116312762D01*
X146256752Y-116308882D01*
X146250724Y-116306198D01*
X146250722Y-116306197D01*
X146088319Y-116233891D01*
X146088318Y-116233891D01*
X146082288Y-116231206D01*
X145988888Y-116211353D01*
X145901944Y-116192872D01*
X145901939Y-116192872D01*
X145895487Y-116191500D01*
X145704513Y-116191500D01*
X145698061Y-116192872D01*
X145698056Y-116192872D01*
X145611112Y-116211353D01*
X145517712Y-116231206D01*
X145511682Y-116233891D01*
X145511681Y-116233891D01*
X145349278Y-116306197D01*
X145349276Y-116306198D01*
X145343248Y-116308882D01*
X145337907Y-116312762D01*
X145337906Y-116312763D01*
X145322590Y-116323891D01*
X145188747Y-116421134D01*
X145184326Y-116426044D01*
X145184325Y-116426045D01*
X145087336Y-116533763D01*
X145060960Y-116563056D01*
X144965473Y-116728444D01*
X144906458Y-116910072D01*
X144886496Y-117100000D01*
X131127988Y-117100000D01*
X131093943Y-117000564D01*
X130928654Y-116634489D01*
X130914781Y-116610166D01*
X130807880Y-116422749D01*
X130729648Y-116285594D01*
X130498691Y-115956976D01*
X130488230Y-115944727D01*
X130239758Y-115653804D01*
X130237833Y-115651550D01*
X130146512Y-115563054D01*
X129951529Y-115374102D01*
X129951520Y-115374094D01*
X129949390Y-115372030D01*
X129924781Y-115352314D01*
X129697423Y-115170166D01*
X129635922Y-115120894D01*
X129566387Y-115075218D01*
X129520433Y-115021100D01*
X129511032Y-114950729D01*
X129541169Y-114886446D01*
X129601276Y-114848661D01*
X129661760Y-114846659D01*
X129695868Y-114853909D01*
X129758056Y-114867128D01*
X129758061Y-114867128D01*
X129764513Y-114868500D01*
X129955487Y-114868500D01*
X129961939Y-114867128D01*
X129961944Y-114867128D01*
X130058240Y-114846659D01*
X130142288Y-114828794D01*
X130148319Y-114826109D01*
X130310722Y-114753803D01*
X130310724Y-114753802D01*
X130316752Y-114751118D01*
X130471253Y-114638866D01*
X130486236Y-114622226D01*
X130594621Y-114501852D01*
X130594622Y-114501851D01*
X130599040Y-114496944D01*
X130694527Y-114331556D01*
X130753542Y-114149928D01*
X130758671Y-114101134D01*
X130772814Y-113966565D01*
X130773504Y-113960000D01*
X130760035Y-113831852D01*
X130754232Y-113776635D01*
X130754232Y-113776633D01*
X130753542Y-113770072D01*
X130694527Y-113588444D01*
X130687369Y-113576045D01*
X130618174Y-113456197D01*
X130599040Y-113423056D01*
X130572775Y-113393885D01*
X130475675Y-113286045D01*
X130475674Y-113286044D01*
X130471253Y-113281134D01*
X130349155Y-113192424D01*
X130322094Y-113172763D01*
X130322093Y-113172762D01*
X130316752Y-113168882D01*
X130310724Y-113166198D01*
X130310722Y-113166197D01*
X130148319Y-113093891D01*
X130148318Y-113093891D01*
X130142288Y-113091206D01*
X130048888Y-113071353D01*
X129961944Y-113052872D01*
X129961939Y-113052872D01*
X129955487Y-113051500D01*
X129764513Y-113051500D01*
X129758061Y-113052872D01*
X129758056Y-113052872D01*
X129671113Y-113071353D01*
X129577712Y-113091206D01*
X129571682Y-113093891D01*
X129571681Y-113093891D01*
X129409278Y-113166197D01*
X129409276Y-113166198D01*
X129403248Y-113168882D01*
X129397907Y-113172762D01*
X129397906Y-113172763D01*
X129370845Y-113192424D01*
X129248747Y-113281134D01*
X129244326Y-113286044D01*
X129244325Y-113286045D01*
X129147226Y-113393885D01*
X129120960Y-113423056D01*
X129101826Y-113456197D01*
X129032632Y-113576045D01*
X129025473Y-113588444D01*
X128966458Y-113770072D01*
X128965768Y-113776633D01*
X128965768Y-113776635D01*
X128959965Y-113831852D01*
X128946496Y-113960000D01*
X128947186Y-113966565D01*
X128961330Y-114101134D01*
X128966458Y-114149928D01*
X129025473Y-114331556D01*
X129120960Y-114496944D01*
X129125378Y-114501851D01*
X129125379Y-114501852D01*
X129176132Y-114558219D01*
X129206850Y-114622226D01*
X129198085Y-114692680D01*
X129152622Y-114747211D01*
X129084895Y-114768506D01*
X129023538Y-114753883D01*
X128953957Y-114717042D01*
X128947859Y-114713813D01*
X128947854Y-114713811D01*
X128945237Y-114712425D01*
X128574151Y-114558716D01*
X128430585Y-114514549D01*
X128193085Y-114441484D01*
X128193083Y-114441484D01*
X128190247Y-114440611D01*
X128187344Y-114440010D01*
X128187337Y-114440008D01*
X127799851Y-114359764D01*
X127799841Y-114359762D01*
X127796932Y-114359160D01*
X127546898Y-114331556D01*
X127400659Y-114315411D01*
X127397697Y-114315084D01*
X127394716Y-114315037D01*
X127394713Y-114315037D01*
X127282454Y-114313274D01*
X126996086Y-114308775D01*
X126993142Y-114309007D01*
X126993132Y-114309007D01*
X126608775Y-114339257D01*
X126595663Y-114340289D01*
X126199984Y-114409346D01*
X126197117Y-114410130D01*
X126197105Y-114410133D01*
X125815423Y-114514549D01*
X125815413Y-114514552D01*
X125812559Y-114515333D01*
X125809795Y-114516377D01*
X125809784Y-114516381D01*
X125463292Y-114647310D01*
X125436828Y-114657310D01*
X125434161Y-114658617D01*
X125434160Y-114658617D01*
X125096539Y-114824016D01*
X125076126Y-114834016D01*
X125073591Y-114835569D01*
X125073590Y-114835570D01*
X124923980Y-114927251D01*
X124733654Y-115043883D01*
X124412452Y-115285049D01*
X124410253Y-115287050D01*
X124338528Y-115352314D01*
X124274682Y-115383366D01*
X124204184Y-115374970D01*
X124149415Y-115329793D01*
X124133896Y-115298056D01*
X124129090Y-115283263D01*
X124114527Y-115238444D01*
X124019040Y-115073056D01*
X123933902Y-114978500D01*
X123895675Y-114936045D01*
X123895674Y-114936044D01*
X123891253Y-114931134D01*
X123745957Y-114825570D01*
X123742094Y-114822763D01*
X123742093Y-114822762D01*
X123736752Y-114818882D01*
X123730724Y-114816198D01*
X123730722Y-114816197D01*
X123568319Y-114743891D01*
X123568318Y-114743891D01*
X123562288Y-114741206D01*
X123448606Y-114717042D01*
X123381944Y-114702872D01*
X123381939Y-114702872D01*
X123375487Y-114701500D01*
X123184513Y-114701500D01*
X123178061Y-114702872D01*
X123178056Y-114702872D01*
X123111394Y-114717042D01*
X122997712Y-114741206D01*
X122991682Y-114743891D01*
X122991681Y-114743891D01*
X122829278Y-114816197D01*
X122829276Y-114816198D01*
X122823248Y-114818882D01*
X122817907Y-114822762D01*
X122817906Y-114822763D01*
X122814043Y-114825570D01*
X122668747Y-114931134D01*
X122664326Y-114936044D01*
X122664325Y-114936045D01*
X122626099Y-114978500D01*
X122540960Y-115073056D01*
X122445473Y-115238444D01*
X122386458Y-115420072D01*
X122385768Y-115426633D01*
X122385768Y-115426635D01*
X122374325Y-115535508D01*
X122366496Y-115610000D01*
X122367186Y-115616565D01*
X122385067Y-115786690D01*
X122386458Y-115799928D01*
X122445473Y-115981556D01*
X122448776Y-115987278D01*
X122448777Y-115987279D01*
X122510490Y-116094169D01*
X122527228Y-116163164D01*
X122504007Y-116230256D01*
X122448200Y-116274143D01*
X122389346Y-116282320D01*
X122385487Y-116281500D01*
X122194513Y-116281500D01*
X122188061Y-116282872D01*
X122188056Y-116282872D01*
X122101112Y-116301353D01*
X122007712Y-116321206D01*
X122001682Y-116323891D01*
X122001681Y-116323891D01*
X121839278Y-116396197D01*
X121839276Y-116396198D01*
X121833248Y-116398882D01*
X121678747Y-116511134D01*
X121674326Y-116516044D01*
X121674325Y-116516045D01*
X121556298Y-116647128D01*
X121550960Y-116653056D01*
X121505985Y-116730955D01*
X121454602Y-116779948D01*
X121384888Y-116793383D01*
X121318977Y-116766996D01*
X121287747Y-116730954D01*
X121232192Y-116634729D01*
X120836534Y-115949430D01*
X120833991Y-115944805D01*
X120399979Y-115114616D01*
X120397633Y-115109889D01*
X120016528Y-114300000D01*
X120686496Y-114300000D01*
X120687186Y-114306565D01*
X120701275Y-114440611D01*
X120706458Y-114489928D01*
X120765473Y-114671556D01*
X120860960Y-114836944D01*
X120865378Y-114841851D01*
X120865379Y-114841852D01*
X120942273Y-114927251D01*
X120988747Y-114978866D01*
X121046877Y-115021100D01*
X121121364Y-115075218D01*
X121143248Y-115091118D01*
X121149276Y-115093802D01*
X121149278Y-115093803D01*
X121311681Y-115166109D01*
X121317712Y-115168794D01*
X121411112Y-115188647D01*
X121498056Y-115207128D01*
X121498061Y-115207128D01*
X121504513Y-115208500D01*
X121695487Y-115208500D01*
X121701939Y-115207128D01*
X121701944Y-115207128D01*
X121788888Y-115188647D01*
X121882288Y-115168794D01*
X121888319Y-115166109D01*
X122050722Y-115093803D01*
X122050724Y-115093802D01*
X122056752Y-115091118D01*
X122078637Y-115075218D01*
X122153123Y-115021100D01*
X122211253Y-114978866D01*
X122257727Y-114927251D01*
X122334621Y-114841852D01*
X122334622Y-114841851D01*
X122339040Y-114836944D01*
X122434527Y-114671556D01*
X122493542Y-114489928D01*
X122498726Y-114440611D01*
X122512814Y-114306565D01*
X122513504Y-114300000D01*
X122502836Y-114198500D01*
X122494232Y-114116635D01*
X122494232Y-114116633D01*
X122493542Y-114110072D01*
X122434527Y-113928444D01*
X122426126Y-113913892D01*
X122375926Y-113826944D01*
X122339040Y-113763056D01*
X122299169Y-113718774D01*
X122215675Y-113626045D01*
X122215674Y-113626044D01*
X122211253Y-113621134D01*
X122074604Y-113521852D01*
X122062094Y-113512763D01*
X122062093Y-113512762D01*
X122056752Y-113508882D01*
X122050724Y-113506198D01*
X122050722Y-113506197D01*
X121888319Y-113433891D01*
X121888318Y-113433891D01*
X121882288Y-113431206D01*
X121788887Y-113411353D01*
X121701944Y-113392872D01*
X121701939Y-113392872D01*
X121695487Y-113391500D01*
X121504513Y-113391500D01*
X121498061Y-113392872D01*
X121498056Y-113392872D01*
X121411113Y-113411353D01*
X121317712Y-113431206D01*
X121311682Y-113433891D01*
X121311681Y-113433891D01*
X121149278Y-113506197D01*
X121149276Y-113506198D01*
X121143248Y-113508882D01*
X121137907Y-113512762D01*
X121137906Y-113512763D01*
X121125396Y-113521852D01*
X120988747Y-113621134D01*
X120984326Y-113626044D01*
X120984325Y-113626045D01*
X120900832Y-113718774D01*
X120860960Y-113763056D01*
X120824074Y-113826944D01*
X120773875Y-113913892D01*
X120765473Y-113928444D01*
X120706458Y-114110072D01*
X120705768Y-114116633D01*
X120705768Y-114116635D01*
X120697164Y-114198500D01*
X120686496Y-114300000D01*
X120016528Y-114300000D01*
X119998783Y-114262291D01*
X119996636Y-114257470D01*
X119842484Y-113890757D01*
X119633611Y-113393868D01*
X119631675Y-113388978D01*
X119629784Y-113383891D01*
X119305133Y-112510930D01*
X119303401Y-112505956D01*
X119284822Y-112448774D01*
X119129237Y-111969934D01*
X119013931Y-111615059D01*
X119012406Y-111610007D01*
X118760481Y-110707713D01*
X118759168Y-110702601D01*
X118718269Y-110528224D01*
X118586485Y-109966362D01*
X118545257Y-109790586D01*
X118544160Y-109785424D01*
X118368626Y-108865242D01*
X118367746Y-108860038D01*
X118230902Y-107933333D01*
X118230240Y-107928098D01*
X118132317Y-106996425D01*
X118131876Y-106991166D01*
X118129106Y-106947128D01*
X118090716Y-106336944D01*
X118073057Y-106056255D01*
X118072836Y-106050982D01*
X118066318Y-105739824D01*
X118084889Y-105671299D01*
X118137559Y-105623693D01*
X118207606Y-105612119D01*
X118266351Y-105635249D01*
X118320691Y-105674729D01*
X118343248Y-105691118D01*
X118349276Y-105693802D01*
X118349278Y-105693803D01*
X118492408Y-105757528D01*
X118517712Y-105768794D01*
X118597168Y-105785683D01*
X118698056Y-105807128D01*
X118698061Y-105807128D01*
X118704513Y-105808500D01*
X118895487Y-105808500D01*
X118901939Y-105807128D01*
X118901944Y-105807128D01*
X119002832Y-105785683D01*
X119082288Y-105768794D01*
X119107592Y-105757528D01*
X119250722Y-105693803D01*
X119250724Y-105693802D01*
X119256752Y-105691118D01*
X119279310Y-105674729D01*
X119320489Y-105644810D01*
X119387356Y-105620952D01*
X119456508Y-105637032D01*
X119505988Y-105687946D01*
X119520088Y-105757528D01*
X119514384Y-105785679D01*
X119506458Y-105810072D01*
X119486496Y-106000000D01*
X119487186Y-106006565D01*
X119505129Y-106177279D01*
X119506458Y-106189928D01*
X119565473Y-106371556D01*
X119660960Y-106536944D01*
X119665378Y-106541851D01*
X119665379Y-106541852D01*
X119779678Y-106668794D01*
X119788747Y-106678866D01*
X119943248Y-106791118D01*
X119949276Y-106793802D01*
X119949278Y-106793803D01*
X120111681Y-106866109D01*
X120117712Y-106868794D01*
X120211113Y-106888647D01*
X120298056Y-106907128D01*
X120298061Y-106907128D01*
X120304513Y-106908500D01*
X120495487Y-106908500D01*
X120501939Y-106907128D01*
X120501944Y-106907128D01*
X120588887Y-106888647D01*
X120682288Y-106868794D01*
X120688319Y-106866109D01*
X120850722Y-106793803D01*
X120850724Y-106793802D01*
X120856752Y-106791118D01*
X121011253Y-106678866D01*
X121020322Y-106668794D01*
X121134621Y-106541852D01*
X121134622Y-106541851D01*
X121139040Y-106536944D01*
X121234527Y-106371556D01*
X121293542Y-106189928D01*
X121294872Y-106177279D01*
X121312814Y-106006565D01*
X121313504Y-106000000D01*
X121293542Y-105810072D01*
X121272499Y-105745309D01*
X121270471Y-105674342D01*
X121307134Y-105613544D01*
X121370846Y-105582218D01*
X121443580Y-105591266D01*
X121510257Y-105620952D01*
X121606462Y-105663785D01*
X121617712Y-105668794D01*
X121704479Y-105687237D01*
X121798056Y-105707128D01*
X121798061Y-105707128D01*
X121804513Y-105708500D01*
X121995487Y-105708500D01*
X122001939Y-105707128D01*
X122001944Y-105707128D01*
X122095521Y-105687237D01*
X122182288Y-105668794D01*
X122188319Y-105666109D01*
X122350722Y-105593803D01*
X122350724Y-105593802D01*
X122356752Y-105591118D01*
X122373616Y-105578866D01*
X122477958Y-105503056D01*
X122511253Y-105478866D01*
X122610380Y-105368774D01*
X122634621Y-105341852D01*
X122634622Y-105341851D01*
X122639040Y-105336944D01*
X122714527Y-105206197D01*
X122731223Y-105177279D01*
X122731224Y-105177278D01*
X122734527Y-105171556D01*
X122793542Y-104989928D01*
X122813504Y-104800000D01*
X122793542Y-104610072D01*
X122734527Y-104428444D01*
X122639040Y-104263056D01*
X122511253Y-104121134D01*
X122356752Y-104008882D01*
X122350724Y-104006198D01*
X122350722Y-104006197D01*
X122188319Y-103933891D01*
X122188318Y-103933891D01*
X122182288Y-103931206D01*
X122088888Y-103911353D01*
X122001944Y-103892872D01*
X122001939Y-103892872D01*
X121995487Y-103891500D01*
X121804513Y-103891500D01*
X121798061Y-103892872D01*
X121798056Y-103892872D01*
X121711113Y-103911353D01*
X121617712Y-103931206D01*
X121611682Y-103933891D01*
X121611681Y-103933891D01*
X121449278Y-104006197D01*
X121449276Y-104006198D01*
X121443248Y-104008882D01*
X121399691Y-104040528D01*
X121332826Y-104064385D01*
X121263674Y-104048305D01*
X121214194Y-103997392D01*
X121200322Y-103925421D01*
X121212814Y-103806565D01*
X121212814Y-103806564D01*
X121213504Y-103800000D01*
X121193542Y-103610072D01*
X121134527Y-103428444D01*
X121039040Y-103263056D01*
X120911253Y-103121134D01*
X120780375Y-103026045D01*
X120762094Y-103012763D01*
X120762093Y-103012762D01*
X120756752Y-103008882D01*
X120750724Y-103006198D01*
X120750722Y-103006197D01*
X120588319Y-102933891D01*
X120588318Y-102933891D01*
X120582288Y-102931206D01*
X120488887Y-102911353D01*
X120401944Y-102892872D01*
X120401939Y-102892872D01*
X120395487Y-102891500D01*
X120204513Y-102891500D01*
X120198061Y-102892872D01*
X120198056Y-102892872D01*
X120111113Y-102911353D01*
X120017712Y-102931206D01*
X120011682Y-102933891D01*
X120011681Y-102933891D01*
X119849278Y-103006197D01*
X119849276Y-103006198D01*
X119843248Y-103008882D01*
X119837907Y-103012762D01*
X119837906Y-103012763D01*
X119819625Y-103026045D01*
X119688747Y-103121134D01*
X119560960Y-103263056D01*
X119465473Y-103428444D01*
X119406458Y-103610072D01*
X119386496Y-103800000D01*
X119400569Y-103933891D01*
X119404112Y-103967604D01*
X119391340Y-104037443D01*
X119342838Y-104089290D01*
X119274005Y-104106684D01*
X119227553Y-104095882D01*
X119088319Y-104033891D01*
X119088318Y-104033891D01*
X119082288Y-104031206D01*
X118988888Y-104011353D01*
X118901944Y-103992872D01*
X118901939Y-103992872D01*
X118895487Y-103991500D01*
X118704513Y-103991500D01*
X118698061Y-103992872D01*
X118698056Y-103992872D01*
X118611112Y-104011353D01*
X118517712Y-104031206D01*
X118511682Y-104033891D01*
X118511681Y-104033891D01*
X118349278Y-104106197D01*
X118349276Y-104106198D01*
X118343248Y-104108882D01*
X118337907Y-104112762D01*
X118337906Y-104112763D01*
X118280591Y-104154405D01*
X118213723Y-104178264D01*
X118144572Y-104162183D01*
X118095091Y-104111269D01*
X118080779Y-104044557D01*
X118125437Y-103334729D01*
X118131877Y-103232368D01*
X118132317Y-103227125D01*
X118135803Y-103193965D01*
X118229534Y-102302168D01*
X118230240Y-102295452D01*
X118230902Y-102290217D01*
X118367746Y-101363512D01*
X118368626Y-101358308D01*
X118467498Y-100840000D01*
X129746496Y-100840000D01*
X129766458Y-101029928D01*
X129825473Y-101211556D01*
X129920960Y-101376944D01*
X130048747Y-101518866D01*
X130147843Y-101590864D01*
X130184809Y-101617721D01*
X130203248Y-101631118D01*
X130209276Y-101633802D01*
X130209278Y-101633803D01*
X130371681Y-101706109D01*
X130377712Y-101708794D01*
X130384167Y-101710166D01*
X130384176Y-101710169D01*
X130449080Y-101723965D01*
X130511553Y-101757693D01*
X130545874Y-101819843D01*
X130543214Y-101884573D01*
X130413547Y-102302168D01*
X130260921Y-102925899D01*
X130260580Y-102927785D01*
X130154099Y-103516635D01*
X130146658Y-103557783D01*
X130071183Y-104195464D01*
X130071073Y-104197403D01*
X130041962Y-104710072D01*
X130034779Y-104836564D01*
X130034787Y-104838485D01*
X130034787Y-104838500D01*
X130035912Y-105096202D01*
X130035980Y-105111775D01*
X130037581Y-105478690D01*
X130037707Y-105480611D01*
X130037707Y-105480614D01*
X130045126Y-105593803D01*
X130079578Y-106119448D01*
X130120593Y-106441852D01*
X130154515Y-106708500D01*
X130160614Y-106756446D01*
X130280388Y-107387310D01*
X130438451Y-108009684D01*
X130439029Y-108011491D01*
X130439032Y-108011500D01*
X130494170Y-108183750D01*
X130634214Y-108621248D01*
X130634910Y-108623037D01*
X130634915Y-108623052D01*
X130727074Y-108860038D01*
X130866947Y-109219721D01*
X130867740Y-109221440D01*
X130867745Y-109221453D01*
X130944522Y-109387995D01*
X131135782Y-109802869D01*
X131136689Y-109804558D01*
X131136694Y-109804567D01*
X131223630Y-109966362D01*
X131439716Y-110368517D01*
X131777615Y-110914556D01*
X132148219Y-111438948D01*
X132550144Y-111939737D01*
X132755313Y-112165610D01*
X132898018Y-112322716D01*
X132929015Y-112386589D01*
X132920558Y-112457080D01*
X132878812Y-112509370D01*
X132809355Y-112559834D01*
X132738747Y-112611134D01*
X132610960Y-112753056D01*
X132515473Y-112918444D01*
X132456458Y-113100072D01*
X132455768Y-113106633D01*
X132455768Y-113106635D01*
X132443696Y-113221492D01*
X132436496Y-113290000D01*
X132437186Y-113296565D01*
X132451082Y-113428774D01*
X132456458Y-113479928D01*
X132515473Y-113661556D01*
X132610960Y-113826944D01*
X132615378Y-113831851D01*
X132615379Y-113831852D01*
X132661202Y-113882744D01*
X132738747Y-113968866D01*
X132787695Y-114004429D01*
X132880810Y-114072081D01*
X132893248Y-114081118D01*
X132899276Y-114083802D01*
X132899278Y-114083803D01*
X133061681Y-114156109D01*
X133067712Y-114158794D01*
X133174624Y-114181519D01*
X133248057Y-114197128D01*
X133248060Y-114197128D01*
X133254513Y-114198500D01*
X133261116Y-114198500D01*
X133264914Y-114198899D01*
X133330571Y-114225910D01*
X133365255Y-114270886D01*
X133365473Y-114271556D01*
X133460960Y-114436944D01*
X133465378Y-114441851D01*
X133465379Y-114441852D01*
X133508667Y-114489928D01*
X133588747Y-114578866D01*
X133743248Y-114691118D01*
X133749276Y-114693802D01*
X133749278Y-114693803D01*
X133881674Y-114752749D01*
X133917712Y-114768794D01*
X134001318Y-114786565D01*
X134098056Y-114807128D01*
X134098061Y-114807128D01*
X134104513Y-114808500D01*
X134295487Y-114808500D01*
X134301939Y-114807128D01*
X134301944Y-114807128D01*
X134398682Y-114786565D01*
X134482288Y-114768794D01*
X134518326Y-114752749D01*
X134650722Y-114693803D01*
X134650724Y-114693802D01*
X134656752Y-114691118D01*
X134811253Y-114578866D01*
X134891333Y-114489928D01*
X134934621Y-114441852D01*
X134934622Y-114441851D01*
X134939040Y-114436944D01*
X135012905Y-114309007D01*
X135031223Y-114277279D01*
X135031224Y-114277277D01*
X135034527Y-114271556D01*
X135043094Y-114245190D01*
X135083165Y-114186587D01*
X135148561Y-114158949D01*
X135218518Y-114171054D01*
X135226399Y-114175282D01*
X135266211Y-114198500D01*
X135508943Y-114340057D01*
X135528060Y-114351206D01*
X136101470Y-114640228D01*
X136691456Y-114893706D01*
X137295815Y-115110693D01*
X137912295Y-115290381D01*
X138538593Y-115432098D01*
X139172376Y-115535316D01*
X139447846Y-115563054D01*
X139513621Y-115589780D01*
X139554504Y-115647824D01*
X139560533Y-115701590D01*
X139556496Y-115740000D01*
X139576458Y-115929928D01*
X139635473Y-116111556D01*
X139730960Y-116276944D01*
X139735378Y-116281851D01*
X139735379Y-116281852D01*
X139835206Y-116392721D01*
X139858747Y-116418866D01*
X139949456Y-116484770D01*
X139989093Y-116513568D01*
X140013248Y-116531118D01*
X140019276Y-116533802D01*
X140019278Y-116533803D01*
X140181681Y-116606109D01*
X140187712Y-116608794D01*
X140261551Y-116624489D01*
X140368056Y-116647128D01*
X140368061Y-116647128D01*
X140374513Y-116648500D01*
X140565487Y-116648500D01*
X140571939Y-116647128D01*
X140571944Y-116647128D01*
X140678449Y-116624489D01*
X140752288Y-116608794D01*
X140758319Y-116606109D01*
X140920722Y-116533803D01*
X140920724Y-116533802D01*
X140926752Y-116531118D01*
X140950908Y-116513568D01*
X140990544Y-116484770D01*
X141081253Y-116418866D01*
X141104794Y-116392721D01*
X141204621Y-116281852D01*
X141204622Y-116281851D01*
X141209040Y-116276944D01*
X141304527Y-116111556D01*
X141363542Y-115929928D01*
X141383504Y-115740000D01*
X141381010Y-115716268D01*
X141393783Y-115646430D01*
X141442285Y-115594584D01*
X141495886Y-115577532D01*
X141732908Y-115557837D01*
X141732909Y-115557837D01*
X141734821Y-115557678D01*
X141887726Y-115535508D01*
X142165381Y-115495250D01*
X142370309Y-115465537D01*
X142383713Y-115462749D01*
X142997098Y-115335165D01*
X142997114Y-115335161D01*
X142998985Y-115334772D01*
X143618507Y-115165871D01*
X144226561Y-114959464D01*
X144820881Y-114716321D01*
X145399248Y-114437350D01*
X145827796Y-114197352D01*
X145897004Y-114181519D01*
X145963786Y-114205616D01*
X146009195Y-114268351D01*
X146065473Y-114441556D01*
X146160960Y-114606944D01*
X146165378Y-114611851D01*
X146165379Y-114611852D01*
X146281850Y-114741206D01*
X146288747Y-114748866D01*
X146370826Y-114808500D01*
X146390375Y-114822703D01*
X146443248Y-114861118D01*
X146449276Y-114863802D01*
X146449278Y-114863803D01*
X146611681Y-114936109D01*
X146617712Y-114938794D01*
X146711113Y-114958647D01*
X146798056Y-114977128D01*
X146798061Y-114977128D01*
X146804513Y-114978500D01*
X146995487Y-114978500D01*
X147001939Y-114977128D01*
X147001944Y-114977128D01*
X147088887Y-114958647D01*
X147182288Y-114938794D01*
X147188319Y-114936109D01*
X147350722Y-114863803D01*
X147350724Y-114863802D01*
X147356752Y-114861118D01*
X147409626Y-114822703D01*
X147429174Y-114808500D01*
X147511253Y-114748866D01*
X147518150Y-114741206D01*
X147634621Y-114611852D01*
X147634622Y-114611851D01*
X147639040Y-114606944D01*
X147734527Y-114441556D01*
X147793542Y-114259928D01*
X147794586Y-114250000D01*
X147812814Y-114076565D01*
X147813504Y-114070000D01*
X147806612Y-114004428D01*
X147819384Y-113934590D01*
X147867886Y-113882744D01*
X147936719Y-113865349D01*
X147958119Y-113868011D01*
X148048056Y-113887128D01*
X148048061Y-113887128D01*
X148054513Y-113888500D01*
X148245487Y-113888500D01*
X148251939Y-113887128D01*
X148251944Y-113887128D01*
X148354403Y-113865349D01*
X148432288Y-113848794D01*
X148470341Y-113831852D01*
X148600722Y-113773803D01*
X148600724Y-113773802D01*
X148606752Y-113771118D01*
X148617849Y-113763056D01*
X148693422Y-113708148D01*
X148761253Y-113658866D01*
X148840247Y-113571134D01*
X148884621Y-113521852D01*
X148884622Y-113521851D01*
X148889040Y-113516944D01*
X148984527Y-113351556D01*
X149043542Y-113169928D01*
X149063504Y-112980000D01*
X149043542Y-112790072D01*
X148984527Y-112608444D01*
X148889040Y-112443056D01*
X148780686Y-112322716D01*
X148765675Y-112306045D01*
X148765674Y-112306044D01*
X148761253Y-112301134D01*
X148606752Y-112188882D01*
X148600724Y-112186198D01*
X148600722Y-112186197D01*
X148554482Y-112165610D01*
X148500386Y-112119630D01*
X148479737Y-112051703D01*
X148499089Y-111983395D01*
X148508857Y-111969934D01*
X148828170Y-111586002D01*
X148828171Y-111586001D01*
X148829400Y-111584523D01*
X149209099Y-111066678D01*
X149556477Y-110526620D01*
X149870236Y-109966362D01*
X150149207Y-109387995D01*
X150392350Y-108793675D01*
X150598757Y-108185621D01*
X150767658Y-107566099D01*
X150768047Y-107564228D01*
X150768051Y-107564212D01*
X150898031Y-106939308D01*
X150898031Y-106939305D01*
X150898423Y-106937423D01*
X150979640Y-106377279D01*
X150990289Y-106303832D01*
X150990289Y-106303830D01*
X150990564Y-106301935D01*
X151012329Y-106040000D01*
X152886496Y-106040000D01*
X152906458Y-106229928D01*
X152965473Y-106411556D01*
X152968776Y-106417278D01*
X152968777Y-106417279D01*
X152980131Y-106436944D01*
X153060960Y-106576944D01*
X153065378Y-106581851D01*
X153065379Y-106581852D01*
X153166180Y-106693803D01*
X153188747Y-106718866D01*
X153240471Y-106756446D01*
X153291889Y-106793803D01*
X153343248Y-106831118D01*
X153349276Y-106833802D01*
X153349278Y-106833803D01*
X153511681Y-106906109D01*
X153517712Y-106908794D01*
X153611113Y-106928647D01*
X153698056Y-106947128D01*
X153698061Y-106947128D01*
X153704513Y-106948500D01*
X153895487Y-106948500D01*
X153901939Y-106947128D01*
X153901944Y-106947128D01*
X153988888Y-106928647D01*
X154082288Y-106908794D01*
X154088319Y-106906109D01*
X154250722Y-106833803D01*
X154250724Y-106833802D01*
X154256752Y-106831118D01*
X154308112Y-106793803D01*
X154359529Y-106756446D01*
X154411253Y-106718866D01*
X154433820Y-106693803D01*
X154534621Y-106581852D01*
X154534622Y-106581851D01*
X154539040Y-106576944D01*
X154619869Y-106436944D01*
X154631223Y-106417279D01*
X154631224Y-106417278D01*
X154634527Y-106411556D01*
X154693542Y-106229928D01*
X154713504Y-106040000D01*
X154708241Y-105989928D01*
X154694232Y-105856635D01*
X154694232Y-105856633D01*
X154693542Y-105850072D01*
X154677272Y-105800000D01*
X158686496Y-105800000D01*
X158687186Y-105806565D01*
X158692449Y-105856635D01*
X158706458Y-105989928D01*
X158765473Y-106171556D01*
X158860960Y-106336944D01*
X158988747Y-106478866D01*
X159082857Y-106547241D01*
X159126385Y-106578866D01*
X159143248Y-106591118D01*
X159149276Y-106593802D01*
X159149278Y-106593803D01*
X159311681Y-106666109D01*
X159317712Y-106668794D01*
X159383365Y-106682749D01*
X159498056Y-106707128D01*
X159498061Y-106707128D01*
X159504513Y-106708500D01*
X159695487Y-106708500D01*
X159701939Y-106707128D01*
X159701944Y-106707128D01*
X159816635Y-106682749D01*
X159882288Y-106668794D01*
X159888319Y-106666109D01*
X160050722Y-106593803D01*
X160050724Y-106593802D01*
X160056752Y-106591118D01*
X160073616Y-106578866D01*
X160117143Y-106547241D01*
X160211253Y-106478866D01*
X160339040Y-106336944D01*
X160434527Y-106171556D01*
X160493542Y-105989928D01*
X160502994Y-105900000D01*
X160786496Y-105900000D01*
X160787186Y-105906565D01*
X160802365Y-106050982D01*
X160806458Y-106089928D01*
X160865473Y-106271556D01*
X160868776Y-106277278D01*
X160868777Y-106277279D01*
X160899924Y-106331226D01*
X160960960Y-106436944D01*
X161088747Y-106578866D01*
X161109306Y-106593803D01*
X161226385Y-106678866D01*
X161243248Y-106691118D01*
X161249276Y-106693802D01*
X161249278Y-106693803D01*
X161394178Y-106758316D01*
X161417712Y-106768794D01*
X161504479Y-106787237D01*
X161598056Y-106807128D01*
X161598061Y-106807128D01*
X161604513Y-106808500D01*
X161795487Y-106808500D01*
X161801939Y-106807128D01*
X161801944Y-106807128D01*
X161895521Y-106787237D01*
X161982288Y-106768794D01*
X162005822Y-106758316D01*
X162150722Y-106693803D01*
X162150724Y-106693802D01*
X162156752Y-106691118D01*
X162173616Y-106678866D01*
X162290694Y-106593803D01*
X162311253Y-106578866D01*
X162439040Y-106436944D01*
X162500076Y-106331226D01*
X162531223Y-106277279D01*
X162531224Y-106277278D01*
X162534527Y-106271556D01*
X162593542Y-106089928D01*
X162597636Y-106050982D01*
X162612814Y-105906565D01*
X162613504Y-105900000D01*
X162593542Y-105710072D01*
X162534527Y-105528444D01*
X162523171Y-105508774D01*
X162480676Y-105435171D01*
X162439040Y-105363056D01*
X162348921Y-105262968D01*
X162315675Y-105226045D01*
X162315674Y-105226044D01*
X162311253Y-105221134D01*
X162212157Y-105149136D01*
X162162094Y-105112763D01*
X162162093Y-105112762D01*
X162156752Y-105108882D01*
X162150724Y-105106198D01*
X162150722Y-105106197D01*
X161988319Y-105033891D01*
X161988318Y-105033891D01*
X161982288Y-105031206D01*
X161888888Y-105011353D01*
X161801944Y-104992872D01*
X161801939Y-104992872D01*
X161795487Y-104991500D01*
X161604513Y-104991500D01*
X161598061Y-104992872D01*
X161598056Y-104992872D01*
X161511113Y-105011353D01*
X161417712Y-105031206D01*
X161411682Y-105033891D01*
X161411681Y-105033891D01*
X161249278Y-105106197D01*
X161249276Y-105106198D01*
X161243248Y-105108882D01*
X161237907Y-105112762D01*
X161237906Y-105112763D01*
X161187843Y-105149136D01*
X161088747Y-105221134D01*
X161084326Y-105226044D01*
X161084325Y-105226045D01*
X161051080Y-105262968D01*
X160960960Y-105363056D01*
X160919324Y-105435171D01*
X160876830Y-105508774D01*
X160865473Y-105528444D01*
X160806458Y-105710072D01*
X160786496Y-105900000D01*
X160502994Y-105900000D01*
X160507552Y-105856635D01*
X160512814Y-105806565D01*
X160513504Y-105800000D01*
X160503743Y-105707128D01*
X160494232Y-105616635D01*
X160494232Y-105616633D01*
X160493542Y-105610072D01*
X160434527Y-105428444D01*
X160339040Y-105263056D01*
X160331958Y-105255190D01*
X160215675Y-105126045D01*
X160215674Y-105126044D01*
X160211253Y-105121134D01*
X160056752Y-105008882D01*
X160050724Y-105006198D01*
X160050722Y-105006197D01*
X159888319Y-104933891D01*
X159888318Y-104933891D01*
X159882288Y-104931206D01*
X159766362Y-104906565D01*
X159701944Y-104892872D01*
X159701939Y-104892872D01*
X159695487Y-104891500D01*
X159504513Y-104891500D01*
X159498061Y-104892872D01*
X159498056Y-104892872D01*
X159433638Y-104906565D01*
X159317712Y-104931206D01*
X159311682Y-104933891D01*
X159311681Y-104933891D01*
X159149278Y-105006197D01*
X159149276Y-105006198D01*
X159143248Y-105008882D01*
X158988747Y-105121134D01*
X158984326Y-105126044D01*
X158984325Y-105126045D01*
X158868043Y-105255190D01*
X158860960Y-105263056D01*
X158765473Y-105428444D01*
X158706458Y-105610072D01*
X158705768Y-105616633D01*
X158705768Y-105616635D01*
X158696257Y-105707128D01*
X158686496Y-105800000D01*
X154677272Y-105800000D01*
X154634527Y-105668444D01*
X154539040Y-105503056D01*
X154512838Y-105473955D01*
X154415675Y-105366045D01*
X154415674Y-105366044D01*
X154411253Y-105361134D01*
X154256752Y-105248882D01*
X154250724Y-105246198D01*
X154250722Y-105246197D01*
X154088319Y-105173891D01*
X154088318Y-105173891D01*
X154082288Y-105171206D01*
X153988887Y-105151353D01*
X153901944Y-105132872D01*
X153901939Y-105132872D01*
X153895487Y-105131500D01*
X153704513Y-105131500D01*
X153698061Y-105132872D01*
X153698056Y-105132872D01*
X153611113Y-105151353D01*
X153517712Y-105171206D01*
X153511682Y-105173891D01*
X153511681Y-105173891D01*
X153349278Y-105246197D01*
X153349276Y-105246198D01*
X153343248Y-105248882D01*
X153188747Y-105361134D01*
X153184326Y-105366044D01*
X153184325Y-105366045D01*
X153087163Y-105473955D01*
X153060960Y-105503056D01*
X152965473Y-105668444D01*
X152906458Y-105850072D01*
X152905768Y-105856633D01*
X152905768Y-105856635D01*
X152891759Y-105989928D01*
X152886496Y-106040000D01*
X151012329Y-106040000D01*
X151043738Y-105662008D01*
X151058146Y-105111775D01*
X151057569Y-105092872D01*
X151050623Y-104865546D01*
X151038536Y-104469942D01*
X151010257Y-104162183D01*
X150979958Y-103832435D01*
X150979956Y-103832420D01*
X150979780Y-103830503D01*
X150959694Y-103700000D01*
X158586496Y-103700000D01*
X158606458Y-103889928D01*
X158665473Y-104071556D01*
X158760960Y-104236944D01*
X158765378Y-104241851D01*
X158765379Y-104241852D01*
X158874512Y-104363056D01*
X158888747Y-104378866D01*
X158949108Y-104422721D01*
X159026385Y-104478866D01*
X159043248Y-104491118D01*
X159049276Y-104493802D01*
X159049278Y-104493803D01*
X159211681Y-104566109D01*
X159217712Y-104568794D01*
X159304479Y-104587237D01*
X159398056Y-104607128D01*
X159398061Y-104607128D01*
X159404513Y-104608500D01*
X159595487Y-104608500D01*
X159601939Y-104607128D01*
X159601944Y-104607128D01*
X159695521Y-104587237D01*
X159782288Y-104568794D01*
X159788319Y-104566109D01*
X159950722Y-104493803D01*
X159950724Y-104493802D01*
X159956752Y-104491118D01*
X159973616Y-104478866D01*
X160050892Y-104422721D01*
X160111253Y-104378866D01*
X160125488Y-104363056D01*
X160234621Y-104241852D01*
X160234622Y-104241851D01*
X160239040Y-104236944D01*
X160334527Y-104071556D01*
X160393542Y-103889928D01*
X160402994Y-103800000D01*
X160686496Y-103800000D01*
X160687186Y-103806564D01*
X160687186Y-103806565D01*
X160704112Y-103967604D01*
X160706458Y-103989928D01*
X160765473Y-104171556D01*
X160860960Y-104336944D01*
X160988747Y-104478866D01*
X161143248Y-104591118D01*
X161149276Y-104593802D01*
X161149278Y-104593803D01*
X161200560Y-104616635D01*
X161317712Y-104668794D01*
X161411112Y-104688647D01*
X161498056Y-104707128D01*
X161498061Y-104707128D01*
X161504513Y-104708500D01*
X161695487Y-104708500D01*
X161701939Y-104707128D01*
X161701944Y-104707128D01*
X161788888Y-104688647D01*
X161882288Y-104668794D01*
X161999440Y-104616635D01*
X162050722Y-104593803D01*
X162050724Y-104593802D01*
X162056752Y-104591118D01*
X162211253Y-104478866D01*
X162339040Y-104336944D01*
X162434527Y-104171556D01*
X162493542Y-103989928D01*
X162495889Y-103967604D01*
X162512814Y-103806565D01*
X162512814Y-103806564D01*
X162513504Y-103800000D01*
X162493542Y-103610072D01*
X162434527Y-103428444D01*
X162339040Y-103263056D01*
X162211253Y-103121134D01*
X162080375Y-103026045D01*
X162062094Y-103012763D01*
X162062093Y-103012762D01*
X162056752Y-103008882D01*
X162050724Y-103006198D01*
X162050722Y-103006197D01*
X161888319Y-102933891D01*
X161888318Y-102933891D01*
X161882288Y-102931206D01*
X161788887Y-102911353D01*
X161701944Y-102892872D01*
X161701939Y-102892872D01*
X161695487Y-102891500D01*
X161504513Y-102891500D01*
X161498061Y-102892872D01*
X161498056Y-102892872D01*
X161411113Y-102911353D01*
X161317712Y-102931206D01*
X161311682Y-102933891D01*
X161311681Y-102933891D01*
X161149278Y-103006197D01*
X161149276Y-103006198D01*
X161143248Y-103008882D01*
X161137907Y-103012762D01*
X161137906Y-103012763D01*
X161119625Y-103026045D01*
X160988747Y-103121134D01*
X160860960Y-103263056D01*
X160765473Y-103428444D01*
X160706458Y-103610072D01*
X160686496Y-103800000D01*
X160402994Y-103800000D01*
X160413504Y-103700000D01*
X160404052Y-103610072D01*
X160394232Y-103516635D01*
X160394232Y-103516633D01*
X160393542Y-103510072D01*
X160334527Y-103328444D01*
X160239040Y-103163056D01*
X160111253Y-103021134D01*
X159956752Y-102908882D01*
X159950724Y-102906198D01*
X159950722Y-102906197D01*
X159788319Y-102833891D01*
X159788318Y-102833891D01*
X159782288Y-102831206D01*
X159688887Y-102811353D01*
X159601944Y-102792872D01*
X159601939Y-102792872D01*
X159595487Y-102791500D01*
X159404513Y-102791500D01*
X159398061Y-102792872D01*
X159398056Y-102792872D01*
X159311113Y-102811353D01*
X159217712Y-102831206D01*
X159211682Y-102833891D01*
X159211681Y-102833891D01*
X159049278Y-102906197D01*
X159049276Y-102906198D01*
X159043248Y-102908882D01*
X158888747Y-103021134D01*
X158760960Y-103163056D01*
X158665473Y-103328444D01*
X158606458Y-103510072D01*
X158605768Y-103516633D01*
X158605768Y-103516635D01*
X158595948Y-103610072D01*
X158586496Y-103700000D01*
X150959694Y-103700000D01*
X150887313Y-103229735D01*
X150882388Y-103197735D01*
X150882387Y-103197732D01*
X150882097Y-103195845D01*
X150881689Y-103193965D01*
X150746259Y-102570211D01*
X150746257Y-102570203D01*
X150745851Y-102568333D01*
X150571550Y-101950309D01*
X150525990Y-101819843D01*
X150360475Y-101345883D01*
X150359845Y-101344079D01*
X150111525Y-100751904D01*
X149827517Y-100175993D01*
X149820545Y-100163795D01*
X149509833Y-99620159D01*
X149509827Y-99620150D01*
X149508881Y-99618494D01*
X149507831Y-99616892D01*
X149157864Y-99083104D01*
X149157856Y-99083093D01*
X149157244Y-99082158D01*
X149156804Y-99081488D01*
X149157009Y-99081354D01*
X149134663Y-99015102D01*
X149151946Y-98946241D01*
X149203714Y-98897655D01*
X149234367Y-98886854D01*
X149246510Y-98884273D01*
X149265830Y-98880167D01*
X149265833Y-98880166D01*
X149272288Y-98878794D01*
X149278319Y-98876109D01*
X149440722Y-98803803D01*
X149440724Y-98803802D01*
X149446752Y-98801118D01*
X149601253Y-98688866D01*
X149669074Y-98613543D01*
X149724621Y-98551852D01*
X149724622Y-98551851D01*
X149729040Y-98546944D01*
X149809763Y-98407128D01*
X149821223Y-98387279D01*
X149821224Y-98387278D01*
X149824527Y-98381556D01*
X149883542Y-98199928D01*
X149884295Y-98192770D01*
X149900224Y-98041208D01*
X149927237Y-97975552D01*
X149985459Y-97934922D01*
X150056404Y-97932219D01*
X150117548Y-97968301D01*
X150134653Y-97991379D01*
X150160960Y-98036944D01*
X150288747Y-98178866D01*
X150443248Y-98291118D01*
X150449276Y-98293802D01*
X150449278Y-98293803D01*
X150611681Y-98366109D01*
X150617712Y-98368794D01*
X150704677Y-98387279D01*
X150798056Y-98407128D01*
X150798061Y-98407128D01*
X150804513Y-98408500D01*
X150995487Y-98408500D01*
X151001939Y-98407128D01*
X151001944Y-98407128D01*
X151095323Y-98387279D01*
X151182288Y-98368794D01*
X151188319Y-98366109D01*
X151350722Y-98293803D01*
X151350724Y-98293802D01*
X151356752Y-98291118D01*
X151511253Y-98178866D01*
X151639040Y-98036944D01*
X151708501Y-97916635D01*
X151731223Y-97877279D01*
X151731224Y-97877278D01*
X151734527Y-97871556D01*
X151793542Y-97689928D01*
X151807393Y-97558148D01*
X151812814Y-97506565D01*
X151813504Y-97500000D01*
X151805522Y-97424057D01*
X151794232Y-97316635D01*
X151794232Y-97316633D01*
X151793542Y-97310072D01*
X151734527Y-97128444D01*
X151639040Y-96963056D01*
X151537711Y-96850518D01*
X151515675Y-96826045D01*
X151515674Y-96826044D01*
X151511253Y-96821134D01*
X151356752Y-96708882D01*
X151350724Y-96706198D01*
X151350722Y-96706197D01*
X151188319Y-96633891D01*
X151188318Y-96633891D01*
X151182288Y-96631206D01*
X151064584Y-96606187D01*
X151001944Y-96592872D01*
X151001939Y-96592872D01*
X150995487Y-96591500D01*
X150804513Y-96591500D01*
X150798061Y-96592872D01*
X150798056Y-96592872D01*
X150735416Y-96606187D01*
X150617712Y-96631206D01*
X150611682Y-96633891D01*
X150611681Y-96633891D01*
X150449278Y-96706197D01*
X150449276Y-96706198D01*
X150443248Y-96708882D01*
X150288747Y-96821134D01*
X150284326Y-96826044D01*
X150284325Y-96826045D01*
X150262290Y-96850518D01*
X150160960Y-96963056D01*
X150065473Y-97128444D01*
X150006458Y-97310072D01*
X150005769Y-97316631D01*
X150005768Y-97316634D01*
X149989776Y-97468792D01*
X149962763Y-97534448D01*
X149904541Y-97575078D01*
X149833596Y-97577781D01*
X149772452Y-97541699D01*
X149755347Y-97518621D01*
X149732341Y-97478774D01*
X149729040Y-97473056D01*
X149692966Y-97432991D01*
X149605675Y-97336045D01*
X149605674Y-97336044D01*
X149601253Y-97331134D01*
X149467410Y-97233891D01*
X149452094Y-97222763D01*
X149452093Y-97222762D01*
X149446752Y-97218882D01*
X149440724Y-97216198D01*
X149440722Y-97216197D01*
X149278319Y-97143891D01*
X149278318Y-97143891D01*
X149272288Y-97141206D01*
X149178887Y-97121353D01*
X149091944Y-97102872D01*
X149091939Y-97102872D01*
X149085487Y-97101500D01*
X148894513Y-97101500D01*
X148888053Y-97102873D01*
X148888054Y-97102873D01*
X148783354Y-97125127D01*
X148712564Y-97119725D01*
X148655931Y-97076908D01*
X148631438Y-97010270D01*
X148637325Y-96962946D01*
X148693542Y-96789928D01*
X148697097Y-96756109D01*
X148712814Y-96606565D01*
X148713504Y-96600000D01*
X148695315Y-96426944D01*
X148694232Y-96416635D01*
X148694232Y-96416633D01*
X148693542Y-96410072D01*
X148634527Y-96228444D01*
X148539040Y-96063056D01*
X148524699Y-96047128D01*
X148415675Y-95926045D01*
X148415674Y-95926044D01*
X148411253Y-95921134D01*
X148264815Y-95814740D01*
X148262094Y-95812763D01*
X148262093Y-95812762D01*
X148256752Y-95808882D01*
X148250724Y-95806198D01*
X148250722Y-95806197D01*
X148088319Y-95733891D01*
X148088318Y-95733891D01*
X148082288Y-95731206D01*
X147981186Y-95709716D01*
X147901944Y-95692872D01*
X147901939Y-95692872D01*
X147895487Y-95691500D01*
X147704513Y-95691500D01*
X147698061Y-95692872D01*
X147698056Y-95692872D01*
X147618814Y-95709716D01*
X147517712Y-95731206D01*
X147511682Y-95733891D01*
X147511681Y-95733891D01*
X147349278Y-95806197D01*
X147349276Y-95806198D01*
X147343248Y-95808882D01*
X147337907Y-95812762D01*
X147337906Y-95812763D01*
X147335185Y-95814740D01*
X147188747Y-95921134D01*
X147184326Y-95926044D01*
X147184325Y-95926045D01*
X147075302Y-96047128D01*
X147060960Y-96063056D01*
X146965473Y-96228444D01*
X146906458Y-96410072D01*
X146905768Y-96416633D01*
X146905768Y-96416635D01*
X146896604Y-96503830D01*
X146869591Y-96569487D01*
X146811370Y-96610117D01*
X146740425Y-96612820D01*
X146697679Y-96592918D01*
X146425294Y-96396829D01*
X146425292Y-96396828D01*
X146423727Y-96395701D01*
X146251133Y-96286802D01*
X145882294Y-96054082D01*
X145882288Y-96054079D01*
X145880658Y-96053050D01*
X145640207Y-95921134D01*
X145319351Y-95745106D01*
X145319349Y-95745105D01*
X145317683Y-95744191D01*
X144736903Y-95470278D01*
X144140485Y-95232331D01*
X143530652Y-95031238D01*
X143528812Y-95030754D01*
X143528800Y-95030750D01*
X143247024Y-94956565D01*
X142909681Y-94867750D01*
X142907795Y-94867375D01*
X142907787Y-94867373D01*
X142584617Y-94803091D01*
X142279887Y-94742476D01*
X142278000Y-94742219D01*
X142277987Y-94742217D01*
X141696318Y-94663056D01*
X141643619Y-94655884D01*
X141641701Y-94655741D01*
X141641668Y-94655738D01*
X141510553Y-94645994D01*
X141444102Y-94620999D01*
X141401713Y-94564045D01*
X141396845Y-94493216D01*
X141410770Y-94457345D01*
X141454527Y-94381556D01*
X141513542Y-94199928D01*
X141515618Y-94180182D01*
X141532814Y-94016565D01*
X141533504Y-94010000D01*
X141526907Y-93947237D01*
X141514232Y-93826635D01*
X141514232Y-93826633D01*
X141513542Y-93820072D01*
X141454527Y-93638444D01*
X141359040Y-93473056D01*
X141293260Y-93400000D01*
X142546496Y-93400000D01*
X142547186Y-93406565D01*
X142554571Y-93476825D01*
X142566458Y-93589928D01*
X142625473Y-93771556D01*
X142720960Y-93936944D01*
X142725378Y-93941851D01*
X142725379Y-93941852D01*
X142827273Y-94055017D01*
X142848747Y-94078866D01*
X143003248Y-94191118D01*
X143009276Y-94193802D01*
X143009278Y-94193803D01*
X143171681Y-94266109D01*
X143177712Y-94268794D01*
X143271113Y-94288647D01*
X143358056Y-94307128D01*
X143358061Y-94307128D01*
X143364513Y-94308500D01*
X143555487Y-94308500D01*
X143561939Y-94307128D01*
X143561944Y-94307128D01*
X143648888Y-94288647D01*
X143742288Y-94268794D01*
X143748319Y-94266109D01*
X143910722Y-94193803D01*
X143910724Y-94193802D01*
X143916752Y-94191118D01*
X144071253Y-94078866D01*
X144092727Y-94055017D01*
X144194621Y-93941852D01*
X144194622Y-93941851D01*
X144199040Y-93936944D01*
X144294527Y-93771556D01*
X144353542Y-93589928D01*
X144365430Y-93476825D01*
X144372814Y-93406565D01*
X144373504Y-93400000D01*
X144368241Y-93349928D01*
X144354232Y-93216635D01*
X144354232Y-93216633D01*
X144353542Y-93210072D01*
X144294527Y-93028444D01*
X144199040Y-92863056D01*
X144174636Y-92835952D01*
X144075675Y-92726045D01*
X144075674Y-92726044D01*
X144071253Y-92721134D01*
X143916752Y-92608882D01*
X143910724Y-92606198D01*
X143910722Y-92606197D01*
X143748319Y-92533891D01*
X143748318Y-92533891D01*
X143742288Y-92531206D01*
X143642861Y-92510072D01*
X143561944Y-92492872D01*
X143561939Y-92492872D01*
X143555487Y-92491500D01*
X143364513Y-92491500D01*
X143358061Y-92492872D01*
X143358056Y-92492872D01*
X143277139Y-92510072D01*
X143177712Y-92531206D01*
X143171682Y-92533891D01*
X143171681Y-92533891D01*
X143009278Y-92606197D01*
X143009276Y-92606198D01*
X143003248Y-92608882D01*
X142848747Y-92721134D01*
X142844326Y-92726044D01*
X142844325Y-92726045D01*
X142745365Y-92835952D01*
X142720960Y-92863056D01*
X142625473Y-93028444D01*
X142566458Y-93210072D01*
X142565768Y-93216633D01*
X142565768Y-93216635D01*
X142551759Y-93349928D01*
X142546496Y-93400000D01*
X141293260Y-93400000D01*
X141264116Y-93367632D01*
X141233401Y-93303628D01*
X141242164Y-93233175D01*
X141248635Y-93220325D01*
X141331223Y-93077279D01*
X141331224Y-93077278D01*
X141334527Y-93071556D01*
X141393542Y-92889928D01*
X141395766Y-92868774D01*
X141412814Y-92706565D01*
X141413504Y-92700000D01*
X141403151Y-92601500D01*
X141394232Y-92516635D01*
X141394232Y-92516633D01*
X141393542Y-92510072D01*
X141334527Y-92328444D01*
X141312236Y-92289834D01*
X141290103Y-92251500D01*
X141239040Y-92163056D01*
X141111253Y-92021134D01*
X140956752Y-91908882D01*
X140950724Y-91906198D01*
X140950722Y-91906197D01*
X140788319Y-91833891D01*
X140788318Y-91833891D01*
X140782288Y-91831206D01*
X140688888Y-91811353D01*
X140601944Y-91792872D01*
X140601939Y-91792872D01*
X140595487Y-91791500D01*
X140404513Y-91791500D01*
X140398061Y-91792872D01*
X140398056Y-91792872D01*
X140311112Y-91811353D01*
X140217712Y-91831206D01*
X140211682Y-91833891D01*
X140211681Y-91833891D01*
X140049278Y-91906197D01*
X140049276Y-91906198D01*
X140043248Y-91908882D01*
X139888747Y-92021134D01*
X139760960Y-92163056D01*
X139709897Y-92251500D01*
X139687765Y-92289834D01*
X139665473Y-92328444D01*
X139606458Y-92510072D01*
X139605768Y-92516633D01*
X139605768Y-92516635D01*
X139596849Y-92601500D01*
X139586496Y-92700000D01*
X139587186Y-92706565D01*
X139604235Y-92868774D01*
X139606458Y-92889928D01*
X139665473Y-93071556D01*
X139760960Y-93236944D01*
X139855884Y-93342368D01*
X139886599Y-93406372D01*
X139877836Y-93476825D01*
X139871365Y-93489675D01*
X139839804Y-93544341D01*
X139785473Y-93638444D01*
X139726458Y-93820072D01*
X139725768Y-93826633D01*
X139725768Y-93826635D01*
X139713093Y-93947237D01*
X139706496Y-94010000D01*
X139707186Y-94016565D01*
X139724383Y-94180182D01*
X139726458Y-94199928D01*
X139785473Y-94381556D01*
X139788776Y-94387278D01*
X139788777Y-94387279D01*
X139820393Y-94442039D01*
X139837131Y-94511034D01*
X139813911Y-94578126D01*
X139758104Y-94622013D01*
X139721254Y-94630629D01*
X139719782Y-94630700D01*
X139081467Y-94700607D01*
X139079564Y-94700934D01*
X138686676Y-94768444D01*
X138448609Y-94809351D01*
X137823571Y-94956528D01*
X137274232Y-95121860D01*
X137214199Y-95139928D01*
X137208683Y-95141588D01*
X137206894Y-95142248D01*
X137206885Y-95142251D01*
X136608055Y-95363171D01*
X136608043Y-95363176D01*
X136606240Y-95363841D01*
X136018489Y-95622458D01*
X135447622Y-95916474D01*
X134895770Y-96244792D01*
X134364990Y-96606187D01*
X133857262Y-96999312D01*
X133855814Y-97000582D01*
X133855809Y-97000586D01*
X133744916Y-97097837D01*
X133374481Y-97422699D01*
X133373113Y-97424056D01*
X133373111Y-97424057D01*
X133156845Y-97638444D01*
X132918448Y-97874769D01*
X132891212Y-97905285D01*
X132830928Y-97942787D01*
X132759940Y-97941745D01*
X132700783Y-97902488D01*
X132677376Y-97860319D01*
X132636569Y-97734729D01*
X132634527Y-97728444D01*
X132539040Y-97563056D01*
X132454165Y-97468792D01*
X132415675Y-97426045D01*
X132415674Y-97426044D01*
X132411253Y-97421134D01*
X132256752Y-97308882D01*
X132250724Y-97306198D01*
X132250722Y-97306197D01*
X132088319Y-97233891D01*
X132088318Y-97233891D01*
X132082288Y-97231206D01*
X131988888Y-97211353D01*
X131901944Y-97192872D01*
X131901939Y-97192872D01*
X131895487Y-97191500D01*
X131704513Y-97191500D01*
X131698061Y-97192872D01*
X131698056Y-97192872D01*
X131611113Y-97211353D01*
X131517712Y-97231206D01*
X131511682Y-97233891D01*
X131511681Y-97233891D01*
X131349278Y-97306197D01*
X131349276Y-97306198D01*
X131343248Y-97308882D01*
X131188747Y-97421134D01*
X131184326Y-97426044D01*
X131184325Y-97426045D01*
X131145836Y-97468792D01*
X131060960Y-97563056D01*
X130965473Y-97728444D01*
X130906458Y-97910072D01*
X130905768Y-97916633D01*
X130905768Y-97916635D01*
X130888116Y-98084583D01*
X130886496Y-98100000D01*
X130887186Y-98106565D01*
X130897659Y-98206206D01*
X130906458Y-98289928D01*
X130965473Y-98471556D01*
X131060960Y-98636944D01*
X131188747Y-98778866D01*
X131223070Y-98803803D01*
X131326286Y-98878794D01*
X131343248Y-98891118D01*
X131349276Y-98893802D01*
X131349278Y-98893803D01*
X131511681Y-98966109D01*
X131517712Y-98968794D01*
X131594830Y-98985186D01*
X131698056Y-99007128D01*
X131698061Y-99007128D01*
X131704513Y-99008500D01*
X131748238Y-99008500D01*
X131816359Y-99028502D01*
X131862852Y-99082158D01*
X131872956Y-99152432D01*
X131851765Y-99206320D01*
X131728415Y-99384128D01*
X131728399Y-99384153D01*
X131727311Y-99385721D01*
X131394189Y-99934687D01*
X131393287Y-99936402D01*
X131393285Y-99936405D01*
X131341786Y-100034287D01*
X131292366Y-100085260D01*
X131223234Y-100101422D01*
X131156217Y-100077555D01*
X131122094Y-100052763D01*
X131122093Y-100052762D01*
X131116752Y-100048882D01*
X131110724Y-100046198D01*
X131110722Y-100046197D01*
X130948319Y-99973891D01*
X130948318Y-99973891D01*
X130942288Y-99971206D01*
X130848888Y-99951353D01*
X130761944Y-99932872D01*
X130761939Y-99932872D01*
X130755487Y-99931500D01*
X130564513Y-99931500D01*
X130558061Y-99932872D01*
X130558056Y-99932872D01*
X130471112Y-99951353D01*
X130377712Y-99971206D01*
X130371682Y-99973891D01*
X130371681Y-99973891D01*
X130209278Y-100046197D01*
X130209276Y-100046198D01*
X130203248Y-100048882D01*
X130048747Y-100161134D01*
X129920960Y-100303056D01*
X129917659Y-100308774D01*
X129844477Y-100435529D01*
X129825473Y-100468444D01*
X129766458Y-100650072D01*
X129746496Y-100840000D01*
X118467498Y-100840000D01*
X118544160Y-100438126D01*
X118545257Y-100432964D01*
X118759168Y-99520949D01*
X118760481Y-99515837D01*
X119012406Y-98613543D01*
X119013931Y-98608491D01*
X119240861Y-97910072D01*
X119302843Y-97719312D01*
X127865808Y-97719312D01*
X127866498Y-97725877D01*
X127874126Y-97798449D01*
X127885770Y-97909240D01*
X127944785Y-98090868D01*
X128040272Y-98256256D01*
X128044690Y-98261163D01*
X128044691Y-98261164D01*
X128163637Y-98393267D01*
X128168059Y-98398178D01*
X128322560Y-98510430D01*
X128328588Y-98513114D01*
X128328590Y-98513115D01*
X128490993Y-98585421D01*
X128497024Y-98588106D01*
X128590424Y-98607959D01*
X128677368Y-98626440D01*
X128677373Y-98626440D01*
X128683825Y-98627812D01*
X128874799Y-98627812D01*
X128881251Y-98626440D01*
X128881256Y-98626440D01*
X128968200Y-98607959D01*
X129061600Y-98588106D01*
X129067631Y-98585421D01*
X129230034Y-98513115D01*
X129230036Y-98513114D01*
X129236064Y-98510430D01*
X129390565Y-98398178D01*
X129394987Y-98393267D01*
X129513933Y-98261164D01*
X129513934Y-98261163D01*
X129518352Y-98256256D01*
X129613839Y-98090868D01*
X129672854Y-97909240D01*
X129684499Y-97798449D01*
X129692126Y-97725877D01*
X129692816Y-97719312D01*
X129692112Y-97712610D01*
X129673544Y-97535947D01*
X129673544Y-97535945D01*
X129672854Y-97529384D01*
X129613839Y-97347756D01*
X129602001Y-97327251D01*
X129546549Y-97231206D01*
X129518352Y-97182368D01*
X129503713Y-97166109D01*
X129394987Y-97045357D01*
X129394986Y-97045356D01*
X129390565Y-97040446D01*
X129236064Y-96928194D01*
X129230036Y-96925510D01*
X129230034Y-96925509D01*
X129067631Y-96853203D01*
X129067630Y-96853203D01*
X129061600Y-96850518D01*
X128948398Y-96826456D01*
X128881256Y-96812184D01*
X128881251Y-96812184D01*
X128874799Y-96810812D01*
X128683825Y-96810812D01*
X128677373Y-96812184D01*
X128677368Y-96812184D01*
X128610226Y-96826456D01*
X128497024Y-96850518D01*
X128490994Y-96853203D01*
X128490993Y-96853203D01*
X128328590Y-96925509D01*
X128328588Y-96925510D01*
X128322560Y-96928194D01*
X128168059Y-97040446D01*
X128163638Y-97045356D01*
X128163637Y-97045357D01*
X128054912Y-97166109D01*
X128040272Y-97182368D01*
X128012075Y-97231206D01*
X127956624Y-97327251D01*
X127944785Y-97347756D01*
X127885770Y-97529384D01*
X127885080Y-97535945D01*
X127885080Y-97535947D01*
X127866512Y-97712610D01*
X127865808Y-97719312D01*
X119302843Y-97719312D01*
X119303404Y-97717584D01*
X119305136Y-97712610D01*
X119311237Y-97696206D01*
X119631682Y-96834555D01*
X119633618Y-96829665D01*
X119637205Y-96821134D01*
X119951019Y-96074598D01*
X119996636Y-95966080D01*
X119998783Y-95961259D01*
X120032315Y-95890000D01*
X121346496Y-95890000D01*
X121347186Y-95896565D01*
X121365286Y-96068774D01*
X121366458Y-96079928D01*
X121425473Y-96261556D01*
X121520960Y-96426944D01*
X121525378Y-96431851D01*
X121525379Y-96431852D01*
X121577671Y-96489928D01*
X121648747Y-96568866D01*
X121691599Y-96600000D01*
X121781437Y-96665271D01*
X121803248Y-96681118D01*
X121809276Y-96683802D01*
X121809278Y-96683803D01*
X121971681Y-96756109D01*
X121977712Y-96758794D01*
X122063505Y-96777030D01*
X122158056Y-96797128D01*
X122158061Y-96797128D01*
X122164513Y-96798500D01*
X122355487Y-96798500D01*
X122361939Y-96797128D01*
X122361944Y-96797128D01*
X122456495Y-96777030D01*
X122542288Y-96758794D01*
X122548319Y-96756109D01*
X122710722Y-96683803D01*
X122710724Y-96683802D01*
X122716752Y-96681118D01*
X122738564Y-96665271D01*
X122828401Y-96600000D01*
X122871253Y-96568866D01*
X122942329Y-96489928D01*
X122994621Y-96431852D01*
X122994622Y-96431851D01*
X122999040Y-96426944D01*
X123094527Y-96261556D01*
X123153542Y-96079928D01*
X123154715Y-96068774D01*
X123172814Y-95896565D01*
X123173504Y-95890000D01*
X123165521Y-95814048D01*
X123154232Y-95706635D01*
X123154232Y-95706633D01*
X123153542Y-95700072D01*
X123094527Y-95518444D01*
X123080301Y-95493803D01*
X123010470Y-95372854D01*
X122999040Y-95353056D01*
X122978216Y-95329928D01*
X122875675Y-95216045D01*
X122875674Y-95216044D01*
X122871253Y-95211134D01*
X122756136Y-95127496D01*
X122722094Y-95102763D01*
X122722093Y-95102762D01*
X122716752Y-95098882D01*
X122710724Y-95096198D01*
X122710722Y-95096197D01*
X122548319Y-95023891D01*
X122548318Y-95023891D01*
X122542288Y-95021206D01*
X122448888Y-95001353D01*
X122361944Y-94982872D01*
X122361939Y-94982872D01*
X122355487Y-94981500D01*
X122164513Y-94981500D01*
X122158061Y-94982872D01*
X122158056Y-94982872D01*
X122071113Y-95001353D01*
X121977712Y-95021206D01*
X121971682Y-95023891D01*
X121971681Y-95023891D01*
X121809278Y-95096197D01*
X121809276Y-95096198D01*
X121803248Y-95098882D01*
X121797907Y-95102762D01*
X121797906Y-95102763D01*
X121763864Y-95127496D01*
X121648747Y-95211134D01*
X121644326Y-95216044D01*
X121644325Y-95216045D01*
X121541785Y-95329928D01*
X121520960Y-95353056D01*
X121509530Y-95372854D01*
X121439700Y-95493803D01*
X121425473Y-95518444D01*
X121366458Y-95700072D01*
X121365768Y-95706633D01*
X121365768Y-95706635D01*
X121354479Y-95814048D01*
X121346496Y-95890000D01*
X120032315Y-95890000D01*
X120397633Y-95113661D01*
X120399979Y-95108934D01*
X120833991Y-94278745D01*
X120836534Y-94274120D01*
X121304920Y-93462853D01*
X121307653Y-93458340D01*
X121323563Y-93433269D01*
X121376951Y-93386470D01*
X121447166Y-93375964D01*
X121511915Y-93405087D01*
X121539067Y-93437780D01*
X121630960Y-93596944D01*
X121758747Y-93738866D01*
X121803741Y-93771556D01*
X121896385Y-93838866D01*
X121913248Y-93851118D01*
X121919276Y-93853802D01*
X121919278Y-93853803D01*
X122081681Y-93926109D01*
X122087712Y-93928794D01*
X122174479Y-93947237D01*
X122268056Y-93967128D01*
X122268061Y-93967128D01*
X122274513Y-93968500D01*
X122465487Y-93968500D01*
X122471939Y-93967128D01*
X122471944Y-93967128D01*
X122565521Y-93947237D01*
X122652288Y-93928794D01*
X122658319Y-93926109D01*
X122820722Y-93853803D01*
X122820724Y-93853802D01*
X122826752Y-93851118D01*
X122843616Y-93838866D01*
X122936259Y-93771556D01*
X122981253Y-93738866D01*
X123109040Y-93596944D01*
X123112344Y-93591221D01*
X123114906Y-93587695D01*
X123171128Y-93544341D01*
X123241864Y-93538265D01*
X123304656Y-93571397D01*
X123328196Y-93602797D01*
X123480374Y-93890211D01*
X123481999Y-93892685D01*
X123482005Y-93892695D01*
X123687943Y-94206206D01*
X123700894Y-94225922D01*
X123821217Y-94376109D01*
X123915038Y-94493216D01*
X123952030Y-94539390D01*
X123954094Y-94541520D01*
X123954102Y-94541529D01*
X124149196Y-94742850D01*
X124231550Y-94827833D01*
X124278287Y-94867750D01*
X124509555Y-95065271D01*
X124536976Y-95088691D01*
X124865594Y-95319648D01*
X124976222Y-95382749D01*
X125211913Y-95517185D01*
X125211918Y-95517188D01*
X125214489Y-95518654D01*
X125580564Y-95683943D01*
X125960569Y-95814048D01*
X125963443Y-95814738D01*
X125963450Y-95814740D01*
X126348253Y-95907123D01*
X126348257Y-95907124D01*
X126351132Y-95907814D01*
X126354065Y-95908231D01*
X126354068Y-95908232D01*
X126425998Y-95918469D01*
X126748785Y-95964408D01*
X127150000Y-95983329D01*
X127551215Y-95964408D01*
X127874002Y-95918469D01*
X127945932Y-95908232D01*
X127945935Y-95908231D01*
X127948868Y-95907814D01*
X127951743Y-95907124D01*
X127951747Y-95907123D01*
X128336550Y-95814740D01*
X128336557Y-95814738D01*
X128339431Y-95814048D01*
X128719436Y-95683943D01*
X129085511Y-95518654D01*
X129088082Y-95517188D01*
X129088087Y-95517185D01*
X129323778Y-95382749D01*
X129434406Y-95319648D01*
X129462864Y-95299648D01*
X129531169Y-95251642D01*
X129598403Y-95228836D01*
X129667293Y-95246000D01*
X129715968Y-95297685D01*
X129726076Y-95326293D01*
X129726458Y-95329928D01*
X129728498Y-95336205D01*
X129728498Y-95336207D01*
X129735831Y-95358774D01*
X129785473Y-95511556D01*
X129880960Y-95676944D01*
X129885378Y-95681851D01*
X129885379Y-95681852D01*
X129981735Y-95788866D01*
X130008747Y-95818866D01*
X130084570Y-95873955D01*
X130156266Y-95926045D01*
X130163248Y-95931118D01*
X130169276Y-95933802D01*
X130169278Y-95933803D01*
X130304046Y-95993805D01*
X130337712Y-96008794D01*
X130430976Y-96028618D01*
X130518056Y-96047128D01*
X130518061Y-96047128D01*
X130524513Y-96048500D01*
X130715487Y-96048500D01*
X130721939Y-96047128D01*
X130721944Y-96047128D01*
X130809024Y-96028618D01*
X130902288Y-96008794D01*
X130935954Y-95993805D01*
X131070722Y-95933803D01*
X131070724Y-95933802D01*
X131076752Y-95931118D01*
X131083735Y-95926045D01*
X131155430Y-95873955D01*
X131231253Y-95818866D01*
X131258265Y-95788866D01*
X131354621Y-95681852D01*
X131354622Y-95681851D01*
X131359040Y-95676944D01*
X131454527Y-95511556D01*
X131513542Y-95329928D01*
X131514469Y-95321113D01*
X131532814Y-95146565D01*
X131533504Y-95140000D01*
X131528900Y-95096197D01*
X131514232Y-94956635D01*
X131514232Y-94956633D01*
X131513542Y-94950072D01*
X131454527Y-94768444D01*
X131449694Y-94760072D01*
X131383830Y-94645994D01*
X131359040Y-94603056D01*
X131323915Y-94564045D01*
X131235675Y-94466045D01*
X131235674Y-94466044D01*
X131231253Y-94461134D01*
X131076752Y-94348882D01*
X131070724Y-94346198D01*
X131070722Y-94346197D01*
X130908319Y-94273891D01*
X130908318Y-94273891D01*
X130902288Y-94271206D01*
X130807566Y-94251072D01*
X130790484Y-94247441D01*
X130728010Y-94213712D01*
X130693689Y-94151563D01*
X130698417Y-94080724D01*
X130711369Y-94055017D01*
X130817995Y-93892695D01*
X130818001Y-93892685D01*
X130819626Y-93890211D01*
X131007575Y-93535237D01*
X131018373Y-93509168D01*
X131062921Y-93453887D01*
X131130284Y-93431466D01*
X131199076Y-93449024D01*
X131247454Y-93500986D01*
X131260092Y-93544215D01*
X131265557Y-93596206D01*
X131276458Y-93699928D01*
X131335473Y-93881556D01*
X131430960Y-94046944D01*
X131435378Y-94051851D01*
X131435379Y-94051852D01*
X131540656Y-94168774D01*
X131558747Y-94188866D01*
X131630787Y-94241206D01*
X131678733Y-94276041D01*
X131713248Y-94301118D01*
X131719276Y-94303802D01*
X131719278Y-94303803D01*
X131820528Y-94348882D01*
X131887712Y-94378794D01*
X131955068Y-94393111D01*
X132004202Y-94403555D01*
X132066676Y-94437284D01*
X132100997Y-94499433D01*
X132103315Y-94539972D01*
X132093757Y-94630912D01*
X132086496Y-94700000D01*
X132087186Y-94706565D01*
X132104179Y-94868241D01*
X132106458Y-94889928D01*
X132165473Y-95071556D01*
X132168776Y-95077278D01*
X132168777Y-95077279D01*
X132181250Y-95098882D01*
X132260960Y-95236944D01*
X132265378Y-95241851D01*
X132265379Y-95241852D01*
X132374615Y-95363171D01*
X132388747Y-95378866D01*
X132460196Y-95430777D01*
X132521437Y-95475271D01*
X132543248Y-95491118D01*
X132549276Y-95493802D01*
X132549278Y-95493803D01*
X132709799Y-95565271D01*
X132717712Y-95568794D01*
X132811112Y-95588647D01*
X132898056Y-95607128D01*
X132898061Y-95607128D01*
X132904513Y-95608500D01*
X133095487Y-95608500D01*
X133101939Y-95607128D01*
X133101944Y-95607128D01*
X133188888Y-95588647D01*
X133282288Y-95568794D01*
X133290201Y-95565271D01*
X133450722Y-95493803D01*
X133450724Y-95493802D01*
X133456752Y-95491118D01*
X133478564Y-95475271D01*
X133539804Y-95430777D01*
X133611253Y-95378866D01*
X133625385Y-95363171D01*
X133734621Y-95241852D01*
X133734622Y-95241851D01*
X133739040Y-95236944D01*
X133818750Y-95098882D01*
X133831223Y-95077279D01*
X133831224Y-95077278D01*
X133834527Y-95071556D01*
X133893542Y-94889928D01*
X133895822Y-94868241D01*
X133912814Y-94706565D01*
X133913504Y-94700000D01*
X133905201Y-94620999D01*
X133894232Y-94516635D01*
X133894232Y-94516633D01*
X133893542Y-94510072D01*
X133834527Y-94328444D01*
X133829007Y-94318882D01*
X133803031Y-94273891D01*
X133789856Y-94251072D01*
X133773118Y-94182077D01*
X133796338Y-94114985D01*
X133852145Y-94071098D01*
X133872778Y-94064825D01*
X133956899Y-94046944D01*
X134042288Y-94028794D01*
X134048319Y-94026109D01*
X134210722Y-93953803D01*
X134210724Y-93953802D01*
X134216752Y-93951118D01*
X134371253Y-93838866D01*
X134411390Y-93794289D01*
X134494621Y-93701852D01*
X134494622Y-93701851D01*
X134499040Y-93696944D01*
X134590654Y-93538265D01*
X134591223Y-93537279D01*
X134591224Y-93537278D01*
X134594527Y-93531556D01*
X134653542Y-93349928D01*
X134655518Y-93331134D01*
X134672814Y-93166565D01*
X134673504Y-93160000D01*
X134653542Y-92970072D01*
X134594527Y-92788444D01*
X134589795Y-92780247D01*
X134524648Y-92667410D01*
X134499040Y-92623056D01*
X134462053Y-92581977D01*
X134375675Y-92486045D01*
X134375674Y-92486044D01*
X134371253Y-92481134D01*
X134216752Y-92368882D01*
X134210724Y-92366198D01*
X134210722Y-92366197D01*
X134048319Y-92293891D01*
X134048318Y-92293891D01*
X134042288Y-92291206D01*
X133948887Y-92271353D01*
X133861944Y-92252872D01*
X133861939Y-92252872D01*
X133855487Y-92251500D01*
X133664513Y-92251500D01*
X133658061Y-92252872D01*
X133658056Y-92252872D01*
X133571113Y-92271353D01*
X133477712Y-92291206D01*
X133471682Y-92293891D01*
X133471681Y-92293891D01*
X133309278Y-92366197D01*
X133309276Y-92366198D01*
X133303248Y-92368882D01*
X133148747Y-92481134D01*
X133144326Y-92486044D01*
X133144325Y-92486045D01*
X133057948Y-92581977D01*
X133020960Y-92623056D01*
X133017661Y-92628769D01*
X133017658Y-92628774D01*
X132935459Y-92771147D01*
X132884076Y-92820140D01*
X132814363Y-92833576D01*
X132752279Y-92810083D01*
X132632094Y-92722763D01*
X132632093Y-92722762D01*
X132626752Y-92718882D01*
X132620724Y-92716198D01*
X132620722Y-92716197D01*
X132458319Y-92643891D01*
X132458318Y-92643891D01*
X132452288Y-92641206D01*
X132358888Y-92621353D01*
X132271944Y-92602872D01*
X132271939Y-92602872D01*
X132265487Y-92601500D01*
X132074513Y-92601500D01*
X132068061Y-92602872D01*
X132068056Y-92602872D01*
X131981112Y-92621353D01*
X131887712Y-92641206D01*
X131881682Y-92643891D01*
X131881681Y-92643891D01*
X131719278Y-92716197D01*
X131719276Y-92716198D01*
X131713248Y-92718882D01*
X131558747Y-92831134D01*
X131554326Y-92836044D01*
X131554325Y-92836045D01*
X131492501Y-92904708D01*
X131432055Y-92941948D01*
X131361072Y-92940596D01*
X131302087Y-92901083D01*
X131273829Y-92835952D01*
X131278195Y-92786070D01*
X131277777Y-92785963D01*
X131278425Y-92783439D01*
X131278432Y-92783360D01*
X131278512Y-92783098D01*
X131278512Y-92783096D01*
X131279389Y-92780247D01*
X131283531Y-92760247D01*
X131360236Y-92389851D01*
X131360238Y-92389841D01*
X131360840Y-92386932D01*
X131386098Y-92158148D01*
X131404645Y-91990153D01*
X131404645Y-91990149D01*
X131404916Y-91987697D01*
X131404993Y-91985244D01*
X131404994Y-91985231D01*
X131413251Y-91722468D01*
X131413329Y-91720000D01*
X131394408Y-91318785D01*
X131337814Y-90921132D01*
X131337123Y-90918253D01*
X131244740Y-90533450D01*
X131244738Y-90533443D01*
X131244048Y-90530569D01*
X131113943Y-90150564D01*
X130948654Y-89784489D01*
X130749648Y-89435594D01*
X130518691Y-89106976D01*
X130427325Y-89000000D01*
X138516496Y-89000000D01*
X138536458Y-89189928D01*
X138595473Y-89371556D01*
X138598776Y-89377278D01*
X138598777Y-89377279D01*
X138631048Y-89433173D01*
X138690960Y-89536944D01*
X138818747Y-89678866D01*
X138973248Y-89791118D01*
X138979276Y-89793802D01*
X138979278Y-89793803D01*
X139141681Y-89866109D01*
X139147712Y-89868794D01*
X139241113Y-89888647D01*
X139328056Y-89907128D01*
X139328061Y-89907128D01*
X139334513Y-89908500D01*
X139525487Y-89908500D01*
X139531939Y-89907128D01*
X139531944Y-89907128D01*
X139618888Y-89888647D01*
X139712288Y-89868794D01*
X139718319Y-89866109D01*
X139880722Y-89793803D01*
X139880724Y-89793802D01*
X139886752Y-89791118D01*
X140041253Y-89678866D01*
X140169040Y-89536944D01*
X140228952Y-89433173D01*
X140261223Y-89377279D01*
X140261224Y-89377278D01*
X140264527Y-89371556D01*
X140323542Y-89189928D01*
X140343504Y-89000000D01*
X140341429Y-88980253D01*
X140324232Y-88816635D01*
X140324232Y-88816633D01*
X140323542Y-88810072D01*
X140264527Y-88628444D01*
X140169040Y-88463056D01*
X140125815Y-88415049D01*
X140045675Y-88326045D01*
X140045674Y-88326044D01*
X140041253Y-88321134D01*
X139886752Y-88208882D01*
X139880724Y-88206198D01*
X139880722Y-88206197D01*
X139718319Y-88133891D01*
X139718318Y-88133891D01*
X139712288Y-88131206D01*
X139618888Y-88111353D01*
X139531944Y-88092872D01*
X139531939Y-88092872D01*
X139525487Y-88091500D01*
X139334513Y-88091500D01*
X139328061Y-88092872D01*
X139328056Y-88092872D01*
X139241113Y-88111353D01*
X139147712Y-88131206D01*
X139141682Y-88133891D01*
X139141681Y-88133891D01*
X138979278Y-88206197D01*
X138979276Y-88206198D01*
X138973248Y-88208882D01*
X138818747Y-88321134D01*
X138814326Y-88326044D01*
X138814325Y-88326045D01*
X138734186Y-88415049D01*
X138690960Y-88463056D01*
X138595473Y-88628444D01*
X138536458Y-88810072D01*
X138535768Y-88816633D01*
X138535768Y-88816635D01*
X138518571Y-88980253D01*
X138516496Y-89000000D01*
X130427325Y-89000000D01*
X130421718Y-88993435D01*
X130301091Y-88852198D01*
X130272060Y-88787408D01*
X130282665Y-88717208D01*
X130310733Y-88679244D01*
X130311253Y-88678866D01*
X130439040Y-88536944D01*
X130534527Y-88371556D01*
X130593542Y-88189928D01*
X130595229Y-88173883D01*
X130612814Y-88006565D01*
X130613504Y-88000000D01*
X130593542Y-87810072D01*
X130534527Y-87628444D01*
X130439040Y-87463056D01*
X130418234Y-87439948D01*
X130315675Y-87326045D01*
X130315674Y-87326044D01*
X130311253Y-87321134D01*
X130156752Y-87208882D01*
X130150724Y-87206198D01*
X130150722Y-87206197D01*
X129988319Y-87133891D01*
X129988318Y-87133891D01*
X129982288Y-87131206D01*
X129888888Y-87111353D01*
X129801944Y-87092872D01*
X129801939Y-87092872D01*
X129795487Y-87091500D01*
X129604513Y-87091500D01*
X129598061Y-87092872D01*
X129598056Y-87092872D01*
X129511112Y-87111353D01*
X129417712Y-87131206D01*
X129411682Y-87133891D01*
X129411681Y-87133891D01*
X129249278Y-87206197D01*
X129249276Y-87206198D01*
X129243248Y-87208882D01*
X129094092Y-87317251D01*
X129089627Y-87320495D01*
X129022760Y-87344353D01*
X128953608Y-87328273D01*
X128904128Y-87277359D01*
X128890028Y-87207777D01*
X128891955Y-87194811D01*
X128893542Y-87189928D01*
X128913504Y-87000000D01*
X128893542Y-86810072D01*
X128834527Y-86628444D01*
X128739040Y-86463056D01*
X128697243Y-86416635D01*
X128615675Y-86326045D01*
X128615674Y-86326044D01*
X128611253Y-86321134D01*
X128561168Y-86284745D01*
X128517816Y-86228523D01*
X128511741Y-86157787D01*
X128544873Y-86094995D01*
X128569960Y-86075034D01*
X129296646Y-85634938D01*
X129301216Y-85632300D01*
X129506471Y-85519459D01*
X129575801Y-85504169D01*
X129642392Y-85528789D01*
X129685101Y-85585503D01*
X129692482Y-85643043D01*
X129686496Y-85700000D01*
X129687186Y-85706565D01*
X129697392Y-85803666D01*
X129706458Y-85889928D01*
X129765473Y-86071556D01*
X129768776Y-86077278D01*
X129768777Y-86077279D01*
X129794351Y-86121574D01*
X129860960Y-86236944D01*
X129988747Y-86378866D01*
X130143248Y-86491118D01*
X130149276Y-86493802D01*
X130149278Y-86493803D01*
X130311681Y-86566109D01*
X130317712Y-86568794D01*
X130411112Y-86588647D01*
X130498056Y-86607128D01*
X130498061Y-86607128D01*
X130504513Y-86608500D01*
X130695487Y-86608500D01*
X130701939Y-86607128D01*
X130701944Y-86607128D01*
X130788887Y-86588647D01*
X130882288Y-86568794D01*
X130888319Y-86566109D01*
X131050722Y-86493803D01*
X131050724Y-86493802D01*
X131056752Y-86491118D01*
X131211253Y-86378866D01*
X131339040Y-86236944D01*
X131405649Y-86121574D01*
X131431223Y-86077279D01*
X131431224Y-86077278D01*
X131434527Y-86071556D01*
X131493542Y-85889928D01*
X131502609Y-85803666D01*
X131512814Y-85706565D01*
X131513504Y-85700000D01*
X131507462Y-85642512D01*
X131494232Y-85516635D01*
X131494232Y-85516633D01*
X131493542Y-85510072D01*
X131434527Y-85328444D01*
X131339040Y-85163056D01*
X131318876Y-85140661D01*
X131215675Y-85026045D01*
X131215674Y-85026044D01*
X131211253Y-85021134D01*
X131073357Y-84920946D01*
X131030003Y-84864723D01*
X131023928Y-84793987D01*
X131039398Y-84764669D01*
X137747001Y-84764669D01*
X137747371Y-84771490D01*
X137752895Y-84822352D01*
X137756521Y-84837604D01*
X137801676Y-84958054D01*
X137810214Y-84973649D01*
X137886715Y-85075724D01*
X137899276Y-85088285D01*
X138001351Y-85164786D01*
X138016946Y-85173324D01*
X138137394Y-85218478D01*
X138152649Y-85222105D01*
X138203514Y-85227631D01*
X138210328Y-85228000D01*
X138832885Y-85228000D01*
X138848124Y-85223525D01*
X138849329Y-85222135D01*
X138851000Y-85214452D01*
X138851000Y-84142115D01*
X138846525Y-84126876D01*
X138845135Y-84125671D01*
X138837452Y-84124000D01*
X137765116Y-84124000D01*
X137749877Y-84128475D01*
X137748672Y-84129865D01*
X137747001Y-84137548D01*
X137747001Y-84764669D01*
X131039398Y-84764669D01*
X131057060Y-84731196D01*
X131096169Y-84703903D01*
X131179307Y-84666888D01*
X131826445Y-84378764D01*
X131831310Y-84376719D01*
X132198833Y-84231206D01*
X132702326Y-84031859D01*
X132707250Y-84030028D01*
X133166789Y-83870000D01*
X133591909Y-83721958D01*
X133596928Y-83720327D01*
X134493729Y-83449567D01*
X134498812Y-83448148D01*
X135406131Y-83215188D01*
X135411269Y-83213982D01*
X136074652Y-83072975D01*
X136327601Y-83019209D01*
X136332774Y-83018223D01*
X137256455Y-82861994D01*
X137261659Y-82861226D01*
X137479381Y-82833721D01*
X137607659Y-82817516D01*
X137677750Y-82828822D01*
X137730601Y-82876228D01*
X137749432Y-82944681D01*
X137748714Y-82956127D01*
X137747369Y-82968507D01*
X137747000Y-82975328D01*
X137747000Y-83597885D01*
X137751475Y-83613124D01*
X137752865Y-83614329D01*
X137760548Y-83616000D01*
X139233000Y-83616000D01*
X139301121Y-83636002D01*
X139347614Y-83689658D01*
X139359000Y-83742000D01*
X139359000Y-85209884D01*
X139363475Y-85225123D01*
X139364865Y-85226328D01*
X139372548Y-85227999D01*
X139999669Y-85227999D01*
X140006490Y-85227629D01*
X140057352Y-85222105D01*
X140072604Y-85218479D01*
X140193054Y-85173324D01*
X140208649Y-85164786D01*
X140310724Y-85088285D01*
X140323285Y-85075724D01*
X140399786Y-84973649D01*
X140408324Y-84958054D01*
X140449225Y-84848952D01*
X140491867Y-84792188D01*
X140558428Y-84767488D01*
X140627777Y-84782696D01*
X140662444Y-84810684D01*
X140687865Y-84840031D01*
X140687869Y-84840035D01*
X140691250Y-84843938D01*
X140863126Y-84986632D01*
X141056000Y-85099338D01*
X141060825Y-85101180D01*
X141060826Y-85101181D01*
X141133612Y-85128975D01*
X141264692Y-85179030D01*
X141269760Y-85180061D01*
X141269763Y-85180062D01*
X141377017Y-85201883D01*
X141483597Y-85223567D01*
X141488772Y-85223757D01*
X141488774Y-85223757D01*
X141701673Y-85231564D01*
X141701677Y-85231564D01*
X141706837Y-85231753D01*
X141711957Y-85231097D01*
X141711959Y-85231097D01*
X141923288Y-85204025D01*
X141923289Y-85204025D01*
X141928416Y-85203368D01*
X141933366Y-85201883D01*
X142137429Y-85140661D01*
X142137434Y-85140659D01*
X142142384Y-85139174D01*
X142342994Y-85040896D01*
X142524860Y-84911173D01*
X142683096Y-84753489D01*
X142696577Y-84734729D01*
X142810435Y-84576277D01*
X142813453Y-84572077D01*
X142817912Y-84563056D01*
X142910136Y-84376453D01*
X142910137Y-84376451D01*
X142912430Y-84371811D01*
X142977370Y-84158069D01*
X143006529Y-83936590D01*
X143008156Y-83870000D01*
X142989852Y-83647361D01*
X142935431Y-83430702D01*
X142846354Y-83225840D01*
X142725014Y-83038277D01*
X142636295Y-82940776D01*
X142605244Y-82876930D01*
X142613639Y-82806431D01*
X142658815Y-82751663D01*
X142726431Y-82730013D01*
X142740026Y-82730418D01*
G37*
%TD.AperFunction*%
%TD*%
M02*
