%TF.GenerationSoftware,KiCad,Pcbnew,6.0.6-3a73a75311~116~ubuntu20.04.1*%
%TF.CreationDate,2022-09-22T10:25:09+01:00*%
%TF.ProjectId,UFOPulse,55464f50-756c-4736-952e-6b696361645f,rev?*%
%TF.SameCoordinates,Original*%
%TF.FileFunction,Legend,Bot*%
%TF.FilePolarity,Positive*%
%FSLAX46Y46*%
G04 Gerber Fmt 4.6, Leading zero omitted, Abs format (unit mm)*
G04 Created by KiCad (PCBNEW 6.0.6-3a73a75311~116~ubuntu20.04.1) date 2022-09-22 10:25:09*
%MOMM*%
%LPD*%
G01*
G04 APERTURE LIST*
%ADD10C,0.150000*%
%ADD11C,0.120000*%
G04 APERTURE END LIST*
D10*
%TO.C,J9*%
X133757380Y-119016666D02*
X134471666Y-119016666D01*
X134614523Y-118969047D01*
X134709761Y-118873809D01*
X134757380Y-118730952D01*
X134757380Y-118635714D01*
X134757380Y-119540476D02*
X134757380Y-119730952D01*
X134709761Y-119826190D01*
X134662142Y-119873809D01*
X134519285Y-119969047D01*
X134328809Y-120016666D01*
X133947857Y-120016666D01*
X133852619Y-119969047D01*
X133805000Y-119921428D01*
X133757380Y-119826190D01*
X133757380Y-119635714D01*
X133805000Y-119540476D01*
X133852619Y-119492857D01*
X133947857Y-119445238D01*
X134185952Y-119445238D01*
X134281190Y-119492857D01*
X134328809Y-119540476D01*
X134376428Y-119635714D01*
X134376428Y-119826190D01*
X134328809Y-119921428D01*
X134281190Y-119969047D01*
X134185952Y-120016666D01*
%TO.C,J10*%
X136227380Y-83060476D02*
X136941666Y-83060476D01*
X137084523Y-83012857D01*
X137179761Y-82917619D01*
X137227380Y-82774761D01*
X137227380Y-82679523D01*
X137227380Y-84060476D02*
X137227380Y-83489047D01*
X137227380Y-83774761D02*
X136227380Y-83774761D01*
X136370238Y-83679523D01*
X136465476Y-83584285D01*
X136513095Y-83489047D01*
X136227380Y-84679523D02*
X136227380Y-84774761D01*
X136275000Y-84870000D01*
X136322619Y-84917619D01*
X136417857Y-84965238D01*
X136608333Y-85012857D01*
X136846428Y-85012857D01*
X137036904Y-84965238D01*
X137132142Y-84917619D01*
X137179761Y-84870000D01*
X137227380Y-84774761D01*
X137227380Y-84679523D01*
X137179761Y-84584285D01*
X137132142Y-84536666D01*
X137036904Y-84489047D01*
X136846428Y-84441428D01*
X136608333Y-84441428D01*
X136417857Y-84489047D01*
X136322619Y-84536666D01*
X136275000Y-84584285D01*
X136227380Y-84679523D01*
D11*
%TO.C,J9*%
X135370000Y-116260000D02*
X135370000Y-117585000D01*
X135305000Y-121115000D02*
X135370000Y-121115000D01*
X135305000Y-117585000D02*
X135305000Y-121115000D01*
X145520000Y-121115000D02*
X145585000Y-121115000D01*
X145520000Y-117585000D02*
X145585000Y-117585000D01*
X145585000Y-117585000D02*
X145585000Y-121115000D01*
X135305000Y-117585000D02*
X135370000Y-117585000D01*
%TO.C,J10*%
X142975000Y-82540000D02*
X142975000Y-85200000D01*
X140375000Y-82540000D02*
X142975000Y-82540000D01*
X137775000Y-82540000D02*
X137775000Y-83870000D01*
X140375000Y-85200000D02*
X142975000Y-85200000D01*
X140375000Y-82540000D02*
X140375000Y-85200000D01*
X139105000Y-82540000D02*
X137775000Y-82540000D01*
%TD*%
M02*
