%TF.GenerationSoftware,KiCad,Pcbnew,6.0.6-3a73a75311~116~ubuntu20.04.1*%
%TF.CreationDate,2022-09-22T10:25:09+01:00*%
%TF.ProjectId,UFOPulse,55464f50-756c-4736-952e-6b696361645f,rev?*%
%TF.SameCoordinates,Original*%
%TF.FileFunction,Soldermask,Top*%
%TF.FilePolarity,Negative*%
%FSLAX46Y46*%
G04 Gerber Fmt 4.6, Leading zero omitted, Abs format (unit mm)*
G04 Created by KiCad (PCBNEW 6.0.6-3a73a75311~116~ubuntu20.04.1) date 2022-09-22 10:25:09*
%MOMM*%
%LPD*%
G01*
G04 APERTURE LIST*
G04 Aperture macros list*
%AMRoundRect*
0 Rectangle with rounded corners*
0 $1 Rounding radius*
0 $2 $3 $4 $5 $6 $7 $8 $9 X,Y pos of 4 corners*
0 Add a 4 corners polygon primitive as box body*
4,1,4,$2,$3,$4,$5,$6,$7,$8,$9,$2,$3,0*
0 Add four circle primitives for the rounded corners*
1,1,$1+$1,$2,$3*
1,1,$1+$1,$4,$5*
1,1,$1+$1,$6,$7*
1,1,$1+$1,$8,$9*
0 Add four rect primitives between the rounded corners*
20,1,$1+$1,$2,$3,$4,$5,0*
20,1,$1+$1,$4,$5,$6,$7,0*
20,1,$1+$1,$6,$7,$8,$9,0*
20,1,$1+$1,$8,$9,$2,$3,0*%
G04 Aperture macros list end*
%ADD10RoundRect,0.225000X0.225000X0.250000X-0.225000X0.250000X-0.225000X-0.250000X0.225000X-0.250000X0*%
%ADD11RoundRect,0.225000X-0.250000X0.225000X-0.250000X-0.225000X0.250000X-0.225000X0.250000X0.225000X0*%
%ADD12RoundRect,0.225000X0.250000X-0.225000X0.250000X0.225000X-0.250000X0.225000X-0.250000X-0.225000X0*%
%ADD13RoundRect,0.225000X-0.225000X-0.250000X0.225000X-0.250000X0.225000X0.250000X-0.225000X0.250000X0*%
%ADD14R,0.900000X1.200000*%
%ADD15R,1.200000X0.900000*%
%ADD16R,1.000000X1.050000*%
%ADD17R,1.050000X2.200000*%
%ADD18R,1.050000X1.000000*%
%ADD19R,2.200000X1.050000*%
%ADD20RoundRect,0.218750X-0.256250X0.218750X-0.256250X-0.218750X0.256250X-0.218750X0.256250X0.218750X0*%
%ADD21RoundRect,0.218750X0.218750X0.256250X-0.218750X0.256250X-0.218750X-0.256250X0.218750X-0.256250X0*%
%ADD22RoundRect,0.218750X0.256250X-0.218750X0.256250X0.218750X-0.256250X0.218750X-0.256250X-0.218750X0*%
%ADD23RoundRect,0.218750X-0.218750X-0.256250X0.218750X-0.256250X0.218750X0.256250X-0.218750X0.256250X0*%
%ADD24R,0.800000X0.900000*%
%ADD25R,0.900000X0.800000*%
%ADD26RoundRect,0.200000X-0.275000X0.200000X-0.275000X-0.200000X0.275000X-0.200000X0.275000X0.200000X0*%
%ADD27RoundRect,0.200000X0.200000X0.275000X-0.200000X0.275000X-0.200000X-0.275000X0.200000X-0.275000X0*%
%ADD28RoundRect,0.200000X0.275000X-0.200000X0.275000X0.200000X-0.275000X0.200000X-0.275000X-0.200000X0*%
%ADD29RoundRect,0.200000X-0.200000X-0.275000X0.200000X-0.275000X0.200000X0.275000X-0.200000X0.275000X0*%
%ADD30C,7.500000*%
%ADD31R,1.700000X1.700000*%
%ADD32O,1.700000X1.700000*%
G04 APERTURE END LIST*
D10*
%TO.C,C3*%
X136375000Y-94600000D03*
X134825000Y-94600000D03*
%TD*%
D11*
%TO.C,C4*%
X133800000Y-88025000D03*
X133800000Y-89575000D03*
%TD*%
D12*
%TO.C,C5*%
X150700000Y-100250000D03*
X150700000Y-98700000D03*
%TD*%
D10*
%TO.C,C6*%
X157250000Y-98800000D03*
X155700000Y-98800000D03*
%TD*%
D13*
%TO.C,C7*%
X145225000Y-115600000D03*
X146775000Y-115600000D03*
%TD*%
D10*
%TO.C,C9*%
X134360000Y-115570000D03*
X132810000Y-115570000D03*
%TD*%
D12*
%TO.C,C10*%
X137400000Y-122300000D03*
X137400000Y-120750000D03*
%TD*%
D11*
%TO.C,C11*%
X130370000Y-97155000D03*
X130370000Y-98705000D03*
%TD*%
D13*
%TO.C,C12*%
X123625000Y-101900000D03*
X125175000Y-101900000D03*
%TD*%
D11*
%TO.C,C14*%
X143500000Y-88025000D03*
X143500000Y-89575000D03*
%TD*%
D12*
%TO.C,C15*%
X149820000Y-113100000D03*
X149820000Y-111550000D03*
%TD*%
D10*
%TO.C,C16*%
X157275000Y-108400000D03*
X155725000Y-108400000D03*
%TD*%
D14*
%TO.C,D3*%
X131950000Y-91600000D03*
X135250000Y-91600000D03*
%TD*%
D15*
%TO.C,D5*%
X153700000Y-96750000D03*
X153700000Y-100050000D03*
%TD*%
D14*
%TO.C,D7*%
X149050000Y-118800000D03*
X145750000Y-118800000D03*
%TD*%
%TO.C,D9*%
X139120000Y-116390000D03*
X135820000Y-116390000D03*
%TD*%
D15*
%TO.C,D11*%
X129310000Y-103450000D03*
X129310000Y-100150000D03*
%TD*%
D14*
%TO.C,D13*%
X141890000Y-93440000D03*
X145190000Y-93440000D03*
%TD*%
D15*
%TO.C,D15*%
X151760000Y-106850000D03*
X151760000Y-110150000D03*
%TD*%
D16*
%TO.C,J2*%
X135400000Y-86219999D03*
D17*
X136875000Y-84694999D03*
X133925000Y-84694999D03*
%TD*%
D18*
%TO.C,J3*%
X159070000Y-100290000D03*
D19*
X160595000Y-101765000D03*
X160595000Y-98815000D03*
%TD*%
D16*
%TO.C,J4*%
X145700000Y-124050000D03*
D17*
X144225000Y-125575000D03*
X147175000Y-125575000D03*
%TD*%
D16*
%TO.C,J5*%
X136000000Y-124150000D03*
D17*
X134525000Y-125675000D03*
X137475000Y-125675000D03*
%TD*%
D18*
%TO.C,J6*%
X121850000Y-100300000D03*
D19*
X120325000Y-98825000D03*
X120325000Y-101775000D03*
%TD*%
D16*
%TO.C,J7*%
X145010001Y-86230000D03*
D17*
X143535001Y-84705000D03*
X146485001Y-84705000D03*
%TD*%
D18*
%TO.C,J8*%
X159050000Y-109900000D03*
D19*
X160575000Y-108425000D03*
X160575000Y-111375000D03*
%TD*%
D20*
%TO.C,L2*%
X135299999Y-88012500D03*
X135299999Y-89587500D03*
%TD*%
D21*
%TO.C,L3*%
X157287500Y-100300000D03*
X155712500Y-100300000D03*
%TD*%
D22*
%TO.C,L4*%
X145700000Y-122287500D03*
X145700000Y-120712500D03*
%TD*%
%TO.C,L5*%
X135900000Y-122299998D03*
X135900000Y-120724998D03*
%TD*%
D23*
%TO.C,L6*%
X123612500Y-100400000D03*
X125187500Y-100400000D03*
%TD*%
D20*
%TO.C,L7*%
X145000000Y-88012500D03*
X145000000Y-89587500D03*
%TD*%
D24*
%TO.C,Q3*%
X140350000Y-91500000D03*
X138450000Y-91500000D03*
X139400000Y-93500000D03*
%TD*%
D25*
%TO.C,Q4*%
X140400000Y-89950000D03*
X140400000Y-88050000D03*
X138400000Y-89000000D03*
%TD*%
%TO.C,Q5*%
X153800000Y-105290000D03*
X153800000Y-103390000D03*
X151800000Y-104340000D03*
%TD*%
%TO.C,Q6*%
X155300000Y-103390000D03*
X155300000Y-105290000D03*
X157300000Y-104340000D03*
%TD*%
D24*
%TO.C,Q7*%
X140650000Y-118799999D03*
X142550000Y-118799999D03*
X141600000Y-116799999D03*
%TD*%
%TO.C,Q8*%
X142550000Y-120300000D03*
X140650000Y-120300000D03*
X141600000Y-122300000D03*
%TD*%
%TO.C,Q9*%
X132370000Y-119060000D03*
X134270000Y-119060000D03*
X133320000Y-117060000D03*
%TD*%
%TO.C,Q10*%
X132640000Y-122180000D03*
X130740000Y-122180000D03*
X131690000Y-124180000D03*
%TD*%
D25*
%TO.C,Q11*%
X128790000Y-98570000D03*
X128790000Y-96670000D03*
X126790000Y-97620000D03*
%TD*%
D24*
%TO.C,Q12*%
X123250000Y-95040000D03*
X121350000Y-95040000D03*
X122300000Y-97040000D03*
%TD*%
%TO.C,Q13*%
X148670000Y-91480000D03*
X146770000Y-91480000D03*
X147720000Y-93480000D03*
%TD*%
%TO.C,Q14*%
X148390000Y-88210000D03*
X150290000Y-88210000D03*
X149340000Y-86210000D03*
%TD*%
D25*
%TO.C,Q15*%
X153960000Y-113650000D03*
X153960000Y-111750000D03*
X151960000Y-112700000D03*
%TD*%
%TO.C,Q16*%
X158210000Y-113280000D03*
X158210000Y-115180000D03*
X160210000Y-114230000D03*
%TD*%
D26*
%TO.C,R4*%
X132300000Y-87975000D03*
X132300000Y-89625000D03*
%TD*%
%TO.C,R5*%
X136800000Y-91475000D03*
X136800000Y-93125000D03*
%TD*%
%TO.C,R6*%
X136800001Y-87975000D03*
X136800001Y-89625000D03*
%TD*%
D27*
%TO.C,R7*%
X157325000Y-97300000D03*
X155675000Y-97300000D03*
%TD*%
%TO.C,R8*%
X153800000Y-101800000D03*
X152150000Y-101800000D03*
%TD*%
%TO.C,R9*%
X157350000Y-101800000D03*
X155700000Y-101800000D03*
%TD*%
D28*
%TO.C,R10*%
X148700001Y-122325000D03*
X148700001Y-120675000D03*
%TD*%
%TO.C,R11*%
X144200000Y-118825000D03*
X144200000Y-117175000D03*
%TD*%
%TO.C,R12*%
X144200000Y-122325000D03*
X144200000Y-120675000D03*
%TD*%
%TO.C,R13*%
X138900000Y-122325000D03*
X138900000Y-120675000D03*
%TD*%
D29*
%TO.C,R14*%
X137315000Y-118820000D03*
X138965000Y-118820000D03*
%TD*%
%TO.C,R16*%
X123600000Y-103400000D03*
X125250000Y-103400000D03*
%TD*%
D26*
%TO.C,R17*%
X127370000Y-100200000D03*
X127370000Y-101850000D03*
%TD*%
D29*
%TO.C,R18*%
X123550000Y-98800000D03*
X125200000Y-98800000D03*
%TD*%
D26*
%TO.C,R19*%
X142000000Y-87975000D03*
X142000000Y-89625000D03*
%TD*%
D27*
%TO.C,R20*%
X144875000Y-91500000D03*
X143225000Y-91500000D03*
%TD*%
D26*
%TO.C,R21*%
X146500000Y-87975000D03*
X146500000Y-89625000D03*
%TD*%
D27*
%TO.C,R22*%
X157325000Y-106900000D03*
X155675000Y-106900000D03*
%TD*%
D28*
%TO.C,R23*%
X153700000Y-108440000D03*
X153700000Y-106790000D03*
%TD*%
D27*
%TO.C,R24*%
X157325000Y-111400000D03*
X155675000Y-111400000D03*
%TD*%
D29*
%TO.C,R3*%
X123778388Y-108574160D03*
X125428388Y-108574160D03*
%TD*%
D25*
%TO.C,Q1*%
X127103388Y-105024159D03*
X127103388Y-106924159D03*
X129103388Y-105974159D03*
%TD*%
D23*
%TO.C,L1*%
X123815888Y-110074160D03*
X125390888Y-110074160D03*
%TD*%
D13*
%TO.C,C2*%
X123803387Y-111574159D03*
X125353387Y-111574159D03*
%TD*%
D18*
%TO.C,J1*%
X121965520Y-110065454D03*
D19*
X120440520Y-111540454D03*
X120440520Y-108590454D03*
%TD*%
D15*
%TO.C,D1*%
X127300000Y-113850000D03*
X127300000Y-110550000D03*
%TD*%
D11*
%TO.C,C1*%
X130200000Y-109650000D03*
X130200000Y-111200000D03*
%TD*%
D25*
%TO.C,Q2*%
X125603388Y-106924159D03*
X125603388Y-105024159D03*
X123603388Y-105974159D03*
%TD*%
D29*
%TO.C,R1*%
X123753387Y-113074159D03*
X125403387Y-113074159D03*
%TD*%
D10*
%TO.C,C13*%
X148040000Y-95380000D03*
X146490000Y-95380000D03*
%TD*%
D29*
%TO.C,R2*%
X127103388Y-108574160D03*
X128753388Y-108574160D03*
%TD*%
D28*
%TO.C,R15*%
X134400000Y-122350000D03*
X134400000Y-120700000D03*
%TD*%
D12*
%TO.C,C8*%
X147199999Y-122275000D03*
X147199999Y-120725000D03*
%TD*%
D21*
%TO.C,L8*%
X157287501Y-109900000D03*
X155712501Y-109900000D03*
%TD*%
D30*
%TO.C,H4*%
X127130000Y-118570000D03*
%TD*%
%TO.C,H3*%
X154010000Y-118560000D03*
%TD*%
%TO.C,H2*%
X154010000Y-91700000D03*
%TD*%
%TO.C,H1*%
X127150000Y-91720000D03*
%TD*%
D31*
%TO.C,J10*%
X139105000Y-83870000D03*
D32*
X141645000Y-83870000D03*
%TD*%
M02*
