M48
; DRILL file {KiCad 6.0.6-3a73a75311~116~ubuntu20.04.1} date Thu 22 Sep 2022 10:24:53 BST
; FORMAT={-:-/ absolute / inch / decimal}
; #@! TF.CreationDate,2022-09-22T10:24:53+01:00
; #@! TF.GenerationSoftware,Kicad,Pcbnew,6.0.6-3a73a75311~116~ubuntu20.04.1
; #@! TF.FileFunction,Plated,1,4,PTH
FMAT,2
INCH
; #@! TA.AperFunction,Plated,PTH,ViaDrill
T1C0.0157
; #@! TA.AperFunction,Plated,PTH,ComponentDrill
T2C0.0394
; #@! TA.AperFunction,Plated,PTH,ComponentDrill
T3C0.1693
%
G90
G05
T1
X4.6772Y-4.1299
X4.7362Y-4.0866
X4.7402Y-4.1732
X4.7874Y-4.5
X4.7992Y-4.126
X4.8134Y-3.7752
X4.8146Y-4.6138
X4.8177Y-3.6638
X4.8535Y-4.5516
X4.937Y-4.5039
X4.9882Y-4.0512
X5.0394Y-3.4252
X5.065Y-4.8598
X5.0701Y-3.8472
X5.0992Y-4.8886
X5.1063Y-3.4646
X5.1126Y-4.4866
X5.1417Y-3.374
X5.1425Y-3.7457
X5.1441Y-3.9701
X5.1693Y-3.5276
X5.189Y-3.8622
X5.2035Y-3.6815
X5.2362Y-3.7283
X5.25Y-4.4602
X5.2661Y-3.6677
X5.2835Y-4.4843
X5.4725Y-4.9528
X5.4894Y-3.5039
X5.5303Y-4.5567
X5.5315Y-3.6496
X5.5315Y-4.9882
X5.5362Y-3.7012
X5.5827Y-4.9921
X5.5906Y-3.5709
X5.648Y-3.6772
X5.7402Y-4.6102
X5.7835Y-4.4909
X5.7953Y-4.6063
X5.8189Y-3.8031
X5.8327Y-4.448
X5.8622Y-3.3504
X5.8657Y-3.8587
X5.8866Y-3.7382
X5.9134Y-4.9094
X5.937Y-3.7445
X5.9409Y-3.8386
X5.9528Y-4.8268
X5.9803Y-3.4094
X6.0551Y-4.1748
X6.0945Y-4.2087
X6.1157Y-4.498
X6.1299Y-3.7953
X6.1713Y-4.5189
X6.2008Y-3.7283
X6.2421Y-4.652
X6.2543Y-4.5972
X6.2795Y-4.0827
X6.2835Y-4.1654
X6.2953Y-3.748
X6.3189Y-3.7913
X6.3622Y-4.0866
X6.3661Y-4.1693
T2
X5.4766Y-3.302
X5.5766Y-3.302
T3
X5.0051Y-4.6681
X5.0059Y-3.611
X6.0634Y-3.6102
X6.0634Y-4.6677
T0
M30
