%TF.GenerationSoftware,KiCad,Pcbnew,6.0.6-3a73a75311~116~ubuntu20.04.1*%
%TF.CreationDate,2022-09-22T10:25:09+01:00*%
%TF.ProjectId,UFOPulse,55464f50-756c-4736-952e-6b696361645f,rev?*%
%TF.SameCoordinates,Original*%
%TF.FileFunction,Copper,L1,Top*%
%TF.FilePolarity,Positive*%
%FSLAX46Y46*%
G04 Gerber Fmt 4.6, Leading zero omitted, Abs format (unit mm)*
G04 Created by KiCad (PCBNEW 6.0.6-3a73a75311~116~ubuntu20.04.1) date 2022-09-22 10:25:09*
%MOMM*%
%LPD*%
G01*
G04 APERTURE LIST*
G04 Aperture macros list*
%AMRoundRect*
0 Rectangle with rounded corners*
0 $1 Rounding radius*
0 $2 $3 $4 $5 $6 $7 $8 $9 X,Y pos of 4 corners*
0 Add a 4 corners polygon primitive as box body*
4,1,4,$2,$3,$4,$5,$6,$7,$8,$9,$2,$3,0*
0 Add four circle primitives for the rounded corners*
1,1,$1+$1,$2,$3*
1,1,$1+$1,$4,$5*
1,1,$1+$1,$6,$7*
1,1,$1+$1,$8,$9*
0 Add four rect primitives between the rounded corners*
20,1,$1+$1,$2,$3,$4,$5,0*
20,1,$1+$1,$4,$5,$6,$7,0*
20,1,$1+$1,$6,$7,$8,$9,0*
20,1,$1+$1,$8,$9,$2,$3,0*%
G04 Aperture macros list end*
%TA.AperFunction,SMDPad,CuDef*%
%ADD10RoundRect,0.225000X0.225000X0.250000X-0.225000X0.250000X-0.225000X-0.250000X0.225000X-0.250000X0*%
%TD*%
%TA.AperFunction,SMDPad,CuDef*%
%ADD11RoundRect,0.225000X-0.250000X0.225000X-0.250000X-0.225000X0.250000X-0.225000X0.250000X0.225000X0*%
%TD*%
%TA.AperFunction,SMDPad,CuDef*%
%ADD12RoundRect,0.225000X0.250000X-0.225000X0.250000X0.225000X-0.250000X0.225000X-0.250000X-0.225000X0*%
%TD*%
%TA.AperFunction,SMDPad,CuDef*%
%ADD13RoundRect,0.225000X-0.225000X-0.250000X0.225000X-0.250000X0.225000X0.250000X-0.225000X0.250000X0*%
%TD*%
%TA.AperFunction,SMDPad,CuDef*%
%ADD14R,0.900000X1.200000*%
%TD*%
%TA.AperFunction,SMDPad,CuDef*%
%ADD15R,1.200000X0.900000*%
%TD*%
%TA.AperFunction,SMDPad,CuDef*%
%ADD16R,1.000000X1.050000*%
%TD*%
%TA.AperFunction,SMDPad,CuDef*%
%ADD17R,1.050000X2.200000*%
%TD*%
%TA.AperFunction,SMDPad,CuDef*%
%ADD18R,1.050000X1.000000*%
%TD*%
%TA.AperFunction,SMDPad,CuDef*%
%ADD19R,2.200000X1.050000*%
%TD*%
%TA.AperFunction,SMDPad,CuDef*%
%ADD20RoundRect,0.218750X-0.256250X0.218750X-0.256250X-0.218750X0.256250X-0.218750X0.256250X0.218750X0*%
%TD*%
%TA.AperFunction,SMDPad,CuDef*%
%ADD21RoundRect,0.218750X0.218750X0.256250X-0.218750X0.256250X-0.218750X-0.256250X0.218750X-0.256250X0*%
%TD*%
%TA.AperFunction,SMDPad,CuDef*%
%ADD22RoundRect,0.218750X0.256250X-0.218750X0.256250X0.218750X-0.256250X0.218750X-0.256250X-0.218750X0*%
%TD*%
%TA.AperFunction,SMDPad,CuDef*%
%ADD23RoundRect,0.218750X-0.218750X-0.256250X0.218750X-0.256250X0.218750X0.256250X-0.218750X0.256250X0*%
%TD*%
%TA.AperFunction,SMDPad,CuDef*%
%ADD24R,0.800000X0.900000*%
%TD*%
%TA.AperFunction,SMDPad,CuDef*%
%ADD25R,0.900000X0.800000*%
%TD*%
%TA.AperFunction,SMDPad,CuDef*%
%ADD26RoundRect,0.200000X-0.275000X0.200000X-0.275000X-0.200000X0.275000X-0.200000X0.275000X0.200000X0*%
%TD*%
%TA.AperFunction,SMDPad,CuDef*%
%ADD27RoundRect,0.200000X0.200000X0.275000X-0.200000X0.275000X-0.200000X-0.275000X0.200000X-0.275000X0*%
%TD*%
%TA.AperFunction,SMDPad,CuDef*%
%ADD28RoundRect,0.200000X0.275000X-0.200000X0.275000X0.200000X-0.275000X0.200000X-0.275000X-0.200000X0*%
%TD*%
%TA.AperFunction,SMDPad,CuDef*%
%ADD29RoundRect,0.200000X-0.200000X-0.275000X0.200000X-0.275000X0.200000X0.275000X-0.200000X0.275000X0*%
%TD*%
%TA.AperFunction,ComponentPad*%
%ADD30C,7.500000*%
%TD*%
%TA.AperFunction,ComponentPad*%
%ADD31R,1.700000X1.700000*%
%TD*%
%TA.AperFunction,ComponentPad*%
%ADD32O,1.700000X1.700000*%
%TD*%
%TA.AperFunction,ViaPad*%
%ADD33C,0.800000*%
%TD*%
%TA.AperFunction,Conductor*%
%ADD34C,1.000000*%
%TD*%
%TA.AperFunction,Conductor*%
%ADD35C,0.750000*%
%TD*%
%TA.AperFunction,Conductor*%
%ADD36C,0.500000*%
%TD*%
%TA.AperFunction,Conductor*%
%ADD37C,0.250000*%
%TD*%
G04 APERTURE END LIST*
D10*
%TO.P,C3,1*%
%TO.N,Net-(C3-Pad1)*%
X136375000Y-94600000D03*
%TO.P,C3,2*%
%TO.N,TRIG3*%
X134825000Y-94600000D03*
%TD*%
D11*
%TO.P,C4,1*%
%TO.N,Net-(C4-Pad1)*%
X133800000Y-88025000D03*
%TO.P,C4,2*%
%TO.N,Net-(C3-Pad1)*%
X133800000Y-89575000D03*
%TD*%
D12*
%TO.P,C5,1*%
%TO.N,Net-(C5-Pad1)*%
X150700000Y-100250000D03*
%TO.P,C5,2*%
%TO.N,TRIG5*%
X150700000Y-98700000D03*
%TD*%
D10*
%TO.P,C6,1*%
%TO.N,Net-(C6-Pad1)*%
X157250000Y-98800000D03*
%TO.P,C6,2*%
%TO.N,Net-(C5-Pad1)*%
X155700000Y-98800000D03*
%TD*%
D13*
%TO.P,C7,1*%
%TO.N,Net-(C7-Pad1)*%
X145225000Y-115600000D03*
%TO.P,C7,2*%
%TO.N,TRIG7*%
X146775000Y-115600000D03*
%TD*%
D10*
%TO.P,C9,1*%
%TO.N,Net-(C10-Pad2)*%
X134360000Y-115570000D03*
%TO.P,C9,2*%
%TO.N,TRIG0*%
X132810000Y-115570000D03*
%TD*%
D12*
%TO.P,C10,1*%
%TO.N,Net-(C10-Pad1)*%
X137400000Y-122300000D03*
%TO.P,C10,2*%
%TO.N,Net-(C10-Pad2)*%
X137400000Y-120750000D03*
%TD*%
D11*
%TO.P,C11,1*%
%TO.N,Net-(C11-Pad1)*%
X130370000Y-97155000D03*
%TO.P,C11,2*%
%TO.N,TRIG2*%
X130370000Y-98705000D03*
%TD*%
D13*
%TO.P,C12,1*%
%TO.N,Net-(C12-Pad1)*%
X123625000Y-101900000D03*
%TO.P,C12,2*%
%TO.N,Net-(C11-Pad1)*%
X125175000Y-101900000D03*
%TD*%
D11*
%TO.P,C14,1*%
%TO.N,Net-(C14-Pad1)*%
X143500000Y-88025000D03*
%TO.P,C14,2*%
%TO.N,Net-(C13-Pad1)*%
X143500000Y-89575000D03*
%TD*%
D12*
%TO.P,C15,1*%
%TO.N,Net-(C15-Pad1)*%
X149820000Y-113100000D03*
%TO.P,C15,2*%
%TO.N,TRIG6*%
X149820000Y-111550000D03*
%TD*%
D10*
%TO.P,C16,1*%
%TO.N,Net-(C16-Pad1)*%
X157275000Y-108400000D03*
%TO.P,C16,2*%
%TO.N,Net-(C15-Pad1)*%
X155725000Y-108400000D03*
%TD*%
D14*
%TO.P,D3,1,K*%
%TO.N,GND*%
X131950000Y-91600000D03*
%TO.P,D3,2,A*%
%TO.N,Net-(C3-Pad1)*%
X135250000Y-91600000D03*
%TD*%
D15*
%TO.P,D5,1,K*%
%TO.N,GND*%
X153700000Y-96750000D03*
%TO.P,D5,2,A*%
%TO.N,Net-(C5-Pad1)*%
X153700000Y-100050000D03*
%TD*%
D14*
%TO.P,D7,1,K*%
%TO.N,GND*%
X149050000Y-118800000D03*
%TO.P,D7,2,A*%
%TO.N,Net-(C7-Pad1)*%
X145750000Y-118800000D03*
%TD*%
%TO.P,D9,1,K*%
%TO.N,GND*%
X139120000Y-116390000D03*
%TO.P,D9,2,A*%
%TO.N,Net-(C10-Pad2)*%
X135820000Y-116390000D03*
%TD*%
D15*
%TO.P,D11,1,K*%
%TO.N,GND*%
X129310000Y-103450000D03*
%TO.P,D11,2,A*%
%TO.N,Net-(C11-Pad1)*%
X129310000Y-100150000D03*
%TD*%
D14*
%TO.P,D13,1,K*%
%TO.N,GND*%
X141890000Y-93440000D03*
%TO.P,D13,2,A*%
%TO.N,Net-(C13-Pad1)*%
X145190000Y-93440000D03*
%TD*%
D15*
%TO.P,D15,1,K*%
%TO.N,GND*%
X151760000Y-106850000D03*
%TO.P,D15,2,A*%
%TO.N,Net-(C15-Pad1)*%
X151760000Y-110150000D03*
%TD*%
D16*
%TO.P,J2,1,In*%
%TO.N,Net-(C4-Pad1)*%
X135400000Y-86219999D03*
D17*
%TO.P,J2,2,Ext*%
%TO.N,Net-(J2-Pad2)*%
X136875000Y-84694999D03*
X133925000Y-84694999D03*
%TD*%
D18*
%TO.P,J3,1,In*%
%TO.N,Net-(C6-Pad1)*%
X159070000Y-100290000D03*
D19*
%TO.P,J3,2,Ext*%
%TO.N,Net-(J3-Pad2)*%
X160595000Y-101765000D03*
X160595000Y-98815000D03*
%TD*%
D16*
%TO.P,J4,1,In*%
%TO.N,Net-(C8-Pad1)*%
X145700000Y-124050000D03*
D17*
%TO.P,J4,2,Ext*%
%TO.N,Net-(J4-Pad2)*%
X144225000Y-125575000D03*
X147175000Y-125575000D03*
%TD*%
D16*
%TO.P,J5,1,In*%
%TO.N,Net-(C10-Pad1)*%
X136000000Y-124150000D03*
D17*
%TO.P,J5,2,Ext*%
%TO.N,Net-(J5-Pad2)*%
X134525000Y-125675000D03*
X137475000Y-125675000D03*
%TD*%
D18*
%TO.P,J6,1,In*%
%TO.N,Net-(C12-Pad1)*%
X121850000Y-100300000D03*
D19*
%TO.P,J6,2,Ext*%
%TO.N,Net-(J6-Pad2)*%
X120325000Y-98825000D03*
X120325000Y-101775000D03*
%TD*%
D16*
%TO.P,J7,1,In*%
%TO.N,Net-(C14-Pad1)*%
X145010001Y-86230000D03*
D17*
%TO.P,J7,2,Ext*%
%TO.N,Net-(J7-Pad2)*%
X143535001Y-84705000D03*
X146485001Y-84705000D03*
%TD*%
D18*
%TO.P,J8,1,In*%
%TO.N,Net-(C16-Pad1)*%
X159050000Y-109900000D03*
D19*
%TO.P,J8,2,Ext*%
%TO.N,Net-(J8-Pad2)*%
X160575000Y-108425000D03*
X160575000Y-111375000D03*
%TD*%
D20*
%TO.P,L2,1,1*%
%TO.N,Net-(C4-Pad1)*%
X135299999Y-88012500D03*
%TO.P,L2,2,2*%
%TO.N,Net-(J2-Pad2)*%
X135299999Y-89587500D03*
%TD*%
D21*
%TO.P,L3,1,1*%
%TO.N,Net-(C6-Pad1)*%
X157287500Y-100300000D03*
%TO.P,L3,2,2*%
%TO.N,Net-(J3-Pad2)*%
X155712500Y-100300000D03*
%TD*%
D22*
%TO.P,L4,1,1*%
%TO.N,Net-(C8-Pad1)*%
X145700000Y-122287500D03*
%TO.P,L4,2,2*%
%TO.N,Net-(J4-Pad2)*%
X145700000Y-120712500D03*
%TD*%
%TO.P,L5,1,1*%
%TO.N,Net-(C10-Pad1)*%
X135900000Y-122299998D03*
%TO.P,L5,2,2*%
%TO.N,Net-(J5-Pad2)*%
X135900000Y-120724998D03*
%TD*%
D23*
%TO.P,L6,1,1*%
%TO.N,Net-(C12-Pad1)*%
X123612500Y-100400000D03*
%TO.P,L6,2,2*%
%TO.N,Net-(J6-Pad2)*%
X125187500Y-100400000D03*
%TD*%
D20*
%TO.P,L7,1,1*%
%TO.N,Net-(C14-Pad1)*%
X145000000Y-88012500D03*
%TO.P,L7,2,2*%
%TO.N,Net-(J7-Pad2)*%
X145000000Y-89587500D03*
%TD*%
D24*
%TO.P,Q3,1,B*%
%TO.N,GND*%
X140350000Y-91500000D03*
%TO.P,Q3,2,E*%
%TO.N,Net-(C3-Pad1)*%
X138450000Y-91500000D03*
%TO.P,Q3,3,C*%
%TO.N,Net-(Q3-Pad3)*%
X139400000Y-93500000D03*
%TD*%
D25*
%TO.P,Q4,1,B*%
%TO.N,Net-(Q3-Pad3)*%
X140400000Y-89950000D03*
%TO.P,Q4,2,E*%
%TO.N,Net-(J2-Pad2)*%
X140400000Y-88050000D03*
%TO.P,Q4,3,C*%
%TO.N,GND*%
X138400000Y-89000000D03*
%TD*%
%TO.P,Q5,1,B*%
%TO.N,GND*%
X153800000Y-105290000D03*
%TO.P,Q5,2,E*%
%TO.N,Net-(C5-Pad1)*%
X153800000Y-103390000D03*
%TO.P,Q5,3,C*%
%TO.N,Net-(Q5-Pad3)*%
X151800000Y-104340000D03*
%TD*%
%TO.P,Q6,1,B*%
%TO.N,Net-(Q5-Pad3)*%
X155300000Y-103390000D03*
%TO.P,Q6,2,E*%
%TO.N,Net-(J3-Pad2)*%
X155300000Y-105290000D03*
%TO.P,Q6,3,C*%
%TO.N,GND*%
X157300000Y-104340000D03*
%TD*%
D24*
%TO.P,Q7,1,B*%
%TO.N,GND*%
X140650000Y-118799999D03*
%TO.P,Q7,2,E*%
%TO.N,Net-(C7-Pad1)*%
X142550000Y-118799999D03*
%TO.P,Q7,3,C*%
%TO.N,Net-(Q7-Pad3)*%
X141600000Y-116799999D03*
%TD*%
%TO.P,Q8,1,B*%
%TO.N,Net-(Q7-Pad3)*%
X142550000Y-120300000D03*
%TO.P,Q8,2,E*%
%TO.N,Net-(J4-Pad2)*%
X140650000Y-120300000D03*
%TO.P,Q8,3,C*%
%TO.N,GND*%
X141600000Y-122300000D03*
%TD*%
%TO.P,Q9,1,B*%
%TO.N,GND*%
X132370000Y-119060000D03*
%TO.P,Q9,2,E*%
%TO.N,Net-(C10-Pad2)*%
X134270000Y-119060000D03*
%TO.P,Q9,3,C*%
%TO.N,Net-(Q10-Pad1)*%
X133320000Y-117060000D03*
%TD*%
%TO.P,Q10,1,B*%
%TO.N,Net-(Q10-Pad1)*%
X132640000Y-122180000D03*
%TO.P,Q10,2,E*%
%TO.N,Net-(J5-Pad2)*%
X130740000Y-122180000D03*
%TO.P,Q10,3,C*%
%TO.N,GND*%
X131690000Y-124180000D03*
%TD*%
D25*
%TO.P,Q11,1,B*%
%TO.N,GND*%
X128790000Y-98570000D03*
%TO.P,Q11,2,E*%
%TO.N,Net-(C11-Pad1)*%
X128790000Y-96670000D03*
%TO.P,Q11,3,C*%
%TO.N,Net-(Q11-Pad3)*%
X126790000Y-97620000D03*
%TD*%
D24*
%TO.P,Q12,1,B*%
%TO.N,Net-(Q11-Pad3)*%
X123250000Y-95040000D03*
%TO.P,Q12,2,E*%
%TO.N,Net-(J6-Pad2)*%
X121350000Y-95040000D03*
%TO.P,Q12,3,C*%
%TO.N,GND*%
X122300000Y-97040000D03*
%TD*%
%TO.P,Q13,1,B*%
%TO.N,GND*%
X148670000Y-91480000D03*
%TO.P,Q13,2,E*%
%TO.N,Net-(C13-Pad1)*%
X146770000Y-91480000D03*
%TO.P,Q13,3,C*%
%TO.N,Net-(Q13-Pad3)*%
X147720000Y-93480000D03*
%TD*%
%TO.P,Q14,1,B*%
%TO.N,Net-(Q13-Pad3)*%
X148390000Y-88210000D03*
%TO.P,Q14,2,E*%
%TO.N,Net-(J7-Pad2)*%
X150290000Y-88210000D03*
%TO.P,Q14,3,C*%
%TO.N,GND*%
X149340000Y-86210000D03*
%TD*%
D25*
%TO.P,Q15,1,B*%
%TO.N,GND*%
X153960000Y-113650000D03*
%TO.P,Q15,2,E*%
%TO.N,Net-(C15-Pad1)*%
X153960000Y-111750000D03*
%TO.P,Q15,3,C*%
%TO.N,Net-(Q15-Pad3)*%
X151960000Y-112700000D03*
%TD*%
%TO.P,Q16,1,B*%
%TO.N,Net-(Q15-Pad3)*%
X158210000Y-113280000D03*
%TO.P,Q16,2,E*%
%TO.N,Net-(J8-Pad2)*%
X158210000Y-115180000D03*
%TO.P,Q16,3,C*%
%TO.N,GND*%
X160210000Y-114230000D03*
%TD*%
D26*
%TO.P,R4,1*%
%TO.N,Net-(C4-Pad1)*%
X132300000Y-87975000D03*
%TO.P,R4,2*%
%TO.N,VCC*%
X132300000Y-89625000D03*
%TD*%
%TO.P,R5,1*%
%TO.N,Net-(C3-Pad1)*%
X136800000Y-91475000D03*
%TO.P,R5,2*%
%TO.N,GND*%
X136800000Y-93125000D03*
%TD*%
%TO.P,R6,1*%
%TO.N,Net-(J2-Pad2)*%
X136800001Y-87975000D03*
%TO.P,R6,2*%
%TO.N,Net-(Q3-Pad3)*%
X136800001Y-89625000D03*
%TD*%
D27*
%TO.P,R7,1*%
%TO.N,Net-(C6-Pad1)*%
X157325000Y-97300000D03*
%TO.P,R7,2*%
%TO.N,VCC*%
X155675000Y-97300000D03*
%TD*%
%TO.P,R8,1*%
%TO.N,Net-(C5-Pad1)*%
X153800000Y-101800000D03*
%TO.P,R8,2*%
%TO.N,GND*%
X152150000Y-101800000D03*
%TD*%
%TO.P,R9,1*%
%TO.N,Net-(J3-Pad2)*%
X157350000Y-101800000D03*
%TO.P,R9,2*%
%TO.N,Net-(Q5-Pad3)*%
X155700000Y-101800000D03*
%TD*%
D28*
%TO.P,R10,1*%
%TO.N,Net-(C8-Pad1)*%
X148700001Y-122325000D03*
%TO.P,R10,2*%
%TO.N,VCC*%
X148700001Y-120675000D03*
%TD*%
%TO.P,R11,1*%
%TO.N,Net-(C7-Pad1)*%
X144200000Y-118825000D03*
%TO.P,R11,2*%
%TO.N,GND*%
X144200000Y-117175000D03*
%TD*%
%TO.P,R12,1*%
%TO.N,Net-(J4-Pad2)*%
X144200000Y-122325000D03*
%TO.P,R12,2*%
%TO.N,Net-(Q7-Pad3)*%
X144200000Y-120675000D03*
%TD*%
%TO.P,R13,1*%
%TO.N,Net-(C10-Pad1)*%
X138900000Y-122325000D03*
%TO.P,R13,2*%
%TO.N,VCC*%
X138900000Y-120675000D03*
%TD*%
D29*
%TO.P,R14,1*%
%TO.N,Net-(C10-Pad2)*%
X137315000Y-118820000D03*
%TO.P,R14,2*%
%TO.N,GND*%
X138965000Y-118820000D03*
%TD*%
%TO.P,R16,1*%
%TO.N,Net-(C12-Pad1)*%
X123600000Y-103400000D03*
%TO.P,R16,2*%
%TO.N,VCC*%
X125250000Y-103400000D03*
%TD*%
D26*
%TO.P,R17,1*%
%TO.N,Net-(C11-Pad1)*%
X127370000Y-100200000D03*
%TO.P,R17,2*%
%TO.N,GND*%
X127370000Y-101850000D03*
%TD*%
D29*
%TO.P,R18,1*%
%TO.N,Net-(J6-Pad2)*%
X123550000Y-98800000D03*
%TO.P,R18,2*%
%TO.N,Net-(Q11-Pad3)*%
X125200000Y-98800000D03*
%TD*%
D26*
%TO.P,R19,1*%
%TO.N,Net-(C14-Pad1)*%
X142000000Y-87975000D03*
%TO.P,R19,2*%
%TO.N,VCC*%
X142000000Y-89625000D03*
%TD*%
D27*
%TO.P,R20,1*%
%TO.N,Net-(C13-Pad1)*%
X144875000Y-91500000D03*
%TO.P,R20,2*%
%TO.N,GND*%
X143225000Y-91500000D03*
%TD*%
D26*
%TO.P,R21,1*%
%TO.N,Net-(J7-Pad2)*%
X146500000Y-87975000D03*
%TO.P,R21,2*%
%TO.N,Net-(Q13-Pad3)*%
X146500000Y-89625000D03*
%TD*%
D27*
%TO.P,R22,1*%
%TO.N,Net-(C16-Pad1)*%
X157325000Y-106900000D03*
%TO.P,R22,2*%
%TO.N,VCC*%
X155675000Y-106900000D03*
%TD*%
D28*
%TO.P,R23,1*%
%TO.N,Net-(C15-Pad1)*%
X153700000Y-108440000D03*
%TO.P,R23,2*%
%TO.N,GND*%
X153700000Y-106790000D03*
%TD*%
D27*
%TO.P,R24,1*%
%TO.N,Net-(J8-Pad2)*%
X157325000Y-111400000D03*
%TO.P,R24,2*%
%TO.N,Net-(Q15-Pad3)*%
X155675000Y-111400000D03*
%TD*%
D29*
%TO.P,R3,1*%
%TO.N,Net-(J1-Pad2)*%
X123778388Y-108574160D03*
%TO.P,R3,2*%
%TO.N,Net-(Q1-Pad3)*%
X125428388Y-108574160D03*
%TD*%
D25*
%TO.P,Q1,1,B*%
%TO.N,GND*%
X127103388Y-105024159D03*
%TO.P,Q1,2,E*%
%TO.N,Net-(C1-Pad1)*%
X127103388Y-106924159D03*
%TO.P,Q1,3,C*%
%TO.N,Net-(Q1-Pad3)*%
X129103388Y-105974159D03*
%TD*%
D23*
%TO.P,L1,1,1*%
%TO.N,Net-(C2-Pad1)*%
X123815888Y-110074160D03*
%TO.P,L1,2,2*%
%TO.N,Net-(J1-Pad2)*%
X125390888Y-110074160D03*
%TD*%
D13*
%TO.P,C2,1*%
%TO.N,Net-(C2-Pad1)*%
X123803387Y-111574159D03*
%TO.P,C2,2*%
%TO.N,Net-(C1-Pad1)*%
X125353387Y-111574159D03*
%TD*%
D18*
%TO.P,J1,1,In*%
%TO.N,Net-(C2-Pad1)*%
X121965520Y-110065454D03*
D19*
%TO.P,J1,2,Ext*%
%TO.N,Net-(J1-Pad2)*%
X120440520Y-111540454D03*
X120440520Y-108590454D03*
%TD*%
D15*
%TO.P,D1,1,K*%
%TO.N,GND*%
X127300000Y-113850000D03*
%TO.P,D1,2,A*%
%TO.N,Net-(C1-Pad1)*%
X127300000Y-110550000D03*
%TD*%
D11*
%TO.P,C1,1*%
%TO.N,Net-(C1-Pad1)*%
X130200000Y-109650000D03*
%TO.P,C1,2*%
%TO.N,TRIG1*%
X130200000Y-111200000D03*
%TD*%
D25*
%TO.P,Q2,1,B*%
%TO.N,Net-(Q1-Pad3)*%
X125603388Y-106924159D03*
%TO.P,Q2,2,E*%
%TO.N,Net-(J1-Pad2)*%
X125603388Y-105024159D03*
%TO.P,Q2,3,C*%
%TO.N,GND*%
X123603388Y-105974159D03*
%TD*%
D29*
%TO.P,R1,1*%
%TO.N,Net-(C2-Pad1)*%
X123753387Y-113074159D03*
%TO.P,R1,2*%
%TO.N,VCC*%
X125403387Y-113074159D03*
%TD*%
D10*
%TO.P,C13,1*%
%TO.N,Net-(C13-Pad1)*%
X148040000Y-95380000D03*
%TO.P,C13,2*%
%TO.N,TRIG4*%
X146490000Y-95380000D03*
%TD*%
D29*
%TO.P,R2,1*%
%TO.N,Net-(C1-Pad1)*%
X127103388Y-108574160D03*
%TO.P,R2,2*%
%TO.N,GND*%
X128753388Y-108574160D03*
%TD*%
D28*
%TO.P,R15,1*%
%TO.N,Net-(J5-Pad2)*%
X134400000Y-122350000D03*
%TO.P,R15,2*%
%TO.N,Net-(Q10-Pad1)*%
X134400000Y-120700000D03*
%TD*%
D12*
%TO.P,C8,1*%
%TO.N,Net-(C8-Pad1)*%
X147199999Y-122275000D03*
%TO.P,C8,2*%
%TO.N,Net-(C7-Pad1)*%
X147199999Y-120725000D03*
%TD*%
D21*
%TO.P,L8,1,1*%
%TO.N,Net-(C16-Pad1)*%
X157287501Y-109900000D03*
%TO.P,L8,2,2*%
%TO.N,Net-(J8-Pad2)*%
X155712501Y-109900000D03*
%TD*%
D30*
%TO.P,H4,1*%
%TO.N,N/C*%
X127130000Y-118570000D03*
%TD*%
%TO.P,H3,1*%
%TO.N,N/C*%
X154010000Y-118560000D03*
%TD*%
%TO.P,H2,1*%
%TO.N,N/C*%
X154010000Y-91700000D03*
%TD*%
%TO.P,H1,1*%
%TO.N,N/C*%
X127150000Y-91720000D03*
%TD*%
D31*
%TO.P,J10,1,Pin_1*%
%TO.N,VCC*%
X139105000Y-83870000D03*
D32*
%TO.P,J10,2,Pin_2*%
%TO.N,GND*%
X141645000Y-83870000D03*
%TD*%
D33*
%TO.N,GND*%
X158550000Y-118160000D03*
X120400000Y-106000000D03*
X118800000Y-104900000D03*
X161600000Y-103800000D03*
X140620000Y-94010000D03*
X122370000Y-93060000D03*
X121900000Y-104800000D03*
X145800000Y-117100000D03*
X133760000Y-93160000D03*
X151900000Y-86600000D03*
X130600000Y-85700000D03*
X130660000Y-100840000D03*
X128779312Y-97719312D03*
X159900000Y-95200000D03*
X140500000Y-92700000D03*
X157500000Y-94700000D03*
X161700000Y-105900000D03*
X150800000Y-95110000D03*
X143460000Y-93400000D03*
X159600000Y-105800000D03*
X122260000Y-95890000D03*
X132170000Y-93510000D03*
X129520000Y-124170000D03*
X159500000Y-103700000D03*
X128650000Y-123440000D03*
X140500000Y-126700000D03*
X148990000Y-98010000D03*
X148900000Y-85100000D03*
X128000000Y-87000000D03*
X150200000Y-124700000D03*
X156750000Y-114780000D03*
X130620000Y-95140000D03*
X153800000Y-106040000D03*
X121600000Y-114300000D03*
X155340000Y-114250000D03*
X160500000Y-96300000D03*
X129860000Y-113960000D03*
X158860000Y-116770000D03*
X123280000Y-115610000D03*
X149520000Y-94950000D03*
X129700000Y-88000000D03*
X146900000Y-114070000D03*
X140470000Y-115740000D03*
X139430000Y-89000000D03*
X122290000Y-117190000D03*
X120300000Y-103800000D03*
X141800000Y-126800000D03*
%TO.N,TRIG1*%
X133350000Y-113290000D03*
%TO.N,TRIG3*%
X133000000Y-94700000D03*
%TO.N,TRIG5*%
X150900000Y-97500000D03*
%TO.N,TRIG7*%
X147200000Y-117000000D03*
%TO.N,TRIG0*%
X134200000Y-113900000D03*
%TO.N,TRIG2*%
X131800000Y-98100000D03*
%TO.N,TRIG4*%
X147800000Y-96600000D03*
%TO.N,TRIG6*%
X148150000Y-112980000D03*
%TO.N,VCC*%
X155700000Y-96400000D03*
X151200000Y-122600000D03*
X154800000Y-106900000D03*
X125400000Y-114400000D03*
X139001042Y-125801040D03*
X131300000Y-89600000D03*
X142000000Y-90700000D03*
X126700000Y-102900000D03*
%TD*%
D34*
%TO.N,Net-(C1-Pad1)*%
X127103388Y-108574160D02*
X127300000Y-108770772D01*
D35*
X130200000Y-108000000D02*
X129149160Y-106949160D01*
D34*
X127103388Y-106924160D02*
X127103388Y-108574160D01*
X126925841Y-111574159D02*
X125353388Y-111574159D01*
X127300000Y-108770772D02*
X127300000Y-110550000D01*
X127300000Y-111200000D02*
X126925841Y-111574159D01*
X127103388Y-106924159D02*
X127103388Y-106924160D01*
D35*
X127128389Y-106949160D02*
X127103388Y-106924159D01*
D34*
X127300000Y-110550000D02*
X127300000Y-111200000D01*
D35*
X130200000Y-109650000D02*
X130200000Y-108000000D01*
X129149160Y-106949160D02*
X127128389Y-106949160D01*
D34*
%TO.N,Net-(C2-Pad1)*%
X123803387Y-111574159D02*
X123753387Y-111624159D01*
X123753387Y-111624159D02*
X123753387Y-113074159D01*
X123807182Y-110065454D02*
X121965519Y-110065454D01*
X123803387Y-110086660D02*
X123803387Y-111574159D01*
X123815887Y-110074160D02*
X123807182Y-110065454D01*
X123815887Y-110074160D02*
X123803387Y-110086660D01*
D36*
%TO.N,Net-(C3-Pad1)*%
X136375000Y-94600000D02*
X138250000Y-94600000D01*
D34*
X136800000Y-91475000D02*
X138425000Y-91475000D01*
D35*
X138275000Y-91675000D02*
X138275000Y-94575000D01*
D34*
X133800000Y-89575000D02*
X133800000Y-91100000D01*
X134250000Y-91550000D02*
X134800000Y-91550000D01*
X134800000Y-91550000D02*
X136725000Y-91550000D01*
X138425000Y-91475000D02*
X138450000Y-91500000D01*
X136725000Y-91550000D02*
X136800000Y-91475000D01*
X133800000Y-91100000D02*
X134250000Y-91550000D01*
D36*
X138250000Y-94600000D02*
X138275000Y-94575000D01*
D35*
X138450000Y-91500000D02*
X138275000Y-91675000D01*
D34*
%TO.N,Net-(C4-Pad1)*%
X132300000Y-87975000D02*
X133750000Y-87975000D01*
X135287500Y-88025000D02*
X135300000Y-88012500D01*
X135400001Y-86220000D02*
X135400000Y-87912500D01*
X135400000Y-87912500D02*
X135300000Y-88012500D01*
X133750000Y-87975000D02*
X133800000Y-88025000D01*
X133800000Y-88025000D02*
X135287500Y-88025000D01*
D36*
%TO.N,Net-(C5-Pad1)*%
X150700000Y-100250000D02*
X150700000Y-102247380D01*
D34*
X153800000Y-103390000D02*
X153610000Y-103200000D01*
X154200000Y-98800000D02*
X153799999Y-99200000D01*
X153800000Y-101800000D02*
X153800000Y-103390000D01*
X153799999Y-99200000D02*
X153799999Y-99800000D01*
D36*
X150753849Y-102453849D02*
X151500000Y-103200000D01*
D34*
X153799999Y-99800000D02*
X153800000Y-101800000D01*
X155700000Y-98800000D02*
X154200000Y-98800000D01*
X153610000Y-103200000D02*
X151500000Y-103200000D01*
D36*
X150700000Y-102247380D02*
X150753849Y-102453849D01*
D34*
%TO.N,Net-(C6-Pad1)*%
X157325000Y-98725000D02*
X157250000Y-98800000D01*
X157250000Y-100262500D02*
X157287500Y-100300000D01*
X157250000Y-98800000D02*
X157250000Y-100262500D01*
X159060000Y-100299999D02*
X159070000Y-100290000D01*
X157287500Y-100300000D02*
X159060000Y-100299999D01*
X157325000Y-97300000D02*
X157325000Y-98725000D01*
%TO.N,Net-(C7-Pad1)*%
X147200000Y-120725000D02*
X147200000Y-119200000D01*
X142550000Y-118800001D02*
X142700002Y-118649999D01*
D36*
X145225000Y-115600000D02*
X143300000Y-115600000D01*
D34*
X146200000Y-118850000D02*
X144225000Y-118850000D01*
D36*
X143300000Y-115600000D02*
X142700002Y-116199998D01*
D34*
X144200000Y-118825000D02*
X142575000Y-118825000D01*
X142575000Y-118825000D02*
X142550000Y-118800001D01*
X142700002Y-118649999D02*
X142700002Y-116199998D01*
X146850000Y-118850000D02*
X146200000Y-118850000D01*
X144225000Y-118850000D02*
X144200000Y-118825000D01*
X147200000Y-119200000D02*
X146850000Y-118850000D01*
%TO.N,Net-(C8-Pad1)*%
X148700001Y-122325000D02*
X147250000Y-122325000D01*
X145700000Y-124050000D02*
X145700000Y-122287500D01*
X145712500Y-122275000D02*
X145700000Y-122287500D01*
X147200000Y-122275000D02*
X145712500Y-122275000D01*
X147250000Y-122325000D02*
X147200000Y-122275000D01*
D36*
%TO.N,Net-(C10-Pad2)*%
X134360000Y-115570000D02*
X135000000Y-115570000D01*
D34*
X137315000Y-116755000D02*
X136950000Y-116390000D01*
X134270000Y-119060000D02*
X137075000Y-119060000D01*
X137315000Y-118820000D02*
X137315000Y-116755000D01*
D36*
X135000000Y-115570000D02*
X135820000Y-116390000D01*
D34*
X137400000Y-118905000D02*
X137315000Y-118820000D01*
X137400000Y-120750000D02*
X137400000Y-118905000D01*
X137075000Y-119060000D02*
X137315000Y-118820000D01*
X136950000Y-116390000D02*
X135820000Y-116390000D01*
%TO.N,Net-(C10-Pad1)*%
X135900000Y-124050001D02*
X136000000Y-124150000D01*
X137425000Y-122325000D02*
X137400000Y-122300000D01*
X137400000Y-122300000D02*
X135900001Y-122300000D01*
X135900000Y-122299999D02*
X135900000Y-124050001D01*
X138900000Y-122325000D02*
X137425000Y-122325000D01*
X135900001Y-122300000D02*
X135900000Y-122299999D01*
D36*
%TO.N,Net-(C11-Pad1)*%
X129310000Y-100150000D02*
X127420000Y-100150000D01*
X125820000Y-101900000D02*
X126210000Y-101510000D01*
X128440000Y-96670000D02*
X127770000Y-97340000D01*
X126410000Y-100200000D02*
X127370000Y-100200000D01*
X127770000Y-97340000D02*
X127770000Y-99800000D01*
X127770000Y-99800000D02*
X127370000Y-100200000D01*
X129930000Y-96670000D02*
X128790000Y-96670000D01*
X126210000Y-100400000D02*
X126410000Y-100200000D01*
X128790000Y-96670000D02*
X128440000Y-96670000D01*
X130400000Y-97140000D02*
X129930000Y-96670000D01*
X126210000Y-101510000D02*
X126210000Y-100400000D01*
X125175000Y-101900000D02*
X125820000Y-101900000D01*
X127420000Y-100150000D02*
X127370000Y-100200000D01*
D34*
%TO.N,Net-(C12-Pad1)*%
X121950000Y-100400000D02*
X121850000Y-100300000D01*
X123625000Y-101900000D02*
X123625000Y-100412500D01*
X123625000Y-100412500D02*
X123612500Y-100400000D01*
X123600000Y-103400000D02*
X123600000Y-101925000D01*
X123625000Y-100400000D02*
X121950000Y-100400000D01*
X123600000Y-101925000D02*
X123625000Y-101900000D01*
D36*
%TO.N,Net-(C13-Pad1)*%
X147970000Y-95240000D02*
X146170000Y-93440000D01*
X147975000Y-95240000D02*
X147970000Y-95240000D01*
D34*
X146770000Y-91480000D02*
X144895000Y-91480000D01*
X145190000Y-91815000D02*
X144875000Y-91500000D01*
D36*
X143500000Y-90125000D02*
X144875000Y-91500000D01*
D34*
X144895000Y-91480000D02*
X144875000Y-91500000D01*
D36*
X146170000Y-93440000D02*
X145190000Y-93440000D01*
X143500000Y-89575000D02*
X143500000Y-90125000D01*
D34*
X145190000Y-93440000D02*
X145190000Y-91815000D01*
%TO.N,Net-(C14-Pad1)*%
X145000000Y-86240000D02*
X145010000Y-86230000D01*
X144987500Y-88025000D02*
X145000000Y-88012501D01*
X142000000Y-87975000D02*
X143450000Y-87975001D01*
X143450000Y-87975001D02*
X143500000Y-88025000D01*
X143500000Y-88025000D02*
X144987500Y-88025000D01*
X145000000Y-88012501D02*
X145000000Y-86240000D01*
%TO.N,Net-(C15-Pad1)*%
X155725000Y-108400000D02*
X153740000Y-108400000D01*
D36*
X150910000Y-111610000D02*
X151760000Y-110760000D01*
D34*
X153960000Y-110650000D02*
X153460000Y-110150000D01*
X151760000Y-108880000D02*
X152200000Y-108440000D01*
X153740000Y-108400000D02*
X153700000Y-108440000D01*
D36*
X150170000Y-113100000D02*
X150910000Y-112360000D01*
X151760000Y-110760000D02*
X151760000Y-110150000D01*
D34*
X153460000Y-110150000D02*
X151760000Y-110150000D01*
D36*
X149820000Y-113100000D02*
X150170000Y-113100000D01*
D34*
X151760000Y-110150000D02*
X151760000Y-108880000D01*
X152200000Y-108440000D02*
X153700000Y-108440000D01*
D36*
X150910000Y-112360000D02*
X150910000Y-111610000D01*
D34*
X153960000Y-111750000D02*
X153960000Y-110650000D01*
%TO.N,Net-(C16-Pad1)*%
X157287500Y-109900000D02*
X159050000Y-109900000D01*
X157275000Y-108400000D02*
X157275000Y-106950000D01*
X157275000Y-106950000D02*
X157325000Y-106900000D01*
X157287500Y-108412500D02*
X157275000Y-108400000D01*
X157287500Y-109900000D02*
X157287500Y-108412500D01*
D36*
%TO.N,GND*%
X138400000Y-89000000D02*
X139430000Y-89000000D01*
X128790000Y-98570000D02*
X128790000Y-97730000D01*
X128790000Y-97730000D02*
X128779312Y-97719312D01*
%TO.N,Net-(J1-Pad2)*%
X124578378Y-109378378D02*
X125274160Y-110074160D01*
X125075841Y-105024159D02*
X124700000Y-105400000D01*
X123778388Y-107521612D02*
X123778388Y-108574160D01*
X124700000Y-105400000D02*
X124700000Y-106600000D01*
X123778388Y-108574160D02*
X120456814Y-108574160D01*
X125274160Y-110074160D02*
X125390888Y-110074160D01*
X124700000Y-106600000D02*
X123778388Y-107521612D01*
D34*
X120440520Y-108590454D02*
X120440520Y-111540454D01*
D36*
X125603388Y-105024159D02*
X125075841Y-105024159D01*
X123778388Y-108574160D02*
X124274160Y-108574160D01*
X125390888Y-110074160D02*
X125278388Y-110074160D01*
X120456814Y-108574160D02*
X120440520Y-108590454D01*
X124274160Y-108574160D02*
X124578378Y-108878378D01*
X124578378Y-108878378D02*
X124578378Y-109378378D01*
%TO.N,Net-(J2-Pad2)*%
X136800000Y-88674990D02*
X136800000Y-87974999D01*
D34*
X133925000Y-84695000D02*
X136875000Y-84695000D01*
D36*
X135299999Y-89433272D02*
X136058282Y-88674990D01*
D34*
X136800000Y-84770000D02*
X136875000Y-84695000D01*
X136800001Y-84769998D02*
X136875000Y-84694999D01*
X136800001Y-87975000D02*
X136800001Y-84769998D01*
D36*
X135300000Y-89587500D02*
X135299999Y-89433272D01*
D34*
X136874512Y-87900489D02*
X136800001Y-87975000D01*
X140250489Y-87900489D02*
X136874512Y-87900489D01*
D36*
X136058282Y-88674990D02*
X136800000Y-88674990D01*
D34*
X140400000Y-88050000D02*
X140250489Y-87900489D01*
D36*
%TO.N,Net-(J3-Pad2)*%
X155920000Y-105290000D02*
X156360000Y-104850000D01*
D34*
X160595000Y-101765000D02*
X157385000Y-101765000D01*
D36*
X156360000Y-102790000D02*
X157350000Y-101800000D01*
X156360000Y-104850000D02*
X156360000Y-102790000D01*
X155850000Y-100300000D02*
X157350000Y-101800000D01*
D34*
X157385000Y-101765000D02*
X157350000Y-101800000D01*
D36*
X155300000Y-105290000D02*
X155920000Y-105290000D01*
D34*
X160595000Y-98815000D02*
X160595000Y-101765000D01*
D36*
%TO.N,Net-(J4-Pad2)*%
X144974990Y-121525010D02*
X144693507Y-121525010D01*
X140650000Y-120300000D02*
X140650000Y-120700000D01*
X144200000Y-122018517D02*
X144200000Y-122325000D01*
X140650000Y-120700000D02*
X141320000Y-121370000D01*
D34*
X144225000Y-125575000D02*
X147175000Y-125575000D01*
X144175000Y-122300000D02*
X144200000Y-122325000D01*
D36*
X145700000Y-120800000D02*
X144974990Y-121525010D01*
D34*
X144200000Y-122325000D02*
X144200001Y-125550000D01*
D36*
X141320000Y-121370000D02*
X143245000Y-121370000D01*
X144693507Y-121525010D02*
X144200000Y-122018517D01*
X145700000Y-120712500D02*
X145700000Y-120800000D01*
X143245000Y-121370000D02*
X144200000Y-122325000D01*
D34*
X144200001Y-125550000D02*
X144225000Y-125575000D01*
D35*
%TO.N,Net-(J5-Pad2)*%
X134525000Y-123635000D02*
X134525000Y-122475000D01*
D36*
X130920000Y-122310000D02*
X131830000Y-123220000D01*
X135900000Y-120724999D02*
X135900000Y-121200000D01*
X134549990Y-121550010D02*
X134400000Y-121700000D01*
X135900000Y-121200000D02*
X135750011Y-121349989D01*
X131830000Y-123220000D02*
X134110000Y-123220000D01*
X134110000Y-123220000D02*
X134525000Y-123635000D01*
X135750011Y-121349989D02*
X135144265Y-121349989D01*
X135144265Y-121349989D02*
X134944244Y-121550010D01*
X134944244Y-121550010D02*
X134549990Y-121550010D01*
X134400000Y-121700000D02*
X134400000Y-122350000D01*
D35*
X134525000Y-125675000D02*
X134525000Y-123635000D01*
D34*
X134525000Y-125675000D02*
X137475000Y-125675000D01*
D35*
X134525000Y-122475000D02*
X134400000Y-122350000D01*
D34*
%TO.N,Net-(J6-Pad2)*%
X120325000Y-101775000D02*
X120325000Y-98825000D01*
X120325000Y-98825000D02*
X120325000Y-96065000D01*
D36*
X123600000Y-98800000D02*
X123550000Y-98800000D01*
X125187500Y-100400000D02*
X125187500Y-100387500D01*
D34*
X120325000Y-98825000D02*
X123525000Y-98825000D01*
X123525000Y-98825000D02*
X123550000Y-98800000D01*
D36*
X125187500Y-100387500D02*
X123600000Y-98800000D01*
D34*
X120325000Y-96065000D02*
X121350000Y-95040000D01*
%TO.N,Net-(J7-Pad2)*%
X146485001Y-84705000D02*
X146485001Y-87204999D01*
D36*
X150290000Y-88210000D02*
X150290000Y-88160000D01*
D34*
X146485001Y-87204999D02*
X146485001Y-87960001D01*
D36*
X146580489Y-87109511D02*
X146485001Y-87204999D01*
X145725010Y-88774990D02*
X146325010Y-88774990D01*
D34*
X146485001Y-87960001D02*
X146500000Y-87975000D01*
X146485000Y-84705000D02*
X143535000Y-84705000D01*
D36*
X145000000Y-89500000D02*
X145725010Y-88774990D01*
X146325010Y-88774990D02*
X146500000Y-88600000D01*
X145000000Y-89587500D02*
X145000000Y-89500000D01*
X150290000Y-88160000D02*
X149239511Y-87109511D01*
X149239511Y-87109511D02*
X146580489Y-87109511D01*
X146500000Y-88600000D02*
X146500000Y-87975000D01*
D34*
%TO.N,Net-(J8-Pad2)*%
X159230000Y-111400000D02*
X160550000Y-111400000D01*
X157325000Y-111400000D02*
X159230000Y-111400000D01*
D36*
X155712500Y-109900000D02*
X155800000Y-109900000D01*
X155712501Y-109900000D02*
X155825000Y-109900000D01*
X155825000Y-109900000D02*
X157325000Y-111400000D01*
X158920000Y-115180000D02*
X159230000Y-114870000D01*
D34*
X160550000Y-111400000D02*
X160575000Y-111375000D01*
D36*
X159230000Y-114870000D02*
X159230000Y-111400000D01*
X158210000Y-115180000D02*
X158920000Y-115180000D01*
D34*
X160575000Y-111375000D02*
X160575000Y-108425000D01*
D36*
%TO.N,Net-(Q1-Pad3)*%
X129103388Y-105974159D02*
X125825841Y-105974159D01*
X125825841Y-105974159D02*
X125603388Y-106196612D01*
X125603388Y-106196612D02*
X125603388Y-106924159D01*
X125428388Y-108574160D02*
X125428388Y-107099159D01*
X125428388Y-107099159D02*
X125603388Y-106924159D01*
%TO.N,Net-(Q3-Pad3)*%
X139400000Y-90140000D02*
X139410000Y-90130000D01*
D34*
X140220000Y-90130000D02*
X140400000Y-89950000D01*
X139410000Y-90130000D02*
X140220000Y-90130000D01*
X136925000Y-89625000D02*
X137430000Y-90130000D01*
X136800001Y-89625000D02*
X136925000Y-89625000D01*
D36*
X139400000Y-93500000D02*
X139400000Y-90140000D01*
D34*
X137430000Y-90130000D02*
X139410000Y-90130000D01*
D36*
%TO.N,Net-(Q5-Pad3)*%
X155060000Y-104340000D02*
X155300000Y-104100000D01*
X155300000Y-104100000D02*
X155300000Y-103390000D01*
D34*
X155700000Y-101800000D02*
X155300000Y-102200000D01*
D36*
X151800000Y-104340000D02*
X155060000Y-104340000D01*
D34*
X155300000Y-102200000D02*
X155300000Y-103390000D01*
%TO.N,Net-(Q7-Pad3)*%
X143600000Y-120300000D02*
X142550000Y-120300000D01*
X143975000Y-120675000D02*
X143600000Y-120300000D01*
D36*
X141900000Y-120300000D02*
X142550000Y-120300000D01*
X141600000Y-116800001D02*
X141600000Y-120000000D01*
D34*
X144200000Y-120675000D02*
X143975000Y-120675000D01*
D36*
X141600000Y-120000000D02*
X141900000Y-120300000D01*
D34*
%TO.N,Net-(Q10-Pad1)*%
X133219510Y-120600490D02*
X134400000Y-120600490D01*
D36*
X133320000Y-120500000D02*
X133219510Y-120600490D01*
D34*
X132640000Y-122180000D02*
X132640000Y-121180000D01*
X132640000Y-121180000D02*
X133219510Y-120600490D01*
D36*
X133320000Y-117060000D02*
X133320000Y-120500000D01*
D34*
%TO.N,Net-(Q11-Pad3)*%
X124299511Y-97620000D02*
X123399511Y-96720000D01*
X123399511Y-95189511D02*
X123250000Y-95040000D01*
X125090000Y-97620000D02*
X124299511Y-97620000D01*
X125200000Y-98800000D02*
X125200000Y-97730000D01*
X123399511Y-96720000D02*
X123399511Y-95189511D01*
X125200000Y-97730000D02*
X125090000Y-97620000D01*
X126790000Y-97620000D02*
X125090000Y-97620000D01*
%TO.N,Net-(Q13-Pad3)*%
X148390000Y-89260000D02*
X147925490Y-89724510D01*
D36*
X147720000Y-93480000D02*
X147720000Y-89930000D01*
X147720000Y-89930000D02*
X147925490Y-89724510D01*
D34*
X148390000Y-88210000D02*
X148390000Y-89260000D01*
X147925490Y-89724510D02*
X146500000Y-89724510D01*
D36*
%TO.N,Net-(Q15-Pad3)*%
X151960000Y-112700000D02*
X155710000Y-112700000D01*
D34*
X156290000Y-113280000D02*
X158210000Y-113280000D01*
D36*
X155710000Y-112700000D02*
X156290000Y-113280000D01*
D34*
X155675000Y-112665000D02*
X156290000Y-113280000D01*
X155675000Y-111400000D02*
X155675000Y-112665000D01*
D36*
%TO.N,TRIG1*%
X131300000Y-111200000D02*
X130200000Y-111200000D01*
X133350000Y-113250000D02*
X131300000Y-111200000D01*
X133350000Y-113290000D02*
X133350000Y-113250000D01*
%TO.N,TRIG3*%
X133000000Y-94700000D02*
X134725000Y-94700000D01*
X134725000Y-94700000D02*
X134825000Y-94600000D01*
%TO.N,TRIG5*%
X150900000Y-97500000D02*
X150900000Y-98500000D01*
X150900000Y-98500000D02*
X150700000Y-98700000D01*
%TO.N,TRIG7*%
X146775000Y-115600000D02*
X146775000Y-116575000D01*
X146775000Y-116575000D02*
X147200000Y-117000000D01*
%TO.N,TRIG0*%
X132810000Y-115090000D02*
X132810000Y-115570000D01*
X134000000Y-113900000D02*
X132810000Y-115090000D01*
X134200000Y-113900000D02*
X134000000Y-113900000D01*
%TO.N,TRIG2*%
X130650000Y-98600000D02*
X130400000Y-98850000D01*
X131800000Y-98100000D02*
X131300000Y-98600000D01*
X131300000Y-98600000D02*
X130650000Y-98600000D01*
%TO.N,TRIG4*%
X147800000Y-96600000D02*
X147000000Y-96600000D01*
X146425000Y-96025000D02*
X146425000Y-95445000D01*
X146425000Y-95445000D02*
X146490000Y-95380000D01*
X147000000Y-96600000D02*
X146425000Y-96025000D01*
%TO.N,TRIG6*%
X148150000Y-112650000D02*
X149400000Y-111400000D01*
X148150000Y-112980000D02*
X148150000Y-112650000D01*
%TO.N,VCC*%
X125403387Y-113074159D02*
X125403387Y-114396613D01*
D37*
X139800000Y-121900000D02*
X139800000Y-122900000D01*
D36*
X125403387Y-114396613D02*
X125400000Y-114400000D01*
X125750000Y-102900000D02*
X126700000Y-102900000D01*
X125250000Y-103400000D02*
X125750000Y-102900000D01*
X148700001Y-120675000D02*
X149475000Y-120675000D01*
X151200000Y-122400000D02*
X151200000Y-122600000D01*
D37*
X139099990Y-121499990D02*
X139399990Y-121499990D01*
X139399990Y-121499990D02*
X139800000Y-121900000D01*
X139800000Y-122900000D02*
X139001042Y-123698958D01*
D36*
X142000000Y-89625000D02*
X142000000Y-90700000D01*
X155675000Y-96425000D02*
X155700000Y-96400000D01*
D37*
X139001042Y-123698958D02*
X139001042Y-125801040D01*
D36*
X132300000Y-89625000D02*
X131325000Y-89625000D01*
X149475000Y-120675000D02*
X151200000Y-122400000D01*
X155675000Y-97300000D02*
X155675000Y-96425000D01*
X155675000Y-106900000D02*
X154800000Y-106900000D01*
X131325000Y-89625000D02*
X131300000Y-89600000D01*
D37*
X138900000Y-120675000D02*
X138900000Y-121300000D01*
X138900000Y-121300000D02*
X139099990Y-121499990D01*
%TD*%
%TA.AperFunction,Conductor*%
%TO.N,GND*%
G36*
X140642012Y-121765147D02*
G01*
X140648595Y-121771276D01*
X140655095Y-121777776D01*
X140689121Y-121840088D01*
X140692000Y-121866871D01*
X140692000Y-122027885D01*
X140696475Y-122043124D01*
X140697865Y-122044329D01*
X140705548Y-122046000D01*
X140945617Y-122046000D01*
X141002918Y-122059783D01*
X141053808Y-122085769D01*
X141060916Y-122087508D01*
X141066559Y-122089607D01*
X141072322Y-122091524D01*
X141078950Y-122094622D01*
X141086112Y-122096112D01*
X141086113Y-122096112D01*
X141150412Y-122109486D01*
X141154696Y-122110456D01*
X141225610Y-122127808D01*
X141231212Y-122128156D01*
X141231215Y-122128156D01*
X141236764Y-122128500D01*
X141236762Y-122128536D01*
X141240755Y-122128775D01*
X141244947Y-122129149D01*
X141252115Y-122130640D01*
X141329520Y-122128546D01*
X141332928Y-122128500D01*
X142878629Y-122128500D01*
X142946750Y-122148502D01*
X142967724Y-122165405D01*
X143135955Y-122333636D01*
X143169981Y-122395948D01*
X143172381Y-122411748D01*
X143178913Y-122486413D01*
X143180631Y-122492325D01*
X143186497Y-122512517D01*
X143191500Y-122547670D01*
X143191501Y-123491946D01*
X143191501Y-124426860D01*
X143191500Y-124426866D01*
X143191500Y-125488151D01*
X143190763Y-125501761D01*
X143186677Y-125539368D01*
X143187214Y-125545504D01*
X143191021Y-125589033D01*
X143191500Y-125600012D01*
X143191500Y-126723134D01*
X143198255Y-126785316D01*
X143249385Y-126921705D01*
X143336739Y-127038261D01*
X143453295Y-127125615D01*
X143461704Y-127128767D01*
X143461705Y-127128768D01*
X143542293Y-127158979D01*
X143599058Y-127201620D01*
X143623758Y-127268182D01*
X143608551Y-127337531D01*
X143558265Y-127387649D01*
X143513856Y-127401967D01*
X142898289Y-127479731D01*
X142893040Y-127480283D01*
X142217392Y-127537019D01*
X141959531Y-127558672D01*
X141954273Y-127559003D01*
X141148772Y-127592763D01*
X141018335Y-127598230D01*
X141013059Y-127598341D01*
X140076263Y-127598341D01*
X140070987Y-127598230D01*
X139940550Y-127592763D01*
X139135049Y-127559003D01*
X139129791Y-127558672D01*
X138686239Y-127521426D01*
X138240747Y-127484017D01*
X138174538Y-127458385D01*
X138132698Y-127401027D01*
X138128510Y-127330154D01*
X138163304Y-127268268D01*
X138207061Y-127240477D01*
X138238295Y-127228768D01*
X138238296Y-127228767D01*
X138246705Y-127225615D01*
X138363261Y-127138261D01*
X138450615Y-127021705D01*
X138501745Y-126885316D01*
X138508500Y-126823134D01*
X138508500Y-126770246D01*
X138528502Y-126702125D01*
X138582158Y-126655632D01*
X138652432Y-126645528D01*
X138685749Y-126655140D01*
X138712715Y-126667146D01*
X138712721Y-126667148D01*
X138718754Y-126669834D01*
X138812155Y-126689687D01*
X138899098Y-126708168D01*
X138899103Y-126708168D01*
X138905555Y-126709540D01*
X139096529Y-126709540D01*
X139102981Y-126708168D01*
X139102986Y-126708168D01*
X139189929Y-126689687D01*
X139283330Y-126669834D01*
X139289361Y-126667149D01*
X139451764Y-126594843D01*
X139451766Y-126594842D01*
X139457794Y-126592158D01*
X139612295Y-126479906D01*
X139624252Y-126466626D01*
X139735663Y-126342892D01*
X139735664Y-126342891D01*
X139740082Y-126337984D01*
X139835569Y-126172596D01*
X139894584Y-125990968D01*
X139914546Y-125801040D01*
X139894584Y-125611112D01*
X139835569Y-125429484D01*
X139740082Y-125264096D01*
X139666905Y-125182825D01*
X139636189Y-125118819D01*
X139634542Y-125098516D01*
X139634542Y-124013552D01*
X139654544Y-123945431D01*
X139671447Y-123924457D01*
X140192247Y-123403657D01*
X140200537Y-123396113D01*
X140207018Y-123392000D01*
X140253659Y-123342332D01*
X140256413Y-123339491D01*
X140276134Y-123319770D01*
X140278612Y-123316575D01*
X140286318Y-123307553D01*
X140308905Y-123283500D01*
X140316586Y-123275321D01*
X140326346Y-123257568D01*
X140337199Y-123241045D01*
X140344753Y-123231306D01*
X140349613Y-123225041D01*
X140367176Y-123184457D01*
X140372383Y-123173827D01*
X140393695Y-123135060D01*
X140395666Y-123127383D01*
X140395668Y-123127378D01*
X140398732Y-123115442D01*
X140405138Y-123096730D01*
X140410033Y-123085419D01*
X140413181Y-123078145D01*
X140414421Y-123070317D01*
X140414423Y-123070310D01*
X140420099Y-123034476D01*
X140422505Y-123022856D01*
X140431528Y-122987711D01*
X140431528Y-122987710D01*
X140433500Y-122980030D01*
X140433500Y-122959776D01*
X140435051Y-122940065D01*
X140436980Y-122927886D01*
X140438220Y-122920057D01*
X140434059Y-122876038D01*
X140433500Y-122864181D01*
X140433500Y-122794669D01*
X140692001Y-122794669D01*
X140692371Y-122801490D01*
X140697895Y-122852352D01*
X140701521Y-122867604D01*
X140746676Y-122988054D01*
X140755214Y-123003649D01*
X140831715Y-123105724D01*
X140844276Y-123118285D01*
X140946351Y-123194786D01*
X140961946Y-123203324D01*
X141082394Y-123248478D01*
X141097649Y-123252105D01*
X141148514Y-123257631D01*
X141155328Y-123258000D01*
X141327885Y-123258000D01*
X141343124Y-123253525D01*
X141344329Y-123252135D01*
X141346000Y-123244452D01*
X141346000Y-123239884D01*
X141854000Y-123239884D01*
X141858475Y-123255123D01*
X141859865Y-123256328D01*
X141867548Y-123257999D01*
X142044669Y-123257999D01*
X142051490Y-123257629D01*
X142102352Y-123252105D01*
X142117604Y-123248479D01*
X142238054Y-123203324D01*
X142253649Y-123194786D01*
X142355724Y-123118285D01*
X142368285Y-123105724D01*
X142444786Y-123003649D01*
X142453324Y-122988054D01*
X142498478Y-122867606D01*
X142502105Y-122852351D01*
X142507631Y-122801486D01*
X142508000Y-122794672D01*
X142508000Y-122572115D01*
X142503525Y-122556876D01*
X142502135Y-122555671D01*
X142494452Y-122554000D01*
X141872115Y-122554000D01*
X141856876Y-122558475D01*
X141855671Y-122559865D01*
X141854000Y-122567548D01*
X141854000Y-123239884D01*
X141346000Y-123239884D01*
X141346000Y-122572115D01*
X141341525Y-122556876D01*
X141340135Y-122555671D01*
X141332452Y-122554000D01*
X140710116Y-122554000D01*
X140694877Y-122558475D01*
X140693672Y-122559865D01*
X140692001Y-122567548D01*
X140692001Y-122794669D01*
X140433500Y-122794669D01*
X140433500Y-121978768D01*
X140434027Y-121967585D01*
X140435702Y-121960092D01*
X140433562Y-121892001D01*
X140433500Y-121888044D01*
X140433500Y-121860371D01*
X140453502Y-121792250D01*
X140507158Y-121745757D01*
X140577432Y-121735653D01*
X140642012Y-121765147D01*
G37*
%TD.AperFunction*%
%TA.AperFunction,Conductor*%
G36*
X129769174Y-122010343D02*
G01*
X129817848Y-122062028D01*
X129831500Y-122119070D01*
X129831500Y-122678134D01*
X129838255Y-122740316D01*
X129889385Y-122876705D01*
X129976739Y-122993261D01*
X130093295Y-123080615D01*
X130229684Y-123131745D01*
X130291866Y-123138500D01*
X130623629Y-123138500D01*
X130691750Y-123158502D01*
X130712724Y-123175405D01*
X130840135Y-123302816D01*
X130874161Y-123365128D01*
X130869096Y-123435943D01*
X130851866Y-123467477D01*
X130845212Y-123476356D01*
X130836676Y-123491946D01*
X130791522Y-123612394D01*
X130787895Y-123627649D01*
X130782369Y-123678514D01*
X130782000Y-123685328D01*
X130782000Y-123907885D01*
X130786475Y-123923124D01*
X130787865Y-123924329D01*
X130795548Y-123926000D01*
X131517302Y-123926000D01*
X131559571Y-123933605D01*
X131563808Y-123935769D01*
X131570924Y-123937510D01*
X131576573Y-123939611D01*
X131582319Y-123941523D01*
X131588950Y-123944622D01*
X131596112Y-123946112D01*
X131596113Y-123946112D01*
X131660412Y-123959486D01*
X131664696Y-123960456D01*
X131735610Y-123977808D01*
X131741212Y-123978156D01*
X131741215Y-123978156D01*
X131746764Y-123978500D01*
X131746762Y-123978536D01*
X131750755Y-123978775D01*
X131754947Y-123979149D01*
X131762115Y-123980640D01*
X131839520Y-123978546D01*
X131842928Y-123978500D01*
X133515500Y-123978500D01*
X133583621Y-123998502D01*
X133630114Y-124052158D01*
X133641500Y-124104500D01*
X133641500Y-124163411D01*
X133621498Y-124231532D01*
X133616326Y-124238975D01*
X133549385Y-124328295D01*
X133498255Y-124464684D01*
X133491500Y-124526866D01*
X133491500Y-126289327D01*
X133471498Y-126357448D01*
X133417842Y-126403941D01*
X133347568Y-126414045D01*
X133324063Y-126408318D01*
X132880823Y-126253966D01*
X132707250Y-126193522D01*
X132702326Y-126191691D01*
X131831310Y-125846831D01*
X131826445Y-125844786D01*
X130970656Y-125463765D01*
X130965881Y-125461518D01*
X130126805Y-125044996D01*
X130122128Y-125042551D01*
X129452951Y-124674669D01*
X130782001Y-124674669D01*
X130782371Y-124681490D01*
X130787895Y-124732352D01*
X130791521Y-124747604D01*
X130836676Y-124868054D01*
X130845214Y-124883649D01*
X130921715Y-124985724D01*
X130934276Y-124998285D01*
X131036351Y-125074786D01*
X131051946Y-125083324D01*
X131172394Y-125128478D01*
X131187649Y-125132105D01*
X131238514Y-125137631D01*
X131245328Y-125138000D01*
X131417885Y-125138000D01*
X131433124Y-125133525D01*
X131434329Y-125132135D01*
X131436000Y-125124452D01*
X131436000Y-125119884D01*
X131944000Y-125119884D01*
X131948475Y-125135123D01*
X131949865Y-125136328D01*
X131957548Y-125137999D01*
X132134669Y-125137999D01*
X132141490Y-125137629D01*
X132192352Y-125132105D01*
X132207604Y-125128479D01*
X132328054Y-125083324D01*
X132343649Y-125074786D01*
X132445724Y-124998285D01*
X132458285Y-124985724D01*
X132534786Y-124883649D01*
X132543324Y-124868054D01*
X132588478Y-124747606D01*
X132592105Y-124732351D01*
X132597631Y-124681486D01*
X132598000Y-124674672D01*
X132598000Y-124452115D01*
X132593525Y-124436876D01*
X132592135Y-124435671D01*
X132584452Y-124434000D01*
X131962115Y-124434000D01*
X131946876Y-124438475D01*
X131945671Y-124439865D01*
X131944000Y-124447548D01*
X131944000Y-125119884D01*
X131436000Y-125119884D01*
X131436000Y-124452115D01*
X131431525Y-124436876D01*
X131430135Y-124435671D01*
X131422452Y-124434000D01*
X130800116Y-124434000D01*
X130784877Y-124438475D01*
X130783672Y-124439865D01*
X130782001Y-124447548D01*
X130782001Y-124674669D01*
X129452951Y-124674669D01*
X129301214Y-124591251D01*
X129296644Y-124588612D01*
X129046098Y-124436876D01*
X128495357Y-124103335D01*
X128490923Y-124100521D01*
X127710659Y-123582115D01*
X127706325Y-123579103D01*
X126989461Y-123058270D01*
X126946107Y-123002048D01*
X126940032Y-122931312D01*
X126973163Y-122868520D01*
X127034983Y-122833608D01*
X127069457Y-122830474D01*
X127127031Y-122833189D01*
X127130000Y-122833329D01*
X127531215Y-122814408D01*
X127794687Y-122776911D01*
X127925932Y-122758232D01*
X127925935Y-122758231D01*
X127928868Y-122757814D01*
X127931743Y-122757124D01*
X127931747Y-122757123D01*
X128316550Y-122664740D01*
X128316557Y-122664738D01*
X128319431Y-122664048D01*
X128699436Y-122533943D01*
X129065511Y-122368654D01*
X129068082Y-122367188D01*
X129068087Y-122367185D01*
X129238048Y-122270241D01*
X129414406Y-122169648D01*
X129633049Y-122015983D01*
X129700284Y-121993178D01*
X129769174Y-122010343D01*
G37*
%TD.AperFunction*%
%TA.AperFunction,Conductor*%
G36*
X149909282Y-122184300D02*
G01*
X149924834Y-122197515D01*
X150250281Y-122522962D01*
X150284307Y-122585274D01*
X150285897Y-122600063D01*
X150286496Y-122600000D01*
X150303127Y-122758232D01*
X150306458Y-122789928D01*
X150365473Y-122971556D01*
X150368776Y-122977278D01*
X150368777Y-122977279D01*
X150398414Y-123028611D01*
X150460960Y-123136944D01*
X150465378Y-123141851D01*
X150465379Y-123141852D01*
X150561386Y-123248479D01*
X150588747Y-123278866D01*
X150680535Y-123345554D01*
X150736511Y-123386223D01*
X150743248Y-123391118D01*
X150749276Y-123393802D01*
X150749278Y-123393803D01*
X150807999Y-123419947D01*
X150917712Y-123468794D01*
X151011113Y-123488647D01*
X151098056Y-123507128D01*
X151098061Y-123507128D01*
X151104513Y-123508500D01*
X151295487Y-123508500D01*
X151301939Y-123507128D01*
X151301944Y-123507128D01*
X151388887Y-123488647D01*
X151482288Y-123468794D01*
X151592001Y-123419947D01*
X151650722Y-123393803D01*
X151650724Y-123393802D01*
X151656752Y-123391118D01*
X151663490Y-123386223D01*
X151719465Y-123345554D01*
X151811253Y-123278866D01*
X151838614Y-123248479D01*
X151934621Y-123141852D01*
X151934622Y-123141851D01*
X151939040Y-123136944D01*
X152001586Y-123028611D01*
X152031223Y-122977279D01*
X152031224Y-122977278D01*
X152034527Y-122971556D01*
X152093542Y-122789928D01*
X152096874Y-122758232D01*
X152112814Y-122606565D01*
X152113504Y-122600000D01*
X152111768Y-122583484D01*
X152124540Y-122513647D01*
X152173041Y-122461800D01*
X152241874Y-122444405D01*
X152288929Y-122455477D01*
X152440564Y-122523943D01*
X152820569Y-122654048D01*
X152823443Y-122654738D01*
X152823450Y-122654740D01*
X153208253Y-122747123D01*
X153208257Y-122747124D01*
X153211132Y-122747814D01*
X153214065Y-122748231D01*
X153214068Y-122748232D01*
X153281396Y-122757814D01*
X153608785Y-122804408D01*
X153911822Y-122818699D01*
X153988944Y-122822336D01*
X154010000Y-122823329D01*
X154012969Y-122823189D01*
X154012973Y-122823189D01*
X154031070Y-122822336D01*
X154100056Y-122839108D01*
X154149024Y-122890515D01*
X154162425Y-122960236D01*
X154136006Y-123026133D01*
X154111066Y-123050129D01*
X153616435Y-123409500D01*
X153382997Y-123579103D01*
X153378663Y-123582115D01*
X152598399Y-124100521D01*
X152593965Y-124103335D01*
X152043224Y-124436876D01*
X151792678Y-124588612D01*
X151788108Y-124591251D01*
X150967194Y-125042551D01*
X150962517Y-125044996D01*
X150123441Y-125461518D01*
X150118666Y-125463765D01*
X149262877Y-125844786D01*
X149258012Y-125846831D01*
X148386996Y-126191691D01*
X148382093Y-126193514D01*
X148375931Y-126195660D01*
X148305023Y-126199171D01*
X148243472Y-126163787D01*
X148210822Y-126100744D01*
X148208500Y-126076667D01*
X148208500Y-124426866D01*
X148201745Y-124364684D01*
X148150615Y-124228295D01*
X148063261Y-124111739D01*
X147946705Y-124024385D01*
X147810316Y-123973255D01*
X147748134Y-123966500D01*
X146834500Y-123966500D01*
X146766379Y-123946498D01*
X146719886Y-123892842D01*
X146708500Y-123840500D01*
X146708500Y-123409500D01*
X146728502Y-123341379D01*
X146782158Y-123294886D01*
X146834500Y-123283500D01*
X146916607Y-123283500D01*
X146954706Y-123289398D01*
X147039306Y-123316235D01*
X147044597Y-123316828D01*
X147049698Y-123318388D01*
X147142311Y-123327795D01*
X147143431Y-123327915D01*
X147193227Y-123333500D01*
X147196756Y-123333500D01*
X147197739Y-123333555D01*
X147203426Y-123334003D01*
X147223683Y-123336060D01*
X147240336Y-123337752D01*
X147240339Y-123337752D01*
X147246463Y-123338374D01*
X147292112Y-123334059D01*
X147303969Y-123333500D01*
X148749770Y-123333500D01*
X148752826Y-123333200D01*
X148752833Y-123333200D01*
X148811341Y-123327463D01*
X148896834Y-123319080D01*
X148902735Y-123317298D01*
X148902737Y-123317298D01*
X148995145Y-123289398D01*
X149086170Y-123261916D01*
X149143740Y-123231306D01*
X149209794Y-123196185D01*
X149231264Y-123187204D01*
X149268700Y-123175472D01*
X149415382Y-123086639D01*
X149536640Y-122965381D01*
X149625473Y-122818699D01*
X149629569Y-122805631D01*
X149668459Y-122681531D01*
X149676754Y-122655062D01*
X149683501Y-122581635D01*
X149683501Y-122577485D01*
X149683583Y-122576940D01*
X149683633Y-122575860D01*
X149683746Y-122575865D01*
X149689134Y-122540233D01*
X149692683Y-122528768D01*
X149709383Y-122369875D01*
X149712712Y-122338204D01*
X149712712Y-122338202D01*
X149713356Y-122332075D01*
X149710257Y-122298026D01*
X149724004Y-122228375D01*
X149773225Y-122177211D01*
X149842295Y-122160781D01*
X149909282Y-122184300D01*
G37*
%TD.AperFunction*%
%TA.AperFunction,Conductor*%
G36*
X128949509Y-108340162D02*
G01*
X128996002Y-108393818D01*
X129007388Y-108446160D01*
X129007388Y-109539044D01*
X129011863Y-109554283D01*
X129013253Y-109555488D01*
X129017682Y-109556451D01*
X129078972Y-109550820D01*
X129148637Y-109564506D01*
X129199844Y-109613683D01*
X129216500Y-109676292D01*
X129216500Y-109923732D01*
X129227113Y-110026019D01*
X129281244Y-110188268D01*
X129285096Y-110194492D01*
X129285096Y-110194493D01*
X129338711Y-110281133D01*
X129371248Y-110333713D01*
X129376430Y-110338886D01*
X129380975Y-110344620D01*
X129379055Y-110346142D01*
X129407545Y-110398206D01*
X129402544Y-110469026D01*
X129379118Y-110505552D01*
X129380157Y-110506372D01*
X129375619Y-110512118D01*
X129370448Y-110517298D01*
X129366608Y-110523528D01*
X129366607Y-110523529D01*
X129314651Y-110607818D01*
X129280698Y-110662899D01*
X129226851Y-110825243D01*
X129216500Y-110926268D01*
X129216500Y-111473732D01*
X129227113Y-111576019D01*
X129281244Y-111738268D01*
X129285096Y-111744492D01*
X129285096Y-111744493D01*
X129323124Y-111805945D01*
X129371248Y-111883713D01*
X129492298Y-112004552D01*
X129498528Y-112008392D01*
X129498529Y-112008393D01*
X129630766Y-112089905D01*
X129637899Y-112094302D01*
X129800243Y-112148149D01*
X129807080Y-112148849D01*
X129807082Y-112148850D01*
X129848401Y-112153083D01*
X129901268Y-112158500D01*
X130498732Y-112158500D01*
X130501978Y-112158163D01*
X130501982Y-112158163D01*
X130536083Y-112154625D01*
X130601019Y-112147887D01*
X130754726Y-112096606D01*
X130756324Y-112096073D01*
X130756326Y-112096072D01*
X130763268Y-112093756D01*
X130796419Y-112073241D01*
X130899454Y-112009482D01*
X130967906Y-111990645D01*
X131035675Y-112011807D01*
X131054851Y-112027532D01*
X132418942Y-113391623D01*
X132452968Y-113453935D01*
X132455157Y-113467548D01*
X132456458Y-113479928D01*
X132515473Y-113661556D01*
X132610960Y-113826944D01*
X132615378Y-113831851D01*
X132615379Y-113831852D01*
X132715456Y-113942999D01*
X132746174Y-114007006D01*
X132737409Y-114077460D01*
X132710915Y-114116404D01*
X132321089Y-114506230D01*
X132306677Y-114518616D01*
X132295082Y-114527149D01*
X132295077Y-114527154D01*
X132289182Y-114531492D01*
X132284443Y-114537070D01*
X132284440Y-114537073D01*
X132254965Y-114571768D01*
X132248035Y-114579284D01*
X132242340Y-114584979D01*
X132240060Y-114587861D01*
X132224719Y-114607251D01*
X132221928Y-114610655D01*
X132189677Y-114648617D01*
X132174667Y-114666285D01*
X132171339Y-114672803D01*
X132167975Y-114677846D01*
X132164806Y-114682977D01*
X132160266Y-114688716D01*
X132157166Y-114695349D01*
X132153042Y-114704171D01*
X132124863Y-114739826D01*
X132126287Y-114741248D01*
X132005448Y-114862298D01*
X132001608Y-114868528D01*
X132001607Y-114868529D01*
X131949392Y-114953238D01*
X131915698Y-115007899D01*
X131861851Y-115170243D01*
X131861151Y-115177080D01*
X131861150Y-115177082D01*
X131858678Y-115201213D01*
X131851500Y-115271268D01*
X131851500Y-115868732D01*
X131862113Y-115971019D01*
X131864295Y-115977559D01*
X131912372Y-116121661D01*
X131916244Y-116133268D01*
X131920096Y-116139492D01*
X131920096Y-116139493D01*
X131986957Y-116247539D01*
X132006248Y-116278713D01*
X132011430Y-116283886D01*
X132026037Y-116298468D01*
X132127298Y-116399552D01*
X132272899Y-116489302D01*
X132279847Y-116491607D01*
X132279848Y-116491607D01*
X132325168Y-116506639D01*
X132383527Y-116547070D01*
X132410764Y-116612634D01*
X132411500Y-116626232D01*
X132411500Y-117558134D01*
X132418255Y-117620316D01*
X132469385Y-117756705D01*
X132535016Y-117844276D01*
X132536326Y-117846024D01*
X132561174Y-117912530D01*
X132561500Y-117921589D01*
X132561500Y-119188000D01*
X132541498Y-119256121D01*
X132487842Y-119302614D01*
X132435500Y-119314000D01*
X132242000Y-119314000D01*
X132173879Y-119293998D01*
X132127386Y-119240342D01*
X132116000Y-119188000D01*
X132116000Y-118120116D01*
X132111525Y-118104877D01*
X132110135Y-118103672D01*
X132102452Y-118102001D01*
X131925331Y-118102001D01*
X131918510Y-118102371D01*
X131867648Y-118107895D01*
X131852396Y-118111521D01*
X131731946Y-118156676D01*
X131716351Y-118165214D01*
X131614276Y-118241715D01*
X131595365Y-118260626D01*
X131594409Y-118259670D01*
X131544966Y-118296634D01*
X131474147Y-118301655D01*
X131411857Y-118267590D01*
X131377871Y-118205257D01*
X131375148Y-118184483D01*
X131374548Y-118171756D01*
X131374408Y-118168785D01*
X131329255Y-117851520D01*
X131318232Y-117774068D01*
X131318231Y-117774065D01*
X131317814Y-117771132D01*
X131314722Y-117758253D01*
X131224740Y-117383450D01*
X131224738Y-117383443D01*
X131224048Y-117380569D01*
X131093943Y-117000564D01*
X130928654Y-116634489D01*
X130923945Y-116626232D01*
X130780035Y-116373932D01*
X130729648Y-116285594D01*
X130498691Y-115956976D01*
X130486978Y-115943261D01*
X130239758Y-115653804D01*
X130237833Y-115651550D01*
X130145983Y-115562541D01*
X129951529Y-115374102D01*
X129951520Y-115374094D01*
X129949390Y-115372030D01*
X129925324Y-115352749D01*
X129811424Y-115261498D01*
X129635922Y-115120894D01*
X129591530Y-115091734D01*
X129302695Y-114902005D01*
X129302685Y-114901999D01*
X129300211Y-114900374D01*
X128945237Y-114712425D01*
X128574151Y-114558716D01*
X128571328Y-114557848D01*
X128571321Y-114557845D01*
X128518850Y-114541703D01*
X128490682Y-114533038D01*
X128431455Y-114493890D01*
X128402794Y-114428936D01*
X128402469Y-114398999D01*
X128407631Y-114351483D01*
X128408000Y-114344672D01*
X128408000Y-114122115D01*
X128403525Y-114106876D01*
X128402135Y-114105671D01*
X128394452Y-114104000D01*
X127172000Y-114104000D01*
X127103879Y-114083998D01*
X127057386Y-114030342D01*
X127046000Y-113978000D01*
X127046000Y-113577885D01*
X127554000Y-113577885D01*
X127558475Y-113593124D01*
X127559865Y-113594329D01*
X127567548Y-113596000D01*
X128389884Y-113596000D01*
X128405123Y-113591525D01*
X128406328Y-113590135D01*
X128407999Y-113582452D01*
X128407999Y-113355331D01*
X128407629Y-113348510D01*
X128402105Y-113297648D01*
X128398479Y-113282396D01*
X128353324Y-113161946D01*
X128344786Y-113146351D01*
X128268285Y-113044276D01*
X128255724Y-113031715D01*
X128153649Y-112955214D01*
X128138054Y-112946676D01*
X128017606Y-112901522D01*
X128002351Y-112897895D01*
X127951486Y-112892369D01*
X127944672Y-112892000D01*
X127572115Y-112892000D01*
X127556876Y-112896475D01*
X127555671Y-112897865D01*
X127554000Y-112905548D01*
X127554000Y-113577885D01*
X127046000Y-113577885D01*
X127046000Y-112910116D01*
X127041525Y-112894877D01*
X127040135Y-112893672D01*
X127032452Y-112892001D01*
X126655331Y-112892001D01*
X126648510Y-112892371D01*
X126597648Y-112897895D01*
X126582397Y-112901521D01*
X126482116Y-112939115D01*
X126411309Y-112944298D01*
X126348940Y-112910378D01*
X126314811Y-112848122D01*
X126311886Y-112821133D01*
X126311886Y-112742525D01*
X126311237Y-112735456D01*
X126309834Y-112720184D01*
X126323521Y-112650520D01*
X126372699Y-112599314D01*
X126435306Y-112582659D01*
X126863998Y-112582659D01*
X126877605Y-112583396D01*
X126909103Y-112586818D01*
X126909108Y-112586818D01*
X126915229Y-112587483D01*
X126941479Y-112585186D01*
X126965229Y-112583109D01*
X126970055Y-112582780D01*
X126972527Y-112582659D01*
X126975610Y-112582659D01*
X126987579Y-112581485D01*
X127018347Y-112578469D01*
X127019660Y-112578347D01*
X127063925Y-112574474D01*
X127112254Y-112570246D01*
X127117373Y-112568759D01*
X127122674Y-112568239D01*
X127211675Y-112541368D01*
X127212808Y-112541033D01*
X127296255Y-112516789D01*
X127296259Y-112516787D01*
X127302177Y-112515068D01*
X127306909Y-112512615D01*
X127312010Y-112511075D01*
X127317453Y-112508181D01*
X127394101Y-112467428D01*
X127395267Y-112466816D01*
X127472294Y-112426888D01*
X127477767Y-112424051D01*
X127481930Y-112420728D01*
X127486637Y-112418225D01*
X127558759Y-112359404D01*
X127559615Y-112358713D01*
X127598814Y-112327421D01*
X127601318Y-112324917D01*
X127602036Y-112324275D01*
X127606369Y-112320574D01*
X127639903Y-112293224D01*
X127669129Y-112257896D01*
X127677118Y-112249117D01*
X127969387Y-111956848D01*
X127979517Y-111947758D01*
X128009025Y-111924032D01*
X128041292Y-111885578D01*
X128044472Y-111881931D01*
X128046115Y-111880119D01*
X128048309Y-111877925D01*
X128075642Y-111844651D01*
X128076348Y-111843800D01*
X128113295Y-111799769D01*
X128136154Y-111772526D01*
X128138722Y-111767856D01*
X128142103Y-111763739D01*
X128186015Y-111681842D01*
X128186624Y-111680720D01*
X128191319Y-111672181D01*
X128204850Y-111647568D01*
X128228466Y-111604611D01*
X128228468Y-111604606D01*
X128231433Y-111599213D01*
X128233044Y-111594135D01*
X128235563Y-111589437D01*
X128262753Y-111500502D01*
X128263136Y-111499272D01*
X128289371Y-111416570D01*
X128291235Y-111410694D01*
X128291828Y-111405403D01*
X128293388Y-111400302D01*
X128298926Y-111345778D01*
X128323455Y-111282944D01*
X128345235Y-111253884D01*
X128345236Y-111253882D01*
X128350615Y-111246705D01*
X128401745Y-111110316D01*
X128408500Y-111048134D01*
X128408500Y-110051866D01*
X128401745Y-109989684D01*
X128350615Y-109853295D01*
X128333673Y-109830689D01*
X128308826Y-109764185D01*
X128308500Y-109755126D01*
X128308500Y-109677966D01*
X128328502Y-109609845D01*
X128382158Y-109563352D01*
X128446029Y-109552495D01*
X128484973Y-109556073D01*
X128496512Y-109552685D01*
X128497717Y-109551295D01*
X128499388Y-109543612D01*
X128499388Y-108446160D01*
X128519390Y-108378039D01*
X128573046Y-108331546D01*
X128625388Y-108320160D01*
X128881388Y-108320160D01*
X128949509Y-108340162D01*
G37*
%TD.AperFunction*%
%TA.AperFunction,Conductor*%
G36*
X141089469Y-115630977D02*
G01*
X141137122Y-115683606D01*
X141148756Y-115753643D01*
X141120679Y-115818852D01*
X141067906Y-115856418D01*
X140961705Y-115896231D01*
X140961704Y-115896232D01*
X140953295Y-115899384D01*
X140836739Y-115986738D01*
X140749385Y-116103294D01*
X140698255Y-116239683D01*
X140691500Y-116301865D01*
X140691500Y-117298133D01*
X140698255Y-117360315D01*
X140749385Y-117496704D01*
X140797970Y-117561531D01*
X140816326Y-117586023D01*
X140841174Y-117652529D01*
X140841500Y-117661588D01*
X140841500Y-118927999D01*
X140821498Y-118996120D01*
X140767842Y-119042613D01*
X140715500Y-119053999D01*
X139931115Y-119053999D01*
X139880380Y-119068896D01*
X139844882Y-119074000D01*
X138837000Y-119074000D01*
X138768879Y-119053998D01*
X138722386Y-119000342D01*
X138711000Y-118948000D01*
X138711000Y-118547885D01*
X139219000Y-118547885D01*
X139223475Y-118563124D01*
X139224865Y-118564329D01*
X139232548Y-118566000D01*
X139683885Y-118566000D01*
X139734620Y-118551103D01*
X139770118Y-118545999D01*
X140377885Y-118545999D01*
X140393124Y-118541524D01*
X140394329Y-118540134D01*
X140396000Y-118532451D01*
X140396000Y-117860115D01*
X140391525Y-117844876D01*
X140390135Y-117843671D01*
X140382452Y-117842000D01*
X140205331Y-117842000D01*
X140198510Y-117842370D01*
X140147648Y-117847894D01*
X140132396Y-117851520D01*
X140011946Y-117896675D01*
X139996351Y-117905213D01*
X139894276Y-117981714D01*
X139881716Y-117994274D01*
X139854866Y-118030101D01*
X139798008Y-118072616D01*
X139727189Y-118077643D01*
X139664944Y-118043632D01*
X139610443Y-117989131D01*
X139598574Y-117979824D01*
X139464988Y-117898921D01*
X139451243Y-117892715D01*
X139301356Y-117845744D01*
X139288306Y-117843131D01*
X139233414Y-117838087D01*
X139221876Y-117841475D01*
X139220671Y-117842865D01*
X139219000Y-117850548D01*
X139219000Y-118547885D01*
X138711000Y-118547885D01*
X138711000Y-117855116D01*
X138706525Y-117839877D01*
X138705135Y-117838672D01*
X138700706Y-117837709D01*
X138641685Y-117843132D01*
X138628649Y-117845743D01*
X138487179Y-117890076D01*
X138416194Y-117891360D01*
X138355783Y-117854063D01*
X138325127Y-117790026D01*
X138323500Y-117769842D01*
X138323500Y-117584468D01*
X138343502Y-117516347D01*
X138397158Y-117469854D01*
X138467432Y-117459750D01*
X138493730Y-117466486D01*
X138552394Y-117488478D01*
X138567649Y-117492105D01*
X138618514Y-117497631D01*
X138625328Y-117498000D01*
X138847885Y-117498000D01*
X138863124Y-117493525D01*
X138864329Y-117492135D01*
X138866000Y-117484452D01*
X138866000Y-117479884D01*
X139374000Y-117479884D01*
X139378475Y-117495123D01*
X139379865Y-117496328D01*
X139387548Y-117497999D01*
X139614669Y-117497999D01*
X139621490Y-117497629D01*
X139672352Y-117492105D01*
X139687604Y-117488479D01*
X139808054Y-117443324D01*
X139823649Y-117434786D01*
X139925724Y-117358285D01*
X139938285Y-117345724D01*
X140014786Y-117243649D01*
X140023324Y-117228054D01*
X140068478Y-117107606D01*
X140072105Y-117092351D01*
X140077631Y-117041486D01*
X140078000Y-117034672D01*
X140078000Y-116662115D01*
X140073525Y-116646876D01*
X140072135Y-116645671D01*
X140064452Y-116644000D01*
X139392115Y-116644000D01*
X139376876Y-116648475D01*
X139375671Y-116649865D01*
X139374000Y-116657548D01*
X139374000Y-117479884D01*
X138866000Y-117479884D01*
X138866000Y-116262000D01*
X138886002Y-116193879D01*
X138939658Y-116147386D01*
X138992000Y-116136000D01*
X140059884Y-116136000D01*
X140075123Y-116131525D01*
X140076328Y-116130135D01*
X140077999Y-116122452D01*
X140077999Y-115741912D01*
X140079582Y-115741912D01*
X140094420Y-115678908D01*
X140145474Y-115629572D01*
X140208906Y-115615273D01*
X140451003Y-115624785D01*
X140451007Y-115624785D01*
X140452915Y-115624860D01*
X140892282Y-115615273D01*
X141020928Y-115612466D01*
X141089469Y-115630977D01*
G37*
%TD.AperFunction*%
%TA.AperFunction,Conductor*%
G36*
X147257331Y-113292775D02*
G01*
X147310035Y-113340344D01*
X147314718Y-113349232D01*
X147315473Y-113351556D01*
X147410960Y-113516944D01*
X147415378Y-113521851D01*
X147415379Y-113521852D01*
X147471294Y-113583952D01*
X147538747Y-113658866D01*
X147693248Y-113771118D01*
X147699276Y-113773802D01*
X147699278Y-113773803D01*
X147829659Y-113831852D01*
X147867712Y-113848794D01*
X147961112Y-113868647D01*
X148048056Y-113887128D01*
X148048061Y-113887128D01*
X148054513Y-113888500D01*
X148245487Y-113888500D01*
X148251939Y-113887128D01*
X148251944Y-113887128D01*
X148338888Y-113868647D01*
X148432288Y-113848794D01*
X148470341Y-113831852D01*
X148600722Y-113773803D01*
X148600724Y-113773802D01*
X148606752Y-113771118D01*
X148756827Y-113662082D01*
X148823693Y-113638224D01*
X148892845Y-113654304D01*
X148938031Y-113697715D01*
X148991248Y-113783713D01*
X148996430Y-113788886D01*
X149034554Y-113826944D01*
X149112298Y-113904552D01*
X149118528Y-113908392D01*
X149118529Y-113908393D01*
X149241540Y-113984218D01*
X149257899Y-113994302D01*
X149420243Y-114048149D01*
X149427080Y-114048849D01*
X149427082Y-114048850D01*
X149468401Y-114053083D01*
X149521268Y-114058500D01*
X150118732Y-114058500D01*
X150121978Y-114058163D01*
X150121982Y-114058163D01*
X150156083Y-114054625D01*
X150221019Y-114047887D01*
X150291184Y-114024478D01*
X150376324Y-113996073D01*
X150376326Y-113996072D01*
X150383268Y-113993756D01*
X150394949Y-113986528D01*
X150522485Y-113907606D01*
X150528713Y-113903752D01*
X150649552Y-113782702D01*
X150653552Y-113776213D01*
X150735462Y-113643331D01*
X150735463Y-113643329D01*
X150739302Y-113637101D01*
X150746643Y-113614969D01*
X150777141Y-113565540D01*
X150929457Y-113413224D01*
X150991769Y-113379198D01*
X151062584Y-113384263D01*
X151119377Y-113426753D01*
X151146739Y-113463261D01*
X151263295Y-113550615D01*
X151399684Y-113601745D01*
X151461866Y-113608500D01*
X152458134Y-113608500D01*
X152520316Y-113601745D01*
X152656705Y-113550615D01*
X152746024Y-113483674D01*
X152812530Y-113458826D01*
X152821589Y-113458500D01*
X154990074Y-113458500D01*
X155058195Y-113478502D01*
X155079169Y-113495404D01*
X155533149Y-113949383D01*
X155542251Y-113959527D01*
X155565968Y-113989025D01*
X155604456Y-114021320D01*
X155608075Y-114024478D01*
X155609890Y-114026124D01*
X155612075Y-114028309D01*
X155614455Y-114030264D01*
X155614465Y-114030273D01*
X155645236Y-114055549D01*
X155646251Y-114056391D01*
X155659906Y-114067849D01*
X155717474Y-114116154D01*
X155722148Y-114118723D01*
X155726261Y-114122102D01*
X155731698Y-114125017D01*
X155731699Y-114125018D01*
X155764713Y-114142720D01*
X155794981Y-114158949D01*
X155808047Y-114165955D01*
X155809177Y-114166568D01*
X155890787Y-114211433D01*
X155895869Y-114213045D01*
X155900563Y-114215562D01*
X155989531Y-114242762D01*
X155990559Y-114243082D01*
X156079306Y-114271235D01*
X156084602Y-114271829D01*
X156089698Y-114273387D01*
X156182257Y-114282790D01*
X156183393Y-114282911D01*
X156217008Y-114286681D01*
X156229730Y-114288108D01*
X156229734Y-114288108D01*
X156233227Y-114288500D01*
X156236754Y-114288500D01*
X156237739Y-114288555D01*
X156243419Y-114289002D01*
X156272825Y-114291989D01*
X156280337Y-114292752D01*
X156280339Y-114292752D01*
X156286462Y-114293374D01*
X156332108Y-114289059D01*
X156343967Y-114288500D01*
X157240958Y-114288500D01*
X157309079Y-114308502D01*
X157355572Y-114362158D01*
X157365676Y-114432432D01*
X157341784Y-114490065D01*
X157324615Y-114512974D01*
X157309385Y-114533295D01*
X157258255Y-114669684D01*
X157251500Y-114731866D01*
X157251500Y-115473523D01*
X157231498Y-115541644D01*
X157177842Y-115588137D01*
X157107568Y-115598241D01*
X157037815Y-115564007D01*
X156831529Y-115364102D01*
X156831520Y-115364094D01*
X156829390Y-115362030D01*
X156817806Y-115352749D01*
X156712109Y-115268070D01*
X156515922Y-115110894D01*
X156407370Y-115039589D01*
X156182695Y-114892005D01*
X156182685Y-114891999D01*
X156180211Y-114890374D01*
X155825237Y-114702425D01*
X155454151Y-114548716D01*
X155310585Y-114504549D01*
X155073085Y-114431484D01*
X155073083Y-114431484D01*
X155070247Y-114430611D01*
X155067344Y-114430010D01*
X155067337Y-114430008D01*
X154972719Y-114410414D01*
X154910070Y-114377014D01*
X154875423Y-114315045D01*
X154880288Y-114242802D01*
X154908478Y-114167605D01*
X154912105Y-114152351D01*
X154917631Y-114101486D01*
X154918000Y-114094672D01*
X154918000Y-113922115D01*
X154913525Y-113906876D01*
X154912135Y-113905671D01*
X154904452Y-113904000D01*
X153020116Y-113904000D01*
X153004877Y-113908475D01*
X153003672Y-113909865D01*
X153002001Y-113917548D01*
X153002001Y-114094669D01*
X153002371Y-114101490D01*
X153007895Y-114152352D01*
X153011522Y-114167606D01*
X153048204Y-114265457D01*
X153053387Y-114336264D01*
X153019466Y-114398633D01*
X152963470Y-114431220D01*
X152695423Y-114504549D01*
X152695413Y-114504552D01*
X152692559Y-114505333D01*
X152689795Y-114506377D01*
X152689784Y-114506381D01*
X152333556Y-114640989D01*
X152316828Y-114647310D01*
X152314161Y-114648617D01*
X152314160Y-114648617D01*
X151989748Y-114807545D01*
X151956126Y-114824016D01*
X151953591Y-114825569D01*
X151953590Y-114825570D01*
X151842402Y-114893706D01*
X151613654Y-115033883D01*
X151292452Y-115275049D01*
X150995371Y-115545371D01*
X150725049Y-115842452D01*
X150483883Y-116163654D01*
X150274016Y-116506126D01*
X150272704Y-116508805D01*
X150272703Y-116508806D01*
X150176409Y-116705367D01*
X150097310Y-116866828D01*
X150096263Y-116869598D01*
X150096262Y-116869601D01*
X149956381Y-117239784D01*
X149956377Y-117239795D01*
X149955333Y-117242559D01*
X149954552Y-117245413D01*
X149954549Y-117245423D01*
X149865165Y-117572158D01*
X149849346Y-117629984D01*
X149848837Y-117632901D01*
X149848396Y-117634873D01*
X149814013Y-117696988D01*
X149751505Y-117730654D01*
X149681202Y-117725363D01*
X149617606Y-117701522D01*
X149602351Y-117697895D01*
X149551486Y-117692369D01*
X149544672Y-117692000D01*
X149322115Y-117692000D01*
X149306876Y-117696475D01*
X149305671Y-117697865D01*
X149304000Y-117705548D01*
X149304000Y-118928000D01*
X149283998Y-118996121D01*
X149230342Y-119042614D01*
X149178000Y-119054000D01*
X148922000Y-119054000D01*
X148853879Y-119033998D01*
X148807386Y-118980342D01*
X148796000Y-118928000D01*
X148796000Y-117710116D01*
X148791525Y-117694877D01*
X148790135Y-117693672D01*
X148782452Y-117692001D01*
X148555331Y-117692001D01*
X148548510Y-117692371D01*
X148497648Y-117697895D01*
X148482396Y-117701521D01*
X148361946Y-117746676D01*
X148346351Y-117755214D01*
X148244276Y-117831715D01*
X148231715Y-117844276D01*
X148155214Y-117946351D01*
X148146676Y-117961946D01*
X148101522Y-118082394D01*
X148097895Y-118097649D01*
X148092369Y-118148514D01*
X148092000Y-118155328D01*
X148092000Y-118361238D01*
X148071998Y-118429359D01*
X148018342Y-118475852D01*
X147948068Y-118485956D01*
X147885679Y-118458318D01*
X147883721Y-118456698D01*
X147874947Y-118448713D01*
X147606855Y-118180621D01*
X147597753Y-118170478D01*
X147577897Y-118145782D01*
X147574032Y-118140975D01*
X147535578Y-118108708D01*
X147531931Y-118105528D01*
X147530119Y-118103885D01*
X147527925Y-118101691D01*
X147494647Y-118074356D01*
X147493872Y-118073712D01*
X147484771Y-118066075D01*
X147445445Y-118006968D01*
X147444317Y-117935980D01*
X147481748Y-117875652D01*
X147514513Y-117854447D01*
X147650722Y-117793803D01*
X147650724Y-117793802D01*
X147656752Y-117791118D01*
X147811253Y-117678866D01*
X147843620Y-117642919D01*
X147934621Y-117541852D01*
X147934622Y-117541851D01*
X147939040Y-117536944D01*
X148027660Y-117383450D01*
X148031223Y-117377279D01*
X148031224Y-117377278D01*
X148034527Y-117371556D01*
X148093542Y-117189928D01*
X148100839Y-117120506D01*
X148112814Y-117006565D01*
X148113504Y-117000000D01*
X148104731Y-116916525D01*
X148094232Y-116816635D01*
X148094232Y-116816633D01*
X148093542Y-116810072D01*
X148034527Y-116628444D01*
X148024675Y-116611379D01*
X147986863Y-116545888D01*
X147939040Y-116463056D01*
X147858793Y-116373932D01*
X147815675Y-116326045D01*
X147815674Y-116326044D01*
X147811253Y-116321134D01*
X147728899Y-116261300D01*
X147685545Y-116205077D01*
X147679470Y-116134341D01*
X147683367Y-116119697D01*
X147720984Y-116006285D01*
X147720984Y-116006283D01*
X147723149Y-115999757D01*
X147725424Y-115977559D01*
X147733172Y-115901930D01*
X147733500Y-115898732D01*
X147733500Y-115301268D01*
X147732717Y-115293715D01*
X147723598Y-115205837D01*
X147722887Y-115198981D01*
X147693163Y-115109889D01*
X147671073Y-115043676D01*
X147671072Y-115043674D01*
X147668756Y-115036732D01*
X147636570Y-114984719D01*
X147582606Y-114897515D01*
X147578752Y-114891287D01*
X147457702Y-114770448D01*
X147451471Y-114766607D01*
X147318331Y-114684538D01*
X147318329Y-114684537D01*
X147312101Y-114680698D01*
X147149757Y-114626851D01*
X147142920Y-114626151D01*
X147142918Y-114626150D01*
X147101599Y-114621917D01*
X147048732Y-114616500D01*
X146501268Y-114616500D01*
X146498022Y-114616837D01*
X146498018Y-114616837D01*
X146463917Y-114620375D01*
X146398981Y-114627113D01*
X146392440Y-114629295D01*
X146392441Y-114629295D01*
X146243676Y-114678927D01*
X146243674Y-114678928D01*
X146236732Y-114681244D01*
X146230508Y-114685096D01*
X146230507Y-114685096D01*
X146098787Y-114766607D01*
X146091287Y-114771248D01*
X146086114Y-114776430D01*
X146080380Y-114780975D01*
X146078858Y-114779055D01*
X146026794Y-114807545D01*
X145955974Y-114802544D01*
X145919448Y-114779118D01*
X145918628Y-114780157D01*
X145912882Y-114775619D01*
X145907702Y-114770448D01*
X145901471Y-114766607D01*
X145768331Y-114684538D01*
X145768329Y-114684537D01*
X145762101Y-114680698D01*
X145599757Y-114626851D01*
X145592919Y-114626150D01*
X145592917Y-114626150D01*
X145540547Y-114620784D01*
X145474819Y-114593942D01*
X145434038Y-114535827D01*
X145431150Y-114464889D01*
X145467072Y-114403651D01*
X145491824Y-114385505D01*
X145533513Y-114362158D01*
X145959506Y-114123591D01*
X146499564Y-113776213D01*
X147017409Y-113396514D01*
X147122114Y-113309431D01*
X147187276Y-113281252D01*
X147257331Y-113292775D01*
G37*
%TD.AperFunction*%
%TA.AperFunction,Conductor*%
G36*
X122737008Y-111093956D02*
G01*
X122783501Y-111147612D01*
X122794887Y-111199954D01*
X122794887Y-111290767D01*
X122788989Y-111328866D01*
X122762152Y-111413465D01*
X122761558Y-111418761D01*
X122760000Y-111423857D01*
X122754604Y-111476982D01*
X122750605Y-111516346D01*
X122750476Y-111517552D01*
X122744887Y-111567386D01*
X122744887Y-111570913D01*
X122744832Y-111571898D01*
X122744385Y-111577578D01*
X122740013Y-111620621D01*
X122744010Y-111662900D01*
X122744328Y-111666268D01*
X122744887Y-111678126D01*
X122744887Y-113123928D01*
X122745187Y-113126984D01*
X122745187Y-113126991D01*
X122748615Y-113161946D01*
X122759307Y-113270992D01*
X122761089Y-113276893D01*
X122761089Y-113276895D01*
X122762750Y-113282396D01*
X122816471Y-113460328D01*
X122819363Y-113465767D01*
X122882202Y-113583952D01*
X122891183Y-113605422D01*
X122902915Y-113642858D01*
X122991748Y-113789540D01*
X123113006Y-113910798D01*
X123259688Y-113999631D01*
X123266935Y-114001902D01*
X123266937Y-114001903D01*
X123322257Y-114019239D01*
X123423325Y-114050912D01*
X123496752Y-114057659D01*
X123500902Y-114057659D01*
X123501447Y-114057741D01*
X123502527Y-114057791D01*
X123502522Y-114057904D01*
X123538154Y-114063292D01*
X123549619Y-114066841D01*
X123599475Y-114072081D01*
X123740183Y-114086870D01*
X123740185Y-114086870D01*
X123746312Y-114087514D01*
X123911288Y-114072500D01*
X123937133Y-114070148D01*
X123943275Y-114069589D01*
X123949186Y-114067849D01*
X123949188Y-114067849D01*
X123966397Y-114062784D01*
X124001971Y-114057658D01*
X124010021Y-114057658D01*
X124012879Y-114057395D01*
X124012888Y-114057395D01*
X124048391Y-114054133D01*
X124083449Y-114050912D01*
X124099174Y-114045984D01*
X124239837Y-114001903D01*
X124239839Y-114001902D01*
X124247086Y-113999631D01*
X124365329Y-113928021D01*
X124433959Y-113909842D01*
X124501522Y-113931653D01*
X124546568Y-113986528D01*
X124554795Y-114057047D01*
X124550435Y-114074726D01*
X124506458Y-114210072D01*
X124505768Y-114216633D01*
X124505768Y-114216635D01*
X124500002Y-114271500D01*
X124486496Y-114400000D01*
X124487186Y-114406565D01*
X124503297Y-114559849D01*
X124506458Y-114589928D01*
X124565473Y-114771556D01*
X124568776Y-114777278D01*
X124568777Y-114777279D01*
X124583364Y-114802544D01*
X124660960Y-114936944D01*
X124664668Y-114941062D01*
X124688394Y-115007557D01*
X124672315Y-115076709D01*
X124638253Y-115115512D01*
X124574052Y-115163716D01*
X124412452Y-115285049D01*
X124115371Y-115555371D01*
X123845049Y-115852452D01*
X123603883Y-116173654D01*
X123394016Y-116516126D01*
X123392704Y-116518805D01*
X123392703Y-116518806D01*
X123336031Y-116634489D01*
X123217310Y-116876828D01*
X123216263Y-116879598D01*
X123216262Y-116879601D01*
X123076381Y-117249784D01*
X123076377Y-117249795D01*
X123075333Y-117252559D01*
X123074552Y-117255413D01*
X123074549Y-117255423D01*
X122970133Y-117637105D01*
X122970130Y-117637117D01*
X122969346Y-117639984D01*
X122900289Y-118035663D01*
X122900057Y-118038611D01*
X122874666Y-118361238D01*
X122868775Y-118436086D01*
X122870075Y-118518831D01*
X122872059Y-118645146D01*
X122853130Y-118713572D01*
X122800211Y-118760902D01*
X122730104Y-118772109D01*
X122665068Y-118743634D01*
X122645712Y-118723304D01*
X122588610Y-118648074D01*
X122350255Y-118334052D01*
X122347154Y-118329785D01*
X122327603Y-118301655D01*
X121812502Y-117560521D01*
X121809592Y-117556140D01*
X121793782Y-117531226D01*
X121532352Y-117119279D01*
X121307654Y-116765211D01*
X121304920Y-116760697D01*
X120836534Y-115949430D01*
X120833991Y-115944805D01*
X120399979Y-115114616D01*
X120397633Y-115109889D01*
X119998783Y-114262291D01*
X119996636Y-114257470D01*
X119885781Y-113993756D01*
X119633611Y-113393868D01*
X119631675Y-113388978D01*
X119630276Y-113385214D01*
X119453686Y-112910378D01*
X119391764Y-112743874D01*
X119386767Y-112673053D01*
X119420852Y-112610774D01*
X119483196Y-112576808D01*
X119509862Y-112573954D01*
X121588654Y-112573954D01*
X121650836Y-112567199D01*
X121787225Y-112516069D01*
X121903781Y-112428715D01*
X121991135Y-112312159D01*
X122042265Y-112175770D01*
X122049020Y-112113588D01*
X122049020Y-111199954D01*
X122069022Y-111131833D01*
X122122678Y-111085340D01*
X122175020Y-111073954D01*
X122668887Y-111073954D01*
X122737008Y-111093956D01*
G37*
%TD.AperFunction*%
%TA.AperFunction,Conductor*%
G36*
X160501764Y-112409237D02*
G01*
X160533262Y-112412659D01*
X160533267Y-112412659D01*
X160539388Y-112413324D01*
X160589053Y-112408979D01*
X160600034Y-112408500D01*
X161640992Y-112408500D01*
X161709113Y-112428502D01*
X161755606Y-112482158D01*
X161765710Y-112552432D01*
X161759090Y-112578420D01*
X161706369Y-112720184D01*
X161459047Y-113385214D01*
X161457647Y-113388978D01*
X161455711Y-113393868D01*
X161426541Y-113463261D01*
X161358328Y-113625531D01*
X161313490Y-113680578D01*
X161246010Y-113702646D01*
X161177312Y-113684727D01*
X161129207Y-113632513D01*
X161124191Y-113620933D01*
X161113325Y-113591948D01*
X161104786Y-113576351D01*
X161028285Y-113474276D01*
X161015724Y-113461715D01*
X160913649Y-113385214D01*
X160898054Y-113376676D01*
X160777606Y-113331522D01*
X160762351Y-113327895D01*
X160711486Y-113322369D01*
X160704672Y-113322000D01*
X160482115Y-113322000D01*
X160466876Y-113326475D01*
X160465671Y-113327865D01*
X160464000Y-113335548D01*
X160464000Y-115119884D01*
X160468475Y-115135123D01*
X160469865Y-115136328D01*
X160490783Y-115140878D01*
X160490068Y-115144165D01*
X160537189Y-115158001D01*
X160583682Y-115211657D01*
X160593786Y-115281931D01*
X160580730Y-115322374D01*
X160255331Y-115944805D01*
X160252788Y-115949430D01*
X159784402Y-116760697D01*
X159781668Y-116765211D01*
X159556970Y-117119279D01*
X159295541Y-117531226D01*
X159279730Y-117556140D01*
X159276820Y-117560521D01*
X158761719Y-118301655D01*
X158742168Y-118329785D01*
X158739066Y-118334054D01*
X158499323Y-118649904D01*
X158442205Y-118692071D01*
X158371357Y-118696664D01*
X158309273Y-118662225D01*
X158275664Y-118599687D01*
X158273022Y-118569766D01*
X158273329Y-118560000D01*
X158254408Y-118158785D01*
X158214280Y-117876829D01*
X158198232Y-117764068D01*
X158198231Y-117764065D01*
X158197814Y-117761132D01*
X158194733Y-117748297D01*
X158104740Y-117373450D01*
X158104738Y-117373443D01*
X158104048Y-117370569D01*
X157973943Y-116990564D01*
X157808654Y-116624489D01*
X157805691Y-116619293D01*
X157610409Y-116276928D01*
X157594033Y-116207846D01*
X157617605Y-116140876D01*
X157673641Y-116097282D01*
X157719857Y-116088500D01*
X158708134Y-116088500D01*
X158770316Y-116081745D01*
X158906705Y-116030615D01*
X159011313Y-115952215D01*
X159062191Y-115929483D01*
X159062338Y-115929454D01*
X159069637Y-115928860D01*
X159076602Y-115926604D01*
X159082566Y-115925412D01*
X159088417Y-115924029D01*
X159095681Y-115923182D01*
X159164327Y-115898265D01*
X159168455Y-115896848D01*
X159230936Y-115876607D01*
X159230938Y-115876606D01*
X159237899Y-115874351D01*
X159244154Y-115870555D01*
X159249628Y-115868049D01*
X159255058Y-115865330D01*
X159261937Y-115862833D01*
X159268058Y-115858820D01*
X159322976Y-115822814D01*
X159326680Y-115820477D01*
X159389107Y-115782595D01*
X159397484Y-115775197D01*
X159397508Y-115775224D01*
X159400500Y-115772571D01*
X159403733Y-115769868D01*
X159409852Y-115765856D01*
X159463128Y-115709617D01*
X159465506Y-115707175D01*
X159718911Y-115453770D01*
X159733323Y-115441384D01*
X159744918Y-115432851D01*
X159744923Y-115432846D01*
X159750818Y-115428508D01*
X159755557Y-115422930D01*
X159755560Y-115422927D01*
X159785035Y-115388232D01*
X159791965Y-115380716D01*
X159797660Y-115375021D01*
X159815281Y-115352749D01*
X159818072Y-115349345D01*
X159860591Y-115299297D01*
X159860592Y-115299295D01*
X159865333Y-115293715D01*
X159868661Y-115287199D01*
X159872028Y-115282150D01*
X159875195Y-115277021D01*
X159879734Y-115271284D01*
X159910663Y-115205107D01*
X159912567Y-115201213D01*
X159917047Y-115192441D01*
X159931567Y-115164005D01*
X159948558Y-115138795D01*
X159954329Y-115132135D01*
X159956000Y-115124452D01*
X159956000Y-115117392D01*
X159958640Y-115091734D01*
X159969486Y-115039589D01*
X159970457Y-115035299D01*
X159970636Y-115034566D01*
X159987808Y-114964390D01*
X159988500Y-114953236D01*
X159988536Y-114953238D01*
X159988775Y-114949245D01*
X159989149Y-114945053D01*
X159990640Y-114937885D01*
X159988546Y-114860479D01*
X159988500Y-114857072D01*
X159988500Y-112534500D01*
X160008502Y-112466379D01*
X160062158Y-112419886D01*
X160114500Y-112408500D01*
X160488157Y-112408500D01*
X160501764Y-112409237D01*
G37*
%TD.AperFunction*%
%TA.AperFunction,Conductor*%
G36*
X145958635Y-116484479D02*
G01*
X146004206Y-116538920D01*
X146014301Y-116579085D01*
X146016085Y-116601018D01*
X146016500Y-116611233D01*
X146016500Y-116619293D01*
X146016925Y-116622937D01*
X146019789Y-116647507D01*
X146020222Y-116651882D01*
X146024988Y-116710472D01*
X146026140Y-116724637D01*
X146028396Y-116731601D01*
X146029587Y-116737560D01*
X146030971Y-116743415D01*
X146031818Y-116750681D01*
X146056735Y-116819327D01*
X146058152Y-116823455D01*
X146075443Y-116876828D01*
X146080649Y-116892899D01*
X146084445Y-116899154D01*
X146086951Y-116904628D01*
X146089670Y-116910058D01*
X146092167Y-116916937D01*
X146096180Y-116923057D01*
X146096180Y-116923058D01*
X146132186Y-116977976D01*
X146134523Y-116981680D01*
X146172405Y-117044107D01*
X146176121Y-117048315D01*
X146176122Y-117048316D01*
X146179803Y-117052484D01*
X146179776Y-117052508D01*
X146182429Y-117055500D01*
X146185132Y-117058733D01*
X146189144Y-117064852D01*
X146226580Y-117100316D01*
X146245383Y-117118128D01*
X146247825Y-117120506D01*
X146279875Y-117152556D01*
X146310613Y-117202714D01*
X146365473Y-117371556D01*
X146368776Y-117377278D01*
X146368777Y-117377279D01*
X146447365Y-117513397D01*
X146464103Y-117582392D01*
X146440883Y-117649484D01*
X146385076Y-117693371D01*
X146311732Y-117698786D01*
X146310316Y-117698255D01*
X146302466Y-117697402D01*
X146302465Y-117697402D01*
X146251531Y-117691869D01*
X146248134Y-117691500D01*
X145289330Y-117691500D01*
X145221209Y-117671498D01*
X145174716Y-117617842D01*
X145164612Y-117547568D01*
X145169096Y-117527821D01*
X145174256Y-117511356D01*
X145176869Y-117498306D01*
X145181913Y-117443414D01*
X145178525Y-117431876D01*
X145177135Y-117430671D01*
X145169452Y-117429000D01*
X144072000Y-117429000D01*
X144003879Y-117408998D01*
X143957386Y-117355342D01*
X143946000Y-117303000D01*
X143946000Y-117047000D01*
X143966002Y-116978879D01*
X144019658Y-116932386D01*
X144072000Y-116921000D01*
X145164884Y-116921000D01*
X145180123Y-116916525D01*
X145181328Y-116915135D01*
X145182291Y-116910706D01*
X145176868Y-116851685D01*
X145174259Y-116838655D01*
X145145592Y-116747178D01*
X145144309Y-116676193D01*
X145181606Y-116615783D01*
X145245643Y-116585127D01*
X145265827Y-116583500D01*
X145498732Y-116583500D01*
X145501978Y-116583163D01*
X145501982Y-116583163D01*
X145541283Y-116579085D01*
X145601019Y-116572887D01*
X145645140Y-116558167D01*
X145756324Y-116521073D01*
X145756326Y-116521072D01*
X145763268Y-116518756D01*
X145822413Y-116482156D01*
X145890865Y-116463318D01*
X145958635Y-116484479D01*
G37*
%TD.AperFunction*%
%TA.AperFunction,Conductor*%
G36*
X118860738Y-99718214D02*
G01*
X118890366Y-99734716D01*
X118969158Y-99793767D01*
X118978295Y-99800615D01*
X119114684Y-99851745D01*
X119176866Y-99858500D01*
X119190500Y-99858500D01*
X119258621Y-99878502D01*
X119305114Y-99932158D01*
X119316500Y-99984500D01*
X119316500Y-100615500D01*
X119296498Y-100683621D01*
X119242842Y-100730114D01*
X119190500Y-100741500D01*
X119176866Y-100741500D01*
X119114684Y-100748255D01*
X118978295Y-100799385D01*
X118861739Y-100886739D01*
X118774385Y-101003295D01*
X118723255Y-101139684D01*
X118716500Y-101201866D01*
X118716500Y-102348134D01*
X118723255Y-102410316D01*
X118774385Y-102546705D01*
X118861739Y-102663261D01*
X118978295Y-102750615D01*
X119114684Y-102801745D01*
X119176866Y-102808500D01*
X121473134Y-102808500D01*
X121535316Y-102801745D01*
X121671705Y-102750615D01*
X121788261Y-102663261D01*
X121875615Y-102546705D01*
X121926745Y-102410316D01*
X121933500Y-102348134D01*
X121933500Y-101534500D01*
X121953502Y-101466379D01*
X122007158Y-101419886D01*
X122059500Y-101408500D01*
X122490500Y-101408500D01*
X122558621Y-101428502D01*
X122605114Y-101482158D01*
X122616500Y-101534500D01*
X122616500Y-101670417D01*
X122611559Y-101702335D01*
X122611909Y-101702409D01*
X122610629Y-101708430D01*
X122608765Y-101714306D01*
X122608171Y-101719602D01*
X122606613Y-101724698D01*
X122605990Y-101730834D01*
X122597218Y-101817187D01*
X122597089Y-101818393D01*
X122591500Y-101868227D01*
X122591500Y-101871754D01*
X122591445Y-101872739D01*
X122590998Y-101878419D01*
X122586626Y-101921462D01*
X122590623Y-101963741D01*
X122590941Y-101967109D01*
X122591500Y-101978967D01*
X122591500Y-103449769D01*
X122605920Y-103596833D01*
X122663084Y-103786169D01*
X122665976Y-103791608D01*
X122728815Y-103909793D01*
X122737796Y-103931263D01*
X122749528Y-103968699D01*
X122838361Y-104115381D01*
X122959619Y-104236639D01*
X123106301Y-104325472D01*
X123113548Y-104327743D01*
X123113550Y-104327744D01*
X123167932Y-104344786D01*
X123269938Y-104376753D01*
X123343365Y-104383500D01*
X123347515Y-104383500D01*
X123348060Y-104383582D01*
X123349140Y-104383632D01*
X123349135Y-104383745D01*
X123384767Y-104389133D01*
X123396232Y-104392682D01*
X123451378Y-104398478D01*
X123586796Y-104412711D01*
X123586798Y-104412711D01*
X123592925Y-104413355D01*
X123789888Y-104395430D01*
X123795799Y-104393690D01*
X123795801Y-104393690D01*
X123813010Y-104388625D01*
X123848584Y-104383499D01*
X123856634Y-104383499D01*
X123859492Y-104383236D01*
X123859501Y-104383236D01*
X123895004Y-104379974D01*
X123930062Y-104376753D01*
X123936447Y-104374752D01*
X124086450Y-104327744D01*
X124086452Y-104327743D01*
X124093699Y-104325472D01*
X124240381Y-104236639D01*
X124335905Y-104141115D01*
X124398217Y-104107089D01*
X124469032Y-104112154D01*
X124514095Y-104141115D01*
X124609619Y-104236639D01*
X124607786Y-104238472D01*
X124641855Y-104286178D01*
X124645330Y-104357090D01*
X124606251Y-104421989D01*
X124598357Y-104428962D01*
X124598356Y-104428963D01*
X124598333Y-104428937D01*
X124595344Y-104431585D01*
X124592105Y-104434293D01*
X124585989Y-104438303D01*
X124580962Y-104443610D01*
X124580958Y-104443613D01*
X124532713Y-104494542D01*
X124530335Y-104496984D01*
X124211089Y-104816230D01*
X124196677Y-104828616D01*
X124185082Y-104837149D01*
X124185077Y-104837154D01*
X124179182Y-104841492D01*
X124174443Y-104847070D01*
X124174440Y-104847073D01*
X124144965Y-104881768D01*
X124138035Y-104889284D01*
X124132340Y-104894979D01*
X124130060Y-104897861D01*
X124114719Y-104917251D01*
X124111928Y-104920655D01*
X124069409Y-104970703D01*
X124064667Y-104976285D01*
X124061339Y-104982801D01*
X124057980Y-104987838D01*
X124054806Y-104992977D01*
X124050266Y-104998716D01*
X124047166Y-105005350D01*
X124046538Y-105006366D01*
X123993725Y-105053815D01*
X123939334Y-105066159D01*
X123875503Y-105066159D01*
X123860264Y-105070634D01*
X123859059Y-105072024D01*
X123857388Y-105079707D01*
X123857388Y-106102159D01*
X123837386Y-106170280D01*
X123783730Y-106216773D01*
X123731388Y-106228159D01*
X122663504Y-106228159D01*
X122648265Y-106232634D01*
X122647060Y-106234024D01*
X122645389Y-106241707D01*
X122645389Y-106418828D01*
X122645759Y-106425649D01*
X122651283Y-106476511D01*
X122654909Y-106491763D01*
X122700064Y-106612213D01*
X122708602Y-106627808D01*
X122785103Y-106729883D01*
X122797664Y-106742444D01*
X122899739Y-106818945D01*
X122915334Y-106827483D01*
X123035782Y-106872637D01*
X123051037Y-106876264D01*
X123071330Y-106878469D01*
X123136892Y-106905711D01*
X123177318Y-106964074D01*
X123179773Y-107035028D01*
X123153746Y-107085312D01*
X123149825Y-107089928D01*
X123143055Y-107097897D01*
X123139727Y-107104413D01*
X123136360Y-107109462D01*
X123133193Y-107114591D01*
X123128654Y-107120328D01*
X123097733Y-107186487D01*
X123095830Y-107190381D01*
X123062619Y-107255420D01*
X123060880Y-107262528D01*
X123058781Y-107268171D01*
X123056864Y-107273934D01*
X123053766Y-107280562D01*
X123052276Y-107287724D01*
X123052276Y-107287725D01*
X123038902Y-107352024D01*
X123037932Y-107356308D01*
X123020580Y-107427222D01*
X123020232Y-107432824D01*
X123020232Y-107432827D01*
X123019888Y-107438374D01*
X123019888Y-107438376D01*
X123019852Y-107438374D01*
X123019613Y-107442367D01*
X123019239Y-107446559D01*
X123017748Y-107453727D01*
X123017946Y-107461044D01*
X123019842Y-107531133D01*
X123019888Y-107534540D01*
X123019888Y-107689660D01*
X122999886Y-107757781D01*
X122946230Y-107804274D01*
X122893888Y-107815660D01*
X122051847Y-107815660D01*
X121983726Y-107795658D01*
X121951021Y-107765225D01*
X121909163Y-107709374D01*
X121909162Y-107709373D01*
X121903781Y-107702193D01*
X121787225Y-107614839D01*
X121650836Y-107563709D01*
X121588654Y-107556954D01*
X119292386Y-107556954D01*
X119230204Y-107563709D01*
X119093815Y-107614839D01*
X118977259Y-107702193D01*
X118889905Y-107818749D01*
X118838775Y-107955138D01*
X118832020Y-108017320D01*
X118832020Y-109163588D01*
X118838775Y-109225770D01*
X118889905Y-109362159D01*
X118977259Y-109478715D01*
X119093815Y-109566069D01*
X119230204Y-109617199D01*
X119292386Y-109623954D01*
X119306020Y-109623954D01*
X119374141Y-109643956D01*
X119420634Y-109697612D01*
X119432020Y-109749954D01*
X119432020Y-110380954D01*
X119412018Y-110449075D01*
X119358362Y-110495568D01*
X119306020Y-110506954D01*
X119292386Y-110506954D01*
X119230204Y-110513709D01*
X119093815Y-110564839D01*
X118977259Y-110652193D01*
X118964012Y-110669868D01*
X118907157Y-110712382D01*
X118836338Y-110717409D01*
X118774044Y-110683351D01*
X118740516Y-110623075D01*
X118545257Y-109790586D01*
X118544160Y-109785424D01*
X118368626Y-108865242D01*
X118367746Y-108860038D01*
X118230902Y-107933333D01*
X118230240Y-107928098D01*
X118183980Y-107487964D01*
X118132316Y-106996410D01*
X118131876Y-106991166D01*
X118130838Y-106974657D01*
X118084773Y-106242475D01*
X118073057Y-106056255D01*
X118072836Y-106050982D01*
X118065527Y-105702044D01*
X122645388Y-105702044D01*
X122649863Y-105717283D01*
X122651253Y-105718488D01*
X122658936Y-105720159D01*
X123331273Y-105720159D01*
X123346512Y-105715684D01*
X123347717Y-105714294D01*
X123349388Y-105706611D01*
X123349388Y-105084275D01*
X123344913Y-105069036D01*
X123343523Y-105067831D01*
X123335840Y-105066160D01*
X123108719Y-105066160D01*
X123101898Y-105066530D01*
X123051036Y-105072054D01*
X123035784Y-105075680D01*
X122915334Y-105120835D01*
X122899739Y-105129373D01*
X122797664Y-105205874D01*
X122785103Y-105218435D01*
X122708602Y-105320510D01*
X122700064Y-105336105D01*
X122654910Y-105456553D01*
X122651283Y-105471808D01*
X122645757Y-105522673D01*
X122645388Y-105529487D01*
X122645388Y-105702044D01*
X118065527Y-105702044D01*
X118059469Y-105412851D01*
X118053217Y-105114401D01*
X118053217Y-105109136D01*
X118053337Y-105103437D01*
X118067804Y-104412796D01*
X118072836Y-104172568D01*
X118073057Y-104167295D01*
X118109833Y-103582749D01*
X118131877Y-103232368D01*
X118132317Y-103227125D01*
X118135589Y-103196000D01*
X118208965Y-102497865D01*
X118230240Y-102295452D01*
X118230902Y-102290217D01*
X118367746Y-101363512D01*
X118368626Y-101358308D01*
X118544160Y-100438126D01*
X118545257Y-100432964D01*
X118692130Y-99806770D01*
X118727159Y-99745016D01*
X118790014Y-99712004D01*
X118860738Y-99718214D01*
G37*
%TD.AperFunction*%
%TA.AperFunction,Conductor*%
G36*
X162326020Y-99585988D02*
G01*
X162359545Y-99646261D01*
X162409239Y-99858131D01*
X162544065Y-100432964D01*
X162545162Y-100438126D01*
X162720696Y-101358308D01*
X162721576Y-101363512D01*
X162858420Y-102290217D01*
X162859082Y-102295452D01*
X162880357Y-102497865D01*
X162953734Y-103196000D01*
X162957005Y-103227125D01*
X162957445Y-103232368D01*
X162979489Y-103582749D01*
X163016265Y-104167295D01*
X163016486Y-104172568D01*
X163021518Y-104412796D01*
X163035986Y-105103437D01*
X163036105Y-105109136D01*
X163036105Y-105114401D01*
X163029853Y-105412851D01*
X163016486Y-106050982D01*
X163016265Y-106056255D01*
X163004549Y-106242475D01*
X162958485Y-106974657D01*
X162957446Y-106991166D01*
X162957006Y-106996410D01*
X162905342Y-107487964D01*
X162859082Y-107928098D01*
X162858420Y-107933333D01*
X162721576Y-108860038D01*
X162720696Y-108865242D01*
X162545162Y-109785424D01*
X162544065Y-109790586D01*
X162481981Y-110055283D01*
X162361203Y-110570225D01*
X162359830Y-110576077D01*
X162324801Y-110637831D01*
X162261946Y-110670843D01*
X162191222Y-110664633D01*
X162135082Y-110621172D01*
X162128287Y-110610421D01*
X162125615Y-110603295D01*
X162038261Y-110486739D01*
X161921705Y-110399385D01*
X161785316Y-110348255D01*
X161723134Y-110341500D01*
X161709500Y-110341500D01*
X161641379Y-110321498D01*
X161594886Y-110267842D01*
X161583500Y-110215500D01*
X161583500Y-109584500D01*
X161603502Y-109516379D01*
X161657158Y-109469886D01*
X161709500Y-109458500D01*
X161723134Y-109458500D01*
X161785316Y-109451745D01*
X161921705Y-109400615D01*
X162038261Y-109313261D01*
X162125615Y-109196705D01*
X162176745Y-109060316D01*
X162183500Y-108998134D01*
X162183500Y-107851866D01*
X162176745Y-107789684D01*
X162125615Y-107653295D01*
X162038261Y-107536739D01*
X161921705Y-107449385D01*
X161785316Y-107398255D01*
X161723134Y-107391500D01*
X159426866Y-107391500D01*
X159364684Y-107398255D01*
X159228295Y-107449385D01*
X159111739Y-107536739D01*
X159024385Y-107653295D01*
X158973255Y-107789684D01*
X158966500Y-107851866D01*
X158966500Y-108765500D01*
X158946498Y-108833621D01*
X158892842Y-108880114D01*
X158840500Y-108891500D01*
X158422000Y-108891500D01*
X158353879Y-108871498D01*
X158307386Y-108817842D01*
X158296000Y-108765500D01*
X158296000Y-108474350D01*
X158296737Y-108460742D01*
X158300159Y-108429239D01*
X158300825Y-108423112D01*
X158296447Y-108373070D01*
X158296121Y-108368288D01*
X158296000Y-108365810D01*
X158296000Y-108362731D01*
X158295701Y-108359677D01*
X158295700Y-108359666D01*
X158291813Y-108320029D01*
X158291691Y-108318715D01*
X158283979Y-108230569D01*
X158283500Y-108219587D01*
X158283500Y-107233244D01*
X158289006Y-107196405D01*
X158316585Y-107106200D01*
X158316585Y-107106198D01*
X158318388Y-107100302D01*
X158325494Y-107030342D01*
X158337752Y-106909665D01*
X158337752Y-106909661D01*
X158338374Y-106903537D01*
X158328077Y-106794604D01*
X158320342Y-106712770D01*
X158320341Y-106712766D01*
X158319762Y-106706638D01*
X158285923Y-106593124D01*
X158265020Y-106523007D01*
X158265019Y-106523005D01*
X158263260Y-106517104D01*
X158195731Y-106389024D01*
X158186954Y-106367939D01*
X158177744Y-106338552D01*
X158175472Y-106331301D01*
X158171537Y-106324804D01*
X158171536Y-106324801D01*
X158090576Y-106191120D01*
X158086639Y-106184619D01*
X157965381Y-106063361D01*
X157818699Y-105974528D01*
X157811452Y-105972257D01*
X157811450Y-105972256D01*
X157745164Y-105951483D01*
X157655062Y-105923247D01*
X157581635Y-105916500D01*
X157578524Y-105916500D01*
X157578433Y-105916486D01*
X157575860Y-105916368D01*
X157575873Y-105916094D01*
X157540848Y-105910735D01*
X157532232Y-105908035D01*
X157526109Y-105907370D01*
X157526105Y-105907369D01*
X157341737Y-105887340D01*
X157341733Y-105887340D01*
X157335612Y-105886675D01*
X157138587Y-105903913D01*
X157117236Y-105910116D01*
X157112479Y-105911498D01*
X157077326Y-105916501D01*
X157068366Y-105916501D01*
X157065508Y-105916764D01*
X157065499Y-105916764D01*
X157029996Y-105920026D01*
X156994938Y-105923247D01*
X156988560Y-105925246D01*
X156988559Y-105925246D01*
X156838550Y-105972256D01*
X156838548Y-105972257D01*
X156831301Y-105974528D01*
X156684619Y-106063361D01*
X156589095Y-106158885D01*
X156526783Y-106192911D01*
X156455968Y-106187846D01*
X156410905Y-106158885D01*
X156350473Y-106098453D01*
X156316447Y-106036141D01*
X156321512Y-105965326D01*
X156364059Y-105908490D01*
X156374194Y-105901644D01*
X156389107Y-105892595D01*
X156397484Y-105885197D01*
X156397508Y-105885224D01*
X156400500Y-105882571D01*
X156403733Y-105879868D01*
X156409852Y-105875856D01*
X156463128Y-105819617D01*
X156465506Y-105817175D01*
X156848911Y-105433770D01*
X156863323Y-105421384D01*
X156874918Y-105412851D01*
X156874923Y-105412846D01*
X156880818Y-105408508D01*
X156885557Y-105402930D01*
X156885560Y-105402927D01*
X156915035Y-105368232D01*
X156921965Y-105360716D01*
X156927660Y-105355021D01*
X156932518Y-105348880D01*
X156945281Y-105332749D01*
X156948071Y-105329346D01*
X156989235Y-105280893D01*
X157038441Y-105248929D01*
X157044329Y-105242135D01*
X157046000Y-105234452D01*
X157046000Y-105229884D01*
X157554000Y-105229884D01*
X157558475Y-105245123D01*
X157559865Y-105246328D01*
X157567548Y-105247999D01*
X157794669Y-105247999D01*
X157801490Y-105247629D01*
X157852352Y-105242105D01*
X157867604Y-105238479D01*
X157988054Y-105193324D01*
X158003649Y-105184786D01*
X158105724Y-105108285D01*
X158118285Y-105095724D01*
X158194786Y-104993649D01*
X158203324Y-104978054D01*
X158248478Y-104857606D01*
X158252105Y-104842351D01*
X158257631Y-104791486D01*
X158258000Y-104784672D01*
X158258000Y-104612115D01*
X158253525Y-104596876D01*
X158252135Y-104595671D01*
X158244452Y-104594000D01*
X157572115Y-104594000D01*
X157556876Y-104598475D01*
X157555671Y-104599865D01*
X157554000Y-104607548D01*
X157554000Y-105229884D01*
X157046000Y-105229884D01*
X157046000Y-105204798D01*
X157059784Y-105147496D01*
X157062590Y-105142001D01*
X157075769Y-105116192D01*
X157077509Y-105109080D01*
X157079608Y-105103437D01*
X157081523Y-105097679D01*
X157084622Y-105091050D01*
X157099487Y-105019583D01*
X157100457Y-105015299D01*
X157107085Y-104988211D01*
X157117808Y-104944390D01*
X157118500Y-104933236D01*
X157118536Y-104933238D01*
X157118775Y-104929245D01*
X157119149Y-104925053D01*
X157120640Y-104917885D01*
X157118546Y-104840479D01*
X157118500Y-104837072D01*
X157118500Y-104067885D01*
X157554000Y-104067885D01*
X157558475Y-104083124D01*
X157559865Y-104084329D01*
X157567548Y-104086000D01*
X158239884Y-104086000D01*
X158255123Y-104081525D01*
X158256328Y-104080135D01*
X158257999Y-104072452D01*
X158257999Y-103895331D01*
X158257629Y-103888510D01*
X158252105Y-103837648D01*
X158248479Y-103822396D01*
X158203324Y-103701946D01*
X158194786Y-103686351D01*
X158118285Y-103584276D01*
X158105724Y-103571715D01*
X158003649Y-103495214D01*
X157988054Y-103486676D01*
X157867606Y-103441522D01*
X157852351Y-103437895D01*
X157801486Y-103432369D01*
X157794672Y-103432000D01*
X157572115Y-103432000D01*
X157556876Y-103436475D01*
X157555671Y-103437865D01*
X157554000Y-103445548D01*
X157554000Y-104067885D01*
X157118500Y-104067885D01*
X157118500Y-103156371D01*
X157138502Y-103088250D01*
X157155405Y-103067276D01*
X157383636Y-102839045D01*
X157445948Y-102805019D01*
X157461748Y-102802619D01*
X157536413Y-102796087D01*
X157558251Y-102789742D01*
X157562521Y-102788502D01*
X157597674Y-102783499D01*
X157606634Y-102783499D01*
X157609492Y-102783236D01*
X157609501Y-102783236D01*
X157673401Y-102777365D01*
X157680062Y-102776753D01*
X157683616Y-102775639D01*
X157705195Y-102773500D01*
X159313174Y-102773500D01*
X159357404Y-102781518D01*
X159384684Y-102791745D01*
X159446866Y-102798500D01*
X161743134Y-102798500D01*
X161805316Y-102791745D01*
X161941705Y-102740615D01*
X162058261Y-102653261D01*
X162145615Y-102536705D01*
X162196745Y-102400316D01*
X162203500Y-102338134D01*
X162203500Y-101191866D01*
X162196745Y-101129684D01*
X162145615Y-100993295D01*
X162058261Y-100876739D01*
X161941705Y-100789385D01*
X161805316Y-100738255D01*
X161743134Y-100731500D01*
X161729500Y-100731500D01*
X161661379Y-100711498D01*
X161614886Y-100657842D01*
X161603500Y-100605500D01*
X161603500Y-99974500D01*
X161623502Y-99906379D01*
X161677158Y-99859886D01*
X161729500Y-99848500D01*
X161743134Y-99848500D01*
X161805316Y-99841745D01*
X161941705Y-99790615D01*
X162058261Y-99703261D01*
X162095482Y-99653598D01*
X162136049Y-99599469D01*
X162192908Y-99556954D01*
X162263727Y-99551928D01*
X162326020Y-99585988D01*
G37*
%TD.AperFunction*%
%TA.AperFunction,Conductor*%
G36*
X153996121Y-105118502D02*
G01*
X154042614Y-105172158D01*
X154054000Y-105224500D01*
X154054000Y-106119634D01*
X154033998Y-106187755D01*
X153980342Y-106234248D01*
X153963499Y-106240530D01*
X153956876Y-106242475D01*
X153955671Y-106243865D01*
X153954000Y-106251548D01*
X153954000Y-106543798D01*
X153947833Y-106582734D01*
X153906458Y-106710072D01*
X153905768Y-106716633D01*
X153905768Y-106716635D01*
X153902052Y-106751995D01*
X153886496Y-106900000D01*
X153887186Y-106906565D01*
X153887186Y-106913171D01*
X153885476Y-106913171D01*
X153874237Y-106974657D01*
X153825740Y-107026509D01*
X153761694Y-107044000D01*
X152926115Y-107044000D01*
X152910876Y-107048474D01*
X152900446Y-107060512D01*
X152840720Y-107098896D01*
X152805221Y-107104000D01*
X151632000Y-107104000D01*
X151563879Y-107083998D01*
X151517386Y-107030342D01*
X151506000Y-106978000D01*
X151506000Y-106577885D01*
X152014000Y-106577885D01*
X152018475Y-106593124D01*
X152019865Y-106594329D01*
X152027548Y-106596000D01*
X152658885Y-106596000D01*
X152674124Y-106591526D01*
X152684554Y-106579488D01*
X152744280Y-106541104D01*
X152779779Y-106536000D01*
X153427885Y-106536000D01*
X153443124Y-106531525D01*
X153444329Y-106530135D01*
X153446000Y-106522452D01*
X153446000Y-105960366D01*
X153466002Y-105892245D01*
X153519658Y-105845752D01*
X153536501Y-105839470D01*
X153543124Y-105837525D01*
X153544329Y-105836135D01*
X153546000Y-105828452D01*
X153546000Y-105562115D01*
X153541525Y-105546876D01*
X153540135Y-105545671D01*
X153532452Y-105544000D01*
X152860116Y-105544000D01*
X152844877Y-105548475D01*
X152843672Y-105549865D01*
X152842001Y-105557548D01*
X152842001Y-105734669D01*
X152842371Y-105741490D01*
X152847895Y-105792352D01*
X152851522Y-105807607D01*
X152870172Y-105857357D01*
X152875355Y-105928164D01*
X152841434Y-105990533D01*
X152779178Y-106024662D01*
X152708354Y-106019715D01*
X152676625Y-106002412D01*
X152613649Y-105955214D01*
X152598054Y-105946676D01*
X152477606Y-105901522D01*
X152462351Y-105897895D01*
X152411486Y-105892369D01*
X152404672Y-105892000D01*
X152032115Y-105892000D01*
X152016876Y-105896475D01*
X152015671Y-105897865D01*
X152014000Y-105905548D01*
X152014000Y-106577885D01*
X151506000Y-106577885D01*
X151506000Y-105910116D01*
X151501525Y-105894877D01*
X151500135Y-105893672D01*
X151492452Y-105892001D01*
X151161531Y-105892001D01*
X151093410Y-105871999D01*
X151046917Y-105818343D01*
X151035964Y-105755567D01*
X151043590Y-105663785D01*
X151043738Y-105662008D01*
X151051912Y-105349837D01*
X151073690Y-105282263D01*
X151128545Y-105237191D01*
X151199059Y-105228930D01*
X151222097Y-105235152D01*
X151232286Y-105238972D01*
X151232289Y-105238973D01*
X151239684Y-105241745D01*
X151301866Y-105248500D01*
X152298134Y-105248500D01*
X152360316Y-105241745D01*
X152496705Y-105190615D01*
X152586024Y-105123674D01*
X152652530Y-105098826D01*
X152661589Y-105098500D01*
X153928000Y-105098500D01*
X153996121Y-105118502D01*
G37*
%TD.AperFunction*%
%TA.AperFunction,Conductor*%
G36*
X131628037Y-99366237D02*
G01*
X131661513Y-99428845D01*
X131655826Y-99499614D01*
X131645881Y-99519911D01*
X131428283Y-99878502D01*
X131394189Y-99934687D01*
X131393284Y-99936408D01*
X131393279Y-99936416D01*
X131263595Y-100182905D01*
X131095203Y-100502967D01*
X131094407Y-100504733D01*
X131094407Y-100504734D01*
X130839552Y-101070491D01*
X130831467Y-101088438D01*
X130830796Y-101090209D01*
X130830789Y-101090226D01*
X130665431Y-101526685D01*
X130603966Y-101688919D01*
X130413547Y-102302168D01*
X130413091Y-102304032D01*
X130367829Y-102489002D01*
X130332209Y-102550417D01*
X130269040Y-102582824D01*
X130198379Y-102575935D01*
X130169877Y-102559882D01*
X130163647Y-102555213D01*
X130148054Y-102546676D01*
X130027606Y-102501522D01*
X130012351Y-102497895D01*
X129961486Y-102492369D01*
X129954672Y-102492000D01*
X129582115Y-102492000D01*
X129566876Y-102496475D01*
X129565671Y-102497865D01*
X129564000Y-102505548D01*
X129564000Y-104389884D01*
X129568475Y-104405123D01*
X129569865Y-104406328D01*
X129577548Y-104407999D01*
X129925757Y-104407999D01*
X129993878Y-104428001D01*
X130040371Y-104481657D01*
X130051554Y-104541142D01*
X130035551Y-104822974D01*
X130034779Y-104836564D01*
X130034787Y-104838485D01*
X130034787Y-104838500D01*
X130035700Y-105047682D01*
X130015995Y-105115890D01*
X129962543Y-105162616D01*
X129892314Y-105173027D01*
X129834136Y-105149058D01*
X129813788Y-105133808D01*
X129800093Y-105123544D01*
X129663704Y-105072414D01*
X129601522Y-105065659D01*
X128605254Y-105065659D01*
X128543072Y-105072414D01*
X128406683Y-105123544D01*
X128341818Y-105172158D01*
X128317364Y-105190485D01*
X128250858Y-105215333D01*
X128241799Y-105215659D01*
X126975388Y-105215659D01*
X126907267Y-105195657D01*
X126860774Y-105142001D01*
X126849388Y-105089659D01*
X126849388Y-104752044D01*
X127357388Y-104752044D01*
X127361863Y-104767283D01*
X127363253Y-104768488D01*
X127370936Y-104770159D01*
X128043272Y-104770159D01*
X128058511Y-104765684D01*
X128059716Y-104764294D01*
X128061387Y-104756611D01*
X128061387Y-104579490D01*
X128061017Y-104572669D01*
X128055493Y-104521807D01*
X128051867Y-104506555D01*
X128006712Y-104386105D01*
X127998174Y-104370510D01*
X127921673Y-104268435D01*
X127909112Y-104255874D01*
X127807037Y-104179373D01*
X127791442Y-104170835D01*
X127670994Y-104125681D01*
X127655739Y-104122054D01*
X127604874Y-104116528D01*
X127598060Y-104116159D01*
X127375503Y-104116159D01*
X127360264Y-104120634D01*
X127359059Y-104122024D01*
X127357388Y-104129707D01*
X127357388Y-104752044D01*
X126849388Y-104752044D01*
X126849388Y-104134275D01*
X126844913Y-104119036D01*
X126843523Y-104117831D01*
X126835840Y-104116160D01*
X126608719Y-104116160D01*
X126601898Y-104116530D01*
X126551036Y-104122054D01*
X126535784Y-104125680D01*
X126415327Y-104170838D01*
X126414422Y-104171333D01*
X126413422Y-104171552D01*
X126406926Y-104173987D01*
X126406574Y-104173049D01*
X126345065Y-104186502D01*
X126300177Y-104173322D01*
X126300094Y-104173544D01*
X126297055Y-104172405D01*
X126297054Y-104172405D01*
X126291691Y-104170394D01*
X126291687Y-104170392D01*
X126175380Y-104126791D01*
X126118615Y-104084150D01*
X126093915Y-104017588D01*
X126102548Y-103969350D01*
X126100472Y-103968699D01*
X126108003Y-103944669D01*
X128202001Y-103944669D01*
X128202371Y-103951490D01*
X128207895Y-104002352D01*
X128211521Y-104017604D01*
X128256676Y-104138054D01*
X128265214Y-104153649D01*
X128341715Y-104255724D01*
X128354276Y-104268285D01*
X128456351Y-104344786D01*
X128471946Y-104353324D01*
X128592394Y-104398478D01*
X128607649Y-104402105D01*
X128658514Y-104407631D01*
X128665328Y-104408000D01*
X129037885Y-104408000D01*
X129053124Y-104403525D01*
X129054329Y-104402135D01*
X129056000Y-104394452D01*
X129056000Y-103722115D01*
X129051525Y-103706876D01*
X129050135Y-103705671D01*
X129042452Y-103704000D01*
X128220116Y-103704000D01*
X128204877Y-103708475D01*
X128203672Y-103709865D01*
X128202001Y-103717548D01*
X128202001Y-103944669D01*
X126108003Y-103944669D01*
X126151753Y-103805062D01*
X126154508Y-103805925D01*
X126181593Y-103754305D01*
X126243333Y-103719252D01*
X126314223Y-103723143D01*
X126323401Y-103726805D01*
X126411677Y-103766108D01*
X126411685Y-103766111D01*
X126417712Y-103768794D01*
X126511112Y-103788647D01*
X126598056Y-103807128D01*
X126598061Y-103807128D01*
X126604513Y-103808500D01*
X126795487Y-103808500D01*
X126801939Y-103807128D01*
X126801944Y-103807128D01*
X126888888Y-103788647D01*
X126982288Y-103768794D01*
X127065749Y-103731635D01*
X127150722Y-103693803D01*
X127150724Y-103693802D01*
X127156752Y-103691118D01*
X127311253Y-103578866D01*
X127394261Y-103486676D01*
X127434621Y-103441852D01*
X127434622Y-103441851D01*
X127439040Y-103436944D01*
X127534527Y-103271556D01*
X127593542Y-103089928D01*
X127613504Y-102900000D01*
X127612814Y-102893435D01*
X127612814Y-102886829D01*
X127614281Y-102886829D01*
X127625684Y-102824491D01*
X127674189Y-102772647D01*
X127726690Y-102755694D01*
X127768306Y-102751870D01*
X127781351Y-102749257D01*
X127931243Y-102702285D01*
X127944992Y-102696077D01*
X128069370Y-102620751D01*
X128137999Y-102602572D01*
X128205563Y-102624382D01*
X128250609Y-102679258D01*
X128258836Y-102749776D01*
X128252623Y-102772757D01*
X128211522Y-102882394D01*
X128207895Y-102897649D01*
X128202369Y-102948514D01*
X128202000Y-102955328D01*
X128202000Y-103177885D01*
X128206475Y-103193124D01*
X128207865Y-103194329D01*
X128215548Y-103196000D01*
X129037885Y-103196000D01*
X129053124Y-103191525D01*
X129054329Y-103190135D01*
X129056000Y-103182452D01*
X129056000Y-102510116D01*
X129051525Y-102494877D01*
X129050135Y-102493672D01*
X129042452Y-102492001D01*
X128665331Y-102492001D01*
X128658510Y-102492371D01*
X128607648Y-102497895D01*
X128592396Y-102501521D01*
X128471946Y-102546676D01*
X128456352Y-102555214D01*
X128446044Y-102562939D01*
X128379537Y-102587786D01*
X128310155Y-102572732D01*
X128259925Y-102522558D01*
X128244796Y-102453192D01*
X128262704Y-102396840D01*
X128291079Y-102349987D01*
X128297285Y-102336243D01*
X128344256Y-102186356D01*
X128346869Y-102173306D01*
X128351913Y-102118414D01*
X128348525Y-102106876D01*
X128347135Y-102105671D01*
X128339452Y-102104000D01*
X127242000Y-102104000D01*
X127173879Y-102083998D01*
X127127386Y-102030342D01*
X127116000Y-101978000D01*
X127116000Y-101722000D01*
X127136002Y-101653879D01*
X127189658Y-101607386D01*
X127242000Y-101596000D01*
X128334884Y-101596000D01*
X128350123Y-101591525D01*
X128351328Y-101590135D01*
X128352291Y-101585706D01*
X128346868Y-101526685D01*
X128344257Y-101513649D01*
X128297285Y-101363757D01*
X128291079Y-101350012D01*
X128210176Y-101216426D01*
X128200869Y-101204557D01*
X128119907Y-101123595D01*
X128085881Y-101061283D01*
X128090946Y-100990468D01*
X128133493Y-100933632D01*
X128200013Y-100908821D01*
X128209002Y-100908500D01*
X128242671Y-100908500D01*
X128310792Y-100928502D01*
X128334332Y-100950407D01*
X128335008Y-100949731D01*
X128341358Y-100956081D01*
X128346739Y-100963261D01*
X128463295Y-101050615D01*
X128599684Y-101101745D01*
X128661866Y-101108500D01*
X129958134Y-101108500D01*
X130020316Y-101101745D01*
X130156705Y-101050615D01*
X130273261Y-100963261D01*
X130360615Y-100846705D01*
X130411745Y-100710316D01*
X130418500Y-100648134D01*
X130418500Y-99789500D01*
X130438502Y-99721379D01*
X130492158Y-99674886D01*
X130544500Y-99663500D01*
X130668732Y-99663500D01*
X130671978Y-99663163D01*
X130671982Y-99663163D01*
X130706083Y-99659625D01*
X130771019Y-99652887D01*
X130805737Y-99641304D01*
X130926324Y-99601073D01*
X130926326Y-99601072D01*
X130933268Y-99598756D01*
X130974035Y-99573529D01*
X131072485Y-99512606D01*
X131078713Y-99508752D01*
X131087835Y-99499614D01*
X131187741Y-99399534D01*
X131250024Y-99365455D01*
X131273361Y-99363347D01*
X131273349Y-99363199D01*
X131326018Y-99358915D01*
X131336233Y-99358500D01*
X131344293Y-99358500D01*
X131357583Y-99356951D01*
X131372507Y-99355211D01*
X131376882Y-99354778D01*
X131442339Y-99349454D01*
X131442342Y-99349453D01*
X131449637Y-99348860D01*
X131456601Y-99346604D01*
X131462560Y-99345413D01*
X131468415Y-99344029D01*
X131475681Y-99343182D01*
X131495170Y-99336108D01*
X131566026Y-99331666D01*
X131628037Y-99366237D01*
G37*
%TD.AperFunction*%
%TA.AperFunction,Conductor*%
G36*
X148866121Y-91246002D02*
G01*
X148912614Y-91299658D01*
X148924000Y-91352000D01*
X148924000Y-92419884D01*
X148928475Y-92435123D01*
X148929865Y-92436328D01*
X148937548Y-92437999D01*
X149114669Y-92437999D01*
X149121490Y-92437629D01*
X149172352Y-92432105D01*
X149187604Y-92428479D01*
X149308054Y-92383324D01*
X149323649Y-92374786D01*
X149425724Y-92298285D01*
X149438285Y-92285724D01*
X149514786Y-92183649D01*
X149523324Y-92168054D01*
X149534151Y-92139174D01*
X149576793Y-92082409D01*
X149643355Y-92057710D01*
X149712704Y-92072918D01*
X149762822Y-92123204D01*
X149777372Y-92169577D01*
X149799160Y-92366932D01*
X149799762Y-92369841D01*
X149799764Y-92369851D01*
X149873667Y-92726717D01*
X149880611Y-92760247D01*
X149881484Y-92763083D01*
X149881484Y-92763085D01*
X149953446Y-92997000D01*
X149998716Y-93144151D01*
X150152425Y-93515237D01*
X150340374Y-93870211D01*
X150341999Y-93872685D01*
X150342005Y-93872695D01*
X150519136Y-94142351D01*
X150560894Y-94205922D01*
X150812030Y-94519390D01*
X150814094Y-94521520D01*
X150814102Y-94521529D01*
X150945484Y-94657104D01*
X151091550Y-94807833D01*
X151103336Y-94817899D01*
X151392972Y-95065271D01*
X151396976Y-95068691D01*
X151725594Y-95299648D01*
X151855868Y-95373955D01*
X152071913Y-95497185D01*
X152071918Y-95497188D01*
X152074489Y-95498654D01*
X152440564Y-95663943D01*
X152537241Y-95697043D01*
X152675534Y-95744392D01*
X152733503Y-95785382D01*
X152760109Y-95851204D01*
X152746905Y-95920962D01*
X152735546Y-95939164D01*
X152655214Y-96046351D01*
X152646676Y-96061946D01*
X152601522Y-96182394D01*
X152597895Y-96197649D01*
X152592369Y-96248514D01*
X152592000Y-96255328D01*
X152592000Y-96477885D01*
X152596475Y-96493124D01*
X152597865Y-96494329D01*
X152605548Y-96496000D01*
X153828000Y-96496000D01*
X153896121Y-96516002D01*
X153942614Y-96569658D01*
X153954000Y-96622000D01*
X153954000Y-97707999D01*
X153953934Y-97707999D01*
X153953933Y-97760658D01*
X153915549Y-97820384D01*
X153868191Y-97846155D01*
X153823665Y-97859091D01*
X153818934Y-97861543D01*
X153813831Y-97863084D01*
X153808397Y-97865973D01*
X153808388Y-97865977D01*
X153731739Y-97906732D01*
X153730570Y-97907346D01*
X153653555Y-97947266D01*
X153653551Y-97947268D01*
X153648075Y-97950107D01*
X153643910Y-97953432D01*
X153639204Y-97955934D01*
X153634425Y-97959832D01*
X153634423Y-97959833D01*
X153567236Y-98014629D01*
X153566211Y-98015457D01*
X153529782Y-98044538D01*
X153529777Y-98044542D01*
X153527028Y-98046737D01*
X153524534Y-98049231D01*
X153523797Y-98049890D01*
X153519448Y-98053604D01*
X153492620Y-98075485D01*
X153485938Y-98080935D01*
X153482011Y-98085682D01*
X153482009Y-98085684D01*
X153456713Y-98116262D01*
X153448723Y-98125042D01*
X153130620Y-98443145D01*
X153120477Y-98452247D01*
X153090974Y-98475968D01*
X153058689Y-98514444D01*
X153055526Y-98518069D01*
X153053871Y-98519894D01*
X153051691Y-98522074D01*
X153024399Y-98555300D01*
X153023670Y-98556178D01*
X152963845Y-98627474D01*
X152961277Y-98632145D01*
X152957897Y-98636260D01*
X152954986Y-98641689D01*
X152954984Y-98641692D01*
X152913978Y-98718167D01*
X152913349Y-98719325D01*
X152879019Y-98781773D01*
X152868566Y-98800787D01*
X152866955Y-98805867D01*
X152864437Y-98810562D01*
X152851386Y-98853249D01*
X152837265Y-98899435D01*
X152836873Y-98900693D01*
X152825461Y-98936669D01*
X152808764Y-98989306D01*
X152808170Y-98994601D01*
X152806612Y-98999697D01*
X152805989Y-99005826D01*
X152805989Y-99005828D01*
X152804107Y-99024358D01*
X152798304Y-99081488D01*
X152797216Y-99092197D01*
X152797087Y-99093403D01*
X152791499Y-99143227D01*
X152791499Y-99143228D01*
X152790539Y-99143120D01*
X152768149Y-99206134D01*
X152749922Y-99224659D01*
X152750270Y-99225007D01*
X152743920Y-99231357D01*
X152736739Y-99236739D01*
X152731358Y-99243919D01*
X152731355Y-99243922D01*
X152693847Y-99293969D01*
X152649385Y-99353295D01*
X152598255Y-99489684D01*
X152591500Y-99551866D01*
X152591500Y-100548134D01*
X152598255Y-100610316D01*
X152601027Y-100617712D01*
X152601029Y-100617718D01*
X152615066Y-100655161D01*
X152620249Y-100725968D01*
X152586328Y-100788337D01*
X152524072Y-100822466D01*
X152480050Y-100822868D01*
X152479970Y-100823743D01*
X152418414Y-100818087D01*
X152406876Y-100821475D01*
X152405671Y-100822865D01*
X152404000Y-100830548D01*
X152404000Y-101928000D01*
X152383998Y-101996121D01*
X152330342Y-102042614D01*
X152278000Y-102054000D01*
X152022000Y-102054000D01*
X151953879Y-102033998D01*
X151907386Y-101980342D01*
X151896000Y-101928000D01*
X151896000Y-100835116D01*
X151891525Y-100819877D01*
X151890135Y-100818672D01*
X151885706Y-100817709D01*
X151826685Y-100823132D01*
X151807097Y-100827055D01*
X151806652Y-100824831D01*
X151746185Y-100825930D01*
X151685771Y-100788639D01*
X151655109Y-100724605D01*
X151659887Y-100664743D01*
X151670983Y-100631288D01*
X151670983Y-100631286D01*
X151673149Y-100624757D01*
X151674098Y-100615500D01*
X151683172Y-100526930D01*
X151683500Y-100523732D01*
X151683500Y-99976268D01*
X151672887Y-99873981D01*
X151661207Y-99838971D01*
X151621073Y-99718676D01*
X151621072Y-99718674D01*
X151618756Y-99711732D01*
X151582342Y-99652887D01*
X151532605Y-99572513D01*
X151532604Y-99572512D01*
X151528752Y-99566287D01*
X151523570Y-99561114D01*
X151519025Y-99555380D01*
X151520945Y-99553858D01*
X151492455Y-99501794D01*
X151497456Y-99430974D01*
X151520882Y-99394448D01*
X151519843Y-99393628D01*
X151524381Y-99387882D01*
X151529552Y-99382702D01*
X151544215Y-99358915D01*
X151615462Y-99243331D01*
X151615463Y-99243329D01*
X151619302Y-99237101D01*
X151673149Y-99074757D01*
X151674491Y-99061666D01*
X151680714Y-99000923D01*
X151683500Y-98973732D01*
X151683500Y-98426268D01*
X151672887Y-98323981D01*
X151664976Y-98300269D01*
X151658500Y-98260393D01*
X151658500Y-98036999D01*
X151675381Y-97973999D01*
X151690816Y-97947266D01*
X151714218Y-97906732D01*
X151731223Y-97877279D01*
X151731224Y-97877278D01*
X151734527Y-97871556D01*
X151793542Y-97689928D01*
X151805254Y-97578500D01*
X151812814Y-97506565D01*
X151813504Y-97500000D01*
X151805522Y-97424057D01*
X151794232Y-97316635D01*
X151794232Y-97316633D01*
X151793542Y-97310072D01*
X151772291Y-97244669D01*
X152592001Y-97244669D01*
X152592371Y-97251490D01*
X152597895Y-97302352D01*
X152601521Y-97317604D01*
X152646676Y-97438054D01*
X152655214Y-97453649D01*
X152731715Y-97555724D01*
X152744276Y-97568285D01*
X152846351Y-97644786D01*
X152861946Y-97653324D01*
X152982394Y-97698478D01*
X152997649Y-97702105D01*
X153048514Y-97707631D01*
X153055328Y-97708000D01*
X153427885Y-97708000D01*
X153443124Y-97703525D01*
X153444329Y-97702135D01*
X153446000Y-97694452D01*
X153446000Y-97022115D01*
X153441525Y-97006876D01*
X153440135Y-97005671D01*
X153432452Y-97004000D01*
X152610116Y-97004000D01*
X152594877Y-97008475D01*
X152593672Y-97009865D01*
X152592001Y-97017548D01*
X152592001Y-97244669D01*
X151772291Y-97244669D01*
X151734527Y-97128444D01*
X151721667Y-97106169D01*
X151664392Y-97006967D01*
X151639040Y-96963056D01*
X151589821Y-96908392D01*
X151515675Y-96826045D01*
X151515674Y-96826044D01*
X151511253Y-96821134D01*
X151365893Y-96715523D01*
X151362094Y-96712763D01*
X151362093Y-96712762D01*
X151356752Y-96708882D01*
X151350724Y-96706198D01*
X151350722Y-96706197D01*
X151188319Y-96633891D01*
X151188318Y-96633891D01*
X151182288Y-96631206D01*
X151086545Y-96610855D01*
X151001944Y-96592872D01*
X151001939Y-96592872D01*
X150995487Y-96591500D01*
X150804513Y-96591500D01*
X150798061Y-96592872D01*
X150798056Y-96592872D01*
X150713455Y-96610855D01*
X150617712Y-96631206D01*
X150611682Y-96633891D01*
X150611681Y-96633891D01*
X150449278Y-96706197D01*
X150449276Y-96706198D01*
X150443248Y-96708882D01*
X150437907Y-96712762D01*
X150437906Y-96712763D01*
X150434107Y-96715523D01*
X150288747Y-96821134D01*
X150284326Y-96826044D01*
X150284325Y-96826045D01*
X150210180Y-96908392D01*
X150160960Y-96963056D01*
X150135608Y-97006967D01*
X150078334Y-97106169D01*
X150065473Y-97128444D01*
X150006458Y-97310072D01*
X150005768Y-97316633D01*
X150005768Y-97316635D01*
X149994478Y-97424057D01*
X149986496Y-97500000D01*
X149987186Y-97506565D01*
X150005667Y-97682401D01*
X150006458Y-97689928D01*
X150008498Y-97696206D01*
X150008500Y-97696214D01*
X150029878Y-97762008D01*
X150031906Y-97832975D01*
X149995243Y-97893773D01*
X149995128Y-97893871D01*
X149991287Y-97896248D01*
X149870448Y-98017298D01*
X149866608Y-98023528D01*
X149866607Y-98023529D01*
X149809446Y-98116262D01*
X149780698Y-98162899D01*
X149726851Y-98325243D01*
X149726151Y-98332080D01*
X149726150Y-98332082D01*
X149721917Y-98373401D01*
X149716500Y-98426268D01*
X149716500Y-98973732D01*
X149716837Y-98976978D01*
X149716837Y-98976982D01*
X149718183Y-98989957D01*
X149727113Y-99076019D01*
X149729295Y-99082559D01*
X149778537Y-99230153D01*
X149781244Y-99238268D01*
X149785096Y-99244492D01*
X149785096Y-99244493D01*
X149866767Y-99376471D01*
X149871248Y-99383713D01*
X149876430Y-99388886D01*
X149880975Y-99394620D01*
X149879055Y-99396142D01*
X149907545Y-99448206D01*
X149902544Y-99519026D01*
X149879118Y-99555552D01*
X149880157Y-99556372D01*
X149875619Y-99562118D01*
X149870448Y-99567298D01*
X149866608Y-99573528D01*
X149866607Y-99573529D01*
X149783322Y-99708642D01*
X149780698Y-99712899D01*
X149778693Y-99711663D01*
X149739255Y-99756458D01*
X149670978Y-99775921D01*
X149603017Y-99755382D01*
X149562580Y-99712448D01*
X149509833Y-99620159D01*
X149509827Y-99620150D01*
X149508881Y-99618494D01*
X149499905Y-99604803D01*
X149157855Y-99083090D01*
X149157844Y-99083075D01*
X149156804Y-99081488D01*
X148970130Y-98831501D01*
X148773755Y-98568523D01*
X148773746Y-98568512D01*
X148772600Y-98566977D01*
X148357703Y-98076880D01*
X148333602Y-98051703D01*
X148166626Y-97877279D01*
X147983824Y-97686321D01*
X147951168Y-97623283D01*
X147957776Y-97552595D01*
X148001552Y-97496701D01*
X148048646Y-97475946D01*
X148075822Y-97470169D01*
X148075827Y-97470167D01*
X148082288Y-97468794D01*
X148109854Y-97456521D01*
X148250722Y-97393803D01*
X148250724Y-97393802D01*
X148256752Y-97391118D01*
X148411253Y-97278866D01*
X148434261Y-97253313D01*
X148534621Y-97141852D01*
X148534622Y-97141851D01*
X148539040Y-97136944D01*
X148605337Y-97022115D01*
X148631223Y-96977279D01*
X148631224Y-96977278D01*
X148634527Y-96971556D01*
X148693542Y-96789928D01*
X148695339Y-96772837D01*
X148712814Y-96606565D01*
X148713504Y-96600000D01*
X148700669Y-96477885D01*
X148694232Y-96416635D01*
X148694232Y-96416633D01*
X148693542Y-96410072D01*
X148674486Y-96351423D01*
X148672459Y-96280455D01*
X148709121Y-96219657D01*
X148716051Y-96213744D01*
X148717493Y-96212601D01*
X148723713Y-96208752D01*
X148844552Y-96087702D01*
X148852586Y-96074669D01*
X148930462Y-95948331D01*
X148930463Y-95948329D01*
X148934302Y-95942101D01*
X148988149Y-95779757D01*
X148989044Y-95771029D01*
X148993652Y-95726045D01*
X148998500Y-95678732D01*
X148998500Y-95081268D01*
X148987887Y-94978981D01*
X148936751Y-94825708D01*
X148936073Y-94823676D01*
X148936072Y-94823674D01*
X148933756Y-94816732D01*
X148929441Y-94809758D01*
X148847606Y-94677515D01*
X148843752Y-94671287D01*
X148722702Y-94550448D01*
X148708822Y-94541892D01*
X148583331Y-94464538D01*
X148583329Y-94464537D01*
X148577101Y-94460698D01*
X148567560Y-94457533D01*
X148566019Y-94456466D01*
X148563519Y-94455300D01*
X148563719Y-94454872D01*
X148509203Y-94417101D01*
X148481968Y-94351536D01*
X148494504Y-94281655D01*
X148506407Y-94262377D01*
X148570615Y-94176705D01*
X148621745Y-94040316D01*
X148628500Y-93978134D01*
X148628500Y-92981866D01*
X148621745Y-92919684D01*
X148570615Y-92783295D01*
X148503674Y-92693976D01*
X148478826Y-92627470D01*
X148478500Y-92618411D01*
X148478500Y-91352000D01*
X148498502Y-91283879D01*
X148552158Y-91237386D01*
X148604500Y-91226000D01*
X148798000Y-91226000D01*
X148866121Y-91246002D01*
G37*
%TD.AperFunction*%
%TA.AperFunction,Conductor*%
G36*
X158474916Y-91548210D02*
G01*
X158497340Y-91571033D01*
X158729077Y-91876336D01*
X158739066Y-91889496D01*
X158742166Y-91893763D01*
X159266007Y-92647470D01*
X159276810Y-92663014D01*
X159279720Y-92667395D01*
X159481458Y-92985283D01*
X159781668Y-93458339D01*
X159784402Y-93462853D01*
X160252788Y-94274120D01*
X160255331Y-94278745D01*
X160689343Y-95108934D01*
X160691689Y-95113661D01*
X161090539Y-95961259D01*
X161092686Y-95966080D01*
X161151056Y-96104936D01*
X161452118Y-96821134D01*
X161455704Y-96829665D01*
X161457640Y-96834555D01*
X161680595Y-97434062D01*
X161746613Y-97611580D01*
X161751610Y-97682401D01*
X161717526Y-97744680D01*
X161655181Y-97778646D01*
X161628515Y-97781500D01*
X159446866Y-97781500D01*
X159384684Y-97788255D01*
X159248295Y-97839385D01*
X159131739Y-97926739D01*
X159044385Y-98043295D01*
X158993255Y-98179684D01*
X158986500Y-98241866D01*
X158986500Y-99155500D01*
X158966498Y-99223621D01*
X158912842Y-99270114D01*
X158860500Y-99281500D01*
X158496866Y-99281500D01*
X158434684Y-99288255D01*
X158433083Y-99288855D01*
X158410532Y-99291499D01*
X158384500Y-99291499D01*
X158316379Y-99271497D01*
X158269886Y-99217841D01*
X158258500Y-99165499D01*
X158258500Y-99140011D01*
X158264004Y-99103178D01*
X158287762Y-99025469D01*
X158288108Y-99024358D01*
X158290581Y-99016564D01*
X158316235Y-98935694D01*
X158316829Y-98930398D01*
X158318387Y-98925302D01*
X158327790Y-98832743D01*
X158327911Y-98831607D01*
X158333500Y-98781773D01*
X158333500Y-98778246D01*
X158333555Y-98777261D01*
X158334002Y-98771581D01*
X158338374Y-98728538D01*
X158334059Y-98682891D01*
X158333500Y-98671033D01*
X158333500Y-97250231D01*
X158331882Y-97233724D01*
X158322392Y-97136944D01*
X158319080Y-97103167D01*
X158316633Y-97095060D01*
X158278381Y-96968365D01*
X158261916Y-96913831D01*
X158219774Y-96834572D01*
X158196185Y-96790207D01*
X158187203Y-96768735D01*
X158177742Y-96738546D01*
X158175472Y-96731301D01*
X158086639Y-96584619D01*
X157965381Y-96463361D01*
X157818699Y-96374528D01*
X157811452Y-96372257D01*
X157811450Y-96372256D01*
X157705875Y-96339171D01*
X157655062Y-96323247D01*
X157581635Y-96316500D01*
X157577485Y-96316500D01*
X157576940Y-96316418D01*
X157575860Y-96316368D01*
X157575865Y-96316255D01*
X157540233Y-96310867D01*
X157528768Y-96307318D01*
X157469830Y-96301123D01*
X157338204Y-96287289D01*
X157338202Y-96287289D01*
X157332075Y-96286645D01*
X157135112Y-96304570D01*
X157129201Y-96306310D01*
X157129199Y-96306310D01*
X157111990Y-96311375D01*
X157076416Y-96316501D01*
X157068366Y-96316501D01*
X157065508Y-96316764D01*
X157065499Y-96316764D01*
X157029996Y-96320026D01*
X156994938Y-96323247D01*
X156988560Y-96325246D01*
X156988559Y-96325246D01*
X156838550Y-96372256D01*
X156838548Y-96372257D01*
X156831301Y-96374528D01*
X156824805Y-96378462D01*
X156824803Y-96378463D01*
X156793848Y-96397210D01*
X156725218Y-96415389D01*
X156657655Y-96393578D01*
X156612609Y-96338702D01*
X156603267Y-96302604D01*
X156603232Y-96302266D01*
X156595102Y-96224910D01*
X156594232Y-96216635D01*
X156594232Y-96216633D01*
X156593542Y-96210072D01*
X156534527Y-96028444D01*
X156529806Y-96020266D01*
X156469376Y-95915599D01*
X156439040Y-95863056D01*
X156428369Y-95851204D01*
X156315675Y-95726045D01*
X156315674Y-95726044D01*
X156311253Y-95721134D01*
X156175438Y-95622458D01*
X156162094Y-95612763D01*
X156162093Y-95612762D01*
X156156752Y-95608882D01*
X156150720Y-95606196D01*
X156145187Y-95603002D01*
X156096194Y-95551620D01*
X156082757Y-95481906D01*
X156109144Y-95415995D01*
X156145759Y-95384436D01*
X156291822Y-95301123D01*
X156291839Y-95301112D01*
X156294406Y-95299648D01*
X156623024Y-95068691D01*
X156627029Y-95065271D01*
X156916664Y-94817899D01*
X156928450Y-94807833D01*
X157074516Y-94657104D01*
X157205898Y-94521529D01*
X157205906Y-94521520D01*
X157207970Y-94519390D01*
X157459106Y-94205922D01*
X157500864Y-94142351D01*
X157677995Y-93872695D01*
X157678001Y-93872685D01*
X157679626Y-93870211D01*
X157867575Y-93515237D01*
X158021284Y-93144151D01*
X158066554Y-92997000D01*
X158138516Y-92763085D01*
X158138516Y-92763083D01*
X158139389Y-92760247D01*
X158146333Y-92726717D01*
X158220236Y-92369851D01*
X158220238Y-92369841D01*
X158220840Y-92366932D01*
X158230777Y-92276921D01*
X158264645Y-91970153D01*
X158264645Y-91970149D01*
X158264916Y-91967697D01*
X158264993Y-91965244D01*
X158264994Y-91965231D01*
X158270388Y-91793570D01*
X158273329Y-91700000D01*
X158271480Y-91660796D01*
X158271120Y-91653149D01*
X158287891Y-91584162D01*
X158339298Y-91535194D01*
X158409018Y-91521791D01*
X158474916Y-91548210D01*
G37*
%TD.AperFunction*%
%TA.AperFunction,Conductor*%
G36*
X132146121Y-91366002D02*
G01*
X132192614Y-91419658D01*
X132204000Y-91472000D01*
X132204000Y-92689884D01*
X132208475Y-92705123D01*
X132209865Y-92706328D01*
X132217548Y-92707999D01*
X132444669Y-92707999D01*
X132451490Y-92707629D01*
X132502352Y-92702105D01*
X132517604Y-92698479D01*
X132638054Y-92653324D01*
X132653649Y-92644786D01*
X132755724Y-92568285D01*
X132768285Y-92555724D01*
X132844786Y-92453649D01*
X132853324Y-92438054D01*
X132898478Y-92317606D01*
X132902105Y-92302351D01*
X132907631Y-92251486D01*
X132908000Y-92244672D01*
X132908000Y-91938761D01*
X132928002Y-91870640D01*
X132981658Y-91824147D01*
X133051932Y-91814043D01*
X133114324Y-91841684D01*
X133116271Y-91843295D01*
X133125042Y-91851277D01*
X133493152Y-92219387D01*
X133502242Y-92229517D01*
X133525968Y-92259025D01*
X133530692Y-92262989D01*
X133564421Y-92291291D01*
X133568069Y-92294472D01*
X133569881Y-92296115D01*
X133572075Y-92298309D01*
X133605349Y-92325642D01*
X133606147Y-92326304D01*
X133677474Y-92386154D01*
X133682144Y-92388722D01*
X133686261Y-92392103D01*
X133738073Y-92419884D01*
X133768086Y-92435977D01*
X133769245Y-92436606D01*
X133845381Y-92478462D01*
X133845389Y-92478465D01*
X133850787Y-92481433D01*
X133855869Y-92483045D01*
X133860563Y-92485562D01*
X133949531Y-92512762D01*
X133950559Y-92513082D01*
X134039306Y-92541235D01*
X134044602Y-92541829D01*
X134049698Y-92543387D01*
X134142257Y-92552790D01*
X134143393Y-92552911D01*
X134177008Y-92556681D01*
X134189730Y-92558108D01*
X134189734Y-92558108D01*
X134193227Y-92558500D01*
X134196754Y-92558500D01*
X134197739Y-92558555D01*
X134203419Y-92559002D01*
X134232825Y-92561989D01*
X134240337Y-92562752D01*
X134240339Y-92562752D01*
X134246462Y-92563374D01*
X134292108Y-92559059D01*
X134303967Y-92558500D01*
X134388411Y-92558500D01*
X134456532Y-92578502D01*
X134463975Y-92583674D01*
X134553295Y-92650615D01*
X134689684Y-92701745D01*
X134751866Y-92708500D01*
X135693586Y-92708500D01*
X135761707Y-92728502D01*
X135808200Y-92782158D01*
X135819057Y-92846032D01*
X135818087Y-92856587D01*
X135821475Y-92868124D01*
X135822865Y-92869329D01*
X135830548Y-92871000D01*
X136928000Y-92871000D01*
X136996121Y-92891002D01*
X137042614Y-92944658D01*
X137054000Y-92997000D01*
X137054000Y-93253000D01*
X137033998Y-93321121D01*
X136980342Y-93367614D01*
X136928000Y-93379000D01*
X135835116Y-93379000D01*
X135819877Y-93383475D01*
X135818672Y-93384865D01*
X135817709Y-93389294D01*
X135823132Y-93448315D01*
X135825741Y-93461345D01*
X135855992Y-93557877D01*
X135857275Y-93628862D01*
X135819978Y-93689272D01*
X135802060Y-93702699D01*
X135697515Y-93767394D01*
X135691287Y-93771248D01*
X135686114Y-93776430D01*
X135680380Y-93780975D01*
X135678858Y-93779055D01*
X135626794Y-93807545D01*
X135555974Y-93802544D01*
X135519448Y-93779118D01*
X135518628Y-93780157D01*
X135512882Y-93775619D01*
X135507702Y-93770448D01*
X135390941Y-93698475D01*
X135368331Y-93684538D01*
X135368329Y-93684537D01*
X135362101Y-93680698D01*
X135199757Y-93626851D01*
X135192920Y-93626151D01*
X135192918Y-93626150D01*
X135151599Y-93621917D01*
X135098732Y-93616500D01*
X134551268Y-93616500D01*
X134548022Y-93616837D01*
X134548018Y-93616837D01*
X134513917Y-93620375D01*
X134448981Y-93627113D01*
X134442440Y-93629295D01*
X134442441Y-93629295D01*
X134293676Y-93678927D01*
X134293674Y-93678928D01*
X134286732Y-93681244D01*
X134280508Y-93685096D01*
X134280507Y-93685096D01*
X134263418Y-93695671D01*
X134141287Y-93771248D01*
X134136114Y-93776430D01*
X134131577Y-93780975D01*
X134020448Y-93892298D01*
X134018986Y-93894670D01*
X133962588Y-93934655D01*
X133921624Y-93941500D01*
X133542587Y-93941500D01*
X133468528Y-93917437D01*
X133462098Y-93912765D01*
X133462091Y-93912761D01*
X133456752Y-93908882D01*
X133450724Y-93906198D01*
X133450722Y-93906197D01*
X133288319Y-93833891D01*
X133288318Y-93833891D01*
X133282288Y-93831206D01*
X133188888Y-93811353D01*
X133101944Y-93792872D01*
X133101939Y-93792872D01*
X133095487Y-93791500D01*
X132904513Y-93791500D01*
X132898061Y-93792872D01*
X132898056Y-93792872D01*
X132811112Y-93811353D01*
X132717712Y-93831206D01*
X132711682Y-93833891D01*
X132711681Y-93833891D01*
X132549278Y-93906197D01*
X132549276Y-93906198D01*
X132543248Y-93908882D01*
X132537907Y-93912762D01*
X132537906Y-93912763D01*
X132531473Y-93917437D01*
X132388747Y-94021134D01*
X132384326Y-94026044D01*
X132384325Y-94026045D01*
X132285112Y-94136233D01*
X132260960Y-94163056D01*
X132257659Y-94168774D01*
X132171132Y-94318643D01*
X132165473Y-94328444D01*
X132106458Y-94510072D01*
X132105768Y-94516633D01*
X132105768Y-94516635D01*
X132089514Y-94671287D01*
X132086496Y-94700000D01*
X132087186Y-94706565D01*
X132104179Y-94868241D01*
X132106458Y-94889928D01*
X132165473Y-95071556D01*
X132168776Y-95077278D01*
X132168777Y-95077279D01*
X132175366Y-95088691D01*
X132260960Y-95236944D01*
X132388747Y-95378866D01*
X132440320Y-95416336D01*
X132537904Y-95487235D01*
X132543248Y-95491118D01*
X132549276Y-95493802D01*
X132549278Y-95493803D01*
X132711681Y-95566109D01*
X132717712Y-95568794D01*
X132811112Y-95588647D01*
X132898056Y-95607128D01*
X132898061Y-95607128D01*
X132904513Y-95608500D01*
X133095487Y-95608500D01*
X133101939Y-95607128D01*
X133101944Y-95607128D01*
X133188888Y-95588647D01*
X133282288Y-95568794D01*
X133288319Y-95566109D01*
X133450722Y-95493803D01*
X133450724Y-95493802D01*
X133456752Y-95491118D01*
X133462091Y-95487239D01*
X133462098Y-95487235D01*
X133468528Y-95482563D01*
X133542587Y-95458500D01*
X134153546Y-95458500D01*
X134219662Y-95477240D01*
X134271308Y-95509075D01*
X134287899Y-95519302D01*
X134450243Y-95573149D01*
X134457080Y-95573849D01*
X134457082Y-95573850D01*
X134498401Y-95578083D01*
X134551268Y-95583500D01*
X135098732Y-95583500D01*
X135101978Y-95583163D01*
X135101982Y-95583163D01*
X135136083Y-95579625D01*
X135201019Y-95572887D01*
X135260663Y-95552988D01*
X135356324Y-95521073D01*
X135356326Y-95521072D01*
X135363268Y-95518756D01*
X135369493Y-95514904D01*
X135502487Y-95432605D01*
X135502488Y-95432604D01*
X135508713Y-95428752D01*
X135513886Y-95423570D01*
X135519620Y-95419025D01*
X135521142Y-95420945D01*
X135573206Y-95392455D01*
X135644026Y-95397456D01*
X135680552Y-95420882D01*
X135681372Y-95419843D01*
X135687118Y-95424381D01*
X135692298Y-95429552D01*
X135778298Y-95482563D01*
X135821308Y-95509075D01*
X135868801Y-95561847D01*
X135880225Y-95631919D01*
X135851951Y-95697043D01*
X135812884Y-95728351D01*
X135648358Y-95813088D01*
X135447622Y-95916474D01*
X134895770Y-96244792D01*
X134757845Y-96338702D01*
X134386564Y-96591498D01*
X134364990Y-96606187D01*
X133857262Y-96999312D01*
X133855814Y-97000582D01*
X133855809Y-97000586D01*
X133836468Y-97017548D01*
X133374481Y-97422699D01*
X133373113Y-97424056D01*
X133373111Y-97424057D01*
X133172139Y-97623283D01*
X132918448Y-97874769D01*
X132891212Y-97905285D01*
X132830928Y-97942787D01*
X132759940Y-97941745D01*
X132700783Y-97902488D01*
X132677376Y-97860319D01*
X132659049Y-97803913D01*
X132634527Y-97728444D01*
X132619338Y-97702135D01*
X132567055Y-97611580D01*
X132539040Y-97563056D01*
X132422894Y-97434062D01*
X132415675Y-97426045D01*
X132415674Y-97426044D01*
X132411253Y-97421134D01*
X132256752Y-97308882D01*
X132250724Y-97306198D01*
X132250722Y-97306197D01*
X132088319Y-97233891D01*
X132088318Y-97233891D01*
X132082288Y-97231206D01*
X131988888Y-97211353D01*
X131901944Y-97192872D01*
X131901939Y-97192872D01*
X131895487Y-97191500D01*
X131704513Y-97191500D01*
X131698061Y-97192872D01*
X131698056Y-97192872D01*
X131611113Y-97211353D01*
X131517712Y-97231206D01*
X131516486Y-97231752D01*
X131447469Y-97233724D01*
X131386671Y-97197062D01*
X131355346Y-97133350D01*
X131353500Y-97111863D01*
X131353500Y-96881268D01*
X131342887Y-96778981D01*
X131321716Y-96715523D01*
X131291073Y-96623676D01*
X131291072Y-96623674D01*
X131288756Y-96616732D01*
X131282465Y-96606565D01*
X131202606Y-96477515D01*
X131198752Y-96471287D01*
X131077702Y-96350448D01*
X131071471Y-96346607D01*
X130938331Y-96264538D01*
X130938329Y-96264537D01*
X130932101Y-96260698D01*
X130769757Y-96206851D01*
X130762920Y-96206151D01*
X130762918Y-96206150D01*
X130721599Y-96201917D01*
X130668732Y-96196500D01*
X130586261Y-96196500D01*
X130518140Y-96176498D01*
X130494114Y-96156436D01*
X130492845Y-96155075D01*
X130488508Y-96149182D01*
X130482930Y-96144443D01*
X130482928Y-96144441D01*
X130448232Y-96114965D01*
X130440716Y-96108035D01*
X130435021Y-96102340D01*
X130412880Y-96084823D01*
X130412749Y-96084719D01*
X130409345Y-96081928D01*
X130359297Y-96039409D01*
X130359295Y-96039408D01*
X130353715Y-96034667D01*
X130347199Y-96031339D01*
X130342150Y-96027972D01*
X130337021Y-96024805D01*
X130331284Y-96020266D01*
X130265125Y-95989345D01*
X130261225Y-95987439D01*
X130252902Y-95983189D01*
X130196192Y-95954231D01*
X130189084Y-95952492D01*
X130183441Y-95950393D01*
X130177678Y-95948476D01*
X130171050Y-95945378D01*
X130155296Y-95942101D01*
X130099588Y-95930514D01*
X130095299Y-95929543D01*
X130073913Y-95924310D01*
X130024390Y-95912192D01*
X130018788Y-95911844D01*
X130018785Y-95911844D01*
X130013236Y-95911500D01*
X130013238Y-95911464D01*
X130009245Y-95911225D01*
X130005053Y-95910851D01*
X129997885Y-95909360D01*
X129931675Y-95911151D01*
X129920479Y-95911454D01*
X129917072Y-95911500D01*
X129651589Y-95911500D01*
X129583468Y-95891498D01*
X129576024Y-95886326D01*
X129538426Y-95858148D01*
X129486705Y-95819385D01*
X129350316Y-95768255D01*
X129288134Y-95761500D01*
X129132913Y-95761500D01*
X129064792Y-95741498D01*
X129018299Y-95687842D01*
X129008195Y-95617568D01*
X129037689Y-95552988D01*
X129080202Y-95521303D01*
X129080161Y-95521223D01*
X129080630Y-95520984D01*
X129081058Y-95520665D01*
X129082801Y-95519878D01*
X129082808Y-95519875D01*
X129085511Y-95518654D01*
X129088082Y-95517188D01*
X129088087Y-95517185D01*
X129297994Y-95397456D01*
X129434406Y-95319648D01*
X129763024Y-95088691D01*
X129775521Y-95078018D01*
X130021713Y-94867750D01*
X130068450Y-94827833D01*
X130145582Y-94748239D01*
X130345898Y-94541529D01*
X130345906Y-94541520D01*
X130347970Y-94539390D01*
X130362280Y-94521529D01*
X130461763Y-94397353D01*
X130599106Y-94225922D01*
X130610720Y-94208242D01*
X130817995Y-93892695D01*
X130818001Y-93892685D01*
X130819626Y-93890211D01*
X131007575Y-93535237D01*
X131161284Y-93164151D01*
X131166596Y-93146886D01*
X131236647Y-92919182D01*
X131275881Y-92791651D01*
X131315028Y-92732424D01*
X131379983Y-92703763D01*
X131409918Y-92703438D01*
X131448514Y-92707631D01*
X131455328Y-92708000D01*
X131677885Y-92708000D01*
X131693124Y-92703525D01*
X131694329Y-92702135D01*
X131696000Y-92694452D01*
X131696000Y-91472000D01*
X131716002Y-91403879D01*
X131769658Y-91357386D01*
X131822000Y-91346000D01*
X132078000Y-91346000D01*
X132146121Y-91366002D01*
G37*
%TD.AperFunction*%
%TA.AperFunction,Conductor*%
G36*
X122354156Y-95771832D02*
G01*
X122388146Y-95834163D01*
X122391011Y-95860878D01*
X122391011Y-96658157D01*
X122390274Y-96671764D01*
X122387060Y-96701356D01*
X122386187Y-96709388D01*
X122386724Y-96715523D01*
X122390561Y-96759388D01*
X122390890Y-96764214D01*
X122391011Y-96766686D01*
X122391011Y-96769769D01*
X122391312Y-96772837D01*
X122395201Y-96812506D01*
X122395323Y-96813819D01*
X122396923Y-96832102D01*
X122403424Y-96906413D01*
X122404911Y-96911532D01*
X122405431Y-96916833D01*
X122432302Y-97005834D01*
X122432637Y-97006967D01*
X122458602Y-97096336D01*
X122461055Y-97101068D01*
X122462595Y-97106169D01*
X122465489Y-97111612D01*
X122467838Y-97117312D01*
X122465927Y-97118099D01*
X122478337Y-97178400D01*
X122452780Y-97244638D01*
X122395470Y-97286543D01*
X122352767Y-97294000D01*
X122172000Y-97294000D01*
X122103879Y-97273998D01*
X122057386Y-97220342D01*
X122046000Y-97168000D01*
X122046000Y-96100116D01*
X122038528Y-96074669D01*
X122011181Y-96032115D01*
X122011181Y-95961118D01*
X122049566Y-95901393D01*
X122056512Y-95895792D01*
X122113261Y-95853261D01*
X122164186Y-95785313D01*
X122221044Y-95742798D01*
X122291862Y-95737772D01*
X122354156Y-95771832D01*
G37*
%TD.AperFunction*%
%TA.AperFunction,Conductor*%
G36*
X141281137Y-91266002D02*
G01*
X141306651Y-91287689D01*
X141388747Y-91378866D01*
X141543248Y-91491118D01*
X141549276Y-91493802D01*
X141549278Y-91493803D01*
X141711681Y-91566109D01*
X141717712Y-91568794D01*
X141799064Y-91586086D01*
X141898056Y-91607128D01*
X141898061Y-91607128D01*
X141904513Y-91608500D01*
X142095487Y-91608500D01*
X142101939Y-91607128D01*
X142101944Y-91607128D01*
X142151162Y-91596666D01*
X142164804Y-91593766D01*
X142235595Y-91599168D01*
X142292227Y-91641985D01*
X142316721Y-91708622D01*
X142317001Y-91717013D01*
X142317001Y-91828705D01*
X142317264Y-91834454D01*
X142323132Y-91898315D01*
X142325743Y-91911351D01*
X142372715Y-92061243D01*
X142378921Y-92074987D01*
X142418735Y-92140728D01*
X142436914Y-92209358D01*
X142415104Y-92276921D01*
X142360228Y-92321968D01*
X142310959Y-92332000D01*
X142162115Y-92332000D01*
X142146876Y-92336475D01*
X142145671Y-92337865D01*
X142144000Y-92345548D01*
X142144000Y-93167885D01*
X142148475Y-93183124D01*
X142149865Y-93184329D01*
X142157548Y-93186000D01*
X142829884Y-93186000D01*
X142845123Y-93181525D01*
X142846328Y-93180135D01*
X142847999Y-93172452D01*
X142847999Y-92795331D01*
X142847629Y-92788510D01*
X142842105Y-92737648D01*
X142838479Y-92722396D01*
X142811404Y-92650174D01*
X142806221Y-92579367D01*
X142840142Y-92516998D01*
X142902397Y-92482868D01*
X142940918Y-92480473D01*
X142956587Y-92481913D01*
X142968124Y-92478525D01*
X142969329Y-92477135D01*
X142971000Y-92469452D01*
X142971000Y-91372000D01*
X142991002Y-91303879D01*
X143044658Y-91257386D01*
X143097000Y-91246000D01*
X143353000Y-91246000D01*
X143421121Y-91266002D01*
X143467614Y-91319658D01*
X143479000Y-91372000D01*
X143479000Y-92464884D01*
X143483475Y-92480123D01*
X143484865Y-92481328D01*
X143489294Y-92482291D01*
X143548315Y-92476868D01*
X143561351Y-92474257D01*
X143711243Y-92427285D01*
X143724988Y-92421079D01*
X143858574Y-92340176D01*
X143870443Y-92330869D01*
X143960551Y-92240761D01*
X144022863Y-92206735D01*
X144093678Y-92211800D01*
X144138741Y-92240761D01*
X144144595Y-92246615D01*
X144178621Y-92308927D01*
X144181500Y-92335710D01*
X144181500Y-93489769D01*
X144195920Y-93636833D01*
X144197702Y-93642734D01*
X144197702Y-93642736D01*
X144226122Y-93736866D01*
X144231500Y-93773284D01*
X144231500Y-94088134D01*
X144238255Y-94150316D01*
X144289385Y-94286705D01*
X144376739Y-94403261D01*
X144493295Y-94490615D01*
X144629684Y-94541745D01*
X144691866Y-94548500D01*
X145536076Y-94548500D01*
X145604197Y-94568502D01*
X145650690Y-94622158D01*
X145660794Y-94692432D01*
X145643336Y-94740616D01*
X145600255Y-94810507D01*
X145595698Y-94817899D01*
X145541851Y-94980243D01*
X145531500Y-95081268D01*
X145531500Y-95648652D01*
X145511498Y-95716773D01*
X145457842Y-95763266D01*
X145387568Y-95773370D01*
X145344895Y-95759120D01*
X145319351Y-95745106D01*
X145319349Y-95745105D01*
X145317683Y-95744191D01*
X144736903Y-95470278D01*
X144140485Y-95232331D01*
X143692277Y-95084534D01*
X143532475Y-95031839D01*
X143532471Y-95031838D01*
X143530652Y-95031238D01*
X143528812Y-95030754D01*
X143528800Y-95030750D01*
X143248824Y-94957039D01*
X142909681Y-94867750D01*
X142907795Y-94867375D01*
X142907787Y-94867373D01*
X142474300Y-94781147D01*
X142411390Y-94748239D01*
X142376258Y-94686544D01*
X142380058Y-94615650D01*
X142421584Y-94558064D01*
X142454651Y-94539586D01*
X142578054Y-94493324D01*
X142593649Y-94484786D01*
X142695724Y-94408285D01*
X142708285Y-94395724D01*
X142784786Y-94293649D01*
X142793324Y-94278054D01*
X142838478Y-94157606D01*
X142842105Y-94142351D01*
X142847631Y-94091486D01*
X142848000Y-94084672D01*
X142848000Y-93712115D01*
X142843525Y-93696876D01*
X142842135Y-93695671D01*
X142834452Y-93694000D01*
X140950116Y-93694000D01*
X140934877Y-93698475D01*
X140933672Y-93699865D01*
X140932001Y-93707548D01*
X140932001Y-94084669D01*
X140932371Y-94091490D01*
X140937895Y-94142352D01*
X140941521Y-94157604D01*
X140986676Y-94278054D01*
X140995214Y-94293649D01*
X141077096Y-94402904D01*
X141075145Y-94404366D01*
X141102901Y-94455196D01*
X141097836Y-94526011D01*
X141055289Y-94582847D01*
X140988769Y-94607658D01*
X140978131Y-94607968D01*
X140363107Y-94599916D01*
X140363097Y-94599916D01*
X140361175Y-94599891D01*
X140359264Y-94599983D01*
X140359252Y-94599983D01*
X140268906Y-94604323D01*
X140151438Y-94609966D01*
X140082438Y-94593255D01*
X140033424Y-94541892D01*
X140019960Y-94472184D01*
X140046320Y-94406263D01*
X140069829Y-94383285D01*
X140156080Y-94318643D01*
X140156081Y-94318642D01*
X140163261Y-94313261D01*
X140250615Y-94196705D01*
X140301745Y-94060316D01*
X140308500Y-93998134D01*
X140308500Y-93001866D01*
X140301745Y-92939684D01*
X140250615Y-92803295D01*
X140183674Y-92713976D01*
X140158826Y-92647470D01*
X140158500Y-92638411D01*
X140158500Y-92439884D01*
X140604000Y-92439884D01*
X140608475Y-92455123D01*
X140609865Y-92456328D01*
X140617548Y-92457999D01*
X140794669Y-92457999D01*
X140801488Y-92457630D01*
X140847524Y-92452629D01*
X140917406Y-92465158D01*
X140969421Y-92513479D01*
X140987055Y-92582251D01*
X140979112Y-92622121D01*
X140941522Y-92722391D01*
X140937895Y-92737649D01*
X140932369Y-92788514D01*
X140932000Y-92795328D01*
X140932000Y-93167885D01*
X140936475Y-93183124D01*
X140937865Y-93184329D01*
X140945548Y-93186000D01*
X141617885Y-93186000D01*
X141633124Y-93181525D01*
X141634329Y-93180135D01*
X141636000Y-93172452D01*
X141636000Y-92350116D01*
X141631525Y-92334877D01*
X141630135Y-92333672D01*
X141622452Y-92332001D01*
X141395331Y-92332001D01*
X141388512Y-92332370D01*
X141342476Y-92337371D01*
X141272594Y-92324842D01*
X141220579Y-92276521D01*
X141202945Y-92207749D01*
X141210888Y-92167879D01*
X141248478Y-92067609D01*
X141252105Y-92052351D01*
X141257631Y-92001486D01*
X141258000Y-91994672D01*
X141258000Y-91772115D01*
X141253525Y-91756876D01*
X141252135Y-91755671D01*
X141244452Y-91754000D01*
X140622115Y-91754000D01*
X140606876Y-91758475D01*
X140605671Y-91759865D01*
X140604000Y-91767548D01*
X140604000Y-92439884D01*
X140158500Y-92439884D01*
X140158500Y-91372000D01*
X140178502Y-91303879D01*
X140232158Y-91257386D01*
X140284500Y-91246000D01*
X141213016Y-91246000D01*
X141281137Y-91266002D01*
G37*
%TD.AperFunction*%
%TA.AperFunction,Conductor*%
G36*
X122854807Y-91462835D02*
G01*
X122888416Y-91525373D01*
X122890732Y-91561220D01*
X122888775Y-91586086D01*
X122895084Y-91987697D01*
X122939160Y-92386932D01*
X122939762Y-92389841D01*
X122939764Y-92389851D01*
X123016469Y-92760247D01*
X123020611Y-92780247D01*
X123021484Y-92783083D01*
X123021484Y-92783085D01*
X123137845Y-93161320D01*
X123138716Y-93164151D01*
X123292425Y-93535237D01*
X123450554Y-93833891D01*
X123459412Y-93850620D01*
X123473611Y-93920182D01*
X123447948Y-93986378D01*
X123390570Y-94028191D01*
X123335325Y-94034934D01*
X123301692Y-94031517D01*
X123259665Y-94027248D01*
X123259661Y-94027248D01*
X123253538Y-94026626D01*
X123129475Y-94038354D01*
X123062771Y-94044659D01*
X123062769Y-94044659D01*
X123056638Y-94045239D01*
X123006063Y-94060316D01*
X122952616Y-94076249D01*
X122916620Y-94081500D01*
X122801866Y-94081500D01*
X122739684Y-94088255D01*
X122603295Y-94139385D01*
X122486739Y-94226739D01*
X122481358Y-94233919D01*
X122481357Y-94233920D01*
X122400826Y-94341372D01*
X122343967Y-94383887D01*
X122273148Y-94388913D01*
X122210855Y-94354853D01*
X122199174Y-94341372D01*
X122118643Y-94233920D01*
X122118642Y-94233919D01*
X122113261Y-94226739D01*
X121996705Y-94139385D01*
X121860316Y-94088255D01*
X121798134Y-94081500D01*
X121683299Y-94081500D01*
X121645620Y-94075734D01*
X121620032Y-94067715D01*
X121557232Y-94048035D01*
X121551109Y-94047370D01*
X121551105Y-94047369D01*
X121366737Y-94027341D01*
X121366733Y-94027341D01*
X121360612Y-94026676D01*
X121200237Y-94040707D01*
X121130634Y-94026718D01*
X121079641Y-93977318D01*
X121063451Y-93908192D01*
X121080138Y-93852186D01*
X121304920Y-93462853D01*
X121307654Y-93458339D01*
X121607864Y-92985283D01*
X121809602Y-92667395D01*
X121812512Y-92663014D01*
X121823316Y-92647470D01*
X122347156Y-91893763D01*
X122350256Y-91889496D01*
X122364569Y-91870640D01*
X122439353Y-91772115D01*
X122664757Y-91475156D01*
X122721875Y-91432989D01*
X122792723Y-91428396D01*
X122854807Y-91462835D01*
G37*
%TD.AperFunction*%
%TA.AperFunction,Conductor*%
G36*
X132856528Y-84056045D02*
G01*
X132889178Y-84119089D01*
X132891500Y-84143165D01*
X132891500Y-85843133D01*
X132898255Y-85905315D01*
X132949385Y-86041704D01*
X133036739Y-86158260D01*
X133153295Y-86245614D01*
X133289684Y-86296744D01*
X133351866Y-86303499D01*
X134265500Y-86303499D01*
X134333621Y-86323501D01*
X134380114Y-86377157D01*
X134391500Y-86429499D01*
X134391500Y-86793121D01*
X134391501Y-86793145D01*
X134391501Y-86890500D01*
X134371499Y-86958621D01*
X134317843Y-87005114D01*
X134265501Y-87016500D01*
X134083392Y-87016500D01*
X134045293Y-87010602D01*
X134027993Y-87005114D01*
X133960694Y-86983765D01*
X133955398Y-86983171D01*
X133950302Y-86981613D01*
X133857743Y-86972210D01*
X133856607Y-86972089D01*
X133822992Y-86968319D01*
X133810270Y-86966892D01*
X133810266Y-86966892D01*
X133806773Y-86966500D01*
X133803246Y-86966500D01*
X133802261Y-86966445D01*
X133796581Y-86965998D01*
X133767175Y-86963011D01*
X133759663Y-86962248D01*
X133759661Y-86962248D01*
X133753538Y-86961626D01*
X133712747Y-86965482D01*
X133707891Y-86965941D01*
X133696033Y-86966500D01*
X132250231Y-86966500D01*
X132247175Y-86966800D01*
X132247168Y-86966800D01*
X132192578Y-86972153D01*
X132103167Y-86980920D01*
X132097266Y-86982702D01*
X132097264Y-86982702D01*
X132023947Y-87004838D01*
X131913831Y-87038084D01*
X131908391Y-87040976D01*
X131908392Y-87040976D01*
X131790207Y-87103815D01*
X131768737Y-87112796D01*
X131731301Y-87124528D01*
X131584619Y-87213361D01*
X131463361Y-87334619D01*
X131374528Y-87481301D01*
X131372257Y-87488548D01*
X131372256Y-87488550D01*
X131361867Y-87521703D01*
X131323247Y-87644938D01*
X131316500Y-87718365D01*
X131316500Y-87722515D01*
X131316418Y-87723060D01*
X131316368Y-87724140D01*
X131316255Y-87724135D01*
X131310867Y-87759767D01*
X131307318Y-87771232D01*
X131286645Y-87967925D01*
X131304570Y-88164888D01*
X131306310Y-88170799D01*
X131306310Y-88170801D01*
X131311375Y-88188010D01*
X131316501Y-88223584D01*
X131316501Y-88231634D01*
X131323247Y-88305062D01*
X131325246Y-88311440D01*
X131325246Y-88311441D01*
X131335481Y-88344099D01*
X131374528Y-88468699D01*
X131378462Y-88475195D01*
X131378463Y-88475197D01*
X131393623Y-88500229D01*
X131411802Y-88568859D01*
X131389991Y-88636422D01*
X131335115Y-88681468D01*
X131285847Y-88691500D01*
X131204513Y-88691500D01*
X131198061Y-88692872D01*
X131198056Y-88692872D01*
X131111112Y-88711353D01*
X131017712Y-88731206D01*
X131011682Y-88733891D01*
X131011681Y-88733891D01*
X130849278Y-88806197D01*
X130849276Y-88806198D01*
X130843248Y-88808882D01*
X130688747Y-88921134D01*
X130628308Y-88988259D01*
X130616154Y-89001757D01*
X130555708Y-89038997D01*
X130484725Y-89037645D01*
X130426708Y-88999278D01*
X130257833Y-88801550D01*
X130144270Y-88691500D01*
X129971529Y-88524102D01*
X129971520Y-88524094D01*
X129969390Y-88522030D01*
X129655922Y-88270894D01*
X129529743Y-88188010D01*
X129322695Y-88052005D01*
X129322685Y-88051999D01*
X129320211Y-88050374D01*
X128965237Y-87862425D01*
X128594151Y-87708716D01*
X128210247Y-87590611D01*
X128207344Y-87590010D01*
X128207337Y-87590008D01*
X127819851Y-87509764D01*
X127819841Y-87509762D01*
X127816932Y-87509160D01*
X127417697Y-87465084D01*
X127414716Y-87465037D01*
X127414713Y-87465037D01*
X127302454Y-87463274D01*
X127016086Y-87458775D01*
X126995649Y-87460383D01*
X126983555Y-87461335D01*
X126914075Y-87446739D01*
X126863516Y-87396896D01*
X126847930Y-87327631D01*
X126872266Y-87260936D01*
X126895403Y-87236980D01*
X126944262Y-87198255D01*
X126948457Y-87195071D01*
X127045557Y-87124524D01*
X127706325Y-86644447D01*
X127710659Y-86641435D01*
X127971567Y-86468088D01*
X128490923Y-86123029D01*
X128495357Y-86120215D01*
X129296645Y-85634938D01*
X129301215Y-85632299D01*
X130122128Y-85180999D01*
X130126805Y-85178554D01*
X130965881Y-84762032D01*
X130970656Y-84759785D01*
X131826445Y-84378764D01*
X131831310Y-84376719D01*
X131945942Y-84331333D01*
X132702326Y-84031859D01*
X132707229Y-84030036D01*
X132724068Y-84024172D01*
X132794977Y-84020662D01*
X132856528Y-84056045D01*
G37*
%TD.AperFunction*%
%TA.AperFunction,Conductor*%
G36*
X147685938Y-83787609D02*
G01*
X147725219Y-83801288D01*
X148382072Y-84030028D01*
X148386996Y-84031859D01*
X149143380Y-84331333D01*
X149258012Y-84376719D01*
X149262877Y-84378764D01*
X150118666Y-84759785D01*
X150123441Y-84762032D01*
X150962517Y-85178554D01*
X150967194Y-85180999D01*
X151788108Y-85632299D01*
X151792678Y-85634938D01*
X152593965Y-86120215D01*
X152598399Y-86123029D01*
X153117755Y-86468088D01*
X153378663Y-86641435D01*
X153382997Y-86644447D01*
X154043766Y-87124524D01*
X154140865Y-87195071D01*
X154145060Y-87198255D01*
X154169203Y-87217390D01*
X154210164Y-87275377D01*
X154213273Y-87346306D01*
X154177541Y-87407655D01*
X154114314Y-87439948D01*
X154088959Y-87442119D01*
X154050000Y-87441507D01*
X153876086Y-87438775D01*
X153873142Y-87439007D01*
X153873132Y-87439007D01*
X153504544Y-87468016D01*
X153475663Y-87470289D01*
X153079984Y-87539346D01*
X153077117Y-87540130D01*
X153077105Y-87540133D01*
X152695423Y-87644549D01*
X152695413Y-87644552D01*
X152692559Y-87645333D01*
X152689795Y-87646377D01*
X152689784Y-87646381D01*
X152319601Y-87786262D01*
X152316828Y-87787310D01*
X152314161Y-87788617D01*
X152314160Y-87788617D01*
X151960658Y-87961796D01*
X151956126Y-87964016D01*
X151953591Y-87965569D01*
X151953590Y-87965570D01*
X151852618Y-88027446D01*
X151613654Y-88173883D01*
X151400152Y-88334185D01*
X151333669Y-88359091D01*
X151264273Y-88344099D01*
X151213999Y-88293969D01*
X151198500Y-88233425D01*
X151198500Y-87711866D01*
X151191745Y-87649684D01*
X151140615Y-87513295D01*
X151053261Y-87396739D01*
X150936705Y-87309385D01*
X150800316Y-87258255D01*
X150738134Y-87251500D01*
X150506371Y-87251500D01*
X150438250Y-87231498D01*
X150417276Y-87214595D01*
X150225442Y-87022761D01*
X150191416Y-86960449D01*
X150196555Y-86889436D01*
X150238478Y-86777606D01*
X150242105Y-86762351D01*
X150247631Y-86711486D01*
X150248000Y-86704672D01*
X150248000Y-86482115D01*
X150243525Y-86466876D01*
X150242135Y-86465671D01*
X150234452Y-86464000D01*
X149677821Y-86464000D01*
X149624474Y-86452149D01*
X149574658Y-86428867D01*
X149570736Y-86426950D01*
X149505703Y-86393742D01*
X149498595Y-86392003D01*
X149492952Y-86389904D01*
X149487189Y-86387987D01*
X149480561Y-86384889D01*
X149409094Y-86370024D01*
X149404810Y-86369054D01*
X149358691Y-86357769D01*
X149333901Y-86351703D01*
X149328299Y-86351355D01*
X149328296Y-86351355D01*
X149322747Y-86351011D01*
X149322749Y-86350975D01*
X149318756Y-86350736D01*
X149314564Y-86350362D01*
X149307396Y-86348871D01*
X149241186Y-86350662D01*
X149229990Y-86350965D01*
X149226583Y-86351011D01*
X147619501Y-86351011D01*
X147551380Y-86331009D01*
X147504887Y-86277353D01*
X147493501Y-86225011D01*
X147493501Y-85986826D01*
X147501519Y-85942596D01*
X147503285Y-85937885D01*
X148432000Y-85937885D01*
X148436475Y-85953124D01*
X148437865Y-85954329D01*
X148445548Y-85956000D01*
X149067885Y-85956000D01*
X149083124Y-85951525D01*
X149084329Y-85950135D01*
X149086000Y-85942452D01*
X149086000Y-85937885D01*
X149594000Y-85937885D01*
X149598475Y-85953124D01*
X149599865Y-85954329D01*
X149607548Y-85956000D01*
X150229884Y-85956000D01*
X150245123Y-85951525D01*
X150246328Y-85950135D01*
X150247999Y-85942452D01*
X150247999Y-85715331D01*
X150247629Y-85708510D01*
X150242105Y-85657648D01*
X150238479Y-85642396D01*
X150193324Y-85521946D01*
X150184786Y-85506351D01*
X150108285Y-85404276D01*
X150095724Y-85391715D01*
X149993649Y-85315214D01*
X149978054Y-85306676D01*
X149857606Y-85261522D01*
X149842351Y-85257895D01*
X149791486Y-85252369D01*
X149784672Y-85252000D01*
X149612115Y-85252000D01*
X149596876Y-85256475D01*
X149595671Y-85257865D01*
X149594000Y-85265548D01*
X149594000Y-85937885D01*
X149086000Y-85937885D01*
X149086000Y-85270116D01*
X149081525Y-85254877D01*
X149080135Y-85253672D01*
X149072452Y-85252001D01*
X148895331Y-85252001D01*
X148888510Y-85252371D01*
X148837648Y-85257895D01*
X148822396Y-85261521D01*
X148701946Y-85306676D01*
X148686351Y-85315214D01*
X148584276Y-85391715D01*
X148571715Y-85404276D01*
X148495214Y-85506351D01*
X148486676Y-85521946D01*
X148441522Y-85642394D01*
X148437895Y-85657649D01*
X148432369Y-85708514D01*
X148432000Y-85715328D01*
X148432000Y-85937885D01*
X147503285Y-85937885D01*
X147508972Y-85922715D01*
X147511746Y-85915316D01*
X147518501Y-85853134D01*
X147518501Y-83906600D01*
X147538503Y-83838479D01*
X147592159Y-83791986D01*
X147662433Y-83781882D01*
X147685938Y-83787609D01*
G37*
%TD.AperFunction*%
%TA.AperFunction,Conductor*%
G36*
X141841121Y-83636002D02*
G01*
X141887614Y-83689658D01*
X141899000Y-83742000D01*
X141899000Y-85188517D01*
X141903064Y-85202359D01*
X141916478Y-85204393D01*
X141923184Y-85203534D01*
X141933262Y-85201392D01*
X142137255Y-85140191D01*
X142146842Y-85136433D01*
X142320068Y-85051570D01*
X142390042Y-85039563D01*
X142455399Y-85067293D01*
X142495389Y-85125956D01*
X142501501Y-85164721D01*
X142501501Y-85853134D01*
X142508256Y-85915316D01*
X142559386Y-86051705D01*
X142646740Y-86168261D01*
X142763296Y-86255615D01*
X142899685Y-86306745D01*
X142961867Y-86313500D01*
X143865500Y-86313500D01*
X143933621Y-86333502D01*
X143980114Y-86387158D01*
X143991500Y-86439500D01*
X143991500Y-86890500D01*
X143971498Y-86958621D01*
X143917842Y-87005114D01*
X143865500Y-87016500D01*
X143783390Y-87016500D01*
X143745291Y-87010602D01*
X143666569Y-86985629D01*
X143666565Y-86985628D01*
X143660695Y-86983766D01*
X143655392Y-86983171D01*
X143650292Y-86981612D01*
X143644164Y-86980990D01*
X143644161Y-86980989D01*
X143604469Y-86976958D01*
X143557785Y-86972216D01*
X143556614Y-86972091D01*
X143520779Y-86968072D01*
X143510270Y-86966893D01*
X143510268Y-86966893D01*
X143506774Y-86966501D01*
X143503247Y-86966501D01*
X143502244Y-86966445D01*
X143496567Y-86965998D01*
X143468131Y-86963110D01*
X143459654Y-86962249D01*
X143459652Y-86962249D01*
X143453528Y-86961627D01*
X143407887Y-86965942D01*
X143396028Y-86966501D01*
X142445831Y-86966500D01*
X141950232Y-86966500D01*
X141947176Y-86966800D01*
X141947169Y-86966800D01*
X141892579Y-86972153D01*
X141803168Y-86980920D01*
X141797267Y-86982702D01*
X141797265Y-86982702D01*
X141723948Y-87004838D01*
X141613832Y-87038084D01*
X141608392Y-87040976D01*
X141608393Y-87040976D01*
X141490210Y-87103814D01*
X141468738Y-87112796D01*
X141431301Y-87124528D01*
X141424804Y-87128463D01*
X141424801Y-87128464D01*
X141387542Y-87151029D01*
X141284619Y-87213361D01*
X141279248Y-87218732D01*
X141278669Y-87219186D01*
X141212721Y-87245479D01*
X141143026Y-87231944D01*
X141125356Y-87220858D01*
X141103892Y-87204771D01*
X141103890Y-87204770D01*
X141096705Y-87199385D01*
X140960316Y-87148255D01*
X140952460Y-87147402D01*
X140944778Y-87145575D01*
X140945302Y-87143371D01*
X140888157Y-87118995D01*
X140827734Y-87068294D01*
X140827730Y-87068291D01*
X140823015Y-87064335D01*
X140818345Y-87061767D01*
X140814228Y-87058386D01*
X140747787Y-87022761D01*
X140732403Y-87014512D01*
X140731244Y-87013883D01*
X140655108Y-86972027D01*
X140655100Y-86972024D01*
X140649702Y-86969056D01*
X140644620Y-86967444D01*
X140639926Y-86964927D01*
X140550958Y-86937727D01*
X140549930Y-86937407D01*
X140461183Y-86909254D01*
X140455887Y-86908660D01*
X140450791Y-86907102D01*
X140358232Y-86897699D01*
X140357096Y-86897578D01*
X140323481Y-86893808D01*
X140310759Y-86892381D01*
X140310755Y-86892381D01*
X140307262Y-86891989D01*
X140303735Y-86891989D01*
X140302750Y-86891934D01*
X140297070Y-86891487D01*
X140267664Y-86888500D01*
X140260152Y-86887737D01*
X140260150Y-86887737D01*
X140254027Y-86887115D01*
X140218219Y-86890500D01*
X140208380Y-86891430D01*
X140196522Y-86891989D01*
X137934501Y-86891989D01*
X137866380Y-86871987D01*
X137819887Y-86818331D01*
X137808501Y-86765989D01*
X137808501Y-86139873D01*
X137828503Y-86071752D01*
X137833675Y-86064308D01*
X137845233Y-86048887D01*
X137845237Y-86048880D01*
X137850615Y-86041704D01*
X137901745Y-85905315D01*
X137908500Y-85843133D01*
X137908500Y-85315002D01*
X137928502Y-85246881D01*
X137982158Y-85200388D01*
X138052432Y-85190284D01*
X138078729Y-85197020D01*
X138137282Y-85218971D01*
X138137288Y-85218973D01*
X138144684Y-85221745D01*
X138206866Y-85228500D01*
X140003134Y-85228500D01*
X140065316Y-85221745D01*
X140201705Y-85170615D01*
X140318261Y-85083261D01*
X140405615Y-84966705D01*
X140449798Y-84848848D01*
X140492440Y-84792084D01*
X140559001Y-84767384D01*
X140628350Y-84782592D01*
X140663017Y-84810580D01*
X140688218Y-84839673D01*
X140695580Y-84846883D01*
X140859434Y-84982916D01*
X140867881Y-84988831D01*
X141051756Y-85096279D01*
X141061042Y-85100729D01*
X141260001Y-85176703D01*
X141269899Y-85179579D01*
X141373250Y-85200606D01*
X141387299Y-85199410D01*
X141391000Y-85189065D01*
X141391000Y-83742000D01*
X141411002Y-83673879D01*
X141464658Y-83627386D01*
X141517000Y-83616000D01*
X141773000Y-83616000D01*
X141841121Y-83636002D01*
G37*
%TD.AperFunction*%
%TD*%
M02*
