%TF.GenerationSoftware,KiCad,Pcbnew,6.0.6-3a73a75311~116~ubuntu20.04.1*%
%TF.CreationDate,2022-09-22T10:25:09+01:00*%
%TF.ProjectId,UFOPulse,55464f50-756c-4736-952e-6b696361645f,rev?*%
%TF.SameCoordinates,Original*%
%TF.FileFunction,Copper,L4,Bot*%
%TF.FilePolarity,Positive*%
%FSLAX46Y46*%
G04 Gerber Fmt 4.6, Leading zero omitted, Abs format (unit mm)*
G04 Created by KiCad (PCBNEW 6.0.6-3a73a75311~116~ubuntu20.04.1) date 2022-09-22 10:25:09*
%MOMM*%
%LPD*%
G01*
G04 APERTURE LIST*
%TA.AperFunction,ComponentPad*%
%ADD10C,7.500000*%
%TD*%
%TA.AperFunction,SMDPad,CuDef*%
%ADD11R,0.740000X2.400000*%
%TD*%
%TA.AperFunction,ComponentPad*%
%ADD12R,1.700000X1.700000*%
%TD*%
%TA.AperFunction,ComponentPad*%
%ADD13O,1.700000X1.700000*%
%TD*%
%TA.AperFunction,ViaPad*%
%ADD14C,0.800000*%
%TD*%
%TA.AperFunction,Conductor*%
%ADD15C,0.500000*%
%TD*%
G04 APERTURE END LIST*
D10*
%TO.P,H4,1*%
%TO.N,N/C*%
X127130000Y-118570000D03*
%TD*%
%TO.P,H3,1*%
%TO.N,N/C*%
X154010000Y-118560000D03*
%TD*%
%TO.P,H2,1*%
%TO.N,N/C*%
X154010000Y-91700000D03*
%TD*%
%TO.P,H1,1*%
%TO.N,N/C*%
X127150000Y-91720000D03*
%TD*%
D11*
%TO.P,J9,1,Pin_1*%
%TO.N,GND*%
X136000000Y-117400000D03*
%TO.P,J9,2,Pin_2*%
%TO.N,TRIG0*%
X136000000Y-121300000D03*
%TO.P,J9,3,Pin_3*%
%TO.N,GND*%
X137270000Y-117400000D03*
%TO.P,J9,4,Pin_4*%
%TO.N,TRIG1*%
X137270000Y-121300000D03*
%TO.P,J9,5,Pin_5*%
%TO.N,GND*%
X138540000Y-117400000D03*
%TO.P,J9,6,Pin_6*%
%TO.N,TRIG2*%
X138540000Y-121300000D03*
%TO.P,J9,7,Pin_7*%
%TO.N,GND*%
X139810000Y-117400000D03*
%TO.P,J9,8,Pin_8*%
%TO.N,TRIG3*%
X139810000Y-121300000D03*
%TO.P,J9,9,Pin_9*%
%TO.N,GND*%
X141080000Y-117400000D03*
%TO.P,J9,10,Pin_10*%
%TO.N,TRIG4*%
X141080000Y-121300000D03*
%TO.P,J9,11,Pin_11*%
%TO.N,GND*%
X142350000Y-117400000D03*
%TO.P,J9,12,Pin_12*%
%TO.N,TRIG5*%
X142350000Y-121300000D03*
%TO.P,J9,13,Pin_13*%
%TO.N,GND*%
X143620000Y-117400000D03*
%TO.P,J9,14,Pin_14*%
%TO.N,TRIG6*%
X143620000Y-121300000D03*
%TO.P,J9,15,Pin_15*%
%TO.N,GND*%
X144890000Y-117400000D03*
%TO.P,J9,16,Pin_16*%
%TO.N,TRIG7*%
X144890000Y-121300000D03*
%TD*%
D12*
%TO.P,J10,1,Pin_1*%
%TO.N,VCC*%
X139105000Y-83870000D03*
D13*
%TO.P,J10,2,Pin_2*%
%TO.N,GND*%
X141645000Y-83870000D03*
%TD*%
D14*
%TO.N,GND*%
X158550000Y-118160000D03*
X120400000Y-106000000D03*
X118800000Y-104900000D03*
X161600000Y-103800000D03*
X140620000Y-94010000D03*
X122370000Y-93060000D03*
X121900000Y-104800000D03*
X145800000Y-117100000D03*
X133760000Y-93160000D03*
X151900000Y-86600000D03*
X130600000Y-85700000D03*
X130660000Y-100840000D03*
X128779312Y-97719312D03*
X159900000Y-95200000D03*
X140500000Y-92700000D03*
X157500000Y-94700000D03*
X161700000Y-105900000D03*
X150800000Y-95110000D03*
X143460000Y-93400000D03*
X159600000Y-105800000D03*
X122260000Y-95890000D03*
X132170000Y-93510000D03*
X129520000Y-124170000D03*
X159500000Y-103700000D03*
X128650000Y-123440000D03*
X140500000Y-126700000D03*
X148990000Y-98010000D03*
X148900000Y-85100000D03*
X128000000Y-87000000D03*
X150200000Y-124700000D03*
X156750000Y-114780000D03*
X130620000Y-95140000D03*
X153800000Y-106040000D03*
X121600000Y-114300000D03*
X155340000Y-114250000D03*
X160500000Y-96300000D03*
X129860000Y-113960000D03*
X158860000Y-116770000D03*
X123280000Y-115610000D03*
X149520000Y-94950000D03*
X129700000Y-88000000D03*
X146900000Y-114070000D03*
X140470000Y-115740000D03*
X139430000Y-89000000D03*
X122290000Y-117190000D03*
X120300000Y-103800000D03*
X141800000Y-126800000D03*
%TO.N,TRIG1*%
X133350000Y-113290000D03*
%TO.N,TRIG3*%
X133000000Y-94700000D03*
%TO.N,TRIG5*%
X150900000Y-97500000D03*
%TO.N,TRIG7*%
X147200000Y-117000000D03*
%TO.N,TRIG0*%
X134200000Y-113900000D03*
%TO.N,TRIG2*%
X131800000Y-98100000D03*
%TO.N,TRIG4*%
X147800000Y-96600000D03*
%TO.N,TRIG6*%
X148150000Y-112980000D03*
%TO.N,VCC*%
X155700000Y-96400000D03*
X151200000Y-122600000D03*
X154800000Y-106900000D03*
X125400000Y-114400000D03*
X139001042Y-125801040D03*
X131300000Y-89600000D03*
X142000000Y-90700000D03*
X126700000Y-102900000D03*
%TD*%
D15*
%TO.N,TRIG1*%
X137300000Y-122800000D02*
X137300000Y-121500000D01*
X133350000Y-113290000D02*
X133350000Y-123250000D01*
X133500000Y-123400000D02*
X136700000Y-123400000D01*
X133350000Y-123250000D02*
X133500000Y-123400000D01*
X136700000Y-123400000D02*
X137300000Y-122800000D01*
%TO.N,TRIG3*%
X129100000Y-98600000D02*
X133000000Y-94700000D01*
X132510000Y-125000000D02*
X131690000Y-124180000D01*
X129100000Y-109500000D02*
X129100000Y-98600000D01*
X131690000Y-112090000D02*
X129100000Y-109500000D01*
X131690000Y-124180000D02*
X131690000Y-112090000D01*
X138300000Y-125000000D02*
X132510000Y-125000000D01*
X139800000Y-123500000D02*
X138300000Y-125000000D01*
X139800000Y-121300000D02*
X139800000Y-123500000D01*
%TO.N,TRIG5*%
X146764964Y-124200000D02*
X148849520Y-122115444D01*
X142300000Y-123400000D02*
X143100000Y-124200000D01*
X151300000Y-97900000D02*
X150900000Y-97500000D01*
X148849520Y-113650480D02*
X151300000Y-111200000D01*
X151300000Y-111200000D02*
X151300000Y-97900000D01*
X143100000Y-124200000D02*
X146764964Y-124200000D01*
X142300000Y-121600000D02*
X142300000Y-123400000D01*
X148849520Y-122115444D02*
X148849520Y-113650480D01*
%TO.N,TRIG7*%
X147200000Y-120300000D02*
X147200000Y-117000000D01*
X145700000Y-121800000D02*
X147200000Y-120300000D01*
X144900000Y-121800000D02*
X145700000Y-121800000D01*
%TO.N,TRIG0*%
X134400000Y-114100000D02*
X134200000Y-113900000D01*
X136000000Y-121800000D02*
X135100000Y-121800000D01*
X135100000Y-121800000D02*
X134400000Y-121100000D01*
X134400000Y-121100000D02*
X134400000Y-114100000D01*
%TO.N,TRIG2*%
X138400000Y-123000000D02*
X137200000Y-124200000D01*
X129800000Y-100100000D02*
X131800000Y-98100000D01*
X129800000Y-109200000D02*
X129800000Y-100100000D01*
X132480000Y-123380000D02*
X132480000Y-111880000D01*
X138400000Y-121300000D02*
X138400000Y-123000000D01*
X133300000Y-124200000D02*
X132480000Y-123380000D01*
X132480000Y-111880000D02*
X129800000Y-109200000D01*
X137200000Y-124200000D02*
X133300000Y-124200000D01*
%TO.N,TRIG4*%
X150958002Y-96300000D02*
X148100000Y-96300000D01*
X142500000Y-125100000D02*
X146900000Y-125100000D01*
X149549040Y-122450960D02*
X149549040Y-113940923D01*
X141000000Y-123600000D02*
X142500000Y-125100000D01*
X146900000Y-125100000D02*
X149549040Y-122450960D01*
X148100000Y-96300000D02*
X147800000Y-96600000D01*
X149549040Y-113940923D02*
X152200000Y-111289963D01*
X152200000Y-97541998D02*
X150958002Y-96300000D01*
X152200000Y-111289963D02*
X152200000Y-97541998D01*
X141000000Y-121500000D02*
X141000000Y-123600000D01*
%TO.N,TRIG6*%
X144000000Y-123400000D02*
X143600000Y-123000000D01*
X143600000Y-121800000D02*
X143500000Y-121700000D01*
X143600000Y-123000000D02*
X143600000Y-121800000D01*
X146575002Y-123400000D02*
X144000000Y-123400000D01*
X148150000Y-112980000D02*
X148150000Y-121825002D01*
X148150000Y-121825002D02*
X146575002Y-123400000D01*
%TD*%
%TA.AperFunction,Conductor*%
%TO.N,GND*%
G36*
X130888960Y-120866374D02*
G01*
X130926745Y-120926481D01*
X130931500Y-120960769D01*
X130931500Y-124112930D01*
X130930067Y-124131880D01*
X130928181Y-124144279D01*
X130926801Y-124153349D01*
X130927394Y-124160641D01*
X130927394Y-124160644D01*
X130931085Y-124206018D01*
X130931500Y-124216233D01*
X130931500Y-124224293D01*
X130931925Y-124227937D01*
X130934789Y-124252507D01*
X130935222Y-124256882D01*
X130941140Y-124329637D01*
X130943396Y-124336601D01*
X130944587Y-124342560D01*
X130945971Y-124348415D01*
X130946818Y-124355681D01*
X130971735Y-124424327D01*
X130973152Y-124428455D01*
X130995649Y-124497899D01*
X130999445Y-124504154D01*
X131001951Y-124509628D01*
X131004670Y-124515058D01*
X131007167Y-124521937D01*
X131011180Y-124528057D01*
X131011180Y-124528058D01*
X131047186Y-124582976D01*
X131049523Y-124586680D01*
X131087405Y-124649107D01*
X131091121Y-124653315D01*
X131091122Y-124653316D01*
X131094803Y-124657484D01*
X131094776Y-124657508D01*
X131097429Y-124660500D01*
X131100132Y-124663733D01*
X131104144Y-124669852D01*
X131109456Y-124674884D01*
X131160383Y-124723128D01*
X131162825Y-124725506D01*
X131926230Y-125488911D01*
X131938616Y-125503323D01*
X131947149Y-125514918D01*
X131947154Y-125514923D01*
X131951492Y-125520818D01*
X131957070Y-125525557D01*
X131957073Y-125525560D01*
X131991768Y-125555035D01*
X131999284Y-125561965D01*
X132004979Y-125567660D01*
X132007861Y-125569940D01*
X132027251Y-125585281D01*
X132030655Y-125588072D01*
X132079557Y-125629617D01*
X132086285Y-125635333D01*
X132092801Y-125638661D01*
X132097850Y-125642028D01*
X132102979Y-125645195D01*
X132108716Y-125649734D01*
X132174875Y-125680655D01*
X132178769Y-125682558D01*
X132243808Y-125715769D01*
X132250916Y-125717508D01*
X132256559Y-125719607D01*
X132262322Y-125721524D01*
X132268950Y-125724622D01*
X132276112Y-125726112D01*
X132276113Y-125726112D01*
X132340412Y-125739486D01*
X132344696Y-125740456D01*
X132415610Y-125757808D01*
X132421212Y-125758156D01*
X132421215Y-125758156D01*
X132426764Y-125758500D01*
X132426762Y-125758536D01*
X132430755Y-125758775D01*
X132434947Y-125759149D01*
X132442115Y-125760640D01*
X132519520Y-125758546D01*
X132522928Y-125758500D01*
X137969616Y-125758500D01*
X138037737Y-125778502D01*
X138084230Y-125832158D01*
X138094925Y-125871328D01*
X138107500Y-125990968D01*
X138166515Y-126172596D01*
X138262002Y-126337984D01*
X138389789Y-126479906D01*
X138544290Y-126592158D01*
X138550318Y-126594842D01*
X138550320Y-126594843D01*
X138712723Y-126667149D01*
X138718754Y-126669834D01*
X138812155Y-126689687D01*
X138899098Y-126708168D01*
X138899103Y-126708168D01*
X138905555Y-126709540D01*
X139096529Y-126709540D01*
X139102981Y-126708168D01*
X139102986Y-126708168D01*
X139189929Y-126689687D01*
X139283330Y-126669834D01*
X139289361Y-126667149D01*
X139451764Y-126594843D01*
X139451766Y-126594842D01*
X139457794Y-126592158D01*
X139612295Y-126479906D01*
X139740082Y-126337984D01*
X139835569Y-126172596D01*
X139894584Y-125990968D01*
X139908552Y-125858075D01*
X139913856Y-125807605D01*
X139914546Y-125801040D01*
X139908123Y-125739931D01*
X139895274Y-125617675D01*
X139895274Y-125617673D01*
X139894584Y-125611112D01*
X139835569Y-125429484D01*
X139740082Y-125264096D01*
X139612295Y-125122174D01*
X139522101Y-125056644D01*
X139478748Y-125000421D01*
X139472673Y-124929685D01*
X139507068Y-124865613D01*
X140259992Y-124112689D01*
X140322304Y-124078663D01*
X140393119Y-124083728D01*
X140435739Y-124110310D01*
X140470382Y-124143127D01*
X140472825Y-124145506D01*
X141916230Y-125588911D01*
X141928616Y-125603323D01*
X141937149Y-125614918D01*
X141937154Y-125614923D01*
X141941492Y-125620818D01*
X141947070Y-125625557D01*
X141947073Y-125625560D01*
X141981768Y-125655035D01*
X141989284Y-125661965D01*
X141994979Y-125667660D01*
X141997861Y-125669940D01*
X142017251Y-125685281D01*
X142020655Y-125688072D01*
X142057774Y-125719607D01*
X142076285Y-125735333D01*
X142082801Y-125738661D01*
X142087850Y-125742028D01*
X142092979Y-125745195D01*
X142098716Y-125749734D01*
X142164875Y-125780655D01*
X142168769Y-125782558D01*
X142233808Y-125815769D01*
X142240916Y-125817508D01*
X142246559Y-125819607D01*
X142252322Y-125821524D01*
X142258950Y-125824622D01*
X142266112Y-125826112D01*
X142266113Y-125826112D01*
X142330412Y-125839486D01*
X142334696Y-125840456D01*
X142405610Y-125857808D01*
X142411212Y-125858156D01*
X142411215Y-125858156D01*
X142416764Y-125858500D01*
X142416762Y-125858536D01*
X142420755Y-125858775D01*
X142424947Y-125859149D01*
X142432115Y-125860640D01*
X142509520Y-125858546D01*
X142512928Y-125858500D01*
X146832930Y-125858500D01*
X146851880Y-125859933D01*
X146866115Y-125862099D01*
X146866119Y-125862099D01*
X146873349Y-125863199D01*
X146880641Y-125862606D01*
X146880644Y-125862606D01*
X146926018Y-125858915D01*
X146936233Y-125858500D01*
X146944293Y-125858500D01*
X146961680Y-125856473D01*
X146972507Y-125855211D01*
X146976882Y-125854778D01*
X147042339Y-125849454D01*
X147042342Y-125849453D01*
X147049637Y-125848860D01*
X147056601Y-125846604D01*
X147062560Y-125845413D01*
X147068415Y-125844029D01*
X147075681Y-125843182D01*
X147144327Y-125818265D01*
X147148455Y-125816848D01*
X147210936Y-125796607D01*
X147210938Y-125796606D01*
X147217899Y-125794351D01*
X147224154Y-125790555D01*
X147229628Y-125788049D01*
X147235058Y-125785330D01*
X147241937Y-125782833D01*
X147276089Y-125760442D01*
X147302976Y-125742814D01*
X147306680Y-125740477D01*
X147369107Y-125702595D01*
X147377484Y-125695197D01*
X147377508Y-125695224D01*
X147380500Y-125692571D01*
X147383733Y-125689868D01*
X147389852Y-125685856D01*
X147443128Y-125629617D01*
X147445506Y-125627175D01*
X150037951Y-123034730D01*
X150052363Y-123022344D01*
X150063958Y-123013811D01*
X150063963Y-123013806D01*
X150069858Y-123009468D01*
X150074597Y-123003890D01*
X150074600Y-123003887D01*
X150104075Y-122969192D01*
X150111005Y-122961676D01*
X150116700Y-122955981D01*
X150134321Y-122933709D01*
X150137113Y-122930303D01*
X150146485Y-122919272D01*
X150205835Y-122880309D01*
X150276828Y-122879618D01*
X150336925Y-122917419D01*
X150362339Y-122961912D01*
X150365473Y-122971556D01*
X150368776Y-122977278D01*
X150368777Y-122977279D01*
X150398053Y-123027986D01*
X150460960Y-123136944D01*
X150588747Y-123278866D01*
X150743248Y-123391118D01*
X150749276Y-123393802D01*
X150749278Y-123393803D01*
X150911681Y-123466109D01*
X150917712Y-123468794D01*
X151011113Y-123488647D01*
X151098056Y-123507128D01*
X151098061Y-123507128D01*
X151104513Y-123508500D01*
X151295487Y-123508500D01*
X151301939Y-123507128D01*
X151301944Y-123507128D01*
X151388887Y-123488647D01*
X151482288Y-123468794D01*
X151488319Y-123466109D01*
X151650722Y-123393803D01*
X151650724Y-123393802D01*
X151656752Y-123391118D01*
X151811253Y-123278866D01*
X151939040Y-123136944D01*
X152001947Y-123027986D01*
X152031223Y-122977279D01*
X152031224Y-122977278D01*
X152034527Y-122971556D01*
X152093542Y-122789928D01*
X152096874Y-122758232D01*
X152112814Y-122606565D01*
X152113504Y-122600000D01*
X152111768Y-122583484D01*
X152124540Y-122513647D01*
X152173041Y-122461800D01*
X152241874Y-122444405D01*
X152288929Y-122455477D01*
X152440564Y-122523943D01*
X152820569Y-122654048D01*
X152823443Y-122654738D01*
X152823450Y-122654740D01*
X153208253Y-122747123D01*
X153208257Y-122747124D01*
X153211132Y-122747814D01*
X153214065Y-122748231D01*
X153214068Y-122748232D01*
X153281396Y-122757814D01*
X153608785Y-122804408D01*
X153927661Y-122819446D01*
X153988944Y-122822336D01*
X154010000Y-122823329D01*
X154012969Y-122823189D01*
X154012973Y-122823189D01*
X154031070Y-122822336D01*
X154100056Y-122839108D01*
X154149024Y-122890515D01*
X154162425Y-122960236D01*
X154136006Y-123026133D01*
X154111066Y-123050129D01*
X153538520Y-123466109D01*
X153382997Y-123579103D01*
X153378663Y-123582115D01*
X152598399Y-124100521D01*
X152593965Y-124103335D01*
X152057129Y-124428455D01*
X151792678Y-124588612D01*
X151788108Y-124591251D01*
X150967194Y-125042551D01*
X150962517Y-125044996D01*
X150123441Y-125461518D01*
X150118666Y-125463765D01*
X149262877Y-125844786D01*
X149258012Y-125846831D01*
X148386996Y-126191691D01*
X148382072Y-126193522D01*
X148048684Y-126309619D01*
X147497413Y-126501592D01*
X147492394Y-126503223D01*
X146595593Y-126773983D01*
X146590510Y-126775402D01*
X145683191Y-127008362D01*
X145678053Y-127009568D01*
X145135758Y-127124837D01*
X144761721Y-127204341D01*
X144756548Y-127205327D01*
X143832867Y-127361556D01*
X143827663Y-127362324D01*
X143284953Y-127430884D01*
X142898289Y-127479731D01*
X142893040Y-127480283D01*
X142217392Y-127537019D01*
X141959531Y-127558672D01*
X141954273Y-127559003D01*
X141148772Y-127592763D01*
X141018335Y-127598230D01*
X141013059Y-127598341D01*
X140076263Y-127598341D01*
X140070987Y-127598230D01*
X139940550Y-127592763D01*
X139135049Y-127559003D01*
X139129791Y-127558672D01*
X138871930Y-127537019D01*
X138196282Y-127480283D01*
X138191033Y-127479731D01*
X137804369Y-127430884D01*
X137261659Y-127362324D01*
X137256455Y-127361556D01*
X136332774Y-127205327D01*
X136327601Y-127204341D01*
X135953564Y-127124837D01*
X135411269Y-127009568D01*
X135406131Y-127008362D01*
X134498812Y-126775402D01*
X134493729Y-126773983D01*
X133596928Y-126503223D01*
X133591909Y-126501592D01*
X133040638Y-126309619D01*
X132707250Y-126193522D01*
X132702326Y-126191691D01*
X131831310Y-125846831D01*
X131826445Y-125844786D01*
X130970656Y-125463765D01*
X130965881Y-125461518D01*
X130126805Y-125044996D01*
X130122128Y-125042551D01*
X129301214Y-124591251D01*
X129296644Y-124588612D01*
X129032193Y-124428455D01*
X128495357Y-124103335D01*
X128490923Y-124100521D01*
X127710659Y-123582115D01*
X127706325Y-123579103D01*
X126989461Y-123058270D01*
X126946107Y-123002048D01*
X126940032Y-122931312D01*
X126973163Y-122868520D01*
X127034983Y-122833608D01*
X127069457Y-122830474D01*
X127127031Y-122833189D01*
X127130000Y-122833329D01*
X127531215Y-122814408D01*
X127794687Y-122776911D01*
X127925932Y-122758232D01*
X127925935Y-122758231D01*
X127928868Y-122757814D01*
X127931743Y-122757124D01*
X127931747Y-122757123D01*
X128316550Y-122664740D01*
X128316557Y-122664738D01*
X128319431Y-122664048D01*
X128699436Y-122533943D01*
X129065511Y-122368654D01*
X129068082Y-122367188D01*
X129068087Y-122367185D01*
X129238048Y-122270241D01*
X129414406Y-122169648D01*
X129743024Y-121938691D01*
X129757837Y-121926040D01*
X130046196Y-121679758D01*
X130048450Y-121677833D01*
X130116780Y-121607321D01*
X130325898Y-121391529D01*
X130325906Y-121391520D01*
X130327970Y-121389390D01*
X130337844Y-121377066D01*
X130497368Y-121177947D01*
X130579106Y-121075922D01*
X130610905Y-121027512D01*
X130700188Y-120891592D01*
X130754306Y-120845638D01*
X130824677Y-120836237D01*
X130888960Y-120866374D01*
G37*
%TD.AperFunction*%
%TA.AperFunction,Conductor*%
G36*
X147257331Y-113292775D02*
G01*
X147310035Y-113340344D01*
X147314718Y-113349232D01*
X147315473Y-113351556D01*
X147318772Y-113357271D01*
X147318773Y-113357272D01*
X147374619Y-113453999D01*
X147391500Y-113516999D01*
X147391500Y-115965500D01*
X147371498Y-116033621D01*
X147317842Y-116080114D01*
X147265500Y-116091500D01*
X147104513Y-116091500D01*
X147098061Y-116092872D01*
X147098056Y-116092872D01*
X147011113Y-116111353D01*
X146917712Y-116131206D01*
X146911682Y-116133891D01*
X146911681Y-116133891D01*
X146749278Y-116206197D01*
X146749276Y-116206198D01*
X146743248Y-116208882D01*
X146588747Y-116321134D01*
X146460960Y-116463056D01*
X146365473Y-116628444D01*
X146306458Y-116810072D01*
X146286496Y-117000000D01*
X146287186Y-117006565D01*
X146301225Y-117140135D01*
X146306458Y-117189928D01*
X146365473Y-117371556D01*
X146368776Y-117377278D01*
X146368777Y-117377279D01*
X146424619Y-117473999D01*
X146441500Y-117536999D01*
X146441500Y-119933629D01*
X146421498Y-120001750D01*
X146404595Y-120022724D01*
X145983595Y-120443724D01*
X145921283Y-120477750D01*
X145850468Y-120472685D01*
X145793632Y-120430138D01*
X145768821Y-120363618D01*
X145768500Y-120354629D01*
X145768500Y-120051866D01*
X145761745Y-119989684D01*
X145710615Y-119853295D01*
X145623261Y-119736739D01*
X145506705Y-119649385D01*
X145370316Y-119598255D01*
X145308134Y-119591500D01*
X144471866Y-119591500D01*
X144409684Y-119598255D01*
X144402288Y-119601027D01*
X144402282Y-119601029D01*
X144299229Y-119639662D01*
X144228422Y-119644845D01*
X144210771Y-119639662D01*
X144107718Y-119601029D01*
X144107712Y-119601027D01*
X144100316Y-119598255D01*
X144038134Y-119591500D01*
X143201866Y-119591500D01*
X143139684Y-119598255D01*
X143132288Y-119601027D01*
X143132282Y-119601029D01*
X143029229Y-119639662D01*
X142958422Y-119644845D01*
X142940771Y-119639662D01*
X142837718Y-119601029D01*
X142837712Y-119601027D01*
X142830316Y-119598255D01*
X142768134Y-119591500D01*
X141931866Y-119591500D01*
X141869684Y-119598255D01*
X141862288Y-119601027D01*
X141862282Y-119601029D01*
X141759229Y-119639662D01*
X141688422Y-119644845D01*
X141670771Y-119639662D01*
X141567718Y-119601029D01*
X141567712Y-119601027D01*
X141560316Y-119598255D01*
X141498134Y-119591500D01*
X140661866Y-119591500D01*
X140599684Y-119598255D01*
X140592288Y-119601027D01*
X140592282Y-119601029D01*
X140489229Y-119639662D01*
X140418422Y-119644845D01*
X140400771Y-119639662D01*
X140297718Y-119601029D01*
X140297712Y-119601027D01*
X140290316Y-119598255D01*
X140228134Y-119591500D01*
X139391866Y-119591500D01*
X139329684Y-119598255D01*
X139322288Y-119601027D01*
X139322282Y-119601029D01*
X139219229Y-119639662D01*
X139148422Y-119644845D01*
X139130771Y-119639662D01*
X139027718Y-119601029D01*
X139027712Y-119601027D01*
X139020316Y-119598255D01*
X138958134Y-119591500D01*
X138121866Y-119591500D01*
X138059684Y-119598255D01*
X138052288Y-119601027D01*
X138052282Y-119601029D01*
X137949229Y-119639662D01*
X137878422Y-119644845D01*
X137860771Y-119639662D01*
X137757718Y-119601029D01*
X137757712Y-119601027D01*
X137750316Y-119598255D01*
X137688134Y-119591500D01*
X136851866Y-119591500D01*
X136789684Y-119598255D01*
X136782288Y-119601027D01*
X136782282Y-119601029D01*
X136679229Y-119639662D01*
X136608422Y-119644845D01*
X136590771Y-119639662D01*
X136487718Y-119601029D01*
X136487712Y-119601027D01*
X136480316Y-119598255D01*
X136418134Y-119591500D01*
X135581866Y-119591500D01*
X135519684Y-119598255D01*
X135383295Y-119649385D01*
X135360065Y-119666795D01*
X135293559Y-119691643D01*
X135224176Y-119676590D01*
X135173946Y-119626416D01*
X135158500Y-119565969D01*
X135158500Y-119133406D01*
X135178502Y-119065285D01*
X135232158Y-119018792D01*
X135302432Y-119008688D01*
X135360065Y-119032580D01*
X135376351Y-119044786D01*
X135391946Y-119053324D01*
X135512394Y-119098478D01*
X135527649Y-119102105D01*
X135578514Y-119107631D01*
X135585328Y-119108000D01*
X135727885Y-119108000D01*
X135743124Y-119103525D01*
X135744329Y-119102135D01*
X135746000Y-119094452D01*
X135746000Y-119089884D01*
X136254000Y-119089884D01*
X136258475Y-119105123D01*
X136259865Y-119106328D01*
X136267548Y-119107999D01*
X136414669Y-119107999D01*
X136421490Y-119107629D01*
X136472352Y-119102105D01*
X136487606Y-119098478D01*
X136590771Y-119059804D01*
X136661578Y-119054621D01*
X136679229Y-119059804D01*
X136782391Y-119098478D01*
X136797649Y-119102105D01*
X136848514Y-119107631D01*
X136855328Y-119108000D01*
X136997885Y-119108000D01*
X137013124Y-119103525D01*
X137014329Y-119102135D01*
X137016000Y-119094452D01*
X137016000Y-119089884D01*
X137524000Y-119089884D01*
X137528475Y-119105123D01*
X137529865Y-119106328D01*
X137537548Y-119107999D01*
X137684669Y-119107999D01*
X137691490Y-119107629D01*
X137742352Y-119102105D01*
X137757606Y-119098478D01*
X137860771Y-119059804D01*
X137931578Y-119054621D01*
X137949229Y-119059804D01*
X138052391Y-119098478D01*
X138067649Y-119102105D01*
X138118514Y-119107631D01*
X138125328Y-119108000D01*
X138267885Y-119108000D01*
X138283124Y-119103525D01*
X138284329Y-119102135D01*
X138286000Y-119094452D01*
X138286000Y-119089884D01*
X138794000Y-119089884D01*
X138798475Y-119105123D01*
X138799865Y-119106328D01*
X138807548Y-119107999D01*
X138954669Y-119107999D01*
X138961490Y-119107629D01*
X139012352Y-119102105D01*
X139027606Y-119098478D01*
X139130771Y-119059804D01*
X139201578Y-119054621D01*
X139219229Y-119059804D01*
X139322391Y-119098478D01*
X139337649Y-119102105D01*
X139388514Y-119107631D01*
X139395328Y-119108000D01*
X139537885Y-119108000D01*
X139553124Y-119103525D01*
X139554329Y-119102135D01*
X139556000Y-119094452D01*
X139556000Y-119089884D01*
X140064000Y-119089884D01*
X140068475Y-119105123D01*
X140069865Y-119106328D01*
X140077548Y-119107999D01*
X140224669Y-119107999D01*
X140231490Y-119107629D01*
X140282352Y-119102105D01*
X140297606Y-119098478D01*
X140400771Y-119059804D01*
X140471578Y-119054621D01*
X140489229Y-119059804D01*
X140592391Y-119098478D01*
X140607649Y-119102105D01*
X140658514Y-119107631D01*
X140665328Y-119108000D01*
X140807885Y-119108000D01*
X140823124Y-119103525D01*
X140824329Y-119102135D01*
X140826000Y-119094452D01*
X140826000Y-119089884D01*
X141334000Y-119089884D01*
X141338475Y-119105123D01*
X141339865Y-119106328D01*
X141347548Y-119107999D01*
X141494669Y-119107999D01*
X141501490Y-119107629D01*
X141552352Y-119102105D01*
X141567606Y-119098478D01*
X141670771Y-119059804D01*
X141741578Y-119054621D01*
X141759229Y-119059804D01*
X141862391Y-119098478D01*
X141877649Y-119102105D01*
X141928514Y-119107631D01*
X141935328Y-119108000D01*
X142077885Y-119108000D01*
X142093124Y-119103525D01*
X142094329Y-119102135D01*
X142096000Y-119094452D01*
X142096000Y-119089884D01*
X142604000Y-119089884D01*
X142608475Y-119105123D01*
X142609865Y-119106328D01*
X142617548Y-119107999D01*
X142764669Y-119107999D01*
X142771490Y-119107629D01*
X142822352Y-119102105D01*
X142837606Y-119098478D01*
X142940771Y-119059804D01*
X143011578Y-119054621D01*
X143029229Y-119059804D01*
X143132391Y-119098478D01*
X143147649Y-119102105D01*
X143198514Y-119107631D01*
X143205328Y-119108000D01*
X143347885Y-119108000D01*
X143363124Y-119103525D01*
X143364329Y-119102135D01*
X143366000Y-119094452D01*
X143366000Y-119089884D01*
X143874000Y-119089884D01*
X143878475Y-119105123D01*
X143879865Y-119106328D01*
X143887548Y-119107999D01*
X144034669Y-119107999D01*
X144041490Y-119107629D01*
X144092352Y-119102105D01*
X144107606Y-119098478D01*
X144210771Y-119059804D01*
X144281578Y-119054621D01*
X144299229Y-119059804D01*
X144402391Y-119098478D01*
X144417649Y-119102105D01*
X144468514Y-119107631D01*
X144475328Y-119108000D01*
X144617885Y-119108000D01*
X144633124Y-119103525D01*
X144634329Y-119102135D01*
X144636000Y-119094452D01*
X144636000Y-119089884D01*
X145144000Y-119089884D01*
X145148475Y-119105123D01*
X145149865Y-119106328D01*
X145157548Y-119107999D01*
X145304669Y-119107999D01*
X145311490Y-119107629D01*
X145362352Y-119102105D01*
X145377604Y-119098479D01*
X145498054Y-119053324D01*
X145513649Y-119044786D01*
X145615724Y-118968285D01*
X145628285Y-118955724D01*
X145704786Y-118853649D01*
X145713324Y-118838054D01*
X145758478Y-118717606D01*
X145762105Y-118702351D01*
X145767631Y-118651486D01*
X145768000Y-118644672D01*
X145768000Y-117672115D01*
X145763525Y-117656876D01*
X145762135Y-117655671D01*
X145754452Y-117654000D01*
X145162115Y-117654000D01*
X145146876Y-117658475D01*
X145145671Y-117659865D01*
X145144000Y-117667548D01*
X145144000Y-119089884D01*
X144636000Y-119089884D01*
X144636000Y-117672115D01*
X144631525Y-117656876D01*
X144630135Y-117655671D01*
X144622452Y-117654000D01*
X143892115Y-117654000D01*
X143876876Y-117658475D01*
X143875671Y-117659865D01*
X143874000Y-117667548D01*
X143874000Y-119089884D01*
X143366000Y-119089884D01*
X143366000Y-117672115D01*
X143361525Y-117656876D01*
X143360135Y-117655671D01*
X143352452Y-117654000D01*
X142622115Y-117654000D01*
X142606876Y-117658475D01*
X142605671Y-117659865D01*
X142604000Y-117667548D01*
X142604000Y-119089884D01*
X142096000Y-119089884D01*
X142096000Y-117672115D01*
X142091525Y-117656876D01*
X142090135Y-117655671D01*
X142082452Y-117654000D01*
X141352115Y-117654000D01*
X141336876Y-117658475D01*
X141335671Y-117659865D01*
X141334000Y-117667548D01*
X141334000Y-119089884D01*
X140826000Y-119089884D01*
X140826000Y-117672115D01*
X140821525Y-117656876D01*
X140820135Y-117655671D01*
X140812452Y-117654000D01*
X140082115Y-117654000D01*
X140066876Y-117658475D01*
X140065671Y-117659865D01*
X140064000Y-117667548D01*
X140064000Y-119089884D01*
X139556000Y-119089884D01*
X139556000Y-117672115D01*
X139551525Y-117656876D01*
X139550135Y-117655671D01*
X139542452Y-117654000D01*
X138812115Y-117654000D01*
X138796876Y-117658475D01*
X138795671Y-117659865D01*
X138794000Y-117667548D01*
X138794000Y-119089884D01*
X138286000Y-119089884D01*
X138286000Y-117672115D01*
X138281525Y-117656876D01*
X138280135Y-117655671D01*
X138272452Y-117654000D01*
X137542115Y-117654000D01*
X137526876Y-117658475D01*
X137525671Y-117659865D01*
X137524000Y-117667548D01*
X137524000Y-119089884D01*
X137016000Y-119089884D01*
X137016000Y-117672115D01*
X137011525Y-117656876D01*
X137010135Y-117655671D01*
X137002452Y-117654000D01*
X136272115Y-117654000D01*
X136256876Y-117658475D01*
X136255671Y-117659865D01*
X136254000Y-117667548D01*
X136254000Y-119089884D01*
X135746000Y-119089884D01*
X135746000Y-117127885D01*
X136254000Y-117127885D01*
X136258475Y-117143124D01*
X136259865Y-117144329D01*
X136267548Y-117146000D01*
X136997885Y-117146000D01*
X137013124Y-117141525D01*
X137014329Y-117140135D01*
X137016000Y-117132452D01*
X137016000Y-117127885D01*
X137524000Y-117127885D01*
X137528475Y-117143124D01*
X137529865Y-117144329D01*
X137537548Y-117146000D01*
X138267885Y-117146000D01*
X138283124Y-117141525D01*
X138284329Y-117140135D01*
X138286000Y-117132452D01*
X138286000Y-115710116D01*
X138281525Y-115694877D01*
X138280135Y-115693672D01*
X138272452Y-115692001D01*
X138125331Y-115692001D01*
X138118510Y-115692371D01*
X138067648Y-115697895D01*
X138052394Y-115701522D01*
X137949229Y-115740196D01*
X137878422Y-115745379D01*
X137860771Y-115740196D01*
X137757609Y-115701522D01*
X137742351Y-115697895D01*
X137691486Y-115692369D01*
X137684672Y-115692000D01*
X137542115Y-115692000D01*
X137526876Y-115696475D01*
X137525671Y-115697865D01*
X137524000Y-115705548D01*
X137524000Y-117127885D01*
X137016000Y-117127885D01*
X137016000Y-115710116D01*
X137011525Y-115694877D01*
X137010135Y-115693672D01*
X137002452Y-115692001D01*
X136855331Y-115692001D01*
X136848510Y-115692371D01*
X136797648Y-115697895D01*
X136782394Y-115701522D01*
X136679229Y-115740196D01*
X136608422Y-115745379D01*
X136590771Y-115740196D01*
X136487609Y-115701522D01*
X136472351Y-115697895D01*
X136421486Y-115692369D01*
X136414672Y-115692000D01*
X136272115Y-115692000D01*
X136256876Y-115696475D01*
X136255671Y-115697865D01*
X136254000Y-115705548D01*
X136254000Y-117127885D01*
X135746000Y-117127885D01*
X135746000Y-115710116D01*
X135741525Y-115694877D01*
X135740135Y-115693672D01*
X135732452Y-115692001D01*
X135585331Y-115692001D01*
X135578510Y-115692371D01*
X135527648Y-115697895D01*
X135512396Y-115701521D01*
X135391946Y-115746676D01*
X135376351Y-115755214D01*
X135360065Y-115767420D01*
X135293558Y-115792268D01*
X135224176Y-115777215D01*
X135173946Y-115727041D01*
X135158500Y-115666594D01*
X135158500Y-114355027D01*
X135178502Y-114286906D01*
X135232158Y-114240413D01*
X135302432Y-114230309D01*
X135347976Y-114246184D01*
X135524552Y-114349160D01*
X135528060Y-114351206D01*
X136101470Y-114640228D01*
X136691456Y-114893706D01*
X137295815Y-115110693D01*
X137297670Y-115111234D01*
X137297671Y-115111234D01*
X137309274Y-115114616D01*
X137912295Y-115290381D01*
X138538593Y-115432098D01*
X138540477Y-115432405D01*
X138540483Y-115432406D01*
X138603323Y-115442640D01*
X138742900Y-115465371D01*
X138806919Y-115496063D01*
X138844183Y-115556494D01*
X138842859Y-115627479D01*
X138817871Y-115672245D01*
X138795671Y-115697865D01*
X138794000Y-115705548D01*
X138794000Y-117127885D01*
X138798475Y-117143124D01*
X138799865Y-117144329D01*
X138807548Y-117146000D01*
X143347885Y-117146000D01*
X143363124Y-117141525D01*
X143364329Y-117140135D01*
X143366000Y-117132452D01*
X143366000Y-117127885D01*
X143874000Y-117127885D01*
X143878475Y-117143124D01*
X143879865Y-117144329D01*
X143887548Y-117146000D01*
X144617885Y-117146000D01*
X144633124Y-117141525D01*
X144634329Y-117140135D01*
X144636000Y-117132452D01*
X144636000Y-117127885D01*
X145144000Y-117127885D01*
X145148475Y-117143124D01*
X145149865Y-117144329D01*
X145157548Y-117146000D01*
X145749884Y-117146000D01*
X145765123Y-117141525D01*
X145766328Y-117140135D01*
X145767999Y-117132452D01*
X145767999Y-116155331D01*
X145767629Y-116148510D01*
X145762105Y-116097648D01*
X145758479Y-116082396D01*
X145713324Y-115961946D01*
X145704786Y-115946351D01*
X145628285Y-115844276D01*
X145615724Y-115831715D01*
X145513649Y-115755214D01*
X145498054Y-115746676D01*
X145377606Y-115701522D01*
X145362351Y-115697895D01*
X145311486Y-115692369D01*
X145304672Y-115692000D01*
X145162115Y-115692000D01*
X145146876Y-115696475D01*
X145145671Y-115697865D01*
X145144000Y-115705548D01*
X145144000Y-117127885D01*
X144636000Y-117127885D01*
X144636000Y-115710116D01*
X144631525Y-115694877D01*
X144630135Y-115693672D01*
X144622452Y-115692001D01*
X144475331Y-115692001D01*
X144468510Y-115692371D01*
X144417648Y-115697895D01*
X144402394Y-115701522D01*
X144299229Y-115740196D01*
X144228422Y-115745379D01*
X144210771Y-115740196D01*
X144107609Y-115701522D01*
X144092351Y-115697895D01*
X144041486Y-115692369D01*
X144034672Y-115692000D01*
X143892115Y-115692000D01*
X143876876Y-115696475D01*
X143875671Y-115697865D01*
X143874000Y-115705548D01*
X143874000Y-117127885D01*
X143366000Y-117127885D01*
X143366000Y-115710116D01*
X143361525Y-115694877D01*
X143360135Y-115693672D01*
X143352452Y-115692001D01*
X143205331Y-115692001D01*
X143198510Y-115692371D01*
X143147648Y-115697895D01*
X143132394Y-115701522D01*
X143029229Y-115740196D01*
X142958422Y-115745379D01*
X142940771Y-115740196D01*
X142837609Y-115701522D01*
X142822351Y-115697895D01*
X142771486Y-115692369D01*
X142764672Y-115692000D01*
X142506048Y-115692000D01*
X142437927Y-115671998D01*
X142391434Y-115618342D01*
X142381330Y-115548068D01*
X142410824Y-115483488D01*
X142470550Y-115445104D01*
X142480382Y-115442642D01*
X142669953Y-115403211D01*
X142997098Y-115335165D01*
X142997114Y-115335161D01*
X142998985Y-115334772D01*
X143618507Y-115165871D01*
X144226561Y-114959464D01*
X144820881Y-114716321D01*
X145399248Y-114437350D01*
X145959506Y-114123591D01*
X146499564Y-113776213D01*
X147017409Y-113396514D01*
X147122114Y-113309431D01*
X147187276Y-113281252D01*
X147257331Y-113292775D01*
G37*
%TD.AperFunction*%
%TA.AperFunction,Conductor*%
G36*
X142739299Y-82730357D02*
G01*
X142893040Y-82743267D01*
X142898289Y-82743819D01*
X143284953Y-82792666D01*
X143827663Y-82861226D01*
X143832867Y-82861994D01*
X144756548Y-83018223D01*
X144761721Y-83019209D01*
X145014670Y-83072975D01*
X145678053Y-83213982D01*
X145683191Y-83215188D01*
X146590510Y-83448148D01*
X146595593Y-83449567D01*
X147492394Y-83720327D01*
X147497413Y-83721958D01*
X148027395Y-83906517D01*
X148382072Y-84030028D01*
X148386996Y-84031859D01*
X149143380Y-84331333D01*
X149258012Y-84376719D01*
X149262877Y-84378764D01*
X150118666Y-84759785D01*
X150123441Y-84762032D01*
X150962517Y-85178554D01*
X150967194Y-85180999D01*
X151788108Y-85632299D01*
X151792678Y-85634938D01*
X152593965Y-86120215D01*
X152598399Y-86123029D01*
X152951711Y-86357769D01*
X153378663Y-86641435D01*
X153382997Y-86644447D01*
X154140865Y-87195071D01*
X154145060Y-87198255D01*
X154169203Y-87217390D01*
X154210164Y-87275377D01*
X154213273Y-87346306D01*
X154177541Y-87407655D01*
X154114314Y-87439948D01*
X154088959Y-87442119D01*
X154050000Y-87441507D01*
X153876086Y-87438775D01*
X153873142Y-87439007D01*
X153873132Y-87439007D01*
X153504544Y-87468016D01*
X153475663Y-87470289D01*
X153079984Y-87539346D01*
X153077117Y-87540130D01*
X153077105Y-87540133D01*
X152695423Y-87644549D01*
X152695413Y-87644552D01*
X152692559Y-87645333D01*
X152689795Y-87646377D01*
X152689784Y-87646381D01*
X152319601Y-87786262D01*
X152316828Y-87787310D01*
X151956126Y-87964016D01*
X151613654Y-88173883D01*
X151292452Y-88415049D01*
X150995371Y-88685371D01*
X150725049Y-88982452D01*
X150483883Y-89303654D01*
X150274016Y-89646126D01*
X150097310Y-90006828D01*
X150096263Y-90009598D01*
X150096262Y-90009601D01*
X149956381Y-90379784D01*
X149956377Y-90379795D01*
X149955333Y-90382559D01*
X149954552Y-90385413D01*
X149954549Y-90385423D01*
X149850133Y-90767105D01*
X149850130Y-90767117D01*
X149849346Y-90769984D01*
X149780289Y-91165663D01*
X149780057Y-91168611D01*
X149749158Y-91561221D01*
X149748775Y-91566086D01*
X149751154Y-91717529D01*
X149753856Y-91889496D01*
X149755084Y-91967697D01*
X149799160Y-92366932D01*
X149799762Y-92369841D01*
X149799764Y-92369851D01*
X149880008Y-92757337D01*
X149880611Y-92760247D01*
X149998716Y-93144151D01*
X150152425Y-93515237D01*
X150340374Y-93870211D01*
X150341999Y-93872685D01*
X150342005Y-93872695D01*
X150439511Y-94021134D01*
X150560894Y-94205922D01*
X150654468Y-94322721D01*
X150794321Y-94497285D01*
X150812030Y-94519390D01*
X150814094Y-94521520D01*
X150814102Y-94521529D01*
X150987641Y-94700607D01*
X151091550Y-94807833D01*
X151093804Y-94809758D01*
X151392972Y-95065271D01*
X151396976Y-95068691D01*
X151725594Y-95299648D01*
X151839506Y-95364622D01*
X152071913Y-95497185D01*
X152071918Y-95497188D01*
X152074489Y-95498654D01*
X152440564Y-95663943D01*
X152820569Y-95794048D01*
X152823443Y-95794738D01*
X152823450Y-95794740D01*
X153208253Y-95887123D01*
X153208257Y-95887124D01*
X153211132Y-95887814D01*
X153214065Y-95888231D01*
X153214068Y-95888232D01*
X153345313Y-95906911D01*
X153608785Y-95944408D01*
X154010000Y-95963329D01*
X154411215Y-95944408D01*
X154574748Y-95921134D01*
X154716108Y-95901016D01*
X154786367Y-95911220D01*
X154839956Y-95957790D01*
X154859861Y-96025939D01*
X154853694Y-96064695D01*
X154806458Y-96210072D01*
X154805768Y-96216633D01*
X154805768Y-96216635D01*
X154802809Y-96244792D01*
X154786496Y-96400000D01*
X154787186Y-96406565D01*
X154804310Y-96569487D01*
X154806458Y-96589928D01*
X154865473Y-96771556D01*
X154960960Y-96936944D01*
X154965378Y-96941851D01*
X154965379Y-96941852D01*
X155075804Y-97064491D01*
X155088747Y-97078866D01*
X155243248Y-97191118D01*
X155249276Y-97193802D01*
X155249278Y-97193803D01*
X155339318Y-97233891D01*
X155417712Y-97268794D01*
X155483365Y-97282749D01*
X155598056Y-97307128D01*
X155598061Y-97307128D01*
X155604513Y-97308500D01*
X155795487Y-97308500D01*
X155801939Y-97307128D01*
X155801944Y-97307128D01*
X155916635Y-97282749D01*
X155982288Y-97268794D01*
X156060682Y-97233891D01*
X156150722Y-97193803D01*
X156150724Y-97193802D01*
X156156752Y-97191118D01*
X156311253Y-97078866D01*
X156324196Y-97064491D01*
X156434621Y-96941852D01*
X156434622Y-96941851D01*
X156439040Y-96936944D01*
X156534527Y-96771556D01*
X156593542Y-96589928D01*
X156595691Y-96569487D01*
X156612814Y-96406565D01*
X156613504Y-96400000D01*
X156597191Y-96244792D01*
X156594232Y-96216635D01*
X156594232Y-96216633D01*
X156593542Y-96210072D01*
X156534527Y-96028444D01*
X156439040Y-95863056D01*
X156386177Y-95804345D01*
X156315675Y-95726045D01*
X156315674Y-95726044D01*
X156311253Y-95721134D01*
X156173679Y-95621180D01*
X156162094Y-95612763D01*
X156162093Y-95612762D01*
X156156752Y-95608882D01*
X156150720Y-95606196D01*
X156145187Y-95603002D01*
X156096194Y-95551620D01*
X156082757Y-95481906D01*
X156109144Y-95415995D01*
X156145759Y-95384436D01*
X156291822Y-95301123D01*
X156291839Y-95301112D01*
X156294406Y-95299648D01*
X156623024Y-95068691D01*
X156627029Y-95065271D01*
X156926196Y-94809758D01*
X156928450Y-94807833D01*
X157032359Y-94700607D01*
X157205898Y-94521529D01*
X157205906Y-94521520D01*
X157207970Y-94519390D01*
X157225680Y-94497285D01*
X157365532Y-94322721D01*
X157459106Y-94205922D01*
X157580489Y-94021134D01*
X157677995Y-93872695D01*
X157678001Y-93872685D01*
X157679626Y-93870211D01*
X157867575Y-93515237D01*
X158021284Y-93144151D01*
X158139389Y-92760247D01*
X158139992Y-92757337D01*
X158220236Y-92369851D01*
X158220238Y-92369841D01*
X158220840Y-92366932D01*
X158262980Y-91985231D01*
X158264645Y-91970153D01*
X158264645Y-91970149D01*
X158264916Y-91967697D01*
X158264993Y-91965244D01*
X158264994Y-91965231D01*
X158273251Y-91702468D01*
X158273329Y-91700000D01*
X158271120Y-91653149D01*
X158287891Y-91584162D01*
X158339298Y-91535194D01*
X158409018Y-91521791D01*
X158474916Y-91548210D01*
X158497340Y-91571033D01*
X158739066Y-91889496D01*
X158742166Y-91893763D01*
X159220488Y-92581977D01*
X159276810Y-92663014D01*
X159279720Y-92667395D01*
X159351338Y-92780247D01*
X159781668Y-93458339D01*
X159784402Y-93462853D01*
X160252788Y-94274120D01*
X160255331Y-94278745D01*
X160689343Y-95108934D01*
X160691689Y-95113661D01*
X161090539Y-95961259D01*
X161092686Y-95966080D01*
X161121543Y-96034729D01*
X161443376Y-96800337D01*
X161455704Y-96829665D01*
X161457640Y-96834555D01*
X161778085Y-97696206D01*
X161784186Y-97712610D01*
X161785918Y-97717584D01*
X161848461Y-97910072D01*
X162075391Y-98608491D01*
X162076916Y-98613543D01*
X162328841Y-99515837D01*
X162330149Y-99520931D01*
X162424260Y-99922173D01*
X162544065Y-100432964D01*
X162545162Y-100438126D01*
X162720696Y-101358308D01*
X162721576Y-101363512D01*
X162858420Y-102290217D01*
X162859082Y-102295452D01*
X162957005Y-103227125D01*
X162957445Y-103232368D01*
X162979489Y-103582749D01*
X163016265Y-104167295D01*
X163016486Y-104172568D01*
X163036105Y-105109136D01*
X163036105Y-105114414D01*
X163016486Y-106050982D01*
X163016265Y-106056255D01*
X162962769Y-106906565D01*
X162957446Y-106991166D01*
X162957006Y-106996410D01*
X162927486Y-107277279D01*
X162859082Y-107928098D01*
X162858420Y-107933333D01*
X162721576Y-108860038D01*
X162720696Y-108865242D01*
X162545162Y-109785424D01*
X162544065Y-109790586D01*
X162484832Y-110043128D01*
X162371054Y-110528224D01*
X162330154Y-110702601D01*
X162328841Y-110707713D01*
X162076916Y-111610007D01*
X162075391Y-111615059D01*
X161785921Y-112505956D01*
X161784189Y-112510930D01*
X161470263Y-113355055D01*
X161457647Y-113388978D01*
X161455711Y-113393868D01*
X161256079Y-113868774D01*
X161092686Y-114257470D01*
X161090539Y-114262291D01*
X160691689Y-115109889D01*
X160689343Y-115114616D01*
X160255331Y-115944805D01*
X160252788Y-115949430D01*
X159784402Y-116760697D01*
X159781668Y-116765211D01*
X159548610Y-117132452D01*
X159313303Y-117503238D01*
X159279730Y-117556140D01*
X159276820Y-117560521D01*
X158863061Y-118155843D01*
X158742168Y-118329785D01*
X158739066Y-118334054D01*
X158499323Y-118649904D01*
X158442205Y-118692071D01*
X158371357Y-118696664D01*
X158309273Y-118662225D01*
X158275664Y-118599687D01*
X158273022Y-118569766D01*
X158273251Y-118562467D01*
X158273329Y-118560000D01*
X158254408Y-118158785D01*
X158197814Y-117761132D01*
X158176443Y-117672115D01*
X158104740Y-117373450D01*
X158104738Y-117373443D01*
X158104048Y-117370569D01*
X157973943Y-116990564D01*
X157808654Y-116624489D01*
X157745399Y-116513590D01*
X157703138Y-116439500D01*
X157609648Y-116275594D01*
X157378691Y-115946976D01*
X157202085Y-115740196D01*
X157143838Y-115671998D01*
X157117833Y-115641550D01*
X156967702Y-115496063D01*
X156831529Y-115364102D01*
X156831520Y-115364094D01*
X156829390Y-115362030D01*
X156515922Y-115110894D01*
X156413907Y-115043883D01*
X156182695Y-114892005D01*
X156182685Y-114891999D01*
X156180211Y-114890374D01*
X155825237Y-114702425D01*
X155454151Y-114548716D01*
X155105590Y-114441484D01*
X155073085Y-114431484D01*
X155073083Y-114431484D01*
X155070247Y-114430611D01*
X155067344Y-114430010D01*
X155067337Y-114430008D01*
X154679851Y-114349764D01*
X154679841Y-114349762D01*
X154676932Y-114349160D01*
X154277697Y-114305084D01*
X154274716Y-114305037D01*
X154274713Y-114305037D01*
X154162454Y-114303274D01*
X153876086Y-114298775D01*
X153873142Y-114299007D01*
X153873132Y-114299007D01*
X153488775Y-114329257D01*
X153475663Y-114330289D01*
X153079984Y-114399346D01*
X153077117Y-114400130D01*
X153077105Y-114400133D01*
X152695423Y-114504549D01*
X152695413Y-114504552D01*
X152692559Y-114505333D01*
X152689795Y-114506377D01*
X152689784Y-114506381D01*
X152333556Y-114640989D01*
X152316828Y-114647310D01*
X152314161Y-114648617D01*
X152314160Y-114648617D01*
X152076040Y-114765271D01*
X151956126Y-114824016D01*
X151953591Y-114825569D01*
X151953590Y-114825570D01*
X151842402Y-114893706D01*
X151613654Y-115033883D01*
X151292452Y-115275049D01*
X150995371Y-115545371D01*
X150725049Y-115842452D01*
X150640759Y-115954716D01*
X150534300Y-116096505D01*
X150477404Y-116138970D01*
X150406581Y-116143934D01*
X150344317Y-116109820D01*
X150310381Y-116047459D01*
X150307540Y-116020852D01*
X150307540Y-114307294D01*
X150327542Y-114239173D01*
X150344445Y-114218199D01*
X152688911Y-111873733D01*
X152703323Y-111861347D01*
X152714918Y-111852814D01*
X152714923Y-111852809D01*
X152720818Y-111848471D01*
X152725557Y-111842893D01*
X152725560Y-111842890D01*
X152755035Y-111808195D01*
X152761965Y-111800679D01*
X152767661Y-111794983D01*
X152769924Y-111792122D01*
X152769929Y-111792117D01*
X152785285Y-111772707D01*
X152788074Y-111769305D01*
X152830596Y-111719254D01*
X152830597Y-111719253D01*
X152835333Y-111713678D01*
X152838661Y-111707161D01*
X152842027Y-111702113D01*
X152845190Y-111696991D01*
X152849735Y-111691247D01*
X152880664Y-111625068D01*
X152882563Y-111621184D01*
X152915769Y-111556155D01*
X152917510Y-111549040D01*
X152919613Y-111543385D01*
X152921522Y-111537646D01*
X152924622Y-111531013D01*
X152939491Y-111459528D01*
X152940461Y-111455245D01*
X152957808Y-111384353D01*
X152958500Y-111373199D01*
X152958535Y-111373201D01*
X152958775Y-111369229D01*
X152959152Y-111365008D01*
X152960641Y-111357848D01*
X152958546Y-111280421D01*
X152958500Y-111277013D01*
X152958500Y-106900000D01*
X153886496Y-106900000D01*
X153887186Y-106906565D01*
X153896631Y-106996425D01*
X153906458Y-107089928D01*
X153965473Y-107271556D01*
X154060960Y-107436944D01*
X154065378Y-107441851D01*
X154065379Y-107441852D01*
X154184325Y-107573955D01*
X154188747Y-107578866D01*
X154343248Y-107691118D01*
X154349276Y-107693802D01*
X154349278Y-107693803D01*
X154511681Y-107766109D01*
X154517712Y-107768794D01*
X154611112Y-107788647D01*
X154698056Y-107807128D01*
X154698061Y-107807128D01*
X154704513Y-107808500D01*
X154895487Y-107808500D01*
X154901939Y-107807128D01*
X154901944Y-107807128D01*
X154988887Y-107788647D01*
X155082288Y-107768794D01*
X155088319Y-107766109D01*
X155250722Y-107693803D01*
X155250724Y-107693802D01*
X155256752Y-107691118D01*
X155411253Y-107578866D01*
X155415675Y-107573955D01*
X155534621Y-107441852D01*
X155534622Y-107441851D01*
X155539040Y-107436944D01*
X155634527Y-107271556D01*
X155693542Y-107089928D01*
X155703370Y-106996425D01*
X155712814Y-106906565D01*
X155713504Y-106900000D01*
X155693542Y-106710072D01*
X155634527Y-106528444D01*
X155539040Y-106363056D01*
X155411253Y-106221134D01*
X155256752Y-106108882D01*
X155250724Y-106106198D01*
X155250722Y-106106197D01*
X155088319Y-106033891D01*
X155088318Y-106033891D01*
X155082288Y-106031206D01*
X154988888Y-106011353D01*
X154901944Y-105992872D01*
X154901939Y-105992872D01*
X154895487Y-105991500D01*
X154704513Y-105991500D01*
X154698061Y-105992872D01*
X154698056Y-105992872D01*
X154611112Y-106011353D01*
X154517712Y-106031206D01*
X154511682Y-106033891D01*
X154511681Y-106033891D01*
X154349278Y-106106197D01*
X154349276Y-106106198D01*
X154343248Y-106108882D01*
X154188747Y-106221134D01*
X154060960Y-106363056D01*
X153965473Y-106528444D01*
X153906458Y-106710072D01*
X153886496Y-106900000D01*
X152958500Y-106900000D01*
X152958500Y-97609061D01*
X152959933Y-97590112D01*
X152962097Y-97575884D01*
X152963198Y-97568649D01*
X152961893Y-97552595D01*
X152958915Y-97515989D01*
X152958500Y-97505775D01*
X152958500Y-97497705D01*
X152958078Y-97494085D01*
X152958077Y-97494067D01*
X152955208Y-97469459D01*
X152954775Y-97465084D01*
X152949454Y-97399659D01*
X152949453Y-97399656D01*
X152948860Y-97392361D01*
X152946604Y-97385397D01*
X152945413Y-97379438D01*
X152944029Y-97373583D01*
X152943182Y-97366317D01*
X152918265Y-97297671D01*
X152916848Y-97293543D01*
X152896607Y-97231062D01*
X152896606Y-97231060D01*
X152894351Y-97224099D01*
X152890555Y-97217844D01*
X152888049Y-97212370D01*
X152885330Y-97206940D01*
X152882833Y-97200061D01*
X152842809Y-97139014D01*
X152840472Y-97135310D01*
X152838560Y-97132158D01*
X152828229Y-97115133D01*
X152805509Y-97077691D01*
X152805505Y-97077686D01*
X152802595Y-97072890D01*
X152795197Y-97064514D01*
X152795223Y-97064491D01*
X152792574Y-97061501D01*
X152789866Y-97058262D01*
X152785856Y-97052146D01*
X152780549Y-97047119D01*
X152780546Y-97047115D01*
X152729617Y-96998870D01*
X152727175Y-96996492D01*
X151541772Y-95811089D01*
X151529386Y-95796677D01*
X151520853Y-95785082D01*
X151520848Y-95785077D01*
X151516510Y-95779182D01*
X151510932Y-95774443D01*
X151510929Y-95774440D01*
X151476234Y-95744965D01*
X151468718Y-95738035D01*
X151463023Y-95732340D01*
X151443951Y-95717251D01*
X151440751Y-95714719D01*
X151437347Y-95711928D01*
X151387299Y-95669409D01*
X151387297Y-95669408D01*
X151381717Y-95664667D01*
X151375201Y-95661339D01*
X151370152Y-95657972D01*
X151365023Y-95654805D01*
X151359286Y-95650266D01*
X151293127Y-95619345D01*
X151289227Y-95617439D01*
X151224194Y-95584231D01*
X151217086Y-95582492D01*
X151211443Y-95580393D01*
X151205680Y-95578476D01*
X151199052Y-95575378D01*
X151127585Y-95560513D01*
X151123301Y-95559543D01*
X151103047Y-95554587D01*
X151052392Y-95542192D01*
X151046790Y-95541844D01*
X151046787Y-95541844D01*
X151041238Y-95541500D01*
X151041240Y-95541464D01*
X151037247Y-95541225D01*
X151033055Y-95540851D01*
X151025887Y-95539360D01*
X150962122Y-95541085D01*
X150948481Y-95541454D01*
X150945074Y-95541500D01*
X148167070Y-95541500D01*
X148148120Y-95540067D01*
X148133885Y-95537901D01*
X148133881Y-95537901D01*
X148126651Y-95536801D01*
X148119359Y-95537394D01*
X148119356Y-95537394D01*
X148073982Y-95541085D01*
X148063767Y-95541500D01*
X148055707Y-95541500D01*
X148042417Y-95543049D01*
X148027493Y-95544789D01*
X148023118Y-95545222D01*
X147957661Y-95550546D01*
X147957658Y-95550547D01*
X147950363Y-95551140D01*
X147943399Y-95553396D01*
X147937440Y-95554587D01*
X147931585Y-95555971D01*
X147924319Y-95556818D01*
X147855673Y-95581735D01*
X147851545Y-95583152D01*
X147789064Y-95603393D01*
X147789062Y-95603394D01*
X147782101Y-95605649D01*
X147775846Y-95609445D01*
X147770372Y-95611951D01*
X147764942Y-95614670D01*
X147758063Y-95617167D01*
X147751943Y-95621180D01*
X147751942Y-95621180D01*
X147697024Y-95657186D01*
X147693320Y-95659523D01*
X147630894Y-95697405D01*
X147630579Y-95696886D01*
X147586869Y-95716506D01*
X147517712Y-95731206D01*
X147502374Y-95738035D01*
X147349278Y-95806197D01*
X147349276Y-95806198D01*
X147343248Y-95808882D01*
X147337907Y-95812762D01*
X147337906Y-95812763D01*
X147335185Y-95814740D01*
X147188747Y-95921134D01*
X147184326Y-95926044D01*
X147184325Y-95926045D01*
X147150881Y-95963189D01*
X147060960Y-96063056D01*
X146965473Y-96228444D01*
X146906458Y-96410072D01*
X146905768Y-96416633D01*
X146905768Y-96416635D01*
X146896604Y-96503830D01*
X146869591Y-96569487D01*
X146811370Y-96610117D01*
X146740425Y-96612820D01*
X146697679Y-96592918D01*
X146425294Y-96396829D01*
X146425292Y-96396828D01*
X146423727Y-96395701D01*
X146158641Y-96228444D01*
X145882294Y-96054082D01*
X145882288Y-96054079D01*
X145880658Y-96053050D01*
X145640207Y-95921134D01*
X145319351Y-95745106D01*
X145319349Y-95745105D01*
X145317683Y-95744191D01*
X144736903Y-95470278D01*
X144140485Y-95232331D01*
X143652920Y-95071556D01*
X143532475Y-95031839D01*
X143532471Y-95031838D01*
X143530652Y-95031238D01*
X143528812Y-95030754D01*
X143528800Y-95030750D01*
X143248973Y-94957078D01*
X142909681Y-94867750D01*
X142907795Y-94867375D01*
X142907787Y-94867373D01*
X142584617Y-94803091D01*
X142279887Y-94742476D01*
X142278000Y-94742219D01*
X142277987Y-94742217D01*
X141774919Y-94673753D01*
X141643619Y-94655884D01*
X141641713Y-94655742D01*
X141641700Y-94655741D01*
X141198274Y-94622789D01*
X141003253Y-94608297D01*
X140639118Y-94603530D01*
X140363107Y-94599916D01*
X140363097Y-94599916D01*
X140361175Y-94599891D01*
X140359265Y-94599983D01*
X140359250Y-94599983D01*
X139721692Y-94630608D01*
X139721684Y-94630609D01*
X139719782Y-94630700D01*
X139081467Y-94700607D01*
X138448609Y-94809351D01*
X137823571Y-94956528D01*
X137208683Y-95141588D01*
X137206894Y-95142248D01*
X137206885Y-95142251D01*
X136608055Y-95363171D01*
X136608043Y-95363176D01*
X136606240Y-95363841D01*
X136018489Y-95622458D01*
X135447622Y-95916474D01*
X134895770Y-96244792D01*
X134894168Y-96245883D01*
X134388870Y-96589928D01*
X134364990Y-96606187D01*
X133857262Y-96999312D01*
X133855814Y-97000582D01*
X133855809Y-97000586D01*
X133797016Y-97052146D01*
X133374481Y-97422699D01*
X133373113Y-97424056D01*
X133373111Y-97424057D01*
X133172139Y-97623283D01*
X132918448Y-97874769D01*
X132891212Y-97905285D01*
X132830928Y-97942787D01*
X132759940Y-97941745D01*
X132700783Y-97902488D01*
X132677376Y-97860319D01*
X132636569Y-97734729D01*
X132634527Y-97728444D01*
X132539040Y-97563056D01*
X132411253Y-97421134D01*
X132256752Y-97308882D01*
X132250724Y-97306198D01*
X132250722Y-97306197D01*
X132088319Y-97233891D01*
X132088318Y-97233891D01*
X132082288Y-97231206D01*
X131988888Y-97211353D01*
X131901944Y-97192872D01*
X131901939Y-97192872D01*
X131895487Y-97191500D01*
X131885371Y-97191500D01*
X131883413Y-97190925D01*
X131882318Y-97190810D01*
X131882339Y-97190610D01*
X131817250Y-97171498D01*
X131770757Y-97117842D01*
X131760653Y-97047568D01*
X131790147Y-96982988D01*
X131796276Y-96976405D01*
X133156331Y-95616350D01*
X133219228Y-95582199D01*
X133275824Y-95570169D01*
X133275833Y-95570166D01*
X133282288Y-95568794D01*
X133288319Y-95566109D01*
X133450722Y-95493803D01*
X133450724Y-95493802D01*
X133456752Y-95491118D01*
X133611253Y-95378866D01*
X133739040Y-95236944D01*
X133824634Y-95088691D01*
X133831223Y-95077279D01*
X133831224Y-95077278D01*
X133834527Y-95071556D01*
X133893542Y-94889928D01*
X133895822Y-94868241D01*
X133912814Y-94706565D01*
X133913504Y-94700000D01*
X133896848Y-94541529D01*
X133894232Y-94516635D01*
X133894232Y-94516633D01*
X133893542Y-94510072D01*
X133834527Y-94328444D01*
X133739040Y-94163056D01*
X133611253Y-94021134D01*
X133456752Y-93908882D01*
X133450724Y-93906198D01*
X133450722Y-93906197D01*
X133288319Y-93833891D01*
X133288318Y-93833891D01*
X133282288Y-93831206D01*
X133188888Y-93811353D01*
X133101944Y-93792872D01*
X133101939Y-93792872D01*
X133095487Y-93791500D01*
X132904513Y-93791500D01*
X132898061Y-93792872D01*
X132898056Y-93792872D01*
X132811112Y-93811353D01*
X132717712Y-93831206D01*
X132711682Y-93833891D01*
X132711681Y-93833891D01*
X132549278Y-93906197D01*
X132549276Y-93906198D01*
X132543248Y-93908882D01*
X132388747Y-94021134D01*
X132260960Y-94163056D01*
X132165473Y-94328444D01*
X132163431Y-94334729D01*
X132110613Y-94497285D01*
X132079875Y-94547444D01*
X128611089Y-98016230D01*
X128596677Y-98028616D01*
X128585082Y-98037149D01*
X128585077Y-98037154D01*
X128579182Y-98041492D01*
X128574443Y-98047070D01*
X128574440Y-98047073D01*
X128544965Y-98081768D01*
X128538035Y-98089284D01*
X128532340Y-98094979D01*
X128530060Y-98097861D01*
X128514719Y-98117251D01*
X128511928Y-98120655D01*
X128469409Y-98170703D01*
X128464667Y-98176285D01*
X128461339Y-98182801D01*
X128457972Y-98187850D01*
X128454805Y-98192979D01*
X128450266Y-98198716D01*
X128419345Y-98264875D01*
X128417442Y-98268769D01*
X128384231Y-98333808D01*
X128382492Y-98340916D01*
X128380393Y-98346559D01*
X128378476Y-98352322D01*
X128375378Y-98358950D01*
X128373888Y-98366112D01*
X128373888Y-98366113D01*
X128360514Y-98430412D01*
X128359544Y-98434696D01*
X128342192Y-98505610D01*
X128341500Y-98516764D01*
X128341464Y-98516762D01*
X128341225Y-98520755D01*
X128340851Y-98524947D01*
X128339360Y-98532115D01*
X128339558Y-98539432D01*
X128341454Y-98609521D01*
X128341500Y-98612928D01*
X128341500Y-109432930D01*
X128340067Y-109451880D01*
X128336801Y-109473349D01*
X128337394Y-109480641D01*
X128337394Y-109480644D01*
X128341085Y-109526018D01*
X128341500Y-109536233D01*
X128341500Y-109544293D01*
X128341925Y-109547937D01*
X128344789Y-109572507D01*
X128345222Y-109576882D01*
X128351140Y-109649637D01*
X128353396Y-109656601D01*
X128354587Y-109662560D01*
X128355971Y-109668415D01*
X128356818Y-109675681D01*
X128381735Y-109744327D01*
X128383152Y-109748455D01*
X128405649Y-109817899D01*
X128409445Y-109824154D01*
X128411951Y-109829628D01*
X128414670Y-109835058D01*
X128417167Y-109841937D01*
X128421180Y-109848057D01*
X128421180Y-109848058D01*
X128457186Y-109902976D01*
X128459523Y-109906680D01*
X128497405Y-109969107D01*
X128501121Y-109973315D01*
X128501122Y-109973316D01*
X128504803Y-109977484D01*
X128504776Y-109977508D01*
X128507429Y-109980500D01*
X128510132Y-109983733D01*
X128514144Y-109989852D01*
X128519456Y-109994884D01*
X128570383Y-110043128D01*
X128572825Y-110045506D01*
X130894595Y-112367276D01*
X130928621Y-112429588D01*
X130931500Y-112456371D01*
X130931500Y-116174392D01*
X130911498Y-116242513D01*
X130857842Y-116289006D01*
X130787568Y-116299110D01*
X130722988Y-116269616D01*
X130702413Y-116246843D01*
X130633304Y-116148510D01*
X130498691Y-115956976D01*
X130489617Y-115946351D01*
X130277390Y-115697865D01*
X130237833Y-115651550D01*
X130130521Y-115547558D01*
X129951529Y-115374102D01*
X129951520Y-115374094D01*
X129949390Y-115372030D01*
X129635922Y-115120894D01*
X129618215Y-115109263D01*
X129302695Y-114902005D01*
X129302685Y-114901999D01*
X129300211Y-114900374D01*
X128945237Y-114712425D01*
X128574151Y-114558716D01*
X128541646Y-114548716D01*
X128193085Y-114441484D01*
X128193083Y-114441484D01*
X128190247Y-114440611D01*
X128187344Y-114440010D01*
X128187337Y-114440008D01*
X127799851Y-114359764D01*
X127799841Y-114359762D01*
X127796932Y-114359160D01*
X127597314Y-114337122D01*
X127400659Y-114315411D01*
X127397697Y-114315084D01*
X127394716Y-114315037D01*
X127394713Y-114315037D01*
X127282454Y-114313274D01*
X126996086Y-114308775D01*
X126993142Y-114309007D01*
X126993132Y-114309007D01*
X126608775Y-114339257D01*
X126595663Y-114340289D01*
X126445297Y-114366532D01*
X126374753Y-114358540D01*
X126319727Y-114313676D01*
X126298325Y-114255579D01*
X126294232Y-114216636D01*
X126294232Y-114216635D01*
X126293542Y-114210072D01*
X126234527Y-114028444D01*
X126139040Y-113863056D01*
X126011253Y-113721134D01*
X125856752Y-113608882D01*
X125850724Y-113606198D01*
X125850722Y-113606197D01*
X125688319Y-113533891D01*
X125688318Y-113533891D01*
X125682288Y-113531206D01*
X125588888Y-113511353D01*
X125501944Y-113492872D01*
X125501939Y-113492872D01*
X125495487Y-113491500D01*
X125304513Y-113491500D01*
X125298061Y-113492872D01*
X125298056Y-113492872D01*
X125211112Y-113511353D01*
X125117712Y-113531206D01*
X125111682Y-113533891D01*
X125111681Y-113533891D01*
X124949278Y-113606197D01*
X124949276Y-113606198D01*
X124943248Y-113608882D01*
X124788747Y-113721134D01*
X124660960Y-113863056D01*
X124565473Y-114028444D01*
X124506458Y-114210072D01*
X124505768Y-114216633D01*
X124505768Y-114216635D01*
X124493847Y-114330057D01*
X124486496Y-114400000D01*
X124487186Y-114406565D01*
X124503297Y-114559849D01*
X124506458Y-114589928D01*
X124565473Y-114771556D01*
X124660960Y-114936944D01*
X124664668Y-114941062D01*
X124688394Y-115007557D01*
X124672315Y-115076709D01*
X124638253Y-115115512D01*
X124631085Y-115120894D01*
X124412452Y-115285049D01*
X124115371Y-115555371D01*
X123845049Y-115852452D01*
X123603883Y-116173654D01*
X123394016Y-116516126D01*
X123392704Y-116518805D01*
X123392703Y-116518806D01*
X123339604Y-116627194D01*
X123217310Y-116876828D01*
X123216263Y-116879598D01*
X123216262Y-116879601D01*
X123076381Y-117249784D01*
X123076377Y-117249795D01*
X123075333Y-117252559D01*
X123074552Y-117255413D01*
X123074549Y-117255423D01*
X122970133Y-117637105D01*
X122970130Y-117637117D01*
X122969346Y-117639984D01*
X122900289Y-118035663D01*
X122900057Y-118038611D01*
X122890831Y-118155843D01*
X122868775Y-118436086D01*
X122868822Y-118439058D01*
X122872059Y-118645146D01*
X122853130Y-118713572D01*
X122800211Y-118760902D01*
X122730104Y-118772109D01*
X122665068Y-118743634D01*
X122645712Y-118723304D01*
X122350256Y-118334054D01*
X122347154Y-118329785D01*
X122226261Y-118155843D01*
X121812502Y-117560521D01*
X121809592Y-117556140D01*
X121776020Y-117503238D01*
X121540712Y-117132452D01*
X121307654Y-116765211D01*
X121304920Y-116760697D01*
X120836534Y-115949430D01*
X120833991Y-115944805D01*
X120399979Y-115114616D01*
X120397633Y-115109889D01*
X119998783Y-114262291D01*
X119996636Y-114257470D01*
X119833243Y-113868774D01*
X119633611Y-113393868D01*
X119631675Y-113388978D01*
X119619060Y-113355055D01*
X119305133Y-112510930D01*
X119303401Y-112505956D01*
X119013931Y-111615059D01*
X119012406Y-111610007D01*
X118760481Y-110707713D01*
X118759168Y-110702601D01*
X118718269Y-110528224D01*
X118604490Y-110043128D01*
X118545257Y-109790586D01*
X118544160Y-109785424D01*
X118368626Y-108865242D01*
X118367746Y-108860038D01*
X118230902Y-107933333D01*
X118230240Y-107928098D01*
X118161836Y-107277279D01*
X118132316Y-106996410D01*
X118131876Y-106991166D01*
X118126554Y-106906565D01*
X118073057Y-106056255D01*
X118072836Y-106050982D01*
X118053217Y-105114414D01*
X118053217Y-105109136D01*
X118072836Y-104172568D01*
X118073057Y-104167295D01*
X118109833Y-103582749D01*
X118131877Y-103232368D01*
X118132317Y-103227125D01*
X118166699Y-102900000D01*
X125786496Y-102900000D01*
X125806458Y-103089928D01*
X125865473Y-103271556D01*
X125960960Y-103436944D01*
X126088747Y-103578866D01*
X126243248Y-103691118D01*
X126249276Y-103693802D01*
X126249278Y-103693803D01*
X126411681Y-103766109D01*
X126417712Y-103768794D01*
X126511112Y-103788647D01*
X126598056Y-103807128D01*
X126598061Y-103807128D01*
X126604513Y-103808500D01*
X126795487Y-103808500D01*
X126801939Y-103807128D01*
X126801944Y-103807128D01*
X126888888Y-103788647D01*
X126982288Y-103768794D01*
X126988319Y-103766109D01*
X127150722Y-103693803D01*
X127150724Y-103693802D01*
X127156752Y-103691118D01*
X127311253Y-103578866D01*
X127439040Y-103436944D01*
X127534527Y-103271556D01*
X127593542Y-103089928D01*
X127613504Y-102900000D01*
X127593542Y-102710072D01*
X127534527Y-102528444D01*
X127439040Y-102363056D01*
X127370501Y-102286935D01*
X127315675Y-102226045D01*
X127315674Y-102226044D01*
X127311253Y-102221134D01*
X127156752Y-102108882D01*
X127150724Y-102106198D01*
X127150722Y-102106197D01*
X126988319Y-102033891D01*
X126988318Y-102033891D01*
X126982288Y-102031206D01*
X126888888Y-102011353D01*
X126801944Y-101992872D01*
X126801939Y-101992872D01*
X126795487Y-101991500D01*
X126604513Y-101991500D01*
X126598061Y-101992872D01*
X126598056Y-101992872D01*
X126511112Y-102011353D01*
X126417712Y-102031206D01*
X126411682Y-102033891D01*
X126411681Y-102033891D01*
X126249278Y-102106197D01*
X126249276Y-102106198D01*
X126243248Y-102108882D01*
X126088747Y-102221134D01*
X126084326Y-102226044D01*
X126084325Y-102226045D01*
X126029500Y-102286935D01*
X125960960Y-102363056D01*
X125865473Y-102528444D01*
X125806458Y-102710072D01*
X125786496Y-102900000D01*
X118166699Y-102900000D01*
X118230240Y-102295452D01*
X118230902Y-102290217D01*
X118367746Y-101363512D01*
X118368626Y-101358308D01*
X118544160Y-100438126D01*
X118545257Y-100432964D01*
X118665062Y-99922173D01*
X118759173Y-99520931D01*
X118760481Y-99515837D01*
X119012406Y-98613543D01*
X119013931Y-98608491D01*
X119240861Y-97910072D01*
X119303404Y-97717584D01*
X119305136Y-97712610D01*
X119311237Y-97696206D01*
X119631682Y-96834555D01*
X119633618Y-96829665D01*
X119645947Y-96800337D01*
X119967779Y-96034729D01*
X119996636Y-95966080D01*
X119998783Y-95961259D01*
X120397633Y-95113661D01*
X120399979Y-95108934D01*
X120833991Y-94278745D01*
X120836534Y-94274120D01*
X121304920Y-93462853D01*
X121307654Y-93458339D01*
X121737984Y-92780247D01*
X121809602Y-92667395D01*
X121812512Y-92663014D01*
X121868835Y-92581977D01*
X122347156Y-91893763D01*
X122350256Y-91889496D01*
X122664757Y-91475156D01*
X122721875Y-91432989D01*
X122792723Y-91428396D01*
X122854807Y-91462835D01*
X122888416Y-91525373D01*
X122890732Y-91561220D01*
X122888775Y-91586086D01*
X122895084Y-91987697D01*
X122939160Y-92386932D01*
X122939762Y-92389841D01*
X122939764Y-92389851D01*
X123016469Y-92760247D01*
X123020611Y-92780247D01*
X123021484Y-92783083D01*
X123021484Y-92783085D01*
X123137845Y-93161320D01*
X123138716Y-93164151D01*
X123292425Y-93535237D01*
X123480374Y-93890211D01*
X123481999Y-93892685D01*
X123482005Y-93892695D01*
X123689280Y-94208242D01*
X123700894Y-94225922D01*
X123778445Y-94322721D01*
X123937721Y-94521529D01*
X123952030Y-94539390D01*
X123954094Y-94541520D01*
X123954102Y-94541529D01*
X124149196Y-94742850D01*
X124231550Y-94827833D01*
X124278287Y-94867750D01*
X124509555Y-95065271D01*
X124536976Y-95088691D01*
X124865594Y-95319648D01*
X124976222Y-95382749D01*
X125211913Y-95517185D01*
X125211918Y-95517188D01*
X125214489Y-95518654D01*
X125580564Y-95683943D01*
X125960569Y-95814048D01*
X125963443Y-95814738D01*
X125963450Y-95814740D01*
X126348253Y-95907123D01*
X126348257Y-95907124D01*
X126351132Y-95907814D01*
X126354065Y-95908231D01*
X126354068Y-95908232D01*
X126425998Y-95918469D01*
X126748785Y-95964408D01*
X127150000Y-95983329D01*
X127551215Y-95964408D01*
X127874002Y-95918469D01*
X127945932Y-95908232D01*
X127945935Y-95908231D01*
X127948868Y-95907814D01*
X127951743Y-95907124D01*
X127951747Y-95907123D01*
X128336550Y-95814740D01*
X128336557Y-95814738D01*
X128339431Y-95814048D01*
X128719436Y-95683943D01*
X129085511Y-95518654D01*
X129088082Y-95517188D01*
X129088087Y-95517185D01*
X129323778Y-95382749D01*
X129434406Y-95319648D01*
X129763024Y-95088691D01*
X129790446Y-95065271D01*
X130021713Y-94867750D01*
X130068450Y-94827833D01*
X130150804Y-94742850D01*
X130345898Y-94541529D01*
X130345906Y-94541520D01*
X130347970Y-94539390D01*
X130362280Y-94521529D01*
X130521555Y-94322721D01*
X130599106Y-94225922D01*
X130610720Y-94208242D01*
X130817995Y-93892695D01*
X130818001Y-93892685D01*
X130819626Y-93890211D01*
X131007575Y-93535237D01*
X131161284Y-93164151D01*
X131162155Y-93161320D01*
X131278516Y-92783085D01*
X131278516Y-92783083D01*
X131279389Y-92780247D01*
X131283531Y-92760247D01*
X131360236Y-92389851D01*
X131360238Y-92389841D01*
X131360840Y-92386932D01*
X131404916Y-91987697D01*
X131404993Y-91985244D01*
X131404994Y-91985231D01*
X131413251Y-91722468D01*
X131413329Y-91720000D01*
X131394408Y-91318785D01*
X131337814Y-90921132D01*
X131284725Y-90700000D01*
X141086496Y-90700000D01*
X141087186Y-90706565D01*
X141100184Y-90830230D01*
X141106458Y-90889928D01*
X141165473Y-91071556D01*
X141260960Y-91236944D01*
X141388747Y-91378866D01*
X141543248Y-91491118D01*
X141549276Y-91493802D01*
X141549278Y-91493803D01*
X141711681Y-91566109D01*
X141717712Y-91568794D01*
X141799064Y-91586086D01*
X141898056Y-91607128D01*
X141898061Y-91607128D01*
X141904513Y-91608500D01*
X142095487Y-91608500D01*
X142101939Y-91607128D01*
X142101944Y-91607128D01*
X142200936Y-91586086D01*
X142282288Y-91568794D01*
X142288319Y-91566109D01*
X142450722Y-91493803D01*
X142450724Y-91493802D01*
X142456752Y-91491118D01*
X142611253Y-91378866D01*
X142739040Y-91236944D01*
X142834527Y-91071556D01*
X142893542Y-90889928D01*
X142899817Y-90830230D01*
X142912814Y-90706565D01*
X142913504Y-90700000D01*
X142893542Y-90510072D01*
X142834527Y-90328444D01*
X142739040Y-90163056D01*
X142675147Y-90092095D01*
X142615675Y-90026045D01*
X142615674Y-90026044D01*
X142611253Y-90021134D01*
X142456752Y-89908882D01*
X142450724Y-89906198D01*
X142450722Y-89906197D01*
X142288319Y-89833891D01*
X142288318Y-89833891D01*
X142282288Y-89831206D01*
X142188888Y-89811353D01*
X142101944Y-89792872D01*
X142101939Y-89792872D01*
X142095487Y-89791500D01*
X141904513Y-89791500D01*
X141898061Y-89792872D01*
X141898056Y-89792872D01*
X141811112Y-89811353D01*
X141717712Y-89831206D01*
X141711682Y-89833891D01*
X141711681Y-89833891D01*
X141549278Y-89906197D01*
X141549276Y-89906198D01*
X141543248Y-89908882D01*
X141388747Y-90021134D01*
X141384326Y-90026044D01*
X141384325Y-90026045D01*
X141324854Y-90092095D01*
X141260960Y-90163056D01*
X141165473Y-90328444D01*
X141106458Y-90510072D01*
X141086496Y-90700000D01*
X131284725Y-90700000D01*
X131275985Y-90663596D01*
X131279532Y-90592689D01*
X131320852Y-90534955D01*
X131385335Y-90508873D01*
X131388885Y-90508500D01*
X131395487Y-90508500D01*
X131401939Y-90507128D01*
X131401944Y-90507128D01*
X131488887Y-90488647D01*
X131582288Y-90468794D01*
X131588319Y-90466109D01*
X131750722Y-90393803D01*
X131750724Y-90393802D01*
X131756752Y-90391118D01*
X131764591Y-90385423D01*
X131850892Y-90322721D01*
X131911253Y-90278866D01*
X132039040Y-90136944D01*
X132134527Y-89971556D01*
X132193542Y-89789928D01*
X132213504Y-89600000D01*
X132193542Y-89410072D01*
X132134527Y-89228444D01*
X132039040Y-89063056D01*
X131911253Y-88921134D01*
X131756752Y-88808882D01*
X131750724Y-88806198D01*
X131750722Y-88806197D01*
X131588319Y-88733891D01*
X131588318Y-88733891D01*
X131582288Y-88731206D01*
X131488887Y-88711353D01*
X131401944Y-88692872D01*
X131401939Y-88692872D01*
X131395487Y-88691500D01*
X131204513Y-88691500D01*
X131198061Y-88692872D01*
X131198056Y-88692872D01*
X131111112Y-88711353D01*
X131017712Y-88731206D01*
X131011682Y-88733891D01*
X131011681Y-88733891D01*
X130849278Y-88806197D01*
X130849276Y-88806198D01*
X130843248Y-88808882D01*
X130688747Y-88921134D01*
X130684326Y-88926044D01*
X130684325Y-88926045D01*
X130616154Y-89001757D01*
X130555708Y-89038997D01*
X130484725Y-89037645D01*
X130426708Y-88999278D01*
X130257833Y-88801550D01*
X130144270Y-88691500D01*
X129971529Y-88524102D01*
X129971520Y-88524094D01*
X129969390Y-88522030D01*
X129655922Y-88270894D01*
X129544286Y-88197563D01*
X129322695Y-88052005D01*
X129322685Y-88051999D01*
X129320211Y-88050374D01*
X128965237Y-87862425D01*
X128594151Y-87708716D01*
X128210247Y-87590611D01*
X128207344Y-87590010D01*
X128207337Y-87590008D01*
X127819851Y-87509764D01*
X127819841Y-87509762D01*
X127816932Y-87509160D01*
X127417697Y-87465084D01*
X127414716Y-87465037D01*
X127414713Y-87465037D01*
X127302454Y-87463274D01*
X127016086Y-87458775D01*
X126995649Y-87460383D01*
X126983555Y-87461335D01*
X126914075Y-87446739D01*
X126863516Y-87396896D01*
X126847930Y-87327631D01*
X126872266Y-87260936D01*
X126895403Y-87236980D01*
X126944262Y-87198255D01*
X126948457Y-87195071D01*
X127706325Y-86644447D01*
X127710659Y-86641435D01*
X128137611Y-86357769D01*
X128490923Y-86123029D01*
X128495357Y-86120215D01*
X129296645Y-85634938D01*
X129301215Y-85632299D01*
X130122128Y-85180999D01*
X130126805Y-85178554D01*
X130965881Y-84762032D01*
X130970656Y-84759785D01*
X131826445Y-84378764D01*
X131831310Y-84376719D01*
X131945942Y-84331333D01*
X132702326Y-84031859D01*
X132707250Y-84030028D01*
X133061927Y-83906517D01*
X133591909Y-83721958D01*
X133596928Y-83720327D01*
X134493729Y-83449567D01*
X134498812Y-83448148D01*
X135406131Y-83215188D01*
X135411269Y-83213982D01*
X136074652Y-83072975D01*
X136327601Y-83019209D01*
X136332774Y-83018223D01*
X137256455Y-82861994D01*
X137261659Y-82861226D01*
X137607147Y-82817580D01*
X137677238Y-82828886D01*
X137730089Y-82876292D01*
X137748921Y-82944745D01*
X137748202Y-82956190D01*
X137746968Y-82967557D01*
X137746500Y-82971866D01*
X137746500Y-84768134D01*
X137753255Y-84830316D01*
X137804385Y-84966705D01*
X137891739Y-85083261D01*
X138008295Y-85170615D01*
X138144684Y-85221745D01*
X138206866Y-85228500D01*
X140003134Y-85228500D01*
X140065316Y-85221745D01*
X140201705Y-85170615D01*
X140318261Y-85083261D01*
X140405615Y-84966705D01*
X140449798Y-84848848D01*
X140492440Y-84792084D01*
X140559001Y-84767384D01*
X140628350Y-84782592D01*
X140663017Y-84810580D01*
X140688218Y-84839673D01*
X140695580Y-84846883D01*
X140859434Y-84982916D01*
X140867881Y-84988831D01*
X141051756Y-85096279D01*
X141061042Y-85100729D01*
X141260001Y-85176703D01*
X141269899Y-85179579D01*
X141373250Y-85200606D01*
X141387299Y-85199410D01*
X141391000Y-85189065D01*
X141391000Y-85188517D01*
X141899000Y-85188517D01*
X141903064Y-85202359D01*
X141916478Y-85204393D01*
X141923184Y-85203534D01*
X141933262Y-85201392D01*
X142137255Y-85140191D01*
X142146842Y-85136433D01*
X142338095Y-85042739D01*
X142346945Y-85037464D01*
X142520328Y-84913792D01*
X142528200Y-84907139D01*
X142679052Y-84756812D01*
X142685730Y-84748965D01*
X142810003Y-84576020D01*
X142815313Y-84567183D01*
X142909670Y-84376267D01*
X142913469Y-84366672D01*
X142975377Y-84162910D01*
X142977555Y-84152837D01*
X142978986Y-84141962D01*
X142976775Y-84127778D01*
X142963617Y-84124000D01*
X141917115Y-84124000D01*
X141901876Y-84128475D01*
X141900671Y-84129865D01*
X141899000Y-84137548D01*
X141899000Y-85188517D01*
X141391000Y-85188517D01*
X141391000Y-83742000D01*
X141411002Y-83673879D01*
X141464658Y-83627386D01*
X141517000Y-83616000D01*
X142963344Y-83616000D01*
X142976875Y-83612027D01*
X142978180Y-83602947D01*
X142936214Y-83435875D01*
X142932894Y-83426124D01*
X142847972Y-83230814D01*
X142843105Y-83221739D01*
X142727426Y-83042926D01*
X142721136Y-83034757D01*
X142635563Y-82940715D01*
X142604511Y-82876869D01*
X142612905Y-82806371D01*
X142658082Y-82751602D01*
X142725697Y-82729952D01*
X142739299Y-82730357D01*
G37*
%TD.AperFunction*%
%TA.AperFunction,Conductor*%
G36*
X149982896Y-97078502D02*
G01*
X150029389Y-97132158D01*
X150039493Y-97202432D01*
X150034608Y-97223436D01*
X150006458Y-97310072D01*
X150005768Y-97316633D01*
X150005768Y-97316635D01*
X149994478Y-97424057D01*
X149986496Y-97500000D01*
X149987186Y-97506565D01*
X149992608Y-97558148D01*
X150006458Y-97689928D01*
X150065473Y-97871556D01*
X150160960Y-98036944D01*
X150165378Y-98041851D01*
X150165379Y-98041852D01*
X150281397Y-98170703D01*
X150288747Y-98178866D01*
X150316068Y-98198716D01*
X150412496Y-98268775D01*
X150443248Y-98291118D01*
X150449284Y-98293805D01*
X150449285Y-98293806D01*
X150466749Y-98301582D01*
X150520845Y-98347562D01*
X150541500Y-98416688D01*
X150541500Y-101150977D01*
X150521498Y-101219098D01*
X150467842Y-101265591D01*
X150397568Y-101275695D01*
X150332988Y-101246201D01*
X150299303Y-101199703D01*
X150112268Y-100753675D01*
X150112264Y-100753665D01*
X150111525Y-100751904D01*
X149827517Y-100175993D01*
X149826561Y-100174320D01*
X149509833Y-99620159D01*
X149509827Y-99620150D01*
X149508881Y-99618494D01*
X149507831Y-99616892D01*
X149157855Y-99083090D01*
X149157844Y-99083075D01*
X149156804Y-99081488D01*
X148971813Y-98833755D01*
X148773755Y-98568523D01*
X148773746Y-98568512D01*
X148772600Y-98566977D01*
X148357703Y-98076880D01*
X148323827Y-98041492D01*
X148166626Y-97877279D01*
X147983824Y-97686321D01*
X147951168Y-97623283D01*
X147957776Y-97552595D01*
X148001552Y-97496701D01*
X148048646Y-97475946D01*
X148075822Y-97470169D01*
X148075827Y-97470167D01*
X148082288Y-97468794D01*
X148109854Y-97456521D01*
X148250722Y-97393803D01*
X148250724Y-97393802D01*
X148256752Y-97391118D01*
X148411253Y-97278866D01*
X148420322Y-97268794D01*
X148534621Y-97141852D01*
X148534622Y-97141851D01*
X148539040Y-97136944D01*
X148547958Y-97121498D01*
X148599342Y-97072506D01*
X148657076Y-97058500D01*
X149914775Y-97058500D01*
X149982896Y-97078502D01*
G37*
%TD.AperFunction*%
%TA.AperFunction,Conductor*%
G36*
X131338095Y-99738752D02*
G01*
X131394931Y-99781299D01*
X131419742Y-99847819D01*
X131401782Y-99922173D01*
X131395203Y-99933015D01*
X131395195Y-99933030D01*
X131394189Y-99934687D01*
X131393284Y-99936408D01*
X131393279Y-99936416D01*
X131268112Y-100174320D01*
X131095203Y-100502967D01*
X131094407Y-100504733D01*
X131094407Y-100504734D01*
X130839552Y-101070491D01*
X130831467Y-101088438D01*
X130830796Y-101090209D01*
X130830789Y-101090226D01*
X130802327Y-101165352D01*
X130759488Y-101221967D01*
X130692841Y-101246435D01*
X130623545Y-101230986D01*
X130573603Y-101180525D01*
X130558500Y-101120711D01*
X130558500Y-100466371D01*
X130578502Y-100398250D01*
X130595405Y-100377276D01*
X131204968Y-99767713D01*
X131267280Y-99733687D01*
X131338095Y-99738752D01*
G37*
%TD.AperFunction*%
%TD*%
M02*
