%TF.GenerationSoftware,KiCad,Pcbnew,6.0.6-3a73a75311~116~ubuntu20.04.1*%
%TF.CreationDate,2022-09-22T10:25:09+01:00*%
%TF.ProjectId,UFOPulse,55464f50-756c-4736-952e-6b696361645f,rev?*%
%TF.SameCoordinates,Original*%
%TF.FileFunction,Copper,L2,Inr*%
%TF.FilePolarity,Positive*%
%FSLAX46Y46*%
G04 Gerber Fmt 4.6, Leading zero omitted, Abs format (unit mm)*
G04 Created by KiCad (PCBNEW 6.0.6-3a73a75311~116~ubuntu20.04.1) date 2022-09-22 10:25:09*
%MOMM*%
%LPD*%
G01*
G04 APERTURE LIST*
%TA.AperFunction,ComponentPad*%
%ADD10C,7.500000*%
%TD*%
%TA.AperFunction,ComponentPad*%
%ADD11R,1.700000X1.700000*%
%TD*%
%TA.AperFunction,ComponentPad*%
%ADD12O,1.700000X1.700000*%
%TD*%
%TA.AperFunction,ViaPad*%
%ADD13C,0.800000*%
%TD*%
G04 APERTURE END LIST*
D10*
%TO.N,N/C*%
%TO.C,H4*%
X127130000Y-118570000D03*
%TD*%
%TO.N,N/C*%
%TO.C,H3*%
X154010000Y-118560000D03*
%TD*%
%TO.N,N/C*%
%TO.C,H2*%
X154010000Y-91700000D03*
%TD*%
%TO.N,N/C*%
%TO.C,H1*%
X127150000Y-91720000D03*
%TD*%
D11*
%TO.N,VCC*%
%TO.C,J10*%
X139105000Y-83870000D03*
D12*
%TO.N,GND*%
X141645000Y-83870000D03*
%TD*%
D13*
%TO.N,GND*%
X158550000Y-118160000D03*
X120400000Y-106000000D03*
X118800000Y-104900000D03*
X161600000Y-103800000D03*
X140620000Y-94010000D03*
X122370000Y-93060000D03*
X121900000Y-104800000D03*
X145800000Y-117100000D03*
X133760000Y-93160000D03*
X151900000Y-86600000D03*
X130600000Y-85700000D03*
X130660000Y-100840000D03*
X128779312Y-97719312D03*
X159900000Y-95200000D03*
X140500000Y-92700000D03*
X157500000Y-94700000D03*
X161700000Y-105900000D03*
X150800000Y-95110000D03*
X143460000Y-93400000D03*
X159600000Y-105800000D03*
X122260000Y-95890000D03*
X132170000Y-93510000D03*
X129520000Y-124170000D03*
X159500000Y-103700000D03*
X128650000Y-123440000D03*
X140500000Y-126700000D03*
X148990000Y-98010000D03*
X148900000Y-85100000D03*
X128000000Y-87000000D03*
X150200000Y-124700000D03*
X156750000Y-114780000D03*
X130620000Y-95140000D03*
X153800000Y-106040000D03*
X121600000Y-114300000D03*
X155340000Y-114250000D03*
X160500000Y-96300000D03*
X129860000Y-113960000D03*
X158860000Y-116770000D03*
X123280000Y-115610000D03*
X149520000Y-94950000D03*
X129700000Y-88000000D03*
X146900000Y-114070000D03*
X140470000Y-115740000D03*
X139430000Y-89000000D03*
X122290000Y-117190000D03*
X120300000Y-103800000D03*
X141800000Y-126800000D03*
%TO.N,TRIG1*%
X133350000Y-113290000D03*
%TO.N,TRIG3*%
X133000000Y-94700000D03*
%TO.N,TRIG5*%
X150900000Y-97500000D03*
%TO.N,TRIG7*%
X147200000Y-117000000D03*
%TO.N,TRIG0*%
X134200000Y-113900000D03*
%TO.N,TRIG2*%
X131800000Y-98100000D03*
%TO.N,TRIG4*%
X147800000Y-96600000D03*
%TO.N,TRIG6*%
X148150000Y-112980000D03*
%TO.N,VCC*%
X155700000Y-96400000D03*
X151200000Y-122600000D03*
X154800000Y-106900000D03*
X125400000Y-114400000D03*
X139001042Y-125801040D03*
X131300000Y-89600000D03*
X142000000Y-90700000D03*
X126700000Y-102900000D03*
%TD*%
%TA.AperFunction,Conductor*%
%TO.N,GND*%
G36*
X142739299Y-82730357D02*
G01*
X142893040Y-82743267D01*
X142898289Y-82743819D01*
X143284953Y-82792666D01*
X143827663Y-82861226D01*
X143832867Y-82861994D01*
X144756548Y-83018223D01*
X144761721Y-83019209D01*
X145014670Y-83072975D01*
X145678053Y-83213982D01*
X145683191Y-83215188D01*
X146590510Y-83448148D01*
X146595593Y-83449567D01*
X147492394Y-83720327D01*
X147497413Y-83721958D01*
X148027395Y-83906517D01*
X148382072Y-84030028D01*
X148386996Y-84031859D01*
X149143380Y-84331333D01*
X149258012Y-84376719D01*
X149262877Y-84378764D01*
X150118666Y-84759785D01*
X150123441Y-84762032D01*
X150962517Y-85178554D01*
X150967194Y-85180999D01*
X151788108Y-85632299D01*
X151792678Y-85634938D01*
X152593965Y-86120215D01*
X152598399Y-86123029D01*
X152951711Y-86357769D01*
X153378663Y-86641435D01*
X153382997Y-86644447D01*
X154140865Y-87195071D01*
X154145060Y-87198255D01*
X154169203Y-87217390D01*
X154210164Y-87275377D01*
X154213273Y-87346306D01*
X154177541Y-87407655D01*
X154114314Y-87439948D01*
X154088959Y-87442119D01*
X154050000Y-87441507D01*
X153876086Y-87438775D01*
X153873142Y-87439007D01*
X153873132Y-87439007D01*
X153504544Y-87468016D01*
X153475663Y-87470289D01*
X153079984Y-87539346D01*
X153077117Y-87540130D01*
X153077105Y-87540133D01*
X152695423Y-87644549D01*
X152695413Y-87644552D01*
X152692559Y-87645333D01*
X152689795Y-87646377D01*
X152689784Y-87646381D01*
X152319601Y-87786262D01*
X152316828Y-87787310D01*
X151956126Y-87964016D01*
X151613654Y-88173883D01*
X151292452Y-88415049D01*
X150995371Y-88685371D01*
X150725049Y-88982452D01*
X150483883Y-89303654D01*
X150274016Y-89646126D01*
X150097310Y-90006828D01*
X150096263Y-90009598D01*
X150096262Y-90009601D01*
X149956381Y-90379784D01*
X149956377Y-90379795D01*
X149955333Y-90382559D01*
X149954552Y-90385413D01*
X149954549Y-90385423D01*
X149850133Y-90767105D01*
X149850130Y-90767117D01*
X149849346Y-90769984D01*
X149780289Y-91165663D01*
X149780057Y-91168611D01*
X149749158Y-91561221D01*
X149748775Y-91566086D01*
X149751154Y-91717529D01*
X149753856Y-91889496D01*
X149755084Y-91967697D01*
X149799160Y-92366932D01*
X149799762Y-92369841D01*
X149799764Y-92369851D01*
X149880008Y-92757337D01*
X149880611Y-92760247D01*
X149998716Y-93144151D01*
X150152425Y-93515237D01*
X150340374Y-93870211D01*
X150341999Y-93872685D01*
X150342005Y-93872695D01*
X150439511Y-94021134D01*
X150560894Y-94205922D01*
X150812030Y-94519390D01*
X150814094Y-94521520D01*
X150814102Y-94521529D01*
X150987641Y-94700607D01*
X151091550Y-94807833D01*
X151093804Y-94809758D01*
X151392972Y-95065271D01*
X151396976Y-95068691D01*
X151725594Y-95299648D01*
X151839506Y-95364622D01*
X152071913Y-95497185D01*
X152071918Y-95497188D01*
X152074489Y-95498654D01*
X152440564Y-95663943D01*
X152820569Y-95794048D01*
X152823443Y-95794738D01*
X152823450Y-95794740D01*
X153208253Y-95887123D01*
X153208257Y-95887124D01*
X153211132Y-95887814D01*
X153214065Y-95888231D01*
X153214068Y-95888232D01*
X153345313Y-95906911D01*
X153608785Y-95944408D01*
X154010000Y-95963329D01*
X154411215Y-95944408D01*
X154574748Y-95921134D01*
X154716108Y-95901016D01*
X154786367Y-95911220D01*
X154839956Y-95957790D01*
X154859861Y-96025939D01*
X154853694Y-96064695D01*
X154806458Y-96210072D01*
X154805768Y-96216633D01*
X154805768Y-96216635D01*
X154802809Y-96244792D01*
X154786496Y-96400000D01*
X154787186Y-96406565D01*
X154804310Y-96569487D01*
X154806458Y-96589928D01*
X154865473Y-96771556D01*
X154960960Y-96936944D01*
X155088747Y-97078866D01*
X155243248Y-97191118D01*
X155249276Y-97193802D01*
X155249278Y-97193803D01*
X155339318Y-97233891D01*
X155417712Y-97268794D01*
X155483365Y-97282749D01*
X155598056Y-97307128D01*
X155598061Y-97307128D01*
X155604513Y-97308500D01*
X155795487Y-97308500D01*
X155801939Y-97307128D01*
X155801944Y-97307128D01*
X155916635Y-97282749D01*
X155982288Y-97268794D01*
X156060682Y-97233891D01*
X156150722Y-97193803D01*
X156150724Y-97193802D01*
X156156752Y-97191118D01*
X156311253Y-97078866D01*
X156439040Y-96936944D01*
X156534527Y-96771556D01*
X156593542Y-96589928D01*
X156595691Y-96569487D01*
X156612814Y-96406565D01*
X156613504Y-96400000D01*
X156597191Y-96244792D01*
X156594232Y-96216635D01*
X156594232Y-96216633D01*
X156593542Y-96210072D01*
X156534527Y-96028444D01*
X156439040Y-95863056D01*
X156332838Y-95745106D01*
X156315675Y-95726045D01*
X156315674Y-95726044D01*
X156311253Y-95721134D01*
X156174374Y-95621685D01*
X156162094Y-95612763D01*
X156162093Y-95612762D01*
X156156752Y-95608882D01*
X156150720Y-95606196D01*
X156145187Y-95603002D01*
X156096194Y-95551620D01*
X156082757Y-95481906D01*
X156109144Y-95415995D01*
X156145759Y-95384436D01*
X156291822Y-95301123D01*
X156291839Y-95301112D01*
X156294406Y-95299648D01*
X156623024Y-95068691D01*
X156627029Y-95065271D01*
X156926196Y-94809758D01*
X156928450Y-94807833D01*
X157032359Y-94700607D01*
X157205898Y-94521529D01*
X157205906Y-94521520D01*
X157207970Y-94519390D01*
X157459106Y-94205922D01*
X157580489Y-94021134D01*
X157677995Y-93872695D01*
X157678001Y-93872685D01*
X157679626Y-93870211D01*
X157867575Y-93515237D01*
X158021284Y-93144151D01*
X158139389Y-92760247D01*
X158139992Y-92757337D01*
X158220236Y-92369851D01*
X158220238Y-92369841D01*
X158220840Y-92366932D01*
X158262980Y-91985231D01*
X158264645Y-91970153D01*
X158264645Y-91970149D01*
X158264916Y-91967697D01*
X158264993Y-91965244D01*
X158264994Y-91965231D01*
X158273251Y-91702468D01*
X158273329Y-91700000D01*
X158271120Y-91653149D01*
X158287891Y-91584162D01*
X158339298Y-91535194D01*
X158409018Y-91521791D01*
X158474916Y-91548210D01*
X158497340Y-91571033D01*
X158739066Y-91889496D01*
X158742166Y-91893763D01*
X159220488Y-92581977D01*
X159276810Y-92663014D01*
X159279720Y-92667395D01*
X159351338Y-92780247D01*
X159781668Y-93458339D01*
X159784402Y-93462853D01*
X160252788Y-94274120D01*
X160255331Y-94278745D01*
X160689343Y-95108934D01*
X160691689Y-95113661D01*
X161090539Y-95961259D01*
X161092686Y-95966080D01*
X161121543Y-96034729D01*
X161452118Y-96821134D01*
X161455704Y-96829665D01*
X161457640Y-96834555D01*
X161778085Y-97696206D01*
X161784186Y-97712610D01*
X161785918Y-97717584D01*
X161848461Y-97910072D01*
X162075391Y-98608491D01*
X162076916Y-98613543D01*
X162328841Y-99515837D01*
X162330154Y-99520949D01*
X162544065Y-100432964D01*
X162545162Y-100438126D01*
X162720696Y-101358308D01*
X162721576Y-101363512D01*
X162858420Y-102290217D01*
X162859082Y-102295452D01*
X162882969Y-102522721D01*
X162953520Y-103193965D01*
X162957005Y-103227125D01*
X162957445Y-103232368D01*
X162979489Y-103582749D01*
X163016265Y-104167295D01*
X163016486Y-104172568D01*
X163022675Y-104468005D01*
X163030355Y-104834622D01*
X163036105Y-105109136D01*
X163036105Y-105114414D01*
X163016486Y-106050982D01*
X163016265Y-106056255D01*
X163006136Y-106217251D01*
X162960709Y-106939308D01*
X162957446Y-106991166D01*
X162957006Y-106996410D01*
X162927486Y-107277279D01*
X162859082Y-107928098D01*
X162858420Y-107933333D01*
X162721576Y-108860038D01*
X162720696Y-108865242D01*
X162545162Y-109785424D01*
X162544065Y-109790586D01*
X162502837Y-109966362D01*
X162371054Y-110528224D01*
X162330154Y-110702601D01*
X162328841Y-110707713D01*
X162076916Y-111610007D01*
X162075391Y-111615059D01*
X161960085Y-111969934D01*
X161804501Y-112448774D01*
X161785921Y-112505956D01*
X161784189Y-112510930D01*
X161469436Y-113357279D01*
X161457647Y-113388978D01*
X161455711Y-113393868D01*
X161247787Y-113888500D01*
X161092686Y-114257470D01*
X161090539Y-114262291D01*
X160691689Y-115109889D01*
X160689343Y-115114616D01*
X160255331Y-115944805D01*
X160252788Y-115949430D01*
X159784402Y-116760697D01*
X159781668Y-116765211D01*
X159516300Y-117183365D01*
X159295541Y-117531226D01*
X159279730Y-117556140D01*
X159276820Y-117560521D01*
X158863061Y-118155843D01*
X158742168Y-118329785D01*
X158739066Y-118334054D01*
X158499323Y-118649904D01*
X158442205Y-118692071D01*
X158371357Y-118696664D01*
X158309273Y-118662225D01*
X158275664Y-118599687D01*
X158273022Y-118569766D01*
X158273251Y-118562467D01*
X158273329Y-118560000D01*
X158254408Y-118158785D01*
X158199237Y-117771132D01*
X158198232Y-117764068D01*
X158198231Y-117764065D01*
X158197814Y-117761132D01*
X158149655Y-117560536D01*
X158104740Y-117373450D01*
X158104738Y-117373443D01*
X158104048Y-117370569D01*
X157973943Y-116990564D01*
X157808654Y-116624489D01*
X157745399Y-116513590D01*
X157703138Y-116439500D01*
X157609648Y-116275594D01*
X157378691Y-115946976D01*
X157117833Y-115641550D01*
X156936487Y-115465814D01*
X156831529Y-115364102D01*
X156831520Y-115364094D01*
X156829390Y-115362030D01*
X156515922Y-115110894D01*
X156413907Y-115043883D01*
X156182695Y-114892005D01*
X156182685Y-114891999D01*
X156180211Y-114890374D01*
X155825237Y-114702425D01*
X155454151Y-114548716D01*
X155310585Y-114504549D01*
X155073085Y-114431484D01*
X155073083Y-114431484D01*
X155070247Y-114430611D01*
X155067344Y-114430010D01*
X155067337Y-114430008D01*
X154679851Y-114349764D01*
X154679841Y-114349762D01*
X154676932Y-114349160D01*
X154277697Y-114305084D01*
X154274716Y-114305037D01*
X154274713Y-114305037D01*
X154162454Y-114303274D01*
X153876086Y-114298775D01*
X153873142Y-114299007D01*
X153873132Y-114299007D01*
X153488775Y-114329257D01*
X153475663Y-114330289D01*
X153079984Y-114399346D01*
X153077117Y-114400130D01*
X153077105Y-114400133D01*
X152695423Y-114504549D01*
X152695413Y-114504552D01*
X152692559Y-114505333D01*
X152689795Y-114506377D01*
X152689784Y-114506381D01*
X152333556Y-114640989D01*
X152316828Y-114647310D01*
X152314161Y-114648617D01*
X152314160Y-114648617D01*
X152066048Y-114770166D01*
X151956126Y-114824016D01*
X151953591Y-114825569D01*
X151953590Y-114825570D01*
X151842402Y-114893706D01*
X151613654Y-115033883D01*
X151292452Y-115275049D01*
X150995371Y-115545371D01*
X150725049Y-115842452D01*
X150483883Y-116163654D01*
X150274016Y-116506126D01*
X150272704Y-116508805D01*
X150272703Y-116508806D01*
X150216897Y-116622721D01*
X150097310Y-116866828D01*
X150096263Y-116869598D01*
X150096262Y-116869601D01*
X149956381Y-117239784D01*
X149956377Y-117239795D01*
X149955333Y-117242559D01*
X149954552Y-117245413D01*
X149954549Y-117245423D01*
X149850133Y-117627105D01*
X149850130Y-117627117D01*
X149849346Y-117629984D01*
X149780289Y-118025663D01*
X149780057Y-118028611D01*
X149769257Y-118165843D01*
X149748775Y-118426086D01*
X149755084Y-118827697D01*
X149799160Y-119226932D01*
X149799762Y-119229841D01*
X149799764Y-119229851D01*
X149880008Y-119617337D01*
X149880611Y-119620247D01*
X149881484Y-119623083D01*
X149881484Y-119623085D01*
X149920309Y-119749286D01*
X149998716Y-120004151D01*
X150152425Y-120375237D01*
X150340374Y-120730211D01*
X150341999Y-120732685D01*
X150342005Y-120732695D01*
X150348574Y-120742695D01*
X150560894Y-121065922D01*
X150812030Y-121379390D01*
X150956597Y-121528572D01*
X150989638Y-121591409D01*
X150983462Y-121662136D01*
X150940027Y-121718297D01*
X150917361Y-121731362D01*
X150749278Y-121806197D01*
X150749276Y-121806198D01*
X150743248Y-121808882D01*
X150588747Y-121921134D01*
X150584326Y-121926044D01*
X150584325Y-121926045D01*
X150572939Y-121938691D01*
X150460960Y-122063056D01*
X150365473Y-122228444D01*
X150306458Y-122410072D01*
X150286496Y-122600000D01*
X150287186Y-122606565D01*
X150303127Y-122758232D01*
X150306458Y-122789928D01*
X150365473Y-122971556D01*
X150368776Y-122977278D01*
X150368777Y-122977279D01*
X150402686Y-123036010D01*
X150460960Y-123136944D01*
X150588747Y-123278866D01*
X150743248Y-123391118D01*
X150749276Y-123393802D01*
X150749278Y-123393803D01*
X150911681Y-123466109D01*
X150917712Y-123468794D01*
X151011113Y-123488647D01*
X151098056Y-123507128D01*
X151098061Y-123507128D01*
X151104513Y-123508500D01*
X151295487Y-123508500D01*
X151301939Y-123507128D01*
X151301944Y-123507128D01*
X151388887Y-123488647D01*
X151482288Y-123468794D01*
X151488319Y-123466109D01*
X151650722Y-123393803D01*
X151650724Y-123393802D01*
X151656752Y-123391118D01*
X151811253Y-123278866D01*
X151939040Y-123136944D01*
X151997314Y-123036010D01*
X152031223Y-122977279D01*
X152031224Y-122977278D01*
X152034527Y-122971556D01*
X152093542Y-122789928D01*
X152096874Y-122758232D01*
X152112814Y-122606565D01*
X152113504Y-122600000D01*
X152111768Y-122583484D01*
X152124540Y-122513647D01*
X152173041Y-122461800D01*
X152241874Y-122444405D01*
X152288929Y-122455477D01*
X152440564Y-122523943D01*
X152820569Y-122654048D01*
X152823443Y-122654738D01*
X152823450Y-122654740D01*
X153208253Y-122747123D01*
X153208257Y-122747124D01*
X153211132Y-122747814D01*
X153214065Y-122748231D01*
X153214068Y-122748232D01*
X153281396Y-122757814D01*
X153608785Y-122804408D01*
X153927661Y-122819446D01*
X153988944Y-122822336D01*
X154010000Y-122823329D01*
X154012969Y-122823189D01*
X154012973Y-122823189D01*
X154031070Y-122822336D01*
X154100056Y-122839108D01*
X154149024Y-122890515D01*
X154162425Y-122960236D01*
X154136006Y-123026133D01*
X154111066Y-123050129D01*
X153538520Y-123466109D01*
X153382997Y-123579103D01*
X153378663Y-123582115D01*
X152598399Y-124100521D01*
X152593965Y-124103335D01*
X152502537Y-124158706D01*
X151792678Y-124588612D01*
X151788108Y-124591251D01*
X150967194Y-125042551D01*
X150962517Y-125044996D01*
X150123441Y-125461518D01*
X150118666Y-125463765D01*
X149262877Y-125844786D01*
X149258012Y-125846831D01*
X148386996Y-126191691D01*
X148382072Y-126193522D01*
X148048684Y-126309619D01*
X147497413Y-126501592D01*
X147492394Y-126503223D01*
X146595593Y-126773983D01*
X146590510Y-126775402D01*
X145683191Y-127008362D01*
X145678053Y-127009568D01*
X145135758Y-127124837D01*
X144761721Y-127204341D01*
X144756548Y-127205327D01*
X143832867Y-127361556D01*
X143827663Y-127362324D01*
X143284953Y-127430884D01*
X142898289Y-127479731D01*
X142893040Y-127480283D01*
X142217392Y-127537019D01*
X141959531Y-127558672D01*
X141954273Y-127559003D01*
X141148772Y-127592763D01*
X141018335Y-127598230D01*
X141013059Y-127598341D01*
X140076263Y-127598341D01*
X140070987Y-127598230D01*
X139940550Y-127592763D01*
X139135049Y-127559003D01*
X139129791Y-127558672D01*
X138871930Y-127537019D01*
X138196282Y-127480283D01*
X138191033Y-127479731D01*
X137804369Y-127430884D01*
X137261659Y-127362324D01*
X137256455Y-127361556D01*
X136332774Y-127205327D01*
X136327601Y-127204341D01*
X135953564Y-127124837D01*
X135411269Y-127009568D01*
X135406131Y-127008362D01*
X134498812Y-126775402D01*
X134493729Y-126773983D01*
X133596928Y-126503223D01*
X133591909Y-126501592D01*
X133040638Y-126309619D01*
X132707250Y-126193522D01*
X132702326Y-126191691D01*
X131831310Y-125846831D01*
X131826445Y-125844786D01*
X131728190Y-125801040D01*
X138087538Y-125801040D01*
X138107500Y-125990968D01*
X138166515Y-126172596D01*
X138262002Y-126337984D01*
X138389789Y-126479906D01*
X138544290Y-126592158D01*
X138550318Y-126594842D01*
X138550320Y-126594843D01*
X138712723Y-126667149D01*
X138718754Y-126669834D01*
X138812155Y-126689687D01*
X138899098Y-126708168D01*
X138899103Y-126708168D01*
X138905555Y-126709540D01*
X139096529Y-126709540D01*
X139102981Y-126708168D01*
X139102986Y-126708168D01*
X139189929Y-126689687D01*
X139283330Y-126669834D01*
X139289361Y-126667149D01*
X139451764Y-126594843D01*
X139451766Y-126594842D01*
X139457794Y-126592158D01*
X139612295Y-126479906D01*
X139740082Y-126337984D01*
X139835569Y-126172596D01*
X139894584Y-125990968D01*
X139914546Y-125801040D01*
X139894584Y-125611112D01*
X139835569Y-125429484D01*
X139740082Y-125264096D01*
X139612295Y-125122174D01*
X139457794Y-125009922D01*
X139451766Y-125007238D01*
X139451764Y-125007237D01*
X139289361Y-124934931D01*
X139289360Y-124934931D01*
X139283330Y-124932246D01*
X139189929Y-124912393D01*
X139102986Y-124893912D01*
X139102981Y-124893912D01*
X139096529Y-124892540D01*
X138905555Y-124892540D01*
X138899103Y-124893912D01*
X138899098Y-124893912D01*
X138812155Y-124912393D01*
X138718754Y-124932246D01*
X138712724Y-124934931D01*
X138712723Y-124934931D01*
X138550320Y-125007237D01*
X138550318Y-125007238D01*
X138544290Y-125009922D01*
X138389789Y-125122174D01*
X138262002Y-125264096D01*
X138166515Y-125429484D01*
X138107500Y-125611112D01*
X138087538Y-125801040D01*
X131728190Y-125801040D01*
X130970656Y-125463765D01*
X130965881Y-125461518D01*
X130126805Y-125044996D01*
X130122128Y-125042551D01*
X129301214Y-124591251D01*
X129296644Y-124588612D01*
X128586785Y-124158706D01*
X128495357Y-124103335D01*
X128490923Y-124100521D01*
X127710659Y-123582115D01*
X127706325Y-123579103D01*
X126989461Y-123058270D01*
X126946107Y-123002048D01*
X126940032Y-122931312D01*
X126973163Y-122868520D01*
X127034983Y-122833608D01*
X127069457Y-122830474D01*
X127127031Y-122833189D01*
X127130000Y-122833329D01*
X127531215Y-122814408D01*
X127794687Y-122776911D01*
X127925932Y-122758232D01*
X127925935Y-122758231D01*
X127928868Y-122757814D01*
X127931743Y-122757124D01*
X127931747Y-122757123D01*
X128316550Y-122664740D01*
X128316557Y-122664738D01*
X128319431Y-122664048D01*
X128699436Y-122533943D01*
X129065511Y-122368654D01*
X129068082Y-122367188D01*
X129068087Y-122367185D01*
X129300307Y-122234729D01*
X129414406Y-122169648D01*
X129743024Y-121938691D01*
X130048450Y-121677833D01*
X130116780Y-121607321D01*
X130325898Y-121391529D01*
X130325906Y-121391520D01*
X130327970Y-121389390D01*
X130337844Y-121377066D01*
X130577247Y-121078242D01*
X130579106Y-121075922D01*
X130610905Y-121027512D01*
X130797995Y-120742695D01*
X130798001Y-120742685D01*
X130799626Y-120740211D01*
X130987575Y-120385237D01*
X131141284Y-120014151D01*
X131259389Y-119630247D01*
X131259992Y-119627337D01*
X131340236Y-119239851D01*
X131340238Y-119239841D01*
X131340840Y-119236932D01*
X131384916Y-118837697D01*
X131384993Y-118835244D01*
X131384994Y-118835231D01*
X131389493Y-118692071D01*
X131393329Y-118570000D01*
X131374408Y-118168785D01*
X131321041Y-117793803D01*
X131318232Y-117774068D01*
X131318231Y-117774065D01*
X131317814Y-117771132D01*
X131284632Y-117632919D01*
X131224740Y-117383450D01*
X131224738Y-117383443D01*
X131224048Y-117380569D01*
X131093943Y-117000564D01*
X131093688Y-117000000D01*
X146286496Y-117000000D01*
X146306458Y-117189928D01*
X146365473Y-117371556D01*
X146368776Y-117377278D01*
X146368777Y-117377279D01*
X146372340Y-117383450D01*
X146460960Y-117536944D01*
X146465378Y-117541851D01*
X146465379Y-117541852D01*
X146556380Y-117642919D01*
X146588747Y-117678866D01*
X146743248Y-117791118D01*
X146749276Y-117793802D01*
X146749278Y-117793803D01*
X146911681Y-117866109D01*
X146917712Y-117868794D01*
X147011112Y-117888647D01*
X147098056Y-117907128D01*
X147098061Y-117907128D01*
X147104513Y-117908500D01*
X147295487Y-117908500D01*
X147301939Y-117907128D01*
X147301944Y-117907128D01*
X147388888Y-117888647D01*
X147482288Y-117868794D01*
X147488319Y-117866109D01*
X147650722Y-117793803D01*
X147650724Y-117793802D01*
X147656752Y-117791118D01*
X147811253Y-117678866D01*
X147843620Y-117642919D01*
X147934621Y-117541852D01*
X147934622Y-117541851D01*
X147939040Y-117536944D01*
X148027660Y-117383450D01*
X148031223Y-117377279D01*
X148031224Y-117377278D01*
X148034527Y-117371556D01*
X148093542Y-117189928D01*
X148113504Y-117000000D01*
X148093542Y-116810072D01*
X148034527Y-116628444D01*
X147939040Y-116463056D01*
X147811253Y-116321134D01*
X147656752Y-116208882D01*
X147650724Y-116206198D01*
X147650722Y-116206197D01*
X147488319Y-116133891D01*
X147488318Y-116133891D01*
X147482288Y-116131206D01*
X147388887Y-116111353D01*
X147301944Y-116092872D01*
X147301939Y-116092872D01*
X147295487Y-116091500D01*
X147104513Y-116091500D01*
X147098061Y-116092872D01*
X147098056Y-116092872D01*
X147011113Y-116111353D01*
X146917712Y-116131206D01*
X146911682Y-116133891D01*
X146911681Y-116133891D01*
X146749278Y-116206197D01*
X146749276Y-116206198D01*
X146743248Y-116208882D01*
X146588747Y-116321134D01*
X146460960Y-116463056D01*
X146365473Y-116628444D01*
X146306458Y-116810072D01*
X146286496Y-117000000D01*
X131093688Y-117000000D01*
X130928654Y-116634489D01*
X130859695Y-116513590D01*
X130752721Y-116326045D01*
X130729648Y-116285594D01*
X130498691Y-115956976D01*
X130400879Y-115842452D01*
X130239758Y-115653804D01*
X130237833Y-115651550D01*
X130167321Y-115583220D01*
X129951529Y-115374102D01*
X129951520Y-115374094D01*
X129949390Y-115372030D01*
X129635922Y-115120894D01*
X129618215Y-115109263D01*
X129302695Y-114902005D01*
X129302685Y-114901999D01*
X129300211Y-114900374D01*
X128945237Y-114712425D01*
X128574151Y-114558716D01*
X128541646Y-114548716D01*
X128193085Y-114441484D01*
X128193083Y-114441484D01*
X128190247Y-114440611D01*
X128187344Y-114440010D01*
X128187337Y-114440008D01*
X127799851Y-114359764D01*
X127799841Y-114359762D01*
X127796932Y-114359160D01*
X127597314Y-114337122D01*
X127400659Y-114315411D01*
X127397697Y-114315084D01*
X127394716Y-114315037D01*
X127394713Y-114315037D01*
X127282454Y-114313274D01*
X126996086Y-114308775D01*
X126993142Y-114309007D01*
X126993132Y-114309007D01*
X126608775Y-114339257D01*
X126595663Y-114340289D01*
X126445297Y-114366532D01*
X126374753Y-114358540D01*
X126319727Y-114313676D01*
X126298325Y-114255579D01*
X126294232Y-114216636D01*
X126294232Y-114216635D01*
X126293542Y-114210072D01*
X126277327Y-114160166D01*
X126259766Y-114106120D01*
X126234527Y-114028444D01*
X126139040Y-113863056D01*
X126126199Y-113848794D01*
X126015675Y-113726045D01*
X126015674Y-113726044D01*
X126011253Y-113721134D01*
X125856752Y-113608882D01*
X125850724Y-113606198D01*
X125850722Y-113606197D01*
X125688319Y-113533891D01*
X125688318Y-113533891D01*
X125682288Y-113531206D01*
X125588290Y-113511226D01*
X125501944Y-113492872D01*
X125501939Y-113492872D01*
X125495487Y-113491500D01*
X125304513Y-113491500D01*
X125298061Y-113492872D01*
X125298056Y-113492872D01*
X125211710Y-113511226D01*
X125117712Y-113531206D01*
X125111682Y-113533891D01*
X125111681Y-113533891D01*
X124949278Y-113606197D01*
X124949276Y-113606198D01*
X124943248Y-113608882D01*
X124788747Y-113721134D01*
X124784326Y-113726044D01*
X124784325Y-113726045D01*
X124673802Y-113848794D01*
X124660960Y-113863056D01*
X124565473Y-114028444D01*
X124506458Y-114210072D01*
X124505768Y-114216633D01*
X124505768Y-114216635D01*
X124493847Y-114330057D01*
X124486496Y-114400000D01*
X124487186Y-114406565D01*
X124503297Y-114559849D01*
X124506458Y-114589928D01*
X124565473Y-114771556D01*
X124568776Y-114777278D01*
X124568777Y-114777279D01*
X124586803Y-114808500D01*
X124660960Y-114936944D01*
X124664668Y-114941062D01*
X124688394Y-115007557D01*
X124672315Y-115076709D01*
X124638253Y-115115512D01*
X124631085Y-115120894D01*
X124412452Y-115285049D01*
X124115371Y-115555371D01*
X123845049Y-115852452D01*
X123603883Y-116173654D01*
X123394016Y-116516126D01*
X123392704Y-116518805D01*
X123392703Y-116518806D01*
X123336031Y-116634489D01*
X123217310Y-116876828D01*
X123216263Y-116879598D01*
X123216262Y-116879601D01*
X123076381Y-117249784D01*
X123076377Y-117249795D01*
X123075333Y-117252559D01*
X123074552Y-117255413D01*
X123074549Y-117255423D01*
X122970133Y-117637105D01*
X122970130Y-117637117D01*
X122969346Y-117639984D01*
X122900289Y-118035663D01*
X122900057Y-118038611D01*
X122869795Y-118423132D01*
X122868775Y-118436086D01*
X122868822Y-118439058D01*
X122872059Y-118645146D01*
X122853130Y-118713572D01*
X122800211Y-118760902D01*
X122730104Y-118772109D01*
X122665068Y-118743634D01*
X122645712Y-118723304D01*
X122350256Y-118334054D01*
X122347154Y-118329785D01*
X122226261Y-118155843D01*
X121812502Y-117560521D01*
X121809592Y-117556140D01*
X121793782Y-117531226D01*
X121573022Y-117183365D01*
X121307654Y-116765211D01*
X121304920Y-116760697D01*
X120836534Y-115949430D01*
X120833991Y-115944805D01*
X120399979Y-115114616D01*
X120397633Y-115109889D01*
X119998783Y-114262291D01*
X119996636Y-114257470D01*
X119841535Y-113888500D01*
X119633611Y-113393868D01*
X119631675Y-113388978D01*
X119619887Y-113357279D01*
X119305133Y-112510930D01*
X119303401Y-112505956D01*
X119284822Y-112448774D01*
X119129237Y-111969934D01*
X119013931Y-111615059D01*
X119012406Y-111610007D01*
X118760481Y-110707713D01*
X118759168Y-110702601D01*
X118718269Y-110528224D01*
X118586485Y-109966362D01*
X118545257Y-109790586D01*
X118544160Y-109785424D01*
X118368626Y-108865242D01*
X118367746Y-108860038D01*
X118230902Y-107933333D01*
X118230240Y-107928098D01*
X118161836Y-107277279D01*
X118132316Y-106996410D01*
X118131876Y-106991166D01*
X118128614Y-106939308D01*
X118083186Y-106217251D01*
X118073057Y-106056255D01*
X118072836Y-106050982D01*
X118053217Y-105114414D01*
X118053217Y-105109136D01*
X118058927Y-104836564D01*
X130034779Y-104836564D01*
X130035980Y-105111775D01*
X130037581Y-105478690D01*
X130079578Y-106119448D01*
X130110569Y-106363056D01*
X130154715Y-106710072D01*
X130160614Y-106756446D01*
X130280388Y-107387310D01*
X130438451Y-108009684D01*
X130439029Y-108011491D01*
X130439032Y-108011500D01*
X130494170Y-108183750D01*
X130634214Y-108621248D01*
X130634910Y-108623037D01*
X130634915Y-108623052D01*
X130727074Y-108860038D01*
X130866947Y-109219721D01*
X130867740Y-109221440D01*
X130867745Y-109221453D01*
X130944522Y-109387995D01*
X131135782Y-109802869D01*
X131136689Y-109804558D01*
X131136694Y-109804567D01*
X131223630Y-109966362D01*
X131439716Y-110368517D01*
X131777615Y-110914556D01*
X132148219Y-111438948D01*
X132550144Y-111939737D01*
X132755313Y-112165610D01*
X132898018Y-112322716D01*
X132929015Y-112386589D01*
X132920558Y-112457080D01*
X132878812Y-112509370D01*
X132809355Y-112559834D01*
X132738747Y-112611134D01*
X132610960Y-112753056D01*
X132515473Y-112918444D01*
X132456458Y-113100072D01*
X132455768Y-113106633D01*
X132455768Y-113106635D01*
X132437415Y-113281252D01*
X132436496Y-113290000D01*
X132456458Y-113479928D01*
X132515473Y-113661556D01*
X132610960Y-113826944D01*
X132615378Y-113831851D01*
X132615379Y-113831852D01*
X132665150Y-113887128D01*
X132738747Y-113968866D01*
X132812872Y-114022721D01*
X132880810Y-114072081D01*
X132893248Y-114081118D01*
X132899276Y-114083802D01*
X132899278Y-114083803D01*
X133061681Y-114156109D01*
X133067712Y-114158794D01*
X133185487Y-114183828D01*
X133248057Y-114197128D01*
X133248060Y-114197128D01*
X133254513Y-114198500D01*
X133261116Y-114198500D01*
X133264914Y-114198899D01*
X133330571Y-114225910D01*
X133365255Y-114270886D01*
X133365473Y-114271556D01*
X133460960Y-114436944D01*
X133465378Y-114441851D01*
X133465379Y-114441852D01*
X133561600Y-114548716D01*
X133588747Y-114578866D01*
X133743248Y-114691118D01*
X133749276Y-114693802D01*
X133749278Y-114693803D01*
X133876643Y-114750509D01*
X133917712Y-114768794D01*
X134011112Y-114788647D01*
X134098056Y-114807128D01*
X134098061Y-114807128D01*
X134104513Y-114808500D01*
X134295487Y-114808500D01*
X134301939Y-114807128D01*
X134301944Y-114807128D01*
X134388888Y-114788647D01*
X134482288Y-114768794D01*
X134523357Y-114750509D01*
X134650722Y-114693803D01*
X134650724Y-114693802D01*
X134656752Y-114691118D01*
X134811253Y-114578866D01*
X134838400Y-114548716D01*
X134934621Y-114441852D01*
X134934622Y-114441851D01*
X134939040Y-114436944D01*
X135012905Y-114309007D01*
X135031223Y-114277279D01*
X135031224Y-114277277D01*
X135034527Y-114271556D01*
X135043094Y-114245190D01*
X135083165Y-114186587D01*
X135148561Y-114158949D01*
X135218518Y-114171054D01*
X135226399Y-114175282D01*
X135297309Y-114216636D01*
X135524552Y-114349160D01*
X135528060Y-114351206D01*
X136101470Y-114640228D01*
X136691456Y-114893706D01*
X137295815Y-115110693D01*
X137297670Y-115111234D01*
X137297671Y-115111234D01*
X137309274Y-115114616D01*
X137912295Y-115290381D01*
X138538593Y-115432098D01*
X139172376Y-115535316D01*
X139174280Y-115535508D01*
X139174282Y-115535508D01*
X139809359Y-115599457D01*
X139809363Y-115599457D01*
X139811277Y-115599650D01*
X139813186Y-115599725D01*
X139813200Y-115599726D01*
X140451003Y-115624785D01*
X140451007Y-115624785D01*
X140452915Y-115624860D01*
X140937889Y-115614278D01*
X141092972Y-115610894D01*
X141092974Y-115610894D01*
X141094894Y-115610852D01*
X141096796Y-115610694D01*
X141096814Y-115610693D01*
X141732908Y-115557837D01*
X141732909Y-115557837D01*
X141734821Y-115557678D01*
X141887726Y-115535508D01*
X141980742Y-115522021D01*
X142370309Y-115465537D01*
X142372194Y-115465145D01*
X142997098Y-115335165D01*
X142997114Y-115335161D01*
X142998985Y-115334772D01*
X143618507Y-115165871D01*
X144226561Y-114959464D01*
X144820881Y-114716321D01*
X145399248Y-114437350D01*
X145959506Y-114123591D01*
X146499564Y-113776213D01*
X147017409Y-113396514D01*
X147122114Y-113309431D01*
X147187276Y-113281252D01*
X147257331Y-113292775D01*
X147310035Y-113340344D01*
X147314718Y-113349232D01*
X147315473Y-113351556D01*
X147410960Y-113516944D01*
X147415378Y-113521851D01*
X147415379Y-113521852D01*
X147426219Y-113533891D01*
X147538747Y-113658866D01*
X147693248Y-113771118D01*
X147699276Y-113773802D01*
X147699278Y-113773803D01*
X147829659Y-113831852D01*
X147867712Y-113848794D01*
X147961112Y-113868647D01*
X148048056Y-113887128D01*
X148048061Y-113887128D01*
X148054513Y-113888500D01*
X148245487Y-113888500D01*
X148251939Y-113887128D01*
X148251944Y-113887128D01*
X148338888Y-113868647D01*
X148432288Y-113848794D01*
X148470341Y-113831852D01*
X148600722Y-113773803D01*
X148600724Y-113773802D01*
X148606752Y-113771118D01*
X148761253Y-113658866D01*
X148873781Y-113533891D01*
X148884621Y-113521852D01*
X148884622Y-113521851D01*
X148889040Y-113516944D01*
X148984527Y-113351556D01*
X149043542Y-113169928D01*
X149063504Y-112980000D01*
X149043542Y-112790072D01*
X148984527Y-112608444D01*
X148889040Y-112443056D01*
X148780686Y-112322716D01*
X148765675Y-112306045D01*
X148765674Y-112306044D01*
X148761253Y-112301134D01*
X148606752Y-112188882D01*
X148600724Y-112186198D01*
X148600722Y-112186197D01*
X148554482Y-112165610D01*
X148500386Y-112119630D01*
X148479737Y-112051703D01*
X148499089Y-111983395D01*
X148508857Y-111969934D01*
X148828170Y-111586002D01*
X148828171Y-111586001D01*
X148829400Y-111584523D01*
X149209099Y-111066678D01*
X149556477Y-110526620D01*
X149870236Y-109966362D01*
X150149207Y-109387995D01*
X150392350Y-108793675D01*
X150598757Y-108185621D01*
X150767658Y-107566099D01*
X150768047Y-107564228D01*
X150768051Y-107564212D01*
X150898031Y-106939308D01*
X150898031Y-106939305D01*
X150898423Y-106937423D01*
X150903849Y-106900000D01*
X153886496Y-106900000D01*
X153887186Y-106906565D01*
X153896631Y-106996425D01*
X153906458Y-107089928D01*
X153965473Y-107271556D01*
X154060960Y-107436944D01*
X154065378Y-107441851D01*
X154065379Y-107441852D01*
X154184325Y-107573955D01*
X154188747Y-107578866D01*
X154343248Y-107691118D01*
X154349276Y-107693802D01*
X154349278Y-107693803D01*
X154511681Y-107766109D01*
X154517712Y-107768794D01*
X154611112Y-107788647D01*
X154698056Y-107807128D01*
X154698061Y-107807128D01*
X154704513Y-107808500D01*
X154895487Y-107808500D01*
X154901939Y-107807128D01*
X154901944Y-107807128D01*
X154988887Y-107788647D01*
X155082288Y-107768794D01*
X155088319Y-107766109D01*
X155250722Y-107693803D01*
X155250724Y-107693802D01*
X155256752Y-107691118D01*
X155411253Y-107578866D01*
X155415675Y-107573955D01*
X155534621Y-107441852D01*
X155534622Y-107441851D01*
X155539040Y-107436944D01*
X155634527Y-107271556D01*
X155693542Y-107089928D01*
X155703370Y-106996425D01*
X155712814Y-106906565D01*
X155713504Y-106900000D01*
X155693542Y-106710072D01*
X155634527Y-106528444D01*
X155539040Y-106363056D01*
X155484007Y-106301935D01*
X155415675Y-106226045D01*
X155415674Y-106226044D01*
X155411253Y-106221134D01*
X155256752Y-106108882D01*
X155250724Y-106106198D01*
X155250722Y-106106197D01*
X155088319Y-106033891D01*
X155088318Y-106033891D01*
X155082288Y-106031206D01*
X154988888Y-106011353D01*
X154901944Y-105992872D01*
X154901939Y-105992872D01*
X154895487Y-105991500D01*
X154704513Y-105991500D01*
X154698061Y-105992872D01*
X154698056Y-105992872D01*
X154611112Y-106011353D01*
X154517712Y-106031206D01*
X154511682Y-106033891D01*
X154511681Y-106033891D01*
X154349278Y-106106197D01*
X154349276Y-106106198D01*
X154343248Y-106108882D01*
X154188747Y-106221134D01*
X154184326Y-106226044D01*
X154184325Y-106226045D01*
X154115994Y-106301935D01*
X154060960Y-106363056D01*
X153965473Y-106528444D01*
X153906458Y-106710072D01*
X153886496Y-106900000D01*
X150903849Y-106900000D01*
X150990564Y-106301935D01*
X151043738Y-105662008D01*
X151058146Y-105111775D01*
X151038536Y-104469942D01*
X151010727Y-104167295D01*
X150979958Y-103832435D01*
X150979956Y-103832420D01*
X150979780Y-103830503D01*
X150887313Y-103229735D01*
X150882388Y-103197735D01*
X150882387Y-103197732D01*
X150882097Y-103195845D01*
X150817863Y-102900000D01*
X150746259Y-102570211D01*
X150746257Y-102570203D01*
X150745851Y-102568333D01*
X150571550Y-101950309D01*
X150359845Y-101344079D01*
X150111525Y-100751904D01*
X149827517Y-100175993D01*
X149826561Y-100174320D01*
X149509833Y-99620159D01*
X149509827Y-99620150D01*
X149508881Y-99618494D01*
X149507831Y-99616892D01*
X149157855Y-99083090D01*
X149157844Y-99083075D01*
X149156804Y-99081488D01*
X148820577Y-98631226D01*
X148773755Y-98568523D01*
X148773746Y-98568512D01*
X148772600Y-98566977D01*
X148357703Y-98076880D01*
X147983824Y-97686321D01*
X147951168Y-97623283D01*
X147957776Y-97552595D01*
X147998968Y-97500000D01*
X149986496Y-97500000D01*
X149987186Y-97506565D01*
X149992608Y-97558148D01*
X150006458Y-97689928D01*
X150065473Y-97871556D01*
X150160960Y-98036944D01*
X150288747Y-98178866D01*
X150443248Y-98291118D01*
X150449276Y-98293802D01*
X150449278Y-98293803D01*
X150611681Y-98366109D01*
X150617712Y-98368794D01*
X150711113Y-98388647D01*
X150798056Y-98407128D01*
X150798061Y-98407128D01*
X150804513Y-98408500D01*
X150995487Y-98408500D01*
X151001939Y-98407128D01*
X151001944Y-98407128D01*
X151088887Y-98388647D01*
X151182288Y-98368794D01*
X151188319Y-98366109D01*
X151350722Y-98293803D01*
X151350724Y-98293802D01*
X151356752Y-98291118D01*
X151511253Y-98178866D01*
X151639040Y-98036944D01*
X151734527Y-97871556D01*
X151793542Y-97689928D01*
X151807393Y-97558148D01*
X151812814Y-97506565D01*
X151813504Y-97500000D01*
X151805522Y-97424057D01*
X151794232Y-97316635D01*
X151794232Y-97316633D01*
X151793542Y-97310072D01*
X151734527Y-97128444D01*
X151639040Y-96963056D01*
X151511253Y-96821134D01*
X151356752Y-96708882D01*
X151350724Y-96706198D01*
X151350722Y-96706197D01*
X151188319Y-96633891D01*
X151188318Y-96633891D01*
X151182288Y-96631206D01*
X151064584Y-96606187D01*
X151001944Y-96592872D01*
X151001939Y-96592872D01*
X150995487Y-96591500D01*
X150804513Y-96591500D01*
X150798061Y-96592872D01*
X150798056Y-96592872D01*
X150735416Y-96606187D01*
X150617712Y-96631206D01*
X150611682Y-96633891D01*
X150611681Y-96633891D01*
X150449278Y-96706197D01*
X150449276Y-96706198D01*
X150443248Y-96708882D01*
X150288747Y-96821134D01*
X150160960Y-96963056D01*
X150065473Y-97128444D01*
X150006458Y-97310072D01*
X150005768Y-97316633D01*
X150005768Y-97316635D01*
X149994478Y-97424057D01*
X149986496Y-97500000D01*
X147998968Y-97500000D01*
X148001552Y-97496701D01*
X148048646Y-97475946D01*
X148075822Y-97470169D01*
X148075827Y-97470167D01*
X148082288Y-97468794D01*
X148109854Y-97456521D01*
X148250722Y-97393803D01*
X148250724Y-97393802D01*
X148256752Y-97391118D01*
X148411253Y-97278866D01*
X148420322Y-97268794D01*
X148534621Y-97141852D01*
X148534622Y-97141851D01*
X148539040Y-97136944D01*
X148597314Y-97036010D01*
X148631223Y-96977279D01*
X148631224Y-96977278D01*
X148634527Y-96971556D01*
X148693542Y-96789928D01*
X148694872Y-96777279D01*
X148712814Y-96606565D01*
X148713504Y-96600000D01*
X148693542Y-96410072D01*
X148634527Y-96228444D01*
X148539040Y-96063056D01*
X148449120Y-95963189D01*
X148415675Y-95926045D01*
X148415674Y-95926044D01*
X148411253Y-95921134D01*
X148264815Y-95814740D01*
X148262094Y-95812763D01*
X148262093Y-95812762D01*
X148256752Y-95808882D01*
X148250724Y-95806198D01*
X148250722Y-95806197D01*
X148088319Y-95733891D01*
X148088318Y-95733891D01*
X148082288Y-95731206D01*
X147988887Y-95711353D01*
X147901944Y-95692872D01*
X147901939Y-95692872D01*
X147895487Y-95691500D01*
X147704513Y-95691500D01*
X147698061Y-95692872D01*
X147698056Y-95692872D01*
X147611113Y-95711353D01*
X147517712Y-95731206D01*
X147511682Y-95733891D01*
X147511681Y-95733891D01*
X147349278Y-95806197D01*
X147349276Y-95806198D01*
X147343248Y-95808882D01*
X147337907Y-95812762D01*
X147337906Y-95812763D01*
X147335185Y-95814740D01*
X147188747Y-95921134D01*
X147184326Y-95926044D01*
X147184325Y-95926045D01*
X147150881Y-95963189D01*
X147060960Y-96063056D01*
X146965473Y-96228444D01*
X146906458Y-96410072D01*
X146905768Y-96416633D01*
X146905768Y-96416635D01*
X146896604Y-96503830D01*
X146869591Y-96569487D01*
X146811370Y-96610117D01*
X146740425Y-96612820D01*
X146697679Y-96592918D01*
X146425294Y-96396829D01*
X146425292Y-96396828D01*
X146423727Y-96395701D01*
X146158641Y-96228444D01*
X145882294Y-96054082D01*
X145882288Y-96054079D01*
X145880658Y-96053050D01*
X145640207Y-95921134D01*
X145319351Y-95745106D01*
X145319349Y-95745105D01*
X145317683Y-95744191D01*
X144736903Y-95470278D01*
X144140485Y-95232331D01*
X143652920Y-95071556D01*
X143532475Y-95031839D01*
X143532471Y-95031838D01*
X143530652Y-95031238D01*
X143528812Y-95030754D01*
X143528800Y-95030750D01*
X143248973Y-94957078D01*
X142909681Y-94867750D01*
X142907795Y-94867375D01*
X142907787Y-94867373D01*
X142584617Y-94803091D01*
X142279887Y-94742476D01*
X142278000Y-94742219D01*
X142277987Y-94742217D01*
X141774919Y-94673753D01*
X141643619Y-94655884D01*
X141641713Y-94655742D01*
X141641700Y-94655741D01*
X141198274Y-94622789D01*
X141003253Y-94608297D01*
X140639118Y-94603530D01*
X140363107Y-94599916D01*
X140363097Y-94599916D01*
X140361175Y-94599891D01*
X140359265Y-94599983D01*
X140359250Y-94599983D01*
X139721692Y-94630608D01*
X139721684Y-94630609D01*
X139719782Y-94630700D01*
X139081467Y-94700607D01*
X138448609Y-94809351D01*
X137823571Y-94956528D01*
X137208683Y-95141588D01*
X137206894Y-95142248D01*
X137206885Y-95142251D01*
X136608055Y-95363171D01*
X136608043Y-95363176D01*
X136606240Y-95363841D01*
X136018489Y-95622458D01*
X135447622Y-95916474D01*
X134895770Y-96244792D01*
X134894168Y-96245883D01*
X134388870Y-96589928D01*
X134364990Y-96606187D01*
X133857262Y-96999312D01*
X133374481Y-97422699D01*
X133373113Y-97424056D01*
X133373111Y-97424057D01*
X133172139Y-97623283D01*
X132918448Y-97874769D01*
X132891212Y-97905285D01*
X132830928Y-97942787D01*
X132759940Y-97941745D01*
X132700783Y-97902488D01*
X132677376Y-97860319D01*
X132636569Y-97734729D01*
X132634527Y-97728444D01*
X132539040Y-97563056D01*
X132411253Y-97421134D01*
X132256752Y-97308882D01*
X132250724Y-97306198D01*
X132250722Y-97306197D01*
X132088319Y-97233891D01*
X132088318Y-97233891D01*
X132082288Y-97231206D01*
X131988888Y-97211353D01*
X131901944Y-97192872D01*
X131901939Y-97192872D01*
X131895487Y-97191500D01*
X131704513Y-97191500D01*
X131698061Y-97192872D01*
X131698056Y-97192872D01*
X131611113Y-97211353D01*
X131517712Y-97231206D01*
X131511682Y-97233891D01*
X131511681Y-97233891D01*
X131349278Y-97306197D01*
X131349276Y-97306198D01*
X131343248Y-97308882D01*
X131188747Y-97421134D01*
X131060960Y-97563056D01*
X130965473Y-97728444D01*
X130906458Y-97910072D01*
X130905768Y-97916633D01*
X130905768Y-97916635D01*
X130889073Y-98075485D01*
X130886496Y-98100000D01*
X130906458Y-98289928D01*
X130965473Y-98471556D01*
X131060960Y-98636944D01*
X131188747Y-98778866D01*
X131343248Y-98891118D01*
X131349276Y-98893802D01*
X131349278Y-98893803D01*
X131511681Y-98966109D01*
X131517712Y-98968794D01*
X131594830Y-98985186D01*
X131698056Y-99007128D01*
X131698061Y-99007128D01*
X131704513Y-99008500D01*
X131748238Y-99008500D01*
X131816359Y-99028502D01*
X131862852Y-99082158D01*
X131872956Y-99152432D01*
X131851765Y-99206320D01*
X131728415Y-99384128D01*
X131728399Y-99384153D01*
X131727311Y-99385721D01*
X131726318Y-99387358D01*
X131726317Y-99387359D01*
X131638054Y-99532812D01*
X131394189Y-99934687D01*
X131393284Y-99936408D01*
X131393279Y-99936416D01*
X131268112Y-100174320D01*
X131095203Y-100502967D01*
X131094407Y-100504733D01*
X131094407Y-100504734D01*
X130839552Y-101070491D01*
X130831467Y-101088438D01*
X130830796Y-101090209D01*
X130830789Y-101090226D01*
X130733930Y-101345883D01*
X130603966Y-101688919D01*
X130413547Y-102302168D01*
X130260921Y-102925899D01*
X130260580Y-102927785D01*
X130167622Y-103441852D01*
X130146658Y-103557783D01*
X130146433Y-103559685D01*
X130146432Y-103559691D01*
X130143703Y-103582749D01*
X130071183Y-104195464D01*
X130034779Y-104836564D01*
X118058927Y-104836564D01*
X118058968Y-104834622D01*
X118066647Y-104468005D01*
X118072836Y-104172568D01*
X118073057Y-104167295D01*
X118109833Y-103582749D01*
X118131877Y-103232368D01*
X118132317Y-103227125D01*
X118135803Y-103193965D01*
X118166700Y-102900000D01*
X125786496Y-102900000D01*
X125806458Y-103089928D01*
X125865473Y-103271556D01*
X125960960Y-103436944D01*
X126088747Y-103578866D01*
X126243248Y-103691118D01*
X126249276Y-103693802D01*
X126249278Y-103693803D01*
X126411681Y-103766109D01*
X126417712Y-103768794D01*
X126511112Y-103788647D01*
X126598056Y-103807128D01*
X126598061Y-103807128D01*
X126604513Y-103808500D01*
X126795487Y-103808500D01*
X126801939Y-103807128D01*
X126801944Y-103807128D01*
X126888888Y-103788647D01*
X126982288Y-103768794D01*
X126988319Y-103766109D01*
X127150722Y-103693803D01*
X127150724Y-103693802D01*
X127156752Y-103691118D01*
X127311253Y-103578866D01*
X127439040Y-103436944D01*
X127534527Y-103271556D01*
X127593542Y-103089928D01*
X127613504Y-102900000D01*
X127593542Y-102710072D01*
X127534527Y-102528444D01*
X127439040Y-102363056D01*
X127370501Y-102286935D01*
X127315675Y-102226045D01*
X127315674Y-102226044D01*
X127311253Y-102221134D01*
X127156752Y-102108882D01*
X127150724Y-102106198D01*
X127150722Y-102106197D01*
X126988319Y-102033891D01*
X126988318Y-102033891D01*
X126982288Y-102031206D01*
X126888888Y-102011353D01*
X126801944Y-101992872D01*
X126801939Y-101992872D01*
X126795487Y-101991500D01*
X126604513Y-101991500D01*
X126598061Y-101992872D01*
X126598056Y-101992872D01*
X126511112Y-102011353D01*
X126417712Y-102031206D01*
X126411682Y-102033891D01*
X126411681Y-102033891D01*
X126249278Y-102106197D01*
X126249276Y-102106198D01*
X126243248Y-102108882D01*
X126088747Y-102221134D01*
X126084326Y-102226044D01*
X126084325Y-102226045D01*
X126029500Y-102286935D01*
X125960960Y-102363056D01*
X125865473Y-102528444D01*
X125806458Y-102710072D01*
X125786496Y-102900000D01*
X118166700Y-102900000D01*
X118206353Y-102522721D01*
X118230240Y-102295452D01*
X118230902Y-102290217D01*
X118367746Y-101363512D01*
X118368626Y-101358308D01*
X118544160Y-100438126D01*
X118545257Y-100432964D01*
X118759168Y-99520949D01*
X118760481Y-99515837D01*
X119012406Y-98613543D01*
X119013931Y-98608491D01*
X119240861Y-97910072D01*
X119303404Y-97717584D01*
X119305136Y-97712610D01*
X119311237Y-97696206D01*
X119631682Y-96834555D01*
X119633618Y-96829665D01*
X119637205Y-96821134D01*
X119967779Y-96034729D01*
X119996636Y-95966080D01*
X119998783Y-95961259D01*
X120397633Y-95113661D01*
X120399979Y-95108934D01*
X120833991Y-94278745D01*
X120836534Y-94274120D01*
X121304920Y-93462853D01*
X121307654Y-93458339D01*
X121737984Y-92780247D01*
X121809602Y-92667395D01*
X121812512Y-92663014D01*
X121868835Y-92581977D01*
X122347156Y-91893763D01*
X122350256Y-91889496D01*
X122664757Y-91475156D01*
X122721875Y-91432989D01*
X122792723Y-91428396D01*
X122854807Y-91462835D01*
X122888416Y-91525373D01*
X122890732Y-91561220D01*
X122888775Y-91586086D01*
X122895084Y-91987697D01*
X122939160Y-92386932D01*
X122939762Y-92389841D01*
X122939764Y-92389851D01*
X123016469Y-92760247D01*
X123020611Y-92780247D01*
X123021484Y-92783083D01*
X123021484Y-92783085D01*
X123137845Y-93161320D01*
X123138716Y-93164151D01*
X123292425Y-93535237D01*
X123480374Y-93890211D01*
X123481999Y-93892685D01*
X123482005Y-93892695D01*
X123689280Y-94208242D01*
X123700894Y-94225922D01*
X123778445Y-94322721D01*
X123937721Y-94521529D01*
X123952030Y-94539390D01*
X123954094Y-94541520D01*
X123954102Y-94541529D01*
X124149196Y-94742850D01*
X124231550Y-94827833D01*
X124278287Y-94867750D01*
X124509555Y-95065271D01*
X124536976Y-95088691D01*
X124865594Y-95319648D01*
X124976222Y-95382749D01*
X125211913Y-95517185D01*
X125211918Y-95517188D01*
X125214489Y-95518654D01*
X125580564Y-95683943D01*
X125960569Y-95814048D01*
X125963443Y-95814738D01*
X125963450Y-95814740D01*
X126348253Y-95907123D01*
X126348257Y-95907124D01*
X126351132Y-95907814D01*
X126354065Y-95908231D01*
X126354068Y-95908232D01*
X126425998Y-95918469D01*
X126748785Y-95964408D01*
X127150000Y-95983329D01*
X127551215Y-95964408D01*
X127874002Y-95918469D01*
X127945932Y-95908232D01*
X127945935Y-95908231D01*
X127948868Y-95907814D01*
X127951743Y-95907124D01*
X127951747Y-95907123D01*
X128336550Y-95814740D01*
X128336557Y-95814738D01*
X128339431Y-95814048D01*
X128719436Y-95683943D01*
X129085511Y-95518654D01*
X129088082Y-95517188D01*
X129088087Y-95517185D01*
X129323778Y-95382749D01*
X129434406Y-95319648D01*
X129763024Y-95088691D01*
X129790446Y-95065271D01*
X130021713Y-94867750D01*
X130068450Y-94827833D01*
X130150804Y-94742850D01*
X130192329Y-94700000D01*
X132086496Y-94700000D01*
X132087186Y-94706565D01*
X132104179Y-94868241D01*
X132106458Y-94889928D01*
X132165473Y-95071556D01*
X132168776Y-95077278D01*
X132168777Y-95077279D01*
X132175366Y-95088691D01*
X132260960Y-95236944D01*
X132388747Y-95378866D01*
X132543248Y-95491118D01*
X132549276Y-95493802D01*
X132549278Y-95493803D01*
X132679138Y-95551620D01*
X132717712Y-95568794D01*
X132811112Y-95588647D01*
X132898056Y-95607128D01*
X132898061Y-95607128D01*
X132904513Y-95608500D01*
X133095487Y-95608500D01*
X133101939Y-95607128D01*
X133101944Y-95607128D01*
X133188888Y-95588647D01*
X133282288Y-95568794D01*
X133320862Y-95551620D01*
X133450722Y-95493803D01*
X133450724Y-95493802D01*
X133456752Y-95491118D01*
X133611253Y-95378866D01*
X133739040Y-95236944D01*
X133824634Y-95088691D01*
X133831223Y-95077279D01*
X133831224Y-95077278D01*
X133834527Y-95071556D01*
X133893542Y-94889928D01*
X133895822Y-94868241D01*
X133912814Y-94706565D01*
X133913504Y-94700000D01*
X133896848Y-94541529D01*
X133894232Y-94516635D01*
X133894232Y-94516633D01*
X133893542Y-94510072D01*
X133834527Y-94328444D01*
X133739040Y-94163056D01*
X133611253Y-94021134D01*
X133456752Y-93908882D01*
X133450724Y-93906198D01*
X133450722Y-93906197D01*
X133288319Y-93833891D01*
X133288318Y-93833891D01*
X133282288Y-93831206D01*
X133188888Y-93811353D01*
X133101944Y-93792872D01*
X133101939Y-93792872D01*
X133095487Y-93791500D01*
X132904513Y-93791500D01*
X132898061Y-93792872D01*
X132898056Y-93792872D01*
X132811112Y-93811353D01*
X132717712Y-93831206D01*
X132711682Y-93833891D01*
X132711681Y-93833891D01*
X132549278Y-93906197D01*
X132549276Y-93906198D01*
X132543248Y-93908882D01*
X132388747Y-94021134D01*
X132260960Y-94163056D01*
X132165473Y-94328444D01*
X132106458Y-94510072D01*
X132105768Y-94516633D01*
X132105768Y-94516635D01*
X132103152Y-94541529D01*
X132086496Y-94700000D01*
X130192329Y-94700000D01*
X130345898Y-94541529D01*
X130345906Y-94541520D01*
X130347970Y-94539390D01*
X130362280Y-94521529D01*
X130521555Y-94322721D01*
X130599106Y-94225922D01*
X130610720Y-94208242D01*
X130817995Y-93892695D01*
X130818001Y-93892685D01*
X130819626Y-93890211D01*
X131007575Y-93535237D01*
X131161284Y-93164151D01*
X131162155Y-93161320D01*
X131278516Y-92783085D01*
X131278516Y-92783083D01*
X131279389Y-92780247D01*
X131283531Y-92760247D01*
X131360236Y-92389851D01*
X131360238Y-92389841D01*
X131360840Y-92386932D01*
X131404916Y-91987697D01*
X131404993Y-91985244D01*
X131404994Y-91985231D01*
X131413251Y-91722468D01*
X131413329Y-91720000D01*
X131394408Y-91318785D01*
X131337814Y-90921132D01*
X131284725Y-90700000D01*
X141086496Y-90700000D01*
X141087186Y-90706565D01*
X141100184Y-90830230D01*
X141106458Y-90889928D01*
X141165473Y-91071556D01*
X141260960Y-91236944D01*
X141388747Y-91378866D01*
X141543248Y-91491118D01*
X141549276Y-91493802D01*
X141549278Y-91493803D01*
X141711681Y-91566109D01*
X141717712Y-91568794D01*
X141799064Y-91586086D01*
X141898056Y-91607128D01*
X141898061Y-91607128D01*
X141904513Y-91608500D01*
X142095487Y-91608500D01*
X142101939Y-91607128D01*
X142101944Y-91607128D01*
X142200936Y-91586086D01*
X142282288Y-91568794D01*
X142288319Y-91566109D01*
X142450722Y-91493803D01*
X142450724Y-91493802D01*
X142456752Y-91491118D01*
X142611253Y-91378866D01*
X142739040Y-91236944D01*
X142834527Y-91071556D01*
X142893542Y-90889928D01*
X142899817Y-90830230D01*
X142912814Y-90706565D01*
X142913504Y-90700000D01*
X142893542Y-90510072D01*
X142834527Y-90328444D01*
X142739040Y-90163056D01*
X142675147Y-90092095D01*
X142615675Y-90026045D01*
X142615674Y-90026044D01*
X142611253Y-90021134D01*
X142456752Y-89908882D01*
X142450724Y-89906198D01*
X142450722Y-89906197D01*
X142288319Y-89833891D01*
X142288318Y-89833891D01*
X142282288Y-89831206D01*
X142188888Y-89811353D01*
X142101944Y-89792872D01*
X142101939Y-89792872D01*
X142095487Y-89791500D01*
X141904513Y-89791500D01*
X141898061Y-89792872D01*
X141898056Y-89792872D01*
X141811112Y-89811353D01*
X141717712Y-89831206D01*
X141711682Y-89833891D01*
X141711681Y-89833891D01*
X141549278Y-89906197D01*
X141549276Y-89906198D01*
X141543248Y-89908882D01*
X141388747Y-90021134D01*
X141384326Y-90026044D01*
X141384325Y-90026045D01*
X141324854Y-90092095D01*
X141260960Y-90163056D01*
X141165473Y-90328444D01*
X141106458Y-90510072D01*
X141086496Y-90700000D01*
X131284725Y-90700000D01*
X131275985Y-90663596D01*
X131279532Y-90592689D01*
X131320852Y-90534955D01*
X131385335Y-90508873D01*
X131388885Y-90508500D01*
X131395487Y-90508500D01*
X131401939Y-90507128D01*
X131401944Y-90507128D01*
X131488887Y-90488647D01*
X131582288Y-90468794D01*
X131588319Y-90466109D01*
X131750722Y-90393803D01*
X131750724Y-90393802D01*
X131756752Y-90391118D01*
X131764591Y-90385423D01*
X131850892Y-90322721D01*
X131911253Y-90278866D01*
X132039040Y-90136944D01*
X132134527Y-89971556D01*
X132193542Y-89789928D01*
X132213504Y-89600000D01*
X132193542Y-89410072D01*
X132134527Y-89228444D01*
X132039040Y-89063056D01*
X131911253Y-88921134D01*
X131756752Y-88808882D01*
X131750724Y-88806198D01*
X131750722Y-88806197D01*
X131588319Y-88733891D01*
X131588318Y-88733891D01*
X131582288Y-88731206D01*
X131488887Y-88711353D01*
X131401944Y-88692872D01*
X131401939Y-88692872D01*
X131395487Y-88691500D01*
X131204513Y-88691500D01*
X131198061Y-88692872D01*
X131198056Y-88692872D01*
X131111112Y-88711353D01*
X131017712Y-88731206D01*
X131011682Y-88733891D01*
X131011681Y-88733891D01*
X130849278Y-88806197D01*
X130849276Y-88806198D01*
X130843248Y-88808882D01*
X130688747Y-88921134D01*
X130684326Y-88926044D01*
X130684325Y-88926045D01*
X130616154Y-89001757D01*
X130555708Y-89038997D01*
X130484725Y-89037645D01*
X130426708Y-88999278D01*
X130257833Y-88801550D01*
X130144270Y-88691500D01*
X129971529Y-88524102D01*
X129971520Y-88524094D01*
X129969390Y-88522030D01*
X129655922Y-88270894D01*
X129544286Y-88197563D01*
X129322695Y-88052005D01*
X129322685Y-88051999D01*
X129320211Y-88050374D01*
X128965237Y-87862425D01*
X128594151Y-87708716D01*
X128210247Y-87590611D01*
X128207344Y-87590010D01*
X128207337Y-87590008D01*
X127819851Y-87509764D01*
X127819841Y-87509762D01*
X127816932Y-87509160D01*
X127417697Y-87465084D01*
X127414716Y-87465037D01*
X127414713Y-87465037D01*
X127302454Y-87463274D01*
X127016086Y-87458775D01*
X126995649Y-87460383D01*
X126983555Y-87461335D01*
X126914075Y-87446739D01*
X126863516Y-87396896D01*
X126847930Y-87327631D01*
X126872266Y-87260936D01*
X126895403Y-87236980D01*
X126944262Y-87198255D01*
X126948457Y-87195071D01*
X127706325Y-86644447D01*
X127710659Y-86641435D01*
X128137611Y-86357769D01*
X128490923Y-86123029D01*
X128495357Y-86120215D01*
X129296645Y-85634938D01*
X129301215Y-85632299D01*
X130122128Y-85180999D01*
X130126805Y-85178554D01*
X130965881Y-84762032D01*
X130970656Y-84759785D01*
X131826445Y-84378764D01*
X131831310Y-84376719D01*
X131945942Y-84331333D01*
X132702326Y-84031859D01*
X132707250Y-84030028D01*
X133061927Y-83906517D01*
X133591909Y-83721958D01*
X133596928Y-83720327D01*
X134493729Y-83449567D01*
X134498812Y-83448148D01*
X135406131Y-83215188D01*
X135411269Y-83213982D01*
X136074652Y-83072975D01*
X136327601Y-83019209D01*
X136332774Y-83018223D01*
X137256455Y-82861994D01*
X137261659Y-82861226D01*
X137607147Y-82817580D01*
X137677238Y-82828886D01*
X137730089Y-82876292D01*
X137748921Y-82944745D01*
X137748202Y-82956190D01*
X137746968Y-82967557D01*
X137746500Y-82971866D01*
X137746500Y-84768134D01*
X137753255Y-84830316D01*
X137804385Y-84966705D01*
X137891739Y-85083261D01*
X138008295Y-85170615D01*
X138144684Y-85221745D01*
X138206866Y-85228500D01*
X140003134Y-85228500D01*
X140065316Y-85221745D01*
X140201705Y-85170615D01*
X140318261Y-85083261D01*
X140405615Y-84966705D01*
X140449798Y-84848848D01*
X140492440Y-84792084D01*
X140559001Y-84767384D01*
X140628350Y-84782592D01*
X140663017Y-84810580D01*
X140688218Y-84839673D01*
X140695580Y-84846883D01*
X140859434Y-84982916D01*
X140867881Y-84988831D01*
X141051756Y-85096279D01*
X141061042Y-85100729D01*
X141260001Y-85176703D01*
X141269899Y-85179579D01*
X141373250Y-85200606D01*
X141387299Y-85199410D01*
X141391000Y-85189065D01*
X141391000Y-85188517D01*
X141899000Y-85188517D01*
X141903064Y-85202359D01*
X141916478Y-85204393D01*
X141923184Y-85203534D01*
X141933262Y-85201392D01*
X142137255Y-85140191D01*
X142146842Y-85136433D01*
X142338095Y-85042739D01*
X142346945Y-85037464D01*
X142520328Y-84913792D01*
X142528200Y-84907139D01*
X142679052Y-84756812D01*
X142685730Y-84748965D01*
X142810003Y-84576020D01*
X142815313Y-84567183D01*
X142909670Y-84376267D01*
X142913469Y-84366672D01*
X142975377Y-84162910D01*
X142977555Y-84152837D01*
X142978986Y-84141962D01*
X142976775Y-84127778D01*
X142963617Y-84124000D01*
X141917115Y-84124000D01*
X141901876Y-84128475D01*
X141900671Y-84129865D01*
X141899000Y-84137548D01*
X141899000Y-85188517D01*
X141391000Y-85188517D01*
X141391000Y-83742000D01*
X141411002Y-83673879D01*
X141464658Y-83627386D01*
X141517000Y-83616000D01*
X142963344Y-83616000D01*
X142976875Y-83612027D01*
X142978180Y-83602947D01*
X142936214Y-83435875D01*
X142932894Y-83426124D01*
X142847972Y-83230814D01*
X142843105Y-83221739D01*
X142727426Y-83042926D01*
X142721136Y-83034757D01*
X142635563Y-82940715D01*
X142604511Y-82876869D01*
X142612905Y-82806371D01*
X142658082Y-82751602D01*
X142725697Y-82729952D01*
X142739299Y-82730357D01*
G37*
%TD.AperFunction*%
%TD*%
M02*
