%TF.GenerationSoftware,KiCad,Pcbnew,5.1.7-a382d34a8~87~ubuntu20.04.1*%
%TF.CreationDate,2021-02-25T10:09:00+00:00*%
%TF.ProjectId,UFOPulse,55464f50-756c-4736-952e-6b696361645f,rev?*%
%TF.SameCoordinates,Original*%
%TF.FileFunction,Copper,L3,Inr*%
%TF.FilePolarity,Positive*%
%FSLAX46Y46*%
G04 Gerber Fmt 4.6, Leading zero omitted, Abs format (unit mm)*
G04 Created by KiCad (PCBNEW 5.1.7-a382d34a8~87~ubuntu20.04.1) date 2021-02-25 10:09:00*
%MOMM*%
%LPD*%
G01*
G04 APERTURE LIST*
%TA.AperFunction,ComponentPad*%
%ADD10O,1.000000X1.000000*%
%TD*%
%TA.AperFunction,ComponentPad*%
%ADD11R,1.000000X1.000000*%
%TD*%
%TA.AperFunction,ViaPad*%
%ADD12C,0.800000*%
%TD*%
%TA.AperFunction,Conductor*%
%ADD13C,0.254000*%
%TD*%
%TA.AperFunction,Conductor*%
%ADD14C,0.100000*%
%TD*%
G04 APERTURE END LIST*
D10*
%TO.N,GND*%
%TO.C,J10*%
X139830000Y-83600000D03*
D11*
%TO.N,VCC*%
X141100000Y-83600000D03*
%TD*%
D12*
%TO.N,GND*%
X126300000Y-103900000D03*
X160500000Y-96300000D03*
X128000000Y-87000000D03*
X118800000Y-104900000D03*
X145800000Y-117100000D03*
X153300000Y-106900000D03*
X123000000Y-118300000D03*
X156100000Y-120600000D03*
X140100000Y-116200000D03*
X138500000Y-119300000D03*
X140650000Y-119250000D03*
X121600000Y-114300000D03*
X123700000Y-115800000D03*
X128400000Y-122200000D03*
X130500000Y-124200000D03*
X141800000Y-126800000D03*
X140500000Y-126700000D03*
X150200000Y-124700000D03*
X153800000Y-122300000D03*
X157800000Y-118500000D03*
X159200000Y-116300000D03*
X160700000Y-113300000D03*
X157500000Y-116500000D03*
X159500000Y-103700000D03*
X159600000Y-105800000D03*
X161600000Y-103800000D03*
X161700000Y-105900000D03*
X157500000Y-92300000D03*
X159900000Y-95200000D03*
X157500000Y-94700000D03*
X148900000Y-85100000D03*
X151900000Y-86600000D03*
X154600000Y-88400000D03*
X130600000Y-85700000D03*
X129700000Y-88000000D03*
X125500000Y-89300000D03*
X122800000Y-92300000D03*
X121100000Y-95300000D03*
X123000000Y-94100000D03*
X130200000Y-94200000D03*
X129400000Y-115300000D03*
X120300000Y-103800000D03*
X120400000Y-106000000D03*
X121900000Y-104800000D03*
%TO.N,TRIG1*%
X132200000Y-112600000D03*
%TO.N,TRIG3*%
X133000000Y-94700000D03*
%TO.N,TRIG5*%
X150900000Y-97500000D03*
%TO.N,TRIG7*%
X147200000Y-117000000D03*
%TO.N,TRIG0*%
X134200000Y-113900000D03*
%TO.N,TRIG2*%
X131800000Y-98100000D03*
%TO.N,TRIG4*%
X147800000Y-96600000D03*
%TO.N,TRIG6*%
X148400000Y-113000000D03*
%TO.N,VCC*%
X125400000Y-114400000D03*
X126700000Y-102900000D03*
X131300000Y-89600000D03*
X142000000Y-90700000D03*
X155700000Y-96400000D03*
X154800000Y-106900000D03*
X151200000Y-122600000D03*
X139001042Y-125801040D03*
%TD*%
D13*
%TO.N,VCC*%
X138824176Y-83062376D02*
X138738617Y-83268933D01*
X138695000Y-83488212D01*
X138695000Y-83711788D01*
X138738617Y-83931067D01*
X138824176Y-84137624D01*
X138948388Y-84323520D01*
X139106480Y-84481612D01*
X139292376Y-84605824D01*
X139498933Y-84691383D01*
X139718212Y-84735000D01*
X139941788Y-84735000D01*
X140161067Y-84691383D01*
X140272774Y-84645112D01*
X140355820Y-84689502D01*
X140475518Y-84725812D01*
X140600000Y-84738072D01*
X140814250Y-84735000D01*
X140973000Y-84576250D01*
X140973000Y-83727000D01*
X141227000Y-83727000D01*
X141227000Y-84576250D01*
X141385750Y-84735000D01*
X141600000Y-84738072D01*
X141724482Y-84725812D01*
X141844180Y-84689502D01*
X141954494Y-84630537D01*
X142051185Y-84551185D01*
X142130537Y-84454494D01*
X142189502Y-84344180D01*
X142225812Y-84224482D01*
X142238072Y-84100000D01*
X142235000Y-83885750D01*
X142076250Y-83727000D01*
X141227000Y-83727000D01*
X140973000Y-83727000D01*
X140961974Y-83727000D01*
X140965000Y-83711788D01*
X140965000Y-83488212D01*
X140961974Y-83473000D01*
X140973000Y-83473000D01*
X140973000Y-83453000D01*
X141227000Y-83453000D01*
X141227000Y-83473000D01*
X142076250Y-83473000D01*
X142235000Y-83314250D01*
X142238072Y-83100000D01*
X142225812Y-82975518D01*
X142211146Y-82927169D01*
X142871987Y-82968746D01*
X144716706Y-83241150D01*
X146532161Y-83666961D01*
X148305617Y-84243192D01*
X148314049Y-84246736D01*
X148240226Y-84296063D01*
X148096063Y-84440226D01*
X147982795Y-84609744D01*
X147904774Y-84798102D01*
X147865000Y-84998061D01*
X147865000Y-85201939D01*
X147904774Y-85401898D01*
X147982795Y-85590256D01*
X148096063Y-85759774D01*
X148240226Y-85903937D01*
X148409744Y-86017205D01*
X148598102Y-86095226D01*
X148798061Y-86135000D01*
X149001939Y-86135000D01*
X149201898Y-86095226D01*
X149390256Y-86017205D01*
X149559774Y-85903937D01*
X149703937Y-85759774D01*
X149817205Y-85590256D01*
X149895226Y-85401898D01*
X149935000Y-85201939D01*
X149935000Y-84998061D01*
X149919819Y-84921741D01*
X150024637Y-84965802D01*
X151403763Y-85686791D01*
X151240226Y-85796063D01*
X151096063Y-85940226D01*
X150982795Y-86109744D01*
X150904774Y-86298102D01*
X150865000Y-86498061D01*
X150865000Y-86701939D01*
X150904774Y-86901898D01*
X150982795Y-87090256D01*
X151096063Y-87259774D01*
X151240226Y-87403937D01*
X151409744Y-87517205D01*
X151598102Y-87595226D01*
X151798061Y-87635000D01*
X152001939Y-87635000D01*
X152201898Y-87595226D01*
X152390256Y-87517205D01*
X152559774Y-87403937D01*
X152703937Y-87259774D01*
X152817205Y-87090256D01*
X152895226Y-86901898D01*
X152935000Y-86701939D01*
X152935000Y-86627970D01*
X153251598Y-86828889D01*
X154111907Y-87481899D01*
X154109744Y-87482795D01*
X153940226Y-87596063D01*
X153796063Y-87740226D01*
X153682795Y-87909744D01*
X153604774Y-88098102D01*
X153565000Y-88298061D01*
X153565000Y-88501939D01*
X153604774Y-88701898D01*
X153682795Y-88890256D01*
X153796063Y-89059774D01*
X153920097Y-89183808D01*
X153734157Y-89183808D01*
X153252527Y-89279610D01*
X152798841Y-89467533D01*
X152390535Y-89740355D01*
X152043299Y-90087591D01*
X151770477Y-90495897D01*
X151582554Y-90949583D01*
X151486752Y-91431213D01*
X151486752Y-91922279D01*
X151582554Y-92403909D01*
X151770477Y-92857595D01*
X152043299Y-93265901D01*
X152390535Y-93613137D01*
X152798841Y-93885959D01*
X153252527Y-94073882D01*
X153734157Y-94169684D01*
X154225223Y-94169684D01*
X154706853Y-94073882D01*
X155160539Y-93885959D01*
X155568845Y-93613137D01*
X155916081Y-93265901D01*
X156188903Y-92857595D01*
X156376826Y-92403909D01*
X156472628Y-91922279D01*
X156472628Y-91431213D01*
X156376826Y-90949583D01*
X156188903Y-90495897D01*
X155916081Y-90087591D01*
X155568845Y-89740355D01*
X155160539Y-89467533D01*
X154943936Y-89377813D01*
X155090256Y-89317205D01*
X155259774Y-89203937D01*
X155403937Y-89059774D01*
X155517205Y-88890256D01*
X155587009Y-88721735D01*
X156122665Y-89204042D01*
X157399155Y-90563366D01*
X158114341Y-91465706D01*
X157990256Y-91382795D01*
X157801898Y-91304774D01*
X157601939Y-91265000D01*
X157398061Y-91265000D01*
X157198102Y-91304774D01*
X157009744Y-91382795D01*
X156840226Y-91496063D01*
X156696063Y-91640226D01*
X156582795Y-91809744D01*
X156504774Y-91998102D01*
X156465000Y-92198061D01*
X156465000Y-92401939D01*
X156504774Y-92601898D01*
X156582795Y-92790256D01*
X156696063Y-92959774D01*
X156840226Y-93103937D01*
X157009744Y-93217205D01*
X157198102Y-93295226D01*
X157398061Y-93335000D01*
X157601939Y-93335000D01*
X157801898Y-93295226D01*
X157990256Y-93217205D01*
X158159774Y-93103937D01*
X158303937Y-92959774D01*
X158417205Y-92790256D01*
X158495226Y-92601898D01*
X158535000Y-92401939D01*
X158535000Y-92198061D01*
X158495226Y-91998102D01*
X158450247Y-91889513D01*
X158557424Y-92024737D01*
X159589345Y-93577904D01*
X159912104Y-94165000D01*
X159798061Y-94165000D01*
X159598102Y-94204774D01*
X159409744Y-94282795D01*
X159240226Y-94396063D01*
X159096063Y-94540226D01*
X158982795Y-94709744D01*
X158904774Y-94898102D01*
X158865000Y-95098061D01*
X158865000Y-95301939D01*
X158904774Y-95501898D01*
X158982795Y-95690256D01*
X159096063Y-95859774D01*
X159240226Y-96003937D01*
X159409744Y-96117205D01*
X159475653Y-96144506D01*
X159465000Y-96198061D01*
X159465000Y-96401939D01*
X159504774Y-96601898D01*
X159582795Y-96790256D01*
X159696063Y-96959774D01*
X159840226Y-97103937D01*
X160009744Y-97217205D01*
X160198102Y-97295226D01*
X160398061Y-97335000D01*
X160601939Y-97335000D01*
X160801898Y-97295226D01*
X160990256Y-97217205D01*
X161159774Y-97103937D01*
X161272504Y-96991207D01*
X161859379Y-98676482D01*
X162323116Y-100482621D01*
X162634094Y-102321231D01*
X162790130Y-104179414D01*
X162790130Y-106044136D01*
X162634094Y-107902319D01*
X162323116Y-109740929D01*
X161859379Y-111547068D01*
X161485219Y-112621508D01*
X161359774Y-112496063D01*
X161190256Y-112382795D01*
X161001898Y-112304774D01*
X160801939Y-112265000D01*
X160598061Y-112265000D01*
X160398102Y-112304774D01*
X160209744Y-112382795D01*
X160040226Y-112496063D01*
X159896063Y-112640226D01*
X159782795Y-112809744D01*
X159704774Y-112998102D01*
X159665000Y-113198061D01*
X159665000Y-113401939D01*
X159704774Y-113601898D01*
X159782795Y-113790256D01*
X159896063Y-113959774D01*
X160040226Y-114103937D01*
X160209744Y-114217205D01*
X160398102Y-114295226D01*
X160598061Y-114335000D01*
X160788914Y-114335000D01*
X160487682Y-115011577D01*
X160079724Y-115753650D01*
X160003937Y-115640226D01*
X159859774Y-115496063D01*
X159690256Y-115382795D01*
X159501898Y-115304774D01*
X159301939Y-115265000D01*
X159098061Y-115265000D01*
X158898102Y-115304774D01*
X158709744Y-115382795D01*
X158540226Y-115496063D01*
X158396063Y-115640226D01*
X158282795Y-115809744D01*
X158280059Y-115816348D01*
X158159774Y-115696063D01*
X157990256Y-115582795D01*
X157801898Y-115504774D01*
X157601939Y-115465000D01*
X157398061Y-115465000D01*
X157198102Y-115504774D01*
X157009744Y-115582795D01*
X156840226Y-115696063D01*
X156696063Y-115840226D01*
X156582795Y-116009744D01*
X156504774Y-116198102D01*
X156465000Y-116398061D01*
X156465000Y-116601939D01*
X156504774Y-116801898D01*
X156582795Y-116990256D01*
X156696063Y-117159774D01*
X156840226Y-117303937D01*
X157009744Y-117417205D01*
X157198102Y-117495226D01*
X157398061Y-117535000D01*
X157425131Y-117535000D01*
X157309744Y-117582795D01*
X157140226Y-117696063D01*
X156996063Y-117840226D01*
X156882795Y-118009744D01*
X156804774Y-118198102D01*
X156765000Y-118398061D01*
X156765000Y-118601939D01*
X156804774Y-118801898D01*
X156882795Y-118990256D01*
X156996063Y-119159774D01*
X157140226Y-119303937D01*
X157309744Y-119417205D01*
X157498102Y-119495226D01*
X157525569Y-119500689D01*
X157399155Y-119660184D01*
X157000486Y-120084723D01*
X156903937Y-119940226D01*
X156759774Y-119796063D01*
X156590256Y-119682795D01*
X156401898Y-119604774D01*
X156252139Y-119574985D01*
X156376825Y-119273967D01*
X156472627Y-118792337D01*
X156472627Y-118301271D01*
X156376825Y-117819641D01*
X156188902Y-117365956D01*
X155916080Y-116957649D01*
X155568845Y-116610414D01*
X155160538Y-116337592D01*
X154706853Y-116149669D01*
X154225223Y-116053867D01*
X153734157Y-116053867D01*
X153252527Y-116149669D01*
X152798842Y-116337592D01*
X152390535Y-116610414D01*
X152043300Y-116957649D01*
X151770478Y-117365956D01*
X151582555Y-117819641D01*
X151486753Y-118301271D01*
X151486753Y-118792337D01*
X151582555Y-119273967D01*
X151770478Y-119727652D01*
X152043300Y-120135959D01*
X152390535Y-120483194D01*
X152798842Y-120756016D01*
X153252527Y-120943939D01*
X153734157Y-121039741D01*
X154225223Y-121039741D01*
X154706853Y-120943939D01*
X155082210Y-120788461D01*
X155104774Y-120901898D01*
X155182795Y-121090256D01*
X155296063Y-121259774D01*
X155440226Y-121403937D01*
X155586882Y-121501929D01*
X154831772Y-122181833D01*
X154795226Y-121998102D01*
X154717205Y-121809744D01*
X154603937Y-121640226D01*
X154459774Y-121496063D01*
X154290256Y-121382795D01*
X154101898Y-121304774D01*
X153901939Y-121265000D01*
X153698061Y-121265000D01*
X153498102Y-121304774D01*
X153309744Y-121382795D01*
X153140226Y-121496063D01*
X152996063Y-121640226D01*
X152882795Y-121809744D01*
X152804774Y-121998102D01*
X152765000Y-122198061D01*
X152765000Y-122401939D01*
X152804774Y-122601898D01*
X152882795Y-122790256D01*
X152996063Y-122959774D01*
X153140226Y-123103937D01*
X153309744Y-123217205D01*
X153423377Y-123264274D01*
X153251598Y-123394661D01*
X151677161Y-124393830D01*
X151235000Y-124624986D01*
X151235000Y-124598061D01*
X151195226Y-124398102D01*
X151117205Y-124209744D01*
X151003937Y-124040226D01*
X150859774Y-123896063D01*
X150690256Y-123782795D01*
X150501898Y-123704774D01*
X150301939Y-123665000D01*
X150098061Y-123665000D01*
X149898102Y-123704774D01*
X149709744Y-123782795D01*
X149540226Y-123896063D01*
X149396063Y-124040226D01*
X149282795Y-124209744D01*
X149204774Y-124398102D01*
X149165000Y-124598061D01*
X149165000Y-124801939D01*
X149204774Y-125001898D01*
X149282795Y-125190256D01*
X149396063Y-125359774D01*
X149510261Y-125473972D01*
X148305617Y-125980358D01*
X146532161Y-126556589D01*
X144716706Y-126982400D01*
X142871987Y-127254804D01*
X142728141Y-127263854D01*
X142795226Y-127101898D01*
X142835000Y-126901939D01*
X142835000Y-126698061D01*
X142795226Y-126498102D01*
X142717205Y-126309744D01*
X142603937Y-126140226D01*
X142459774Y-125996063D01*
X142290256Y-125882795D01*
X142101898Y-125804774D01*
X141901939Y-125765000D01*
X141698061Y-125765000D01*
X141498102Y-125804774D01*
X141309744Y-125882795D01*
X141211890Y-125948179D01*
X141159774Y-125896063D01*
X140990256Y-125782795D01*
X140801898Y-125704774D01*
X140601939Y-125665000D01*
X140398061Y-125665000D01*
X140198102Y-125704774D01*
X140009744Y-125782795D01*
X139840226Y-125896063D01*
X139696063Y-126040226D01*
X139582795Y-126209744D01*
X139504774Y-126398102D01*
X139465000Y-126598061D01*
X139465000Y-126801939D01*
X139504774Y-127001898D01*
X139582795Y-127190256D01*
X139685609Y-127344129D01*
X139146630Y-127332839D01*
X137292123Y-127137923D01*
X135460429Y-126788508D01*
X133664398Y-126287047D01*
X131916627Y-125637057D01*
X130895390Y-125156500D01*
X130990256Y-125117205D01*
X131159774Y-125003937D01*
X131303937Y-124859774D01*
X131417205Y-124690256D01*
X131495226Y-124501898D01*
X131535000Y-124301939D01*
X131535000Y-124098061D01*
X131495226Y-123898102D01*
X131417205Y-123709744D01*
X131303937Y-123540226D01*
X131159774Y-123396063D01*
X130990256Y-123282795D01*
X130801898Y-123204774D01*
X130601939Y-123165000D01*
X130398061Y-123165000D01*
X130198102Y-123204774D01*
X130009744Y-123282795D01*
X129840226Y-123396063D01*
X129696063Y-123540226D01*
X129582795Y-123709744D01*
X129504774Y-123898102D01*
X129465000Y-124098061D01*
X129465000Y-124301939D01*
X129487437Y-124414739D01*
X128614478Y-123910735D01*
X127083262Y-122846513D01*
X126178540Y-122098061D01*
X127365000Y-122098061D01*
X127365000Y-122301939D01*
X127404774Y-122501898D01*
X127482795Y-122690256D01*
X127596063Y-122859774D01*
X127740226Y-123003937D01*
X127909744Y-123117205D01*
X128098102Y-123195226D01*
X128298061Y-123235000D01*
X128501939Y-123235000D01*
X128701898Y-123195226D01*
X128890256Y-123117205D01*
X129059774Y-123003937D01*
X129203937Y-122859774D01*
X129317205Y-122690256D01*
X129395226Y-122501898D01*
X129435000Y-122301939D01*
X129435000Y-122098061D01*
X129395226Y-121898102D01*
X129317205Y-121709744D01*
X129203937Y-121540226D01*
X129059774Y-121396063D01*
X128890256Y-121282795D01*
X128701898Y-121204774D01*
X128501939Y-121165000D01*
X128298061Y-121165000D01*
X128098102Y-121204774D01*
X127909744Y-121282795D01*
X127740226Y-121396063D01*
X127596063Y-121540226D01*
X127482795Y-121709744D01*
X127404774Y-121898102D01*
X127365000Y-122098061D01*
X126178540Y-122098061D01*
X125646469Y-121657894D01*
X124314175Y-120353216D01*
X123374857Y-119265005D01*
X123490256Y-119217205D01*
X123659774Y-119103937D01*
X123803937Y-118959774D01*
X123917205Y-118790256D01*
X123995226Y-118601898D01*
X124035000Y-118401939D01*
X124035000Y-118301271D01*
X124616692Y-118301271D01*
X124616692Y-118792337D01*
X124712495Y-119273968D01*
X124900417Y-119727654D01*
X125173239Y-120135960D01*
X125520476Y-120483197D01*
X125928782Y-120756019D01*
X126382468Y-120943941D01*
X126864099Y-121039744D01*
X127355165Y-121039744D01*
X127836796Y-120943941D01*
X128290482Y-120756019D01*
X128698788Y-120483197D01*
X129046025Y-120135960D01*
X129318847Y-119727654D01*
X129506769Y-119273968D01*
X129521867Y-119198061D01*
X137465000Y-119198061D01*
X137465000Y-119401939D01*
X137504774Y-119601898D01*
X137582795Y-119790256D01*
X137696063Y-119959774D01*
X137840226Y-120103937D01*
X138009744Y-120217205D01*
X138198102Y-120295226D01*
X138398061Y-120335000D01*
X138601939Y-120335000D01*
X138801898Y-120295226D01*
X138990256Y-120217205D01*
X139159774Y-120103937D01*
X139303937Y-119959774D01*
X139417205Y-119790256D01*
X139495226Y-119601898D01*
X139535000Y-119401939D01*
X139535000Y-119198061D01*
X139525055Y-119148061D01*
X139615000Y-119148061D01*
X139615000Y-119351939D01*
X139654774Y-119551898D01*
X139732795Y-119740256D01*
X139846063Y-119909774D01*
X139990226Y-120053937D01*
X140159744Y-120167205D01*
X140348102Y-120245226D01*
X140548061Y-120285000D01*
X140751939Y-120285000D01*
X140951898Y-120245226D01*
X141140256Y-120167205D01*
X141309774Y-120053937D01*
X141453937Y-119909774D01*
X141567205Y-119740256D01*
X141645226Y-119551898D01*
X141685000Y-119351939D01*
X141685000Y-119148061D01*
X141645226Y-118948102D01*
X141567205Y-118759744D01*
X141453937Y-118590226D01*
X141309774Y-118446063D01*
X141140256Y-118332795D01*
X140951898Y-118254774D01*
X140751939Y-118215000D01*
X140548061Y-118215000D01*
X140348102Y-118254774D01*
X140159744Y-118332795D01*
X139990226Y-118446063D01*
X139846063Y-118590226D01*
X139732795Y-118759744D01*
X139654774Y-118948102D01*
X139615000Y-119148061D01*
X139525055Y-119148061D01*
X139495226Y-118998102D01*
X139417205Y-118809744D01*
X139303937Y-118640226D01*
X139159774Y-118496063D01*
X138990256Y-118382795D01*
X138801898Y-118304774D01*
X138601939Y-118265000D01*
X138398061Y-118265000D01*
X138198102Y-118304774D01*
X138009744Y-118382795D01*
X137840226Y-118496063D01*
X137696063Y-118640226D01*
X137582795Y-118809744D01*
X137504774Y-118998102D01*
X137465000Y-119198061D01*
X129521867Y-119198061D01*
X129602572Y-118792337D01*
X129602572Y-118301271D01*
X129506769Y-117819640D01*
X129318847Y-117365954D01*
X129046025Y-116957648D01*
X128698788Y-116610411D01*
X128290482Y-116337589D01*
X127836796Y-116149667D01*
X127355165Y-116053864D01*
X126864099Y-116053864D01*
X126382468Y-116149667D01*
X125928782Y-116337589D01*
X125520476Y-116610411D01*
X125173239Y-116957648D01*
X124900417Y-117365954D01*
X124712495Y-117819640D01*
X124616692Y-118301271D01*
X124035000Y-118301271D01*
X124035000Y-118198061D01*
X123995226Y-117998102D01*
X123917205Y-117809744D01*
X123803937Y-117640226D01*
X123659774Y-117496063D01*
X123490256Y-117382795D01*
X123301898Y-117304774D01*
X123101939Y-117265000D01*
X122898061Y-117265000D01*
X122698102Y-117304774D01*
X122509744Y-117382795D01*
X122340226Y-117496063D01*
X122196063Y-117640226D01*
X122174092Y-117673108D01*
X121999670Y-117433037D01*
X121033694Y-115838020D01*
X120964218Y-115698061D01*
X122665000Y-115698061D01*
X122665000Y-115901939D01*
X122704774Y-116101898D01*
X122782795Y-116290256D01*
X122896063Y-116459774D01*
X123040226Y-116603937D01*
X123209744Y-116717205D01*
X123398102Y-116795226D01*
X123598061Y-116835000D01*
X123801939Y-116835000D01*
X124001898Y-116795226D01*
X124190256Y-116717205D01*
X124359774Y-116603937D01*
X124503937Y-116459774D01*
X124617205Y-116290256D01*
X124695226Y-116101898D01*
X124735000Y-115901939D01*
X124735000Y-115698061D01*
X124695226Y-115498102D01*
X124617205Y-115309744D01*
X124542582Y-115198061D01*
X128365000Y-115198061D01*
X128365000Y-115401939D01*
X128404774Y-115601898D01*
X128482795Y-115790256D01*
X128596063Y-115959774D01*
X128740226Y-116103937D01*
X128909744Y-116217205D01*
X129098102Y-116295226D01*
X129298061Y-116335000D01*
X129501939Y-116335000D01*
X129701898Y-116295226D01*
X129890256Y-116217205D01*
X130059774Y-116103937D01*
X130203937Y-115959774D01*
X130317205Y-115790256D01*
X130395226Y-115601898D01*
X130435000Y-115401939D01*
X130435000Y-115198061D01*
X130395226Y-114998102D01*
X130317205Y-114809744D01*
X130203937Y-114640226D01*
X130059774Y-114496063D01*
X129890256Y-114382795D01*
X129701898Y-114304774D01*
X129501939Y-114265000D01*
X129298061Y-114265000D01*
X129098102Y-114304774D01*
X128909744Y-114382795D01*
X128740226Y-114496063D01*
X128596063Y-114640226D01*
X128482795Y-114809744D01*
X128404774Y-114998102D01*
X128365000Y-115198061D01*
X124542582Y-115198061D01*
X124503937Y-115140226D01*
X124359774Y-114996063D01*
X124190256Y-114882795D01*
X124001898Y-114804774D01*
X123801939Y-114765000D01*
X123598061Y-114765000D01*
X123398102Y-114804774D01*
X123209744Y-114882795D01*
X123040226Y-114996063D01*
X122896063Y-115140226D01*
X122782795Y-115309744D01*
X122704774Y-115498102D01*
X122665000Y-115698061D01*
X120964218Y-115698061D01*
X120219611Y-114198061D01*
X120565000Y-114198061D01*
X120565000Y-114401939D01*
X120604774Y-114601898D01*
X120682795Y-114790256D01*
X120796063Y-114959774D01*
X120940226Y-115103937D01*
X121109744Y-115217205D01*
X121298102Y-115295226D01*
X121498061Y-115335000D01*
X121701939Y-115335000D01*
X121901898Y-115295226D01*
X122090256Y-115217205D01*
X122259774Y-115103937D01*
X122403937Y-114959774D01*
X122517205Y-114790256D01*
X122595226Y-114601898D01*
X122635000Y-114401939D01*
X122635000Y-114198061D01*
X122595226Y-113998102D01*
X122517205Y-113809744D01*
X122403937Y-113640226D01*
X122259774Y-113496063D01*
X122090256Y-113382795D01*
X121901898Y-113304774D01*
X121701939Y-113265000D01*
X121498061Y-113265000D01*
X121298102Y-113304774D01*
X121109744Y-113382795D01*
X120940226Y-113496063D01*
X120796063Y-113640226D01*
X120682795Y-113809744D01*
X120604774Y-113998102D01*
X120565000Y-114198061D01*
X120219611Y-114198061D01*
X120204572Y-114167766D01*
X119518122Y-112433991D01*
X118979158Y-110648855D01*
X118591460Y-108824881D01*
X118357748Y-106974862D01*
X118309213Y-105816850D01*
X118309744Y-105817205D01*
X118498102Y-105895226D01*
X118698061Y-105935000D01*
X118901939Y-105935000D01*
X119101898Y-105895226D01*
X119290256Y-105817205D01*
X119395005Y-105747214D01*
X119365000Y-105898061D01*
X119365000Y-106101939D01*
X119404774Y-106301898D01*
X119482795Y-106490256D01*
X119596063Y-106659774D01*
X119740226Y-106803937D01*
X119909744Y-106917205D01*
X120098102Y-106995226D01*
X120298061Y-107035000D01*
X120501939Y-107035000D01*
X120701898Y-106995226D01*
X120890256Y-106917205D01*
X121059774Y-106803937D01*
X121203937Y-106659774D01*
X121317205Y-106490256D01*
X121395226Y-106301898D01*
X121435000Y-106101939D01*
X121435000Y-105898061D01*
X121397383Y-105708946D01*
X121409744Y-105717205D01*
X121598102Y-105795226D01*
X121798061Y-105835000D01*
X122001939Y-105835000D01*
X122201898Y-105795226D01*
X122390256Y-105717205D01*
X122559774Y-105603937D01*
X122703937Y-105459774D01*
X122817205Y-105290256D01*
X122895226Y-105101898D01*
X122935000Y-104901939D01*
X122935000Y-104698061D01*
X122895226Y-104498102D01*
X122817205Y-104309744D01*
X122703937Y-104140226D01*
X122559774Y-103996063D01*
X122390256Y-103882795D01*
X122201898Y-103804774D01*
X122168150Y-103798061D01*
X125265000Y-103798061D01*
X125265000Y-104001939D01*
X125304774Y-104201898D01*
X125382795Y-104390256D01*
X125496063Y-104559774D01*
X125640226Y-104703937D01*
X125809744Y-104817205D01*
X125998102Y-104895226D01*
X126198061Y-104935000D01*
X126401939Y-104935000D01*
X126601898Y-104895226D01*
X126790256Y-104817205D01*
X126959774Y-104703937D01*
X127103937Y-104559774D01*
X127186330Y-104436463D01*
X129810885Y-104436463D01*
X129810885Y-105787087D01*
X129980163Y-107127061D01*
X130316049Y-108435252D01*
X130813247Y-109691031D01*
X131463915Y-110874592D01*
X131982261Y-111588034D01*
X131898102Y-111604774D01*
X131709744Y-111682795D01*
X131540226Y-111796063D01*
X131396063Y-111940226D01*
X131282795Y-112109744D01*
X131204774Y-112298102D01*
X131165000Y-112498061D01*
X131165000Y-112701939D01*
X131204774Y-112901898D01*
X131282795Y-113090256D01*
X131396063Y-113259774D01*
X131540226Y-113403937D01*
X131709744Y-113517205D01*
X131898102Y-113595226D01*
X132098061Y-113635000D01*
X132301939Y-113635000D01*
X132501898Y-113595226D01*
X132690256Y-113517205D01*
X132859774Y-113403937D01*
X133003937Y-113259774D01*
X133117205Y-113090256D01*
X133176935Y-112946057D01*
X133182358Y-112951832D01*
X133457139Y-113179150D01*
X133396063Y-113240226D01*
X133282795Y-113409744D01*
X133204774Y-113598102D01*
X133165000Y-113798061D01*
X133165000Y-114001939D01*
X133204774Y-114201898D01*
X133282795Y-114390256D01*
X133396063Y-114559774D01*
X133540226Y-114703937D01*
X133709744Y-114817205D01*
X133898102Y-114895226D01*
X134098061Y-114935000D01*
X134301939Y-114935000D01*
X134501898Y-114895226D01*
X134690256Y-114817205D01*
X134859774Y-114703937D01*
X135003937Y-114559774D01*
X135117205Y-114390256D01*
X135120500Y-114382302D01*
X135363401Y-114536452D01*
X136585482Y-115111520D01*
X137870002Y-115528886D01*
X139156088Y-115774220D01*
X139104774Y-115898102D01*
X139065000Y-116098061D01*
X139065000Y-116301939D01*
X139104774Y-116501898D01*
X139182795Y-116690256D01*
X139296063Y-116859774D01*
X139440226Y-117003937D01*
X139609744Y-117117205D01*
X139798102Y-117195226D01*
X139998061Y-117235000D01*
X140201939Y-117235000D01*
X140401898Y-117195226D01*
X140590256Y-117117205D01*
X140759774Y-117003937D01*
X140765650Y-116998061D01*
X144765000Y-116998061D01*
X144765000Y-117201939D01*
X144804774Y-117401898D01*
X144882795Y-117590256D01*
X144996063Y-117759774D01*
X145140226Y-117903937D01*
X145309744Y-118017205D01*
X145498102Y-118095226D01*
X145698061Y-118135000D01*
X145901939Y-118135000D01*
X146101898Y-118095226D01*
X146290256Y-118017205D01*
X146459774Y-117903937D01*
X146551944Y-117811767D01*
X146709744Y-117917205D01*
X146898102Y-117995226D01*
X147098061Y-118035000D01*
X147301939Y-118035000D01*
X147501898Y-117995226D01*
X147690256Y-117917205D01*
X147859774Y-117803937D01*
X148003937Y-117659774D01*
X148117205Y-117490256D01*
X148195226Y-117301898D01*
X148235000Y-117101939D01*
X148235000Y-116898061D01*
X148195226Y-116698102D01*
X148117205Y-116509744D01*
X148003937Y-116340226D01*
X147859774Y-116196063D01*
X147690256Y-116082795D01*
X147501898Y-116004774D01*
X147301939Y-115965000D01*
X147098061Y-115965000D01*
X146898102Y-116004774D01*
X146709744Y-116082795D01*
X146540226Y-116196063D01*
X146448056Y-116288233D01*
X146290256Y-116182795D01*
X146101898Y-116104774D01*
X145901939Y-116065000D01*
X145698061Y-116065000D01*
X145498102Y-116104774D01*
X145309744Y-116182795D01*
X145140226Y-116296063D01*
X144996063Y-116440226D01*
X144882795Y-116609744D01*
X144804774Y-116798102D01*
X144765000Y-116998061D01*
X140765650Y-116998061D01*
X140903937Y-116859774D01*
X141017205Y-116690256D01*
X141095226Y-116501898D01*
X141135000Y-116301939D01*
X141135000Y-116098061D01*
X141095226Y-115898102D01*
X141068596Y-115833811D01*
X141892620Y-115781968D01*
X143219320Y-115528886D01*
X144503840Y-115111520D01*
X145725921Y-114536452D01*
X146866291Y-113812752D01*
X147424944Y-113350593D01*
X147482795Y-113490256D01*
X147596063Y-113659774D01*
X147740226Y-113803937D01*
X147909744Y-113917205D01*
X148098102Y-113995226D01*
X148298061Y-114035000D01*
X148501939Y-114035000D01*
X148701898Y-113995226D01*
X148890256Y-113917205D01*
X149059774Y-113803937D01*
X149203937Y-113659774D01*
X149317205Y-113490256D01*
X149395226Y-113301898D01*
X149435000Y-113101939D01*
X149435000Y-112898061D01*
X149395226Y-112698102D01*
X149317205Y-112509744D01*
X149203937Y-112340226D01*
X149059774Y-112196063D01*
X148890256Y-112082795D01*
X148769871Y-112032929D01*
X148831530Y-111967269D01*
X149625407Y-110874592D01*
X150276075Y-109691031D01*
X150773273Y-108435252D01*
X151109159Y-107127061D01*
X151150721Y-106798061D01*
X152265000Y-106798061D01*
X152265000Y-107001939D01*
X152304774Y-107201898D01*
X152382795Y-107390256D01*
X152496063Y-107559774D01*
X152640226Y-107703937D01*
X152809744Y-107817205D01*
X152998102Y-107895226D01*
X153198061Y-107935000D01*
X153401939Y-107935000D01*
X153601898Y-107895226D01*
X153790256Y-107817205D01*
X153959774Y-107703937D01*
X154103937Y-107559774D01*
X154217205Y-107390256D01*
X154295226Y-107201898D01*
X154335000Y-107001939D01*
X154335000Y-106798061D01*
X154295226Y-106598102D01*
X154217205Y-106409744D01*
X154103937Y-106240226D01*
X153959774Y-106096063D01*
X153790256Y-105982795D01*
X153601898Y-105904774D01*
X153401939Y-105865000D01*
X153198061Y-105865000D01*
X152998102Y-105904774D01*
X152809744Y-105982795D01*
X152640226Y-106096063D01*
X152496063Y-106240226D01*
X152382795Y-106409744D01*
X152304774Y-106598102D01*
X152265000Y-106798061D01*
X151150721Y-106798061D01*
X151278437Y-105787087D01*
X151278437Y-105698061D01*
X158565000Y-105698061D01*
X158565000Y-105901939D01*
X158604774Y-106101898D01*
X158682795Y-106290256D01*
X158796063Y-106459774D01*
X158940226Y-106603937D01*
X159109744Y-106717205D01*
X159298102Y-106795226D01*
X159498061Y-106835000D01*
X159701939Y-106835000D01*
X159901898Y-106795226D01*
X160090256Y-106717205D01*
X160259774Y-106603937D01*
X160403937Y-106459774D01*
X160517205Y-106290256D01*
X160595226Y-106101898D01*
X160635000Y-105901939D01*
X160635000Y-105798061D01*
X160665000Y-105798061D01*
X160665000Y-106001939D01*
X160704774Y-106201898D01*
X160782795Y-106390256D01*
X160896063Y-106559774D01*
X161040226Y-106703937D01*
X161209744Y-106817205D01*
X161398102Y-106895226D01*
X161598061Y-106935000D01*
X161801939Y-106935000D01*
X162001898Y-106895226D01*
X162190256Y-106817205D01*
X162359774Y-106703937D01*
X162503937Y-106559774D01*
X162617205Y-106390256D01*
X162695226Y-106201898D01*
X162735000Y-106001939D01*
X162735000Y-105798061D01*
X162695226Y-105598102D01*
X162617205Y-105409744D01*
X162503937Y-105240226D01*
X162359774Y-105096063D01*
X162190256Y-104982795D01*
X162001898Y-104904774D01*
X161801939Y-104865000D01*
X161598061Y-104865000D01*
X161398102Y-104904774D01*
X161209744Y-104982795D01*
X161040226Y-105096063D01*
X160896063Y-105240226D01*
X160782795Y-105409744D01*
X160704774Y-105598102D01*
X160665000Y-105798061D01*
X160635000Y-105798061D01*
X160635000Y-105698061D01*
X160595226Y-105498102D01*
X160517205Y-105309744D01*
X160403937Y-105140226D01*
X160259774Y-104996063D01*
X160090256Y-104882795D01*
X159901898Y-104804774D01*
X159701939Y-104765000D01*
X159498061Y-104765000D01*
X159298102Y-104804774D01*
X159109744Y-104882795D01*
X158940226Y-104996063D01*
X158796063Y-105140226D01*
X158682795Y-105309744D01*
X158604774Y-105498102D01*
X158565000Y-105698061D01*
X151278437Y-105698061D01*
X151278437Y-104436463D01*
X151172523Y-103598061D01*
X158465000Y-103598061D01*
X158465000Y-103801939D01*
X158504774Y-104001898D01*
X158582795Y-104190256D01*
X158696063Y-104359774D01*
X158840226Y-104503937D01*
X159009744Y-104617205D01*
X159198102Y-104695226D01*
X159398061Y-104735000D01*
X159601939Y-104735000D01*
X159801898Y-104695226D01*
X159990256Y-104617205D01*
X160159774Y-104503937D01*
X160303937Y-104359774D01*
X160417205Y-104190256D01*
X160495226Y-104001898D01*
X160535000Y-103801939D01*
X160535000Y-103698061D01*
X160565000Y-103698061D01*
X160565000Y-103901939D01*
X160604774Y-104101898D01*
X160682795Y-104290256D01*
X160796063Y-104459774D01*
X160940226Y-104603937D01*
X161109744Y-104717205D01*
X161298102Y-104795226D01*
X161498061Y-104835000D01*
X161701939Y-104835000D01*
X161901898Y-104795226D01*
X162090256Y-104717205D01*
X162259774Y-104603937D01*
X162403937Y-104459774D01*
X162517205Y-104290256D01*
X162595226Y-104101898D01*
X162635000Y-103901939D01*
X162635000Y-103698061D01*
X162595226Y-103498102D01*
X162517205Y-103309744D01*
X162403937Y-103140226D01*
X162259774Y-102996063D01*
X162090256Y-102882795D01*
X161901898Y-102804774D01*
X161701939Y-102765000D01*
X161498061Y-102765000D01*
X161298102Y-102804774D01*
X161109744Y-102882795D01*
X160940226Y-102996063D01*
X160796063Y-103140226D01*
X160682795Y-103309744D01*
X160604774Y-103498102D01*
X160565000Y-103698061D01*
X160535000Y-103698061D01*
X160535000Y-103598061D01*
X160495226Y-103398102D01*
X160417205Y-103209744D01*
X160303937Y-103040226D01*
X160159774Y-102896063D01*
X159990256Y-102782795D01*
X159801898Y-102704774D01*
X159601939Y-102665000D01*
X159398061Y-102665000D01*
X159198102Y-102704774D01*
X159009744Y-102782795D01*
X158840226Y-102896063D01*
X158696063Y-103040226D01*
X158582795Y-103209744D01*
X158504774Y-103398102D01*
X158465000Y-103598061D01*
X151172523Y-103598061D01*
X151109159Y-103096489D01*
X150773273Y-101788298D01*
X150276075Y-100532519D01*
X149625407Y-99348958D01*
X148831530Y-98256281D01*
X148180272Y-97562762D01*
X148290256Y-97517205D01*
X148459774Y-97403937D01*
X148465650Y-97398061D01*
X149865000Y-97398061D01*
X149865000Y-97601939D01*
X149904774Y-97801898D01*
X149982795Y-97990256D01*
X150096063Y-98159774D01*
X150240226Y-98303937D01*
X150409744Y-98417205D01*
X150598102Y-98495226D01*
X150798061Y-98535000D01*
X151001939Y-98535000D01*
X151201898Y-98495226D01*
X151390256Y-98417205D01*
X151559774Y-98303937D01*
X151703937Y-98159774D01*
X151817205Y-97990256D01*
X151895226Y-97801898D01*
X151935000Y-97601939D01*
X151935000Y-97398061D01*
X151895226Y-97198102D01*
X151817205Y-97009744D01*
X151703937Y-96840226D01*
X151559774Y-96696063D01*
X151390256Y-96582795D01*
X151201898Y-96504774D01*
X151001939Y-96465000D01*
X150798061Y-96465000D01*
X150598102Y-96504774D01*
X150409744Y-96582795D01*
X150240226Y-96696063D01*
X150096063Y-96840226D01*
X149982795Y-97009744D01*
X149904774Y-97198102D01*
X149865000Y-97398061D01*
X148465650Y-97398061D01*
X148603937Y-97259774D01*
X148717205Y-97090256D01*
X148795226Y-96901898D01*
X148835000Y-96701939D01*
X148835000Y-96498061D01*
X148795226Y-96298102D01*
X148717205Y-96109744D01*
X148603937Y-95940226D01*
X148459774Y-95796063D01*
X148290256Y-95682795D01*
X148101898Y-95604774D01*
X147901939Y-95565000D01*
X147698061Y-95565000D01*
X147498102Y-95604774D01*
X147309744Y-95682795D01*
X147140226Y-95796063D01*
X146996063Y-95940226D01*
X146882795Y-96109744D01*
X146804774Y-96298102D01*
X146791765Y-96363503D01*
X145725921Y-95687098D01*
X144503840Y-95112030D01*
X143219320Y-94694664D01*
X142712911Y-94598061D01*
X156465000Y-94598061D01*
X156465000Y-94801939D01*
X156504774Y-95001898D01*
X156582795Y-95190256D01*
X156696063Y-95359774D01*
X156840226Y-95503937D01*
X157009744Y-95617205D01*
X157198102Y-95695226D01*
X157398061Y-95735000D01*
X157601939Y-95735000D01*
X157801898Y-95695226D01*
X157990256Y-95617205D01*
X158159774Y-95503937D01*
X158303937Y-95359774D01*
X158417205Y-95190256D01*
X158495226Y-95001898D01*
X158535000Y-94801939D01*
X158535000Y-94598061D01*
X158495226Y-94398102D01*
X158417205Y-94209744D01*
X158303937Y-94040226D01*
X158159774Y-93896063D01*
X157990256Y-93782795D01*
X157801898Y-93704774D01*
X157601939Y-93665000D01*
X157398061Y-93665000D01*
X157198102Y-93704774D01*
X157009744Y-93782795D01*
X156840226Y-93896063D01*
X156696063Y-94040226D01*
X156582795Y-94209744D01*
X156504774Y-94398102D01*
X156465000Y-94598061D01*
X142712911Y-94598061D01*
X141892620Y-94441582D01*
X140544661Y-94356776D01*
X139196702Y-94441582D01*
X137870002Y-94694664D01*
X136585482Y-95112030D01*
X135363401Y-95687098D01*
X134223031Y-96410798D01*
X133182358Y-97271718D01*
X132762421Y-97718905D01*
X132717205Y-97609744D01*
X132603937Y-97440226D01*
X132459774Y-97296063D01*
X132290256Y-97182795D01*
X132101898Y-97104774D01*
X131901939Y-97065000D01*
X131698061Y-97065000D01*
X131498102Y-97104774D01*
X131309744Y-97182795D01*
X131140226Y-97296063D01*
X130996063Y-97440226D01*
X130882795Y-97609744D01*
X130804774Y-97798102D01*
X130765000Y-97998061D01*
X130765000Y-98201939D01*
X130804774Y-98401898D01*
X130882795Y-98590256D01*
X130996063Y-98759774D01*
X131140226Y-98903937D01*
X131309744Y-99017205D01*
X131498102Y-99095226D01*
X131629302Y-99121323D01*
X131463915Y-99348958D01*
X130813247Y-100532519D01*
X130316049Y-101788298D01*
X129980163Y-103096489D01*
X129810885Y-104436463D01*
X127186330Y-104436463D01*
X127217205Y-104390256D01*
X127295226Y-104201898D01*
X127335000Y-104001939D01*
X127335000Y-103798061D01*
X127295226Y-103598102D01*
X127217205Y-103409744D01*
X127103937Y-103240226D01*
X126959774Y-103096063D01*
X126790256Y-102982795D01*
X126601898Y-102904774D01*
X126401939Y-102865000D01*
X126198061Y-102865000D01*
X125998102Y-102904774D01*
X125809744Y-102982795D01*
X125640226Y-103096063D01*
X125496063Y-103240226D01*
X125382795Y-103409744D01*
X125304774Y-103598102D01*
X125265000Y-103798061D01*
X122168150Y-103798061D01*
X122001939Y-103765000D01*
X121798061Y-103765000D01*
X121598102Y-103804774D01*
X121409744Y-103882795D01*
X121327935Y-103937458D01*
X121335000Y-103901939D01*
X121335000Y-103698061D01*
X121295226Y-103498102D01*
X121217205Y-103309744D01*
X121103937Y-103140226D01*
X120959774Y-102996063D01*
X120790256Y-102882795D01*
X120601898Y-102804774D01*
X120401939Y-102765000D01*
X120198061Y-102765000D01*
X119998102Y-102804774D01*
X119809744Y-102882795D01*
X119640226Y-102996063D01*
X119496063Y-103140226D01*
X119382795Y-103309744D01*
X119304774Y-103498102D01*
X119265000Y-103698061D01*
X119265000Y-103901939D01*
X119280259Y-103978654D01*
X119101898Y-103904774D01*
X118901939Y-103865000D01*
X118698061Y-103865000D01*
X118498102Y-103904774D01*
X118327285Y-103975529D01*
X118357748Y-103248688D01*
X118591460Y-101398669D01*
X118979158Y-99574695D01*
X119518122Y-97789559D01*
X120204572Y-96055784D01*
X120270915Y-95922137D01*
X120296063Y-95959774D01*
X120440226Y-96103937D01*
X120609744Y-96217205D01*
X120798102Y-96295226D01*
X120998061Y-96335000D01*
X121201939Y-96335000D01*
X121401898Y-96295226D01*
X121590256Y-96217205D01*
X121759774Y-96103937D01*
X121903937Y-95959774D01*
X122017205Y-95790256D01*
X122095226Y-95601898D01*
X122135000Y-95401939D01*
X122135000Y-95198061D01*
X122095226Y-94998102D01*
X122017205Y-94809744D01*
X121903937Y-94640226D01*
X121759774Y-94496063D01*
X121590256Y-94382795D01*
X121401898Y-94304774D01*
X121201939Y-94265000D01*
X121106690Y-94265000D01*
X121944184Y-92882131D01*
X121996063Y-92959774D01*
X122140226Y-93103937D01*
X122309744Y-93217205D01*
X122401416Y-93255177D01*
X122340226Y-93296063D01*
X122196063Y-93440226D01*
X122082795Y-93609744D01*
X122004774Y-93798102D01*
X121965000Y-93998061D01*
X121965000Y-94201939D01*
X122004774Y-94401898D01*
X122082795Y-94590256D01*
X122196063Y-94759774D01*
X122340226Y-94903937D01*
X122509744Y-95017205D01*
X122698102Y-95095226D01*
X122898061Y-95135000D01*
X123101939Y-95135000D01*
X123301898Y-95095226D01*
X123490256Y-95017205D01*
X123659774Y-94903937D01*
X123803937Y-94759774D01*
X123917205Y-94590256D01*
X123995226Y-94401898D01*
X124035000Y-94201939D01*
X124035000Y-93998061D01*
X123995226Y-93798102D01*
X123917205Y-93609744D01*
X123803937Y-93440226D01*
X123659774Y-93296063D01*
X123490256Y-93182795D01*
X123398584Y-93144823D01*
X123459774Y-93103937D01*
X123603937Y-92959774D01*
X123717205Y-92790256D01*
X123795226Y-92601898D01*
X123835000Y-92401939D01*
X123835000Y-92198061D01*
X123795226Y-91998102D01*
X123717205Y-91809744D01*
X123603937Y-91640226D01*
X123459774Y-91496063D01*
X123290256Y-91382795D01*
X123101898Y-91304774D01*
X123081998Y-91300816D01*
X123095727Y-91281920D01*
X124314175Y-89870334D01*
X124528876Y-89660084D01*
X124582795Y-89790256D01*
X124696063Y-89959774D01*
X124840226Y-90103937D01*
X125009744Y-90217205D01*
X125069968Y-90242151D01*
X124900420Y-90495898D01*
X124712497Y-90949583D01*
X124616695Y-91431213D01*
X124616695Y-91922279D01*
X124712497Y-92403909D01*
X124900420Y-92857594D01*
X125173242Y-93265901D01*
X125520477Y-93613136D01*
X125928784Y-93885958D01*
X126382469Y-94073881D01*
X126864099Y-94169683D01*
X127355165Y-94169683D01*
X127715233Y-94098061D01*
X129165000Y-94098061D01*
X129165000Y-94301939D01*
X129204774Y-94501898D01*
X129282795Y-94690256D01*
X129396063Y-94859774D01*
X129540226Y-95003937D01*
X129709744Y-95117205D01*
X129898102Y-95195226D01*
X130098061Y-95235000D01*
X130301939Y-95235000D01*
X130501898Y-95195226D01*
X130690256Y-95117205D01*
X130859774Y-95003937D01*
X131003937Y-94859774D01*
X131117205Y-94690256D01*
X131155393Y-94598061D01*
X131965000Y-94598061D01*
X131965000Y-94801939D01*
X132004774Y-95001898D01*
X132082795Y-95190256D01*
X132196063Y-95359774D01*
X132340226Y-95503937D01*
X132509744Y-95617205D01*
X132698102Y-95695226D01*
X132898061Y-95735000D01*
X133101939Y-95735000D01*
X133301898Y-95695226D01*
X133490256Y-95617205D01*
X133659774Y-95503937D01*
X133803937Y-95359774D01*
X133917205Y-95190256D01*
X133995226Y-95001898D01*
X134035000Y-94801939D01*
X134035000Y-94598061D01*
X133995226Y-94398102D01*
X133917205Y-94209744D01*
X133803937Y-94040226D01*
X133659774Y-93896063D01*
X133490256Y-93782795D01*
X133301898Y-93704774D01*
X133101939Y-93665000D01*
X132898061Y-93665000D01*
X132698102Y-93704774D01*
X132509744Y-93782795D01*
X132340226Y-93896063D01*
X132196063Y-94040226D01*
X132082795Y-94209744D01*
X132004774Y-94398102D01*
X131965000Y-94598061D01*
X131155393Y-94598061D01*
X131195226Y-94501898D01*
X131235000Y-94301939D01*
X131235000Y-94098061D01*
X131195226Y-93898102D01*
X131117205Y-93709744D01*
X131003937Y-93540226D01*
X130859774Y-93396063D01*
X130690256Y-93282795D01*
X130501898Y-93204774D01*
X130301939Y-93165000D01*
X130098061Y-93165000D01*
X129898102Y-93204774D01*
X129709744Y-93282795D01*
X129540226Y-93396063D01*
X129396063Y-93540226D01*
X129282795Y-93709744D01*
X129204774Y-93898102D01*
X129165000Y-94098061D01*
X127715233Y-94098061D01*
X127836795Y-94073881D01*
X128290480Y-93885958D01*
X128698787Y-93613136D01*
X129046022Y-93265901D01*
X129318844Y-92857594D01*
X129506767Y-92403909D01*
X129602569Y-91922279D01*
X129602569Y-91431213D01*
X129506767Y-90949583D01*
X129318844Y-90495898D01*
X129046022Y-90087591D01*
X128698787Y-89740356D01*
X128290480Y-89467534D01*
X127836795Y-89279611D01*
X127355165Y-89183809D01*
X126864099Y-89183809D01*
X126535000Y-89249271D01*
X126535000Y-89198061D01*
X126495226Y-88998102D01*
X126417205Y-88809744D01*
X126303937Y-88640226D01*
X126159774Y-88496063D01*
X125990256Y-88382795D01*
X125908464Y-88348915D01*
X127047986Y-87406220D01*
X127082795Y-87490256D01*
X127196063Y-87659774D01*
X127340226Y-87803937D01*
X127509744Y-87917205D01*
X127698102Y-87995226D01*
X127898061Y-88035000D01*
X128101939Y-88035000D01*
X128301898Y-87995226D01*
X128490256Y-87917205D01*
X128659774Y-87803937D01*
X128689669Y-87774042D01*
X128665000Y-87898061D01*
X128665000Y-88101939D01*
X128704774Y-88301898D01*
X128782795Y-88490256D01*
X128896063Y-88659774D01*
X129040226Y-88803937D01*
X129209744Y-88917205D01*
X129398102Y-88995226D01*
X129598061Y-89035000D01*
X129801939Y-89035000D01*
X130001898Y-88995226D01*
X130190256Y-88917205D01*
X130359774Y-88803937D01*
X130503937Y-88659774D01*
X130617205Y-88490256D01*
X130695226Y-88301898D01*
X130735000Y-88101939D01*
X130735000Y-87898061D01*
X130695226Y-87698102D01*
X130617205Y-87509744D01*
X130503937Y-87340226D01*
X130359774Y-87196063D01*
X130190256Y-87082795D01*
X130001898Y-87004774D01*
X129801939Y-86965000D01*
X129598061Y-86965000D01*
X129398102Y-87004774D01*
X129209744Y-87082795D01*
X129040226Y-87196063D01*
X129010331Y-87225958D01*
X129035000Y-87101939D01*
X129035000Y-86898061D01*
X128995226Y-86698102D01*
X128917205Y-86509744D01*
X128803937Y-86340226D01*
X128717212Y-86253501D01*
X129565000Y-85764030D01*
X129565000Y-85801939D01*
X129604774Y-86001898D01*
X129682795Y-86190256D01*
X129796063Y-86359774D01*
X129940226Y-86503937D01*
X130109744Y-86617205D01*
X130298102Y-86695226D01*
X130498061Y-86735000D01*
X130701939Y-86735000D01*
X130901898Y-86695226D01*
X131090256Y-86617205D01*
X131259774Y-86503937D01*
X131403937Y-86359774D01*
X131517205Y-86190256D01*
X131595226Y-86001898D01*
X131635000Y-85801939D01*
X131635000Y-85598061D01*
X131595226Y-85398102D01*
X131517205Y-85209744D01*
X131403937Y-85040226D01*
X131259774Y-84896063D01*
X131259354Y-84895782D01*
X131916627Y-84586493D01*
X133664398Y-83936503D01*
X135460429Y-83435042D01*
X137292123Y-83085627D01*
X138923187Y-82914196D01*
X138824176Y-83062376D01*
%TA.AperFunction,Conductor*%
D14*
G36*
X138824176Y-83062376D02*
G01*
X138738617Y-83268933D01*
X138695000Y-83488212D01*
X138695000Y-83711788D01*
X138738617Y-83931067D01*
X138824176Y-84137624D01*
X138948388Y-84323520D01*
X139106480Y-84481612D01*
X139292376Y-84605824D01*
X139498933Y-84691383D01*
X139718212Y-84735000D01*
X139941788Y-84735000D01*
X140161067Y-84691383D01*
X140272774Y-84645112D01*
X140355820Y-84689502D01*
X140475518Y-84725812D01*
X140600000Y-84738072D01*
X140814250Y-84735000D01*
X140973000Y-84576250D01*
X140973000Y-83727000D01*
X141227000Y-83727000D01*
X141227000Y-84576250D01*
X141385750Y-84735000D01*
X141600000Y-84738072D01*
X141724482Y-84725812D01*
X141844180Y-84689502D01*
X141954494Y-84630537D01*
X142051185Y-84551185D01*
X142130537Y-84454494D01*
X142189502Y-84344180D01*
X142225812Y-84224482D01*
X142238072Y-84100000D01*
X142235000Y-83885750D01*
X142076250Y-83727000D01*
X141227000Y-83727000D01*
X140973000Y-83727000D01*
X140961974Y-83727000D01*
X140965000Y-83711788D01*
X140965000Y-83488212D01*
X140961974Y-83473000D01*
X140973000Y-83473000D01*
X140973000Y-83453000D01*
X141227000Y-83453000D01*
X141227000Y-83473000D01*
X142076250Y-83473000D01*
X142235000Y-83314250D01*
X142238072Y-83100000D01*
X142225812Y-82975518D01*
X142211146Y-82927169D01*
X142871987Y-82968746D01*
X144716706Y-83241150D01*
X146532161Y-83666961D01*
X148305617Y-84243192D01*
X148314049Y-84246736D01*
X148240226Y-84296063D01*
X148096063Y-84440226D01*
X147982795Y-84609744D01*
X147904774Y-84798102D01*
X147865000Y-84998061D01*
X147865000Y-85201939D01*
X147904774Y-85401898D01*
X147982795Y-85590256D01*
X148096063Y-85759774D01*
X148240226Y-85903937D01*
X148409744Y-86017205D01*
X148598102Y-86095226D01*
X148798061Y-86135000D01*
X149001939Y-86135000D01*
X149201898Y-86095226D01*
X149390256Y-86017205D01*
X149559774Y-85903937D01*
X149703937Y-85759774D01*
X149817205Y-85590256D01*
X149895226Y-85401898D01*
X149935000Y-85201939D01*
X149935000Y-84998061D01*
X149919819Y-84921741D01*
X150024637Y-84965802D01*
X151403763Y-85686791D01*
X151240226Y-85796063D01*
X151096063Y-85940226D01*
X150982795Y-86109744D01*
X150904774Y-86298102D01*
X150865000Y-86498061D01*
X150865000Y-86701939D01*
X150904774Y-86901898D01*
X150982795Y-87090256D01*
X151096063Y-87259774D01*
X151240226Y-87403937D01*
X151409744Y-87517205D01*
X151598102Y-87595226D01*
X151798061Y-87635000D01*
X152001939Y-87635000D01*
X152201898Y-87595226D01*
X152390256Y-87517205D01*
X152559774Y-87403937D01*
X152703937Y-87259774D01*
X152817205Y-87090256D01*
X152895226Y-86901898D01*
X152935000Y-86701939D01*
X152935000Y-86627970D01*
X153251598Y-86828889D01*
X154111907Y-87481899D01*
X154109744Y-87482795D01*
X153940226Y-87596063D01*
X153796063Y-87740226D01*
X153682795Y-87909744D01*
X153604774Y-88098102D01*
X153565000Y-88298061D01*
X153565000Y-88501939D01*
X153604774Y-88701898D01*
X153682795Y-88890256D01*
X153796063Y-89059774D01*
X153920097Y-89183808D01*
X153734157Y-89183808D01*
X153252527Y-89279610D01*
X152798841Y-89467533D01*
X152390535Y-89740355D01*
X152043299Y-90087591D01*
X151770477Y-90495897D01*
X151582554Y-90949583D01*
X151486752Y-91431213D01*
X151486752Y-91922279D01*
X151582554Y-92403909D01*
X151770477Y-92857595D01*
X152043299Y-93265901D01*
X152390535Y-93613137D01*
X152798841Y-93885959D01*
X153252527Y-94073882D01*
X153734157Y-94169684D01*
X154225223Y-94169684D01*
X154706853Y-94073882D01*
X155160539Y-93885959D01*
X155568845Y-93613137D01*
X155916081Y-93265901D01*
X156188903Y-92857595D01*
X156376826Y-92403909D01*
X156472628Y-91922279D01*
X156472628Y-91431213D01*
X156376826Y-90949583D01*
X156188903Y-90495897D01*
X155916081Y-90087591D01*
X155568845Y-89740355D01*
X155160539Y-89467533D01*
X154943936Y-89377813D01*
X155090256Y-89317205D01*
X155259774Y-89203937D01*
X155403937Y-89059774D01*
X155517205Y-88890256D01*
X155587009Y-88721735D01*
X156122665Y-89204042D01*
X157399155Y-90563366D01*
X158114341Y-91465706D01*
X157990256Y-91382795D01*
X157801898Y-91304774D01*
X157601939Y-91265000D01*
X157398061Y-91265000D01*
X157198102Y-91304774D01*
X157009744Y-91382795D01*
X156840226Y-91496063D01*
X156696063Y-91640226D01*
X156582795Y-91809744D01*
X156504774Y-91998102D01*
X156465000Y-92198061D01*
X156465000Y-92401939D01*
X156504774Y-92601898D01*
X156582795Y-92790256D01*
X156696063Y-92959774D01*
X156840226Y-93103937D01*
X157009744Y-93217205D01*
X157198102Y-93295226D01*
X157398061Y-93335000D01*
X157601939Y-93335000D01*
X157801898Y-93295226D01*
X157990256Y-93217205D01*
X158159774Y-93103937D01*
X158303937Y-92959774D01*
X158417205Y-92790256D01*
X158495226Y-92601898D01*
X158535000Y-92401939D01*
X158535000Y-92198061D01*
X158495226Y-91998102D01*
X158450247Y-91889513D01*
X158557424Y-92024737D01*
X159589345Y-93577904D01*
X159912104Y-94165000D01*
X159798061Y-94165000D01*
X159598102Y-94204774D01*
X159409744Y-94282795D01*
X159240226Y-94396063D01*
X159096063Y-94540226D01*
X158982795Y-94709744D01*
X158904774Y-94898102D01*
X158865000Y-95098061D01*
X158865000Y-95301939D01*
X158904774Y-95501898D01*
X158982795Y-95690256D01*
X159096063Y-95859774D01*
X159240226Y-96003937D01*
X159409744Y-96117205D01*
X159475653Y-96144506D01*
X159465000Y-96198061D01*
X159465000Y-96401939D01*
X159504774Y-96601898D01*
X159582795Y-96790256D01*
X159696063Y-96959774D01*
X159840226Y-97103937D01*
X160009744Y-97217205D01*
X160198102Y-97295226D01*
X160398061Y-97335000D01*
X160601939Y-97335000D01*
X160801898Y-97295226D01*
X160990256Y-97217205D01*
X161159774Y-97103937D01*
X161272504Y-96991207D01*
X161859379Y-98676482D01*
X162323116Y-100482621D01*
X162634094Y-102321231D01*
X162790130Y-104179414D01*
X162790130Y-106044136D01*
X162634094Y-107902319D01*
X162323116Y-109740929D01*
X161859379Y-111547068D01*
X161485219Y-112621508D01*
X161359774Y-112496063D01*
X161190256Y-112382795D01*
X161001898Y-112304774D01*
X160801939Y-112265000D01*
X160598061Y-112265000D01*
X160398102Y-112304774D01*
X160209744Y-112382795D01*
X160040226Y-112496063D01*
X159896063Y-112640226D01*
X159782795Y-112809744D01*
X159704774Y-112998102D01*
X159665000Y-113198061D01*
X159665000Y-113401939D01*
X159704774Y-113601898D01*
X159782795Y-113790256D01*
X159896063Y-113959774D01*
X160040226Y-114103937D01*
X160209744Y-114217205D01*
X160398102Y-114295226D01*
X160598061Y-114335000D01*
X160788914Y-114335000D01*
X160487682Y-115011577D01*
X160079724Y-115753650D01*
X160003937Y-115640226D01*
X159859774Y-115496063D01*
X159690256Y-115382795D01*
X159501898Y-115304774D01*
X159301939Y-115265000D01*
X159098061Y-115265000D01*
X158898102Y-115304774D01*
X158709744Y-115382795D01*
X158540226Y-115496063D01*
X158396063Y-115640226D01*
X158282795Y-115809744D01*
X158280059Y-115816348D01*
X158159774Y-115696063D01*
X157990256Y-115582795D01*
X157801898Y-115504774D01*
X157601939Y-115465000D01*
X157398061Y-115465000D01*
X157198102Y-115504774D01*
X157009744Y-115582795D01*
X156840226Y-115696063D01*
X156696063Y-115840226D01*
X156582795Y-116009744D01*
X156504774Y-116198102D01*
X156465000Y-116398061D01*
X156465000Y-116601939D01*
X156504774Y-116801898D01*
X156582795Y-116990256D01*
X156696063Y-117159774D01*
X156840226Y-117303937D01*
X157009744Y-117417205D01*
X157198102Y-117495226D01*
X157398061Y-117535000D01*
X157425131Y-117535000D01*
X157309744Y-117582795D01*
X157140226Y-117696063D01*
X156996063Y-117840226D01*
X156882795Y-118009744D01*
X156804774Y-118198102D01*
X156765000Y-118398061D01*
X156765000Y-118601939D01*
X156804774Y-118801898D01*
X156882795Y-118990256D01*
X156996063Y-119159774D01*
X157140226Y-119303937D01*
X157309744Y-119417205D01*
X157498102Y-119495226D01*
X157525569Y-119500689D01*
X157399155Y-119660184D01*
X157000486Y-120084723D01*
X156903937Y-119940226D01*
X156759774Y-119796063D01*
X156590256Y-119682795D01*
X156401898Y-119604774D01*
X156252139Y-119574985D01*
X156376825Y-119273967D01*
X156472627Y-118792337D01*
X156472627Y-118301271D01*
X156376825Y-117819641D01*
X156188902Y-117365956D01*
X155916080Y-116957649D01*
X155568845Y-116610414D01*
X155160538Y-116337592D01*
X154706853Y-116149669D01*
X154225223Y-116053867D01*
X153734157Y-116053867D01*
X153252527Y-116149669D01*
X152798842Y-116337592D01*
X152390535Y-116610414D01*
X152043300Y-116957649D01*
X151770478Y-117365956D01*
X151582555Y-117819641D01*
X151486753Y-118301271D01*
X151486753Y-118792337D01*
X151582555Y-119273967D01*
X151770478Y-119727652D01*
X152043300Y-120135959D01*
X152390535Y-120483194D01*
X152798842Y-120756016D01*
X153252527Y-120943939D01*
X153734157Y-121039741D01*
X154225223Y-121039741D01*
X154706853Y-120943939D01*
X155082210Y-120788461D01*
X155104774Y-120901898D01*
X155182795Y-121090256D01*
X155296063Y-121259774D01*
X155440226Y-121403937D01*
X155586882Y-121501929D01*
X154831772Y-122181833D01*
X154795226Y-121998102D01*
X154717205Y-121809744D01*
X154603937Y-121640226D01*
X154459774Y-121496063D01*
X154290256Y-121382795D01*
X154101898Y-121304774D01*
X153901939Y-121265000D01*
X153698061Y-121265000D01*
X153498102Y-121304774D01*
X153309744Y-121382795D01*
X153140226Y-121496063D01*
X152996063Y-121640226D01*
X152882795Y-121809744D01*
X152804774Y-121998102D01*
X152765000Y-122198061D01*
X152765000Y-122401939D01*
X152804774Y-122601898D01*
X152882795Y-122790256D01*
X152996063Y-122959774D01*
X153140226Y-123103937D01*
X153309744Y-123217205D01*
X153423377Y-123264274D01*
X153251598Y-123394661D01*
X151677161Y-124393830D01*
X151235000Y-124624986D01*
X151235000Y-124598061D01*
X151195226Y-124398102D01*
X151117205Y-124209744D01*
X151003937Y-124040226D01*
X150859774Y-123896063D01*
X150690256Y-123782795D01*
X150501898Y-123704774D01*
X150301939Y-123665000D01*
X150098061Y-123665000D01*
X149898102Y-123704774D01*
X149709744Y-123782795D01*
X149540226Y-123896063D01*
X149396063Y-124040226D01*
X149282795Y-124209744D01*
X149204774Y-124398102D01*
X149165000Y-124598061D01*
X149165000Y-124801939D01*
X149204774Y-125001898D01*
X149282795Y-125190256D01*
X149396063Y-125359774D01*
X149510261Y-125473972D01*
X148305617Y-125980358D01*
X146532161Y-126556589D01*
X144716706Y-126982400D01*
X142871987Y-127254804D01*
X142728141Y-127263854D01*
X142795226Y-127101898D01*
X142835000Y-126901939D01*
X142835000Y-126698061D01*
X142795226Y-126498102D01*
X142717205Y-126309744D01*
X142603937Y-126140226D01*
X142459774Y-125996063D01*
X142290256Y-125882795D01*
X142101898Y-125804774D01*
X141901939Y-125765000D01*
X141698061Y-125765000D01*
X141498102Y-125804774D01*
X141309744Y-125882795D01*
X141211890Y-125948179D01*
X141159774Y-125896063D01*
X140990256Y-125782795D01*
X140801898Y-125704774D01*
X140601939Y-125665000D01*
X140398061Y-125665000D01*
X140198102Y-125704774D01*
X140009744Y-125782795D01*
X139840226Y-125896063D01*
X139696063Y-126040226D01*
X139582795Y-126209744D01*
X139504774Y-126398102D01*
X139465000Y-126598061D01*
X139465000Y-126801939D01*
X139504774Y-127001898D01*
X139582795Y-127190256D01*
X139685609Y-127344129D01*
X139146630Y-127332839D01*
X137292123Y-127137923D01*
X135460429Y-126788508D01*
X133664398Y-126287047D01*
X131916627Y-125637057D01*
X130895390Y-125156500D01*
X130990256Y-125117205D01*
X131159774Y-125003937D01*
X131303937Y-124859774D01*
X131417205Y-124690256D01*
X131495226Y-124501898D01*
X131535000Y-124301939D01*
X131535000Y-124098061D01*
X131495226Y-123898102D01*
X131417205Y-123709744D01*
X131303937Y-123540226D01*
X131159774Y-123396063D01*
X130990256Y-123282795D01*
X130801898Y-123204774D01*
X130601939Y-123165000D01*
X130398061Y-123165000D01*
X130198102Y-123204774D01*
X130009744Y-123282795D01*
X129840226Y-123396063D01*
X129696063Y-123540226D01*
X129582795Y-123709744D01*
X129504774Y-123898102D01*
X129465000Y-124098061D01*
X129465000Y-124301939D01*
X129487437Y-124414739D01*
X128614478Y-123910735D01*
X127083262Y-122846513D01*
X126178540Y-122098061D01*
X127365000Y-122098061D01*
X127365000Y-122301939D01*
X127404774Y-122501898D01*
X127482795Y-122690256D01*
X127596063Y-122859774D01*
X127740226Y-123003937D01*
X127909744Y-123117205D01*
X128098102Y-123195226D01*
X128298061Y-123235000D01*
X128501939Y-123235000D01*
X128701898Y-123195226D01*
X128890256Y-123117205D01*
X129059774Y-123003937D01*
X129203937Y-122859774D01*
X129317205Y-122690256D01*
X129395226Y-122501898D01*
X129435000Y-122301939D01*
X129435000Y-122098061D01*
X129395226Y-121898102D01*
X129317205Y-121709744D01*
X129203937Y-121540226D01*
X129059774Y-121396063D01*
X128890256Y-121282795D01*
X128701898Y-121204774D01*
X128501939Y-121165000D01*
X128298061Y-121165000D01*
X128098102Y-121204774D01*
X127909744Y-121282795D01*
X127740226Y-121396063D01*
X127596063Y-121540226D01*
X127482795Y-121709744D01*
X127404774Y-121898102D01*
X127365000Y-122098061D01*
X126178540Y-122098061D01*
X125646469Y-121657894D01*
X124314175Y-120353216D01*
X123374857Y-119265005D01*
X123490256Y-119217205D01*
X123659774Y-119103937D01*
X123803937Y-118959774D01*
X123917205Y-118790256D01*
X123995226Y-118601898D01*
X124035000Y-118401939D01*
X124035000Y-118301271D01*
X124616692Y-118301271D01*
X124616692Y-118792337D01*
X124712495Y-119273968D01*
X124900417Y-119727654D01*
X125173239Y-120135960D01*
X125520476Y-120483197D01*
X125928782Y-120756019D01*
X126382468Y-120943941D01*
X126864099Y-121039744D01*
X127355165Y-121039744D01*
X127836796Y-120943941D01*
X128290482Y-120756019D01*
X128698788Y-120483197D01*
X129046025Y-120135960D01*
X129318847Y-119727654D01*
X129506769Y-119273968D01*
X129521867Y-119198061D01*
X137465000Y-119198061D01*
X137465000Y-119401939D01*
X137504774Y-119601898D01*
X137582795Y-119790256D01*
X137696063Y-119959774D01*
X137840226Y-120103937D01*
X138009744Y-120217205D01*
X138198102Y-120295226D01*
X138398061Y-120335000D01*
X138601939Y-120335000D01*
X138801898Y-120295226D01*
X138990256Y-120217205D01*
X139159774Y-120103937D01*
X139303937Y-119959774D01*
X139417205Y-119790256D01*
X139495226Y-119601898D01*
X139535000Y-119401939D01*
X139535000Y-119198061D01*
X139525055Y-119148061D01*
X139615000Y-119148061D01*
X139615000Y-119351939D01*
X139654774Y-119551898D01*
X139732795Y-119740256D01*
X139846063Y-119909774D01*
X139990226Y-120053937D01*
X140159744Y-120167205D01*
X140348102Y-120245226D01*
X140548061Y-120285000D01*
X140751939Y-120285000D01*
X140951898Y-120245226D01*
X141140256Y-120167205D01*
X141309774Y-120053937D01*
X141453937Y-119909774D01*
X141567205Y-119740256D01*
X141645226Y-119551898D01*
X141685000Y-119351939D01*
X141685000Y-119148061D01*
X141645226Y-118948102D01*
X141567205Y-118759744D01*
X141453937Y-118590226D01*
X141309774Y-118446063D01*
X141140256Y-118332795D01*
X140951898Y-118254774D01*
X140751939Y-118215000D01*
X140548061Y-118215000D01*
X140348102Y-118254774D01*
X140159744Y-118332795D01*
X139990226Y-118446063D01*
X139846063Y-118590226D01*
X139732795Y-118759744D01*
X139654774Y-118948102D01*
X139615000Y-119148061D01*
X139525055Y-119148061D01*
X139495226Y-118998102D01*
X139417205Y-118809744D01*
X139303937Y-118640226D01*
X139159774Y-118496063D01*
X138990256Y-118382795D01*
X138801898Y-118304774D01*
X138601939Y-118265000D01*
X138398061Y-118265000D01*
X138198102Y-118304774D01*
X138009744Y-118382795D01*
X137840226Y-118496063D01*
X137696063Y-118640226D01*
X137582795Y-118809744D01*
X137504774Y-118998102D01*
X137465000Y-119198061D01*
X129521867Y-119198061D01*
X129602572Y-118792337D01*
X129602572Y-118301271D01*
X129506769Y-117819640D01*
X129318847Y-117365954D01*
X129046025Y-116957648D01*
X128698788Y-116610411D01*
X128290482Y-116337589D01*
X127836796Y-116149667D01*
X127355165Y-116053864D01*
X126864099Y-116053864D01*
X126382468Y-116149667D01*
X125928782Y-116337589D01*
X125520476Y-116610411D01*
X125173239Y-116957648D01*
X124900417Y-117365954D01*
X124712495Y-117819640D01*
X124616692Y-118301271D01*
X124035000Y-118301271D01*
X124035000Y-118198061D01*
X123995226Y-117998102D01*
X123917205Y-117809744D01*
X123803937Y-117640226D01*
X123659774Y-117496063D01*
X123490256Y-117382795D01*
X123301898Y-117304774D01*
X123101939Y-117265000D01*
X122898061Y-117265000D01*
X122698102Y-117304774D01*
X122509744Y-117382795D01*
X122340226Y-117496063D01*
X122196063Y-117640226D01*
X122174092Y-117673108D01*
X121999670Y-117433037D01*
X121033694Y-115838020D01*
X120964218Y-115698061D01*
X122665000Y-115698061D01*
X122665000Y-115901939D01*
X122704774Y-116101898D01*
X122782795Y-116290256D01*
X122896063Y-116459774D01*
X123040226Y-116603937D01*
X123209744Y-116717205D01*
X123398102Y-116795226D01*
X123598061Y-116835000D01*
X123801939Y-116835000D01*
X124001898Y-116795226D01*
X124190256Y-116717205D01*
X124359774Y-116603937D01*
X124503937Y-116459774D01*
X124617205Y-116290256D01*
X124695226Y-116101898D01*
X124735000Y-115901939D01*
X124735000Y-115698061D01*
X124695226Y-115498102D01*
X124617205Y-115309744D01*
X124542582Y-115198061D01*
X128365000Y-115198061D01*
X128365000Y-115401939D01*
X128404774Y-115601898D01*
X128482795Y-115790256D01*
X128596063Y-115959774D01*
X128740226Y-116103937D01*
X128909744Y-116217205D01*
X129098102Y-116295226D01*
X129298061Y-116335000D01*
X129501939Y-116335000D01*
X129701898Y-116295226D01*
X129890256Y-116217205D01*
X130059774Y-116103937D01*
X130203937Y-115959774D01*
X130317205Y-115790256D01*
X130395226Y-115601898D01*
X130435000Y-115401939D01*
X130435000Y-115198061D01*
X130395226Y-114998102D01*
X130317205Y-114809744D01*
X130203937Y-114640226D01*
X130059774Y-114496063D01*
X129890256Y-114382795D01*
X129701898Y-114304774D01*
X129501939Y-114265000D01*
X129298061Y-114265000D01*
X129098102Y-114304774D01*
X128909744Y-114382795D01*
X128740226Y-114496063D01*
X128596063Y-114640226D01*
X128482795Y-114809744D01*
X128404774Y-114998102D01*
X128365000Y-115198061D01*
X124542582Y-115198061D01*
X124503937Y-115140226D01*
X124359774Y-114996063D01*
X124190256Y-114882795D01*
X124001898Y-114804774D01*
X123801939Y-114765000D01*
X123598061Y-114765000D01*
X123398102Y-114804774D01*
X123209744Y-114882795D01*
X123040226Y-114996063D01*
X122896063Y-115140226D01*
X122782795Y-115309744D01*
X122704774Y-115498102D01*
X122665000Y-115698061D01*
X120964218Y-115698061D01*
X120219611Y-114198061D01*
X120565000Y-114198061D01*
X120565000Y-114401939D01*
X120604774Y-114601898D01*
X120682795Y-114790256D01*
X120796063Y-114959774D01*
X120940226Y-115103937D01*
X121109744Y-115217205D01*
X121298102Y-115295226D01*
X121498061Y-115335000D01*
X121701939Y-115335000D01*
X121901898Y-115295226D01*
X122090256Y-115217205D01*
X122259774Y-115103937D01*
X122403937Y-114959774D01*
X122517205Y-114790256D01*
X122595226Y-114601898D01*
X122635000Y-114401939D01*
X122635000Y-114198061D01*
X122595226Y-113998102D01*
X122517205Y-113809744D01*
X122403937Y-113640226D01*
X122259774Y-113496063D01*
X122090256Y-113382795D01*
X121901898Y-113304774D01*
X121701939Y-113265000D01*
X121498061Y-113265000D01*
X121298102Y-113304774D01*
X121109744Y-113382795D01*
X120940226Y-113496063D01*
X120796063Y-113640226D01*
X120682795Y-113809744D01*
X120604774Y-113998102D01*
X120565000Y-114198061D01*
X120219611Y-114198061D01*
X120204572Y-114167766D01*
X119518122Y-112433991D01*
X118979158Y-110648855D01*
X118591460Y-108824881D01*
X118357748Y-106974862D01*
X118309213Y-105816850D01*
X118309744Y-105817205D01*
X118498102Y-105895226D01*
X118698061Y-105935000D01*
X118901939Y-105935000D01*
X119101898Y-105895226D01*
X119290256Y-105817205D01*
X119395005Y-105747214D01*
X119365000Y-105898061D01*
X119365000Y-106101939D01*
X119404774Y-106301898D01*
X119482795Y-106490256D01*
X119596063Y-106659774D01*
X119740226Y-106803937D01*
X119909744Y-106917205D01*
X120098102Y-106995226D01*
X120298061Y-107035000D01*
X120501939Y-107035000D01*
X120701898Y-106995226D01*
X120890256Y-106917205D01*
X121059774Y-106803937D01*
X121203937Y-106659774D01*
X121317205Y-106490256D01*
X121395226Y-106301898D01*
X121435000Y-106101939D01*
X121435000Y-105898061D01*
X121397383Y-105708946D01*
X121409744Y-105717205D01*
X121598102Y-105795226D01*
X121798061Y-105835000D01*
X122001939Y-105835000D01*
X122201898Y-105795226D01*
X122390256Y-105717205D01*
X122559774Y-105603937D01*
X122703937Y-105459774D01*
X122817205Y-105290256D01*
X122895226Y-105101898D01*
X122935000Y-104901939D01*
X122935000Y-104698061D01*
X122895226Y-104498102D01*
X122817205Y-104309744D01*
X122703937Y-104140226D01*
X122559774Y-103996063D01*
X122390256Y-103882795D01*
X122201898Y-103804774D01*
X122168150Y-103798061D01*
X125265000Y-103798061D01*
X125265000Y-104001939D01*
X125304774Y-104201898D01*
X125382795Y-104390256D01*
X125496063Y-104559774D01*
X125640226Y-104703937D01*
X125809744Y-104817205D01*
X125998102Y-104895226D01*
X126198061Y-104935000D01*
X126401939Y-104935000D01*
X126601898Y-104895226D01*
X126790256Y-104817205D01*
X126959774Y-104703937D01*
X127103937Y-104559774D01*
X127186330Y-104436463D01*
X129810885Y-104436463D01*
X129810885Y-105787087D01*
X129980163Y-107127061D01*
X130316049Y-108435252D01*
X130813247Y-109691031D01*
X131463915Y-110874592D01*
X131982261Y-111588034D01*
X131898102Y-111604774D01*
X131709744Y-111682795D01*
X131540226Y-111796063D01*
X131396063Y-111940226D01*
X131282795Y-112109744D01*
X131204774Y-112298102D01*
X131165000Y-112498061D01*
X131165000Y-112701939D01*
X131204774Y-112901898D01*
X131282795Y-113090256D01*
X131396063Y-113259774D01*
X131540226Y-113403937D01*
X131709744Y-113517205D01*
X131898102Y-113595226D01*
X132098061Y-113635000D01*
X132301939Y-113635000D01*
X132501898Y-113595226D01*
X132690256Y-113517205D01*
X132859774Y-113403937D01*
X133003937Y-113259774D01*
X133117205Y-113090256D01*
X133176935Y-112946057D01*
X133182358Y-112951832D01*
X133457139Y-113179150D01*
X133396063Y-113240226D01*
X133282795Y-113409744D01*
X133204774Y-113598102D01*
X133165000Y-113798061D01*
X133165000Y-114001939D01*
X133204774Y-114201898D01*
X133282795Y-114390256D01*
X133396063Y-114559774D01*
X133540226Y-114703937D01*
X133709744Y-114817205D01*
X133898102Y-114895226D01*
X134098061Y-114935000D01*
X134301939Y-114935000D01*
X134501898Y-114895226D01*
X134690256Y-114817205D01*
X134859774Y-114703937D01*
X135003937Y-114559774D01*
X135117205Y-114390256D01*
X135120500Y-114382302D01*
X135363401Y-114536452D01*
X136585482Y-115111520D01*
X137870002Y-115528886D01*
X139156088Y-115774220D01*
X139104774Y-115898102D01*
X139065000Y-116098061D01*
X139065000Y-116301939D01*
X139104774Y-116501898D01*
X139182795Y-116690256D01*
X139296063Y-116859774D01*
X139440226Y-117003937D01*
X139609744Y-117117205D01*
X139798102Y-117195226D01*
X139998061Y-117235000D01*
X140201939Y-117235000D01*
X140401898Y-117195226D01*
X140590256Y-117117205D01*
X140759774Y-117003937D01*
X140765650Y-116998061D01*
X144765000Y-116998061D01*
X144765000Y-117201939D01*
X144804774Y-117401898D01*
X144882795Y-117590256D01*
X144996063Y-117759774D01*
X145140226Y-117903937D01*
X145309744Y-118017205D01*
X145498102Y-118095226D01*
X145698061Y-118135000D01*
X145901939Y-118135000D01*
X146101898Y-118095226D01*
X146290256Y-118017205D01*
X146459774Y-117903937D01*
X146551944Y-117811767D01*
X146709744Y-117917205D01*
X146898102Y-117995226D01*
X147098061Y-118035000D01*
X147301939Y-118035000D01*
X147501898Y-117995226D01*
X147690256Y-117917205D01*
X147859774Y-117803937D01*
X148003937Y-117659774D01*
X148117205Y-117490256D01*
X148195226Y-117301898D01*
X148235000Y-117101939D01*
X148235000Y-116898061D01*
X148195226Y-116698102D01*
X148117205Y-116509744D01*
X148003937Y-116340226D01*
X147859774Y-116196063D01*
X147690256Y-116082795D01*
X147501898Y-116004774D01*
X147301939Y-115965000D01*
X147098061Y-115965000D01*
X146898102Y-116004774D01*
X146709744Y-116082795D01*
X146540226Y-116196063D01*
X146448056Y-116288233D01*
X146290256Y-116182795D01*
X146101898Y-116104774D01*
X145901939Y-116065000D01*
X145698061Y-116065000D01*
X145498102Y-116104774D01*
X145309744Y-116182795D01*
X145140226Y-116296063D01*
X144996063Y-116440226D01*
X144882795Y-116609744D01*
X144804774Y-116798102D01*
X144765000Y-116998061D01*
X140765650Y-116998061D01*
X140903937Y-116859774D01*
X141017205Y-116690256D01*
X141095226Y-116501898D01*
X141135000Y-116301939D01*
X141135000Y-116098061D01*
X141095226Y-115898102D01*
X141068596Y-115833811D01*
X141892620Y-115781968D01*
X143219320Y-115528886D01*
X144503840Y-115111520D01*
X145725921Y-114536452D01*
X146866291Y-113812752D01*
X147424944Y-113350593D01*
X147482795Y-113490256D01*
X147596063Y-113659774D01*
X147740226Y-113803937D01*
X147909744Y-113917205D01*
X148098102Y-113995226D01*
X148298061Y-114035000D01*
X148501939Y-114035000D01*
X148701898Y-113995226D01*
X148890256Y-113917205D01*
X149059774Y-113803937D01*
X149203937Y-113659774D01*
X149317205Y-113490256D01*
X149395226Y-113301898D01*
X149435000Y-113101939D01*
X149435000Y-112898061D01*
X149395226Y-112698102D01*
X149317205Y-112509744D01*
X149203937Y-112340226D01*
X149059774Y-112196063D01*
X148890256Y-112082795D01*
X148769871Y-112032929D01*
X148831530Y-111967269D01*
X149625407Y-110874592D01*
X150276075Y-109691031D01*
X150773273Y-108435252D01*
X151109159Y-107127061D01*
X151150721Y-106798061D01*
X152265000Y-106798061D01*
X152265000Y-107001939D01*
X152304774Y-107201898D01*
X152382795Y-107390256D01*
X152496063Y-107559774D01*
X152640226Y-107703937D01*
X152809744Y-107817205D01*
X152998102Y-107895226D01*
X153198061Y-107935000D01*
X153401939Y-107935000D01*
X153601898Y-107895226D01*
X153790256Y-107817205D01*
X153959774Y-107703937D01*
X154103937Y-107559774D01*
X154217205Y-107390256D01*
X154295226Y-107201898D01*
X154335000Y-107001939D01*
X154335000Y-106798061D01*
X154295226Y-106598102D01*
X154217205Y-106409744D01*
X154103937Y-106240226D01*
X153959774Y-106096063D01*
X153790256Y-105982795D01*
X153601898Y-105904774D01*
X153401939Y-105865000D01*
X153198061Y-105865000D01*
X152998102Y-105904774D01*
X152809744Y-105982795D01*
X152640226Y-106096063D01*
X152496063Y-106240226D01*
X152382795Y-106409744D01*
X152304774Y-106598102D01*
X152265000Y-106798061D01*
X151150721Y-106798061D01*
X151278437Y-105787087D01*
X151278437Y-105698061D01*
X158565000Y-105698061D01*
X158565000Y-105901939D01*
X158604774Y-106101898D01*
X158682795Y-106290256D01*
X158796063Y-106459774D01*
X158940226Y-106603937D01*
X159109744Y-106717205D01*
X159298102Y-106795226D01*
X159498061Y-106835000D01*
X159701939Y-106835000D01*
X159901898Y-106795226D01*
X160090256Y-106717205D01*
X160259774Y-106603937D01*
X160403937Y-106459774D01*
X160517205Y-106290256D01*
X160595226Y-106101898D01*
X160635000Y-105901939D01*
X160635000Y-105798061D01*
X160665000Y-105798061D01*
X160665000Y-106001939D01*
X160704774Y-106201898D01*
X160782795Y-106390256D01*
X160896063Y-106559774D01*
X161040226Y-106703937D01*
X161209744Y-106817205D01*
X161398102Y-106895226D01*
X161598061Y-106935000D01*
X161801939Y-106935000D01*
X162001898Y-106895226D01*
X162190256Y-106817205D01*
X162359774Y-106703937D01*
X162503937Y-106559774D01*
X162617205Y-106390256D01*
X162695226Y-106201898D01*
X162735000Y-106001939D01*
X162735000Y-105798061D01*
X162695226Y-105598102D01*
X162617205Y-105409744D01*
X162503937Y-105240226D01*
X162359774Y-105096063D01*
X162190256Y-104982795D01*
X162001898Y-104904774D01*
X161801939Y-104865000D01*
X161598061Y-104865000D01*
X161398102Y-104904774D01*
X161209744Y-104982795D01*
X161040226Y-105096063D01*
X160896063Y-105240226D01*
X160782795Y-105409744D01*
X160704774Y-105598102D01*
X160665000Y-105798061D01*
X160635000Y-105798061D01*
X160635000Y-105698061D01*
X160595226Y-105498102D01*
X160517205Y-105309744D01*
X160403937Y-105140226D01*
X160259774Y-104996063D01*
X160090256Y-104882795D01*
X159901898Y-104804774D01*
X159701939Y-104765000D01*
X159498061Y-104765000D01*
X159298102Y-104804774D01*
X159109744Y-104882795D01*
X158940226Y-104996063D01*
X158796063Y-105140226D01*
X158682795Y-105309744D01*
X158604774Y-105498102D01*
X158565000Y-105698061D01*
X151278437Y-105698061D01*
X151278437Y-104436463D01*
X151172523Y-103598061D01*
X158465000Y-103598061D01*
X158465000Y-103801939D01*
X158504774Y-104001898D01*
X158582795Y-104190256D01*
X158696063Y-104359774D01*
X158840226Y-104503937D01*
X159009744Y-104617205D01*
X159198102Y-104695226D01*
X159398061Y-104735000D01*
X159601939Y-104735000D01*
X159801898Y-104695226D01*
X159990256Y-104617205D01*
X160159774Y-104503937D01*
X160303937Y-104359774D01*
X160417205Y-104190256D01*
X160495226Y-104001898D01*
X160535000Y-103801939D01*
X160535000Y-103698061D01*
X160565000Y-103698061D01*
X160565000Y-103901939D01*
X160604774Y-104101898D01*
X160682795Y-104290256D01*
X160796063Y-104459774D01*
X160940226Y-104603937D01*
X161109744Y-104717205D01*
X161298102Y-104795226D01*
X161498061Y-104835000D01*
X161701939Y-104835000D01*
X161901898Y-104795226D01*
X162090256Y-104717205D01*
X162259774Y-104603937D01*
X162403937Y-104459774D01*
X162517205Y-104290256D01*
X162595226Y-104101898D01*
X162635000Y-103901939D01*
X162635000Y-103698061D01*
X162595226Y-103498102D01*
X162517205Y-103309744D01*
X162403937Y-103140226D01*
X162259774Y-102996063D01*
X162090256Y-102882795D01*
X161901898Y-102804774D01*
X161701939Y-102765000D01*
X161498061Y-102765000D01*
X161298102Y-102804774D01*
X161109744Y-102882795D01*
X160940226Y-102996063D01*
X160796063Y-103140226D01*
X160682795Y-103309744D01*
X160604774Y-103498102D01*
X160565000Y-103698061D01*
X160535000Y-103698061D01*
X160535000Y-103598061D01*
X160495226Y-103398102D01*
X160417205Y-103209744D01*
X160303937Y-103040226D01*
X160159774Y-102896063D01*
X159990256Y-102782795D01*
X159801898Y-102704774D01*
X159601939Y-102665000D01*
X159398061Y-102665000D01*
X159198102Y-102704774D01*
X159009744Y-102782795D01*
X158840226Y-102896063D01*
X158696063Y-103040226D01*
X158582795Y-103209744D01*
X158504774Y-103398102D01*
X158465000Y-103598061D01*
X151172523Y-103598061D01*
X151109159Y-103096489D01*
X150773273Y-101788298D01*
X150276075Y-100532519D01*
X149625407Y-99348958D01*
X148831530Y-98256281D01*
X148180272Y-97562762D01*
X148290256Y-97517205D01*
X148459774Y-97403937D01*
X148465650Y-97398061D01*
X149865000Y-97398061D01*
X149865000Y-97601939D01*
X149904774Y-97801898D01*
X149982795Y-97990256D01*
X150096063Y-98159774D01*
X150240226Y-98303937D01*
X150409744Y-98417205D01*
X150598102Y-98495226D01*
X150798061Y-98535000D01*
X151001939Y-98535000D01*
X151201898Y-98495226D01*
X151390256Y-98417205D01*
X151559774Y-98303937D01*
X151703937Y-98159774D01*
X151817205Y-97990256D01*
X151895226Y-97801898D01*
X151935000Y-97601939D01*
X151935000Y-97398061D01*
X151895226Y-97198102D01*
X151817205Y-97009744D01*
X151703937Y-96840226D01*
X151559774Y-96696063D01*
X151390256Y-96582795D01*
X151201898Y-96504774D01*
X151001939Y-96465000D01*
X150798061Y-96465000D01*
X150598102Y-96504774D01*
X150409744Y-96582795D01*
X150240226Y-96696063D01*
X150096063Y-96840226D01*
X149982795Y-97009744D01*
X149904774Y-97198102D01*
X149865000Y-97398061D01*
X148465650Y-97398061D01*
X148603937Y-97259774D01*
X148717205Y-97090256D01*
X148795226Y-96901898D01*
X148835000Y-96701939D01*
X148835000Y-96498061D01*
X148795226Y-96298102D01*
X148717205Y-96109744D01*
X148603937Y-95940226D01*
X148459774Y-95796063D01*
X148290256Y-95682795D01*
X148101898Y-95604774D01*
X147901939Y-95565000D01*
X147698061Y-95565000D01*
X147498102Y-95604774D01*
X147309744Y-95682795D01*
X147140226Y-95796063D01*
X146996063Y-95940226D01*
X146882795Y-96109744D01*
X146804774Y-96298102D01*
X146791765Y-96363503D01*
X145725921Y-95687098D01*
X144503840Y-95112030D01*
X143219320Y-94694664D01*
X142712911Y-94598061D01*
X156465000Y-94598061D01*
X156465000Y-94801939D01*
X156504774Y-95001898D01*
X156582795Y-95190256D01*
X156696063Y-95359774D01*
X156840226Y-95503937D01*
X157009744Y-95617205D01*
X157198102Y-95695226D01*
X157398061Y-95735000D01*
X157601939Y-95735000D01*
X157801898Y-95695226D01*
X157990256Y-95617205D01*
X158159774Y-95503937D01*
X158303937Y-95359774D01*
X158417205Y-95190256D01*
X158495226Y-95001898D01*
X158535000Y-94801939D01*
X158535000Y-94598061D01*
X158495226Y-94398102D01*
X158417205Y-94209744D01*
X158303937Y-94040226D01*
X158159774Y-93896063D01*
X157990256Y-93782795D01*
X157801898Y-93704774D01*
X157601939Y-93665000D01*
X157398061Y-93665000D01*
X157198102Y-93704774D01*
X157009744Y-93782795D01*
X156840226Y-93896063D01*
X156696063Y-94040226D01*
X156582795Y-94209744D01*
X156504774Y-94398102D01*
X156465000Y-94598061D01*
X142712911Y-94598061D01*
X141892620Y-94441582D01*
X140544661Y-94356776D01*
X139196702Y-94441582D01*
X137870002Y-94694664D01*
X136585482Y-95112030D01*
X135363401Y-95687098D01*
X134223031Y-96410798D01*
X133182358Y-97271718D01*
X132762421Y-97718905D01*
X132717205Y-97609744D01*
X132603937Y-97440226D01*
X132459774Y-97296063D01*
X132290256Y-97182795D01*
X132101898Y-97104774D01*
X131901939Y-97065000D01*
X131698061Y-97065000D01*
X131498102Y-97104774D01*
X131309744Y-97182795D01*
X131140226Y-97296063D01*
X130996063Y-97440226D01*
X130882795Y-97609744D01*
X130804774Y-97798102D01*
X130765000Y-97998061D01*
X130765000Y-98201939D01*
X130804774Y-98401898D01*
X130882795Y-98590256D01*
X130996063Y-98759774D01*
X131140226Y-98903937D01*
X131309744Y-99017205D01*
X131498102Y-99095226D01*
X131629302Y-99121323D01*
X131463915Y-99348958D01*
X130813247Y-100532519D01*
X130316049Y-101788298D01*
X129980163Y-103096489D01*
X129810885Y-104436463D01*
X127186330Y-104436463D01*
X127217205Y-104390256D01*
X127295226Y-104201898D01*
X127335000Y-104001939D01*
X127335000Y-103798061D01*
X127295226Y-103598102D01*
X127217205Y-103409744D01*
X127103937Y-103240226D01*
X126959774Y-103096063D01*
X126790256Y-102982795D01*
X126601898Y-102904774D01*
X126401939Y-102865000D01*
X126198061Y-102865000D01*
X125998102Y-102904774D01*
X125809744Y-102982795D01*
X125640226Y-103096063D01*
X125496063Y-103240226D01*
X125382795Y-103409744D01*
X125304774Y-103598102D01*
X125265000Y-103798061D01*
X122168150Y-103798061D01*
X122001939Y-103765000D01*
X121798061Y-103765000D01*
X121598102Y-103804774D01*
X121409744Y-103882795D01*
X121327935Y-103937458D01*
X121335000Y-103901939D01*
X121335000Y-103698061D01*
X121295226Y-103498102D01*
X121217205Y-103309744D01*
X121103937Y-103140226D01*
X120959774Y-102996063D01*
X120790256Y-102882795D01*
X120601898Y-102804774D01*
X120401939Y-102765000D01*
X120198061Y-102765000D01*
X119998102Y-102804774D01*
X119809744Y-102882795D01*
X119640226Y-102996063D01*
X119496063Y-103140226D01*
X119382795Y-103309744D01*
X119304774Y-103498102D01*
X119265000Y-103698061D01*
X119265000Y-103901939D01*
X119280259Y-103978654D01*
X119101898Y-103904774D01*
X118901939Y-103865000D01*
X118698061Y-103865000D01*
X118498102Y-103904774D01*
X118327285Y-103975529D01*
X118357748Y-103248688D01*
X118591460Y-101398669D01*
X118979158Y-99574695D01*
X119518122Y-97789559D01*
X120204572Y-96055784D01*
X120270915Y-95922137D01*
X120296063Y-95959774D01*
X120440226Y-96103937D01*
X120609744Y-96217205D01*
X120798102Y-96295226D01*
X120998061Y-96335000D01*
X121201939Y-96335000D01*
X121401898Y-96295226D01*
X121590256Y-96217205D01*
X121759774Y-96103937D01*
X121903937Y-95959774D01*
X122017205Y-95790256D01*
X122095226Y-95601898D01*
X122135000Y-95401939D01*
X122135000Y-95198061D01*
X122095226Y-94998102D01*
X122017205Y-94809744D01*
X121903937Y-94640226D01*
X121759774Y-94496063D01*
X121590256Y-94382795D01*
X121401898Y-94304774D01*
X121201939Y-94265000D01*
X121106690Y-94265000D01*
X121944184Y-92882131D01*
X121996063Y-92959774D01*
X122140226Y-93103937D01*
X122309744Y-93217205D01*
X122401416Y-93255177D01*
X122340226Y-93296063D01*
X122196063Y-93440226D01*
X122082795Y-93609744D01*
X122004774Y-93798102D01*
X121965000Y-93998061D01*
X121965000Y-94201939D01*
X122004774Y-94401898D01*
X122082795Y-94590256D01*
X122196063Y-94759774D01*
X122340226Y-94903937D01*
X122509744Y-95017205D01*
X122698102Y-95095226D01*
X122898061Y-95135000D01*
X123101939Y-95135000D01*
X123301898Y-95095226D01*
X123490256Y-95017205D01*
X123659774Y-94903937D01*
X123803937Y-94759774D01*
X123917205Y-94590256D01*
X123995226Y-94401898D01*
X124035000Y-94201939D01*
X124035000Y-93998061D01*
X123995226Y-93798102D01*
X123917205Y-93609744D01*
X123803937Y-93440226D01*
X123659774Y-93296063D01*
X123490256Y-93182795D01*
X123398584Y-93144823D01*
X123459774Y-93103937D01*
X123603937Y-92959774D01*
X123717205Y-92790256D01*
X123795226Y-92601898D01*
X123835000Y-92401939D01*
X123835000Y-92198061D01*
X123795226Y-91998102D01*
X123717205Y-91809744D01*
X123603937Y-91640226D01*
X123459774Y-91496063D01*
X123290256Y-91382795D01*
X123101898Y-91304774D01*
X123081998Y-91300816D01*
X123095727Y-91281920D01*
X124314175Y-89870334D01*
X124528876Y-89660084D01*
X124582795Y-89790256D01*
X124696063Y-89959774D01*
X124840226Y-90103937D01*
X125009744Y-90217205D01*
X125069968Y-90242151D01*
X124900420Y-90495898D01*
X124712497Y-90949583D01*
X124616695Y-91431213D01*
X124616695Y-91922279D01*
X124712497Y-92403909D01*
X124900420Y-92857594D01*
X125173242Y-93265901D01*
X125520477Y-93613136D01*
X125928784Y-93885958D01*
X126382469Y-94073881D01*
X126864099Y-94169683D01*
X127355165Y-94169683D01*
X127715233Y-94098061D01*
X129165000Y-94098061D01*
X129165000Y-94301939D01*
X129204774Y-94501898D01*
X129282795Y-94690256D01*
X129396063Y-94859774D01*
X129540226Y-95003937D01*
X129709744Y-95117205D01*
X129898102Y-95195226D01*
X130098061Y-95235000D01*
X130301939Y-95235000D01*
X130501898Y-95195226D01*
X130690256Y-95117205D01*
X130859774Y-95003937D01*
X131003937Y-94859774D01*
X131117205Y-94690256D01*
X131155393Y-94598061D01*
X131965000Y-94598061D01*
X131965000Y-94801939D01*
X132004774Y-95001898D01*
X132082795Y-95190256D01*
X132196063Y-95359774D01*
X132340226Y-95503937D01*
X132509744Y-95617205D01*
X132698102Y-95695226D01*
X132898061Y-95735000D01*
X133101939Y-95735000D01*
X133301898Y-95695226D01*
X133490256Y-95617205D01*
X133659774Y-95503937D01*
X133803937Y-95359774D01*
X133917205Y-95190256D01*
X133995226Y-95001898D01*
X134035000Y-94801939D01*
X134035000Y-94598061D01*
X133995226Y-94398102D01*
X133917205Y-94209744D01*
X133803937Y-94040226D01*
X133659774Y-93896063D01*
X133490256Y-93782795D01*
X133301898Y-93704774D01*
X133101939Y-93665000D01*
X132898061Y-93665000D01*
X132698102Y-93704774D01*
X132509744Y-93782795D01*
X132340226Y-93896063D01*
X132196063Y-94040226D01*
X132082795Y-94209744D01*
X132004774Y-94398102D01*
X131965000Y-94598061D01*
X131155393Y-94598061D01*
X131195226Y-94501898D01*
X131235000Y-94301939D01*
X131235000Y-94098061D01*
X131195226Y-93898102D01*
X131117205Y-93709744D01*
X131003937Y-93540226D01*
X130859774Y-93396063D01*
X130690256Y-93282795D01*
X130501898Y-93204774D01*
X130301939Y-93165000D01*
X130098061Y-93165000D01*
X129898102Y-93204774D01*
X129709744Y-93282795D01*
X129540226Y-93396063D01*
X129396063Y-93540226D01*
X129282795Y-93709744D01*
X129204774Y-93898102D01*
X129165000Y-94098061D01*
X127715233Y-94098061D01*
X127836795Y-94073881D01*
X128290480Y-93885958D01*
X128698787Y-93613136D01*
X129046022Y-93265901D01*
X129318844Y-92857594D01*
X129506767Y-92403909D01*
X129602569Y-91922279D01*
X129602569Y-91431213D01*
X129506767Y-90949583D01*
X129318844Y-90495898D01*
X129046022Y-90087591D01*
X128698787Y-89740356D01*
X128290480Y-89467534D01*
X127836795Y-89279611D01*
X127355165Y-89183809D01*
X126864099Y-89183809D01*
X126535000Y-89249271D01*
X126535000Y-89198061D01*
X126495226Y-88998102D01*
X126417205Y-88809744D01*
X126303937Y-88640226D01*
X126159774Y-88496063D01*
X125990256Y-88382795D01*
X125908464Y-88348915D01*
X127047986Y-87406220D01*
X127082795Y-87490256D01*
X127196063Y-87659774D01*
X127340226Y-87803937D01*
X127509744Y-87917205D01*
X127698102Y-87995226D01*
X127898061Y-88035000D01*
X128101939Y-88035000D01*
X128301898Y-87995226D01*
X128490256Y-87917205D01*
X128659774Y-87803937D01*
X128689669Y-87774042D01*
X128665000Y-87898061D01*
X128665000Y-88101939D01*
X128704774Y-88301898D01*
X128782795Y-88490256D01*
X128896063Y-88659774D01*
X129040226Y-88803937D01*
X129209744Y-88917205D01*
X129398102Y-88995226D01*
X129598061Y-89035000D01*
X129801939Y-89035000D01*
X130001898Y-88995226D01*
X130190256Y-88917205D01*
X130359774Y-88803937D01*
X130503937Y-88659774D01*
X130617205Y-88490256D01*
X130695226Y-88301898D01*
X130735000Y-88101939D01*
X130735000Y-87898061D01*
X130695226Y-87698102D01*
X130617205Y-87509744D01*
X130503937Y-87340226D01*
X130359774Y-87196063D01*
X130190256Y-87082795D01*
X130001898Y-87004774D01*
X129801939Y-86965000D01*
X129598061Y-86965000D01*
X129398102Y-87004774D01*
X129209744Y-87082795D01*
X129040226Y-87196063D01*
X129010331Y-87225958D01*
X129035000Y-87101939D01*
X129035000Y-86898061D01*
X128995226Y-86698102D01*
X128917205Y-86509744D01*
X128803937Y-86340226D01*
X128717212Y-86253501D01*
X129565000Y-85764030D01*
X129565000Y-85801939D01*
X129604774Y-86001898D01*
X129682795Y-86190256D01*
X129796063Y-86359774D01*
X129940226Y-86503937D01*
X130109744Y-86617205D01*
X130298102Y-86695226D01*
X130498061Y-86735000D01*
X130701939Y-86735000D01*
X130901898Y-86695226D01*
X131090256Y-86617205D01*
X131259774Y-86503937D01*
X131403937Y-86359774D01*
X131517205Y-86190256D01*
X131595226Y-86001898D01*
X131635000Y-85801939D01*
X131635000Y-85598061D01*
X131595226Y-85398102D01*
X131517205Y-85209744D01*
X131403937Y-85040226D01*
X131259774Y-84896063D01*
X131259354Y-84895782D01*
X131916627Y-84586493D01*
X133664398Y-83936503D01*
X135460429Y-83435042D01*
X137292123Y-83085627D01*
X138923187Y-82914196D01*
X138824176Y-83062376D01*
G37*
%TD.AperFunction*%
%TD*%
M02*
