%TF.GenerationSoftware,KiCad,Pcbnew,5.1.7-a382d34a8~87~ubuntu20.04.1*%
%TF.CreationDate,2021-02-25T10:09:00+00:00*%
%TF.ProjectId,UFOPulse,55464f50-756c-4736-952e-6b696361645f,rev?*%
%TF.SameCoordinates,Original*%
%TF.FileFunction,Copper,L4,Bot*%
%TF.FilePolarity,Positive*%
%FSLAX46Y46*%
G04 Gerber Fmt 4.6, Leading zero omitted, Abs format (unit mm)*
G04 Created by KiCad (PCBNEW 5.1.7-a382d34a8~87~ubuntu20.04.1) date 2021-02-25 10:09:00*
%MOMM*%
%LPD*%
G01*
G04 APERTURE LIST*
%TA.AperFunction,ComponentPad*%
%ADD10O,1.000000X1.000000*%
%TD*%
%TA.AperFunction,ComponentPad*%
%ADD11R,1.000000X1.000000*%
%TD*%
%TA.AperFunction,SMDPad,CuDef*%
%ADD12R,0.740000X2.400000*%
%TD*%
%TA.AperFunction,ViaPad*%
%ADD13C,0.800000*%
%TD*%
%TA.AperFunction,Conductor*%
%ADD14C,0.500000*%
%TD*%
%TA.AperFunction,Conductor*%
%ADD15C,0.254000*%
%TD*%
%TA.AperFunction,Conductor*%
%ADD16C,0.100000*%
%TD*%
G04 APERTURE END LIST*
D10*
%TO.P,J10,2*%
%TO.N,GND*%
X139830000Y-83600000D03*
D11*
%TO.P,J10,1*%
%TO.N,VCC*%
X141100000Y-83600000D03*
%TD*%
D12*
%TO.P,J9,16*%
%TO.N,TRIG7*%
X144890000Y-121300000D03*
%TO.P,J9,15*%
%TO.N,GND*%
X144890000Y-117400000D03*
%TO.P,J9,14*%
%TO.N,TRIG6*%
X143620000Y-121300000D03*
%TO.P,J9,13*%
%TO.N,GND*%
X143620000Y-117400000D03*
%TO.P,J9,12*%
%TO.N,TRIG5*%
X142350000Y-121300000D03*
%TO.P,J9,11*%
%TO.N,GND*%
X142350000Y-117400000D03*
%TO.P,J9,10*%
%TO.N,TRIG4*%
X141080000Y-121300000D03*
%TO.P,J9,9*%
%TO.N,GND*%
X141080000Y-117400000D03*
%TO.P,J9,8*%
%TO.N,TRIG3*%
X139810000Y-121300000D03*
%TO.P,J9,7*%
%TO.N,GND*%
X139810000Y-117400000D03*
%TO.P,J9,6*%
%TO.N,TRIG2*%
X138540000Y-121300000D03*
%TO.P,J9,5*%
%TO.N,GND*%
X138540000Y-117400000D03*
%TO.P,J9,4*%
%TO.N,TRIG1*%
X137270000Y-121300000D03*
%TO.P,J9,3*%
%TO.N,GND*%
X137270000Y-117400000D03*
%TO.P,J9,2*%
%TO.N,TRIG0*%
X136000000Y-121300000D03*
%TO.P,J9,1*%
%TO.N,GND*%
X136000000Y-117400000D03*
%TD*%
D13*
%TO.N,GND*%
X126300000Y-103900000D03*
X160500000Y-96300000D03*
X128000000Y-87000000D03*
X118800000Y-104900000D03*
X145800000Y-117100000D03*
X153300000Y-106900000D03*
X123000000Y-118300000D03*
X156100000Y-120600000D03*
X140100000Y-116200000D03*
X138500000Y-119300000D03*
X140650000Y-119250000D03*
X121600000Y-114300000D03*
X123700000Y-115800000D03*
X128400000Y-122200000D03*
X130500000Y-124200000D03*
X141800000Y-126800000D03*
X140500000Y-126700000D03*
X150200000Y-124700000D03*
X153800000Y-122300000D03*
X157800000Y-118500000D03*
X159200000Y-116300000D03*
X160700000Y-113300000D03*
X157500000Y-116500000D03*
X159500000Y-103700000D03*
X159600000Y-105800000D03*
X161600000Y-103800000D03*
X161700000Y-105900000D03*
X157500000Y-92300000D03*
X159900000Y-95200000D03*
X157500000Y-94700000D03*
X148900000Y-85100000D03*
X151900000Y-86600000D03*
X154600000Y-88400000D03*
X130600000Y-85700000D03*
X129700000Y-88000000D03*
X125500000Y-89300000D03*
X122800000Y-92300000D03*
X121100000Y-95300000D03*
X123000000Y-94100000D03*
X130200000Y-94200000D03*
X129400000Y-115300000D03*
X120300000Y-103800000D03*
X120400000Y-106000000D03*
X121900000Y-104800000D03*
%TO.N,TRIG1*%
X132200000Y-112600000D03*
%TO.N,TRIG3*%
X133000000Y-94700000D03*
%TO.N,TRIG5*%
X150900000Y-97500000D03*
%TO.N,TRIG7*%
X147200000Y-117000000D03*
%TO.N,TRIG0*%
X134200000Y-113900000D03*
%TO.N,TRIG2*%
X131800000Y-98100000D03*
%TO.N,TRIG4*%
X147800000Y-96600000D03*
%TO.N,TRIG6*%
X148400000Y-113000000D03*
%TO.N,VCC*%
X125400000Y-114400000D03*
X126700000Y-102900000D03*
X131300000Y-89600000D03*
X142000000Y-90700000D03*
X155700000Y-96400000D03*
X154800000Y-106900000D03*
X151200000Y-122600000D03*
X139001042Y-125801040D03*
%TD*%
D14*
%TO.N,TRIG1*%
X132200000Y-122100000D02*
X132200000Y-112600000D01*
X133500000Y-123400000D02*
X132200000Y-122100000D01*
X136700000Y-123400000D02*
X133500000Y-123400000D01*
X137300000Y-122800000D02*
X136700000Y-123400000D01*
X137300000Y-121500000D02*
X137300000Y-122800000D01*
%TO.N,TRIG3*%
X130600000Y-111000000D02*
X129100000Y-109500000D01*
X129100000Y-109500000D02*
X129100000Y-98600000D01*
X130600000Y-122500000D02*
X130600000Y-111000000D01*
X133100000Y-125000000D02*
X130600000Y-122500000D01*
X138300000Y-125000000D02*
X133100000Y-125000000D01*
X129100000Y-98600000D02*
X133000000Y-94700000D01*
X139800000Y-123500000D02*
X138300000Y-125000000D01*
X139800000Y-121300000D02*
X139800000Y-123500000D01*
%TO.N,TRIG5*%
X151300000Y-111200000D02*
X151300000Y-97900000D01*
X149900000Y-112600000D02*
X151300000Y-111200000D01*
X146764964Y-124200000D02*
X149900000Y-121064964D01*
X143100000Y-124200000D02*
X146764964Y-124200000D01*
X149900000Y-121064964D02*
X149900000Y-112600000D01*
X142300000Y-123400000D02*
X143100000Y-124200000D01*
X151300000Y-97900000D02*
X150900000Y-97500000D01*
X142300000Y-121600000D02*
X142300000Y-123400000D01*
%TO.N,TRIG7*%
X145700000Y-121800000D02*
X147200000Y-120300000D01*
X147200000Y-120300000D02*
X147200000Y-117000000D01*
X144900000Y-121800000D02*
X145700000Y-121800000D01*
%TO.N,TRIG0*%
X134400000Y-114100000D02*
X134200000Y-113900000D01*
X134400000Y-121100000D02*
X134400000Y-114100000D01*
X135100000Y-121800000D02*
X134400000Y-121100000D01*
X136000000Y-121800000D02*
X135100000Y-121800000D01*
%TO.N,TRIG2*%
X131400001Y-98499999D02*
X131800000Y-98100000D01*
X129800000Y-100100000D02*
X131400001Y-98499999D01*
X131300011Y-110700011D02*
X129800000Y-109200000D01*
X131300011Y-122200011D02*
X131300011Y-110700011D01*
X133300000Y-124200000D02*
X131300011Y-122200011D01*
X137200000Y-124200000D02*
X133300000Y-124200000D01*
X138400000Y-123000000D02*
X137200000Y-124200000D01*
X129800000Y-109200000D02*
X129800000Y-100100000D01*
X138400000Y-121300000D02*
X138400000Y-123000000D01*
%TO.N,TRIG4*%
X148100000Y-96300000D02*
X147800000Y-96600000D01*
X150958002Y-96300000D02*
X148100000Y-96300000D01*
X152200000Y-97541998D02*
X150958002Y-96300000D01*
X152200000Y-111289963D02*
X152200000Y-97541998D01*
X150900000Y-112589963D02*
X152200000Y-111289963D01*
X150900000Y-121100000D02*
X150900000Y-112589963D01*
X146900000Y-125100000D02*
X150900000Y-121100000D01*
X142500000Y-125100000D02*
X146900000Y-125100000D01*
X141000000Y-123600000D02*
X142500000Y-125100000D01*
X141000000Y-121500000D02*
X141000000Y-123600000D01*
%TO.N,TRIG6*%
X146575002Y-123400000D02*
X148400000Y-121575002D01*
X144000000Y-123400000D02*
X146575002Y-123400000D01*
X148400000Y-121575002D02*
X148400000Y-113000000D01*
X143600000Y-123000000D02*
X144000000Y-123400000D01*
X143600000Y-121800000D02*
X143600000Y-123000000D01*
X143500000Y-121700000D02*
X143600000Y-121800000D01*
%TD*%
D15*
%TO.N,GND*%
X138815790Y-83090471D02*
X138735874Y-83298124D01*
X138860871Y-83473000D01*
X139703000Y-83473000D01*
X139703000Y-83453000D01*
X139957000Y-83453000D01*
X139957000Y-83473000D01*
X139961928Y-83473000D01*
X139961928Y-83727000D01*
X139957000Y-83727000D01*
X139957000Y-84567954D01*
X140131874Y-84694119D01*
X140186864Y-84677446D01*
X140266820Y-84641930D01*
X140355820Y-84689502D01*
X140475518Y-84725812D01*
X140600000Y-84738072D01*
X141600000Y-84738072D01*
X141724482Y-84725812D01*
X141844180Y-84689502D01*
X141954494Y-84630537D01*
X142051185Y-84551185D01*
X142130537Y-84454494D01*
X142189502Y-84344180D01*
X142225812Y-84224482D01*
X142238072Y-84100000D01*
X142238072Y-83100000D01*
X142225812Y-82975518D01*
X142211146Y-82927169D01*
X142871987Y-82968746D01*
X144716706Y-83241150D01*
X146532161Y-83666961D01*
X148305617Y-84243192D01*
X150024637Y-84965802D01*
X151677161Y-85829720D01*
X153251598Y-86828889D01*
X154736905Y-87956298D01*
X156122665Y-89204042D01*
X157399155Y-90563366D01*
X158557424Y-92024737D01*
X159589345Y-93577904D01*
X160487682Y-95211973D01*
X161246134Y-96915482D01*
X161859379Y-98676482D01*
X162323116Y-100482621D01*
X162634094Y-102321231D01*
X162790130Y-104179414D01*
X162790130Y-106044136D01*
X162634094Y-107902319D01*
X162323116Y-109740929D01*
X161859379Y-111547068D01*
X161246134Y-113308068D01*
X160487682Y-115011577D01*
X159589345Y-116645646D01*
X158557424Y-118198813D01*
X157399155Y-119660184D01*
X156122665Y-121019508D01*
X154736905Y-122267252D01*
X153251598Y-123394661D01*
X151677161Y-124393830D01*
X150024637Y-125257748D01*
X148305617Y-125980358D01*
X146532161Y-126556589D01*
X144716706Y-126982400D01*
X142871987Y-127254804D01*
X141010944Y-127371891D01*
X139146630Y-127332839D01*
X137292123Y-127137923D01*
X135460429Y-126788508D01*
X133664398Y-126287047D01*
X131916627Y-125637057D01*
X130229375Y-124843097D01*
X128614478Y-123910735D01*
X127083262Y-122846513D01*
X125646469Y-121657894D01*
X124314175Y-120353216D01*
X123095727Y-118941630D01*
X122630479Y-118301271D01*
X124616692Y-118301271D01*
X124616692Y-118792337D01*
X124712495Y-119273968D01*
X124900417Y-119727654D01*
X125173239Y-120135960D01*
X125520476Y-120483197D01*
X125928782Y-120756019D01*
X126382468Y-120943941D01*
X126864099Y-121039744D01*
X127355165Y-121039744D01*
X127836796Y-120943941D01*
X128290482Y-120756019D01*
X128698788Y-120483197D01*
X129046025Y-120135960D01*
X129318847Y-119727654D01*
X129506769Y-119273968D01*
X129602572Y-118792337D01*
X129602572Y-118301271D01*
X129506769Y-117819640D01*
X129318847Y-117365954D01*
X129046025Y-116957648D01*
X128698788Y-116610411D01*
X128290482Y-116337589D01*
X127836796Y-116149667D01*
X127355165Y-116053864D01*
X126864099Y-116053864D01*
X126382468Y-116149667D01*
X125928782Y-116337589D01*
X125520476Y-116610411D01*
X125173239Y-116957648D01*
X124900417Y-117365954D01*
X124712495Y-117819640D01*
X124616692Y-118301271D01*
X122630479Y-118301271D01*
X121999670Y-117433037D01*
X121033694Y-115838020D01*
X120269252Y-114298061D01*
X124365000Y-114298061D01*
X124365000Y-114501939D01*
X124404774Y-114701898D01*
X124482795Y-114890256D01*
X124596063Y-115059774D01*
X124740226Y-115203937D01*
X124909744Y-115317205D01*
X125098102Y-115395226D01*
X125298061Y-115435000D01*
X125501939Y-115435000D01*
X125701898Y-115395226D01*
X125890256Y-115317205D01*
X126059774Y-115203937D01*
X126203937Y-115059774D01*
X126317205Y-114890256D01*
X126395226Y-114701898D01*
X126435000Y-114501939D01*
X126435000Y-114298061D01*
X126395226Y-114098102D01*
X126317205Y-113909744D01*
X126203937Y-113740226D01*
X126059774Y-113596063D01*
X125890256Y-113482795D01*
X125701898Y-113404774D01*
X125501939Y-113365000D01*
X125298061Y-113365000D01*
X125098102Y-113404774D01*
X124909744Y-113482795D01*
X124740226Y-113596063D01*
X124596063Y-113740226D01*
X124482795Y-113909744D01*
X124404774Y-114098102D01*
X124365000Y-114298061D01*
X120269252Y-114298061D01*
X120204572Y-114167766D01*
X119518122Y-112433991D01*
X118979158Y-110648855D01*
X118591460Y-108824881D01*
X118357748Y-106974862D01*
X118279662Y-105111775D01*
X118357748Y-103248688D01*
X118414675Y-102798061D01*
X125665000Y-102798061D01*
X125665000Y-103001939D01*
X125704774Y-103201898D01*
X125782795Y-103390256D01*
X125896063Y-103559774D01*
X126040226Y-103703937D01*
X126209744Y-103817205D01*
X126398102Y-103895226D01*
X126598061Y-103935000D01*
X126801939Y-103935000D01*
X127001898Y-103895226D01*
X127190256Y-103817205D01*
X127359774Y-103703937D01*
X127503937Y-103559774D01*
X127617205Y-103390256D01*
X127695226Y-103201898D01*
X127735000Y-103001939D01*
X127735000Y-102798061D01*
X127695226Y-102598102D01*
X127617205Y-102409744D01*
X127503937Y-102240226D01*
X127359774Y-102096063D01*
X127190256Y-101982795D01*
X127001898Y-101904774D01*
X126801939Y-101865000D01*
X126598061Y-101865000D01*
X126398102Y-101904774D01*
X126209744Y-101982795D01*
X126040226Y-102096063D01*
X125896063Y-102240226D01*
X125782795Y-102409744D01*
X125704774Y-102598102D01*
X125665000Y-102798061D01*
X118414675Y-102798061D01*
X118591460Y-101398669D01*
X118979158Y-99574695D01*
X119273435Y-98600000D01*
X128210719Y-98600000D01*
X128215001Y-98643479D01*
X128215000Y-109456531D01*
X128210719Y-109500000D01*
X128215000Y-109543469D01*
X128215000Y-109543476D01*
X128226212Y-109657314D01*
X128227805Y-109673490D01*
X128234045Y-109694059D01*
X128278411Y-109840312D01*
X128360589Y-109994058D01*
X128471183Y-110128817D01*
X128504956Y-110156534D01*
X129715001Y-111366580D01*
X129715000Y-122456531D01*
X129710719Y-122500000D01*
X129715000Y-122543469D01*
X129715000Y-122543476D01*
X129722978Y-122624482D01*
X129727805Y-122673490D01*
X129734048Y-122694069D01*
X129778411Y-122840312D01*
X129860589Y-122994058D01*
X129971183Y-123128817D01*
X130004956Y-123156534D01*
X132443470Y-125595049D01*
X132471183Y-125628817D01*
X132504951Y-125656530D01*
X132504953Y-125656532D01*
X132593032Y-125728817D01*
X132605941Y-125739411D01*
X132759687Y-125821589D01*
X132926510Y-125872195D01*
X133056523Y-125885000D01*
X133056531Y-125885000D01*
X133100000Y-125889281D01*
X133143469Y-125885000D01*
X137966042Y-125885000D01*
X137966042Y-125902979D01*
X138005816Y-126102938D01*
X138083837Y-126291296D01*
X138197105Y-126460814D01*
X138341268Y-126604977D01*
X138510786Y-126718245D01*
X138699144Y-126796266D01*
X138899103Y-126836040D01*
X139102981Y-126836040D01*
X139302940Y-126796266D01*
X139491298Y-126718245D01*
X139660816Y-126604977D01*
X139804979Y-126460814D01*
X139918247Y-126291296D01*
X139996268Y-126102938D01*
X140036042Y-125902979D01*
X140036042Y-125699101D01*
X139996268Y-125499142D01*
X139918247Y-125310784D01*
X139804979Y-125141266D01*
X139660816Y-124997103D01*
X139597069Y-124954509D01*
X140349357Y-124202221D01*
X140371184Y-124228817D01*
X140404951Y-124256529D01*
X141843470Y-125695049D01*
X141871183Y-125728817D01*
X141904951Y-125756530D01*
X141904953Y-125756532D01*
X141976452Y-125815210D01*
X142005941Y-125839411D01*
X142159687Y-125921589D01*
X142326510Y-125972195D01*
X142456523Y-125985000D01*
X142456533Y-125985000D01*
X142499999Y-125989281D01*
X142543465Y-125985000D01*
X146856531Y-125985000D01*
X146900000Y-125989281D01*
X146943469Y-125985000D01*
X146943477Y-125985000D01*
X147073490Y-125972195D01*
X147240313Y-125921589D01*
X147394059Y-125839411D01*
X147528817Y-125728817D01*
X147556534Y-125695044D01*
X150247216Y-123004362D01*
X150282795Y-123090256D01*
X150396063Y-123259774D01*
X150540226Y-123403937D01*
X150709744Y-123517205D01*
X150898102Y-123595226D01*
X151098061Y-123635000D01*
X151301939Y-123635000D01*
X151501898Y-123595226D01*
X151690256Y-123517205D01*
X151859774Y-123403937D01*
X152003937Y-123259774D01*
X152117205Y-123090256D01*
X152195226Y-122901898D01*
X152235000Y-122701939D01*
X152235000Y-122498061D01*
X152195226Y-122298102D01*
X152117205Y-122109744D01*
X152003937Y-121940226D01*
X151859774Y-121796063D01*
X151690256Y-121682795D01*
X151597961Y-121644565D01*
X151639410Y-121594060D01*
X151639411Y-121594059D01*
X151721589Y-121440313D01*
X151772195Y-121273490D01*
X151785000Y-121143477D01*
X151785000Y-121143467D01*
X151789281Y-121100001D01*
X151785000Y-121056535D01*
X151785000Y-119749386D01*
X152043300Y-120135959D01*
X152390535Y-120483194D01*
X152798842Y-120756016D01*
X153252527Y-120943939D01*
X153734157Y-121039741D01*
X154225223Y-121039741D01*
X154706853Y-120943939D01*
X155160538Y-120756016D01*
X155568845Y-120483194D01*
X155916080Y-120135959D01*
X156188902Y-119727652D01*
X156376825Y-119273967D01*
X156472627Y-118792337D01*
X156472627Y-118301271D01*
X156376825Y-117819641D01*
X156188902Y-117365956D01*
X155916080Y-116957649D01*
X155568845Y-116610414D01*
X155160538Y-116337592D01*
X154706853Y-116149669D01*
X154225223Y-116053867D01*
X153734157Y-116053867D01*
X153252527Y-116149669D01*
X152798842Y-116337592D01*
X152390535Y-116610414D01*
X152043300Y-116957649D01*
X151785000Y-117344222D01*
X151785000Y-112956541D01*
X152795050Y-111946492D01*
X152828817Y-111918780D01*
X152867050Y-111872194D01*
X152939411Y-111784022D01*
X153021589Y-111630277D01*
X153072195Y-111463453D01*
X153081055Y-111373490D01*
X153085000Y-111333440D01*
X153085000Y-111333432D01*
X153089281Y-111289963D01*
X153085000Y-111246494D01*
X153085000Y-106798061D01*
X153765000Y-106798061D01*
X153765000Y-107001939D01*
X153804774Y-107201898D01*
X153882795Y-107390256D01*
X153996063Y-107559774D01*
X154140226Y-107703937D01*
X154309744Y-107817205D01*
X154498102Y-107895226D01*
X154698061Y-107935000D01*
X154901939Y-107935000D01*
X155101898Y-107895226D01*
X155290256Y-107817205D01*
X155459774Y-107703937D01*
X155603937Y-107559774D01*
X155717205Y-107390256D01*
X155795226Y-107201898D01*
X155835000Y-107001939D01*
X155835000Y-106798061D01*
X155795226Y-106598102D01*
X155717205Y-106409744D01*
X155603937Y-106240226D01*
X155459774Y-106096063D01*
X155290256Y-105982795D01*
X155101898Y-105904774D01*
X154901939Y-105865000D01*
X154698061Y-105865000D01*
X154498102Y-105904774D01*
X154309744Y-105982795D01*
X154140226Y-106096063D01*
X153996063Y-106240226D01*
X153882795Y-106409744D01*
X153804774Y-106598102D01*
X153765000Y-106798061D01*
X153085000Y-106798061D01*
X153085000Y-97585463D01*
X153089281Y-97541997D01*
X153085000Y-97498531D01*
X153085000Y-97498521D01*
X153072195Y-97368508D01*
X153021589Y-97201685D01*
X152939411Y-97047939D01*
X152828817Y-96913181D01*
X152795049Y-96885468D01*
X152207642Y-96298061D01*
X154665000Y-96298061D01*
X154665000Y-96501939D01*
X154704774Y-96701898D01*
X154782795Y-96890256D01*
X154896063Y-97059774D01*
X155040226Y-97203937D01*
X155209744Y-97317205D01*
X155398102Y-97395226D01*
X155598061Y-97435000D01*
X155801939Y-97435000D01*
X156001898Y-97395226D01*
X156190256Y-97317205D01*
X156359774Y-97203937D01*
X156503937Y-97059774D01*
X156617205Y-96890256D01*
X156695226Y-96701898D01*
X156735000Y-96501939D01*
X156735000Y-96298061D01*
X156695226Y-96098102D01*
X156617205Y-95909744D01*
X156503937Y-95740226D01*
X156359774Y-95596063D01*
X156190256Y-95482795D01*
X156001898Y-95404774D01*
X155801939Y-95365000D01*
X155598061Y-95365000D01*
X155398102Y-95404774D01*
X155209744Y-95482795D01*
X155040226Y-95596063D01*
X154896063Y-95740226D01*
X154782795Y-95909744D01*
X154704774Y-96098102D01*
X154665000Y-96298061D01*
X152207642Y-96298061D01*
X151614536Y-95704956D01*
X151586819Y-95671183D01*
X151452061Y-95560589D01*
X151298315Y-95478411D01*
X151131492Y-95427805D01*
X151001479Y-95415000D01*
X151001471Y-95415000D01*
X150958002Y-95410719D01*
X150914533Y-95415000D01*
X148143466Y-95415000D01*
X148099999Y-95410719D01*
X148056533Y-95415000D01*
X148056523Y-95415000D01*
X147926510Y-95427805D01*
X147759687Y-95478411D01*
X147605941Y-95560589D01*
X147569377Y-95590597D01*
X147498102Y-95604774D01*
X147309744Y-95682795D01*
X147140226Y-95796063D01*
X146996063Y-95940226D01*
X146882795Y-96109744D01*
X146804774Y-96298102D01*
X146791765Y-96363503D01*
X145725921Y-95687098D01*
X144503840Y-95112030D01*
X143219320Y-94694664D01*
X141892620Y-94441582D01*
X140544661Y-94356776D01*
X139196702Y-94441582D01*
X137870002Y-94694664D01*
X136585482Y-95112030D01*
X135363401Y-95687098D01*
X134223031Y-96410798D01*
X133182358Y-97271718D01*
X132762421Y-97718905D01*
X132717205Y-97609744D01*
X132603937Y-97440226D01*
X132459774Y-97296063D01*
X132290256Y-97182795D01*
X132101898Y-97104774D01*
X131901939Y-97065000D01*
X131886579Y-97065000D01*
X133245044Y-95706535D01*
X133301898Y-95695226D01*
X133490256Y-95617205D01*
X133659774Y-95503937D01*
X133803937Y-95359774D01*
X133917205Y-95190256D01*
X133995226Y-95001898D01*
X134035000Y-94801939D01*
X134035000Y-94598061D01*
X133995226Y-94398102D01*
X133917205Y-94209744D01*
X133803937Y-94040226D01*
X133659774Y-93896063D01*
X133490256Y-93782795D01*
X133301898Y-93704774D01*
X133101939Y-93665000D01*
X132898061Y-93665000D01*
X132698102Y-93704774D01*
X132509744Y-93782795D01*
X132340226Y-93896063D01*
X132196063Y-94040226D01*
X132082795Y-94209744D01*
X132004774Y-94398102D01*
X131993465Y-94454956D01*
X128504951Y-97943470D01*
X128471184Y-97971183D01*
X128443471Y-98004951D01*
X128443468Y-98004954D01*
X128360590Y-98105941D01*
X128278412Y-98259687D01*
X128227805Y-98426510D01*
X128210719Y-98600000D01*
X119273435Y-98600000D01*
X119518122Y-97789559D01*
X120204572Y-96055784D01*
X121033694Y-94385530D01*
X121999670Y-92790513D01*
X122987259Y-91431213D01*
X124616695Y-91431213D01*
X124616695Y-91922279D01*
X124712497Y-92403909D01*
X124900420Y-92857594D01*
X125173242Y-93265901D01*
X125520477Y-93613136D01*
X125928784Y-93885958D01*
X126382469Y-94073881D01*
X126864099Y-94169683D01*
X127355165Y-94169683D01*
X127836795Y-94073881D01*
X128290480Y-93885958D01*
X128698787Y-93613136D01*
X129046022Y-93265901D01*
X129318844Y-92857594D01*
X129506767Y-92403909D01*
X129602569Y-91922279D01*
X129602569Y-91431213D01*
X129506767Y-90949583D01*
X129318844Y-90495898D01*
X129046022Y-90087591D01*
X128698787Y-89740356D01*
X128336167Y-89498061D01*
X130265000Y-89498061D01*
X130265000Y-89701939D01*
X130304774Y-89901898D01*
X130382795Y-90090256D01*
X130496063Y-90259774D01*
X130640226Y-90403937D01*
X130809744Y-90517205D01*
X130998102Y-90595226D01*
X131198061Y-90635000D01*
X131401939Y-90635000D01*
X131587645Y-90598061D01*
X140965000Y-90598061D01*
X140965000Y-90801939D01*
X141004774Y-91001898D01*
X141082795Y-91190256D01*
X141196063Y-91359774D01*
X141340226Y-91503937D01*
X141509744Y-91617205D01*
X141698102Y-91695226D01*
X141898061Y-91735000D01*
X142101939Y-91735000D01*
X142301898Y-91695226D01*
X142490256Y-91617205D01*
X142659774Y-91503937D01*
X142732498Y-91431213D01*
X151486752Y-91431213D01*
X151486752Y-91922279D01*
X151582554Y-92403909D01*
X151770477Y-92857595D01*
X152043299Y-93265901D01*
X152390535Y-93613137D01*
X152798841Y-93885959D01*
X153252527Y-94073882D01*
X153734157Y-94169684D01*
X154225223Y-94169684D01*
X154706853Y-94073882D01*
X155160539Y-93885959D01*
X155568845Y-93613137D01*
X155916081Y-93265901D01*
X156188903Y-92857595D01*
X156376826Y-92403909D01*
X156472628Y-91922279D01*
X156472628Y-91431213D01*
X156376826Y-90949583D01*
X156188903Y-90495897D01*
X155916081Y-90087591D01*
X155568845Y-89740355D01*
X155160539Y-89467533D01*
X154706853Y-89279610D01*
X154225223Y-89183808D01*
X153734157Y-89183808D01*
X153252527Y-89279610D01*
X152798841Y-89467533D01*
X152390535Y-89740355D01*
X152043299Y-90087591D01*
X151770477Y-90495897D01*
X151582554Y-90949583D01*
X151486752Y-91431213D01*
X142732498Y-91431213D01*
X142803937Y-91359774D01*
X142917205Y-91190256D01*
X142995226Y-91001898D01*
X143035000Y-90801939D01*
X143035000Y-90598061D01*
X142995226Y-90398102D01*
X142917205Y-90209744D01*
X142803937Y-90040226D01*
X142659774Y-89896063D01*
X142490256Y-89782795D01*
X142301898Y-89704774D01*
X142101939Y-89665000D01*
X141898061Y-89665000D01*
X141698102Y-89704774D01*
X141509744Y-89782795D01*
X141340226Y-89896063D01*
X141196063Y-90040226D01*
X141082795Y-90209744D01*
X141004774Y-90398102D01*
X140965000Y-90598061D01*
X131587645Y-90598061D01*
X131601898Y-90595226D01*
X131790256Y-90517205D01*
X131959774Y-90403937D01*
X132103937Y-90259774D01*
X132217205Y-90090256D01*
X132295226Y-89901898D01*
X132335000Y-89701939D01*
X132335000Y-89498061D01*
X132295226Y-89298102D01*
X132217205Y-89109744D01*
X132103937Y-88940226D01*
X131959774Y-88796063D01*
X131790256Y-88682795D01*
X131601898Y-88604774D01*
X131401939Y-88565000D01*
X131198061Y-88565000D01*
X130998102Y-88604774D01*
X130809744Y-88682795D01*
X130640226Y-88796063D01*
X130496063Y-88940226D01*
X130382795Y-89109744D01*
X130304774Y-89298102D01*
X130265000Y-89498061D01*
X128336167Y-89498061D01*
X128290480Y-89467534D01*
X127836795Y-89279611D01*
X127355165Y-89183809D01*
X126864099Y-89183809D01*
X126382469Y-89279611D01*
X125928784Y-89467534D01*
X125520477Y-89740356D01*
X125173242Y-90087591D01*
X124900420Y-90495898D01*
X124712497Y-90949583D01*
X124616695Y-91431213D01*
X122987259Y-91431213D01*
X123095727Y-91281920D01*
X124314175Y-89870334D01*
X125646469Y-88565656D01*
X127083262Y-87377037D01*
X128614478Y-86312815D01*
X130229375Y-85380453D01*
X131916627Y-84586493D01*
X133664398Y-83936503D01*
X133788417Y-83901876D01*
X138735874Y-83901876D01*
X138815790Y-84109529D01*
X138934682Y-84297601D01*
X139087980Y-84458865D01*
X139269794Y-84587123D01*
X139473136Y-84677446D01*
X139528126Y-84694119D01*
X139703000Y-84567954D01*
X139703000Y-83727000D01*
X138860871Y-83727000D01*
X138735874Y-83901876D01*
X133788417Y-83901876D01*
X135460429Y-83435042D01*
X137292123Y-83085627D01*
X138927512Y-82913741D01*
X138815790Y-83090471D01*
%TA.AperFunction,Conductor*%
D16*
G36*
X138815790Y-83090471D02*
G01*
X138735874Y-83298124D01*
X138860871Y-83473000D01*
X139703000Y-83473000D01*
X139703000Y-83453000D01*
X139957000Y-83453000D01*
X139957000Y-83473000D01*
X139961928Y-83473000D01*
X139961928Y-83727000D01*
X139957000Y-83727000D01*
X139957000Y-84567954D01*
X140131874Y-84694119D01*
X140186864Y-84677446D01*
X140266820Y-84641930D01*
X140355820Y-84689502D01*
X140475518Y-84725812D01*
X140600000Y-84738072D01*
X141600000Y-84738072D01*
X141724482Y-84725812D01*
X141844180Y-84689502D01*
X141954494Y-84630537D01*
X142051185Y-84551185D01*
X142130537Y-84454494D01*
X142189502Y-84344180D01*
X142225812Y-84224482D01*
X142238072Y-84100000D01*
X142238072Y-83100000D01*
X142225812Y-82975518D01*
X142211146Y-82927169D01*
X142871987Y-82968746D01*
X144716706Y-83241150D01*
X146532161Y-83666961D01*
X148305617Y-84243192D01*
X150024637Y-84965802D01*
X151677161Y-85829720D01*
X153251598Y-86828889D01*
X154736905Y-87956298D01*
X156122665Y-89204042D01*
X157399155Y-90563366D01*
X158557424Y-92024737D01*
X159589345Y-93577904D01*
X160487682Y-95211973D01*
X161246134Y-96915482D01*
X161859379Y-98676482D01*
X162323116Y-100482621D01*
X162634094Y-102321231D01*
X162790130Y-104179414D01*
X162790130Y-106044136D01*
X162634094Y-107902319D01*
X162323116Y-109740929D01*
X161859379Y-111547068D01*
X161246134Y-113308068D01*
X160487682Y-115011577D01*
X159589345Y-116645646D01*
X158557424Y-118198813D01*
X157399155Y-119660184D01*
X156122665Y-121019508D01*
X154736905Y-122267252D01*
X153251598Y-123394661D01*
X151677161Y-124393830D01*
X150024637Y-125257748D01*
X148305617Y-125980358D01*
X146532161Y-126556589D01*
X144716706Y-126982400D01*
X142871987Y-127254804D01*
X141010944Y-127371891D01*
X139146630Y-127332839D01*
X137292123Y-127137923D01*
X135460429Y-126788508D01*
X133664398Y-126287047D01*
X131916627Y-125637057D01*
X130229375Y-124843097D01*
X128614478Y-123910735D01*
X127083262Y-122846513D01*
X125646469Y-121657894D01*
X124314175Y-120353216D01*
X123095727Y-118941630D01*
X122630479Y-118301271D01*
X124616692Y-118301271D01*
X124616692Y-118792337D01*
X124712495Y-119273968D01*
X124900417Y-119727654D01*
X125173239Y-120135960D01*
X125520476Y-120483197D01*
X125928782Y-120756019D01*
X126382468Y-120943941D01*
X126864099Y-121039744D01*
X127355165Y-121039744D01*
X127836796Y-120943941D01*
X128290482Y-120756019D01*
X128698788Y-120483197D01*
X129046025Y-120135960D01*
X129318847Y-119727654D01*
X129506769Y-119273968D01*
X129602572Y-118792337D01*
X129602572Y-118301271D01*
X129506769Y-117819640D01*
X129318847Y-117365954D01*
X129046025Y-116957648D01*
X128698788Y-116610411D01*
X128290482Y-116337589D01*
X127836796Y-116149667D01*
X127355165Y-116053864D01*
X126864099Y-116053864D01*
X126382468Y-116149667D01*
X125928782Y-116337589D01*
X125520476Y-116610411D01*
X125173239Y-116957648D01*
X124900417Y-117365954D01*
X124712495Y-117819640D01*
X124616692Y-118301271D01*
X122630479Y-118301271D01*
X121999670Y-117433037D01*
X121033694Y-115838020D01*
X120269252Y-114298061D01*
X124365000Y-114298061D01*
X124365000Y-114501939D01*
X124404774Y-114701898D01*
X124482795Y-114890256D01*
X124596063Y-115059774D01*
X124740226Y-115203937D01*
X124909744Y-115317205D01*
X125098102Y-115395226D01*
X125298061Y-115435000D01*
X125501939Y-115435000D01*
X125701898Y-115395226D01*
X125890256Y-115317205D01*
X126059774Y-115203937D01*
X126203937Y-115059774D01*
X126317205Y-114890256D01*
X126395226Y-114701898D01*
X126435000Y-114501939D01*
X126435000Y-114298061D01*
X126395226Y-114098102D01*
X126317205Y-113909744D01*
X126203937Y-113740226D01*
X126059774Y-113596063D01*
X125890256Y-113482795D01*
X125701898Y-113404774D01*
X125501939Y-113365000D01*
X125298061Y-113365000D01*
X125098102Y-113404774D01*
X124909744Y-113482795D01*
X124740226Y-113596063D01*
X124596063Y-113740226D01*
X124482795Y-113909744D01*
X124404774Y-114098102D01*
X124365000Y-114298061D01*
X120269252Y-114298061D01*
X120204572Y-114167766D01*
X119518122Y-112433991D01*
X118979158Y-110648855D01*
X118591460Y-108824881D01*
X118357748Y-106974862D01*
X118279662Y-105111775D01*
X118357748Y-103248688D01*
X118414675Y-102798061D01*
X125665000Y-102798061D01*
X125665000Y-103001939D01*
X125704774Y-103201898D01*
X125782795Y-103390256D01*
X125896063Y-103559774D01*
X126040226Y-103703937D01*
X126209744Y-103817205D01*
X126398102Y-103895226D01*
X126598061Y-103935000D01*
X126801939Y-103935000D01*
X127001898Y-103895226D01*
X127190256Y-103817205D01*
X127359774Y-103703937D01*
X127503937Y-103559774D01*
X127617205Y-103390256D01*
X127695226Y-103201898D01*
X127735000Y-103001939D01*
X127735000Y-102798061D01*
X127695226Y-102598102D01*
X127617205Y-102409744D01*
X127503937Y-102240226D01*
X127359774Y-102096063D01*
X127190256Y-101982795D01*
X127001898Y-101904774D01*
X126801939Y-101865000D01*
X126598061Y-101865000D01*
X126398102Y-101904774D01*
X126209744Y-101982795D01*
X126040226Y-102096063D01*
X125896063Y-102240226D01*
X125782795Y-102409744D01*
X125704774Y-102598102D01*
X125665000Y-102798061D01*
X118414675Y-102798061D01*
X118591460Y-101398669D01*
X118979158Y-99574695D01*
X119273435Y-98600000D01*
X128210719Y-98600000D01*
X128215001Y-98643479D01*
X128215000Y-109456531D01*
X128210719Y-109500000D01*
X128215000Y-109543469D01*
X128215000Y-109543476D01*
X128226212Y-109657314D01*
X128227805Y-109673490D01*
X128234045Y-109694059D01*
X128278411Y-109840312D01*
X128360589Y-109994058D01*
X128471183Y-110128817D01*
X128504956Y-110156534D01*
X129715001Y-111366580D01*
X129715000Y-122456531D01*
X129710719Y-122500000D01*
X129715000Y-122543469D01*
X129715000Y-122543476D01*
X129722978Y-122624482D01*
X129727805Y-122673490D01*
X129734048Y-122694069D01*
X129778411Y-122840312D01*
X129860589Y-122994058D01*
X129971183Y-123128817D01*
X130004956Y-123156534D01*
X132443470Y-125595049D01*
X132471183Y-125628817D01*
X132504951Y-125656530D01*
X132504953Y-125656532D01*
X132593032Y-125728817D01*
X132605941Y-125739411D01*
X132759687Y-125821589D01*
X132926510Y-125872195D01*
X133056523Y-125885000D01*
X133056531Y-125885000D01*
X133100000Y-125889281D01*
X133143469Y-125885000D01*
X137966042Y-125885000D01*
X137966042Y-125902979D01*
X138005816Y-126102938D01*
X138083837Y-126291296D01*
X138197105Y-126460814D01*
X138341268Y-126604977D01*
X138510786Y-126718245D01*
X138699144Y-126796266D01*
X138899103Y-126836040D01*
X139102981Y-126836040D01*
X139302940Y-126796266D01*
X139491298Y-126718245D01*
X139660816Y-126604977D01*
X139804979Y-126460814D01*
X139918247Y-126291296D01*
X139996268Y-126102938D01*
X140036042Y-125902979D01*
X140036042Y-125699101D01*
X139996268Y-125499142D01*
X139918247Y-125310784D01*
X139804979Y-125141266D01*
X139660816Y-124997103D01*
X139597069Y-124954509D01*
X140349357Y-124202221D01*
X140371184Y-124228817D01*
X140404951Y-124256529D01*
X141843470Y-125695049D01*
X141871183Y-125728817D01*
X141904951Y-125756530D01*
X141904953Y-125756532D01*
X141976452Y-125815210D01*
X142005941Y-125839411D01*
X142159687Y-125921589D01*
X142326510Y-125972195D01*
X142456523Y-125985000D01*
X142456533Y-125985000D01*
X142499999Y-125989281D01*
X142543465Y-125985000D01*
X146856531Y-125985000D01*
X146900000Y-125989281D01*
X146943469Y-125985000D01*
X146943477Y-125985000D01*
X147073490Y-125972195D01*
X147240313Y-125921589D01*
X147394059Y-125839411D01*
X147528817Y-125728817D01*
X147556534Y-125695044D01*
X150247216Y-123004362D01*
X150282795Y-123090256D01*
X150396063Y-123259774D01*
X150540226Y-123403937D01*
X150709744Y-123517205D01*
X150898102Y-123595226D01*
X151098061Y-123635000D01*
X151301939Y-123635000D01*
X151501898Y-123595226D01*
X151690256Y-123517205D01*
X151859774Y-123403937D01*
X152003937Y-123259774D01*
X152117205Y-123090256D01*
X152195226Y-122901898D01*
X152235000Y-122701939D01*
X152235000Y-122498061D01*
X152195226Y-122298102D01*
X152117205Y-122109744D01*
X152003937Y-121940226D01*
X151859774Y-121796063D01*
X151690256Y-121682795D01*
X151597961Y-121644565D01*
X151639410Y-121594060D01*
X151639411Y-121594059D01*
X151721589Y-121440313D01*
X151772195Y-121273490D01*
X151785000Y-121143477D01*
X151785000Y-121143467D01*
X151789281Y-121100001D01*
X151785000Y-121056535D01*
X151785000Y-119749386D01*
X152043300Y-120135959D01*
X152390535Y-120483194D01*
X152798842Y-120756016D01*
X153252527Y-120943939D01*
X153734157Y-121039741D01*
X154225223Y-121039741D01*
X154706853Y-120943939D01*
X155160538Y-120756016D01*
X155568845Y-120483194D01*
X155916080Y-120135959D01*
X156188902Y-119727652D01*
X156376825Y-119273967D01*
X156472627Y-118792337D01*
X156472627Y-118301271D01*
X156376825Y-117819641D01*
X156188902Y-117365956D01*
X155916080Y-116957649D01*
X155568845Y-116610414D01*
X155160538Y-116337592D01*
X154706853Y-116149669D01*
X154225223Y-116053867D01*
X153734157Y-116053867D01*
X153252527Y-116149669D01*
X152798842Y-116337592D01*
X152390535Y-116610414D01*
X152043300Y-116957649D01*
X151785000Y-117344222D01*
X151785000Y-112956541D01*
X152795050Y-111946492D01*
X152828817Y-111918780D01*
X152867050Y-111872194D01*
X152939411Y-111784022D01*
X153021589Y-111630277D01*
X153072195Y-111463453D01*
X153081055Y-111373490D01*
X153085000Y-111333440D01*
X153085000Y-111333432D01*
X153089281Y-111289963D01*
X153085000Y-111246494D01*
X153085000Y-106798061D01*
X153765000Y-106798061D01*
X153765000Y-107001939D01*
X153804774Y-107201898D01*
X153882795Y-107390256D01*
X153996063Y-107559774D01*
X154140226Y-107703937D01*
X154309744Y-107817205D01*
X154498102Y-107895226D01*
X154698061Y-107935000D01*
X154901939Y-107935000D01*
X155101898Y-107895226D01*
X155290256Y-107817205D01*
X155459774Y-107703937D01*
X155603937Y-107559774D01*
X155717205Y-107390256D01*
X155795226Y-107201898D01*
X155835000Y-107001939D01*
X155835000Y-106798061D01*
X155795226Y-106598102D01*
X155717205Y-106409744D01*
X155603937Y-106240226D01*
X155459774Y-106096063D01*
X155290256Y-105982795D01*
X155101898Y-105904774D01*
X154901939Y-105865000D01*
X154698061Y-105865000D01*
X154498102Y-105904774D01*
X154309744Y-105982795D01*
X154140226Y-106096063D01*
X153996063Y-106240226D01*
X153882795Y-106409744D01*
X153804774Y-106598102D01*
X153765000Y-106798061D01*
X153085000Y-106798061D01*
X153085000Y-97585463D01*
X153089281Y-97541997D01*
X153085000Y-97498531D01*
X153085000Y-97498521D01*
X153072195Y-97368508D01*
X153021589Y-97201685D01*
X152939411Y-97047939D01*
X152828817Y-96913181D01*
X152795049Y-96885468D01*
X152207642Y-96298061D01*
X154665000Y-96298061D01*
X154665000Y-96501939D01*
X154704774Y-96701898D01*
X154782795Y-96890256D01*
X154896063Y-97059774D01*
X155040226Y-97203937D01*
X155209744Y-97317205D01*
X155398102Y-97395226D01*
X155598061Y-97435000D01*
X155801939Y-97435000D01*
X156001898Y-97395226D01*
X156190256Y-97317205D01*
X156359774Y-97203937D01*
X156503937Y-97059774D01*
X156617205Y-96890256D01*
X156695226Y-96701898D01*
X156735000Y-96501939D01*
X156735000Y-96298061D01*
X156695226Y-96098102D01*
X156617205Y-95909744D01*
X156503937Y-95740226D01*
X156359774Y-95596063D01*
X156190256Y-95482795D01*
X156001898Y-95404774D01*
X155801939Y-95365000D01*
X155598061Y-95365000D01*
X155398102Y-95404774D01*
X155209744Y-95482795D01*
X155040226Y-95596063D01*
X154896063Y-95740226D01*
X154782795Y-95909744D01*
X154704774Y-96098102D01*
X154665000Y-96298061D01*
X152207642Y-96298061D01*
X151614536Y-95704956D01*
X151586819Y-95671183D01*
X151452061Y-95560589D01*
X151298315Y-95478411D01*
X151131492Y-95427805D01*
X151001479Y-95415000D01*
X151001471Y-95415000D01*
X150958002Y-95410719D01*
X150914533Y-95415000D01*
X148143466Y-95415000D01*
X148099999Y-95410719D01*
X148056533Y-95415000D01*
X148056523Y-95415000D01*
X147926510Y-95427805D01*
X147759687Y-95478411D01*
X147605941Y-95560589D01*
X147569377Y-95590597D01*
X147498102Y-95604774D01*
X147309744Y-95682795D01*
X147140226Y-95796063D01*
X146996063Y-95940226D01*
X146882795Y-96109744D01*
X146804774Y-96298102D01*
X146791765Y-96363503D01*
X145725921Y-95687098D01*
X144503840Y-95112030D01*
X143219320Y-94694664D01*
X141892620Y-94441582D01*
X140544661Y-94356776D01*
X139196702Y-94441582D01*
X137870002Y-94694664D01*
X136585482Y-95112030D01*
X135363401Y-95687098D01*
X134223031Y-96410798D01*
X133182358Y-97271718D01*
X132762421Y-97718905D01*
X132717205Y-97609744D01*
X132603937Y-97440226D01*
X132459774Y-97296063D01*
X132290256Y-97182795D01*
X132101898Y-97104774D01*
X131901939Y-97065000D01*
X131886579Y-97065000D01*
X133245044Y-95706535D01*
X133301898Y-95695226D01*
X133490256Y-95617205D01*
X133659774Y-95503937D01*
X133803937Y-95359774D01*
X133917205Y-95190256D01*
X133995226Y-95001898D01*
X134035000Y-94801939D01*
X134035000Y-94598061D01*
X133995226Y-94398102D01*
X133917205Y-94209744D01*
X133803937Y-94040226D01*
X133659774Y-93896063D01*
X133490256Y-93782795D01*
X133301898Y-93704774D01*
X133101939Y-93665000D01*
X132898061Y-93665000D01*
X132698102Y-93704774D01*
X132509744Y-93782795D01*
X132340226Y-93896063D01*
X132196063Y-94040226D01*
X132082795Y-94209744D01*
X132004774Y-94398102D01*
X131993465Y-94454956D01*
X128504951Y-97943470D01*
X128471184Y-97971183D01*
X128443471Y-98004951D01*
X128443468Y-98004954D01*
X128360590Y-98105941D01*
X128278412Y-98259687D01*
X128227805Y-98426510D01*
X128210719Y-98600000D01*
X119273435Y-98600000D01*
X119518122Y-97789559D01*
X120204572Y-96055784D01*
X121033694Y-94385530D01*
X121999670Y-92790513D01*
X122987259Y-91431213D01*
X124616695Y-91431213D01*
X124616695Y-91922279D01*
X124712497Y-92403909D01*
X124900420Y-92857594D01*
X125173242Y-93265901D01*
X125520477Y-93613136D01*
X125928784Y-93885958D01*
X126382469Y-94073881D01*
X126864099Y-94169683D01*
X127355165Y-94169683D01*
X127836795Y-94073881D01*
X128290480Y-93885958D01*
X128698787Y-93613136D01*
X129046022Y-93265901D01*
X129318844Y-92857594D01*
X129506767Y-92403909D01*
X129602569Y-91922279D01*
X129602569Y-91431213D01*
X129506767Y-90949583D01*
X129318844Y-90495898D01*
X129046022Y-90087591D01*
X128698787Y-89740356D01*
X128336167Y-89498061D01*
X130265000Y-89498061D01*
X130265000Y-89701939D01*
X130304774Y-89901898D01*
X130382795Y-90090256D01*
X130496063Y-90259774D01*
X130640226Y-90403937D01*
X130809744Y-90517205D01*
X130998102Y-90595226D01*
X131198061Y-90635000D01*
X131401939Y-90635000D01*
X131587645Y-90598061D01*
X140965000Y-90598061D01*
X140965000Y-90801939D01*
X141004774Y-91001898D01*
X141082795Y-91190256D01*
X141196063Y-91359774D01*
X141340226Y-91503937D01*
X141509744Y-91617205D01*
X141698102Y-91695226D01*
X141898061Y-91735000D01*
X142101939Y-91735000D01*
X142301898Y-91695226D01*
X142490256Y-91617205D01*
X142659774Y-91503937D01*
X142732498Y-91431213D01*
X151486752Y-91431213D01*
X151486752Y-91922279D01*
X151582554Y-92403909D01*
X151770477Y-92857595D01*
X152043299Y-93265901D01*
X152390535Y-93613137D01*
X152798841Y-93885959D01*
X153252527Y-94073882D01*
X153734157Y-94169684D01*
X154225223Y-94169684D01*
X154706853Y-94073882D01*
X155160539Y-93885959D01*
X155568845Y-93613137D01*
X155916081Y-93265901D01*
X156188903Y-92857595D01*
X156376826Y-92403909D01*
X156472628Y-91922279D01*
X156472628Y-91431213D01*
X156376826Y-90949583D01*
X156188903Y-90495897D01*
X155916081Y-90087591D01*
X155568845Y-89740355D01*
X155160539Y-89467533D01*
X154706853Y-89279610D01*
X154225223Y-89183808D01*
X153734157Y-89183808D01*
X153252527Y-89279610D01*
X152798841Y-89467533D01*
X152390535Y-89740355D01*
X152043299Y-90087591D01*
X151770477Y-90495897D01*
X151582554Y-90949583D01*
X151486752Y-91431213D01*
X142732498Y-91431213D01*
X142803937Y-91359774D01*
X142917205Y-91190256D01*
X142995226Y-91001898D01*
X143035000Y-90801939D01*
X143035000Y-90598061D01*
X142995226Y-90398102D01*
X142917205Y-90209744D01*
X142803937Y-90040226D01*
X142659774Y-89896063D01*
X142490256Y-89782795D01*
X142301898Y-89704774D01*
X142101939Y-89665000D01*
X141898061Y-89665000D01*
X141698102Y-89704774D01*
X141509744Y-89782795D01*
X141340226Y-89896063D01*
X141196063Y-90040226D01*
X141082795Y-90209744D01*
X141004774Y-90398102D01*
X140965000Y-90598061D01*
X131587645Y-90598061D01*
X131601898Y-90595226D01*
X131790256Y-90517205D01*
X131959774Y-90403937D01*
X132103937Y-90259774D01*
X132217205Y-90090256D01*
X132295226Y-89901898D01*
X132335000Y-89701939D01*
X132335000Y-89498061D01*
X132295226Y-89298102D01*
X132217205Y-89109744D01*
X132103937Y-88940226D01*
X131959774Y-88796063D01*
X131790256Y-88682795D01*
X131601898Y-88604774D01*
X131401939Y-88565000D01*
X131198061Y-88565000D01*
X130998102Y-88604774D01*
X130809744Y-88682795D01*
X130640226Y-88796063D01*
X130496063Y-88940226D01*
X130382795Y-89109744D01*
X130304774Y-89298102D01*
X130265000Y-89498061D01*
X128336167Y-89498061D01*
X128290480Y-89467534D01*
X127836795Y-89279611D01*
X127355165Y-89183809D01*
X126864099Y-89183809D01*
X126382469Y-89279611D01*
X125928784Y-89467534D01*
X125520477Y-89740356D01*
X125173242Y-90087591D01*
X124900420Y-90495898D01*
X124712497Y-90949583D01*
X124616695Y-91431213D01*
X122987259Y-91431213D01*
X123095727Y-91281920D01*
X124314175Y-89870334D01*
X125646469Y-88565656D01*
X127083262Y-87377037D01*
X128614478Y-86312815D01*
X130229375Y-85380453D01*
X131916627Y-84586493D01*
X133664398Y-83936503D01*
X133788417Y-83901876D01*
X138735874Y-83901876D01*
X138815790Y-84109529D01*
X138934682Y-84297601D01*
X139087980Y-84458865D01*
X139269794Y-84587123D01*
X139473136Y-84677446D01*
X139528126Y-84694119D01*
X139703000Y-84567954D01*
X139703000Y-83727000D01*
X138860871Y-83727000D01*
X138735874Y-83901876D01*
X133788417Y-83901876D01*
X135460429Y-83435042D01*
X137292123Y-83085627D01*
X138927512Y-82913741D01*
X138815790Y-83090471D01*
G37*
%TD.AperFunction*%
D15*
X147482795Y-113490256D02*
X147515001Y-113538456D01*
X147515001Y-116010201D01*
X147501898Y-116004774D01*
X147301939Y-115965000D01*
X147098061Y-115965000D01*
X146898102Y-116004774D01*
X146709744Y-116082795D01*
X146540226Y-116196063D01*
X146396063Y-116340226D01*
X146282795Y-116509744D01*
X146204774Y-116698102D01*
X146165000Y-116898061D01*
X146165000Y-117101939D01*
X146204774Y-117301898D01*
X146282795Y-117490256D01*
X146315001Y-117538456D01*
X146315000Y-119933421D01*
X145898072Y-120350349D01*
X145898072Y-120100000D01*
X145885812Y-119975518D01*
X145849502Y-119855820D01*
X145790537Y-119745506D01*
X145711185Y-119648815D01*
X145614494Y-119569463D01*
X145504180Y-119510498D01*
X145384482Y-119474188D01*
X145260000Y-119461928D01*
X144520000Y-119461928D01*
X144395518Y-119474188D01*
X144275820Y-119510498D01*
X144255000Y-119521627D01*
X144234180Y-119510498D01*
X144114482Y-119474188D01*
X143990000Y-119461928D01*
X143250000Y-119461928D01*
X143125518Y-119474188D01*
X143005820Y-119510498D01*
X142985000Y-119521627D01*
X142964180Y-119510498D01*
X142844482Y-119474188D01*
X142720000Y-119461928D01*
X141980000Y-119461928D01*
X141855518Y-119474188D01*
X141735820Y-119510498D01*
X141715000Y-119521627D01*
X141694180Y-119510498D01*
X141574482Y-119474188D01*
X141450000Y-119461928D01*
X140710000Y-119461928D01*
X140585518Y-119474188D01*
X140465820Y-119510498D01*
X140445000Y-119521627D01*
X140424180Y-119510498D01*
X140304482Y-119474188D01*
X140180000Y-119461928D01*
X139440000Y-119461928D01*
X139315518Y-119474188D01*
X139195820Y-119510498D01*
X139175000Y-119521627D01*
X139154180Y-119510498D01*
X139034482Y-119474188D01*
X138910000Y-119461928D01*
X138170000Y-119461928D01*
X138045518Y-119474188D01*
X137925820Y-119510498D01*
X137905000Y-119521627D01*
X137884180Y-119510498D01*
X137764482Y-119474188D01*
X137640000Y-119461928D01*
X136900000Y-119461928D01*
X136775518Y-119474188D01*
X136655820Y-119510498D01*
X136635000Y-119521627D01*
X136614180Y-119510498D01*
X136494482Y-119474188D01*
X136370000Y-119461928D01*
X135630000Y-119461928D01*
X135505518Y-119474188D01*
X135385820Y-119510498D01*
X135285000Y-119564388D01*
X135285000Y-119135612D01*
X135385820Y-119189502D01*
X135505518Y-119225812D01*
X135630000Y-119238072D01*
X135714250Y-119235000D01*
X135873000Y-119076250D01*
X135873000Y-117527000D01*
X136127000Y-117527000D01*
X136127000Y-119076250D01*
X136285750Y-119235000D01*
X136370000Y-119238072D01*
X136494482Y-119225812D01*
X136614180Y-119189502D01*
X136635000Y-119178373D01*
X136655820Y-119189502D01*
X136775518Y-119225812D01*
X136900000Y-119238072D01*
X136984250Y-119235000D01*
X137143000Y-119076250D01*
X137143000Y-117527000D01*
X137397000Y-117527000D01*
X137397000Y-119076250D01*
X137555750Y-119235000D01*
X137640000Y-119238072D01*
X137764482Y-119225812D01*
X137884180Y-119189502D01*
X137905000Y-119178373D01*
X137925820Y-119189502D01*
X138045518Y-119225812D01*
X138170000Y-119238072D01*
X138254250Y-119235000D01*
X138413000Y-119076250D01*
X138413000Y-117527000D01*
X138667000Y-117527000D01*
X138667000Y-119076250D01*
X138825750Y-119235000D01*
X138910000Y-119238072D01*
X139034482Y-119225812D01*
X139154180Y-119189502D01*
X139175000Y-119178373D01*
X139195820Y-119189502D01*
X139315518Y-119225812D01*
X139440000Y-119238072D01*
X139524250Y-119235000D01*
X139683000Y-119076250D01*
X139683000Y-117527000D01*
X139937000Y-117527000D01*
X139937000Y-119076250D01*
X140095750Y-119235000D01*
X140180000Y-119238072D01*
X140304482Y-119225812D01*
X140424180Y-119189502D01*
X140445000Y-119178373D01*
X140465820Y-119189502D01*
X140585518Y-119225812D01*
X140710000Y-119238072D01*
X140794250Y-119235000D01*
X140953000Y-119076250D01*
X140953000Y-117527000D01*
X141207000Y-117527000D01*
X141207000Y-119076250D01*
X141365750Y-119235000D01*
X141450000Y-119238072D01*
X141574482Y-119225812D01*
X141694180Y-119189502D01*
X141715000Y-119178373D01*
X141735820Y-119189502D01*
X141855518Y-119225812D01*
X141980000Y-119238072D01*
X142064250Y-119235000D01*
X142223000Y-119076250D01*
X142223000Y-117527000D01*
X142477000Y-117527000D01*
X142477000Y-119076250D01*
X142635750Y-119235000D01*
X142720000Y-119238072D01*
X142844482Y-119225812D01*
X142964180Y-119189502D01*
X142985000Y-119178373D01*
X143005820Y-119189502D01*
X143125518Y-119225812D01*
X143250000Y-119238072D01*
X143334250Y-119235000D01*
X143493000Y-119076250D01*
X143493000Y-117527000D01*
X143747000Y-117527000D01*
X143747000Y-119076250D01*
X143905750Y-119235000D01*
X143990000Y-119238072D01*
X144114482Y-119225812D01*
X144234180Y-119189502D01*
X144255000Y-119178373D01*
X144275820Y-119189502D01*
X144395518Y-119225812D01*
X144520000Y-119238072D01*
X144604250Y-119235000D01*
X144763000Y-119076250D01*
X144763000Y-117527000D01*
X145017000Y-117527000D01*
X145017000Y-119076250D01*
X145175750Y-119235000D01*
X145260000Y-119238072D01*
X145384482Y-119225812D01*
X145504180Y-119189502D01*
X145614494Y-119130537D01*
X145711185Y-119051185D01*
X145790537Y-118954494D01*
X145849502Y-118844180D01*
X145885812Y-118724482D01*
X145898072Y-118600000D01*
X145895000Y-117685750D01*
X145736250Y-117527000D01*
X145017000Y-117527000D01*
X144763000Y-117527000D01*
X143747000Y-117527000D01*
X143493000Y-117527000D01*
X142477000Y-117527000D01*
X142223000Y-117527000D01*
X141207000Y-117527000D01*
X140953000Y-117527000D01*
X139937000Y-117527000D01*
X139683000Y-117527000D01*
X138667000Y-117527000D01*
X138413000Y-117527000D01*
X137397000Y-117527000D01*
X137143000Y-117527000D01*
X136127000Y-117527000D01*
X135873000Y-117527000D01*
X135853000Y-117527000D01*
X135853000Y-117273000D01*
X135873000Y-117273000D01*
X135873000Y-115723750D01*
X136127000Y-115723750D01*
X136127000Y-117273000D01*
X137143000Y-117273000D01*
X137143000Y-115723750D01*
X136984250Y-115565000D01*
X136900000Y-115561928D01*
X136775518Y-115574188D01*
X136655820Y-115610498D01*
X136635000Y-115621627D01*
X136614180Y-115610498D01*
X136494482Y-115574188D01*
X136370000Y-115561928D01*
X136285750Y-115565000D01*
X136127000Y-115723750D01*
X135873000Y-115723750D01*
X135714250Y-115565000D01*
X135630000Y-115561928D01*
X135505518Y-115574188D01*
X135385820Y-115610498D01*
X135285000Y-115664388D01*
X135285000Y-114486697D01*
X135363401Y-114536452D01*
X136585482Y-115111520D01*
X137870002Y-115528886D01*
X138086384Y-115570163D01*
X138045518Y-115574188D01*
X137925820Y-115610498D01*
X137905000Y-115621627D01*
X137884180Y-115610498D01*
X137764482Y-115574188D01*
X137640000Y-115561928D01*
X137555750Y-115565000D01*
X137397000Y-115723750D01*
X137397000Y-117273000D01*
X138413000Y-117273000D01*
X138413000Y-117253000D01*
X138667000Y-117253000D01*
X138667000Y-117273000D01*
X139683000Y-117273000D01*
X139683000Y-117253000D01*
X139937000Y-117253000D01*
X139937000Y-117273000D01*
X140953000Y-117273000D01*
X140953000Y-117253000D01*
X141207000Y-117253000D01*
X141207000Y-117273000D01*
X142223000Y-117273000D01*
X142223000Y-117253000D01*
X142477000Y-117253000D01*
X142477000Y-117273000D01*
X143493000Y-117273000D01*
X143493000Y-115723750D01*
X143747000Y-115723750D01*
X143747000Y-117273000D01*
X144763000Y-117273000D01*
X144763000Y-115723750D01*
X145017000Y-115723750D01*
X145017000Y-117273000D01*
X145736250Y-117273000D01*
X145895000Y-117114250D01*
X145898072Y-116200000D01*
X145885812Y-116075518D01*
X145849502Y-115955820D01*
X145790537Y-115845506D01*
X145711185Y-115748815D01*
X145614494Y-115669463D01*
X145504180Y-115610498D01*
X145384482Y-115574188D01*
X145260000Y-115561928D01*
X145175750Y-115565000D01*
X145017000Y-115723750D01*
X144763000Y-115723750D01*
X144604250Y-115565000D01*
X144520000Y-115561928D01*
X144395518Y-115574188D01*
X144275820Y-115610498D01*
X144255000Y-115621627D01*
X144234180Y-115610498D01*
X144114482Y-115574188D01*
X143990000Y-115561928D01*
X143905750Y-115565000D01*
X143747000Y-115723750D01*
X143493000Y-115723750D01*
X143334250Y-115565000D01*
X143250000Y-115561928D01*
X143125518Y-115574188D01*
X143005820Y-115610498D01*
X142985000Y-115621627D01*
X142964180Y-115610498D01*
X142897512Y-115590274D01*
X143219320Y-115528886D01*
X144503840Y-115111520D01*
X145725921Y-114536452D01*
X146866291Y-113812752D01*
X147424944Y-113350593D01*
X147482795Y-113490256D01*
%TA.AperFunction,Conductor*%
D16*
G36*
X147482795Y-113490256D02*
G01*
X147515001Y-113538456D01*
X147515001Y-116010201D01*
X147501898Y-116004774D01*
X147301939Y-115965000D01*
X147098061Y-115965000D01*
X146898102Y-116004774D01*
X146709744Y-116082795D01*
X146540226Y-116196063D01*
X146396063Y-116340226D01*
X146282795Y-116509744D01*
X146204774Y-116698102D01*
X146165000Y-116898061D01*
X146165000Y-117101939D01*
X146204774Y-117301898D01*
X146282795Y-117490256D01*
X146315001Y-117538456D01*
X146315000Y-119933421D01*
X145898072Y-120350349D01*
X145898072Y-120100000D01*
X145885812Y-119975518D01*
X145849502Y-119855820D01*
X145790537Y-119745506D01*
X145711185Y-119648815D01*
X145614494Y-119569463D01*
X145504180Y-119510498D01*
X145384482Y-119474188D01*
X145260000Y-119461928D01*
X144520000Y-119461928D01*
X144395518Y-119474188D01*
X144275820Y-119510498D01*
X144255000Y-119521627D01*
X144234180Y-119510498D01*
X144114482Y-119474188D01*
X143990000Y-119461928D01*
X143250000Y-119461928D01*
X143125518Y-119474188D01*
X143005820Y-119510498D01*
X142985000Y-119521627D01*
X142964180Y-119510498D01*
X142844482Y-119474188D01*
X142720000Y-119461928D01*
X141980000Y-119461928D01*
X141855518Y-119474188D01*
X141735820Y-119510498D01*
X141715000Y-119521627D01*
X141694180Y-119510498D01*
X141574482Y-119474188D01*
X141450000Y-119461928D01*
X140710000Y-119461928D01*
X140585518Y-119474188D01*
X140465820Y-119510498D01*
X140445000Y-119521627D01*
X140424180Y-119510498D01*
X140304482Y-119474188D01*
X140180000Y-119461928D01*
X139440000Y-119461928D01*
X139315518Y-119474188D01*
X139195820Y-119510498D01*
X139175000Y-119521627D01*
X139154180Y-119510498D01*
X139034482Y-119474188D01*
X138910000Y-119461928D01*
X138170000Y-119461928D01*
X138045518Y-119474188D01*
X137925820Y-119510498D01*
X137905000Y-119521627D01*
X137884180Y-119510498D01*
X137764482Y-119474188D01*
X137640000Y-119461928D01*
X136900000Y-119461928D01*
X136775518Y-119474188D01*
X136655820Y-119510498D01*
X136635000Y-119521627D01*
X136614180Y-119510498D01*
X136494482Y-119474188D01*
X136370000Y-119461928D01*
X135630000Y-119461928D01*
X135505518Y-119474188D01*
X135385820Y-119510498D01*
X135285000Y-119564388D01*
X135285000Y-119135612D01*
X135385820Y-119189502D01*
X135505518Y-119225812D01*
X135630000Y-119238072D01*
X135714250Y-119235000D01*
X135873000Y-119076250D01*
X135873000Y-117527000D01*
X136127000Y-117527000D01*
X136127000Y-119076250D01*
X136285750Y-119235000D01*
X136370000Y-119238072D01*
X136494482Y-119225812D01*
X136614180Y-119189502D01*
X136635000Y-119178373D01*
X136655820Y-119189502D01*
X136775518Y-119225812D01*
X136900000Y-119238072D01*
X136984250Y-119235000D01*
X137143000Y-119076250D01*
X137143000Y-117527000D01*
X137397000Y-117527000D01*
X137397000Y-119076250D01*
X137555750Y-119235000D01*
X137640000Y-119238072D01*
X137764482Y-119225812D01*
X137884180Y-119189502D01*
X137905000Y-119178373D01*
X137925820Y-119189502D01*
X138045518Y-119225812D01*
X138170000Y-119238072D01*
X138254250Y-119235000D01*
X138413000Y-119076250D01*
X138413000Y-117527000D01*
X138667000Y-117527000D01*
X138667000Y-119076250D01*
X138825750Y-119235000D01*
X138910000Y-119238072D01*
X139034482Y-119225812D01*
X139154180Y-119189502D01*
X139175000Y-119178373D01*
X139195820Y-119189502D01*
X139315518Y-119225812D01*
X139440000Y-119238072D01*
X139524250Y-119235000D01*
X139683000Y-119076250D01*
X139683000Y-117527000D01*
X139937000Y-117527000D01*
X139937000Y-119076250D01*
X140095750Y-119235000D01*
X140180000Y-119238072D01*
X140304482Y-119225812D01*
X140424180Y-119189502D01*
X140445000Y-119178373D01*
X140465820Y-119189502D01*
X140585518Y-119225812D01*
X140710000Y-119238072D01*
X140794250Y-119235000D01*
X140953000Y-119076250D01*
X140953000Y-117527000D01*
X141207000Y-117527000D01*
X141207000Y-119076250D01*
X141365750Y-119235000D01*
X141450000Y-119238072D01*
X141574482Y-119225812D01*
X141694180Y-119189502D01*
X141715000Y-119178373D01*
X141735820Y-119189502D01*
X141855518Y-119225812D01*
X141980000Y-119238072D01*
X142064250Y-119235000D01*
X142223000Y-119076250D01*
X142223000Y-117527000D01*
X142477000Y-117527000D01*
X142477000Y-119076250D01*
X142635750Y-119235000D01*
X142720000Y-119238072D01*
X142844482Y-119225812D01*
X142964180Y-119189502D01*
X142985000Y-119178373D01*
X143005820Y-119189502D01*
X143125518Y-119225812D01*
X143250000Y-119238072D01*
X143334250Y-119235000D01*
X143493000Y-119076250D01*
X143493000Y-117527000D01*
X143747000Y-117527000D01*
X143747000Y-119076250D01*
X143905750Y-119235000D01*
X143990000Y-119238072D01*
X144114482Y-119225812D01*
X144234180Y-119189502D01*
X144255000Y-119178373D01*
X144275820Y-119189502D01*
X144395518Y-119225812D01*
X144520000Y-119238072D01*
X144604250Y-119235000D01*
X144763000Y-119076250D01*
X144763000Y-117527000D01*
X145017000Y-117527000D01*
X145017000Y-119076250D01*
X145175750Y-119235000D01*
X145260000Y-119238072D01*
X145384482Y-119225812D01*
X145504180Y-119189502D01*
X145614494Y-119130537D01*
X145711185Y-119051185D01*
X145790537Y-118954494D01*
X145849502Y-118844180D01*
X145885812Y-118724482D01*
X145898072Y-118600000D01*
X145895000Y-117685750D01*
X145736250Y-117527000D01*
X145017000Y-117527000D01*
X144763000Y-117527000D01*
X143747000Y-117527000D01*
X143493000Y-117527000D01*
X142477000Y-117527000D01*
X142223000Y-117527000D01*
X141207000Y-117527000D01*
X140953000Y-117527000D01*
X139937000Y-117527000D01*
X139683000Y-117527000D01*
X138667000Y-117527000D01*
X138413000Y-117527000D01*
X137397000Y-117527000D01*
X137143000Y-117527000D01*
X136127000Y-117527000D01*
X135873000Y-117527000D01*
X135853000Y-117527000D01*
X135853000Y-117273000D01*
X135873000Y-117273000D01*
X135873000Y-115723750D01*
X136127000Y-115723750D01*
X136127000Y-117273000D01*
X137143000Y-117273000D01*
X137143000Y-115723750D01*
X136984250Y-115565000D01*
X136900000Y-115561928D01*
X136775518Y-115574188D01*
X136655820Y-115610498D01*
X136635000Y-115621627D01*
X136614180Y-115610498D01*
X136494482Y-115574188D01*
X136370000Y-115561928D01*
X136285750Y-115565000D01*
X136127000Y-115723750D01*
X135873000Y-115723750D01*
X135714250Y-115565000D01*
X135630000Y-115561928D01*
X135505518Y-115574188D01*
X135385820Y-115610498D01*
X135285000Y-115664388D01*
X135285000Y-114486697D01*
X135363401Y-114536452D01*
X136585482Y-115111520D01*
X137870002Y-115528886D01*
X138086384Y-115570163D01*
X138045518Y-115574188D01*
X137925820Y-115610498D01*
X137905000Y-115621627D01*
X137884180Y-115610498D01*
X137764482Y-115574188D01*
X137640000Y-115561928D01*
X137555750Y-115565000D01*
X137397000Y-115723750D01*
X137397000Y-117273000D01*
X138413000Y-117273000D01*
X138413000Y-117253000D01*
X138667000Y-117253000D01*
X138667000Y-117273000D01*
X139683000Y-117273000D01*
X139683000Y-117253000D01*
X139937000Y-117253000D01*
X139937000Y-117273000D01*
X140953000Y-117273000D01*
X140953000Y-117253000D01*
X141207000Y-117253000D01*
X141207000Y-117273000D01*
X142223000Y-117273000D01*
X142223000Y-117253000D01*
X142477000Y-117253000D01*
X142477000Y-117273000D01*
X143493000Y-117273000D01*
X143493000Y-115723750D01*
X143747000Y-115723750D01*
X143747000Y-117273000D01*
X144763000Y-117273000D01*
X144763000Y-115723750D01*
X145017000Y-115723750D01*
X145017000Y-117273000D01*
X145736250Y-117273000D01*
X145895000Y-117114250D01*
X145898072Y-116200000D01*
X145885812Y-116075518D01*
X145849502Y-115955820D01*
X145790537Y-115845506D01*
X145711185Y-115748815D01*
X145614494Y-115669463D01*
X145504180Y-115610498D01*
X145384482Y-115574188D01*
X145260000Y-115561928D01*
X145175750Y-115565000D01*
X145017000Y-115723750D01*
X144763000Y-115723750D01*
X144604250Y-115565000D01*
X144520000Y-115561928D01*
X144395518Y-115574188D01*
X144275820Y-115610498D01*
X144255000Y-115621627D01*
X144234180Y-115610498D01*
X144114482Y-115574188D01*
X143990000Y-115561928D01*
X143905750Y-115565000D01*
X143747000Y-115723750D01*
X143493000Y-115723750D01*
X143334250Y-115565000D01*
X143250000Y-115561928D01*
X143125518Y-115574188D01*
X143005820Y-115610498D01*
X142985000Y-115621627D01*
X142964180Y-115610498D01*
X142897512Y-115590274D01*
X143219320Y-115528886D01*
X144503840Y-115111520D01*
X145725921Y-114536452D01*
X146866291Y-113812752D01*
X147424944Y-113350593D01*
X147482795Y-113490256D01*
G37*
%TD.AperFunction*%
%TD*%
M02*
