%TF.GenerationSoftware,KiCad,Pcbnew,5.1.7-a382d34a8~87~ubuntu20.04.1*%
%TF.CreationDate,2021-02-25T10:09:00+00:00*%
%TF.ProjectId,UFOPulse,55464f50-756c-4736-952e-6b696361645f,rev?*%
%TF.SameCoordinates,Original*%
%TF.FileFunction,Legend,Top*%
%TF.FilePolarity,Positive*%
%FSLAX46Y46*%
G04 Gerber Fmt 4.6, Leading zero omitted, Abs format (unit mm)*
G04 Created by KiCad (PCBNEW 5.1.7-a382d34a8~87~ubuntu20.04.1) date 2021-02-25 10:09:00*
%MOMM*%
%LPD*%
G01*
G04 APERTURE LIST*
%ADD10C,0.120000*%
%ADD11C,0.150000*%
G04 APERTURE END LIST*
D10*
%TO.C,R24*%
X156737258Y-110877500D02*
X156262742Y-110877500D01*
X156737258Y-111922500D02*
X156262742Y-111922500D01*
%TO.C,R23*%
X153212258Y-110877500D02*
X152737742Y-110877500D01*
X153212258Y-111922500D02*
X152737742Y-111922500D01*
%TO.C,R22*%
X156737258Y-106377500D02*
X156262742Y-106377500D01*
X156737258Y-107422500D02*
X156262742Y-107422500D01*
%TO.C,R21*%
X145977500Y-88562742D02*
X145977500Y-89037258D01*
X147022500Y-88562742D02*
X147022500Y-89037258D01*
%TO.C,R20*%
X145977500Y-92062742D02*
X145977500Y-92537258D01*
X147022500Y-92062742D02*
X147022500Y-92537258D01*
%TO.C,R19*%
X141477500Y-88562742D02*
X141477500Y-89037258D01*
X142522500Y-88562742D02*
X142522500Y-89037258D01*
%TO.C,R18*%
X124137742Y-99322500D02*
X124612258Y-99322500D01*
X124137742Y-98277500D02*
X124612258Y-98277500D01*
%TO.C,R17*%
X127637742Y-99322500D02*
X128112258Y-99322500D01*
X127637742Y-98277500D02*
X128112258Y-98277500D01*
%TO.C,R16*%
X124187742Y-103922500D02*
X124662258Y-103922500D01*
X124187742Y-102877500D02*
X124662258Y-102877500D01*
%TO.C,R15*%
X134922500Y-121762258D02*
X134922500Y-121287742D01*
X133877500Y-121762258D02*
X133877500Y-121287742D01*
%TO.C,R14*%
X135022500Y-118562258D02*
X135022500Y-118087742D01*
X133977500Y-118562258D02*
X133977500Y-118087742D01*
%TO.C,R13*%
X139422500Y-121737258D02*
X139422500Y-121262742D01*
X138377500Y-121737258D02*
X138377500Y-121262742D01*
%TO.C,R12*%
X144722500Y-121737258D02*
X144722500Y-121262742D01*
X143677500Y-121737258D02*
X143677500Y-121262742D01*
%TO.C,R11*%
X144722500Y-118237258D02*
X144722500Y-117762742D01*
X143677500Y-118237258D02*
X143677500Y-117762742D01*
%TO.C,R10*%
X149222501Y-121737258D02*
X149222501Y-121262742D01*
X148177501Y-121737258D02*
X148177501Y-121262742D01*
%TO.C,R9*%
X156762258Y-101277500D02*
X156287742Y-101277500D01*
X156762258Y-102322500D02*
X156287742Y-102322500D01*
%TO.C,R8*%
X153212258Y-101277500D02*
X152737742Y-101277500D01*
X153212258Y-102322500D02*
X152737742Y-102322500D01*
%TO.C,R7*%
X156737258Y-96777500D02*
X156262742Y-96777500D01*
X156737258Y-97822500D02*
X156262742Y-97822500D01*
%TO.C,R6*%
X136277501Y-88562742D02*
X136277501Y-89037258D01*
X137322501Y-88562742D02*
X137322501Y-89037258D01*
%TO.C,R5*%
X136277500Y-92062742D02*
X136277500Y-92537258D01*
X137322500Y-92062742D02*
X137322500Y-92537258D01*
%TO.C,R4*%
X131777500Y-88562742D02*
X131777500Y-89037258D01*
X132822500Y-88562742D02*
X132822500Y-89037258D01*
%TO.C,R3*%
X124366130Y-109096660D02*
X124840646Y-109096660D01*
X124366130Y-108051660D02*
X124840646Y-108051660D01*
%TO.C,R2*%
X127691130Y-109096660D02*
X128165646Y-109096660D01*
X127691130Y-108051660D02*
X128165646Y-108051660D01*
%TO.C,R1*%
X124341129Y-113596659D02*
X124815645Y-113596659D01*
X124341129Y-112551659D02*
X124815645Y-112551659D01*
%TO.C,Q16*%
X157060000Y-115630000D02*
X155600000Y-115630000D01*
X157060000Y-112470000D02*
X154900000Y-112470000D01*
X157060000Y-112470000D02*
X157060000Y-113400000D01*
X157060000Y-115630000D02*
X157060000Y-114700000D01*
%TO.C,Q15*%
X152020000Y-112470000D02*
X153480000Y-112470000D01*
X152020000Y-115630000D02*
X154180000Y-115630000D01*
X152020000Y-115630000D02*
X152020000Y-114700000D01*
X152020000Y-112470000D02*
X152020000Y-113400000D01*
%TO.C,Q14*%
X150680000Y-88240000D02*
X150680000Y-89700000D01*
X147520000Y-88240000D02*
X147520000Y-90400000D01*
X147520000Y-88240000D02*
X148450000Y-88240000D01*
X150680000Y-88240000D02*
X149750000Y-88240000D01*
%TO.C,Q13*%
X147520000Y-93260000D02*
X147520000Y-91800000D01*
X150680000Y-93260000D02*
X150680000Y-91100000D01*
X150680000Y-93260000D02*
X149750000Y-93260000D01*
X147520000Y-93260000D02*
X148450000Y-93260000D01*
%TO.C,Q12*%
X123540000Y-94620000D02*
X125000000Y-94620000D01*
X123540000Y-97780000D02*
X125700000Y-97780000D01*
X123540000Y-97780000D02*
X123540000Y-96850000D01*
X123540000Y-94620000D02*
X123540000Y-95550000D01*
%TO.C,Q11*%
X128560000Y-97780000D02*
X127100000Y-97780000D01*
X128560000Y-94620000D02*
X126400000Y-94620000D01*
X128560000Y-94620000D02*
X128560000Y-95550000D01*
X128560000Y-97780000D02*
X128560000Y-96850000D01*
%TO.C,Q10*%
X130270000Y-122359999D02*
X130270000Y-120899999D01*
X133430000Y-122359999D02*
X133430000Y-120199999D01*
X133430000Y-122359999D02*
X132500000Y-122359999D01*
X130270000Y-122359999D02*
X131200000Y-122359999D01*
%TO.C,Q9*%
X133430000Y-117340000D02*
X133430000Y-118800000D01*
X130270000Y-117340000D02*
X130270000Y-119500000D01*
X130270000Y-117340000D02*
X131200000Y-117340000D01*
X133430000Y-117340000D02*
X132500000Y-117340000D01*
%TO.C,Q8*%
X140020000Y-122060000D02*
X140020000Y-120600000D01*
X143180000Y-122060000D02*
X143180000Y-119900000D01*
X143180000Y-122060000D02*
X142250000Y-122060000D01*
X140020000Y-122060000D02*
X140950000Y-122060000D01*
%TO.C,Q7*%
X143180000Y-117039999D02*
X143180000Y-118499999D01*
X140020000Y-117039999D02*
X140020000Y-119199999D01*
X140020000Y-117039999D02*
X140950000Y-117039999D01*
X143180000Y-117039999D02*
X142250000Y-117039999D01*
%TO.C,Q6*%
X157060000Y-105920000D02*
X155600000Y-105920000D01*
X157060000Y-102760000D02*
X154900000Y-102760000D01*
X157060000Y-102760000D02*
X157060000Y-103690000D01*
X157060000Y-105920000D02*
X157060000Y-104990000D01*
%TO.C,Q5*%
X152040000Y-102760000D02*
X153500000Y-102760000D01*
X152040000Y-105920000D02*
X154200000Y-105920000D01*
X152040000Y-105920000D02*
X152040000Y-104990000D01*
X152040000Y-102760000D02*
X152040000Y-103690000D01*
%TO.C,Q4*%
X140980000Y-88240000D02*
X140980000Y-89700000D01*
X137820000Y-88240000D02*
X137820000Y-90400000D01*
X137820000Y-88240000D02*
X138750000Y-88240000D01*
X140980000Y-88240000D02*
X140050000Y-88240000D01*
%TO.C,Q3*%
X137820000Y-93260000D02*
X137820000Y-91800000D01*
X140980000Y-93260000D02*
X140980000Y-91100000D01*
X140980000Y-93260000D02*
X140050000Y-93260000D01*
X137820000Y-93260000D02*
X138750000Y-93260000D01*
%TO.C,Q2*%
X123843388Y-104394159D02*
X125303388Y-104394159D01*
X123843388Y-107554159D02*
X126003388Y-107554159D01*
X123843388Y-107554159D02*
X123843388Y-106624159D01*
X123843388Y-104394159D02*
X123843388Y-105324159D01*
%TO.C,Q1*%
X128863388Y-107554159D02*
X127403388Y-107554159D01*
X128863388Y-104394159D02*
X126703388Y-104394159D01*
X128863388Y-104394159D02*
X128863388Y-105324159D01*
X128863388Y-107554159D02*
X128863388Y-106624159D01*
%TO.C,L8*%
X156662780Y-109390000D02*
X156337222Y-109390000D01*
X156662780Y-110410000D02*
X156337222Y-110410000D01*
%TO.C,L7*%
X144490000Y-88637221D02*
X144490000Y-88962779D01*
X145510000Y-88637221D02*
X145510000Y-88962779D01*
%TO.C,L6*%
X124237221Y-100910000D02*
X124562779Y-100910000D01*
X124237221Y-99890000D02*
X124562779Y-99890000D01*
%TO.C,L5*%
X136410000Y-121675277D02*
X136410000Y-121349719D01*
X135390000Y-121675277D02*
X135390000Y-121349719D01*
%TO.C,L4*%
X146210000Y-121662779D02*
X146210000Y-121337221D01*
X145190000Y-121662779D02*
X145190000Y-121337221D01*
%TO.C,L3*%
X156662779Y-99790000D02*
X156337221Y-99790000D01*
X156662779Y-100810000D02*
X156337221Y-100810000D01*
%TO.C,L2*%
X134789999Y-88637221D02*
X134789999Y-88962779D01*
X135809999Y-88637221D02*
X135809999Y-88962779D01*
%TO.C,L1*%
X124440609Y-110584160D02*
X124766167Y-110584160D01*
X124440609Y-109564160D02*
X124766167Y-109564160D01*
%TO.C,J8*%
X159215000Y-108500000D02*
X159215000Y-109140000D01*
X159215000Y-111300000D02*
X159215000Y-110660000D01*
X159215000Y-109140000D02*
X158585000Y-109140000D01*
X161935000Y-108550000D02*
X161935000Y-111250000D01*
%TO.C,J7*%
X143610001Y-86065000D02*
X144250001Y-86065000D01*
X146410001Y-86065000D02*
X145770001Y-86065000D01*
X144250001Y-86065000D02*
X144250001Y-86695000D01*
X143660001Y-83345000D02*
X146360001Y-83345000D01*
%TO.C,J6*%
X121685000Y-101700000D02*
X121685000Y-101060000D01*
X121685000Y-98900000D02*
X121685000Y-99540000D01*
X121685000Y-101060000D02*
X122315000Y-101060000D01*
X118965000Y-101650000D02*
X118965000Y-98950000D01*
%TO.C,J5*%
X137400000Y-124315000D02*
X136760000Y-124315000D01*
X134600000Y-124315000D02*
X135240000Y-124315000D01*
X136760000Y-124315000D02*
X136760000Y-123685000D01*
X137350000Y-127035000D02*
X134650000Y-127035000D01*
%TO.C,J4*%
X147100000Y-124215000D02*
X146460000Y-124215000D01*
X144300000Y-124215000D02*
X144940000Y-124215000D01*
X146460000Y-124215000D02*
X146460000Y-123585000D01*
X147050000Y-126935000D02*
X144350000Y-126935000D01*
%TO.C,J3*%
X159235000Y-98890000D02*
X159235000Y-99530000D01*
X159235000Y-101690000D02*
X159235000Y-101050000D01*
X159235000Y-99530000D02*
X158605000Y-99530000D01*
X161955000Y-98940000D02*
X161955000Y-101640000D01*
%TO.C,J2*%
X134000000Y-86054999D02*
X134640000Y-86054999D01*
X136800000Y-86054999D02*
X136160000Y-86054999D01*
X134640000Y-86054999D02*
X134640000Y-86684999D01*
X134050000Y-83334999D02*
X136750000Y-83334999D01*
%TO.C,J1*%
X121800520Y-111465454D02*
X121800520Y-110825454D01*
X121800520Y-108665454D02*
X121800520Y-109305454D01*
X121800520Y-110825454D02*
X122430520Y-110825454D01*
X119080520Y-111415454D02*
X119080520Y-108715454D01*
%TO.C,D15*%
X149850000Y-108400000D02*
X153750000Y-108400000D01*
X149850000Y-110400000D02*
X153750000Y-110400000D01*
X149850000Y-108400000D02*
X149850000Y-110400000D01*
%TO.C,D13*%
X143500000Y-95350000D02*
X143500000Y-91450000D01*
X145500000Y-95350000D02*
X145500000Y-91450000D01*
X143500000Y-95350000D02*
X145500000Y-95350000D01*
%TO.C,D11*%
X131000000Y-101800000D02*
X127100000Y-101800000D01*
X131000000Y-99800000D02*
X127100000Y-99800000D01*
X131000000Y-101800000D02*
X131000000Y-99800000D01*
%TO.C,D9*%
X137400000Y-115200000D02*
X137400000Y-119100000D01*
X135400000Y-115200000D02*
X135400000Y-119100000D01*
X137400000Y-115200000D02*
X135400000Y-115200000D01*
%TO.C,D7*%
X149650000Y-119800000D02*
X145750000Y-119800000D01*
X149650000Y-117800000D02*
X145750000Y-117800000D01*
X149650000Y-119800000D02*
X149650000Y-117800000D01*
%TO.C,D5*%
X154700000Y-96150000D02*
X154700000Y-100050000D01*
X152700000Y-96150000D02*
X152700000Y-100050000D01*
X154700000Y-96150000D02*
X152700000Y-96150000D01*
%TO.C,D3*%
X131350000Y-90600000D02*
X135250000Y-90600000D01*
X131350000Y-92600000D02*
X135250000Y-92600000D01*
X131350000Y-90600000D02*
X131350000Y-92600000D01*
%TO.C,D1*%
X126300000Y-114450000D02*
X126300000Y-110550000D01*
X128300000Y-114450000D02*
X128300000Y-110550000D01*
X126300000Y-114450000D02*
X128300000Y-114450000D01*
%TO.C,C16*%
X156640580Y-107890000D02*
X156359420Y-107890000D01*
X156640580Y-108910000D02*
X156359420Y-108910000D01*
%TO.C,C15*%
X150810000Y-112315580D02*
X150810000Y-112034420D01*
X149790000Y-112315580D02*
X149790000Y-112034420D01*
%TO.C,C14*%
X142990000Y-88659420D02*
X142990000Y-88940580D01*
X144010000Y-88659420D02*
X144010000Y-88940580D01*
%TO.C,C13*%
X147340580Y-94490000D02*
X147059420Y-94490000D01*
X147340580Y-95510000D02*
X147059420Y-95510000D01*
%TO.C,C12*%
X124259420Y-102410000D02*
X124540580Y-102410000D01*
X124259420Y-101390000D02*
X124540580Y-101390000D01*
%TO.C,C11*%
X129890000Y-97934420D02*
X129890000Y-98215580D01*
X130910000Y-97934420D02*
X130910000Y-98215580D01*
%TO.C,C10*%
X137910000Y-121665580D02*
X137910000Y-121384420D01*
X136890000Y-121665580D02*
X136890000Y-121384420D01*
%TO.C,C9*%
X133534420Y-116110000D02*
X133815580Y-116110000D01*
X133534420Y-115090000D02*
X133815580Y-115090000D01*
%TO.C,C8*%
X147709999Y-121640580D02*
X147709999Y-121359420D01*
X146689999Y-121640580D02*
X146689999Y-121359420D01*
%TO.C,C7*%
X145859420Y-116110000D02*
X146140580Y-116110000D01*
X145859420Y-115090000D02*
X146140580Y-115090000D01*
%TO.C,C6*%
X156615580Y-98290000D02*
X156334420Y-98290000D01*
X156615580Y-99310000D02*
X156334420Y-99310000D01*
%TO.C,C5*%
X151210000Y-99615580D02*
X151210000Y-99334420D01*
X150190000Y-99615580D02*
X150190000Y-99334420D01*
%TO.C,C4*%
X133290000Y-88659420D02*
X133290000Y-88940580D01*
X134310000Y-88659420D02*
X134310000Y-88940580D01*
%TO.C,C3*%
X135740580Y-94090000D02*
X135459420Y-94090000D01*
X135740580Y-95110000D02*
X135459420Y-95110000D01*
%TO.C,C2*%
X124437807Y-112084159D02*
X124718967Y-112084159D01*
X124437807Y-111064159D02*
X124718967Y-111064159D01*
%TO.C,C1*%
X129690000Y-110284420D02*
X129690000Y-110565580D01*
X130710000Y-110284420D02*
X130710000Y-110565580D01*
%TO.C,R24*%
D11*
X159457142Y-113252380D02*
X159123809Y-112776190D01*
X158885714Y-113252380D02*
X158885714Y-112252380D01*
X159266666Y-112252380D01*
X159361904Y-112300000D01*
X159409523Y-112347619D01*
X159457142Y-112442857D01*
X159457142Y-112585714D01*
X159409523Y-112680952D01*
X159361904Y-112728571D01*
X159266666Y-112776190D01*
X158885714Y-112776190D01*
X159838095Y-112347619D02*
X159885714Y-112300000D01*
X159980952Y-112252380D01*
X160219047Y-112252380D01*
X160314285Y-112300000D01*
X160361904Y-112347619D01*
X160409523Y-112442857D01*
X160409523Y-112538095D01*
X160361904Y-112680952D01*
X159790476Y-113252380D01*
X160409523Y-113252380D01*
X161266666Y-112585714D02*
X161266666Y-113252380D01*
X161028571Y-112204761D02*
X160790476Y-112919047D01*
X161409523Y-112919047D01*
%TO.C,R23*%
X159357142Y-114552380D02*
X159023809Y-114076190D01*
X158785714Y-114552380D02*
X158785714Y-113552380D01*
X159166666Y-113552380D01*
X159261904Y-113600000D01*
X159309523Y-113647619D01*
X159357142Y-113742857D01*
X159357142Y-113885714D01*
X159309523Y-113980952D01*
X159261904Y-114028571D01*
X159166666Y-114076190D01*
X158785714Y-114076190D01*
X159738095Y-113647619D02*
X159785714Y-113600000D01*
X159880952Y-113552380D01*
X160119047Y-113552380D01*
X160214285Y-113600000D01*
X160261904Y-113647619D01*
X160309523Y-113742857D01*
X160309523Y-113838095D01*
X160261904Y-113980952D01*
X159690476Y-114552380D01*
X160309523Y-114552380D01*
X160642857Y-113552380D02*
X161261904Y-113552380D01*
X160928571Y-113933333D01*
X161071428Y-113933333D01*
X161166666Y-113980952D01*
X161214285Y-114028571D01*
X161261904Y-114123809D01*
X161261904Y-114361904D01*
X161214285Y-114457142D01*
X161166666Y-114504761D01*
X161071428Y-114552380D01*
X160785714Y-114552380D01*
X160690476Y-114504761D01*
X160642857Y-114457142D01*
%TO.C,R22*%
X161457142Y-106152380D02*
X161123809Y-105676190D01*
X160885714Y-106152380D02*
X160885714Y-105152380D01*
X161266666Y-105152380D01*
X161361904Y-105200000D01*
X161409523Y-105247619D01*
X161457142Y-105342857D01*
X161457142Y-105485714D01*
X161409523Y-105580952D01*
X161361904Y-105628571D01*
X161266666Y-105676190D01*
X160885714Y-105676190D01*
X161838095Y-105247619D02*
X161885714Y-105200000D01*
X161980952Y-105152380D01*
X162219047Y-105152380D01*
X162314285Y-105200000D01*
X162361904Y-105247619D01*
X162409523Y-105342857D01*
X162409523Y-105438095D01*
X162361904Y-105580952D01*
X161790476Y-106152380D01*
X162409523Y-106152380D01*
X162790476Y-105247619D02*
X162838095Y-105200000D01*
X162933333Y-105152380D01*
X163171428Y-105152380D01*
X163266666Y-105200000D01*
X163314285Y-105247619D01*
X163361904Y-105342857D01*
X163361904Y-105438095D01*
X163314285Y-105580952D01*
X162742857Y-106152380D01*
X163361904Y-106152380D01*
%TO.C,R21*%
X151552380Y-87042857D02*
X151076190Y-87376190D01*
X151552380Y-87614285D02*
X150552380Y-87614285D01*
X150552380Y-87233333D01*
X150600000Y-87138095D01*
X150647619Y-87090476D01*
X150742857Y-87042857D01*
X150885714Y-87042857D01*
X150980952Y-87090476D01*
X151028571Y-87138095D01*
X151076190Y-87233333D01*
X151076190Y-87614285D01*
X150647619Y-86661904D02*
X150600000Y-86614285D01*
X150552380Y-86519047D01*
X150552380Y-86280952D01*
X150600000Y-86185714D01*
X150647619Y-86138095D01*
X150742857Y-86090476D01*
X150838095Y-86090476D01*
X150980952Y-86138095D01*
X151552380Y-86709523D01*
X151552380Y-86090476D01*
X151552380Y-85138095D02*
X151552380Y-85709523D01*
X151552380Y-85423809D02*
X150552380Y-85423809D01*
X150695238Y-85519047D01*
X150790476Y-85614285D01*
X150838095Y-85709523D01*
%TO.C,R20*%
X152952380Y-88242857D02*
X152476190Y-88576190D01*
X152952380Y-88814285D02*
X151952380Y-88814285D01*
X151952380Y-88433333D01*
X152000000Y-88338095D01*
X152047619Y-88290476D01*
X152142857Y-88242857D01*
X152285714Y-88242857D01*
X152380952Y-88290476D01*
X152428571Y-88338095D01*
X152476190Y-88433333D01*
X152476190Y-88814285D01*
X152047619Y-87861904D02*
X152000000Y-87814285D01*
X151952380Y-87719047D01*
X151952380Y-87480952D01*
X152000000Y-87385714D01*
X152047619Y-87338095D01*
X152142857Y-87290476D01*
X152238095Y-87290476D01*
X152380952Y-87338095D01*
X152952380Y-87909523D01*
X152952380Y-87290476D01*
X151952380Y-86671428D02*
X151952380Y-86576190D01*
X152000000Y-86480952D01*
X152047619Y-86433333D01*
X152142857Y-86385714D01*
X152333333Y-86338095D01*
X152571428Y-86338095D01*
X152761904Y-86385714D01*
X152857142Y-86433333D01*
X152904761Y-86480952D01*
X152952380Y-86576190D01*
X152952380Y-86671428D01*
X152904761Y-86766666D01*
X152857142Y-86814285D01*
X152761904Y-86861904D01*
X152571428Y-86909523D01*
X152333333Y-86909523D01*
X152142857Y-86861904D01*
X152047619Y-86814285D01*
X152000000Y-86766666D01*
X151952380Y-86671428D01*
%TO.C,R19*%
X141957142Y-87252380D02*
X141623809Y-86776190D01*
X141385714Y-87252380D02*
X141385714Y-86252380D01*
X141766666Y-86252380D01*
X141861904Y-86300000D01*
X141909523Y-86347619D01*
X141957142Y-86442857D01*
X141957142Y-86585714D01*
X141909523Y-86680952D01*
X141861904Y-86728571D01*
X141766666Y-86776190D01*
X141385714Y-86776190D01*
X142909523Y-87252380D02*
X142338095Y-87252380D01*
X142623809Y-87252380D02*
X142623809Y-86252380D01*
X142528571Y-86395238D01*
X142433333Y-86490476D01*
X142338095Y-86538095D01*
X143385714Y-87252380D02*
X143576190Y-87252380D01*
X143671428Y-87204761D01*
X143719047Y-87157142D01*
X143814285Y-87014285D01*
X143861904Y-86823809D01*
X143861904Y-86442857D01*
X143814285Y-86347619D01*
X143766666Y-86300000D01*
X143671428Y-86252380D01*
X143480952Y-86252380D01*
X143385714Y-86300000D01*
X143338095Y-86347619D01*
X143290476Y-86442857D01*
X143290476Y-86680952D01*
X143338095Y-86776190D01*
X143385714Y-86823809D01*
X143480952Y-86871428D01*
X143671428Y-86871428D01*
X143766666Y-86823809D01*
X143814285Y-86776190D01*
X143861904Y-86680952D01*
%TO.C,R18*%
X120457142Y-97652380D02*
X120123809Y-97176190D01*
X119885714Y-97652380D02*
X119885714Y-96652380D01*
X120266666Y-96652380D01*
X120361904Y-96700000D01*
X120409523Y-96747619D01*
X120457142Y-96842857D01*
X120457142Y-96985714D01*
X120409523Y-97080952D01*
X120361904Y-97128571D01*
X120266666Y-97176190D01*
X119885714Y-97176190D01*
X121409523Y-97652380D02*
X120838095Y-97652380D01*
X121123809Y-97652380D02*
X121123809Y-96652380D01*
X121028571Y-96795238D01*
X120933333Y-96890476D01*
X120838095Y-96938095D01*
X121980952Y-97080952D02*
X121885714Y-97033333D01*
X121838095Y-96985714D01*
X121790476Y-96890476D01*
X121790476Y-96842857D01*
X121838095Y-96747619D01*
X121885714Y-96700000D01*
X121980952Y-96652380D01*
X122171428Y-96652380D01*
X122266666Y-96700000D01*
X122314285Y-96747619D01*
X122361904Y-96842857D01*
X122361904Y-96890476D01*
X122314285Y-96985714D01*
X122266666Y-97033333D01*
X122171428Y-97080952D01*
X121980952Y-97080952D01*
X121885714Y-97128571D01*
X121838095Y-97176190D01*
X121790476Y-97271428D01*
X121790476Y-97461904D01*
X121838095Y-97557142D01*
X121885714Y-97604761D01*
X121980952Y-97652380D01*
X122171428Y-97652380D01*
X122266666Y-97604761D01*
X122314285Y-97557142D01*
X122361904Y-97461904D01*
X122361904Y-97271428D01*
X122314285Y-97176190D01*
X122266666Y-97128571D01*
X122171428Y-97080952D01*
%TO.C,R17*%
X122757142Y-93252380D02*
X122423809Y-92776190D01*
X122185714Y-93252380D02*
X122185714Y-92252380D01*
X122566666Y-92252380D01*
X122661904Y-92300000D01*
X122709523Y-92347619D01*
X122757142Y-92442857D01*
X122757142Y-92585714D01*
X122709523Y-92680952D01*
X122661904Y-92728571D01*
X122566666Y-92776190D01*
X122185714Y-92776190D01*
X123709523Y-93252380D02*
X123138095Y-93252380D01*
X123423809Y-93252380D02*
X123423809Y-92252380D01*
X123328571Y-92395238D01*
X123233333Y-92490476D01*
X123138095Y-92538095D01*
X124042857Y-92252380D02*
X124709523Y-92252380D01*
X124280952Y-93252380D01*
%TO.C,R16*%
X118957142Y-107252380D02*
X118623809Y-106776190D01*
X118385714Y-107252380D02*
X118385714Y-106252380D01*
X118766666Y-106252380D01*
X118861904Y-106300000D01*
X118909523Y-106347619D01*
X118957142Y-106442857D01*
X118957142Y-106585714D01*
X118909523Y-106680952D01*
X118861904Y-106728571D01*
X118766666Y-106776190D01*
X118385714Y-106776190D01*
X119909523Y-107252380D02*
X119338095Y-107252380D01*
X119623809Y-107252380D02*
X119623809Y-106252380D01*
X119528571Y-106395238D01*
X119433333Y-106490476D01*
X119338095Y-106538095D01*
X120766666Y-106252380D02*
X120576190Y-106252380D01*
X120480952Y-106300000D01*
X120433333Y-106347619D01*
X120338095Y-106490476D01*
X120290476Y-106680952D01*
X120290476Y-107061904D01*
X120338095Y-107157142D01*
X120385714Y-107204761D01*
X120480952Y-107252380D01*
X120671428Y-107252380D01*
X120766666Y-107204761D01*
X120814285Y-107157142D01*
X120861904Y-107061904D01*
X120861904Y-106823809D01*
X120814285Y-106728571D01*
X120766666Y-106680952D01*
X120671428Y-106633333D01*
X120480952Y-106633333D01*
X120385714Y-106680952D01*
X120338095Y-106728571D01*
X120290476Y-106823809D01*
%TO.C,R15*%
X128552380Y-122842857D02*
X128076190Y-123176190D01*
X128552380Y-123414285D02*
X127552380Y-123414285D01*
X127552380Y-123033333D01*
X127600000Y-122938095D01*
X127647619Y-122890476D01*
X127742857Y-122842857D01*
X127885714Y-122842857D01*
X127980952Y-122890476D01*
X128028571Y-122938095D01*
X128076190Y-123033333D01*
X128076190Y-123414285D01*
X128552380Y-121890476D02*
X128552380Y-122461904D01*
X128552380Y-122176190D02*
X127552380Y-122176190D01*
X127695238Y-122271428D01*
X127790476Y-122366666D01*
X127838095Y-122461904D01*
X127552380Y-120985714D02*
X127552380Y-121461904D01*
X128028571Y-121509523D01*
X127980952Y-121461904D01*
X127933333Y-121366666D01*
X127933333Y-121128571D01*
X127980952Y-121033333D01*
X128028571Y-120985714D01*
X128123809Y-120938095D01*
X128361904Y-120938095D01*
X128457142Y-120985714D01*
X128504761Y-121033333D01*
X128552380Y-121128571D01*
X128552380Y-121366666D01*
X128504761Y-121461904D01*
X128457142Y-121509523D01*
%TO.C,R14*%
X130852380Y-113742857D02*
X130376190Y-114076190D01*
X130852380Y-114314285D02*
X129852380Y-114314285D01*
X129852380Y-113933333D01*
X129900000Y-113838095D01*
X129947619Y-113790476D01*
X130042857Y-113742857D01*
X130185714Y-113742857D01*
X130280952Y-113790476D01*
X130328571Y-113838095D01*
X130376190Y-113933333D01*
X130376190Y-114314285D01*
X130852380Y-112790476D02*
X130852380Y-113361904D01*
X130852380Y-113076190D02*
X129852380Y-113076190D01*
X129995238Y-113171428D01*
X130090476Y-113266666D01*
X130138095Y-113361904D01*
X130185714Y-111933333D02*
X130852380Y-111933333D01*
X129804761Y-112171428D02*
X130519047Y-112409523D01*
X130519047Y-111790476D01*
%TO.C,R13*%
X140657142Y-124352380D02*
X140323809Y-123876190D01*
X140085714Y-124352380D02*
X140085714Y-123352380D01*
X140466666Y-123352380D01*
X140561904Y-123400000D01*
X140609523Y-123447619D01*
X140657142Y-123542857D01*
X140657142Y-123685714D01*
X140609523Y-123780952D01*
X140561904Y-123828571D01*
X140466666Y-123876190D01*
X140085714Y-123876190D01*
X141609523Y-124352380D02*
X141038095Y-124352380D01*
X141323809Y-124352380D02*
X141323809Y-123352380D01*
X141228571Y-123495238D01*
X141133333Y-123590476D01*
X141038095Y-123638095D01*
X141942857Y-123352380D02*
X142561904Y-123352380D01*
X142228571Y-123733333D01*
X142371428Y-123733333D01*
X142466666Y-123780952D01*
X142514285Y-123828571D01*
X142561904Y-123923809D01*
X142561904Y-124161904D01*
X142514285Y-124257142D01*
X142466666Y-124304761D01*
X142371428Y-124352380D01*
X142085714Y-124352380D01*
X141990476Y-124304761D01*
X141942857Y-124257142D01*
%TO.C,R12*%
X142557142Y-116252380D02*
X142223809Y-115776190D01*
X141985714Y-116252380D02*
X141985714Y-115252380D01*
X142366666Y-115252380D01*
X142461904Y-115300000D01*
X142509523Y-115347619D01*
X142557142Y-115442857D01*
X142557142Y-115585714D01*
X142509523Y-115680952D01*
X142461904Y-115728571D01*
X142366666Y-115776190D01*
X141985714Y-115776190D01*
X143509523Y-116252380D02*
X142938095Y-116252380D01*
X143223809Y-116252380D02*
X143223809Y-115252380D01*
X143128571Y-115395238D01*
X143033333Y-115490476D01*
X142938095Y-115538095D01*
X143890476Y-115347619D02*
X143938095Y-115300000D01*
X144033333Y-115252380D01*
X144271428Y-115252380D01*
X144366666Y-115300000D01*
X144414285Y-115347619D01*
X144461904Y-115442857D01*
X144461904Y-115538095D01*
X144414285Y-115680952D01*
X143842857Y-116252380D01*
X144461904Y-116252380D01*
%TO.C,R11*%
X149452380Y-116442857D02*
X148976190Y-116776190D01*
X149452380Y-117014285D02*
X148452380Y-117014285D01*
X148452380Y-116633333D01*
X148500000Y-116538095D01*
X148547619Y-116490476D01*
X148642857Y-116442857D01*
X148785714Y-116442857D01*
X148880952Y-116490476D01*
X148928571Y-116538095D01*
X148976190Y-116633333D01*
X148976190Y-117014285D01*
X149452380Y-115490476D02*
X149452380Y-116061904D01*
X149452380Y-115776190D02*
X148452380Y-115776190D01*
X148595238Y-115871428D01*
X148690476Y-115966666D01*
X148738095Y-116061904D01*
X149452380Y-114538095D02*
X149452380Y-115109523D01*
X149452380Y-114823809D02*
X148452380Y-114823809D01*
X148595238Y-114919047D01*
X148690476Y-115014285D01*
X148738095Y-115109523D01*
%TO.C,R10*%
X148852380Y-125342857D02*
X148376190Y-125676190D01*
X148852380Y-125914285D02*
X147852380Y-125914285D01*
X147852380Y-125533333D01*
X147900000Y-125438095D01*
X147947619Y-125390476D01*
X148042857Y-125342857D01*
X148185714Y-125342857D01*
X148280952Y-125390476D01*
X148328571Y-125438095D01*
X148376190Y-125533333D01*
X148376190Y-125914285D01*
X148852380Y-124390476D02*
X148852380Y-124961904D01*
X148852380Y-124676190D02*
X147852380Y-124676190D01*
X147995238Y-124771428D01*
X148090476Y-124866666D01*
X148138095Y-124961904D01*
X147852380Y-123771428D02*
X147852380Y-123676190D01*
X147900000Y-123580952D01*
X147947619Y-123533333D01*
X148042857Y-123485714D01*
X148233333Y-123438095D01*
X148471428Y-123438095D01*
X148661904Y-123485714D01*
X148757142Y-123533333D01*
X148804761Y-123580952D01*
X148852380Y-123676190D01*
X148852380Y-123771428D01*
X148804761Y-123866666D01*
X148757142Y-123914285D01*
X148661904Y-123961904D01*
X148471428Y-124009523D01*
X148233333Y-124009523D01*
X148042857Y-123961904D01*
X147947619Y-123914285D01*
X147900000Y-123866666D01*
X147852380Y-123771428D01*
%TO.C,R9*%
X156333333Y-96452380D02*
X156000000Y-95976190D01*
X155761904Y-96452380D02*
X155761904Y-95452380D01*
X156142857Y-95452380D01*
X156238095Y-95500000D01*
X156285714Y-95547619D01*
X156333333Y-95642857D01*
X156333333Y-95785714D01*
X156285714Y-95880952D01*
X156238095Y-95928571D01*
X156142857Y-95976190D01*
X155761904Y-95976190D01*
X156809523Y-96452380D02*
X157000000Y-96452380D01*
X157095238Y-96404761D01*
X157142857Y-96357142D01*
X157238095Y-96214285D01*
X157285714Y-96023809D01*
X157285714Y-95642857D01*
X157238095Y-95547619D01*
X157190476Y-95500000D01*
X157095238Y-95452380D01*
X156904761Y-95452380D01*
X156809523Y-95500000D01*
X156761904Y-95547619D01*
X156714285Y-95642857D01*
X156714285Y-95880952D01*
X156761904Y-95976190D01*
X156809523Y-96023809D01*
X156904761Y-96071428D01*
X157095238Y-96071428D01*
X157190476Y-96023809D01*
X157238095Y-95976190D01*
X157285714Y-95880952D01*
%TO.C,R8*%
X151552380Y-102666666D02*
X151076190Y-103000000D01*
X151552380Y-103238095D02*
X150552380Y-103238095D01*
X150552380Y-102857142D01*
X150600000Y-102761904D01*
X150647619Y-102714285D01*
X150742857Y-102666666D01*
X150885714Y-102666666D01*
X150980952Y-102714285D01*
X151028571Y-102761904D01*
X151076190Y-102857142D01*
X151076190Y-103238095D01*
X150980952Y-102095238D02*
X150933333Y-102190476D01*
X150885714Y-102238095D01*
X150790476Y-102285714D01*
X150742857Y-102285714D01*
X150647619Y-102238095D01*
X150600000Y-102190476D01*
X150552380Y-102095238D01*
X150552380Y-101904761D01*
X150600000Y-101809523D01*
X150647619Y-101761904D01*
X150742857Y-101714285D01*
X150790476Y-101714285D01*
X150885714Y-101761904D01*
X150933333Y-101809523D01*
X150980952Y-101904761D01*
X150980952Y-102095238D01*
X151028571Y-102190476D01*
X151076190Y-102238095D01*
X151171428Y-102285714D01*
X151361904Y-102285714D01*
X151457142Y-102238095D01*
X151504761Y-102190476D01*
X151552380Y-102095238D01*
X151552380Y-101904761D01*
X151504761Y-101809523D01*
X151457142Y-101761904D01*
X151361904Y-101714285D01*
X151171428Y-101714285D01*
X151076190Y-101761904D01*
X151028571Y-101809523D01*
X150980952Y-101904761D01*
%TO.C,R7*%
X156233333Y-93752380D02*
X155900000Y-93276190D01*
X155661904Y-93752380D02*
X155661904Y-92752380D01*
X156042857Y-92752380D01*
X156138095Y-92800000D01*
X156185714Y-92847619D01*
X156233333Y-92942857D01*
X156233333Y-93085714D01*
X156185714Y-93180952D01*
X156138095Y-93228571D01*
X156042857Y-93276190D01*
X155661904Y-93276190D01*
X156566666Y-92752380D02*
X157233333Y-92752380D01*
X156804761Y-93752380D01*
%TO.C,R6*%
X139152380Y-86566666D02*
X138676190Y-86900000D01*
X139152380Y-87138095D02*
X138152380Y-87138095D01*
X138152380Y-86757142D01*
X138200000Y-86661904D01*
X138247619Y-86614285D01*
X138342857Y-86566666D01*
X138485714Y-86566666D01*
X138580952Y-86614285D01*
X138628571Y-86661904D01*
X138676190Y-86757142D01*
X138676190Y-87138095D01*
X138152380Y-85709523D02*
X138152380Y-85900000D01*
X138200000Y-85995238D01*
X138247619Y-86042857D01*
X138390476Y-86138095D01*
X138580952Y-86185714D01*
X138961904Y-86185714D01*
X139057142Y-86138095D01*
X139104761Y-86090476D01*
X139152380Y-85995238D01*
X139152380Y-85804761D01*
X139104761Y-85709523D01*
X139057142Y-85661904D01*
X138961904Y-85614285D01*
X138723809Y-85614285D01*
X138628571Y-85661904D01*
X138580952Y-85709523D01*
X138533333Y-85804761D01*
X138533333Y-85995238D01*
X138580952Y-86090476D01*
X138628571Y-86138095D01*
X138723809Y-86185714D01*
%TO.C,R5*%
X132252380Y-95666666D02*
X131776190Y-96000000D01*
X132252380Y-96238095D02*
X131252380Y-96238095D01*
X131252380Y-95857142D01*
X131300000Y-95761904D01*
X131347619Y-95714285D01*
X131442857Y-95666666D01*
X131585714Y-95666666D01*
X131680952Y-95714285D01*
X131728571Y-95761904D01*
X131776190Y-95857142D01*
X131776190Y-96238095D01*
X131252380Y-94761904D02*
X131252380Y-95238095D01*
X131728571Y-95285714D01*
X131680952Y-95238095D01*
X131633333Y-95142857D01*
X131633333Y-94904761D01*
X131680952Y-94809523D01*
X131728571Y-94761904D01*
X131823809Y-94714285D01*
X132061904Y-94714285D01*
X132157142Y-94761904D01*
X132204761Y-94809523D01*
X132252380Y-94904761D01*
X132252380Y-95142857D01*
X132204761Y-95238095D01*
X132157142Y-95285714D01*
%TO.C,R4*%
X129552380Y-89266666D02*
X129076190Y-89600000D01*
X129552380Y-89838095D02*
X128552380Y-89838095D01*
X128552380Y-89457142D01*
X128600000Y-89361904D01*
X128647619Y-89314285D01*
X128742857Y-89266666D01*
X128885714Y-89266666D01*
X128980952Y-89314285D01*
X129028571Y-89361904D01*
X129076190Y-89457142D01*
X129076190Y-89838095D01*
X128885714Y-88409523D02*
X129552380Y-88409523D01*
X128504761Y-88647619D02*
X129219047Y-88885714D01*
X129219047Y-88266666D01*
%TO.C,R3*%
X122333333Y-107952380D02*
X122000000Y-107476190D01*
X121761904Y-107952380D02*
X121761904Y-106952380D01*
X122142857Y-106952380D01*
X122238095Y-107000000D01*
X122285714Y-107047619D01*
X122333333Y-107142857D01*
X122333333Y-107285714D01*
X122285714Y-107380952D01*
X122238095Y-107428571D01*
X122142857Y-107476190D01*
X121761904Y-107476190D01*
X122666666Y-106952380D02*
X123285714Y-106952380D01*
X122952380Y-107333333D01*
X123095238Y-107333333D01*
X123190476Y-107380952D01*
X123238095Y-107428571D01*
X123285714Y-107523809D01*
X123285714Y-107761904D01*
X123238095Y-107857142D01*
X123190476Y-107904761D01*
X123095238Y-107952380D01*
X122809523Y-107952380D01*
X122714285Y-107904761D01*
X122666666Y-107857142D01*
%TO.C,R2*%
X123833333Y-116952380D02*
X123500000Y-116476190D01*
X123261904Y-116952380D02*
X123261904Y-115952380D01*
X123642857Y-115952380D01*
X123738095Y-116000000D01*
X123785714Y-116047619D01*
X123833333Y-116142857D01*
X123833333Y-116285714D01*
X123785714Y-116380952D01*
X123738095Y-116428571D01*
X123642857Y-116476190D01*
X123261904Y-116476190D01*
X124214285Y-116047619D02*
X124261904Y-116000000D01*
X124357142Y-115952380D01*
X124595238Y-115952380D01*
X124690476Y-116000000D01*
X124738095Y-116047619D01*
X124785714Y-116142857D01*
X124785714Y-116238095D01*
X124738095Y-116380952D01*
X124166666Y-116952380D01*
X124785714Y-116952380D01*
%TO.C,R1*%
X123533333Y-115352380D02*
X123200000Y-114876190D01*
X122961904Y-115352380D02*
X122961904Y-114352380D01*
X123342857Y-114352380D01*
X123438095Y-114400000D01*
X123485714Y-114447619D01*
X123533333Y-114542857D01*
X123533333Y-114685714D01*
X123485714Y-114780952D01*
X123438095Y-114828571D01*
X123342857Y-114876190D01*
X122961904Y-114876190D01*
X124485714Y-115352380D02*
X123914285Y-115352380D01*
X124200000Y-115352380D02*
X124200000Y-114352380D01*
X124104761Y-114495238D01*
X124009523Y-114590476D01*
X123914285Y-114638095D01*
%TO.C,Q16*%
X158828571Y-115947619D02*
X158733333Y-115900000D01*
X158638095Y-115804761D01*
X158495238Y-115661904D01*
X158400000Y-115614285D01*
X158304761Y-115614285D01*
X158352380Y-115852380D02*
X158257142Y-115804761D01*
X158161904Y-115709523D01*
X158114285Y-115519047D01*
X158114285Y-115185714D01*
X158161904Y-114995238D01*
X158257142Y-114900000D01*
X158352380Y-114852380D01*
X158542857Y-114852380D01*
X158638095Y-114900000D01*
X158733333Y-114995238D01*
X158780952Y-115185714D01*
X158780952Y-115519047D01*
X158733333Y-115709523D01*
X158638095Y-115804761D01*
X158542857Y-115852380D01*
X158352380Y-115852380D01*
X159733333Y-115852380D02*
X159161904Y-115852380D01*
X159447619Y-115852380D02*
X159447619Y-114852380D01*
X159352380Y-114995238D01*
X159257142Y-115090476D01*
X159161904Y-115138095D01*
X160590476Y-114852380D02*
X160400000Y-114852380D01*
X160304761Y-114900000D01*
X160257142Y-114947619D01*
X160161904Y-115090476D01*
X160114285Y-115280952D01*
X160114285Y-115661904D01*
X160161904Y-115757142D01*
X160209523Y-115804761D01*
X160304761Y-115852380D01*
X160495238Y-115852380D01*
X160590476Y-115804761D01*
X160638095Y-115757142D01*
X160685714Y-115661904D01*
X160685714Y-115423809D01*
X160638095Y-115328571D01*
X160590476Y-115280952D01*
X160495238Y-115233333D01*
X160304761Y-115233333D01*
X160209523Y-115280952D01*
X160161904Y-115328571D01*
X160114285Y-115423809D01*
%TO.C,Q15*%
X156928571Y-117447619D02*
X156833333Y-117400000D01*
X156738095Y-117304761D01*
X156595238Y-117161904D01*
X156500000Y-117114285D01*
X156404761Y-117114285D01*
X156452380Y-117352380D02*
X156357142Y-117304761D01*
X156261904Y-117209523D01*
X156214285Y-117019047D01*
X156214285Y-116685714D01*
X156261904Y-116495238D01*
X156357142Y-116400000D01*
X156452380Y-116352380D01*
X156642857Y-116352380D01*
X156738095Y-116400000D01*
X156833333Y-116495238D01*
X156880952Y-116685714D01*
X156880952Y-117019047D01*
X156833333Y-117209523D01*
X156738095Y-117304761D01*
X156642857Y-117352380D01*
X156452380Y-117352380D01*
X157833333Y-117352380D02*
X157261904Y-117352380D01*
X157547619Y-117352380D02*
X157547619Y-116352380D01*
X157452380Y-116495238D01*
X157357142Y-116590476D01*
X157261904Y-116638095D01*
X158738095Y-116352380D02*
X158261904Y-116352380D01*
X158214285Y-116828571D01*
X158261904Y-116780952D01*
X158357142Y-116733333D01*
X158595238Y-116733333D01*
X158690476Y-116780952D01*
X158738095Y-116828571D01*
X158785714Y-116923809D01*
X158785714Y-117161904D01*
X158738095Y-117257142D01*
X158690476Y-117304761D01*
X158595238Y-117352380D01*
X158357142Y-117352380D01*
X158261904Y-117304761D01*
X158214285Y-117257142D01*
%TO.C,Q14*%
X150247619Y-86371428D02*
X150200000Y-86466666D01*
X150104761Y-86561904D01*
X149961904Y-86704761D01*
X149914285Y-86800000D01*
X149914285Y-86895238D01*
X150152380Y-86847619D02*
X150104761Y-86942857D01*
X150009523Y-87038095D01*
X149819047Y-87085714D01*
X149485714Y-87085714D01*
X149295238Y-87038095D01*
X149200000Y-86942857D01*
X149152380Y-86847619D01*
X149152380Y-86657142D01*
X149200000Y-86561904D01*
X149295238Y-86466666D01*
X149485714Y-86419047D01*
X149819047Y-86419047D01*
X150009523Y-86466666D01*
X150104761Y-86561904D01*
X150152380Y-86657142D01*
X150152380Y-86847619D01*
X150152380Y-85466666D02*
X150152380Y-86038095D01*
X150152380Y-85752380D02*
X149152380Y-85752380D01*
X149295238Y-85847619D01*
X149390476Y-85942857D01*
X149438095Y-86038095D01*
X149485714Y-84609523D02*
X150152380Y-84609523D01*
X149104761Y-84847619D02*
X149819047Y-85085714D01*
X149819047Y-84466666D01*
%TO.C,Q13*%
X152147619Y-93071428D02*
X152100000Y-93166666D01*
X152004761Y-93261904D01*
X151861904Y-93404761D01*
X151814285Y-93500000D01*
X151814285Y-93595238D01*
X152052380Y-93547619D02*
X152004761Y-93642857D01*
X151909523Y-93738095D01*
X151719047Y-93785714D01*
X151385714Y-93785714D01*
X151195238Y-93738095D01*
X151100000Y-93642857D01*
X151052380Y-93547619D01*
X151052380Y-93357142D01*
X151100000Y-93261904D01*
X151195238Y-93166666D01*
X151385714Y-93119047D01*
X151719047Y-93119047D01*
X151909523Y-93166666D01*
X152004761Y-93261904D01*
X152052380Y-93357142D01*
X152052380Y-93547619D01*
X152052380Y-92166666D02*
X152052380Y-92738095D01*
X152052380Y-92452380D02*
X151052380Y-92452380D01*
X151195238Y-92547619D01*
X151290476Y-92642857D01*
X151338095Y-92738095D01*
X151052380Y-91833333D02*
X151052380Y-91214285D01*
X151433333Y-91547619D01*
X151433333Y-91404761D01*
X151480952Y-91309523D01*
X151528571Y-91261904D01*
X151623809Y-91214285D01*
X151861904Y-91214285D01*
X151957142Y-91261904D01*
X152004761Y-91309523D01*
X152052380Y-91404761D01*
X152052380Y-91690476D01*
X152004761Y-91785714D01*
X151957142Y-91833333D01*
%TO.C,Q12*%
X121428571Y-95047619D02*
X121333333Y-95000000D01*
X121238095Y-94904761D01*
X121095238Y-94761904D01*
X121000000Y-94714285D01*
X120904761Y-94714285D01*
X120952380Y-94952380D02*
X120857142Y-94904761D01*
X120761904Y-94809523D01*
X120714285Y-94619047D01*
X120714285Y-94285714D01*
X120761904Y-94095238D01*
X120857142Y-94000000D01*
X120952380Y-93952380D01*
X121142857Y-93952380D01*
X121238095Y-94000000D01*
X121333333Y-94095238D01*
X121380952Y-94285714D01*
X121380952Y-94619047D01*
X121333333Y-94809523D01*
X121238095Y-94904761D01*
X121142857Y-94952380D01*
X120952380Y-94952380D01*
X122333333Y-94952380D02*
X121761904Y-94952380D01*
X122047619Y-94952380D02*
X122047619Y-93952380D01*
X121952380Y-94095238D01*
X121857142Y-94190476D01*
X121761904Y-94238095D01*
X122714285Y-94047619D02*
X122761904Y-94000000D01*
X122857142Y-93952380D01*
X123095238Y-93952380D01*
X123190476Y-94000000D01*
X123238095Y-94047619D01*
X123285714Y-94142857D01*
X123285714Y-94238095D01*
X123238095Y-94380952D01*
X122666666Y-94952380D01*
X123285714Y-94952380D01*
%TO.C,Q11*%
X129428571Y-94347619D02*
X129333333Y-94300000D01*
X129238095Y-94204761D01*
X129095238Y-94061904D01*
X129000000Y-94014285D01*
X128904761Y-94014285D01*
X128952380Y-94252380D02*
X128857142Y-94204761D01*
X128761904Y-94109523D01*
X128714285Y-93919047D01*
X128714285Y-93585714D01*
X128761904Y-93395238D01*
X128857142Y-93300000D01*
X128952380Y-93252380D01*
X129142857Y-93252380D01*
X129238095Y-93300000D01*
X129333333Y-93395238D01*
X129380952Y-93585714D01*
X129380952Y-93919047D01*
X129333333Y-94109523D01*
X129238095Y-94204761D01*
X129142857Y-94252380D01*
X128952380Y-94252380D01*
X130333333Y-94252380D02*
X129761904Y-94252380D01*
X130047619Y-94252380D02*
X130047619Y-93252380D01*
X129952380Y-93395238D01*
X129857142Y-93490476D01*
X129761904Y-93538095D01*
X131285714Y-94252380D02*
X130714285Y-94252380D01*
X131000000Y-94252380D02*
X131000000Y-93252380D01*
X130904761Y-93395238D01*
X130809523Y-93490476D01*
X130714285Y-93538095D01*
%TO.C,Q10*%
X130047619Y-123371428D02*
X130000000Y-123466666D01*
X129904761Y-123561904D01*
X129761904Y-123704761D01*
X129714285Y-123800000D01*
X129714285Y-123895238D01*
X129952380Y-123847619D02*
X129904761Y-123942857D01*
X129809523Y-124038095D01*
X129619047Y-124085714D01*
X129285714Y-124085714D01*
X129095238Y-124038095D01*
X129000000Y-123942857D01*
X128952380Y-123847619D01*
X128952380Y-123657142D01*
X129000000Y-123561904D01*
X129095238Y-123466666D01*
X129285714Y-123419047D01*
X129619047Y-123419047D01*
X129809523Y-123466666D01*
X129904761Y-123561904D01*
X129952380Y-123657142D01*
X129952380Y-123847619D01*
X129952380Y-122466666D02*
X129952380Y-123038095D01*
X129952380Y-122752380D02*
X128952380Y-122752380D01*
X129095238Y-122847619D01*
X129190476Y-122942857D01*
X129238095Y-123038095D01*
X128952380Y-121847619D02*
X128952380Y-121752380D01*
X129000000Y-121657142D01*
X129047619Y-121609523D01*
X129142857Y-121561904D01*
X129333333Y-121514285D01*
X129571428Y-121514285D01*
X129761904Y-121561904D01*
X129857142Y-121609523D01*
X129904761Y-121657142D01*
X129952380Y-121752380D01*
X129952380Y-121847619D01*
X129904761Y-121942857D01*
X129857142Y-121990476D01*
X129761904Y-122038095D01*
X129571428Y-122085714D01*
X129333333Y-122085714D01*
X129142857Y-122038095D01*
X129047619Y-121990476D01*
X129000000Y-121942857D01*
X128952380Y-121847619D01*
%TO.C,Q9*%
X129447619Y-116095238D02*
X129400000Y-116190476D01*
X129304761Y-116285714D01*
X129161904Y-116428571D01*
X129114285Y-116523809D01*
X129114285Y-116619047D01*
X129352380Y-116571428D02*
X129304761Y-116666666D01*
X129209523Y-116761904D01*
X129019047Y-116809523D01*
X128685714Y-116809523D01*
X128495238Y-116761904D01*
X128400000Y-116666666D01*
X128352380Y-116571428D01*
X128352380Y-116380952D01*
X128400000Y-116285714D01*
X128495238Y-116190476D01*
X128685714Y-116142857D01*
X129019047Y-116142857D01*
X129209523Y-116190476D01*
X129304761Y-116285714D01*
X129352380Y-116380952D01*
X129352380Y-116571428D01*
X129352380Y-115666666D02*
X129352380Y-115476190D01*
X129304761Y-115380952D01*
X129257142Y-115333333D01*
X129114285Y-115238095D01*
X128923809Y-115190476D01*
X128542857Y-115190476D01*
X128447619Y-115238095D01*
X128400000Y-115285714D01*
X128352380Y-115380952D01*
X128352380Y-115571428D01*
X128400000Y-115666666D01*
X128447619Y-115714285D01*
X128542857Y-115761904D01*
X128780952Y-115761904D01*
X128876190Y-115714285D01*
X128923809Y-115666666D01*
X128971428Y-115571428D01*
X128971428Y-115380952D01*
X128923809Y-115285714D01*
X128876190Y-115238095D01*
X128780952Y-115190476D01*
%TO.C,Q8*%
X151847619Y-123895238D02*
X151800000Y-123990476D01*
X151704761Y-124085714D01*
X151561904Y-124228571D01*
X151514285Y-124323809D01*
X151514285Y-124419047D01*
X151752380Y-124371428D02*
X151704761Y-124466666D01*
X151609523Y-124561904D01*
X151419047Y-124609523D01*
X151085714Y-124609523D01*
X150895238Y-124561904D01*
X150800000Y-124466666D01*
X150752380Y-124371428D01*
X150752380Y-124180952D01*
X150800000Y-124085714D01*
X150895238Y-123990476D01*
X151085714Y-123942857D01*
X151419047Y-123942857D01*
X151609523Y-123990476D01*
X151704761Y-124085714D01*
X151752380Y-124180952D01*
X151752380Y-124371428D01*
X151180952Y-123371428D02*
X151133333Y-123466666D01*
X151085714Y-123514285D01*
X150990476Y-123561904D01*
X150942857Y-123561904D01*
X150847619Y-123514285D01*
X150800000Y-123466666D01*
X150752380Y-123371428D01*
X150752380Y-123180952D01*
X150800000Y-123085714D01*
X150847619Y-123038095D01*
X150942857Y-122990476D01*
X150990476Y-122990476D01*
X151085714Y-123038095D01*
X151133333Y-123085714D01*
X151180952Y-123180952D01*
X151180952Y-123371428D01*
X151228571Y-123466666D01*
X151276190Y-123514285D01*
X151371428Y-123561904D01*
X151561904Y-123561904D01*
X151657142Y-123514285D01*
X151704761Y-123466666D01*
X151752380Y-123371428D01*
X151752380Y-123180952D01*
X151704761Y-123085714D01*
X151657142Y-123038095D01*
X151561904Y-122990476D01*
X151371428Y-122990476D01*
X151276190Y-123038095D01*
X151228571Y-123085714D01*
X151180952Y-123180952D01*
%TO.C,Q7*%
X139347619Y-118995238D02*
X139300000Y-119090476D01*
X139204761Y-119185714D01*
X139061904Y-119328571D01*
X139014285Y-119423809D01*
X139014285Y-119519047D01*
X139252380Y-119471428D02*
X139204761Y-119566666D01*
X139109523Y-119661904D01*
X138919047Y-119709523D01*
X138585714Y-119709523D01*
X138395238Y-119661904D01*
X138300000Y-119566666D01*
X138252380Y-119471428D01*
X138252380Y-119280952D01*
X138300000Y-119185714D01*
X138395238Y-119090476D01*
X138585714Y-119042857D01*
X138919047Y-119042857D01*
X139109523Y-119090476D01*
X139204761Y-119185714D01*
X139252380Y-119280952D01*
X139252380Y-119471428D01*
X138252380Y-118709523D02*
X138252380Y-118042857D01*
X139252380Y-118471428D01*
%TO.C,Q6*%
X158104761Y-106147619D02*
X158009523Y-106100000D01*
X157914285Y-106004761D01*
X157771428Y-105861904D01*
X157676190Y-105814285D01*
X157580952Y-105814285D01*
X157628571Y-106052380D02*
X157533333Y-106004761D01*
X157438095Y-105909523D01*
X157390476Y-105719047D01*
X157390476Y-105385714D01*
X157438095Y-105195238D01*
X157533333Y-105100000D01*
X157628571Y-105052380D01*
X157819047Y-105052380D01*
X157914285Y-105100000D01*
X158009523Y-105195238D01*
X158057142Y-105385714D01*
X158057142Y-105719047D01*
X158009523Y-105909523D01*
X157914285Y-106004761D01*
X157819047Y-106052380D01*
X157628571Y-106052380D01*
X158914285Y-105052380D02*
X158723809Y-105052380D01*
X158628571Y-105100000D01*
X158580952Y-105147619D01*
X158485714Y-105290476D01*
X158438095Y-105480952D01*
X158438095Y-105861904D01*
X158485714Y-105957142D01*
X158533333Y-106004761D01*
X158628571Y-106052380D01*
X158819047Y-106052380D01*
X158914285Y-106004761D01*
X158961904Y-105957142D01*
X159009523Y-105861904D01*
X159009523Y-105623809D01*
X158961904Y-105528571D01*
X158914285Y-105480952D01*
X158819047Y-105433333D01*
X158628571Y-105433333D01*
X158533333Y-105480952D01*
X158485714Y-105528571D01*
X158438095Y-105623809D01*
%TO.C,Q5*%
X158404761Y-103447619D02*
X158309523Y-103400000D01*
X158214285Y-103304761D01*
X158071428Y-103161904D01*
X157976190Y-103114285D01*
X157880952Y-103114285D01*
X157928571Y-103352380D02*
X157833333Y-103304761D01*
X157738095Y-103209523D01*
X157690476Y-103019047D01*
X157690476Y-102685714D01*
X157738095Y-102495238D01*
X157833333Y-102400000D01*
X157928571Y-102352380D01*
X158119047Y-102352380D01*
X158214285Y-102400000D01*
X158309523Y-102495238D01*
X158357142Y-102685714D01*
X158357142Y-103019047D01*
X158309523Y-103209523D01*
X158214285Y-103304761D01*
X158119047Y-103352380D01*
X157928571Y-103352380D01*
X159261904Y-102352380D02*
X158785714Y-102352380D01*
X158738095Y-102828571D01*
X158785714Y-102780952D01*
X158880952Y-102733333D01*
X159119047Y-102733333D01*
X159214285Y-102780952D01*
X159261904Y-102828571D01*
X159309523Y-102923809D01*
X159309523Y-103161904D01*
X159261904Y-103257142D01*
X159214285Y-103304761D01*
X159119047Y-103352380D01*
X158880952Y-103352380D01*
X158785714Y-103304761D01*
X158738095Y-103257142D01*
%TO.C,Q4*%
X140847619Y-86395238D02*
X140800000Y-86490476D01*
X140704761Y-86585714D01*
X140561904Y-86728571D01*
X140514285Y-86823809D01*
X140514285Y-86919047D01*
X140752380Y-86871428D02*
X140704761Y-86966666D01*
X140609523Y-87061904D01*
X140419047Y-87109523D01*
X140085714Y-87109523D01*
X139895238Y-87061904D01*
X139800000Y-86966666D01*
X139752380Y-86871428D01*
X139752380Y-86680952D01*
X139800000Y-86585714D01*
X139895238Y-86490476D01*
X140085714Y-86442857D01*
X140419047Y-86442857D01*
X140609523Y-86490476D01*
X140704761Y-86585714D01*
X140752380Y-86680952D01*
X140752380Y-86871428D01*
X140085714Y-85585714D02*
X140752380Y-85585714D01*
X139704761Y-85823809D02*
X140419047Y-86061904D01*
X140419047Y-85442857D01*
%TO.C,Q3*%
X140804761Y-94847619D02*
X140709523Y-94800000D01*
X140614285Y-94704761D01*
X140471428Y-94561904D01*
X140376190Y-94514285D01*
X140280952Y-94514285D01*
X140328571Y-94752380D02*
X140233333Y-94704761D01*
X140138095Y-94609523D01*
X140090476Y-94419047D01*
X140090476Y-94085714D01*
X140138095Y-93895238D01*
X140233333Y-93800000D01*
X140328571Y-93752380D01*
X140519047Y-93752380D01*
X140614285Y-93800000D01*
X140709523Y-93895238D01*
X140757142Y-94085714D01*
X140757142Y-94419047D01*
X140709523Y-94609523D01*
X140614285Y-94704761D01*
X140519047Y-94752380D01*
X140328571Y-94752380D01*
X141090476Y-93752380D02*
X141709523Y-93752380D01*
X141376190Y-94133333D01*
X141519047Y-94133333D01*
X141614285Y-94180952D01*
X141661904Y-94228571D01*
X141709523Y-94323809D01*
X141709523Y-94561904D01*
X141661904Y-94657142D01*
X141614285Y-94704761D01*
X141519047Y-94752380D01*
X141233333Y-94752380D01*
X141138095Y-94704761D01*
X141090476Y-94657142D01*
%TO.C,Q2*%
X121904761Y-106647619D02*
X121809523Y-106600000D01*
X121714285Y-106504761D01*
X121571428Y-106361904D01*
X121476190Y-106314285D01*
X121380952Y-106314285D01*
X121428571Y-106552380D02*
X121333333Y-106504761D01*
X121238095Y-106409523D01*
X121190476Y-106219047D01*
X121190476Y-105885714D01*
X121238095Y-105695238D01*
X121333333Y-105600000D01*
X121428571Y-105552380D01*
X121619047Y-105552380D01*
X121714285Y-105600000D01*
X121809523Y-105695238D01*
X121857142Y-105885714D01*
X121857142Y-106219047D01*
X121809523Y-106409523D01*
X121714285Y-106504761D01*
X121619047Y-106552380D01*
X121428571Y-106552380D01*
X122238095Y-105647619D02*
X122285714Y-105600000D01*
X122380952Y-105552380D01*
X122619047Y-105552380D01*
X122714285Y-105600000D01*
X122761904Y-105647619D01*
X122809523Y-105742857D01*
X122809523Y-105838095D01*
X122761904Y-105980952D01*
X122190476Y-106552380D01*
X122809523Y-106552380D01*
%TO.C,Q1*%
X127047619Y-103095238D02*
X127000000Y-103190476D01*
X126904761Y-103285714D01*
X126761904Y-103428571D01*
X126714285Y-103523809D01*
X126714285Y-103619047D01*
X126952380Y-103571428D02*
X126904761Y-103666666D01*
X126809523Y-103761904D01*
X126619047Y-103809523D01*
X126285714Y-103809523D01*
X126095238Y-103761904D01*
X126000000Y-103666666D01*
X125952380Y-103571428D01*
X125952380Y-103380952D01*
X126000000Y-103285714D01*
X126095238Y-103190476D01*
X126285714Y-103142857D01*
X126619047Y-103142857D01*
X126809523Y-103190476D01*
X126904761Y-103285714D01*
X126952380Y-103380952D01*
X126952380Y-103571428D01*
X126952380Y-102190476D02*
X126952380Y-102761904D01*
X126952380Y-102476190D02*
X125952380Y-102476190D01*
X126095238Y-102571428D01*
X126190476Y-102666666D01*
X126238095Y-102761904D01*
%TO.C,L8*%
X162433333Y-104952380D02*
X161957142Y-104952380D01*
X161957142Y-103952380D01*
X162909523Y-104380952D02*
X162814285Y-104333333D01*
X162766666Y-104285714D01*
X162719047Y-104190476D01*
X162719047Y-104142857D01*
X162766666Y-104047619D01*
X162814285Y-104000000D01*
X162909523Y-103952380D01*
X163100000Y-103952380D01*
X163195238Y-104000000D01*
X163242857Y-104047619D01*
X163290476Y-104142857D01*
X163290476Y-104190476D01*
X163242857Y-104285714D01*
X163195238Y-104333333D01*
X163100000Y-104380952D01*
X162909523Y-104380952D01*
X162814285Y-104428571D01*
X162766666Y-104476190D01*
X162719047Y-104571428D01*
X162719047Y-104761904D01*
X162766666Y-104857142D01*
X162814285Y-104904761D01*
X162909523Y-104952380D01*
X163100000Y-104952380D01*
X163195238Y-104904761D01*
X163242857Y-104857142D01*
X163290476Y-104761904D01*
X163290476Y-104571428D01*
X163242857Y-104476190D01*
X163195238Y-104428571D01*
X163100000Y-104380952D01*
%TO.C,L7*%
X148752380Y-84666666D02*
X148752380Y-85142857D01*
X147752380Y-85142857D01*
X147752380Y-84428571D02*
X147752380Y-83761904D01*
X148752380Y-84190476D01*
%TO.C,L6*%
X121833333Y-103852380D02*
X121357142Y-103852380D01*
X121357142Y-102852380D01*
X122595238Y-102852380D02*
X122404761Y-102852380D01*
X122309523Y-102900000D01*
X122261904Y-102947619D01*
X122166666Y-103090476D01*
X122119047Y-103280952D01*
X122119047Y-103661904D01*
X122166666Y-103757142D01*
X122214285Y-103804761D01*
X122309523Y-103852380D01*
X122500000Y-103852380D01*
X122595238Y-103804761D01*
X122642857Y-103757142D01*
X122690476Y-103661904D01*
X122690476Y-103423809D01*
X122642857Y-103328571D01*
X122595238Y-103280952D01*
X122500000Y-103233333D01*
X122309523Y-103233333D01*
X122214285Y-103280952D01*
X122166666Y-103328571D01*
X122119047Y-103423809D01*
%TO.C,L5*%
X132952380Y-125066666D02*
X132952380Y-125542857D01*
X131952380Y-125542857D01*
X131952380Y-124257142D02*
X131952380Y-124733333D01*
X132428571Y-124780952D01*
X132380952Y-124733333D01*
X132333333Y-124638095D01*
X132333333Y-124400000D01*
X132380952Y-124304761D01*
X132428571Y-124257142D01*
X132523809Y-124209523D01*
X132761904Y-124209523D01*
X132857142Y-124257142D01*
X132904761Y-124304761D01*
X132952380Y-124400000D01*
X132952380Y-124638095D01*
X132904761Y-124733333D01*
X132857142Y-124780952D01*
%TO.C,L4*%
X153152380Y-123266666D02*
X153152380Y-123742857D01*
X152152380Y-123742857D01*
X152485714Y-122504761D02*
X153152380Y-122504761D01*
X152104761Y-122742857D02*
X152819047Y-122980952D01*
X152819047Y-122361904D01*
%TO.C,L3*%
X162333333Y-103652380D02*
X161857142Y-103652380D01*
X161857142Y-102652380D01*
X162571428Y-102652380D02*
X163190476Y-102652380D01*
X162857142Y-103033333D01*
X163000000Y-103033333D01*
X163095238Y-103080952D01*
X163142857Y-103128571D01*
X163190476Y-103223809D01*
X163190476Y-103461904D01*
X163142857Y-103557142D01*
X163095238Y-103604761D01*
X163000000Y-103652380D01*
X162714285Y-103652380D01*
X162619047Y-103604761D01*
X162571428Y-103557142D01*
%TO.C,L2*%
X131352380Y-87266666D02*
X131352380Y-87742857D01*
X130352380Y-87742857D01*
X130447619Y-86980952D02*
X130400000Y-86933333D01*
X130352380Y-86838095D01*
X130352380Y-86600000D01*
X130400000Y-86504761D01*
X130447619Y-86457142D01*
X130542857Y-86409523D01*
X130638095Y-86409523D01*
X130780952Y-86457142D01*
X131352380Y-87028571D01*
X131352380Y-86409523D01*
%TO.C,L1*%
X122133333Y-113752380D02*
X121657142Y-113752380D01*
X121657142Y-112752380D01*
X122990476Y-113752380D02*
X122419047Y-113752380D01*
X122704761Y-113752380D02*
X122704761Y-112752380D01*
X122609523Y-112895238D01*
X122514285Y-112990476D01*
X122419047Y-113038095D01*
%TO.C,J8*%
X162166666Y-106452380D02*
X162166666Y-107166666D01*
X162119047Y-107309523D01*
X162023809Y-107404761D01*
X161880952Y-107452380D01*
X161785714Y-107452380D01*
X162785714Y-106880952D02*
X162690476Y-106833333D01*
X162642857Y-106785714D01*
X162595238Y-106690476D01*
X162595238Y-106642857D01*
X162642857Y-106547619D01*
X162690476Y-106500000D01*
X162785714Y-106452380D01*
X162976190Y-106452380D01*
X163071428Y-106500000D01*
X163119047Y-106547619D01*
X163166666Y-106642857D01*
X163166666Y-106690476D01*
X163119047Y-106785714D01*
X163071428Y-106833333D01*
X162976190Y-106880952D01*
X162785714Y-106880952D01*
X162690476Y-106928571D01*
X162642857Y-106976190D01*
X162595238Y-107071428D01*
X162595238Y-107261904D01*
X162642857Y-107357142D01*
X162690476Y-107404761D01*
X162785714Y-107452380D01*
X162976190Y-107452380D01*
X163071428Y-107404761D01*
X163119047Y-107357142D01*
X163166666Y-107261904D01*
X163166666Y-107071428D01*
X163119047Y-106976190D01*
X163071428Y-106928571D01*
X162976190Y-106880952D01*
%TO.C,J7*%
X141466666Y-84652380D02*
X141466666Y-85366666D01*
X141419047Y-85509523D01*
X141323809Y-85604761D01*
X141180952Y-85652380D01*
X141085714Y-85652380D01*
X141847619Y-84652380D02*
X142514285Y-84652380D01*
X142085714Y-85652380D01*
%TO.C,J6*%
X118766666Y-102852380D02*
X118766666Y-103566666D01*
X118719047Y-103709523D01*
X118623809Y-103804761D01*
X118480952Y-103852380D01*
X118385714Y-103852380D01*
X119671428Y-102852380D02*
X119480952Y-102852380D01*
X119385714Y-102900000D01*
X119338095Y-102947619D01*
X119242857Y-103090476D01*
X119195238Y-103280952D01*
X119195238Y-103661904D01*
X119242857Y-103757142D01*
X119290476Y-103804761D01*
X119385714Y-103852380D01*
X119576190Y-103852380D01*
X119671428Y-103804761D01*
X119719047Y-103757142D01*
X119766666Y-103661904D01*
X119766666Y-103423809D01*
X119719047Y-103328571D01*
X119671428Y-103280952D01*
X119576190Y-103233333D01*
X119385714Y-103233333D01*
X119290476Y-103280952D01*
X119242857Y-103328571D01*
X119195238Y-103423809D01*
%TO.C,J5*%
X138952380Y-125833333D02*
X139666666Y-125833333D01*
X139809523Y-125880952D01*
X139904761Y-125976190D01*
X139952380Y-126119047D01*
X139952380Y-126214285D01*
X138952380Y-124880952D02*
X138952380Y-125357142D01*
X139428571Y-125404761D01*
X139380952Y-125357142D01*
X139333333Y-125261904D01*
X139333333Y-125023809D01*
X139380952Y-124928571D01*
X139428571Y-124880952D01*
X139523809Y-124833333D01*
X139761904Y-124833333D01*
X139857142Y-124880952D01*
X139904761Y-124928571D01*
X139952380Y-125023809D01*
X139952380Y-125261904D01*
X139904761Y-125357142D01*
X139857142Y-125404761D01*
%TO.C,J4*%
X142252380Y-125833333D02*
X142966666Y-125833333D01*
X143109523Y-125880952D01*
X143204761Y-125976190D01*
X143252380Y-126119047D01*
X143252380Y-126214285D01*
X142585714Y-124928571D02*
X143252380Y-124928571D01*
X142204761Y-125166666D02*
X142919047Y-125404761D01*
X142919047Y-124785714D01*
%TO.C,J3*%
X160261666Y-96542380D02*
X160261666Y-97256666D01*
X160214047Y-97399523D01*
X160118809Y-97494761D01*
X159975952Y-97542380D01*
X159880714Y-97542380D01*
X160642619Y-96542380D02*
X161261666Y-96542380D01*
X160928333Y-96923333D01*
X161071190Y-96923333D01*
X161166428Y-96970952D01*
X161214047Y-97018571D01*
X161261666Y-97113809D01*
X161261666Y-97351904D01*
X161214047Y-97447142D01*
X161166428Y-97494761D01*
X161071190Y-97542380D01*
X160785476Y-97542380D01*
X160690238Y-97494761D01*
X160642619Y-97447142D01*
%TO.C,J2*%
X131766666Y-84252380D02*
X131766666Y-84966666D01*
X131719047Y-85109523D01*
X131623809Y-85204761D01*
X131480952Y-85252380D01*
X131385714Y-85252380D01*
X132195238Y-84347619D02*
X132242857Y-84300000D01*
X132338095Y-84252380D01*
X132576190Y-84252380D01*
X132671428Y-84300000D01*
X132719047Y-84347619D01*
X132766666Y-84442857D01*
X132766666Y-84538095D01*
X132719047Y-84680952D01*
X132147619Y-85252380D01*
X132766666Y-85252380D01*
%TO.C,J1*%
X120107186Y-112717834D02*
X120107186Y-113432120D01*
X120059567Y-113574977D01*
X119964329Y-113670215D01*
X119821472Y-113717834D01*
X119726234Y-113717834D01*
X121107186Y-113717834D02*
X120535758Y-113717834D01*
X120821472Y-113717834D02*
X120821472Y-112717834D01*
X120726234Y-112860692D01*
X120630996Y-112955930D01*
X120535758Y-113003549D01*
%TO.C,D15*%
X150885714Y-107852380D02*
X150885714Y-106852380D01*
X151123809Y-106852380D01*
X151266666Y-106900000D01*
X151361904Y-106995238D01*
X151409523Y-107090476D01*
X151457142Y-107280952D01*
X151457142Y-107423809D01*
X151409523Y-107614285D01*
X151361904Y-107709523D01*
X151266666Y-107804761D01*
X151123809Y-107852380D01*
X150885714Y-107852380D01*
X152409523Y-107852380D02*
X151838095Y-107852380D01*
X152123809Y-107852380D02*
X152123809Y-106852380D01*
X152028571Y-106995238D01*
X151933333Y-107090476D01*
X151838095Y-107138095D01*
X153314285Y-106852380D02*
X152838095Y-106852380D01*
X152790476Y-107328571D01*
X152838095Y-107280952D01*
X152933333Y-107233333D01*
X153171428Y-107233333D01*
X153266666Y-107280952D01*
X153314285Y-107328571D01*
X153361904Y-107423809D01*
X153361904Y-107661904D01*
X153314285Y-107757142D01*
X153266666Y-107804761D01*
X153171428Y-107852380D01*
X152933333Y-107852380D01*
X152838095Y-107804761D01*
X152790476Y-107757142D01*
%TO.C,D13*%
X142952380Y-94314285D02*
X141952380Y-94314285D01*
X141952380Y-94076190D01*
X142000000Y-93933333D01*
X142095238Y-93838095D01*
X142190476Y-93790476D01*
X142380952Y-93742857D01*
X142523809Y-93742857D01*
X142714285Y-93790476D01*
X142809523Y-93838095D01*
X142904761Y-93933333D01*
X142952380Y-94076190D01*
X142952380Y-94314285D01*
X142952380Y-92790476D02*
X142952380Y-93361904D01*
X142952380Y-93076190D02*
X141952380Y-93076190D01*
X142095238Y-93171428D01*
X142190476Y-93266666D01*
X142238095Y-93361904D01*
X141952380Y-92457142D02*
X141952380Y-91838095D01*
X142333333Y-92171428D01*
X142333333Y-92028571D01*
X142380952Y-91933333D01*
X142428571Y-91885714D01*
X142523809Y-91838095D01*
X142761904Y-91838095D01*
X142857142Y-91885714D01*
X142904761Y-91933333D01*
X142952380Y-92028571D01*
X142952380Y-92314285D01*
X142904761Y-92409523D01*
X142857142Y-92457142D01*
%TO.C,D11*%
X127535714Y-103252380D02*
X127535714Y-102252380D01*
X127773809Y-102252380D01*
X127916666Y-102300000D01*
X128011904Y-102395238D01*
X128059523Y-102490476D01*
X128107142Y-102680952D01*
X128107142Y-102823809D01*
X128059523Y-103014285D01*
X128011904Y-103109523D01*
X127916666Y-103204761D01*
X127773809Y-103252380D01*
X127535714Y-103252380D01*
X129059523Y-103252380D02*
X128488095Y-103252380D01*
X128773809Y-103252380D02*
X128773809Y-102252380D01*
X128678571Y-102395238D01*
X128583333Y-102490476D01*
X128488095Y-102538095D01*
X130011904Y-103252380D02*
X129440476Y-103252380D01*
X129726190Y-103252380D02*
X129726190Y-102252380D01*
X129630952Y-102395238D01*
X129535714Y-102490476D01*
X129440476Y-102538095D01*
%TO.C,D9*%
X139252380Y-117538095D02*
X138252380Y-117538095D01*
X138252380Y-117300000D01*
X138300000Y-117157142D01*
X138395238Y-117061904D01*
X138490476Y-117014285D01*
X138680952Y-116966666D01*
X138823809Y-116966666D01*
X139014285Y-117014285D01*
X139109523Y-117061904D01*
X139204761Y-117157142D01*
X139252380Y-117300000D01*
X139252380Y-117538095D01*
X139252380Y-116490476D02*
X139252380Y-116300000D01*
X139204761Y-116204761D01*
X139157142Y-116157142D01*
X139014285Y-116061904D01*
X138823809Y-116014285D01*
X138442857Y-116014285D01*
X138347619Y-116061904D01*
X138300000Y-116109523D01*
X138252380Y-116204761D01*
X138252380Y-116395238D01*
X138300000Y-116490476D01*
X138347619Y-116538095D01*
X138442857Y-116585714D01*
X138680952Y-116585714D01*
X138776190Y-116538095D01*
X138823809Y-116490476D01*
X138871428Y-116395238D01*
X138871428Y-116204761D01*
X138823809Y-116109523D01*
X138776190Y-116061904D01*
X138680952Y-116014285D01*
%TO.C,D7*%
X150061904Y-121052380D02*
X150061904Y-120052380D01*
X150300000Y-120052380D01*
X150442857Y-120100000D01*
X150538095Y-120195238D01*
X150585714Y-120290476D01*
X150633333Y-120480952D01*
X150633333Y-120623809D01*
X150585714Y-120814285D01*
X150538095Y-120909523D01*
X150442857Y-121004761D01*
X150300000Y-121052380D01*
X150061904Y-121052380D01*
X150966666Y-120052380D02*
X151633333Y-120052380D01*
X151204761Y-121052380D01*
%TO.C,D5*%
X154152380Y-95538095D02*
X153152380Y-95538095D01*
X153152380Y-95300000D01*
X153200000Y-95157142D01*
X153295238Y-95061904D01*
X153390476Y-95014285D01*
X153580952Y-94966666D01*
X153723809Y-94966666D01*
X153914285Y-95014285D01*
X154009523Y-95061904D01*
X154104761Y-95157142D01*
X154152380Y-95300000D01*
X154152380Y-95538095D01*
X153152380Y-94061904D02*
X153152380Y-94538095D01*
X153628571Y-94585714D01*
X153580952Y-94538095D01*
X153533333Y-94442857D01*
X153533333Y-94204761D01*
X153580952Y-94109523D01*
X153628571Y-94061904D01*
X153723809Y-94014285D01*
X153961904Y-94014285D01*
X154057142Y-94061904D01*
X154104761Y-94109523D01*
X154152380Y-94204761D01*
X154152380Y-94442857D01*
X154104761Y-94538095D01*
X154057142Y-94585714D01*
%TO.C,D3*%
X129561904Y-92052380D02*
X129561904Y-91052380D01*
X129800000Y-91052380D01*
X129942857Y-91100000D01*
X130038095Y-91195238D01*
X130085714Y-91290476D01*
X130133333Y-91480952D01*
X130133333Y-91623809D01*
X130085714Y-91814285D01*
X130038095Y-91909523D01*
X129942857Y-92004761D01*
X129800000Y-92052380D01*
X129561904Y-92052380D01*
X130466666Y-91052380D02*
X131085714Y-91052380D01*
X130752380Y-91433333D01*
X130895238Y-91433333D01*
X130990476Y-91480952D01*
X131038095Y-91528571D01*
X131085714Y-91623809D01*
X131085714Y-91861904D01*
X131038095Y-91957142D01*
X130990476Y-92004761D01*
X130895238Y-92052380D01*
X130609523Y-92052380D01*
X130514285Y-92004761D01*
X130466666Y-91957142D01*
%TO.C,D1*%
X129552380Y-114038095D02*
X128552380Y-114038095D01*
X128552380Y-113800000D01*
X128600000Y-113657142D01*
X128695238Y-113561904D01*
X128790476Y-113514285D01*
X128980952Y-113466666D01*
X129123809Y-113466666D01*
X129314285Y-113514285D01*
X129409523Y-113561904D01*
X129504761Y-113657142D01*
X129552380Y-113800000D01*
X129552380Y-114038095D01*
X129552380Y-112514285D02*
X129552380Y-113085714D01*
X129552380Y-112800000D02*
X128552380Y-112800000D01*
X128695238Y-112895238D01*
X128790476Y-112990476D01*
X128838095Y-113085714D01*
%TO.C,C16*%
X159657142Y-104757142D02*
X159609523Y-104804761D01*
X159466666Y-104852380D01*
X159371428Y-104852380D01*
X159228571Y-104804761D01*
X159133333Y-104709523D01*
X159085714Y-104614285D01*
X159038095Y-104423809D01*
X159038095Y-104280952D01*
X159085714Y-104090476D01*
X159133333Y-103995238D01*
X159228571Y-103900000D01*
X159371428Y-103852380D01*
X159466666Y-103852380D01*
X159609523Y-103900000D01*
X159657142Y-103947619D01*
X160609523Y-104852380D02*
X160038095Y-104852380D01*
X160323809Y-104852380D02*
X160323809Y-103852380D01*
X160228571Y-103995238D01*
X160133333Y-104090476D01*
X160038095Y-104138095D01*
X161466666Y-103852380D02*
X161276190Y-103852380D01*
X161180952Y-103900000D01*
X161133333Y-103947619D01*
X161038095Y-104090476D01*
X160990476Y-104280952D01*
X160990476Y-104661904D01*
X161038095Y-104757142D01*
X161085714Y-104804761D01*
X161180952Y-104852380D01*
X161371428Y-104852380D01*
X161466666Y-104804761D01*
X161514285Y-104757142D01*
X161561904Y-104661904D01*
X161561904Y-104423809D01*
X161514285Y-104328571D01*
X161466666Y-104280952D01*
X161371428Y-104233333D01*
X161180952Y-104233333D01*
X161085714Y-104280952D01*
X161038095Y-104328571D01*
X160990476Y-104423809D01*
%TO.C,C15*%
X150757142Y-116442857D02*
X150804761Y-116490476D01*
X150852380Y-116633333D01*
X150852380Y-116728571D01*
X150804761Y-116871428D01*
X150709523Y-116966666D01*
X150614285Y-117014285D01*
X150423809Y-117061904D01*
X150280952Y-117061904D01*
X150090476Y-117014285D01*
X149995238Y-116966666D01*
X149900000Y-116871428D01*
X149852380Y-116728571D01*
X149852380Y-116633333D01*
X149900000Y-116490476D01*
X149947619Y-116442857D01*
X150852380Y-115490476D02*
X150852380Y-116061904D01*
X150852380Y-115776190D02*
X149852380Y-115776190D01*
X149995238Y-115871428D01*
X150090476Y-115966666D01*
X150138095Y-116061904D01*
X149852380Y-114585714D02*
X149852380Y-115061904D01*
X150328571Y-115109523D01*
X150280952Y-115061904D01*
X150233333Y-114966666D01*
X150233333Y-114728571D01*
X150280952Y-114633333D01*
X150328571Y-114585714D01*
X150423809Y-114538095D01*
X150661904Y-114538095D01*
X150757142Y-114585714D01*
X150804761Y-114633333D01*
X150852380Y-114728571D01*
X150852380Y-114966666D01*
X150804761Y-115061904D01*
X150757142Y-115109523D01*
%TO.C,C14*%
X148257142Y-87342857D02*
X148304761Y-87390476D01*
X148352380Y-87533333D01*
X148352380Y-87628571D01*
X148304761Y-87771428D01*
X148209523Y-87866666D01*
X148114285Y-87914285D01*
X147923809Y-87961904D01*
X147780952Y-87961904D01*
X147590476Y-87914285D01*
X147495238Y-87866666D01*
X147400000Y-87771428D01*
X147352380Y-87628571D01*
X147352380Y-87533333D01*
X147400000Y-87390476D01*
X147447619Y-87342857D01*
X148352380Y-86390476D02*
X148352380Y-86961904D01*
X148352380Y-86676190D02*
X147352380Y-86676190D01*
X147495238Y-86771428D01*
X147590476Y-86866666D01*
X147638095Y-86961904D01*
X147685714Y-85533333D02*
X148352380Y-85533333D01*
X147304761Y-85771428D02*
X148019047Y-86009523D01*
X148019047Y-85390476D01*
%TO.C,C13*%
X148057142Y-96757142D02*
X148009523Y-96804761D01*
X147866666Y-96852380D01*
X147771428Y-96852380D01*
X147628571Y-96804761D01*
X147533333Y-96709523D01*
X147485714Y-96614285D01*
X147438095Y-96423809D01*
X147438095Y-96280952D01*
X147485714Y-96090476D01*
X147533333Y-95995238D01*
X147628571Y-95900000D01*
X147771428Y-95852380D01*
X147866666Y-95852380D01*
X148009523Y-95900000D01*
X148057142Y-95947619D01*
X149009523Y-96852380D02*
X148438095Y-96852380D01*
X148723809Y-96852380D02*
X148723809Y-95852380D01*
X148628571Y-95995238D01*
X148533333Y-96090476D01*
X148438095Y-96138095D01*
X149342857Y-95852380D02*
X149961904Y-95852380D01*
X149628571Y-96233333D01*
X149771428Y-96233333D01*
X149866666Y-96280952D01*
X149914285Y-96328571D01*
X149961904Y-96423809D01*
X149961904Y-96661904D01*
X149914285Y-96757142D01*
X149866666Y-96804761D01*
X149771428Y-96852380D01*
X149485714Y-96852380D01*
X149390476Y-96804761D01*
X149342857Y-96757142D01*
%TO.C,C12*%
X120457142Y-105157142D02*
X120409523Y-105204761D01*
X120266666Y-105252380D01*
X120171428Y-105252380D01*
X120028571Y-105204761D01*
X119933333Y-105109523D01*
X119885714Y-105014285D01*
X119838095Y-104823809D01*
X119838095Y-104680952D01*
X119885714Y-104490476D01*
X119933333Y-104395238D01*
X120028571Y-104300000D01*
X120171428Y-104252380D01*
X120266666Y-104252380D01*
X120409523Y-104300000D01*
X120457142Y-104347619D01*
X121409523Y-105252380D02*
X120838095Y-105252380D01*
X121123809Y-105252380D02*
X121123809Y-104252380D01*
X121028571Y-104395238D01*
X120933333Y-104490476D01*
X120838095Y-104538095D01*
X121790476Y-104347619D02*
X121838095Y-104300000D01*
X121933333Y-104252380D01*
X122171428Y-104252380D01*
X122266666Y-104300000D01*
X122314285Y-104347619D01*
X122361904Y-104442857D01*
X122361904Y-104538095D01*
X122314285Y-104680952D01*
X121742857Y-105252380D01*
X122361904Y-105252380D01*
%TO.C,C11*%
X132187142Y-98717857D02*
X132234761Y-98765476D01*
X132282380Y-98908333D01*
X132282380Y-99003571D01*
X132234761Y-99146428D01*
X132139523Y-99241666D01*
X132044285Y-99289285D01*
X131853809Y-99336904D01*
X131710952Y-99336904D01*
X131520476Y-99289285D01*
X131425238Y-99241666D01*
X131330000Y-99146428D01*
X131282380Y-99003571D01*
X131282380Y-98908333D01*
X131330000Y-98765476D01*
X131377619Y-98717857D01*
X132282380Y-97765476D02*
X132282380Y-98336904D01*
X132282380Y-98051190D02*
X131282380Y-98051190D01*
X131425238Y-98146428D01*
X131520476Y-98241666D01*
X131568095Y-98336904D01*
X132282380Y-96813095D02*
X132282380Y-97384523D01*
X132282380Y-97098809D02*
X131282380Y-97098809D01*
X131425238Y-97194047D01*
X131520476Y-97289285D01*
X131568095Y-97384523D01*
%TO.C,C10*%
X130757142Y-116442857D02*
X130804761Y-116490476D01*
X130852380Y-116633333D01*
X130852380Y-116728571D01*
X130804761Y-116871428D01*
X130709523Y-116966666D01*
X130614285Y-117014285D01*
X130423809Y-117061904D01*
X130280952Y-117061904D01*
X130090476Y-117014285D01*
X129995238Y-116966666D01*
X129900000Y-116871428D01*
X129852380Y-116728571D01*
X129852380Y-116633333D01*
X129900000Y-116490476D01*
X129947619Y-116442857D01*
X130852380Y-115490476D02*
X130852380Y-116061904D01*
X130852380Y-115776190D02*
X129852380Y-115776190D01*
X129995238Y-115871428D01*
X130090476Y-115966666D01*
X130138095Y-116061904D01*
X129852380Y-114871428D02*
X129852380Y-114776190D01*
X129900000Y-114680952D01*
X129947619Y-114633333D01*
X130042857Y-114585714D01*
X130233333Y-114538095D01*
X130471428Y-114538095D01*
X130661904Y-114585714D01*
X130757142Y-114633333D01*
X130804761Y-114680952D01*
X130852380Y-114776190D01*
X130852380Y-114871428D01*
X130804761Y-114966666D01*
X130757142Y-115014285D01*
X130661904Y-115061904D01*
X130471428Y-115109523D01*
X130233333Y-115109523D01*
X130042857Y-115061904D01*
X129947619Y-115014285D01*
X129900000Y-114966666D01*
X129852380Y-114871428D01*
%TO.C,C9*%
X133508333Y-114527142D02*
X133460714Y-114574761D01*
X133317857Y-114622380D01*
X133222619Y-114622380D01*
X133079761Y-114574761D01*
X132984523Y-114479523D01*
X132936904Y-114384285D01*
X132889285Y-114193809D01*
X132889285Y-114050952D01*
X132936904Y-113860476D01*
X132984523Y-113765238D01*
X133079761Y-113670000D01*
X133222619Y-113622380D01*
X133317857Y-113622380D01*
X133460714Y-113670000D01*
X133508333Y-113717619D01*
X133984523Y-114622380D02*
X134175000Y-114622380D01*
X134270238Y-114574761D01*
X134317857Y-114527142D01*
X134413095Y-114384285D01*
X134460714Y-114193809D01*
X134460714Y-113812857D01*
X134413095Y-113717619D01*
X134365476Y-113670000D01*
X134270238Y-113622380D01*
X134079761Y-113622380D01*
X133984523Y-113670000D01*
X133936904Y-113717619D01*
X133889285Y-113812857D01*
X133889285Y-114050952D01*
X133936904Y-114146190D01*
X133984523Y-114193809D01*
X134079761Y-114241428D01*
X134270238Y-114241428D01*
X134365476Y-114193809D01*
X134413095Y-114146190D01*
X134460714Y-114050952D01*
%TO.C,C8*%
X150257142Y-124566666D02*
X150304761Y-124614285D01*
X150352380Y-124757142D01*
X150352380Y-124852380D01*
X150304761Y-124995238D01*
X150209523Y-125090476D01*
X150114285Y-125138095D01*
X149923809Y-125185714D01*
X149780952Y-125185714D01*
X149590476Y-125138095D01*
X149495238Y-125090476D01*
X149400000Y-124995238D01*
X149352380Y-124852380D01*
X149352380Y-124757142D01*
X149400000Y-124614285D01*
X149447619Y-124566666D01*
X149780952Y-123995238D02*
X149733333Y-124090476D01*
X149685714Y-124138095D01*
X149590476Y-124185714D01*
X149542857Y-124185714D01*
X149447619Y-124138095D01*
X149400000Y-124090476D01*
X149352380Y-123995238D01*
X149352380Y-123804761D01*
X149400000Y-123709523D01*
X149447619Y-123661904D01*
X149542857Y-123614285D01*
X149590476Y-123614285D01*
X149685714Y-123661904D01*
X149733333Y-123709523D01*
X149780952Y-123804761D01*
X149780952Y-123995238D01*
X149828571Y-124090476D01*
X149876190Y-124138095D01*
X149971428Y-124185714D01*
X150161904Y-124185714D01*
X150257142Y-124138095D01*
X150304761Y-124090476D01*
X150352380Y-123995238D01*
X150352380Y-123804761D01*
X150304761Y-123709523D01*
X150257142Y-123661904D01*
X150161904Y-123614285D01*
X149971428Y-123614285D01*
X149876190Y-123661904D01*
X149828571Y-123709523D01*
X149780952Y-123804761D01*
%TO.C,C7*%
X150633333Y-119457142D02*
X150585714Y-119504761D01*
X150442857Y-119552380D01*
X150347619Y-119552380D01*
X150204761Y-119504761D01*
X150109523Y-119409523D01*
X150061904Y-119314285D01*
X150014285Y-119123809D01*
X150014285Y-118980952D01*
X150061904Y-118790476D01*
X150109523Y-118695238D01*
X150204761Y-118600000D01*
X150347619Y-118552380D01*
X150442857Y-118552380D01*
X150585714Y-118600000D01*
X150633333Y-118647619D01*
X150966666Y-118552380D02*
X151633333Y-118552380D01*
X151204761Y-119552380D01*
%TO.C,C6*%
X156233333Y-94957142D02*
X156185714Y-95004761D01*
X156042857Y-95052380D01*
X155947619Y-95052380D01*
X155804761Y-95004761D01*
X155709523Y-94909523D01*
X155661904Y-94814285D01*
X155614285Y-94623809D01*
X155614285Y-94480952D01*
X155661904Y-94290476D01*
X155709523Y-94195238D01*
X155804761Y-94100000D01*
X155947619Y-94052380D01*
X156042857Y-94052380D01*
X156185714Y-94100000D01*
X156233333Y-94147619D01*
X157090476Y-94052380D02*
X156900000Y-94052380D01*
X156804761Y-94100000D01*
X156757142Y-94147619D01*
X156661904Y-94290476D01*
X156614285Y-94480952D01*
X156614285Y-94861904D01*
X156661904Y-94957142D01*
X156709523Y-95004761D01*
X156804761Y-95052380D01*
X156995238Y-95052380D01*
X157090476Y-95004761D01*
X157138095Y-94957142D01*
X157185714Y-94861904D01*
X157185714Y-94623809D01*
X157138095Y-94528571D01*
X157090476Y-94480952D01*
X156995238Y-94433333D01*
X156804761Y-94433333D01*
X156709523Y-94480952D01*
X156661904Y-94528571D01*
X156614285Y-94623809D01*
%TO.C,C5*%
X149957142Y-98366666D02*
X150004761Y-98414285D01*
X150052380Y-98557142D01*
X150052380Y-98652380D01*
X150004761Y-98795238D01*
X149909523Y-98890476D01*
X149814285Y-98938095D01*
X149623809Y-98985714D01*
X149480952Y-98985714D01*
X149290476Y-98938095D01*
X149195238Y-98890476D01*
X149100000Y-98795238D01*
X149052380Y-98652380D01*
X149052380Y-98557142D01*
X149100000Y-98414285D01*
X149147619Y-98366666D01*
X149052380Y-97461904D02*
X149052380Y-97938095D01*
X149528571Y-97985714D01*
X149480952Y-97938095D01*
X149433333Y-97842857D01*
X149433333Y-97604761D01*
X149480952Y-97509523D01*
X149528571Y-97461904D01*
X149623809Y-97414285D01*
X149861904Y-97414285D01*
X149957142Y-97461904D01*
X150004761Y-97509523D01*
X150052380Y-97604761D01*
X150052380Y-97842857D01*
X150004761Y-97938095D01*
X149957142Y-97985714D01*
%TO.C,C4*%
X130857142Y-89266666D02*
X130904761Y-89314285D01*
X130952380Y-89457142D01*
X130952380Y-89552380D01*
X130904761Y-89695238D01*
X130809523Y-89790476D01*
X130714285Y-89838095D01*
X130523809Y-89885714D01*
X130380952Y-89885714D01*
X130190476Y-89838095D01*
X130095238Y-89790476D01*
X130000000Y-89695238D01*
X129952380Y-89552380D01*
X129952380Y-89457142D01*
X130000000Y-89314285D01*
X130047619Y-89266666D01*
X130285714Y-88409523D02*
X130952380Y-88409523D01*
X129904761Y-88647619D02*
X130619047Y-88885714D01*
X130619047Y-88266666D01*
%TO.C,C3*%
X133333333Y-96957142D02*
X133285714Y-97004761D01*
X133142857Y-97052380D01*
X133047619Y-97052380D01*
X132904761Y-97004761D01*
X132809523Y-96909523D01*
X132761904Y-96814285D01*
X132714285Y-96623809D01*
X132714285Y-96480952D01*
X132761904Y-96290476D01*
X132809523Y-96195238D01*
X132904761Y-96100000D01*
X133047619Y-96052380D01*
X133142857Y-96052380D01*
X133285714Y-96100000D01*
X133333333Y-96147619D01*
X133666666Y-96052380D02*
X134285714Y-96052380D01*
X133952380Y-96433333D01*
X134095238Y-96433333D01*
X134190476Y-96480952D01*
X134238095Y-96528571D01*
X134285714Y-96623809D01*
X134285714Y-96861904D01*
X134238095Y-96957142D01*
X134190476Y-97004761D01*
X134095238Y-97052380D01*
X133809523Y-97052380D01*
X133714285Y-97004761D01*
X133666666Y-96957142D01*
%TO.C,C2*%
X121433333Y-115257142D02*
X121385714Y-115304761D01*
X121242857Y-115352380D01*
X121147619Y-115352380D01*
X121004761Y-115304761D01*
X120909523Y-115209523D01*
X120861904Y-115114285D01*
X120814285Y-114923809D01*
X120814285Y-114780952D01*
X120861904Y-114590476D01*
X120909523Y-114495238D01*
X121004761Y-114400000D01*
X121147619Y-114352380D01*
X121242857Y-114352380D01*
X121385714Y-114400000D01*
X121433333Y-114447619D01*
X121814285Y-114447619D02*
X121861904Y-114400000D01*
X121957142Y-114352380D01*
X122195238Y-114352380D01*
X122290476Y-114400000D01*
X122338095Y-114447619D01*
X122385714Y-114542857D01*
X122385714Y-114638095D01*
X122338095Y-114780952D01*
X121766666Y-115352380D01*
X122385714Y-115352380D01*
%TO.C,C1*%
X132157142Y-112466666D02*
X132204761Y-112514285D01*
X132252380Y-112657142D01*
X132252380Y-112752380D01*
X132204761Y-112895238D01*
X132109523Y-112990476D01*
X132014285Y-113038095D01*
X131823809Y-113085714D01*
X131680952Y-113085714D01*
X131490476Y-113038095D01*
X131395238Y-112990476D01*
X131300000Y-112895238D01*
X131252380Y-112752380D01*
X131252380Y-112657142D01*
X131300000Y-112514285D01*
X131347619Y-112466666D01*
X132252380Y-111514285D02*
X132252380Y-112085714D01*
X132252380Y-111800000D02*
X131252380Y-111800000D01*
X131395238Y-111895238D01*
X131490476Y-111990476D01*
X131538095Y-112085714D01*
%TD*%
M02*
