%TF.GenerationSoftware,KiCad,Pcbnew,5.1.7-a382d34a8~87~ubuntu20.04.1*%
%TF.CreationDate,2021-02-25T10:09:00+00:00*%
%TF.ProjectId,UFOPulse,55464f50-756c-4736-952e-6b696361645f,rev?*%
%TF.SameCoordinates,Original*%
%TF.FileFunction,Legend,Bot*%
%TF.FilePolarity,Positive*%
%FSLAX46Y46*%
G04 Gerber Fmt 4.6, Leading zero omitted, Abs format (unit mm)*
G04 Created by KiCad (PCBNEW 5.1.7-a382d34a8~87~ubuntu20.04.1) date 2021-02-25 10:09:00*
%MOMM*%
%LPD*%
G01*
G04 APERTURE LIST*
%ADD10C,0.120000*%
%ADD11C,0.150000*%
G04 APERTURE END LIST*
D10*
%TO.C,J10*%
X139135000Y-84710000D02*
X139135000Y-83907530D01*
X139135000Y-83292470D02*
X139135000Y-82490000D01*
X140340000Y-84710000D02*
X139135000Y-84710000D01*
X140340000Y-82490000D02*
X139135000Y-82490000D01*
X140340000Y-84710000D02*
X140340000Y-84163471D01*
X140340000Y-83036529D02*
X140340000Y-82490000D01*
X141100000Y-84710000D02*
X141860000Y-84710000D01*
X141860000Y-84710000D02*
X141860000Y-83600000D01*
%TO.C,J9*%
X135305000Y-117585000D02*
X135305000Y-121115000D01*
X145585000Y-117585000D02*
X145585000Y-121115000D01*
X135370000Y-116260000D02*
X135370000Y-117585000D01*
X135305000Y-117585000D02*
X135370000Y-117585000D01*
X135305000Y-121115000D02*
X135370000Y-121115000D01*
X145520000Y-117585000D02*
X145585000Y-117585000D01*
X145520000Y-121115000D02*
X145585000Y-121115000D01*
%TO.C,J10*%
D11*
X142247380Y-82790476D02*
X142961666Y-82790476D01*
X143104523Y-82742857D01*
X143199761Y-82647619D01*
X143247380Y-82504761D01*
X143247380Y-82409523D01*
X143247380Y-83790476D02*
X143247380Y-83219047D01*
X143247380Y-83504761D02*
X142247380Y-83504761D01*
X142390238Y-83409523D01*
X142485476Y-83314285D01*
X142533095Y-83219047D01*
X142247380Y-84409523D02*
X142247380Y-84504761D01*
X142295000Y-84600000D01*
X142342619Y-84647619D01*
X142437857Y-84695238D01*
X142628333Y-84742857D01*
X142866428Y-84742857D01*
X143056904Y-84695238D01*
X143152142Y-84647619D01*
X143199761Y-84600000D01*
X143247380Y-84504761D01*
X143247380Y-84409523D01*
X143199761Y-84314285D01*
X143152142Y-84266666D01*
X143056904Y-84219047D01*
X142866428Y-84171428D01*
X142628333Y-84171428D01*
X142437857Y-84219047D01*
X142342619Y-84266666D01*
X142295000Y-84314285D01*
X142247380Y-84409523D01*
%TO.C,J9*%
X133757380Y-119016666D02*
X134471666Y-119016666D01*
X134614523Y-118969047D01*
X134709761Y-118873809D01*
X134757380Y-118730952D01*
X134757380Y-118635714D01*
X134757380Y-119540476D02*
X134757380Y-119730952D01*
X134709761Y-119826190D01*
X134662142Y-119873809D01*
X134519285Y-119969047D01*
X134328809Y-120016666D01*
X133947857Y-120016666D01*
X133852619Y-119969047D01*
X133805000Y-119921428D01*
X133757380Y-119826190D01*
X133757380Y-119635714D01*
X133805000Y-119540476D01*
X133852619Y-119492857D01*
X133947857Y-119445238D01*
X134185952Y-119445238D01*
X134281190Y-119492857D01*
X134328809Y-119540476D01*
X134376428Y-119635714D01*
X134376428Y-119826190D01*
X134328809Y-119921428D01*
X134281190Y-119969047D01*
X134185952Y-120016666D01*
%TD*%
M02*
