M48
; DRILL file {KiCad 5.1.7-a382d34a8~87~ubuntu20.04.1} date Thu Feb 25 10:08:51 2021
; FORMAT={-:-/ absolute / inch / decimal}
; #@! TF.CreationDate,2021-02-25T10:08:51+00:00
; #@! TF.GenerationSoftware,Kicad,Pcbnew,5.1.7-a382d34a8~87~ubuntu20.04.1
; #@! TF.FileFunction,Plated,1,4,PTH
FMAT,2
INCH
T1C0.0157
T2C0.0256
%
G90
G05
T1
X4.6772Y-4.1299
X4.7362Y-4.0866
X4.7402Y-4.1732
X4.7677Y-3.752
X4.7874Y-4.5
X4.7992Y-4.126
X4.8346Y-3.6339
X4.8425Y-3.7047
X4.8425Y-4.6575
X4.8701Y-4.5591
X4.937Y-4.5039
X4.9409Y-3.5157
X4.9724Y-4.0906
X4.9882Y-4.0512
X5.0394Y-3.4252
X5.0551Y-4.811
X5.0945Y-4.5394
X5.1063Y-3.4646
X5.126Y-3.7087
X5.1378Y-4.8898
X5.1417Y-3.374
X5.1693Y-3.5276
X5.189Y-3.8622
X5.2047Y-4.4331
X5.2362Y-3.7283
X5.2835Y-4.4843
X5.4528Y-4.6969
X5.4725Y-4.9528
X5.5157Y-4.5748
X5.5315Y-4.9882
X5.5374Y-4.6949
X5.5827Y-4.9921
X5.5906Y-3.5709
X5.7402Y-4.6102
X5.7953Y-4.6063
X5.8189Y-3.8031
X5.8425Y-4.4488
X5.8622Y-3.3504
X5.9134Y-4.9094
X5.9409Y-3.8386
X5.9528Y-4.8268
X5.9803Y-3.4094
X6.0354Y-4.2087
X6.0551Y-4.815
X6.0866Y-3.4803
X6.0945Y-4.2087
X6.1299Y-3.7953
X6.1457Y-4.748
X6.2008Y-3.6339
X6.2008Y-3.7283
X6.2008Y-4.5866
X6.2126Y-4.6654
X6.2677Y-4.5787
X6.2795Y-4.0827
X6.2835Y-4.1654
X6.2953Y-3.748
X6.3189Y-3.7913
X6.3268Y-4.4606
X6.3622Y-4.0866
X6.3661Y-4.1693
T2
X5.5051Y-3.2913
X5.5551Y-3.2913
T0
M30
