%TF.GenerationSoftware,KiCad,Pcbnew,5.1.7-a382d34a8~87~ubuntu20.04.1*%
%TF.CreationDate,2021-02-25T10:09:00+00:00*%
%TF.ProjectId,UFOPulse,55464f50-756c-4736-952e-6b696361645f,rev?*%
%TF.SameCoordinates,Original*%
%TF.FileFunction,Soldermask,Top*%
%TF.FilePolarity,Negative*%
%FSLAX46Y46*%
G04 Gerber Fmt 4.6, Leading zero omitted, Abs format (unit mm)*
G04 Created by KiCad (PCBNEW 5.1.7-a382d34a8~87~ubuntu20.04.1) date 2021-02-25 10:09:00*
%MOMM*%
%LPD*%
G01*
G04 APERTURE LIST*
%ADD10O,1.000000X1.000000*%
%ADD11R,1.000000X1.000000*%
%ADD12R,0.900000X0.800000*%
%ADD13R,0.800000X0.900000*%
%ADD14R,2.200000X1.050000*%
%ADD15R,1.050000X1.000000*%
%ADD16R,1.050000X2.200000*%
%ADD17R,1.000000X1.050000*%
%ADD18R,0.900000X1.200000*%
%ADD19R,1.200000X0.900000*%
G04 APERTURE END LIST*
D10*
%TO.C,J10*%
X139830000Y-83600000D03*
D11*
X141100000Y-83600000D03*
%TD*%
%TO.C,R24*%
G36*
G01*
X156075000Y-111125000D02*
X156075000Y-111675000D01*
G75*
G02*
X155875000Y-111875000I-200000J0D01*
G01*
X155475000Y-111875000D01*
G75*
G02*
X155275000Y-111675000I0J200000D01*
G01*
X155275000Y-111125000D01*
G75*
G02*
X155475000Y-110925000I200000J0D01*
G01*
X155875000Y-110925000D01*
G75*
G02*
X156075000Y-111125000I0J-200000D01*
G01*
G37*
G36*
G01*
X157725000Y-111125000D02*
X157725000Y-111675000D01*
G75*
G02*
X157525000Y-111875000I-200000J0D01*
G01*
X157125000Y-111875000D01*
G75*
G02*
X156925000Y-111675000I0J200000D01*
G01*
X156925000Y-111125000D01*
G75*
G02*
X157125000Y-110925000I200000J0D01*
G01*
X157525000Y-110925000D01*
G75*
G02*
X157725000Y-111125000I0J-200000D01*
G01*
G37*
%TD*%
%TO.C,R23*%
G36*
G01*
X152550000Y-111125000D02*
X152550000Y-111675000D01*
G75*
G02*
X152350000Y-111875000I-200000J0D01*
G01*
X151950000Y-111875000D01*
G75*
G02*
X151750000Y-111675000I0J200000D01*
G01*
X151750000Y-111125000D01*
G75*
G02*
X151950000Y-110925000I200000J0D01*
G01*
X152350000Y-110925000D01*
G75*
G02*
X152550000Y-111125000I0J-200000D01*
G01*
G37*
G36*
G01*
X154200000Y-111125000D02*
X154200000Y-111675000D01*
G75*
G02*
X154000000Y-111875000I-200000J0D01*
G01*
X153600000Y-111875000D01*
G75*
G02*
X153400000Y-111675000I0J200000D01*
G01*
X153400000Y-111125000D01*
G75*
G02*
X153600000Y-110925000I200000J0D01*
G01*
X154000000Y-110925000D01*
G75*
G02*
X154200000Y-111125000I0J-200000D01*
G01*
G37*
%TD*%
%TO.C,R22*%
G36*
G01*
X156075000Y-106625000D02*
X156075000Y-107175000D01*
G75*
G02*
X155875000Y-107375000I-200000J0D01*
G01*
X155475000Y-107375000D01*
G75*
G02*
X155275000Y-107175000I0J200000D01*
G01*
X155275000Y-106625000D01*
G75*
G02*
X155475000Y-106425000I200000J0D01*
G01*
X155875000Y-106425000D01*
G75*
G02*
X156075000Y-106625000I0J-200000D01*
G01*
G37*
G36*
G01*
X157725000Y-106625000D02*
X157725000Y-107175000D01*
G75*
G02*
X157525000Y-107375000I-200000J0D01*
G01*
X157125000Y-107375000D01*
G75*
G02*
X156925000Y-107175000I0J200000D01*
G01*
X156925000Y-106625000D01*
G75*
G02*
X157125000Y-106425000I200000J0D01*
G01*
X157525000Y-106425000D01*
G75*
G02*
X157725000Y-106625000I0J-200000D01*
G01*
G37*
%TD*%
%TO.C,R21*%
G36*
G01*
X146225000Y-89225000D02*
X146775000Y-89225000D01*
G75*
G02*
X146975000Y-89425000I0J-200000D01*
G01*
X146975000Y-89825000D01*
G75*
G02*
X146775000Y-90025000I-200000J0D01*
G01*
X146225000Y-90025000D01*
G75*
G02*
X146025000Y-89825000I0J200000D01*
G01*
X146025000Y-89425000D01*
G75*
G02*
X146225000Y-89225000I200000J0D01*
G01*
G37*
G36*
G01*
X146225000Y-87575000D02*
X146775000Y-87575000D01*
G75*
G02*
X146975000Y-87775000I0J-200000D01*
G01*
X146975000Y-88175000D01*
G75*
G02*
X146775000Y-88375000I-200000J0D01*
G01*
X146225000Y-88375000D01*
G75*
G02*
X146025000Y-88175000I0J200000D01*
G01*
X146025000Y-87775000D01*
G75*
G02*
X146225000Y-87575000I200000J0D01*
G01*
G37*
%TD*%
%TO.C,R20*%
G36*
G01*
X146225000Y-92725000D02*
X146775000Y-92725000D01*
G75*
G02*
X146975000Y-92925000I0J-200000D01*
G01*
X146975000Y-93325000D01*
G75*
G02*
X146775000Y-93525000I-200000J0D01*
G01*
X146225000Y-93525000D01*
G75*
G02*
X146025000Y-93325000I0J200000D01*
G01*
X146025000Y-92925000D01*
G75*
G02*
X146225000Y-92725000I200000J0D01*
G01*
G37*
G36*
G01*
X146225000Y-91075000D02*
X146775000Y-91075000D01*
G75*
G02*
X146975000Y-91275000I0J-200000D01*
G01*
X146975000Y-91675000D01*
G75*
G02*
X146775000Y-91875000I-200000J0D01*
G01*
X146225000Y-91875000D01*
G75*
G02*
X146025000Y-91675000I0J200000D01*
G01*
X146025000Y-91275000D01*
G75*
G02*
X146225000Y-91075000I200000J0D01*
G01*
G37*
%TD*%
%TO.C,R19*%
G36*
G01*
X141725000Y-89225000D02*
X142275000Y-89225000D01*
G75*
G02*
X142475000Y-89425000I0J-200000D01*
G01*
X142475000Y-89825000D01*
G75*
G02*
X142275000Y-90025000I-200000J0D01*
G01*
X141725000Y-90025000D01*
G75*
G02*
X141525000Y-89825000I0J200000D01*
G01*
X141525000Y-89425000D01*
G75*
G02*
X141725000Y-89225000I200000J0D01*
G01*
G37*
G36*
G01*
X141725000Y-87575000D02*
X142275000Y-87575000D01*
G75*
G02*
X142475000Y-87775000I0J-200000D01*
G01*
X142475000Y-88175000D01*
G75*
G02*
X142275000Y-88375000I-200000J0D01*
G01*
X141725000Y-88375000D01*
G75*
G02*
X141525000Y-88175000I0J200000D01*
G01*
X141525000Y-87775000D01*
G75*
G02*
X141725000Y-87575000I200000J0D01*
G01*
G37*
%TD*%
%TO.C,R18*%
G36*
G01*
X124800000Y-99075000D02*
X124800000Y-98525000D01*
G75*
G02*
X125000000Y-98325000I200000J0D01*
G01*
X125400000Y-98325000D01*
G75*
G02*
X125600000Y-98525000I0J-200000D01*
G01*
X125600000Y-99075000D01*
G75*
G02*
X125400000Y-99275000I-200000J0D01*
G01*
X125000000Y-99275000D01*
G75*
G02*
X124800000Y-99075000I0J200000D01*
G01*
G37*
G36*
G01*
X123150000Y-99075000D02*
X123150000Y-98525000D01*
G75*
G02*
X123350000Y-98325000I200000J0D01*
G01*
X123750000Y-98325000D01*
G75*
G02*
X123950000Y-98525000I0J-200000D01*
G01*
X123950000Y-99075000D01*
G75*
G02*
X123750000Y-99275000I-200000J0D01*
G01*
X123350000Y-99275000D01*
G75*
G02*
X123150000Y-99075000I0J200000D01*
G01*
G37*
%TD*%
%TO.C,R17*%
G36*
G01*
X128300000Y-99075000D02*
X128300000Y-98525000D01*
G75*
G02*
X128500000Y-98325000I200000J0D01*
G01*
X128900000Y-98325000D01*
G75*
G02*
X129100000Y-98525000I0J-200000D01*
G01*
X129100000Y-99075000D01*
G75*
G02*
X128900000Y-99275000I-200000J0D01*
G01*
X128500000Y-99275000D01*
G75*
G02*
X128300000Y-99075000I0J200000D01*
G01*
G37*
G36*
G01*
X126650000Y-99075000D02*
X126650000Y-98525000D01*
G75*
G02*
X126850000Y-98325000I200000J0D01*
G01*
X127250000Y-98325000D01*
G75*
G02*
X127450000Y-98525000I0J-200000D01*
G01*
X127450000Y-99075000D01*
G75*
G02*
X127250000Y-99275000I-200000J0D01*
G01*
X126850000Y-99275000D01*
G75*
G02*
X126650000Y-99075000I0J200000D01*
G01*
G37*
%TD*%
%TO.C,R16*%
G36*
G01*
X124850000Y-103675000D02*
X124850000Y-103125000D01*
G75*
G02*
X125050000Y-102925000I200000J0D01*
G01*
X125450000Y-102925000D01*
G75*
G02*
X125650000Y-103125000I0J-200000D01*
G01*
X125650000Y-103675000D01*
G75*
G02*
X125450000Y-103875000I-200000J0D01*
G01*
X125050000Y-103875000D01*
G75*
G02*
X124850000Y-103675000I0J200000D01*
G01*
G37*
G36*
G01*
X123200000Y-103675000D02*
X123200000Y-103125000D01*
G75*
G02*
X123400000Y-102925000I200000J0D01*
G01*
X123800000Y-102925000D01*
G75*
G02*
X124000000Y-103125000I0J-200000D01*
G01*
X124000000Y-103675000D01*
G75*
G02*
X123800000Y-103875000I-200000J0D01*
G01*
X123400000Y-103875000D01*
G75*
G02*
X123200000Y-103675000I0J200000D01*
G01*
G37*
%TD*%
%TO.C,R15*%
G36*
G01*
X134675000Y-121100000D02*
X134125000Y-121100000D01*
G75*
G02*
X133925000Y-120900000I0J200000D01*
G01*
X133925000Y-120500000D01*
G75*
G02*
X134125000Y-120300000I200000J0D01*
G01*
X134675000Y-120300000D01*
G75*
G02*
X134875000Y-120500000I0J-200000D01*
G01*
X134875000Y-120900000D01*
G75*
G02*
X134675000Y-121100000I-200000J0D01*
G01*
G37*
G36*
G01*
X134675000Y-122750000D02*
X134125000Y-122750000D01*
G75*
G02*
X133925000Y-122550000I0J200000D01*
G01*
X133925000Y-122150000D01*
G75*
G02*
X134125000Y-121950000I200000J0D01*
G01*
X134675000Y-121950000D01*
G75*
G02*
X134875000Y-122150000I0J-200000D01*
G01*
X134875000Y-122550000D01*
G75*
G02*
X134675000Y-122750000I-200000J0D01*
G01*
G37*
%TD*%
%TO.C,R14*%
G36*
G01*
X134775000Y-117900000D02*
X134225000Y-117900000D01*
G75*
G02*
X134025000Y-117700000I0J200000D01*
G01*
X134025000Y-117300000D01*
G75*
G02*
X134225000Y-117100000I200000J0D01*
G01*
X134775000Y-117100000D01*
G75*
G02*
X134975000Y-117300000I0J-200000D01*
G01*
X134975000Y-117700000D01*
G75*
G02*
X134775000Y-117900000I-200000J0D01*
G01*
G37*
G36*
G01*
X134775000Y-119550000D02*
X134225000Y-119550000D01*
G75*
G02*
X134025000Y-119350000I0J200000D01*
G01*
X134025000Y-118950000D01*
G75*
G02*
X134225000Y-118750000I200000J0D01*
G01*
X134775000Y-118750000D01*
G75*
G02*
X134975000Y-118950000I0J-200000D01*
G01*
X134975000Y-119350000D01*
G75*
G02*
X134775000Y-119550000I-200000J0D01*
G01*
G37*
%TD*%
%TO.C,R13*%
G36*
G01*
X139175000Y-121075000D02*
X138625000Y-121075000D01*
G75*
G02*
X138425000Y-120875000I0J200000D01*
G01*
X138425000Y-120475000D01*
G75*
G02*
X138625000Y-120275000I200000J0D01*
G01*
X139175000Y-120275000D01*
G75*
G02*
X139375000Y-120475000I0J-200000D01*
G01*
X139375000Y-120875000D01*
G75*
G02*
X139175000Y-121075000I-200000J0D01*
G01*
G37*
G36*
G01*
X139175000Y-122725000D02*
X138625000Y-122725000D01*
G75*
G02*
X138425000Y-122525000I0J200000D01*
G01*
X138425000Y-122125000D01*
G75*
G02*
X138625000Y-121925000I200000J0D01*
G01*
X139175000Y-121925000D01*
G75*
G02*
X139375000Y-122125000I0J-200000D01*
G01*
X139375000Y-122525000D01*
G75*
G02*
X139175000Y-122725000I-200000J0D01*
G01*
G37*
%TD*%
%TO.C,R12*%
G36*
G01*
X144475000Y-121075000D02*
X143925000Y-121075000D01*
G75*
G02*
X143725000Y-120875000I0J200000D01*
G01*
X143725000Y-120475000D01*
G75*
G02*
X143925000Y-120275000I200000J0D01*
G01*
X144475000Y-120275000D01*
G75*
G02*
X144675000Y-120475000I0J-200000D01*
G01*
X144675000Y-120875000D01*
G75*
G02*
X144475000Y-121075000I-200000J0D01*
G01*
G37*
G36*
G01*
X144475000Y-122725000D02*
X143925000Y-122725000D01*
G75*
G02*
X143725000Y-122525000I0J200000D01*
G01*
X143725000Y-122125000D01*
G75*
G02*
X143925000Y-121925000I200000J0D01*
G01*
X144475000Y-121925000D01*
G75*
G02*
X144675000Y-122125000I0J-200000D01*
G01*
X144675000Y-122525000D01*
G75*
G02*
X144475000Y-122725000I-200000J0D01*
G01*
G37*
%TD*%
%TO.C,R11*%
G36*
G01*
X144475000Y-117575000D02*
X143925000Y-117575000D01*
G75*
G02*
X143725000Y-117375000I0J200000D01*
G01*
X143725000Y-116975000D01*
G75*
G02*
X143925000Y-116775000I200000J0D01*
G01*
X144475000Y-116775000D01*
G75*
G02*
X144675000Y-116975000I0J-200000D01*
G01*
X144675000Y-117375000D01*
G75*
G02*
X144475000Y-117575000I-200000J0D01*
G01*
G37*
G36*
G01*
X144475000Y-119225000D02*
X143925000Y-119225000D01*
G75*
G02*
X143725000Y-119025000I0J200000D01*
G01*
X143725000Y-118625000D01*
G75*
G02*
X143925000Y-118425000I200000J0D01*
G01*
X144475000Y-118425000D01*
G75*
G02*
X144675000Y-118625000I0J-200000D01*
G01*
X144675000Y-119025000D01*
G75*
G02*
X144475000Y-119225000I-200000J0D01*
G01*
G37*
%TD*%
%TO.C,R10*%
G36*
G01*
X148975001Y-121075000D02*
X148425001Y-121075000D01*
G75*
G02*
X148225001Y-120875000I0J200000D01*
G01*
X148225001Y-120475000D01*
G75*
G02*
X148425001Y-120275000I200000J0D01*
G01*
X148975001Y-120275000D01*
G75*
G02*
X149175001Y-120475000I0J-200000D01*
G01*
X149175001Y-120875000D01*
G75*
G02*
X148975001Y-121075000I-200000J0D01*
G01*
G37*
G36*
G01*
X148975001Y-122725000D02*
X148425001Y-122725000D01*
G75*
G02*
X148225001Y-122525000I0J200000D01*
G01*
X148225001Y-122125000D01*
G75*
G02*
X148425001Y-121925000I200000J0D01*
G01*
X148975001Y-121925000D01*
G75*
G02*
X149175001Y-122125000I0J-200000D01*
G01*
X149175001Y-122525000D01*
G75*
G02*
X148975001Y-122725000I-200000J0D01*
G01*
G37*
%TD*%
%TO.C,R9*%
G36*
G01*
X156100000Y-101525000D02*
X156100000Y-102075000D01*
G75*
G02*
X155900000Y-102275000I-200000J0D01*
G01*
X155500000Y-102275000D01*
G75*
G02*
X155300000Y-102075000I0J200000D01*
G01*
X155300000Y-101525000D01*
G75*
G02*
X155500000Y-101325000I200000J0D01*
G01*
X155900000Y-101325000D01*
G75*
G02*
X156100000Y-101525000I0J-200000D01*
G01*
G37*
G36*
G01*
X157750000Y-101525000D02*
X157750000Y-102075000D01*
G75*
G02*
X157550000Y-102275000I-200000J0D01*
G01*
X157150000Y-102275000D01*
G75*
G02*
X156950000Y-102075000I0J200000D01*
G01*
X156950000Y-101525000D01*
G75*
G02*
X157150000Y-101325000I200000J0D01*
G01*
X157550000Y-101325000D01*
G75*
G02*
X157750000Y-101525000I0J-200000D01*
G01*
G37*
%TD*%
%TO.C,R8*%
G36*
G01*
X152550000Y-101525000D02*
X152550000Y-102075000D01*
G75*
G02*
X152350000Y-102275000I-200000J0D01*
G01*
X151950000Y-102275000D01*
G75*
G02*
X151750000Y-102075000I0J200000D01*
G01*
X151750000Y-101525000D01*
G75*
G02*
X151950000Y-101325000I200000J0D01*
G01*
X152350000Y-101325000D01*
G75*
G02*
X152550000Y-101525000I0J-200000D01*
G01*
G37*
G36*
G01*
X154200000Y-101525000D02*
X154200000Y-102075000D01*
G75*
G02*
X154000000Y-102275000I-200000J0D01*
G01*
X153600000Y-102275000D01*
G75*
G02*
X153400000Y-102075000I0J200000D01*
G01*
X153400000Y-101525000D01*
G75*
G02*
X153600000Y-101325000I200000J0D01*
G01*
X154000000Y-101325000D01*
G75*
G02*
X154200000Y-101525000I0J-200000D01*
G01*
G37*
%TD*%
%TO.C,R7*%
G36*
G01*
X156075000Y-97025000D02*
X156075000Y-97575000D01*
G75*
G02*
X155875000Y-97775000I-200000J0D01*
G01*
X155475000Y-97775000D01*
G75*
G02*
X155275000Y-97575000I0J200000D01*
G01*
X155275000Y-97025000D01*
G75*
G02*
X155475000Y-96825000I200000J0D01*
G01*
X155875000Y-96825000D01*
G75*
G02*
X156075000Y-97025000I0J-200000D01*
G01*
G37*
G36*
G01*
X157725000Y-97025000D02*
X157725000Y-97575000D01*
G75*
G02*
X157525000Y-97775000I-200000J0D01*
G01*
X157125000Y-97775000D01*
G75*
G02*
X156925000Y-97575000I0J200000D01*
G01*
X156925000Y-97025000D01*
G75*
G02*
X157125000Y-96825000I200000J0D01*
G01*
X157525000Y-96825000D01*
G75*
G02*
X157725000Y-97025000I0J-200000D01*
G01*
G37*
%TD*%
%TO.C,R6*%
G36*
G01*
X136525001Y-89225000D02*
X137075001Y-89225000D01*
G75*
G02*
X137275001Y-89425000I0J-200000D01*
G01*
X137275001Y-89825000D01*
G75*
G02*
X137075001Y-90025000I-200000J0D01*
G01*
X136525001Y-90025000D01*
G75*
G02*
X136325001Y-89825000I0J200000D01*
G01*
X136325001Y-89425000D01*
G75*
G02*
X136525001Y-89225000I200000J0D01*
G01*
G37*
G36*
G01*
X136525001Y-87575000D02*
X137075001Y-87575000D01*
G75*
G02*
X137275001Y-87775000I0J-200000D01*
G01*
X137275001Y-88175000D01*
G75*
G02*
X137075001Y-88375000I-200000J0D01*
G01*
X136525001Y-88375000D01*
G75*
G02*
X136325001Y-88175000I0J200000D01*
G01*
X136325001Y-87775000D01*
G75*
G02*
X136525001Y-87575000I200000J0D01*
G01*
G37*
%TD*%
%TO.C,R5*%
G36*
G01*
X136525000Y-92725000D02*
X137075000Y-92725000D01*
G75*
G02*
X137275000Y-92925000I0J-200000D01*
G01*
X137275000Y-93325000D01*
G75*
G02*
X137075000Y-93525000I-200000J0D01*
G01*
X136525000Y-93525000D01*
G75*
G02*
X136325000Y-93325000I0J200000D01*
G01*
X136325000Y-92925000D01*
G75*
G02*
X136525000Y-92725000I200000J0D01*
G01*
G37*
G36*
G01*
X136525000Y-91075000D02*
X137075000Y-91075000D01*
G75*
G02*
X137275000Y-91275000I0J-200000D01*
G01*
X137275000Y-91675000D01*
G75*
G02*
X137075000Y-91875000I-200000J0D01*
G01*
X136525000Y-91875000D01*
G75*
G02*
X136325000Y-91675000I0J200000D01*
G01*
X136325000Y-91275000D01*
G75*
G02*
X136525000Y-91075000I200000J0D01*
G01*
G37*
%TD*%
%TO.C,R4*%
G36*
G01*
X132025000Y-89225000D02*
X132575000Y-89225000D01*
G75*
G02*
X132775000Y-89425000I0J-200000D01*
G01*
X132775000Y-89825000D01*
G75*
G02*
X132575000Y-90025000I-200000J0D01*
G01*
X132025000Y-90025000D01*
G75*
G02*
X131825000Y-89825000I0J200000D01*
G01*
X131825000Y-89425000D01*
G75*
G02*
X132025000Y-89225000I200000J0D01*
G01*
G37*
G36*
G01*
X132025000Y-87575000D02*
X132575000Y-87575000D01*
G75*
G02*
X132775000Y-87775000I0J-200000D01*
G01*
X132775000Y-88175000D01*
G75*
G02*
X132575000Y-88375000I-200000J0D01*
G01*
X132025000Y-88375000D01*
G75*
G02*
X131825000Y-88175000I0J200000D01*
G01*
X131825000Y-87775000D01*
G75*
G02*
X132025000Y-87575000I200000J0D01*
G01*
G37*
%TD*%
%TO.C,R3*%
G36*
G01*
X125028388Y-108849160D02*
X125028388Y-108299160D01*
G75*
G02*
X125228388Y-108099160I200000J0D01*
G01*
X125628388Y-108099160D01*
G75*
G02*
X125828388Y-108299160I0J-200000D01*
G01*
X125828388Y-108849160D01*
G75*
G02*
X125628388Y-109049160I-200000J0D01*
G01*
X125228388Y-109049160D01*
G75*
G02*
X125028388Y-108849160I0J200000D01*
G01*
G37*
G36*
G01*
X123378388Y-108849160D02*
X123378388Y-108299160D01*
G75*
G02*
X123578388Y-108099160I200000J0D01*
G01*
X123978388Y-108099160D01*
G75*
G02*
X124178388Y-108299160I0J-200000D01*
G01*
X124178388Y-108849160D01*
G75*
G02*
X123978388Y-109049160I-200000J0D01*
G01*
X123578388Y-109049160D01*
G75*
G02*
X123378388Y-108849160I0J200000D01*
G01*
G37*
%TD*%
%TO.C,R2*%
G36*
G01*
X128353388Y-108849160D02*
X128353388Y-108299160D01*
G75*
G02*
X128553388Y-108099160I200000J0D01*
G01*
X128953388Y-108099160D01*
G75*
G02*
X129153388Y-108299160I0J-200000D01*
G01*
X129153388Y-108849160D01*
G75*
G02*
X128953388Y-109049160I-200000J0D01*
G01*
X128553388Y-109049160D01*
G75*
G02*
X128353388Y-108849160I0J200000D01*
G01*
G37*
G36*
G01*
X126703388Y-108849160D02*
X126703388Y-108299160D01*
G75*
G02*
X126903388Y-108099160I200000J0D01*
G01*
X127303388Y-108099160D01*
G75*
G02*
X127503388Y-108299160I0J-200000D01*
G01*
X127503388Y-108849160D01*
G75*
G02*
X127303388Y-109049160I-200000J0D01*
G01*
X126903388Y-109049160D01*
G75*
G02*
X126703388Y-108849160I0J200000D01*
G01*
G37*
%TD*%
%TO.C,R1*%
G36*
G01*
X125003387Y-113349159D02*
X125003387Y-112799159D01*
G75*
G02*
X125203387Y-112599159I200000J0D01*
G01*
X125603387Y-112599159D01*
G75*
G02*
X125803387Y-112799159I0J-200000D01*
G01*
X125803387Y-113349159D01*
G75*
G02*
X125603387Y-113549159I-200000J0D01*
G01*
X125203387Y-113549159D01*
G75*
G02*
X125003387Y-113349159I0J200000D01*
G01*
G37*
G36*
G01*
X123353387Y-113349159D02*
X123353387Y-112799159D01*
G75*
G02*
X123553387Y-112599159I200000J0D01*
G01*
X123953387Y-112599159D01*
G75*
G02*
X124153387Y-112799159I0J-200000D01*
G01*
X124153387Y-113349159D01*
G75*
G02*
X123953387Y-113549159I-200000J0D01*
G01*
X123553387Y-113549159D01*
G75*
G02*
X123353387Y-113349159I0J200000D01*
G01*
G37*
%TD*%
D12*
%TO.C,Q16*%
X157300000Y-114050000D03*
X155300000Y-115000000D03*
X155300000Y-113100000D03*
%TD*%
%TO.C,Q15*%
X151780000Y-114050000D03*
X153780000Y-113100000D03*
X153780000Y-115000000D03*
%TD*%
D13*
%TO.C,Q14*%
X149100000Y-88000000D03*
X150050000Y-90000000D03*
X148150000Y-90000000D03*
%TD*%
%TO.C,Q13*%
X149100000Y-93500000D03*
X148150000Y-91500000D03*
X150050000Y-91500000D03*
%TD*%
D12*
%TO.C,Q12*%
X123300000Y-96200000D03*
X125300000Y-95250000D03*
X125300000Y-97150000D03*
%TD*%
%TO.C,Q11*%
X128800000Y-96200000D03*
X126800000Y-97150000D03*
X126800000Y-95250000D03*
%TD*%
D13*
%TO.C,Q10*%
X131850000Y-122599999D03*
X130900000Y-120599999D03*
X132800000Y-120599999D03*
%TD*%
%TO.C,Q9*%
X131850000Y-117100000D03*
X132800000Y-119100000D03*
X130900000Y-119100000D03*
%TD*%
%TO.C,Q8*%
X141600000Y-122300000D03*
X140650000Y-120300000D03*
X142550000Y-120300000D03*
%TD*%
%TO.C,Q7*%
X141600000Y-116799999D03*
X142550000Y-118799999D03*
X140650000Y-118799999D03*
%TD*%
D12*
%TO.C,Q6*%
X157300000Y-104340000D03*
X155300000Y-105290000D03*
X155300000Y-103390000D03*
%TD*%
%TO.C,Q5*%
X151800000Y-104340000D03*
X153800000Y-103390000D03*
X153800000Y-105290000D03*
%TD*%
D13*
%TO.C,Q4*%
X139400000Y-88000000D03*
X140350000Y-90000000D03*
X138450000Y-90000000D03*
%TD*%
%TO.C,Q3*%
X139400000Y-93500000D03*
X138450000Y-91500000D03*
X140350000Y-91500000D03*
%TD*%
D12*
%TO.C,Q2*%
X123603388Y-105974159D03*
X125603388Y-105024159D03*
X125603388Y-106924159D03*
%TD*%
%TO.C,Q1*%
X129103388Y-105974159D03*
X127103388Y-106924159D03*
X127103388Y-105024159D03*
%TD*%
%TO.C,L8*%
G36*
G01*
X156150001Y-109643750D02*
X156150001Y-110156250D01*
G75*
G02*
X155931251Y-110375000I-218750J0D01*
G01*
X155493751Y-110375000D01*
G75*
G02*
X155275001Y-110156250I0J218750D01*
G01*
X155275001Y-109643750D01*
G75*
G02*
X155493751Y-109425000I218750J0D01*
G01*
X155931251Y-109425000D01*
G75*
G02*
X156150001Y-109643750I0J-218750D01*
G01*
G37*
G36*
G01*
X157725001Y-109643750D02*
X157725001Y-110156250D01*
G75*
G02*
X157506251Y-110375000I-218750J0D01*
G01*
X157068751Y-110375000D01*
G75*
G02*
X156850001Y-110156250I0J218750D01*
G01*
X156850001Y-109643750D01*
G75*
G02*
X157068751Y-109425000I218750J0D01*
G01*
X157506251Y-109425000D01*
G75*
G02*
X157725001Y-109643750I0J-218750D01*
G01*
G37*
%TD*%
%TO.C,L7*%
G36*
G01*
X144743750Y-89150000D02*
X145256250Y-89150000D01*
G75*
G02*
X145475000Y-89368750I0J-218750D01*
G01*
X145475000Y-89806250D01*
G75*
G02*
X145256250Y-90025000I-218750J0D01*
G01*
X144743750Y-90025000D01*
G75*
G02*
X144525000Y-89806250I0J218750D01*
G01*
X144525000Y-89368750D01*
G75*
G02*
X144743750Y-89150000I218750J0D01*
G01*
G37*
G36*
G01*
X144743750Y-87575000D02*
X145256250Y-87575000D01*
G75*
G02*
X145475000Y-87793750I0J-218750D01*
G01*
X145475000Y-88231250D01*
G75*
G02*
X145256250Y-88450000I-218750J0D01*
G01*
X144743750Y-88450000D01*
G75*
G02*
X144525000Y-88231250I0J218750D01*
G01*
X144525000Y-87793750D01*
G75*
G02*
X144743750Y-87575000I218750J0D01*
G01*
G37*
%TD*%
%TO.C,L6*%
G36*
G01*
X124750000Y-100656250D02*
X124750000Y-100143750D01*
G75*
G02*
X124968750Y-99925000I218750J0D01*
G01*
X125406250Y-99925000D01*
G75*
G02*
X125625000Y-100143750I0J-218750D01*
G01*
X125625000Y-100656250D01*
G75*
G02*
X125406250Y-100875000I-218750J0D01*
G01*
X124968750Y-100875000D01*
G75*
G02*
X124750000Y-100656250I0J218750D01*
G01*
G37*
G36*
G01*
X123175000Y-100656250D02*
X123175000Y-100143750D01*
G75*
G02*
X123393750Y-99925000I218750J0D01*
G01*
X123831250Y-99925000D01*
G75*
G02*
X124050000Y-100143750I0J-218750D01*
G01*
X124050000Y-100656250D01*
G75*
G02*
X123831250Y-100875000I-218750J0D01*
G01*
X123393750Y-100875000D01*
G75*
G02*
X123175000Y-100656250I0J218750D01*
G01*
G37*
%TD*%
%TO.C,L5*%
G36*
G01*
X136156250Y-121162498D02*
X135643750Y-121162498D01*
G75*
G02*
X135425000Y-120943748I0J218750D01*
G01*
X135425000Y-120506248D01*
G75*
G02*
X135643750Y-120287498I218750J0D01*
G01*
X136156250Y-120287498D01*
G75*
G02*
X136375000Y-120506248I0J-218750D01*
G01*
X136375000Y-120943748D01*
G75*
G02*
X136156250Y-121162498I-218750J0D01*
G01*
G37*
G36*
G01*
X136156250Y-122737498D02*
X135643750Y-122737498D01*
G75*
G02*
X135425000Y-122518748I0J218750D01*
G01*
X135425000Y-122081248D01*
G75*
G02*
X135643750Y-121862498I218750J0D01*
G01*
X136156250Y-121862498D01*
G75*
G02*
X136375000Y-122081248I0J-218750D01*
G01*
X136375000Y-122518748D01*
G75*
G02*
X136156250Y-122737498I-218750J0D01*
G01*
G37*
%TD*%
%TO.C,L4*%
G36*
G01*
X145956250Y-121150000D02*
X145443750Y-121150000D01*
G75*
G02*
X145225000Y-120931250I0J218750D01*
G01*
X145225000Y-120493750D01*
G75*
G02*
X145443750Y-120275000I218750J0D01*
G01*
X145956250Y-120275000D01*
G75*
G02*
X146175000Y-120493750I0J-218750D01*
G01*
X146175000Y-120931250D01*
G75*
G02*
X145956250Y-121150000I-218750J0D01*
G01*
G37*
G36*
G01*
X145956250Y-122725000D02*
X145443750Y-122725000D01*
G75*
G02*
X145225000Y-122506250I0J218750D01*
G01*
X145225000Y-122068750D01*
G75*
G02*
X145443750Y-121850000I218750J0D01*
G01*
X145956250Y-121850000D01*
G75*
G02*
X146175000Y-122068750I0J-218750D01*
G01*
X146175000Y-122506250D01*
G75*
G02*
X145956250Y-122725000I-218750J0D01*
G01*
G37*
%TD*%
%TO.C,L3*%
G36*
G01*
X156150000Y-100043750D02*
X156150000Y-100556250D01*
G75*
G02*
X155931250Y-100775000I-218750J0D01*
G01*
X155493750Y-100775000D01*
G75*
G02*
X155275000Y-100556250I0J218750D01*
G01*
X155275000Y-100043750D01*
G75*
G02*
X155493750Y-99825000I218750J0D01*
G01*
X155931250Y-99825000D01*
G75*
G02*
X156150000Y-100043750I0J-218750D01*
G01*
G37*
G36*
G01*
X157725000Y-100043750D02*
X157725000Y-100556250D01*
G75*
G02*
X157506250Y-100775000I-218750J0D01*
G01*
X157068750Y-100775000D01*
G75*
G02*
X156850000Y-100556250I0J218750D01*
G01*
X156850000Y-100043750D01*
G75*
G02*
X157068750Y-99825000I218750J0D01*
G01*
X157506250Y-99825000D01*
G75*
G02*
X157725000Y-100043750I0J-218750D01*
G01*
G37*
%TD*%
%TO.C,L2*%
G36*
G01*
X135043749Y-89150000D02*
X135556249Y-89150000D01*
G75*
G02*
X135774999Y-89368750I0J-218750D01*
G01*
X135774999Y-89806250D01*
G75*
G02*
X135556249Y-90025000I-218750J0D01*
G01*
X135043749Y-90025000D01*
G75*
G02*
X134824999Y-89806250I0J218750D01*
G01*
X134824999Y-89368750D01*
G75*
G02*
X135043749Y-89150000I218750J0D01*
G01*
G37*
G36*
G01*
X135043749Y-87575000D02*
X135556249Y-87575000D01*
G75*
G02*
X135774999Y-87793750I0J-218750D01*
G01*
X135774999Y-88231250D01*
G75*
G02*
X135556249Y-88450000I-218750J0D01*
G01*
X135043749Y-88450000D01*
G75*
G02*
X134824999Y-88231250I0J218750D01*
G01*
X134824999Y-87793750D01*
G75*
G02*
X135043749Y-87575000I218750J0D01*
G01*
G37*
%TD*%
%TO.C,L1*%
G36*
G01*
X124953388Y-110330410D02*
X124953388Y-109817910D01*
G75*
G02*
X125172138Y-109599160I218750J0D01*
G01*
X125609638Y-109599160D01*
G75*
G02*
X125828388Y-109817910I0J-218750D01*
G01*
X125828388Y-110330410D01*
G75*
G02*
X125609638Y-110549160I-218750J0D01*
G01*
X125172138Y-110549160D01*
G75*
G02*
X124953388Y-110330410I0J218750D01*
G01*
G37*
G36*
G01*
X123378388Y-110330410D02*
X123378388Y-109817910D01*
G75*
G02*
X123597138Y-109599160I218750J0D01*
G01*
X124034638Y-109599160D01*
G75*
G02*
X124253388Y-109817910I0J-218750D01*
G01*
X124253388Y-110330410D01*
G75*
G02*
X124034638Y-110549160I-218750J0D01*
G01*
X123597138Y-110549160D01*
G75*
G02*
X123378388Y-110330410I0J218750D01*
G01*
G37*
%TD*%
D14*
%TO.C,J8*%
X160575000Y-108425000D03*
D15*
X159050000Y-109900000D03*
D14*
X160575000Y-111375000D03*
%TD*%
D16*
%TO.C,J7*%
X143535001Y-84705000D03*
D17*
X145010001Y-86230000D03*
D16*
X146485001Y-84705000D03*
%TD*%
D14*
%TO.C,J6*%
X120325000Y-101775000D03*
D15*
X121850000Y-100300000D03*
D14*
X120325000Y-98825000D03*
%TD*%
D16*
%TO.C,J5*%
X137475000Y-125675000D03*
D17*
X136000000Y-124150000D03*
D16*
X134525000Y-125675000D03*
%TD*%
%TO.C,J4*%
X147175000Y-125575000D03*
D17*
X145700000Y-124050000D03*
D16*
X144225000Y-125575000D03*
%TD*%
D14*
%TO.C,J3*%
X160595000Y-98815000D03*
D15*
X159070000Y-100290000D03*
D14*
X160595000Y-101765000D03*
%TD*%
D16*
%TO.C,J2*%
X133925000Y-84694999D03*
D17*
X135400000Y-86219999D03*
D16*
X136875000Y-84694999D03*
%TD*%
D14*
%TO.C,J1*%
X120440520Y-111540454D03*
D15*
X121965520Y-110065454D03*
D14*
X120440520Y-108590454D03*
%TD*%
D18*
%TO.C,D15*%
X153750000Y-109400000D03*
X150450000Y-109400000D03*
%TD*%
D19*
%TO.C,D13*%
X144500000Y-91450000D03*
X144500000Y-94750000D03*
%TD*%
D18*
%TO.C,D11*%
X127100000Y-100800000D03*
X130400000Y-100800000D03*
%TD*%
D19*
%TO.C,D9*%
X136400000Y-119100000D03*
X136400000Y-115800000D03*
%TD*%
D18*
%TO.C,D7*%
X145750000Y-118800000D03*
X149050000Y-118800000D03*
%TD*%
D19*
%TO.C,D5*%
X153700000Y-100050000D03*
X153700000Y-96750000D03*
%TD*%
D18*
%TO.C,D3*%
X135250000Y-91600000D03*
X131950000Y-91600000D03*
%TD*%
D19*
%TO.C,D1*%
X127300000Y-110550000D03*
X127300000Y-113850000D03*
%TD*%
%TO.C,C16*%
G36*
G01*
X156175000Y-108150000D02*
X156175000Y-108650000D01*
G75*
G02*
X155950000Y-108875000I-225000J0D01*
G01*
X155500000Y-108875000D01*
G75*
G02*
X155275000Y-108650000I0J225000D01*
G01*
X155275000Y-108150000D01*
G75*
G02*
X155500000Y-107925000I225000J0D01*
G01*
X155950000Y-107925000D01*
G75*
G02*
X156175000Y-108150000I0J-225000D01*
G01*
G37*
G36*
G01*
X157725000Y-108150000D02*
X157725000Y-108650000D01*
G75*
G02*
X157500000Y-108875000I-225000J0D01*
G01*
X157050000Y-108875000D01*
G75*
G02*
X156825000Y-108650000I0J225000D01*
G01*
X156825000Y-108150000D01*
G75*
G02*
X157050000Y-107925000I225000J0D01*
G01*
X157500000Y-107925000D01*
G75*
G02*
X157725000Y-108150000I0J-225000D01*
G01*
G37*
%TD*%
%TO.C,C15*%
G36*
G01*
X150550000Y-111850000D02*
X150050000Y-111850000D01*
G75*
G02*
X149825000Y-111625000I0J225000D01*
G01*
X149825000Y-111175000D01*
G75*
G02*
X150050000Y-110950000I225000J0D01*
G01*
X150550000Y-110950000D01*
G75*
G02*
X150775000Y-111175000I0J-225000D01*
G01*
X150775000Y-111625000D01*
G75*
G02*
X150550000Y-111850000I-225000J0D01*
G01*
G37*
G36*
G01*
X150550000Y-113400000D02*
X150050000Y-113400000D01*
G75*
G02*
X149825000Y-113175000I0J225000D01*
G01*
X149825000Y-112725000D01*
G75*
G02*
X150050000Y-112500000I225000J0D01*
G01*
X150550000Y-112500000D01*
G75*
G02*
X150775000Y-112725000I0J-225000D01*
G01*
X150775000Y-113175000D01*
G75*
G02*
X150550000Y-113400000I-225000J0D01*
G01*
G37*
%TD*%
%TO.C,C14*%
G36*
G01*
X143250000Y-89125000D02*
X143750000Y-89125000D01*
G75*
G02*
X143975000Y-89350000I0J-225000D01*
G01*
X143975000Y-89800000D01*
G75*
G02*
X143750000Y-90025000I-225000J0D01*
G01*
X143250000Y-90025000D01*
G75*
G02*
X143025000Y-89800000I0J225000D01*
G01*
X143025000Y-89350000D01*
G75*
G02*
X143250000Y-89125000I225000J0D01*
G01*
G37*
G36*
G01*
X143250000Y-87575000D02*
X143750000Y-87575000D01*
G75*
G02*
X143975000Y-87800000I0J-225000D01*
G01*
X143975000Y-88250000D01*
G75*
G02*
X143750000Y-88475000I-225000J0D01*
G01*
X143250000Y-88475000D01*
G75*
G02*
X143025000Y-88250000I0J225000D01*
G01*
X143025000Y-87800000D01*
G75*
G02*
X143250000Y-87575000I225000J0D01*
G01*
G37*
%TD*%
%TO.C,C13*%
G36*
G01*
X146875000Y-94750000D02*
X146875000Y-95250000D01*
G75*
G02*
X146650000Y-95475000I-225000J0D01*
G01*
X146200000Y-95475000D01*
G75*
G02*
X145975000Y-95250000I0J225000D01*
G01*
X145975000Y-94750000D01*
G75*
G02*
X146200000Y-94525000I225000J0D01*
G01*
X146650000Y-94525000D01*
G75*
G02*
X146875000Y-94750000I0J-225000D01*
G01*
G37*
G36*
G01*
X148425000Y-94750000D02*
X148425000Y-95250000D01*
G75*
G02*
X148200000Y-95475000I-225000J0D01*
G01*
X147750000Y-95475000D01*
G75*
G02*
X147525000Y-95250000I0J225000D01*
G01*
X147525000Y-94750000D01*
G75*
G02*
X147750000Y-94525000I225000J0D01*
G01*
X148200000Y-94525000D01*
G75*
G02*
X148425000Y-94750000I0J-225000D01*
G01*
G37*
%TD*%
%TO.C,C12*%
G36*
G01*
X124725000Y-102150000D02*
X124725000Y-101650000D01*
G75*
G02*
X124950000Y-101425000I225000J0D01*
G01*
X125400000Y-101425000D01*
G75*
G02*
X125625000Y-101650000I0J-225000D01*
G01*
X125625000Y-102150000D01*
G75*
G02*
X125400000Y-102375000I-225000J0D01*
G01*
X124950000Y-102375000D01*
G75*
G02*
X124725000Y-102150000I0J225000D01*
G01*
G37*
G36*
G01*
X123175000Y-102150000D02*
X123175000Y-101650000D01*
G75*
G02*
X123400000Y-101425000I225000J0D01*
G01*
X123850000Y-101425000D01*
G75*
G02*
X124075000Y-101650000I0J-225000D01*
G01*
X124075000Y-102150000D01*
G75*
G02*
X123850000Y-102375000I-225000J0D01*
G01*
X123400000Y-102375000D01*
G75*
G02*
X123175000Y-102150000I0J225000D01*
G01*
G37*
%TD*%
%TO.C,C11*%
G36*
G01*
X130150000Y-98400000D02*
X130650000Y-98400000D01*
G75*
G02*
X130875000Y-98625000I0J-225000D01*
G01*
X130875000Y-99075000D01*
G75*
G02*
X130650000Y-99300000I-225000J0D01*
G01*
X130150000Y-99300000D01*
G75*
G02*
X129925000Y-99075000I0J225000D01*
G01*
X129925000Y-98625000D01*
G75*
G02*
X130150000Y-98400000I225000J0D01*
G01*
G37*
G36*
G01*
X130150000Y-96850000D02*
X130650000Y-96850000D01*
G75*
G02*
X130875000Y-97075000I0J-225000D01*
G01*
X130875000Y-97525000D01*
G75*
G02*
X130650000Y-97750000I-225000J0D01*
G01*
X130150000Y-97750000D01*
G75*
G02*
X129925000Y-97525000I0J225000D01*
G01*
X129925000Y-97075000D01*
G75*
G02*
X130150000Y-96850000I225000J0D01*
G01*
G37*
%TD*%
%TO.C,C10*%
G36*
G01*
X137650000Y-121200000D02*
X137150000Y-121200000D01*
G75*
G02*
X136925000Y-120975000I0J225000D01*
G01*
X136925000Y-120525000D01*
G75*
G02*
X137150000Y-120300000I225000J0D01*
G01*
X137650000Y-120300000D01*
G75*
G02*
X137875000Y-120525000I0J-225000D01*
G01*
X137875000Y-120975000D01*
G75*
G02*
X137650000Y-121200000I-225000J0D01*
G01*
G37*
G36*
G01*
X137650000Y-122750000D02*
X137150000Y-122750000D01*
G75*
G02*
X136925000Y-122525000I0J225000D01*
G01*
X136925000Y-122075000D01*
G75*
G02*
X137150000Y-121850000I225000J0D01*
G01*
X137650000Y-121850000D01*
G75*
G02*
X137875000Y-122075000I0J-225000D01*
G01*
X137875000Y-122525000D01*
G75*
G02*
X137650000Y-122750000I-225000J0D01*
G01*
G37*
%TD*%
%TO.C,C9*%
G36*
G01*
X134000000Y-115850000D02*
X134000000Y-115350000D01*
G75*
G02*
X134225000Y-115125000I225000J0D01*
G01*
X134675000Y-115125000D01*
G75*
G02*
X134900000Y-115350000I0J-225000D01*
G01*
X134900000Y-115850000D01*
G75*
G02*
X134675000Y-116075000I-225000J0D01*
G01*
X134225000Y-116075000D01*
G75*
G02*
X134000000Y-115850000I0J225000D01*
G01*
G37*
G36*
G01*
X132450000Y-115850000D02*
X132450000Y-115350000D01*
G75*
G02*
X132675000Y-115125000I225000J0D01*
G01*
X133125000Y-115125000D01*
G75*
G02*
X133350000Y-115350000I0J-225000D01*
G01*
X133350000Y-115850000D01*
G75*
G02*
X133125000Y-116075000I-225000J0D01*
G01*
X132675000Y-116075000D01*
G75*
G02*
X132450000Y-115850000I0J225000D01*
G01*
G37*
%TD*%
%TO.C,C8*%
G36*
G01*
X147449999Y-121175000D02*
X146949999Y-121175000D01*
G75*
G02*
X146724999Y-120950000I0J225000D01*
G01*
X146724999Y-120500000D01*
G75*
G02*
X146949999Y-120275000I225000J0D01*
G01*
X147449999Y-120275000D01*
G75*
G02*
X147674999Y-120500000I0J-225000D01*
G01*
X147674999Y-120950000D01*
G75*
G02*
X147449999Y-121175000I-225000J0D01*
G01*
G37*
G36*
G01*
X147449999Y-122725000D02*
X146949999Y-122725000D01*
G75*
G02*
X146724999Y-122500000I0J225000D01*
G01*
X146724999Y-122050000D01*
G75*
G02*
X146949999Y-121825000I225000J0D01*
G01*
X147449999Y-121825000D01*
G75*
G02*
X147674999Y-122050000I0J-225000D01*
G01*
X147674999Y-122500000D01*
G75*
G02*
X147449999Y-122725000I-225000J0D01*
G01*
G37*
%TD*%
%TO.C,C7*%
G36*
G01*
X146325000Y-115850000D02*
X146325000Y-115350000D01*
G75*
G02*
X146550000Y-115125000I225000J0D01*
G01*
X147000000Y-115125000D01*
G75*
G02*
X147225000Y-115350000I0J-225000D01*
G01*
X147225000Y-115850000D01*
G75*
G02*
X147000000Y-116075000I-225000J0D01*
G01*
X146550000Y-116075000D01*
G75*
G02*
X146325000Y-115850000I0J225000D01*
G01*
G37*
G36*
G01*
X144775000Y-115850000D02*
X144775000Y-115350000D01*
G75*
G02*
X145000000Y-115125000I225000J0D01*
G01*
X145450000Y-115125000D01*
G75*
G02*
X145675000Y-115350000I0J-225000D01*
G01*
X145675000Y-115850000D01*
G75*
G02*
X145450000Y-116075000I-225000J0D01*
G01*
X145000000Y-116075000D01*
G75*
G02*
X144775000Y-115850000I0J225000D01*
G01*
G37*
%TD*%
%TO.C,C6*%
G36*
G01*
X156150000Y-98550000D02*
X156150000Y-99050000D01*
G75*
G02*
X155925000Y-99275000I-225000J0D01*
G01*
X155475000Y-99275000D01*
G75*
G02*
X155250000Y-99050000I0J225000D01*
G01*
X155250000Y-98550000D01*
G75*
G02*
X155475000Y-98325000I225000J0D01*
G01*
X155925000Y-98325000D01*
G75*
G02*
X156150000Y-98550000I0J-225000D01*
G01*
G37*
G36*
G01*
X157700000Y-98550000D02*
X157700000Y-99050000D01*
G75*
G02*
X157475000Y-99275000I-225000J0D01*
G01*
X157025000Y-99275000D01*
G75*
G02*
X156800000Y-99050000I0J225000D01*
G01*
X156800000Y-98550000D01*
G75*
G02*
X157025000Y-98325000I225000J0D01*
G01*
X157475000Y-98325000D01*
G75*
G02*
X157700000Y-98550000I0J-225000D01*
G01*
G37*
%TD*%
%TO.C,C5*%
G36*
G01*
X150950000Y-99150000D02*
X150450000Y-99150000D01*
G75*
G02*
X150225000Y-98925000I0J225000D01*
G01*
X150225000Y-98475000D01*
G75*
G02*
X150450000Y-98250000I225000J0D01*
G01*
X150950000Y-98250000D01*
G75*
G02*
X151175000Y-98475000I0J-225000D01*
G01*
X151175000Y-98925000D01*
G75*
G02*
X150950000Y-99150000I-225000J0D01*
G01*
G37*
G36*
G01*
X150950000Y-100700000D02*
X150450000Y-100700000D01*
G75*
G02*
X150225000Y-100475000I0J225000D01*
G01*
X150225000Y-100025000D01*
G75*
G02*
X150450000Y-99800000I225000J0D01*
G01*
X150950000Y-99800000D01*
G75*
G02*
X151175000Y-100025000I0J-225000D01*
G01*
X151175000Y-100475000D01*
G75*
G02*
X150950000Y-100700000I-225000J0D01*
G01*
G37*
%TD*%
%TO.C,C4*%
G36*
G01*
X133550000Y-89125000D02*
X134050000Y-89125000D01*
G75*
G02*
X134275000Y-89350000I0J-225000D01*
G01*
X134275000Y-89800000D01*
G75*
G02*
X134050000Y-90025000I-225000J0D01*
G01*
X133550000Y-90025000D01*
G75*
G02*
X133325000Y-89800000I0J225000D01*
G01*
X133325000Y-89350000D01*
G75*
G02*
X133550000Y-89125000I225000J0D01*
G01*
G37*
G36*
G01*
X133550000Y-87575000D02*
X134050000Y-87575000D01*
G75*
G02*
X134275000Y-87800000I0J-225000D01*
G01*
X134275000Y-88250000D01*
G75*
G02*
X134050000Y-88475000I-225000J0D01*
G01*
X133550000Y-88475000D01*
G75*
G02*
X133325000Y-88250000I0J225000D01*
G01*
X133325000Y-87800000D01*
G75*
G02*
X133550000Y-87575000I225000J0D01*
G01*
G37*
%TD*%
%TO.C,C3*%
G36*
G01*
X135275000Y-94350000D02*
X135275000Y-94850000D01*
G75*
G02*
X135050000Y-95075000I-225000J0D01*
G01*
X134600000Y-95075000D01*
G75*
G02*
X134375000Y-94850000I0J225000D01*
G01*
X134375000Y-94350000D01*
G75*
G02*
X134600000Y-94125000I225000J0D01*
G01*
X135050000Y-94125000D01*
G75*
G02*
X135275000Y-94350000I0J-225000D01*
G01*
G37*
G36*
G01*
X136825000Y-94350000D02*
X136825000Y-94850000D01*
G75*
G02*
X136600000Y-95075000I-225000J0D01*
G01*
X136150000Y-95075000D01*
G75*
G02*
X135925000Y-94850000I0J225000D01*
G01*
X135925000Y-94350000D01*
G75*
G02*
X136150000Y-94125000I225000J0D01*
G01*
X136600000Y-94125000D01*
G75*
G02*
X136825000Y-94350000I0J-225000D01*
G01*
G37*
%TD*%
%TO.C,C2*%
G36*
G01*
X124903387Y-111824159D02*
X124903387Y-111324159D01*
G75*
G02*
X125128387Y-111099159I225000J0D01*
G01*
X125578387Y-111099159D01*
G75*
G02*
X125803387Y-111324159I0J-225000D01*
G01*
X125803387Y-111824159D01*
G75*
G02*
X125578387Y-112049159I-225000J0D01*
G01*
X125128387Y-112049159D01*
G75*
G02*
X124903387Y-111824159I0J225000D01*
G01*
G37*
G36*
G01*
X123353387Y-111824159D02*
X123353387Y-111324159D01*
G75*
G02*
X123578387Y-111099159I225000J0D01*
G01*
X124028387Y-111099159D01*
G75*
G02*
X124253387Y-111324159I0J-225000D01*
G01*
X124253387Y-111824159D01*
G75*
G02*
X124028387Y-112049159I-225000J0D01*
G01*
X123578387Y-112049159D01*
G75*
G02*
X123353387Y-111824159I0J225000D01*
G01*
G37*
%TD*%
%TO.C,C1*%
G36*
G01*
X129950000Y-110750000D02*
X130450000Y-110750000D01*
G75*
G02*
X130675000Y-110975000I0J-225000D01*
G01*
X130675000Y-111425000D01*
G75*
G02*
X130450000Y-111650000I-225000J0D01*
G01*
X129950000Y-111650000D01*
G75*
G02*
X129725000Y-111425000I0J225000D01*
G01*
X129725000Y-110975000D01*
G75*
G02*
X129950000Y-110750000I225000J0D01*
G01*
G37*
G36*
G01*
X129950000Y-109200000D02*
X130450000Y-109200000D01*
G75*
G02*
X130675000Y-109425000I0J-225000D01*
G01*
X130675000Y-109875000D01*
G75*
G02*
X130450000Y-110100000I-225000J0D01*
G01*
X129950000Y-110100000D01*
G75*
G02*
X129725000Y-109875000I0J225000D01*
G01*
X129725000Y-109425000D01*
G75*
G02*
X129950000Y-109200000I225000J0D01*
G01*
G37*
%TD*%
M02*
