  0
SECTION
  2
HEADER
  9
$ANGBASE
  50
0.0
  9
$ANGDIR
  70
1
  9
$MEASUREMENT
  70
1
  0
ENDSEC
  0
SECTION
  2
TABLES
  0
TABLE
  2
LTYPE
  70
4
  0
LTYPE
  5
40F
  2
CONTINUOUS
  70
0
  3
Solid line
  72
65
  73
0
  40
0.0
  0
LTYPE
  5
410
  2
DASHDOT
 70
0
  3
Dash Dot ____ _ ____ _
 72
65
 73
4
 40
2.0
 49
1.25
 49
-0.25
 49
0.25
 49
-0.25
  0
LTYPE
  5
411
  2
DASHED
 70
0
  3
Dashed __ __ __ __ __
 72
65
 73
2
 40
0.75
 49
0.5
 49
-0.25
  0
LTYPE
  5
43B
  2
DOTTED
 70
0
  3
Dotted .  .  .  .
 72
65
 73
2
 40
0.2
 49
0.0
 49
-0.2
  0
ENDTAB
  0
TABLE
  2
STYLE
  70
4
  0
STYLE
  2
KICAD
  70
0
  40
0
  41
1
  42
1
  50
0
  71
0
  3
isocp.shx
  0
STYLE
  2
KICADB
  70
0
  40
0
  41
1
  42
1
  50
0
  71
0
  3
isocp.shx
  0
STYLE
  2
KICADI
  70
0
  40
0
  41
1
  42
1
  50
15
  71
0
  3
isocp.shx
  0
STYLE
  2
KICADBI
  70
0
  40
0
  41
1
  42
1
  50
15
  71
0
  3
isocp.shx
  0
ENDTAB
  0
TABLE
  2
LAYER
  70
1
  0
LAYER
  2
BLACK
  70
0
  62
7
  6
CONTINUOUS
  0
ENDTAB
  0
ENDSEC
  0
SECTION
  2
ENTITIES
0
LINE
8
BLACK
6
CONTINUOUS
10
115.595
20
-114.096
11
115.66
21
-113.171
0
LINE
8
BLACK
6
CONTINUOUS
10
115.66
20
-113.171
11
115.763
21
-112.25
0
LINE
8
BLACK
6
CONTINUOUS
10
115.763
20
-112.25
11
115.902
21
-111.333
0
LINE
8
BLACK
6
CONTINUOUS
10
115.902
20
-111.333
11
116.078
21
-110.423
0
LINE
8
BLACK
6
CONTINUOUS
10
116.078
20
-110.423
11
116.291
21
-109.52
0
LINE
8
BLACK
6
CONTINUOUS
10
116.291
20
-109.52
11
116.539
21
-108.627
0
LINE
8
BLACK
6
CONTINUOUS
10
116.539
20
-108.627
11
116.823
21
-107.744
0
LINE
8
BLACK
6
CONTINUOUS
10
116.823
20
-107.744
11
117.143
21
-106.874
0
LINE
8
BLACK
6
CONTINUOUS
10
117.143
20
-106.874
11
117.497
21
-106.017
0
LINE
8
BLACK
6
CONTINUOUS
10
117.497
20
-106.017
11
117.885
21
-105.175
0
LINE
8
BLACK
6
CONTINUOUS
10
117.885
20
-105.175
11
118.307
21
-104.349
0
LINE
8
BLACK
6
CONTINUOUS
10
118.307
20
-104.349
11
118.761
21
-103.541
0
LINE
8
BLACK
6
CONTINUOUS
10
118.761
20
-103.541
11
119.248
21
-102.752
0
LINE
8
BLACK
6
CONTINUOUS
10
119.248
20
-102.752
11
119.766
21
-101.982
0
LINE
8
BLACK
6
CONTINUOUS
10
119.766
20
-101.982
11
120.314
21
-101.235
0
LINE
8
BLACK
6
CONTINUOUS
10
120.314
20
-101.235
11
120.892
21
-100.509
0
LINE
8
BLACK
6
CONTINUOUS
10
120.892
20
-100.509
11
121.498
21
-99.8081
0
LINE
8
BLACK
6
CONTINUOUS
10
121.498
20
-99.8081
11
122.132
21
-99.1316
0
LINE
8
BLACK
6
CONTINUOUS
10
122.132
20
-99.1316
11
122.793
21
-98.4811
0
LINE
8
BLACK
6
CONTINUOUS
10
122.793
20
-98.4811
11
123.48
21
-97.8577
0
LINE
8
BLACK
6
CONTINUOUS
10
123.48
20
-97.8577
11
124.19
21
-97.2623
0
LINE
8
BLACK
6
CONTINUOUS
10
124.19
20
-97.2623
11
124.925
21
-96.6959
0
LINE
8
BLACK
6
CONTINUOUS
10
124.925
20
-96.6959
11
125.681
21
-96.1594
0
LINE
8
BLACK
6
CONTINUOUS
10
125.681
20
-96.1594
11
126.458
21
-95.6537
0
LINE
8
BLACK
6
CONTINUOUS
10
126.458
20
-95.6537
11
127.255
21
-95.1796
0
LINE
8
BLACK
6
CONTINUOUS
10
127.255
20
-95.1796
11
128.07
21
-94.7379
0
LINE
8
BLACK
6
CONTINUOUS
10
128.07
20
-94.7379
11
128.902
21
-94.3293
0
LINE
8
BLACK
6
CONTINUOUS
10
128.902
20
-94.3293
11
129.751
21
-93.9543
0
LINE
8
BLACK
6
CONTINUOUS
10
129.751
20
-93.9543
11
130.613
21
-93.6138
0
LINE
8
BLACK
6
CONTINUOUS
10
130.613
20
-93.6138
11
131.488
21
-93.3081
0
LINE
8
BLACK
6
CONTINUOUS
10
131.488
20
-93.3081
11
132.375
21
-93.0377
0
LINE
8
BLACK
6
CONTINUOUS
10
132.375
20
-93.0377
11
133.272
21
-92.8032
0
LINE
8
BLACK
6
CONTINUOUS
10
133.272
20
-92.8032
11
134.178
21
-92.6049
0
LINE
8
BLACK
6
CONTINUOUS
10
134.178
20
-92.6049
11
135.091
21
-92.4431
0
LINE
8
BLACK
6
CONTINUOUS
10
135.091
20
-92.4431
11
136.01
21
-92.3181
0
LINE
8
BLACK
6
CONTINUOUS
10
136.01
20
-92.3181
11
136.933
21
-92.23
0
LINE
8
BLACK
6
CONTINUOUS
10
136.933
20
-92.23
11
137.859
21
-92.179
0
LINE
8
BLACK
6
CONTINUOUS
10
137.859
20
-92.179
11
138.786
21
-92.1653
0
LINE
8
BLACK
6
CONTINUOUS
10
138.786
20
-92.1653
11
139.713
21
-92.1888
0
LINE
8
BLACK
6
CONTINUOUS
10
139.713
20
-92.1888
11
140.638
21
-92.2494
0
LINE
8
BLACK
6
CONTINUOUS
10
140.638
20
-92.2494
11
141.56
21
-92.3471
0
LINE
8
BLACK
6
CONTINUOUS
10
141.56
20
-92.3471
11
142.478
21
-92.4818
0
LINE
8
BLACK
6
CONTINUOUS
10
142.478
20
-92.4818
11
143.389
21
-92.6531
0
LINE
8
BLACK
6
CONTINUOUS
10
143.389
20
-92.6531
11
144.292
21
-92.8609
0
LINE
8
BLACK
6
CONTINUOUS
10
144.292
20
-92.8609
11
145.187
21
-93.1048
0
LINE
8
BLACK
6
CONTINUOUS
10
145.187
20
-93.1048
11
146.071
21
-93.3844
0
LINE
8
BLACK
6
CONTINUOUS
10
146.071
20
-93.3844
11
146.943
21
-93.6993
0
LINE
8
BLACK
6
CONTINUOUS
10
146.943
20
-93.6993
11
147.802
21
-94.0489
0
LINE
8
BLACK
6
CONTINUOUS
10
147.802
20
-94.0489
11
148.646
21
-94.4326
0
LINE
8
BLACK
6
CONTINUOUS
10
148.646
20
-94.4326
11
149.474
21
-94.85
0
LINE
8
BLACK
6
CONTINUOUS
10
149.474
20
-94.85
11
150.285
21
-95.3002
0
LINE
8
BLACK
6
CONTINUOUS
10
150.285
20
-95.3002
11
151.077
21
-95.7826
0
LINE
8
BLACK
6
CONTINUOUS
10
151.077
20
-95.7826
11
151.848
21
-96.2964
0
LINE
8
BLACK
6
CONTINUOUS
10
151.848
20
-96.2964
11
152.599
21
-96.8408
0
LINE
8
BLACK
6
CONTINUOUS
10
152.599
20
-96.8408
11
153.327
21
-97.4148
0
LINE
8
BLACK
6
CONTINUOUS
10
153.327
20
-97.4148
11
154.032
21
-98.0176
0
LINE
8
BLACK
6
CONTINUOUS
10
154.032
20
-98.0176
11
154.712
21
-98.6482
0
LINE
8
BLACK
6
CONTINUOUS
10
154.712
20
-98.6482
11
155.366
21
-99.3056
0
LINE
8
BLACK
6
CONTINUOUS
10
155.366
20
-99.3056
11
155.993
21
-99.9887
0
LINE
8
BLACK
6
CONTINUOUS
10
155.993
20
-99.9887
11
156.592
21
-100.696
0
LINE
8
BLACK
6
CONTINUOUS
10
156.592
20
-100.696
11
157.162
21
-101.428
0
LINE
8
BLACK
6
CONTINUOUS
10
157.162
20
-101.428
11
157.702
21
-102.181
0
LINE
8
BLACK
6
CONTINUOUS
10
157.702
20
-102.181
11
158.212
21
-102.956
0
LINE
8
BLACK
6
CONTINUOUS
10
158.212
20
-102.956
11
158.69
21
-103.75
0
LINE
8
BLACK
6
CONTINUOUS
10
158.69
20
-103.75
11
159.136
21
-104.563
0
LINE
8
BLACK
6
CONTINUOUS
10
159.136
20
-104.563
11
159.549
21
-105.393
0
LINE
8
BLACK
6
CONTINUOUS
10
159.549
20
-105.393
11
159.929
21
-106.239
0
LINE
8
BLACK
6
CONTINUOUS
10
159.929
20
-106.239
11
160.274
21
-107.1
0
LINE
8
BLACK
6
CONTINUOUS
10
160.274
20
-107.1
11
160.584
21
-107.973
0
LINE
8
BLACK
6
CONTINUOUS
10
160.584
20
-107.973
11
160.859
21
-108.859
0
LINE
8
BLACK
6
CONTINUOUS
10
160.859
20
-108.859
11
161.098
21
-109.755
0
LINE
8
BLACK
6
CONTINUOUS
10
161.098
20
-109.755
11
161.301
21
-110.66
0
LINE
8
BLACK
6
CONTINUOUS
10
161.301
20
-110.66
11
161.468
21
-111.572
0
LINE
8
BLACK
6
CONTINUOUS
10
161.468
20
-111.572
11
161.598
21
-112.49
0
LINE
8
BLACK
6
CONTINUOUS
10
161.598
20
-112.49
11
161.691
21
-113.412
0
LINE
8
BLACK
6
CONTINUOUS
10
161.691
20
-113.412
11
161.746
21
-114.338
0
LINE
8
BLACK
6
CONTINUOUS
10
161.746
20
-114.338
11
161.765
21
-115.265
0
LINE
8
BLACK
6
CONTINUOUS
10
161.765
20
-115.265
11
161.76
21
-115.749
0
LINE
8
BLACK
6
CONTINUOUS
10
161.76
20
-115.749
11
161.722
21
-116.675
0
LINE
8
BLACK
6
CONTINUOUS
10
161.722
20
-116.675
11
161.647
21
-117.599
0
LINE
8
BLACK
6
CONTINUOUS
10
161.647
20
-117.599
11
161.535
21
-118.52
0
LINE
8
BLACK
6
CONTINUOUS
10
161.535
20
-118.52
11
161.385
21
-119.435
0
LINE
8
BLACK
6
CONTINUOUS
10
161.385
20
-119.435
11
161.2
21
-120.343
0
LINE
8
BLACK
6
CONTINUOUS
10
161.2
20
-120.343
11
160.978
21
-121.244
0
LINE
8
BLACK
6
CONTINUOUS
10
160.978
20
-121.244
11
160.72
21
-122.134
0
LINE
8
BLACK
6
CONTINUOUS
10
160.72
20
-122.134
11
160.426
21
-123.014
0
LINE
8
BLACK
6
CONTINUOUS
10
160.426
20
-123.014
11
160.098
21
-123.881
0
LINE
8
BLACK
6
CONTINUOUS
10
160.098
20
-123.881
11
159.735
21
-124.734
0
LINE
8
BLACK
6
CONTINUOUS
10
159.735
20
-124.734
11
159.338
21
-125.572
0
LINE
8
BLACK
6
CONTINUOUS
10
159.338
20
-125.572
11
158.908
21
-126.393
0
LINE
8
BLACK
6
CONTINUOUS
10
158.908
20
-126.393
11
158.445
21
-127.197
0
LINE
8
BLACK
6
CONTINUOUS
10
158.445
20
-127.197
11
157.95
21
-127.981
0
LINE
8
BLACK
6
CONTINUOUS
10
157.95
20
-127.981
11
157.424
21
-128.745
0
LINE
8
BLACK
6
CONTINUOUS
10
157.424
20
-128.745
11
156.868
21
-129.487
0
LINE
8
BLACK
6
CONTINUOUS
10
156.868
20
-129.487
11
156.283
21
-130.206
0
LINE
8
BLACK
6
CONTINUOUS
10
156.283
20
-130.206
11
155.669
21
-130.901
0
LINE
8
BLACK
6
CONTINUOUS
10
155.669
20
-130.901
11
155.028
21
-131.571
0
LINE
8
BLACK
6
CONTINUOUS
10
155.028
20
-131.571
11
154.36
21
-132.214
0
LINE
8
BLACK
6
CONTINUOUS
10
154.36
20
-132.214
11
153.667
21
-132.83
0
LINE
8
BLACK
6
CONTINUOUS
10
153.667
20
-132.83
11
152.95
21
-133.418
0
LINE
8
BLACK
6
CONTINUOUS
10
152.95
20
-133.418
11
152.21
21
-133.977
0
LINE
8
BLACK
6
CONTINUOUS
10
152.21
20
-133.977
11
151.448
21
-134.505
0
LINE
8
BLACK
6
CONTINUOUS
10
151.448
20
-134.505
11
150.666
21
-135.003
0
LINE
8
BLACK
6
CONTINUOUS
10
150.666
20
-135.003
11
149.864
21
-135.469
0
LINE
8
BLACK
6
CONTINUOUS
10
149.864
20
-135.469
11
149.044
21
-135.902
0
LINE
8
BLACK
6
CONTINUOUS
10
149.044
20
-135.902
11
148.208
21
-136.302
0
LINE
8
BLACK
6
CONTINUOUS
10
148.208
20
-136.302
11
147.356
21
-136.668
0
LINE
8
BLACK
6
CONTINUOUS
10
147.356
20
-136.668
11
146.49
21
-136.999
0
LINE
8
BLACK
6
CONTINUOUS
10
146.49
20
-136.999
11
145.611
21
-137.296
0
LINE
8
BLACK
6
CONTINUOUS
10
145.611
20
-137.296
11
144.722
21
-137.557
0
LINE
8
BLACK
6
CONTINUOUS
10
144.722
20
-137.557
11
143.822
21
-137.782
0
LINE
8
BLACK
6
CONTINUOUS
10
143.822
20
-137.782
11
142.914
21
-137.971
0
LINE
8
BLACK
6
CONTINUOUS
10
142.914
20
-137.971
11
142
21
-138.123
0
LINE
8
BLACK
6
CONTINUOUS
10
142
20
-138.123
11
141.08
21
-138.238
0
LINE
8
BLACK
6
CONTINUOUS
10
141.08
20
-138.238
11
140.156
21
-138.317
0
LINE
8
BLACK
6
CONTINUOUS
10
140.156
20
-138.317
11
139.229
21
-138.358
0
LINE
8
BLACK
6
CONTINUOUS
10
139.229
20
-138.358
11
138.302
21
-138.362
0
LINE
8
BLACK
6
CONTINUOUS
10
138.302
20
-138.362
11
137.375
21
-138.329
0
LINE
8
BLACK
6
CONTINUOUS
10
137.375
20
-138.329
11
136.451
21
-138.259
0
LINE
8
BLACK
6
CONTINUOUS
10
136.451
20
-138.259
11
135.53
21
-138.151
0
LINE
8
BLACK
6
CONTINUOUS
10
135.53
20
-138.151
11
134.614
21
-138.007
0
LINE
8
BLACK
6
CONTINUOUS
10
134.614
20
-138.007
11
133.705
21
-137.826
0
LINE
8
BLACK
6
CONTINUOUS
10
133.705
20
-137.826
11
132.803
21
-137.609
0
LINE
8
BLACK
6
CONTINUOUS
10
132.803
20
-137.609
11
131.911
21
-137.356
0
LINE
8
BLACK
6
CONTINUOUS
10
131.911
20
-137.356
11
131.03
21
-137.067
0
LINE
8
BLACK
6
CONTINUOUS
10
131.03
20
-137.067
11
130.161
21
-136.743
0
LINE
8
BLACK
6
CONTINUOUS
10
130.161
20
-136.743
11
129.306
21
-136.384
0
LINE
8
BLACK
6
CONTINUOUS
10
129.306
20
-136.384
11
128.466
21
-135.992
0
LINE
8
BLACK
6
CONTINUOUS
10
128.466
20
-135.992
11
127.643
21
-135.566
0
LINE
8
BLACK
6
CONTINUOUS
10
127.643
20
-135.566
11
126.837
21
-135.107
0
LINE
8
BLACK
6
CONTINUOUS
10
126.837
20
-135.107
11
126.05
21
-134.616
0
LINE
8
BLACK
6
CONTINUOUS
10
126.05
20
-134.616
11
125.284
21
-134.094
0
LINE
8
BLACK
6
CONTINUOUS
10
125.284
20
-134.094
11
124.539
21
-133.542
0
LINE
8
BLACK
6
CONTINUOUS
10
124.539
20
-133.542
11
123.817
21
-132.961
0
LINE
8
BLACK
6
CONTINUOUS
10
123.817
20
-132.961
11
123.118
21
-132.35
0
LINE
8
BLACK
6
CONTINUOUS
10
123.118
20
-132.35
11
122.445
21
-131.713
0
LINE
8
BLACK
6
CONTINUOUS
10
122.445
20
-131.713
11
121.798
21
-131.049
0
LINE
8
BLACK
6
CONTINUOUS
10
121.798
20
-131.049
11
121.178
21
-130.359
0
LINE
8
BLACK
6
CONTINUOUS
10
121.178
20
-130.359
11
120.587
21
-129.645
0
LINE
8
BLACK
6
CONTINUOUS
10
120.587
20
-129.645
11
120.024
21
-128.908
0
LINE
8
BLACK
6
CONTINUOUS
10
120.024
20
-128.908
11
119.492
21
-128.149
0
LINE
8
BLACK
6
CONTINUOUS
10
119.492
20
-128.149
11
118.99
21
-127.369
0
LINE
8
BLACK
6
CONTINUOUS
10
118.99
20
-127.369
11
118.52
21
-126.57
0
LINE
8
BLACK
6
CONTINUOUS
10
118.52
20
-126.57
11
118.083
21
-125.752
0
LINE
8
BLACK
6
CONTINUOUS
10
118.083
20
-125.752
11
117.678
21
-124.918
0
LINE
8
BLACK
6
CONTINUOUS
10
117.678
20
-124.918
11
117.308
21
-124.068
0
LINE
8
BLACK
6
CONTINUOUS
10
117.308
20
-124.068
11
116.972
21
-123.204
0
LINE
8
BLACK
6
CONTINUOUS
10
116.972
20
-123.204
11
116.671
21
-122.327
0
LINE
8
BLACK
6
CONTINUOUS
10
116.671
20
-122.327
11
116.405
21
-121.438
0
LINE
8
BLACK
6
CONTINUOUS
10
116.405
20
-121.438
11
116.175
21
-120.54
0
LINE
8
BLACK
6
CONTINUOUS
10
116.175
20
-120.54
11
115.982
21
-119.633
0
LINE
8
BLACK
6
CONTINUOUS
10
115.982
20
-119.633
11
115.825
21
-118.719
0
LINE
8
BLACK
6
CONTINUOUS
10
115.825
20
-118.719
11
115.704
21
-117.8
0
LINE
8
BLACK
6
CONTINUOUS
10
115.704
20
-117.8
11
115.621
21
-116.876
0
LINE
8
BLACK
6
CONTINUOUS
10
115.621
20
-116.876
11
115.575
21
-115.95
0
LINE
8
BLACK
6
CONTINUOUS
10
115.575
20
-115.95
11
115.569
21
-115.265
0
LINE
8
BLACK
6
CONTINUOUS
10
115.569
20
-115.265
11
115.566
21
-115.023
0
LINE
8
BLACK
6
CONTINUOUS
10
115.566
20
-115.023
11
115.595
21
-114.096
0
LINE
8
BLACK
6
CONTINUOUS
10
115.84
20
-117.182
11
115.941
21
-118.136
0
LINE
8
BLACK
6
CONTINUOUS
10
115.941
20
-118.136
11
116.081
21
-119.085
0
LINE
8
BLACK
6
CONTINUOUS
10
116.081
20
-119.085
11
116.26
21
-120.027
0
LINE
8
BLACK
6
CONTINUOUS
10
116.26
20
-120.027
11
116.48
21
-120.961
0
LINE
8
BLACK
6
CONTINUOUS
10
116.48
20
-120.961
11
116.738
21
-121.885
0
LINE
8
BLACK
6
CONTINUOUS
10
116.738
20
-121.885
11
117.034
21
-122.798
0
LINE
8
BLACK
6
CONTINUOUS
10
117.034
20
-122.798
11
117.368
21
-123.697
0
LINE
8
BLACK
6
CONTINUOUS
10
117.368
20
-123.697
11
117.74
21
-124.581
0
LINE
8
BLACK
6
CONTINUOUS
10
117.74
20
-124.581
11
118.149
21
-125.449
0
LINE
8
BLACK
6
CONTINUOUS
10
118.149
20
-125.449
11
118.593
21
-126.3
0
LINE
8
BLACK
6
CONTINUOUS
10
118.593
20
-126.3
11
119.073
21
-127.13
0
LINE
8
BLACK
6
CONTINUOUS
10
119.073
20
-127.13
11
119.587
21
-127.94
0
LINE
8
BLACK
6
CONTINUOUS
10
119.587
20
-127.94
11
120.134
21
-128.728
0
LINE
8
BLACK
6
CONTINUOUS
10
120.134
20
-128.728
11
120.714
21
-129.492
0
LINE
8
BLACK
6
CONTINUOUS
10
120.714
20
-129.492
11
121.326
21
-130.232
0
LINE
8
BLACK
6
CONTINUOUS
10
121.326
20
-130.232
11
121.968
21
-130.945
0
LINE
8
BLACK
6
CONTINUOUS
10
121.968
20
-130.945
11
122.639
21
-131.63
0
LINE
8
BLACK
6
CONTINUOUS
10
122.639
20
-131.63
11
123.339
21
-132.287
0
LINE
8
BLACK
6
CONTINUOUS
10
123.339
20
-132.287
11
124.065
21
-132.914
0
LINE
8
BLACK
6
CONTINUOUS
10
124.065
20
-132.914
11
124.817
21
-133.51
0
LINE
8
BLACK
6
CONTINUOUS
10
124.817
20
-133.51
11
125.593
21
-134.073
0
LINE
8
BLACK
6
CONTINUOUS
10
125.593
20
-134.073
11
126.392
21
-134.604
0
LINE
8
BLACK
6
CONTINUOUS
10
126.392
20
-134.604
11
127.212
21
-135.101
0
LINE
8
BLACK
6
CONTINUOUS
10
127.212
20
-135.101
11
128.053
21
-135.563
0
LINE
8
BLACK
6
CONTINUOUS
10
128.053
20
-135.563
11
128.912
21
-135.99
0
LINE
8
BLACK
6
CONTINUOUS
10
128.912
20
-135.99
11
129.789
21
-136.38
0
LINE
8
BLACK
6
CONTINUOUS
10
129.789
20
-136.38
11
130.681
21
-136.733
0
LINE
8
BLACK
6
CONTINUOUS
10
130.681
20
-136.733
11
131.587
21
-137.049
0
LINE
8
BLACK
6
CONTINUOUS
10
131.587
20
-137.049
11
132.505
21
-137.326
0
LINE
8
BLACK
6
CONTINUOUS
10
132.505
20
-137.326
11
133.435
21
-137.565
0
LINE
8
BLACK
6
CONTINUOUS
10
133.435
20
-137.565
11
134.373
21
-137.764
0
LINE
8
BLACK
6
CONTINUOUS
10
134.373
20
-137.764
11
135.319
21
-137.924
0
LINE
8
BLACK
6
CONTINUOUS
10
135.319
20
-137.924
11
136.271
21
-138.045
0
LINE
8
BLACK
6
CONTINUOUS
10
136.271
20
-138.045
11
137.227
21
-138.125
0
LINE
8
BLACK
6
CONTINUOUS
10
137.227
20
-138.125
11
138.185
21
-138.165
0
LINE
8
BLACK
6
CONTINUOUS
10
138.185
20
-138.165
11
139.145
21
-138.165
0
LINE
8
BLACK
6
CONTINUOUS
10
139.145
20
-138.165
11
140.103
21
-138.125
0
LINE
8
BLACK
6
CONTINUOUS
10
140.103
20
-138.125
11
141.059
21
-138.045
0
LINE
8
BLACK
6
CONTINUOUS
10
141.059
20
-138.045
11
142.011
21
-137.924
0
LINE
8
BLACK
6
CONTINUOUS
10
142.011
20
-137.924
11
142.957
21
-137.764
0
LINE
8
BLACK
6
CONTINUOUS
10
142.957
20
-137.764
11
143.895
21
-137.565
0
LINE
8
BLACK
6
CONTINUOUS
10
143.895
20
-137.565
11
144.825
21
-137.326
0
LINE
8
BLACK
6
CONTINUOUS
10
144.825
20
-137.326
11
145.743
21
-137.049
0
LINE
8
BLACK
6
CONTINUOUS
10
145.743
20
-137.049
11
146.649
21
-136.733
0
LINE
8
BLACK
6
CONTINUOUS
10
146.649
20
-136.733
11
147.541
21
-136.38
0
LINE
8
BLACK
6
CONTINUOUS
10
147.541
20
-136.38
11
148.417
21
-135.99
0
LINE
8
BLACK
6
CONTINUOUS
10
148.417
20
-135.99
11
149.277
21
-135.563
0
LINE
8
BLACK
6
CONTINUOUS
10
149.277
20
-135.563
11
150.117
21
-135.101
0
LINE
8
BLACK
6
CONTINUOUS
10
150.117
20
-135.101
11
150.938
21
-134.604
0
LINE
8
BLACK
6
CONTINUOUS
10
150.938
20
-134.604
11
151.737
21
-134.073
0
LINE
8
BLACK
6
CONTINUOUS
10
151.737
20
-134.073
11
152.513
21
-133.51
0
LINE
8
BLACK
6
CONTINUOUS
10
152.513
20
-133.51
11
153.265
21
-132.914
0
LINE
8
BLACK
6
CONTINUOUS
10
153.265
20
-132.914
11
153.991
21
-132.287
0
LINE
8
BLACK
6
CONTINUOUS
10
153.991
20
-132.287
11
154.691
21
-131.63
0
LINE
8
BLACK
6
CONTINUOUS
10
154.691
20
-131.63
11
155.362
21
-130.945
0
LINE
8
BLACK
6
CONTINUOUS
10
155.362
20
-130.945
11
156.004
21
-130.232
0
LINE
8
BLACK
6
CONTINUOUS
10
156.004
20
-130.232
11
156.615
21
-129.492
0
LINE
8
BLACK
6
CONTINUOUS
10
156.615
20
-129.492
11
157.196
21
-128.728
0
LINE
8
BLACK
6
CONTINUOUS
10
157.196
20
-128.728
11
157.743
21
-127.94
0
LINE
8
BLACK
6
CONTINUOUS
10
157.743
20
-127.94
11
158.257
21
-127.13
0
LINE
8
BLACK
6
CONTINUOUS
10
158.257
20
-127.13
11
158.737
21
-126.3
0
LINE
8
BLACK
6
CONTINUOUS
10
158.737
20
-126.3
11
159.181
21
-125.449
0
LINE
8
BLACK
6
CONTINUOUS
10
159.181
20
-125.449
11
159.59
21
-124.581
0
LINE
8
BLACK
6
CONTINUOUS
10
159.59
20
-124.581
11
159.962
21
-123.697
0
LINE
8
BLACK
6
CONTINUOUS
10
159.962
20
-123.697
11
160.296
21
-122.798
0
LINE
8
BLACK
6
CONTINUOUS
10
160.296
20
-122.798
11
160.592
21
-121.885
0
LINE
8
BLACK
6
CONTINUOUS
10
160.592
20
-121.885
11
160.85
21
-120.961
0
LINE
8
BLACK
6
CONTINUOUS
10
160.85
20
-120.961
11
161.069
21
-120.027
0
LINE
8
BLACK
6
CONTINUOUS
10
161.069
20
-120.027
11
161.249
21
-119.085
0
LINE
8
BLACK
6
CONTINUOUS
10
161.249
20
-119.085
11
161.389
21
-118.136
0
LINE
8
BLACK
6
CONTINUOUS
10
161.389
20
-118.136
11
161.49
21
-117.182
0
LINE
8
BLACK
6
CONTINUOUS
10
161.49
20
-117.182
11
161.55
21
-116.224
0
LINE
8
BLACK
6
CONTINUOUS
10
161.55
20
-116.224
11
161.57
21
-115.265
0
LINE
8
BLACK
6
CONTINUOUS
10
161.57
20
-115.265
11
161.55
21
-114.306
0
LINE
8
BLACK
6
CONTINUOUS
10
161.55
20
-114.306
11
161.49
21
-113.348
0
LINE
8
BLACK
6
CONTINUOUS
10
161.49
20
-113.348
11
161.389
21
-112.394
0
LINE
8
BLACK
6
CONTINUOUS
10
161.389
20
-112.394
11
161.249
21
-111.445
0
LINE
8
BLACK
6
CONTINUOUS
10
161.249
20
-111.445
11
161.069
21
-110.503
0
LINE
8
BLACK
6
CONTINUOUS
10
161.069
20
-110.503
11
160.85
21
-109.569
0
LINE
8
BLACK
6
CONTINUOUS
10
160.85
20
-109.569
11
160.592
21
-108.645
0
LINE
8
BLACK
6
CONTINUOUS
10
160.592
20
-108.645
11
160.296
21
-107.732
0
LINE
8
BLACK
6
CONTINUOUS
10
160.296
20
-107.732
11
159.962
21
-106.833
0
LINE
8
BLACK
6
CONTINUOUS
10
159.962
20
-106.833
11
159.59
21
-105.949
0
LINE
8
BLACK
6
CONTINUOUS
10
159.59
20
-105.949
11
159.181
21
-105.081
0
LINE
8
BLACK
6
CONTINUOUS
10
159.181
20
-105.081
11
158.737
21
-104.23
0
LINE
8
BLACK
6
CONTINUOUS
10
158.737
20
-104.23
11
158.257
21
-103.4
0
LINE
8
BLACK
6
CONTINUOUS
10
158.257
20
-103.4
11
157.743
21
-102.59
0
LINE
8
BLACK
6
CONTINUOUS
10
157.743
20
-102.59
11
157.196
21
-101.802
0
LINE
8
BLACK
6
CONTINUOUS
10
157.196
20
-101.802
11
156.615
21
-101.038
0
LINE
8
BLACK
6
CONTINUOUS
10
156.615
20
-101.038
11
156.004
21
-100.298
0
LINE
8
BLACK
6
CONTINUOUS
10
156.004
20
-100.298
11
155.362
21
-99.5854
0
LINE
8
BLACK
6
CONTINUOUS
10
155.362
20
-99.5854
11
154.691
21
-98.9
0
LINE
8
BLACK
6
CONTINUOUS
10
154.691
20
-98.9
11
153.991
21
-98.2432
0
LINE
8
BLACK
6
CONTINUOUS
10
153.991
20
-98.2432
11
153.265
21
-97.6163
0
LINE
8
BLACK
6
CONTINUOUS
10
153.265
20
-97.6163
11
152.513
21
-97.0204
0
LINE
8
BLACK
6
CONTINUOUS
10
152.513
20
-97.0204
11
151.737
21
-96.4565
0
LINE
8
BLACK
6
CONTINUOUS
10
151.737
20
-96.4565
11
150.938
21
-95.9256
0
LINE
8
BLACK
6
CONTINUOUS
10
150.938
20
-95.9256
11
150.117
21
-95.4286
0
LINE
8
BLACK
6
CONTINUOUS
10
150.117
20
-95.4286
11
149.277
21
-94.9665
0
LINE
8
BLACK
6
CONTINUOUS
10
149.277
20
-94.9665
11
148.417
21
-94.5399
0
LINE
8
BLACK
6
CONTINUOUS
10
148.417
20
-94.5399
11
147.541
21
-94.1497
0
LINE
8
BLACK
6
CONTINUOUS
10
147.541
20
-94.1497
11
146.649
21
-93.7965
0
LINE
8
BLACK
6
CONTINUOUS
10
146.649
20
-93.7965
11
145.743
21
-93.481
0
LINE
8
BLACK
6
CONTINUOUS
10
145.743
20
-93.481
11
144.825
21
-93.2037
0
LINE
8
BLACK
6
CONTINUOUS
10
144.825
20
-93.2037
11
143.895
21
-92.9651
0
LINE
8
BLACK
6
CONTINUOUS
10
143.895
20
-92.9651
11
142.957
21
-92.7657
0
LINE
8
BLACK
6
CONTINUOUS
10
142.957
20
-92.7657
11
142.011
21
-92.6057
0
LINE
8
BLACK
6
CONTINUOUS
10
142.011
20
-92.6057
11
141.059
21
-92.4854
0
LINE
8
BLACK
6
CONTINUOUS
10
141.059
20
-92.4854
11
140.103
21
-92.4051
0
LINE
8
BLACK
6
CONTINUOUS
10
140.103
20
-92.4051
11
139.145
21
-92.365
0
LINE
8
BLACK
6
CONTINUOUS
10
139.145
20
-92.365
11
138.185
21
-92.365
0
LINE
8
BLACK
6
CONTINUOUS
10
138.185
20
-92.365
11
137.227
21
-92.4051
0
LINE
8
BLACK
6
CONTINUOUS
10
137.227
20
-92.4051
11
136.271
21
-92.4854
0
LINE
8
BLACK
6
CONTINUOUS
10
136.271
20
-92.4854
11
135.319
21
-92.6057
0
LINE
8
BLACK
6
CONTINUOUS
10
135.319
20
-92.6057
11
134.373
21
-92.7657
0
LINE
8
BLACK
6
CONTINUOUS
10
134.373
20
-92.7657
11
133.435
21
-92.9651
0
LINE
8
BLACK
6
CONTINUOUS
10
133.435
20
-92.9651
11
132.505
21
-93.2037
0
LINE
8
BLACK
6
CONTINUOUS
10
132.505
20
-93.2037
11
131.587
21
-93.481
0
LINE
8
BLACK
6
CONTINUOUS
10
131.587
20
-93.481
11
130.681
21
-93.7965
0
LINE
8
BLACK
6
CONTINUOUS
10
130.681
20
-93.7965
11
129.789
21
-94.1497
0
LINE
8
BLACK
6
CONTINUOUS
10
129.789
20
-94.1497
11
128.912
21
-94.5399
0
LINE
8
BLACK
6
CONTINUOUS
10
128.912
20
-94.5399
11
128.053
21
-94.9665
0
LINE
8
BLACK
6
CONTINUOUS
10
128.053
20
-94.9665
11
127.212
21
-95.4286
0
LINE
8
BLACK
6
CONTINUOUS
10
127.212
20
-95.4286
11
126.392
21
-95.9256
0
LINE
8
BLACK
6
CONTINUOUS
10
126.392
20
-95.9256
11
125.593
21
-96.4565
0
LINE
8
BLACK
6
CONTINUOUS
10
125.593
20
-96.4565
11
124.817
21
-97.0204
0
LINE
8
BLACK
6
CONTINUOUS
10
124.817
20
-97.0204
11
124.065
21
-97.6163
0
LINE
8
BLACK
6
CONTINUOUS
10
124.065
20
-97.6163
11
123.339
21
-98.2432
0
LINE
8
BLACK
6
CONTINUOUS
10
123.339
20
-98.2432
11
122.639
21
-98.9
0
LINE
8
BLACK
6
CONTINUOUS
10
122.639
20
-98.9
11
121.968
21
-99.5854
0
LINE
8
BLACK
6
CONTINUOUS
10
121.968
20
-99.5854
11
121.326
21
-100.298
0
LINE
8
BLACK
6
CONTINUOUS
10
121.326
20
-100.298
11
120.714
21
-101.038
0
LINE
8
BLACK
6
CONTINUOUS
10
120.714
20
-101.038
11
120.134
21
-101.802
0
LINE
8
BLACK
6
CONTINUOUS
10
120.134
20
-101.802
11
119.587
21
-102.59
0
LINE
8
BLACK
6
CONTINUOUS
10
119.587
20
-102.59
11
119.073
21
-103.4
0
LINE
8
BLACK
6
CONTINUOUS
10
119.073
20
-103.4
11
118.593
21
-104.23
0
LINE
8
BLACK
6
CONTINUOUS
10
118.593
20
-104.23
11
118.149
21
-105.081
0
LINE
8
BLACK
6
CONTINUOUS
10
118.149
20
-105.081
11
117.74
21
-105.949
0
LINE
8
BLACK
6
CONTINUOUS
10
117.74
20
-105.949
11
117.368
21
-106.833
0
LINE
8
BLACK
6
CONTINUOUS
10
117.368
20
-106.833
11
117.034
21
-107.732
0
LINE
8
BLACK
6
CONTINUOUS
10
117.034
20
-107.732
11
116.738
21
-108.645
0
LINE
8
BLACK
6
CONTINUOUS
10
116.738
20
-108.645
11
116.48
21
-109.569
0
LINE
8
BLACK
6
CONTINUOUS
10
116.48
20
-109.569
11
116.26
21
-110.503
0
LINE
8
BLACK
6
CONTINUOUS
10
116.26
20
-110.503
11
116.081
21
-111.445
0
LINE
8
BLACK
6
CONTINUOUS
10
116.081
20
-111.445
11
115.941
21
-112.394
0
LINE
8
BLACK
6
CONTINUOUS
10
115.941
20
-112.394
11
115.84
21
-113.348
0
LINE
8
BLACK
6
CONTINUOUS
10
115.84
20
-113.348
11
115.78
21
-114.306
0
LINE
8
BLACK
6
CONTINUOUS
10
115.78
20
-114.306
11
115.76
21
-115.265
0
LINE
8
BLACK
6
CONTINUOUS
10
115.76
20
-115.265
11
115.78
21
-116.224
0
LINE
8
BLACK
6
CONTINUOUS
10
115.78
20
-116.224
11
115.84
21
-117.182
0
LINE
8
BLACK
6
CONTINUOUS
10
129.696
20
-114.449
11
129.77
21
-113.856
0
LINE
8
BLACK
6
CONTINUOUS
10
129.77
20
-113.856
11
129.883
21
-113.27
0
LINE
8
BLACK
6
CONTINUOUS
10
129.883
20
-113.27
11
130.034
21
-112.692
0
LINE
8
BLACK
6
CONTINUOUS
10
130.034
20
-112.692
11
130.224
21
-112.126
0
LINE
8
BLACK
6
CONTINUOUS
10
130.224
20
-112.126
11
130.45
21
-111.573
0
LINE
8
BLACK
6
CONTINUOUS
10
130.45
20
-111.573
11
130.713
21
-111.037
0
LINE
8
BLACK
6
CONTINUOUS
10
130.713
20
-111.037
11
131.011
21
-110.519
0
LINE
8
BLACK
6
CONTINUOUS
10
131.011
20
-110.519
11
131.342
21
-110.022
0
LINE
8
BLACK
6
CONTINUOUS
10
131.342
20
-110.022
11
131.706
21
-109.549
0
LINE
8
BLACK
6
CONTINUOUS
10
131.706
20
-109.549
11
132.1
21
-109.1
0
LINE
8
BLACK
6
CONTINUOUS
10
132.1
20
-109.1
11
132.523
21
-108.678
0
LINE
8
BLACK
6
CONTINUOUS
10
132.523
20
-108.678
11
132.973
21
-108.286
0
LINE
8
BLACK
6
CONTINUOUS
10
132.973
20
-108.286
11
133.448
21
-107.924
0
LINE
8
BLACK
6
CONTINUOUS
10
133.448
20
-107.924
11
133.946
21
-107.594
0
LINE
8
BLACK
6
CONTINUOUS
10
133.946
20
-107.594
11
134.465
21
-107.298
0
LINE
8
BLACK
6
CONTINUOUS
10
134.465
20
-107.298
11
135.002
21
-107.038
0
LINE
8
BLACK
6
CONTINUOUS
10
135.002
20
-107.038
11
135.555
21
-106.813
0
LINE
8
BLACK
6
CONTINUOUS
10
135.555
20
-106.813
11
136.122
21
-106.625
0
LINE
8
BLACK
6
CONTINUOUS
10
136.122
20
-106.625
11
136.7
21
-106.476
0
LINE
8
BLACK
6
CONTINUOUS
10
136.7
20
-106.476
11
137.287
21
-106.365
0
LINE
8
BLACK
6
CONTINUOUS
10
137.287
20
-106.365
11
137.88
21
-106.293
0
LINE
8
BLACK
6
CONTINUOUS
10
137.88
20
-106.293
11
138.476
21
-106.261
0
LINE
8
BLACK
6
CONTINUOUS
10
138.476
20
-106.261
11
139.074
21
-106.268
0
LINE
8
BLACK
6
CONTINUOUS
10
139.074
20
-106.268
11
139.669
21
-106.315
0
LINE
8
BLACK
6
CONTINUOUS
10
139.669
20
-106.315
11
140.26
21
-106.401
0
LINE
8
BLACK
6
CONTINUOUS
10
140.26
20
-106.401
11
140.844
21
-106.526
0
LINE
8
BLACK
6
CONTINUOUS
10
140.844
20
-106.526
11
141.418
21
-106.69
0
LINE
8
BLACK
6
CONTINUOUS
10
141.418
20
-106.69
11
141.98
21
-106.891
0
LINE
8
BLACK
6
CONTINUOUS
10
141.98
20
-106.891
11
142.528
21
-107.129
0
LINE
8
BLACK
6
CONTINUOUS
10
142.528
20
-107.129
11
143.059
21
-107.403
0
LINE
8
BLACK
6
CONTINUOUS
10
143.059
20
-107.403
11
143.57
21
-107.712
0
LINE
8
BLACK
6
CONTINUOUS
10
143.57
20
-107.712
11
144.06
21
-108.054
0
LINE
8
BLACK
6
CONTINUOUS
10
144.06
20
-108.054
11
144.526
21
-108.427
0
LINE
8
BLACK
6
CONTINUOUS
10
144.526
20
-108.427
11
144.966
21
-108.83
0
LINE
8
BLACK
6
CONTINUOUS
10
144.966
20
-108.83
11
145.379
21
-109.262
0
LINE
8
BLACK
6
CONTINUOUS
10
145.379
20
-109.262
11
145.762
21
-109.72
0
LINE
8
BLACK
6
CONTINUOUS
10
145.762
20
-109.72
11
146.114
21
-110.203
0
LINE
8
BLACK
6
CONTINUOUS
10
146.114
20
-110.203
11
146.433
21
-110.708
0
LINE
8
BLACK
6
CONTINUOUS
10
146.433
20
-110.708
11
146.718
21
-111.232
0
LINE
8
BLACK
6
CONTINUOUS
10
146.718
20
-111.232
11
146.967
21
-111.775
0
LINE
8
BLACK
6
CONTINUOUS
10
146.967
20
-111.775
11
147.18
21
-112.333
0
LINE
8
BLACK
6
CONTINUOUS
10
147.18
20
-112.333
11
147.356
21
-112.904
0
LINE
8
BLACK
6
CONTINUOUS
10
147.356
20
-112.904
11
147.493
21
-113.485
0
LINE
8
BLACK
6
CONTINUOUS
10
147.493
20
-113.485
11
147.592
21
-114.074
0
LINE
8
BLACK
6
CONTINUOUS
10
147.592
20
-114.074
11
147.651
21
-114.668
0
LINE
8
BLACK
6
CONTINUOUS
10
147.651
20
-114.668
11
147.671
21
-115.265
0
LINE
8
BLACK
6
CONTINUOUS
10
147.671
20
-115.265
11
147.66
21
-115.705
0
LINE
8
BLACK
6
CONTINUOUS
10
147.66
20
-115.705
11
147.611
21
-116.3
0
LINE
8
BLACK
6
CONTINUOUS
10
147.611
20
-116.3
11
147.523
21
-116.891
0
LINE
8
BLACK
6
CONTINUOUS
10
147.523
20
-116.891
11
147.396
21
-117.474
0
LINE
8
BLACK
6
CONTINUOUS
10
147.396
20
-117.474
11
147.23
21
-118.048
0
LINE
8
BLACK
6
CONTINUOUS
10
147.23
20
-118.048
11
147.027
21
-118.61
0
LINE
8
BLACK
6
CONTINUOUS
10
147.027
20
-118.61
11
146.787
21
-119.156
0
LINE
8
BLACK
6
CONTINUOUS
10
146.787
20
-119.156
11
146.511
21
-119.686
0
LINE
8
BLACK
6
CONTINUOUS
10
146.511
20
-119.686
11
146.201
21
-120.196
0
LINE
8
BLACK
6
CONTINUOUS
10
146.201
20
-120.196
11
145.858
21
-120.685
0
LINE
8
BLACK
6
CONTINUOUS
10
145.858
20
-120.685
11
145.483
21
-121.15
0
LINE
8
BLACK
6
CONTINUOUS
10
145.483
20
-121.15
11
145.078
21
-121.589
0
LINE
8
BLACK
6
CONTINUOUS
10
145.078
20
-121.589
11
144.644
21
-122
0
LINE
8
BLACK
6
CONTINUOUS
10
144.644
20
-122
11
144.185
21
-122.381
0
LINE
8
BLACK
6
CONTINUOUS
10
144.185
20
-122.381
11
143.701
21
-122.731
0
LINE
8
BLACK
6
CONTINUOUS
10
143.701
20
-122.731
11
143.195
21
-123.049
0
LINE
8
BLACK
6
CONTINUOUS
10
143.195
20
-123.049
11
142.669
21
-123.332
0
LINE
8
BLACK
6
CONTINUOUS
10
142.669
20
-123.332
11
142.126
21
-123.579
0
LINE
8
BLACK
6
CONTINUOUS
10
142.126
20
-123.579
11
141.567
21
-123.791
0
LINE
8
BLACK
6
CONTINUOUS
10
141.567
20
-123.791
11
140.996
21
-123.964
0
LINE
8
BLACK
6
CONTINUOUS
10
140.996
20
-123.964
11
140.414
21
-124.1
0
LINE
8
BLACK
6
CONTINUOUS
10
140.414
20
-124.1
11
139.825
21
-124.196
0
LINE
8
BLACK
6
CONTINUOUS
10
139.825
20
-124.196
11
139.23
21
-124.253
0
LINE
8
BLACK
6
CONTINUOUS
10
139.23
20
-124.253
11
138.634
21
-124.271
0
LINE
8
BLACK
6
CONTINUOUS
10
138.634
20
-124.271
11
138.037
21
-124.249
0
LINE
8
BLACK
6
CONTINUOUS
10
138.037
20
-124.249
11
137.443
21
-124.188
0
LINE
8
BLACK
6
CONTINUOUS
10
137.443
20
-124.188
11
136.854
21
-124.087
0
LINE
8
BLACK
6
CONTINUOUS
10
136.854
20
-124.087
11
136.273
21
-123.948
0
LINE
8
BLACK
6
CONTINUOUS
10
136.273
20
-123.948
11
135.703
21
-123.77
0
LINE
8
BLACK
6
CONTINUOUS
10
135.703
20
-123.77
11
135.146
21
-123.555
0
LINE
8
BLACK
6
CONTINUOUS
10
135.146
20
-123.555
11
134.604
21
-123.304
0
LINE
8
BLACK
6
CONTINUOUS
10
134.604
20
-123.304
11
134.081
21
-123.017
0
LINE
8
BLACK
6
CONTINUOUS
10
134.081
20
-123.017
11
133.577
21
-122.696
0
LINE
8
BLACK
6
CONTINUOUS
10
133.577
20
-122.696
11
133.096
21
-122.342
0
LINE
8
BLACK
6
CONTINUOUS
10
133.096
20
-122.342
11
132.639
21
-121.958
0
LINE
8
BLACK
6
CONTINUOUS
10
132.639
20
-121.958
11
132.208
21
-121.544
0
LINE
8
BLACK
6
CONTINUOUS
10
132.208
20
-121.544
11
131.807
21
-121.102
0
LINE
8
BLACK
6
CONTINUOUS
10
131.807
20
-121.102
11
131.435
21
-120.635
0
LINE
8
BLACK
6
CONTINUOUS
10
131.435
20
-120.635
11
131.095
21
-120.144
0
LINE
8
BLACK
6
CONTINUOUS
10
131.095
20
-120.144
11
130.788
21
-119.631
0
LINE
8
BLACK
6
CONTINUOUS
10
130.788
20
-119.631
11
130.516
21
-119.1
0
LINE
8
BLACK
6
CONTINUOUS
10
130.516
20
-119.1
11
130.28
21
-118.551
0
LINE
8
BLACK
6
CONTINUOUS
10
130.28
20
-118.551
11
130.08
21
-117.988
0
LINE
8
BLACK
6
CONTINUOUS
10
130.08
20
-117.988
11
129.919
21
-117.413
0
LINE
8
BLACK
6
CONTINUOUS
10
129.919
20
-117.413
11
129.796
21
-116.829
0
LINE
8
BLACK
6
CONTINUOUS
10
129.796
20
-116.829
11
129.712
21
-116.238
0
LINE
8
BLACK
6
CONTINUOUS
10
129.712
20
-116.238
11
129.667
21
-115.642
0
LINE
8
BLACK
6
CONTINUOUS
10
129.667
20
-115.642
11
129.662
21
-115.046
0
LINE
8
BLACK
6
CONTINUOUS
10
129.662
20
-115.046
11
129.662
21
-115.045
0
LINE
8
BLACK
6
CONTINUOUS
10
129.662
20
-115.045
11
129.696
21
-114.449
0
LINE
8
BLACK
6
CONTINUOUS
10
129.756
20
-116.233
11
129.84
21
-116.821
0
LINE
8
BLACK
6
CONTINUOUS
10
129.84
20
-116.821
11
129.963
21
-117.402
0
LINE
8
BLACK
6
CONTINUOUS
10
129.963
20
-117.402
11
130.123
21
-117.975
0
LINE
8
BLACK
6
CONTINUOUS
10
130.123
20
-117.975
11
130.322
21
-118.535
0
LINE
8
BLACK
6
CONTINUOUS
10
130.322
20
-118.535
11
130.557
21
-119.08
0
LINE
8
BLACK
6
CONTINUOUS
10
130.557
20
-119.08
11
130.827
21
-119.609
0
LINE
8
BLACK
6
CONTINUOUS
10
130.827
20
-119.609
11
131.133
21
-120.119
0
LINE
8
BLACK
6
CONTINUOUS
10
131.133
20
-120.119
11
131.471
21
-120.608
0
LINE
8
BLACK
6
CONTINUOUS
10
131.471
20
-120.608
11
131.841
21
-121.073
0
LINE
8
BLACK
6
CONTINUOUS
10
131.841
20
-121.073
11
132.241
21
-121.512
0
LINE
8
BLACK
6
CONTINUOUS
10
132.241
20
-121.512
11
132.669
21
-121.924
0
LINE
8
BLACK
6
CONTINUOUS
10
132.669
20
-121.924
11
133.123
21
-122.307
0
LINE
8
BLACK
6
CONTINUOUS
10
133.123
20
-122.307
11
133.602
21
-122.659
0
LINE
8
BLACK
6
CONTINUOUS
10
133.602
20
-122.659
11
134.103
21
-122.978
0
LINE
8
BLACK
6
CONTINUOUS
10
134.103
20
-122.978
11
134.625
21
-123.263
0
LINE
8
BLACK
6
CONTINUOUS
10
134.625
20
-123.263
11
135.164
21
-123.514
0
LINE
8
BLACK
6
CONTINUOUS
10
135.164
20
-123.514
11
135.718
21
-123.728
0
LINE
8
BLACK
6
CONTINUOUS
10
135.718
20
-123.728
11
136.285
21
-123.904
0
LINE
8
BLACK
6
CONTINUOUS
10
136.285
20
-123.904
11
136.863
21
-124.043
0
LINE
8
BLACK
6
CONTINUOUS
10
136.863
20
-124.043
11
137.449
21
-124.143
0
LINE
8
BLACK
6
CONTINUOUS
10
137.449
20
-124.143
11
138.04
21
-124.204
0
LINE
8
BLACK
6
CONTINUOUS
10
138.04
20
-124.204
11
138.634
21
-124.226
0
LINE
8
BLACK
6
CONTINUOUS
10
138.634
20
-124.226
11
139.228
21
-124.208
0
LINE
8
BLACK
6
CONTINUOUS
10
139.228
20
-124.208
11
139.819
21
-124.151
0
LINE
8
BLACK
6
CONTINUOUS
10
139.819
20
-124.151
11
140.406
21
-124.055
0
LINE
8
BLACK
6
CONTINUOUS
10
140.406
20
-124.055
11
140.984
21
-123.921
0
LINE
8
BLACK
6
CONTINUOUS
10
140.984
20
-123.921
11
141.553
21
-123.748
0
LINE
8
BLACK
6
CONTINUOUS
10
141.553
20
-123.748
11
142.109
21
-123.538
0
LINE
8
BLACK
6
CONTINUOUS
10
142.109
20
-123.538
11
142.649
21
-123.292
0
LINE
8
BLACK
6
CONTINUOUS
10
142.649
20
-123.292
11
143.173
21
-123.01
0
LINE
8
BLACK
6
CONTINUOUS
10
143.173
20
-123.01
11
143.676
21
-122.694
0
LINE
8
BLACK
6
CONTINUOUS
10
143.676
20
-122.694
11
144.157
21
-122.346
0
LINE
8
BLACK
6
CONTINUOUS
10
144.157
20
-122.346
11
144.614
21
-121.966
0
LINE
8
BLACK
6
CONTINUOUS
10
144.614
20
-121.966
11
145.045
21
-121.557
0
LINE
8
BLACK
6
CONTINUOUS
10
145.045
20
-121.557
11
145.448
21
-121.12
0
LINE
8
BLACK
6
CONTINUOUS
10
145.448
20
-121.12
11
145.822
21
-120.658
0
LINE
8
BLACK
6
CONTINUOUS
10
145.822
20
-120.658
11
146.163
21
-120.172
0
LINE
8
BLACK
6
CONTINUOUS
10
146.163
20
-120.172
11
146.472
21
-119.664
0
LINE
8
BLACK
6
CONTINUOUS
10
146.472
20
-119.664
11
146.746
21
-119.137
0
LINE
8
BLACK
6
CONTINUOUS
10
146.746
20
-119.137
11
146.985
21
-118.593
0
LINE
8
BLACK
6
CONTINUOUS
10
146.985
20
-118.593
11
147.187
21
-118.034
0
LINE
8
BLACK
6
CONTINUOUS
10
147.187
20
-118.034
11
147.352
21
-117.463
0
LINE
8
BLACK
6
CONTINUOUS
10
147.352
20
-117.463
11
147.479
21
-116.883
0
LINE
8
BLACK
6
CONTINUOUS
10
147.479
20
-116.883
11
147.567
21
-116.295
0
LINE
8
BLACK
6
CONTINUOUS
10
147.567
20
-116.295
11
147.615
21
-115.703
0
LINE
8
BLACK
6
CONTINUOUS
10
147.615
20
-115.703
11
147.626
21
-115.265
0
LINE
8
BLACK
6
CONTINUOUS
10
147.626
20
-115.265
11
147.606
21
-114.671
0
LINE
8
BLACK
6
CONTINUOUS
10
147.606
20
-114.671
11
147.547
21
-114.08
0
LINE
8
BLACK
6
CONTINUOUS
10
147.547
20
-114.08
11
147.449
21
-113.494
0
LINE
8
BLACK
6
CONTINUOUS
10
147.449
20
-113.494
11
147.313
21
-112.915
0
LINE
8
BLACK
6
CONTINUOUS
10
147.313
20
-112.915
11
147.138
21
-112.348
0
LINE
8
BLACK
6
CONTINUOUS
10
147.138
20
-112.348
11
146.926
21
-111.792
0
LINE
8
BLACK
6
CONTINUOUS
10
146.926
20
-111.792
11
146.678
21
-111.253
0
LINE
8
BLACK
6
CONTINUOUS
10
146.678
20
-111.253
11
146.394
21
-110.73
0
LINE
8
BLACK
6
CONTINUOUS
10
146.394
20
-110.73
11
146.076
21
-110.228
0
LINE
8
BLACK
6
CONTINUOUS
10
146.076
20
-110.228
11
145.726
21
-109.748
0
LINE
8
BLACK
6
CONTINUOUS
10
145.726
20
-109.748
11
145.345
21
-109.292
0
LINE
8
BLACK
6
CONTINUOUS
10
145.345
20
-109.292
11
144.935
21
-108.863
0
LINE
8
BLACK
6
CONTINUOUS
10
144.935
20
-108.863
11
144.497
21
-108.461
0
LINE
8
BLACK
6
CONTINUOUS
10
144.497
20
-108.461
11
144.033
21
-108.09
0
LINE
8
BLACK
6
CONTINUOUS
10
144.033
20
-108.09
11
143.546
21
-107.75
0
LINE
8
BLACK
6
CONTINUOUS
10
143.546
20
-107.75
11
143.037
21
-107.443
0
LINE
8
BLACK
6
CONTINUOUS
10
143.037
20
-107.443
11
142.509
21
-107.17
0
LINE
8
BLACK
6
CONTINUOUS
10
142.509
20
-107.17
11
141.964
21
-106.933
0
LINE
8
BLACK
6
CONTINUOUS
10
141.964
20
-106.933
11
141.404
21
-106.733
0
LINE
8
BLACK
6
CONTINUOUS
10
141.404
20
-106.733
11
140.833
21
-106.57
0
LINE
8
BLACK
6
CONTINUOUS
10
140.833
20
-106.57
11
140.252
21
-106.446
0
LINE
8
BLACK
6
CONTINUOUS
10
140.252
20
-106.446
11
139.664
21
-106.36
0
LINE
8
BLACK
6
CONTINUOUS
10
139.664
20
-106.36
11
139.071
21
-106.313
0
LINE
8
BLACK
6
CONTINUOUS
10
139.071
20
-106.313
11
138.477
21
-106.306
0
LINE
8
BLACK
6
CONTINUOUS
10
138.477
20
-106.306
11
137.884
21
-106.338
0
LINE
8
BLACK
6
CONTINUOUS
10
137.884
20
-106.338
11
137.294
21
-106.409
0
LINE
8
BLACK
6
CONTINUOUS
10
137.294
20
-106.409
11
136.71
21
-106.52
0
LINE
8
BLACK
6
CONTINUOUS
10
136.71
20
-106.52
11
136.135
21
-106.668
0
LINE
8
BLACK
6
CONTINUOUS
10
136.135
20
-106.668
11
135.571
21
-106.855
0
LINE
8
BLACK
6
CONTINUOUS
10
135.571
20
-106.855
11
135.02
21
-107.079
0
LINE
8
BLACK
6
CONTINUOUS
10
135.02
20
-107.079
11
134.486
21
-107.338
0
LINE
8
BLACK
6
CONTINUOUS
10
134.486
20
-107.338
11
133.969
21
-107.633
0
LINE
8
BLACK
6
CONTINUOUS
10
133.969
20
-107.633
11
133.474
21
-107.961
0
LINE
8
BLACK
6
CONTINUOUS
10
133.474
20
-107.961
11
133.001
21
-108.321
0
LINE
8
BLACK
6
CONTINUOUS
10
133.001
20
-108.321
11
132.554
21
-108.711
0
LINE
8
BLACK
6
CONTINUOUS
10
132.554
20
-108.711
11
132.133
21
-109.131
0
LINE
8
BLACK
6
CONTINUOUS
10
132.133
20
-109.131
11
131.74
21
-109.577
0
LINE
8
BLACK
6
CONTINUOUS
10
131.74
20
-109.577
11
131.379
21
-110.049
0
LINE
8
BLACK
6
CONTINUOUS
10
131.379
20
-110.049
11
131.049
21
-110.543
0
LINE
8
BLACK
6
CONTINUOUS
10
131.049
20
-110.543
11
130.753
21
-111.058
0
LINE
8
BLACK
6
CONTINUOUS
10
130.753
20
-111.058
11
130.491
21
-111.592
0
LINE
8
BLACK
6
CONTINUOUS
10
130.491
20
-111.592
11
130.266
21
-112.141
0
LINE
8
BLACK
6
CONTINUOUS
10
130.266
20
-112.141
11
130.077
21
-112.705
0
LINE
8
BLACK
6
CONTINUOUS
10
130.077
20
-112.705
11
129.927
21
-113.28
0
LINE
8
BLACK
6
CONTINUOUS
10
129.927
20
-113.28
11
129.814
21
-113.863
0
LINE
8
BLACK
6
CONTINUOUS
10
129.814
20
-113.863
11
129.741
21
-114.453
0
LINE
8
BLACK
6
CONTINUOUS
10
129.741
20
-114.453
11
129.707
21
-115.046
0
LINE
8
BLACK
6
CONTINUOUS
10
129.707
20
-115.046
11
129.712
21
-115.64
0
LINE
8
BLACK
6
CONTINUOUS
10
129.712
20
-115.64
11
129.756
21
-116.233
  0
ENDSEC
  0
EOF
