%TF.GenerationSoftware,KiCad,Pcbnew,6.0.6-3a73a75311~116~ubuntu20.04.1*%
%TF.CreationDate,2022-09-27T10:12:31+01:00*%
%TF.ProjectId,UFOControlDeck,55464f43-6f6e-4747-926f-6c4465636b2e,rev?*%
%TF.SameCoordinates,Original*%
%TF.FileFunction,Legend,Bot*%
%TF.FilePolarity,Positive*%
%FSLAX46Y46*%
G04 Gerber Fmt 4.6, Leading zero omitted, Abs format (unit mm)*
G04 Created by KiCad (PCBNEW 6.0.6-3a73a75311~116~ubuntu20.04.1) date 2022-09-27 10:12:31*
%MOMM*%
%LPD*%
G01*
G04 APERTURE LIST*
%ADD10C,0.150000*%
%ADD11C,0.010000*%
%ADD12C,0.120000*%
G04 APERTURE END LIST*
D10*
X129707142Y-118597380D02*
X129707142Y-119406904D01*
X129659523Y-119502142D01*
X129611904Y-119549761D01*
X129516666Y-119597380D01*
X129326190Y-119597380D01*
X129230952Y-119549761D01*
X129183333Y-119502142D01*
X129135714Y-119406904D01*
X129135714Y-118597380D01*
X128326190Y-119073571D02*
X128659523Y-119073571D01*
X128659523Y-119597380D02*
X128659523Y-118597380D01*
X128183333Y-118597380D01*
X127611904Y-118597380D02*
X127421428Y-118597380D01*
X127326190Y-118645000D01*
X127230952Y-118740238D01*
X127183333Y-118930714D01*
X127183333Y-119264047D01*
X127230952Y-119454523D01*
X127326190Y-119549761D01*
X127421428Y-119597380D01*
X127611904Y-119597380D01*
X127707142Y-119549761D01*
X127802380Y-119454523D01*
X127850000Y-119264047D01*
X127850000Y-118930714D01*
X127802380Y-118740238D01*
X127707142Y-118645000D01*
X127611904Y-118597380D01*
X125421428Y-119502142D02*
X125469047Y-119549761D01*
X125611904Y-119597380D01*
X125707142Y-119597380D01*
X125850000Y-119549761D01*
X125945238Y-119454523D01*
X125992857Y-119359285D01*
X126040476Y-119168809D01*
X126040476Y-119025952D01*
X125992857Y-118835476D01*
X125945238Y-118740238D01*
X125850000Y-118645000D01*
X125707142Y-118597380D01*
X125611904Y-118597380D01*
X125469047Y-118645000D01*
X125421428Y-118692619D01*
X124850000Y-119597380D02*
X124945238Y-119549761D01*
X124992857Y-119502142D01*
X125040476Y-119406904D01*
X125040476Y-119121190D01*
X124992857Y-119025952D01*
X124945238Y-118978333D01*
X124850000Y-118930714D01*
X124707142Y-118930714D01*
X124611904Y-118978333D01*
X124564285Y-119025952D01*
X124516666Y-119121190D01*
X124516666Y-119406904D01*
X124564285Y-119502142D01*
X124611904Y-119549761D01*
X124707142Y-119597380D01*
X124850000Y-119597380D01*
X124088095Y-118930714D02*
X124088095Y-119597380D01*
X124088095Y-119025952D02*
X124040476Y-118978333D01*
X123945238Y-118930714D01*
X123802380Y-118930714D01*
X123707142Y-118978333D01*
X123659523Y-119073571D01*
X123659523Y-119597380D01*
X123326190Y-118930714D02*
X122945238Y-118930714D01*
X123183333Y-118597380D02*
X123183333Y-119454523D01*
X123135714Y-119549761D01*
X123040476Y-119597380D01*
X122945238Y-119597380D01*
X122611904Y-119597380D02*
X122611904Y-118930714D01*
X122611904Y-119121190D02*
X122564285Y-119025952D01*
X122516666Y-118978333D01*
X122421428Y-118930714D01*
X122326190Y-118930714D01*
X121850000Y-119597380D02*
X121945238Y-119549761D01*
X121992857Y-119502142D01*
X122040476Y-119406904D01*
X122040476Y-119121190D01*
X121992857Y-119025952D01*
X121945238Y-118978333D01*
X121850000Y-118930714D01*
X121707142Y-118930714D01*
X121611904Y-118978333D01*
X121564285Y-119025952D01*
X121516666Y-119121190D01*
X121516666Y-119406904D01*
X121564285Y-119502142D01*
X121611904Y-119549761D01*
X121707142Y-119597380D01*
X121850000Y-119597380D01*
X120945238Y-119597380D02*
X121040476Y-119549761D01*
X121088095Y-119454523D01*
X121088095Y-118597380D01*
X119802380Y-119597380D02*
X119802380Y-118597380D01*
X119564285Y-118597380D01*
X119421428Y-118645000D01*
X119326190Y-118740238D01*
X119278571Y-118835476D01*
X119230952Y-119025952D01*
X119230952Y-119168809D01*
X119278571Y-119359285D01*
X119326190Y-119454523D01*
X119421428Y-119549761D01*
X119564285Y-119597380D01*
X119802380Y-119597380D01*
X118421428Y-119549761D02*
X118516666Y-119597380D01*
X118707142Y-119597380D01*
X118802380Y-119549761D01*
X118850000Y-119454523D01*
X118850000Y-119073571D01*
X118802380Y-118978333D01*
X118707142Y-118930714D01*
X118516666Y-118930714D01*
X118421428Y-118978333D01*
X118373809Y-119073571D01*
X118373809Y-119168809D01*
X118850000Y-119264047D01*
X117516666Y-119549761D02*
X117611904Y-119597380D01*
X117802380Y-119597380D01*
X117897619Y-119549761D01*
X117945238Y-119502142D01*
X117992857Y-119406904D01*
X117992857Y-119121190D01*
X117945238Y-119025952D01*
X117897619Y-118978333D01*
X117802380Y-118930714D01*
X117611904Y-118930714D01*
X117516666Y-118978333D01*
X117088095Y-119597380D02*
X117088095Y-118597380D01*
X116992857Y-119216428D02*
X116707142Y-119597380D01*
X116707142Y-118930714D02*
X117088095Y-119311666D01*
X124278571Y-120540714D02*
X124040476Y-121207380D01*
X123802380Y-120540714D01*
X123230952Y-120207380D02*
X123135714Y-120207380D01*
X123040476Y-120255000D01*
X122992857Y-120302619D01*
X122945238Y-120397857D01*
X122897619Y-120588333D01*
X122897619Y-120826428D01*
X122945238Y-121016904D01*
X122992857Y-121112142D01*
X123040476Y-121159761D01*
X123135714Y-121207380D01*
X123230952Y-121207380D01*
X123326190Y-121159761D01*
X123373809Y-121112142D01*
X123421428Y-121016904D01*
X123469047Y-120826428D01*
X123469047Y-120588333D01*
X123421428Y-120397857D01*
X123373809Y-120302619D01*
X123326190Y-120255000D01*
X123230952Y-120207380D01*
X122469047Y-121112142D02*
X122421428Y-121159761D01*
X122469047Y-121207380D01*
X122516666Y-121159761D01*
X122469047Y-121112142D01*
X122469047Y-121207380D01*
X122088095Y-120207380D02*
X121469047Y-120207380D01*
X121802380Y-120588333D01*
X121659523Y-120588333D01*
X121564285Y-120635952D01*
X121516666Y-120683571D01*
X121469047Y-120778809D01*
X121469047Y-121016904D01*
X121516666Y-121112142D01*
X121564285Y-121159761D01*
X121659523Y-121207380D01*
X121945238Y-121207380D01*
X122040476Y-121159761D01*
X122088095Y-121112142D01*
%TO.C,C13*%
X146807142Y-95207142D02*
X146854761Y-95159523D01*
X146902380Y-95016666D01*
X146902380Y-94921428D01*
X146854761Y-94778571D01*
X146759523Y-94683333D01*
X146664285Y-94635714D01*
X146473809Y-94588095D01*
X146330952Y-94588095D01*
X146140476Y-94635714D01*
X146045238Y-94683333D01*
X145950000Y-94778571D01*
X145902380Y-94921428D01*
X145902380Y-95016666D01*
X145950000Y-95159523D01*
X145997619Y-95207142D01*
X146902380Y-96159523D02*
X146902380Y-95588095D01*
X146902380Y-95873809D02*
X145902380Y-95873809D01*
X146045238Y-95778571D01*
X146140476Y-95683333D01*
X146188095Y-95588095D01*
X145902380Y-96492857D02*
X145902380Y-97111904D01*
X146283333Y-96778571D01*
X146283333Y-96921428D01*
X146330952Y-97016666D01*
X146378571Y-97064285D01*
X146473809Y-97111904D01*
X146711904Y-97111904D01*
X146807142Y-97064285D01*
X146854761Y-97016666D01*
X146902380Y-96921428D01*
X146902380Y-96635714D01*
X146854761Y-96540476D01*
X146807142Y-96492857D01*
%TO.C,R12*%
X145402380Y-95057142D02*
X144926190Y-94723809D01*
X145402380Y-94485714D02*
X144402380Y-94485714D01*
X144402380Y-94866666D01*
X144450000Y-94961904D01*
X144497619Y-95009523D01*
X144592857Y-95057142D01*
X144735714Y-95057142D01*
X144830952Y-95009523D01*
X144878571Y-94961904D01*
X144926190Y-94866666D01*
X144926190Y-94485714D01*
X145402380Y-96009523D02*
X145402380Y-95438095D01*
X145402380Y-95723809D02*
X144402380Y-95723809D01*
X144545238Y-95628571D01*
X144640476Y-95533333D01*
X144688095Y-95438095D01*
X144497619Y-96390476D02*
X144450000Y-96438095D01*
X144402380Y-96533333D01*
X144402380Y-96771428D01*
X144450000Y-96866666D01*
X144497619Y-96914285D01*
X144592857Y-96961904D01*
X144688095Y-96961904D01*
X144830952Y-96914285D01*
X145402380Y-96342857D01*
X145402380Y-96961904D01*
%TO.C,C48*%
X142792857Y-96457142D02*
X142840476Y-96504761D01*
X142983333Y-96552380D01*
X143078571Y-96552380D01*
X143221428Y-96504761D01*
X143316666Y-96409523D01*
X143364285Y-96314285D01*
X143411904Y-96123809D01*
X143411904Y-95980952D01*
X143364285Y-95790476D01*
X143316666Y-95695238D01*
X143221428Y-95600000D01*
X143078571Y-95552380D01*
X142983333Y-95552380D01*
X142840476Y-95600000D01*
X142792857Y-95647619D01*
X141935714Y-95885714D02*
X141935714Y-96552380D01*
X142173809Y-95504761D02*
X142411904Y-96219047D01*
X141792857Y-96219047D01*
X141269047Y-95980952D02*
X141364285Y-95933333D01*
X141411904Y-95885714D01*
X141459523Y-95790476D01*
X141459523Y-95742857D01*
X141411904Y-95647619D01*
X141364285Y-95600000D01*
X141269047Y-95552380D01*
X141078571Y-95552380D01*
X140983333Y-95600000D01*
X140935714Y-95647619D01*
X140888095Y-95742857D01*
X140888095Y-95790476D01*
X140935714Y-95885714D01*
X140983333Y-95933333D01*
X141078571Y-95980952D01*
X141269047Y-95980952D01*
X141364285Y-96028571D01*
X141411904Y-96076190D01*
X141459523Y-96171428D01*
X141459523Y-96361904D01*
X141411904Y-96457142D01*
X141364285Y-96504761D01*
X141269047Y-96552380D01*
X141078571Y-96552380D01*
X140983333Y-96504761D01*
X140935714Y-96457142D01*
X140888095Y-96361904D01*
X140888095Y-96171428D01*
X140935714Y-96076190D01*
X140983333Y-96028571D01*
X141078571Y-95980952D01*
%TO.C,C11*%
X138207142Y-103457142D02*
X138254761Y-103409523D01*
X138302380Y-103266666D01*
X138302380Y-103171428D01*
X138254761Y-103028571D01*
X138159523Y-102933333D01*
X138064285Y-102885714D01*
X137873809Y-102838095D01*
X137730952Y-102838095D01*
X137540476Y-102885714D01*
X137445238Y-102933333D01*
X137350000Y-103028571D01*
X137302380Y-103171428D01*
X137302380Y-103266666D01*
X137350000Y-103409523D01*
X137397619Y-103457142D01*
X138302380Y-104409523D02*
X138302380Y-103838095D01*
X138302380Y-104123809D02*
X137302380Y-104123809D01*
X137445238Y-104028571D01*
X137540476Y-103933333D01*
X137588095Y-103838095D01*
X138302380Y-105361904D02*
X138302380Y-104790476D01*
X138302380Y-105076190D02*
X137302380Y-105076190D01*
X137445238Y-104980952D01*
X137540476Y-104885714D01*
X137588095Y-104790476D01*
%TO.C,C49*%
X140692857Y-103407142D02*
X140740476Y-103454761D01*
X140883333Y-103502380D01*
X140978571Y-103502380D01*
X141121428Y-103454761D01*
X141216666Y-103359523D01*
X141264285Y-103264285D01*
X141311904Y-103073809D01*
X141311904Y-102930952D01*
X141264285Y-102740476D01*
X141216666Y-102645238D01*
X141121428Y-102550000D01*
X140978571Y-102502380D01*
X140883333Y-102502380D01*
X140740476Y-102550000D01*
X140692857Y-102597619D01*
X139835714Y-102835714D02*
X139835714Y-103502380D01*
X140073809Y-102454761D02*
X140311904Y-103169047D01*
X139692857Y-103169047D01*
X139264285Y-103502380D02*
X139073809Y-103502380D01*
X138978571Y-103454761D01*
X138930952Y-103407142D01*
X138835714Y-103264285D01*
X138788095Y-103073809D01*
X138788095Y-102692857D01*
X138835714Y-102597619D01*
X138883333Y-102550000D01*
X138978571Y-102502380D01*
X139169047Y-102502380D01*
X139264285Y-102550000D01*
X139311904Y-102597619D01*
X139359523Y-102692857D01*
X139359523Y-102930952D01*
X139311904Y-103026190D01*
X139264285Y-103073809D01*
X139169047Y-103121428D01*
X138978571Y-103121428D01*
X138883333Y-103073809D01*
X138835714Y-103026190D01*
X138788095Y-102930952D01*
%TO.C,R19*%
X135752380Y-135057142D02*
X135276190Y-134723809D01*
X135752380Y-134485714D02*
X134752380Y-134485714D01*
X134752380Y-134866666D01*
X134800000Y-134961904D01*
X134847619Y-135009523D01*
X134942857Y-135057142D01*
X135085714Y-135057142D01*
X135180952Y-135009523D01*
X135228571Y-134961904D01*
X135276190Y-134866666D01*
X135276190Y-134485714D01*
X135752380Y-136009523D02*
X135752380Y-135438095D01*
X135752380Y-135723809D02*
X134752380Y-135723809D01*
X134895238Y-135628571D01*
X134990476Y-135533333D01*
X135038095Y-135438095D01*
X135752380Y-136485714D02*
X135752380Y-136676190D01*
X135704761Y-136771428D01*
X135657142Y-136819047D01*
X135514285Y-136914285D01*
X135323809Y-136961904D01*
X134942857Y-136961904D01*
X134847619Y-136914285D01*
X134800000Y-136866666D01*
X134752380Y-136771428D01*
X134752380Y-136580952D01*
X134800000Y-136485714D01*
X134847619Y-136438095D01*
X134942857Y-136390476D01*
X135180952Y-136390476D01*
X135276190Y-136438095D01*
X135323809Y-136485714D01*
X135371428Y-136580952D01*
X135371428Y-136771428D01*
X135323809Y-136866666D01*
X135276190Y-136914285D01*
X135180952Y-136961904D01*
%TO.C,R20*%
X145752380Y-131257142D02*
X145276190Y-130923809D01*
X145752380Y-130685714D02*
X144752380Y-130685714D01*
X144752380Y-131066666D01*
X144800000Y-131161904D01*
X144847619Y-131209523D01*
X144942857Y-131257142D01*
X145085714Y-131257142D01*
X145180952Y-131209523D01*
X145228571Y-131161904D01*
X145276190Y-131066666D01*
X145276190Y-130685714D01*
X144847619Y-131638095D02*
X144800000Y-131685714D01*
X144752380Y-131780952D01*
X144752380Y-132019047D01*
X144800000Y-132114285D01*
X144847619Y-132161904D01*
X144942857Y-132209523D01*
X145038095Y-132209523D01*
X145180952Y-132161904D01*
X145752380Y-131590476D01*
X145752380Y-132209523D01*
X144752380Y-132828571D02*
X144752380Y-132923809D01*
X144800000Y-133019047D01*
X144847619Y-133066666D01*
X144942857Y-133114285D01*
X145133333Y-133161904D01*
X145371428Y-133161904D01*
X145561904Y-133114285D01*
X145657142Y-133066666D01*
X145704761Y-133019047D01*
X145752380Y-132923809D01*
X145752380Y-132828571D01*
X145704761Y-132733333D01*
X145657142Y-132685714D01*
X145561904Y-132638095D01*
X145371428Y-132590476D01*
X145133333Y-132590476D01*
X144942857Y-132638095D01*
X144847619Y-132685714D01*
X144800000Y-132733333D01*
X144752380Y-132828571D01*
%TO.C,R21*%
X147152380Y-130907142D02*
X146676190Y-130573809D01*
X147152380Y-130335714D02*
X146152380Y-130335714D01*
X146152380Y-130716666D01*
X146200000Y-130811904D01*
X146247619Y-130859523D01*
X146342857Y-130907142D01*
X146485714Y-130907142D01*
X146580952Y-130859523D01*
X146628571Y-130811904D01*
X146676190Y-130716666D01*
X146676190Y-130335714D01*
X146247619Y-131288095D02*
X146200000Y-131335714D01*
X146152380Y-131430952D01*
X146152380Y-131669047D01*
X146200000Y-131764285D01*
X146247619Y-131811904D01*
X146342857Y-131859523D01*
X146438095Y-131859523D01*
X146580952Y-131811904D01*
X147152380Y-131240476D01*
X147152380Y-131859523D01*
X147152380Y-132811904D02*
X147152380Y-132240476D01*
X147152380Y-132526190D02*
X146152380Y-132526190D01*
X146295238Y-132430952D01*
X146390476Y-132335714D01*
X146438095Y-132240476D01*
%TO.C,R22*%
X148352380Y-130457142D02*
X147876190Y-130123809D01*
X148352380Y-129885714D02*
X147352380Y-129885714D01*
X147352380Y-130266666D01*
X147400000Y-130361904D01*
X147447619Y-130409523D01*
X147542857Y-130457142D01*
X147685714Y-130457142D01*
X147780952Y-130409523D01*
X147828571Y-130361904D01*
X147876190Y-130266666D01*
X147876190Y-129885714D01*
X147447619Y-130838095D02*
X147400000Y-130885714D01*
X147352380Y-130980952D01*
X147352380Y-131219047D01*
X147400000Y-131314285D01*
X147447619Y-131361904D01*
X147542857Y-131409523D01*
X147638095Y-131409523D01*
X147780952Y-131361904D01*
X148352380Y-130790476D01*
X148352380Y-131409523D01*
X147447619Y-131790476D02*
X147400000Y-131838095D01*
X147352380Y-131933333D01*
X147352380Y-132171428D01*
X147400000Y-132266666D01*
X147447619Y-132314285D01*
X147542857Y-132361904D01*
X147638095Y-132361904D01*
X147780952Y-132314285D01*
X148352380Y-131742857D01*
X148352380Y-132361904D01*
%TO.C,R23*%
X151574450Y-133615312D02*
X151473435Y-133042893D01*
X151978511Y-133211251D02*
X151271404Y-132504145D01*
X151002030Y-132773519D01*
X150968358Y-132874534D01*
X150968358Y-132941877D01*
X151002030Y-133042893D01*
X151103045Y-133143908D01*
X151204061Y-133177580D01*
X151271404Y-133177580D01*
X151372419Y-133143908D01*
X151641793Y-132874534D01*
X150665312Y-133244923D02*
X150597969Y-133244923D01*
X150496954Y-133278595D01*
X150328595Y-133446954D01*
X150294923Y-133547969D01*
X150294923Y-133615312D01*
X150328595Y-133716328D01*
X150395938Y-133783671D01*
X150530625Y-133851015D01*
X151338748Y-133851015D01*
X150901015Y-134288748D01*
X149958206Y-133817343D02*
X149520473Y-134255076D01*
X150025549Y-134288748D01*
X149924534Y-134389763D01*
X149890862Y-134490778D01*
X149890862Y-134558122D01*
X149924534Y-134659137D01*
X150092893Y-134827496D01*
X150193908Y-134861167D01*
X150261251Y-134861167D01*
X150362267Y-134827496D01*
X150564297Y-134625465D01*
X150597969Y-134524450D01*
X150597969Y-134457106D01*
%TO.C,J13*%
X131912380Y-128690476D02*
X132626666Y-128690476D01*
X132769523Y-128642857D01*
X132864761Y-128547619D01*
X132912380Y-128404761D01*
X132912380Y-128309523D01*
X132912380Y-129690476D02*
X132912380Y-129119047D01*
X132912380Y-129404761D02*
X131912380Y-129404761D01*
X132055238Y-129309523D01*
X132150476Y-129214285D01*
X132198095Y-129119047D01*
X131912380Y-130023809D02*
X131912380Y-130642857D01*
X132293333Y-130309523D01*
X132293333Y-130452380D01*
X132340952Y-130547619D01*
X132388571Y-130595238D01*
X132483809Y-130642857D01*
X132721904Y-130642857D01*
X132817142Y-130595238D01*
X132864761Y-130547619D01*
X132912380Y-130452380D01*
X132912380Y-130166666D01*
X132864761Y-130071428D01*
X132817142Y-130023809D01*
%TO.C,C12*%
X146292857Y-99607142D02*
X146340476Y-99654761D01*
X146483333Y-99702380D01*
X146578571Y-99702380D01*
X146721428Y-99654761D01*
X146816666Y-99559523D01*
X146864285Y-99464285D01*
X146911904Y-99273809D01*
X146911904Y-99130952D01*
X146864285Y-98940476D01*
X146816666Y-98845238D01*
X146721428Y-98750000D01*
X146578571Y-98702380D01*
X146483333Y-98702380D01*
X146340476Y-98750000D01*
X146292857Y-98797619D01*
X145340476Y-99702380D02*
X145911904Y-99702380D01*
X145626190Y-99702380D02*
X145626190Y-98702380D01*
X145721428Y-98845238D01*
X145816666Y-98940476D01*
X145911904Y-98988095D01*
X144959523Y-98797619D02*
X144911904Y-98750000D01*
X144816666Y-98702380D01*
X144578571Y-98702380D01*
X144483333Y-98750000D01*
X144435714Y-98797619D01*
X144388095Y-98892857D01*
X144388095Y-98988095D01*
X144435714Y-99130952D01*
X145007142Y-99702380D01*
X144388095Y-99702380D01*
%TO.C,R16*%
X132352380Y-133457142D02*
X131876190Y-133123809D01*
X132352380Y-132885714D02*
X131352380Y-132885714D01*
X131352380Y-133266666D01*
X131400000Y-133361904D01*
X131447619Y-133409523D01*
X131542857Y-133457142D01*
X131685714Y-133457142D01*
X131780952Y-133409523D01*
X131828571Y-133361904D01*
X131876190Y-133266666D01*
X131876190Y-132885714D01*
X132352380Y-134409523D02*
X132352380Y-133838095D01*
X132352380Y-134123809D02*
X131352380Y-134123809D01*
X131495238Y-134028571D01*
X131590476Y-133933333D01*
X131638095Y-133838095D01*
X131352380Y-135266666D02*
X131352380Y-135076190D01*
X131400000Y-134980952D01*
X131447619Y-134933333D01*
X131590476Y-134838095D01*
X131780952Y-134790476D01*
X132161904Y-134790476D01*
X132257142Y-134838095D01*
X132304761Y-134885714D01*
X132352380Y-134980952D01*
X132352380Y-135171428D01*
X132304761Y-135266666D01*
X132257142Y-135314285D01*
X132161904Y-135361904D01*
X131923809Y-135361904D01*
X131828571Y-135314285D01*
X131780952Y-135266666D01*
X131733333Y-135171428D01*
X131733333Y-134980952D01*
X131780952Y-134885714D01*
X131828571Y-134838095D01*
X131923809Y-134790476D01*
%TO.C,R18*%
X134652380Y-134557142D02*
X134176190Y-134223809D01*
X134652380Y-133985714D02*
X133652380Y-133985714D01*
X133652380Y-134366666D01*
X133700000Y-134461904D01*
X133747619Y-134509523D01*
X133842857Y-134557142D01*
X133985714Y-134557142D01*
X134080952Y-134509523D01*
X134128571Y-134461904D01*
X134176190Y-134366666D01*
X134176190Y-133985714D01*
X134652380Y-135509523D02*
X134652380Y-134938095D01*
X134652380Y-135223809D02*
X133652380Y-135223809D01*
X133795238Y-135128571D01*
X133890476Y-135033333D01*
X133938095Y-134938095D01*
X134080952Y-136080952D02*
X134033333Y-135985714D01*
X133985714Y-135938095D01*
X133890476Y-135890476D01*
X133842857Y-135890476D01*
X133747619Y-135938095D01*
X133700000Y-135985714D01*
X133652380Y-136080952D01*
X133652380Y-136271428D01*
X133700000Y-136366666D01*
X133747619Y-136414285D01*
X133842857Y-136461904D01*
X133890476Y-136461904D01*
X133985714Y-136414285D01*
X134033333Y-136366666D01*
X134080952Y-136271428D01*
X134080952Y-136080952D01*
X134128571Y-135985714D01*
X134176190Y-135938095D01*
X134271428Y-135890476D01*
X134461904Y-135890476D01*
X134557142Y-135938095D01*
X134604761Y-135985714D01*
X134652380Y-136080952D01*
X134652380Y-136271428D01*
X134604761Y-136366666D01*
X134557142Y-136414285D01*
X134461904Y-136461904D01*
X134271428Y-136461904D01*
X134176190Y-136414285D01*
X134128571Y-136366666D01*
X134080952Y-136271428D01*
%TO.C,R17*%
X133552380Y-133857142D02*
X133076190Y-133523809D01*
X133552380Y-133285714D02*
X132552380Y-133285714D01*
X132552380Y-133666666D01*
X132600000Y-133761904D01*
X132647619Y-133809523D01*
X132742857Y-133857142D01*
X132885714Y-133857142D01*
X132980952Y-133809523D01*
X133028571Y-133761904D01*
X133076190Y-133666666D01*
X133076190Y-133285714D01*
X133552380Y-134809523D02*
X133552380Y-134238095D01*
X133552380Y-134523809D02*
X132552380Y-134523809D01*
X132695238Y-134428571D01*
X132790476Y-134333333D01*
X132838095Y-134238095D01*
X132552380Y-135142857D02*
X132552380Y-135809523D01*
X133552380Y-135380952D01*
%TO.C,C30*%
X160057142Y-116607142D02*
X160104761Y-116559523D01*
X160152380Y-116416666D01*
X160152380Y-116321428D01*
X160104761Y-116178571D01*
X160009523Y-116083333D01*
X159914285Y-116035714D01*
X159723809Y-115988095D01*
X159580952Y-115988095D01*
X159390476Y-116035714D01*
X159295238Y-116083333D01*
X159200000Y-116178571D01*
X159152380Y-116321428D01*
X159152380Y-116416666D01*
X159200000Y-116559523D01*
X159247619Y-116607142D01*
X159152380Y-116940476D02*
X159152380Y-117559523D01*
X159533333Y-117226190D01*
X159533333Y-117369047D01*
X159580952Y-117464285D01*
X159628571Y-117511904D01*
X159723809Y-117559523D01*
X159961904Y-117559523D01*
X160057142Y-117511904D01*
X160104761Y-117464285D01*
X160152380Y-117369047D01*
X160152380Y-117083333D01*
X160104761Y-116988095D01*
X160057142Y-116940476D01*
X159152380Y-118178571D02*
X159152380Y-118273809D01*
X159200000Y-118369047D01*
X159247619Y-118416666D01*
X159342857Y-118464285D01*
X159533333Y-118511904D01*
X159771428Y-118511904D01*
X159961904Y-118464285D01*
X160057142Y-118416666D01*
X160104761Y-118369047D01*
X160152380Y-118273809D01*
X160152380Y-118178571D01*
X160104761Y-118083333D01*
X160057142Y-118035714D01*
X159961904Y-117988095D01*
X159771428Y-117940476D01*
X159533333Y-117940476D01*
X159342857Y-117988095D01*
X159247619Y-118035714D01*
X159200000Y-118083333D01*
X159152380Y-118178571D01*
%TO.C,C31*%
X156342857Y-121337142D02*
X156390476Y-121384761D01*
X156533333Y-121432380D01*
X156628571Y-121432380D01*
X156771428Y-121384761D01*
X156866666Y-121289523D01*
X156914285Y-121194285D01*
X156961904Y-121003809D01*
X156961904Y-120860952D01*
X156914285Y-120670476D01*
X156866666Y-120575238D01*
X156771428Y-120480000D01*
X156628571Y-120432380D01*
X156533333Y-120432380D01*
X156390476Y-120480000D01*
X156342857Y-120527619D01*
X156009523Y-120432380D02*
X155390476Y-120432380D01*
X155723809Y-120813333D01*
X155580952Y-120813333D01*
X155485714Y-120860952D01*
X155438095Y-120908571D01*
X155390476Y-121003809D01*
X155390476Y-121241904D01*
X155438095Y-121337142D01*
X155485714Y-121384761D01*
X155580952Y-121432380D01*
X155866666Y-121432380D01*
X155961904Y-121384761D01*
X156009523Y-121337142D01*
X154438095Y-121432380D02*
X155009523Y-121432380D01*
X154723809Y-121432380D02*
X154723809Y-120432380D01*
X154819047Y-120575238D01*
X154914285Y-120670476D01*
X155009523Y-120718095D01*
%TO.C,C32*%
X152692857Y-121287142D02*
X152740476Y-121334761D01*
X152883333Y-121382380D01*
X152978571Y-121382380D01*
X153121428Y-121334761D01*
X153216666Y-121239523D01*
X153264285Y-121144285D01*
X153311904Y-120953809D01*
X153311904Y-120810952D01*
X153264285Y-120620476D01*
X153216666Y-120525238D01*
X153121428Y-120430000D01*
X152978571Y-120382380D01*
X152883333Y-120382380D01*
X152740476Y-120430000D01*
X152692857Y-120477619D01*
X152359523Y-120382380D02*
X151740476Y-120382380D01*
X152073809Y-120763333D01*
X151930952Y-120763333D01*
X151835714Y-120810952D01*
X151788095Y-120858571D01*
X151740476Y-120953809D01*
X151740476Y-121191904D01*
X151788095Y-121287142D01*
X151835714Y-121334761D01*
X151930952Y-121382380D01*
X152216666Y-121382380D01*
X152311904Y-121334761D01*
X152359523Y-121287142D01*
X151359523Y-120477619D02*
X151311904Y-120430000D01*
X151216666Y-120382380D01*
X150978571Y-120382380D01*
X150883333Y-120430000D01*
X150835714Y-120477619D01*
X150788095Y-120572857D01*
X150788095Y-120668095D01*
X150835714Y-120810952D01*
X151407142Y-121382380D01*
X150788095Y-121382380D01*
%TO.C,C33*%
X159987142Y-113294642D02*
X160034761Y-113247023D01*
X160082380Y-113104166D01*
X160082380Y-113008928D01*
X160034761Y-112866071D01*
X159939523Y-112770833D01*
X159844285Y-112723214D01*
X159653809Y-112675595D01*
X159510952Y-112675595D01*
X159320476Y-112723214D01*
X159225238Y-112770833D01*
X159130000Y-112866071D01*
X159082380Y-113008928D01*
X159082380Y-113104166D01*
X159130000Y-113247023D01*
X159177619Y-113294642D01*
X159082380Y-113627976D02*
X159082380Y-114247023D01*
X159463333Y-113913690D01*
X159463333Y-114056547D01*
X159510952Y-114151785D01*
X159558571Y-114199404D01*
X159653809Y-114247023D01*
X159891904Y-114247023D01*
X159987142Y-114199404D01*
X160034761Y-114151785D01*
X160082380Y-114056547D01*
X160082380Y-113770833D01*
X160034761Y-113675595D01*
X159987142Y-113627976D01*
X159082380Y-114580357D02*
X159082380Y-115199404D01*
X159463333Y-114866071D01*
X159463333Y-115008928D01*
X159510952Y-115104166D01*
X159558571Y-115151785D01*
X159653809Y-115199404D01*
X159891904Y-115199404D01*
X159987142Y-115151785D01*
X160034761Y-115104166D01*
X160082380Y-115008928D01*
X160082380Y-114723214D01*
X160034761Y-114627976D01*
X159987142Y-114580357D01*
%TO.C,C34*%
X148827142Y-116457142D02*
X148874761Y-116409523D01*
X148922380Y-116266666D01*
X148922380Y-116171428D01*
X148874761Y-116028571D01*
X148779523Y-115933333D01*
X148684285Y-115885714D01*
X148493809Y-115838095D01*
X148350952Y-115838095D01*
X148160476Y-115885714D01*
X148065238Y-115933333D01*
X147970000Y-116028571D01*
X147922380Y-116171428D01*
X147922380Y-116266666D01*
X147970000Y-116409523D01*
X148017619Y-116457142D01*
X147922380Y-116790476D02*
X147922380Y-117409523D01*
X148303333Y-117076190D01*
X148303333Y-117219047D01*
X148350952Y-117314285D01*
X148398571Y-117361904D01*
X148493809Y-117409523D01*
X148731904Y-117409523D01*
X148827142Y-117361904D01*
X148874761Y-117314285D01*
X148922380Y-117219047D01*
X148922380Y-116933333D01*
X148874761Y-116838095D01*
X148827142Y-116790476D01*
X148255714Y-118266666D02*
X148922380Y-118266666D01*
X147874761Y-118028571D02*
X148589047Y-117790476D01*
X148589047Y-118409523D01*
%TO.C,C35*%
X148827142Y-113157142D02*
X148874761Y-113109523D01*
X148922380Y-112966666D01*
X148922380Y-112871428D01*
X148874761Y-112728571D01*
X148779523Y-112633333D01*
X148684285Y-112585714D01*
X148493809Y-112538095D01*
X148350952Y-112538095D01*
X148160476Y-112585714D01*
X148065238Y-112633333D01*
X147970000Y-112728571D01*
X147922380Y-112871428D01*
X147922380Y-112966666D01*
X147970000Y-113109523D01*
X148017619Y-113157142D01*
X147922380Y-113490476D02*
X147922380Y-114109523D01*
X148303333Y-113776190D01*
X148303333Y-113919047D01*
X148350952Y-114014285D01*
X148398571Y-114061904D01*
X148493809Y-114109523D01*
X148731904Y-114109523D01*
X148827142Y-114061904D01*
X148874761Y-114014285D01*
X148922380Y-113919047D01*
X148922380Y-113633333D01*
X148874761Y-113538095D01*
X148827142Y-113490476D01*
X147922380Y-115014285D02*
X147922380Y-114538095D01*
X148398571Y-114490476D01*
X148350952Y-114538095D01*
X148303333Y-114633333D01*
X148303333Y-114871428D01*
X148350952Y-114966666D01*
X148398571Y-115014285D01*
X148493809Y-115061904D01*
X148731904Y-115061904D01*
X148827142Y-115014285D01*
X148874761Y-114966666D01*
X148922380Y-114871428D01*
X148922380Y-114633333D01*
X148874761Y-114538095D01*
X148827142Y-114490476D01*
%TO.C,C37*%
X153992857Y-110307142D02*
X154040476Y-110354761D01*
X154183333Y-110402380D01*
X154278571Y-110402380D01*
X154421428Y-110354761D01*
X154516666Y-110259523D01*
X154564285Y-110164285D01*
X154611904Y-109973809D01*
X154611904Y-109830952D01*
X154564285Y-109640476D01*
X154516666Y-109545238D01*
X154421428Y-109450000D01*
X154278571Y-109402380D01*
X154183333Y-109402380D01*
X154040476Y-109450000D01*
X153992857Y-109497619D01*
X153659523Y-109402380D02*
X153040476Y-109402380D01*
X153373809Y-109783333D01*
X153230952Y-109783333D01*
X153135714Y-109830952D01*
X153088095Y-109878571D01*
X153040476Y-109973809D01*
X153040476Y-110211904D01*
X153088095Y-110307142D01*
X153135714Y-110354761D01*
X153230952Y-110402380D01*
X153516666Y-110402380D01*
X153611904Y-110354761D01*
X153659523Y-110307142D01*
X152707142Y-109402380D02*
X152040476Y-109402380D01*
X152469047Y-110402380D01*
%TO.C,C38*%
X157492857Y-110307142D02*
X157540476Y-110354761D01*
X157683333Y-110402380D01*
X157778571Y-110402380D01*
X157921428Y-110354761D01*
X158016666Y-110259523D01*
X158064285Y-110164285D01*
X158111904Y-109973809D01*
X158111904Y-109830952D01*
X158064285Y-109640476D01*
X158016666Y-109545238D01*
X157921428Y-109450000D01*
X157778571Y-109402380D01*
X157683333Y-109402380D01*
X157540476Y-109450000D01*
X157492857Y-109497619D01*
X157159523Y-109402380D02*
X156540476Y-109402380D01*
X156873809Y-109783333D01*
X156730952Y-109783333D01*
X156635714Y-109830952D01*
X156588095Y-109878571D01*
X156540476Y-109973809D01*
X156540476Y-110211904D01*
X156588095Y-110307142D01*
X156635714Y-110354761D01*
X156730952Y-110402380D01*
X157016666Y-110402380D01*
X157111904Y-110354761D01*
X157159523Y-110307142D01*
X155969047Y-109830952D02*
X156064285Y-109783333D01*
X156111904Y-109735714D01*
X156159523Y-109640476D01*
X156159523Y-109592857D01*
X156111904Y-109497619D01*
X156064285Y-109450000D01*
X155969047Y-109402380D01*
X155778571Y-109402380D01*
X155683333Y-109450000D01*
X155635714Y-109497619D01*
X155588095Y-109592857D01*
X155588095Y-109640476D01*
X155635714Y-109735714D01*
X155683333Y-109783333D01*
X155778571Y-109830952D01*
X155969047Y-109830952D01*
X156064285Y-109878571D01*
X156111904Y-109926190D01*
X156159523Y-110021428D01*
X156159523Y-110211904D01*
X156111904Y-110307142D01*
X156064285Y-110354761D01*
X155969047Y-110402380D01*
X155778571Y-110402380D01*
X155683333Y-110354761D01*
X155635714Y-110307142D01*
X155588095Y-110211904D01*
X155588095Y-110021428D01*
X155635714Y-109926190D01*
X155683333Y-109878571D01*
X155778571Y-109830952D01*
%TO.C,C46*%
X143955357Y-104087142D02*
X144002976Y-104134761D01*
X144145833Y-104182380D01*
X144241071Y-104182380D01*
X144383928Y-104134761D01*
X144479166Y-104039523D01*
X144526785Y-103944285D01*
X144574404Y-103753809D01*
X144574404Y-103610952D01*
X144526785Y-103420476D01*
X144479166Y-103325238D01*
X144383928Y-103230000D01*
X144241071Y-103182380D01*
X144145833Y-103182380D01*
X144002976Y-103230000D01*
X143955357Y-103277619D01*
X143098214Y-103515714D02*
X143098214Y-104182380D01*
X143336309Y-103134761D02*
X143574404Y-103849047D01*
X142955357Y-103849047D01*
X142145833Y-103182380D02*
X142336309Y-103182380D01*
X142431547Y-103230000D01*
X142479166Y-103277619D01*
X142574404Y-103420476D01*
X142622023Y-103610952D01*
X142622023Y-103991904D01*
X142574404Y-104087142D01*
X142526785Y-104134761D01*
X142431547Y-104182380D01*
X142241071Y-104182380D01*
X142145833Y-104134761D01*
X142098214Y-104087142D01*
X142050595Y-103991904D01*
X142050595Y-103753809D01*
X142098214Y-103658571D01*
X142145833Y-103610952D01*
X142241071Y-103563333D01*
X142431547Y-103563333D01*
X142526785Y-103610952D01*
X142574404Y-103658571D01*
X142622023Y-103753809D01*
%TO.C,R24*%
X153952380Y-106907142D02*
X153476190Y-106573809D01*
X153952380Y-106335714D02*
X152952380Y-106335714D01*
X152952380Y-106716666D01*
X153000000Y-106811904D01*
X153047619Y-106859523D01*
X153142857Y-106907142D01*
X153285714Y-106907142D01*
X153380952Y-106859523D01*
X153428571Y-106811904D01*
X153476190Y-106716666D01*
X153476190Y-106335714D01*
X153047619Y-107288095D02*
X153000000Y-107335714D01*
X152952380Y-107430952D01*
X152952380Y-107669047D01*
X153000000Y-107764285D01*
X153047619Y-107811904D01*
X153142857Y-107859523D01*
X153238095Y-107859523D01*
X153380952Y-107811904D01*
X153952380Y-107240476D01*
X153952380Y-107859523D01*
X153285714Y-108716666D02*
X153952380Y-108716666D01*
X152904761Y-108478571D02*
X153619047Y-108240476D01*
X153619047Y-108859523D01*
%TO.C,R25*%
X147292857Y-103902380D02*
X147626190Y-103426190D01*
X147864285Y-103902380D02*
X147864285Y-102902380D01*
X147483333Y-102902380D01*
X147388095Y-102950000D01*
X147340476Y-102997619D01*
X147292857Y-103092857D01*
X147292857Y-103235714D01*
X147340476Y-103330952D01*
X147388095Y-103378571D01*
X147483333Y-103426190D01*
X147864285Y-103426190D01*
X146911904Y-102997619D02*
X146864285Y-102950000D01*
X146769047Y-102902380D01*
X146530952Y-102902380D01*
X146435714Y-102950000D01*
X146388095Y-102997619D01*
X146340476Y-103092857D01*
X146340476Y-103188095D01*
X146388095Y-103330952D01*
X146959523Y-103902380D01*
X146340476Y-103902380D01*
X145435714Y-102902380D02*
X145911904Y-102902380D01*
X145959523Y-103378571D01*
X145911904Y-103330952D01*
X145816666Y-103283333D01*
X145578571Y-103283333D01*
X145483333Y-103330952D01*
X145435714Y-103378571D01*
X145388095Y-103473809D01*
X145388095Y-103711904D01*
X145435714Y-103807142D01*
X145483333Y-103854761D01*
X145578571Y-103902380D01*
X145816666Y-103902380D01*
X145911904Y-103854761D01*
X145959523Y-103807142D01*
%TO.C,R3*%
X152752380Y-106533333D02*
X152276190Y-106200000D01*
X152752380Y-105961904D02*
X151752380Y-105961904D01*
X151752380Y-106342857D01*
X151800000Y-106438095D01*
X151847619Y-106485714D01*
X151942857Y-106533333D01*
X152085714Y-106533333D01*
X152180952Y-106485714D01*
X152228571Y-106438095D01*
X152276190Y-106342857D01*
X152276190Y-105961904D01*
X151752380Y-106866666D02*
X151752380Y-107485714D01*
X152133333Y-107152380D01*
X152133333Y-107295238D01*
X152180952Y-107390476D01*
X152228571Y-107438095D01*
X152323809Y-107485714D01*
X152561904Y-107485714D01*
X152657142Y-107438095D01*
X152704761Y-107390476D01*
X152752380Y-107295238D01*
X152752380Y-107009523D01*
X152704761Y-106914285D01*
X152657142Y-106866666D01*
%TO.C,R7*%
X149416666Y-106202380D02*
X149750000Y-105726190D01*
X149988095Y-106202380D02*
X149988095Y-105202380D01*
X149607142Y-105202380D01*
X149511904Y-105250000D01*
X149464285Y-105297619D01*
X149416666Y-105392857D01*
X149416666Y-105535714D01*
X149464285Y-105630952D01*
X149511904Y-105678571D01*
X149607142Y-105726190D01*
X149988095Y-105726190D01*
X149083333Y-105202380D02*
X148416666Y-105202380D01*
X148845238Y-106202380D01*
%TO.C,R8*%
X157202380Y-103333333D02*
X156726190Y-103000000D01*
X157202380Y-102761904D02*
X156202380Y-102761904D01*
X156202380Y-103142857D01*
X156250000Y-103238095D01*
X156297619Y-103285714D01*
X156392857Y-103333333D01*
X156535714Y-103333333D01*
X156630952Y-103285714D01*
X156678571Y-103238095D01*
X156726190Y-103142857D01*
X156726190Y-102761904D01*
X156630952Y-103904761D02*
X156583333Y-103809523D01*
X156535714Y-103761904D01*
X156440476Y-103714285D01*
X156392857Y-103714285D01*
X156297619Y-103761904D01*
X156250000Y-103809523D01*
X156202380Y-103904761D01*
X156202380Y-104095238D01*
X156250000Y-104190476D01*
X156297619Y-104238095D01*
X156392857Y-104285714D01*
X156440476Y-104285714D01*
X156535714Y-104238095D01*
X156583333Y-104190476D01*
X156630952Y-104095238D01*
X156630952Y-103904761D01*
X156678571Y-103809523D01*
X156726190Y-103761904D01*
X156821428Y-103714285D01*
X157011904Y-103714285D01*
X157107142Y-103761904D01*
X157154761Y-103809523D01*
X157202380Y-103904761D01*
X157202380Y-104095238D01*
X157154761Y-104190476D01*
X157107142Y-104238095D01*
X157011904Y-104285714D01*
X156821428Y-104285714D01*
X156726190Y-104238095D01*
X156678571Y-104190476D01*
X156630952Y-104095238D01*
%TO.C,R26*%
X141092857Y-105502380D02*
X141426190Y-105026190D01*
X141664285Y-105502380D02*
X141664285Y-104502380D01*
X141283333Y-104502380D01*
X141188095Y-104550000D01*
X141140476Y-104597619D01*
X141092857Y-104692857D01*
X141092857Y-104835714D01*
X141140476Y-104930952D01*
X141188095Y-104978571D01*
X141283333Y-105026190D01*
X141664285Y-105026190D01*
X140711904Y-104597619D02*
X140664285Y-104550000D01*
X140569047Y-104502380D01*
X140330952Y-104502380D01*
X140235714Y-104550000D01*
X140188095Y-104597619D01*
X140140476Y-104692857D01*
X140140476Y-104788095D01*
X140188095Y-104930952D01*
X140759523Y-105502380D01*
X140140476Y-105502380D01*
X139283333Y-104502380D02*
X139473809Y-104502380D01*
X139569047Y-104550000D01*
X139616666Y-104597619D01*
X139711904Y-104740476D01*
X139759523Y-104930952D01*
X139759523Y-105311904D01*
X139711904Y-105407142D01*
X139664285Y-105454761D01*
X139569047Y-105502380D01*
X139378571Y-105502380D01*
X139283333Y-105454761D01*
X139235714Y-105407142D01*
X139188095Y-105311904D01*
X139188095Y-105073809D01*
X139235714Y-104978571D01*
X139283333Y-104930952D01*
X139378571Y-104883333D01*
X139569047Y-104883333D01*
X139664285Y-104930952D01*
X139711904Y-104978571D01*
X139759523Y-105073809D01*
%TO.C,R10*%
X160202380Y-108607142D02*
X159726190Y-108273809D01*
X160202380Y-108035714D02*
X159202380Y-108035714D01*
X159202380Y-108416666D01*
X159250000Y-108511904D01*
X159297619Y-108559523D01*
X159392857Y-108607142D01*
X159535714Y-108607142D01*
X159630952Y-108559523D01*
X159678571Y-108511904D01*
X159726190Y-108416666D01*
X159726190Y-108035714D01*
X160202380Y-109559523D02*
X160202380Y-108988095D01*
X160202380Y-109273809D02*
X159202380Y-109273809D01*
X159345238Y-109178571D01*
X159440476Y-109083333D01*
X159488095Y-108988095D01*
X159202380Y-110178571D02*
X159202380Y-110273809D01*
X159250000Y-110369047D01*
X159297619Y-110416666D01*
X159392857Y-110464285D01*
X159583333Y-110511904D01*
X159821428Y-110511904D01*
X160011904Y-110464285D01*
X160107142Y-110416666D01*
X160154761Y-110369047D01*
X160202380Y-110273809D01*
X160202380Y-110178571D01*
X160154761Y-110083333D01*
X160107142Y-110035714D01*
X160011904Y-109988095D01*
X159821428Y-109940476D01*
X159583333Y-109940476D01*
X159392857Y-109988095D01*
X159297619Y-110035714D01*
X159250000Y-110083333D01*
X159202380Y-110178571D01*
%TO.C,J6*%
X157902380Y-108316666D02*
X158616666Y-108316666D01*
X158759523Y-108269047D01*
X158854761Y-108173809D01*
X158902380Y-108030952D01*
X158902380Y-107935714D01*
X157902380Y-109221428D02*
X157902380Y-109030952D01*
X157950000Y-108935714D01*
X157997619Y-108888095D01*
X158140476Y-108792857D01*
X158330952Y-108745238D01*
X158711904Y-108745238D01*
X158807142Y-108792857D01*
X158854761Y-108840476D01*
X158902380Y-108935714D01*
X158902380Y-109126190D01*
X158854761Y-109221428D01*
X158807142Y-109269047D01*
X158711904Y-109316666D01*
X158473809Y-109316666D01*
X158378571Y-109269047D01*
X158330952Y-109221428D01*
X158283333Y-109126190D01*
X158283333Y-108935714D01*
X158330952Y-108840476D01*
X158378571Y-108792857D01*
X158473809Y-108745238D01*
%TO.C,J4*%
X135652380Y-99561666D02*
X136366666Y-99561666D01*
X136509523Y-99514047D01*
X136604761Y-99418809D01*
X136652380Y-99275952D01*
X136652380Y-99180714D01*
X135985714Y-100466428D02*
X136652380Y-100466428D01*
X135604761Y-100228333D02*
X136319047Y-99990238D01*
X136319047Y-100609285D01*
%TO.C,U1*%
X133561904Y-99602380D02*
X133561904Y-100411904D01*
X133514285Y-100507142D01*
X133466666Y-100554761D01*
X133371428Y-100602380D01*
X133180952Y-100602380D01*
X133085714Y-100554761D01*
X133038095Y-100507142D01*
X132990476Y-100411904D01*
X132990476Y-99602380D01*
X131990476Y-100602380D02*
X132561904Y-100602380D01*
X132276190Y-100602380D02*
X132276190Y-99602380D01*
X132371428Y-99745238D01*
X132466666Y-99840476D01*
X132561904Y-99888095D01*
%TO.C,G\u002A\u002A\u002A*%
G36*
X118772500Y-111632080D02*
G01*
X118957436Y-111590674D01*
X119116535Y-111672374D01*
X119222703Y-111830960D01*
X119248849Y-112020208D01*
X119167879Y-112193898D01*
X119124192Y-112232090D01*
X118952728Y-112329822D01*
X118820640Y-112301451D01*
X118710542Y-112205114D01*
X118605528Y-111998436D01*
X118614514Y-111940442D01*
X118744098Y-111940442D01*
X118784461Y-112088253D01*
X118809542Y-112118653D01*
X118929581Y-112155280D01*
X119025345Y-112064583D01*
X119047667Y-111955771D01*
X118981330Y-111808860D01*
X118899500Y-111766118D01*
X118788675Y-111808647D01*
X118744098Y-111940442D01*
X118614514Y-111940442D01*
X118639632Y-111778355D01*
X118772500Y-111632080D01*
G37*
D11*
X118772500Y-111632080D02*
X118957436Y-111590674D01*
X119116535Y-111672374D01*
X119222703Y-111830960D01*
X119248849Y-112020208D01*
X119167879Y-112193898D01*
X119124192Y-112232090D01*
X118952728Y-112329822D01*
X118820640Y-112301451D01*
X118710542Y-112205114D01*
X118605528Y-111998436D01*
X118614514Y-111940442D01*
X118744098Y-111940442D01*
X118784461Y-112088253D01*
X118809542Y-112118653D01*
X118929581Y-112155280D01*
X119025345Y-112064583D01*
X119047667Y-111955771D01*
X118981330Y-111808860D01*
X118899500Y-111766118D01*
X118788675Y-111808647D01*
X118744098Y-111940442D01*
X118614514Y-111940442D01*
X118639632Y-111778355D01*
X118772500Y-111632080D01*
G36*
X129310464Y-111259847D02*
G01*
X129518102Y-111050540D01*
X129821355Y-110860926D01*
X130126538Y-110736314D01*
X130351604Y-110676726D01*
X130487865Y-110689755D01*
X130586053Y-110763767D01*
X130669678Y-110944107D01*
X130596397Y-111146232D01*
X130374950Y-111356777D01*
X130086856Y-111527365D01*
X129741362Y-111682117D01*
X129503496Y-111741462D01*
X129343944Y-111709591D01*
X129270118Y-111644167D01*
X129238413Y-111530088D01*
X129345708Y-111530088D01*
X129449052Y-111578167D01*
X129678389Y-111535261D01*
X129866553Y-111464579D01*
X130078629Y-111345677D01*
X130274401Y-111190339D01*
X130418408Y-111034216D01*
X130475185Y-110912959D01*
X130454922Y-110873106D01*
X130297380Y-110857361D01*
X130059749Y-110916842D01*
X129801079Y-111030267D01*
X129580422Y-111176353D01*
X129557827Y-111196430D01*
X129378564Y-111399887D01*
X129345708Y-111530088D01*
X129238413Y-111530088D01*
X129220462Y-111465503D01*
X129310464Y-111259847D01*
G37*
X129310464Y-111259847D02*
X129518102Y-111050540D01*
X129821355Y-110860926D01*
X130126538Y-110736314D01*
X130351604Y-110676726D01*
X130487865Y-110689755D01*
X130586053Y-110763767D01*
X130669678Y-110944107D01*
X130596397Y-111146232D01*
X130374950Y-111356777D01*
X130086856Y-111527365D01*
X129741362Y-111682117D01*
X129503496Y-111741462D01*
X129343944Y-111709591D01*
X129270118Y-111644167D01*
X129238413Y-111530088D01*
X129345708Y-111530088D01*
X129449052Y-111578167D01*
X129678389Y-111535261D01*
X129866553Y-111464579D01*
X130078629Y-111345677D01*
X130274401Y-111190339D01*
X130418408Y-111034216D01*
X130475185Y-110912959D01*
X130454922Y-110873106D01*
X130297380Y-110857361D01*
X130059749Y-110916842D01*
X129801079Y-111030267D01*
X129580422Y-111176353D01*
X129557827Y-111196430D01*
X129378564Y-111399887D01*
X129345708Y-111530088D01*
X129238413Y-111530088D01*
X129220462Y-111465503D01*
X129310464Y-111259847D01*
G36*
X124840609Y-111491400D02*
G01*
X124937186Y-111420558D01*
X125239608Y-111279995D01*
X125600717Y-111174351D01*
X125963485Y-111114165D01*
X126270890Y-111109972D01*
X126422722Y-111146054D01*
X126586737Y-111273398D01*
X126587864Y-111425114D01*
X126429331Y-111592717D01*
X126202000Y-111726513D01*
X125921816Y-111832664D01*
X125581683Y-111916599D01*
X125238293Y-111969275D01*
X124948341Y-111981651D01*
X124783834Y-111952673D01*
X124683213Y-111836003D01*
X124697150Y-111735141D01*
X124847334Y-111735141D01*
X124920566Y-111805159D01*
X125114283Y-111822881D01*
X125389512Y-111792996D01*
X125707280Y-111720195D01*
X126028614Y-111609167D01*
X126081151Y-111586669D01*
X126329732Y-111450918D01*
X126414990Y-111343631D01*
X126341872Y-111274320D01*
X126115326Y-111252498D01*
X125914126Y-111265498D01*
X125567889Y-111327269D01*
X125250361Y-111429061D01*
X125001993Y-111553065D01*
X124863238Y-111681473D01*
X124847334Y-111735141D01*
X124697150Y-111735141D01*
X124706598Y-111666770D01*
X124840609Y-111491400D01*
G37*
X124840609Y-111491400D02*
X124937186Y-111420558D01*
X125239608Y-111279995D01*
X125600717Y-111174351D01*
X125963485Y-111114165D01*
X126270890Y-111109972D01*
X126422722Y-111146054D01*
X126586737Y-111273398D01*
X126587864Y-111425114D01*
X126429331Y-111592717D01*
X126202000Y-111726513D01*
X125921816Y-111832664D01*
X125581683Y-111916599D01*
X125238293Y-111969275D01*
X124948341Y-111981651D01*
X124783834Y-111952673D01*
X124683213Y-111836003D01*
X124697150Y-111735141D01*
X124847334Y-111735141D01*
X124920566Y-111805159D01*
X125114283Y-111822881D01*
X125389512Y-111792996D01*
X125707280Y-111720195D01*
X126028614Y-111609167D01*
X126081151Y-111586669D01*
X126329732Y-111450918D01*
X126414990Y-111343631D01*
X126341872Y-111274320D01*
X126115326Y-111252498D01*
X125914126Y-111265498D01*
X125567889Y-111327269D01*
X125250361Y-111429061D01*
X125001993Y-111553065D01*
X124863238Y-111681473D01*
X124847334Y-111735141D01*
X124697150Y-111735141D01*
X124706598Y-111666770D01*
X124840609Y-111491400D01*
G36*
X120765174Y-116194108D02*
G01*
X121143093Y-116194108D01*
X121174577Y-116367021D01*
X121237340Y-116520481D01*
X121300512Y-116576000D01*
X121363926Y-116506080D01*
X121374704Y-116427834D01*
X121342122Y-116262573D01*
X121489351Y-116262573D01*
X121508058Y-116354343D01*
X121589488Y-116517906D01*
X121687218Y-116576000D01*
X121770424Y-116527382D01*
X121753190Y-116385500D01*
X121658518Y-116167957D01*
X121626100Y-116135678D01*
X121808913Y-116135678D01*
X121856452Y-116291437D01*
X121881905Y-116358822D01*
X121987883Y-116535467D01*
X122102799Y-116569578D01*
X122171253Y-116506027D01*
X122192892Y-116343656D01*
X122120731Y-116172754D01*
X121993258Y-116072668D01*
X121958792Y-116068000D01*
X121838845Y-116077013D01*
X121808913Y-116135678D01*
X121626100Y-116135678D01*
X121562498Y-116072351D01*
X121495864Y-116102587D01*
X121489351Y-116262573D01*
X121342122Y-116262573D01*
X121341025Y-116257012D01*
X121266195Y-116118566D01*
X121185113Y-116070063D01*
X121164817Y-116081628D01*
X121143093Y-116194108D01*
X120765174Y-116194108D01*
X120778381Y-116161508D01*
X120897213Y-116046091D01*
X122232952Y-116046091D01*
X122275773Y-116196121D01*
X122305238Y-116274155D01*
X122418230Y-116437749D01*
X122561141Y-116493638D01*
X122679253Y-116421360D01*
X122704535Y-116244832D01*
X122615716Y-116075405D01*
X122471229Y-115994618D01*
X122749900Y-115994618D01*
X122798683Y-116151255D01*
X122810869Y-116183258D01*
X122904121Y-116361965D01*
X123016278Y-116393524D01*
X123137743Y-116333839D01*
X123209504Y-116192059D01*
X123191416Y-116036216D01*
X123142903Y-115921197D01*
X123304847Y-115921197D01*
X123331264Y-116046834D01*
X123445536Y-116184314D01*
X123611302Y-116241045D01*
X123755269Y-116197337D01*
X123779919Y-116167360D01*
X123800402Y-116013067D01*
X123737471Y-115843022D01*
X123683887Y-115792201D01*
X123875120Y-115792201D01*
X123886725Y-115880529D01*
X123987617Y-116022800D01*
X124144683Y-116069366D01*
X124283851Y-116001826D01*
X124297468Y-115982576D01*
X124319478Y-115834703D01*
X124267916Y-115668759D01*
X124197930Y-115593818D01*
X124435809Y-115593818D01*
X124457019Y-115777924D01*
X124558030Y-115884700D01*
X124687021Y-115868526D01*
X124785254Y-115751896D01*
X124805000Y-115644667D01*
X124750279Y-115461344D01*
X124656577Y-115406736D01*
X124510502Y-115446407D01*
X124435809Y-115593818D01*
X124197930Y-115593818D01*
X124172939Y-115567058D01*
X124143128Y-115561297D01*
X123947594Y-115626103D01*
X123875120Y-115792201D01*
X123683887Y-115792201D01*
X123626341Y-115737623D01*
X123588625Y-115730630D01*
X123376174Y-115780407D01*
X123304847Y-115921197D01*
X123142903Y-115921197D01*
X123124035Y-115876466D01*
X123008651Y-115850306D01*
X122953672Y-115864265D01*
X122791550Y-115921321D01*
X122749900Y-115994618D01*
X122471229Y-115994618D01*
X122454923Y-115985501D01*
X122424459Y-115983334D01*
X122275993Y-115991069D01*
X122232952Y-116046091D01*
X120897213Y-116046091D01*
X121002886Y-115943456D01*
X121064592Y-115902393D01*
X121460667Y-115902393D01*
X121541261Y-115937905D01*
X121780539Y-115926094D01*
X122174748Y-115867462D01*
X122720131Y-115762511D01*
X123079670Y-115685992D01*
X123525288Y-115576291D01*
X123993613Y-115439891D01*
X124145808Y-115389839D01*
X124951898Y-115389839D01*
X124964487Y-115508579D01*
X125033444Y-115686296D01*
X125137842Y-115714825D01*
X125260960Y-115652458D01*
X125320526Y-115539779D01*
X125325247Y-115380200D01*
X125455009Y-115380200D01*
X125537163Y-115502877D01*
X125653042Y-115505424D01*
X125755177Y-115382308D01*
X125762080Y-115231684D01*
X125696040Y-115065635D01*
X125610639Y-115023611D01*
X125862384Y-115023611D01*
X125881966Y-115186485D01*
X125919778Y-115249556D01*
X126057166Y-115301919D01*
X126150586Y-115236027D01*
X126170149Y-115088679D01*
X126115538Y-114918678D01*
X126018493Y-114807747D01*
X125980459Y-114798000D01*
X125898773Y-114867640D01*
X125862384Y-115023611D01*
X125610639Y-115023611D01*
X125585075Y-115011032D01*
X125484194Y-115080227D01*
X125455166Y-115162779D01*
X125455009Y-115380200D01*
X125325247Y-115380200D01*
X125325674Y-115365790D01*
X125284590Y-115206512D01*
X125205554Y-115137963D01*
X125025487Y-115210506D01*
X124951898Y-115389839D01*
X124145808Y-115389839D01*
X124459393Y-115286712D01*
X124897376Y-115126673D01*
X125282308Y-114969694D01*
X125588938Y-114825693D01*
X125687476Y-114766930D01*
X126215389Y-114766930D01*
X126263382Y-114923735D01*
X126342270Y-115037998D01*
X126377039Y-115052000D01*
X126441848Y-114981258D01*
X126456000Y-114887664D01*
X126419989Y-114755667D01*
X126540667Y-114755667D01*
X126583000Y-114798000D01*
X126625334Y-114755667D01*
X126583000Y-114713334D01*
X126540667Y-114755667D01*
X126419989Y-114755667D01*
X126413294Y-114731127D01*
X126318734Y-114639817D01*
X126230970Y-114656142D01*
X126215389Y-114766930D01*
X125687476Y-114766930D01*
X125792012Y-114704591D01*
X125866278Y-114616306D01*
X125857153Y-114594982D01*
X125750947Y-114584330D01*
X125515047Y-114606334D01*
X125184560Y-114654731D01*
X124794593Y-114723256D01*
X124380251Y-114805646D01*
X123976642Y-114895638D01*
X123618872Y-114986968D01*
X123549408Y-115006732D01*
X123182685Y-115123835D01*
X122785579Y-115267414D01*
X122389987Y-115423792D01*
X122027809Y-115579290D01*
X121730942Y-115720229D01*
X121531284Y-115832933D01*
X121460667Y-115902393D01*
X121064592Y-115902393D01*
X121350225Y-115712317D01*
X121798443Y-115476289D01*
X122325583Y-115243569D01*
X122909689Y-115022354D01*
X123528804Y-114820844D01*
X124160973Y-114647235D01*
X124784240Y-114509725D01*
X125376647Y-114416511D01*
X125916239Y-114375792D01*
X126011449Y-114374667D01*
X126430671Y-114396752D01*
X126703157Y-114467935D01*
X126846286Y-114595612D01*
X126879334Y-114743887D01*
X126799336Y-114958854D01*
X126574108Y-115191645D01*
X126225793Y-115434416D01*
X125776538Y-115679322D01*
X125248488Y-115918520D01*
X124663788Y-116144164D01*
X124044583Y-116348410D01*
X123413019Y-116523414D01*
X122791241Y-116661331D01*
X122201393Y-116754316D01*
X121665623Y-116794524D01*
X121206074Y-116774113D01*
X121164334Y-116768311D01*
X120875667Y-116683154D01*
X120728115Y-116525867D01*
X120708049Y-116411664D01*
X120868000Y-116411664D01*
X120932579Y-116489053D01*
X120952667Y-116491334D01*
X121026971Y-116422418D01*
X121037334Y-116359337D01*
X120996288Y-116271702D01*
X120952667Y-116279667D01*
X120871230Y-116387910D01*
X120868000Y-116411664D01*
X120708049Y-116411664D01*
X120698667Y-116358275D01*
X120765174Y-116194108D01*
G37*
X120765174Y-116194108D02*
X121143093Y-116194108D01*
X121174577Y-116367021D01*
X121237340Y-116520481D01*
X121300512Y-116576000D01*
X121363926Y-116506080D01*
X121374704Y-116427834D01*
X121342122Y-116262573D01*
X121489351Y-116262573D01*
X121508058Y-116354343D01*
X121589488Y-116517906D01*
X121687218Y-116576000D01*
X121770424Y-116527382D01*
X121753190Y-116385500D01*
X121658518Y-116167957D01*
X121626100Y-116135678D01*
X121808913Y-116135678D01*
X121856452Y-116291437D01*
X121881905Y-116358822D01*
X121987883Y-116535467D01*
X122102799Y-116569578D01*
X122171253Y-116506027D01*
X122192892Y-116343656D01*
X122120731Y-116172754D01*
X121993258Y-116072668D01*
X121958792Y-116068000D01*
X121838845Y-116077013D01*
X121808913Y-116135678D01*
X121626100Y-116135678D01*
X121562498Y-116072351D01*
X121495864Y-116102587D01*
X121489351Y-116262573D01*
X121342122Y-116262573D01*
X121341025Y-116257012D01*
X121266195Y-116118566D01*
X121185113Y-116070063D01*
X121164817Y-116081628D01*
X121143093Y-116194108D01*
X120765174Y-116194108D01*
X120778381Y-116161508D01*
X120897213Y-116046091D01*
X122232952Y-116046091D01*
X122275773Y-116196121D01*
X122305238Y-116274155D01*
X122418230Y-116437749D01*
X122561141Y-116493638D01*
X122679253Y-116421360D01*
X122704535Y-116244832D01*
X122615716Y-116075405D01*
X122471229Y-115994618D01*
X122749900Y-115994618D01*
X122798683Y-116151255D01*
X122810869Y-116183258D01*
X122904121Y-116361965D01*
X123016278Y-116393524D01*
X123137743Y-116333839D01*
X123209504Y-116192059D01*
X123191416Y-116036216D01*
X123142903Y-115921197D01*
X123304847Y-115921197D01*
X123331264Y-116046834D01*
X123445536Y-116184314D01*
X123611302Y-116241045D01*
X123755269Y-116197337D01*
X123779919Y-116167360D01*
X123800402Y-116013067D01*
X123737471Y-115843022D01*
X123683887Y-115792201D01*
X123875120Y-115792201D01*
X123886725Y-115880529D01*
X123987617Y-116022800D01*
X124144683Y-116069366D01*
X124283851Y-116001826D01*
X124297468Y-115982576D01*
X124319478Y-115834703D01*
X124267916Y-115668759D01*
X124197930Y-115593818D01*
X124435809Y-115593818D01*
X124457019Y-115777924D01*
X124558030Y-115884700D01*
X124687021Y-115868526D01*
X124785254Y-115751896D01*
X124805000Y-115644667D01*
X124750279Y-115461344D01*
X124656577Y-115406736D01*
X124510502Y-115446407D01*
X124435809Y-115593818D01*
X124197930Y-115593818D01*
X124172939Y-115567058D01*
X124143128Y-115561297D01*
X123947594Y-115626103D01*
X123875120Y-115792201D01*
X123683887Y-115792201D01*
X123626341Y-115737623D01*
X123588625Y-115730630D01*
X123376174Y-115780407D01*
X123304847Y-115921197D01*
X123142903Y-115921197D01*
X123124035Y-115876466D01*
X123008651Y-115850306D01*
X122953672Y-115864265D01*
X122791550Y-115921321D01*
X122749900Y-115994618D01*
X122471229Y-115994618D01*
X122454923Y-115985501D01*
X122424459Y-115983334D01*
X122275993Y-115991069D01*
X122232952Y-116046091D01*
X120897213Y-116046091D01*
X121002886Y-115943456D01*
X121064592Y-115902393D01*
X121460667Y-115902393D01*
X121541261Y-115937905D01*
X121780539Y-115926094D01*
X122174748Y-115867462D01*
X122720131Y-115762511D01*
X123079670Y-115685992D01*
X123525288Y-115576291D01*
X123993613Y-115439891D01*
X124145808Y-115389839D01*
X124951898Y-115389839D01*
X124964487Y-115508579D01*
X125033444Y-115686296D01*
X125137842Y-115714825D01*
X125260960Y-115652458D01*
X125320526Y-115539779D01*
X125325247Y-115380200D01*
X125455009Y-115380200D01*
X125537163Y-115502877D01*
X125653042Y-115505424D01*
X125755177Y-115382308D01*
X125762080Y-115231684D01*
X125696040Y-115065635D01*
X125610639Y-115023611D01*
X125862384Y-115023611D01*
X125881966Y-115186485D01*
X125919778Y-115249556D01*
X126057166Y-115301919D01*
X126150586Y-115236027D01*
X126170149Y-115088679D01*
X126115538Y-114918678D01*
X126018493Y-114807747D01*
X125980459Y-114798000D01*
X125898773Y-114867640D01*
X125862384Y-115023611D01*
X125610639Y-115023611D01*
X125585075Y-115011032D01*
X125484194Y-115080227D01*
X125455166Y-115162779D01*
X125455009Y-115380200D01*
X125325247Y-115380200D01*
X125325674Y-115365790D01*
X125284590Y-115206512D01*
X125205554Y-115137963D01*
X125025487Y-115210506D01*
X124951898Y-115389839D01*
X124145808Y-115389839D01*
X124459393Y-115286712D01*
X124897376Y-115126673D01*
X125282308Y-114969694D01*
X125588938Y-114825693D01*
X125687476Y-114766930D01*
X126215389Y-114766930D01*
X126263382Y-114923735D01*
X126342270Y-115037998D01*
X126377039Y-115052000D01*
X126441848Y-114981258D01*
X126456000Y-114887664D01*
X126419989Y-114755667D01*
X126540667Y-114755667D01*
X126583000Y-114798000D01*
X126625334Y-114755667D01*
X126583000Y-114713334D01*
X126540667Y-114755667D01*
X126419989Y-114755667D01*
X126413294Y-114731127D01*
X126318734Y-114639817D01*
X126230970Y-114656142D01*
X126215389Y-114766930D01*
X125687476Y-114766930D01*
X125792012Y-114704591D01*
X125866278Y-114616306D01*
X125857153Y-114594982D01*
X125750947Y-114584330D01*
X125515047Y-114606334D01*
X125184560Y-114654731D01*
X124794593Y-114723256D01*
X124380251Y-114805646D01*
X123976642Y-114895638D01*
X123618872Y-114986968D01*
X123549408Y-115006732D01*
X123182685Y-115123835D01*
X122785579Y-115267414D01*
X122389987Y-115423792D01*
X122027809Y-115579290D01*
X121730942Y-115720229D01*
X121531284Y-115832933D01*
X121460667Y-115902393D01*
X121064592Y-115902393D01*
X121350225Y-115712317D01*
X121798443Y-115476289D01*
X122325583Y-115243569D01*
X122909689Y-115022354D01*
X123528804Y-114820844D01*
X124160973Y-114647235D01*
X124784240Y-114509725D01*
X125376647Y-114416511D01*
X125916239Y-114375792D01*
X126011449Y-114374667D01*
X126430671Y-114396752D01*
X126703157Y-114467935D01*
X126846286Y-114595612D01*
X126879334Y-114743887D01*
X126799336Y-114958854D01*
X126574108Y-115191645D01*
X126225793Y-115434416D01*
X125776538Y-115679322D01*
X125248488Y-115918520D01*
X124663788Y-116144164D01*
X124044583Y-116348410D01*
X123413019Y-116523414D01*
X122791241Y-116661331D01*
X122201393Y-116754316D01*
X121665623Y-116794524D01*
X121206074Y-116774113D01*
X121164334Y-116768311D01*
X120875667Y-116683154D01*
X120728115Y-116525867D01*
X120708049Y-116411664D01*
X120868000Y-116411664D01*
X120932579Y-116489053D01*
X120952667Y-116491334D01*
X121026971Y-116422418D01*
X121037334Y-116359337D01*
X120996288Y-116271702D01*
X120952667Y-116279667D01*
X120871230Y-116387910D01*
X120868000Y-116411664D01*
X120708049Y-116411664D01*
X120698667Y-116358275D01*
X120765174Y-116194108D01*
G36*
X113480837Y-115012444D02*
G01*
X113536265Y-115009667D01*
X113767354Y-115068323D01*
X113900554Y-115217622D01*
X113900614Y-115417555D01*
X113899132Y-115421492D01*
X113779119Y-115537748D01*
X113591223Y-115544510D01*
X113396853Y-115441633D01*
X113376819Y-115422724D01*
X113264553Y-115236227D01*
X113297755Y-115110689D01*
X113471534Y-115110689D01*
X113472790Y-115205749D01*
X113555965Y-115324052D01*
X113665570Y-115389880D01*
X113676704Y-115390667D01*
X113781465Y-115329889D01*
X113795708Y-115310248D01*
X113773370Y-115219776D01*
X113660313Y-115131845D01*
X113529729Y-115091509D01*
X113471534Y-115110689D01*
X113297755Y-115110689D01*
X113303984Y-115087140D01*
X113480837Y-115012444D01*
G37*
X113480837Y-115012444D02*
X113536265Y-115009667D01*
X113767354Y-115068323D01*
X113900554Y-115217622D01*
X113900614Y-115417555D01*
X113899132Y-115421492D01*
X113779119Y-115537748D01*
X113591223Y-115544510D01*
X113396853Y-115441633D01*
X113376819Y-115422724D01*
X113264553Y-115236227D01*
X113297755Y-115110689D01*
X113471534Y-115110689D01*
X113472790Y-115205749D01*
X113555965Y-115324052D01*
X113665570Y-115389880D01*
X113676704Y-115390667D01*
X113781465Y-115329889D01*
X113795708Y-115310248D01*
X113773370Y-115219776D01*
X113660313Y-115131845D01*
X113529729Y-115091509D01*
X113471534Y-115110689D01*
X113297755Y-115110689D01*
X113303984Y-115087140D01*
X113480837Y-115012444D01*
G36*
X112977178Y-115022250D02*
G01*
X113185827Y-114535334D01*
X113537218Y-113999986D01*
X113790797Y-113702910D01*
X113990420Y-113702910D01*
X113994023Y-113756634D01*
X114129000Y-113709197D01*
X114395217Y-113558542D01*
X114791869Y-113303058D01*
X115234595Y-113023238D01*
X115768710Y-112710037D01*
X116331048Y-112399254D01*
X116858444Y-112126690D01*
X116925742Y-112093693D01*
X118141817Y-111540703D01*
X119443750Y-111019122D01*
X120805557Y-110535710D01*
X122201257Y-110097228D01*
X123604869Y-109710436D01*
X124990410Y-109382094D01*
X126331898Y-109118964D01*
X127603353Y-108927805D01*
X128778791Y-108815379D01*
X129635336Y-108786667D01*
X130017739Y-108780565D01*
X130329024Y-108763984D01*
X130535699Y-108739507D01*
X130604667Y-108711870D01*
X130524140Y-108640504D01*
X130299023Y-108574871D01*
X129954011Y-108516683D01*
X129513800Y-108467650D01*
X129003085Y-108429480D01*
X128446561Y-108403884D01*
X127868924Y-108392571D01*
X127294869Y-108397252D01*
X126749091Y-108419636D01*
X126565807Y-108432239D01*
X124857278Y-108629783D01*
X123170897Y-108952919D01*
X121525586Y-109394391D01*
X119940264Y-109946946D01*
X118433855Y-110603328D01*
X117025277Y-111356283D01*
X115733452Y-112198556D01*
X114769199Y-112955360D01*
X114377874Y-113300215D01*
X114118326Y-113550084D01*
X113990420Y-113702910D01*
X113790797Y-113702910D01*
X114030083Y-113422579D01*
X114216961Y-113230478D01*
X114740983Y-112746485D01*
X115337968Y-112258967D01*
X115915000Y-111842132D01*
X116292716Y-111588052D01*
X116555097Y-111401400D01*
X116727758Y-111255753D01*
X116836312Y-111124689D01*
X116906373Y-110981787D01*
X116916527Y-110949615D01*
X117148099Y-110949615D01*
X117240450Y-110977036D01*
X117449560Y-110895710D01*
X117671834Y-110778950D01*
X117979059Y-110619127D01*
X118380737Y-110422427D01*
X118815574Y-110218436D01*
X119084795Y-110096910D01*
X120405845Y-109569185D01*
X121830307Y-109103953D01*
X123300164Y-108716837D01*
X124757396Y-108423463D01*
X125884500Y-108265728D01*
X126253404Y-108219879D01*
X126550492Y-108172322D01*
X126741418Y-108129247D01*
X126794667Y-108101675D01*
X126734522Y-108010275D01*
X126588071Y-107874625D01*
X126571582Y-107861479D01*
X126370436Y-107757874D01*
X126077511Y-107700032D01*
X125675768Y-107687631D01*
X125148169Y-107720350D01*
X124477676Y-107797868D01*
X124321948Y-107819136D01*
X123515247Y-107953452D01*
X122685258Y-108131545D01*
X121850785Y-108346182D01*
X121030629Y-108590130D01*
X120243595Y-108856158D01*
X119508483Y-109137033D01*
X118844097Y-109425523D01*
X118269238Y-109714395D01*
X117802710Y-109996417D01*
X117463315Y-110264356D01*
X117269856Y-110510981D01*
X117258458Y-110536100D01*
X117158702Y-110805340D01*
X117148099Y-110949615D01*
X116916527Y-110949615D01*
X116963554Y-110800625D01*
X116979442Y-110744103D01*
X117280789Y-109955787D01*
X117489536Y-109955787D01*
X117566909Y-109953049D01*
X117748147Y-109856417D01*
X117927516Y-109745243D01*
X118533505Y-109405761D01*
X119273182Y-109062927D01*
X120111559Y-108728266D01*
X121013645Y-108413301D01*
X121944449Y-108129556D01*
X122868984Y-107888556D01*
X123752257Y-107701823D01*
X124466334Y-107591696D01*
X124855248Y-107542371D01*
X125222480Y-107492160D01*
X125504867Y-107449805D01*
X125567000Y-107439338D01*
X125905667Y-107379474D01*
X125637424Y-107237810D01*
X124932331Y-106941343D01*
X124130439Y-106731674D01*
X123284238Y-106615685D01*
X122446221Y-106600256D01*
X121668875Y-106692269D01*
X121595329Y-106707905D01*
X120722783Y-106983789D01*
X119878439Y-107406968D01*
X119094080Y-107955440D01*
X118401489Y-108607203D01*
X117865537Y-109289848D01*
X117640358Y-109635266D01*
X117514522Y-109853553D01*
X117489536Y-109955787D01*
X117280789Y-109955787D01*
X117291774Y-109927052D01*
X117750885Y-109145783D01*
X118334868Y-108421259D01*
X119021819Y-107774447D01*
X119789831Y-107226309D01*
X120616999Y-106797810D01*
X121376000Y-106536461D01*
X121879009Y-106444937D01*
X122484268Y-106397431D01*
X123130518Y-106393918D01*
X123756505Y-106434375D01*
X124300971Y-106518777D01*
X124381667Y-106537655D01*
X124910214Y-106702349D01*
X125479150Y-106935172D01*
X126037728Y-107210932D01*
X126535203Y-107504437D01*
X126920825Y-107790494D01*
X126940435Y-107807892D01*
X127228842Y-108040165D01*
X127432103Y-108143669D01*
X127506019Y-108143142D01*
X127663074Y-108124362D01*
X127953757Y-108126483D01*
X128344079Y-108146355D01*
X128800052Y-108180827D01*
X129287686Y-108226748D01*
X129772994Y-108280968D01*
X130221986Y-108340336D01*
X130600674Y-108401701D01*
X130837568Y-108451976D01*
X131530156Y-108665362D01*
X132108381Y-108921591D01*
X132560099Y-109211979D01*
X132873166Y-109527844D01*
X133035439Y-109860501D01*
X133056181Y-110038446D01*
X133037743Y-110268943D01*
X132976872Y-110488887D01*
X132856204Y-110734959D01*
X132658372Y-111043837D01*
X132425000Y-111371616D01*
X131594221Y-112375446D01*
X130650289Y-113260514D01*
X129582312Y-114036419D01*
X129012877Y-114378287D01*
X128673472Y-114575461D01*
X128249605Y-114830182D01*
X127798701Y-115107573D01*
X127429667Y-115339846D01*
X126199617Y-116044698D01*
X124966538Y-116588744D01*
X123710312Y-116979646D01*
X122519000Y-117210303D01*
X122125627Y-117252073D01*
X121597467Y-117288225D01*
X120968995Y-117318050D01*
X120274686Y-117340841D01*
X119549017Y-117355891D01*
X118826460Y-117362493D01*
X118141493Y-117359941D01*
X117528589Y-117347526D01*
X117022225Y-117324541D01*
X117004971Y-117323411D01*
X116023198Y-117209132D01*
X115152459Y-117000307D01*
X114484777Y-116747474D01*
X114144472Y-116596470D01*
X113801853Y-116446747D01*
X113595344Y-116358073D01*
X113220354Y-116128644D01*
X113051965Y-115903785D01*
X113262848Y-115903785D01*
X113292706Y-115976312D01*
X113324562Y-116015901D01*
X113454427Y-116127574D01*
X113551641Y-116143979D01*
X113569275Y-116059093D01*
X113565540Y-116046834D01*
X113461703Y-115943214D01*
X113370679Y-115910068D01*
X113262848Y-115903785D01*
X113051965Y-115903785D01*
X112993175Y-115825280D01*
X112913786Y-115460089D01*
X113099179Y-115460089D01*
X113143750Y-115634357D01*
X113311101Y-115733058D01*
X113410993Y-115757699D01*
X113665015Y-115880397D01*
X113770526Y-116023737D01*
X113853981Y-116191763D01*
X113893731Y-116209397D01*
X113894213Y-116201988D01*
X114271124Y-116201988D01*
X114289325Y-116283714D01*
X114430014Y-116404045D01*
X114657884Y-116540135D01*
X114937632Y-116669139D01*
X115068334Y-116717863D01*
X115705446Y-116891182D01*
X116447652Y-117005783D01*
X117317731Y-117064662D01*
X117777667Y-117073940D01*
X118878334Y-117082122D01*
X118596862Y-116860324D01*
X118398252Y-116671027D01*
X118258131Y-116479280D01*
X118239680Y-116439392D01*
X118163970Y-116240258D01*
X116997152Y-116291754D01*
X116398777Y-116306178D01*
X115810787Y-116298936D01*
X115295664Y-116271413D01*
X115074192Y-116249155D01*
X114734502Y-116212373D01*
X114462582Y-116193227D01*
X114298969Y-116194098D01*
X114271124Y-116201988D01*
X113894213Y-116201988D01*
X113895207Y-116186738D01*
X118412667Y-116186738D01*
X118494454Y-116428131D01*
X118729426Y-116646112D01*
X119102001Y-116831081D01*
X119596593Y-116973442D01*
X119734170Y-117000648D01*
X120087464Y-117037847D01*
X120561301Y-117049762D01*
X121109101Y-117038388D01*
X121684285Y-117005714D01*
X122240274Y-116953732D01*
X122730488Y-116884435D01*
X122815334Y-116868905D01*
X123783677Y-116640723D01*
X124736989Y-116335557D01*
X125649584Y-115966188D01*
X126495778Y-115545399D01*
X127249885Y-115085972D01*
X127886220Y-114600688D01*
X128379098Y-114102330D01*
X128382167Y-114098601D01*
X128441263Y-114004930D01*
X128771253Y-114004930D01*
X128833376Y-114044200D01*
X129008427Y-113985030D01*
X129287506Y-113832017D01*
X129661714Y-113589758D01*
X130122154Y-113262847D01*
X130413168Y-113045412D01*
X130756001Y-112768369D01*
X131105452Y-112458611D01*
X131395050Y-112175533D01*
X131437003Y-112130561D01*
X131675125Y-111845694D01*
X131879674Y-111556895D01*
X132030417Y-111298272D01*
X132107122Y-111103936D01*
X132098912Y-111014690D01*
X132018124Y-111044654D01*
X131834302Y-111160269D01*
X131577021Y-111341885D01*
X131350843Y-111511742D01*
X130864566Y-111878670D01*
X130460937Y-112164382D01*
X130094527Y-112398429D01*
X129719908Y-112610365D01*
X129434751Y-112758217D01*
X129159891Y-112901424D01*
X129003308Y-113009035D01*
X128931588Y-113120715D01*
X128911316Y-113276126D01*
X128910037Y-113381052D01*
X128891600Y-113635540D01*
X128847254Y-113828964D01*
X128830957Y-113862624D01*
X128771253Y-114004930D01*
X128441263Y-114004930D01*
X128596847Y-113758325D01*
X128664134Y-113450383D01*
X128583279Y-113192042D01*
X128427883Y-113043119D01*
X128211096Y-112965261D01*
X127859351Y-112912620D01*
X127405068Y-112884746D01*
X126880668Y-112881191D01*
X126318569Y-112901504D01*
X125751192Y-112945238D01*
X125210956Y-113011942D01*
X124762667Y-113093899D01*
X123810539Y-113325816D01*
X122891414Y-113590924D01*
X122019460Y-113882324D01*
X121208843Y-114193115D01*
X120473730Y-114516398D01*
X119828288Y-114845272D01*
X119286683Y-115172836D01*
X118863084Y-115492192D01*
X118571655Y-115796438D01*
X118426565Y-116078675D01*
X118412667Y-116186738D01*
X113895207Y-116186738D01*
X113902876Y-116069102D01*
X113900401Y-115949012D01*
X113948006Y-115722199D01*
X114179334Y-115722199D01*
X114200181Y-115824367D01*
X114281944Y-115900386D01*
X114453458Y-115961695D01*
X114743556Y-116019736D01*
X115047703Y-116066751D01*
X115321909Y-116093515D01*
X115702718Y-116113180D01*
X116149386Y-116125568D01*
X116621168Y-116130505D01*
X117077320Y-116127814D01*
X117477097Y-116117320D01*
X117779755Y-116098846D01*
X117920659Y-116079150D01*
X118116700Y-115973118D01*
X118329484Y-115767589D01*
X118395777Y-115682740D01*
X118599195Y-115456732D01*
X118885245Y-115206121D01*
X119162210Y-115005407D01*
X119414665Y-114836308D01*
X119599495Y-114700257D01*
X119680825Y-114623864D01*
X119681926Y-114619924D01*
X119604802Y-114588655D01*
X119400527Y-114553227D01*
X119110913Y-114520649D01*
X119066477Y-114516760D01*
X118677674Y-114463843D01*
X118220324Y-114372259D01*
X117785264Y-114260530D01*
X117732977Y-114244847D01*
X117364782Y-114132038D01*
X117020049Y-114026467D01*
X116759237Y-113946645D01*
X116707972Y-113930969D01*
X116554045Y-113892061D01*
X116418663Y-113892277D01*
X116261184Y-113944956D01*
X116040969Y-114063436D01*
X115734305Y-114250540D01*
X115332738Y-114521917D01*
X114954581Y-114817177D01*
X114625282Y-115112237D01*
X114370290Y-115383010D01*
X114215051Y-115605414D01*
X114179334Y-115722199D01*
X113948006Y-115722199D01*
X113972506Y-115605476D01*
X114200799Y-115234056D01*
X114575359Y-114839757D01*
X115086266Y-114427584D01*
X115723600Y-114002545D01*
X116268249Y-113689774D01*
X116804000Y-113689774D01*
X116882728Y-113765870D01*
X117100255Y-113863369D01*
X117428598Y-113974397D01*
X117839774Y-114091078D01*
X118305797Y-114205540D01*
X118798686Y-114309907D01*
X119290455Y-114396306D01*
X119344000Y-114404483D01*
X119654241Y-114436424D01*
X119934366Y-114423165D01*
X120232769Y-114354923D01*
X120597843Y-114221914D01*
X120914702Y-114086913D01*
X121367751Y-113898077D01*
X121866554Y-113706788D01*
X122330373Y-113543457D01*
X122510622Y-113485820D01*
X123260324Y-113257147D01*
X123203465Y-112702168D01*
X123136527Y-112167550D01*
X123058903Y-111751329D01*
X122974435Y-111468833D01*
X122886962Y-111335387D01*
X122858745Y-111326667D01*
X122715444Y-111354177D01*
X122441757Y-111430334D01*
X122066315Y-111545582D01*
X121617747Y-111690363D01*
X121124684Y-111855120D01*
X120615756Y-112030295D01*
X120119592Y-112206331D01*
X119664823Y-112373671D01*
X119301667Y-112514101D01*
X118664095Y-112774479D01*
X118093175Y-113018214D01*
X117605913Y-113237300D01*
X117219320Y-113423729D01*
X116950404Y-113569497D01*
X116816173Y-113666597D01*
X116804000Y-113689774D01*
X116268249Y-113689774D01*
X116477439Y-113569645D01*
X117337862Y-113133890D01*
X118294951Y-112700287D01*
X119338783Y-112273840D01*
X120459439Y-111859557D01*
X121646998Y-111462443D01*
X122220551Y-111289651D01*
X123199309Y-111289651D01*
X123214295Y-111470395D01*
X123246452Y-111747337D01*
X123289991Y-112080176D01*
X123339120Y-112428609D01*
X123388049Y-112752334D01*
X123430987Y-113011048D01*
X123462145Y-113164450D01*
X123472248Y-113189334D01*
X123567225Y-113170818D01*
X123785686Y-113121503D01*
X124086608Y-113050734D01*
X124200762Y-113023362D01*
X124649026Y-112922034D01*
X125153042Y-112818055D01*
X125588251Y-112736711D01*
X125942341Y-112663357D01*
X126254928Y-112577044D01*
X126449559Y-112501644D01*
X126710000Y-112501644D01*
X126788252Y-112538688D01*
X126997474Y-112574650D01*
X127299368Y-112603777D01*
X127450834Y-112612904D01*
X127918181Y-112654413D01*
X128274494Y-112723971D01*
X128445667Y-112789204D01*
X128622061Y-112880705D01*
X128757184Y-112915813D01*
X128901604Y-112887460D01*
X129105884Y-112788580D01*
X129324361Y-112666391D01*
X129710412Y-112435776D01*
X130130040Y-112164140D01*
X130559612Y-111869217D01*
X130975493Y-111568737D01*
X131354051Y-111280430D01*
X131671651Y-111022029D01*
X131904661Y-110811263D01*
X132029447Y-110665864D01*
X132044000Y-110625981D01*
X131973304Y-110554459D01*
X131792124Y-110447966D01*
X131641834Y-110375774D01*
X131433181Y-110296701D01*
X131195286Y-110240216D01*
X131063073Y-110223218D01*
X132189937Y-110223218D01*
X132200982Y-110325428D01*
X132281642Y-110481285D01*
X132378932Y-110644014D01*
X132423875Y-110667948D01*
X132446909Y-110562008D01*
X132450941Y-110530904D01*
X132482860Y-110447660D01*
X132636667Y-110447660D01*
X132679012Y-110531371D01*
X132721334Y-110522334D01*
X132798387Y-110400195D01*
X132806000Y-110343007D01*
X132763655Y-110259296D01*
X132721334Y-110268334D01*
X132644280Y-110390472D01*
X132636667Y-110447660D01*
X132482860Y-110447660D01*
X132533955Y-110314412D01*
X132638300Y-110182189D01*
X132740104Y-110071905D01*
X132748739Y-109963903D01*
X132668051Y-109786111D01*
X132660227Y-109771221D01*
X132520737Y-109506334D01*
X132459666Y-109794844D01*
X132382800Y-110011366D01*
X132277863Y-110150277D01*
X132268439Y-110156194D01*
X132189937Y-110223218D01*
X131063073Y-110223218D01*
X130890576Y-110201041D01*
X130481479Y-110173897D01*
X130096585Y-110158688D01*
X128953502Y-110120973D01*
X128624700Y-110598380D01*
X128458231Y-110813184D01*
X128221670Y-111083872D01*
X127941081Y-111384475D01*
X127642529Y-111689026D01*
X127352076Y-111971554D01*
X127095787Y-112206091D01*
X126899727Y-112366668D01*
X126789958Y-112427317D01*
X126789041Y-112427334D01*
X126711457Y-112487448D01*
X126710000Y-112501644D01*
X126449559Y-112501644D01*
X126469588Y-112493885D01*
X126499996Y-112476363D01*
X126741611Y-112294523D01*
X127035941Y-112037486D01*
X127358926Y-111730618D01*
X127686504Y-111399282D01*
X127994615Y-111068843D01*
X128259199Y-110764667D01*
X128456193Y-110512117D01*
X128561537Y-110336560D01*
X128572667Y-110291372D01*
X128491364Y-110246599D01*
X128251190Y-110241535D01*
X127857747Y-110275611D01*
X127316639Y-110348258D01*
X126633467Y-110458908D01*
X126244334Y-110527588D01*
X125644465Y-110641431D01*
X125062084Y-110762092D01*
X124520192Y-110883815D01*
X124041785Y-111000846D01*
X123649864Y-111107428D01*
X123367427Y-111197805D01*
X123217473Y-111266221D01*
X123199309Y-111289651D01*
X122220551Y-111289651D01*
X122891540Y-111087505D01*
X124183143Y-110739747D01*
X124264328Y-110719249D01*
X124826812Y-110573010D01*
X125226619Y-110457946D01*
X125467285Y-110372884D01*
X125552349Y-110316650D01*
X125534485Y-110297729D01*
X125370415Y-110164817D01*
X125299502Y-109965347D01*
X125308216Y-109929187D01*
X125456205Y-109929187D01*
X125510424Y-110075866D01*
X125639951Y-110141334D01*
X125774494Y-110073267D01*
X125806909Y-110020524D01*
X125796537Y-109876378D01*
X125694186Y-109770173D01*
X125561819Y-109751321D01*
X125509836Y-109783631D01*
X125456205Y-109929187D01*
X125308216Y-109929187D01*
X125345776Y-109773341D01*
X125358705Y-109756271D01*
X125543498Y-109649168D01*
X125770535Y-109654904D01*
X125955299Y-109769129D01*
X126021594Y-109893785D01*
X125986802Y-110039895D01*
X125937253Y-110132736D01*
X125806507Y-110360548D01*
X126722121Y-110194152D01*
X127118997Y-110119694D01*
X127371324Y-110063864D01*
X127459059Y-110033061D01*
X127738519Y-110033061D01*
X127760570Y-110054654D01*
X127821171Y-110035439D01*
X127967225Y-110004827D01*
X128231133Y-109968461D01*
X128561882Y-109933145D01*
X128643979Y-109925718D01*
X128980184Y-109894455D01*
X129175484Y-109865380D01*
X129257731Y-109826713D01*
X129254778Y-109766676D01*
X129204975Y-109688464D01*
X129100563Y-109508829D01*
X129101467Y-109497789D01*
X129277339Y-109497789D01*
X129380551Y-109615090D01*
X129506785Y-109616932D01*
X129584956Y-109509890D01*
X129588667Y-109468997D01*
X129557997Y-109312536D01*
X129521124Y-109262917D01*
X129391677Y-109260063D01*
X129289175Y-109359954D01*
X129277339Y-109497789D01*
X129101467Y-109497789D01*
X129111483Y-109375578D01*
X129245691Y-109214350D01*
X129256896Y-109203105D01*
X129374522Y-109085479D01*
X129575809Y-109085479D01*
X129591544Y-109137330D01*
X129624953Y-109173714D01*
X129737020Y-109374633D01*
X129742453Y-109597997D01*
X129642983Y-109772602D01*
X129609834Y-109795885D01*
X129580567Y-109839358D01*
X129681378Y-109867132D01*
X129926898Y-109881500D01*
X130177100Y-109884759D01*
X130528483Y-109880910D01*
X130732136Y-109863957D01*
X130765491Y-109849494D01*
X131122379Y-109849494D01*
X131197059Y-109936652D01*
X131427594Y-110025168D01*
X131820209Y-110118403D01*
X131884093Y-110131166D01*
X131909989Y-110069153D01*
X131897700Y-109941758D01*
X131909843Y-109840600D01*
X132057081Y-109840600D01*
X132075445Y-109952335D01*
X132141748Y-109953568D01*
X132254147Y-109846707D01*
X132284919Y-109764733D01*
X132266555Y-109652998D01*
X132200253Y-109651765D01*
X132087853Y-109758627D01*
X132057081Y-109840600D01*
X131909843Y-109840600D01*
X131921270Y-109745416D01*
X132084190Y-109565479D01*
X132308831Y-109388777D01*
X131981303Y-109300583D01*
X131678529Y-109225515D01*
X131383005Y-109161659D01*
X131362054Y-109157665D01*
X131178307Y-109131665D01*
X131133057Y-109156971D01*
X131176167Y-109215737D01*
X131260709Y-109385417D01*
X131276550Y-109588122D01*
X131220472Y-109741066D01*
X131197334Y-109760334D01*
X131122379Y-109849494D01*
X130765491Y-109849494D01*
X130809390Y-109830460D01*
X130790934Y-109785734D01*
X130709292Y-109623876D01*
X130702364Y-109526856D01*
X130819461Y-109526856D01*
X130839237Y-109615745D01*
X130922114Y-109698882D01*
X131023018Y-109652036D01*
X131093494Y-109500960D01*
X131097389Y-109478535D01*
X131074142Y-109326181D01*
X130998611Y-109294667D01*
X130861899Y-109362886D01*
X130819461Y-109526856D01*
X130702364Y-109526856D01*
X130695025Y-109424084D01*
X130750844Y-109271752D01*
X130774000Y-109252334D01*
X130863368Y-109158806D01*
X130786624Y-109092094D01*
X130544920Y-109052605D01*
X130175286Y-109040667D01*
X129841316Y-109043521D01*
X129650278Y-109056334D01*
X129575809Y-109085479D01*
X129374522Y-109085479D01*
X129433125Y-109026876D01*
X128643062Y-109086789D01*
X128210879Y-109123690D01*
X127931097Y-109159572D01*
X127786881Y-109199141D01*
X127761396Y-109247100D01*
X127837807Y-109308154D01*
X127842128Y-109310590D01*
X127959703Y-109460701D01*
X127960218Y-109676219D01*
X127844626Y-109901113D01*
X127831834Y-109916190D01*
X127738519Y-110033061D01*
X127459059Y-110033061D01*
X127501687Y-110018095D01*
X127532672Y-109973821D01*
X127486866Y-109922475D01*
X127470201Y-109910411D01*
X127324879Y-109723392D01*
X127327588Y-109619699D01*
X127486291Y-109619699D01*
X127493534Y-109765661D01*
X127594482Y-109791101D01*
X127613291Y-109787873D01*
X127742890Y-109689428D01*
X127768334Y-109589841D01*
X127720340Y-109451839D01*
X127616647Y-109430675D01*
X127517688Y-109519952D01*
X127486291Y-109619699D01*
X127327588Y-109619699D01*
X127330656Y-109502285D01*
X127435714Y-109343048D01*
X127496534Y-109281110D01*
X127519149Y-109240964D01*
X127481508Y-109223400D01*
X127361558Y-109229207D01*
X127137246Y-109259177D01*
X126786519Y-109314099D01*
X126371334Y-109381186D01*
X125279373Y-109584918D01*
X124084178Y-109855997D01*
X122831641Y-110181561D01*
X121567656Y-110548744D01*
X120338120Y-110944683D01*
X119188924Y-111356512D01*
X118836000Y-111493370D01*
X117847882Y-111907925D01*
X116916990Y-112343832D01*
X116056897Y-112792274D01*
X115281173Y-113244436D01*
X114603387Y-113691505D01*
X114037112Y-114124663D01*
X113595916Y-114535097D01*
X113293371Y-114913990D01*
X113163646Y-115178052D01*
X113099179Y-115460089D01*
X112913786Y-115460089D01*
X112912539Y-115454357D01*
X112977178Y-115022250D01*
G37*
X112977178Y-115022250D02*
X113185827Y-114535334D01*
X113537218Y-113999986D01*
X113790797Y-113702910D01*
X113990420Y-113702910D01*
X113994023Y-113756634D01*
X114129000Y-113709197D01*
X114395217Y-113558542D01*
X114791869Y-113303058D01*
X115234595Y-113023238D01*
X115768710Y-112710037D01*
X116331048Y-112399254D01*
X116858444Y-112126690D01*
X116925742Y-112093693D01*
X118141817Y-111540703D01*
X119443750Y-111019122D01*
X120805557Y-110535710D01*
X122201257Y-110097228D01*
X123604869Y-109710436D01*
X124990410Y-109382094D01*
X126331898Y-109118964D01*
X127603353Y-108927805D01*
X128778791Y-108815379D01*
X129635336Y-108786667D01*
X130017739Y-108780565D01*
X130329024Y-108763984D01*
X130535699Y-108739507D01*
X130604667Y-108711870D01*
X130524140Y-108640504D01*
X130299023Y-108574871D01*
X129954011Y-108516683D01*
X129513800Y-108467650D01*
X129003085Y-108429480D01*
X128446561Y-108403884D01*
X127868924Y-108392571D01*
X127294869Y-108397252D01*
X126749091Y-108419636D01*
X126565807Y-108432239D01*
X124857278Y-108629783D01*
X123170897Y-108952919D01*
X121525586Y-109394391D01*
X119940264Y-109946946D01*
X118433855Y-110603328D01*
X117025277Y-111356283D01*
X115733452Y-112198556D01*
X114769199Y-112955360D01*
X114377874Y-113300215D01*
X114118326Y-113550084D01*
X113990420Y-113702910D01*
X113790797Y-113702910D01*
X114030083Y-113422579D01*
X114216961Y-113230478D01*
X114740983Y-112746485D01*
X115337968Y-112258967D01*
X115915000Y-111842132D01*
X116292716Y-111588052D01*
X116555097Y-111401400D01*
X116727758Y-111255753D01*
X116836312Y-111124689D01*
X116906373Y-110981787D01*
X116916527Y-110949615D01*
X117148099Y-110949615D01*
X117240450Y-110977036D01*
X117449560Y-110895710D01*
X117671834Y-110778950D01*
X117979059Y-110619127D01*
X118380737Y-110422427D01*
X118815574Y-110218436D01*
X119084795Y-110096910D01*
X120405845Y-109569185D01*
X121830307Y-109103953D01*
X123300164Y-108716837D01*
X124757396Y-108423463D01*
X125884500Y-108265728D01*
X126253404Y-108219879D01*
X126550492Y-108172322D01*
X126741418Y-108129247D01*
X126794667Y-108101675D01*
X126734522Y-108010275D01*
X126588071Y-107874625D01*
X126571582Y-107861479D01*
X126370436Y-107757874D01*
X126077511Y-107700032D01*
X125675768Y-107687631D01*
X125148169Y-107720350D01*
X124477676Y-107797868D01*
X124321948Y-107819136D01*
X123515247Y-107953452D01*
X122685258Y-108131545D01*
X121850785Y-108346182D01*
X121030629Y-108590130D01*
X120243595Y-108856158D01*
X119508483Y-109137033D01*
X118844097Y-109425523D01*
X118269238Y-109714395D01*
X117802710Y-109996417D01*
X117463315Y-110264356D01*
X117269856Y-110510981D01*
X117258458Y-110536100D01*
X117158702Y-110805340D01*
X117148099Y-110949615D01*
X116916527Y-110949615D01*
X116963554Y-110800625D01*
X116979442Y-110744103D01*
X117280789Y-109955787D01*
X117489536Y-109955787D01*
X117566909Y-109953049D01*
X117748147Y-109856417D01*
X117927516Y-109745243D01*
X118533505Y-109405761D01*
X119273182Y-109062927D01*
X120111559Y-108728266D01*
X121013645Y-108413301D01*
X121944449Y-108129556D01*
X122868984Y-107888556D01*
X123752257Y-107701823D01*
X124466334Y-107591696D01*
X124855248Y-107542371D01*
X125222480Y-107492160D01*
X125504867Y-107449805D01*
X125567000Y-107439338D01*
X125905667Y-107379474D01*
X125637424Y-107237810D01*
X124932331Y-106941343D01*
X124130439Y-106731674D01*
X123284238Y-106615685D01*
X122446221Y-106600256D01*
X121668875Y-106692269D01*
X121595329Y-106707905D01*
X120722783Y-106983789D01*
X119878439Y-107406968D01*
X119094080Y-107955440D01*
X118401489Y-108607203D01*
X117865537Y-109289848D01*
X117640358Y-109635266D01*
X117514522Y-109853553D01*
X117489536Y-109955787D01*
X117280789Y-109955787D01*
X117291774Y-109927052D01*
X117750885Y-109145783D01*
X118334868Y-108421259D01*
X119021819Y-107774447D01*
X119789831Y-107226309D01*
X120616999Y-106797810D01*
X121376000Y-106536461D01*
X121879009Y-106444937D01*
X122484268Y-106397431D01*
X123130518Y-106393918D01*
X123756505Y-106434375D01*
X124300971Y-106518777D01*
X124381667Y-106537655D01*
X124910214Y-106702349D01*
X125479150Y-106935172D01*
X126037728Y-107210932D01*
X126535203Y-107504437D01*
X126920825Y-107790494D01*
X126940435Y-107807892D01*
X127228842Y-108040165D01*
X127432103Y-108143669D01*
X127506019Y-108143142D01*
X127663074Y-108124362D01*
X127953757Y-108126483D01*
X128344079Y-108146355D01*
X128800052Y-108180827D01*
X129287686Y-108226748D01*
X129772994Y-108280968D01*
X130221986Y-108340336D01*
X130600674Y-108401701D01*
X130837568Y-108451976D01*
X131530156Y-108665362D01*
X132108381Y-108921591D01*
X132560099Y-109211979D01*
X132873166Y-109527844D01*
X133035439Y-109860501D01*
X133056181Y-110038446D01*
X133037743Y-110268943D01*
X132976872Y-110488887D01*
X132856204Y-110734959D01*
X132658372Y-111043837D01*
X132425000Y-111371616D01*
X131594221Y-112375446D01*
X130650289Y-113260514D01*
X129582312Y-114036419D01*
X129012877Y-114378287D01*
X128673472Y-114575461D01*
X128249605Y-114830182D01*
X127798701Y-115107573D01*
X127429667Y-115339846D01*
X126199617Y-116044698D01*
X124966538Y-116588744D01*
X123710312Y-116979646D01*
X122519000Y-117210303D01*
X122125627Y-117252073D01*
X121597467Y-117288225D01*
X120968995Y-117318050D01*
X120274686Y-117340841D01*
X119549017Y-117355891D01*
X118826460Y-117362493D01*
X118141493Y-117359941D01*
X117528589Y-117347526D01*
X117022225Y-117324541D01*
X117004971Y-117323411D01*
X116023198Y-117209132D01*
X115152459Y-117000307D01*
X114484777Y-116747474D01*
X114144472Y-116596470D01*
X113801853Y-116446747D01*
X113595344Y-116358073D01*
X113220354Y-116128644D01*
X113051965Y-115903785D01*
X113262848Y-115903785D01*
X113292706Y-115976312D01*
X113324562Y-116015901D01*
X113454427Y-116127574D01*
X113551641Y-116143979D01*
X113569275Y-116059093D01*
X113565540Y-116046834D01*
X113461703Y-115943214D01*
X113370679Y-115910068D01*
X113262848Y-115903785D01*
X113051965Y-115903785D01*
X112993175Y-115825280D01*
X112913786Y-115460089D01*
X113099179Y-115460089D01*
X113143750Y-115634357D01*
X113311101Y-115733058D01*
X113410993Y-115757699D01*
X113665015Y-115880397D01*
X113770526Y-116023737D01*
X113853981Y-116191763D01*
X113893731Y-116209397D01*
X113894213Y-116201988D01*
X114271124Y-116201988D01*
X114289325Y-116283714D01*
X114430014Y-116404045D01*
X114657884Y-116540135D01*
X114937632Y-116669139D01*
X115068334Y-116717863D01*
X115705446Y-116891182D01*
X116447652Y-117005783D01*
X117317731Y-117064662D01*
X117777667Y-117073940D01*
X118878334Y-117082122D01*
X118596862Y-116860324D01*
X118398252Y-116671027D01*
X118258131Y-116479280D01*
X118239680Y-116439392D01*
X118163970Y-116240258D01*
X116997152Y-116291754D01*
X116398777Y-116306178D01*
X115810787Y-116298936D01*
X115295664Y-116271413D01*
X115074192Y-116249155D01*
X114734502Y-116212373D01*
X114462582Y-116193227D01*
X114298969Y-116194098D01*
X114271124Y-116201988D01*
X113894213Y-116201988D01*
X113895207Y-116186738D01*
X118412667Y-116186738D01*
X118494454Y-116428131D01*
X118729426Y-116646112D01*
X119102001Y-116831081D01*
X119596593Y-116973442D01*
X119734170Y-117000648D01*
X120087464Y-117037847D01*
X120561301Y-117049762D01*
X121109101Y-117038388D01*
X121684285Y-117005714D01*
X122240274Y-116953732D01*
X122730488Y-116884435D01*
X122815334Y-116868905D01*
X123783677Y-116640723D01*
X124736989Y-116335557D01*
X125649584Y-115966188D01*
X126495778Y-115545399D01*
X127249885Y-115085972D01*
X127886220Y-114600688D01*
X128379098Y-114102330D01*
X128382167Y-114098601D01*
X128441263Y-114004930D01*
X128771253Y-114004930D01*
X128833376Y-114044200D01*
X129008427Y-113985030D01*
X129287506Y-113832017D01*
X129661714Y-113589758D01*
X130122154Y-113262847D01*
X130413168Y-113045412D01*
X130756001Y-112768369D01*
X131105452Y-112458611D01*
X131395050Y-112175533D01*
X131437003Y-112130561D01*
X131675125Y-111845694D01*
X131879674Y-111556895D01*
X132030417Y-111298272D01*
X132107122Y-111103936D01*
X132098912Y-111014690D01*
X132018124Y-111044654D01*
X131834302Y-111160269D01*
X131577021Y-111341885D01*
X131350843Y-111511742D01*
X130864566Y-111878670D01*
X130460937Y-112164382D01*
X130094527Y-112398429D01*
X129719908Y-112610365D01*
X129434751Y-112758217D01*
X129159891Y-112901424D01*
X129003308Y-113009035D01*
X128931588Y-113120715D01*
X128911316Y-113276126D01*
X128910037Y-113381052D01*
X128891600Y-113635540D01*
X128847254Y-113828964D01*
X128830957Y-113862624D01*
X128771253Y-114004930D01*
X128441263Y-114004930D01*
X128596847Y-113758325D01*
X128664134Y-113450383D01*
X128583279Y-113192042D01*
X128427883Y-113043119D01*
X128211096Y-112965261D01*
X127859351Y-112912620D01*
X127405068Y-112884746D01*
X126880668Y-112881191D01*
X126318569Y-112901504D01*
X125751192Y-112945238D01*
X125210956Y-113011942D01*
X124762667Y-113093899D01*
X123810539Y-113325816D01*
X122891414Y-113590924D01*
X122019460Y-113882324D01*
X121208843Y-114193115D01*
X120473730Y-114516398D01*
X119828288Y-114845272D01*
X119286683Y-115172836D01*
X118863084Y-115492192D01*
X118571655Y-115796438D01*
X118426565Y-116078675D01*
X118412667Y-116186738D01*
X113895207Y-116186738D01*
X113902876Y-116069102D01*
X113900401Y-115949012D01*
X113948006Y-115722199D01*
X114179334Y-115722199D01*
X114200181Y-115824367D01*
X114281944Y-115900386D01*
X114453458Y-115961695D01*
X114743556Y-116019736D01*
X115047703Y-116066751D01*
X115321909Y-116093515D01*
X115702718Y-116113180D01*
X116149386Y-116125568D01*
X116621168Y-116130505D01*
X117077320Y-116127814D01*
X117477097Y-116117320D01*
X117779755Y-116098846D01*
X117920659Y-116079150D01*
X118116700Y-115973118D01*
X118329484Y-115767589D01*
X118395777Y-115682740D01*
X118599195Y-115456732D01*
X118885245Y-115206121D01*
X119162210Y-115005407D01*
X119414665Y-114836308D01*
X119599495Y-114700257D01*
X119680825Y-114623864D01*
X119681926Y-114619924D01*
X119604802Y-114588655D01*
X119400527Y-114553227D01*
X119110913Y-114520649D01*
X119066477Y-114516760D01*
X118677674Y-114463843D01*
X118220324Y-114372259D01*
X117785264Y-114260530D01*
X117732977Y-114244847D01*
X117364782Y-114132038D01*
X117020049Y-114026467D01*
X116759237Y-113946645D01*
X116707972Y-113930969D01*
X116554045Y-113892061D01*
X116418663Y-113892277D01*
X116261184Y-113944956D01*
X116040969Y-114063436D01*
X115734305Y-114250540D01*
X115332738Y-114521917D01*
X114954581Y-114817177D01*
X114625282Y-115112237D01*
X114370290Y-115383010D01*
X114215051Y-115605414D01*
X114179334Y-115722199D01*
X113948006Y-115722199D01*
X113972506Y-115605476D01*
X114200799Y-115234056D01*
X114575359Y-114839757D01*
X115086266Y-114427584D01*
X115723600Y-114002545D01*
X116268249Y-113689774D01*
X116804000Y-113689774D01*
X116882728Y-113765870D01*
X117100255Y-113863369D01*
X117428598Y-113974397D01*
X117839774Y-114091078D01*
X118305797Y-114205540D01*
X118798686Y-114309907D01*
X119290455Y-114396306D01*
X119344000Y-114404483D01*
X119654241Y-114436424D01*
X119934366Y-114423165D01*
X120232769Y-114354923D01*
X120597843Y-114221914D01*
X120914702Y-114086913D01*
X121367751Y-113898077D01*
X121866554Y-113706788D01*
X122330373Y-113543457D01*
X122510622Y-113485820D01*
X123260324Y-113257147D01*
X123203465Y-112702168D01*
X123136527Y-112167550D01*
X123058903Y-111751329D01*
X122974435Y-111468833D01*
X122886962Y-111335387D01*
X122858745Y-111326667D01*
X122715444Y-111354177D01*
X122441757Y-111430334D01*
X122066315Y-111545582D01*
X121617747Y-111690363D01*
X121124684Y-111855120D01*
X120615756Y-112030295D01*
X120119592Y-112206331D01*
X119664823Y-112373671D01*
X119301667Y-112514101D01*
X118664095Y-112774479D01*
X118093175Y-113018214D01*
X117605913Y-113237300D01*
X117219320Y-113423729D01*
X116950404Y-113569497D01*
X116816173Y-113666597D01*
X116804000Y-113689774D01*
X116268249Y-113689774D01*
X116477439Y-113569645D01*
X117337862Y-113133890D01*
X118294951Y-112700287D01*
X119338783Y-112273840D01*
X120459439Y-111859557D01*
X121646998Y-111462443D01*
X122220551Y-111289651D01*
X123199309Y-111289651D01*
X123214295Y-111470395D01*
X123246452Y-111747337D01*
X123289991Y-112080176D01*
X123339120Y-112428609D01*
X123388049Y-112752334D01*
X123430987Y-113011048D01*
X123462145Y-113164450D01*
X123472248Y-113189334D01*
X123567225Y-113170818D01*
X123785686Y-113121503D01*
X124086608Y-113050734D01*
X124200762Y-113023362D01*
X124649026Y-112922034D01*
X125153042Y-112818055D01*
X125588251Y-112736711D01*
X125942341Y-112663357D01*
X126254928Y-112577044D01*
X126449559Y-112501644D01*
X126710000Y-112501644D01*
X126788252Y-112538688D01*
X126997474Y-112574650D01*
X127299368Y-112603777D01*
X127450834Y-112612904D01*
X127918181Y-112654413D01*
X128274494Y-112723971D01*
X128445667Y-112789204D01*
X128622061Y-112880705D01*
X128757184Y-112915813D01*
X128901604Y-112887460D01*
X129105884Y-112788580D01*
X129324361Y-112666391D01*
X129710412Y-112435776D01*
X130130040Y-112164140D01*
X130559612Y-111869217D01*
X130975493Y-111568737D01*
X131354051Y-111280430D01*
X131671651Y-111022029D01*
X131904661Y-110811263D01*
X132029447Y-110665864D01*
X132044000Y-110625981D01*
X131973304Y-110554459D01*
X131792124Y-110447966D01*
X131641834Y-110375774D01*
X131433181Y-110296701D01*
X131195286Y-110240216D01*
X131063073Y-110223218D01*
X132189937Y-110223218D01*
X132200982Y-110325428D01*
X132281642Y-110481285D01*
X132378932Y-110644014D01*
X132423875Y-110667948D01*
X132446909Y-110562008D01*
X132450941Y-110530904D01*
X132482860Y-110447660D01*
X132636667Y-110447660D01*
X132679012Y-110531371D01*
X132721334Y-110522334D01*
X132798387Y-110400195D01*
X132806000Y-110343007D01*
X132763655Y-110259296D01*
X132721334Y-110268334D01*
X132644280Y-110390472D01*
X132636667Y-110447660D01*
X132482860Y-110447660D01*
X132533955Y-110314412D01*
X132638300Y-110182189D01*
X132740104Y-110071905D01*
X132748739Y-109963903D01*
X132668051Y-109786111D01*
X132660227Y-109771221D01*
X132520737Y-109506334D01*
X132459666Y-109794844D01*
X132382800Y-110011366D01*
X132277863Y-110150277D01*
X132268439Y-110156194D01*
X132189937Y-110223218D01*
X131063073Y-110223218D01*
X130890576Y-110201041D01*
X130481479Y-110173897D01*
X130096585Y-110158688D01*
X128953502Y-110120973D01*
X128624700Y-110598380D01*
X128458231Y-110813184D01*
X128221670Y-111083872D01*
X127941081Y-111384475D01*
X127642529Y-111689026D01*
X127352076Y-111971554D01*
X127095787Y-112206091D01*
X126899727Y-112366668D01*
X126789958Y-112427317D01*
X126789041Y-112427334D01*
X126711457Y-112487448D01*
X126710000Y-112501644D01*
X126449559Y-112501644D01*
X126469588Y-112493885D01*
X126499996Y-112476363D01*
X126741611Y-112294523D01*
X127035941Y-112037486D01*
X127358926Y-111730618D01*
X127686504Y-111399282D01*
X127994615Y-111068843D01*
X128259199Y-110764667D01*
X128456193Y-110512117D01*
X128561537Y-110336560D01*
X128572667Y-110291372D01*
X128491364Y-110246599D01*
X128251190Y-110241535D01*
X127857747Y-110275611D01*
X127316639Y-110348258D01*
X126633467Y-110458908D01*
X126244334Y-110527588D01*
X125644465Y-110641431D01*
X125062084Y-110762092D01*
X124520192Y-110883815D01*
X124041785Y-111000846D01*
X123649864Y-111107428D01*
X123367427Y-111197805D01*
X123217473Y-111266221D01*
X123199309Y-111289651D01*
X122220551Y-111289651D01*
X122891540Y-111087505D01*
X124183143Y-110739747D01*
X124264328Y-110719249D01*
X124826812Y-110573010D01*
X125226619Y-110457946D01*
X125467285Y-110372884D01*
X125552349Y-110316650D01*
X125534485Y-110297729D01*
X125370415Y-110164817D01*
X125299502Y-109965347D01*
X125308216Y-109929187D01*
X125456205Y-109929187D01*
X125510424Y-110075866D01*
X125639951Y-110141334D01*
X125774494Y-110073267D01*
X125806909Y-110020524D01*
X125796537Y-109876378D01*
X125694186Y-109770173D01*
X125561819Y-109751321D01*
X125509836Y-109783631D01*
X125456205Y-109929187D01*
X125308216Y-109929187D01*
X125345776Y-109773341D01*
X125358705Y-109756271D01*
X125543498Y-109649168D01*
X125770535Y-109654904D01*
X125955299Y-109769129D01*
X126021594Y-109893785D01*
X125986802Y-110039895D01*
X125937253Y-110132736D01*
X125806507Y-110360548D01*
X126722121Y-110194152D01*
X127118997Y-110119694D01*
X127371324Y-110063864D01*
X127459059Y-110033061D01*
X127738519Y-110033061D01*
X127760570Y-110054654D01*
X127821171Y-110035439D01*
X127967225Y-110004827D01*
X128231133Y-109968461D01*
X128561882Y-109933145D01*
X128643979Y-109925718D01*
X128980184Y-109894455D01*
X129175484Y-109865380D01*
X129257731Y-109826713D01*
X129254778Y-109766676D01*
X129204975Y-109688464D01*
X129100563Y-109508829D01*
X129101467Y-109497789D01*
X129277339Y-109497789D01*
X129380551Y-109615090D01*
X129506785Y-109616932D01*
X129584956Y-109509890D01*
X129588667Y-109468997D01*
X129557997Y-109312536D01*
X129521124Y-109262917D01*
X129391677Y-109260063D01*
X129289175Y-109359954D01*
X129277339Y-109497789D01*
X129101467Y-109497789D01*
X129111483Y-109375578D01*
X129245691Y-109214350D01*
X129256896Y-109203105D01*
X129374522Y-109085479D01*
X129575809Y-109085479D01*
X129591544Y-109137330D01*
X129624953Y-109173714D01*
X129737020Y-109374633D01*
X129742453Y-109597997D01*
X129642983Y-109772602D01*
X129609834Y-109795885D01*
X129580567Y-109839358D01*
X129681378Y-109867132D01*
X129926898Y-109881500D01*
X130177100Y-109884759D01*
X130528483Y-109880910D01*
X130732136Y-109863957D01*
X130765491Y-109849494D01*
X131122379Y-109849494D01*
X131197059Y-109936652D01*
X131427594Y-110025168D01*
X131820209Y-110118403D01*
X131884093Y-110131166D01*
X131909989Y-110069153D01*
X131897700Y-109941758D01*
X131909843Y-109840600D01*
X132057081Y-109840600D01*
X132075445Y-109952335D01*
X132141748Y-109953568D01*
X132254147Y-109846707D01*
X132284919Y-109764733D01*
X132266555Y-109652998D01*
X132200253Y-109651765D01*
X132087853Y-109758627D01*
X132057081Y-109840600D01*
X131909843Y-109840600D01*
X131921270Y-109745416D01*
X132084190Y-109565479D01*
X132308831Y-109388777D01*
X131981303Y-109300583D01*
X131678529Y-109225515D01*
X131383005Y-109161659D01*
X131362054Y-109157665D01*
X131178307Y-109131665D01*
X131133057Y-109156971D01*
X131176167Y-109215737D01*
X131260709Y-109385417D01*
X131276550Y-109588122D01*
X131220472Y-109741066D01*
X131197334Y-109760334D01*
X131122379Y-109849494D01*
X130765491Y-109849494D01*
X130809390Y-109830460D01*
X130790934Y-109785734D01*
X130709292Y-109623876D01*
X130702364Y-109526856D01*
X130819461Y-109526856D01*
X130839237Y-109615745D01*
X130922114Y-109698882D01*
X131023018Y-109652036D01*
X131093494Y-109500960D01*
X131097389Y-109478535D01*
X131074142Y-109326181D01*
X130998611Y-109294667D01*
X130861899Y-109362886D01*
X130819461Y-109526856D01*
X130702364Y-109526856D01*
X130695025Y-109424084D01*
X130750844Y-109271752D01*
X130774000Y-109252334D01*
X130863368Y-109158806D01*
X130786624Y-109092094D01*
X130544920Y-109052605D01*
X130175286Y-109040667D01*
X129841316Y-109043521D01*
X129650278Y-109056334D01*
X129575809Y-109085479D01*
X129374522Y-109085479D01*
X129433125Y-109026876D01*
X128643062Y-109086789D01*
X128210879Y-109123690D01*
X127931097Y-109159572D01*
X127786881Y-109199141D01*
X127761396Y-109247100D01*
X127837807Y-109308154D01*
X127842128Y-109310590D01*
X127959703Y-109460701D01*
X127960218Y-109676219D01*
X127844626Y-109901113D01*
X127831834Y-109916190D01*
X127738519Y-110033061D01*
X127459059Y-110033061D01*
X127501687Y-110018095D01*
X127532672Y-109973821D01*
X127486866Y-109922475D01*
X127470201Y-109910411D01*
X127324879Y-109723392D01*
X127327588Y-109619699D01*
X127486291Y-109619699D01*
X127493534Y-109765661D01*
X127594482Y-109791101D01*
X127613291Y-109787873D01*
X127742890Y-109689428D01*
X127768334Y-109589841D01*
X127720340Y-109451839D01*
X127616647Y-109430675D01*
X127517688Y-109519952D01*
X127486291Y-109619699D01*
X127327588Y-109619699D01*
X127330656Y-109502285D01*
X127435714Y-109343048D01*
X127496534Y-109281110D01*
X127519149Y-109240964D01*
X127481508Y-109223400D01*
X127361558Y-109229207D01*
X127137246Y-109259177D01*
X126786519Y-109314099D01*
X126371334Y-109381186D01*
X125279373Y-109584918D01*
X124084178Y-109855997D01*
X122831641Y-110181561D01*
X121567656Y-110548744D01*
X120338120Y-110944683D01*
X119188924Y-111356512D01*
X118836000Y-111493370D01*
X117847882Y-111907925D01*
X116916990Y-112343832D01*
X116056897Y-112792274D01*
X115281173Y-113244436D01*
X114603387Y-113691505D01*
X114037112Y-114124663D01*
X113595916Y-114535097D01*
X113293371Y-114913990D01*
X113163646Y-115178052D01*
X113099179Y-115460089D01*
X112913786Y-115460089D01*
X112912539Y-115454357D01*
X112977178Y-115022250D01*
G36*
X117079170Y-112389507D02*
G01*
X117257447Y-112350706D01*
X117375500Y-112394080D01*
X117504827Y-112544591D01*
X117553627Y-112739723D01*
X117509657Y-112906124D01*
X117467575Y-112945629D01*
X117234156Y-113015336D01*
X117024613Y-112943917D01*
X116976709Y-112897067D01*
X116902736Y-112708175D01*
X116911282Y-112674054D01*
X117019195Y-112674054D01*
X117091836Y-112803104D01*
X117236392Y-112850667D01*
X117372439Y-112785560D01*
X117396667Y-112690392D01*
X117337152Y-112531959D01*
X117202856Y-112472443D01*
X117074934Y-112528934D01*
X117019195Y-112674054D01*
X116911282Y-112674054D01*
X116948911Y-112523826D01*
X117079170Y-112389507D01*
G37*
X117079170Y-112389507D02*
X117257447Y-112350706D01*
X117375500Y-112394080D01*
X117504827Y-112544591D01*
X117553627Y-112739723D01*
X117509657Y-112906124D01*
X117467575Y-112945629D01*
X117234156Y-113015336D01*
X117024613Y-112943917D01*
X116976709Y-112897067D01*
X116902736Y-112708175D01*
X116911282Y-112674054D01*
X117019195Y-112674054D01*
X117091836Y-112803104D01*
X117236392Y-112850667D01*
X117372439Y-112785560D01*
X117396667Y-112690392D01*
X117337152Y-112531959D01*
X117202856Y-112472443D01*
X117074934Y-112528934D01*
X117019195Y-112674054D01*
X116911282Y-112674054D01*
X116948911Y-112523826D01*
X117079170Y-112389507D01*
G36*
X123049350Y-110223041D02*
G01*
X123090500Y-110192747D01*
X123275436Y-110151340D01*
X123434535Y-110233041D01*
X123540703Y-110391626D01*
X123566849Y-110580875D01*
X123485879Y-110754564D01*
X123442192Y-110792756D01*
X123300118Y-110881259D01*
X123238667Y-110903334D01*
X123135973Y-110858851D01*
X123035142Y-110792756D01*
X122924801Y-110621921D01*
X122929142Y-110488380D01*
X123013444Y-110488380D01*
X123074752Y-110613529D01*
X123220176Y-110708725D01*
X123339172Y-110647265D01*
X123392722Y-110494535D01*
X123373957Y-110348644D01*
X123249552Y-110310667D01*
X123065923Y-110361296D01*
X123013444Y-110488380D01*
X122929142Y-110488380D01*
X122931758Y-110407944D01*
X123049350Y-110223041D01*
G37*
X123049350Y-110223041D02*
X123090500Y-110192747D01*
X123275436Y-110151340D01*
X123434535Y-110233041D01*
X123540703Y-110391626D01*
X123566849Y-110580875D01*
X123485879Y-110754564D01*
X123442192Y-110792756D01*
X123300118Y-110881259D01*
X123238667Y-110903334D01*
X123135973Y-110858851D01*
X123035142Y-110792756D01*
X122924801Y-110621921D01*
X122929142Y-110488380D01*
X123013444Y-110488380D01*
X123074752Y-110613529D01*
X123220176Y-110708725D01*
X123339172Y-110647265D01*
X123392722Y-110494535D01*
X123373957Y-110348644D01*
X123249552Y-110310667D01*
X123065923Y-110361296D01*
X123013444Y-110488380D01*
X122929142Y-110488380D01*
X122931758Y-110407944D01*
X123049350Y-110223041D01*
G36*
X120607222Y-110994534D02*
G01*
X120773472Y-110928200D01*
X120843928Y-110919352D01*
X121040595Y-110922149D01*
X121136266Y-111006616D01*
X121170883Y-111110952D01*
X121174751Y-111336158D01*
X121121088Y-111454766D01*
X120962410Y-111553732D01*
X120765173Y-111574818D01*
X120604785Y-111517342D01*
X120562314Y-111459824D01*
X120536352Y-111281564D01*
X120540726Y-111199835D01*
X120627399Y-111199835D01*
X120684627Y-111338772D01*
X120817720Y-111398542D01*
X120845605Y-111395452D01*
X120986907Y-111297818D01*
X121021452Y-111219605D01*
X120982719Y-111077076D01*
X120852113Y-111004283D01*
X120703636Y-111036924D01*
X120681734Y-111055734D01*
X120627399Y-111199835D01*
X120540726Y-111199835D01*
X120543805Y-111142324D01*
X120607222Y-110994534D01*
G37*
X120607222Y-110994534D02*
X120773472Y-110928200D01*
X120843928Y-110919352D01*
X121040595Y-110922149D01*
X121136266Y-111006616D01*
X121170883Y-111110952D01*
X121174751Y-111336158D01*
X121121088Y-111454766D01*
X120962410Y-111553732D01*
X120765173Y-111574818D01*
X120604785Y-111517342D01*
X120562314Y-111459824D01*
X120536352Y-111281564D01*
X120540726Y-111199835D01*
X120627399Y-111199835D01*
X120684627Y-111338772D01*
X120817720Y-111398542D01*
X120845605Y-111395452D01*
X120986907Y-111297818D01*
X121021452Y-111219605D01*
X120982719Y-111077076D01*
X120852113Y-111004283D01*
X120703636Y-111036924D01*
X120681734Y-111055734D01*
X120627399Y-111199835D01*
X120540726Y-111199835D01*
X120543805Y-111142324D01*
X120607222Y-110994534D01*
G36*
X115563008Y-115097040D02*
G01*
X115815016Y-114963533D01*
X116005996Y-114905711D01*
X116362341Y-114851720D01*
X116667658Y-114869219D01*
X116899483Y-114944620D01*
X117035353Y-115064337D01*
X117052804Y-115214782D01*
X116929374Y-115382369D01*
X116869828Y-115428199D01*
X116661387Y-115511724D01*
X116368812Y-115556237D01*
X116049796Y-115561837D01*
X115762029Y-115528622D01*
X115563205Y-115456692D01*
X115528110Y-115425903D01*
X115469609Y-115266999D01*
X115623845Y-115266999D01*
X115664352Y-115371501D01*
X115766834Y-115418771D01*
X115987060Y-115435443D01*
X116284761Y-115408763D01*
X116577107Y-115349932D01*
X116755759Y-115285023D01*
X116869452Y-115212279D01*
X116841733Y-115145399D01*
X116760743Y-115083188D01*
X116556345Y-114988130D01*
X116294002Y-114980376D01*
X115936167Y-115056452D01*
X115719106Y-115152020D01*
X115623845Y-115266999D01*
X115469609Y-115266999D01*
X115464807Y-115253957D01*
X115563008Y-115097040D01*
G37*
X115563008Y-115097040D02*
X115815016Y-114963533D01*
X116005996Y-114905711D01*
X116362341Y-114851720D01*
X116667658Y-114869219D01*
X116899483Y-114944620D01*
X117035353Y-115064337D01*
X117052804Y-115214782D01*
X116929374Y-115382369D01*
X116869828Y-115428199D01*
X116661387Y-115511724D01*
X116368812Y-115556237D01*
X116049796Y-115561837D01*
X115762029Y-115528622D01*
X115563205Y-115456692D01*
X115528110Y-115425903D01*
X115469609Y-115266999D01*
X115623845Y-115266999D01*
X115664352Y-115371501D01*
X115766834Y-115418771D01*
X115987060Y-115435443D01*
X116284761Y-115408763D01*
X116577107Y-115349932D01*
X116755759Y-115285023D01*
X116869452Y-115212279D01*
X116841733Y-115145399D01*
X116760743Y-115083188D01*
X116556345Y-114988130D01*
X116294002Y-114980376D01*
X115936167Y-115056452D01*
X115719106Y-115152020D01*
X115623845Y-115266999D01*
X115469609Y-115266999D01*
X115464807Y-115253957D01*
X115563008Y-115097040D01*
G36*
X117048097Y-116481495D02*
G01*
X117305147Y-116427738D01*
X117575764Y-116425691D01*
X117808456Y-116485639D01*
X117825566Y-116494312D01*
X117959318Y-116624856D01*
X117983434Y-116776135D01*
X117917758Y-116864243D01*
X117704475Y-116934135D01*
X117414592Y-116961182D01*
X117134611Y-116942416D01*
X116982833Y-116896317D01*
X116833099Y-116787916D01*
X116780666Y-116703000D01*
X116792188Y-116683706D01*
X116907906Y-116683706D01*
X116961801Y-116729704D01*
X117021857Y-116754188D01*
X117175752Y-116808444D01*
X117301085Y-116819595D01*
X117483380Y-116791366D01*
X117554043Y-116777358D01*
X117720833Y-116721523D01*
X117774022Y-116656135D01*
X117771296Y-116650358D01*
X117658494Y-116599019D01*
X117447503Y-116578135D01*
X117206981Y-116589254D01*
X117007615Y-116633139D01*
X116907906Y-116683706D01*
X116792188Y-116683706D01*
X116856106Y-116576677D01*
X117048097Y-116481495D01*
G37*
X117048097Y-116481495D02*
X117305147Y-116427738D01*
X117575764Y-116425691D01*
X117808456Y-116485639D01*
X117825566Y-116494312D01*
X117959318Y-116624856D01*
X117983434Y-116776135D01*
X117917758Y-116864243D01*
X117704475Y-116934135D01*
X117414592Y-116961182D01*
X117134611Y-116942416D01*
X116982833Y-116896317D01*
X116833099Y-116787916D01*
X116780666Y-116703000D01*
X116792188Y-116683706D01*
X116907906Y-116683706D01*
X116961801Y-116729704D01*
X117021857Y-116754188D01*
X117175752Y-116808444D01*
X117301085Y-116819595D01*
X117483380Y-116791366D01*
X117554043Y-116777358D01*
X117720833Y-116721523D01*
X117774022Y-116656135D01*
X117771296Y-116650358D01*
X117658494Y-116599019D01*
X117447503Y-116578135D01*
X117206981Y-116589254D01*
X117007615Y-116633139D01*
X116907906Y-116683706D01*
X116792188Y-116683706D01*
X116856106Y-116576677D01*
X117048097Y-116481495D01*
G36*
X129306544Y-113112154D02*
G01*
X129486044Y-112943608D01*
X129708929Y-112796320D01*
X129938432Y-112701075D01*
X130070503Y-112681650D01*
X130263858Y-112721440D01*
X130309847Y-112835983D01*
X130208496Y-113016673D01*
X130068987Y-113160614D01*
X129809665Y-113342799D01*
X129543651Y-113441206D01*
X129319844Y-113442556D01*
X129224757Y-113389868D01*
X129207428Y-113272756D01*
X129334667Y-113272756D01*
X129354760Y-113342544D01*
X129436178Y-113340697D01*
X129610633Y-113259964D01*
X129767639Y-113173743D01*
X129994700Y-113025657D01*
X130092301Y-112915208D01*
X130050572Y-112856667D01*
X129990834Y-112850983D01*
X129841172Y-112894624D01*
X129644340Y-112999476D01*
X129459692Y-113127387D01*
X129346584Y-113240204D01*
X129334667Y-113272756D01*
X129207428Y-113272756D01*
X129207193Y-113271170D01*
X129306544Y-113112154D01*
G37*
X129306544Y-113112154D02*
X129486044Y-112943608D01*
X129708929Y-112796320D01*
X129938432Y-112701075D01*
X130070503Y-112681650D01*
X130263858Y-112721440D01*
X130309847Y-112835983D01*
X130208496Y-113016673D01*
X130068987Y-113160614D01*
X129809665Y-113342799D01*
X129543651Y-113441206D01*
X129319844Y-113442556D01*
X129224757Y-113389868D01*
X129207428Y-113272756D01*
X129334667Y-113272756D01*
X129354760Y-113342544D01*
X129436178Y-113340697D01*
X129610633Y-113259964D01*
X129767639Y-113173743D01*
X129994700Y-113025657D01*
X130092301Y-112915208D01*
X130050572Y-112856667D01*
X129990834Y-112850983D01*
X129841172Y-112894624D01*
X129644340Y-112999476D01*
X129459692Y-113127387D01*
X129346584Y-113240204D01*
X129334667Y-113272756D01*
X129207428Y-113272756D01*
X129207193Y-113271170D01*
X129306544Y-113112154D01*
G36*
X114250910Y-114043006D02*
G01*
X114450622Y-114011978D01*
X114623942Y-114103103D01*
X114736218Y-114269400D01*
X114752797Y-114463890D01*
X114670400Y-114611734D01*
X114497797Y-114706826D01*
X114319004Y-114639105D01*
X114234789Y-114558500D01*
X114109434Y-114340349D01*
X114112672Y-114314918D01*
X114287695Y-114314918D01*
X114344915Y-114412480D01*
X114480616Y-114498178D01*
X114580954Y-114438050D01*
X114602667Y-114332334D01*
X114544624Y-114187624D01*
X114417363Y-114145156D01*
X114327945Y-114192189D01*
X114287695Y-114314918D01*
X114112672Y-114314918D01*
X114133697Y-114149792D01*
X114250910Y-114043006D01*
G37*
X114250910Y-114043006D02*
X114450622Y-114011978D01*
X114623942Y-114103103D01*
X114736218Y-114269400D01*
X114752797Y-114463890D01*
X114670400Y-114611734D01*
X114497797Y-114706826D01*
X114319004Y-114639105D01*
X114234789Y-114558500D01*
X114109434Y-114340349D01*
X114112672Y-114314918D01*
X114287695Y-114314918D01*
X114344915Y-114412480D01*
X114480616Y-114498178D01*
X114580954Y-114438050D01*
X114602667Y-114332334D01*
X114544624Y-114187624D01*
X114417363Y-114145156D01*
X114327945Y-114192189D01*
X114287695Y-114314918D01*
X114112672Y-114314918D01*
X114133697Y-114149792D01*
X114250910Y-114043006D01*
G36*
X120099667Y-112892216D02*
G01*
X120364287Y-112744830D01*
X120714865Y-112600745D01*
X121050603Y-112519261D01*
X121343783Y-112498522D01*
X121566686Y-112536678D01*
X121691595Y-112631873D01*
X121690792Y-112782255D01*
X121665575Y-112831831D01*
X121490650Y-113003021D01*
X121205135Y-113161991D01*
X120856783Y-113294697D01*
X120493348Y-113387097D01*
X120162582Y-113425149D01*
X119912240Y-113394810D01*
X119852000Y-113365126D01*
X119774240Y-113238725D01*
X119799339Y-113191054D01*
X119936667Y-113191054D01*
X120009277Y-113258202D01*
X120198573Y-113273282D01*
X120461758Y-113241133D01*
X120756033Y-113166593D01*
X121005792Y-113070208D01*
X121323891Y-112905979D01*
X121483710Y-112781473D01*
X121490300Y-112691720D01*
X121428272Y-112654530D01*
X121249913Y-112642329D01*
X120986296Y-112687834D01*
X120681933Y-112775035D01*
X120381340Y-112887919D01*
X120129027Y-113010476D01*
X119969508Y-113126695D01*
X119936667Y-113191054D01*
X119799339Y-113191054D01*
X119858019Y-113079608D01*
X120099667Y-112892216D01*
G37*
X120099667Y-112892216D02*
X120364287Y-112744830D01*
X120714865Y-112600745D01*
X121050603Y-112519261D01*
X121343783Y-112498522D01*
X121566686Y-112536678D01*
X121691595Y-112631873D01*
X121690792Y-112782255D01*
X121665575Y-112831831D01*
X121490650Y-113003021D01*
X121205135Y-113161991D01*
X120856783Y-113294697D01*
X120493348Y-113387097D01*
X120162582Y-113425149D01*
X119912240Y-113394810D01*
X119852000Y-113365126D01*
X119774240Y-113238725D01*
X119799339Y-113191054D01*
X119936667Y-113191054D01*
X120009277Y-113258202D01*
X120198573Y-113273282D01*
X120461758Y-113241133D01*
X120756033Y-113166593D01*
X121005792Y-113070208D01*
X121323891Y-112905979D01*
X121483710Y-112781473D01*
X121490300Y-112691720D01*
X121428272Y-112654530D01*
X121249913Y-112642329D01*
X120986296Y-112687834D01*
X120681933Y-112775035D01*
X120381340Y-112887919D01*
X120129027Y-113010476D01*
X119969508Y-113126695D01*
X119936667Y-113191054D01*
X119799339Y-113191054D01*
X119858019Y-113079608D01*
X120099667Y-112892216D01*
G36*
X115515277Y-113186728D02*
G01*
X115672859Y-113113082D01*
X115858151Y-113158191D01*
X115990839Y-113287090D01*
X116065246Y-113503679D01*
X115996256Y-113682567D01*
X115807554Y-113777030D01*
X115739960Y-113782000D01*
X115537052Y-113714216D01*
X115456610Y-113591500D01*
X115442265Y-113469443D01*
X115537657Y-113469443D01*
X115590445Y-113556222D01*
X115734080Y-113614497D01*
X115848387Y-113540545D01*
X115872667Y-113443334D01*
X115812798Y-113301829D01*
X115703334Y-113274000D01*
X115563216Y-113334972D01*
X115537657Y-113469443D01*
X115442265Y-113469443D01*
X115428747Y-113354432D01*
X115515277Y-113186728D01*
G37*
X115515277Y-113186728D02*
X115672859Y-113113082D01*
X115858151Y-113158191D01*
X115990839Y-113287090D01*
X116065246Y-113503679D01*
X115996256Y-113682567D01*
X115807554Y-113777030D01*
X115739960Y-113782000D01*
X115537052Y-113714216D01*
X115456610Y-113591500D01*
X115442265Y-113469443D01*
X115537657Y-113469443D01*
X115590445Y-113556222D01*
X115734080Y-113614497D01*
X115848387Y-113540545D01*
X115872667Y-113443334D01*
X115812798Y-113301829D01*
X115703334Y-113274000D01*
X115563216Y-113334972D01*
X115537657Y-113469443D01*
X115442265Y-113469443D01*
X115428747Y-113354432D01*
X115515277Y-113186728D01*
D12*
%TO.C,R19*%
X141977500Y-135932776D02*
X141977500Y-136442224D01*
X143022500Y-135932776D02*
X143022500Y-136442224D01*
%TO.C,R20*%
X144522500Y-135632776D02*
X144522500Y-136142224D01*
X143477500Y-135632776D02*
X143477500Y-136142224D01*
%TO.C,R21*%
X144977500Y-135232776D02*
X144977500Y-135742224D01*
X146022500Y-135232776D02*
X146022500Y-135742224D01*
%TO.C,R22*%
X147522500Y-134632776D02*
X147522500Y-135142224D01*
X146477500Y-134632776D02*
X146477500Y-135142224D01*
%TO.C,R23*%
X147977500Y-133932776D02*
X147977500Y-134442224D01*
X149022500Y-133932776D02*
X149022500Y-134442224D01*
%TO.C,J13*%
X133525000Y-126410000D02*
X133525000Y-127735000D01*
X143740000Y-127735000D02*
X143740000Y-131265000D01*
X143675000Y-127735000D02*
X143740000Y-127735000D01*
X133460000Y-127735000D02*
X133525000Y-127735000D01*
X143675000Y-131265000D02*
X143740000Y-131265000D01*
X133460000Y-127735000D02*
X133460000Y-131265000D01*
X133460000Y-131265000D02*
X133525000Y-131265000D01*
%TO.C,C12*%
X145541233Y-100015000D02*
X145833767Y-100015000D01*
X145541233Y-101035000D02*
X145833767Y-101035000D01*
%TO.C,R16*%
X138522500Y-136332776D02*
X138522500Y-136842224D01*
X137477500Y-136332776D02*
X137477500Y-136842224D01*
%TO.C,R18*%
X140477500Y-136232776D02*
X140477500Y-136742224D01*
X141522500Y-136232776D02*
X141522500Y-136742224D01*
%TO.C,R17*%
X140022500Y-136332776D02*
X140022500Y-136842224D01*
X138977500Y-136332776D02*
X138977500Y-136842224D01*
%TO.C,C30*%
X158710000Y-117103733D02*
X158710000Y-117396267D01*
X157690000Y-117103733D02*
X157690000Y-117396267D01*
%TO.C,C31*%
X155553733Y-120060000D02*
X155846267Y-120060000D01*
X155553733Y-119040000D02*
X155846267Y-119040000D01*
%TO.C,C32*%
X151903733Y-120010000D02*
X152196267Y-120010000D01*
X151903733Y-118990000D02*
X152196267Y-118990000D01*
%TO.C,C33*%
X157690000Y-114083767D02*
X157690000Y-113791233D01*
X158710000Y-114083767D02*
X158710000Y-113791233D01*
%TO.C,C34*%
X149390000Y-116953733D02*
X149390000Y-117246267D01*
X150410000Y-116953733D02*
X150410000Y-117246267D01*
%TO.C,C35*%
X150410000Y-113653733D02*
X150410000Y-113946267D01*
X149390000Y-113653733D02*
X149390000Y-113946267D01*
%TO.C,C37*%
X152303733Y-111710000D02*
X152596267Y-111710000D01*
X152303733Y-110690000D02*
X152596267Y-110690000D01*
%TO.C,C38*%
X155953733Y-110640000D02*
X156246267Y-110640000D01*
X155953733Y-111660000D02*
X156246267Y-111660000D01*
%TO.C,C46*%
X143166233Y-101790000D02*
X143458767Y-101790000D01*
X143166233Y-102810000D02*
X143458767Y-102810000D01*
%TO.C,R24*%
X148827500Y-108032776D02*
X148827500Y-108542224D01*
X149872500Y-108032776D02*
X149872500Y-108542224D01*
%TO.C,R25*%
X146372500Y-107567224D02*
X146372500Y-107057776D01*
X145327500Y-107567224D02*
X145327500Y-107057776D01*
%TO.C,R3*%
X146827500Y-107032776D02*
X146827500Y-107542224D01*
X147872500Y-107032776D02*
X147872500Y-107542224D01*
%TO.C,R7*%
X146507776Y-104377500D02*
X147017224Y-104377500D01*
X146507776Y-105422500D02*
X147017224Y-105422500D01*
%TO.C,R8*%
X151422500Y-108045276D02*
X151422500Y-108554724D01*
X150377500Y-108045276D02*
X150377500Y-108554724D01*
%TO.C,R26*%
X143107776Y-104377500D02*
X143617224Y-104377500D01*
X143107776Y-105422500D02*
X143617224Y-105422500D01*
%TO.C,R10*%
X147227500Y-110954724D02*
X147227500Y-110445276D01*
X148272500Y-110954724D02*
X148272500Y-110445276D01*
%TO.C,J6*%
X158150000Y-107565000D02*
X157510000Y-107565000D01*
X157510000Y-107565000D02*
X157510000Y-108195000D01*
X158100000Y-104845000D02*
X155400000Y-104845000D01*
X155350000Y-107565000D02*
X155990000Y-107565000D01*
%TO.C,J4*%
X138640000Y-98535000D02*
X138640000Y-97905000D01*
X138050000Y-101255000D02*
X140750000Y-101255000D01*
X140800000Y-98535000D02*
X140160000Y-98535000D01*
X138000000Y-98535000D02*
X138640000Y-98535000D01*
%TO.C,U1*%
X132800000Y-106110000D02*
X130850000Y-106110000D01*
X132800000Y-100990000D02*
X136250000Y-100990000D01*
X132800000Y-100990000D02*
X130850000Y-100990000D01*
X132800000Y-106110000D02*
X134750000Y-106110000D01*
%TD*%
M02*
