%TF.GenerationSoftware,KiCad,Pcbnew,5.1.7-a382d34a8~87~ubuntu20.04.1*%
%TF.CreationDate,2021-02-03T18:06:15+00:00*%
%TF.ProjectId,UFOControlDeck,55464f43-6f6e-4747-926f-6c4465636b2e,rev?*%
%TF.SameCoordinates,Original*%
%TF.FileFunction,Soldermask,Top*%
%TF.FilePolarity,Negative*%
%FSLAX46Y46*%
G04 Gerber Fmt 4.6, Leading zero omitted, Abs format (unit mm)*
G04 Created by KiCad (PCBNEW 5.1.7-a382d34a8~87~ubuntu20.04.1) date 2021-02-03 18:06:15*
%MOMM*%
%LPD*%
G01*
G04 APERTURE LIST*
%ADD10C,0.152400*%
%ADD11C,0.499999*%
%ADD12R,0.399999X0.800001*%
%ADD13R,0.960001X4.600001*%
%ADD14R,0.800001X0.399999*%
%ADD15R,1.100000X0.499999*%
%ADD16R,1.599999X2.350000*%
%ADD17R,1.200000X3.900000*%
%ADD18R,2.400000X0.740000*%
%ADD19R,0.500000X1.100000*%
%ADD20R,2.000000X2.000000*%
%ADD21O,1.000000X1.000000*%
%ADD22R,1.000000X1.000000*%
%ADD23O,1.700000X1.700000*%
%ADD24R,1.700000X1.700000*%
%ADD25R,1.060000X0.650000*%
%ADD26R,0.850000X0.650000*%
%ADD27C,0.500000*%
G04 APERTURE END LIST*
D10*
%TO.C,U8*%
X127000000Y-108625001D02*
X127300000Y-108625001D01*
X127300000Y-108625001D02*
X127309753Y-108625961D01*
X127309753Y-108625961D02*
X127319134Y-108628806D01*
X127319134Y-108628806D02*
X127327777Y-108633426D01*
X127327777Y-108633426D02*
X127335354Y-108639644D01*
X127335354Y-108639644D02*
X127341572Y-108647221D01*
X127341572Y-108647221D02*
X127346195Y-108655864D01*
X127346195Y-108655864D02*
X127349039Y-108665245D01*
X127349039Y-108665245D02*
X127350000Y-108675001D01*
X127350000Y-108675001D02*
X127350000Y-109575001D01*
X127350000Y-109575001D02*
X127349039Y-109584755D01*
X127349039Y-109584755D02*
X127346195Y-109594135D01*
X127346195Y-109594135D02*
X127341572Y-109602779D01*
X127341572Y-109602779D02*
X127335354Y-109610356D01*
X127335354Y-109610356D02*
X127327777Y-109616574D01*
X127327777Y-109616574D02*
X127319134Y-109621194D01*
X127319134Y-109621194D02*
X127309753Y-109624039D01*
X127309753Y-109624039D02*
X127300000Y-109625001D01*
X127300000Y-109625001D02*
X127000000Y-109625001D01*
X127000000Y-109625001D02*
X126990247Y-109624039D01*
X126990247Y-109624039D02*
X126980866Y-109621194D01*
X126980866Y-109621194D02*
X126972223Y-109616574D01*
X126972223Y-109616574D02*
X126964646Y-109610356D01*
X126964646Y-109610356D02*
X126958428Y-109602779D01*
X126958428Y-109602779D02*
X126953805Y-109594135D01*
X126953805Y-109594135D02*
X126950961Y-109584755D01*
X126950961Y-109584755D02*
X126950000Y-109575001D01*
X126950000Y-109575001D02*
X126950000Y-108675001D01*
X126950000Y-108675001D02*
X126950961Y-108665245D01*
X126950961Y-108665245D02*
X126953805Y-108655864D01*
X126953805Y-108655864D02*
X126958428Y-108647221D01*
X126958428Y-108647221D02*
X126964646Y-108639644D01*
X126964646Y-108639644D02*
X126972223Y-108633426D01*
X126972223Y-108633426D02*
X126980866Y-108628806D01*
X126980866Y-108628806D02*
X126990247Y-108625961D01*
X126990247Y-108625961D02*
X127000000Y-108625001D01*
X124999999Y-110875001D02*
X126399999Y-110875001D01*
X126399999Y-110875001D02*
X126449999Y-110925001D01*
X126449999Y-110925001D02*
X126449999Y-113075002D01*
X126449999Y-113075002D02*
X126399999Y-113125002D01*
X126399999Y-113125002D02*
X124999999Y-113125002D01*
X124999999Y-113125002D02*
X124949999Y-113075002D01*
X124949999Y-113075002D02*
X124949999Y-112875002D01*
X124949999Y-112875002D02*
X124999999Y-112825003D01*
X124999999Y-112825003D02*
X125275000Y-112825003D01*
X125275000Y-112825003D02*
X125325000Y-112775003D01*
X125325000Y-112775003D02*
X125325000Y-112525003D01*
X125325000Y-112525003D02*
X125275000Y-112475003D01*
X125275000Y-112475003D02*
X124999999Y-112475003D01*
X124999999Y-112475003D02*
X124949999Y-112425003D01*
X124949999Y-112425003D02*
X124949999Y-112225001D01*
X124949999Y-112225001D02*
X124999999Y-112175001D01*
X124999999Y-112175001D02*
X125275000Y-112175001D01*
X125275000Y-112175001D02*
X125325000Y-112125001D01*
X125325000Y-112125001D02*
X125325000Y-111875002D01*
X125325000Y-111875002D02*
X125275000Y-111825002D01*
X125275000Y-111825002D02*
X124999997Y-111825002D01*
X124999997Y-111825002D02*
X124949999Y-111775002D01*
X124949999Y-111775002D02*
X124949999Y-111575003D01*
X124949999Y-111575003D02*
X125000002Y-111525003D01*
X125000002Y-111525003D02*
X125275000Y-111525003D01*
X125275000Y-111525003D02*
X125325000Y-111475003D01*
X125325000Y-111475003D02*
X125325000Y-111225003D01*
X125325000Y-111225003D02*
X125275000Y-111174998D01*
X125275000Y-111174998D02*
X124999999Y-111175003D01*
X124999999Y-111175003D02*
X124949999Y-111125003D01*
X124949999Y-111125003D02*
X124949999Y-110925001D01*
X124949999Y-110925001D02*
X124999999Y-110875001D01*
X129300001Y-110875001D02*
X127900001Y-110875001D01*
X127900001Y-110875001D02*
X127850001Y-110925001D01*
X127850001Y-110925001D02*
X127850001Y-113075002D01*
X127850001Y-113075002D02*
X127900001Y-113125002D01*
X127900001Y-113125002D02*
X129300001Y-113125002D01*
X129300001Y-113125002D02*
X129350001Y-113075002D01*
X129350001Y-113075002D02*
X129350001Y-112875002D01*
X129350001Y-112875002D02*
X129300001Y-112825003D01*
X129300001Y-112825003D02*
X129025000Y-112825003D01*
X129025000Y-112825003D02*
X128975000Y-112775003D01*
X128975000Y-112775003D02*
X128975000Y-112525003D01*
X128975000Y-112525003D02*
X129025000Y-112475003D01*
X129025000Y-112475003D02*
X129300001Y-112475003D01*
X129300001Y-112475003D02*
X129350001Y-112425003D01*
X129350001Y-112425003D02*
X129350001Y-112225001D01*
X129350001Y-112225001D02*
X129300001Y-112175001D01*
X129300001Y-112175001D02*
X129025000Y-112175001D01*
X129025000Y-112175001D02*
X128975000Y-112125001D01*
X128975000Y-112125001D02*
X128975000Y-111875002D01*
X128975000Y-111875002D02*
X129025000Y-111825002D01*
X129025000Y-111825002D02*
X129300003Y-111825002D01*
X129300003Y-111825002D02*
X129350001Y-111775002D01*
X129350001Y-111775002D02*
X129350001Y-111575003D01*
X129350001Y-111575003D02*
X129299998Y-111525003D01*
X129299998Y-111525003D02*
X129025000Y-111525003D01*
X129025000Y-111525003D02*
X128975000Y-111475003D01*
X128975000Y-111475003D02*
X128975000Y-111225003D01*
X128975000Y-111225003D02*
X129025000Y-111174998D01*
X129025000Y-111174998D02*
X129300001Y-111175003D01*
X129300001Y-111175003D02*
X129350001Y-111125003D01*
X129350001Y-111125003D02*
X129350001Y-110925001D01*
X129350001Y-110925001D02*
X129300001Y-110875001D01*
%TO.C,U7*%
X119500000Y-117374999D02*
X119200000Y-117374999D01*
X119200000Y-117374999D02*
X119190247Y-117374039D01*
X119190247Y-117374039D02*
X119180866Y-117371194D01*
X119180866Y-117371194D02*
X119172223Y-117366574D01*
X119172223Y-117366574D02*
X119164646Y-117360356D01*
X119164646Y-117360356D02*
X119158428Y-117352779D01*
X119158428Y-117352779D02*
X119153805Y-117344136D01*
X119153805Y-117344136D02*
X119150961Y-117334755D01*
X119150961Y-117334755D02*
X119150000Y-117324999D01*
X119150000Y-117324999D02*
X119150000Y-116424999D01*
X119150000Y-116424999D02*
X119150961Y-116415245D01*
X119150961Y-116415245D02*
X119153805Y-116405865D01*
X119153805Y-116405865D02*
X119158428Y-116397221D01*
X119158428Y-116397221D02*
X119164646Y-116389644D01*
X119164646Y-116389644D02*
X119172223Y-116383426D01*
X119172223Y-116383426D02*
X119180866Y-116378806D01*
X119180866Y-116378806D02*
X119190247Y-116375961D01*
X119190247Y-116375961D02*
X119200000Y-116374999D01*
X119200000Y-116374999D02*
X119500000Y-116374999D01*
X119500000Y-116374999D02*
X119509753Y-116375961D01*
X119509753Y-116375961D02*
X119519134Y-116378806D01*
X119519134Y-116378806D02*
X119527777Y-116383426D01*
X119527777Y-116383426D02*
X119535354Y-116389644D01*
X119535354Y-116389644D02*
X119541572Y-116397221D01*
X119541572Y-116397221D02*
X119546195Y-116405865D01*
X119546195Y-116405865D02*
X119549039Y-116415245D01*
X119549039Y-116415245D02*
X119550000Y-116424999D01*
X119550000Y-116424999D02*
X119550000Y-117324999D01*
X119550000Y-117324999D02*
X119549039Y-117334755D01*
X119549039Y-117334755D02*
X119546195Y-117344136D01*
X119546195Y-117344136D02*
X119541572Y-117352779D01*
X119541572Y-117352779D02*
X119535354Y-117360356D01*
X119535354Y-117360356D02*
X119527777Y-117366574D01*
X119527777Y-117366574D02*
X119519134Y-117371194D01*
X119519134Y-117371194D02*
X119509753Y-117374039D01*
X119509753Y-117374039D02*
X119500000Y-117374999D01*
X121500001Y-115124999D02*
X120100001Y-115124999D01*
X120100001Y-115124999D02*
X120050001Y-115074999D01*
X120050001Y-115074999D02*
X120050001Y-112924998D01*
X120050001Y-112924998D02*
X120100001Y-112874998D01*
X120100001Y-112874998D02*
X121500001Y-112874998D01*
X121500001Y-112874998D02*
X121550001Y-112924998D01*
X121550001Y-112924998D02*
X121550001Y-113124998D01*
X121550001Y-113124998D02*
X121500001Y-113174997D01*
X121500001Y-113174997D02*
X121225000Y-113174997D01*
X121225000Y-113174997D02*
X121175000Y-113224997D01*
X121175000Y-113224997D02*
X121175000Y-113474997D01*
X121175000Y-113474997D02*
X121225000Y-113524997D01*
X121225000Y-113524997D02*
X121500001Y-113524997D01*
X121500001Y-113524997D02*
X121550001Y-113574997D01*
X121550001Y-113574997D02*
X121550001Y-113774999D01*
X121550001Y-113774999D02*
X121500001Y-113824999D01*
X121500001Y-113824999D02*
X121225000Y-113824999D01*
X121225000Y-113824999D02*
X121175000Y-113874999D01*
X121175000Y-113874999D02*
X121175000Y-114124998D01*
X121175000Y-114124998D02*
X121225000Y-114174998D01*
X121225000Y-114174998D02*
X121500003Y-114174998D01*
X121500003Y-114174998D02*
X121550001Y-114224998D01*
X121550001Y-114224998D02*
X121550001Y-114424997D01*
X121550001Y-114424997D02*
X121499998Y-114474997D01*
X121499998Y-114474997D02*
X121225000Y-114474997D01*
X121225000Y-114474997D02*
X121175000Y-114524997D01*
X121175000Y-114524997D02*
X121175000Y-114774997D01*
X121175000Y-114774997D02*
X121225000Y-114825002D01*
X121225000Y-114825002D02*
X121500001Y-114824997D01*
X121500001Y-114824997D02*
X121550001Y-114874997D01*
X121550001Y-114874997D02*
X121550001Y-115074999D01*
X121550001Y-115074999D02*
X121500001Y-115124999D01*
X117199999Y-115124999D02*
X118599999Y-115124999D01*
X118599999Y-115124999D02*
X118649999Y-115074999D01*
X118649999Y-115074999D02*
X118649999Y-112924998D01*
X118649999Y-112924998D02*
X118599999Y-112874998D01*
X118599999Y-112874998D02*
X117199999Y-112874998D01*
X117199999Y-112874998D02*
X117149999Y-112924998D01*
X117149999Y-112924998D02*
X117149999Y-113124998D01*
X117149999Y-113124998D02*
X117199999Y-113174997D01*
X117199999Y-113174997D02*
X117475000Y-113174997D01*
X117475000Y-113174997D02*
X117525000Y-113224997D01*
X117525000Y-113224997D02*
X117525000Y-113474997D01*
X117525000Y-113474997D02*
X117475000Y-113524997D01*
X117475000Y-113524997D02*
X117199999Y-113524997D01*
X117199999Y-113524997D02*
X117149999Y-113574997D01*
X117149999Y-113574997D02*
X117149999Y-113774999D01*
X117149999Y-113774999D02*
X117199999Y-113824999D01*
X117199999Y-113824999D02*
X117475000Y-113824999D01*
X117475000Y-113824999D02*
X117525000Y-113874999D01*
X117525000Y-113874999D02*
X117525000Y-114124998D01*
X117525000Y-114124998D02*
X117475000Y-114174998D01*
X117475000Y-114174998D02*
X117199997Y-114174998D01*
X117199997Y-114174998D02*
X117149999Y-114224998D01*
X117149999Y-114224998D02*
X117149999Y-114424997D01*
X117149999Y-114424997D02*
X117200002Y-114474997D01*
X117200002Y-114474997D02*
X117475000Y-114474997D01*
X117475000Y-114474997D02*
X117525000Y-114524997D01*
X117525000Y-114524997D02*
X117525000Y-114774997D01*
X117525000Y-114774997D02*
X117475000Y-114825002D01*
X117475000Y-114825002D02*
X117199999Y-114824997D01*
X117199999Y-114824997D02*
X117149999Y-114874997D01*
X117149999Y-114874997D02*
X117149999Y-115074999D01*
X117149999Y-115074999D02*
X117199999Y-115124999D01*
%TO.C,U1*%
X123900000Y-119300000D02*
X124200000Y-119300000D01*
X124200000Y-119300000D02*
X124209753Y-119300960D01*
X124209753Y-119300960D02*
X124219134Y-119303805D01*
X124219134Y-119303805D02*
X124227777Y-119308425D01*
X124227777Y-119308425D02*
X124235354Y-119314643D01*
X124235354Y-119314643D02*
X124241572Y-119322220D01*
X124241572Y-119322220D02*
X124246195Y-119330863D01*
X124246195Y-119330863D02*
X124249039Y-119340244D01*
X124249039Y-119340244D02*
X124250000Y-119350000D01*
X124250000Y-119350000D02*
X124250000Y-120250000D01*
X124250000Y-120250000D02*
X124249039Y-120259754D01*
X124249039Y-120259754D02*
X124246195Y-120269134D01*
X124246195Y-120269134D02*
X124241572Y-120277778D01*
X124241572Y-120277778D02*
X124235354Y-120285355D01*
X124235354Y-120285355D02*
X124227777Y-120291573D01*
X124227777Y-120291573D02*
X124219134Y-120296193D01*
X124219134Y-120296193D02*
X124209753Y-120299038D01*
X124209753Y-120299038D02*
X124200000Y-120300000D01*
X124200000Y-120300000D02*
X123900000Y-120300000D01*
X123900000Y-120300000D02*
X123890247Y-120299038D01*
X123890247Y-120299038D02*
X123880866Y-120296193D01*
X123880866Y-120296193D02*
X123872223Y-120291573D01*
X123872223Y-120291573D02*
X123864646Y-120285355D01*
X123864646Y-120285355D02*
X123858428Y-120277778D01*
X123858428Y-120277778D02*
X123853805Y-120269134D01*
X123853805Y-120269134D02*
X123850961Y-120259754D01*
X123850961Y-120259754D02*
X123850000Y-120250000D01*
X123850000Y-120250000D02*
X123850000Y-119350000D01*
X123850000Y-119350000D02*
X123850961Y-119340244D01*
X123850961Y-119340244D02*
X123853805Y-119330863D01*
X123853805Y-119330863D02*
X123858428Y-119322220D01*
X123858428Y-119322220D02*
X123864646Y-119314643D01*
X123864646Y-119314643D02*
X123872223Y-119308425D01*
X123872223Y-119308425D02*
X123880866Y-119303805D01*
X123880866Y-119303805D02*
X123890247Y-119300960D01*
X123890247Y-119300960D02*
X123900000Y-119300000D01*
X121899999Y-121550000D02*
X123299999Y-121550000D01*
X123299999Y-121550000D02*
X123349999Y-121600000D01*
X123349999Y-121600000D02*
X123349999Y-123750001D01*
X123349999Y-123750001D02*
X123299999Y-123800001D01*
X123299999Y-123800001D02*
X121899999Y-123800001D01*
X121899999Y-123800001D02*
X121849999Y-123750001D01*
X121849999Y-123750001D02*
X121849999Y-123550001D01*
X121849999Y-123550001D02*
X121899999Y-123500002D01*
X121899999Y-123500002D02*
X122175000Y-123500002D01*
X122175000Y-123500002D02*
X122225000Y-123450002D01*
X122225000Y-123450002D02*
X122225000Y-123200002D01*
X122225000Y-123200002D02*
X122175000Y-123150002D01*
X122175000Y-123150002D02*
X121899999Y-123150002D01*
X121899999Y-123150002D02*
X121849999Y-123100002D01*
X121849999Y-123100002D02*
X121849999Y-122900000D01*
X121849999Y-122900000D02*
X121899999Y-122850000D01*
X121899999Y-122850000D02*
X122175000Y-122850000D01*
X122175000Y-122850000D02*
X122225000Y-122800000D01*
X122225000Y-122800000D02*
X122225000Y-122550001D01*
X122225000Y-122550001D02*
X122175000Y-122500001D01*
X122175000Y-122500001D02*
X121899997Y-122500001D01*
X121899997Y-122500001D02*
X121849999Y-122450001D01*
X121849999Y-122450001D02*
X121849999Y-122250002D01*
X121849999Y-122250002D02*
X121900002Y-122200002D01*
X121900002Y-122200002D02*
X122175000Y-122200002D01*
X122175000Y-122200002D02*
X122225000Y-122150002D01*
X122225000Y-122150002D02*
X122225000Y-121900002D01*
X122225000Y-121900002D02*
X122175000Y-121849997D01*
X122175000Y-121849997D02*
X121899999Y-121850002D01*
X121899999Y-121850002D02*
X121849999Y-121800002D01*
X121849999Y-121800002D02*
X121849999Y-121600000D01*
X121849999Y-121600000D02*
X121899999Y-121550000D01*
X126200001Y-121550000D02*
X124800001Y-121550000D01*
X124800001Y-121550000D02*
X124750001Y-121600000D01*
X124750001Y-121600000D02*
X124750001Y-123750001D01*
X124750001Y-123750001D02*
X124800001Y-123800001D01*
X124800001Y-123800001D02*
X126200001Y-123800001D01*
X126200001Y-123800001D02*
X126250001Y-123750001D01*
X126250001Y-123750001D02*
X126250001Y-123550001D01*
X126250001Y-123550001D02*
X126200001Y-123500002D01*
X126200001Y-123500002D02*
X125925000Y-123500002D01*
X125925000Y-123500002D02*
X125875000Y-123450002D01*
X125875000Y-123450002D02*
X125875000Y-123200002D01*
X125875000Y-123200002D02*
X125925000Y-123150002D01*
X125925000Y-123150002D02*
X126200001Y-123150002D01*
X126200001Y-123150002D02*
X126250001Y-123100002D01*
X126250001Y-123100002D02*
X126250001Y-122900000D01*
X126250001Y-122900000D02*
X126200001Y-122850000D01*
X126200001Y-122850000D02*
X125925000Y-122850000D01*
X125925000Y-122850000D02*
X125875000Y-122800000D01*
X125875000Y-122800000D02*
X125875000Y-122550001D01*
X125875000Y-122550001D02*
X125925000Y-122500001D01*
X125925000Y-122500001D02*
X126200003Y-122500001D01*
X126200003Y-122500001D02*
X126250001Y-122450001D01*
X126250001Y-122450001D02*
X126250001Y-122250002D01*
X126250001Y-122250002D02*
X126199998Y-122200002D01*
X126199998Y-122200002D02*
X125925000Y-122200002D01*
X125925000Y-122200002D02*
X125875000Y-122150002D01*
X125875000Y-122150002D02*
X125875000Y-121900002D01*
X125875000Y-121900002D02*
X125925000Y-121849997D01*
X125925000Y-121849997D02*
X126200001Y-121850002D01*
X126200001Y-121850002D02*
X126250001Y-121800002D01*
X126250001Y-121800002D02*
X126250001Y-121600000D01*
X126250001Y-121600000D02*
X126200001Y-121550000D01*
%TD*%
%TO.C,C48*%
G36*
G01*
X143275000Y-96362500D02*
X143275000Y-96837500D01*
G75*
G02*
X143037500Y-97075000I-237500J0D01*
G01*
X142437500Y-97075000D01*
G75*
G02*
X142200000Y-96837500I0J237500D01*
G01*
X142200000Y-96362500D01*
G75*
G02*
X142437500Y-96125000I237500J0D01*
G01*
X143037500Y-96125000D01*
G75*
G02*
X143275000Y-96362500I0J-237500D01*
G01*
G37*
G36*
G01*
X145000000Y-96362500D02*
X145000000Y-96837500D01*
G75*
G02*
X144762500Y-97075000I-237500J0D01*
G01*
X144162500Y-97075000D01*
G75*
G02*
X143925000Y-96837500I0J237500D01*
G01*
X143925000Y-96362500D01*
G75*
G02*
X144162500Y-96125000I237500J0D01*
G01*
X144762500Y-96125000D01*
G75*
G02*
X145000000Y-96362500I0J-237500D01*
G01*
G37*
%TD*%
%TO.C,R31*%
G36*
G01*
X154287500Y-105362500D02*
X154287500Y-105837500D01*
G75*
G02*
X154050000Y-106075000I-237500J0D01*
G01*
X153550000Y-106075000D01*
G75*
G02*
X153312500Y-105837500I0J237500D01*
G01*
X153312500Y-105362500D01*
G75*
G02*
X153550000Y-105125000I237500J0D01*
G01*
X154050000Y-105125000D01*
G75*
G02*
X154287500Y-105362500I0J-237500D01*
G01*
G37*
G36*
G01*
X156112500Y-105362500D02*
X156112500Y-105837500D01*
G75*
G02*
X155875000Y-106075000I-237500J0D01*
G01*
X155375000Y-106075000D01*
G75*
G02*
X155137500Y-105837500I0J237500D01*
G01*
X155137500Y-105362500D01*
G75*
G02*
X155375000Y-105125000I237500J0D01*
G01*
X155875000Y-105125000D01*
G75*
G02*
X156112500Y-105362500I0J-237500D01*
G01*
G37*
%TD*%
%TO.C,C47*%
G36*
G01*
X144087501Y-132537500D02*
X144087501Y-132062500D01*
G75*
G02*
X144325001Y-131825000I237500J0D01*
G01*
X144925001Y-131825000D01*
G75*
G02*
X145162501Y-132062500I0J-237500D01*
G01*
X145162501Y-132537500D01*
G75*
G02*
X144925001Y-132775000I-237500J0D01*
G01*
X144325001Y-132775000D01*
G75*
G02*
X144087501Y-132537500I0J237500D01*
G01*
G37*
G36*
G01*
X142362501Y-132537500D02*
X142362501Y-132062500D01*
G75*
G02*
X142600001Y-131825000I237500J0D01*
G01*
X143200001Y-131825000D01*
G75*
G02*
X143437501Y-132062500I0J-237500D01*
G01*
X143437501Y-132537500D01*
G75*
G02*
X143200001Y-132775000I-237500J0D01*
G01*
X142600001Y-132775000D01*
G75*
G02*
X142362501Y-132537500I0J237500D01*
G01*
G37*
%TD*%
D11*
%TO.C,U8*%
X125990000Y-111595000D03*
X125169999Y-112649999D03*
X125169999Y-111350002D03*
X125450001Y-110025001D03*
X127150000Y-108845000D03*
X127150000Y-109845001D03*
X127150000Y-112845000D03*
X127150000Y-111845002D03*
X127150000Y-110845001D03*
X125990000Y-112405001D03*
X125169999Y-112000000D03*
D12*
X126299999Y-108975000D03*
D13*
X127150000Y-110875001D03*
D12*
X128000001Y-108975000D03*
D14*
X129000001Y-109175002D03*
D15*
X128850002Y-110025001D03*
D16*
X128600000Y-112000000D03*
X125700000Y-112000000D03*
D15*
X125450001Y-110025001D03*
D14*
X125300001Y-109175000D03*
%TD*%
D11*
%TO.C,U7*%
X120510000Y-114405000D03*
X121330001Y-113350001D03*
X121330001Y-114649998D03*
X121049999Y-115974999D03*
X119350000Y-117155000D03*
X119350000Y-116154999D03*
X119350000Y-113155000D03*
X119350000Y-114154998D03*
X119350000Y-115154999D03*
X120510000Y-113594999D03*
X121330001Y-114000000D03*
D12*
X120200001Y-117025000D03*
D13*
X119350000Y-115124999D03*
D12*
X118499999Y-117025000D03*
D14*
X117499999Y-116824998D03*
D15*
X117649998Y-115974999D03*
D16*
X117900000Y-114000000D03*
X120800000Y-114000000D03*
D15*
X121049999Y-115974999D03*
D14*
X121199999Y-116825000D03*
%TD*%
D11*
%TO.C,U1*%
X122890000Y-122269999D03*
X122069999Y-123324998D03*
X122069999Y-122025001D03*
X122350001Y-120700000D03*
X124050000Y-119519999D03*
X124050000Y-120520000D03*
X124050000Y-123519999D03*
X124050000Y-122520001D03*
X124050000Y-121520000D03*
X122890000Y-123080000D03*
X122069999Y-122674999D03*
D12*
X123199999Y-119649999D03*
D13*
X124050000Y-121550000D03*
D12*
X124900001Y-119649999D03*
D14*
X125900001Y-119850001D03*
D15*
X125750002Y-120700000D03*
D16*
X125500000Y-122674999D03*
X122600000Y-122674999D03*
D15*
X122350001Y-120700000D03*
D14*
X122200001Y-119849999D03*
%TD*%
%TO.C,R9*%
G36*
G01*
X155112500Y-107337500D02*
X155112500Y-106862500D01*
G75*
G02*
X155350000Y-106625000I237500J0D01*
G01*
X155850000Y-106625000D01*
G75*
G02*
X156087500Y-106862500I0J-237500D01*
G01*
X156087500Y-107337500D01*
G75*
G02*
X155850000Y-107575000I-237500J0D01*
G01*
X155350000Y-107575000D01*
G75*
G02*
X155112500Y-107337500I0J237500D01*
G01*
G37*
G36*
G01*
X153287500Y-107337500D02*
X153287500Y-106862500D01*
G75*
G02*
X153525000Y-106625000I237500J0D01*
G01*
X154025000Y-106625000D01*
G75*
G02*
X154262500Y-106862500I0J-237500D01*
G01*
X154262500Y-107337500D01*
G75*
G02*
X154025000Y-107575000I-237500J0D01*
G01*
X153525000Y-107575000D01*
G75*
G02*
X153287500Y-107337500I0J237500D01*
G01*
G37*
%TD*%
%TO.C,R8*%
G36*
G01*
X150962500Y-105362500D02*
X150962500Y-105837500D01*
G75*
G02*
X150725000Y-106075000I-237500J0D01*
G01*
X150225000Y-106075000D01*
G75*
G02*
X149987500Y-105837500I0J237500D01*
G01*
X149987500Y-105362500D01*
G75*
G02*
X150225000Y-105125000I237500J0D01*
G01*
X150725000Y-105125000D01*
G75*
G02*
X150962500Y-105362500I0J-237500D01*
G01*
G37*
G36*
G01*
X152787500Y-105362500D02*
X152787500Y-105837500D01*
G75*
G02*
X152550000Y-106075000I-237500J0D01*
G01*
X152050000Y-106075000D01*
G75*
G02*
X151812500Y-105837500I0J237500D01*
G01*
X151812500Y-105362500D01*
G75*
G02*
X152050000Y-105125000I237500J0D01*
G01*
X152550000Y-105125000D01*
G75*
G02*
X152787500Y-105362500I0J-237500D01*
G01*
G37*
%TD*%
%TO.C,R7*%
G36*
G01*
X148412500Y-105837500D02*
X148412500Y-105362500D01*
G75*
G02*
X148650000Y-105125000I237500J0D01*
G01*
X149150000Y-105125000D01*
G75*
G02*
X149387500Y-105362500I0J-237500D01*
G01*
X149387500Y-105837500D01*
G75*
G02*
X149150000Y-106075000I-237500J0D01*
G01*
X148650000Y-106075000D01*
G75*
G02*
X148412500Y-105837500I0J237500D01*
G01*
G37*
G36*
G01*
X146587500Y-105837500D02*
X146587500Y-105362500D01*
G75*
G02*
X146825000Y-105125000I237500J0D01*
G01*
X147325000Y-105125000D01*
G75*
G02*
X147562500Y-105362500I0J-237500D01*
G01*
X147562500Y-105837500D01*
G75*
G02*
X147325000Y-106075000I-237500J0D01*
G01*
X146825000Y-106075000D01*
G75*
G02*
X146587500Y-105837500I0J237500D01*
G01*
G37*
%TD*%
%TO.C,D1*%
G36*
G01*
X157675000Y-106862500D02*
X157675000Y-107337500D01*
G75*
G02*
X157437500Y-107575000I-237500J0D01*
G01*
X156862500Y-107575000D01*
G75*
G02*
X156625000Y-107337500I0J237500D01*
G01*
X156625000Y-106862500D01*
G75*
G02*
X156862500Y-106625000I237500J0D01*
G01*
X157437500Y-106625000D01*
G75*
G02*
X157675000Y-106862500I0J-237500D01*
G01*
G37*
G36*
G01*
X159425000Y-106862500D02*
X159425000Y-107337500D01*
G75*
G02*
X159187500Y-107575000I-237500J0D01*
G01*
X158612500Y-107575000D01*
G75*
G02*
X158375000Y-107337500I0J237500D01*
G01*
X158375000Y-106862500D01*
G75*
G02*
X158612500Y-106625000I237500J0D01*
G01*
X159187500Y-106625000D01*
G75*
G02*
X159425000Y-106862500I0J-237500D01*
G01*
G37*
%TD*%
%TO.C,C45*%
G36*
G01*
X151687500Y-107337500D02*
X151687500Y-106862500D01*
G75*
G02*
X151925000Y-106625000I237500J0D01*
G01*
X152525000Y-106625000D01*
G75*
G02*
X152762500Y-106862500I0J-237500D01*
G01*
X152762500Y-107337500D01*
G75*
G02*
X152525000Y-107575000I-237500J0D01*
G01*
X151925000Y-107575000D01*
G75*
G02*
X151687500Y-107337500I0J237500D01*
G01*
G37*
G36*
G01*
X149962500Y-107337500D02*
X149962500Y-106862500D01*
G75*
G02*
X150200000Y-106625000I237500J0D01*
G01*
X150800000Y-106625000D01*
G75*
G02*
X151037500Y-106862500I0J-237500D01*
G01*
X151037500Y-107337500D01*
G75*
G02*
X150800000Y-107575000I-237500J0D01*
G01*
X150200000Y-107575000D01*
G75*
G02*
X149962500Y-107337500I0J237500D01*
G01*
G37*
%TD*%
%TO.C,C44*%
G36*
G01*
X147637501Y-108362500D02*
X147637501Y-108837500D01*
G75*
G02*
X147400001Y-109075000I-237500J0D01*
G01*
X146800001Y-109075000D01*
G75*
G02*
X146562501Y-108837500I0J237500D01*
G01*
X146562501Y-108362500D01*
G75*
G02*
X146800001Y-108125000I237500J0D01*
G01*
X147400001Y-108125000D01*
G75*
G02*
X147637501Y-108362500I0J-237500D01*
G01*
G37*
G36*
G01*
X149362501Y-108362500D02*
X149362501Y-108837500D01*
G75*
G02*
X149125001Y-109075000I-237500J0D01*
G01*
X148525001Y-109075000D01*
G75*
G02*
X148287501Y-108837500I0J237500D01*
G01*
X148287501Y-108362500D01*
G75*
G02*
X148525001Y-108125000I237500J0D01*
G01*
X149125001Y-108125000D01*
G75*
G02*
X149362501Y-108362500I0J-237500D01*
G01*
G37*
%TD*%
%TO.C,C43*%
G36*
G01*
X151662500Y-108837500D02*
X151662500Y-108362500D01*
G75*
G02*
X151900000Y-108125000I237500J0D01*
G01*
X152500000Y-108125000D01*
G75*
G02*
X152737500Y-108362500I0J-237500D01*
G01*
X152737500Y-108837500D01*
G75*
G02*
X152500000Y-109075000I-237500J0D01*
G01*
X151900000Y-109075000D01*
G75*
G02*
X151662500Y-108837500I0J237500D01*
G01*
G37*
G36*
G01*
X149937500Y-108837500D02*
X149937500Y-108362500D01*
G75*
G02*
X150175000Y-108125000I237500J0D01*
G01*
X150775000Y-108125000D01*
G75*
G02*
X151012500Y-108362500I0J-237500D01*
G01*
X151012500Y-108837500D01*
G75*
G02*
X150775000Y-109075000I-237500J0D01*
G01*
X150175000Y-109075000D01*
G75*
G02*
X149937500Y-108837500I0J237500D01*
G01*
G37*
%TD*%
%TO.C,C42*%
G36*
G01*
X147637501Y-106862500D02*
X147637501Y-107337500D01*
G75*
G02*
X147400001Y-107575000I-237500J0D01*
G01*
X146800001Y-107575000D01*
G75*
G02*
X146562501Y-107337500I0J237500D01*
G01*
X146562501Y-106862500D01*
G75*
G02*
X146800001Y-106625000I237500J0D01*
G01*
X147400001Y-106625000D01*
G75*
G02*
X147637501Y-106862500I0J-237500D01*
G01*
G37*
G36*
G01*
X149362501Y-106862500D02*
X149362501Y-107337500D01*
G75*
G02*
X149125001Y-107575000I-237500J0D01*
G01*
X148525001Y-107575000D01*
G75*
G02*
X148287501Y-107337500I0J237500D01*
G01*
X148287501Y-106862500D01*
G75*
G02*
X148525001Y-106625000I237500J0D01*
G01*
X149125001Y-106625000D01*
G75*
G02*
X149362501Y-106862500I0J-237500D01*
G01*
G37*
%TD*%
D17*
%TO.C,L1*%
X130200000Y-97300000D03*
X133000000Y-97300000D03*
%TD*%
%TO.C,R6*%
G36*
G01*
X124437500Y-115362500D02*
X123962500Y-115362500D01*
G75*
G02*
X123725000Y-115125000I0J237500D01*
G01*
X123725000Y-114625000D01*
G75*
G02*
X123962500Y-114387500I237500J0D01*
G01*
X124437500Y-114387500D01*
G75*
G02*
X124675000Y-114625000I0J-237500D01*
G01*
X124675000Y-115125000D01*
G75*
G02*
X124437500Y-115362500I-237500J0D01*
G01*
G37*
G36*
G01*
X124437500Y-117187500D02*
X123962500Y-117187500D01*
G75*
G02*
X123725000Y-116950000I0J237500D01*
G01*
X123725000Y-116450000D01*
G75*
G02*
X123962500Y-116212500I237500J0D01*
G01*
X124437500Y-116212500D01*
G75*
G02*
X124675000Y-116450000I0J-237500D01*
G01*
X124675000Y-116950000D01*
G75*
G02*
X124437500Y-117187500I-237500J0D01*
G01*
G37*
%TD*%
%TO.C,R5*%
G36*
G01*
X122462500Y-116212500D02*
X122937500Y-116212500D01*
G75*
G02*
X123175000Y-116450000I0J-237500D01*
G01*
X123175000Y-116950000D01*
G75*
G02*
X122937500Y-117187500I-237500J0D01*
G01*
X122462500Y-117187500D01*
G75*
G02*
X122225000Y-116950000I0J237500D01*
G01*
X122225000Y-116450000D01*
G75*
G02*
X122462500Y-116212500I237500J0D01*
G01*
G37*
G36*
G01*
X122462500Y-114387500D02*
X122937500Y-114387500D01*
G75*
G02*
X123175000Y-114625000I0J-237500D01*
G01*
X123175000Y-115125000D01*
G75*
G02*
X122937500Y-115362500I-237500J0D01*
G01*
X122462500Y-115362500D01*
G75*
G02*
X122225000Y-115125000I0J237500D01*
G01*
X122225000Y-114625000D01*
G75*
G02*
X122462500Y-114387500I237500J0D01*
G01*
G37*
%TD*%
%TO.C,R4*%
G36*
G01*
X122062500Y-110637501D02*
X122537500Y-110637501D01*
G75*
G02*
X122775000Y-110875001I0J-237500D01*
G01*
X122775000Y-111375001D01*
G75*
G02*
X122537500Y-111612501I-237500J0D01*
G01*
X122062500Y-111612501D01*
G75*
G02*
X121825000Y-111375001I0J237500D01*
G01*
X121825000Y-110875001D01*
G75*
G02*
X122062500Y-110637501I237500J0D01*
G01*
G37*
G36*
G01*
X122062500Y-108812501D02*
X122537500Y-108812501D01*
G75*
G02*
X122775000Y-109050001I0J-237500D01*
G01*
X122775000Y-109550001D01*
G75*
G02*
X122537500Y-109787501I-237500J0D01*
G01*
X122062500Y-109787501D01*
G75*
G02*
X121825000Y-109550001I0J237500D01*
G01*
X121825000Y-109050001D01*
G75*
G02*
X122062500Y-108812501I237500J0D01*
G01*
G37*
%TD*%
%TO.C,R3*%
G36*
G01*
X124037500Y-109787500D02*
X123562500Y-109787500D01*
G75*
G02*
X123325000Y-109550000I0J237500D01*
G01*
X123325000Y-109050000D01*
G75*
G02*
X123562500Y-108812500I237500J0D01*
G01*
X124037500Y-108812500D01*
G75*
G02*
X124275000Y-109050000I0J-237500D01*
G01*
X124275000Y-109550000D01*
G75*
G02*
X124037500Y-109787500I-237500J0D01*
G01*
G37*
G36*
G01*
X124037500Y-111612500D02*
X123562500Y-111612500D01*
G75*
G02*
X123325000Y-111375000I0J237500D01*
G01*
X123325000Y-110875000D01*
G75*
G02*
X123562500Y-110637500I237500J0D01*
G01*
X124037500Y-110637500D01*
G75*
G02*
X124275000Y-110875000I0J-237500D01*
G01*
X124275000Y-111375000D01*
G75*
G02*
X124037500Y-111612500I-237500J0D01*
G01*
G37*
%TD*%
%TO.C,R2*%
G36*
G01*
X120462500Y-121337500D02*
X120937500Y-121337500D01*
G75*
G02*
X121175000Y-121575000I0J-237500D01*
G01*
X121175000Y-122075000D01*
G75*
G02*
X120937500Y-122312500I-237500J0D01*
G01*
X120462500Y-122312500D01*
G75*
G02*
X120225000Y-122075000I0J237500D01*
G01*
X120225000Y-121575000D01*
G75*
G02*
X120462500Y-121337500I237500J0D01*
G01*
G37*
G36*
G01*
X120462500Y-119512500D02*
X120937500Y-119512500D01*
G75*
G02*
X121175000Y-119750000I0J-237500D01*
G01*
X121175000Y-120250000D01*
G75*
G02*
X120937500Y-120487500I-237500J0D01*
G01*
X120462500Y-120487500D01*
G75*
G02*
X120225000Y-120250000I0J237500D01*
G01*
X120225000Y-119750000D01*
G75*
G02*
X120462500Y-119512500I237500J0D01*
G01*
G37*
%TD*%
%TO.C,R1*%
G36*
G01*
X119437500Y-120487500D02*
X118962500Y-120487500D01*
G75*
G02*
X118725000Y-120250000I0J237500D01*
G01*
X118725000Y-119750000D01*
G75*
G02*
X118962500Y-119512500I237500J0D01*
G01*
X119437500Y-119512500D01*
G75*
G02*
X119675000Y-119750000I0J-237500D01*
G01*
X119675000Y-120250000D01*
G75*
G02*
X119437500Y-120487500I-237500J0D01*
G01*
G37*
G36*
G01*
X119437500Y-122312500D02*
X118962500Y-122312500D01*
G75*
G02*
X118725000Y-122075000I0J237500D01*
G01*
X118725000Y-121575000D01*
G75*
G02*
X118962500Y-121337500I237500J0D01*
G01*
X119437500Y-121337500D01*
G75*
G02*
X119675000Y-121575000I0J-237500D01*
G01*
X119675000Y-122075000D01*
G75*
G02*
X119437500Y-122312500I-237500J0D01*
G01*
G37*
%TD*%
D18*
%TO.C,J2*%
X133350000Y-128705000D03*
X129450000Y-128705000D03*
X133350000Y-127435000D03*
X129450000Y-127435000D03*
X133350000Y-126165000D03*
X129450000Y-126165000D03*
X133350000Y-124895000D03*
X129450000Y-124895000D03*
%TD*%
%TO.C,R29*%
G36*
G01*
X134537500Y-131262500D02*
X134062500Y-131262500D01*
G75*
G02*
X133825000Y-131025000I0J237500D01*
G01*
X133825000Y-130525000D01*
G75*
G02*
X134062500Y-130287500I237500J0D01*
G01*
X134537500Y-130287500D01*
G75*
G02*
X134775000Y-130525000I0J-237500D01*
G01*
X134775000Y-131025000D01*
G75*
G02*
X134537500Y-131262500I-237500J0D01*
G01*
G37*
G36*
G01*
X134537500Y-133087500D02*
X134062500Y-133087500D01*
G75*
G02*
X133825000Y-132850000I0J237500D01*
G01*
X133825000Y-132350000D01*
G75*
G02*
X134062500Y-132112500I237500J0D01*
G01*
X134537500Y-132112500D01*
G75*
G02*
X134775000Y-132350000I0J-237500D01*
G01*
X134775000Y-132850000D01*
G75*
G02*
X134537500Y-133087500I-237500J0D01*
G01*
G37*
%TD*%
%TO.C,R30*%
G36*
G01*
X143937500Y-128562500D02*
X143462500Y-128562500D01*
G75*
G02*
X143225000Y-128325000I0J237500D01*
G01*
X143225000Y-127825000D01*
G75*
G02*
X143462500Y-127587500I237500J0D01*
G01*
X143937500Y-127587500D01*
G75*
G02*
X144175000Y-127825000I0J-237500D01*
G01*
X144175000Y-128325000D01*
G75*
G02*
X143937500Y-128562500I-237500J0D01*
G01*
G37*
G36*
G01*
X143937500Y-130387500D02*
X143462500Y-130387500D01*
G75*
G02*
X143225000Y-130150000I0J237500D01*
G01*
X143225000Y-129650000D01*
G75*
G02*
X143462500Y-129412500I237500J0D01*
G01*
X143937500Y-129412500D01*
G75*
G02*
X144175000Y-129650000I0J-237500D01*
G01*
X144175000Y-130150000D01*
G75*
G02*
X143937500Y-130387500I-237500J0D01*
G01*
G37*
%TD*%
%TO.C,R28*%
G36*
G01*
X132937500Y-131262500D02*
X132462500Y-131262500D01*
G75*
G02*
X132225000Y-131025000I0J237500D01*
G01*
X132225000Y-130525000D01*
G75*
G02*
X132462500Y-130287500I237500J0D01*
G01*
X132937500Y-130287500D01*
G75*
G02*
X133175000Y-130525000I0J-237500D01*
G01*
X133175000Y-131025000D01*
G75*
G02*
X132937500Y-131262500I-237500J0D01*
G01*
G37*
G36*
G01*
X132937500Y-133087500D02*
X132462500Y-133087500D01*
G75*
G02*
X132225000Y-132850000I0J237500D01*
G01*
X132225000Y-132350000D01*
G75*
G02*
X132462500Y-132112500I237500J0D01*
G01*
X132937500Y-132112500D01*
G75*
G02*
X133175000Y-132350000I0J-237500D01*
G01*
X133175000Y-132850000D01*
G75*
G02*
X132937500Y-133087500I-237500J0D01*
G01*
G37*
%TD*%
%TO.C,R27*%
G36*
G01*
X141962500Y-129437500D02*
X142437500Y-129437500D01*
G75*
G02*
X142675000Y-129675000I0J-237500D01*
G01*
X142675000Y-130175000D01*
G75*
G02*
X142437500Y-130412500I-237500J0D01*
G01*
X141962500Y-130412500D01*
G75*
G02*
X141725000Y-130175000I0J237500D01*
G01*
X141725000Y-129675000D01*
G75*
G02*
X141962500Y-129437500I237500J0D01*
G01*
G37*
G36*
G01*
X141962500Y-127612500D02*
X142437500Y-127612500D01*
G75*
G02*
X142675000Y-127850000I0J-237500D01*
G01*
X142675000Y-128350000D01*
G75*
G02*
X142437500Y-128587500I-237500J0D01*
G01*
X141962500Y-128587500D01*
G75*
G02*
X141725000Y-128350000I0J237500D01*
G01*
X141725000Y-127850000D01*
G75*
G02*
X141962500Y-127612500I237500J0D01*
G01*
G37*
%TD*%
%TO.C,R26*%
G36*
G01*
X143537500Y-125337500D02*
X143537500Y-124862500D01*
G75*
G02*
X143775000Y-124625000I237500J0D01*
G01*
X144275000Y-124625000D01*
G75*
G02*
X144512500Y-124862500I0J-237500D01*
G01*
X144512500Y-125337500D01*
G75*
G02*
X144275000Y-125575000I-237500J0D01*
G01*
X143775000Y-125575000D01*
G75*
G02*
X143537500Y-125337500I0J237500D01*
G01*
G37*
G36*
G01*
X141712500Y-125337500D02*
X141712500Y-124862500D01*
G75*
G02*
X141950000Y-124625000I237500J0D01*
G01*
X142450000Y-124625000D01*
G75*
G02*
X142687500Y-124862500I0J-237500D01*
G01*
X142687500Y-125337500D01*
G75*
G02*
X142450000Y-125575000I-237500J0D01*
G01*
X141950000Y-125575000D01*
G75*
G02*
X141712500Y-125337500I0J237500D01*
G01*
G37*
%TD*%
D19*
%TO.C,U6*%
X140505000Y-132100000D03*
X139235000Y-132100000D03*
X137965000Y-132100000D03*
X136695000Y-132100000D03*
X136695000Y-126300000D03*
X137965000Y-126300000D03*
X139235000Y-126300000D03*
X140505000Y-126300000D03*
D20*
X138600000Y-129200000D03*
%TD*%
%TO.C,R25*%
G36*
G01*
X143537500Y-126837500D02*
X143537500Y-126362500D01*
G75*
G02*
X143775000Y-126125000I237500J0D01*
G01*
X144275000Y-126125000D01*
G75*
G02*
X144512500Y-126362500I0J-237500D01*
G01*
X144512500Y-126837500D01*
G75*
G02*
X144275000Y-127075000I-237500J0D01*
G01*
X143775000Y-127075000D01*
G75*
G02*
X143537500Y-126837500I0J237500D01*
G01*
G37*
G36*
G01*
X141712500Y-126837500D02*
X141712500Y-126362500D01*
G75*
G02*
X141950000Y-126125000I237500J0D01*
G01*
X142450000Y-126125000D01*
G75*
G02*
X142687500Y-126362500I0J-237500D01*
G01*
X142687500Y-126837500D01*
G75*
G02*
X142450000Y-127075000I-237500J0D01*
G01*
X141950000Y-127075000D01*
G75*
G02*
X141712500Y-126837500I0J237500D01*
G01*
G37*
%TD*%
D21*
%TO.C,J10*%
X147970000Y-102400000D03*
D22*
X146700000Y-102400000D03*
%TD*%
D23*
%TO.C,J1*%
X139740000Y-94000000D03*
D24*
X137200000Y-94000000D03*
%TD*%
%TO.C,R24*%
G36*
G01*
X155112500Y-108837500D02*
X155112500Y-108362500D01*
G75*
G02*
X155350000Y-108125000I237500J0D01*
G01*
X155850000Y-108125000D01*
G75*
G02*
X156087500Y-108362500I0J-237500D01*
G01*
X156087500Y-108837500D01*
G75*
G02*
X155850000Y-109075000I-237500J0D01*
G01*
X155350000Y-109075000D01*
G75*
G02*
X155112500Y-108837500I0J237500D01*
G01*
G37*
G36*
G01*
X153287500Y-108837500D02*
X153287500Y-108362500D01*
G75*
G02*
X153525000Y-108125000I237500J0D01*
G01*
X154025000Y-108125000D01*
G75*
G02*
X154262500Y-108362500I0J-237500D01*
G01*
X154262500Y-108837500D01*
G75*
G02*
X154025000Y-109075000I-237500J0D01*
G01*
X153525000Y-109075000D01*
G75*
G02*
X153287500Y-108837500I0J237500D01*
G01*
G37*
%TD*%
%TO.C,D13*%
G36*
G01*
X157675001Y-108362500D02*
X157675001Y-108837500D01*
G75*
G02*
X157437501Y-109075000I-237500J0D01*
G01*
X156862501Y-109075000D01*
G75*
G02*
X156625001Y-108837500I0J237500D01*
G01*
X156625001Y-108362500D01*
G75*
G02*
X156862501Y-108125000I237500J0D01*
G01*
X157437501Y-108125000D01*
G75*
G02*
X157675001Y-108362500I0J-237500D01*
G01*
G37*
G36*
G01*
X159425001Y-108362500D02*
X159425001Y-108837500D01*
G75*
G02*
X159187501Y-109075000I-237500J0D01*
G01*
X158612501Y-109075000D01*
G75*
G02*
X158375001Y-108837500I0J237500D01*
G01*
X158375001Y-108362500D01*
G75*
G02*
X158612501Y-108125000I237500J0D01*
G01*
X159187501Y-108125000D01*
G75*
G02*
X159425001Y-108362500I0J-237500D01*
G01*
G37*
%TD*%
%TO.C,D12*%
G36*
G01*
X143962500Y-135875001D02*
X144437500Y-135875001D01*
G75*
G02*
X144675000Y-136112501I0J-237500D01*
G01*
X144675000Y-136687501D01*
G75*
G02*
X144437500Y-136925001I-237500J0D01*
G01*
X143962500Y-136925001D01*
G75*
G02*
X143725000Y-136687501I0J237500D01*
G01*
X143725000Y-136112501D01*
G75*
G02*
X143962500Y-135875001I237500J0D01*
G01*
G37*
G36*
G01*
X143962500Y-134125001D02*
X144437500Y-134125001D01*
G75*
G02*
X144675000Y-134362501I0J-237500D01*
G01*
X144675000Y-134937501D01*
G75*
G02*
X144437500Y-135175001I-237500J0D01*
G01*
X143962500Y-135175001D01*
G75*
G02*
X143725000Y-134937501I0J237500D01*
G01*
X143725000Y-134362501D01*
G75*
G02*
X143962500Y-134125001I237500J0D01*
G01*
G37*
%TD*%
%TO.C,D11*%
G36*
G01*
X142362500Y-135875000D02*
X142837500Y-135875000D01*
G75*
G02*
X143075000Y-136112500I0J-237500D01*
G01*
X143075000Y-136687500D01*
G75*
G02*
X142837500Y-136925000I-237500J0D01*
G01*
X142362500Y-136925000D01*
G75*
G02*
X142125000Y-136687500I0J237500D01*
G01*
X142125000Y-136112500D01*
G75*
G02*
X142362500Y-135875000I237500J0D01*
G01*
G37*
G36*
G01*
X142362500Y-134125000D02*
X142837500Y-134125000D01*
G75*
G02*
X143075000Y-134362500I0J-237500D01*
G01*
X143075000Y-134937500D01*
G75*
G02*
X142837500Y-135175000I-237500J0D01*
G01*
X142362500Y-135175000D01*
G75*
G02*
X142125000Y-134937500I0J237500D01*
G01*
X142125000Y-134362500D01*
G75*
G02*
X142362500Y-134125000I237500J0D01*
G01*
G37*
%TD*%
%TO.C,D10*%
G36*
G01*
X140762500Y-135875000D02*
X141237500Y-135875000D01*
G75*
G02*
X141475000Y-136112500I0J-237500D01*
G01*
X141475000Y-136687500D01*
G75*
G02*
X141237500Y-136925000I-237500J0D01*
G01*
X140762500Y-136925000D01*
G75*
G02*
X140525000Y-136687500I0J237500D01*
G01*
X140525000Y-136112500D01*
G75*
G02*
X140762500Y-135875000I237500J0D01*
G01*
G37*
G36*
G01*
X140762500Y-134125000D02*
X141237500Y-134125000D01*
G75*
G02*
X141475000Y-134362500I0J-237500D01*
G01*
X141475000Y-134937500D01*
G75*
G02*
X141237500Y-135175000I-237500J0D01*
G01*
X140762500Y-135175000D01*
G75*
G02*
X140525000Y-134937500I0J237500D01*
G01*
X140525000Y-134362500D01*
G75*
G02*
X140762500Y-134125000I237500J0D01*
G01*
G37*
%TD*%
%TO.C,D9*%
G36*
G01*
X139162500Y-135875000D02*
X139637500Y-135875000D01*
G75*
G02*
X139875000Y-136112500I0J-237500D01*
G01*
X139875000Y-136687500D01*
G75*
G02*
X139637500Y-136925000I-237500J0D01*
G01*
X139162500Y-136925000D01*
G75*
G02*
X138925000Y-136687500I0J237500D01*
G01*
X138925000Y-136112500D01*
G75*
G02*
X139162500Y-135875000I237500J0D01*
G01*
G37*
G36*
G01*
X139162500Y-134125000D02*
X139637500Y-134125000D01*
G75*
G02*
X139875000Y-134362500I0J-237500D01*
G01*
X139875000Y-134937500D01*
G75*
G02*
X139637500Y-135175000I-237500J0D01*
G01*
X139162500Y-135175000D01*
G75*
G02*
X138925000Y-134937500I0J237500D01*
G01*
X138925000Y-134362500D01*
G75*
G02*
X139162500Y-134125000I237500J0D01*
G01*
G37*
%TD*%
%TO.C,D8*%
G36*
G01*
X137562500Y-135875000D02*
X138037500Y-135875000D01*
G75*
G02*
X138275000Y-136112500I0J-237500D01*
G01*
X138275000Y-136687500D01*
G75*
G02*
X138037500Y-136925000I-237500J0D01*
G01*
X137562500Y-136925000D01*
G75*
G02*
X137325000Y-136687500I0J237500D01*
G01*
X137325000Y-136112500D01*
G75*
G02*
X137562500Y-135875000I237500J0D01*
G01*
G37*
G36*
G01*
X137562500Y-134125000D02*
X138037500Y-134125000D01*
G75*
G02*
X138275000Y-134362500I0J-237500D01*
G01*
X138275000Y-134937500D01*
G75*
G02*
X138037500Y-135175000I-237500J0D01*
G01*
X137562500Y-135175000D01*
G75*
G02*
X137325000Y-134937500I0J237500D01*
G01*
X137325000Y-134362500D01*
G75*
G02*
X137562500Y-134125000I237500J0D01*
G01*
G37*
%TD*%
%TO.C,D7*%
G36*
G01*
X135962499Y-135875000D02*
X136437499Y-135875000D01*
G75*
G02*
X136674999Y-136112500I0J-237500D01*
G01*
X136674999Y-136687500D01*
G75*
G02*
X136437499Y-136925000I-237500J0D01*
G01*
X135962499Y-136925000D01*
G75*
G02*
X135724999Y-136687500I0J237500D01*
G01*
X135724999Y-136112500D01*
G75*
G02*
X135962499Y-135875000I237500J0D01*
G01*
G37*
G36*
G01*
X135962499Y-134125000D02*
X136437499Y-134125000D01*
G75*
G02*
X136674999Y-134362500I0J-237500D01*
G01*
X136674999Y-134937500D01*
G75*
G02*
X136437499Y-135175000I-237500J0D01*
G01*
X135962499Y-135175000D01*
G75*
G02*
X135724999Y-134937500I0J237500D01*
G01*
X135724999Y-134362500D01*
G75*
G02*
X135962499Y-134125000I237500J0D01*
G01*
G37*
%TD*%
%TO.C,D6*%
G36*
G01*
X132762500Y-135875000D02*
X133237500Y-135875000D01*
G75*
G02*
X133475000Y-136112500I0J-237500D01*
G01*
X133475000Y-136687500D01*
G75*
G02*
X133237500Y-136925000I-237500J0D01*
G01*
X132762500Y-136925000D01*
G75*
G02*
X132525000Y-136687500I0J237500D01*
G01*
X132525000Y-136112500D01*
G75*
G02*
X132762500Y-135875000I237500J0D01*
G01*
G37*
G36*
G01*
X132762500Y-134125000D02*
X133237500Y-134125000D01*
G75*
G02*
X133475000Y-134362500I0J-237500D01*
G01*
X133475000Y-134937500D01*
G75*
G02*
X133237500Y-135175000I-237500J0D01*
G01*
X132762500Y-135175000D01*
G75*
G02*
X132525000Y-134937500I0J237500D01*
G01*
X132525000Y-134362500D01*
G75*
G02*
X132762500Y-134125000I237500J0D01*
G01*
G37*
%TD*%
%TO.C,D5*%
G36*
G01*
X134362500Y-135875000D02*
X134837500Y-135875000D01*
G75*
G02*
X135075000Y-136112500I0J-237500D01*
G01*
X135075000Y-136687500D01*
G75*
G02*
X134837500Y-136925000I-237500J0D01*
G01*
X134362500Y-136925000D01*
G75*
G02*
X134125000Y-136687500I0J237500D01*
G01*
X134125000Y-136112500D01*
G75*
G02*
X134362500Y-135875000I237500J0D01*
G01*
G37*
G36*
G01*
X134362500Y-134125000D02*
X134837500Y-134125000D01*
G75*
G02*
X135075000Y-134362500I0J-237500D01*
G01*
X135075000Y-134937500D01*
G75*
G02*
X134837500Y-135175000I-237500J0D01*
G01*
X134362500Y-135175000D01*
G75*
G02*
X134125000Y-134937500I0J237500D01*
G01*
X134125000Y-134362500D01*
G75*
G02*
X134362500Y-134125000I237500J0D01*
G01*
G37*
%TD*%
D25*
%TO.C,U5*%
X144200000Y-103750000D03*
X144200000Y-105650000D03*
X142000000Y-105650000D03*
X142000000Y-104700000D03*
X142000000Y-103750000D03*
%TD*%
D26*
%TO.C,U4*%
X153378907Y-122951346D03*
X153378907Y-121301346D03*
X154928907Y-121301346D03*
X154928907Y-122951346D03*
%TD*%
%TO.C,R15*%
G36*
G01*
X157662500Y-122712500D02*
X158137500Y-122712500D01*
G75*
G02*
X158375000Y-122950000I0J-237500D01*
G01*
X158375000Y-123450000D01*
G75*
G02*
X158137500Y-123687500I-237500J0D01*
G01*
X157662500Y-123687500D01*
G75*
G02*
X157425000Y-123450000I0J237500D01*
G01*
X157425000Y-122950000D01*
G75*
G02*
X157662500Y-122712500I237500J0D01*
G01*
G37*
G36*
G01*
X157662500Y-120887500D02*
X158137500Y-120887500D01*
G75*
G02*
X158375000Y-121125000I0J-237500D01*
G01*
X158375000Y-121625000D01*
G75*
G02*
X158137500Y-121862500I-237500J0D01*
G01*
X157662500Y-121862500D01*
G75*
G02*
X157425000Y-121625000I0J237500D01*
G01*
X157425000Y-121125000D01*
G75*
G02*
X157662500Y-120887500I237500J0D01*
G01*
G37*
%TD*%
%TO.C,R14*%
G36*
G01*
X156637500Y-121862500D02*
X156162500Y-121862500D01*
G75*
G02*
X155925000Y-121625000I0J237500D01*
G01*
X155925000Y-121125000D01*
G75*
G02*
X156162500Y-120887500I237500J0D01*
G01*
X156637500Y-120887500D01*
G75*
G02*
X156875000Y-121125000I0J-237500D01*
G01*
X156875000Y-121625000D01*
G75*
G02*
X156637500Y-121862500I-237500J0D01*
G01*
G37*
G36*
G01*
X156637500Y-123687500D02*
X156162500Y-123687500D01*
G75*
G02*
X155925000Y-123450000I0J237500D01*
G01*
X155925000Y-122950000D01*
G75*
G02*
X156162500Y-122712500I237500J0D01*
G01*
X156637500Y-122712500D01*
G75*
G02*
X156875000Y-122950000I0J-237500D01*
G01*
X156875000Y-123450000D01*
G75*
G02*
X156637500Y-123687500I-237500J0D01*
G01*
G37*
%TD*%
%TO.C,C14*%
G36*
G01*
X153612500Y-124262500D02*
X153612500Y-124737500D01*
G75*
G02*
X153375000Y-124975000I-237500J0D01*
G01*
X152775000Y-124975000D01*
G75*
G02*
X152537500Y-124737500I0J237500D01*
G01*
X152537500Y-124262500D01*
G75*
G02*
X152775000Y-124025000I237500J0D01*
G01*
X153375000Y-124025000D01*
G75*
G02*
X153612500Y-124262500I0J-237500D01*
G01*
G37*
G36*
G01*
X155337500Y-124262500D02*
X155337500Y-124737500D01*
G75*
G02*
X155100000Y-124975000I-237500J0D01*
G01*
X154500000Y-124975000D01*
G75*
G02*
X154262500Y-124737500I0J237500D01*
G01*
X154262500Y-124262500D01*
G75*
G02*
X154500000Y-124025000I237500J0D01*
G01*
X155100000Y-124025000D01*
G75*
G02*
X155337500Y-124262500I0J-237500D01*
G01*
G37*
%TD*%
%TO.C,U2*%
G36*
G01*
X143200000Y-98345000D02*
X143200000Y-98045000D01*
G75*
G02*
X143350000Y-97895000I150000J0D01*
G01*
X145000000Y-97895000D01*
G75*
G02*
X145150000Y-98045000I0J-150000D01*
G01*
X145150000Y-98345000D01*
G75*
G02*
X145000000Y-98495000I-150000J0D01*
G01*
X143350000Y-98495000D01*
G75*
G02*
X143200000Y-98345000I0J150000D01*
G01*
G37*
G36*
G01*
X143200000Y-99615000D02*
X143200000Y-99315000D01*
G75*
G02*
X143350000Y-99165000I150000J0D01*
G01*
X145000000Y-99165000D01*
G75*
G02*
X145150000Y-99315000I0J-150000D01*
G01*
X145150000Y-99615000D01*
G75*
G02*
X145000000Y-99765000I-150000J0D01*
G01*
X143350000Y-99765000D01*
G75*
G02*
X143200000Y-99615000I0J150000D01*
G01*
G37*
G36*
G01*
X143200000Y-100885000D02*
X143200000Y-100585000D01*
G75*
G02*
X143350000Y-100435000I150000J0D01*
G01*
X145000000Y-100435000D01*
G75*
G02*
X145150000Y-100585000I0J-150000D01*
G01*
X145150000Y-100885000D01*
G75*
G02*
X145000000Y-101035000I-150000J0D01*
G01*
X143350000Y-101035000D01*
G75*
G02*
X143200000Y-100885000I0J150000D01*
G01*
G37*
G36*
G01*
X143200000Y-102155000D02*
X143200000Y-101855000D01*
G75*
G02*
X143350000Y-101705000I150000J0D01*
G01*
X145000000Y-101705000D01*
G75*
G02*
X145150000Y-101855000I0J-150000D01*
G01*
X145150000Y-102155000D01*
G75*
G02*
X145000000Y-102305000I-150000J0D01*
G01*
X143350000Y-102305000D01*
G75*
G02*
X143200000Y-102155000I0J150000D01*
G01*
G37*
G36*
G01*
X138250000Y-102155000D02*
X138250000Y-101855000D01*
G75*
G02*
X138400000Y-101705000I150000J0D01*
G01*
X140050000Y-101705000D01*
G75*
G02*
X140200000Y-101855000I0J-150000D01*
G01*
X140200000Y-102155000D01*
G75*
G02*
X140050000Y-102305000I-150000J0D01*
G01*
X138400000Y-102305000D01*
G75*
G02*
X138250000Y-102155000I0J150000D01*
G01*
G37*
G36*
G01*
X138250000Y-100885000D02*
X138250000Y-100585000D01*
G75*
G02*
X138400000Y-100435000I150000J0D01*
G01*
X140050000Y-100435000D01*
G75*
G02*
X140200000Y-100585000I0J-150000D01*
G01*
X140200000Y-100885000D01*
G75*
G02*
X140050000Y-101035000I-150000J0D01*
G01*
X138400000Y-101035000D01*
G75*
G02*
X138250000Y-100885000I0J150000D01*
G01*
G37*
G36*
G01*
X138250000Y-99615000D02*
X138250000Y-99315000D01*
G75*
G02*
X138400000Y-99165000I150000J0D01*
G01*
X140050000Y-99165000D01*
G75*
G02*
X140200000Y-99315000I0J-150000D01*
G01*
X140200000Y-99615000D01*
G75*
G02*
X140050000Y-99765000I-150000J0D01*
G01*
X138400000Y-99765000D01*
G75*
G02*
X138250000Y-99615000I0J150000D01*
G01*
G37*
G36*
G01*
X138250000Y-98345000D02*
X138250000Y-98045000D01*
G75*
G02*
X138400000Y-97895000I150000J0D01*
G01*
X140050000Y-97895000D01*
G75*
G02*
X140200000Y-98045000I0J-150000D01*
G01*
X140200000Y-98345000D01*
G75*
G02*
X140050000Y-98495000I-150000J0D01*
G01*
X138400000Y-98495000D01*
G75*
G02*
X138250000Y-98345000I0J150000D01*
G01*
G37*
%TD*%
%TO.C,R13*%
G36*
G01*
X146787500Y-98262500D02*
X146787500Y-98737500D01*
G75*
G02*
X146550000Y-98975000I-237500J0D01*
G01*
X146050000Y-98975000D01*
G75*
G02*
X145812500Y-98737500I0J237500D01*
G01*
X145812500Y-98262500D01*
G75*
G02*
X146050000Y-98025000I237500J0D01*
G01*
X146550000Y-98025000D01*
G75*
G02*
X146787500Y-98262500I0J-237500D01*
G01*
G37*
G36*
G01*
X148612500Y-98262500D02*
X148612500Y-98737500D01*
G75*
G02*
X148375000Y-98975000I-237500J0D01*
G01*
X147875000Y-98975000D01*
G75*
G02*
X147637500Y-98737500I0J237500D01*
G01*
X147637500Y-98262500D01*
G75*
G02*
X147875000Y-98025000I237500J0D01*
G01*
X148375000Y-98025000D01*
G75*
G02*
X148612500Y-98262500I0J-237500D01*
G01*
G37*
%TD*%
%TO.C,R12*%
G36*
G01*
X136612500Y-103537500D02*
X136612500Y-103062500D01*
G75*
G02*
X136850000Y-102825000I237500J0D01*
G01*
X137350000Y-102825000D01*
G75*
G02*
X137587500Y-103062500I0J-237500D01*
G01*
X137587500Y-103537500D01*
G75*
G02*
X137350000Y-103775000I-237500J0D01*
G01*
X136850000Y-103775000D01*
G75*
G02*
X136612500Y-103537500I0J237500D01*
G01*
G37*
G36*
G01*
X134787500Y-103537500D02*
X134787500Y-103062500D01*
G75*
G02*
X135025000Y-102825000I237500J0D01*
G01*
X135525000Y-102825000D01*
G75*
G02*
X135762500Y-103062500I0J-237500D01*
G01*
X135762500Y-103537500D01*
G75*
G02*
X135525000Y-103775000I-237500J0D01*
G01*
X135025000Y-103775000D01*
G75*
G02*
X134787500Y-103537500I0J237500D01*
G01*
G37*
%TD*%
%TO.C,R11*%
G36*
G01*
X136612500Y-99037500D02*
X136612500Y-98562500D01*
G75*
G02*
X136850000Y-98325000I237500J0D01*
G01*
X137350000Y-98325000D01*
G75*
G02*
X137587500Y-98562500I0J-237500D01*
G01*
X137587500Y-99037500D01*
G75*
G02*
X137350000Y-99275000I-237500J0D01*
G01*
X136850000Y-99275000D01*
G75*
G02*
X136612500Y-99037500I0J237500D01*
G01*
G37*
G36*
G01*
X134787500Y-99037500D02*
X134787500Y-98562500D01*
G75*
G02*
X135025000Y-98325000I237500J0D01*
G01*
X135525000Y-98325000D01*
G75*
G02*
X135762500Y-98562500I0J-237500D01*
G01*
X135762500Y-99037500D01*
G75*
G02*
X135525000Y-99275000I-237500J0D01*
G01*
X135025000Y-99275000D01*
G75*
G02*
X134787500Y-99037500I0J237500D01*
G01*
G37*
%TD*%
%TO.C,D4*%
G36*
G01*
X136575000Y-100537500D02*
X136575000Y-100062500D01*
G75*
G02*
X136812500Y-99825000I237500J0D01*
G01*
X137387500Y-99825000D01*
G75*
G02*
X137625000Y-100062500I0J-237500D01*
G01*
X137625000Y-100537500D01*
G75*
G02*
X137387500Y-100775000I-237500J0D01*
G01*
X136812500Y-100775000D01*
G75*
G02*
X136575000Y-100537500I0J237500D01*
G01*
G37*
G36*
G01*
X134825000Y-100537500D02*
X134825000Y-100062500D01*
G75*
G02*
X135062500Y-99825000I237500J0D01*
G01*
X135637500Y-99825000D01*
G75*
G02*
X135875000Y-100062500I0J-237500D01*
G01*
X135875000Y-100537500D01*
G75*
G02*
X135637500Y-100775000I-237500J0D01*
G01*
X135062500Y-100775000D01*
G75*
G02*
X134825000Y-100537500I0J237500D01*
G01*
G37*
%TD*%
%TO.C,C13*%
G36*
G01*
X136562500Y-102037500D02*
X136562500Y-101562500D01*
G75*
G02*
X136800000Y-101325000I237500J0D01*
G01*
X137400000Y-101325000D01*
G75*
G02*
X137637500Y-101562500I0J-237500D01*
G01*
X137637500Y-102037500D01*
G75*
G02*
X137400000Y-102275000I-237500J0D01*
G01*
X136800000Y-102275000D01*
G75*
G02*
X136562500Y-102037500I0J237500D01*
G01*
G37*
G36*
G01*
X134837500Y-102037500D02*
X134837500Y-101562500D01*
G75*
G02*
X135075000Y-101325000I237500J0D01*
G01*
X135675000Y-101325000D01*
G75*
G02*
X135912500Y-101562500I0J-237500D01*
G01*
X135912500Y-102037500D01*
G75*
G02*
X135675000Y-102275000I-237500J0D01*
G01*
X135075000Y-102275000D01*
G75*
G02*
X134837500Y-102037500I0J237500D01*
G01*
G37*
%TD*%
%TO.C,C12*%
G36*
G01*
X147487500Y-97237500D02*
X147487500Y-96762500D01*
G75*
G02*
X147725000Y-96525000I237500J0D01*
G01*
X148325000Y-96525000D01*
G75*
G02*
X148562500Y-96762500I0J-237500D01*
G01*
X148562500Y-97237500D01*
G75*
G02*
X148325000Y-97475000I-237500J0D01*
G01*
X147725000Y-97475000D01*
G75*
G02*
X147487500Y-97237500I0J237500D01*
G01*
G37*
G36*
G01*
X145762500Y-97237500D02*
X145762500Y-96762500D01*
G75*
G02*
X146000000Y-96525000I237500J0D01*
G01*
X146600000Y-96525000D01*
G75*
G02*
X146837500Y-96762500I0J-237500D01*
G01*
X146837500Y-97237500D01*
G75*
G02*
X146600000Y-97475000I-237500J0D01*
G01*
X146000000Y-97475000D01*
G75*
G02*
X145762500Y-97237500I0J237500D01*
G01*
G37*
%TD*%
%TO.C,C11*%
G36*
G01*
X147487500Y-100237500D02*
X147487500Y-99762500D01*
G75*
G02*
X147725000Y-99525000I237500J0D01*
G01*
X148325000Y-99525000D01*
G75*
G02*
X148562500Y-99762500I0J-237500D01*
G01*
X148562500Y-100237500D01*
G75*
G02*
X148325000Y-100475000I-237500J0D01*
G01*
X147725000Y-100475000D01*
G75*
G02*
X147487500Y-100237500I0J237500D01*
G01*
G37*
G36*
G01*
X145762500Y-100237500D02*
X145762500Y-99762500D01*
G75*
G02*
X146000000Y-99525000I237500J0D01*
G01*
X146600000Y-99525000D01*
G75*
G02*
X146837500Y-99762500I0J-237500D01*
G01*
X146837500Y-100237500D01*
G75*
G02*
X146600000Y-100475000I-237500J0D01*
G01*
X146000000Y-100475000D01*
G75*
G02*
X145762500Y-100237500I0J237500D01*
G01*
G37*
%TD*%
%TO.C,C10*%
G36*
G01*
X135912500Y-97062500D02*
X135912500Y-97537500D01*
G75*
G02*
X135675000Y-97775000I-237500J0D01*
G01*
X135075000Y-97775000D01*
G75*
G02*
X134837500Y-97537500I0J237500D01*
G01*
X134837500Y-97062500D01*
G75*
G02*
X135075000Y-96825000I237500J0D01*
G01*
X135675000Y-96825000D01*
G75*
G02*
X135912500Y-97062500I0J-237500D01*
G01*
G37*
G36*
G01*
X137637500Y-97062500D02*
X137637500Y-97537500D01*
G75*
G02*
X137400000Y-97775000I-237500J0D01*
G01*
X136800000Y-97775000D01*
G75*
G02*
X136562500Y-97537500I0J237500D01*
G01*
X136562500Y-97062500D01*
G75*
G02*
X136800000Y-96825000I237500J0D01*
G01*
X137400000Y-96825000D01*
G75*
G02*
X137637500Y-97062500I0J-237500D01*
G01*
G37*
%TD*%
D27*
%TO.C,U3*%
X150200000Y-119100000D03*
X151000000Y-119100000D03*
X151800000Y-119100000D03*
X152600000Y-119100000D03*
X153400000Y-119100000D03*
X154200000Y-119100000D03*
X155000000Y-119100000D03*
X155800000Y-119100000D03*
X156600000Y-119100000D03*
X157400000Y-119100000D03*
X158200000Y-119100000D03*
X150200000Y-118300000D03*
X151000000Y-118300000D03*
X151800000Y-118300000D03*
X152600000Y-118300000D03*
X153400000Y-118300000D03*
X154200000Y-118300000D03*
X155000000Y-118300000D03*
X155800000Y-118300000D03*
X156600000Y-118300000D03*
X157400000Y-118300000D03*
X158200000Y-118300000D03*
X150200000Y-117500000D03*
X151000000Y-117500000D03*
X151800000Y-117500000D03*
X152600000Y-117500000D03*
X153400000Y-117500000D03*
X154200000Y-117500000D03*
X155000000Y-117500000D03*
X155800000Y-117500000D03*
X156600000Y-117500000D03*
X157400000Y-117500000D03*
X158200000Y-117500000D03*
X150200000Y-116700000D03*
X151000000Y-116700000D03*
X151800000Y-116700000D03*
X152600000Y-116700000D03*
X153400000Y-116700000D03*
X154200000Y-116700000D03*
X155000000Y-116700000D03*
X155800000Y-116700000D03*
X156600000Y-116700000D03*
X157400000Y-116700000D03*
X158200000Y-116700000D03*
X150200000Y-115900000D03*
X151000000Y-115900000D03*
X151800000Y-115900000D03*
X152600000Y-115900000D03*
X153400000Y-115900000D03*
X154200000Y-115900000D03*
X155000000Y-115900000D03*
X155800000Y-115900000D03*
X156600000Y-115900000D03*
X157400000Y-115900000D03*
X158200000Y-115900000D03*
X150200000Y-115100000D03*
X151000000Y-115100000D03*
X151800000Y-115100000D03*
X152600000Y-115100000D03*
X153400000Y-115100000D03*
X154200000Y-115100000D03*
X155000000Y-115100000D03*
X155800000Y-115100000D03*
X156600000Y-115100000D03*
X157400000Y-115100000D03*
X158200000Y-115100000D03*
X150200000Y-114300000D03*
X151000000Y-114300000D03*
X151800000Y-114300000D03*
X152600000Y-114300000D03*
X153400000Y-114300000D03*
X154200000Y-114300000D03*
X155000000Y-114300000D03*
X155800000Y-114300000D03*
X156600000Y-114300000D03*
X157400000Y-114300000D03*
X158200000Y-114300000D03*
X150200000Y-113500000D03*
X151000000Y-113500000D03*
X151800000Y-113500000D03*
X152600000Y-113500000D03*
X153400000Y-113500000D03*
X154200000Y-113500000D03*
X155000000Y-113500000D03*
X155800000Y-113500000D03*
X156600000Y-113500000D03*
X157400000Y-113500000D03*
X158200000Y-113500000D03*
X150200000Y-112700000D03*
X151000000Y-112700000D03*
X151800000Y-112700000D03*
X152600000Y-112700000D03*
X153400000Y-112700000D03*
X154200000Y-112700000D03*
X155000000Y-112700000D03*
X155800000Y-112700000D03*
X156600000Y-112700000D03*
X157400000Y-112700000D03*
X158200000Y-112700000D03*
X150200000Y-111900000D03*
X151000000Y-111900000D03*
X151800000Y-111900000D03*
X152600000Y-111900000D03*
X153400000Y-111900000D03*
X154200000Y-111900000D03*
X155000000Y-111900000D03*
X155800000Y-111900000D03*
X156600000Y-111900000D03*
X157400000Y-111900000D03*
X158200000Y-111900000D03*
X150200000Y-111100000D03*
X151000000Y-111100000D03*
X151800000Y-111100000D03*
X152600000Y-111100000D03*
X153400000Y-111100000D03*
X154200000Y-111100000D03*
X155000000Y-111100000D03*
X155800000Y-111100000D03*
X156600000Y-111100000D03*
X157400000Y-111100000D03*
X158200000Y-111100000D03*
%TD*%
M02*
