M48
; DRILL file {KiCad 5.1.7-a382d34a8~87~ubuntu20.04.1} date Wed Feb  3 18:06:11 2021
; FORMAT={-:-/ absolute / inch / decimal}
; #@! TF.CreationDate,2021-02-03T18:06:11+00:00
; #@! TF.GenerationSoftware,Kicad,Pcbnew,5.1.7-a382d34a8~87~ubuntu20.04.1
; #@! TF.FileFunction,Plated,1,4,PTH
FMAT,2
INCH
T1C0.0080
T2C0.0098
T3C0.0157
T4C0.0256
T5C0.0394
%
G90
G05
T1
X4.6988Y-4.4549
X4.6988Y-4.4943
X4.6988Y-4.5337
X4.6988Y-4.573
X4.6988Y-4.6124
X4.7445Y-4.4722
X4.7445Y-4.5041
X4.7657Y-4.5659
X4.7768Y-4.4626
X4.7768Y-4.4882
X4.7768Y-4.5138
X4.928Y-4.3839
X4.928Y-4.4094
X4.928Y-4.435
X4.939Y-4.3317
X4.9602Y-4.3935
X4.9602Y-4.4254
X5.0059Y-4.2852
X5.0059Y-4.3246
X5.0059Y-4.364
X5.0059Y-4.4033
X5.0059Y-4.4427
X4.8059Y-4.8041
X4.8059Y-4.8297
X4.8059Y-4.8553
X4.8169Y-4.752
X4.8382Y-4.8138
X4.8382Y-4.8457
X4.8839Y-4.7055
X4.8839Y-4.7449
X4.8839Y-4.7843
X4.8839Y-4.8236
X4.8839Y-4.863
T2
X4.626Y-4.3543
X4.626Y-4.4134
X4.6299Y-4.6417
X4.6299Y-4.7008
X4.6929Y-4.8307
X4.752Y-4.8268
X4.811Y-4.8937
X4.811Y-4.9528
X4.815Y-4.3425
X4.8819Y-4.4055
X4.9213Y-4.5236
X4.9252Y-4.5866
X4.9331Y-4.189
X4.937Y-4.248
X4.9567Y-4.6732
X4.9567Y-4.8976
X4.9567Y-4.9488
X5.0748Y-4.4843
X5.0748Y-4.5433
X5.0787Y-4.248
X5.0827Y-4.189
X5.2126Y-5.0984
X5.2362Y-5.3386
X5.2638Y-5.0984
X5.2835Y-5.1142
X5.2913Y-4.0669
X5.2953Y-4.0079
X5.2992Y-5.3386
X5.3307Y-5.0984
X5.3393Y-4.9614
X5.3622Y-5.3386
X5.3819Y-4.9882
X5.3819Y-5.0276
X5.4252Y-5.3386
X5.4528Y-4.9488
X5.4803Y-5.0315
X5.4882Y-5.3386
X5.5315Y-3.8661
X5.5315Y-5.0512
X5.5354Y-4.0157
X5.5433Y-5.0799
X5.5512Y-5.3386
X5.5551Y-5.0197
X5.5565Y-5.2265
X5.5827Y-3.8031
X5.6142Y-5.3386
X5.622Y-3.8661
X5.6772Y-5.3386
X5.7146Y-4.8091
X5.7165Y-4.0906
X5.7205Y-4.8898
X5.7232Y-5.0578
X5.7244Y-5.1378
X5.7362Y-4.2244
X5.7795Y-4.3465
X5.7809Y-4.7797
X5.7874Y-4.8898
X5.7874Y-4.7993
X5.7953Y-4.1102
X5.7992Y-4.374
X5.8091Y-4.7736
X5.815Y-4.4055
X5.8189Y-4.1575
X5.8425Y-4.7165
X5.8583Y-4.7008
X5.8583Y-4.748
X5.8622Y-3.8189
X5.8622Y-3.937
X5.8622Y-4.0
X5.8622Y-4.3583
X5.8661Y-3.878
X5.8701Y-4.4724
X5.874Y-4.626
X5.878Y-4.4409
X5.878Y-4.5
X5.878Y-4.5354
X5.878Y-4.5591
X5.878Y-4.5953
X5.878Y-4.7283
X5.8858Y-4.3583
X5.9083Y-4.9173
X5.9134Y-4.7953
X5.922Y-4.8203
X5.9232Y-4.8964
X5.9311Y-4.864
X5.9472Y-4.7911
X5.9646Y-4.1575
X5.9921Y-4.4528
X5.9921Y-4.5787
X6.0039Y-4.8386
X6.0079Y-4.3465
X6.0276Y-4.1614
X6.0276Y-4.2323
X6.0394Y-4.3465
X6.0551Y-4.5157
X6.0551Y-4.5472
X6.0866Y-4.5157
X6.0866Y-4.5472
X6.0984Y-4.3465
X6.1457Y-4.5827
X6.1496Y-4.4528
X6.1535Y-4.811
X6.1575Y-4.1575
X6.1575Y-4.3465
X6.1929Y-4.7087
X6.2087Y-4.6732
X6.2154Y-4.815
X6.2598Y-4.3268
X6.2598Y-4.3543
X6.2598Y-4.3858
X6.2677Y-4.4409
X6.2677Y-4.5
X6.2677Y-4.5591
X6.2677Y-4.6181
X6.2874Y-4.2165
X6.2874Y-4.811
X6.2913Y-4.2756
X6.3307Y-4.685
X6.3465Y-4.4724
X6.3465Y-4.5394
X6.3465Y-4.5866
T3
X4.6299Y-4.2795
X4.6654Y-4.878
X4.6929Y-4.2323
X4.7008Y-4.1457
X4.7047Y-4.9567
X4.7402Y-4.2835
X4.7638Y-4.2008
X4.7677Y-5.0472
X4.7717Y-4.0945
X4.8268Y-5.1142
X4.8307Y-5.0157
X4.8465Y-4.2283
X4.8583Y-4.1575
X4.8976Y-5.185
X4.9016Y-3.8661
X4.9409Y-3.8976
X4.9528Y-3.8386
X4.9685Y-5.2441
X4.9803Y-4.626
X4.9961Y-3.9213
X5.0Y-3.8504
X5.0079Y-4.5827
X5.0079Y-5.1614
X5.0276Y-4.752
X5.0276Y-4.8189
X5.0354Y-4.626
X5.0394Y-5.2283
X5.0433Y-3.7638
X5.0433Y-3.815
X5.0433Y-3.8701
X5.0591Y-5.3031
X5.063Y-3.9173
X5.063Y-4.5827
X5.0787Y-4.1102
X5.0866Y-4.626
X5.0906Y-4.752
X5.0906Y-5.1693
X5.0984Y-4.8189
X5.1102Y-4.0157
X5.1102Y-5.2559
X5.126Y-3.9488
X5.1339Y-5.3228
X5.1417Y-4.1496
X5.1457Y-4.252
X5.1535Y-4.7835
X5.1732Y-4.0748
X5.2126Y-4.8346
X5.2205Y-3.9921
X5.2323Y-4.1811
X5.2402Y-4.1102
X5.3071Y-4.1496
X5.4094Y-4.1378
X5.5Y-4.1417
X5.5472Y-4.1614
X5.6811Y-3.7047
X5.7638Y-5.3346
X5.7795Y-3.7441
X5.8031Y-5.2362
X5.8701Y-5.2874
X5.8819Y-5.122
X5.8858Y-5.0669
X5.8898Y-3.7756
X5.8937Y-3.9803
X5.8937Y-5.2047
X5.9409Y-4.1063
X5.9567Y-5.2402
X5.9646Y-3.8465
X5.9646Y-4.9449
X6.0276Y-5.1929
X6.0472Y-4.0984
X6.0512Y-3.9055
X6.0906Y-4.9882
X6.1142Y-3.9843
X6.122Y-5.0827
X6.1732Y-4.0591
X6.1811Y-4.9961
X6.2205Y-4.126
X6.2283Y-4.9173
X6.2992Y-4.7205
X6.311Y-4.3228
X6.311Y-4.3858
X6.311Y-4.6575
T4
X5.7756Y-4.0315
X5.8256Y-4.0315
T5
X5.4016Y-3.7008
X5.5016Y-3.7008
T0
M30
