%TF.GenerationSoftware,KiCad,Pcbnew,6.0.6-3a73a75311~116~ubuntu20.04.1*%
%TF.CreationDate,2022-09-27T10:12:31+01:00*%
%TF.ProjectId,UFOControlDeck,55464f43-6f6e-4747-926f-6c4465636b2e,rev?*%
%TF.SameCoordinates,Original*%
%TF.FileFunction,Copper,L2,Inr*%
%TF.FilePolarity,Positive*%
%FSLAX46Y46*%
G04 Gerber Fmt 4.6, Leading zero omitted, Abs format (unit mm)*
G04 Created by KiCad (PCBNEW 6.0.6-3a73a75311~116~ubuntu20.04.1) date 2022-09-27 10:12:31*
%MOMM*%
%LPD*%
G01*
G04 APERTURE LIST*
%TA.AperFunction,ComponentPad*%
%ADD10R,1.700000X1.700000*%
%TD*%
%TA.AperFunction,ComponentPad*%
%ADD11O,1.700000X1.700000*%
%TD*%
%TA.AperFunction,ComponentPad*%
%ADD12C,7.500000*%
%TD*%
%TA.AperFunction,ComponentPad*%
%ADD13C,0.500000*%
%TD*%
%TA.AperFunction,ViaPad*%
%ADD14C,0.400000*%
%TD*%
%TA.AperFunction,ViaPad*%
%ADD15C,0.800000*%
%TD*%
G04 APERTURE END LIST*
D10*
%TO.N,+VDC*%
%TO.C,J1*%
X137200000Y-94000000D03*
D11*
%TO.N,GND*%
X139740000Y-94000000D03*
%TD*%
D12*
%TO.N,unconnected-(H1-Pad1)*%
%TO.C,H1*%
X125229942Y-101829942D03*
%TD*%
%TO.N,unconnected-(H2-Pad1)*%
%TO.C,H2*%
X125229942Y-128700000D03*
%TD*%
%TO.N,unconnected-(H3-Pad1)*%
%TO.C,H3*%
X152100000Y-101829942D03*
%TD*%
%TO.N,unconnected-(H4-Pad1)*%
%TO.C,H4*%
X152100000Y-128700000D03*
%TD*%
D13*
%TO.N,GND*%
%TO.C,U3*%
X153500000Y-113800000D03*
X153500000Y-114900000D03*
X152400000Y-114900000D03*
X153500000Y-117100000D03*
X154600000Y-116000000D03*
X154600000Y-112700000D03*
X153500000Y-116000000D03*
X156800000Y-116000000D03*
X154600000Y-117100000D03*
X152400000Y-113800000D03*
X151300000Y-117100000D03*
X152400000Y-117100000D03*
X151300000Y-113800000D03*
X155700000Y-113800000D03*
X154600000Y-118200000D03*
X151300000Y-118200000D03*
X156800000Y-114900000D03*
X155700000Y-117100000D03*
X156800000Y-112700000D03*
X152400000Y-118200000D03*
X154600000Y-114900000D03*
X154600000Y-113800000D03*
X156800000Y-117100000D03*
X151300000Y-112700000D03*
X155700000Y-118200000D03*
X152400000Y-116000000D03*
X155700000Y-112700000D03*
X156800000Y-118200000D03*
X153500000Y-112700000D03*
X153500000Y-118200000D03*
X156800000Y-113800000D03*
X155700000Y-114900000D03*
X152400000Y-112700000D03*
X151300000Y-114900000D03*
X151300000Y-116000000D03*
X155700000Y-116000000D03*
%TD*%
D14*
%TO.N,GND*%
X142000000Y-101250000D03*
X127000000Y-113700000D03*
X152200000Y-106250000D03*
D15*
X128900000Y-106050000D03*
D14*
X154100000Y-107500000D03*
X157150000Y-106550000D03*
X141800000Y-129200000D03*
X159900000Y-107550000D03*
D15*
X120150000Y-112450000D03*
D14*
X138000000Y-105550000D03*
X152800000Y-106900000D03*
X139050000Y-103050000D03*
X160450000Y-113250000D03*
X125000000Y-116350000D03*
X140500000Y-129200000D03*
D15*
X131550000Y-108150000D03*
D14*
X157850000Y-104400000D03*
X160300000Y-116600000D03*
X145662500Y-94937500D03*
X154050000Y-106400000D03*
D15*
X130600000Y-107400000D03*
D14*
X139200000Y-129200000D03*
X135400000Y-129200000D03*
X138850000Y-97350000D03*
D15*
X120150000Y-114000000D03*
X157750000Y-119100000D03*
D14*
X133650000Y-101850000D03*
X142700000Y-100350000D03*
D15*
X129700000Y-106700000D03*
D14*
X146700000Y-104950000D03*
X136650000Y-129150000D03*
X138050000Y-98050000D03*
D15*
X130550000Y-126000000D03*
D14*
X145600000Y-100250000D03*
X118200000Y-110950000D03*
D15*
X127900000Y-105350000D03*
D14*
X137850000Y-129200000D03*
X144000000Y-98150000D03*
X155850000Y-104400000D03*
D15*
X129850000Y-123850000D03*
D14*
X143500000Y-94500000D03*
X133800000Y-129250000D03*
X141400000Y-104900000D03*
D15*
%TO.N,+5V*%
X129100000Y-113900000D03*
X127850000Y-112200000D03*
D14*
X119600000Y-116400000D03*
D15*
X129250000Y-112250000D03*
D14*
X125000000Y-113400000D03*
D15*
X126300000Y-112200000D03*
D14*
%TO.N,Net-(C10-Pad1)*%
X138600000Y-98300000D03*
%TO.N,Net-(D5-Pad2)*%
X139500000Y-136700000D03*
%TO.N,Net-(D6-Pad2)*%
X138000000Y-136700000D03*
%TO.N,Net-(D7-Pad2)*%
X141000000Y-136600000D03*
%TO.N,Net-(D8-Pad2)*%
X142500000Y-136300000D03*
%TO.N,Net-(D9-Pad2)*%
X144000000Y-136000000D03*
%TO.N,Net-(D10-Pad2)*%
X145500000Y-135600000D03*
%TO.N,Net-(D11-Pad2)*%
X147000000Y-135000000D03*
%TO.N,Net-(D12-Pad2)*%
X148500000Y-134300000D03*
%TO.N,PULSE0*%
X152300000Y-121200000D03*
%TO.N,PULSE1*%
X152800000Y-121200000D03*
%TO.N,PULSE2*%
X153300000Y-121200000D03*
%TO.N,PULSE3*%
X153800000Y-121200000D03*
%TO.N,PULSE4*%
X154299575Y-121198297D03*
%TO.N,PULSE5*%
X154800000Y-121200000D03*
%TO.N,PULSE6*%
X155302527Y-121499984D03*
%TO.N,PULSE7*%
X155900000Y-121200000D03*
D15*
%TO.N,+VSW*%
X120750000Y-107550000D03*
X119850000Y-103200000D03*
X130200000Y-100300000D03*
X128200000Y-95800000D03*
X120800000Y-102100000D03*
X122700000Y-105550000D03*
X118600000Y-105400000D03*
X128400000Y-98600000D03*
X120750000Y-105550000D03*
X127450000Y-97250000D03*
X125500000Y-97350000D03*
D14*
%TO.N,~{TRIGGER}*%
X155300000Y-109750000D03*
X155300000Y-109050000D03*
%TO.N,Net-(R4-Pad2)*%
X119800000Y-115050000D03*
X120100000Y-109050000D03*
D15*
%TO.N,+3.3V*%
X124100000Y-120800000D03*
D14*
X142600000Y-97150000D03*
X143350000Y-104900000D03*
D15*
X119900000Y-126300000D03*
X117650000Y-122050000D03*
X159150000Y-120550000D03*
D14*
X136200000Y-100300000D03*
X152000000Y-119500000D03*
X157900000Y-117150000D03*
X156900000Y-125000000D03*
X151550000Y-111900000D03*
D15*
X117000000Y-119050000D03*
D14*
X158150000Y-114000000D03*
X155250000Y-111900000D03*
D15*
X118650000Y-124350000D03*
D14*
X136150000Y-98800000D03*
X151900000Y-109200000D03*
D15*
X126200000Y-120800000D03*
D14*
X149950000Y-113700000D03*
X148450000Y-110350000D03*
X136500000Y-102650000D03*
X154500000Y-123950000D03*
X157150000Y-109650000D03*
X155650000Y-119550000D03*
X141400000Y-97700000D03*
X145250000Y-102250000D03*
X149950000Y-117050000D03*
X146650000Y-101350000D03*
X146550000Y-106400000D03*
%TO.N,Net-(D13-Pad1)*%
X149350000Y-108150000D03*
%TO.N,Net-(R25-Pad1)*%
X146533590Y-108139060D03*
%TO.N,Net-(D1-Pad1)*%
X148400000Y-107100000D03*
%TO.N,Net-(D3-Pad1)*%
X145028706Y-106920026D03*
%TO.N,/INITN*%
X149200000Y-110750000D03*
%TO.N,/PROGRAMN*%
X148226567Y-112800000D03*
X146525010Y-110150000D03*
X144450000Y-107800000D03*
%TO.N,/DONE*%
X150250000Y-108300000D03*
%TO.N,Net-(R27-Pad2)*%
X132400000Y-104550000D03*
%TD*%
%TA.AperFunction,Conductor*%
%TO.N,GND*%
G36*
X139144781Y-92370504D02*
G01*
X140102603Y-92410649D01*
X140103092Y-92410680D01*
X141058380Y-92490898D01*
X141058850Y-92490947D01*
X142009985Y-92611103D01*
X142010428Y-92611169D01*
X142955679Y-92771046D01*
X142956140Y-92771134D01*
X143308367Y-92846002D01*
X143893855Y-92970452D01*
X143894332Y-92970564D01*
X144822845Y-93208966D01*
X144823317Y-93209097D01*
X145741083Y-93486186D01*
X145741549Y-93486338D01*
X146646871Y-93801605D01*
X146647330Y-93801776D01*
X147538656Y-94154677D01*
X147539108Y-94154867D01*
X147919742Y-94324336D01*
X148414881Y-94544786D01*
X148415304Y-94544985D01*
X148794228Y-94733084D01*
X149273990Y-94971240D01*
X149274425Y-94971467D01*
X150114510Y-95433307D01*
X150114934Y-95433552D01*
X150934931Y-95930161D01*
X150935345Y-95930424D01*
X150964564Y-95949837D01*
X151733831Y-96460936D01*
X151734218Y-96461206D01*
X152509805Y-97024703D01*
X152510193Y-97024998D01*
X152577935Y-97078689D01*
X153261459Y-97620444D01*
X153261837Y-97620756D01*
X153987545Y-98247170D01*
X153987909Y-98247498D01*
X154043818Y-98300000D01*
X154686752Y-98903756D01*
X154687069Y-98904066D01*
X155101888Y-99327665D01*
X155357806Y-99589000D01*
X155358139Y-99589354D01*
X155998917Y-100301009D01*
X155999618Y-100301788D01*
X155999934Y-100302154D01*
X156374568Y-100755008D01*
X156611007Y-101040814D01*
X156611306Y-101041192D01*
X157132022Y-101727209D01*
X157190912Y-101804794D01*
X157191190Y-101805177D01*
X157735905Y-102588920D01*
X157738300Y-102592366D01*
X157738569Y-102592769D01*
X158220021Y-103351416D01*
X158252261Y-103402218D01*
X158252514Y-103402637D01*
X158731820Y-104232820D01*
X158732057Y-104233249D01*
X158900187Y-104554851D01*
X159176228Y-105082868D01*
X159176424Y-105083264D01*
X159584607Y-105950700D01*
X159584784Y-105951097D01*
X159956297Y-106834888D01*
X159956471Y-106835328D01*
X160135471Y-107316645D01*
X160290633Y-107733865D01*
X160290794Y-107734328D01*
X160587029Y-108646046D01*
X160587171Y-108646515D01*
X160844972Y-109569855D01*
X160845094Y-109570329D01*
X161064005Y-110503659D01*
X161064107Y-110504139D01*
X161243743Y-111445825D01*
X161243824Y-111446308D01*
X161383863Y-112394646D01*
X161383925Y-112395132D01*
X161484132Y-113348546D01*
X161484173Y-113349034D01*
X161544368Y-114305808D01*
X161544388Y-114306298D01*
X161559100Y-115008594D01*
X161563888Y-115237163D01*
X161564465Y-115264726D01*
X161564465Y-115265210D01*
X161560156Y-115470917D01*
X161544388Y-116223644D01*
X161544368Y-116224134D01*
X161484173Y-117180908D01*
X161484132Y-117181396D01*
X161383925Y-118134810D01*
X161383863Y-118135296D01*
X161243824Y-119083634D01*
X161243743Y-119084117D01*
X161064107Y-120025803D01*
X161064005Y-120026283D01*
X160845094Y-120959613D01*
X160844972Y-120960087D01*
X160587171Y-121883427D01*
X160587029Y-121883896D01*
X160290794Y-122795614D01*
X160290633Y-122796077D01*
X160150280Y-123173477D01*
X159964948Y-123671821D01*
X159956477Y-123694598D01*
X159956303Y-123695039D01*
X159584784Y-124578845D01*
X159584607Y-124579242D01*
X159176424Y-125446678D01*
X159176228Y-125447074D01*
X158966930Y-125847423D01*
X158732057Y-126296693D01*
X158731820Y-126297122D01*
X158252514Y-127127305D01*
X158252263Y-127127720D01*
X157753328Y-127913917D01*
X157738572Y-127937168D01*
X157738303Y-127937572D01*
X157217732Y-128686577D01*
X157191200Y-128724751D01*
X157190922Y-128725134D01*
X156894554Y-129115585D01*
X156611311Y-129488744D01*
X156611012Y-129489122D01*
X155999938Y-130227783D01*
X155999622Y-130228149D01*
X155358142Y-130940585D01*
X155357810Y-130940938D01*
X154687069Y-131625876D01*
X154686752Y-131626186D01*
X154337532Y-131954126D01*
X153987909Y-132282444D01*
X153987545Y-132282772D01*
X153261837Y-132909186D01*
X153261459Y-132909498D01*
X152510195Y-133504943D01*
X152509805Y-133505239D01*
X151734218Y-134068736D01*
X151733831Y-134069006D01*
X151384638Y-134301009D01*
X150935345Y-134599518D01*
X150934931Y-134599781D01*
X150114934Y-135096390D01*
X150114510Y-135096635D01*
X149274425Y-135558475D01*
X149273990Y-135558702D01*
X149190796Y-135600000D01*
X148494791Y-135945500D01*
X148415313Y-135984953D01*
X148414881Y-135985156D01*
X148110040Y-136120880D01*
X147539108Y-136375075D01*
X147538656Y-136375265D01*
X146647330Y-136728166D01*
X146646871Y-136728337D01*
X145741549Y-137043604D01*
X145741083Y-137043756D01*
X144823317Y-137320845D01*
X144822845Y-137320976D01*
X143894332Y-137559378D01*
X143893855Y-137559490D01*
X143308367Y-137683940D01*
X142956140Y-137758808D01*
X142955679Y-137758896D01*
X142010428Y-137918773D01*
X142009985Y-137918839D01*
X141058850Y-138038995D01*
X141058380Y-138039044D01*
X140139325Y-138116219D01*
X140103092Y-138119262D01*
X140102603Y-138119293D01*
X139144781Y-138159438D01*
X139144291Y-138159448D01*
X138185651Y-138159448D01*
X138185161Y-138159438D01*
X137227339Y-138119293D01*
X137226850Y-138119262D01*
X137190617Y-138116219D01*
X136271562Y-138039044D01*
X136271092Y-138038995D01*
X135319957Y-137918839D01*
X135319514Y-137918773D01*
X134374263Y-137758896D01*
X134373802Y-137758808D01*
X134021575Y-137683940D01*
X133436087Y-137559490D01*
X133435610Y-137559378D01*
X132507097Y-137320976D01*
X132506625Y-137320845D01*
X131588859Y-137043756D01*
X131588393Y-137043604D01*
X130683071Y-136728337D01*
X130682612Y-136728166D01*
X130611473Y-136700000D01*
X137649170Y-136700000D01*
X137670328Y-136819991D01*
X137670841Y-136820879D01*
X137670841Y-136820880D01*
X137673514Y-136825509D01*
X137731249Y-136925509D01*
X137824585Y-137003828D01*
X137939079Y-137045500D01*
X138060921Y-137045500D01*
X138175415Y-137003828D01*
X138268751Y-136925509D01*
X138326486Y-136825509D01*
X138329159Y-136820880D01*
X138329159Y-136820879D01*
X138329672Y-136819991D01*
X138350830Y-136700000D01*
X139149170Y-136700000D01*
X139170328Y-136819991D01*
X139170841Y-136820879D01*
X139170841Y-136820880D01*
X139173514Y-136825509D01*
X139231249Y-136925509D01*
X139324585Y-137003828D01*
X139439079Y-137045500D01*
X139560921Y-137045500D01*
X139675415Y-137003828D01*
X139768751Y-136925509D01*
X139826486Y-136825509D01*
X139829159Y-136820880D01*
X139829159Y-136820879D01*
X139829672Y-136819991D01*
X139850830Y-136700000D01*
X139833197Y-136600000D01*
X140649170Y-136600000D01*
X140670328Y-136719991D01*
X140670841Y-136720879D01*
X140670841Y-136720880D01*
X140686418Y-136747860D01*
X140731249Y-136825509D01*
X140824585Y-136903828D01*
X140939079Y-136945500D01*
X141060921Y-136945500D01*
X141175415Y-136903828D01*
X141268751Y-136825509D01*
X141313582Y-136747860D01*
X141329159Y-136720880D01*
X141329159Y-136720879D01*
X141329672Y-136719991D01*
X141350830Y-136600000D01*
X141329672Y-136480009D01*
X141326999Y-136475378D01*
X141269263Y-136375378D01*
X141268751Y-136374491D01*
X141179977Y-136300000D01*
X142149170Y-136300000D01*
X142170328Y-136419991D01*
X142231249Y-136525509D01*
X142324585Y-136603828D01*
X142439079Y-136645500D01*
X142560921Y-136645500D01*
X142675415Y-136603828D01*
X142768751Y-136525509D01*
X142829672Y-136419991D01*
X142850830Y-136300000D01*
X142829672Y-136180009D01*
X142768751Y-136074491D01*
X142679977Y-136000000D01*
X143649170Y-136000000D01*
X143670328Y-136119991D01*
X143731249Y-136225509D01*
X143824585Y-136303828D01*
X143939079Y-136345500D01*
X144060921Y-136345500D01*
X144175415Y-136303828D01*
X144268751Y-136225509D01*
X144329672Y-136119991D01*
X144350830Y-136000000D01*
X144329672Y-135880009D01*
X144268751Y-135774491D01*
X144175415Y-135696172D01*
X144060921Y-135654500D01*
X143939079Y-135654500D01*
X143824585Y-135696172D01*
X143731249Y-135774491D01*
X143670328Y-135880009D01*
X143649170Y-136000000D01*
X142679977Y-136000000D01*
X142675415Y-135996172D01*
X142560921Y-135954500D01*
X142439079Y-135954500D01*
X142324585Y-135996172D01*
X142231249Y-136074491D01*
X142170328Y-136180009D01*
X142149170Y-136300000D01*
X141179977Y-136300000D01*
X141175415Y-136296172D01*
X141060921Y-136254500D01*
X140939079Y-136254500D01*
X140824585Y-136296172D01*
X140731249Y-136374491D01*
X140730737Y-136375378D01*
X140673002Y-136475378D01*
X140670328Y-136480009D01*
X140649170Y-136600000D01*
X139833197Y-136600000D01*
X139829672Y-136580009D01*
X139768751Y-136474491D01*
X139675415Y-136396172D01*
X139560921Y-136354500D01*
X139439079Y-136354500D01*
X139324585Y-136396172D01*
X139231249Y-136474491D01*
X139170328Y-136580009D01*
X139149170Y-136700000D01*
X138350830Y-136700000D01*
X138329672Y-136580009D01*
X138268751Y-136474491D01*
X138175415Y-136396172D01*
X138060921Y-136354500D01*
X137939079Y-136354500D01*
X137824585Y-136396172D01*
X137731249Y-136474491D01*
X137670328Y-136580009D01*
X137649170Y-136700000D01*
X130611473Y-136700000D01*
X129791286Y-136375265D01*
X129790834Y-136375075D01*
X129219902Y-136120880D01*
X128915061Y-135985156D01*
X128914629Y-135984953D01*
X128835152Y-135945500D01*
X128139146Y-135600000D01*
X145149170Y-135600000D01*
X145170328Y-135719991D01*
X145231249Y-135825509D01*
X145324585Y-135903828D01*
X145439079Y-135945500D01*
X145560921Y-135945500D01*
X145675415Y-135903828D01*
X145768751Y-135825509D01*
X145829672Y-135719991D01*
X145850830Y-135600000D01*
X145829672Y-135480009D01*
X145768751Y-135374491D01*
X145675415Y-135296172D01*
X145560921Y-135254500D01*
X145439079Y-135254500D01*
X145324585Y-135296172D01*
X145231249Y-135374491D01*
X145170328Y-135480009D01*
X145149170Y-135600000D01*
X128139146Y-135600000D01*
X128055952Y-135558702D01*
X128055517Y-135558475D01*
X127215432Y-135096635D01*
X127215008Y-135096390D01*
X127055850Y-135000000D01*
X146649170Y-135000000D01*
X146670328Y-135119991D01*
X146731249Y-135225509D01*
X146824585Y-135303828D01*
X146939079Y-135345500D01*
X147060921Y-135345500D01*
X147175415Y-135303828D01*
X147268751Y-135225509D01*
X147329672Y-135119991D01*
X147350830Y-135000000D01*
X147329672Y-134880009D01*
X147268751Y-134774491D01*
X147175415Y-134696172D01*
X147060921Y-134654500D01*
X146939079Y-134654500D01*
X146824585Y-134696172D01*
X146731249Y-134774491D01*
X146670328Y-134880009D01*
X146649170Y-135000000D01*
X127055850Y-135000000D01*
X126395011Y-134599781D01*
X126394597Y-134599518D01*
X125945304Y-134301009D01*
X125943785Y-134300000D01*
X148149170Y-134300000D01*
X148170328Y-134419991D01*
X148231249Y-134525509D01*
X148324585Y-134603828D01*
X148439079Y-134645500D01*
X148560921Y-134645500D01*
X148675415Y-134603828D01*
X148768751Y-134525509D01*
X148829672Y-134419991D01*
X148850830Y-134300000D01*
X148829672Y-134180009D01*
X148768751Y-134074491D01*
X148675415Y-133996172D01*
X148560921Y-133954500D01*
X148439079Y-133954500D01*
X148324585Y-133996172D01*
X148231249Y-134074491D01*
X148170328Y-134180009D01*
X148149170Y-134300000D01*
X125943785Y-134300000D01*
X125596111Y-134069006D01*
X125595724Y-134068736D01*
X124820137Y-133505239D01*
X124819747Y-133504943D01*
X124068483Y-132909498D01*
X124068105Y-132909186D01*
X123342397Y-132282772D01*
X123342033Y-132282444D01*
X122992410Y-131954126D01*
X122643190Y-131626186D01*
X122642873Y-131625876D01*
X121972132Y-130940938D01*
X121971800Y-130940585D01*
X121330320Y-130228149D01*
X121330004Y-130227783D01*
X120718930Y-129489122D01*
X120718631Y-129488744D01*
X120435388Y-129115585D01*
X120139020Y-128725134D01*
X120138742Y-128724751D01*
X120112211Y-128686577D01*
X121384529Y-128686577D01*
X121402859Y-129075249D01*
X121460372Y-129460079D01*
X121460445Y-129460367D01*
X121460446Y-129460370D01*
X121467776Y-129489128D01*
X121556480Y-129837126D01*
X121556582Y-129837406D01*
X121556584Y-129837411D01*
X121570631Y-129875795D01*
X121690199Y-130202532D01*
X121860161Y-130552553D01*
X122064624Y-130883607D01*
X122301495Y-131192304D01*
X122568350Y-131475483D01*
X122862455Y-131730245D01*
X123180800Y-131953982D01*
X123181051Y-131954123D01*
X123181056Y-131954126D01*
X123218963Y-131975398D01*
X123520126Y-132144402D01*
X123876957Y-132299557D01*
X124247642Y-132417857D01*
X124247928Y-132417917D01*
X124247927Y-132417917D01*
X124628110Y-132498035D01*
X124628120Y-132498037D01*
X124628383Y-132498092D01*
X124628661Y-132498122D01*
X124628663Y-132498122D01*
X125014990Y-132539409D01*
X125014998Y-132539409D01*
X125015284Y-132539440D01*
X125015571Y-132539442D01*
X125015580Y-132539442D01*
X125212116Y-132540470D01*
X125404382Y-132541477D01*
X125500698Y-132532203D01*
X125791387Y-132504213D01*
X125791394Y-132504212D01*
X125791695Y-132504183D01*
X125791988Y-132504125D01*
X125791998Y-132504123D01*
X126172966Y-132427998D01*
X126172967Y-132427998D01*
X126173256Y-132427940D01*
X126173529Y-132427856D01*
X126173537Y-132427854D01*
X126412081Y-132354468D01*
X126545159Y-132313528D01*
X126545425Y-132313416D01*
X126545435Y-132313412D01*
X126771025Y-132218118D01*
X126903595Y-132162118D01*
X127244896Y-131975261D01*
X127565567Y-131754871D01*
X127862324Y-131503202D01*
X128132129Y-131222833D01*
X128372220Y-130916634D01*
X128580139Y-130587739D01*
X128753756Y-130239517D01*
X128891295Y-129875532D01*
X128901593Y-129836831D01*
X128991269Y-129499799D01*
X128991346Y-129499511D01*
X129052886Y-129115305D01*
X129075284Y-128726846D01*
X129075292Y-128724751D01*
X129075377Y-128700167D01*
X129075378Y-128700000D01*
X129074698Y-128686577D01*
X148254587Y-128686577D01*
X148272917Y-129075249D01*
X148330430Y-129460079D01*
X148330503Y-129460367D01*
X148330504Y-129460370D01*
X148337834Y-129489128D01*
X148426538Y-129837126D01*
X148426640Y-129837406D01*
X148426642Y-129837411D01*
X148440689Y-129875795D01*
X148560257Y-130202532D01*
X148730219Y-130552553D01*
X148934682Y-130883607D01*
X149171553Y-131192304D01*
X149438408Y-131475483D01*
X149732513Y-131730245D01*
X150050858Y-131953982D01*
X150051109Y-131954123D01*
X150051114Y-131954126D01*
X150089021Y-131975398D01*
X150390184Y-132144402D01*
X150747015Y-132299557D01*
X151117700Y-132417857D01*
X151117986Y-132417917D01*
X151117985Y-132417917D01*
X151498168Y-132498035D01*
X151498178Y-132498037D01*
X151498441Y-132498092D01*
X151498719Y-132498122D01*
X151498721Y-132498122D01*
X151885048Y-132539409D01*
X151885056Y-132539409D01*
X151885342Y-132539440D01*
X151885629Y-132539442D01*
X151885638Y-132539442D01*
X152082174Y-132540470D01*
X152274440Y-132541477D01*
X152370756Y-132532203D01*
X152661445Y-132504213D01*
X152661452Y-132504212D01*
X152661753Y-132504183D01*
X152662046Y-132504125D01*
X152662056Y-132504123D01*
X153043024Y-132427998D01*
X153043025Y-132427998D01*
X153043314Y-132427940D01*
X153043587Y-132427856D01*
X153043595Y-132427854D01*
X153282139Y-132354468D01*
X153415217Y-132313528D01*
X153415483Y-132313416D01*
X153415493Y-132313412D01*
X153641083Y-132218118D01*
X153773653Y-132162118D01*
X154114954Y-131975261D01*
X154435625Y-131754871D01*
X154732382Y-131503202D01*
X155002187Y-131222833D01*
X155242278Y-130916634D01*
X155450197Y-130587739D01*
X155623814Y-130239517D01*
X155761353Y-129875532D01*
X155771651Y-129836831D01*
X155861327Y-129499799D01*
X155861404Y-129499511D01*
X155922944Y-129115305D01*
X155945342Y-128726846D01*
X155945350Y-128724751D01*
X155945435Y-128700167D01*
X155945436Y-128700000D01*
X155925750Y-128311394D01*
X155868486Y-127937168D01*
X155866940Y-127927068D01*
X155866940Y-127927066D01*
X155866894Y-127926768D01*
X155863571Y-127913917D01*
X155769547Y-127550355D01*
X155769546Y-127550352D01*
X155769470Y-127550058D01*
X155764735Y-127537256D01*
X155634579Y-127185401D01*
X155634476Y-127185122D01*
X155463294Y-126835696D01*
X155257677Y-126505358D01*
X155249169Y-126494349D01*
X155019910Y-126197723D01*
X155019909Y-126197721D01*
X155019729Y-126197489D01*
X155010073Y-126187313D01*
X154859544Y-126028689D01*
X154751888Y-125915243D01*
X154607361Y-125790931D01*
X154457120Y-125661702D01*
X154457114Y-125661697D01*
X154456895Y-125661509D01*
X154456658Y-125661344D01*
X154456652Y-125661339D01*
X154138012Y-125439053D01*
X154138010Y-125439052D01*
X154137771Y-125438885D01*
X153797783Y-125249650D01*
X153440411Y-125095742D01*
X153440124Y-125095652D01*
X153440120Y-125095650D01*
X153298581Y-125051023D01*
X153136757Y-125000000D01*
X156549170Y-125000000D01*
X156570328Y-125119991D01*
X156631249Y-125225509D01*
X156724585Y-125303828D01*
X156839079Y-125345500D01*
X156960921Y-125345500D01*
X157075415Y-125303828D01*
X157168751Y-125225509D01*
X157229672Y-125119991D01*
X157250830Y-125000000D01*
X157229672Y-124880009D01*
X157218024Y-124859833D01*
X157169263Y-124775378D01*
X157168751Y-124774491D01*
X157075415Y-124696172D01*
X156960921Y-124654500D01*
X156839079Y-124654500D01*
X156724585Y-124696172D01*
X156631249Y-124774491D01*
X156630737Y-124775378D01*
X156581977Y-124859833D01*
X156570328Y-124880009D01*
X156549170Y-125000000D01*
X153136757Y-125000000D01*
X153069317Y-124978736D01*
X152688297Y-124899831D01*
X152496484Y-124880009D01*
X152301550Y-124859864D01*
X152301540Y-124859864D01*
X152301255Y-124859834D01*
X152300968Y-124859833D01*
X152300958Y-124859833D01*
X152106703Y-124859494D01*
X151912151Y-124859155D01*
X151773239Y-124873020D01*
X151525277Y-124897770D01*
X151525268Y-124897771D01*
X151524971Y-124897801D01*
X151524675Y-124897861D01*
X151524670Y-124897862D01*
X151416001Y-124919971D01*
X151143679Y-124975375D01*
X150772178Y-125091085D01*
X150702325Y-125120880D01*
X150414548Y-125243627D01*
X150414544Y-125243629D01*
X150414272Y-125243745D01*
X150414012Y-125243889D01*
X150414009Y-125243890D01*
X150229943Y-125345500D01*
X150073625Y-125431792D01*
X149753726Y-125653301D01*
X149753523Y-125653474D01*
X149753517Y-125653479D01*
X149522708Y-125850609D01*
X149457849Y-125906004D01*
X149457650Y-125906212D01*
X149457646Y-125906216D01*
X149213460Y-126161742D01*
X149189024Y-126187313D01*
X149188841Y-126187548D01*
X149188835Y-126187555D01*
X148984012Y-126450662D01*
X148950003Y-126494349D01*
X148949838Y-126494612D01*
X148763457Y-126791729D01*
X148743234Y-126823967D01*
X148570833Y-127172793D01*
X148570731Y-127173065D01*
X148570730Y-127173068D01*
X148496393Y-127371893D01*
X148434566Y-127537256D01*
X148434491Y-127537542D01*
X148434490Y-127537545D01*
X148335903Y-127913338D01*
X148335828Y-127913624D01*
X148275630Y-128298042D01*
X148254587Y-128686577D01*
X129074698Y-128686577D01*
X129055692Y-128311394D01*
X128998428Y-127937168D01*
X128996882Y-127927068D01*
X128996882Y-127927066D01*
X128996836Y-127926768D01*
X128993513Y-127913917D01*
X128899489Y-127550355D01*
X128899488Y-127550352D01*
X128899412Y-127550058D01*
X128894677Y-127537256D01*
X128764521Y-127185401D01*
X128764418Y-127185122D01*
X128593236Y-126835696D01*
X128387619Y-126505358D01*
X128379111Y-126494349D01*
X128149852Y-126197723D01*
X128149851Y-126197721D01*
X128149671Y-126197489D01*
X128140015Y-126187313D01*
X127989486Y-126028689D01*
X127881830Y-125915243D01*
X127737303Y-125790931D01*
X127587062Y-125661702D01*
X127587056Y-125661697D01*
X127586837Y-125661509D01*
X127586600Y-125661344D01*
X127586594Y-125661339D01*
X127267954Y-125439053D01*
X127267952Y-125439052D01*
X127267713Y-125438885D01*
X126927725Y-125249650D01*
X126570353Y-125095742D01*
X126570066Y-125095652D01*
X126570062Y-125095650D01*
X126428523Y-125051023D01*
X126199259Y-124978736D01*
X125818239Y-124899831D01*
X125626426Y-124880009D01*
X125431492Y-124859864D01*
X125431482Y-124859864D01*
X125431197Y-124859834D01*
X125430910Y-124859833D01*
X125430900Y-124859833D01*
X125236645Y-124859494D01*
X125042093Y-124859155D01*
X124903181Y-124873020D01*
X124655219Y-124897770D01*
X124655210Y-124897771D01*
X124654913Y-124897801D01*
X124654617Y-124897861D01*
X124654612Y-124897862D01*
X124545943Y-124919971D01*
X124273621Y-124975375D01*
X123902120Y-125091085D01*
X123832267Y-125120880D01*
X123544490Y-125243627D01*
X123544486Y-125243629D01*
X123544214Y-125243745D01*
X123543954Y-125243889D01*
X123543951Y-125243890D01*
X123359885Y-125345500D01*
X123203567Y-125431792D01*
X122883668Y-125653301D01*
X122883465Y-125653474D01*
X122883459Y-125653479D01*
X122652650Y-125850609D01*
X122587791Y-125906004D01*
X122587592Y-125906212D01*
X122587588Y-125906216D01*
X122343402Y-126161742D01*
X122318966Y-126187313D01*
X122318783Y-126187548D01*
X122318777Y-126187555D01*
X122113954Y-126450662D01*
X122079945Y-126494349D01*
X122079780Y-126494612D01*
X121893399Y-126791729D01*
X121873176Y-126823967D01*
X121700775Y-127172793D01*
X121700673Y-127173065D01*
X121700672Y-127173068D01*
X121626335Y-127371893D01*
X121564508Y-127537256D01*
X121564433Y-127537542D01*
X121564432Y-127537545D01*
X121465845Y-127913338D01*
X121465770Y-127913624D01*
X121405572Y-128298042D01*
X121384529Y-128686577D01*
X120112211Y-128686577D01*
X119591639Y-127937572D01*
X119591370Y-127937168D01*
X119576615Y-127913917D01*
X119077679Y-127127720D01*
X119077428Y-127127305D01*
X118598122Y-126297122D01*
X118597885Y-126296693D01*
X118596449Y-126293946D01*
X119404493Y-126293946D01*
X119422711Y-126433262D01*
X119423047Y-126434025D01*
X119423047Y-126434026D01*
X119454434Y-126505358D01*
X119479297Y-126561864D01*
X119569704Y-126669416D01*
X119570397Y-126669878D01*
X119570399Y-126669879D01*
X119677616Y-126741249D01*
X119686663Y-126747271D01*
X119820772Y-126789169D01*
X119900468Y-126790630D01*
X119960419Y-126791729D01*
X119960421Y-126791729D01*
X119961250Y-126791744D01*
X120096804Y-126754788D01*
X120108645Y-126747518D01*
X120215833Y-126681704D01*
X120215834Y-126681704D01*
X120216538Y-126681271D01*
X120310825Y-126577105D01*
X120372086Y-126450662D01*
X120375153Y-126432435D01*
X120395322Y-126312547D01*
X120395396Y-126312107D01*
X120395544Y-126300000D01*
X120395099Y-126296889D01*
X120375744Y-126161742D01*
X120375626Y-126160917D01*
X120317472Y-126033015D01*
X120313745Y-126028689D01*
X120226303Y-125927209D01*
X120225758Y-125926576D01*
X120107857Y-125850156D01*
X120040552Y-125830028D01*
X119974046Y-125810138D01*
X119974044Y-125810138D01*
X119973246Y-125809899D01*
X119900470Y-125809455D01*
X119833579Y-125809046D01*
X119833578Y-125809046D01*
X119832747Y-125809041D01*
X119748572Y-125833098D01*
X119698451Y-125847423D01*
X119698450Y-125847424D01*
X119697654Y-125847651D01*
X119578828Y-125922624D01*
X119578280Y-125923245D01*
X119578276Y-125923248D01*
X119529153Y-125978871D01*
X119485821Y-126027935D01*
X119426109Y-126155117D01*
X119404493Y-126293946D01*
X118596449Y-126293946D01*
X118363012Y-125847423D01*
X118153714Y-125447074D01*
X118153518Y-125446678D01*
X117745335Y-124579242D01*
X117745158Y-124578845D01*
X117646415Y-124343946D01*
X118154493Y-124343946D01*
X118172711Y-124483262D01*
X118229297Y-124611864D01*
X118319704Y-124719416D01*
X118320397Y-124719878D01*
X118320399Y-124719879D01*
X118345250Y-124736421D01*
X118436663Y-124797271D01*
X118570772Y-124839169D01*
X118650468Y-124840630D01*
X118710419Y-124841729D01*
X118710421Y-124841729D01*
X118711250Y-124841744D01*
X118846804Y-124804788D01*
X118858645Y-124797518D01*
X118965833Y-124731704D01*
X118965834Y-124731704D01*
X118966538Y-124731271D01*
X119060825Y-124627105D01*
X119122086Y-124500662D01*
X119125153Y-124482435D01*
X119145322Y-124362547D01*
X119145396Y-124362107D01*
X119145527Y-124351383D01*
X119145539Y-124350447D01*
X119145539Y-124350441D01*
X119145544Y-124350000D01*
X119144560Y-124343125D01*
X119125744Y-124211742D01*
X119125626Y-124210917D01*
X119113575Y-124184413D01*
X119067818Y-124083775D01*
X119067816Y-124083773D01*
X119067472Y-124083015D01*
X119063745Y-124078689D01*
X118976303Y-123977209D01*
X118975758Y-123976576D01*
X118857857Y-123900156D01*
X118779756Y-123876799D01*
X118724046Y-123860138D01*
X118724044Y-123860138D01*
X118723246Y-123859899D01*
X118650470Y-123859455D01*
X118583579Y-123859046D01*
X118583578Y-123859046D01*
X118582747Y-123859041D01*
X118498861Y-123883016D01*
X118448451Y-123897423D01*
X118448450Y-123897424D01*
X118447654Y-123897651D01*
X118328828Y-123972624D01*
X118328280Y-123973245D01*
X118328276Y-123973248D01*
X118279153Y-124028871D01*
X118235821Y-124077935D01*
X118176109Y-124205117D01*
X118154493Y-124343946D01*
X117646415Y-124343946D01*
X117373639Y-123695039D01*
X117373465Y-123694598D01*
X117364995Y-123671821D01*
X117179662Y-123173477D01*
X117039309Y-122796077D01*
X117039148Y-122795614D01*
X116794916Y-122043946D01*
X117154493Y-122043946D01*
X117172711Y-122183262D01*
X117229297Y-122311864D01*
X117319704Y-122419416D01*
X117320397Y-122419878D01*
X117320399Y-122419879D01*
X117427616Y-122491249D01*
X117436663Y-122497271D01*
X117570772Y-122539169D01*
X117650468Y-122540630D01*
X117710419Y-122541729D01*
X117710421Y-122541729D01*
X117711250Y-122541744D01*
X117846804Y-122504788D01*
X117858645Y-122497518D01*
X117965833Y-122431704D01*
X117965834Y-122431704D01*
X117966538Y-122431271D01*
X118060825Y-122327105D01*
X118122086Y-122200662D01*
X118125153Y-122182435D01*
X118145322Y-122062547D01*
X118145396Y-122062107D01*
X118145544Y-122050000D01*
X118144560Y-122043125D01*
X118125744Y-121911742D01*
X118125626Y-121910917D01*
X118104528Y-121864514D01*
X118067818Y-121783775D01*
X118067816Y-121783773D01*
X118067472Y-121783015D01*
X118066449Y-121781827D01*
X117976303Y-121677209D01*
X117975758Y-121676576D01*
X117857857Y-121600156D01*
X117790552Y-121580028D01*
X117724046Y-121560138D01*
X117724044Y-121560138D01*
X117723246Y-121559899D01*
X117650470Y-121559455D01*
X117583579Y-121559046D01*
X117583578Y-121559046D01*
X117582747Y-121559041D01*
X117498572Y-121583098D01*
X117448451Y-121597423D01*
X117448450Y-121597424D01*
X117447654Y-121597651D01*
X117328828Y-121672624D01*
X117328280Y-121673245D01*
X117328276Y-121673248D01*
X117297328Y-121708291D01*
X117235821Y-121777935D01*
X117176109Y-121905117D01*
X117154493Y-122043946D01*
X116794916Y-122043946D01*
X116742913Y-121883896D01*
X116742771Y-121883427D01*
X116484970Y-120960087D01*
X116484848Y-120959613D01*
X116445991Y-120793946D01*
X123604493Y-120793946D01*
X123622711Y-120933262D01*
X123623047Y-120934025D01*
X123623047Y-120934026D01*
X123650984Y-120997518D01*
X123679297Y-121061864D01*
X123769704Y-121169416D01*
X123770397Y-121169878D01*
X123770399Y-121169879D01*
X123842749Y-121218039D01*
X123886663Y-121247271D01*
X124020772Y-121289169D01*
X124100468Y-121290630D01*
X124160419Y-121291729D01*
X124160421Y-121291729D01*
X124161250Y-121291744D01*
X124296804Y-121254788D01*
X124308645Y-121247518D01*
X124415833Y-121181704D01*
X124415834Y-121181704D01*
X124416538Y-121181271D01*
X124510825Y-121077105D01*
X124572086Y-120950662D01*
X124575153Y-120932435D01*
X124595322Y-120812547D01*
X124595396Y-120812107D01*
X124595544Y-120800000D01*
X124594678Y-120793946D01*
X125704493Y-120793946D01*
X125722711Y-120933262D01*
X125723047Y-120934025D01*
X125723047Y-120934026D01*
X125750984Y-120997518D01*
X125779297Y-121061864D01*
X125869704Y-121169416D01*
X125870397Y-121169878D01*
X125870399Y-121169879D01*
X125942749Y-121218039D01*
X125986663Y-121247271D01*
X126120772Y-121289169D01*
X126200468Y-121290630D01*
X126260419Y-121291729D01*
X126260421Y-121291729D01*
X126261250Y-121291744D01*
X126396804Y-121254788D01*
X126408645Y-121247518D01*
X126515833Y-121181704D01*
X126515834Y-121181704D01*
X126516538Y-121181271D01*
X126610825Y-121077105D01*
X126672086Y-120950662D01*
X126675153Y-120932435D01*
X126695322Y-120812547D01*
X126695396Y-120812107D01*
X126695544Y-120800000D01*
X126694560Y-120793125D01*
X126678826Y-120683262D01*
X126675626Y-120660917D01*
X126672645Y-120654361D01*
X126617818Y-120533775D01*
X126617816Y-120533773D01*
X126617472Y-120533015D01*
X126613745Y-120528689D01*
X126526303Y-120427209D01*
X126525758Y-120426576D01*
X126407857Y-120350156D01*
X126340551Y-120330027D01*
X126274046Y-120310138D01*
X126274044Y-120310138D01*
X126273246Y-120309899D01*
X126200470Y-120309455D01*
X126133579Y-120309046D01*
X126133578Y-120309046D01*
X126132747Y-120309041D01*
X126048572Y-120333098D01*
X125998451Y-120347423D01*
X125998450Y-120347424D01*
X125997654Y-120347651D01*
X125878828Y-120422624D01*
X125878280Y-120423245D01*
X125878276Y-120423248D01*
X125829153Y-120478871D01*
X125785821Y-120527935D01*
X125726109Y-120655117D01*
X125704493Y-120793946D01*
X124594678Y-120793946D01*
X124594560Y-120793125D01*
X124578826Y-120683262D01*
X124575626Y-120660917D01*
X124572645Y-120654361D01*
X124517818Y-120533775D01*
X124517816Y-120533773D01*
X124517472Y-120533015D01*
X124513745Y-120528689D01*
X124426303Y-120427209D01*
X124425758Y-120426576D01*
X124307857Y-120350156D01*
X124240551Y-120330027D01*
X124174046Y-120310138D01*
X124174044Y-120310138D01*
X124173246Y-120309899D01*
X124100470Y-120309455D01*
X124033579Y-120309046D01*
X124033578Y-120309046D01*
X124032747Y-120309041D01*
X123948572Y-120333098D01*
X123898451Y-120347423D01*
X123898450Y-120347424D01*
X123897654Y-120347651D01*
X123778828Y-120422624D01*
X123778280Y-120423245D01*
X123778276Y-120423248D01*
X123729153Y-120478871D01*
X123685821Y-120527935D01*
X123626109Y-120655117D01*
X123604493Y-120793946D01*
X116445991Y-120793946D01*
X116265937Y-120026283D01*
X116265835Y-120025803D01*
X116086199Y-119084117D01*
X116086118Y-119083634D01*
X116080257Y-119043946D01*
X116504493Y-119043946D01*
X116522711Y-119183262D01*
X116523047Y-119184025D01*
X116523047Y-119184026D01*
X116528680Y-119196827D01*
X116579297Y-119311864D01*
X116669704Y-119419416D01*
X116670397Y-119419878D01*
X116670399Y-119419879D01*
X116694533Y-119435944D01*
X116786663Y-119497271D01*
X116920772Y-119539169D01*
X117000468Y-119540630D01*
X117060419Y-119541729D01*
X117060421Y-119541729D01*
X117061250Y-119541744D01*
X117196804Y-119504788D01*
X117206246Y-119498991D01*
X117315833Y-119431704D01*
X117315834Y-119431704D01*
X117316538Y-119431271D01*
X117317681Y-119430009D01*
X117363743Y-119379120D01*
X117410825Y-119327105D01*
X117412092Y-119324491D01*
X117436316Y-119274491D01*
X117472086Y-119200662D01*
X117472842Y-119196172D01*
X117495322Y-119062547D01*
X117495396Y-119062107D01*
X117495544Y-119050000D01*
X117494560Y-119043125D01*
X117475744Y-118911742D01*
X117475626Y-118910917D01*
X117417472Y-118783015D01*
X117413745Y-118778689D01*
X117326303Y-118677209D01*
X117325758Y-118676576D01*
X117207857Y-118600156D01*
X117083368Y-118562926D01*
X117074046Y-118560138D01*
X117074044Y-118560138D01*
X117073246Y-118559899D01*
X117000470Y-118559455D01*
X116933579Y-118559046D01*
X116933578Y-118559046D01*
X116932747Y-118559041D01*
X116848572Y-118583098D01*
X116798451Y-118597423D01*
X116798450Y-118597424D01*
X116797654Y-118597651D01*
X116678828Y-118672624D01*
X116678280Y-118673245D01*
X116678276Y-118673248D01*
X116636943Y-118720050D01*
X116585821Y-118777935D01*
X116526109Y-118905117D01*
X116504493Y-119043946D01*
X116080257Y-119043946D01*
X115946079Y-118135296D01*
X115946017Y-118134810D01*
X115845810Y-117181396D01*
X115845769Y-117180908D01*
X115796639Y-116400000D01*
X119249170Y-116400000D01*
X119270328Y-116519991D01*
X119331249Y-116625509D01*
X119424585Y-116703828D01*
X119539079Y-116745500D01*
X119660921Y-116745500D01*
X119775415Y-116703828D01*
X119868751Y-116625509D01*
X119929672Y-116519991D01*
X119950830Y-116400000D01*
X119929672Y-116280009D01*
X119897413Y-116224134D01*
X119869263Y-116175378D01*
X119868751Y-116174491D01*
X119775415Y-116096172D01*
X119660921Y-116054500D01*
X119539079Y-116054500D01*
X119424585Y-116096172D01*
X119331249Y-116174491D01*
X119330737Y-116175378D01*
X119302588Y-116224134D01*
X119270328Y-116280009D01*
X119249170Y-116400000D01*
X115796639Y-116400000D01*
X115785574Y-116224134D01*
X115785554Y-116223644D01*
X115769790Y-115471118D01*
X129580884Y-115471118D01*
X129580895Y-115471316D01*
X129612990Y-116054500D01*
X129613122Y-116056905D01*
X129683094Y-116639391D01*
X129702916Y-116745823D01*
X129784039Y-117181396D01*
X129790511Y-117216148D01*
X129790557Y-117216331D01*
X129790559Y-117216338D01*
X129833928Y-117387103D01*
X129934922Y-117784770D01*
X130115728Y-118342888D01*
X130217752Y-118599917D01*
X130320618Y-118859066D01*
X130332172Y-118888175D01*
X130332247Y-118888334D01*
X130332253Y-118888347D01*
X130583271Y-119418181D01*
X130583279Y-119418196D01*
X130583355Y-119418357D01*
X130583444Y-119418518D01*
X130583447Y-119418523D01*
X130868138Y-119931065D01*
X130868146Y-119931078D01*
X130868228Y-119931226D01*
X130868329Y-119931383D01*
X131184306Y-120422624D01*
X131185603Y-120424641D01*
X131185710Y-120424786D01*
X131185717Y-120424796D01*
X131472084Y-120812505D01*
X131534159Y-120896547D01*
X131912441Y-121344977D01*
X131912573Y-121345114D01*
X131912578Y-121345120D01*
X132318743Y-121767926D01*
X132318872Y-121768060D01*
X132751759Y-122164034D01*
X133209297Y-122531246D01*
X133224262Y-122541744D01*
X133689422Y-122868059D01*
X133689431Y-122868065D01*
X133689578Y-122868168D01*
X134190601Y-123173394D01*
X134710276Y-123445651D01*
X134710445Y-123445726D01*
X134710449Y-123445728D01*
X135246283Y-123683737D01*
X135246294Y-123683741D01*
X135246437Y-123683805D01*
X135246581Y-123683858D01*
X135246593Y-123683863D01*
X135359125Y-123725378D01*
X135796849Y-123886863D01*
X135797024Y-123886915D01*
X135797027Y-123886916D01*
X136359039Y-124053925D01*
X136359045Y-124053926D01*
X136359218Y-124053978D01*
X136359392Y-124054018D01*
X136359397Y-124054019D01*
X136760336Y-124145478D01*
X136931199Y-124184454D01*
X136931367Y-124184481D01*
X136931382Y-124184484D01*
X137286741Y-124241720D01*
X137510408Y-124277746D01*
X138094430Y-124333467D01*
X138680830Y-124351383D01*
X139267164Y-124331420D01*
X139850988Y-124273661D01*
X140429867Y-124178347D01*
X141001389Y-124045876D01*
X141001563Y-124045824D01*
X141001573Y-124045821D01*
X141319951Y-123950000D01*
X154149170Y-123950000D01*
X154170328Y-124069991D01*
X154231249Y-124175509D01*
X154324585Y-124253828D01*
X154439079Y-124295500D01*
X154560921Y-124295500D01*
X154675415Y-124253828D01*
X154768751Y-124175509D01*
X154829672Y-124069991D01*
X154850830Y-123950000D01*
X154829672Y-123830009D01*
X154827750Y-123826679D01*
X154769263Y-123725378D01*
X154768751Y-123724491D01*
X154675415Y-123646172D01*
X154560921Y-123604500D01*
X154439079Y-123604500D01*
X154324585Y-123646172D01*
X154231249Y-123724491D01*
X154230737Y-123725378D01*
X154172251Y-123826679D01*
X154170328Y-123830009D01*
X154149170Y-123950000D01*
X141319951Y-123950000D01*
X141562998Y-123876851D01*
X141563171Y-123876799D01*
X141563331Y-123876739D01*
X141563341Y-123876736D01*
X142112707Y-123671882D01*
X142112871Y-123671821D01*
X142170855Y-123645823D01*
X142577276Y-123463596D01*
X142648198Y-123431797D01*
X143102746Y-123191634D01*
X143166763Y-123157810D01*
X143166764Y-123157809D01*
X143166920Y-123157727D01*
X143666874Y-122850754D01*
X144107735Y-122539184D01*
X144145832Y-122512260D01*
X144145836Y-122512257D01*
X144145976Y-122512158D01*
X144477937Y-122243821D01*
X144602081Y-122143471D01*
X144602087Y-122143465D01*
X144602229Y-122143351D01*
X144725970Y-122029365D01*
X145033598Y-121745991D01*
X145033606Y-121745983D01*
X145033731Y-121745868D01*
X145438684Y-121321369D01*
X145463511Y-121291729D01*
X145540345Y-121200000D01*
X151974556Y-121200000D01*
X151974734Y-121201009D01*
X151990731Y-121291729D01*
X151994183Y-121311308D01*
X152050695Y-121409191D01*
X152051474Y-121409845D01*
X152051476Y-121409847D01*
X152099877Y-121450460D01*
X152137278Y-121481843D01*
X152243487Y-121520500D01*
X152356513Y-121520500D01*
X152462722Y-121481843D01*
X152542478Y-121414919D01*
X152551020Y-121412227D01*
X152557522Y-121414919D01*
X152637278Y-121481843D01*
X152743487Y-121520500D01*
X152856513Y-121520500D01*
X152962722Y-121481843D01*
X153042478Y-121414919D01*
X153051020Y-121412227D01*
X153057522Y-121414919D01*
X153137278Y-121481843D01*
X153243487Y-121520500D01*
X153356513Y-121520500D01*
X153462722Y-121481843D01*
X153542478Y-121414919D01*
X153551020Y-121412227D01*
X153557522Y-121414919D01*
X153637278Y-121481843D01*
X153743487Y-121520500D01*
X153856513Y-121520500D01*
X153962722Y-121481843D01*
X154043282Y-121414245D01*
X154051822Y-121411553D01*
X154058322Y-121414245D01*
X154136853Y-121480140D01*
X154243062Y-121518797D01*
X154356088Y-121518797D01*
X154462297Y-121480140D01*
X154540024Y-121414919D01*
X154541252Y-121413889D01*
X154549793Y-121411197D01*
X154556294Y-121413889D01*
X154637278Y-121481843D01*
X154743487Y-121520500D01*
X154856513Y-121520500D01*
X154915652Y-121498975D01*
X154962443Y-121481945D01*
X154971390Y-121482335D01*
X154977439Y-121488937D01*
X154977967Y-121494971D01*
X154977083Y-121499984D01*
X154977261Y-121500993D01*
X154994305Y-121597651D01*
X154996710Y-121611292D01*
X155053222Y-121709175D01*
X155054001Y-121709829D01*
X155054003Y-121709831D01*
X155096801Y-121745742D01*
X155139805Y-121781827D01*
X155246014Y-121820484D01*
X155359040Y-121820484D01*
X155465249Y-121781827D01*
X155508253Y-121745742D01*
X155551051Y-121709831D01*
X155551053Y-121709829D01*
X155551832Y-121709175D01*
X155608344Y-121611292D01*
X155610750Y-121597651D01*
X155627793Y-121500993D01*
X155627971Y-121499984D01*
X155617329Y-121439630D01*
X155608522Y-121389684D01*
X155608521Y-121389683D01*
X155608344Y-121388676D01*
X155551832Y-121290793D01*
X155551053Y-121290139D01*
X155551051Y-121290137D01*
X155485858Y-121235434D01*
X155465249Y-121218141D01*
X155415407Y-121200000D01*
X155574556Y-121200000D01*
X155574734Y-121201009D01*
X155590731Y-121291729D01*
X155594183Y-121311308D01*
X155650695Y-121409191D01*
X155651474Y-121409845D01*
X155651476Y-121409847D01*
X155699877Y-121450460D01*
X155737278Y-121481843D01*
X155843487Y-121520500D01*
X155956513Y-121520500D01*
X156062722Y-121481843D01*
X156100123Y-121450460D01*
X156148524Y-121409847D01*
X156148526Y-121409845D01*
X156149305Y-121409191D01*
X156205817Y-121311308D01*
X156209270Y-121291729D01*
X156225266Y-121201009D01*
X156225444Y-121200000D01*
X156205817Y-121088692D01*
X156149305Y-120990809D01*
X156148526Y-120990155D01*
X156148524Y-120990153D01*
X156080723Y-120933262D01*
X156062722Y-120918157D01*
X155956513Y-120879500D01*
X155843487Y-120879500D01*
X155737278Y-120918157D01*
X155719277Y-120933262D01*
X155651476Y-120990153D01*
X155651474Y-120990155D01*
X155650695Y-120990809D01*
X155594183Y-121088692D01*
X155574556Y-121200000D01*
X155415407Y-121200000D01*
X155359040Y-121179484D01*
X155246014Y-121179484D01*
X155192419Y-121198991D01*
X155140084Y-121218039D01*
X155131137Y-121217649D01*
X155125088Y-121211047D01*
X155124560Y-121205013D01*
X155125266Y-121201009D01*
X155125444Y-121200000D01*
X155105817Y-121088692D01*
X155049305Y-120990809D01*
X155048526Y-120990155D01*
X155048524Y-120990153D01*
X154980723Y-120933262D01*
X154962722Y-120918157D01*
X154856513Y-120879500D01*
X154743487Y-120879500D01*
X154637278Y-120918157D01*
X154619277Y-120933262D01*
X154558323Y-120984408D01*
X154549782Y-120987100D01*
X154543281Y-120984408D01*
X154542857Y-120984052D01*
X154462297Y-120916454D01*
X154356088Y-120877797D01*
X154243062Y-120877797D01*
X154136853Y-120916454D01*
X154056293Y-120984052D01*
X154047753Y-120986744D01*
X154041252Y-120984052D01*
X154012692Y-120960087D01*
X153962722Y-120918157D01*
X153856513Y-120879500D01*
X153743487Y-120879500D01*
X153637278Y-120918157D01*
X153598540Y-120950662D01*
X153557521Y-120985081D01*
X153548980Y-120987773D01*
X153542479Y-120985081D01*
X153501460Y-120950662D01*
X153462722Y-120918157D01*
X153356513Y-120879500D01*
X153243487Y-120879500D01*
X153137278Y-120918157D01*
X153098540Y-120950662D01*
X153057521Y-120985081D01*
X153048980Y-120987773D01*
X153042479Y-120985081D01*
X153001460Y-120950662D01*
X152962722Y-120918157D01*
X152856513Y-120879500D01*
X152743487Y-120879500D01*
X152637278Y-120918157D01*
X152598540Y-120950662D01*
X152557521Y-120985081D01*
X152548980Y-120987773D01*
X152542479Y-120985081D01*
X152501460Y-120950662D01*
X152462722Y-120918157D01*
X152356513Y-120879500D01*
X152243487Y-120879500D01*
X152137278Y-120918157D01*
X152119277Y-120933262D01*
X152051476Y-120990153D01*
X152051474Y-120990155D01*
X152050695Y-120990809D01*
X151994183Y-121088692D01*
X151974556Y-121200000D01*
X145540345Y-121200000D01*
X145815278Y-120871766D01*
X145815286Y-120871755D01*
X145815398Y-120871622D01*
X146055660Y-120543946D01*
X158654493Y-120543946D01*
X158672711Y-120683262D01*
X158729297Y-120811864D01*
X158742629Y-120827724D01*
X158800481Y-120896547D01*
X158819704Y-120919416D01*
X158820397Y-120919878D01*
X158820399Y-120919879D01*
X158917339Y-120984408D01*
X158936663Y-120997271D01*
X159070772Y-121039169D01*
X159150468Y-121040630D01*
X159210419Y-121041729D01*
X159210421Y-121041729D01*
X159211250Y-121041744D01*
X159346804Y-121004788D01*
X159358645Y-120997518D01*
X159465833Y-120931704D01*
X159465834Y-120931704D01*
X159466538Y-120931271D01*
X159477816Y-120918812D01*
X159514623Y-120878148D01*
X159560825Y-120827105D01*
X159568092Y-120812107D01*
X159577288Y-120793125D01*
X159622086Y-120700662D01*
X159625153Y-120682435D01*
X159645322Y-120562547D01*
X159645396Y-120562107D01*
X159645544Y-120550000D01*
X159644560Y-120543125D01*
X159627959Y-120427209D01*
X159625626Y-120410917D01*
X159619901Y-120398325D01*
X159567818Y-120283775D01*
X159567816Y-120283773D01*
X159567472Y-120283015D01*
X159563745Y-120278689D01*
X159476303Y-120177209D01*
X159475758Y-120176576D01*
X159357857Y-120100156D01*
X159275894Y-120075644D01*
X159224046Y-120060138D01*
X159224044Y-120060138D01*
X159223246Y-120059899D01*
X159150470Y-120059455D01*
X159083579Y-120059046D01*
X159083578Y-120059046D01*
X159082747Y-120059041D01*
X159024655Y-120075644D01*
X158948451Y-120097423D01*
X158948450Y-120097424D01*
X158947654Y-120097651D01*
X158828828Y-120172624D01*
X158828280Y-120173245D01*
X158828276Y-120173248D01*
X158779153Y-120228871D01*
X158735821Y-120277935D01*
X158676109Y-120405117D01*
X158654493Y-120543946D01*
X146055660Y-120543946D01*
X146162304Y-120398502D01*
X146477955Y-119903981D01*
X146482821Y-119895149D01*
X146700505Y-119500000D01*
X151649170Y-119500000D01*
X151670328Y-119619991D01*
X151670841Y-119620879D01*
X151670841Y-119620880D01*
X151699709Y-119670880D01*
X151731249Y-119725509D01*
X151824585Y-119803828D01*
X151939079Y-119845500D01*
X152060921Y-119845500D01*
X152175415Y-119803828D01*
X152268751Y-119725509D01*
X152300291Y-119670880D01*
X152329159Y-119620880D01*
X152329159Y-119620879D01*
X152329672Y-119619991D01*
X152342014Y-119550000D01*
X155299170Y-119550000D01*
X155320328Y-119669991D01*
X155381249Y-119775509D01*
X155474585Y-119853828D01*
X155589079Y-119895500D01*
X155710921Y-119895500D01*
X155825415Y-119853828D01*
X155918751Y-119775509D01*
X155979672Y-119669991D01*
X156000830Y-119550000D01*
X155979672Y-119430009D01*
X155973824Y-119419879D01*
X155936911Y-119355945D01*
X155918751Y-119324491D01*
X155825415Y-119246172D01*
X155710921Y-119204500D01*
X155589079Y-119204500D01*
X155474585Y-119246172D01*
X155381249Y-119324491D01*
X155363089Y-119355945D01*
X155326177Y-119419879D01*
X155320328Y-119430009D01*
X155299170Y-119550000D01*
X152342014Y-119550000D01*
X152350830Y-119500000D01*
X152329672Y-119380009D01*
X152268751Y-119274491D01*
X152175415Y-119196172D01*
X152060921Y-119154500D01*
X151939079Y-119154500D01*
X151824585Y-119196172D01*
X151731249Y-119274491D01*
X151670328Y-119380009D01*
X151649170Y-119500000D01*
X146700505Y-119500000D01*
X146738706Y-119430657D01*
X146761036Y-119390122D01*
X146986022Y-118910917D01*
X147010285Y-118859239D01*
X147010287Y-118859233D01*
X147010366Y-118859066D01*
X147158185Y-118482843D01*
X151088832Y-118482843D01*
X151089514Y-118484489D01*
X151091060Y-118486035D01*
X151092530Y-118487103D01*
X151189676Y-118536601D01*
X151191406Y-118537163D01*
X151299091Y-118554219D01*
X151300909Y-118554219D01*
X151408594Y-118537163D01*
X151410324Y-118536601D01*
X151507470Y-118487103D01*
X151508940Y-118486035D01*
X151510486Y-118484489D01*
X151511168Y-118482843D01*
X152188832Y-118482843D01*
X152189514Y-118484489D01*
X152191060Y-118486035D01*
X152192530Y-118487103D01*
X152289676Y-118536601D01*
X152291406Y-118537163D01*
X152399091Y-118554219D01*
X152400909Y-118554219D01*
X152508594Y-118537163D01*
X152510324Y-118536601D01*
X152607470Y-118487103D01*
X152608940Y-118486035D01*
X152610486Y-118484489D01*
X152611168Y-118482843D01*
X153288832Y-118482843D01*
X153289514Y-118484489D01*
X153291060Y-118486035D01*
X153292530Y-118487103D01*
X153389676Y-118536601D01*
X153391406Y-118537163D01*
X153499091Y-118554219D01*
X153500909Y-118554219D01*
X153608594Y-118537163D01*
X153610324Y-118536601D01*
X153707470Y-118487103D01*
X153708940Y-118486035D01*
X153710486Y-118484489D01*
X153711168Y-118482843D01*
X154388832Y-118482843D01*
X154389514Y-118484489D01*
X154391060Y-118486035D01*
X154392530Y-118487103D01*
X154489676Y-118536601D01*
X154491406Y-118537163D01*
X154599091Y-118554219D01*
X154600909Y-118554219D01*
X154708594Y-118537163D01*
X154710324Y-118536601D01*
X154807470Y-118487103D01*
X154808940Y-118486035D01*
X154810486Y-118484489D01*
X154811168Y-118482843D01*
X155488832Y-118482843D01*
X155489514Y-118484489D01*
X155491060Y-118486035D01*
X155492530Y-118487103D01*
X155589676Y-118536601D01*
X155591406Y-118537163D01*
X155699091Y-118554219D01*
X155700909Y-118554219D01*
X155808594Y-118537163D01*
X155810324Y-118536601D01*
X155907470Y-118487103D01*
X155908940Y-118486035D01*
X155910486Y-118484489D01*
X155911168Y-118482843D01*
X156588832Y-118482843D01*
X156589514Y-118484489D01*
X156591060Y-118486035D01*
X156592530Y-118487103D01*
X156689676Y-118536601D01*
X156691406Y-118537163D01*
X156799091Y-118554219D01*
X156800909Y-118554219D01*
X156908594Y-118537163D01*
X156910324Y-118536601D01*
X157007470Y-118487103D01*
X157008940Y-118486035D01*
X157010486Y-118484489D01*
X157011168Y-118482843D01*
X157010486Y-118481197D01*
X156801646Y-118272357D01*
X156800000Y-118271675D01*
X156798354Y-118272357D01*
X156589514Y-118481197D01*
X156588832Y-118482843D01*
X155911168Y-118482843D01*
X155910486Y-118481197D01*
X155701646Y-118272357D01*
X155700000Y-118271675D01*
X155698354Y-118272357D01*
X155489514Y-118481197D01*
X155488832Y-118482843D01*
X154811168Y-118482843D01*
X154810486Y-118481197D01*
X154601646Y-118272357D01*
X154600000Y-118271675D01*
X154598354Y-118272357D01*
X154389514Y-118481197D01*
X154388832Y-118482843D01*
X153711168Y-118482843D01*
X153710486Y-118481197D01*
X153501646Y-118272357D01*
X153500000Y-118271675D01*
X153498354Y-118272357D01*
X153289514Y-118481197D01*
X153288832Y-118482843D01*
X152611168Y-118482843D01*
X152610486Y-118481197D01*
X152401646Y-118272357D01*
X152400000Y-118271675D01*
X152398354Y-118272357D01*
X152189514Y-118481197D01*
X152188832Y-118482843D01*
X151511168Y-118482843D01*
X151510486Y-118481197D01*
X151301646Y-118272357D01*
X151300000Y-118271675D01*
X151298354Y-118272357D01*
X151089514Y-118481197D01*
X151088832Y-118482843D01*
X147158185Y-118482843D01*
X147224906Y-118313027D01*
X147260795Y-118200909D01*
X150945781Y-118200909D01*
X150962837Y-118308594D01*
X150963399Y-118310324D01*
X151012897Y-118407470D01*
X151013965Y-118408940D01*
X151015511Y-118410486D01*
X151017157Y-118411168D01*
X151018803Y-118410486D01*
X151227643Y-118201646D01*
X151228325Y-118200000D01*
X151371675Y-118200000D01*
X151372357Y-118201646D01*
X151581197Y-118410486D01*
X151582843Y-118411168D01*
X151584489Y-118410486D01*
X151586035Y-118408940D01*
X151587103Y-118407470D01*
X151636601Y-118310324D01*
X151637163Y-118308594D01*
X151654219Y-118200909D01*
X152045781Y-118200909D01*
X152062837Y-118308594D01*
X152063399Y-118310324D01*
X152112897Y-118407470D01*
X152113965Y-118408940D01*
X152115511Y-118410486D01*
X152117157Y-118411168D01*
X152118803Y-118410486D01*
X152327643Y-118201646D01*
X152328325Y-118200000D01*
X152471675Y-118200000D01*
X152472357Y-118201646D01*
X152681197Y-118410486D01*
X152682843Y-118411168D01*
X152684489Y-118410486D01*
X152686035Y-118408940D01*
X152687103Y-118407470D01*
X152736601Y-118310324D01*
X152737163Y-118308594D01*
X152754219Y-118200909D01*
X153145781Y-118200909D01*
X153162837Y-118308594D01*
X153163399Y-118310324D01*
X153212897Y-118407470D01*
X153213965Y-118408940D01*
X153215511Y-118410486D01*
X153217157Y-118411168D01*
X153218803Y-118410486D01*
X153427643Y-118201646D01*
X153428325Y-118200000D01*
X153571675Y-118200000D01*
X153572357Y-118201646D01*
X153781197Y-118410486D01*
X153782843Y-118411168D01*
X153784489Y-118410486D01*
X153786035Y-118408940D01*
X153787103Y-118407470D01*
X153836601Y-118310324D01*
X153837163Y-118308594D01*
X153854219Y-118200909D01*
X154245781Y-118200909D01*
X154262837Y-118308594D01*
X154263399Y-118310324D01*
X154312897Y-118407470D01*
X154313965Y-118408940D01*
X154315511Y-118410486D01*
X154317157Y-118411168D01*
X154318803Y-118410486D01*
X154527643Y-118201646D01*
X154528325Y-118200000D01*
X154671675Y-118200000D01*
X154672357Y-118201646D01*
X154881197Y-118410486D01*
X154882843Y-118411168D01*
X154884489Y-118410486D01*
X154886035Y-118408940D01*
X154887103Y-118407470D01*
X154936601Y-118310324D01*
X154937163Y-118308594D01*
X154954219Y-118200909D01*
X155345781Y-118200909D01*
X155362837Y-118308594D01*
X155363399Y-118310324D01*
X155412897Y-118407470D01*
X155413965Y-118408940D01*
X155415511Y-118410486D01*
X155417157Y-118411168D01*
X155418803Y-118410486D01*
X155627643Y-118201646D01*
X155628325Y-118200000D01*
X155771675Y-118200000D01*
X155772357Y-118201646D01*
X155981197Y-118410486D01*
X155982843Y-118411168D01*
X155984489Y-118410486D01*
X155986035Y-118408940D01*
X155987103Y-118407470D01*
X156036601Y-118310324D01*
X156037163Y-118308594D01*
X156054219Y-118200909D01*
X156445781Y-118200909D01*
X156462837Y-118308594D01*
X156463399Y-118310324D01*
X156512897Y-118407470D01*
X156513965Y-118408940D01*
X156515511Y-118410486D01*
X156517157Y-118411168D01*
X156518803Y-118410486D01*
X156727643Y-118201646D01*
X156728325Y-118200000D01*
X156871675Y-118200000D01*
X156872357Y-118201646D01*
X157081197Y-118410486D01*
X157082843Y-118411168D01*
X157084489Y-118410486D01*
X157086035Y-118408940D01*
X157087103Y-118407470D01*
X157136601Y-118310324D01*
X157137163Y-118308594D01*
X157154219Y-118200909D01*
X157154219Y-118199091D01*
X157137163Y-118091406D01*
X157136601Y-118089676D01*
X157087103Y-117992530D01*
X157086035Y-117991060D01*
X157084489Y-117989514D01*
X157082843Y-117988832D01*
X157081197Y-117989514D01*
X156872357Y-118198354D01*
X156871675Y-118200000D01*
X156728325Y-118200000D01*
X156727643Y-118198354D01*
X156518803Y-117989514D01*
X156517157Y-117988832D01*
X156515511Y-117989514D01*
X156513965Y-117991060D01*
X156512897Y-117992530D01*
X156463399Y-118089676D01*
X156462837Y-118091406D01*
X156445781Y-118199091D01*
X156445781Y-118200909D01*
X156054219Y-118200909D01*
X156054219Y-118199091D01*
X156037163Y-118091406D01*
X156036601Y-118089676D01*
X155987103Y-117992530D01*
X155986035Y-117991060D01*
X155984489Y-117989514D01*
X155982843Y-117988832D01*
X155981197Y-117989514D01*
X155772357Y-118198354D01*
X155771675Y-118200000D01*
X155628325Y-118200000D01*
X155627643Y-118198354D01*
X155418803Y-117989514D01*
X155417157Y-117988832D01*
X155415511Y-117989514D01*
X155413965Y-117991060D01*
X155412897Y-117992530D01*
X155363399Y-118089676D01*
X155362837Y-118091406D01*
X155345781Y-118199091D01*
X155345781Y-118200909D01*
X154954219Y-118200909D01*
X154954219Y-118199091D01*
X154937163Y-118091406D01*
X154936601Y-118089676D01*
X154887103Y-117992530D01*
X154886035Y-117991060D01*
X154884489Y-117989514D01*
X154882843Y-117988832D01*
X154881197Y-117989514D01*
X154672357Y-118198354D01*
X154671675Y-118200000D01*
X154528325Y-118200000D01*
X154527643Y-118198354D01*
X154318803Y-117989514D01*
X154317157Y-117988832D01*
X154315511Y-117989514D01*
X154313965Y-117991060D01*
X154312897Y-117992530D01*
X154263399Y-118089676D01*
X154262837Y-118091406D01*
X154245781Y-118199091D01*
X154245781Y-118200909D01*
X153854219Y-118200909D01*
X153854219Y-118199091D01*
X153837163Y-118091406D01*
X153836601Y-118089676D01*
X153787103Y-117992530D01*
X153786035Y-117991060D01*
X153784489Y-117989514D01*
X153782843Y-117988832D01*
X153781197Y-117989514D01*
X153572357Y-118198354D01*
X153571675Y-118200000D01*
X153428325Y-118200000D01*
X153427643Y-118198354D01*
X153218803Y-117989514D01*
X153217157Y-117988832D01*
X153215511Y-117989514D01*
X153213965Y-117991060D01*
X153212897Y-117992530D01*
X153163399Y-118089676D01*
X153162837Y-118091406D01*
X153145781Y-118199091D01*
X153145781Y-118200909D01*
X152754219Y-118200909D01*
X152754219Y-118199091D01*
X152737163Y-118091406D01*
X152736601Y-118089676D01*
X152687103Y-117992530D01*
X152686035Y-117991060D01*
X152684489Y-117989514D01*
X152682843Y-117988832D01*
X152681197Y-117989514D01*
X152472357Y-118198354D01*
X152471675Y-118200000D01*
X152328325Y-118200000D01*
X152327643Y-118198354D01*
X152118803Y-117989514D01*
X152117157Y-117988832D01*
X152115511Y-117989514D01*
X152113965Y-117991060D01*
X152112897Y-117992530D01*
X152063399Y-118089676D01*
X152062837Y-118091406D01*
X152045781Y-118199091D01*
X152045781Y-118200909D01*
X151654219Y-118200909D01*
X151654219Y-118199091D01*
X151637163Y-118091406D01*
X151636601Y-118089676D01*
X151587103Y-117992530D01*
X151586035Y-117991060D01*
X151584489Y-117989514D01*
X151582843Y-117988832D01*
X151581197Y-117989514D01*
X151372357Y-118198354D01*
X151371675Y-118200000D01*
X151228325Y-118200000D01*
X151227643Y-118198354D01*
X151018803Y-117989514D01*
X151017157Y-117988832D01*
X151015511Y-117989514D01*
X151013965Y-117991060D01*
X151012897Y-117992530D01*
X150963399Y-118089676D01*
X150962837Y-118091406D01*
X150945781Y-118199091D01*
X150945781Y-118200909D01*
X147260795Y-118200909D01*
X147281798Y-118135296D01*
X147351625Y-117917157D01*
X151088832Y-117917157D01*
X151089514Y-117918803D01*
X151298354Y-118127643D01*
X151300000Y-118128325D01*
X151301646Y-118127643D01*
X151510486Y-117918803D01*
X151511168Y-117917157D01*
X152188832Y-117917157D01*
X152189514Y-117918803D01*
X152398354Y-118127643D01*
X152400000Y-118128325D01*
X152401646Y-118127643D01*
X152610486Y-117918803D01*
X152611168Y-117917157D01*
X153288832Y-117917157D01*
X153289514Y-117918803D01*
X153498354Y-118127643D01*
X153500000Y-118128325D01*
X153501646Y-118127643D01*
X153710486Y-117918803D01*
X153711168Y-117917157D01*
X154388832Y-117917157D01*
X154389514Y-117918803D01*
X154598354Y-118127643D01*
X154600000Y-118128325D01*
X154601646Y-118127643D01*
X154810486Y-117918803D01*
X154811168Y-117917157D01*
X155488832Y-117917157D01*
X155489514Y-117918803D01*
X155698354Y-118127643D01*
X155700000Y-118128325D01*
X155701646Y-118127643D01*
X155910486Y-117918803D01*
X155911168Y-117917157D01*
X156588832Y-117917157D01*
X156589514Y-117918803D01*
X156798354Y-118127643D01*
X156800000Y-118128325D01*
X156801646Y-118127643D01*
X157010486Y-117918803D01*
X157011168Y-117917157D01*
X157010486Y-117915511D01*
X157008940Y-117913965D01*
X157007470Y-117912897D01*
X156910324Y-117863399D01*
X156908594Y-117862837D01*
X156800909Y-117845781D01*
X156799091Y-117845781D01*
X156691406Y-117862837D01*
X156689676Y-117863399D01*
X156592530Y-117912897D01*
X156591060Y-117913965D01*
X156589514Y-117915511D01*
X156588832Y-117917157D01*
X155911168Y-117917157D01*
X155910486Y-117915511D01*
X155908940Y-117913965D01*
X155907470Y-117912897D01*
X155810324Y-117863399D01*
X155808594Y-117862837D01*
X155700909Y-117845781D01*
X155699091Y-117845781D01*
X155591406Y-117862837D01*
X155589676Y-117863399D01*
X155492530Y-117912897D01*
X155491060Y-117913965D01*
X155489514Y-117915511D01*
X155488832Y-117917157D01*
X154811168Y-117917157D01*
X154810486Y-117915511D01*
X154808940Y-117913965D01*
X154807470Y-117912897D01*
X154710324Y-117863399D01*
X154708594Y-117862837D01*
X154600909Y-117845781D01*
X154599091Y-117845781D01*
X154491406Y-117862837D01*
X154489676Y-117863399D01*
X154392530Y-117912897D01*
X154391060Y-117913965D01*
X154389514Y-117915511D01*
X154388832Y-117917157D01*
X153711168Y-117917157D01*
X153710486Y-117915511D01*
X153708940Y-117913965D01*
X153707470Y-117912897D01*
X153610324Y-117863399D01*
X153608594Y-117862837D01*
X153500909Y-117845781D01*
X153499091Y-117845781D01*
X153391406Y-117862837D01*
X153389676Y-117863399D01*
X153292530Y-117912897D01*
X153291060Y-117913965D01*
X153289514Y-117915511D01*
X153288832Y-117917157D01*
X152611168Y-117917157D01*
X152610486Y-117915511D01*
X152608940Y-117913965D01*
X152607470Y-117912897D01*
X152510324Y-117863399D01*
X152508594Y-117862837D01*
X152400909Y-117845781D01*
X152399091Y-117845781D01*
X152291406Y-117862837D01*
X152289676Y-117863399D01*
X152192530Y-117912897D01*
X152191060Y-117913965D01*
X152189514Y-117915511D01*
X152188832Y-117917157D01*
X151511168Y-117917157D01*
X151510486Y-117915511D01*
X151508940Y-117913965D01*
X151507470Y-117912897D01*
X151410324Y-117863399D01*
X151408594Y-117862837D01*
X151300909Y-117845781D01*
X151299091Y-117845781D01*
X151191406Y-117862837D01*
X151189676Y-117863399D01*
X151092530Y-117912897D01*
X151091060Y-117913965D01*
X151089514Y-117915511D01*
X151088832Y-117917157D01*
X147351625Y-117917157D01*
X147403702Y-117754469D01*
X147403703Y-117754464D01*
X147403762Y-117754281D01*
X147546188Y-117185158D01*
X147546920Y-117181152D01*
X147570873Y-117050000D01*
X149599170Y-117050000D01*
X149620328Y-117169991D01*
X149620841Y-117170879D01*
X149620841Y-117170880D01*
X149663089Y-117244055D01*
X149681249Y-117275509D01*
X149774585Y-117353828D01*
X149889079Y-117395500D01*
X150010921Y-117395500D01*
X150045696Y-117382843D01*
X151088832Y-117382843D01*
X151089514Y-117384489D01*
X151091060Y-117386035D01*
X151092530Y-117387103D01*
X151189676Y-117436601D01*
X151191406Y-117437163D01*
X151299091Y-117454219D01*
X151300909Y-117454219D01*
X151408594Y-117437163D01*
X151410324Y-117436601D01*
X151507470Y-117387103D01*
X151508940Y-117386035D01*
X151510486Y-117384489D01*
X151511168Y-117382843D01*
X152188832Y-117382843D01*
X152189514Y-117384489D01*
X152191060Y-117386035D01*
X152192530Y-117387103D01*
X152289676Y-117436601D01*
X152291406Y-117437163D01*
X152399091Y-117454219D01*
X152400909Y-117454219D01*
X152508594Y-117437163D01*
X152510324Y-117436601D01*
X152607470Y-117387103D01*
X152608940Y-117386035D01*
X152610486Y-117384489D01*
X152611168Y-117382843D01*
X153288832Y-117382843D01*
X153289514Y-117384489D01*
X153291060Y-117386035D01*
X153292530Y-117387103D01*
X153389676Y-117436601D01*
X153391406Y-117437163D01*
X153499091Y-117454219D01*
X153500909Y-117454219D01*
X153608594Y-117437163D01*
X153610324Y-117436601D01*
X153707470Y-117387103D01*
X153708940Y-117386035D01*
X153710486Y-117384489D01*
X153711168Y-117382843D01*
X154388832Y-117382843D01*
X154389514Y-117384489D01*
X154391060Y-117386035D01*
X154392530Y-117387103D01*
X154489676Y-117436601D01*
X154491406Y-117437163D01*
X154599091Y-117454219D01*
X154600909Y-117454219D01*
X154708594Y-117437163D01*
X154710324Y-117436601D01*
X154807470Y-117387103D01*
X154808940Y-117386035D01*
X154810486Y-117384489D01*
X154811168Y-117382843D01*
X155488832Y-117382843D01*
X155489514Y-117384489D01*
X155491060Y-117386035D01*
X155492530Y-117387103D01*
X155589676Y-117436601D01*
X155591406Y-117437163D01*
X155699091Y-117454219D01*
X155700909Y-117454219D01*
X155808594Y-117437163D01*
X155810324Y-117436601D01*
X155907470Y-117387103D01*
X155908940Y-117386035D01*
X155910486Y-117384489D01*
X155911168Y-117382843D01*
X156588832Y-117382843D01*
X156589514Y-117384489D01*
X156591060Y-117386035D01*
X156592530Y-117387103D01*
X156689676Y-117436601D01*
X156691406Y-117437163D01*
X156799091Y-117454219D01*
X156800909Y-117454219D01*
X156908594Y-117437163D01*
X156910324Y-117436601D01*
X157007470Y-117387103D01*
X157008940Y-117386035D01*
X157010486Y-117384489D01*
X157011168Y-117382843D01*
X157010486Y-117381197D01*
X156801646Y-117172357D01*
X156800000Y-117171675D01*
X156798354Y-117172357D01*
X156589514Y-117381197D01*
X156588832Y-117382843D01*
X155911168Y-117382843D01*
X155910486Y-117381197D01*
X155701646Y-117172357D01*
X155700000Y-117171675D01*
X155698354Y-117172357D01*
X155489514Y-117381197D01*
X155488832Y-117382843D01*
X154811168Y-117382843D01*
X154810486Y-117381197D01*
X154601646Y-117172357D01*
X154600000Y-117171675D01*
X154598354Y-117172357D01*
X154389514Y-117381197D01*
X154388832Y-117382843D01*
X153711168Y-117382843D01*
X153710486Y-117381197D01*
X153501646Y-117172357D01*
X153500000Y-117171675D01*
X153498354Y-117172357D01*
X153289514Y-117381197D01*
X153288832Y-117382843D01*
X152611168Y-117382843D01*
X152610486Y-117381197D01*
X152401646Y-117172357D01*
X152400000Y-117171675D01*
X152398354Y-117172357D01*
X152189514Y-117381197D01*
X152188832Y-117382843D01*
X151511168Y-117382843D01*
X151510486Y-117381197D01*
X151301646Y-117172357D01*
X151300000Y-117171675D01*
X151298354Y-117172357D01*
X151089514Y-117381197D01*
X151088832Y-117382843D01*
X150045696Y-117382843D01*
X150125415Y-117353828D01*
X150218751Y-117275509D01*
X150236911Y-117244055D01*
X150279159Y-117170880D01*
X150279159Y-117170879D01*
X150279672Y-117169991D01*
X150291853Y-117100909D01*
X150945781Y-117100909D01*
X150962837Y-117208594D01*
X150963399Y-117210324D01*
X151012897Y-117307470D01*
X151013965Y-117308940D01*
X151015511Y-117310486D01*
X151017157Y-117311168D01*
X151018803Y-117310486D01*
X151227643Y-117101646D01*
X151228325Y-117100000D01*
X151371675Y-117100000D01*
X151372357Y-117101646D01*
X151581197Y-117310486D01*
X151582843Y-117311168D01*
X151584489Y-117310486D01*
X151586035Y-117308940D01*
X151587103Y-117307470D01*
X151636601Y-117210324D01*
X151637163Y-117208594D01*
X151654219Y-117100909D01*
X152045781Y-117100909D01*
X152062837Y-117208594D01*
X152063399Y-117210324D01*
X152112897Y-117307470D01*
X152113965Y-117308940D01*
X152115511Y-117310486D01*
X152117157Y-117311168D01*
X152118803Y-117310486D01*
X152327643Y-117101646D01*
X152328325Y-117100000D01*
X152471675Y-117100000D01*
X152472357Y-117101646D01*
X152681197Y-117310486D01*
X152682843Y-117311168D01*
X152684489Y-117310486D01*
X152686035Y-117308940D01*
X152687103Y-117307470D01*
X152736601Y-117210324D01*
X152737163Y-117208594D01*
X152754219Y-117100909D01*
X153145781Y-117100909D01*
X153162837Y-117208594D01*
X153163399Y-117210324D01*
X153212897Y-117307470D01*
X153213965Y-117308940D01*
X153215511Y-117310486D01*
X153217157Y-117311168D01*
X153218803Y-117310486D01*
X153427643Y-117101646D01*
X153428325Y-117100000D01*
X153571675Y-117100000D01*
X153572357Y-117101646D01*
X153781197Y-117310486D01*
X153782843Y-117311168D01*
X153784489Y-117310486D01*
X153786035Y-117308940D01*
X153787103Y-117307470D01*
X153836601Y-117210324D01*
X153837163Y-117208594D01*
X153854219Y-117100909D01*
X154245781Y-117100909D01*
X154262837Y-117208594D01*
X154263399Y-117210324D01*
X154312897Y-117307470D01*
X154313965Y-117308940D01*
X154315511Y-117310486D01*
X154317157Y-117311168D01*
X154318803Y-117310486D01*
X154527643Y-117101646D01*
X154528325Y-117100000D01*
X154671675Y-117100000D01*
X154672357Y-117101646D01*
X154881197Y-117310486D01*
X154882843Y-117311168D01*
X154884489Y-117310486D01*
X154886035Y-117308940D01*
X154887103Y-117307470D01*
X154936601Y-117210324D01*
X154937163Y-117208594D01*
X154954219Y-117100909D01*
X155345781Y-117100909D01*
X155362837Y-117208594D01*
X155363399Y-117210324D01*
X155412897Y-117307470D01*
X155413965Y-117308940D01*
X155415511Y-117310486D01*
X155417157Y-117311168D01*
X155418803Y-117310486D01*
X155627643Y-117101646D01*
X155628325Y-117100000D01*
X155771675Y-117100000D01*
X155772357Y-117101646D01*
X155981197Y-117310486D01*
X155982843Y-117311168D01*
X155984489Y-117310486D01*
X155986035Y-117308940D01*
X155987103Y-117307470D01*
X156036601Y-117210324D01*
X156037163Y-117208594D01*
X156054219Y-117100909D01*
X156445781Y-117100909D01*
X156462837Y-117208594D01*
X156463399Y-117210324D01*
X156512897Y-117307470D01*
X156513965Y-117308940D01*
X156515511Y-117310486D01*
X156517157Y-117311168D01*
X156518803Y-117310486D01*
X156727643Y-117101646D01*
X156728325Y-117100000D01*
X156871675Y-117100000D01*
X156872357Y-117101646D01*
X157081197Y-117310486D01*
X157082843Y-117311168D01*
X157084489Y-117310486D01*
X157086035Y-117308940D01*
X157087103Y-117307470D01*
X157136601Y-117210324D01*
X157137163Y-117208594D01*
X157146444Y-117150000D01*
X157549170Y-117150000D01*
X157570328Y-117269991D01*
X157570841Y-117270879D01*
X157570841Y-117270880D01*
X157613089Y-117344055D01*
X157631249Y-117375509D01*
X157724585Y-117453828D01*
X157839079Y-117495500D01*
X157960921Y-117495500D01*
X158075415Y-117453828D01*
X158168751Y-117375509D01*
X158186911Y-117344055D01*
X158229159Y-117270880D01*
X158229159Y-117270879D01*
X158229672Y-117269991D01*
X158250830Y-117150000D01*
X158229672Y-117030009D01*
X158207385Y-116991406D01*
X158171937Y-116930009D01*
X158168751Y-116924491D01*
X158075415Y-116846172D01*
X157960921Y-116804500D01*
X157839079Y-116804500D01*
X157724585Y-116846172D01*
X157631249Y-116924491D01*
X157628063Y-116930009D01*
X157592616Y-116991406D01*
X157570328Y-117030009D01*
X157549170Y-117150000D01*
X157146444Y-117150000D01*
X157154219Y-117100909D01*
X157154219Y-117099091D01*
X157137163Y-116991406D01*
X157136601Y-116989676D01*
X157087103Y-116892530D01*
X157086035Y-116891060D01*
X157084489Y-116889514D01*
X157082843Y-116888832D01*
X157081197Y-116889514D01*
X156872357Y-117098354D01*
X156871675Y-117100000D01*
X156728325Y-117100000D01*
X156727643Y-117098354D01*
X156518803Y-116889514D01*
X156517157Y-116888832D01*
X156515511Y-116889514D01*
X156513965Y-116891060D01*
X156512897Y-116892530D01*
X156463399Y-116989676D01*
X156462837Y-116991406D01*
X156445781Y-117099091D01*
X156445781Y-117100909D01*
X156054219Y-117100909D01*
X156054219Y-117099091D01*
X156037163Y-116991406D01*
X156036601Y-116989676D01*
X155987103Y-116892530D01*
X155986035Y-116891060D01*
X155984489Y-116889514D01*
X155982843Y-116888832D01*
X155981197Y-116889514D01*
X155772357Y-117098354D01*
X155771675Y-117100000D01*
X155628325Y-117100000D01*
X155627643Y-117098354D01*
X155418803Y-116889514D01*
X155417157Y-116888832D01*
X155415511Y-116889514D01*
X155413965Y-116891060D01*
X155412897Y-116892530D01*
X155363399Y-116989676D01*
X155362837Y-116991406D01*
X155345781Y-117099091D01*
X155345781Y-117100909D01*
X154954219Y-117100909D01*
X154954219Y-117099091D01*
X154937163Y-116991406D01*
X154936601Y-116989676D01*
X154887103Y-116892530D01*
X154886035Y-116891060D01*
X154884489Y-116889514D01*
X154882843Y-116888832D01*
X154881197Y-116889514D01*
X154672357Y-117098354D01*
X154671675Y-117100000D01*
X154528325Y-117100000D01*
X154527643Y-117098354D01*
X154318803Y-116889514D01*
X154317157Y-116888832D01*
X154315511Y-116889514D01*
X154313965Y-116891060D01*
X154312897Y-116892530D01*
X154263399Y-116989676D01*
X154262837Y-116991406D01*
X154245781Y-117099091D01*
X154245781Y-117100909D01*
X153854219Y-117100909D01*
X153854219Y-117099091D01*
X153837163Y-116991406D01*
X153836601Y-116989676D01*
X153787103Y-116892530D01*
X153786035Y-116891060D01*
X153784489Y-116889514D01*
X153782843Y-116888832D01*
X153781197Y-116889514D01*
X153572357Y-117098354D01*
X153571675Y-117100000D01*
X153428325Y-117100000D01*
X153427643Y-117098354D01*
X153218803Y-116889514D01*
X153217157Y-116888832D01*
X153215511Y-116889514D01*
X153213965Y-116891060D01*
X153212897Y-116892530D01*
X153163399Y-116989676D01*
X153162837Y-116991406D01*
X153145781Y-117099091D01*
X153145781Y-117100909D01*
X152754219Y-117100909D01*
X152754219Y-117099091D01*
X152737163Y-116991406D01*
X152736601Y-116989676D01*
X152687103Y-116892530D01*
X152686035Y-116891060D01*
X152684489Y-116889514D01*
X152682843Y-116888832D01*
X152681197Y-116889514D01*
X152472357Y-117098354D01*
X152471675Y-117100000D01*
X152328325Y-117100000D01*
X152327643Y-117098354D01*
X152118803Y-116889514D01*
X152117157Y-116888832D01*
X152115511Y-116889514D01*
X152113965Y-116891060D01*
X152112897Y-116892530D01*
X152063399Y-116989676D01*
X152062837Y-116991406D01*
X152045781Y-117099091D01*
X152045781Y-117100909D01*
X151654219Y-117100909D01*
X151654219Y-117099091D01*
X151637163Y-116991406D01*
X151636601Y-116989676D01*
X151587103Y-116892530D01*
X151586035Y-116891060D01*
X151584489Y-116889514D01*
X151582843Y-116888832D01*
X151581197Y-116889514D01*
X151372357Y-117098354D01*
X151371675Y-117100000D01*
X151228325Y-117100000D01*
X151227643Y-117098354D01*
X151018803Y-116889514D01*
X151017157Y-116888832D01*
X151015511Y-116889514D01*
X151013965Y-116891060D01*
X151012897Y-116892530D01*
X150963399Y-116989676D01*
X150962837Y-116991406D01*
X150945781Y-117099091D01*
X150945781Y-117100909D01*
X150291853Y-117100909D01*
X150300830Y-117050000D01*
X150279672Y-116930009D01*
X150276999Y-116925378D01*
X150219263Y-116825378D01*
X150218751Y-116824491D01*
X150210011Y-116817157D01*
X151088832Y-116817157D01*
X151089514Y-116818803D01*
X151298354Y-117027643D01*
X151300000Y-117028325D01*
X151301646Y-117027643D01*
X151510486Y-116818803D01*
X151511168Y-116817157D01*
X152188832Y-116817157D01*
X152189514Y-116818803D01*
X152398354Y-117027643D01*
X152400000Y-117028325D01*
X152401646Y-117027643D01*
X152610486Y-116818803D01*
X152611168Y-116817157D01*
X153288832Y-116817157D01*
X153289514Y-116818803D01*
X153498354Y-117027643D01*
X153500000Y-117028325D01*
X153501646Y-117027643D01*
X153710486Y-116818803D01*
X153711168Y-116817157D01*
X154388832Y-116817157D01*
X154389514Y-116818803D01*
X154598354Y-117027643D01*
X154600000Y-117028325D01*
X154601646Y-117027643D01*
X154810486Y-116818803D01*
X154811168Y-116817157D01*
X155488832Y-116817157D01*
X155489514Y-116818803D01*
X155698354Y-117027643D01*
X155700000Y-117028325D01*
X155701646Y-117027643D01*
X155910486Y-116818803D01*
X155911168Y-116817157D01*
X156588832Y-116817157D01*
X156589514Y-116818803D01*
X156798354Y-117027643D01*
X156800000Y-117028325D01*
X156801646Y-117027643D01*
X157010486Y-116818803D01*
X157011168Y-116817157D01*
X157010486Y-116815511D01*
X157008940Y-116813965D01*
X157007470Y-116812897D01*
X156910324Y-116763399D01*
X156908594Y-116762837D01*
X156800909Y-116745781D01*
X156799091Y-116745781D01*
X156691406Y-116762837D01*
X156689676Y-116763399D01*
X156592530Y-116812897D01*
X156591060Y-116813965D01*
X156589514Y-116815511D01*
X156588832Y-116817157D01*
X155911168Y-116817157D01*
X155910486Y-116815511D01*
X155908940Y-116813965D01*
X155907470Y-116812897D01*
X155810324Y-116763399D01*
X155808594Y-116762837D01*
X155700909Y-116745781D01*
X155699091Y-116745781D01*
X155591406Y-116762837D01*
X155589676Y-116763399D01*
X155492530Y-116812897D01*
X155491060Y-116813965D01*
X155489514Y-116815511D01*
X155488832Y-116817157D01*
X154811168Y-116817157D01*
X154810486Y-116815511D01*
X154808940Y-116813965D01*
X154807470Y-116812897D01*
X154710324Y-116763399D01*
X154708594Y-116762837D01*
X154600909Y-116745781D01*
X154599091Y-116745781D01*
X154491406Y-116762837D01*
X154489676Y-116763399D01*
X154392530Y-116812897D01*
X154391060Y-116813965D01*
X154389514Y-116815511D01*
X154388832Y-116817157D01*
X153711168Y-116817157D01*
X153710486Y-116815511D01*
X153708940Y-116813965D01*
X153707470Y-116812897D01*
X153610324Y-116763399D01*
X153608594Y-116762837D01*
X153500909Y-116745781D01*
X153499091Y-116745781D01*
X153391406Y-116762837D01*
X153389676Y-116763399D01*
X153292530Y-116812897D01*
X153291060Y-116813965D01*
X153289514Y-116815511D01*
X153288832Y-116817157D01*
X152611168Y-116817157D01*
X152610486Y-116815511D01*
X152608940Y-116813965D01*
X152607470Y-116812897D01*
X152510324Y-116763399D01*
X152508594Y-116762837D01*
X152400909Y-116745781D01*
X152399091Y-116745781D01*
X152291406Y-116762837D01*
X152289676Y-116763399D01*
X152192530Y-116812897D01*
X152191060Y-116813965D01*
X152189514Y-116815511D01*
X152188832Y-116817157D01*
X151511168Y-116817157D01*
X151510486Y-116815511D01*
X151508940Y-116813965D01*
X151507470Y-116812897D01*
X151410324Y-116763399D01*
X151408594Y-116762837D01*
X151300909Y-116745781D01*
X151299091Y-116745781D01*
X151191406Y-116762837D01*
X151189676Y-116763399D01*
X151092530Y-116812897D01*
X151091060Y-116813965D01*
X151089514Y-116815511D01*
X151088832Y-116817157D01*
X150210011Y-116817157D01*
X150125415Y-116746172D01*
X150010921Y-116704500D01*
X149889079Y-116704500D01*
X149774585Y-116746172D01*
X149681249Y-116824491D01*
X149680737Y-116825378D01*
X149623002Y-116925378D01*
X149620328Y-116930009D01*
X149599170Y-117050000D01*
X147570873Y-117050000D01*
X147651557Y-116608213D01*
X147651559Y-116608201D01*
X147651590Y-116608030D01*
X147661855Y-116519991D01*
X147689504Y-116282843D01*
X151088832Y-116282843D01*
X151089514Y-116284489D01*
X151091060Y-116286035D01*
X151092530Y-116287103D01*
X151189676Y-116336601D01*
X151191406Y-116337163D01*
X151299091Y-116354219D01*
X151300909Y-116354219D01*
X151408594Y-116337163D01*
X151410324Y-116336601D01*
X151507470Y-116287103D01*
X151508940Y-116286035D01*
X151510486Y-116284489D01*
X151511168Y-116282843D01*
X152188832Y-116282843D01*
X152189514Y-116284489D01*
X152191060Y-116286035D01*
X152192530Y-116287103D01*
X152289676Y-116336601D01*
X152291406Y-116337163D01*
X152399091Y-116354219D01*
X152400909Y-116354219D01*
X152508594Y-116337163D01*
X152510324Y-116336601D01*
X152607470Y-116287103D01*
X152608940Y-116286035D01*
X152610486Y-116284489D01*
X152611168Y-116282843D01*
X153288832Y-116282843D01*
X153289514Y-116284489D01*
X153291060Y-116286035D01*
X153292530Y-116287103D01*
X153389676Y-116336601D01*
X153391406Y-116337163D01*
X153499091Y-116354219D01*
X153500909Y-116354219D01*
X153608594Y-116337163D01*
X153610324Y-116336601D01*
X153707470Y-116287103D01*
X153708940Y-116286035D01*
X153710486Y-116284489D01*
X153711168Y-116282843D01*
X154388832Y-116282843D01*
X154389514Y-116284489D01*
X154391060Y-116286035D01*
X154392530Y-116287103D01*
X154489676Y-116336601D01*
X154491406Y-116337163D01*
X154599091Y-116354219D01*
X154600909Y-116354219D01*
X154708594Y-116337163D01*
X154710324Y-116336601D01*
X154807470Y-116287103D01*
X154808940Y-116286035D01*
X154810486Y-116284489D01*
X154811168Y-116282843D01*
X155488832Y-116282843D01*
X155489514Y-116284489D01*
X155491060Y-116286035D01*
X155492530Y-116287103D01*
X155589676Y-116336601D01*
X155591406Y-116337163D01*
X155699091Y-116354219D01*
X155700909Y-116354219D01*
X155808594Y-116337163D01*
X155810324Y-116336601D01*
X155907470Y-116287103D01*
X155908940Y-116286035D01*
X155910486Y-116284489D01*
X155911168Y-116282843D01*
X156588832Y-116282843D01*
X156589514Y-116284489D01*
X156591060Y-116286035D01*
X156592530Y-116287103D01*
X156689676Y-116336601D01*
X156691406Y-116337163D01*
X156799091Y-116354219D01*
X156800909Y-116354219D01*
X156908594Y-116337163D01*
X156910324Y-116336601D01*
X157007470Y-116287103D01*
X157008940Y-116286035D01*
X157010486Y-116284489D01*
X157011168Y-116282843D01*
X157010486Y-116281197D01*
X156801646Y-116072357D01*
X156800000Y-116071675D01*
X156798354Y-116072357D01*
X156589514Y-116281197D01*
X156588832Y-116282843D01*
X155911168Y-116282843D01*
X155910486Y-116281197D01*
X155701646Y-116072357D01*
X155700000Y-116071675D01*
X155698354Y-116072357D01*
X155489514Y-116281197D01*
X155488832Y-116282843D01*
X154811168Y-116282843D01*
X154810486Y-116281197D01*
X154601646Y-116072357D01*
X154600000Y-116071675D01*
X154598354Y-116072357D01*
X154389514Y-116281197D01*
X154388832Y-116282843D01*
X153711168Y-116282843D01*
X153710486Y-116281197D01*
X153501646Y-116072357D01*
X153500000Y-116071675D01*
X153498354Y-116072357D01*
X153289514Y-116281197D01*
X153288832Y-116282843D01*
X152611168Y-116282843D01*
X152610486Y-116281197D01*
X152401646Y-116072357D01*
X152400000Y-116071675D01*
X152398354Y-116072357D01*
X152189514Y-116281197D01*
X152188832Y-116282843D01*
X151511168Y-116282843D01*
X151510486Y-116281197D01*
X151301646Y-116072357D01*
X151300000Y-116071675D01*
X151298354Y-116072357D01*
X151089514Y-116281197D01*
X151088832Y-116282843D01*
X147689504Y-116282843D01*
X147719508Y-116025493D01*
X147719508Y-116025492D01*
X147719530Y-116025304D01*
X147720787Y-116000909D01*
X150945781Y-116000909D01*
X150962837Y-116108594D01*
X150963399Y-116110324D01*
X151012897Y-116207470D01*
X151013965Y-116208940D01*
X151015511Y-116210486D01*
X151017157Y-116211168D01*
X151018803Y-116210486D01*
X151227643Y-116001646D01*
X151228325Y-116000000D01*
X151371675Y-116000000D01*
X151372357Y-116001646D01*
X151581197Y-116210486D01*
X151582843Y-116211168D01*
X151584489Y-116210486D01*
X151586035Y-116208940D01*
X151587103Y-116207470D01*
X151636601Y-116110324D01*
X151637163Y-116108594D01*
X151654219Y-116000909D01*
X152045781Y-116000909D01*
X152062837Y-116108594D01*
X152063399Y-116110324D01*
X152112897Y-116207470D01*
X152113965Y-116208940D01*
X152115511Y-116210486D01*
X152117157Y-116211168D01*
X152118803Y-116210486D01*
X152327643Y-116001646D01*
X152328325Y-116000000D01*
X152471675Y-116000000D01*
X152472357Y-116001646D01*
X152681197Y-116210486D01*
X152682843Y-116211168D01*
X152684489Y-116210486D01*
X152686035Y-116208940D01*
X152687103Y-116207470D01*
X152736601Y-116110324D01*
X152737163Y-116108594D01*
X152754219Y-116000909D01*
X153145781Y-116000909D01*
X153162837Y-116108594D01*
X153163399Y-116110324D01*
X153212897Y-116207470D01*
X153213965Y-116208940D01*
X153215511Y-116210486D01*
X153217157Y-116211168D01*
X153218803Y-116210486D01*
X153427643Y-116001646D01*
X153428325Y-116000000D01*
X153571675Y-116000000D01*
X153572357Y-116001646D01*
X153781197Y-116210486D01*
X153782843Y-116211168D01*
X153784489Y-116210486D01*
X153786035Y-116208940D01*
X153787103Y-116207470D01*
X153836601Y-116110324D01*
X153837163Y-116108594D01*
X153854219Y-116000909D01*
X154245781Y-116000909D01*
X154262837Y-116108594D01*
X154263399Y-116110324D01*
X154312897Y-116207470D01*
X154313965Y-116208940D01*
X154315511Y-116210486D01*
X154317157Y-116211168D01*
X154318803Y-116210486D01*
X154527643Y-116001646D01*
X154528325Y-116000000D01*
X154671675Y-116000000D01*
X154672357Y-116001646D01*
X154881197Y-116210486D01*
X154882843Y-116211168D01*
X154884489Y-116210486D01*
X154886035Y-116208940D01*
X154887103Y-116207470D01*
X154936601Y-116110324D01*
X154937163Y-116108594D01*
X154954219Y-116000909D01*
X155345781Y-116000909D01*
X155362837Y-116108594D01*
X155363399Y-116110324D01*
X155412897Y-116207470D01*
X155413965Y-116208940D01*
X155415511Y-116210486D01*
X155417157Y-116211168D01*
X155418803Y-116210486D01*
X155627643Y-116001646D01*
X155628325Y-116000000D01*
X155771675Y-116000000D01*
X155772357Y-116001646D01*
X155981197Y-116210486D01*
X155982843Y-116211168D01*
X155984489Y-116210486D01*
X155986035Y-116208940D01*
X155987103Y-116207470D01*
X156036601Y-116110324D01*
X156037163Y-116108594D01*
X156054219Y-116000909D01*
X156445781Y-116000909D01*
X156462837Y-116108594D01*
X156463399Y-116110324D01*
X156512897Y-116207470D01*
X156513965Y-116208940D01*
X156515511Y-116210486D01*
X156517157Y-116211168D01*
X156518803Y-116210486D01*
X156727643Y-116001646D01*
X156728325Y-116000000D01*
X156871675Y-116000000D01*
X156872357Y-116001646D01*
X157081197Y-116210486D01*
X157082843Y-116211168D01*
X157084489Y-116210486D01*
X157086035Y-116208940D01*
X157087103Y-116207470D01*
X157136601Y-116110324D01*
X157137163Y-116108594D01*
X157154219Y-116000909D01*
X157154219Y-115999091D01*
X157137163Y-115891406D01*
X157136601Y-115889676D01*
X157087103Y-115792530D01*
X157086035Y-115791060D01*
X157084489Y-115789514D01*
X157082843Y-115788832D01*
X157081197Y-115789514D01*
X156872357Y-115998354D01*
X156871675Y-116000000D01*
X156728325Y-116000000D01*
X156727643Y-115998354D01*
X156518803Y-115789514D01*
X156517157Y-115788832D01*
X156515511Y-115789514D01*
X156513965Y-115791060D01*
X156512897Y-115792530D01*
X156463399Y-115889676D01*
X156462837Y-115891406D01*
X156445781Y-115999091D01*
X156445781Y-116000909D01*
X156054219Y-116000909D01*
X156054219Y-115999091D01*
X156037163Y-115891406D01*
X156036601Y-115889676D01*
X155987103Y-115792530D01*
X155986035Y-115791060D01*
X155984489Y-115789514D01*
X155982843Y-115788832D01*
X155981197Y-115789514D01*
X155772357Y-115998354D01*
X155771675Y-116000000D01*
X155628325Y-116000000D01*
X155627643Y-115998354D01*
X155418803Y-115789514D01*
X155417157Y-115788832D01*
X155415511Y-115789514D01*
X155413965Y-115791060D01*
X155412897Y-115792530D01*
X155363399Y-115889676D01*
X155362837Y-115891406D01*
X155345781Y-115999091D01*
X155345781Y-116000909D01*
X154954219Y-116000909D01*
X154954219Y-115999091D01*
X154937163Y-115891406D01*
X154936601Y-115889676D01*
X154887103Y-115792530D01*
X154886035Y-115791060D01*
X154884489Y-115789514D01*
X154882843Y-115788832D01*
X154881197Y-115789514D01*
X154672357Y-115998354D01*
X154671675Y-116000000D01*
X154528325Y-116000000D01*
X154527643Y-115998354D01*
X154318803Y-115789514D01*
X154317157Y-115788832D01*
X154315511Y-115789514D01*
X154313965Y-115791060D01*
X154312897Y-115792530D01*
X154263399Y-115889676D01*
X154262837Y-115891406D01*
X154245781Y-115999091D01*
X154245781Y-116000909D01*
X153854219Y-116000909D01*
X153854219Y-115999091D01*
X153837163Y-115891406D01*
X153836601Y-115889676D01*
X153787103Y-115792530D01*
X153786035Y-115791060D01*
X153784489Y-115789514D01*
X153782843Y-115788832D01*
X153781197Y-115789514D01*
X153572357Y-115998354D01*
X153571675Y-116000000D01*
X153428325Y-116000000D01*
X153427643Y-115998354D01*
X153218803Y-115789514D01*
X153217157Y-115788832D01*
X153215511Y-115789514D01*
X153213965Y-115791060D01*
X153212897Y-115792530D01*
X153163399Y-115889676D01*
X153162837Y-115891406D01*
X153145781Y-115999091D01*
X153145781Y-116000909D01*
X152754219Y-116000909D01*
X152754219Y-115999091D01*
X152737163Y-115891406D01*
X152736601Y-115889676D01*
X152687103Y-115792530D01*
X152686035Y-115791060D01*
X152684489Y-115789514D01*
X152682843Y-115788832D01*
X152681197Y-115789514D01*
X152472357Y-115998354D01*
X152471675Y-116000000D01*
X152328325Y-116000000D01*
X152327643Y-115998354D01*
X152118803Y-115789514D01*
X152117157Y-115788832D01*
X152115511Y-115789514D01*
X152113965Y-115791060D01*
X152112897Y-115792530D01*
X152063399Y-115889676D01*
X152062837Y-115891406D01*
X152045781Y-115999091D01*
X152045781Y-116000909D01*
X151654219Y-116000909D01*
X151654219Y-115999091D01*
X151637163Y-115891406D01*
X151636601Y-115889676D01*
X151587103Y-115792530D01*
X151586035Y-115791060D01*
X151584489Y-115789514D01*
X151582843Y-115788832D01*
X151581197Y-115789514D01*
X151372357Y-115998354D01*
X151371675Y-116000000D01*
X151228325Y-116000000D01*
X151227643Y-115998354D01*
X151018803Y-115789514D01*
X151017157Y-115788832D01*
X151015511Y-115789514D01*
X151013965Y-115791060D01*
X151012897Y-115792530D01*
X150963399Y-115889676D01*
X150962837Y-115891406D01*
X150945781Y-115999091D01*
X150945781Y-116000909D01*
X147720787Y-116000909D01*
X147735409Y-115717157D01*
X151088832Y-115717157D01*
X151089514Y-115718803D01*
X151298354Y-115927643D01*
X151300000Y-115928325D01*
X151301646Y-115927643D01*
X151510486Y-115718803D01*
X151511168Y-115717157D01*
X152188832Y-115717157D01*
X152189514Y-115718803D01*
X152398354Y-115927643D01*
X152400000Y-115928325D01*
X152401646Y-115927643D01*
X152610486Y-115718803D01*
X152611168Y-115717157D01*
X153288832Y-115717157D01*
X153289514Y-115718803D01*
X153498354Y-115927643D01*
X153500000Y-115928325D01*
X153501646Y-115927643D01*
X153710486Y-115718803D01*
X153711168Y-115717157D01*
X154388832Y-115717157D01*
X154389514Y-115718803D01*
X154598354Y-115927643D01*
X154600000Y-115928325D01*
X154601646Y-115927643D01*
X154810486Y-115718803D01*
X154811168Y-115717157D01*
X155488832Y-115717157D01*
X155489514Y-115718803D01*
X155698354Y-115927643D01*
X155700000Y-115928325D01*
X155701646Y-115927643D01*
X155910486Y-115718803D01*
X155911168Y-115717157D01*
X156588832Y-115717157D01*
X156589514Y-115718803D01*
X156798354Y-115927643D01*
X156800000Y-115928325D01*
X156801646Y-115927643D01*
X157010486Y-115718803D01*
X157011168Y-115717157D01*
X157010486Y-115715511D01*
X157008940Y-115713965D01*
X157007470Y-115712897D01*
X156910324Y-115663399D01*
X156908594Y-115662837D01*
X156800909Y-115645781D01*
X156799091Y-115645781D01*
X156691406Y-115662837D01*
X156689676Y-115663399D01*
X156592530Y-115712897D01*
X156591060Y-115713965D01*
X156589514Y-115715511D01*
X156588832Y-115717157D01*
X155911168Y-115717157D01*
X155910486Y-115715511D01*
X155908940Y-115713965D01*
X155907470Y-115712897D01*
X155810324Y-115663399D01*
X155808594Y-115662837D01*
X155700909Y-115645781D01*
X155699091Y-115645781D01*
X155591406Y-115662837D01*
X155589676Y-115663399D01*
X155492530Y-115712897D01*
X155491060Y-115713965D01*
X155489514Y-115715511D01*
X155488832Y-115717157D01*
X154811168Y-115717157D01*
X154810486Y-115715511D01*
X154808940Y-115713965D01*
X154807470Y-115712897D01*
X154710324Y-115663399D01*
X154708594Y-115662837D01*
X154600909Y-115645781D01*
X154599091Y-115645781D01*
X154491406Y-115662837D01*
X154489676Y-115663399D01*
X154392530Y-115712897D01*
X154391060Y-115713965D01*
X154389514Y-115715511D01*
X154388832Y-115717157D01*
X153711168Y-115717157D01*
X153710486Y-115715511D01*
X153708940Y-115713965D01*
X153707470Y-115712897D01*
X153610324Y-115663399D01*
X153608594Y-115662837D01*
X153500909Y-115645781D01*
X153499091Y-115645781D01*
X153391406Y-115662837D01*
X153389676Y-115663399D01*
X153292530Y-115712897D01*
X153291060Y-115713965D01*
X153289514Y-115715511D01*
X153288832Y-115717157D01*
X152611168Y-115717157D01*
X152610486Y-115715511D01*
X152608940Y-115713965D01*
X152607470Y-115712897D01*
X152510324Y-115663399D01*
X152508594Y-115662837D01*
X152400909Y-115645781D01*
X152399091Y-115645781D01*
X152291406Y-115662837D01*
X152289676Y-115663399D01*
X152192530Y-115712897D01*
X152191060Y-115713965D01*
X152189514Y-115715511D01*
X152188832Y-115717157D01*
X151511168Y-115717157D01*
X151510486Y-115715511D01*
X151508940Y-115713965D01*
X151507470Y-115712897D01*
X151410324Y-115663399D01*
X151408594Y-115662837D01*
X151300909Y-115645781D01*
X151299091Y-115645781D01*
X151191406Y-115662837D01*
X151189676Y-115663399D01*
X151092530Y-115712897D01*
X151091060Y-115713965D01*
X151089514Y-115715511D01*
X151088832Y-115717157D01*
X147735409Y-115717157D01*
X147749722Y-115439407D01*
X147750541Y-115354177D01*
X147751396Y-115265083D01*
X147751396Y-115265079D01*
X147751397Y-115264971D01*
X147751390Y-115264726D01*
X147748745Y-115182843D01*
X151088832Y-115182843D01*
X151089514Y-115184489D01*
X151091060Y-115186035D01*
X151092530Y-115187103D01*
X151189676Y-115236601D01*
X151191406Y-115237163D01*
X151299091Y-115254219D01*
X151300909Y-115254219D01*
X151408594Y-115237163D01*
X151410324Y-115236601D01*
X151507470Y-115187103D01*
X151508940Y-115186035D01*
X151510486Y-115184489D01*
X151511168Y-115182843D01*
X152188832Y-115182843D01*
X152189514Y-115184489D01*
X152191060Y-115186035D01*
X152192530Y-115187103D01*
X152289676Y-115236601D01*
X152291406Y-115237163D01*
X152399091Y-115254219D01*
X152400909Y-115254219D01*
X152508594Y-115237163D01*
X152510324Y-115236601D01*
X152607470Y-115187103D01*
X152608940Y-115186035D01*
X152610486Y-115184489D01*
X152611168Y-115182843D01*
X153288832Y-115182843D01*
X153289514Y-115184489D01*
X153291060Y-115186035D01*
X153292530Y-115187103D01*
X153389676Y-115236601D01*
X153391406Y-115237163D01*
X153499091Y-115254219D01*
X153500909Y-115254219D01*
X153608594Y-115237163D01*
X153610324Y-115236601D01*
X153707470Y-115187103D01*
X153708940Y-115186035D01*
X153710486Y-115184489D01*
X153711168Y-115182843D01*
X154388832Y-115182843D01*
X154389514Y-115184489D01*
X154391060Y-115186035D01*
X154392530Y-115187103D01*
X154489676Y-115236601D01*
X154491406Y-115237163D01*
X154599091Y-115254219D01*
X154600909Y-115254219D01*
X154708594Y-115237163D01*
X154710324Y-115236601D01*
X154807470Y-115187103D01*
X154808940Y-115186035D01*
X154810486Y-115184489D01*
X154811168Y-115182843D01*
X155488832Y-115182843D01*
X155489514Y-115184489D01*
X155491060Y-115186035D01*
X155492530Y-115187103D01*
X155589676Y-115236601D01*
X155591406Y-115237163D01*
X155699091Y-115254219D01*
X155700909Y-115254219D01*
X155808594Y-115237163D01*
X155810324Y-115236601D01*
X155907470Y-115187103D01*
X155908940Y-115186035D01*
X155910486Y-115184489D01*
X155911168Y-115182843D01*
X156588832Y-115182843D01*
X156589514Y-115184489D01*
X156591060Y-115186035D01*
X156592530Y-115187103D01*
X156689676Y-115236601D01*
X156691406Y-115237163D01*
X156799091Y-115254219D01*
X156800909Y-115254219D01*
X156908594Y-115237163D01*
X156910324Y-115236601D01*
X157007470Y-115187103D01*
X157008940Y-115186035D01*
X157010486Y-115184489D01*
X157011168Y-115182843D01*
X157010486Y-115181197D01*
X156801646Y-114972357D01*
X156800000Y-114971675D01*
X156798354Y-114972357D01*
X156589514Y-115181197D01*
X156588832Y-115182843D01*
X155911168Y-115182843D01*
X155910486Y-115181197D01*
X155701646Y-114972357D01*
X155700000Y-114971675D01*
X155698354Y-114972357D01*
X155489514Y-115181197D01*
X155488832Y-115182843D01*
X154811168Y-115182843D01*
X154810486Y-115181197D01*
X154601646Y-114972357D01*
X154600000Y-114971675D01*
X154598354Y-114972357D01*
X154389514Y-115181197D01*
X154388832Y-115182843D01*
X153711168Y-115182843D01*
X153710486Y-115181197D01*
X153501646Y-114972357D01*
X153500000Y-114971675D01*
X153498354Y-114972357D01*
X153289514Y-115181197D01*
X153288832Y-115182843D01*
X152611168Y-115182843D01*
X152610486Y-115181197D01*
X152401646Y-114972357D01*
X152400000Y-114971675D01*
X152398354Y-114972357D01*
X152189514Y-115181197D01*
X152188832Y-115182843D01*
X151511168Y-115182843D01*
X151510486Y-115181197D01*
X151301646Y-114972357D01*
X151300000Y-114971675D01*
X151298354Y-114972357D01*
X151089514Y-115181197D01*
X151088832Y-115182843D01*
X147748745Y-115182843D01*
X147739638Y-114900909D01*
X150945781Y-114900909D01*
X150962837Y-115008594D01*
X150963399Y-115010324D01*
X151012897Y-115107470D01*
X151013965Y-115108940D01*
X151015511Y-115110486D01*
X151017157Y-115111168D01*
X151018803Y-115110486D01*
X151227643Y-114901646D01*
X151228325Y-114900000D01*
X151371675Y-114900000D01*
X151372357Y-114901646D01*
X151581197Y-115110486D01*
X151582843Y-115111168D01*
X151584489Y-115110486D01*
X151586035Y-115108940D01*
X151587103Y-115107470D01*
X151636601Y-115010324D01*
X151637163Y-115008594D01*
X151654219Y-114900909D01*
X152045781Y-114900909D01*
X152062837Y-115008594D01*
X152063399Y-115010324D01*
X152112897Y-115107470D01*
X152113965Y-115108940D01*
X152115511Y-115110486D01*
X152117157Y-115111168D01*
X152118803Y-115110486D01*
X152327643Y-114901646D01*
X152328325Y-114900000D01*
X152471675Y-114900000D01*
X152472357Y-114901646D01*
X152681197Y-115110486D01*
X152682843Y-115111168D01*
X152684489Y-115110486D01*
X152686035Y-115108940D01*
X152687103Y-115107470D01*
X152736601Y-115010324D01*
X152737163Y-115008594D01*
X152754219Y-114900909D01*
X153145781Y-114900909D01*
X153162837Y-115008594D01*
X153163399Y-115010324D01*
X153212897Y-115107470D01*
X153213965Y-115108940D01*
X153215511Y-115110486D01*
X153217157Y-115111168D01*
X153218803Y-115110486D01*
X153427643Y-114901646D01*
X153428325Y-114900000D01*
X153571675Y-114900000D01*
X153572357Y-114901646D01*
X153781197Y-115110486D01*
X153782843Y-115111168D01*
X153784489Y-115110486D01*
X153786035Y-115108940D01*
X153787103Y-115107470D01*
X153836601Y-115010324D01*
X153837163Y-115008594D01*
X153854219Y-114900909D01*
X154245781Y-114900909D01*
X154262837Y-115008594D01*
X154263399Y-115010324D01*
X154312897Y-115107470D01*
X154313965Y-115108940D01*
X154315511Y-115110486D01*
X154317157Y-115111168D01*
X154318803Y-115110486D01*
X154527643Y-114901646D01*
X154528325Y-114900000D01*
X154671675Y-114900000D01*
X154672357Y-114901646D01*
X154881197Y-115110486D01*
X154882843Y-115111168D01*
X154884489Y-115110486D01*
X154886035Y-115108940D01*
X154887103Y-115107470D01*
X154936601Y-115010324D01*
X154937163Y-115008594D01*
X154954219Y-114900909D01*
X155345781Y-114900909D01*
X155362837Y-115008594D01*
X155363399Y-115010324D01*
X155412897Y-115107470D01*
X155413965Y-115108940D01*
X155415511Y-115110486D01*
X155417157Y-115111168D01*
X155418803Y-115110486D01*
X155627643Y-114901646D01*
X155628325Y-114900000D01*
X155771675Y-114900000D01*
X155772357Y-114901646D01*
X155981197Y-115110486D01*
X155982843Y-115111168D01*
X155984489Y-115110486D01*
X155986035Y-115108940D01*
X155987103Y-115107470D01*
X156036601Y-115010324D01*
X156037163Y-115008594D01*
X156054219Y-114900909D01*
X156445781Y-114900909D01*
X156462837Y-115008594D01*
X156463399Y-115010324D01*
X156512897Y-115107470D01*
X156513965Y-115108940D01*
X156515511Y-115110486D01*
X156517157Y-115111168D01*
X156518803Y-115110486D01*
X156727643Y-114901646D01*
X156728325Y-114900000D01*
X156871675Y-114900000D01*
X156872357Y-114901646D01*
X157081197Y-115110486D01*
X157082843Y-115111168D01*
X157084489Y-115110486D01*
X157086035Y-115108940D01*
X157087103Y-115107470D01*
X157136601Y-115010324D01*
X157137163Y-115008594D01*
X157154219Y-114900909D01*
X157154219Y-114899091D01*
X157137163Y-114791406D01*
X157136601Y-114789676D01*
X157087103Y-114692530D01*
X157086035Y-114691060D01*
X157084489Y-114689514D01*
X157082843Y-114688832D01*
X157081197Y-114689514D01*
X156872357Y-114898354D01*
X156871675Y-114900000D01*
X156728325Y-114900000D01*
X156727643Y-114898354D01*
X156518803Y-114689514D01*
X156517157Y-114688832D01*
X156515511Y-114689514D01*
X156513965Y-114691060D01*
X156512897Y-114692530D01*
X156463399Y-114789676D01*
X156462837Y-114791406D01*
X156445781Y-114899091D01*
X156445781Y-114900909D01*
X156054219Y-114900909D01*
X156054219Y-114899091D01*
X156037163Y-114791406D01*
X156036601Y-114789676D01*
X155987103Y-114692530D01*
X155986035Y-114691060D01*
X155984489Y-114689514D01*
X155982843Y-114688832D01*
X155981197Y-114689514D01*
X155772357Y-114898354D01*
X155771675Y-114900000D01*
X155628325Y-114900000D01*
X155627643Y-114898354D01*
X155418803Y-114689514D01*
X155417157Y-114688832D01*
X155415511Y-114689514D01*
X155413965Y-114691060D01*
X155412897Y-114692530D01*
X155363399Y-114789676D01*
X155362837Y-114791406D01*
X155345781Y-114899091D01*
X155345781Y-114900909D01*
X154954219Y-114900909D01*
X154954219Y-114899091D01*
X154937163Y-114791406D01*
X154936601Y-114789676D01*
X154887103Y-114692530D01*
X154886035Y-114691060D01*
X154884489Y-114689514D01*
X154882843Y-114688832D01*
X154881197Y-114689514D01*
X154672357Y-114898354D01*
X154671675Y-114900000D01*
X154528325Y-114900000D01*
X154527643Y-114898354D01*
X154318803Y-114689514D01*
X154317157Y-114688832D01*
X154315511Y-114689514D01*
X154313965Y-114691060D01*
X154312897Y-114692530D01*
X154263399Y-114789676D01*
X154262837Y-114791406D01*
X154245781Y-114899091D01*
X154245781Y-114900909D01*
X153854219Y-114900909D01*
X153854219Y-114899091D01*
X153837163Y-114791406D01*
X153836601Y-114789676D01*
X153787103Y-114692530D01*
X153786035Y-114691060D01*
X153784489Y-114689514D01*
X153782843Y-114688832D01*
X153781197Y-114689514D01*
X153572357Y-114898354D01*
X153571675Y-114900000D01*
X153428325Y-114900000D01*
X153427643Y-114898354D01*
X153218803Y-114689514D01*
X153217157Y-114688832D01*
X153215511Y-114689514D01*
X153213965Y-114691060D01*
X153212897Y-114692530D01*
X153163399Y-114789676D01*
X153162837Y-114791406D01*
X153145781Y-114899091D01*
X153145781Y-114900909D01*
X152754219Y-114900909D01*
X152754219Y-114899091D01*
X152737163Y-114791406D01*
X152736601Y-114789676D01*
X152687103Y-114692530D01*
X152686035Y-114691060D01*
X152684489Y-114689514D01*
X152682843Y-114688832D01*
X152681197Y-114689514D01*
X152472357Y-114898354D01*
X152471675Y-114900000D01*
X152328325Y-114900000D01*
X152327643Y-114898354D01*
X152118803Y-114689514D01*
X152117157Y-114688832D01*
X152115511Y-114689514D01*
X152113965Y-114691060D01*
X152112897Y-114692530D01*
X152063399Y-114789676D01*
X152062837Y-114791406D01*
X152045781Y-114899091D01*
X152045781Y-114900909D01*
X151654219Y-114900909D01*
X151654219Y-114899091D01*
X151637163Y-114791406D01*
X151636601Y-114789676D01*
X151587103Y-114692530D01*
X151586035Y-114691060D01*
X151584489Y-114689514D01*
X151582843Y-114688832D01*
X151581197Y-114689514D01*
X151372357Y-114898354D01*
X151371675Y-114900000D01*
X151228325Y-114900000D01*
X151227643Y-114898354D01*
X151018803Y-114689514D01*
X151017157Y-114688832D01*
X151015511Y-114689514D01*
X151013965Y-114691060D01*
X151012897Y-114692530D01*
X150963399Y-114789676D01*
X150962837Y-114791406D01*
X150945781Y-114899091D01*
X150945781Y-114900909D01*
X147739638Y-114900909D01*
X147732463Y-114678779D01*
X147732462Y-114678769D01*
X147732457Y-114678603D01*
X147726647Y-114618803D01*
X147726487Y-114617157D01*
X151088832Y-114617157D01*
X151089514Y-114618803D01*
X151298354Y-114827643D01*
X151300000Y-114828325D01*
X151301646Y-114827643D01*
X151510486Y-114618803D01*
X151511168Y-114617157D01*
X152188832Y-114617157D01*
X152189514Y-114618803D01*
X152398354Y-114827643D01*
X152400000Y-114828325D01*
X152401646Y-114827643D01*
X152610486Y-114618803D01*
X152611168Y-114617157D01*
X153288832Y-114617157D01*
X153289514Y-114618803D01*
X153498354Y-114827643D01*
X153500000Y-114828325D01*
X153501646Y-114827643D01*
X153710486Y-114618803D01*
X153711168Y-114617157D01*
X154388832Y-114617157D01*
X154389514Y-114618803D01*
X154598354Y-114827643D01*
X154600000Y-114828325D01*
X154601646Y-114827643D01*
X154810486Y-114618803D01*
X154811168Y-114617157D01*
X155488832Y-114617157D01*
X155489514Y-114618803D01*
X155698354Y-114827643D01*
X155700000Y-114828325D01*
X155701646Y-114827643D01*
X155910486Y-114618803D01*
X155911168Y-114617157D01*
X156588832Y-114617157D01*
X156589514Y-114618803D01*
X156798354Y-114827643D01*
X156800000Y-114828325D01*
X156801646Y-114827643D01*
X157010486Y-114618803D01*
X157011168Y-114617157D01*
X157010486Y-114615511D01*
X157008940Y-114613965D01*
X157007470Y-114612897D01*
X156910324Y-114563399D01*
X156908594Y-114562837D01*
X156800909Y-114545781D01*
X156799091Y-114545781D01*
X156691406Y-114562837D01*
X156689676Y-114563399D01*
X156592530Y-114612897D01*
X156591060Y-114613965D01*
X156589514Y-114615511D01*
X156588832Y-114617157D01*
X155911168Y-114617157D01*
X155910486Y-114615511D01*
X155908940Y-114613965D01*
X155907470Y-114612897D01*
X155810324Y-114563399D01*
X155808594Y-114562837D01*
X155700909Y-114545781D01*
X155699091Y-114545781D01*
X155591406Y-114562837D01*
X155589676Y-114563399D01*
X155492530Y-114612897D01*
X155491060Y-114613965D01*
X155489514Y-114615511D01*
X155488832Y-114617157D01*
X154811168Y-114617157D01*
X154810486Y-114615511D01*
X154808940Y-114613965D01*
X154807470Y-114612897D01*
X154710324Y-114563399D01*
X154708594Y-114562837D01*
X154600909Y-114545781D01*
X154599091Y-114545781D01*
X154491406Y-114562837D01*
X154489676Y-114563399D01*
X154392530Y-114612897D01*
X154391060Y-114613965D01*
X154389514Y-114615511D01*
X154388832Y-114617157D01*
X153711168Y-114617157D01*
X153710486Y-114615511D01*
X153708940Y-114613965D01*
X153707470Y-114612897D01*
X153610324Y-114563399D01*
X153608594Y-114562837D01*
X153500909Y-114545781D01*
X153499091Y-114545781D01*
X153391406Y-114562837D01*
X153389676Y-114563399D01*
X153292530Y-114612897D01*
X153291060Y-114613965D01*
X153289514Y-114615511D01*
X153288832Y-114617157D01*
X152611168Y-114617157D01*
X152610486Y-114615511D01*
X152608940Y-114613965D01*
X152607470Y-114612897D01*
X152510324Y-114563399D01*
X152508594Y-114562837D01*
X152400909Y-114545781D01*
X152399091Y-114545781D01*
X152291406Y-114562837D01*
X152289676Y-114563399D01*
X152192530Y-114612897D01*
X152191060Y-114613965D01*
X152189514Y-114615511D01*
X152188832Y-114617157D01*
X151511168Y-114617157D01*
X151510486Y-114615511D01*
X151508940Y-114613965D01*
X151507470Y-114612897D01*
X151410324Y-114563399D01*
X151408594Y-114562837D01*
X151300909Y-114545781D01*
X151299091Y-114545781D01*
X151191406Y-114562837D01*
X151189676Y-114563399D01*
X151092530Y-114612897D01*
X151091060Y-114613965D01*
X151089514Y-114615511D01*
X151088832Y-114617157D01*
X147726487Y-114617157D01*
X147683654Y-114176352D01*
X147675718Y-114094679D01*
X147673790Y-114082843D01*
X151088832Y-114082843D01*
X151089514Y-114084489D01*
X151091060Y-114086035D01*
X151092530Y-114087103D01*
X151189676Y-114136601D01*
X151191406Y-114137163D01*
X151299091Y-114154219D01*
X151300909Y-114154219D01*
X151408594Y-114137163D01*
X151410324Y-114136601D01*
X151507470Y-114087103D01*
X151508940Y-114086035D01*
X151510486Y-114084489D01*
X151511168Y-114082843D01*
X152188832Y-114082843D01*
X152189514Y-114084489D01*
X152191060Y-114086035D01*
X152192530Y-114087103D01*
X152289676Y-114136601D01*
X152291406Y-114137163D01*
X152399091Y-114154219D01*
X152400909Y-114154219D01*
X152508594Y-114137163D01*
X152510324Y-114136601D01*
X152607470Y-114087103D01*
X152608940Y-114086035D01*
X152610486Y-114084489D01*
X152611168Y-114082843D01*
X153288832Y-114082843D01*
X153289514Y-114084489D01*
X153291060Y-114086035D01*
X153292530Y-114087103D01*
X153389676Y-114136601D01*
X153391406Y-114137163D01*
X153499091Y-114154219D01*
X153500909Y-114154219D01*
X153608594Y-114137163D01*
X153610324Y-114136601D01*
X153707470Y-114087103D01*
X153708940Y-114086035D01*
X153710486Y-114084489D01*
X153711168Y-114082843D01*
X154388832Y-114082843D01*
X154389514Y-114084489D01*
X154391060Y-114086035D01*
X154392530Y-114087103D01*
X154489676Y-114136601D01*
X154491406Y-114137163D01*
X154599091Y-114154219D01*
X154600909Y-114154219D01*
X154708594Y-114137163D01*
X154710324Y-114136601D01*
X154807470Y-114087103D01*
X154808940Y-114086035D01*
X154810486Y-114084489D01*
X154811168Y-114082843D01*
X155488832Y-114082843D01*
X155489514Y-114084489D01*
X155491060Y-114086035D01*
X155492530Y-114087103D01*
X155589676Y-114136601D01*
X155591406Y-114137163D01*
X155699091Y-114154219D01*
X155700909Y-114154219D01*
X155808594Y-114137163D01*
X155810324Y-114136601D01*
X155907470Y-114087103D01*
X155908940Y-114086035D01*
X155910486Y-114084489D01*
X155911168Y-114082843D01*
X156588832Y-114082843D01*
X156589514Y-114084489D01*
X156591060Y-114086035D01*
X156592530Y-114087103D01*
X156689676Y-114136601D01*
X156691406Y-114137163D01*
X156799091Y-114154219D01*
X156800909Y-114154219D01*
X156908594Y-114137163D01*
X156910324Y-114136601D01*
X157007470Y-114087103D01*
X157008940Y-114086035D01*
X157010486Y-114084489D01*
X157011168Y-114082843D01*
X157010486Y-114081197D01*
X156801646Y-113872357D01*
X156800000Y-113871675D01*
X156798354Y-113872357D01*
X156589514Y-114081197D01*
X156588832Y-114082843D01*
X155911168Y-114082843D01*
X155910486Y-114081197D01*
X155701646Y-113872357D01*
X155700000Y-113871675D01*
X155698354Y-113872357D01*
X155489514Y-114081197D01*
X155488832Y-114082843D01*
X154811168Y-114082843D01*
X154810486Y-114081197D01*
X154601646Y-113872357D01*
X154600000Y-113871675D01*
X154598354Y-113872357D01*
X154389514Y-114081197D01*
X154388832Y-114082843D01*
X153711168Y-114082843D01*
X153710486Y-114081197D01*
X153501646Y-113872357D01*
X153500000Y-113871675D01*
X153498354Y-113872357D01*
X153289514Y-114081197D01*
X153288832Y-114082843D01*
X152611168Y-114082843D01*
X152610486Y-114081197D01*
X152401646Y-113872357D01*
X152400000Y-113871675D01*
X152398354Y-113872357D01*
X152189514Y-114081197D01*
X152188832Y-114082843D01*
X151511168Y-114082843D01*
X151510486Y-114081197D01*
X151301646Y-113872357D01*
X151300000Y-113871675D01*
X151298354Y-113872357D01*
X151089514Y-114081197D01*
X151088832Y-114082843D01*
X147673790Y-114082843D01*
X147611440Y-113700000D01*
X149599170Y-113700000D01*
X149620328Y-113819991D01*
X149681249Y-113925509D01*
X149774585Y-114003828D01*
X149889079Y-114045500D01*
X150010921Y-114045500D01*
X150125415Y-114003828D01*
X150218751Y-113925509D01*
X150279672Y-113819991D01*
X150283037Y-113800909D01*
X150945781Y-113800909D01*
X150962837Y-113908594D01*
X150963399Y-113910324D01*
X151012897Y-114007470D01*
X151013965Y-114008940D01*
X151015511Y-114010486D01*
X151017157Y-114011168D01*
X151018803Y-114010486D01*
X151227643Y-113801646D01*
X151228325Y-113800000D01*
X151371675Y-113800000D01*
X151372357Y-113801646D01*
X151581197Y-114010486D01*
X151582843Y-114011168D01*
X151584489Y-114010486D01*
X151586035Y-114008940D01*
X151587103Y-114007470D01*
X151636601Y-113910324D01*
X151637163Y-113908594D01*
X151654219Y-113800909D01*
X152045781Y-113800909D01*
X152062837Y-113908594D01*
X152063399Y-113910324D01*
X152112897Y-114007470D01*
X152113965Y-114008940D01*
X152115511Y-114010486D01*
X152117157Y-114011168D01*
X152118803Y-114010486D01*
X152327643Y-113801646D01*
X152328325Y-113800000D01*
X152471675Y-113800000D01*
X152472357Y-113801646D01*
X152681197Y-114010486D01*
X152682843Y-114011168D01*
X152684489Y-114010486D01*
X152686035Y-114008940D01*
X152687103Y-114007470D01*
X152736601Y-113910324D01*
X152737163Y-113908594D01*
X152754219Y-113800909D01*
X153145781Y-113800909D01*
X153162837Y-113908594D01*
X153163399Y-113910324D01*
X153212897Y-114007470D01*
X153213965Y-114008940D01*
X153215511Y-114010486D01*
X153217157Y-114011168D01*
X153218803Y-114010486D01*
X153427643Y-113801646D01*
X153428325Y-113800000D01*
X153571675Y-113800000D01*
X153572357Y-113801646D01*
X153781197Y-114010486D01*
X153782843Y-114011168D01*
X153784489Y-114010486D01*
X153786035Y-114008940D01*
X153787103Y-114007470D01*
X153836601Y-113910324D01*
X153837163Y-113908594D01*
X153854219Y-113800909D01*
X154245781Y-113800909D01*
X154262837Y-113908594D01*
X154263399Y-113910324D01*
X154312897Y-114007470D01*
X154313965Y-114008940D01*
X154315511Y-114010486D01*
X154317157Y-114011168D01*
X154318803Y-114010486D01*
X154527643Y-113801646D01*
X154528325Y-113800000D01*
X154671675Y-113800000D01*
X154672357Y-113801646D01*
X154881197Y-114010486D01*
X154882843Y-114011168D01*
X154884489Y-114010486D01*
X154886035Y-114008940D01*
X154887103Y-114007470D01*
X154936601Y-113910324D01*
X154937163Y-113908594D01*
X154954219Y-113800909D01*
X155345781Y-113800909D01*
X155362837Y-113908594D01*
X155363399Y-113910324D01*
X155412897Y-114007470D01*
X155413965Y-114008940D01*
X155415511Y-114010486D01*
X155417157Y-114011168D01*
X155418803Y-114010486D01*
X155627643Y-113801646D01*
X155628325Y-113800000D01*
X155771675Y-113800000D01*
X155772357Y-113801646D01*
X155981197Y-114010486D01*
X155982843Y-114011168D01*
X155984489Y-114010486D01*
X155986035Y-114008940D01*
X155987103Y-114007470D01*
X156036601Y-113910324D01*
X156037163Y-113908594D01*
X156054219Y-113800909D01*
X156445781Y-113800909D01*
X156462837Y-113908594D01*
X156463399Y-113910324D01*
X156512897Y-114007470D01*
X156513965Y-114008940D01*
X156515511Y-114010486D01*
X156517157Y-114011168D01*
X156518803Y-114010486D01*
X156727643Y-113801646D01*
X156728325Y-113800000D01*
X156871675Y-113800000D01*
X156872357Y-113801646D01*
X157081197Y-114010486D01*
X157082843Y-114011168D01*
X157084489Y-114010486D01*
X157086035Y-114008940D01*
X157087103Y-114007470D01*
X157090909Y-114000000D01*
X157799170Y-114000000D01*
X157820328Y-114119991D01*
X157820841Y-114120879D01*
X157820841Y-114120880D01*
X157852868Y-114176352D01*
X157881249Y-114225509D01*
X157974585Y-114303828D01*
X158089079Y-114345500D01*
X158210921Y-114345500D01*
X158325415Y-114303828D01*
X158418751Y-114225509D01*
X158447132Y-114176352D01*
X158479159Y-114120880D01*
X158479159Y-114120879D01*
X158479672Y-114119991D01*
X158500830Y-114000000D01*
X158479672Y-113880009D01*
X158474861Y-113871675D01*
X158419263Y-113775378D01*
X158418751Y-113774491D01*
X158325415Y-113696172D01*
X158210921Y-113654500D01*
X158089079Y-113654500D01*
X157974585Y-113696172D01*
X157881249Y-113774491D01*
X157880737Y-113775378D01*
X157825140Y-113871675D01*
X157820328Y-113880009D01*
X157799170Y-114000000D01*
X157090909Y-114000000D01*
X157136601Y-113910324D01*
X157137163Y-113908594D01*
X157154219Y-113800909D01*
X157154219Y-113799091D01*
X157137163Y-113691406D01*
X157136601Y-113689676D01*
X157087103Y-113592530D01*
X157086035Y-113591060D01*
X157084489Y-113589514D01*
X157082843Y-113588832D01*
X157081197Y-113589514D01*
X156872357Y-113798354D01*
X156871675Y-113800000D01*
X156728325Y-113800000D01*
X156727643Y-113798354D01*
X156518803Y-113589514D01*
X156517157Y-113588832D01*
X156515511Y-113589514D01*
X156513965Y-113591060D01*
X156512897Y-113592530D01*
X156463399Y-113689676D01*
X156462837Y-113691406D01*
X156445781Y-113799091D01*
X156445781Y-113800909D01*
X156054219Y-113800909D01*
X156054219Y-113799091D01*
X156037163Y-113691406D01*
X156036601Y-113689676D01*
X155987103Y-113592530D01*
X155986035Y-113591060D01*
X155984489Y-113589514D01*
X155982843Y-113588832D01*
X155981197Y-113589514D01*
X155772357Y-113798354D01*
X155771675Y-113800000D01*
X155628325Y-113800000D01*
X155627643Y-113798354D01*
X155418803Y-113589514D01*
X155417157Y-113588832D01*
X155415511Y-113589514D01*
X155413965Y-113591060D01*
X155412897Y-113592530D01*
X155363399Y-113689676D01*
X155362837Y-113691406D01*
X155345781Y-113799091D01*
X155345781Y-113800909D01*
X154954219Y-113800909D01*
X154954219Y-113799091D01*
X154937163Y-113691406D01*
X154936601Y-113689676D01*
X154887103Y-113592530D01*
X154886035Y-113591060D01*
X154884489Y-113589514D01*
X154882843Y-113588832D01*
X154881197Y-113589514D01*
X154672357Y-113798354D01*
X154671675Y-113800000D01*
X154528325Y-113800000D01*
X154527643Y-113798354D01*
X154318803Y-113589514D01*
X154317157Y-113588832D01*
X154315511Y-113589514D01*
X154313965Y-113591060D01*
X154312897Y-113592530D01*
X154263399Y-113689676D01*
X154262837Y-113691406D01*
X154245781Y-113799091D01*
X154245781Y-113800909D01*
X153854219Y-113800909D01*
X153854219Y-113799091D01*
X153837163Y-113691406D01*
X153836601Y-113689676D01*
X153787103Y-113592530D01*
X153786035Y-113591060D01*
X153784489Y-113589514D01*
X153782843Y-113588832D01*
X153781197Y-113589514D01*
X153572357Y-113798354D01*
X153571675Y-113800000D01*
X153428325Y-113800000D01*
X153427643Y-113798354D01*
X153218803Y-113589514D01*
X153217157Y-113588832D01*
X153215511Y-113589514D01*
X153213965Y-113591060D01*
X153212897Y-113592530D01*
X153163399Y-113689676D01*
X153162837Y-113691406D01*
X153145781Y-113799091D01*
X153145781Y-113800909D01*
X152754219Y-113800909D01*
X152754219Y-113799091D01*
X152737163Y-113691406D01*
X152736601Y-113689676D01*
X152687103Y-113592530D01*
X152686035Y-113591060D01*
X152684489Y-113589514D01*
X152682843Y-113588832D01*
X152681197Y-113589514D01*
X152472357Y-113798354D01*
X152471675Y-113800000D01*
X152328325Y-113800000D01*
X152327643Y-113798354D01*
X152118803Y-113589514D01*
X152117157Y-113588832D01*
X152115511Y-113589514D01*
X152113965Y-113591060D01*
X152112897Y-113592530D01*
X152063399Y-113689676D01*
X152062837Y-113691406D01*
X152045781Y-113799091D01*
X152045781Y-113800909D01*
X151654219Y-113800909D01*
X151654219Y-113799091D01*
X151637163Y-113691406D01*
X151636601Y-113689676D01*
X151587103Y-113592530D01*
X151586035Y-113591060D01*
X151584489Y-113589514D01*
X151582843Y-113588832D01*
X151581197Y-113589514D01*
X151372357Y-113798354D01*
X151371675Y-113800000D01*
X151228325Y-113800000D01*
X151227643Y-113798354D01*
X151018803Y-113589514D01*
X151017157Y-113588832D01*
X151015511Y-113589514D01*
X151013965Y-113591060D01*
X151012897Y-113592530D01*
X150963399Y-113689676D01*
X150962837Y-113691406D01*
X150945781Y-113799091D01*
X150945781Y-113800909D01*
X150283037Y-113800909D01*
X150300830Y-113700000D01*
X150279672Y-113580009D01*
X150243384Y-113517157D01*
X151088832Y-113517157D01*
X151089514Y-113518803D01*
X151298354Y-113727643D01*
X151300000Y-113728325D01*
X151301646Y-113727643D01*
X151510486Y-113518803D01*
X151511168Y-113517157D01*
X152188832Y-113517157D01*
X152189514Y-113518803D01*
X152398354Y-113727643D01*
X152400000Y-113728325D01*
X152401646Y-113727643D01*
X152610486Y-113518803D01*
X152611168Y-113517157D01*
X153288832Y-113517157D01*
X153289514Y-113518803D01*
X153498354Y-113727643D01*
X153500000Y-113728325D01*
X153501646Y-113727643D01*
X153710486Y-113518803D01*
X153711168Y-113517157D01*
X154388832Y-113517157D01*
X154389514Y-113518803D01*
X154598354Y-113727643D01*
X154600000Y-113728325D01*
X154601646Y-113727643D01*
X154810486Y-113518803D01*
X154811168Y-113517157D01*
X155488832Y-113517157D01*
X155489514Y-113518803D01*
X155698354Y-113727643D01*
X155700000Y-113728325D01*
X155701646Y-113727643D01*
X155910486Y-113518803D01*
X155911168Y-113517157D01*
X156588832Y-113517157D01*
X156589514Y-113518803D01*
X156798354Y-113727643D01*
X156800000Y-113728325D01*
X156801646Y-113727643D01*
X157010486Y-113518803D01*
X157011168Y-113517157D01*
X157010486Y-113515511D01*
X157008940Y-113513965D01*
X157007470Y-113512897D01*
X156910324Y-113463399D01*
X156908594Y-113462837D01*
X156800909Y-113445781D01*
X156799091Y-113445781D01*
X156691406Y-113462837D01*
X156689676Y-113463399D01*
X156592530Y-113512897D01*
X156591060Y-113513965D01*
X156589514Y-113515511D01*
X156588832Y-113517157D01*
X155911168Y-113517157D01*
X155910486Y-113515511D01*
X155908940Y-113513965D01*
X155907470Y-113512897D01*
X155810324Y-113463399D01*
X155808594Y-113462837D01*
X155700909Y-113445781D01*
X155699091Y-113445781D01*
X155591406Y-113462837D01*
X155589676Y-113463399D01*
X155492530Y-113512897D01*
X155491060Y-113513965D01*
X155489514Y-113515511D01*
X155488832Y-113517157D01*
X154811168Y-113517157D01*
X154810486Y-113515511D01*
X154808940Y-113513965D01*
X154807470Y-113512897D01*
X154710324Y-113463399D01*
X154708594Y-113462837D01*
X154600909Y-113445781D01*
X154599091Y-113445781D01*
X154491406Y-113462837D01*
X154489676Y-113463399D01*
X154392530Y-113512897D01*
X154391060Y-113513965D01*
X154389514Y-113515511D01*
X154388832Y-113517157D01*
X153711168Y-113517157D01*
X153710486Y-113515511D01*
X153708940Y-113513965D01*
X153707470Y-113512897D01*
X153610324Y-113463399D01*
X153608594Y-113462837D01*
X153500909Y-113445781D01*
X153499091Y-113445781D01*
X153391406Y-113462837D01*
X153389676Y-113463399D01*
X153292530Y-113512897D01*
X153291060Y-113513965D01*
X153289514Y-113515511D01*
X153288832Y-113517157D01*
X152611168Y-113517157D01*
X152610486Y-113515511D01*
X152608940Y-113513965D01*
X152607470Y-113512897D01*
X152510324Y-113463399D01*
X152508594Y-113462837D01*
X152400909Y-113445781D01*
X152399091Y-113445781D01*
X152291406Y-113462837D01*
X152289676Y-113463399D01*
X152192530Y-113512897D01*
X152191060Y-113513965D01*
X152189514Y-113515511D01*
X152188832Y-113517157D01*
X151511168Y-113517157D01*
X151510486Y-113515511D01*
X151508940Y-113513965D01*
X151507470Y-113512897D01*
X151410324Y-113463399D01*
X151408594Y-113462837D01*
X151300909Y-113445781D01*
X151299091Y-113445781D01*
X151191406Y-113462837D01*
X151189676Y-113463399D01*
X151092530Y-113512897D01*
X151091060Y-113513965D01*
X151089514Y-113515511D01*
X151088832Y-113517157D01*
X150243384Y-113517157D01*
X150218751Y-113474491D01*
X150125415Y-113396172D01*
X150010921Y-113354500D01*
X149889079Y-113354500D01*
X149774585Y-113396172D01*
X149681249Y-113474491D01*
X149620328Y-113580009D01*
X149599170Y-113700000D01*
X147611440Y-113700000D01*
X147581414Y-113515634D01*
X147581031Y-113513965D01*
X147449984Y-112944072D01*
X147449982Y-112944064D01*
X147449940Y-112943882D01*
X147406910Y-112800000D01*
X147875737Y-112800000D01*
X147896895Y-112919991D01*
X147897408Y-112920879D01*
X147897408Y-112920880D01*
X147910798Y-112944072D01*
X147957816Y-113025509D01*
X148051152Y-113103828D01*
X148165646Y-113145500D01*
X148287488Y-113145500D01*
X148401982Y-113103828D01*
X148495318Y-113025509D01*
X148519951Y-112982843D01*
X151088832Y-112982843D01*
X151089514Y-112984489D01*
X151091060Y-112986035D01*
X151092530Y-112987103D01*
X151189676Y-113036601D01*
X151191406Y-113037163D01*
X151299091Y-113054219D01*
X151300909Y-113054219D01*
X151408594Y-113037163D01*
X151410324Y-113036601D01*
X151507470Y-112987103D01*
X151508940Y-112986035D01*
X151510486Y-112984489D01*
X151511168Y-112982843D01*
X152188832Y-112982843D01*
X152189514Y-112984489D01*
X152191060Y-112986035D01*
X152192530Y-112987103D01*
X152289676Y-113036601D01*
X152291406Y-113037163D01*
X152399091Y-113054219D01*
X152400909Y-113054219D01*
X152508594Y-113037163D01*
X152510324Y-113036601D01*
X152607470Y-112987103D01*
X152608940Y-112986035D01*
X152610486Y-112984489D01*
X152611168Y-112982843D01*
X153288832Y-112982843D01*
X153289514Y-112984489D01*
X153291060Y-112986035D01*
X153292530Y-112987103D01*
X153389676Y-113036601D01*
X153391406Y-113037163D01*
X153499091Y-113054219D01*
X153500909Y-113054219D01*
X153608594Y-113037163D01*
X153610324Y-113036601D01*
X153707470Y-112987103D01*
X153708940Y-112986035D01*
X153710486Y-112984489D01*
X153711168Y-112982843D01*
X154388832Y-112982843D01*
X154389514Y-112984489D01*
X154391060Y-112986035D01*
X154392530Y-112987103D01*
X154489676Y-113036601D01*
X154491406Y-113037163D01*
X154599091Y-113054219D01*
X154600909Y-113054219D01*
X154708594Y-113037163D01*
X154710324Y-113036601D01*
X154807470Y-112987103D01*
X154808940Y-112986035D01*
X154810486Y-112984489D01*
X154811168Y-112982843D01*
X155488832Y-112982843D01*
X155489514Y-112984489D01*
X155491060Y-112986035D01*
X155492530Y-112987103D01*
X155589676Y-113036601D01*
X155591406Y-113037163D01*
X155699091Y-113054219D01*
X155700909Y-113054219D01*
X155808594Y-113037163D01*
X155810324Y-113036601D01*
X155907470Y-112987103D01*
X155908940Y-112986035D01*
X155910486Y-112984489D01*
X155911168Y-112982843D01*
X156588832Y-112982843D01*
X156589514Y-112984489D01*
X156591060Y-112986035D01*
X156592530Y-112987103D01*
X156689676Y-113036601D01*
X156691406Y-113037163D01*
X156799091Y-113054219D01*
X156800909Y-113054219D01*
X156908594Y-113037163D01*
X156910324Y-113036601D01*
X157007470Y-112987103D01*
X157008940Y-112986035D01*
X157010486Y-112984489D01*
X157011168Y-112982843D01*
X157010486Y-112981197D01*
X156801646Y-112772357D01*
X156800000Y-112771675D01*
X156798354Y-112772357D01*
X156589514Y-112981197D01*
X156588832Y-112982843D01*
X155911168Y-112982843D01*
X155910486Y-112981197D01*
X155701646Y-112772357D01*
X155700000Y-112771675D01*
X155698354Y-112772357D01*
X155489514Y-112981197D01*
X155488832Y-112982843D01*
X154811168Y-112982843D01*
X154810486Y-112981197D01*
X154601646Y-112772357D01*
X154600000Y-112771675D01*
X154598354Y-112772357D01*
X154389514Y-112981197D01*
X154388832Y-112982843D01*
X153711168Y-112982843D01*
X153710486Y-112981197D01*
X153501646Y-112772357D01*
X153500000Y-112771675D01*
X153498354Y-112772357D01*
X153289514Y-112981197D01*
X153288832Y-112982843D01*
X152611168Y-112982843D01*
X152610486Y-112981197D01*
X152401646Y-112772357D01*
X152400000Y-112771675D01*
X152398354Y-112772357D01*
X152189514Y-112981197D01*
X152188832Y-112982843D01*
X151511168Y-112982843D01*
X151510486Y-112981197D01*
X151301646Y-112772357D01*
X151300000Y-112771675D01*
X151298354Y-112772357D01*
X151089514Y-112981197D01*
X151088832Y-112982843D01*
X148519951Y-112982843D01*
X148542336Y-112944072D01*
X148555726Y-112920880D01*
X148555726Y-112920879D01*
X148556239Y-112919991D01*
X148577397Y-112800000D01*
X148559924Y-112700909D01*
X150945781Y-112700909D01*
X150962837Y-112808594D01*
X150963399Y-112810324D01*
X151012897Y-112907470D01*
X151013965Y-112908940D01*
X151015511Y-112910486D01*
X151017157Y-112911168D01*
X151018803Y-112910486D01*
X151227643Y-112701646D01*
X151228325Y-112700000D01*
X151371675Y-112700000D01*
X151372357Y-112701646D01*
X151581197Y-112910486D01*
X151582843Y-112911168D01*
X151584489Y-112910486D01*
X151586035Y-112908940D01*
X151587103Y-112907470D01*
X151636601Y-112810324D01*
X151637163Y-112808594D01*
X151654219Y-112700909D01*
X152045781Y-112700909D01*
X152062837Y-112808594D01*
X152063399Y-112810324D01*
X152112897Y-112907470D01*
X152113965Y-112908940D01*
X152115511Y-112910486D01*
X152117157Y-112911168D01*
X152118803Y-112910486D01*
X152327643Y-112701646D01*
X152328325Y-112700000D01*
X152471675Y-112700000D01*
X152472357Y-112701646D01*
X152681197Y-112910486D01*
X152682843Y-112911168D01*
X152684489Y-112910486D01*
X152686035Y-112908940D01*
X152687103Y-112907470D01*
X152736601Y-112810324D01*
X152737163Y-112808594D01*
X152754219Y-112700909D01*
X153145781Y-112700909D01*
X153162837Y-112808594D01*
X153163399Y-112810324D01*
X153212897Y-112907470D01*
X153213965Y-112908940D01*
X153215511Y-112910486D01*
X153217157Y-112911168D01*
X153218803Y-112910486D01*
X153427643Y-112701646D01*
X153428325Y-112700000D01*
X153571675Y-112700000D01*
X153572357Y-112701646D01*
X153781197Y-112910486D01*
X153782843Y-112911168D01*
X153784489Y-112910486D01*
X153786035Y-112908940D01*
X153787103Y-112907470D01*
X153836601Y-112810324D01*
X153837163Y-112808594D01*
X153854219Y-112700909D01*
X154245781Y-112700909D01*
X154262837Y-112808594D01*
X154263399Y-112810324D01*
X154312897Y-112907470D01*
X154313965Y-112908940D01*
X154315511Y-112910486D01*
X154317157Y-112911168D01*
X154318803Y-112910486D01*
X154527643Y-112701646D01*
X154528325Y-112700000D01*
X154671675Y-112700000D01*
X154672357Y-112701646D01*
X154881197Y-112910486D01*
X154882843Y-112911168D01*
X154884489Y-112910486D01*
X154886035Y-112908940D01*
X154887103Y-112907470D01*
X154936601Y-112810324D01*
X154937163Y-112808594D01*
X154954219Y-112700909D01*
X155345781Y-112700909D01*
X155362837Y-112808594D01*
X155363399Y-112810324D01*
X155412897Y-112907470D01*
X155413965Y-112908940D01*
X155415511Y-112910486D01*
X155417157Y-112911168D01*
X155418803Y-112910486D01*
X155627643Y-112701646D01*
X155628325Y-112700000D01*
X155771675Y-112700000D01*
X155772357Y-112701646D01*
X155981197Y-112910486D01*
X155982843Y-112911168D01*
X155984489Y-112910486D01*
X155986035Y-112908940D01*
X155987103Y-112907470D01*
X156036601Y-112810324D01*
X156037163Y-112808594D01*
X156054219Y-112700909D01*
X156445781Y-112700909D01*
X156462837Y-112808594D01*
X156463399Y-112810324D01*
X156512897Y-112907470D01*
X156513965Y-112908940D01*
X156515511Y-112910486D01*
X156517157Y-112911168D01*
X156518803Y-112910486D01*
X156727643Y-112701646D01*
X156728325Y-112700000D01*
X156871675Y-112700000D01*
X156872357Y-112701646D01*
X157081197Y-112910486D01*
X157082843Y-112911168D01*
X157084489Y-112910486D01*
X157086035Y-112908940D01*
X157087103Y-112907470D01*
X157136601Y-112810324D01*
X157137163Y-112808594D01*
X157154219Y-112700909D01*
X157154219Y-112699091D01*
X157137163Y-112591406D01*
X157136601Y-112589676D01*
X157087103Y-112492530D01*
X157086035Y-112491060D01*
X157084489Y-112489514D01*
X157082843Y-112488832D01*
X157081197Y-112489514D01*
X156872357Y-112698354D01*
X156871675Y-112700000D01*
X156728325Y-112700000D01*
X156727643Y-112698354D01*
X156518803Y-112489514D01*
X156517157Y-112488832D01*
X156515511Y-112489514D01*
X156513965Y-112491060D01*
X156512897Y-112492530D01*
X156463399Y-112589676D01*
X156462837Y-112591406D01*
X156445781Y-112699091D01*
X156445781Y-112700909D01*
X156054219Y-112700909D01*
X156054219Y-112699091D01*
X156037163Y-112591406D01*
X156036601Y-112589676D01*
X155987103Y-112492530D01*
X155986035Y-112491060D01*
X155984489Y-112489514D01*
X155982843Y-112488832D01*
X155981197Y-112489514D01*
X155772357Y-112698354D01*
X155771675Y-112700000D01*
X155628325Y-112700000D01*
X155627643Y-112698354D01*
X155418803Y-112489514D01*
X155417157Y-112488832D01*
X155415511Y-112489514D01*
X155413965Y-112491060D01*
X155412897Y-112492530D01*
X155363399Y-112589676D01*
X155362837Y-112591406D01*
X155345781Y-112699091D01*
X155345781Y-112700909D01*
X154954219Y-112700909D01*
X154954219Y-112699091D01*
X154937163Y-112591406D01*
X154936601Y-112589676D01*
X154887103Y-112492530D01*
X154886035Y-112491060D01*
X154884489Y-112489514D01*
X154882843Y-112488832D01*
X154881197Y-112489514D01*
X154672357Y-112698354D01*
X154671675Y-112700000D01*
X154528325Y-112700000D01*
X154527643Y-112698354D01*
X154318803Y-112489514D01*
X154317157Y-112488832D01*
X154315511Y-112489514D01*
X154313965Y-112491060D01*
X154312897Y-112492530D01*
X154263399Y-112589676D01*
X154262837Y-112591406D01*
X154245781Y-112699091D01*
X154245781Y-112700909D01*
X153854219Y-112700909D01*
X153854219Y-112699091D01*
X153837163Y-112591406D01*
X153836601Y-112589676D01*
X153787103Y-112492530D01*
X153786035Y-112491060D01*
X153784489Y-112489514D01*
X153782843Y-112488832D01*
X153781197Y-112489514D01*
X153572357Y-112698354D01*
X153571675Y-112700000D01*
X153428325Y-112700000D01*
X153427643Y-112698354D01*
X153218803Y-112489514D01*
X153217157Y-112488832D01*
X153215511Y-112489514D01*
X153213965Y-112491060D01*
X153212897Y-112492530D01*
X153163399Y-112589676D01*
X153162837Y-112591406D01*
X153145781Y-112699091D01*
X153145781Y-112700909D01*
X152754219Y-112700909D01*
X152754219Y-112699091D01*
X152737163Y-112591406D01*
X152736601Y-112589676D01*
X152687103Y-112492530D01*
X152686035Y-112491060D01*
X152684489Y-112489514D01*
X152682843Y-112488832D01*
X152681197Y-112489514D01*
X152472357Y-112698354D01*
X152471675Y-112700000D01*
X152328325Y-112700000D01*
X152327643Y-112698354D01*
X152118803Y-112489514D01*
X152117157Y-112488832D01*
X152115511Y-112489514D01*
X152113965Y-112491060D01*
X152112897Y-112492530D01*
X152063399Y-112589676D01*
X152062837Y-112591406D01*
X152045781Y-112699091D01*
X152045781Y-112700909D01*
X151654219Y-112700909D01*
X151654219Y-112699091D01*
X151637163Y-112591406D01*
X151636601Y-112589676D01*
X151587103Y-112492530D01*
X151586035Y-112491060D01*
X151584489Y-112489514D01*
X151582843Y-112488832D01*
X151581197Y-112489514D01*
X151372357Y-112698354D01*
X151371675Y-112700000D01*
X151228325Y-112700000D01*
X151227643Y-112698354D01*
X151018803Y-112489514D01*
X151017157Y-112488832D01*
X151015511Y-112489514D01*
X151013965Y-112491060D01*
X151012897Y-112492530D01*
X150963399Y-112589676D01*
X150962837Y-112591406D01*
X150945781Y-112699091D01*
X150945781Y-112700909D01*
X148559924Y-112700909D01*
X148556239Y-112680009D01*
X148495318Y-112574491D01*
X148401982Y-112496172D01*
X148287488Y-112454500D01*
X148165646Y-112454500D01*
X148051152Y-112496172D01*
X147957816Y-112574491D01*
X147896895Y-112680009D01*
X147875737Y-112800000D01*
X147406910Y-112800000D01*
X147292416Y-112417157D01*
X151088832Y-112417157D01*
X151089514Y-112418803D01*
X151298354Y-112627643D01*
X151300000Y-112628325D01*
X151301646Y-112627643D01*
X151510486Y-112418803D01*
X151511168Y-112417157D01*
X152188832Y-112417157D01*
X152189514Y-112418803D01*
X152398354Y-112627643D01*
X152400000Y-112628325D01*
X152401646Y-112627643D01*
X152610486Y-112418803D01*
X152611168Y-112417157D01*
X153288832Y-112417157D01*
X153289514Y-112418803D01*
X153498354Y-112627643D01*
X153500000Y-112628325D01*
X153501646Y-112627643D01*
X153710486Y-112418803D01*
X153711168Y-112417157D01*
X154388832Y-112417157D01*
X154389514Y-112418803D01*
X154598354Y-112627643D01*
X154600000Y-112628325D01*
X154601646Y-112627643D01*
X154810486Y-112418803D01*
X154811168Y-112417157D01*
X155488832Y-112417157D01*
X155489514Y-112418803D01*
X155698354Y-112627643D01*
X155700000Y-112628325D01*
X155701646Y-112627643D01*
X155910486Y-112418803D01*
X155911168Y-112417157D01*
X156588832Y-112417157D01*
X156589514Y-112418803D01*
X156798354Y-112627643D01*
X156800000Y-112628325D01*
X156801646Y-112627643D01*
X157010486Y-112418803D01*
X157011168Y-112417157D01*
X157010486Y-112415511D01*
X157008940Y-112413965D01*
X157007470Y-112412897D01*
X156910324Y-112363399D01*
X156908594Y-112362837D01*
X156800909Y-112345781D01*
X156799091Y-112345781D01*
X156691406Y-112362837D01*
X156689676Y-112363399D01*
X156592530Y-112412897D01*
X156591060Y-112413965D01*
X156589514Y-112415511D01*
X156588832Y-112417157D01*
X155911168Y-112417157D01*
X155910486Y-112415511D01*
X155908940Y-112413965D01*
X155907470Y-112412897D01*
X155810324Y-112363399D01*
X155808594Y-112362837D01*
X155700909Y-112345781D01*
X155699091Y-112345781D01*
X155591406Y-112362837D01*
X155589676Y-112363399D01*
X155492530Y-112412897D01*
X155491060Y-112413965D01*
X155489514Y-112415511D01*
X155488832Y-112417157D01*
X154811168Y-112417157D01*
X154810486Y-112415511D01*
X154808940Y-112413965D01*
X154807470Y-112412897D01*
X154710324Y-112363399D01*
X154708594Y-112362837D01*
X154600909Y-112345781D01*
X154599091Y-112345781D01*
X154491406Y-112362837D01*
X154489676Y-112363399D01*
X154392530Y-112412897D01*
X154391060Y-112413965D01*
X154389514Y-112415511D01*
X154388832Y-112417157D01*
X153711168Y-112417157D01*
X153710486Y-112415511D01*
X153708940Y-112413965D01*
X153707470Y-112412897D01*
X153610324Y-112363399D01*
X153608594Y-112362837D01*
X153500909Y-112345781D01*
X153499091Y-112345781D01*
X153391406Y-112362837D01*
X153389676Y-112363399D01*
X153292530Y-112412897D01*
X153291060Y-112413965D01*
X153289514Y-112415511D01*
X153288832Y-112417157D01*
X152611168Y-112417157D01*
X152610486Y-112415511D01*
X152608940Y-112413965D01*
X152607470Y-112412897D01*
X152510324Y-112363399D01*
X152508594Y-112362837D01*
X152400909Y-112345781D01*
X152399091Y-112345781D01*
X152291406Y-112362837D01*
X152289676Y-112363399D01*
X152192530Y-112412897D01*
X152191060Y-112413965D01*
X152189514Y-112415511D01*
X152188832Y-112417157D01*
X151511168Y-112417157D01*
X151510486Y-112415511D01*
X151508940Y-112413965D01*
X151507470Y-112412897D01*
X151410324Y-112363399D01*
X151408594Y-112362837D01*
X151300909Y-112345781D01*
X151299091Y-112345781D01*
X151191406Y-112362837D01*
X151189676Y-112363399D01*
X151092530Y-112412897D01*
X151091060Y-112413965D01*
X151089514Y-112415511D01*
X151088832Y-112417157D01*
X147292416Y-112417157D01*
X147281844Y-112381806D01*
X147103141Y-111900000D01*
X151199170Y-111900000D01*
X151220328Y-112019991D01*
X151220841Y-112020879D01*
X151220841Y-112020880D01*
X151240608Y-112055117D01*
X151281249Y-112125509D01*
X151374585Y-112203828D01*
X151489079Y-112245500D01*
X151610921Y-112245500D01*
X151725415Y-112203828D01*
X151818751Y-112125509D01*
X151859392Y-112055117D01*
X151879159Y-112020880D01*
X151879159Y-112020879D01*
X151879672Y-112019991D01*
X151900830Y-111900000D01*
X154899170Y-111900000D01*
X154920328Y-112019991D01*
X154920841Y-112020879D01*
X154920841Y-112020880D01*
X154940608Y-112055117D01*
X154981249Y-112125509D01*
X155074585Y-112203828D01*
X155189079Y-112245500D01*
X155310921Y-112245500D01*
X155425415Y-112203828D01*
X155518751Y-112125509D01*
X155559392Y-112055117D01*
X155579159Y-112020880D01*
X155579159Y-112020879D01*
X155579672Y-112019991D01*
X155600830Y-111900000D01*
X155579672Y-111780009D01*
X155568200Y-111760138D01*
X155519263Y-111675378D01*
X155518751Y-111674491D01*
X155425415Y-111596172D01*
X155310921Y-111554500D01*
X155189079Y-111554500D01*
X155074585Y-111596172D01*
X154981249Y-111674491D01*
X154980737Y-111675378D01*
X154931801Y-111760138D01*
X154920328Y-111780009D01*
X154899170Y-111900000D01*
X151900830Y-111900000D01*
X151879672Y-111780009D01*
X151868200Y-111760138D01*
X151819263Y-111675378D01*
X151818751Y-111674491D01*
X151725415Y-111596172D01*
X151610921Y-111554500D01*
X151489079Y-111554500D01*
X151374585Y-111596172D01*
X151281249Y-111674491D01*
X151280737Y-111675378D01*
X151231801Y-111760138D01*
X151220328Y-111780009D01*
X151199170Y-111900000D01*
X147103141Y-111900000D01*
X147077826Y-111831749D01*
X146838736Y-111296004D01*
X146565572Y-110776805D01*
X146549178Y-110750000D01*
X148849170Y-110750000D01*
X148870328Y-110869991D01*
X148931249Y-110975509D01*
X149024585Y-111053828D01*
X149139079Y-111095500D01*
X149260921Y-111095500D01*
X149375415Y-111053828D01*
X149468751Y-110975509D01*
X149529672Y-110869991D01*
X149550830Y-110750000D01*
X149529672Y-110630009D01*
X149468751Y-110524491D01*
X149375415Y-110446172D01*
X149260921Y-110404500D01*
X149139079Y-110404500D01*
X149024585Y-110446172D01*
X148931249Y-110524491D01*
X148870328Y-110630009D01*
X148849170Y-110750000D01*
X146549178Y-110750000D01*
X146390777Y-110491004D01*
X146389384Y-110482159D01*
X146394653Y-110474919D01*
X146403499Y-110473526D01*
X146404761Y-110473906D01*
X146464089Y-110495500D01*
X146585931Y-110495500D01*
X146700425Y-110453828D01*
X146793761Y-110375509D01*
X146808489Y-110350000D01*
X148099170Y-110350000D01*
X148120328Y-110469991D01*
X148120841Y-110470879D01*
X148120841Y-110470880D01*
X148139766Y-110503659D01*
X148181249Y-110575509D01*
X148274585Y-110653828D01*
X148389079Y-110695500D01*
X148510921Y-110695500D01*
X148625415Y-110653828D01*
X148718751Y-110575509D01*
X148760234Y-110503659D01*
X148779159Y-110470880D01*
X148779159Y-110470879D01*
X148779672Y-110469991D01*
X148800830Y-110350000D01*
X148779672Y-110230009D01*
X148718751Y-110124491D01*
X148625415Y-110046172D01*
X148510921Y-110004500D01*
X148389079Y-110004500D01*
X148274585Y-110046172D01*
X148181249Y-110124491D01*
X148120328Y-110230009D01*
X148099170Y-110350000D01*
X146808489Y-110350000D01*
X146854682Y-110269991D01*
X146875840Y-110150000D01*
X146854682Y-110030009D01*
X146839955Y-110004500D01*
X146794273Y-109925378D01*
X146793761Y-109924491D01*
X146700425Y-109846172D01*
X146585931Y-109804500D01*
X146464089Y-109804500D01*
X146349595Y-109846172D01*
X146256259Y-109924491D01*
X146255747Y-109925378D01*
X146210066Y-110004500D01*
X146195338Y-110030009D01*
X146188260Y-110070149D01*
X146178336Y-110126430D01*
X146173525Y-110133982D01*
X146164782Y-110135920D01*
X146157248Y-110131134D01*
X146132082Y-110095392D01*
X145956356Y-109845823D01*
X145921823Y-109796779D01*
X145921821Y-109796776D01*
X145921713Y-109796623D01*
X145884160Y-109750000D01*
X154974556Y-109750000D01*
X154974734Y-109751009D01*
X154991630Y-109846827D01*
X154994183Y-109861308D01*
X155050695Y-109959191D01*
X155051474Y-109959845D01*
X155051476Y-109959847D01*
X155093548Y-109995149D01*
X155137278Y-110031843D01*
X155243487Y-110070500D01*
X155356513Y-110070500D01*
X155462722Y-110031843D01*
X155506452Y-109995149D01*
X155548524Y-109959847D01*
X155548526Y-109959845D01*
X155549305Y-109959191D01*
X155605817Y-109861308D01*
X155608371Y-109846827D01*
X155625266Y-109751009D01*
X155625444Y-109750000D01*
X155607811Y-109650000D01*
X156799170Y-109650000D01*
X156820328Y-109769991D01*
X156881249Y-109875509D01*
X156974585Y-109953828D01*
X157089079Y-109995500D01*
X157210921Y-109995500D01*
X157325415Y-109953828D01*
X157418751Y-109875509D01*
X157479672Y-109769991D01*
X157500830Y-109650000D01*
X157479672Y-109530009D01*
X157473249Y-109518883D01*
X157419263Y-109425378D01*
X157418751Y-109424491D01*
X157325415Y-109346172D01*
X157210921Y-109304500D01*
X157089079Y-109304500D01*
X156974585Y-109346172D01*
X156881249Y-109424491D01*
X156880737Y-109425378D01*
X156826752Y-109518883D01*
X156820328Y-109530009D01*
X156799170Y-109650000D01*
X155607811Y-109650000D01*
X155605817Y-109638692D01*
X155549305Y-109540809D01*
X155548526Y-109540155D01*
X155548524Y-109540153D01*
X155497583Y-109497409D01*
X155462722Y-109468157D01*
X155356513Y-109429500D01*
X155243487Y-109429500D01*
X155137278Y-109468157D01*
X155102417Y-109497409D01*
X155051476Y-109540153D01*
X155051474Y-109540155D01*
X155050695Y-109540809D01*
X154994183Y-109638692D01*
X154974556Y-109750000D01*
X145884160Y-109750000D01*
X145553703Y-109339727D01*
X145553572Y-109339584D01*
X145425442Y-109200000D01*
X151549170Y-109200000D01*
X151570328Y-109319991D01*
X151570841Y-109320879D01*
X151570841Y-109320880D01*
X151585822Y-109346827D01*
X151631249Y-109425509D01*
X151724585Y-109503828D01*
X151839079Y-109545500D01*
X151960921Y-109545500D01*
X152075415Y-109503828D01*
X152168751Y-109425509D01*
X152214178Y-109346827D01*
X152229159Y-109320880D01*
X152229159Y-109320879D01*
X152229672Y-109319991D01*
X152250830Y-109200000D01*
X152229672Y-109080009D01*
X152216073Y-109056454D01*
X152212347Y-109050000D01*
X154974556Y-109050000D01*
X154974734Y-109051009D01*
X154979848Y-109080009D01*
X154994183Y-109161308D01*
X155050695Y-109259191D01*
X155051474Y-109259845D01*
X155051476Y-109259847D01*
X155099877Y-109300460D01*
X155137278Y-109331843D01*
X155243487Y-109370500D01*
X155356513Y-109370500D01*
X155462722Y-109331843D01*
X155500123Y-109300460D01*
X155548524Y-109259847D01*
X155548526Y-109259845D01*
X155549305Y-109259191D01*
X155605817Y-109161308D01*
X155620153Y-109080009D01*
X155625266Y-109051009D01*
X155625444Y-109050000D01*
X155612286Y-108975378D01*
X155605995Y-108939700D01*
X155605994Y-108939699D01*
X155605817Y-108938692D01*
X155549305Y-108840809D01*
X155548526Y-108840155D01*
X155548524Y-108840153D01*
X155465085Y-108770140D01*
X155462722Y-108768157D01*
X155356513Y-108729500D01*
X155243487Y-108729500D01*
X155137278Y-108768157D01*
X155134915Y-108770140D01*
X155051476Y-108840153D01*
X155051474Y-108840155D01*
X155050695Y-108840809D01*
X154994183Y-108938692D01*
X154994006Y-108939699D01*
X154994005Y-108939700D01*
X154987714Y-108975378D01*
X154974556Y-109050000D01*
X152212347Y-109050000D01*
X152169263Y-108975378D01*
X152168751Y-108974491D01*
X152075415Y-108896172D01*
X151960921Y-108854500D01*
X151839079Y-108854500D01*
X151724585Y-108896172D01*
X151631249Y-108974491D01*
X151630737Y-108975378D01*
X151583928Y-109056454D01*
X151570328Y-109080009D01*
X151549170Y-109200000D01*
X145425442Y-109200000D01*
X145157113Y-108907683D01*
X145157107Y-108907677D01*
X145156974Y-108907532D01*
X144733182Y-108501839D01*
X144298979Y-108136853D01*
X144294851Y-108128907D01*
X144297551Y-108120369D01*
X144305497Y-108116241D01*
X144310508Y-108116903D01*
X144389079Y-108145500D01*
X144510921Y-108145500D01*
X144528615Y-108139060D01*
X146208146Y-108139060D01*
X146227773Y-108250368D01*
X146284285Y-108348251D01*
X146285064Y-108348905D01*
X146285066Y-108348907D01*
X146325732Y-108383029D01*
X146370868Y-108420903D01*
X146477077Y-108459560D01*
X146590103Y-108459560D01*
X146696312Y-108420903D01*
X146741448Y-108383029D01*
X146782114Y-108348907D01*
X146782116Y-108348905D01*
X146782895Y-108348251D01*
X146839407Y-108250368D01*
X146857105Y-108150000D01*
X148999170Y-108150000D01*
X149020328Y-108269991D01*
X149081249Y-108375509D01*
X149174585Y-108453828D01*
X149289079Y-108495500D01*
X149410921Y-108495500D01*
X149525415Y-108453828D01*
X149618751Y-108375509D01*
X149662346Y-108300000D01*
X149899170Y-108300000D01*
X149920328Y-108419991D01*
X149920841Y-108420879D01*
X149920841Y-108420880D01*
X149943173Y-108459560D01*
X149981249Y-108525509D01*
X150074585Y-108603828D01*
X150189079Y-108645500D01*
X150310921Y-108645500D01*
X150425415Y-108603828D01*
X150518751Y-108525509D01*
X150556827Y-108459560D01*
X150579159Y-108420880D01*
X150579159Y-108420879D01*
X150579672Y-108419991D01*
X150600830Y-108300000D01*
X150579672Y-108180009D01*
X150555448Y-108138051D01*
X150519263Y-108075378D01*
X150518751Y-108074491D01*
X150425415Y-107996172D01*
X150310921Y-107954500D01*
X150189079Y-107954500D01*
X150074585Y-107996172D01*
X149981249Y-108074491D01*
X149980737Y-108075378D01*
X149944553Y-108138051D01*
X149920328Y-108180009D01*
X149899170Y-108300000D01*
X149662346Y-108300000D01*
X149679672Y-108269991D01*
X149700830Y-108150000D01*
X149679672Y-108030009D01*
X149618751Y-107924491D01*
X149525415Y-107846172D01*
X149410921Y-107804500D01*
X149289079Y-107804500D01*
X149174585Y-107846172D01*
X149081249Y-107924491D01*
X149020328Y-108030009D01*
X148999170Y-108150000D01*
X146857105Y-108150000D01*
X146859034Y-108139060D01*
X146839407Y-108027752D01*
X146782895Y-107929869D01*
X146782116Y-107929215D01*
X146782114Y-107929213D01*
X146733713Y-107888600D01*
X146696312Y-107857217D01*
X146590103Y-107818560D01*
X146477077Y-107818560D01*
X146370868Y-107857217D01*
X146333467Y-107888600D01*
X146285066Y-107929213D01*
X146285064Y-107929215D01*
X146284285Y-107929869D01*
X146227773Y-108027752D01*
X146208146Y-108139060D01*
X144528615Y-108139060D01*
X144625415Y-108103828D01*
X144718751Y-108025509D01*
X144759748Y-107954500D01*
X144779159Y-107920880D01*
X144779159Y-107920879D01*
X144779672Y-107919991D01*
X144800830Y-107800000D01*
X144779672Y-107680009D01*
X144718751Y-107574491D01*
X144625415Y-107496172D01*
X144510921Y-107454500D01*
X144389079Y-107454500D01*
X144274585Y-107496172D01*
X144181249Y-107574491D01*
X144120328Y-107680009D01*
X144099170Y-107800000D01*
X144120328Y-107919991D01*
X144120841Y-107920879D01*
X144120841Y-107920880D01*
X144176544Y-108017360D01*
X144177713Y-108026238D01*
X144172262Y-108033342D01*
X144163384Y-108034511D01*
X144159477Y-108032633D01*
X144018945Y-107929213D01*
X143811579Y-107776609D01*
X143317611Y-107460095D01*
X142998865Y-107283775D01*
X142804417Y-107176212D01*
X142804403Y-107176205D01*
X142804246Y-107176118D01*
X142804083Y-107176041D01*
X142804071Y-107176035D01*
X142273794Y-106925941D01*
X142273788Y-106925938D01*
X142273626Y-106925862D01*
X142258848Y-106920026D01*
X144677876Y-106920026D01*
X144699034Y-107040017D01*
X144699547Y-107040905D01*
X144699547Y-107040906D01*
X144710020Y-107059046D01*
X144759955Y-107145535D01*
X144853291Y-107223854D01*
X144967785Y-107265526D01*
X145089627Y-107265526D01*
X145204121Y-107223854D01*
X145297457Y-107145535D01*
X145323747Y-107100000D01*
X148049170Y-107100000D01*
X148070328Y-107219991D01*
X148131249Y-107325509D01*
X148224585Y-107403828D01*
X148339079Y-107445500D01*
X148460921Y-107445500D01*
X148575415Y-107403828D01*
X148668751Y-107325509D01*
X148729672Y-107219991D01*
X148750830Y-107100000D01*
X148729672Y-106980009D01*
X148668751Y-106874491D01*
X148575415Y-106796172D01*
X148460921Y-106754500D01*
X148339079Y-106754500D01*
X148224585Y-106796172D01*
X148131249Y-106874491D01*
X148070328Y-106980009D01*
X148049170Y-107100000D01*
X145323747Y-107100000D01*
X145347392Y-107059046D01*
X145357865Y-107040906D01*
X145357865Y-107040905D01*
X145358378Y-107040017D01*
X145379536Y-106920026D01*
X145358378Y-106800035D01*
X145348044Y-106782135D01*
X145302833Y-106703828D01*
X145297457Y-106694517D01*
X145204121Y-106616198D01*
X145089627Y-106574526D01*
X144967785Y-106574526D01*
X144853291Y-106616198D01*
X144759955Y-106694517D01*
X144754579Y-106703828D01*
X144709369Y-106782135D01*
X144699034Y-106800035D01*
X144677876Y-106920026D01*
X142258848Y-106920026D01*
X141727962Y-106710369D01*
X141727790Y-106710314D01*
X141727780Y-106710310D01*
X141169690Y-106530590D01*
X141169529Y-106530538D01*
X141169367Y-106530497D01*
X141169363Y-106530496D01*
X140809433Y-106439754D01*
X140651749Y-106400000D01*
X146199170Y-106400000D01*
X146220328Y-106519991D01*
X146220841Y-106520879D01*
X146220841Y-106520880D01*
X146260494Y-106589560D01*
X146281249Y-106625509D01*
X146374585Y-106703828D01*
X146489079Y-106745500D01*
X146610921Y-106745500D01*
X146725415Y-106703828D01*
X146818751Y-106625509D01*
X146839506Y-106589560D01*
X146879159Y-106520880D01*
X146879159Y-106520879D01*
X146879672Y-106519991D01*
X146900830Y-106400000D01*
X146879672Y-106280009D01*
X146818751Y-106174491D01*
X146725415Y-106096172D01*
X146610921Y-106054500D01*
X146489079Y-106054500D01*
X146374585Y-106096172D01*
X146281249Y-106174491D01*
X146220328Y-106280009D01*
X146199170Y-106400000D01*
X140651749Y-106400000D01*
X140600656Y-106387119D01*
X140600480Y-106387087D01*
X140600473Y-106387085D01*
X140180302Y-106309590D01*
X140023713Y-106280709D01*
X140023551Y-106280690D01*
X140023539Y-106280688D01*
X139603711Y-106230998D01*
X139441106Y-106211753D01*
X139440914Y-106211743D01*
X139440905Y-106211742D01*
X138855452Y-106180548D01*
X138855450Y-106180548D01*
X138855263Y-106180538D01*
X138855080Y-106180540D01*
X138855076Y-106180540D01*
X138687349Y-106182443D01*
X138268627Y-106187193D01*
X137683643Y-106231692D01*
X137683448Y-106231720D01*
X137683444Y-106231720D01*
X137334871Y-106281019D01*
X137102750Y-106313848D01*
X136528370Y-106433319D01*
X136528214Y-106433362D01*
X136528202Y-106433365D01*
X136061367Y-106562392D01*
X135962896Y-106589608D01*
X135662682Y-106693860D01*
X135408859Y-106782002D01*
X135408852Y-106782005D01*
X135408687Y-106782062D01*
X134868053Y-107009879D01*
X134867909Y-107009951D01*
X134867898Y-107009956D01*
X134357124Y-107265175D01*
X134343247Y-107272109D01*
X133836457Y-107567660D01*
X133836297Y-107567768D01*
X133836287Y-107567774D01*
X133638902Y-107700662D01*
X133349796Y-107895300D01*
X133349646Y-107895415D01*
X133349640Y-107895420D01*
X133025945Y-108145149D01*
X132885293Y-108253661D01*
X132885157Y-108253781D01*
X132885153Y-108253784D01*
X132575653Y-108526166D01*
X132444884Y-108641252D01*
X132444758Y-108641379D01*
X132444754Y-108641382D01*
X132030535Y-109056324D01*
X132030523Y-109056336D01*
X132030406Y-109056454D01*
X132030296Y-109056580D01*
X132030288Y-109056588D01*
X131702946Y-109429851D01*
X131643585Y-109497539D01*
X131643487Y-109497667D01*
X131643480Y-109497675D01*
X131375854Y-109845823D01*
X131286034Y-109962667D01*
X130959245Y-110449899D01*
X130959150Y-110450063D01*
X130959146Y-110450069D01*
X130915403Y-110525378D01*
X130664579Y-110957204D01*
X130403264Y-111482466D01*
X130176391Y-112023498D01*
X129984905Y-112578042D01*
X129829604Y-113143787D01*
X129829571Y-113143946D01*
X129829570Y-113143951D01*
X129728735Y-113633015D01*
X129711135Y-113718375D01*
X129711113Y-113718531D01*
X129711112Y-113718538D01*
X129684571Y-113908594D01*
X129629993Y-114299410D01*
X129586515Y-114884471D01*
X129584945Y-115048000D01*
X129580884Y-115471118D01*
X115769790Y-115471118D01*
X115769786Y-115470917D01*
X115765477Y-115265210D01*
X115765477Y-115264726D01*
X115766055Y-115237163D01*
X115769975Y-115050000D01*
X119449170Y-115050000D01*
X119470328Y-115169991D01*
X119470841Y-115170879D01*
X119470841Y-115170880D01*
X119508785Y-115236601D01*
X119531249Y-115275509D01*
X119624585Y-115353828D01*
X119739079Y-115395500D01*
X119860921Y-115395500D01*
X119975415Y-115353828D01*
X120068751Y-115275509D01*
X120091215Y-115236601D01*
X120129159Y-115170880D01*
X120129159Y-115170879D01*
X120129672Y-115169991D01*
X120150830Y-115050000D01*
X120129672Y-114930009D01*
X120111822Y-114899091D01*
X120086911Y-114855945D01*
X120068751Y-114824491D01*
X119975415Y-114746172D01*
X119860921Y-114704500D01*
X119739079Y-114704500D01*
X119624585Y-114746172D01*
X119531249Y-114824491D01*
X119513089Y-114855945D01*
X119488179Y-114899091D01*
X119470328Y-114930009D01*
X119449170Y-115050000D01*
X115769975Y-115050000D01*
X115770842Y-115008594D01*
X115785554Y-114306298D01*
X115785574Y-114305808D01*
X115811486Y-113893946D01*
X128604493Y-113893946D01*
X128622711Y-114033262D01*
X128623047Y-114034025D01*
X128623047Y-114034026D01*
X128661264Y-114120880D01*
X128679297Y-114161864D01*
X128769704Y-114269416D01*
X128770397Y-114269878D01*
X128770399Y-114269879D01*
X128872298Y-114337709D01*
X128886663Y-114347271D01*
X129020772Y-114389169D01*
X129100468Y-114390630D01*
X129160419Y-114391729D01*
X129160421Y-114391729D01*
X129161250Y-114391744D01*
X129296804Y-114354788D01*
X129308645Y-114347518D01*
X129415833Y-114281704D01*
X129415834Y-114281704D01*
X129416538Y-114281271D01*
X129510825Y-114177105D01*
X129572086Y-114050662D01*
X129572955Y-114045500D01*
X129595322Y-113912547D01*
X129595396Y-113912107D01*
X129595544Y-113900000D01*
X129594560Y-113893125D01*
X129575744Y-113761742D01*
X129575626Y-113760917D01*
X129549371Y-113703173D01*
X129517818Y-113633775D01*
X129517816Y-113633773D01*
X129517472Y-113633015D01*
X129513745Y-113628689D01*
X129426303Y-113527209D01*
X129425758Y-113526576D01*
X129345401Y-113474491D01*
X129308556Y-113450609D01*
X129307857Y-113450156D01*
X129180071Y-113411940D01*
X129174046Y-113410138D01*
X129174044Y-113410138D01*
X129173246Y-113409899D01*
X129100470Y-113409455D01*
X129033579Y-113409046D01*
X129033578Y-113409046D01*
X129032747Y-113409041D01*
X128948572Y-113433098D01*
X128898451Y-113447423D01*
X128898450Y-113447424D01*
X128897654Y-113447651D01*
X128778828Y-113522624D01*
X128778280Y-113523245D01*
X128778276Y-113523248D01*
X128729153Y-113578871D01*
X128685821Y-113627935D01*
X128626109Y-113755117D01*
X128604493Y-113893946D01*
X115811486Y-113893946D01*
X115842562Y-113400000D01*
X124649170Y-113400000D01*
X124670328Y-113519991D01*
X124731249Y-113625509D01*
X124824585Y-113703828D01*
X124939079Y-113745500D01*
X125060921Y-113745500D01*
X125175415Y-113703828D01*
X125268751Y-113625509D01*
X125329672Y-113519991D01*
X125350830Y-113400000D01*
X125329672Y-113280009D01*
X125268751Y-113174491D01*
X125175415Y-113096172D01*
X125060921Y-113054500D01*
X124939079Y-113054500D01*
X124824585Y-113096172D01*
X124731249Y-113174491D01*
X124670328Y-113280009D01*
X124649170Y-113400000D01*
X115842562Y-113400000D01*
X115845769Y-113349034D01*
X115845810Y-113348546D01*
X115946017Y-112395132D01*
X115946079Y-112394646D01*
X115975716Y-112193946D01*
X125804493Y-112193946D01*
X125822711Y-112333262D01*
X125823047Y-112334025D01*
X125823047Y-112334026D01*
X125844711Y-112383262D01*
X125879297Y-112461864D01*
X125969704Y-112569416D01*
X125970397Y-112569878D01*
X125970399Y-112569879D01*
X126058201Y-112628325D01*
X126086663Y-112647271D01*
X126220772Y-112689169D01*
X126300468Y-112690630D01*
X126360419Y-112691729D01*
X126360421Y-112691729D01*
X126361250Y-112691744D01*
X126496804Y-112654788D01*
X126508645Y-112647518D01*
X126615833Y-112581704D01*
X126615834Y-112581704D01*
X126616538Y-112581271D01*
X126619637Y-112577848D01*
X126640091Y-112555251D01*
X126710825Y-112477105D01*
X126772086Y-112350662D01*
X126775153Y-112332435D01*
X126795322Y-112212547D01*
X126795396Y-112212107D01*
X126795544Y-112200000D01*
X126794678Y-112193946D01*
X127354493Y-112193946D01*
X127372711Y-112333262D01*
X127373047Y-112334025D01*
X127373047Y-112334026D01*
X127394711Y-112383262D01*
X127429297Y-112461864D01*
X127519704Y-112569416D01*
X127520397Y-112569878D01*
X127520399Y-112569879D01*
X127608201Y-112628325D01*
X127636663Y-112647271D01*
X127770772Y-112689169D01*
X127850468Y-112690630D01*
X127910419Y-112691729D01*
X127910421Y-112691729D01*
X127911250Y-112691744D01*
X128046804Y-112654788D01*
X128058645Y-112647518D01*
X128165833Y-112581704D01*
X128165834Y-112581704D01*
X128166538Y-112581271D01*
X128169637Y-112577848D01*
X128190091Y-112555251D01*
X128260825Y-112477105D01*
X128322086Y-112350662D01*
X128325153Y-112332435D01*
X128340040Y-112243946D01*
X128754493Y-112243946D01*
X128772711Y-112383262D01*
X128773047Y-112384025D01*
X128773047Y-112384026D01*
X128807297Y-112461864D01*
X128829297Y-112511864D01*
X128919704Y-112619416D01*
X128920397Y-112619878D01*
X128920399Y-112619879D01*
X129009395Y-112679120D01*
X129036663Y-112697271D01*
X129170772Y-112739169D01*
X129250468Y-112740630D01*
X129310419Y-112741729D01*
X129310421Y-112741729D01*
X129311250Y-112741744D01*
X129446804Y-112704788D01*
X129451922Y-112701646D01*
X129565833Y-112631704D01*
X129565834Y-112631704D01*
X129566538Y-112631271D01*
X129660825Y-112527105D01*
X129722086Y-112400662D01*
X129723017Y-112395132D01*
X129745322Y-112262547D01*
X129745396Y-112262107D01*
X129745544Y-112250000D01*
X129744560Y-112243125D01*
X129725744Y-112111742D01*
X129725626Y-112110917D01*
X129722645Y-112104361D01*
X129667818Y-111983775D01*
X129667816Y-111983773D01*
X129667472Y-111983015D01*
X129663745Y-111978689D01*
X129623842Y-111932380D01*
X129575758Y-111876576D01*
X129457857Y-111800156D01*
X129387517Y-111779120D01*
X129324046Y-111760138D01*
X129324044Y-111760138D01*
X129323246Y-111759899D01*
X129250470Y-111759455D01*
X129183579Y-111759046D01*
X129183578Y-111759046D01*
X129182747Y-111759041D01*
X129109382Y-111780009D01*
X129048451Y-111797423D01*
X129048450Y-111797424D01*
X129047654Y-111797651D01*
X128928828Y-111872624D01*
X128928280Y-111873245D01*
X128928276Y-111873248D01*
X128904650Y-111900000D01*
X128835821Y-111977935D01*
X128776109Y-112105117D01*
X128754493Y-112243946D01*
X128340040Y-112243946D01*
X128345322Y-112212547D01*
X128345396Y-112212107D01*
X128345544Y-112200000D01*
X128344560Y-112193125D01*
X128325744Y-112061742D01*
X128325626Y-112060917D01*
X128308692Y-112023672D01*
X128267818Y-111933775D01*
X128267816Y-111933773D01*
X128267472Y-111933015D01*
X128263745Y-111928689D01*
X128218841Y-111876576D01*
X128175758Y-111826576D01*
X128057857Y-111750156D01*
X127990551Y-111730027D01*
X127924046Y-111710138D01*
X127924044Y-111710138D01*
X127923246Y-111709899D01*
X127850470Y-111709455D01*
X127783579Y-111709046D01*
X127783578Y-111709046D01*
X127782747Y-111709041D01*
X127698572Y-111733098D01*
X127648451Y-111747423D01*
X127648450Y-111747424D01*
X127647654Y-111747651D01*
X127528828Y-111822624D01*
X127528280Y-111823245D01*
X127528276Y-111823248D01*
X127485063Y-111872179D01*
X127435821Y-111927935D01*
X127376109Y-112055117D01*
X127354493Y-112193946D01*
X126794678Y-112193946D01*
X126794560Y-112193125D01*
X126775744Y-112061742D01*
X126775626Y-112060917D01*
X126758692Y-112023672D01*
X126717818Y-111933775D01*
X126717816Y-111933773D01*
X126717472Y-111933015D01*
X126713745Y-111928689D01*
X126668841Y-111876576D01*
X126625758Y-111826576D01*
X126507857Y-111750156D01*
X126440551Y-111730027D01*
X126374046Y-111710138D01*
X126374044Y-111710138D01*
X126373246Y-111709899D01*
X126300470Y-111709455D01*
X126233579Y-111709046D01*
X126233578Y-111709046D01*
X126232747Y-111709041D01*
X126148572Y-111733098D01*
X126098451Y-111747423D01*
X126098450Y-111747424D01*
X126097654Y-111747651D01*
X125978828Y-111822624D01*
X125978280Y-111823245D01*
X125978276Y-111823248D01*
X125935063Y-111872179D01*
X125885821Y-111927935D01*
X125826109Y-112055117D01*
X125804493Y-112193946D01*
X115975716Y-112193946D01*
X116086118Y-111446308D01*
X116086199Y-111445825D01*
X116265835Y-110504139D01*
X116265937Y-110503659D01*
X116484848Y-109570329D01*
X116484970Y-109569855D01*
X116630116Y-109050000D01*
X119749170Y-109050000D01*
X119770328Y-109169991D01*
X119770841Y-109170879D01*
X119770841Y-109170880D01*
X119787071Y-109198991D01*
X119831249Y-109275509D01*
X119924585Y-109353828D01*
X120039079Y-109395500D01*
X120160921Y-109395500D01*
X120275415Y-109353828D01*
X120368751Y-109275509D01*
X120412929Y-109198991D01*
X120429159Y-109170880D01*
X120429159Y-109170879D01*
X120429672Y-109169991D01*
X120450830Y-109050000D01*
X120429672Y-108930009D01*
X120368751Y-108824491D01*
X120275415Y-108746172D01*
X120160921Y-108704500D01*
X120039079Y-108704500D01*
X119924585Y-108746172D01*
X119831249Y-108824491D01*
X119770328Y-108930009D01*
X119749170Y-109050000D01*
X116630116Y-109050000D01*
X116742771Y-108646515D01*
X116742913Y-108646046D01*
X117039148Y-107734328D01*
X117039309Y-107733865D01*
X117109939Y-107543946D01*
X120254493Y-107543946D01*
X120272711Y-107683262D01*
X120329297Y-107811864D01*
X120419704Y-107919416D01*
X120420397Y-107919878D01*
X120420399Y-107919879D01*
X120472937Y-107954851D01*
X120536663Y-107997271D01*
X120670772Y-108039169D01*
X120750468Y-108040630D01*
X120810419Y-108041729D01*
X120810421Y-108041729D01*
X120811250Y-108041744D01*
X120946804Y-108004788D01*
X120958645Y-107997518D01*
X121065833Y-107931704D01*
X121065834Y-107931704D01*
X121066538Y-107931271D01*
X121077663Y-107918981D01*
X121098989Y-107895420D01*
X121160825Y-107827105D01*
X121165670Y-107817106D01*
X121205999Y-107733865D01*
X121222086Y-107700662D01*
X121225153Y-107682435D01*
X121245322Y-107562547D01*
X121245396Y-107562107D01*
X121245544Y-107550000D01*
X121244560Y-107543125D01*
X121225744Y-107411742D01*
X121225626Y-107410917D01*
X121225281Y-107410158D01*
X121167818Y-107283775D01*
X121167816Y-107283773D01*
X121167472Y-107283015D01*
X121163745Y-107278689D01*
X121113167Y-107219991D01*
X121075758Y-107176576D01*
X120957857Y-107100156D01*
X120890551Y-107080027D01*
X120824046Y-107060138D01*
X120824044Y-107060138D01*
X120823246Y-107059899D01*
X120750470Y-107059455D01*
X120683579Y-107059046D01*
X120683578Y-107059046D01*
X120682747Y-107059041D01*
X120598572Y-107083098D01*
X120548451Y-107097423D01*
X120548450Y-107097424D01*
X120547654Y-107097651D01*
X120428828Y-107172624D01*
X120428280Y-107173245D01*
X120428276Y-107173248D01*
X120387887Y-107218981D01*
X120335821Y-107277935D01*
X120276109Y-107405117D01*
X120254493Y-107543946D01*
X117109939Y-107543946D01*
X117194471Y-107316645D01*
X117373471Y-106835328D01*
X117373645Y-106834888D01*
X117745158Y-105951097D01*
X117745335Y-105950700D01*
X118007323Y-105393946D01*
X118104493Y-105393946D01*
X118122711Y-105533262D01*
X118123047Y-105534025D01*
X118123047Y-105534026D01*
X118164425Y-105628064D01*
X118179297Y-105661864D01*
X118269704Y-105769416D01*
X118270397Y-105769878D01*
X118270399Y-105769879D01*
X118332321Y-105811098D01*
X118386663Y-105847271D01*
X118520772Y-105889169D01*
X118600468Y-105890630D01*
X118660419Y-105891729D01*
X118660421Y-105891729D01*
X118661250Y-105891744D01*
X118796804Y-105854788D01*
X118808645Y-105847518D01*
X118915833Y-105781704D01*
X118915834Y-105781704D01*
X118916538Y-105781271D01*
X119010825Y-105677105D01*
X119072086Y-105550662D01*
X119073216Y-105543946D01*
X120254493Y-105543946D01*
X120272711Y-105683262D01*
X120273047Y-105684025D01*
X120273047Y-105684026D01*
X120310823Y-105769879D01*
X120329297Y-105811864D01*
X120419704Y-105919416D01*
X120420397Y-105919878D01*
X120420399Y-105919879D01*
X120466660Y-105950673D01*
X120536663Y-105997271D01*
X120670772Y-106039169D01*
X120750468Y-106040630D01*
X120810419Y-106041729D01*
X120810421Y-106041729D01*
X120811250Y-106041744D01*
X120946804Y-106004788D01*
X120958645Y-105997518D01*
X121065833Y-105931704D01*
X121065834Y-105931704D01*
X121066538Y-105931271D01*
X121160825Y-105827105D01*
X121222086Y-105700662D01*
X121225153Y-105682435D01*
X121245322Y-105562547D01*
X121245396Y-105562107D01*
X121245544Y-105550000D01*
X121245238Y-105547859D01*
X121244678Y-105543946D01*
X122204493Y-105543946D01*
X122222711Y-105683262D01*
X122223047Y-105684025D01*
X122223047Y-105684026D01*
X122260823Y-105769879D01*
X122279297Y-105811864D01*
X122369704Y-105919416D01*
X122370397Y-105919878D01*
X122370399Y-105919879D01*
X122416660Y-105950673D01*
X122486663Y-105997271D01*
X122620772Y-106039169D01*
X122700468Y-106040630D01*
X122760419Y-106041729D01*
X122760421Y-106041729D01*
X122761250Y-106041744D01*
X122896804Y-106004788D01*
X122908645Y-105997518D01*
X123015833Y-105931704D01*
X123015834Y-105931704D01*
X123016538Y-105931271D01*
X123110825Y-105827105D01*
X123172086Y-105700662D01*
X123175153Y-105682435D01*
X123195322Y-105562547D01*
X123195396Y-105562107D01*
X123195544Y-105550000D01*
X123195238Y-105547859D01*
X123180271Y-105443354D01*
X123175626Y-105410917D01*
X123167910Y-105393946D01*
X123117818Y-105283775D01*
X123117816Y-105283773D01*
X123117472Y-105283015D01*
X123113745Y-105278689D01*
X123084844Y-105245149D01*
X123025758Y-105176576D01*
X122966808Y-105138366D01*
X122908556Y-105100609D01*
X122907857Y-105100156D01*
X122840552Y-105080028D01*
X122774046Y-105060138D01*
X122774044Y-105060138D01*
X122773246Y-105059899D01*
X122700470Y-105059455D01*
X122633579Y-105059046D01*
X122633578Y-105059046D01*
X122632747Y-105059041D01*
X122549448Y-105082848D01*
X122498451Y-105097423D01*
X122498450Y-105097424D01*
X122497654Y-105097651D01*
X122378828Y-105172624D01*
X122378280Y-105173245D01*
X122378276Y-105173248D01*
X122350961Y-105204177D01*
X122285821Y-105277935D01*
X122226109Y-105405117D01*
X122204493Y-105543946D01*
X121244678Y-105543946D01*
X121230271Y-105443354D01*
X121225626Y-105410917D01*
X121217910Y-105393946D01*
X121167818Y-105283775D01*
X121167816Y-105283773D01*
X121167472Y-105283015D01*
X121163745Y-105278689D01*
X121134844Y-105245149D01*
X121075758Y-105176576D01*
X121016808Y-105138366D01*
X120958556Y-105100609D01*
X120957857Y-105100156D01*
X120890552Y-105080028D01*
X120824046Y-105060138D01*
X120824044Y-105060138D01*
X120823246Y-105059899D01*
X120750470Y-105059455D01*
X120683579Y-105059046D01*
X120683578Y-105059046D01*
X120682747Y-105059041D01*
X120599448Y-105082848D01*
X120548451Y-105097423D01*
X120548450Y-105097424D01*
X120547654Y-105097651D01*
X120428828Y-105172624D01*
X120428280Y-105173245D01*
X120428276Y-105173248D01*
X120400961Y-105204177D01*
X120335821Y-105277935D01*
X120276109Y-105405117D01*
X120254493Y-105543946D01*
X119073216Y-105543946D01*
X119075153Y-105532435D01*
X119095322Y-105412547D01*
X119095396Y-105412107D01*
X119095471Y-105405941D01*
X119095539Y-105400447D01*
X119095539Y-105400441D01*
X119095544Y-105400000D01*
X119094560Y-105393125D01*
X119075744Y-105261742D01*
X119075626Y-105260917D01*
X119037278Y-105176576D01*
X119017818Y-105133775D01*
X119017816Y-105133773D01*
X119017472Y-105133015D01*
X119013745Y-105128689D01*
X118974623Y-105083287D01*
X118925758Y-105026576D01*
X118807857Y-104950156D01*
X118740551Y-104930027D01*
X118674046Y-104910138D01*
X118674044Y-104910138D01*
X118673246Y-104909899D01*
X118600470Y-104909455D01*
X118533579Y-104909046D01*
X118533578Y-104909046D01*
X118532747Y-104909041D01*
X118448572Y-104933098D01*
X118398451Y-104947423D01*
X118398450Y-104947424D01*
X118397654Y-104947651D01*
X118278828Y-105022624D01*
X118278280Y-105023245D01*
X118278276Y-105023248D01*
X118245912Y-105059894D01*
X118185821Y-105127935D01*
X118126109Y-105255117D01*
X118104493Y-105393946D01*
X118007323Y-105393946D01*
X118153518Y-105083264D01*
X118153714Y-105082868D01*
X118429755Y-104554851D01*
X118597885Y-104233249D01*
X118598122Y-104232820D01*
X119077428Y-103402637D01*
X119077681Y-103402218D01*
X119109921Y-103351416D01*
X119209854Y-103193946D01*
X119354493Y-103193946D01*
X119372711Y-103333262D01*
X119429297Y-103461864D01*
X119519704Y-103569416D01*
X119520397Y-103569878D01*
X119520399Y-103569879D01*
X119627616Y-103641249D01*
X119636663Y-103647271D01*
X119770772Y-103689169D01*
X119850468Y-103690630D01*
X119910419Y-103691729D01*
X119910421Y-103691729D01*
X119911250Y-103691744D01*
X120046804Y-103654788D01*
X120058645Y-103647518D01*
X120165833Y-103581704D01*
X120165834Y-103581704D01*
X120166538Y-103581271D01*
X120260825Y-103477105D01*
X120322086Y-103350662D01*
X120325153Y-103332435D01*
X120345322Y-103212547D01*
X120345396Y-103212107D01*
X120345544Y-103200000D01*
X120344560Y-103193125D01*
X120325744Y-103061742D01*
X120325626Y-103060917D01*
X120300537Y-103005737D01*
X120267818Y-102933775D01*
X120267816Y-102933773D01*
X120267472Y-102933015D01*
X120263745Y-102928689D01*
X120176303Y-102827209D01*
X120175758Y-102826576D01*
X120057857Y-102750156D01*
X119990552Y-102730028D01*
X119924046Y-102710138D01*
X119924044Y-102710138D01*
X119923246Y-102709899D01*
X119850470Y-102709455D01*
X119783579Y-102709046D01*
X119783578Y-102709046D01*
X119782747Y-102709041D01*
X119698572Y-102733098D01*
X119648451Y-102747423D01*
X119648450Y-102747424D01*
X119647654Y-102747651D01*
X119528828Y-102822624D01*
X119528280Y-102823245D01*
X119528276Y-102823248D01*
X119497314Y-102858307D01*
X119435821Y-102927935D01*
X119376109Y-103055117D01*
X119354493Y-103193946D01*
X119209854Y-103193946D01*
X119591373Y-102592769D01*
X119591642Y-102592366D01*
X119594037Y-102588920D01*
X119938053Y-102093946D01*
X120304493Y-102093946D01*
X120322711Y-102233262D01*
X120323047Y-102234025D01*
X120323047Y-102234026D01*
X120328108Y-102245527D01*
X120379297Y-102361864D01*
X120469704Y-102469416D01*
X120470397Y-102469878D01*
X120470399Y-102469879D01*
X120572446Y-102537807D01*
X120586663Y-102547271D01*
X120720772Y-102589169D01*
X120800468Y-102590630D01*
X120860419Y-102591729D01*
X120860421Y-102591729D01*
X120861250Y-102591744D01*
X120996804Y-102554788D01*
X120999435Y-102553173D01*
X121115833Y-102481704D01*
X121115834Y-102481704D01*
X121116538Y-102481271D01*
X121122557Y-102474622D01*
X121152362Y-102441693D01*
X121210825Y-102377105D01*
X121272086Y-102250662D01*
X121275153Y-102232435D01*
X121295322Y-102112547D01*
X121295396Y-102112107D01*
X121295544Y-102100000D01*
X121294560Y-102093125D01*
X121275744Y-101961742D01*
X121275626Y-101960917D01*
X121228281Y-101856788D01*
X121217818Y-101833775D01*
X121217816Y-101833773D01*
X121217472Y-101833015D01*
X121214680Y-101829774D01*
X121203259Y-101816519D01*
X121384529Y-101816519D01*
X121402859Y-102205191D01*
X121460372Y-102590021D01*
X121460445Y-102590309D01*
X121460446Y-102590312D01*
X121470348Y-102629158D01*
X121556480Y-102967068D01*
X121556582Y-102967348D01*
X121556584Y-102967353D01*
X121646151Y-103212107D01*
X121690199Y-103332474D01*
X121860161Y-103682495D01*
X121860315Y-103682744D01*
X121860317Y-103682748D01*
X121918741Y-103777344D01*
X122064624Y-104013549D01*
X122301495Y-104322246D01*
X122301696Y-104322459D01*
X122560248Y-104596827D01*
X122568350Y-104605425D01*
X122862455Y-104860187D01*
X123180800Y-105083924D01*
X123181051Y-105084065D01*
X123181056Y-105084068D01*
X123338862Y-105172624D01*
X123520126Y-105274344D01*
X123520402Y-105274464D01*
X123520404Y-105274465D01*
X123530119Y-105278689D01*
X123876957Y-105429499D01*
X124247642Y-105547799D01*
X124260208Y-105550447D01*
X124628110Y-105627977D01*
X124628120Y-105627979D01*
X124628383Y-105628034D01*
X124628661Y-105628064D01*
X124628663Y-105628064D01*
X125014990Y-105669351D01*
X125014998Y-105669351D01*
X125015284Y-105669382D01*
X125015571Y-105669384D01*
X125015580Y-105669384D01*
X125212117Y-105670412D01*
X125404382Y-105671419D01*
X125500698Y-105662145D01*
X125791387Y-105634155D01*
X125791394Y-105634154D01*
X125791695Y-105634125D01*
X125791988Y-105634067D01*
X125791998Y-105634065D01*
X126172966Y-105557940D01*
X126172967Y-105557940D01*
X126173256Y-105557882D01*
X126173529Y-105557798D01*
X126173537Y-105557796D01*
X126397929Y-105488764D01*
X126545159Y-105443470D01*
X126545425Y-105443358D01*
X126545435Y-105443354D01*
X126743250Y-105359793D01*
X126903595Y-105292060D01*
X127244896Y-105105203D01*
X127543470Y-104900000D01*
X142999170Y-104900000D01*
X143020328Y-105019991D01*
X143020841Y-105020879D01*
X143020841Y-105020880D01*
X143042876Y-105059046D01*
X143081249Y-105125509D01*
X143174585Y-105203828D01*
X143289079Y-105245500D01*
X143410921Y-105245500D01*
X143525415Y-105203828D01*
X143618751Y-105125509D01*
X143657124Y-105059046D01*
X143679159Y-105020880D01*
X143679159Y-105020879D01*
X143679672Y-105019991D01*
X143700830Y-104900000D01*
X143679672Y-104780009D01*
X143668032Y-104759847D01*
X143619263Y-104675378D01*
X143618751Y-104674491D01*
X143525415Y-104596172D01*
X143410921Y-104554500D01*
X143289079Y-104554500D01*
X143174585Y-104596172D01*
X143081249Y-104674491D01*
X143080737Y-104675378D01*
X143031969Y-104759847D01*
X143020328Y-104780009D01*
X142999170Y-104900000D01*
X127543470Y-104900000D01*
X127565567Y-104884813D01*
X127812524Y-104675378D01*
X127862092Y-104633341D01*
X127862095Y-104633338D01*
X127862324Y-104633144D01*
X127942335Y-104550000D01*
X132074556Y-104550000D01*
X132075411Y-104554851D01*
X132089252Y-104633341D01*
X132094183Y-104661308D01*
X132150695Y-104759191D01*
X132151474Y-104759845D01*
X132151476Y-104759847D01*
X132199877Y-104800460D01*
X132237278Y-104831843D01*
X132343487Y-104870500D01*
X132456513Y-104870500D01*
X132562722Y-104831843D01*
X132600123Y-104800460D01*
X132648524Y-104759847D01*
X132648526Y-104759845D01*
X132649305Y-104759191D01*
X132705817Y-104661308D01*
X132710749Y-104633341D01*
X132724589Y-104554851D01*
X132725444Y-104550000D01*
X132705817Y-104438692D01*
X132649305Y-104340809D01*
X132648526Y-104340155D01*
X132648524Y-104340153D01*
X132600123Y-104299540D01*
X132562722Y-104268157D01*
X132456513Y-104229500D01*
X132343487Y-104229500D01*
X132237278Y-104268157D01*
X132199877Y-104299540D01*
X132151476Y-104340153D01*
X132151474Y-104340155D01*
X132150695Y-104340809D01*
X132094183Y-104438692D01*
X132074556Y-104550000D01*
X127942335Y-104550000D01*
X128132129Y-104352775D01*
X128372220Y-104046576D01*
X128580139Y-103717681D01*
X128753756Y-103369459D01*
X128817621Y-103200447D01*
X128891196Y-103005737D01*
X128891198Y-103005730D01*
X128891295Y-103005474D01*
X128900695Y-102970149D01*
X128959109Y-102750609D01*
X128985879Y-102650000D01*
X136174556Y-102650000D01*
X136174734Y-102651009D01*
X136192217Y-102750156D01*
X136194183Y-102761308D01*
X136250695Y-102859191D01*
X136251474Y-102859845D01*
X136251476Y-102859847D01*
X136299877Y-102900460D01*
X136337278Y-102931843D01*
X136443487Y-102970500D01*
X136556513Y-102970500D01*
X136662722Y-102931843D01*
X136700123Y-102900460D01*
X136748524Y-102859847D01*
X136748526Y-102859845D01*
X136749305Y-102859191D01*
X136805817Y-102761308D01*
X136807784Y-102750156D01*
X136825266Y-102651009D01*
X136825444Y-102650000D01*
X136815353Y-102592774D01*
X136805995Y-102539700D01*
X136805994Y-102539699D01*
X136805817Y-102538692D01*
X136749305Y-102440809D01*
X136748526Y-102440155D01*
X136748524Y-102440153D01*
X136674123Y-102377724D01*
X136662722Y-102368157D01*
X136556513Y-102329500D01*
X136443487Y-102329500D01*
X136337278Y-102368157D01*
X136325877Y-102377724D01*
X136251476Y-102440153D01*
X136251474Y-102440155D01*
X136250695Y-102440809D01*
X136194183Y-102538692D01*
X136194006Y-102539699D01*
X136194005Y-102539700D01*
X136184647Y-102592774D01*
X136174556Y-102650000D01*
X128985879Y-102650000D01*
X128991346Y-102629453D01*
X129052125Y-102250000D01*
X144899170Y-102250000D01*
X144920328Y-102369991D01*
X144920841Y-102370879D01*
X144920841Y-102370880D01*
X144960836Y-102440153D01*
X144981249Y-102475509D01*
X145074585Y-102553828D01*
X145189079Y-102595500D01*
X145310921Y-102595500D01*
X145425415Y-102553828D01*
X145518751Y-102475509D01*
X145539164Y-102440153D01*
X145579159Y-102370880D01*
X145579159Y-102370879D01*
X145579672Y-102369991D01*
X145600830Y-102250000D01*
X145579672Y-102130009D01*
X145518751Y-102024491D01*
X145425415Y-101946172D01*
X145310921Y-101904500D01*
X145189079Y-101904500D01*
X145074585Y-101946172D01*
X144981249Y-102024491D01*
X144920328Y-102130009D01*
X144899170Y-102250000D01*
X129052125Y-102250000D01*
X129052886Y-102245247D01*
X129068224Y-101979225D01*
X129075275Y-101856946D01*
X129075275Y-101856942D01*
X129075284Y-101856788D01*
X129075378Y-101829942D01*
X129074698Y-101816519D01*
X148254587Y-101816519D01*
X148272917Y-102205191D01*
X148330430Y-102590021D01*
X148330503Y-102590309D01*
X148330504Y-102590312D01*
X148340406Y-102629158D01*
X148426538Y-102967068D01*
X148426640Y-102967348D01*
X148426642Y-102967353D01*
X148516209Y-103212107D01*
X148560257Y-103332474D01*
X148730219Y-103682495D01*
X148730373Y-103682744D01*
X148730375Y-103682748D01*
X148788799Y-103777344D01*
X148934682Y-104013549D01*
X149171553Y-104322246D01*
X149171754Y-104322459D01*
X149430306Y-104596827D01*
X149438408Y-104605425D01*
X149732513Y-104860187D01*
X150050858Y-105083924D01*
X150051109Y-105084065D01*
X150051114Y-105084068D01*
X150208920Y-105172624D01*
X150390184Y-105274344D01*
X150390460Y-105274464D01*
X150390462Y-105274465D01*
X150400177Y-105278689D01*
X150747015Y-105429499D01*
X151117700Y-105547799D01*
X151130266Y-105550447D01*
X151498168Y-105627977D01*
X151498178Y-105627979D01*
X151498441Y-105628034D01*
X151498719Y-105628064D01*
X151498721Y-105628064D01*
X151885048Y-105669351D01*
X151885056Y-105669351D01*
X151885342Y-105669382D01*
X151885629Y-105669384D01*
X151885638Y-105669384D01*
X152082175Y-105670412D01*
X152274440Y-105671419D01*
X152370756Y-105662145D01*
X152661445Y-105634155D01*
X152661452Y-105634154D01*
X152661753Y-105634125D01*
X152662046Y-105634067D01*
X152662056Y-105634065D01*
X153043024Y-105557940D01*
X153043025Y-105557940D01*
X153043314Y-105557882D01*
X153043587Y-105557798D01*
X153043595Y-105557796D01*
X153267987Y-105488764D01*
X153415217Y-105443470D01*
X153415483Y-105443358D01*
X153415493Y-105443354D01*
X153613308Y-105359793D01*
X153773653Y-105292060D01*
X154114954Y-105105203D01*
X154435625Y-104884813D01*
X154682582Y-104675378D01*
X154732150Y-104633341D01*
X154732153Y-104633338D01*
X154732382Y-104633144D01*
X155002187Y-104352775D01*
X155242278Y-104046576D01*
X155450197Y-103717681D01*
X155623814Y-103369459D01*
X155687679Y-103200447D01*
X155761254Y-103005737D01*
X155761256Y-103005730D01*
X155761353Y-103005474D01*
X155770753Y-102970149D01*
X155829167Y-102750609D01*
X155861404Y-102629453D01*
X155922944Y-102245247D01*
X155938282Y-101979225D01*
X155945333Y-101856946D01*
X155945333Y-101856942D01*
X155945342Y-101856788D01*
X155945436Y-101829942D01*
X155925750Y-101441336D01*
X155911620Y-101348991D01*
X155866940Y-101057010D01*
X155866940Y-101057008D01*
X155866894Y-101056710D01*
X155864079Y-101045823D01*
X155769547Y-100680297D01*
X155769546Y-100680294D01*
X155769470Y-100680000D01*
X155764735Y-100667198D01*
X155677893Y-100432435D01*
X155634476Y-100315064D01*
X155478573Y-99996827D01*
X155463422Y-99965899D01*
X155463421Y-99965897D01*
X155463294Y-99965638D01*
X155257677Y-99635300D01*
X155249169Y-99624291D01*
X155019910Y-99327665D01*
X155019909Y-99327663D01*
X155019729Y-99327431D01*
X155010073Y-99317255D01*
X154806916Y-99103173D01*
X154751888Y-99045185D01*
X154537867Y-98861098D01*
X154457120Y-98791644D01*
X154457114Y-98791639D01*
X154456895Y-98791451D01*
X154456658Y-98791286D01*
X154456652Y-98791281D01*
X154138012Y-98568995D01*
X154138010Y-98568994D01*
X154137771Y-98568827D01*
X153797783Y-98379592D01*
X153440411Y-98225684D01*
X153440124Y-98225594D01*
X153440120Y-98225592D01*
X153298581Y-98180965D01*
X153069317Y-98108678D01*
X152688297Y-98029773D01*
X152501667Y-98010487D01*
X152301550Y-97989806D01*
X152301540Y-97989806D01*
X152301255Y-97989776D01*
X152300968Y-97989775D01*
X152300958Y-97989775D01*
X152106703Y-97989436D01*
X151912151Y-97989097D01*
X151773239Y-98002962D01*
X151525277Y-98027712D01*
X151525268Y-98027713D01*
X151524971Y-98027743D01*
X151524675Y-98027803D01*
X151524670Y-98027804D01*
X151380238Y-98057189D01*
X151143679Y-98105317D01*
X150772178Y-98221027D01*
X150759169Y-98226576D01*
X150414548Y-98373569D01*
X150414544Y-98373571D01*
X150414272Y-98373687D01*
X150414012Y-98373831D01*
X150414009Y-98373832D01*
X150167618Y-98509847D01*
X150073625Y-98561734D01*
X149753726Y-98783243D01*
X149753523Y-98783416D01*
X149753517Y-98783421D01*
X149535203Y-98969879D01*
X149457849Y-99035946D01*
X149457650Y-99036154D01*
X149457646Y-99036158D01*
X149189234Y-99317035D01*
X149189024Y-99317255D01*
X149188841Y-99317490D01*
X149188835Y-99317497D01*
X148977476Y-99589000D01*
X148950003Y-99624291D01*
X148949838Y-99624554D01*
X148759983Y-99927209D01*
X148743234Y-99953909D01*
X148743109Y-99954161D01*
X148743105Y-99954169D01*
X148683200Y-100075378D01*
X148570833Y-100302735D01*
X148570731Y-100303007D01*
X148570730Y-100303010D01*
X148434671Y-100666917D01*
X148434566Y-100667198D01*
X148434491Y-100667484D01*
X148434490Y-100667487D01*
X148401896Y-100791729D01*
X148335828Y-101043566D01*
X148335782Y-101043857D01*
X148335782Y-101043859D01*
X148323017Y-101125378D01*
X148275630Y-101427984D01*
X148254587Y-101816519D01*
X129074698Y-101816519D01*
X129055692Y-101441336D01*
X129041716Y-101350000D01*
X146299170Y-101350000D01*
X146320328Y-101469991D01*
X146381249Y-101575509D01*
X146474585Y-101653828D01*
X146589079Y-101695500D01*
X146710921Y-101695500D01*
X146825415Y-101653828D01*
X146918751Y-101575509D01*
X146979672Y-101469991D01*
X147000830Y-101350000D01*
X146979672Y-101230009D01*
X146918751Y-101124491D01*
X146825415Y-101046172D01*
X146710921Y-101004500D01*
X146589079Y-101004500D01*
X146474585Y-101046172D01*
X146381249Y-101124491D01*
X146320328Y-101230009D01*
X146299170Y-101350000D01*
X129041716Y-101350000D01*
X129041562Y-101348991D01*
X128996882Y-101057010D01*
X128996882Y-101057008D01*
X128996836Y-101056710D01*
X128994021Y-101045823D01*
X128899489Y-100680297D01*
X128899488Y-100680294D01*
X128899412Y-100680000D01*
X128894677Y-100667198D01*
X128807835Y-100432435D01*
X128764418Y-100315064D01*
X128754072Y-100293946D01*
X129704493Y-100293946D01*
X129722711Y-100433262D01*
X129779297Y-100561864D01*
X129814865Y-100604177D01*
X129868083Y-100667487D01*
X129869704Y-100669416D01*
X129870397Y-100669878D01*
X129870399Y-100669879D01*
X129977616Y-100741249D01*
X129986663Y-100747271D01*
X130120772Y-100789169D01*
X130200468Y-100790630D01*
X130260419Y-100791729D01*
X130260421Y-100791729D01*
X130261250Y-100791744D01*
X130396804Y-100754788D01*
X130408645Y-100747518D01*
X130515833Y-100681704D01*
X130515834Y-100681704D01*
X130516538Y-100681271D01*
X130517689Y-100680000D01*
X130540091Y-100655251D01*
X130610825Y-100577105D01*
X130672086Y-100450662D01*
X130675153Y-100432435D01*
X130695322Y-100312547D01*
X130695396Y-100312107D01*
X130695544Y-100300000D01*
X135849170Y-100300000D01*
X135870328Y-100419991D01*
X135870841Y-100420879D01*
X135870841Y-100420880D01*
X135888036Y-100450662D01*
X135931249Y-100525509D01*
X136024585Y-100603828D01*
X136139079Y-100645500D01*
X136260921Y-100645500D01*
X136375415Y-100603828D01*
X136468751Y-100525509D01*
X136511964Y-100450662D01*
X136529159Y-100420880D01*
X136529159Y-100420879D01*
X136529672Y-100419991D01*
X136550830Y-100300000D01*
X136529672Y-100180009D01*
X136468751Y-100074491D01*
X136375415Y-99996172D01*
X136260921Y-99954500D01*
X136139079Y-99954500D01*
X136024585Y-99996172D01*
X135931249Y-100074491D01*
X135870328Y-100180009D01*
X135849170Y-100300000D01*
X130695544Y-100300000D01*
X130694560Y-100293125D01*
X130675744Y-100161742D01*
X130675626Y-100160917D01*
X130672645Y-100154361D01*
X130617818Y-100033775D01*
X130617816Y-100033773D01*
X130617472Y-100033015D01*
X130613745Y-100028689D01*
X130549819Y-99954500D01*
X130525758Y-99926576D01*
X130407857Y-99850156D01*
X130340552Y-99830028D01*
X130274046Y-99810138D01*
X130274044Y-99810138D01*
X130273246Y-99809899D01*
X130200470Y-99809455D01*
X130133579Y-99809046D01*
X130133578Y-99809046D01*
X130132747Y-99809041D01*
X130048572Y-99833098D01*
X129998451Y-99847423D01*
X129998450Y-99847424D01*
X129997654Y-99847651D01*
X129878828Y-99922624D01*
X129878280Y-99923245D01*
X129878276Y-99923248D01*
X129840609Y-99965899D01*
X129785821Y-100027935D01*
X129726109Y-100155117D01*
X129704493Y-100293946D01*
X128754072Y-100293946D01*
X128608515Y-99996827D01*
X128593364Y-99965899D01*
X128593363Y-99965897D01*
X128593236Y-99965638D01*
X128387619Y-99635300D01*
X128379111Y-99624291D01*
X128149852Y-99327665D01*
X128149851Y-99327663D01*
X128149671Y-99327431D01*
X128140015Y-99317255D01*
X127936858Y-99103173D01*
X127881830Y-99045185D01*
X127667809Y-98861098D01*
X127587062Y-98791644D01*
X127587056Y-98791639D01*
X127586837Y-98791451D01*
X127586600Y-98791286D01*
X127586594Y-98791281D01*
X127303720Y-98593946D01*
X127904493Y-98593946D01*
X127922711Y-98733262D01*
X127923047Y-98734025D01*
X127923047Y-98734026D01*
X127944703Y-98783243D01*
X127979297Y-98861864D01*
X128069704Y-98969416D01*
X128070397Y-98969878D01*
X128070399Y-98969879D01*
X128152638Y-99024622D01*
X128186663Y-99047271D01*
X128320772Y-99089169D01*
X128400468Y-99090630D01*
X128460419Y-99091729D01*
X128460421Y-99091729D01*
X128461250Y-99091744D01*
X128596804Y-99054788D01*
X128608645Y-99047518D01*
X128715833Y-98981704D01*
X128715834Y-98981704D01*
X128716538Y-98981271D01*
X128810825Y-98877105D01*
X128848182Y-98800000D01*
X135799170Y-98800000D01*
X135820328Y-98919991D01*
X135820841Y-98920879D01*
X135820841Y-98920880D01*
X135848864Y-98969416D01*
X135881249Y-99025509D01*
X135974585Y-99103828D01*
X136089079Y-99145500D01*
X136210921Y-99145500D01*
X136325415Y-99103828D01*
X136418751Y-99025509D01*
X136451136Y-98969416D01*
X136479159Y-98920880D01*
X136479159Y-98920879D01*
X136479672Y-98919991D01*
X136500830Y-98800000D01*
X136479672Y-98680009D01*
X136418751Y-98574491D01*
X136325415Y-98496172D01*
X136210921Y-98454500D01*
X136089079Y-98454500D01*
X135974585Y-98496172D01*
X135881249Y-98574491D01*
X135820328Y-98680009D01*
X135799170Y-98800000D01*
X128848182Y-98800000D01*
X128872086Y-98750662D01*
X128875153Y-98732435D01*
X128895322Y-98612547D01*
X128895396Y-98612107D01*
X128895544Y-98600000D01*
X128894560Y-98593125D01*
X128875744Y-98461742D01*
X128875626Y-98460917D01*
X128872645Y-98454361D01*
X128817818Y-98333775D01*
X128817816Y-98333773D01*
X128817472Y-98333015D01*
X128813745Y-98328689D01*
X128789024Y-98300000D01*
X138274556Y-98300000D01*
X138274734Y-98301009D01*
X138288591Y-98379592D01*
X138294183Y-98411308D01*
X138350695Y-98509191D01*
X138351474Y-98509845D01*
X138351476Y-98509847D01*
X138399877Y-98550460D01*
X138437278Y-98581843D01*
X138543487Y-98620500D01*
X138656513Y-98620500D01*
X138762722Y-98581843D01*
X138800123Y-98550460D01*
X138848524Y-98509847D01*
X138848526Y-98509845D01*
X138849305Y-98509191D01*
X138905817Y-98411308D01*
X138911410Y-98379592D01*
X138925266Y-98301009D01*
X138925444Y-98300000D01*
X138916156Y-98247327D01*
X138905995Y-98189700D01*
X138905994Y-98189699D01*
X138905817Y-98188692D01*
X138849305Y-98090809D01*
X138848526Y-98090155D01*
X138848524Y-98090153D01*
X138776565Y-98029773D01*
X138762722Y-98018157D01*
X138656513Y-97979500D01*
X138543487Y-97979500D01*
X138437278Y-98018157D01*
X138423435Y-98029773D01*
X138351476Y-98090153D01*
X138351474Y-98090155D01*
X138350695Y-98090809D01*
X138294183Y-98188692D01*
X138294006Y-98189699D01*
X138294005Y-98189700D01*
X138283844Y-98247327D01*
X138274556Y-98300000D01*
X128789024Y-98300000D01*
X128788155Y-98298991D01*
X128725758Y-98226576D01*
X128607857Y-98150156D01*
X128540552Y-98130028D01*
X128474046Y-98110138D01*
X128474044Y-98110138D01*
X128473246Y-98109899D01*
X128400470Y-98109455D01*
X128333579Y-98109046D01*
X128333578Y-98109046D01*
X128332747Y-98109041D01*
X128248572Y-98133098D01*
X128198451Y-98147423D01*
X128198450Y-98147424D01*
X128197654Y-98147651D01*
X128078828Y-98222624D01*
X128078280Y-98223245D01*
X128078276Y-98223248D01*
X128057011Y-98247327D01*
X127985821Y-98327935D01*
X127926109Y-98455117D01*
X127904493Y-98593946D01*
X127303720Y-98593946D01*
X127267954Y-98568995D01*
X127267952Y-98568994D01*
X127267713Y-98568827D01*
X126927725Y-98379592D01*
X126570353Y-98225684D01*
X126570066Y-98225594D01*
X126570062Y-98225592D01*
X126428523Y-98180965D01*
X126199259Y-98108678D01*
X125818239Y-98029773D01*
X125631609Y-98010487D01*
X125431492Y-97989806D01*
X125431482Y-97989806D01*
X125431197Y-97989776D01*
X125430910Y-97989775D01*
X125430900Y-97989775D01*
X125236645Y-97989436D01*
X125042093Y-97989097D01*
X124903181Y-98002962D01*
X124655219Y-98027712D01*
X124655210Y-98027713D01*
X124654913Y-98027743D01*
X124654617Y-98027803D01*
X124654612Y-98027804D01*
X124510180Y-98057189D01*
X124273621Y-98105317D01*
X123902120Y-98221027D01*
X123889111Y-98226576D01*
X123544490Y-98373569D01*
X123544486Y-98373571D01*
X123544214Y-98373687D01*
X123543954Y-98373831D01*
X123543951Y-98373832D01*
X123297560Y-98509847D01*
X123203567Y-98561734D01*
X122883668Y-98783243D01*
X122883465Y-98783416D01*
X122883459Y-98783421D01*
X122665145Y-98969879D01*
X122587791Y-99035946D01*
X122587592Y-99036154D01*
X122587588Y-99036158D01*
X122319176Y-99317035D01*
X122318966Y-99317255D01*
X122318783Y-99317490D01*
X122318777Y-99317497D01*
X122107418Y-99589000D01*
X122079945Y-99624291D01*
X122079780Y-99624554D01*
X121889925Y-99927209D01*
X121873176Y-99953909D01*
X121873051Y-99954161D01*
X121873047Y-99954169D01*
X121813142Y-100075378D01*
X121700775Y-100302735D01*
X121700673Y-100303007D01*
X121700672Y-100303010D01*
X121564613Y-100666917D01*
X121564508Y-100667198D01*
X121564433Y-100667484D01*
X121564432Y-100667487D01*
X121531838Y-100791729D01*
X121465770Y-101043566D01*
X121465724Y-101043857D01*
X121465724Y-101043859D01*
X121452959Y-101125378D01*
X121405572Y-101427984D01*
X121384529Y-101816519D01*
X121203259Y-101816519D01*
X121126303Y-101727209D01*
X121125758Y-101726576D01*
X121007857Y-101650156D01*
X120940551Y-101630027D01*
X120874046Y-101610138D01*
X120874044Y-101610138D01*
X120873246Y-101609899D01*
X120800470Y-101609455D01*
X120733579Y-101609046D01*
X120733578Y-101609046D01*
X120732747Y-101609041D01*
X120648572Y-101633098D01*
X120598451Y-101647423D01*
X120598450Y-101647424D01*
X120597654Y-101647651D01*
X120478828Y-101722624D01*
X120478280Y-101723245D01*
X120478276Y-101723248D01*
X120429153Y-101778871D01*
X120385821Y-101827935D01*
X120326109Y-101955117D01*
X120304493Y-102093946D01*
X119938053Y-102093946D01*
X120138752Y-101805177D01*
X120139030Y-101804794D01*
X120197921Y-101727209D01*
X120718636Y-101041192D01*
X120718935Y-101040814D01*
X120955375Y-100755008D01*
X121330008Y-100302154D01*
X121330324Y-100301788D01*
X121331026Y-100301009D01*
X121971803Y-99589354D01*
X121972136Y-99589000D01*
X122228054Y-99327665D01*
X122642873Y-98904066D01*
X122643190Y-98903756D01*
X123286124Y-98300000D01*
X123342033Y-98247498D01*
X123342397Y-98247170D01*
X124068105Y-97620756D01*
X124068483Y-97620444D01*
X124417336Y-97343946D01*
X125004493Y-97343946D01*
X125022711Y-97483262D01*
X125079297Y-97611864D01*
X125092629Y-97627724D01*
X125157041Y-97704351D01*
X125169704Y-97719416D01*
X125170397Y-97719878D01*
X125170399Y-97719879D01*
X125277616Y-97791249D01*
X125286663Y-97797271D01*
X125420772Y-97839169D01*
X125500468Y-97840630D01*
X125560419Y-97841729D01*
X125560421Y-97841729D01*
X125561250Y-97841744D01*
X125696804Y-97804788D01*
X125708645Y-97797518D01*
X125815833Y-97731704D01*
X125815834Y-97731704D01*
X125816538Y-97731271D01*
X125910825Y-97627105D01*
X125972086Y-97500662D01*
X125972955Y-97495500D01*
X125995322Y-97362547D01*
X125995396Y-97362107D01*
X125995544Y-97350000D01*
X125994560Y-97343125D01*
X125980356Y-97243946D01*
X126954493Y-97243946D01*
X126972711Y-97383262D01*
X126973047Y-97384025D01*
X126973047Y-97384026D01*
X126978680Y-97396827D01*
X127029297Y-97511864D01*
X127119704Y-97619416D01*
X127120397Y-97619878D01*
X127120399Y-97619879D01*
X127227616Y-97691249D01*
X127236663Y-97697271D01*
X127370772Y-97739169D01*
X127450468Y-97740630D01*
X127510419Y-97741729D01*
X127510421Y-97741729D01*
X127511250Y-97741744D01*
X127646804Y-97704788D01*
X127654603Y-97700000D01*
X141049170Y-97700000D01*
X141070328Y-97819991D01*
X141070841Y-97820879D01*
X141070841Y-97820880D01*
X141081400Y-97839169D01*
X141131249Y-97925509D01*
X141224585Y-98003828D01*
X141339079Y-98045500D01*
X141460921Y-98045500D01*
X141575415Y-98003828D01*
X141668751Y-97925509D01*
X141718600Y-97839169D01*
X141729159Y-97820880D01*
X141729159Y-97820879D01*
X141729672Y-97819991D01*
X141750830Y-97700000D01*
X141729672Y-97580009D01*
X141668751Y-97474491D01*
X141575415Y-97396172D01*
X141460921Y-97354500D01*
X141339079Y-97354500D01*
X141224585Y-97396172D01*
X141131249Y-97474491D01*
X141070328Y-97580009D01*
X141049170Y-97700000D01*
X127654603Y-97700000D01*
X127656246Y-97698991D01*
X127765833Y-97631704D01*
X127765834Y-97631704D01*
X127766538Y-97631271D01*
X127770991Y-97626352D01*
X127813743Y-97579120D01*
X127860825Y-97527105D01*
X127922086Y-97400662D01*
X127922842Y-97396172D01*
X127945322Y-97262547D01*
X127945396Y-97262107D01*
X127945544Y-97250000D01*
X127944560Y-97243125D01*
X127935366Y-97178930D01*
X127931223Y-97150000D01*
X142249170Y-97150000D01*
X142270328Y-97269991D01*
X142331249Y-97375509D01*
X142424585Y-97453828D01*
X142539079Y-97495500D01*
X142660921Y-97495500D01*
X142775415Y-97453828D01*
X142868751Y-97375509D01*
X142929672Y-97269991D01*
X142950830Y-97150000D01*
X142929672Y-97030009D01*
X142926780Y-97024999D01*
X142869263Y-96925378D01*
X142868751Y-96924491D01*
X142775415Y-96846172D01*
X142660921Y-96804500D01*
X142539079Y-96804500D01*
X142424585Y-96846172D01*
X142331249Y-96924491D01*
X142330737Y-96925378D01*
X142273221Y-97024999D01*
X142270328Y-97030009D01*
X142249170Y-97150000D01*
X127931223Y-97150000D01*
X127925626Y-97110917D01*
X127910347Y-97077312D01*
X127867818Y-96983775D01*
X127867816Y-96983773D01*
X127867472Y-96983015D01*
X127863745Y-96978689D01*
X127843149Y-96954787D01*
X127775758Y-96876576D01*
X127713848Y-96836448D01*
X127658556Y-96800609D01*
X127657857Y-96800156D01*
X127590551Y-96780027D01*
X127524046Y-96760138D01*
X127524044Y-96760138D01*
X127523246Y-96759899D01*
X127450470Y-96759455D01*
X127383579Y-96759046D01*
X127383578Y-96759046D01*
X127382747Y-96759041D01*
X127298572Y-96783098D01*
X127248451Y-96797423D01*
X127248450Y-96797424D01*
X127247654Y-96797651D01*
X127128828Y-96872624D01*
X127128280Y-96873245D01*
X127128276Y-96873248D01*
X127079153Y-96928871D01*
X127035821Y-96977935D01*
X126976109Y-97105117D01*
X126954493Y-97243946D01*
X125980356Y-97243946D01*
X125975744Y-97211742D01*
X125975626Y-97210917D01*
X125972645Y-97204361D01*
X125917818Y-97083775D01*
X125917816Y-97083773D01*
X125917472Y-97083015D01*
X125913745Y-97078689D01*
X125830759Y-96982380D01*
X125825758Y-96976576D01*
X125745401Y-96924491D01*
X125708556Y-96900609D01*
X125707857Y-96900156D01*
X125631127Y-96877209D01*
X125574046Y-96860138D01*
X125574044Y-96860138D01*
X125573246Y-96859899D01*
X125500470Y-96859455D01*
X125433579Y-96859046D01*
X125433578Y-96859046D01*
X125432747Y-96859041D01*
X125383038Y-96873248D01*
X125298451Y-96897423D01*
X125298450Y-96897424D01*
X125297654Y-96897651D01*
X125178828Y-96972624D01*
X125178280Y-96973245D01*
X125178276Y-96973248D01*
X125132834Y-97024703D01*
X125085821Y-97077935D01*
X125026109Y-97205117D01*
X125004493Y-97343946D01*
X124417336Y-97343946D01*
X124752007Y-97078689D01*
X124819749Y-97024998D01*
X124820137Y-97024703D01*
X125595724Y-96461206D01*
X125596111Y-96460936D01*
X126365378Y-95949837D01*
X126394597Y-95930424D01*
X126395011Y-95930161D01*
X126619928Y-95793946D01*
X127704493Y-95793946D01*
X127722711Y-95933262D01*
X127779297Y-96061864D01*
X127792629Y-96077724D01*
X127857515Y-96154915D01*
X127869704Y-96169416D01*
X127870397Y-96169878D01*
X127870399Y-96169879D01*
X127977616Y-96241249D01*
X127986663Y-96247271D01*
X128120772Y-96289169D01*
X128200468Y-96290630D01*
X128260419Y-96291729D01*
X128260421Y-96291729D01*
X128261250Y-96291744D01*
X128396804Y-96254788D01*
X128408645Y-96247518D01*
X128515833Y-96181704D01*
X128515834Y-96181704D01*
X128516538Y-96181271D01*
X128610825Y-96077105D01*
X128672086Y-95950662D01*
X128675153Y-95932435D01*
X128695322Y-95812547D01*
X128695396Y-95812107D01*
X128695544Y-95800000D01*
X128694560Y-95793125D01*
X128675744Y-95661742D01*
X128675626Y-95660917D01*
X128617472Y-95533015D01*
X128613745Y-95528689D01*
X128531769Y-95433552D01*
X128525758Y-95426576D01*
X128407857Y-95350156D01*
X128340551Y-95330027D01*
X128274046Y-95310138D01*
X128274044Y-95310138D01*
X128273246Y-95309899D01*
X128200470Y-95309455D01*
X128133579Y-95309046D01*
X128133578Y-95309046D01*
X128132747Y-95309041D01*
X128048572Y-95333098D01*
X127998451Y-95347423D01*
X127998450Y-95347424D01*
X127997654Y-95347651D01*
X127878828Y-95422624D01*
X127878280Y-95423245D01*
X127878276Y-95423248D01*
X127829153Y-95478871D01*
X127785821Y-95527935D01*
X127726109Y-95655117D01*
X127704493Y-95793946D01*
X126619928Y-95793946D01*
X127215009Y-95433552D01*
X127215433Y-95433307D01*
X128055517Y-94971467D01*
X128055952Y-94971240D01*
X128535714Y-94733084D01*
X128914638Y-94544985D01*
X128915061Y-94544786D01*
X129410200Y-94324336D01*
X129790834Y-94154867D01*
X129791286Y-94154677D01*
X130682612Y-93801776D01*
X130683071Y-93801605D01*
X131588393Y-93486338D01*
X131588859Y-93486186D01*
X132506625Y-93209097D01*
X132507097Y-93208966D01*
X132771468Y-93141087D01*
X136259500Y-93141087D01*
X136259501Y-94858912D01*
X136264751Y-94885311D01*
X136265393Y-94886272D01*
X136274966Y-94900599D01*
X136284753Y-94915247D01*
X136285711Y-94915887D01*
X136310418Y-94932395D01*
X136314689Y-94935249D01*
X136315818Y-94935474D01*
X136315819Y-94935474D01*
X136340518Y-94940387D01*
X136340520Y-94940387D01*
X136341087Y-94940500D01*
X137200000Y-94940500D01*
X138058912Y-94940499D01*
X138059478Y-94940386D01*
X138059482Y-94940386D01*
X138069528Y-94938388D01*
X138085311Y-94935249D01*
X138089583Y-94932395D01*
X138114289Y-94915887D01*
X138115247Y-94915247D01*
X138125248Y-94900279D01*
X138134609Y-94886269D01*
X138135249Y-94885311D01*
X138140500Y-94858913D01*
X138140499Y-94051935D01*
X138790976Y-94051935D01*
X138801038Y-94171753D01*
X138801243Y-94172871D01*
X138852280Y-94350859D01*
X138852702Y-94351924D01*
X138937335Y-94516602D01*
X138937956Y-94517564D01*
X139052961Y-94662666D01*
X139053758Y-94663492D01*
X139194761Y-94783494D01*
X139195702Y-94784148D01*
X139357329Y-94874478D01*
X139358373Y-94874934D01*
X139534470Y-94932151D01*
X139535579Y-94932395D01*
X139687691Y-94950535D01*
X139689403Y-94950053D01*
X139690000Y-94948990D01*
X139690000Y-94946675D01*
X139790000Y-94946675D01*
X139790580Y-94948075D01*
X139792554Y-94948806D01*
X139905194Y-94940139D01*
X139906318Y-94939940D01*
X140084651Y-94890149D01*
X140085721Y-94889734D01*
X140250986Y-94806252D01*
X140251950Y-94805641D01*
X140397860Y-94691642D01*
X140398681Y-94690861D01*
X140519673Y-94550691D01*
X140520325Y-94549766D01*
X140611785Y-94388769D01*
X140612249Y-94387727D01*
X140670696Y-94212029D01*
X140670946Y-94210927D01*
X140690984Y-94052308D01*
X140690515Y-94050591D01*
X140689478Y-94050000D01*
X139792327Y-94050000D01*
X139790682Y-94050682D01*
X139790000Y-94052327D01*
X139790000Y-94946675D01*
X139690000Y-94946675D01*
X139690000Y-94052327D01*
X139689318Y-94050682D01*
X139687673Y-94050000D01*
X138793141Y-94050000D01*
X138791496Y-94050682D01*
X138790976Y-94051935D01*
X138140499Y-94051935D01*
X138140499Y-93947688D01*
X138789868Y-93947688D01*
X138790362Y-93949398D01*
X138791452Y-93950000D01*
X139687673Y-93950000D01*
X139689318Y-93949318D01*
X139690000Y-93947673D01*
X139790000Y-93947673D01*
X139790682Y-93949318D01*
X139792327Y-93950000D01*
X140687368Y-93950000D01*
X140689013Y-93949318D01*
X140689510Y-93948118D01*
X140676473Y-93815156D01*
X140676252Y-93814036D01*
X140622735Y-93636782D01*
X140622297Y-93635719D01*
X140535374Y-93472241D01*
X140534743Y-93471291D01*
X140417713Y-93327798D01*
X140416915Y-93326995D01*
X140274241Y-93208965D01*
X140273305Y-93208333D01*
X140110428Y-93120266D01*
X140109371Y-93119822D01*
X139932491Y-93065068D01*
X139931382Y-93064841D01*
X139792314Y-93050224D01*
X139790607Y-93050730D01*
X139790000Y-93051847D01*
X139790000Y-93947673D01*
X139690000Y-93947673D01*
X139690000Y-93052910D01*
X139689318Y-93051265D01*
X139688092Y-93050757D01*
X139561699Y-93062260D01*
X139560573Y-93062475D01*
X139382948Y-93114752D01*
X139381900Y-93115175D01*
X139217800Y-93200964D01*
X139216852Y-93201585D01*
X139072548Y-93317609D01*
X139071738Y-93318401D01*
X138952714Y-93460249D01*
X138952075Y-93461182D01*
X138862869Y-93623447D01*
X138862423Y-93624488D01*
X138806436Y-93800983D01*
X138806199Y-93802096D01*
X138789868Y-93947688D01*
X138140499Y-93947688D01*
X138140499Y-93141088D01*
X138135249Y-93114689D01*
X138115247Y-93084753D01*
X138085311Y-93064751D01*
X138084182Y-93064526D01*
X138084181Y-93064526D01*
X138059482Y-93059613D01*
X138059480Y-93059613D01*
X138058913Y-93059500D01*
X138058333Y-93059500D01*
X137200001Y-93059501D01*
X136341088Y-93059501D01*
X136340522Y-93059614D01*
X136340518Y-93059614D01*
X136330472Y-93061612D01*
X136314689Y-93064751D01*
X136284753Y-93084753D01*
X136264751Y-93114689D01*
X136264526Y-93115818D01*
X136264526Y-93115819D01*
X136259613Y-93140518D01*
X136259500Y-93141087D01*
X132771468Y-93141087D01*
X133435610Y-92970564D01*
X133436087Y-92970452D01*
X134021575Y-92846002D01*
X134373802Y-92771134D01*
X134374263Y-92771046D01*
X135319514Y-92611169D01*
X135319957Y-92611103D01*
X136271092Y-92490947D01*
X136271562Y-92490898D01*
X137226850Y-92410680D01*
X137227339Y-92410649D01*
X138185161Y-92370504D01*
X138185651Y-92370494D01*
X139144291Y-92370494D01*
X139144781Y-92370504D01*
G37*
%TD.AperFunction*%
%TD*%
M02*
