M48
; DRILL file {KiCad 6.0.6-3a73a75311~116~ubuntu20.04.1} date Tue 27 Sep 2022 10:12:28 BST
; FORMAT={-:-/ absolute / inch / decimal}
; #@! TF.CreationDate,2022-09-27T10:12:28+01:00
; #@! TF.GenerationSoftware,Kicad,Pcbnew,6.0.6-3a73a75311~116~ubuntu20.04.1
; #@! TF.FileFunction,Plated,1,4,PTH
FMAT,2
INCH
; #@! TA.AperFunction,Plated,PTH,ViaDrill
T1C0.0079
; #@! TA.AperFunction,Plated,PTH,ComponentDrill
T2C0.0079
; #@! TA.AperFunction,Plated,PTH,ViaDrill
T3C0.0098
; #@! TA.AperFunction,Plated,PTH,ViaDrill
T4C0.0157
; #@! TA.AperFunction,Plated,PTH,ComponentDrill
T5C0.0394
; #@! TA.AperFunction,Plated,PTH,ComponentDrill
T6C0.1693
%
G90
G05
T1
X5.2126Y-4.1161
X5.374Y-4.0413
X5.4567Y-3.8701
X5.4744Y-4.0571
X5.769Y-4.2574
X5.9921Y-4.1831
X5.9961Y-4.7717
X6.0157Y-4.2087
X6.0157Y-4.7717
X6.0354Y-4.7717
X6.0551Y-4.7717
X6.065Y-4.189
X6.0669Y-4.2323
X6.0748Y-4.7716
X6.0945Y-4.7717
X6.1142Y-4.2933
X6.1142Y-4.3209
X6.1143Y-4.7835
X6.1358Y-4.1102
X6.1378Y-4.7717
X6.187Y-4.1949
X6.2146Y-4.1102
X6.2953Y-4.2343
T2
X5.9567Y-4.437
X5.9567Y-4.4803
X5.9567Y-4.5236
X5.9567Y-4.5669
X5.9567Y-4.6102
X5.9567Y-4.6535
X6.0Y-4.437
X6.0Y-4.4803
X6.0Y-4.5236
X6.0Y-4.5669
X6.0Y-4.6102
X6.0Y-4.6535
X6.0433Y-4.437
X6.0433Y-4.4803
X6.0433Y-4.5236
X6.0433Y-4.5669
X6.0433Y-4.6102
X6.0433Y-4.6535
X6.0866Y-4.437
X6.0866Y-4.4803
X6.0866Y-4.5236
X6.0866Y-4.5669
X6.0866Y-4.6102
X6.0866Y-4.6535
X6.1299Y-4.437
X6.1299Y-4.4803
X6.1299Y-4.5236
X6.1299Y-4.5669
X6.1299Y-4.6102
X6.1299Y-4.6535
X6.1732Y-4.437
X6.1732Y-4.4803
X6.1732Y-4.5236
X6.1732Y-4.5669
X6.1732Y-4.6102
X6.1732Y-4.6535
T3
X4.6535Y-4.3681
X4.7087Y-4.5827
X4.7165Y-4.5295
X4.7283Y-4.2933
X4.9213Y-4.4646
X4.9213Y-4.5807
X5.0Y-4.4764
X5.2618Y-4.0098
X5.2677Y-5.0886
X5.3307Y-5.0866
X5.3602Y-3.8898
X5.3622Y-3.9488
X5.3799Y-5.0846
X5.4272Y-5.0866
X5.4331Y-4.1555
X5.4331Y-5.3819
X5.435Y-3.8602
X5.4665Y-3.8327
X5.4803Y-5.0866
X5.4921Y-5.3819
X5.5315Y-5.0866
X5.5512Y-5.378
X5.5669Y-3.8465
X5.5669Y-4.1299
X5.5827Y-5.0866
X5.5906Y-3.9862
X5.6102Y-5.3661
X5.6142Y-3.8248
X5.6181Y-3.9508
X5.6437Y-4.1299
X5.6496Y-3.7205
X5.6693Y-3.8642
X5.6693Y-5.3543
X5.687Y-4.2441
X5.7098Y-4.2094
X5.7185Y-4.0256
X5.7283Y-5.3386
X5.7323Y-3.9469
X5.7347Y-3.7377
X5.7687Y-4.3366
X5.7697Y-4.189
X5.7736Y-3.9902
X5.7756Y-4.1319
X5.7874Y-5.315
X5.8357Y-4.4409
X5.8425Y-4.2165
X5.8445Y-4.3445
X5.8465Y-5.2874
X5.874Y-4.3602
X5.8799Y-4.2579
X5.9035Y-4.4764
X5.9035Y-4.6083
X5.9154Y-4.2638
X5.9665Y-4.4055
X5.9803Y-4.2992
X5.9843Y-4.7047
X6.0827Y-4.8799
X6.1122Y-4.4055
X6.128Y-4.7067
X6.1772Y-4.9213
X6.187Y-4.3169
X6.2165Y-4.6122
X6.2264Y-4.4882
X6.311Y-4.5906
X6.3169Y-4.4587
T4
X4.6063Y-4.687
X4.6319Y-4.8051
X4.6693Y-4.1496
X4.6713Y-4.8957
X4.7185Y-4.063
X4.7205Y-4.9724
X4.7303Y-4.4272
X4.7303Y-4.4882
X4.7539Y-4.1555
X4.7539Y-4.2343
X4.7559Y-4.0197
X4.8307Y-4.1555
X4.8858Y-4.7559
X4.9409Y-3.8327
X4.9685Y-4.7559
X4.9724Y-4.4173
X5.0177Y-3.8287
X5.0335Y-4.4173
X5.0354Y-4.1476
X5.0472Y-3.7717
X5.0551Y-3.8819
X5.0748Y-4.1752
X5.0827Y-4.4843
X5.0886Y-4.4193
X5.1063Y-4.2008
X5.1122Y-4.876
X5.126Y-3.9488
X5.1398Y-4.9606
X5.1417Y-4.2283
X5.1791Y-4.2579
X6.2106Y-4.689
X6.2657Y-4.7461
T5
X5.4016Y-3.7008
X5.5016Y-3.7008
T6
X4.9303Y-4.0091
X4.9303Y-5.0669
X5.9882Y-4.0091
X5.9882Y-5.0669
T0
M30
