%TF.GenerationSoftware,KiCad,Pcbnew,5.1.7-a382d34a8~87~ubuntu20.04.1*%
%TF.CreationDate,2021-02-03T18:06:15+00:00*%
%TF.ProjectId,UFOControlDeck,55464f43-6f6e-4747-926f-6c4465636b2e,rev?*%
%TF.SameCoordinates,Original*%
%TF.FileFunction,Legend,Bot*%
%TF.FilePolarity,Positive*%
%FSLAX46Y46*%
G04 Gerber Fmt 4.6, Leading zero omitted, Abs format (unit mm)*
G04 Created by KiCad (PCBNEW 5.1.7-a382d34a8~87~ubuntu20.04.1) date 2021-02-03 18:06:15*
%MOMM*%
%LPD*%
G01*
G04 APERTURE LIST*
%ADD10C,0.120000*%
%ADD11C,0.150000*%
G04 APERTURE END LIST*
D10*
%TO.C,R10*%
X149477500Y-120067224D02*
X149477500Y-119557776D01*
X150522500Y-120067224D02*
X150522500Y-119557776D01*
%TO.C,C46*%
X147010000Y-106291232D02*
X147010000Y-106583766D01*
X145990000Y-106291232D02*
X145990000Y-106583766D01*
%TO.C,C41*%
X119383766Y-111590000D02*
X119091232Y-111590000D01*
X119383766Y-112610000D02*
X119091232Y-112610000D01*
%TO.C,C40*%
X127016234Y-115910000D02*
X127308768Y-115910000D01*
X127016234Y-114890000D02*
X127308768Y-114890000D01*
%TO.C,C39*%
X123916234Y-126310000D02*
X124208768Y-126310000D01*
X123916234Y-125290000D02*
X124208768Y-125290000D01*
%TO.C,C9*%
X119383766Y-110090000D02*
X119091232Y-110090000D01*
X119383766Y-111110000D02*
X119091232Y-111110000D01*
%TO.C,C8*%
X127016233Y-114410000D02*
X127308767Y-114410000D01*
X127016233Y-113390000D02*
X127308767Y-113390000D01*
%TO.C,C7*%
X123916234Y-124810000D02*
X124208768Y-124810000D01*
X123916234Y-123790000D02*
X124208768Y-123790000D01*
%TO.C,C6*%
X119483766Y-117390000D02*
X119191232Y-117390000D01*
X119483766Y-118410000D02*
X119191232Y-118410000D01*
%TO.C,C5*%
X127091233Y-108410000D02*
X127383767Y-108410000D01*
X127091233Y-107390000D02*
X127383767Y-107390000D01*
%TO.C,C4*%
X123991233Y-117810000D02*
X124283767Y-117810000D01*
X123991233Y-116790000D02*
X124283767Y-116790000D01*
%TO.C,C3*%
X119483766Y-118890001D02*
X119191232Y-118890001D01*
X119483766Y-119910001D02*
X119191232Y-119910001D01*
%TO.C,C2*%
X127091233Y-106909999D02*
X127383767Y-106909999D01*
X127091233Y-105889999D02*
X127383767Y-105889999D01*
%TO.C,C1*%
X123991233Y-119310000D02*
X124283767Y-119310000D01*
X123991233Y-118290000D02*
X124283767Y-118290000D01*
%TO.C,J13*%
X133460000Y-127735000D02*
X133460000Y-131265000D01*
X143740000Y-127735000D02*
X143740000Y-131265000D01*
X133525000Y-126410000D02*
X133525000Y-127735000D01*
X133460000Y-127735000D02*
X133525000Y-127735000D01*
X133460000Y-131265000D02*
X133525000Y-131265000D01*
X143675000Y-127735000D02*
X143740000Y-127735000D01*
X143675000Y-131265000D02*
X143740000Y-131265000D01*
%TO.C,D14*%
X157700000Y-118500000D02*
X159700000Y-118500000D01*
X159700000Y-118500000D02*
X159700000Y-122350000D01*
X157700000Y-118500000D02*
X157700000Y-122350000D01*
%TO.C,C38*%
X152416233Y-114810000D02*
X152708767Y-114810000D01*
X152416233Y-113790000D02*
X152708767Y-113790000D01*
%TO.C,C37*%
X156046267Y-115290000D02*
X155753733Y-115290000D01*
X156046267Y-116310000D02*
X155753733Y-116310000D01*
%TO.C,C36*%
X149346267Y-116790000D02*
X149053733Y-116790000D01*
X149346267Y-117810000D02*
X149053733Y-117810000D01*
%TO.C,C35*%
X152416233Y-116310000D02*
X152708767Y-116310000D01*
X152416233Y-115290000D02*
X152708767Y-115290000D01*
%TO.C,C34*%
X152416233Y-117810000D02*
X152708767Y-117810000D01*
X152416233Y-116790000D02*
X152708767Y-116790000D01*
%TO.C,C33*%
X156046267Y-113800000D02*
X155753733Y-113800000D01*
X156046267Y-114820000D02*
X155753733Y-114820000D01*
%TO.C,C32*%
X152416233Y-113310000D02*
X152708767Y-113310000D01*
X152416233Y-112290000D02*
X152708767Y-112290000D01*
%TO.C,C31*%
X156046267Y-116790000D02*
X155753733Y-116790000D01*
X156046267Y-117810000D02*
X155753733Y-117810000D01*
%TO.C,C30*%
X156046267Y-112290000D02*
X155753733Y-112290000D01*
X156046267Y-113310000D02*
X155753733Y-113310000D01*
%TO.C,C29*%
X155890000Y-119653733D02*
X155890000Y-119946267D01*
X156910000Y-119653733D02*
X156910000Y-119946267D01*
%TO.C,C28*%
X152410000Y-110483767D02*
X152410000Y-110191233D01*
X151390000Y-110483767D02*
X151390000Y-110191233D01*
%TO.C,C27*%
X153910000Y-110483767D02*
X153910000Y-110191233D01*
X152890000Y-110483767D02*
X152890000Y-110191233D01*
%TO.C,C26*%
X155410000Y-110483767D02*
X155410000Y-110191233D01*
X154390000Y-110483767D02*
X154390000Y-110191233D01*
%TO.C,C25*%
X156910000Y-110483766D02*
X156910000Y-110191232D01*
X155890000Y-110483766D02*
X155890000Y-110191232D01*
%TO.C,C24*%
X159153733Y-117810000D02*
X159446267Y-117810000D01*
X159153733Y-116790000D02*
X159446267Y-116790000D01*
%TO.C,C23*%
X149346267Y-115290000D02*
X149053733Y-115290000D01*
X149346267Y-116310000D02*
X149053733Y-116310000D01*
%TO.C,C22*%
X149346267Y-113790000D02*
X149053733Y-113790000D01*
X149346267Y-114810000D02*
X149053733Y-114810000D01*
%TO.C,C21*%
X149346267Y-112290000D02*
X149053733Y-112290000D01*
X149346267Y-113310000D02*
X149053733Y-113310000D01*
%TO.C,C20*%
X154390000Y-119653733D02*
X154390000Y-119946267D01*
X155410000Y-119653733D02*
X155410000Y-119946267D01*
%TO.C,C19*%
X152890000Y-119653733D02*
X152890000Y-119946267D01*
X153910000Y-119653733D02*
X153910000Y-119946267D01*
%TO.C,C18*%
X151390000Y-119653733D02*
X151390000Y-119946267D01*
X152410000Y-119653733D02*
X152410000Y-119946267D01*
%TO.C,C17*%
X159153733Y-116310000D02*
X159446267Y-116310000D01*
X159153733Y-115290000D02*
X159446267Y-115290000D01*
%TO.C,C16*%
X159153733Y-113310000D02*
X159446267Y-113310000D01*
X159153733Y-112290000D02*
X159446267Y-112290000D01*
%TO.C,C15*%
X159153733Y-114810000D02*
X159446267Y-114810000D01*
X159153733Y-113790000D02*
X159446267Y-113790000D01*
%TO.C,R23*%
X143677500Y-135232776D02*
X143677500Y-135742224D01*
X144722500Y-135232776D02*
X144722500Y-135742224D01*
%TO.C,R22*%
X142077500Y-135232776D02*
X142077500Y-135742224D01*
X143122500Y-135232776D02*
X143122500Y-135742224D01*
%TO.C,R21*%
X140477500Y-135232776D02*
X140477500Y-135742224D01*
X141522500Y-135232776D02*
X141522500Y-135742224D01*
%TO.C,R20*%
X138877500Y-135232776D02*
X138877500Y-135742224D01*
X139922500Y-135232776D02*
X139922500Y-135742224D01*
%TO.C,R19*%
X137277500Y-135232776D02*
X137277500Y-135742224D01*
X138322500Y-135232776D02*
X138322500Y-135742224D01*
%TO.C,R18*%
X135677500Y-135232776D02*
X135677500Y-135742224D01*
X136722500Y-135232776D02*
X136722500Y-135742224D01*
%TO.C,R17*%
X134077500Y-135232776D02*
X134077500Y-135742224D01*
X135122500Y-135232776D02*
X135122500Y-135742224D01*
%TO.C,R16*%
X132477500Y-135232776D02*
X132477500Y-135742224D01*
X133522500Y-135232776D02*
X133522500Y-135742224D01*
%TO.C,R10*%
D11*
X151882380Y-119169642D02*
X151406190Y-118836309D01*
X151882380Y-118598214D02*
X150882380Y-118598214D01*
X150882380Y-118979166D01*
X150930000Y-119074404D01*
X150977619Y-119122023D01*
X151072857Y-119169642D01*
X151215714Y-119169642D01*
X151310952Y-119122023D01*
X151358571Y-119074404D01*
X151406190Y-118979166D01*
X151406190Y-118598214D01*
X151882380Y-120122023D02*
X151882380Y-119550595D01*
X151882380Y-119836309D02*
X150882380Y-119836309D01*
X151025238Y-119741071D01*
X151120476Y-119645833D01*
X151168095Y-119550595D01*
X150882380Y-120741071D02*
X150882380Y-120836309D01*
X150930000Y-120931547D01*
X150977619Y-120979166D01*
X151072857Y-121026785D01*
X151263333Y-121074404D01*
X151501428Y-121074404D01*
X151691904Y-121026785D01*
X151787142Y-120979166D01*
X151834761Y-120931547D01*
X151882380Y-120836309D01*
X151882380Y-120741071D01*
X151834761Y-120645833D01*
X151787142Y-120598214D01*
X151691904Y-120550595D01*
X151501428Y-120502976D01*
X151263333Y-120502976D01*
X151072857Y-120550595D01*
X150977619Y-120598214D01*
X150930000Y-120645833D01*
X150882380Y-120741071D01*
%TO.C,C46*%
X145427142Y-105794641D02*
X145474761Y-105747022D01*
X145522380Y-105604165D01*
X145522380Y-105508927D01*
X145474761Y-105366070D01*
X145379523Y-105270832D01*
X145284285Y-105223213D01*
X145093809Y-105175594D01*
X144950952Y-105175594D01*
X144760476Y-105223213D01*
X144665238Y-105270832D01*
X144570000Y-105366070D01*
X144522380Y-105508927D01*
X144522380Y-105604165D01*
X144570000Y-105747022D01*
X144617619Y-105794641D01*
X144855714Y-106651784D02*
X145522380Y-106651784D01*
X144474761Y-106413689D02*
X145189047Y-106175594D01*
X145189047Y-106794641D01*
X144522380Y-107604165D02*
X144522380Y-107413689D01*
X144570000Y-107318451D01*
X144617619Y-107270832D01*
X144760476Y-107175594D01*
X144950952Y-107127975D01*
X145331904Y-107127975D01*
X145427142Y-107175594D01*
X145474761Y-107223213D01*
X145522380Y-107318451D01*
X145522380Y-107508927D01*
X145474761Y-107604165D01*
X145427142Y-107651784D01*
X145331904Y-107699403D01*
X145093809Y-107699403D01*
X144998571Y-107651784D01*
X144950952Y-107604165D01*
X144903333Y-107508927D01*
X144903333Y-107318451D01*
X144950952Y-107223213D01*
X144998571Y-107175594D01*
X145093809Y-107127975D01*
%TO.C,C41*%
X119880356Y-111027142D02*
X119927975Y-111074761D01*
X120070832Y-111122380D01*
X120166070Y-111122380D01*
X120308927Y-111074761D01*
X120404165Y-110979523D01*
X120451784Y-110884285D01*
X120499403Y-110693809D01*
X120499403Y-110550952D01*
X120451784Y-110360476D01*
X120404165Y-110265238D01*
X120308927Y-110170000D01*
X120166070Y-110122380D01*
X120070832Y-110122380D01*
X119927975Y-110170000D01*
X119880356Y-110217619D01*
X119023213Y-110455714D02*
X119023213Y-111122380D01*
X119261308Y-110074761D02*
X119499403Y-110789047D01*
X118880356Y-110789047D01*
X117975594Y-111122380D02*
X118547022Y-111122380D01*
X118261308Y-111122380D02*
X118261308Y-110122380D01*
X118356546Y-110265238D01*
X118451784Y-110360476D01*
X118547022Y-110408095D01*
%TO.C,C40*%
X127805358Y-117187142D02*
X127852977Y-117234761D01*
X127995834Y-117282380D01*
X128091072Y-117282380D01*
X128233929Y-117234761D01*
X128329167Y-117139523D01*
X128376786Y-117044285D01*
X128424405Y-116853809D01*
X128424405Y-116710952D01*
X128376786Y-116520476D01*
X128329167Y-116425238D01*
X128233929Y-116330000D01*
X128091072Y-116282380D01*
X127995834Y-116282380D01*
X127852977Y-116330000D01*
X127805358Y-116377619D01*
X126948215Y-116615714D02*
X126948215Y-117282380D01*
X127186310Y-116234761D02*
X127424405Y-116949047D01*
X126805358Y-116949047D01*
X126233929Y-116282380D02*
X126138691Y-116282380D01*
X126043453Y-116330000D01*
X125995834Y-116377619D01*
X125948215Y-116472857D01*
X125900596Y-116663333D01*
X125900596Y-116901428D01*
X125948215Y-117091904D01*
X125995834Y-117187142D01*
X126043453Y-117234761D01*
X126138691Y-117282380D01*
X126233929Y-117282380D01*
X126329167Y-117234761D01*
X126376786Y-117187142D01*
X126424405Y-117091904D01*
X126472024Y-116901428D01*
X126472024Y-116663333D01*
X126424405Y-116472857D01*
X126376786Y-116377619D01*
X126329167Y-116330000D01*
X126233929Y-116282380D01*
%TO.C,C39*%
X121342857Y-126157142D02*
X121390476Y-126204761D01*
X121533333Y-126252380D01*
X121628571Y-126252380D01*
X121771428Y-126204761D01*
X121866666Y-126109523D01*
X121914285Y-126014285D01*
X121961904Y-125823809D01*
X121961904Y-125680952D01*
X121914285Y-125490476D01*
X121866666Y-125395238D01*
X121771428Y-125300000D01*
X121628571Y-125252380D01*
X121533333Y-125252380D01*
X121390476Y-125300000D01*
X121342857Y-125347619D01*
X121009523Y-125252380D02*
X120390476Y-125252380D01*
X120723809Y-125633333D01*
X120580952Y-125633333D01*
X120485714Y-125680952D01*
X120438095Y-125728571D01*
X120390476Y-125823809D01*
X120390476Y-126061904D01*
X120438095Y-126157142D01*
X120485714Y-126204761D01*
X120580952Y-126252380D01*
X120866666Y-126252380D01*
X120961904Y-126204761D01*
X121009523Y-126157142D01*
X119914285Y-126252380D02*
X119723809Y-126252380D01*
X119628571Y-126204761D01*
X119580952Y-126157142D01*
X119485714Y-126014285D01*
X119438095Y-125823809D01*
X119438095Y-125442857D01*
X119485714Y-125347619D01*
X119533333Y-125300000D01*
X119628571Y-125252380D01*
X119819047Y-125252380D01*
X119914285Y-125300000D01*
X119961904Y-125347619D01*
X120009523Y-125442857D01*
X120009523Y-125680952D01*
X119961904Y-125776190D01*
X119914285Y-125823809D01*
X119819047Y-125871428D01*
X119628571Y-125871428D01*
X119533333Y-125823809D01*
X119485714Y-125776190D01*
X119438095Y-125680952D01*
%TO.C,C9*%
X119404165Y-109527142D02*
X119451784Y-109574761D01*
X119594641Y-109622380D01*
X119689879Y-109622380D01*
X119832737Y-109574761D01*
X119927975Y-109479523D01*
X119975594Y-109384285D01*
X120023213Y-109193809D01*
X120023213Y-109050952D01*
X119975594Y-108860476D01*
X119927975Y-108765238D01*
X119832737Y-108670000D01*
X119689879Y-108622380D01*
X119594641Y-108622380D01*
X119451784Y-108670000D01*
X119404165Y-108717619D01*
X118927975Y-109622380D02*
X118737499Y-109622380D01*
X118642260Y-109574761D01*
X118594641Y-109527142D01*
X118499403Y-109384285D01*
X118451784Y-109193809D01*
X118451784Y-108812857D01*
X118499403Y-108717619D01*
X118547022Y-108670000D01*
X118642260Y-108622380D01*
X118832737Y-108622380D01*
X118927975Y-108670000D01*
X118975594Y-108717619D01*
X119023213Y-108812857D01*
X119023213Y-109050952D01*
X118975594Y-109146190D01*
X118927975Y-109193809D01*
X118832737Y-109241428D01*
X118642260Y-109241428D01*
X118547022Y-109193809D01*
X118499403Y-109146190D01*
X118451784Y-109050952D01*
%TO.C,C8*%
X127329166Y-115687142D02*
X127376785Y-115734761D01*
X127519642Y-115782380D01*
X127614880Y-115782380D01*
X127757738Y-115734761D01*
X127852976Y-115639523D01*
X127900595Y-115544285D01*
X127948214Y-115353809D01*
X127948214Y-115210952D01*
X127900595Y-115020476D01*
X127852976Y-114925238D01*
X127757738Y-114830000D01*
X127614880Y-114782380D01*
X127519642Y-114782380D01*
X127376785Y-114830000D01*
X127329166Y-114877619D01*
X126757738Y-115210952D02*
X126852976Y-115163333D01*
X126900595Y-115115714D01*
X126948214Y-115020476D01*
X126948214Y-114972857D01*
X126900595Y-114877619D01*
X126852976Y-114830000D01*
X126757738Y-114782380D01*
X126567261Y-114782380D01*
X126472023Y-114830000D01*
X126424404Y-114877619D01*
X126376785Y-114972857D01*
X126376785Y-115020476D01*
X126424404Y-115115714D01*
X126472023Y-115163333D01*
X126567261Y-115210952D01*
X126757738Y-115210952D01*
X126852976Y-115258571D01*
X126900595Y-115306190D01*
X126948214Y-115401428D01*
X126948214Y-115591904D01*
X126900595Y-115687142D01*
X126852976Y-115734761D01*
X126757738Y-115782380D01*
X126567261Y-115782380D01*
X126472023Y-115734761D01*
X126424404Y-115687142D01*
X126376785Y-115591904D01*
X126376785Y-115401428D01*
X126424404Y-115306190D01*
X126472023Y-115258571D01*
X126567261Y-115210952D01*
%TO.C,C7*%
X121266666Y-124657142D02*
X121314285Y-124704761D01*
X121457142Y-124752380D01*
X121552380Y-124752380D01*
X121695238Y-124704761D01*
X121790476Y-124609523D01*
X121838095Y-124514285D01*
X121885714Y-124323809D01*
X121885714Y-124180952D01*
X121838095Y-123990476D01*
X121790476Y-123895238D01*
X121695238Y-123800000D01*
X121552380Y-123752380D01*
X121457142Y-123752380D01*
X121314285Y-123800000D01*
X121266666Y-123847619D01*
X120933333Y-123752380D02*
X120266666Y-123752380D01*
X120695238Y-124752380D01*
%TO.C,C6*%
X119504165Y-116827142D02*
X119551784Y-116874761D01*
X119694641Y-116922380D01*
X119789879Y-116922380D01*
X119932737Y-116874761D01*
X120027975Y-116779523D01*
X120075594Y-116684285D01*
X120123213Y-116493809D01*
X120123213Y-116350952D01*
X120075594Y-116160476D01*
X120027975Y-116065238D01*
X119932737Y-115970000D01*
X119789879Y-115922380D01*
X119694641Y-115922380D01*
X119551784Y-115970000D01*
X119504165Y-116017619D01*
X118647022Y-115922380D02*
X118837499Y-115922380D01*
X118932737Y-115970000D01*
X118980356Y-116017619D01*
X119075594Y-116160476D01*
X119123213Y-116350952D01*
X119123213Y-116731904D01*
X119075594Y-116827142D01*
X119027975Y-116874761D01*
X118932737Y-116922380D01*
X118742260Y-116922380D01*
X118647022Y-116874761D01*
X118599403Y-116827142D01*
X118551784Y-116731904D01*
X118551784Y-116493809D01*
X118599403Y-116398571D01*
X118647022Y-116350952D01*
X118742260Y-116303333D01*
X118932737Y-116303333D01*
X119027975Y-116350952D01*
X119075594Y-116398571D01*
X119123213Y-116493809D01*
%TO.C,C5*%
X127404166Y-109687142D02*
X127451785Y-109734761D01*
X127594642Y-109782380D01*
X127689880Y-109782380D01*
X127832738Y-109734761D01*
X127927976Y-109639523D01*
X127975595Y-109544285D01*
X128023214Y-109353809D01*
X128023214Y-109210952D01*
X127975595Y-109020476D01*
X127927976Y-108925238D01*
X127832738Y-108830000D01*
X127689880Y-108782380D01*
X127594642Y-108782380D01*
X127451785Y-108830000D01*
X127404166Y-108877619D01*
X126499404Y-108782380D02*
X126975595Y-108782380D01*
X127023214Y-109258571D01*
X126975595Y-109210952D01*
X126880357Y-109163333D01*
X126642261Y-109163333D01*
X126547023Y-109210952D01*
X126499404Y-109258571D01*
X126451785Y-109353809D01*
X126451785Y-109591904D01*
X126499404Y-109687142D01*
X126547023Y-109734761D01*
X126642261Y-109782380D01*
X126880357Y-109782380D01*
X126975595Y-109734761D01*
X127023214Y-109687142D01*
%TO.C,C4*%
X124304166Y-119087142D02*
X124351785Y-119134761D01*
X124494642Y-119182380D01*
X124589880Y-119182380D01*
X124732738Y-119134761D01*
X124827976Y-119039523D01*
X124875595Y-118944285D01*
X124923214Y-118753809D01*
X124923214Y-118610952D01*
X124875595Y-118420476D01*
X124827976Y-118325238D01*
X124732738Y-118230000D01*
X124589880Y-118182380D01*
X124494642Y-118182380D01*
X124351785Y-118230000D01*
X124304166Y-118277619D01*
X123447023Y-118515714D02*
X123447023Y-119182380D01*
X123685119Y-118134761D02*
X123923214Y-118849047D01*
X123304166Y-118849047D01*
%TO.C,C3*%
X119504165Y-118327143D02*
X119551784Y-118374762D01*
X119694641Y-118422381D01*
X119789879Y-118422381D01*
X119932737Y-118374762D01*
X120027975Y-118279524D01*
X120075594Y-118184286D01*
X120123213Y-117993810D01*
X120123213Y-117850953D01*
X120075594Y-117660477D01*
X120027975Y-117565239D01*
X119932737Y-117470001D01*
X119789879Y-117422381D01*
X119694641Y-117422381D01*
X119551784Y-117470001D01*
X119504165Y-117517620D01*
X119170832Y-117422381D02*
X118551784Y-117422381D01*
X118885118Y-117803334D01*
X118742260Y-117803334D01*
X118647022Y-117850953D01*
X118599403Y-117898572D01*
X118551784Y-117993810D01*
X118551784Y-118231905D01*
X118599403Y-118327143D01*
X118647022Y-118374762D01*
X118742260Y-118422381D01*
X119027975Y-118422381D01*
X119123213Y-118374762D01*
X119170832Y-118327143D01*
%TO.C,C2*%
X127404166Y-108187141D02*
X127451785Y-108234760D01*
X127594642Y-108282379D01*
X127689880Y-108282379D01*
X127832738Y-108234760D01*
X127927976Y-108139522D01*
X127975595Y-108044284D01*
X128023214Y-107853808D01*
X128023214Y-107710951D01*
X127975595Y-107520475D01*
X127927976Y-107425237D01*
X127832738Y-107329999D01*
X127689880Y-107282379D01*
X127594642Y-107282379D01*
X127451785Y-107329999D01*
X127404166Y-107377618D01*
X127023214Y-107377618D02*
X126975595Y-107329999D01*
X126880357Y-107282379D01*
X126642261Y-107282379D01*
X126547023Y-107329999D01*
X126499404Y-107377618D01*
X126451785Y-107472856D01*
X126451785Y-107568094D01*
X126499404Y-107710951D01*
X127070833Y-108282379D01*
X126451785Y-108282379D01*
%TO.C,C1*%
X124304166Y-120587142D02*
X124351785Y-120634761D01*
X124494642Y-120682380D01*
X124589880Y-120682380D01*
X124732738Y-120634761D01*
X124827976Y-120539523D01*
X124875595Y-120444285D01*
X124923214Y-120253809D01*
X124923214Y-120110952D01*
X124875595Y-119920476D01*
X124827976Y-119825238D01*
X124732738Y-119730000D01*
X124589880Y-119682380D01*
X124494642Y-119682380D01*
X124351785Y-119730000D01*
X124304166Y-119777619D01*
X123351785Y-120682380D02*
X123923214Y-120682380D01*
X123637500Y-120682380D02*
X123637500Y-119682380D01*
X123732738Y-119825238D01*
X123827976Y-119920476D01*
X123923214Y-119968095D01*
%TO.C,J13*%
X131912380Y-128690476D02*
X132626666Y-128690476D01*
X132769523Y-128642857D01*
X132864761Y-128547619D01*
X132912380Y-128404761D01*
X132912380Y-128309523D01*
X132912380Y-129690476D02*
X132912380Y-129119047D01*
X132912380Y-129404761D02*
X131912380Y-129404761D01*
X132055238Y-129309523D01*
X132150476Y-129214285D01*
X132198095Y-129119047D01*
X131912380Y-130023809D02*
X131912380Y-130642857D01*
X132293333Y-130309523D01*
X132293333Y-130452380D01*
X132340952Y-130547619D01*
X132388571Y-130595238D01*
X132483809Y-130642857D01*
X132721904Y-130642857D01*
X132817142Y-130595238D01*
X132864761Y-130547619D01*
X132912380Y-130452380D01*
X132912380Y-130166666D01*
X132864761Y-130071428D01*
X132817142Y-130023809D01*
%TO.C,D14*%
X159614285Y-123852380D02*
X159614285Y-122852380D01*
X159376190Y-122852380D01*
X159233333Y-122900000D01*
X159138095Y-122995238D01*
X159090476Y-123090476D01*
X159042857Y-123280952D01*
X159042857Y-123423809D01*
X159090476Y-123614285D01*
X159138095Y-123709523D01*
X159233333Y-123804761D01*
X159376190Y-123852380D01*
X159614285Y-123852380D01*
X158090476Y-123852380D02*
X158661904Y-123852380D01*
X158376190Y-123852380D02*
X158376190Y-122852380D01*
X158471428Y-122995238D01*
X158566666Y-123090476D01*
X158661904Y-123138095D01*
X157233333Y-123185714D02*
X157233333Y-123852380D01*
X157471428Y-122804761D02*
X157709523Y-123519047D01*
X157090476Y-123519047D01*
%TO.C,C38*%
X151242857Y-124557142D02*
X151290476Y-124604761D01*
X151433333Y-124652380D01*
X151528571Y-124652380D01*
X151671428Y-124604761D01*
X151766666Y-124509523D01*
X151814285Y-124414285D01*
X151861904Y-124223809D01*
X151861904Y-124080952D01*
X151814285Y-123890476D01*
X151766666Y-123795238D01*
X151671428Y-123700000D01*
X151528571Y-123652380D01*
X151433333Y-123652380D01*
X151290476Y-123700000D01*
X151242857Y-123747619D01*
X150909523Y-123652380D02*
X150290476Y-123652380D01*
X150623809Y-124033333D01*
X150480952Y-124033333D01*
X150385714Y-124080952D01*
X150338095Y-124128571D01*
X150290476Y-124223809D01*
X150290476Y-124461904D01*
X150338095Y-124557142D01*
X150385714Y-124604761D01*
X150480952Y-124652380D01*
X150766666Y-124652380D01*
X150861904Y-124604761D01*
X150909523Y-124557142D01*
X149719047Y-124080952D02*
X149814285Y-124033333D01*
X149861904Y-123985714D01*
X149909523Y-123890476D01*
X149909523Y-123842857D01*
X149861904Y-123747619D01*
X149814285Y-123700000D01*
X149719047Y-123652380D01*
X149528571Y-123652380D01*
X149433333Y-123700000D01*
X149385714Y-123747619D01*
X149338095Y-123842857D01*
X149338095Y-123890476D01*
X149385714Y-123985714D01*
X149433333Y-124033333D01*
X149528571Y-124080952D01*
X149719047Y-124080952D01*
X149814285Y-124128571D01*
X149861904Y-124176190D01*
X149909523Y-124271428D01*
X149909523Y-124461904D01*
X149861904Y-124557142D01*
X149814285Y-124604761D01*
X149719047Y-124652380D01*
X149528571Y-124652380D01*
X149433333Y-124604761D01*
X149385714Y-124557142D01*
X149338095Y-124461904D01*
X149338095Y-124271428D01*
X149385714Y-124176190D01*
X149433333Y-124128571D01*
X149528571Y-124080952D01*
%TO.C,C37*%
X155942857Y-128257142D02*
X155990476Y-128304761D01*
X156133333Y-128352380D01*
X156228571Y-128352380D01*
X156371428Y-128304761D01*
X156466666Y-128209523D01*
X156514285Y-128114285D01*
X156561904Y-127923809D01*
X156561904Y-127780952D01*
X156514285Y-127590476D01*
X156466666Y-127495238D01*
X156371428Y-127400000D01*
X156228571Y-127352380D01*
X156133333Y-127352380D01*
X155990476Y-127400000D01*
X155942857Y-127447619D01*
X155609523Y-127352380D02*
X154990476Y-127352380D01*
X155323809Y-127733333D01*
X155180952Y-127733333D01*
X155085714Y-127780952D01*
X155038095Y-127828571D01*
X154990476Y-127923809D01*
X154990476Y-128161904D01*
X155038095Y-128257142D01*
X155085714Y-128304761D01*
X155180952Y-128352380D01*
X155466666Y-128352380D01*
X155561904Y-128304761D01*
X155609523Y-128257142D01*
X154657142Y-127352380D02*
X153990476Y-127352380D01*
X154419047Y-128352380D01*
%TO.C,C36*%
X150442857Y-111957142D02*
X150490476Y-112004761D01*
X150633333Y-112052380D01*
X150728571Y-112052380D01*
X150871428Y-112004761D01*
X150966666Y-111909523D01*
X151014285Y-111814285D01*
X151061904Y-111623809D01*
X151061904Y-111480952D01*
X151014285Y-111290476D01*
X150966666Y-111195238D01*
X150871428Y-111100000D01*
X150728571Y-111052380D01*
X150633333Y-111052380D01*
X150490476Y-111100000D01*
X150442857Y-111147619D01*
X150109523Y-111052380D02*
X149490476Y-111052380D01*
X149823809Y-111433333D01*
X149680952Y-111433333D01*
X149585714Y-111480952D01*
X149538095Y-111528571D01*
X149490476Y-111623809D01*
X149490476Y-111861904D01*
X149538095Y-111957142D01*
X149585714Y-112004761D01*
X149680952Y-112052380D01*
X149966666Y-112052380D01*
X150061904Y-112004761D01*
X150109523Y-111957142D01*
X148633333Y-111052380D02*
X148823809Y-111052380D01*
X148919047Y-111100000D01*
X148966666Y-111147619D01*
X149061904Y-111290476D01*
X149109523Y-111480952D01*
X149109523Y-111861904D01*
X149061904Y-111957142D01*
X149014285Y-112004761D01*
X148919047Y-112052380D01*
X148728571Y-112052380D01*
X148633333Y-112004761D01*
X148585714Y-111957142D01*
X148538095Y-111861904D01*
X148538095Y-111623809D01*
X148585714Y-111528571D01*
X148633333Y-111480952D01*
X148728571Y-111433333D01*
X148919047Y-111433333D01*
X149014285Y-111480952D01*
X149061904Y-111528571D01*
X149109523Y-111623809D01*
%TO.C,C35*%
X150242857Y-120557142D02*
X150290476Y-120604761D01*
X150433333Y-120652380D01*
X150528571Y-120652380D01*
X150671428Y-120604761D01*
X150766666Y-120509523D01*
X150814285Y-120414285D01*
X150861904Y-120223809D01*
X150861904Y-120080952D01*
X150814285Y-119890476D01*
X150766666Y-119795238D01*
X150671428Y-119700000D01*
X150528571Y-119652380D01*
X150433333Y-119652380D01*
X150290476Y-119700000D01*
X150242857Y-119747619D01*
X149909523Y-119652380D02*
X149290476Y-119652380D01*
X149623809Y-120033333D01*
X149480952Y-120033333D01*
X149385714Y-120080952D01*
X149338095Y-120128571D01*
X149290476Y-120223809D01*
X149290476Y-120461904D01*
X149338095Y-120557142D01*
X149385714Y-120604761D01*
X149480952Y-120652380D01*
X149766666Y-120652380D01*
X149861904Y-120604761D01*
X149909523Y-120557142D01*
X148385714Y-119652380D02*
X148861904Y-119652380D01*
X148909523Y-120128571D01*
X148861904Y-120080952D01*
X148766666Y-120033333D01*
X148528571Y-120033333D01*
X148433333Y-120080952D01*
X148385714Y-120128571D01*
X148338095Y-120223809D01*
X148338095Y-120461904D01*
X148385714Y-120557142D01*
X148433333Y-120604761D01*
X148528571Y-120652380D01*
X148766666Y-120652380D01*
X148861904Y-120604761D01*
X148909523Y-120557142D01*
%TO.C,C34*%
X150242857Y-119257142D02*
X150290476Y-119304761D01*
X150433333Y-119352380D01*
X150528571Y-119352380D01*
X150671428Y-119304761D01*
X150766666Y-119209523D01*
X150814285Y-119114285D01*
X150861904Y-118923809D01*
X150861904Y-118780952D01*
X150814285Y-118590476D01*
X150766666Y-118495238D01*
X150671428Y-118400000D01*
X150528571Y-118352380D01*
X150433333Y-118352380D01*
X150290476Y-118400000D01*
X150242857Y-118447619D01*
X149909523Y-118352380D02*
X149290476Y-118352380D01*
X149623809Y-118733333D01*
X149480952Y-118733333D01*
X149385714Y-118780952D01*
X149338095Y-118828571D01*
X149290476Y-118923809D01*
X149290476Y-119161904D01*
X149338095Y-119257142D01*
X149385714Y-119304761D01*
X149480952Y-119352380D01*
X149766666Y-119352380D01*
X149861904Y-119304761D01*
X149909523Y-119257142D01*
X148433333Y-118685714D02*
X148433333Y-119352380D01*
X148671428Y-118304761D02*
X148909523Y-119019047D01*
X148290476Y-119019047D01*
%TO.C,C33*%
X155942857Y-129457142D02*
X155990476Y-129504761D01*
X156133333Y-129552380D01*
X156228571Y-129552380D01*
X156371428Y-129504761D01*
X156466666Y-129409523D01*
X156514285Y-129314285D01*
X156561904Y-129123809D01*
X156561904Y-128980952D01*
X156514285Y-128790476D01*
X156466666Y-128695238D01*
X156371428Y-128600000D01*
X156228571Y-128552380D01*
X156133333Y-128552380D01*
X155990476Y-128600000D01*
X155942857Y-128647619D01*
X155609523Y-128552380D02*
X154990476Y-128552380D01*
X155323809Y-128933333D01*
X155180952Y-128933333D01*
X155085714Y-128980952D01*
X155038095Y-129028571D01*
X154990476Y-129123809D01*
X154990476Y-129361904D01*
X155038095Y-129457142D01*
X155085714Y-129504761D01*
X155180952Y-129552380D01*
X155466666Y-129552380D01*
X155561904Y-129504761D01*
X155609523Y-129457142D01*
X154657142Y-128552380D02*
X154038095Y-128552380D01*
X154371428Y-128933333D01*
X154228571Y-128933333D01*
X154133333Y-128980952D01*
X154085714Y-129028571D01*
X154038095Y-129123809D01*
X154038095Y-129361904D01*
X154085714Y-129457142D01*
X154133333Y-129504761D01*
X154228571Y-129552380D01*
X154514285Y-129552380D01*
X154609523Y-129504761D01*
X154657142Y-129457142D01*
%TO.C,C32*%
X151242857Y-123357142D02*
X151290476Y-123404761D01*
X151433333Y-123452380D01*
X151528571Y-123452380D01*
X151671428Y-123404761D01*
X151766666Y-123309523D01*
X151814285Y-123214285D01*
X151861904Y-123023809D01*
X151861904Y-122880952D01*
X151814285Y-122690476D01*
X151766666Y-122595238D01*
X151671428Y-122500000D01*
X151528571Y-122452380D01*
X151433333Y-122452380D01*
X151290476Y-122500000D01*
X151242857Y-122547619D01*
X150909523Y-122452380D02*
X150290476Y-122452380D01*
X150623809Y-122833333D01*
X150480952Y-122833333D01*
X150385714Y-122880952D01*
X150338095Y-122928571D01*
X150290476Y-123023809D01*
X150290476Y-123261904D01*
X150338095Y-123357142D01*
X150385714Y-123404761D01*
X150480952Y-123452380D01*
X150766666Y-123452380D01*
X150861904Y-123404761D01*
X150909523Y-123357142D01*
X149909523Y-122547619D02*
X149861904Y-122500000D01*
X149766666Y-122452380D01*
X149528571Y-122452380D01*
X149433333Y-122500000D01*
X149385714Y-122547619D01*
X149338095Y-122642857D01*
X149338095Y-122738095D01*
X149385714Y-122880952D01*
X149957142Y-123452380D01*
X149338095Y-123452380D01*
%TO.C,C31*%
X155942857Y-127057142D02*
X155990476Y-127104761D01*
X156133333Y-127152380D01*
X156228571Y-127152380D01*
X156371428Y-127104761D01*
X156466666Y-127009523D01*
X156514285Y-126914285D01*
X156561904Y-126723809D01*
X156561904Y-126580952D01*
X156514285Y-126390476D01*
X156466666Y-126295238D01*
X156371428Y-126200000D01*
X156228571Y-126152380D01*
X156133333Y-126152380D01*
X155990476Y-126200000D01*
X155942857Y-126247619D01*
X155609523Y-126152380D02*
X154990476Y-126152380D01*
X155323809Y-126533333D01*
X155180952Y-126533333D01*
X155085714Y-126580952D01*
X155038095Y-126628571D01*
X154990476Y-126723809D01*
X154990476Y-126961904D01*
X155038095Y-127057142D01*
X155085714Y-127104761D01*
X155180952Y-127152380D01*
X155466666Y-127152380D01*
X155561904Y-127104761D01*
X155609523Y-127057142D01*
X154038095Y-127152380D02*
X154609523Y-127152380D01*
X154323809Y-127152380D02*
X154323809Y-126152380D01*
X154419047Y-126295238D01*
X154514285Y-126390476D01*
X154609523Y-126438095D01*
%TO.C,C30*%
X159742857Y-109157142D02*
X159790476Y-109204761D01*
X159933333Y-109252380D01*
X160028571Y-109252380D01*
X160171428Y-109204761D01*
X160266666Y-109109523D01*
X160314285Y-109014285D01*
X160361904Y-108823809D01*
X160361904Y-108680952D01*
X160314285Y-108490476D01*
X160266666Y-108395238D01*
X160171428Y-108300000D01*
X160028571Y-108252380D01*
X159933333Y-108252380D01*
X159790476Y-108300000D01*
X159742857Y-108347619D01*
X159409523Y-108252380D02*
X158790476Y-108252380D01*
X159123809Y-108633333D01*
X158980952Y-108633333D01*
X158885714Y-108680952D01*
X158838095Y-108728571D01*
X158790476Y-108823809D01*
X158790476Y-109061904D01*
X158838095Y-109157142D01*
X158885714Y-109204761D01*
X158980952Y-109252380D01*
X159266666Y-109252380D01*
X159361904Y-109204761D01*
X159409523Y-109157142D01*
X158171428Y-108252380D02*
X158076190Y-108252380D01*
X157980952Y-108300000D01*
X157933333Y-108347619D01*
X157885714Y-108442857D01*
X157838095Y-108633333D01*
X157838095Y-108871428D01*
X157885714Y-109061904D01*
X157933333Y-109157142D01*
X157980952Y-109204761D01*
X158076190Y-109252380D01*
X158171428Y-109252380D01*
X158266666Y-109204761D01*
X158314285Y-109157142D01*
X158361904Y-109061904D01*
X158409523Y-108871428D01*
X158409523Y-108633333D01*
X158361904Y-108442857D01*
X158314285Y-108347619D01*
X158266666Y-108300000D01*
X158171428Y-108252380D01*
%TO.C,C29*%
X156757142Y-122557142D02*
X156804761Y-122509523D01*
X156852380Y-122366666D01*
X156852380Y-122271428D01*
X156804761Y-122128571D01*
X156709523Y-122033333D01*
X156614285Y-121985714D01*
X156423809Y-121938095D01*
X156280952Y-121938095D01*
X156090476Y-121985714D01*
X155995238Y-122033333D01*
X155900000Y-122128571D01*
X155852380Y-122271428D01*
X155852380Y-122366666D01*
X155900000Y-122509523D01*
X155947619Y-122557142D01*
X155947619Y-122938095D02*
X155900000Y-122985714D01*
X155852380Y-123080952D01*
X155852380Y-123319047D01*
X155900000Y-123414285D01*
X155947619Y-123461904D01*
X156042857Y-123509523D01*
X156138095Y-123509523D01*
X156280952Y-123461904D01*
X156852380Y-122890476D01*
X156852380Y-123509523D01*
X156852380Y-123985714D02*
X156852380Y-124176190D01*
X156804761Y-124271428D01*
X156757142Y-124319047D01*
X156614285Y-124414285D01*
X156423809Y-124461904D01*
X156042857Y-124461904D01*
X155947619Y-124414285D01*
X155900000Y-124366666D01*
X155852380Y-124271428D01*
X155852380Y-124080952D01*
X155900000Y-123985714D01*
X155947619Y-123938095D01*
X156042857Y-123890476D01*
X156280952Y-123890476D01*
X156376190Y-123938095D01*
X156423809Y-123985714D01*
X156471428Y-124080952D01*
X156471428Y-124271428D01*
X156423809Y-124366666D01*
X156376190Y-124414285D01*
X156280952Y-124461904D01*
%TO.C,C28*%
X152257142Y-106657142D02*
X152304761Y-106609523D01*
X152352380Y-106466666D01*
X152352380Y-106371428D01*
X152304761Y-106228571D01*
X152209523Y-106133333D01*
X152114285Y-106085714D01*
X151923809Y-106038095D01*
X151780952Y-106038095D01*
X151590476Y-106085714D01*
X151495238Y-106133333D01*
X151400000Y-106228571D01*
X151352380Y-106371428D01*
X151352380Y-106466666D01*
X151400000Y-106609523D01*
X151447619Y-106657142D01*
X151447619Y-107038095D02*
X151400000Y-107085714D01*
X151352380Y-107180952D01*
X151352380Y-107419047D01*
X151400000Y-107514285D01*
X151447619Y-107561904D01*
X151542857Y-107609523D01*
X151638095Y-107609523D01*
X151780952Y-107561904D01*
X152352380Y-106990476D01*
X152352380Y-107609523D01*
X151780952Y-108180952D02*
X151733333Y-108085714D01*
X151685714Y-108038095D01*
X151590476Y-107990476D01*
X151542857Y-107990476D01*
X151447619Y-108038095D01*
X151400000Y-108085714D01*
X151352380Y-108180952D01*
X151352380Y-108371428D01*
X151400000Y-108466666D01*
X151447619Y-108514285D01*
X151542857Y-108561904D01*
X151590476Y-108561904D01*
X151685714Y-108514285D01*
X151733333Y-108466666D01*
X151780952Y-108371428D01*
X151780952Y-108180952D01*
X151828571Y-108085714D01*
X151876190Y-108038095D01*
X151971428Y-107990476D01*
X152161904Y-107990476D01*
X152257142Y-108038095D01*
X152304761Y-108085714D01*
X152352380Y-108180952D01*
X152352380Y-108371428D01*
X152304761Y-108466666D01*
X152257142Y-108514285D01*
X152161904Y-108561904D01*
X151971428Y-108561904D01*
X151876190Y-108514285D01*
X151828571Y-108466666D01*
X151780952Y-108371428D01*
%TO.C,C27*%
X153757142Y-106657142D02*
X153804761Y-106609523D01*
X153852380Y-106466666D01*
X153852380Y-106371428D01*
X153804761Y-106228571D01*
X153709523Y-106133333D01*
X153614285Y-106085714D01*
X153423809Y-106038095D01*
X153280952Y-106038095D01*
X153090476Y-106085714D01*
X152995238Y-106133333D01*
X152900000Y-106228571D01*
X152852380Y-106371428D01*
X152852380Y-106466666D01*
X152900000Y-106609523D01*
X152947619Y-106657142D01*
X152947619Y-107038095D02*
X152900000Y-107085714D01*
X152852380Y-107180952D01*
X152852380Y-107419047D01*
X152900000Y-107514285D01*
X152947619Y-107561904D01*
X153042857Y-107609523D01*
X153138095Y-107609523D01*
X153280952Y-107561904D01*
X153852380Y-106990476D01*
X153852380Y-107609523D01*
X152852380Y-107942857D02*
X152852380Y-108609523D01*
X153852380Y-108180952D01*
%TO.C,C26*%
X155257142Y-106657142D02*
X155304761Y-106609523D01*
X155352380Y-106466666D01*
X155352380Y-106371428D01*
X155304761Y-106228571D01*
X155209523Y-106133333D01*
X155114285Y-106085714D01*
X154923809Y-106038095D01*
X154780952Y-106038095D01*
X154590476Y-106085714D01*
X154495238Y-106133333D01*
X154400000Y-106228571D01*
X154352380Y-106371428D01*
X154352380Y-106466666D01*
X154400000Y-106609523D01*
X154447619Y-106657142D01*
X154447619Y-107038095D02*
X154400000Y-107085714D01*
X154352380Y-107180952D01*
X154352380Y-107419047D01*
X154400000Y-107514285D01*
X154447619Y-107561904D01*
X154542857Y-107609523D01*
X154638095Y-107609523D01*
X154780952Y-107561904D01*
X155352380Y-106990476D01*
X155352380Y-107609523D01*
X154352380Y-108466666D02*
X154352380Y-108276190D01*
X154400000Y-108180952D01*
X154447619Y-108133333D01*
X154590476Y-108038095D01*
X154780952Y-107990476D01*
X155161904Y-107990476D01*
X155257142Y-108038095D01*
X155304761Y-108085714D01*
X155352380Y-108180952D01*
X155352380Y-108371428D01*
X155304761Y-108466666D01*
X155257142Y-108514285D01*
X155161904Y-108561904D01*
X154923809Y-108561904D01*
X154828571Y-108514285D01*
X154780952Y-108466666D01*
X154733333Y-108371428D01*
X154733333Y-108180952D01*
X154780952Y-108085714D01*
X154828571Y-108038095D01*
X154923809Y-107990476D01*
%TO.C,C25*%
X156757142Y-106657142D02*
X156804761Y-106609523D01*
X156852380Y-106466666D01*
X156852380Y-106371428D01*
X156804761Y-106228571D01*
X156709523Y-106133333D01*
X156614285Y-106085714D01*
X156423809Y-106038095D01*
X156280952Y-106038095D01*
X156090476Y-106085714D01*
X155995238Y-106133333D01*
X155900000Y-106228571D01*
X155852380Y-106371428D01*
X155852380Y-106466666D01*
X155900000Y-106609523D01*
X155947619Y-106657142D01*
X155947619Y-107038095D02*
X155900000Y-107085714D01*
X155852380Y-107180952D01*
X155852380Y-107419047D01*
X155900000Y-107514285D01*
X155947619Y-107561904D01*
X156042857Y-107609523D01*
X156138095Y-107609523D01*
X156280952Y-107561904D01*
X156852380Y-106990476D01*
X156852380Y-107609523D01*
X155852380Y-108514285D02*
X155852380Y-108038095D01*
X156328571Y-107990476D01*
X156280952Y-108038095D01*
X156233333Y-108133333D01*
X156233333Y-108371428D01*
X156280952Y-108466666D01*
X156328571Y-108514285D01*
X156423809Y-108561904D01*
X156661904Y-108561904D01*
X156757142Y-108514285D01*
X156804761Y-108466666D01*
X156852380Y-108371428D01*
X156852380Y-108133333D01*
X156804761Y-108038095D01*
X156757142Y-107990476D01*
%TO.C,C24*%
X155442857Y-125757142D02*
X155490476Y-125804761D01*
X155633333Y-125852380D01*
X155728571Y-125852380D01*
X155871428Y-125804761D01*
X155966666Y-125709523D01*
X156014285Y-125614285D01*
X156061904Y-125423809D01*
X156061904Y-125280952D01*
X156014285Y-125090476D01*
X155966666Y-124995238D01*
X155871428Y-124900000D01*
X155728571Y-124852380D01*
X155633333Y-124852380D01*
X155490476Y-124900000D01*
X155442857Y-124947619D01*
X155061904Y-124947619D02*
X155014285Y-124900000D01*
X154919047Y-124852380D01*
X154680952Y-124852380D01*
X154585714Y-124900000D01*
X154538095Y-124947619D01*
X154490476Y-125042857D01*
X154490476Y-125138095D01*
X154538095Y-125280952D01*
X155109523Y-125852380D01*
X154490476Y-125852380D01*
X153633333Y-125185714D02*
X153633333Y-125852380D01*
X153871428Y-124804761D02*
X154109523Y-125519047D01*
X153490476Y-125519047D01*
%TO.C,C23*%
X150442857Y-110757142D02*
X150490476Y-110804761D01*
X150633333Y-110852380D01*
X150728571Y-110852380D01*
X150871428Y-110804761D01*
X150966666Y-110709523D01*
X151014285Y-110614285D01*
X151061904Y-110423809D01*
X151061904Y-110280952D01*
X151014285Y-110090476D01*
X150966666Y-109995238D01*
X150871428Y-109900000D01*
X150728571Y-109852380D01*
X150633333Y-109852380D01*
X150490476Y-109900000D01*
X150442857Y-109947619D01*
X150061904Y-109947619D02*
X150014285Y-109900000D01*
X149919047Y-109852380D01*
X149680952Y-109852380D01*
X149585714Y-109900000D01*
X149538095Y-109947619D01*
X149490476Y-110042857D01*
X149490476Y-110138095D01*
X149538095Y-110280952D01*
X150109523Y-110852380D01*
X149490476Y-110852380D01*
X149157142Y-109852380D02*
X148538095Y-109852380D01*
X148871428Y-110233333D01*
X148728571Y-110233333D01*
X148633333Y-110280952D01*
X148585714Y-110328571D01*
X148538095Y-110423809D01*
X148538095Y-110661904D01*
X148585714Y-110757142D01*
X148633333Y-110804761D01*
X148728571Y-110852380D01*
X149014285Y-110852380D01*
X149109523Y-110804761D01*
X149157142Y-110757142D01*
%TO.C,C22*%
X150442857Y-109557142D02*
X150490476Y-109604761D01*
X150633333Y-109652380D01*
X150728571Y-109652380D01*
X150871428Y-109604761D01*
X150966666Y-109509523D01*
X151014285Y-109414285D01*
X151061904Y-109223809D01*
X151061904Y-109080952D01*
X151014285Y-108890476D01*
X150966666Y-108795238D01*
X150871428Y-108700000D01*
X150728571Y-108652380D01*
X150633333Y-108652380D01*
X150490476Y-108700000D01*
X150442857Y-108747619D01*
X150061904Y-108747619D02*
X150014285Y-108700000D01*
X149919047Y-108652380D01*
X149680952Y-108652380D01*
X149585714Y-108700000D01*
X149538095Y-108747619D01*
X149490476Y-108842857D01*
X149490476Y-108938095D01*
X149538095Y-109080952D01*
X150109523Y-109652380D01*
X149490476Y-109652380D01*
X149109523Y-108747619D02*
X149061904Y-108700000D01*
X148966666Y-108652380D01*
X148728571Y-108652380D01*
X148633333Y-108700000D01*
X148585714Y-108747619D01*
X148538095Y-108842857D01*
X148538095Y-108938095D01*
X148585714Y-109080952D01*
X149157142Y-109652380D01*
X148538095Y-109652380D01*
%TO.C,C21*%
X150342857Y-108357142D02*
X150390476Y-108404761D01*
X150533333Y-108452380D01*
X150628571Y-108452380D01*
X150771428Y-108404761D01*
X150866666Y-108309523D01*
X150914285Y-108214285D01*
X150961904Y-108023809D01*
X150961904Y-107880952D01*
X150914285Y-107690476D01*
X150866666Y-107595238D01*
X150771428Y-107500000D01*
X150628571Y-107452380D01*
X150533333Y-107452380D01*
X150390476Y-107500000D01*
X150342857Y-107547619D01*
X149961904Y-107547619D02*
X149914285Y-107500000D01*
X149819047Y-107452380D01*
X149580952Y-107452380D01*
X149485714Y-107500000D01*
X149438095Y-107547619D01*
X149390476Y-107642857D01*
X149390476Y-107738095D01*
X149438095Y-107880952D01*
X150009523Y-108452380D01*
X149390476Y-108452380D01*
X148438095Y-108452380D02*
X149009523Y-108452380D01*
X148723809Y-108452380D02*
X148723809Y-107452380D01*
X148819047Y-107595238D01*
X148914285Y-107690476D01*
X149009523Y-107738095D01*
%TO.C,C20*%
X155257142Y-122557142D02*
X155304761Y-122509523D01*
X155352380Y-122366666D01*
X155352380Y-122271428D01*
X155304761Y-122128571D01*
X155209523Y-122033333D01*
X155114285Y-121985714D01*
X154923809Y-121938095D01*
X154780952Y-121938095D01*
X154590476Y-121985714D01*
X154495238Y-122033333D01*
X154400000Y-122128571D01*
X154352380Y-122271428D01*
X154352380Y-122366666D01*
X154400000Y-122509523D01*
X154447619Y-122557142D01*
X154447619Y-122938095D02*
X154400000Y-122985714D01*
X154352380Y-123080952D01*
X154352380Y-123319047D01*
X154400000Y-123414285D01*
X154447619Y-123461904D01*
X154542857Y-123509523D01*
X154638095Y-123509523D01*
X154780952Y-123461904D01*
X155352380Y-122890476D01*
X155352380Y-123509523D01*
X154352380Y-124128571D02*
X154352380Y-124223809D01*
X154400000Y-124319047D01*
X154447619Y-124366666D01*
X154542857Y-124414285D01*
X154733333Y-124461904D01*
X154971428Y-124461904D01*
X155161904Y-124414285D01*
X155257142Y-124366666D01*
X155304761Y-124319047D01*
X155352380Y-124223809D01*
X155352380Y-124128571D01*
X155304761Y-124033333D01*
X155257142Y-123985714D01*
X155161904Y-123938095D01*
X154971428Y-123890476D01*
X154733333Y-123890476D01*
X154542857Y-123938095D01*
X154447619Y-123985714D01*
X154400000Y-124033333D01*
X154352380Y-124128571D01*
%TO.C,C19*%
X153757142Y-122557142D02*
X153804761Y-122509523D01*
X153852380Y-122366666D01*
X153852380Y-122271428D01*
X153804761Y-122128571D01*
X153709523Y-122033333D01*
X153614285Y-121985714D01*
X153423809Y-121938095D01*
X153280952Y-121938095D01*
X153090476Y-121985714D01*
X152995238Y-122033333D01*
X152900000Y-122128571D01*
X152852380Y-122271428D01*
X152852380Y-122366666D01*
X152900000Y-122509523D01*
X152947619Y-122557142D01*
X153852380Y-123509523D02*
X153852380Y-122938095D01*
X153852380Y-123223809D02*
X152852380Y-123223809D01*
X152995238Y-123128571D01*
X153090476Y-123033333D01*
X153138095Y-122938095D01*
X153852380Y-123985714D02*
X153852380Y-124176190D01*
X153804761Y-124271428D01*
X153757142Y-124319047D01*
X153614285Y-124414285D01*
X153423809Y-124461904D01*
X153042857Y-124461904D01*
X152947619Y-124414285D01*
X152900000Y-124366666D01*
X152852380Y-124271428D01*
X152852380Y-124080952D01*
X152900000Y-123985714D01*
X152947619Y-123938095D01*
X153042857Y-123890476D01*
X153280952Y-123890476D01*
X153376190Y-123938095D01*
X153423809Y-123985714D01*
X153471428Y-124080952D01*
X153471428Y-124271428D01*
X153423809Y-124366666D01*
X153376190Y-124414285D01*
X153280952Y-124461904D01*
%TO.C,C18*%
X151242857Y-125857142D02*
X151290476Y-125904761D01*
X151433333Y-125952380D01*
X151528571Y-125952380D01*
X151671428Y-125904761D01*
X151766666Y-125809523D01*
X151814285Y-125714285D01*
X151861904Y-125523809D01*
X151861904Y-125380952D01*
X151814285Y-125190476D01*
X151766666Y-125095238D01*
X151671428Y-125000000D01*
X151528571Y-124952380D01*
X151433333Y-124952380D01*
X151290476Y-125000000D01*
X151242857Y-125047619D01*
X150290476Y-125952380D02*
X150861904Y-125952380D01*
X150576190Y-125952380D02*
X150576190Y-124952380D01*
X150671428Y-125095238D01*
X150766666Y-125190476D01*
X150861904Y-125238095D01*
X149719047Y-125380952D02*
X149814285Y-125333333D01*
X149861904Y-125285714D01*
X149909523Y-125190476D01*
X149909523Y-125142857D01*
X149861904Y-125047619D01*
X149814285Y-125000000D01*
X149719047Y-124952380D01*
X149528571Y-124952380D01*
X149433333Y-125000000D01*
X149385714Y-125047619D01*
X149338095Y-125142857D01*
X149338095Y-125190476D01*
X149385714Y-125285714D01*
X149433333Y-125333333D01*
X149528571Y-125380952D01*
X149719047Y-125380952D01*
X149814285Y-125428571D01*
X149861904Y-125476190D01*
X149909523Y-125571428D01*
X149909523Y-125761904D01*
X149861904Y-125857142D01*
X149814285Y-125904761D01*
X149719047Y-125952380D01*
X149528571Y-125952380D01*
X149433333Y-125904761D01*
X149385714Y-125857142D01*
X149338095Y-125761904D01*
X149338095Y-125571428D01*
X149385714Y-125476190D01*
X149433333Y-125428571D01*
X149528571Y-125380952D01*
%TO.C,C17*%
X158242857Y-125757142D02*
X158290476Y-125804761D01*
X158433333Y-125852380D01*
X158528571Y-125852380D01*
X158671428Y-125804761D01*
X158766666Y-125709523D01*
X158814285Y-125614285D01*
X158861904Y-125423809D01*
X158861904Y-125280952D01*
X158814285Y-125090476D01*
X158766666Y-124995238D01*
X158671428Y-124900000D01*
X158528571Y-124852380D01*
X158433333Y-124852380D01*
X158290476Y-124900000D01*
X158242857Y-124947619D01*
X157290476Y-125852380D02*
X157861904Y-125852380D01*
X157576190Y-125852380D02*
X157576190Y-124852380D01*
X157671428Y-124995238D01*
X157766666Y-125090476D01*
X157861904Y-125138095D01*
X156957142Y-124852380D02*
X156290476Y-124852380D01*
X156719047Y-125852380D01*
%TO.C,C16*%
X160042857Y-110457142D02*
X160090476Y-110504761D01*
X160233333Y-110552380D01*
X160328571Y-110552380D01*
X160471428Y-110504761D01*
X160566666Y-110409523D01*
X160614285Y-110314285D01*
X160661904Y-110123809D01*
X160661904Y-109980952D01*
X160614285Y-109790476D01*
X160566666Y-109695238D01*
X160471428Y-109600000D01*
X160328571Y-109552380D01*
X160233333Y-109552380D01*
X160090476Y-109600000D01*
X160042857Y-109647619D01*
X159090476Y-110552380D02*
X159661904Y-110552380D01*
X159376190Y-110552380D02*
X159376190Y-109552380D01*
X159471428Y-109695238D01*
X159566666Y-109790476D01*
X159661904Y-109838095D01*
X158233333Y-109552380D02*
X158423809Y-109552380D01*
X158519047Y-109600000D01*
X158566666Y-109647619D01*
X158661904Y-109790476D01*
X158709523Y-109980952D01*
X158709523Y-110361904D01*
X158661904Y-110457142D01*
X158614285Y-110504761D01*
X158519047Y-110552380D01*
X158328571Y-110552380D01*
X158233333Y-110504761D01*
X158185714Y-110457142D01*
X158138095Y-110361904D01*
X158138095Y-110123809D01*
X158185714Y-110028571D01*
X158233333Y-109980952D01*
X158328571Y-109933333D01*
X158519047Y-109933333D01*
X158614285Y-109980952D01*
X158661904Y-110028571D01*
X158709523Y-110123809D01*
%TO.C,C15*%
X160042857Y-111757142D02*
X160090476Y-111804761D01*
X160233333Y-111852380D01*
X160328571Y-111852380D01*
X160471428Y-111804761D01*
X160566666Y-111709523D01*
X160614285Y-111614285D01*
X160661904Y-111423809D01*
X160661904Y-111280952D01*
X160614285Y-111090476D01*
X160566666Y-110995238D01*
X160471428Y-110900000D01*
X160328571Y-110852380D01*
X160233333Y-110852380D01*
X160090476Y-110900000D01*
X160042857Y-110947619D01*
X159090476Y-111852380D02*
X159661904Y-111852380D01*
X159376190Y-111852380D02*
X159376190Y-110852380D01*
X159471428Y-110995238D01*
X159566666Y-111090476D01*
X159661904Y-111138095D01*
X158185714Y-110852380D02*
X158661904Y-110852380D01*
X158709523Y-111328571D01*
X158661904Y-111280952D01*
X158566666Y-111233333D01*
X158328571Y-111233333D01*
X158233333Y-111280952D01*
X158185714Y-111328571D01*
X158138095Y-111423809D01*
X158138095Y-111661904D01*
X158185714Y-111757142D01*
X158233333Y-111804761D01*
X158328571Y-111852380D01*
X158566666Y-111852380D01*
X158661904Y-111804761D01*
X158709523Y-111757142D01*
%TO.C,R23*%
X150152380Y-132957142D02*
X149676190Y-132623809D01*
X150152380Y-132385714D02*
X149152380Y-132385714D01*
X149152380Y-132766666D01*
X149200000Y-132861904D01*
X149247619Y-132909523D01*
X149342857Y-132957142D01*
X149485714Y-132957142D01*
X149580952Y-132909523D01*
X149628571Y-132861904D01*
X149676190Y-132766666D01*
X149676190Y-132385714D01*
X149247619Y-133338095D02*
X149200000Y-133385714D01*
X149152380Y-133480952D01*
X149152380Y-133719047D01*
X149200000Y-133814285D01*
X149247619Y-133861904D01*
X149342857Y-133909523D01*
X149438095Y-133909523D01*
X149580952Y-133861904D01*
X150152380Y-133290476D01*
X150152380Y-133909523D01*
X149152380Y-134242857D02*
X149152380Y-134861904D01*
X149533333Y-134528571D01*
X149533333Y-134671428D01*
X149580952Y-134766666D01*
X149628571Y-134814285D01*
X149723809Y-134861904D01*
X149961904Y-134861904D01*
X150057142Y-134814285D01*
X150104761Y-134766666D01*
X150152380Y-134671428D01*
X150152380Y-134385714D01*
X150104761Y-134290476D01*
X150057142Y-134242857D01*
%TO.C,R22*%
X148952380Y-133557142D02*
X148476190Y-133223809D01*
X148952380Y-132985714D02*
X147952380Y-132985714D01*
X147952380Y-133366666D01*
X148000000Y-133461904D01*
X148047619Y-133509523D01*
X148142857Y-133557142D01*
X148285714Y-133557142D01*
X148380952Y-133509523D01*
X148428571Y-133461904D01*
X148476190Y-133366666D01*
X148476190Y-132985714D01*
X148047619Y-133938095D02*
X148000000Y-133985714D01*
X147952380Y-134080952D01*
X147952380Y-134319047D01*
X148000000Y-134414285D01*
X148047619Y-134461904D01*
X148142857Y-134509523D01*
X148238095Y-134509523D01*
X148380952Y-134461904D01*
X148952380Y-133890476D01*
X148952380Y-134509523D01*
X148047619Y-134890476D02*
X148000000Y-134938095D01*
X147952380Y-135033333D01*
X147952380Y-135271428D01*
X148000000Y-135366666D01*
X148047619Y-135414285D01*
X148142857Y-135461904D01*
X148238095Y-135461904D01*
X148380952Y-135414285D01*
X148952380Y-134842857D01*
X148952380Y-135461904D01*
%TO.C,R21*%
X147752380Y-134057142D02*
X147276190Y-133723809D01*
X147752380Y-133485714D02*
X146752380Y-133485714D01*
X146752380Y-133866666D01*
X146800000Y-133961904D01*
X146847619Y-134009523D01*
X146942857Y-134057142D01*
X147085714Y-134057142D01*
X147180952Y-134009523D01*
X147228571Y-133961904D01*
X147276190Y-133866666D01*
X147276190Y-133485714D01*
X146847619Y-134438095D02*
X146800000Y-134485714D01*
X146752380Y-134580952D01*
X146752380Y-134819047D01*
X146800000Y-134914285D01*
X146847619Y-134961904D01*
X146942857Y-135009523D01*
X147038095Y-135009523D01*
X147180952Y-134961904D01*
X147752380Y-134390476D01*
X147752380Y-135009523D01*
X147752380Y-135961904D02*
X147752380Y-135390476D01*
X147752380Y-135676190D02*
X146752380Y-135676190D01*
X146895238Y-135580952D01*
X146990476Y-135485714D01*
X147038095Y-135390476D01*
%TO.C,R20*%
X146552380Y-134557142D02*
X146076190Y-134223809D01*
X146552380Y-133985714D02*
X145552380Y-133985714D01*
X145552380Y-134366666D01*
X145600000Y-134461904D01*
X145647619Y-134509523D01*
X145742857Y-134557142D01*
X145885714Y-134557142D01*
X145980952Y-134509523D01*
X146028571Y-134461904D01*
X146076190Y-134366666D01*
X146076190Y-133985714D01*
X145647619Y-134938095D02*
X145600000Y-134985714D01*
X145552380Y-135080952D01*
X145552380Y-135319047D01*
X145600000Y-135414285D01*
X145647619Y-135461904D01*
X145742857Y-135509523D01*
X145838095Y-135509523D01*
X145980952Y-135461904D01*
X146552380Y-134890476D01*
X146552380Y-135509523D01*
X145552380Y-136128571D02*
X145552380Y-136223809D01*
X145600000Y-136319047D01*
X145647619Y-136366666D01*
X145742857Y-136414285D01*
X145933333Y-136461904D01*
X146171428Y-136461904D01*
X146361904Y-136414285D01*
X146457142Y-136366666D01*
X146504761Y-136319047D01*
X146552380Y-136223809D01*
X146552380Y-136128571D01*
X146504761Y-136033333D01*
X146457142Y-135985714D01*
X146361904Y-135938095D01*
X146171428Y-135890476D01*
X145933333Y-135890476D01*
X145742857Y-135938095D01*
X145647619Y-135985714D01*
X145600000Y-136033333D01*
X145552380Y-136128571D01*
%TO.C,R19*%
X131052380Y-134357142D02*
X130576190Y-134023809D01*
X131052380Y-133785714D02*
X130052380Y-133785714D01*
X130052380Y-134166666D01*
X130100000Y-134261904D01*
X130147619Y-134309523D01*
X130242857Y-134357142D01*
X130385714Y-134357142D01*
X130480952Y-134309523D01*
X130528571Y-134261904D01*
X130576190Y-134166666D01*
X130576190Y-133785714D01*
X131052380Y-135309523D02*
X131052380Y-134738095D01*
X131052380Y-135023809D02*
X130052380Y-135023809D01*
X130195238Y-134928571D01*
X130290476Y-134833333D01*
X130338095Y-134738095D01*
X131052380Y-135785714D02*
X131052380Y-135976190D01*
X131004761Y-136071428D01*
X130957142Y-136119047D01*
X130814285Y-136214285D01*
X130623809Y-136261904D01*
X130242857Y-136261904D01*
X130147619Y-136214285D01*
X130100000Y-136166666D01*
X130052380Y-136071428D01*
X130052380Y-135880952D01*
X130100000Y-135785714D01*
X130147619Y-135738095D01*
X130242857Y-135690476D01*
X130480952Y-135690476D01*
X130576190Y-135738095D01*
X130623809Y-135785714D01*
X130671428Y-135880952D01*
X130671428Y-136071428D01*
X130623809Y-136166666D01*
X130576190Y-136214285D01*
X130480952Y-136261904D01*
%TO.C,R18*%
X129852380Y-133557142D02*
X129376190Y-133223809D01*
X129852380Y-132985714D02*
X128852380Y-132985714D01*
X128852380Y-133366666D01*
X128900000Y-133461904D01*
X128947619Y-133509523D01*
X129042857Y-133557142D01*
X129185714Y-133557142D01*
X129280952Y-133509523D01*
X129328571Y-133461904D01*
X129376190Y-133366666D01*
X129376190Y-132985714D01*
X129852380Y-134509523D02*
X129852380Y-133938095D01*
X129852380Y-134223809D02*
X128852380Y-134223809D01*
X128995238Y-134128571D01*
X129090476Y-134033333D01*
X129138095Y-133938095D01*
X129280952Y-135080952D02*
X129233333Y-134985714D01*
X129185714Y-134938095D01*
X129090476Y-134890476D01*
X129042857Y-134890476D01*
X128947619Y-134938095D01*
X128900000Y-134985714D01*
X128852380Y-135080952D01*
X128852380Y-135271428D01*
X128900000Y-135366666D01*
X128947619Y-135414285D01*
X129042857Y-135461904D01*
X129090476Y-135461904D01*
X129185714Y-135414285D01*
X129233333Y-135366666D01*
X129280952Y-135271428D01*
X129280952Y-135080952D01*
X129328571Y-134985714D01*
X129376190Y-134938095D01*
X129471428Y-134890476D01*
X129661904Y-134890476D01*
X129757142Y-134938095D01*
X129804761Y-134985714D01*
X129852380Y-135080952D01*
X129852380Y-135271428D01*
X129804761Y-135366666D01*
X129757142Y-135414285D01*
X129661904Y-135461904D01*
X129471428Y-135461904D01*
X129376190Y-135414285D01*
X129328571Y-135366666D01*
X129280952Y-135271428D01*
%TO.C,R17*%
X128652380Y-132757142D02*
X128176190Y-132423809D01*
X128652380Y-132185714D02*
X127652380Y-132185714D01*
X127652380Y-132566666D01*
X127700000Y-132661904D01*
X127747619Y-132709523D01*
X127842857Y-132757142D01*
X127985714Y-132757142D01*
X128080952Y-132709523D01*
X128128571Y-132661904D01*
X128176190Y-132566666D01*
X128176190Y-132185714D01*
X128652380Y-133709523D02*
X128652380Y-133138095D01*
X128652380Y-133423809D02*
X127652380Y-133423809D01*
X127795238Y-133328571D01*
X127890476Y-133233333D01*
X127938095Y-133138095D01*
X127652380Y-134042857D02*
X127652380Y-134709523D01*
X128652380Y-134280952D01*
%TO.C,R16*%
X127352380Y-132357142D02*
X126876190Y-132023809D01*
X127352380Y-131785714D02*
X126352380Y-131785714D01*
X126352380Y-132166666D01*
X126400000Y-132261904D01*
X126447619Y-132309523D01*
X126542857Y-132357142D01*
X126685714Y-132357142D01*
X126780952Y-132309523D01*
X126828571Y-132261904D01*
X126876190Y-132166666D01*
X126876190Y-131785714D01*
X127352380Y-133309523D02*
X127352380Y-132738095D01*
X127352380Y-133023809D02*
X126352380Y-133023809D01*
X126495238Y-132928571D01*
X126590476Y-132833333D01*
X126638095Y-132738095D01*
X126352380Y-134166666D02*
X126352380Y-133976190D01*
X126400000Y-133880952D01*
X126447619Y-133833333D01*
X126590476Y-133738095D01*
X126780952Y-133690476D01*
X127161904Y-133690476D01*
X127257142Y-133738095D01*
X127304761Y-133785714D01*
X127352380Y-133880952D01*
X127352380Y-134071428D01*
X127304761Y-134166666D01*
X127257142Y-134214285D01*
X127161904Y-134261904D01*
X126923809Y-134261904D01*
X126828571Y-134214285D01*
X126780952Y-134166666D01*
X126733333Y-134071428D01*
X126733333Y-133880952D01*
X126780952Y-133785714D01*
X126828571Y-133738095D01*
X126923809Y-133690476D01*
%TD*%
M02*
