%TF.GenerationSoftware,KiCad,Pcbnew,5.1.7-a382d34a8~87~ubuntu20.04.1*%
%TF.CreationDate,2021-02-03T18:06:15+00:00*%
%TF.ProjectId,UFOControlDeck,55464f43-6f6e-4747-926f-6c4465636b2e,rev?*%
%TF.SameCoordinates,Original*%
%TF.FileFunction,Legend,Top*%
%TF.FilePolarity,Positive*%
%FSLAX46Y46*%
G04 Gerber Fmt 4.6, Leading zero omitted, Abs format (unit mm)*
G04 Created by KiCad (PCBNEW 5.1.7-a382d34a8~87~ubuntu20.04.1) date 2021-02-03 18:06:15*
%MOMM*%
%LPD*%
G01*
G04 APERTURE LIST*
%ADD10C,0.120000*%
%ADD11C,0.152400*%
%ADD12C,0.150000*%
G04 APERTURE END LIST*
D10*
X128525000Y-101825000D02*
G75*
G03*
X128525000Y-101825000I-3300000J0D01*
G01*
%TO.C,C48*%
X143746267Y-97110000D02*
X143453733Y-97110000D01*
X143746267Y-96090000D02*
X143453733Y-96090000D01*
%TO.C,R31*%
X154967224Y-105077500D02*
X154457776Y-105077500D01*
X154967224Y-106122500D02*
X154457776Y-106122500D01*
%TO.C,C47*%
X143616234Y-132810000D02*
X143908768Y-132810000D01*
X143616234Y-131790000D02*
X143908768Y-131790000D01*
D11*
%TO.C,U8*%
X124600000Y-108625001D02*
X125600001Y-108625001D01*
X124600000Y-109525002D02*
X124600000Y-108625001D01*
X124700000Y-113525001D02*
X125199999Y-113525001D01*
X124700000Y-113525001D02*
X124700000Y-113025002D01*
X129600000Y-113525001D02*
X129600000Y-113025002D01*
X129100001Y-113525001D02*
X129600000Y-113525001D01*
X129700000Y-109125000D02*
X129700000Y-108625001D01*
X129100001Y-108625001D02*
X129700000Y-108625001D01*
%TO.C,U7*%
X121900000Y-117374999D02*
X120899999Y-117374999D01*
X121900000Y-116474998D02*
X121900000Y-117374999D01*
X121800000Y-112474999D02*
X121300001Y-112474999D01*
X121800000Y-112474999D02*
X121800000Y-112974998D01*
X116900000Y-112474999D02*
X116900000Y-112974998D01*
X117399999Y-112474999D02*
X116900000Y-112474999D01*
X116800000Y-116875000D02*
X116800000Y-117374999D01*
X117399999Y-117374999D02*
X116800000Y-117374999D01*
%TO.C,U1*%
X121500000Y-119300000D02*
X122500001Y-119300000D01*
X121500000Y-120200001D02*
X121500000Y-119300000D01*
X121600000Y-124200000D02*
X122099999Y-124200000D01*
X121600000Y-124200000D02*
X121600000Y-123700001D01*
X126500000Y-124200000D02*
X126500000Y-123700001D01*
X126000001Y-124200000D02*
X126500000Y-124200000D01*
X126600000Y-119799999D02*
X126600000Y-119300000D01*
X126000001Y-119300000D02*
X126600000Y-119300000D01*
D10*
%TO.C,R9*%
X154432776Y-107622500D02*
X154942224Y-107622500D01*
X154432776Y-106577500D02*
X154942224Y-106577500D01*
%TO.C,R8*%
X151642224Y-105077500D02*
X151132776Y-105077500D01*
X151642224Y-106122500D02*
X151132776Y-106122500D01*
%TO.C,R7*%
X147732776Y-106122500D02*
X148242224Y-106122500D01*
X147732776Y-105077500D02*
X148242224Y-105077500D01*
%TO.C,D1*%
X159685000Y-106365000D02*
X157225000Y-106365000D01*
X159685000Y-107835000D02*
X159685000Y-106365000D01*
X157225000Y-107835000D02*
X159685000Y-107835000D01*
%TO.C,C45*%
X151216233Y-107610000D02*
X151508767Y-107610000D01*
X151216233Y-106590000D02*
X151508767Y-106590000D01*
%TO.C,C44*%
X148108768Y-108090000D02*
X147816234Y-108090000D01*
X148108768Y-109110000D02*
X147816234Y-109110000D01*
%TO.C,C43*%
X151191233Y-109110000D02*
X151483767Y-109110000D01*
X151191233Y-108090000D02*
X151483767Y-108090000D01*
%TO.C,C42*%
X148108768Y-106590000D02*
X147816234Y-106590000D01*
X148108768Y-107610000D02*
X147816234Y-107610000D01*
%TO.C,L1*%
X133600000Y-99400000D02*
X129600000Y-99400000D01*
X133600000Y-95200000D02*
X129600000Y-95200000D01*
%TO.C,R6*%
X123677500Y-116042224D02*
X123677500Y-115532776D01*
X124722500Y-116042224D02*
X124722500Y-115532776D01*
%TO.C,R5*%
X123222500Y-115532776D02*
X123222500Y-116042224D01*
X122177500Y-115532776D02*
X122177500Y-116042224D01*
%TO.C,R4*%
X122822500Y-109957777D02*
X122822500Y-110467225D01*
X121777500Y-109957777D02*
X121777500Y-110467225D01*
%TO.C,R3*%
X123277500Y-110467224D02*
X123277500Y-109957776D01*
X124322500Y-110467224D02*
X124322500Y-109957776D01*
%TO.C,R2*%
X121222500Y-120657776D02*
X121222500Y-121167224D01*
X120177500Y-120657776D02*
X120177500Y-121167224D01*
%TO.C,R1*%
X118677500Y-121167224D02*
X118677500Y-120657776D01*
X119722500Y-121167224D02*
X119722500Y-120657776D01*
%TO.C,J2*%
X133165000Y-129335000D02*
X133165000Y-129400000D01*
X129635000Y-129335000D02*
X129635000Y-129400000D01*
X133165000Y-124200000D02*
X133165000Y-124265000D01*
X129635000Y-124200000D02*
X129635000Y-124265000D01*
X128310000Y-124265000D02*
X129635000Y-124265000D01*
X129635000Y-129400000D02*
X133165000Y-129400000D01*
X129635000Y-124200000D02*
X133165000Y-124200000D01*
%TO.C,R29*%
X134822500Y-131942224D02*
X134822500Y-131432776D01*
X133777500Y-131942224D02*
X133777500Y-131432776D01*
%TO.C,R30*%
X144222500Y-129242224D02*
X144222500Y-128732776D01*
X143177500Y-129242224D02*
X143177500Y-128732776D01*
%TO.C,R28*%
X133222500Y-131942224D02*
X133222500Y-131432776D01*
X132177500Y-131942224D02*
X132177500Y-131432776D01*
%TO.C,R27*%
X141677500Y-128757776D02*
X141677500Y-129267224D01*
X142722500Y-128757776D02*
X142722500Y-129267224D01*
%TO.C,R26*%
X142857776Y-125622500D02*
X143367224Y-125622500D01*
X142857776Y-124577500D02*
X143367224Y-124577500D01*
%TO.C,U6*%
X141200000Y-129100000D02*
X141200000Y-132200000D01*
X136000000Y-126200000D02*
X136000000Y-132200000D01*
%TO.C,R25*%
X142857776Y-126077500D02*
X143367224Y-126077500D01*
X142857776Y-127122500D02*
X143367224Y-127122500D01*
%TO.C,J10*%
X145940000Y-103510000D02*
X145940000Y-102400000D01*
X146700000Y-103510000D02*
X145940000Y-103510000D01*
X147460000Y-101836529D02*
X147460000Y-101290000D01*
X147460000Y-103510000D02*
X147460000Y-102963471D01*
X147460000Y-101290000D02*
X148665000Y-101290000D01*
X147460000Y-103510000D02*
X148665000Y-103510000D01*
X148665000Y-102092470D02*
X148665000Y-101290000D01*
X148665000Y-103510000D02*
X148665000Y-102707530D01*
%TO.C,J1*%
X141070000Y-95330000D02*
X141070000Y-92670000D01*
X138470000Y-95330000D02*
X141070000Y-95330000D01*
X138470000Y-92670000D02*
X141070000Y-92670000D01*
X138470000Y-95330000D02*
X138470000Y-92670000D01*
X137200000Y-95330000D02*
X135870000Y-95330000D01*
X135870000Y-95330000D02*
X135870000Y-94000000D01*
%TO.C,R24*%
X154432776Y-108077500D02*
X154942224Y-108077500D01*
X154432776Y-109122500D02*
X154942224Y-109122500D01*
%TO.C,D13*%
X157225001Y-109335000D02*
X159685001Y-109335000D01*
X159685001Y-109335000D02*
X159685001Y-107865000D01*
X159685001Y-107865000D02*
X157225001Y-107865000D01*
%TO.C,D12*%
X144935000Y-136325001D02*
X144935000Y-133865001D01*
X144935000Y-133865001D02*
X143465000Y-133865001D01*
X143465000Y-133865001D02*
X143465000Y-136325001D01*
%TO.C,D11*%
X143335000Y-136325000D02*
X143335000Y-133865000D01*
X143335000Y-133865000D02*
X141865000Y-133865000D01*
X141865000Y-133865000D02*
X141865000Y-136325000D01*
%TO.C,D10*%
X141735000Y-136325000D02*
X141735000Y-133865000D01*
X141735000Y-133865000D02*
X140265000Y-133865000D01*
X140265000Y-133865000D02*
X140265000Y-136325000D01*
%TO.C,D9*%
X140135000Y-136325000D02*
X140135000Y-133865000D01*
X140135000Y-133865000D02*
X138665000Y-133865000D01*
X138665000Y-133865000D02*
X138665000Y-136325000D01*
%TO.C,D8*%
X138535000Y-136325000D02*
X138535000Y-133865000D01*
X138535000Y-133865000D02*
X137065000Y-133865000D01*
X137065000Y-133865000D02*
X137065000Y-136325000D01*
%TO.C,D7*%
X136934999Y-136325000D02*
X136934999Y-133865000D01*
X136934999Y-133865000D02*
X135464999Y-133865000D01*
X135464999Y-133865000D02*
X135464999Y-136325000D01*
%TO.C,D6*%
X133735000Y-136325000D02*
X133735000Y-133865000D01*
X133735000Y-133865000D02*
X132265000Y-133865000D01*
X132265000Y-133865000D02*
X132265000Y-136325000D01*
%TO.C,D5*%
X135335000Y-136325000D02*
X135335000Y-133865000D01*
X135335000Y-133865000D02*
X133865000Y-133865000D01*
X133865000Y-133865000D02*
X133865000Y-136325000D01*
%TO.C,U5*%
X144000000Y-103090000D02*
X141550000Y-103090000D01*
X142200000Y-106310000D02*
X144000000Y-106310000D01*
%TO.C,U4*%
X154153907Y-123476346D02*
X155293907Y-123476346D01*
%TO.C,R15*%
X158422500Y-122032776D02*
X158422500Y-122542224D01*
X157377500Y-122032776D02*
X157377500Y-122542224D01*
%TO.C,R14*%
X155877500Y-122542224D02*
X155877500Y-122032776D01*
X156922500Y-122542224D02*
X156922500Y-122032776D01*
%TO.C,C14*%
X154083767Y-125010000D02*
X153791233Y-125010000D01*
X154083767Y-123990000D02*
X153791233Y-123990000D01*
%TO.C,U2*%
X141700000Y-97540000D02*
X138250000Y-97540000D01*
X141700000Y-97540000D02*
X143650000Y-97540000D01*
X141700000Y-102660000D02*
X139750000Y-102660000D01*
X141700000Y-102660000D02*
X143650000Y-102660000D01*
%TO.C,R13*%
X147467224Y-97977500D02*
X146957776Y-97977500D01*
X147467224Y-99022500D02*
X146957776Y-99022500D01*
%TO.C,R12*%
X135932776Y-103822500D02*
X136442224Y-103822500D01*
X135932776Y-102777500D02*
X136442224Y-102777500D01*
%TO.C,R11*%
X135932776Y-99322500D02*
X136442224Y-99322500D01*
X135932776Y-98277500D02*
X136442224Y-98277500D01*
%TO.C,D4*%
X134565000Y-101035000D02*
X137025000Y-101035000D01*
X134565000Y-99565000D02*
X134565000Y-101035000D01*
X137025000Y-99565000D02*
X134565000Y-99565000D01*
%TO.C,C13*%
X136091233Y-102310000D02*
X136383767Y-102310000D01*
X136091233Y-101290000D02*
X136383767Y-101290000D01*
%TO.C,C12*%
X147016233Y-97510000D02*
X147308767Y-97510000D01*
X147016233Y-96490000D02*
X147308767Y-96490000D01*
%TO.C,C11*%
X147016233Y-100510000D02*
X147308767Y-100510000D01*
X147016233Y-99490000D02*
X147308767Y-99490000D01*
%TO.C,C10*%
X136383767Y-96790000D02*
X136091233Y-96790000D01*
X136383767Y-97810000D02*
X136091233Y-97810000D01*
%TO.C,U3*%
X157725000Y-110475000D02*
X149575000Y-110475000D01*
X149575000Y-110475000D02*
X149575000Y-119725000D01*
X158825000Y-119725000D02*
X149575000Y-119725000D01*
X158825000Y-111575000D02*
X158825000Y-119725000D01*
%TO.C,C48*%
D12*
X142957142Y-98387142D02*
X142909523Y-98434761D01*
X142766666Y-98482380D01*
X142671428Y-98482380D01*
X142528571Y-98434761D01*
X142433333Y-98339523D01*
X142385714Y-98244285D01*
X142338095Y-98053809D01*
X142338095Y-97910952D01*
X142385714Y-97720476D01*
X142433333Y-97625238D01*
X142528571Y-97530000D01*
X142671428Y-97482380D01*
X142766666Y-97482380D01*
X142909523Y-97530000D01*
X142957142Y-97577619D01*
X143814285Y-97815714D02*
X143814285Y-98482380D01*
X143576190Y-97434761D02*
X143338095Y-98149047D01*
X143957142Y-98149047D01*
X144480952Y-97910952D02*
X144385714Y-97863333D01*
X144338095Y-97815714D01*
X144290476Y-97720476D01*
X144290476Y-97672857D01*
X144338095Y-97577619D01*
X144385714Y-97530000D01*
X144480952Y-97482380D01*
X144671428Y-97482380D01*
X144766666Y-97530000D01*
X144814285Y-97577619D01*
X144861904Y-97672857D01*
X144861904Y-97720476D01*
X144814285Y-97815714D01*
X144766666Y-97863333D01*
X144671428Y-97910952D01*
X144480952Y-97910952D01*
X144385714Y-97958571D01*
X144338095Y-98006190D01*
X144290476Y-98101428D01*
X144290476Y-98291904D01*
X144338095Y-98387142D01*
X144385714Y-98434761D01*
X144480952Y-98482380D01*
X144671428Y-98482380D01*
X144766666Y-98434761D01*
X144814285Y-98387142D01*
X144861904Y-98291904D01*
X144861904Y-98101428D01*
X144814285Y-98006190D01*
X144766666Y-97958571D01*
X144671428Y-97910952D01*
%TO.C,R31*%
X154069642Y-107482380D02*
X153736309Y-107006190D01*
X153498214Y-107482380D02*
X153498214Y-106482380D01*
X153879166Y-106482380D01*
X153974404Y-106530000D01*
X154022023Y-106577619D01*
X154069642Y-106672857D01*
X154069642Y-106815714D01*
X154022023Y-106910952D01*
X153974404Y-106958571D01*
X153879166Y-107006190D01*
X153498214Y-107006190D01*
X154402976Y-106482380D02*
X155022023Y-106482380D01*
X154688690Y-106863333D01*
X154831547Y-106863333D01*
X154926785Y-106910952D01*
X154974404Y-106958571D01*
X155022023Y-107053809D01*
X155022023Y-107291904D01*
X154974404Y-107387142D01*
X154926785Y-107434761D01*
X154831547Y-107482380D01*
X154545833Y-107482380D01*
X154450595Y-107434761D01*
X154402976Y-107387142D01*
X155974404Y-107482380D02*
X155402976Y-107482380D01*
X155688690Y-107482380D02*
X155688690Y-106482380D01*
X155593452Y-106625238D01*
X155498214Y-106720476D01*
X155402976Y-106768095D01*
%TO.C,C47*%
X143119643Y-131227142D02*
X143072024Y-131274761D01*
X142929167Y-131322380D01*
X142833929Y-131322380D01*
X142691072Y-131274761D01*
X142595834Y-131179523D01*
X142548215Y-131084285D01*
X142500596Y-130893809D01*
X142500596Y-130750952D01*
X142548215Y-130560476D01*
X142595834Y-130465238D01*
X142691072Y-130370000D01*
X142833929Y-130322380D01*
X142929167Y-130322380D01*
X143072024Y-130370000D01*
X143119643Y-130417619D01*
X143976786Y-130655714D02*
X143976786Y-131322380D01*
X143738691Y-130274761D02*
X143500596Y-130989047D01*
X144119643Y-130989047D01*
X144405358Y-130322380D02*
X145072024Y-130322380D01*
X144643453Y-131322380D01*
%TO.C,U8*%
X127938095Y-107252380D02*
X127938095Y-108061904D01*
X127985714Y-108157142D01*
X128033333Y-108204761D01*
X128128571Y-108252380D01*
X128319047Y-108252380D01*
X128414285Y-108204761D01*
X128461904Y-108157142D01*
X128509523Y-108061904D01*
X128509523Y-107252380D01*
X129128571Y-107680952D02*
X129033333Y-107633333D01*
X128985714Y-107585714D01*
X128938095Y-107490476D01*
X128938095Y-107442857D01*
X128985714Y-107347619D01*
X129033333Y-107300000D01*
X129128571Y-107252380D01*
X129319047Y-107252380D01*
X129414285Y-107300000D01*
X129461904Y-107347619D01*
X129509523Y-107442857D01*
X129509523Y-107490476D01*
X129461904Y-107585714D01*
X129414285Y-107633333D01*
X129319047Y-107680952D01*
X129128571Y-107680952D01*
X129033333Y-107728571D01*
X128985714Y-107776190D01*
X128938095Y-107871428D01*
X128938095Y-108061904D01*
X128985714Y-108157142D01*
X129033333Y-108204761D01*
X129128571Y-108252380D01*
X129319047Y-108252380D01*
X129414285Y-108204761D01*
X129461904Y-108157142D01*
X129509523Y-108061904D01*
X129509523Y-107871428D01*
X129461904Y-107776190D01*
X129414285Y-107728571D01*
X129319047Y-107680952D01*
%TO.C,U7*%
X116638095Y-111152380D02*
X116638095Y-111961904D01*
X116685714Y-112057142D01*
X116733333Y-112104761D01*
X116828571Y-112152380D01*
X117019047Y-112152380D01*
X117114285Y-112104761D01*
X117161904Y-112057142D01*
X117209523Y-111961904D01*
X117209523Y-111152380D01*
X117590476Y-111152380D02*
X118257142Y-111152380D01*
X117828571Y-112152380D01*
%TO.C,U1*%
X126838095Y-123152380D02*
X126838095Y-123961904D01*
X126885714Y-124057142D01*
X126933333Y-124104761D01*
X127028571Y-124152380D01*
X127219047Y-124152380D01*
X127314285Y-124104761D01*
X127361904Y-124057142D01*
X127409523Y-123961904D01*
X127409523Y-123152380D01*
X128409523Y-124152380D02*
X127838095Y-124152380D01*
X128123809Y-124152380D02*
X128123809Y-123152380D01*
X128028571Y-123295238D01*
X127933333Y-123390476D01*
X127838095Y-123438095D01*
%TO.C,R9*%
X151733333Y-107552380D02*
X151400000Y-107076190D01*
X151161904Y-107552380D02*
X151161904Y-106552380D01*
X151542857Y-106552380D01*
X151638095Y-106600000D01*
X151685714Y-106647619D01*
X151733333Y-106742857D01*
X151733333Y-106885714D01*
X151685714Y-106980952D01*
X151638095Y-107028571D01*
X151542857Y-107076190D01*
X151161904Y-107076190D01*
X152209523Y-107552380D02*
X152400000Y-107552380D01*
X152495238Y-107504761D01*
X152542857Y-107457142D01*
X152638095Y-107314285D01*
X152685714Y-107123809D01*
X152685714Y-106742857D01*
X152638095Y-106647619D01*
X152590476Y-106600000D01*
X152495238Y-106552380D01*
X152304761Y-106552380D01*
X152209523Y-106600000D01*
X152161904Y-106647619D01*
X152114285Y-106742857D01*
X152114285Y-106980952D01*
X152161904Y-107076190D01*
X152209523Y-107123809D01*
X152304761Y-107171428D01*
X152495238Y-107171428D01*
X152590476Y-107123809D01*
X152638095Y-107076190D01*
X152685714Y-106980952D01*
%TO.C,R8*%
X151220833Y-107482380D02*
X150887500Y-107006190D01*
X150649404Y-107482380D02*
X150649404Y-106482380D01*
X151030357Y-106482380D01*
X151125595Y-106530000D01*
X151173214Y-106577619D01*
X151220833Y-106672857D01*
X151220833Y-106815714D01*
X151173214Y-106910952D01*
X151125595Y-106958571D01*
X151030357Y-107006190D01*
X150649404Y-107006190D01*
X151792261Y-106910952D02*
X151697023Y-106863333D01*
X151649404Y-106815714D01*
X151601785Y-106720476D01*
X151601785Y-106672857D01*
X151649404Y-106577619D01*
X151697023Y-106530000D01*
X151792261Y-106482380D01*
X151982738Y-106482380D01*
X152077976Y-106530000D01*
X152125595Y-106577619D01*
X152173214Y-106672857D01*
X152173214Y-106720476D01*
X152125595Y-106815714D01*
X152077976Y-106863333D01*
X151982738Y-106910952D01*
X151792261Y-106910952D01*
X151697023Y-106958571D01*
X151649404Y-107006190D01*
X151601785Y-107101428D01*
X151601785Y-107291904D01*
X151649404Y-107387142D01*
X151697023Y-107434761D01*
X151792261Y-107482380D01*
X151982738Y-107482380D01*
X152077976Y-107434761D01*
X152125595Y-107387142D01*
X152173214Y-107291904D01*
X152173214Y-107101428D01*
X152125595Y-107006190D01*
X152077976Y-106958571D01*
X151982738Y-106910952D01*
%TO.C,R7*%
X147820833Y-104622380D02*
X147487500Y-104146190D01*
X147249404Y-104622380D02*
X147249404Y-103622380D01*
X147630357Y-103622380D01*
X147725595Y-103670000D01*
X147773214Y-103717619D01*
X147820833Y-103812857D01*
X147820833Y-103955714D01*
X147773214Y-104050952D01*
X147725595Y-104098571D01*
X147630357Y-104146190D01*
X147249404Y-104146190D01*
X148154166Y-103622380D02*
X148820833Y-103622380D01*
X148392261Y-104622380D01*
%TO.C,D1*%
X156761904Y-104952380D02*
X156761904Y-103952380D01*
X157000000Y-103952380D01*
X157142857Y-104000000D01*
X157238095Y-104095238D01*
X157285714Y-104190476D01*
X157333333Y-104380952D01*
X157333333Y-104523809D01*
X157285714Y-104714285D01*
X157238095Y-104809523D01*
X157142857Y-104904761D01*
X157000000Y-104952380D01*
X156761904Y-104952380D01*
X158285714Y-104952380D02*
X157714285Y-104952380D01*
X158000000Y-104952380D02*
X158000000Y-103952380D01*
X157904761Y-104095238D01*
X157809523Y-104190476D01*
X157714285Y-104238095D01*
%TO.C,C45*%
X150719642Y-106027142D02*
X150672023Y-106074761D01*
X150529166Y-106122380D01*
X150433928Y-106122380D01*
X150291071Y-106074761D01*
X150195833Y-105979523D01*
X150148214Y-105884285D01*
X150100595Y-105693809D01*
X150100595Y-105550952D01*
X150148214Y-105360476D01*
X150195833Y-105265238D01*
X150291071Y-105170000D01*
X150433928Y-105122380D01*
X150529166Y-105122380D01*
X150672023Y-105170000D01*
X150719642Y-105217619D01*
X151576785Y-105455714D02*
X151576785Y-106122380D01*
X151338690Y-105074761D02*
X151100595Y-105789047D01*
X151719642Y-105789047D01*
X152576785Y-105122380D02*
X152100595Y-105122380D01*
X152052976Y-105598571D01*
X152100595Y-105550952D01*
X152195833Y-105503333D01*
X152433928Y-105503333D01*
X152529166Y-105550952D01*
X152576785Y-105598571D01*
X152624404Y-105693809D01*
X152624404Y-105931904D01*
X152576785Y-106027142D01*
X152529166Y-106074761D01*
X152433928Y-106122380D01*
X152195833Y-106122380D01*
X152100595Y-106074761D01*
X152052976Y-106027142D01*
%TO.C,C44*%
X147319643Y-110387142D02*
X147272024Y-110434761D01*
X147129167Y-110482380D01*
X147033929Y-110482380D01*
X146891072Y-110434761D01*
X146795834Y-110339523D01*
X146748215Y-110244285D01*
X146700596Y-110053809D01*
X146700596Y-109910952D01*
X146748215Y-109720476D01*
X146795834Y-109625238D01*
X146891072Y-109530000D01*
X147033929Y-109482380D01*
X147129167Y-109482380D01*
X147272024Y-109530000D01*
X147319643Y-109577619D01*
X148176786Y-109815714D02*
X148176786Y-110482380D01*
X147938691Y-109434761D02*
X147700596Y-110149047D01*
X148319643Y-110149047D01*
X149129167Y-109815714D02*
X149129167Y-110482380D01*
X148891072Y-109434761D02*
X148652977Y-110149047D01*
X149272024Y-110149047D01*
%TO.C,C43*%
X150694642Y-107527142D02*
X150647023Y-107574761D01*
X150504166Y-107622380D01*
X150408928Y-107622380D01*
X150266071Y-107574761D01*
X150170833Y-107479523D01*
X150123214Y-107384285D01*
X150075595Y-107193809D01*
X150075595Y-107050952D01*
X150123214Y-106860476D01*
X150170833Y-106765238D01*
X150266071Y-106670000D01*
X150408928Y-106622380D01*
X150504166Y-106622380D01*
X150647023Y-106670000D01*
X150694642Y-106717619D01*
X151551785Y-106955714D02*
X151551785Y-107622380D01*
X151313690Y-106574761D02*
X151075595Y-107289047D01*
X151694642Y-107289047D01*
X151980357Y-106622380D02*
X152599404Y-106622380D01*
X152266071Y-107003333D01*
X152408928Y-107003333D01*
X152504166Y-107050952D01*
X152551785Y-107098571D01*
X152599404Y-107193809D01*
X152599404Y-107431904D01*
X152551785Y-107527142D01*
X152504166Y-107574761D01*
X152408928Y-107622380D01*
X152123214Y-107622380D01*
X152027976Y-107574761D01*
X151980357Y-107527142D01*
%TO.C,C42*%
X147319643Y-108887142D02*
X147272024Y-108934761D01*
X147129167Y-108982380D01*
X147033929Y-108982380D01*
X146891072Y-108934761D01*
X146795834Y-108839523D01*
X146748215Y-108744285D01*
X146700596Y-108553809D01*
X146700596Y-108410952D01*
X146748215Y-108220476D01*
X146795834Y-108125238D01*
X146891072Y-108030000D01*
X147033929Y-107982380D01*
X147129167Y-107982380D01*
X147272024Y-108030000D01*
X147319643Y-108077619D01*
X148176786Y-108315714D02*
X148176786Y-108982380D01*
X147938691Y-107934761D02*
X147700596Y-108649047D01*
X148319643Y-108649047D01*
X148652977Y-108077619D02*
X148700596Y-108030000D01*
X148795834Y-107982380D01*
X149033929Y-107982380D01*
X149129167Y-108030000D01*
X149176786Y-108077619D01*
X149224405Y-108172857D01*
X149224405Y-108268095D01*
X149176786Y-108410952D01*
X148605358Y-108982380D01*
X149224405Y-108982380D01*
%TO.C,L1*%
X132333333Y-94852380D02*
X131857142Y-94852380D01*
X131857142Y-93852380D01*
X133190476Y-94852380D02*
X132619047Y-94852380D01*
X132904761Y-94852380D02*
X132904761Y-93852380D01*
X132809523Y-93995238D01*
X132714285Y-94090476D01*
X132619047Y-94138095D01*
%TO.C,R6*%
X124652380Y-118466666D02*
X124176190Y-118800000D01*
X124652380Y-119038095D02*
X123652380Y-119038095D01*
X123652380Y-118657142D01*
X123700000Y-118561904D01*
X123747619Y-118514285D01*
X123842857Y-118466666D01*
X123985714Y-118466666D01*
X124080952Y-118514285D01*
X124128571Y-118561904D01*
X124176190Y-118657142D01*
X124176190Y-119038095D01*
X123652380Y-117609523D02*
X123652380Y-117800000D01*
X123700000Y-117895238D01*
X123747619Y-117942857D01*
X123890476Y-118038095D01*
X124080952Y-118085714D01*
X124461904Y-118085714D01*
X124557142Y-118038095D01*
X124604761Y-117990476D01*
X124652380Y-117895238D01*
X124652380Y-117704761D01*
X124604761Y-117609523D01*
X124557142Y-117561904D01*
X124461904Y-117514285D01*
X124223809Y-117514285D01*
X124128571Y-117561904D01*
X124080952Y-117609523D01*
X124033333Y-117704761D01*
X124033333Y-117895238D01*
X124080952Y-117990476D01*
X124128571Y-118038095D01*
X124223809Y-118085714D01*
%TO.C,R5*%
X123152380Y-118466666D02*
X122676190Y-118800000D01*
X123152380Y-119038095D02*
X122152380Y-119038095D01*
X122152380Y-118657142D01*
X122200000Y-118561904D01*
X122247619Y-118514285D01*
X122342857Y-118466666D01*
X122485714Y-118466666D01*
X122580952Y-118514285D01*
X122628571Y-118561904D01*
X122676190Y-118657142D01*
X122676190Y-119038095D01*
X122152380Y-117561904D02*
X122152380Y-118038095D01*
X122628571Y-118085714D01*
X122580952Y-118038095D01*
X122533333Y-117942857D01*
X122533333Y-117704761D01*
X122580952Y-117609523D01*
X122628571Y-117561904D01*
X122723809Y-117514285D01*
X122961904Y-117514285D01*
X123057142Y-117561904D01*
X123104761Y-117609523D01*
X123152380Y-117704761D01*
X123152380Y-117942857D01*
X123104761Y-118038095D01*
X123057142Y-118085714D01*
%TO.C,R4*%
X122852380Y-107566666D02*
X122376190Y-107900000D01*
X122852380Y-108138095D02*
X121852380Y-108138095D01*
X121852380Y-107757142D01*
X121900000Y-107661904D01*
X121947619Y-107614285D01*
X122042857Y-107566666D01*
X122185714Y-107566666D01*
X122280952Y-107614285D01*
X122328571Y-107661904D01*
X122376190Y-107757142D01*
X122376190Y-108138095D01*
X122185714Y-106709523D02*
X122852380Y-106709523D01*
X121804761Y-106947619D02*
X122519047Y-107185714D01*
X122519047Y-106566666D01*
%TO.C,R3*%
X124352380Y-107566666D02*
X123876190Y-107900000D01*
X124352380Y-108138095D02*
X123352380Y-108138095D01*
X123352380Y-107757142D01*
X123400000Y-107661904D01*
X123447619Y-107614285D01*
X123542857Y-107566666D01*
X123685714Y-107566666D01*
X123780952Y-107614285D01*
X123828571Y-107661904D01*
X123876190Y-107757142D01*
X123876190Y-108138095D01*
X123352380Y-107233333D02*
X123352380Y-106614285D01*
X123733333Y-106947619D01*
X123733333Y-106804761D01*
X123780952Y-106709523D01*
X123828571Y-106661904D01*
X123923809Y-106614285D01*
X124161904Y-106614285D01*
X124257142Y-106661904D01*
X124304761Y-106709523D01*
X124352380Y-106804761D01*
X124352380Y-107090476D01*
X124304761Y-107185714D01*
X124257142Y-107233333D01*
%TO.C,R2*%
X121152380Y-123866666D02*
X120676190Y-124200000D01*
X121152380Y-124438095D02*
X120152380Y-124438095D01*
X120152380Y-124057142D01*
X120200000Y-123961904D01*
X120247619Y-123914285D01*
X120342857Y-123866666D01*
X120485714Y-123866666D01*
X120580952Y-123914285D01*
X120628571Y-123961904D01*
X120676190Y-124057142D01*
X120676190Y-124438095D01*
X120247619Y-123485714D02*
X120200000Y-123438095D01*
X120152380Y-123342857D01*
X120152380Y-123104761D01*
X120200000Y-123009523D01*
X120247619Y-122961904D01*
X120342857Y-122914285D01*
X120438095Y-122914285D01*
X120580952Y-122961904D01*
X121152380Y-123533333D01*
X121152380Y-122914285D01*
%TO.C,R1*%
X118152380Y-121066666D02*
X117676190Y-121400000D01*
X118152380Y-121638095D02*
X117152380Y-121638095D01*
X117152380Y-121257142D01*
X117200000Y-121161904D01*
X117247619Y-121114285D01*
X117342857Y-121066666D01*
X117485714Y-121066666D01*
X117580952Y-121114285D01*
X117628571Y-121161904D01*
X117676190Y-121257142D01*
X117676190Y-121638095D01*
X118152380Y-120114285D02*
X118152380Y-120685714D01*
X118152380Y-120400000D02*
X117152380Y-120400000D01*
X117295238Y-120495238D01*
X117390476Y-120590476D01*
X117438095Y-120685714D01*
%TO.C,J2*%
X131066666Y-122652380D02*
X131066666Y-123366666D01*
X131019047Y-123509523D01*
X130923809Y-123604761D01*
X130780952Y-123652380D01*
X130685714Y-123652380D01*
X131495238Y-122747619D02*
X131542857Y-122700000D01*
X131638095Y-122652380D01*
X131876190Y-122652380D01*
X131971428Y-122700000D01*
X132019047Y-122747619D01*
X132066666Y-122842857D01*
X132066666Y-122938095D01*
X132019047Y-123080952D01*
X131447619Y-123652380D01*
X132066666Y-123652380D01*
%TO.C,R29*%
X131652380Y-132242857D02*
X131176190Y-132576190D01*
X131652380Y-132814285D02*
X130652380Y-132814285D01*
X130652380Y-132433333D01*
X130700000Y-132338095D01*
X130747619Y-132290476D01*
X130842857Y-132242857D01*
X130985714Y-132242857D01*
X131080952Y-132290476D01*
X131128571Y-132338095D01*
X131176190Y-132433333D01*
X131176190Y-132814285D01*
X130747619Y-131861904D02*
X130700000Y-131814285D01*
X130652380Y-131719047D01*
X130652380Y-131480952D01*
X130700000Y-131385714D01*
X130747619Y-131338095D01*
X130842857Y-131290476D01*
X130938095Y-131290476D01*
X131080952Y-131338095D01*
X131652380Y-131909523D01*
X131652380Y-131290476D01*
X131652380Y-130814285D02*
X131652380Y-130623809D01*
X131604761Y-130528571D01*
X131557142Y-130480952D01*
X131414285Y-130385714D01*
X131223809Y-130338095D01*
X130842857Y-130338095D01*
X130747619Y-130385714D01*
X130700000Y-130433333D01*
X130652380Y-130528571D01*
X130652380Y-130719047D01*
X130700000Y-130814285D01*
X130747619Y-130861904D01*
X130842857Y-130909523D01*
X131080952Y-130909523D01*
X131176190Y-130861904D01*
X131223809Y-130814285D01*
X131271428Y-130719047D01*
X131271428Y-130528571D01*
X131223809Y-130433333D01*
X131176190Y-130385714D01*
X131080952Y-130338095D01*
%TO.C,R30*%
X147152380Y-129542857D02*
X146676190Y-129876190D01*
X147152380Y-130114285D02*
X146152380Y-130114285D01*
X146152380Y-129733333D01*
X146200000Y-129638095D01*
X146247619Y-129590476D01*
X146342857Y-129542857D01*
X146485714Y-129542857D01*
X146580952Y-129590476D01*
X146628571Y-129638095D01*
X146676190Y-129733333D01*
X146676190Y-130114285D01*
X146152380Y-129209523D02*
X146152380Y-128590476D01*
X146533333Y-128923809D01*
X146533333Y-128780952D01*
X146580952Y-128685714D01*
X146628571Y-128638095D01*
X146723809Y-128590476D01*
X146961904Y-128590476D01*
X147057142Y-128638095D01*
X147104761Y-128685714D01*
X147152380Y-128780952D01*
X147152380Y-129066666D01*
X147104761Y-129161904D01*
X147057142Y-129209523D01*
X146152380Y-127971428D02*
X146152380Y-127876190D01*
X146200000Y-127780952D01*
X146247619Y-127733333D01*
X146342857Y-127685714D01*
X146533333Y-127638095D01*
X146771428Y-127638095D01*
X146961904Y-127685714D01*
X147057142Y-127733333D01*
X147104761Y-127780952D01*
X147152380Y-127876190D01*
X147152380Y-127971428D01*
X147104761Y-128066666D01*
X147057142Y-128114285D01*
X146961904Y-128161904D01*
X146771428Y-128209523D01*
X146533333Y-128209523D01*
X146342857Y-128161904D01*
X146247619Y-128114285D01*
X146200000Y-128066666D01*
X146152380Y-127971428D01*
%TO.C,R28*%
X129952380Y-132242857D02*
X129476190Y-132576190D01*
X129952380Y-132814285D02*
X128952380Y-132814285D01*
X128952380Y-132433333D01*
X129000000Y-132338095D01*
X129047619Y-132290476D01*
X129142857Y-132242857D01*
X129285714Y-132242857D01*
X129380952Y-132290476D01*
X129428571Y-132338095D01*
X129476190Y-132433333D01*
X129476190Y-132814285D01*
X129047619Y-131861904D02*
X129000000Y-131814285D01*
X128952380Y-131719047D01*
X128952380Y-131480952D01*
X129000000Y-131385714D01*
X129047619Y-131338095D01*
X129142857Y-131290476D01*
X129238095Y-131290476D01*
X129380952Y-131338095D01*
X129952380Y-131909523D01*
X129952380Y-131290476D01*
X129380952Y-130719047D02*
X129333333Y-130814285D01*
X129285714Y-130861904D01*
X129190476Y-130909523D01*
X129142857Y-130909523D01*
X129047619Y-130861904D01*
X129000000Y-130814285D01*
X128952380Y-130719047D01*
X128952380Y-130528571D01*
X129000000Y-130433333D01*
X129047619Y-130385714D01*
X129142857Y-130338095D01*
X129190476Y-130338095D01*
X129285714Y-130385714D01*
X129333333Y-130433333D01*
X129380952Y-130528571D01*
X129380952Y-130719047D01*
X129428571Y-130814285D01*
X129476190Y-130861904D01*
X129571428Y-130909523D01*
X129761904Y-130909523D01*
X129857142Y-130861904D01*
X129904761Y-130814285D01*
X129952380Y-130719047D01*
X129952380Y-130528571D01*
X129904761Y-130433333D01*
X129857142Y-130385714D01*
X129761904Y-130338095D01*
X129571428Y-130338095D01*
X129476190Y-130385714D01*
X129428571Y-130433333D01*
X129380952Y-130528571D01*
%TO.C,R27*%
X145752380Y-129542857D02*
X145276190Y-129876190D01*
X145752380Y-130114285D02*
X144752380Y-130114285D01*
X144752380Y-129733333D01*
X144800000Y-129638095D01*
X144847619Y-129590476D01*
X144942857Y-129542857D01*
X145085714Y-129542857D01*
X145180952Y-129590476D01*
X145228571Y-129638095D01*
X145276190Y-129733333D01*
X145276190Y-130114285D01*
X144847619Y-129161904D02*
X144800000Y-129114285D01*
X144752380Y-129019047D01*
X144752380Y-128780952D01*
X144800000Y-128685714D01*
X144847619Y-128638095D01*
X144942857Y-128590476D01*
X145038095Y-128590476D01*
X145180952Y-128638095D01*
X145752380Y-129209523D01*
X145752380Y-128590476D01*
X144752380Y-128257142D02*
X144752380Y-127590476D01*
X145752380Y-128019047D01*
%TO.C,R26*%
X145657142Y-125452380D02*
X145323809Y-124976190D01*
X145085714Y-125452380D02*
X145085714Y-124452380D01*
X145466666Y-124452380D01*
X145561904Y-124500000D01*
X145609523Y-124547619D01*
X145657142Y-124642857D01*
X145657142Y-124785714D01*
X145609523Y-124880952D01*
X145561904Y-124928571D01*
X145466666Y-124976190D01*
X145085714Y-124976190D01*
X146038095Y-124547619D02*
X146085714Y-124500000D01*
X146180952Y-124452380D01*
X146419047Y-124452380D01*
X146514285Y-124500000D01*
X146561904Y-124547619D01*
X146609523Y-124642857D01*
X146609523Y-124738095D01*
X146561904Y-124880952D01*
X145990476Y-125452380D01*
X146609523Y-125452380D01*
X147466666Y-124452380D02*
X147276190Y-124452380D01*
X147180952Y-124500000D01*
X147133333Y-124547619D01*
X147038095Y-124690476D01*
X146990476Y-124880952D01*
X146990476Y-125261904D01*
X147038095Y-125357142D01*
X147085714Y-125404761D01*
X147180952Y-125452380D01*
X147371428Y-125452380D01*
X147466666Y-125404761D01*
X147514285Y-125357142D01*
X147561904Y-125261904D01*
X147561904Y-125023809D01*
X147514285Y-124928571D01*
X147466666Y-124880952D01*
X147371428Y-124833333D01*
X147180952Y-124833333D01*
X147085714Y-124880952D01*
X147038095Y-124928571D01*
X146990476Y-125023809D01*
%TO.C,U6*%
X141752380Y-132661904D02*
X142561904Y-132661904D01*
X142657142Y-132614285D01*
X142704761Y-132566666D01*
X142752380Y-132471428D01*
X142752380Y-132280952D01*
X142704761Y-132185714D01*
X142657142Y-132138095D01*
X142561904Y-132090476D01*
X141752380Y-132090476D01*
X141752380Y-131185714D02*
X141752380Y-131376190D01*
X141800000Y-131471428D01*
X141847619Y-131519047D01*
X141990476Y-131614285D01*
X142180952Y-131661904D01*
X142561904Y-131661904D01*
X142657142Y-131614285D01*
X142704761Y-131566666D01*
X142752380Y-131471428D01*
X142752380Y-131280952D01*
X142704761Y-131185714D01*
X142657142Y-131138095D01*
X142561904Y-131090476D01*
X142323809Y-131090476D01*
X142228571Y-131138095D01*
X142180952Y-131185714D01*
X142133333Y-131280952D01*
X142133333Y-131471428D01*
X142180952Y-131566666D01*
X142228571Y-131614285D01*
X142323809Y-131661904D01*
%TO.C,R25*%
X145657142Y-127052380D02*
X145323809Y-126576190D01*
X145085714Y-127052380D02*
X145085714Y-126052380D01*
X145466666Y-126052380D01*
X145561904Y-126100000D01*
X145609523Y-126147619D01*
X145657142Y-126242857D01*
X145657142Y-126385714D01*
X145609523Y-126480952D01*
X145561904Y-126528571D01*
X145466666Y-126576190D01*
X145085714Y-126576190D01*
X146038095Y-126147619D02*
X146085714Y-126100000D01*
X146180952Y-126052380D01*
X146419047Y-126052380D01*
X146514285Y-126100000D01*
X146561904Y-126147619D01*
X146609523Y-126242857D01*
X146609523Y-126338095D01*
X146561904Y-126480952D01*
X145990476Y-127052380D01*
X146609523Y-127052380D01*
X147514285Y-126052380D02*
X147038095Y-126052380D01*
X146990476Y-126528571D01*
X147038095Y-126480952D01*
X147133333Y-126433333D01*
X147371428Y-126433333D01*
X147466666Y-126480952D01*
X147514285Y-126528571D01*
X147561904Y-126623809D01*
X147561904Y-126861904D01*
X147514285Y-126957142D01*
X147466666Y-127004761D01*
X147371428Y-127052380D01*
X147133333Y-127052380D01*
X147038095Y-127004761D01*
X146990476Y-126957142D01*
%TO.C,J10*%
X145869537Y-100522517D02*
X146583823Y-100522517D01*
X146726680Y-100570136D01*
X146821918Y-100665374D01*
X146869537Y-100808232D01*
X146869537Y-100903470D01*
X146869537Y-99522517D02*
X146869537Y-100093946D01*
X146869537Y-99808232D02*
X145869537Y-99808232D01*
X146012395Y-99903470D01*
X146107633Y-99998708D01*
X146155252Y-100093946D01*
X145869537Y-98903470D02*
X145869537Y-98808232D01*
X145917157Y-98712994D01*
X145964776Y-98665374D01*
X146060014Y-98617755D01*
X146250490Y-98570136D01*
X146488585Y-98570136D01*
X146679061Y-98617755D01*
X146774299Y-98665374D01*
X146821918Y-98712994D01*
X146869537Y-98808232D01*
X146869537Y-98903470D01*
X146821918Y-98998708D01*
X146774299Y-99046327D01*
X146679061Y-99093946D01*
X146488585Y-99141565D01*
X146250490Y-99141565D01*
X146060014Y-99093946D01*
X145964776Y-99046327D01*
X145917157Y-98998708D01*
X145869537Y-98903470D01*
%TO.C,J1*%
X134322380Y-94333333D02*
X135036666Y-94333333D01*
X135179523Y-94380952D01*
X135274761Y-94476190D01*
X135322380Y-94619047D01*
X135322380Y-94714285D01*
X135322380Y-93333333D02*
X135322380Y-93904761D01*
X135322380Y-93619047D02*
X134322380Y-93619047D01*
X134465238Y-93714285D01*
X134560476Y-93809523D01*
X134608095Y-93904761D01*
%TO.C,R24*%
X150757142Y-108952380D02*
X150423809Y-108476190D01*
X150185714Y-108952380D02*
X150185714Y-107952380D01*
X150566666Y-107952380D01*
X150661904Y-108000000D01*
X150709523Y-108047619D01*
X150757142Y-108142857D01*
X150757142Y-108285714D01*
X150709523Y-108380952D01*
X150661904Y-108428571D01*
X150566666Y-108476190D01*
X150185714Y-108476190D01*
X151138095Y-108047619D02*
X151185714Y-108000000D01*
X151280952Y-107952380D01*
X151519047Y-107952380D01*
X151614285Y-108000000D01*
X151661904Y-108047619D01*
X151709523Y-108142857D01*
X151709523Y-108238095D01*
X151661904Y-108380952D01*
X151090476Y-108952380D01*
X151709523Y-108952380D01*
X152566666Y-108285714D02*
X152566666Y-108952380D01*
X152328571Y-107904761D02*
X152090476Y-108619047D01*
X152709523Y-108619047D01*
%TO.C,D13*%
X154485714Y-103552380D02*
X154485714Y-102552380D01*
X154723809Y-102552380D01*
X154866666Y-102600000D01*
X154961904Y-102695238D01*
X155009523Y-102790476D01*
X155057142Y-102980952D01*
X155057142Y-103123809D01*
X155009523Y-103314285D01*
X154961904Y-103409523D01*
X154866666Y-103504761D01*
X154723809Y-103552380D01*
X154485714Y-103552380D01*
X156009523Y-103552380D02*
X155438095Y-103552380D01*
X155723809Y-103552380D02*
X155723809Y-102552380D01*
X155628571Y-102695238D01*
X155533333Y-102790476D01*
X155438095Y-102838095D01*
X156342857Y-102552380D02*
X156961904Y-102552380D01*
X156628571Y-102933333D01*
X156771428Y-102933333D01*
X156866666Y-102980952D01*
X156914285Y-103028571D01*
X156961904Y-103123809D01*
X156961904Y-103361904D01*
X156914285Y-103457142D01*
X156866666Y-103504761D01*
X156771428Y-103552380D01*
X156485714Y-103552380D01*
X156390476Y-103504761D01*
X156342857Y-103457142D01*
%TO.C,D12*%
X150052380Y-134914285D02*
X149052380Y-134914285D01*
X149052380Y-134676190D01*
X149100000Y-134533333D01*
X149195238Y-134438095D01*
X149290476Y-134390476D01*
X149480952Y-134342857D01*
X149623809Y-134342857D01*
X149814285Y-134390476D01*
X149909523Y-134438095D01*
X150004761Y-134533333D01*
X150052380Y-134676190D01*
X150052380Y-134914285D01*
X150052380Y-133390476D02*
X150052380Y-133961904D01*
X150052380Y-133676190D02*
X149052380Y-133676190D01*
X149195238Y-133771428D01*
X149290476Y-133866666D01*
X149338095Y-133961904D01*
X149147619Y-133009523D02*
X149100000Y-132961904D01*
X149052380Y-132866666D01*
X149052380Y-132628571D01*
X149100000Y-132533333D01*
X149147619Y-132485714D01*
X149242857Y-132438095D01*
X149338095Y-132438095D01*
X149480952Y-132485714D01*
X150052380Y-133057142D01*
X150052380Y-132438095D01*
%TO.C,D11*%
X148752380Y-135614285D02*
X147752380Y-135614285D01*
X147752380Y-135376190D01*
X147800000Y-135233333D01*
X147895238Y-135138095D01*
X147990476Y-135090476D01*
X148180952Y-135042857D01*
X148323809Y-135042857D01*
X148514285Y-135090476D01*
X148609523Y-135138095D01*
X148704761Y-135233333D01*
X148752380Y-135376190D01*
X148752380Y-135614285D01*
X148752380Y-134090476D02*
X148752380Y-134661904D01*
X148752380Y-134376190D02*
X147752380Y-134376190D01*
X147895238Y-134471428D01*
X147990476Y-134566666D01*
X148038095Y-134661904D01*
X148752380Y-133138095D02*
X148752380Y-133709523D01*
X148752380Y-133423809D02*
X147752380Y-133423809D01*
X147895238Y-133519047D01*
X147990476Y-133614285D01*
X148038095Y-133709523D01*
%TO.C,D10*%
X147552380Y-136214285D02*
X146552380Y-136214285D01*
X146552380Y-135976190D01*
X146600000Y-135833333D01*
X146695238Y-135738095D01*
X146790476Y-135690476D01*
X146980952Y-135642857D01*
X147123809Y-135642857D01*
X147314285Y-135690476D01*
X147409523Y-135738095D01*
X147504761Y-135833333D01*
X147552380Y-135976190D01*
X147552380Y-136214285D01*
X147552380Y-134690476D02*
X147552380Y-135261904D01*
X147552380Y-134976190D02*
X146552380Y-134976190D01*
X146695238Y-135071428D01*
X146790476Y-135166666D01*
X146838095Y-135261904D01*
X146552380Y-134071428D02*
X146552380Y-133976190D01*
X146600000Y-133880952D01*
X146647619Y-133833333D01*
X146742857Y-133785714D01*
X146933333Y-133738095D01*
X147171428Y-133738095D01*
X147361904Y-133785714D01*
X147457142Y-133833333D01*
X147504761Y-133880952D01*
X147552380Y-133976190D01*
X147552380Y-134071428D01*
X147504761Y-134166666D01*
X147457142Y-134214285D01*
X147361904Y-134261904D01*
X147171428Y-134309523D01*
X146933333Y-134309523D01*
X146742857Y-134261904D01*
X146647619Y-134214285D01*
X146600000Y-134166666D01*
X146552380Y-134071428D01*
%TO.C,D9*%
X146352380Y-136738095D02*
X145352380Y-136738095D01*
X145352380Y-136500000D01*
X145400000Y-136357142D01*
X145495238Y-136261904D01*
X145590476Y-136214285D01*
X145780952Y-136166666D01*
X145923809Y-136166666D01*
X146114285Y-136214285D01*
X146209523Y-136261904D01*
X146304761Y-136357142D01*
X146352380Y-136500000D01*
X146352380Y-136738095D01*
X146352380Y-135690476D02*
X146352380Y-135500000D01*
X146304761Y-135404761D01*
X146257142Y-135357142D01*
X146114285Y-135261904D01*
X145923809Y-135214285D01*
X145542857Y-135214285D01*
X145447619Y-135261904D01*
X145400000Y-135309523D01*
X145352380Y-135404761D01*
X145352380Y-135595238D01*
X145400000Y-135690476D01*
X145447619Y-135738095D01*
X145542857Y-135785714D01*
X145780952Y-135785714D01*
X145876190Y-135738095D01*
X145923809Y-135690476D01*
X145971428Y-135595238D01*
X145971428Y-135404761D01*
X145923809Y-135309523D01*
X145876190Y-135261904D01*
X145780952Y-135214285D01*
%TO.C,D8*%
X131952380Y-136538095D02*
X130952380Y-136538095D01*
X130952380Y-136300000D01*
X131000000Y-136157142D01*
X131095238Y-136061904D01*
X131190476Y-136014285D01*
X131380952Y-135966666D01*
X131523809Y-135966666D01*
X131714285Y-136014285D01*
X131809523Y-136061904D01*
X131904761Y-136157142D01*
X131952380Y-136300000D01*
X131952380Y-136538095D01*
X131380952Y-135395238D02*
X131333333Y-135490476D01*
X131285714Y-135538095D01*
X131190476Y-135585714D01*
X131142857Y-135585714D01*
X131047619Y-135538095D01*
X131000000Y-135490476D01*
X130952380Y-135395238D01*
X130952380Y-135204761D01*
X131000000Y-135109523D01*
X131047619Y-135061904D01*
X131142857Y-135014285D01*
X131190476Y-135014285D01*
X131285714Y-135061904D01*
X131333333Y-135109523D01*
X131380952Y-135204761D01*
X131380952Y-135395238D01*
X131428571Y-135490476D01*
X131476190Y-135538095D01*
X131571428Y-135585714D01*
X131761904Y-135585714D01*
X131857142Y-135538095D01*
X131904761Y-135490476D01*
X131952380Y-135395238D01*
X131952380Y-135204761D01*
X131904761Y-135109523D01*
X131857142Y-135061904D01*
X131761904Y-135014285D01*
X131571428Y-135014285D01*
X131476190Y-135061904D01*
X131428571Y-135109523D01*
X131380952Y-135204761D01*
%TO.C,D7*%
X130752380Y-136138095D02*
X129752380Y-136138095D01*
X129752380Y-135900000D01*
X129800000Y-135757142D01*
X129895238Y-135661904D01*
X129990476Y-135614285D01*
X130180952Y-135566666D01*
X130323809Y-135566666D01*
X130514285Y-135614285D01*
X130609523Y-135661904D01*
X130704761Y-135757142D01*
X130752380Y-135900000D01*
X130752380Y-136138095D01*
X129752380Y-135233333D02*
X129752380Y-134566666D01*
X130752380Y-134995238D01*
%TO.C,D6*%
X128252380Y-135038095D02*
X127252380Y-135038095D01*
X127252380Y-134800000D01*
X127300000Y-134657142D01*
X127395238Y-134561904D01*
X127490476Y-134514285D01*
X127680952Y-134466666D01*
X127823809Y-134466666D01*
X128014285Y-134514285D01*
X128109523Y-134561904D01*
X128204761Y-134657142D01*
X128252380Y-134800000D01*
X128252380Y-135038095D01*
X127252380Y-133609523D02*
X127252380Y-133800000D01*
X127300000Y-133895238D01*
X127347619Y-133942857D01*
X127490476Y-134038095D01*
X127680952Y-134085714D01*
X128061904Y-134085714D01*
X128157142Y-134038095D01*
X128204761Y-133990476D01*
X128252380Y-133895238D01*
X128252380Y-133704761D01*
X128204761Y-133609523D01*
X128157142Y-133561904D01*
X128061904Y-133514285D01*
X127823809Y-133514285D01*
X127728571Y-133561904D01*
X127680952Y-133609523D01*
X127633333Y-133704761D01*
X127633333Y-133895238D01*
X127680952Y-133990476D01*
X127728571Y-134038095D01*
X127823809Y-134085714D01*
%TO.C,D5*%
X129552380Y-135638095D02*
X128552380Y-135638095D01*
X128552380Y-135400000D01*
X128600000Y-135257142D01*
X128695238Y-135161904D01*
X128790476Y-135114285D01*
X128980952Y-135066666D01*
X129123809Y-135066666D01*
X129314285Y-135114285D01*
X129409523Y-135161904D01*
X129504761Y-135257142D01*
X129552380Y-135400000D01*
X129552380Y-135638095D01*
X128552380Y-134161904D02*
X128552380Y-134638095D01*
X129028571Y-134685714D01*
X128980952Y-134638095D01*
X128933333Y-134542857D01*
X128933333Y-134304761D01*
X128980952Y-134209523D01*
X129028571Y-134161904D01*
X129123809Y-134114285D01*
X129361904Y-134114285D01*
X129457142Y-134161904D01*
X129504761Y-134209523D01*
X129552380Y-134304761D01*
X129552380Y-134542857D01*
X129504761Y-134638095D01*
X129457142Y-134685714D01*
%TO.C,U5*%
X142338095Y-101252380D02*
X142338095Y-102061904D01*
X142385714Y-102157142D01*
X142433333Y-102204761D01*
X142528571Y-102252380D01*
X142719047Y-102252380D01*
X142814285Y-102204761D01*
X142861904Y-102157142D01*
X142909523Y-102061904D01*
X142909523Y-101252380D01*
X143861904Y-101252380D02*
X143385714Y-101252380D01*
X143338095Y-101728571D01*
X143385714Y-101680952D01*
X143480952Y-101633333D01*
X143719047Y-101633333D01*
X143814285Y-101680952D01*
X143861904Y-101728571D01*
X143909523Y-101823809D01*
X143909523Y-102061904D01*
X143861904Y-102157142D01*
X143814285Y-102204761D01*
X143719047Y-102252380D01*
X143480952Y-102252380D01*
X143385714Y-102204761D01*
X143338095Y-102157142D01*
%TO.C,U4*%
X151156287Y-122888250D02*
X151965811Y-122888250D01*
X152061049Y-122840631D01*
X152108668Y-122793012D01*
X152156287Y-122697774D01*
X152156287Y-122507298D01*
X152108668Y-122412060D01*
X152061049Y-122364441D01*
X151965811Y-122316822D01*
X151156287Y-122316822D01*
X151489621Y-121412060D02*
X152156287Y-121412060D01*
X151108668Y-121650155D02*
X151822954Y-121888250D01*
X151822954Y-121269203D01*
%TO.C,R15*%
X159782380Y-122930357D02*
X159306190Y-123263690D01*
X159782380Y-123501785D02*
X158782380Y-123501785D01*
X158782380Y-123120833D01*
X158830000Y-123025595D01*
X158877619Y-122977976D01*
X158972857Y-122930357D01*
X159115714Y-122930357D01*
X159210952Y-122977976D01*
X159258571Y-123025595D01*
X159306190Y-123120833D01*
X159306190Y-123501785D01*
X159782380Y-121977976D02*
X159782380Y-122549404D01*
X159782380Y-122263690D02*
X158782380Y-122263690D01*
X158925238Y-122358928D01*
X159020476Y-122454166D01*
X159068095Y-122549404D01*
X158782380Y-121073214D02*
X158782380Y-121549404D01*
X159258571Y-121597023D01*
X159210952Y-121549404D01*
X159163333Y-121454166D01*
X159163333Y-121216071D01*
X159210952Y-121120833D01*
X159258571Y-121073214D01*
X159353809Y-121025595D01*
X159591904Y-121025595D01*
X159687142Y-121073214D01*
X159734761Y-121120833D01*
X159782380Y-121216071D01*
X159782380Y-121454166D01*
X159734761Y-121549404D01*
X159687142Y-121597023D01*
%TO.C,R14*%
X156952380Y-125942857D02*
X156476190Y-126276190D01*
X156952380Y-126514285D02*
X155952380Y-126514285D01*
X155952380Y-126133333D01*
X156000000Y-126038095D01*
X156047619Y-125990476D01*
X156142857Y-125942857D01*
X156285714Y-125942857D01*
X156380952Y-125990476D01*
X156428571Y-126038095D01*
X156476190Y-126133333D01*
X156476190Y-126514285D01*
X156952380Y-124990476D02*
X156952380Y-125561904D01*
X156952380Y-125276190D02*
X155952380Y-125276190D01*
X156095238Y-125371428D01*
X156190476Y-125466666D01*
X156238095Y-125561904D01*
X156285714Y-124133333D02*
X156952380Y-124133333D01*
X155904761Y-124371428D02*
X156619047Y-124609523D01*
X156619047Y-123990476D01*
%TO.C,C14*%
X153294642Y-126287142D02*
X153247023Y-126334761D01*
X153104166Y-126382380D01*
X153008928Y-126382380D01*
X152866071Y-126334761D01*
X152770833Y-126239523D01*
X152723214Y-126144285D01*
X152675595Y-125953809D01*
X152675595Y-125810952D01*
X152723214Y-125620476D01*
X152770833Y-125525238D01*
X152866071Y-125430000D01*
X153008928Y-125382380D01*
X153104166Y-125382380D01*
X153247023Y-125430000D01*
X153294642Y-125477619D01*
X154247023Y-126382380D02*
X153675595Y-126382380D01*
X153961309Y-126382380D02*
X153961309Y-125382380D01*
X153866071Y-125525238D01*
X153770833Y-125620476D01*
X153675595Y-125668095D01*
X155104166Y-125715714D02*
X155104166Y-126382380D01*
X154866071Y-125334761D02*
X154627976Y-126049047D01*
X155247023Y-126049047D01*
%TO.C,U2*%
X140938095Y-96152380D02*
X140938095Y-96961904D01*
X140985714Y-97057142D01*
X141033333Y-97104761D01*
X141128571Y-97152380D01*
X141319047Y-97152380D01*
X141414285Y-97104761D01*
X141461904Y-97057142D01*
X141509523Y-96961904D01*
X141509523Y-96152380D01*
X141938095Y-96247619D02*
X141985714Y-96200000D01*
X142080952Y-96152380D01*
X142319047Y-96152380D01*
X142414285Y-96200000D01*
X142461904Y-96247619D01*
X142509523Y-96342857D01*
X142509523Y-96438095D01*
X142461904Y-96580952D01*
X141890476Y-97152380D01*
X142509523Y-97152380D01*
%TO.C,R13*%
X146569642Y-100382380D02*
X146236309Y-99906190D01*
X145998214Y-100382380D02*
X145998214Y-99382380D01*
X146379166Y-99382380D01*
X146474404Y-99430000D01*
X146522023Y-99477619D01*
X146569642Y-99572857D01*
X146569642Y-99715714D01*
X146522023Y-99810952D01*
X146474404Y-99858571D01*
X146379166Y-99906190D01*
X145998214Y-99906190D01*
X147522023Y-100382380D02*
X146950595Y-100382380D01*
X147236309Y-100382380D02*
X147236309Y-99382380D01*
X147141071Y-99525238D01*
X147045833Y-99620476D01*
X146950595Y-99668095D01*
X147855357Y-99382380D02*
X148474404Y-99382380D01*
X148141071Y-99763333D01*
X148283928Y-99763333D01*
X148379166Y-99810952D01*
X148426785Y-99858571D01*
X148474404Y-99953809D01*
X148474404Y-100191904D01*
X148426785Y-100287142D01*
X148379166Y-100334761D01*
X148283928Y-100382380D01*
X147998214Y-100382380D01*
X147902976Y-100334761D01*
X147855357Y-100287142D01*
%TO.C,R12*%
X132457142Y-103852380D02*
X132123809Y-103376190D01*
X131885714Y-103852380D02*
X131885714Y-102852380D01*
X132266666Y-102852380D01*
X132361904Y-102900000D01*
X132409523Y-102947619D01*
X132457142Y-103042857D01*
X132457142Y-103185714D01*
X132409523Y-103280952D01*
X132361904Y-103328571D01*
X132266666Y-103376190D01*
X131885714Y-103376190D01*
X133409523Y-103852380D02*
X132838095Y-103852380D01*
X133123809Y-103852380D02*
X133123809Y-102852380D01*
X133028571Y-102995238D01*
X132933333Y-103090476D01*
X132838095Y-103138095D01*
X133790476Y-102947619D02*
X133838095Y-102900000D01*
X133933333Y-102852380D01*
X134171428Y-102852380D01*
X134266666Y-102900000D01*
X134314285Y-102947619D01*
X134361904Y-103042857D01*
X134361904Y-103138095D01*
X134314285Y-103280952D01*
X133742857Y-103852380D01*
X134361904Y-103852380D01*
%TO.C,R11*%
X138357142Y-96852380D02*
X138023809Y-96376190D01*
X137785714Y-96852380D02*
X137785714Y-95852380D01*
X138166666Y-95852380D01*
X138261904Y-95900000D01*
X138309523Y-95947619D01*
X138357142Y-96042857D01*
X138357142Y-96185714D01*
X138309523Y-96280952D01*
X138261904Y-96328571D01*
X138166666Y-96376190D01*
X137785714Y-96376190D01*
X139309523Y-96852380D02*
X138738095Y-96852380D01*
X139023809Y-96852380D02*
X139023809Y-95852380D01*
X138928571Y-95995238D01*
X138833333Y-96090476D01*
X138738095Y-96138095D01*
X140261904Y-96852380D02*
X139690476Y-96852380D01*
X139976190Y-96852380D02*
X139976190Y-95852380D01*
X139880952Y-95995238D01*
X139785714Y-96090476D01*
X139690476Y-96138095D01*
%TO.C,D4*%
X132861904Y-100752380D02*
X132861904Y-99752380D01*
X133100000Y-99752380D01*
X133242857Y-99800000D01*
X133338095Y-99895238D01*
X133385714Y-99990476D01*
X133433333Y-100180952D01*
X133433333Y-100323809D01*
X133385714Y-100514285D01*
X133338095Y-100609523D01*
X133242857Y-100704761D01*
X133100000Y-100752380D01*
X132861904Y-100752380D01*
X134290476Y-100085714D02*
X134290476Y-100752380D01*
X134052380Y-99704761D02*
X133814285Y-100419047D01*
X134433333Y-100419047D01*
%TO.C,C13*%
X132457142Y-102257142D02*
X132409523Y-102304761D01*
X132266666Y-102352380D01*
X132171428Y-102352380D01*
X132028571Y-102304761D01*
X131933333Y-102209523D01*
X131885714Y-102114285D01*
X131838095Y-101923809D01*
X131838095Y-101780952D01*
X131885714Y-101590476D01*
X131933333Y-101495238D01*
X132028571Y-101400000D01*
X132171428Y-101352380D01*
X132266666Y-101352380D01*
X132409523Y-101400000D01*
X132457142Y-101447619D01*
X133409523Y-102352380D02*
X132838095Y-102352380D01*
X133123809Y-102352380D02*
X133123809Y-101352380D01*
X133028571Y-101495238D01*
X132933333Y-101590476D01*
X132838095Y-101638095D01*
X133742857Y-101352380D02*
X134361904Y-101352380D01*
X134028571Y-101733333D01*
X134171428Y-101733333D01*
X134266666Y-101780952D01*
X134314285Y-101828571D01*
X134361904Y-101923809D01*
X134361904Y-102161904D01*
X134314285Y-102257142D01*
X134266666Y-102304761D01*
X134171428Y-102352380D01*
X133885714Y-102352380D01*
X133790476Y-102304761D01*
X133742857Y-102257142D01*
%TO.C,C12*%
X146519642Y-95927142D02*
X146472023Y-95974761D01*
X146329166Y-96022380D01*
X146233928Y-96022380D01*
X146091071Y-95974761D01*
X145995833Y-95879523D01*
X145948214Y-95784285D01*
X145900595Y-95593809D01*
X145900595Y-95450952D01*
X145948214Y-95260476D01*
X145995833Y-95165238D01*
X146091071Y-95070000D01*
X146233928Y-95022380D01*
X146329166Y-95022380D01*
X146472023Y-95070000D01*
X146519642Y-95117619D01*
X147472023Y-96022380D02*
X146900595Y-96022380D01*
X147186309Y-96022380D02*
X147186309Y-95022380D01*
X147091071Y-95165238D01*
X146995833Y-95260476D01*
X146900595Y-95308095D01*
X147852976Y-95117619D02*
X147900595Y-95070000D01*
X147995833Y-95022380D01*
X148233928Y-95022380D01*
X148329166Y-95070000D01*
X148376785Y-95117619D01*
X148424404Y-95212857D01*
X148424404Y-95308095D01*
X148376785Y-95450952D01*
X147805357Y-96022380D01*
X148424404Y-96022380D01*
%TO.C,C11*%
X146519642Y-98927142D02*
X146472023Y-98974761D01*
X146329166Y-99022380D01*
X146233928Y-99022380D01*
X146091071Y-98974761D01*
X145995833Y-98879523D01*
X145948214Y-98784285D01*
X145900595Y-98593809D01*
X145900595Y-98450952D01*
X145948214Y-98260476D01*
X145995833Y-98165238D01*
X146091071Y-98070000D01*
X146233928Y-98022380D01*
X146329166Y-98022380D01*
X146472023Y-98070000D01*
X146519642Y-98117619D01*
X147472023Y-99022380D02*
X146900595Y-99022380D01*
X147186309Y-99022380D02*
X147186309Y-98022380D01*
X147091071Y-98165238D01*
X146995833Y-98260476D01*
X146900595Y-98308095D01*
X148424404Y-99022380D02*
X147852976Y-99022380D01*
X148138690Y-99022380D02*
X148138690Y-98022380D01*
X148043452Y-98165238D01*
X147948214Y-98260476D01*
X147852976Y-98308095D01*
%TO.C,C10*%
X134757142Y-96457142D02*
X134709523Y-96504761D01*
X134566666Y-96552380D01*
X134471428Y-96552380D01*
X134328571Y-96504761D01*
X134233333Y-96409523D01*
X134185714Y-96314285D01*
X134138095Y-96123809D01*
X134138095Y-95980952D01*
X134185714Y-95790476D01*
X134233333Y-95695238D01*
X134328571Y-95600000D01*
X134471428Y-95552380D01*
X134566666Y-95552380D01*
X134709523Y-95600000D01*
X134757142Y-95647619D01*
X135709523Y-96552380D02*
X135138095Y-96552380D01*
X135423809Y-96552380D02*
X135423809Y-95552380D01*
X135328571Y-95695238D01*
X135233333Y-95790476D01*
X135138095Y-95838095D01*
X136328571Y-95552380D02*
X136423809Y-95552380D01*
X136519047Y-95600000D01*
X136566666Y-95647619D01*
X136614285Y-95742857D01*
X136661904Y-95933333D01*
X136661904Y-96171428D01*
X136614285Y-96361904D01*
X136566666Y-96457142D01*
X136519047Y-96504761D01*
X136423809Y-96552380D01*
X136328571Y-96552380D01*
X136233333Y-96504761D01*
X136185714Y-96457142D01*
X136138095Y-96361904D01*
X136090476Y-96171428D01*
X136090476Y-95933333D01*
X136138095Y-95742857D01*
X136185714Y-95647619D01*
X136233333Y-95600000D01*
X136328571Y-95552380D01*
%TO.C,U3*%
X159852380Y-115961904D02*
X160661904Y-115961904D01*
X160757142Y-115914285D01*
X160804761Y-115866666D01*
X160852380Y-115771428D01*
X160852380Y-115580952D01*
X160804761Y-115485714D01*
X160757142Y-115438095D01*
X160661904Y-115390476D01*
X159852380Y-115390476D01*
X159852380Y-115009523D02*
X159852380Y-114390476D01*
X160233333Y-114723809D01*
X160233333Y-114580952D01*
X160280952Y-114485714D01*
X160328571Y-114438095D01*
X160423809Y-114390476D01*
X160661904Y-114390476D01*
X160757142Y-114438095D01*
X160804761Y-114485714D01*
X160852380Y-114580952D01*
X160852380Y-114866666D01*
X160804761Y-114961904D01*
X160757142Y-115009523D01*
%TD*%
M02*
