%TF.GenerationSoftware,KiCad,Pcbnew,6.0.6-3a73a75311~116~ubuntu20.04.1*%
%TF.CreationDate,2022-09-27T10:12:31+01:00*%
%TF.ProjectId,UFOControlDeck,55464f43-6f6e-4747-926f-6c4465636b2e,rev?*%
%TF.SameCoordinates,Original*%
%TF.FileFunction,Copper,L3,Inr*%
%TF.FilePolarity,Positive*%
%FSLAX46Y46*%
G04 Gerber Fmt 4.6, Leading zero omitted, Abs format (unit mm)*
G04 Created by KiCad (PCBNEW 6.0.6-3a73a75311~116~ubuntu20.04.1) date 2022-09-27 10:12:31*
%MOMM*%
%LPD*%
G01*
G04 APERTURE LIST*
%TA.AperFunction,ComponentPad*%
%ADD10R,1.700000X1.700000*%
%TD*%
%TA.AperFunction,ComponentPad*%
%ADD11O,1.700000X1.700000*%
%TD*%
%TA.AperFunction,ComponentPad*%
%ADD12C,7.500000*%
%TD*%
%TA.AperFunction,ComponentPad*%
%ADD13C,0.500000*%
%TD*%
%TA.AperFunction,ViaPad*%
%ADD14C,0.400000*%
%TD*%
%TA.AperFunction,ViaPad*%
%ADD15C,0.800000*%
%TD*%
G04 APERTURE END LIST*
D10*
%TO.N,+VDC*%
%TO.C,J1*%
X137200000Y-94000000D03*
D11*
%TO.N,GND*%
X139740000Y-94000000D03*
%TD*%
D12*
%TO.N,unconnected-(H1-Pad1)*%
%TO.C,H1*%
X125229942Y-101829942D03*
%TD*%
%TO.N,unconnected-(H2-Pad1)*%
%TO.C,H2*%
X125229942Y-128700000D03*
%TD*%
%TO.N,unconnected-(H3-Pad1)*%
%TO.C,H3*%
X152100000Y-101829942D03*
%TD*%
%TO.N,unconnected-(H4-Pad1)*%
%TO.C,H4*%
X152100000Y-128700000D03*
%TD*%
D13*
%TO.N,GND*%
%TO.C,U3*%
X153500000Y-113800000D03*
X153500000Y-114900000D03*
X152400000Y-114900000D03*
X153500000Y-117100000D03*
X154600000Y-116000000D03*
X154600000Y-112700000D03*
X153500000Y-116000000D03*
X156800000Y-116000000D03*
X154600000Y-117100000D03*
X152400000Y-113800000D03*
X151300000Y-117100000D03*
X152400000Y-117100000D03*
X151300000Y-113800000D03*
X155700000Y-113800000D03*
X154600000Y-118200000D03*
X151300000Y-118200000D03*
X156800000Y-114900000D03*
X155700000Y-117100000D03*
X156800000Y-112700000D03*
X152400000Y-118200000D03*
X154600000Y-114900000D03*
X154600000Y-113800000D03*
X156800000Y-117100000D03*
X151300000Y-112700000D03*
X155700000Y-118200000D03*
X152400000Y-116000000D03*
X155700000Y-112700000D03*
X156800000Y-118200000D03*
X153500000Y-112700000D03*
X153500000Y-118200000D03*
X156800000Y-113800000D03*
X155700000Y-114900000D03*
X152400000Y-112700000D03*
X151300000Y-114900000D03*
X151300000Y-116000000D03*
X155700000Y-116000000D03*
%TD*%
D14*
%TO.N,GND*%
X142000000Y-101250000D03*
X127000000Y-113700000D03*
X152200000Y-106250000D03*
D15*
X128900000Y-106050000D03*
D14*
X154100000Y-107500000D03*
X157150000Y-106550000D03*
X141800000Y-129200000D03*
X159900000Y-107550000D03*
D15*
X120150000Y-112450000D03*
D14*
X138000000Y-105550000D03*
X152800000Y-106900000D03*
X139050000Y-103050000D03*
X160450000Y-113250000D03*
X125000000Y-116350000D03*
X140500000Y-129200000D03*
D15*
X131550000Y-108150000D03*
D14*
X157850000Y-104400000D03*
X160300000Y-116600000D03*
X145662500Y-94937500D03*
X154050000Y-106400000D03*
D15*
X130600000Y-107400000D03*
D14*
X139200000Y-129200000D03*
X135400000Y-129200000D03*
X138850000Y-97350000D03*
D15*
X120150000Y-114000000D03*
X157750000Y-119100000D03*
D14*
X133650000Y-101850000D03*
X142700000Y-100350000D03*
D15*
X129700000Y-106700000D03*
D14*
X146700000Y-104950000D03*
X136650000Y-129150000D03*
X138050000Y-98050000D03*
D15*
X130550000Y-126000000D03*
D14*
X145600000Y-100250000D03*
X118200000Y-110950000D03*
D15*
X127900000Y-105350000D03*
D14*
X137850000Y-129200000D03*
X144000000Y-98150000D03*
X155850000Y-104400000D03*
D15*
X129850000Y-123850000D03*
D14*
X143500000Y-94500000D03*
X133800000Y-129250000D03*
X141400000Y-104900000D03*
D15*
%TO.N,+5V*%
X129100000Y-113900000D03*
X127850000Y-112200000D03*
D14*
X119600000Y-116400000D03*
D15*
X129250000Y-112250000D03*
D14*
X125000000Y-113400000D03*
D15*
X126300000Y-112200000D03*
D14*
%TO.N,Net-(C10-Pad1)*%
X138600000Y-98300000D03*
%TO.N,Net-(D5-Pad2)*%
X139500000Y-136700000D03*
%TO.N,Net-(D6-Pad2)*%
X138000000Y-136700000D03*
%TO.N,Net-(D7-Pad2)*%
X141000000Y-136600000D03*
%TO.N,Net-(D8-Pad2)*%
X142500000Y-136300000D03*
%TO.N,Net-(D9-Pad2)*%
X144000000Y-136000000D03*
%TO.N,Net-(D10-Pad2)*%
X145500000Y-135600000D03*
%TO.N,Net-(D11-Pad2)*%
X147000000Y-135000000D03*
%TO.N,Net-(D12-Pad2)*%
X148500000Y-134300000D03*
%TO.N,PULSE0*%
X152300000Y-121200000D03*
%TO.N,PULSE1*%
X152800000Y-121200000D03*
%TO.N,PULSE2*%
X153300000Y-121200000D03*
%TO.N,PULSE3*%
X153800000Y-121200000D03*
%TO.N,PULSE4*%
X154299575Y-121198297D03*
%TO.N,PULSE5*%
X154800000Y-121200000D03*
%TO.N,PULSE6*%
X155302527Y-121499984D03*
%TO.N,PULSE7*%
X155900000Y-121200000D03*
D15*
%TO.N,+VSW*%
X120750000Y-107550000D03*
X119850000Y-103200000D03*
X130200000Y-100300000D03*
X128200000Y-95800000D03*
X120800000Y-102100000D03*
X122700000Y-105550000D03*
X118600000Y-105400000D03*
X128400000Y-98600000D03*
X120750000Y-105550000D03*
X127450000Y-97250000D03*
X125500000Y-97350000D03*
D14*
%TO.N,~{TRIGGER}*%
X155300000Y-109750000D03*
X155300000Y-109050000D03*
%TO.N,Net-(R4-Pad2)*%
X119800000Y-115050000D03*
X120100000Y-109050000D03*
D15*
%TO.N,+3.3V*%
X124100000Y-120800000D03*
D14*
X142600000Y-97150000D03*
X143350000Y-104900000D03*
D15*
X119900000Y-126300000D03*
X117650000Y-122050000D03*
X159150000Y-120550000D03*
D14*
X136200000Y-100300000D03*
X152000000Y-119500000D03*
X157900000Y-117150000D03*
X156900000Y-125000000D03*
X151550000Y-111900000D03*
D15*
X117000000Y-119050000D03*
D14*
X158150000Y-114000000D03*
X155250000Y-111900000D03*
D15*
X118650000Y-124350000D03*
D14*
X136150000Y-98800000D03*
X151900000Y-109200000D03*
D15*
X126200000Y-120800000D03*
D14*
X149950000Y-113700000D03*
X148450000Y-110350000D03*
X136500000Y-102650000D03*
X154500000Y-123950000D03*
X157150000Y-109650000D03*
X155650000Y-119550000D03*
X141400000Y-97700000D03*
X145250000Y-102250000D03*
X149950000Y-117050000D03*
X146650000Y-101350000D03*
X146550000Y-106400000D03*
%TO.N,Net-(D13-Pad1)*%
X149350000Y-108150000D03*
%TO.N,Net-(R25-Pad1)*%
X146533590Y-108139060D03*
%TO.N,Net-(D1-Pad1)*%
X148400000Y-107100000D03*
%TO.N,Net-(D3-Pad1)*%
X145028706Y-106920026D03*
%TO.N,/INITN*%
X149200000Y-110750000D03*
%TO.N,/PROGRAMN*%
X148226567Y-112800000D03*
X146525010Y-110150000D03*
X144450000Y-107800000D03*
%TO.N,/DONE*%
X150250000Y-108300000D03*
%TO.N,Net-(R27-Pad2)*%
X132400000Y-104550000D03*
%TD*%
%TA.AperFunction,Conductor*%
%TO.N,+5V*%
G36*
X130124564Y-112153427D02*
G01*
X130127991Y-112161700D01*
X130127350Y-112165519D01*
X130015597Y-112489157D01*
X129984905Y-112578042D01*
X129829604Y-113143787D01*
X129711135Y-113718375D01*
X129629993Y-114299410D01*
X129586515Y-114884471D01*
X129584945Y-115048000D01*
X129580884Y-115471118D01*
X129613122Y-116056905D01*
X129648452Y-116351009D01*
X129683006Y-116638655D01*
X129683094Y-116639391D01*
X129790511Y-117216148D01*
X129934922Y-117784770D01*
X130115728Y-118342888D01*
X130203069Y-118562926D01*
X130320618Y-118859066D01*
X130332172Y-118888175D01*
X130332247Y-118888334D01*
X130332253Y-118888347D01*
X130583271Y-119418181D01*
X130583279Y-119418196D01*
X130583355Y-119418357D01*
X130619050Y-119482621D01*
X130620072Y-119491515D01*
X130614503Y-119498528D01*
X130608822Y-119500000D01*
X125211700Y-119500000D01*
X125203427Y-119496573D01*
X125200000Y-119488300D01*
X125200000Y-116638655D01*
X125203427Y-116630382D01*
X125204179Y-116629692D01*
X125267968Y-116576166D01*
X125268751Y-116575509D01*
X125329672Y-116469991D01*
X125350830Y-116350000D01*
X125329672Y-116230009D01*
X125268751Y-116124491D01*
X125204179Y-116070308D01*
X125200045Y-116062365D01*
X125200000Y-116061345D01*
X125200000Y-113700000D01*
X126649170Y-113700000D01*
X126670328Y-113819991D01*
X126731249Y-113925509D01*
X126824585Y-114003828D01*
X126939079Y-114045500D01*
X127060921Y-114045500D01*
X127175415Y-114003828D01*
X127268751Y-113925509D01*
X127329672Y-113819991D01*
X127350830Y-113700000D01*
X127329672Y-113580009D01*
X127268751Y-113474491D01*
X127175415Y-113396172D01*
X127060921Y-113354500D01*
X126939079Y-113354500D01*
X126824585Y-113396172D01*
X126731249Y-113474491D01*
X126670328Y-113580009D01*
X126649170Y-113700000D01*
X125200000Y-113700000D01*
X125200000Y-112161700D01*
X125203427Y-112153427D01*
X125211700Y-112150000D01*
X130116291Y-112150000D01*
X130124564Y-112153427D01*
G37*
%TD.AperFunction*%
%TD*%
%TA.AperFunction,Conductor*%
%TO.N,+3.3V*%
G36*
X149065512Y-108348251D02*
G01*
X149081249Y-108375509D01*
X149174585Y-108453828D01*
X149289079Y-108495500D01*
X149410921Y-108495500D01*
X149525415Y-108453828D01*
X149618751Y-108375509D01*
X149634489Y-108348251D01*
X149662346Y-108300000D01*
X149893615Y-108300000D01*
X149898862Y-108307368D01*
X149903877Y-108326694D01*
X149920328Y-108419991D01*
X149981249Y-108525509D01*
X150074585Y-108603828D01*
X150189079Y-108645500D01*
X150310921Y-108645500D01*
X150425415Y-108603828D01*
X150518751Y-108525509D01*
X150579672Y-108419991D01*
X150600830Y-108300000D01*
X160474592Y-108300000D01*
X160586294Y-108643784D01*
X160587819Y-108648836D01*
X160844327Y-109567544D01*
X160845640Y-109572656D01*
X161063459Y-110501332D01*
X161064556Y-110506494D01*
X161113078Y-110760855D01*
X161222070Y-111332207D01*
X161243292Y-111443458D01*
X161244169Y-111448641D01*
X161341966Y-112110917D01*
X161353972Y-112192222D01*
X161363809Y-118271101D01*
X161244172Y-119081281D01*
X161243296Y-119086463D01*
X161169294Y-119474393D01*
X161064556Y-120023448D01*
X161063459Y-120028610D01*
X160845640Y-120957286D01*
X160844327Y-120962398D01*
X160587819Y-121881106D01*
X160586294Y-121886158D01*
X160291537Y-122793329D01*
X160289805Y-122798303D01*
X159964948Y-123671821D01*
X159957306Y-123692369D01*
X159955370Y-123697259D01*
X159684522Y-124341579D01*
X159585722Y-124576614D01*
X159583575Y-124581435D01*
X159177450Y-125444496D01*
X159175104Y-125449223D01*
X158733174Y-126294557D01*
X158730631Y-126299182D01*
X158253701Y-127125248D01*
X158250967Y-127129762D01*
X158097306Y-127371893D01*
X157743167Y-127929928D01*
X157739872Y-127935120D01*
X157736962Y-127939501D01*
X157192557Y-128722798D01*
X157189473Y-128727043D01*
X156635458Y-129456931D01*
X156612756Y-129486840D01*
X156609478Y-129490975D01*
X156001454Y-130225950D01*
X155998005Y-130229945D01*
X155986822Y-130242365D01*
X155791282Y-130459535D01*
X155789713Y-130461277D01*
X155729267Y-130498517D01*
X155658283Y-130497165D01*
X155599299Y-130457652D01*
X155571041Y-130392521D01*
X155583315Y-130320746D01*
X155622394Y-130242365D01*
X155623814Y-130239517D01*
X155761353Y-129875532D01*
X155772394Y-129834039D01*
X155860583Y-129502596D01*
X155861404Y-129499511D01*
X155862047Y-129495500D01*
X155922439Y-129118456D01*
X155922944Y-129115305D01*
X155925072Y-129078410D01*
X155940647Y-128808272D01*
X155945342Y-128726846D01*
X155945436Y-128700000D01*
X155925750Y-128311394D01*
X155866894Y-127926768D01*
X155769470Y-127550058D01*
X155765871Y-127540329D01*
X155635585Y-127188119D01*
X155635582Y-127188113D01*
X155634476Y-127185122D01*
X155463294Y-126835696D01*
X155455994Y-126823967D01*
X155259363Y-126508067D01*
X155257677Y-126505358D01*
X155081263Y-126277105D01*
X155021681Y-126200014D01*
X155021676Y-126200009D01*
X155019729Y-126197489D01*
X154848360Y-126016903D01*
X154754087Y-125917560D01*
X154754084Y-125917558D01*
X154751888Y-125915243D01*
X154749464Y-125913158D01*
X154459310Y-125663586D01*
X154459307Y-125663584D01*
X154456895Y-125661509D01*
X154137771Y-125438885D01*
X153797783Y-125249650D01*
X153794863Y-125248392D01*
X153794858Y-125248390D01*
X153443345Y-125097005D01*
X153443335Y-125097001D01*
X153440411Y-125095742D01*
X153069317Y-124978736D01*
X152785550Y-124919971D01*
X152691422Y-124900478D01*
X152691419Y-124900478D01*
X152688297Y-124899831D01*
X152390473Y-124869054D01*
X152304411Y-124860160D01*
X152304408Y-124860160D01*
X152301255Y-124859834D01*
X152298089Y-124859828D01*
X152298080Y-124859828D01*
X152105974Y-124859493D01*
X151912151Y-124859155D01*
X151719178Y-124878416D01*
X151528144Y-124897484D01*
X151528138Y-124897485D01*
X151524971Y-124897801D01*
X151416001Y-124919971D01*
X151146804Y-124974739D01*
X151146800Y-124974740D01*
X151143679Y-124975375D01*
X151140637Y-124976322D01*
X151140631Y-124976324D01*
X150957928Y-125033230D01*
X150772178Y-125091085D01*
X150769238Y-125092339D01*
X150417209Y-125242492D01*
X150417205Y-125242494D01*
X150414272Y-125243745D01*
X150411485Y-125245284D01*
X150411484Y-125245284D01*
X150403575Y-125249650D01*
X150073625Y-125431792D01*
X150071004Y-125433607D01*
X150070999Y-125433610D01*
X150055278Y-125444496D01*
X149753726Y-125653301D01*
X149751298Y-125655375D01*
X149751295Y-125655377D01*
X149650827Y-125741185D01*
X149457849Y-125906004D01*
X149455649Y-125908306D01*
X149455646Y-125908309D01*
X149340887Y-126028397D01*
X149189024Y-126187313D01*
X149187067Y-126189827D01*
X149187066Y-126189828D01*
X148953870Y-126489382D01*
X148950003Y-126494349D01*
X148948307Y-126497053D01*
X148948304Y-126497057D01*
X148818766Y-126703559D01*
X148743234Y-126823967D01*
X148570833Y-127172793D01*
X148434566Y-127537256D01*
X148335828Y-127913624D01*
X148335335Y-127916773D01*
X148335333Y-127916782D01*
X148332111Y-127937360D01*
X148275630Y-128298042D01*
X148254587Y-128686577D01*
X148254737Y-128689758D01*
X148266830Y-128946172D01*
X148272917Y-129075249D01*
X148273388Y-129078402D01*
X148273389Y-129078410D01*
X148285711Y-129160855D01*
X148330430Y-129460079D01*
X148331216Y-129463161D01*
X148331216Y-129463163D01*
X148355288Y-129557599D01*
X148426538Y-129837126D01*
X148560257Y-130202532D01*
X148730219Y-130552553D01*
X148934682Y-130883607D01*
X148961946Y-130919138D01*
X149064131Y-131052308D01*
X149171553Y-131192304D01*
X149173735Y-131194620D01*
X149173744Y-131194630D01*
X149202492Y-131225136D01*
X149438408Y-131475483D01*
X149732513Y-131730245D01*
X149735123Y-131732080D01*
X149735129Y-131732084D01*
X149767552Y-131754871D01*
X150050858Y-131953982D01*
X150390184Y-132144402D01*
X150393083Y-132145663D01*
X150393088Y-132145665D01*
X150515693Y-132198975D01*
X150747015Y-132299557D01*
X151117700Y-132417857D01*
X151324517Y-132461440D01*
X151495322Y-132497435D01*
X151495327Y-132497436D01*
X151498441Y-132498092D01*
X151885342Y-132539440D01*
X151888529Y-132539457D01*
X151888535Y-132539457D01*
X152065240Y-132540382D01*
X152274440Y-132541477D01*
X152421548Y-132527312D01*
X152658588Y-132504488D01*
X152658593Y-132504487D01*
X152661753Y-132504183D01*
X152664873Y-132503560D01*
X152664877Y-132503559D01*
X153040186Y-132428565D01*
X153040185Y-132428565D01*
X153043314Y-132427940D01*
X153342544Y-132335885D01*
X153412175Y-132314464D01*
X153412178Y-132314463D01*
X153415217Y-132313528D01*
X153418145Y-132312291D01*
X153418151Y-132312289D01*
X153544837Y-132258774D01*
X153729283Y-132180861D01*
X153799816Y-132172779D01*
X153863523Y-132204114D01*
X153900176Y-132264917D01*
X153898138Y-132335885D01*
X153860642Y-132392311D01*
X153263663Y-132907610D01*
X153259597Y-132910974D01*
X152512056Y-133503468D01*
X152507852Y-133506659D01*
X151736158Y-134067327D01*
X151731824Y-134070339D01*
X150937347Y-134598188D01*
X150932891Y-134601016D01*
X150116977Y-135095152D01*
X150112407Y-135097791D01*
X149276529Y-135557318D01*
X149271852Y-135559763D01*
X148417468Y-135983883D01*
X148412693Y-135986130D01*
X147541294Y-136374102D01*
X147536429Y-136376147D01*
X146649523Y-136727298D01*
X146644599Y-136729129D01*
X146590810Y-136747860D01*
X145743802Y-137042819D01*
X145738783Y-137044450D01*
X144825622Y-137320149D01*
X144820539Y-137321568D01*
X143896669Y-137558778D01*
X143891531Y-137559984D01*
X143425000Y-137659149D01*
X142958454Y-137758316D01*
X142953302Y-137759298D01*
X142012790Y-137918374D01*
X142007594Y-137919141D01*
X141556566Y-137976119D01*
X141061246Y-138038692D01*
X141055997Y-138039244D01*
X140353596Y-138098227D01*
X140105459Y-138119063D01*
X140100201Y-138119394D01*
X139272813Y-138154072D01*
X139147190Y-138159337D01*
X139141914Y-138159448D01*
X138188028Y-138159448D01*
X138182752Y-138159337D01*
X138057129Y-138154072D01*
X137229741Y-138119394D01*
X137224483Y-138119063D01*
X136976346Y-138098227D01*
X136273945Y-138039244D01*
X136268696Y-138038692D01*
X135773376Y-137976119D01*
X135322348Y-137919141D01*
X135317152Y-137918374D01*
X134376640Y-137759298D01*
X134371488Y-137758316D01*
X133904942Y-137659149D01*
X133438411Y-137559984D01*
X133433273Y-137558778D01*
X132509403Y-137321568D01*
X132504320Y-137320149D01*
X131591159Y-137044450D01*
X131586140Y-137042819D01*
X130739132Y-136747860D01*
X130685343Y-136729129D01*
X130680419Y-136727298D01*
X130611472Y-136700000D01*
X137649170Y-136700000D01*
X137670328Y-136819991D01*
X137731249Y-136925509D01*
X137824585Y-137003828D01*
X137939079Y-137045500D01*
X138060921Y-137045500D01*
X138175415Y-137003828D01*
X138268751Y-136925509D01*
X138329672Y-136819991D01*
X138350830Y-136700000D01*
X139149170Y-136700000D01*
X139170328Y-136819991D01*
X139231249Y-136925509D01*
X139324585Y-137003828D01*
X139439079Y-137045500D01*
X139560921Y-137045500D01*
X139675415Y-137003828D01*
X139768751Y-136925509D01*
X139829672Y-136819991D01*
X139850830Y-136700000D01*
X139833197Y-136600000D01*
X140649170Y-136600000D01*
X140670328Y-136719991D01*
X140731249Y-136825509D01*
X140824585Y-136903828D01*
X140939079Y-136945500D01*
X141060921Y-136945500D01*
X141175415Y-136903828D01*
X141268751Y-136825509D01*
X141329672Y-136719991D01*
X141350830Y-136600000D01*
X141329672Y-136480009D01*
X141268751Y-136374491D01*
X141179977Y-136300000D01*
X142149170Y-136300000D01*
X142170328Y-136419991D01*
X142231249Y-136525509D01*
X142324585Y-136603828D01*
X142439079Y-136645500D01*
X142560921Y-136645500D01*
X142675415Y-136603828D01*
X142768751Y-136525509D01*
X142829672Y-136419991D01*
X142850830Y-136300000D01*
X142829672Y-136180009D01*
X142768751Y-136074491D01*
X142679977Y-136000000D01*
X143649170Y-136000000D01*
X143670328Y-136119991D01*
X143731249Y-136225509D01*
X143824585Y-136303828D01*
X143939079Y-136345500D01*
X144060921Y-136345500D01*
X144175415Y-136303828D01*
X144268751Y-136225509D01*
X144329672Y-136119991D01*
X144350830Y-136000000D01*
X144329672Y-135880009D01*
X144268751Y-135774491D01*
X144175415Y-135696172D01*
X144060921Y-135654500D01*
X143939079Y-135654500D01*
X143824585Y-135696172D01*
X143731249Y-135774491D01*
X143670328Y-135880009D01*
X143649170Y-136000000D01*
X142679977Y-136000000D01*
X142675415Y-135996172D01*
X142560921Y-135954500D01*
X142439079Y-135954500D01*
X142324585Y-135996172D01*
X142231249Y-136074491D01*
X142170328Y-136180009D01*
X142149170Y-136300000D01*
X141179977Y-136300000D01*
X141175415Y-136296172D01*
X141060921Y-136254500D01*
X140939079Y-136254500D01*
X140824585Y-136296172D01*
X140731249Y-136374491D01*
X140670328Y-136480009D01*
X140649170Y-136600000D01*
X139833197Y-136600000D01*
X139829672Y-136580009D01*
X139768751Y-136474491D01*
X139675415Y-136396172D01*
X139560921Y-136354500D01*
X139439079Y-136354500D01*
X139324585Y-136396172D01*
X139231249Y-136474491D01*
X139170328Y-136580009D01*
X139149170Y-136700000D01*
X138350830Y-136700000D01*
X138329672Y-136580009D01*
X138268751Y-136474491D01*
X138175415Y-136396172D01*
X138060921Y-136354500D01*
X137939079Y-136354500D01*
X137824585Y-136396172D01*
X137731249Y-136474491D01*
X137670328Y-136580009D01*
X137649170Y-136700000D01*
X130611472Y-136700000D01*
X129793513Y-136376147D01*
X129788648Y-136374102D01*
X128917249Y-135986130D01*
X128912474Y-135983883D01*
X128139147Y-135600000D01*
X145149170Y-135600000D01*
X145170328Y-135719991D01*
X145231249Y-135825509D01*
X145324585Y-135903828D01*
X145439079Y-135945500D01*
X145560921Y-135945500D01*
X145675415Y-135903828D01*
X145768751Y-135825509D01*
X145829672Y-135719991D01*
X145850830Y-135600000D01*
X145829672Y-135480009D01*
X145768751Y-135374491D01*
X145675415Y-135296172D01*
X145560921Y-135254500D01*
X145439079Y-135254500D01*
X145324585Y-135296172D01*
X145231249Y-135374491D01*
X145170328Y-135480009D01*
X145149170Y-135600000D01*
X128139147Y-135600000D01*
X128058090Y-135559763D01*
X128053413Y-135557318D01*
X127217535Y-135097791D01*
X127212965Y-135095152D01*
X127055851Y-135000000D01*
X146649170Y-135000000D01*
X146670328Y-135119991D01*
X146731249Y-135225509D01*
X146824585Y-135303828D01*
X146939079Y-135345500D01*
X147060921Y-135345500D01*
X147175415Y-135303828D01*
X147268751Y-135225509D01*
X147329672Y-135119991D01*
X147350830Y-135000000D01*
X147329672Y-134880009D01*
X147268751Y-134774491D01*
X147175415Y-134696172D01*
X147060921Y-134654500D01*
X146939079Y-134654500D01*
X146824585Y-134696172D01*
X146731249Y-134774491D01*
X146670328Y-134880009D01*
X146649170Y-135000000D01*
X127055851Y-135000000D01*
X126397051Y-134601016D01*
X126392595Y-134598188D01*
X125943786Y-134300000D01*
X148149170Y-134300000D01*
X148170328Y-134419991D01*
X148231249Y-134525509D01*
X148324585Y-134603828D01*
X148439079Y-134645500D01*
X148560921Y-134645500D01*
X148675415Y-134603828D01*
X148768751Y-134525509D01*
X148829672Y-134419991D01*
X148850830Y-134300000D01*
X148829672Y-134180009D01*
X148768751Y-134074491D01*
X148760214Y-134067327D01*
X148683861Y-134003259D01*
X148675415Y-133996172D01*
X148560921Y-133954500D01*
X148439079Y-133954500D01*
X148324585Y-133996172D01*
X148316139Y-134003259D01*
X148239787Y-134067327D01*
X148231249Y-134074491D01*
X148170328Y-134180009D01*
X148149170Y-134300000D01*
X125943786Y-134300000D01*
X125598118Y-134070339D01*
X125593784Y-134067327D01*
X124822090Y-133506659D01*
X124817886Y-133503468D01*
X124070345Y-132910974D01*
X124066279Y-132907610D01*
X123981558Y-132834481D01*
X123465953Y-132389422D01*
X123427456Y-132329770D01*
X123427320Y-132258774D01*
X123465590Y-132198975D01*
X123530115Y-132169359D01*
X123598526Y-132178492D01*
X123874030Y-132298285D01*
X123874042Y-132298289D01*
X123876957Y-132299557D01*
X124247642Y-132417857D01*
X124454459Y-132461440D01*
X124625264Y-132497435D01*
X124625269Y-132497436D01*
X124628383Y-132498092D01*
X125015284Y-132539440D01*
X125018471Y-132539457D01*
X125018477Y-132539457D01*
X125195182Y-132540382D01*
X125404382Y-132541477D01*
X125551490Y-132527312D01*
X125788530Y-132504488D01*
X125788535Y-132504487D01*
X125791695Y-132504183D01*
X125794815Y-132503560D01*
X125794819Y-132503559D01*
X126170128Y-132428565D01*
X126170127Y-132428565D01*
X126173256Y-132427940D01*
X126472486Y-132335885D01*
X126542117Y-132314464D01*
X126542120Y-132314463D01*
X126545159Y-132313528D01*
X126548087Y-132312291D01*
X126548093Y-132312289D01*
X126771025Y-132218118D01*
X126903595Y-132162118D01*
X126906398Y-132160584D01*
X126906403Y-132160581D01*
X127053484Y-132080056D01*
X127244896Y-131975261D01*
X127565567Y-131754871D01*
X127567995Y-131752812D01*
X127859894Y-131505263D01*
X127859896Y-131505261D01*
X127862324Y-131503202D01*
X127864529Y-131500910D01*
X127864535Y-131500905D01*
X127974550Y-131386582D01*
X128132129Y-131222833D01*
X128372220Y-130916634D01*
X128580139Y-130587739D01*
X128581559Y-130584890D01*
X128581564Y-130584882D01*
X128752336Y-130242365D01*
X128753756Y-130239517D01*
X128891295Y-129875532D01*
X128902336Y-129834039D01*
X128990525Y-129502596D01*
X128991346Y-129499511D01*
X128991989Y-129495500D01*
X129031311Y-129250000D01*
X133449170Y-129250000D01*
X133470328Y-129369991D01*
X133531249Y-129475509D01*
X133539690Y-129482592D01*
X133539691Y-129482593D01*
X133564998Y-129503828D01*
X133624585Y-129553828D01*
X133739079Y-129595500D01*
X133860921Y-129595500D01*
X133975415Y-129553828D01*
X134035002Y-129503828D01*
X134060309Y-129482593D01*
X134060310Y-129482592D01*
X134068751Y-129475509D01*
X134129672Y-129369991D01*
X134150830Y-129250000D01*
X134142014Y-129200000D01*
X135049170Y-129200000D01*
X135070328Y-129319991D01*
X135131249Y-129425509D01*
X135139690Y-129432592D01*
X135139691Y-129432593D01*
X135210165Y-129491728D01*
X135224585Y-129503828D01*
X135339079Y-129545500D01*
X135460921Y-129545500D01*
X135575415Y-129503828D01*
X135589835Y-129491728D01*
X135660309Y-129432593D01*
X135660310Y-129432592D01*
X135668751Y-129425509D01*
X135729672Y-129319991D01*
X135750830Y-129200000D01*
X135742014Y-129150000D01*
X136299170Y-129150000D01*
X136320328Y-129269991D01*
X136381249Y-129375509D01*
X136474585Y-129453828D01*
X136589079Y-129495500D01*
X136710921Y-129495500D01*
X136825415Y-129453828D01*
X136918751Y-129375509D01*
X136979672Y-129269991D01*
X136992014Y-129200000D01*
X137499170Y-129200000D01*
X137520328Y-129319991D01*
X137581249Y-129425509D01*
X137589690Y-129432592D01*
X137589691Y-129432593D01*
X137660165Y-129491728D01*
X137674585Y-129503828D01*
X137789079Y-129545500D01*
X137910921Y-129545500D01*
X138025415Y-129503828D01*
X138039835Y-129491728D01*
X138110309Y-129432593D01*
X138110310Y-129432592D01*
X138118751Y-129425509D01*
X138179672Y-129319991D01*
X138200830Y-129200000D01*
X138849170Y-129200000D01*
X138870328Y-129319991D01*
X138931249Y-129425509D01*
X138939690Y-129432592D01*
X138939691Y-129432593D01*
X139010165Y-129491728D01*
X139024585Y-129503828D01*
X139139079Y-129545500D01*
X139260921Y-129545500D01*
X139375415Y-129503828D01*
X139389835Y-129491728D01*
X139460309Y-129432593D01*
X139460310Y-129432592D01*
X139468751Y-129425509D01*
X139529672Y-129319991D01*
X139550830Y-129200000D01*
X140149170Y-129200000D01*
X140170328Y-129319991D01*
X140231249Y-129425509D01*
X140239690Y-129432592D01*
X140239691Y-129432593D01*
X140310165Y-129491728D01*
X140324585Y-129503828D01*
X140439079Y-129545500D01*
X140560921Y-129545500D01*
X140675415Y-129503828D01*
X140689835Y-129491728D01*
X140760309Y-129432593D01*
X140760310Y-129432592D01*
X140768751Y-129425509D01*
X140829672Y-129319991D01*
X140850830Y-129200000D01*
X141449170Y-129200000D01*
X141470328Y-129319991D01*
X141531249Y-129425509D01*
X141539690Y-129432592D01*
X141539691Y-129432593D01*
X141610165Y-129491728D01*
X141624585Y-129503828D01*
X141739079Y-129545500D01*
X141860921Y-129545500D01*
X141975415Y-129503828D01*
X141989835Y-129491728D01*
X142060309Y-129432593D01*
X142060310Y-129432592D01*
X142068751Y-129425509D01*
X142129672Y-129319991D01*
X142150830Y-129200000D01*
X142129672Y-129080009D01*
X142068751Y-128974491D01*
X141975415Y-128896172D01*
X141860921Y-128854500D01*
X141739079Y-128854500D01*
X141624585Y-128896172D01*
X141531249Y-128974491D01*
X141470328Y-129080009D01*
X141449170Y-129200000D01*
X140850830Y-129200000D01*
X140829672Y-129080009D01*
X140768751Y-128974491D01*
X140675415Y-128896172D01*
X140560921Y-128854500D01*
X140439079Y-128854500D01*
X140324585Y-128896172D01*
X140231249Y-128974491D01*
X140170328Y-129080009D01*
X140149170Y-129200000D01*
X139550830Y-129200000D01*
X139529672Y-129080009D01*
X139468751Y-128974491D01*
X139375415Y-128896172D01*
X139260921Y-128854500D01*
X139139079Y-128854500D01*
X139024585Y-128896172D01*
X138931249Y-128974491D01*
X138870328Y-129080009D01*
X138849170Y-129200000D01*
X138200830Y-129200000D01*
X138179672Y-129080009D01*
X138118751Y-128974491D01*
X138025415Y-128896172D01*
X137910921Y-128854500D01*
X137789079Y-128854500D01*
X137674585Y-128896172D01*
X137581249Y-128974491D01*
X137520328Y-129080009D01*
X137499170Y-129200000D01*
X136992014Y-129200000D01*
X137000830Y-129150000D01*
X136979672Y-129030009D01*
X136918751Y-128924491D01*
X136825415Y-128846172D01*
X136710921Y-128804500D01*
X136589079Y-128804500D01*
X136474585Y-128846172D01*
X136381249Y-128924491D01*
X136320328Y-129030009D01*
X136299170Y-129150000D01*
X135742014Y-129150000D01*
X135729672Y-129080009D01*
X135668751Y-128974491D01*
X135575415Y-128896172D01*
X135460921Y-128854500D01*
X135339079Y-128854500D01*
X135224585Y-128896172D01*
X135131249Y-128974491D01*
X135070328Y-129080009D01*
X135049170Y-129200000D01*
X134142014Y-129200000D01*
X134129672Y-129130009D01*
X134068751Y-129024491D01*
X133975415Y-128946172D01*
X133860921Y-128904500D01*
X133739079Y-128904500D01*
X133624585Y-128946172D01*
X133531249Y-129024491D01*
X133470328Y-129130009D01*
X133449170Y-129250000D01*
X129031311Y-129250000D01*
X129052381Y-129118456D01*
X129052886Y-129115305D01*
X129055014Y-129078410D01*
X129070589Y-128808272D01*
X129075284Y-128726846D01*
X129075378Y-128700000D01*
X129055692Y-128311394D01*
X128996836Y-127926768D01*
X128899412Y-127550058D01*
X128895813Y-127540329D01*
X128765527Y-127188119D01*
X128765524Y-127188113D01*
X128764418Y-127185122D01*
X128593236Y-126835696D01*
X128585936Y-126823967D01*
X128389305Y-126508067D01*
X128387619Y-126505358D01*
X128211205Y-126277105D01*
X128151623Y-126200014D01*
X128151618Y-126200009D01*
X128149671Y-126197489D01*
X127978302Y-126016903D01*
X127956517Y-125993946D01*
X130054493Y-125993946D01*
X130055657Y-126002848D01*
X130055657Y-126002851D01*
X130057495Y-126016903D01*
X130072711Y-126133262D01*
X130129297Y-126261864D01*
X130135074Y-126268737D01*
X130135075Y-126268738D01*
X130160666Y-126299182D01*
X130219704Y-126369416D01*
X130336663Y-126447271D01*
X130470772Y-126489169D01*
X130479742Y-126489333D01*
X130479746Y-126489334D01*
X130544544Y-126490521D01*
X130611250Y-126491744D01*
X130668624Y-126476102D01*
X130738145Y-126457149D01*
X130738147Y-126457148D01*
X130746804Y-126454788D01*
X130866538Y-126381271D01*
X130960825Y-126277105D01*
X131022086Y-126150662D01*
X131045396Y-126012107D01*
X131045544Y-126000000D01*
X131025626Y-125860917D01*
X130967472Y-125733015D01*
X130875758Y-125626576D01*
X130868227Y-125621695D01*
X130868224Y-125621692D01*
X130765388Y-125555037D01*
X130765386Y-125555036D01*
X130757857Y-125550156D01*
X130749260Y-125547585D01*
X130749258Y-125547584D01*
X130669216Y-125523647D01*
X130623246Y-125509899D01*
X130614270Y-125509844D01*
X130614269Y-125509844D01*
X130555015Y-125509482D01*
X130482747Y-125509041D01*
X130347654Y-125547651D01*
X130228828Y-125622624D01*
X130135821Y-125727935D01*
X130076109Y-125855117D01*
X130074729Y-125863981D01*
X130074728Y-125863984D01*
X130067072Y-125913158D01*
X130054493Y-125993946D01*
X127956517Y-125993946D01*
X127884029Y-125917560D01*
X127884026Y-125917558D01*
X127881830Y-125915243D01*
X127879406Y-125913158D01*
X127589252Y-125663586D01*
X127589249Y-125663584D01*
X127586837Y-125661509D01*
X127267713Y-125438885D01*
X126927725Y-125249650D01*
X126924805Y-125248392D01*
X126924800Y-125248390D01*
X126573287Y-125097005D01*
X126573277Y-125097001D01*
X126570353Y-125095742D01*
X126199259Y-124978736D01*
X125915492Y-124919971D01*
X125821364Y-124900478D01*
X125821361Y-124900478D01*
X125818239Y-124899831D01*
X125520415Y-124869054D01*
X125434353Y-124860160D01*
X125434350Y-124860160D01*
X125431197Y-124859834D01*
X125428031Y-124859828D01*
X125428022Y-124859828D01*
X125235916Y-124859493D01*
X125042093Y-124859155D01*
X124849120Y-124878416D01*
X124658086Y-124897484D01*
X124658080Y-124897485D01*
X124654913Y-124897801D01*
X124545943Y-124919971D01*
X124276746Y-124974739D01*
X124276742Y-124974740D01*
X124273621Y-124975375D01*
X124270579Y-124976322D01*
X124270573Y-124976324D01*
X124087871Y-125033230D01*
X123902120Y-125091085D01*
X123899180Y-125092339D01*
X123547151Y-125242492D01*
X123547147Y-125242494D01*
X123544214Y-125243745D01*
X123541427Y-125245284D01*
X123541426Y-125245284D01*
X123533517Y-125249650D01*
X123203567Y-125431792D01*
X123200946Y-125433607D01*
X123200941Y-125433610D01*
X123185220Y-125444496D01*
X122883668Y-125653301D01*
X122881240Y-125655375D01*
X122881237Y-125655377D01*
X122780769Y-125741185D01*
X122587791Y-125906004D01*
X122585591Y-125908306D01*
X122585588Y-125908309D01*
X122470829Y-126028397D01*
X122318966Y-126187313D01*
X122317009Y-126189827D01*
X122317008Y-126189828D01*
X122083812Y-126489382D01*
X122079945Y-126494349D01*
X122078249Y-126497053D01*
X122078246Y-126497057D01*
X121948708Y-126703559D01*
X121873176Y-126823967D01*
X121700775Y-127172793D01*
X121564508Y-127537256D01*
X121465770Y-127913624D01*
X121465277Y-127916773D01*
X121465275Y-127916782D01*
X121462053Y-127937360D01*
X121405572Y-128298042D01*
X121384529Y-128686577D01*
X121384679Y-128689758D01*
X121396772Y-128946172D01*
X121402859Y-129075249D01*
X121403330Y-129078402D01*
X121403331Y-129078410D01*
X121415653Y-129160855D01*
X121460372Y-129460079D01*
X121461158Y-129463161D01*
X121461158Y-129463163D01*
X121485230Y-129557599D01*
X121556480Y-129837126D01*
X121690199Y-130202532D01*
X121691591Y-130205398D01*
X121749307Y-130324260D01*
X121761070Y-130394275D01*
X121733111Y-130459535D01*
X121674309Y-130499320D01*
X121603333Y-130500998D01*
X121542327Y-130463607D01*
X121331937Y-130229945D01*
X121328488Y-130225950D01*
X120720464Y-129490975D01*
X120717186Y-129486840D01*
X120694484Y-129456931D01*
X120140469Y-128727043D01*
X120137385Y-128722798D01*
X119592980Y-127939501D01*
X119590070Y-127935120D01*
X119586776Y-127929928D01*
X119232636Y-127371893D01*
X119078975Y-127129762D01*
X119076241Y-127125248D01*
X118599311Y-126299182D01*
X118596768Y-126294557D01*
X118154838Y-125449223D01*
X118152492Y-125444496D01*
X117746367Y-124581435D01*
X117744220Y-124576614D01*
X117645420Y-124341579D01*
X117436234Y-123843946D01*
X129354493Y-123843946D01*
X129355657Y-123852848D01*
X129355657Y-123852851D01*
X129371547Y-123974363D01*
X129372711Y-123983262D01*
X129429297Y-124111864D01*
X129435074Y-124118737D01*
X129435075Y-124118738D01*
X129485182Y-124178347D01*
X129519704Y-124219416D01*
X129636663Y-124297271D01*
X129645233Y-124299948D01*
X129645232Y-124299948D01*
X129745969Y-124331420D01*
X129770772Y-124339169D01*
X129779742Y-124339333D01*
X129779746Y-124339334D01*
X129844544Y-124340521D01*
X129911250Y-124341744D01*
X129968624Y-124326102D01*
X130038145Y-124307149D01*
X130038147Y-124307148D01*
X130046804Y-124304788D01*
X130166538Y-124231271D01*
X130260825Y-124127105D01*
X130322086Y-124000662D01*
X130345396Y-123862107D01*
X130345544Y-123850000D01*
X130325626Y-123710917D01*
X130267472Y-123583015D01*
X130175758Y-123476576D01*
X130168227Y-123471695D01*
X130168224Y-123471692D01*
X130065388Y-123405037D01*
X130065386Y-123405036D01*
X130057857Y-123400156D01*
X130049260Y-123397585D01*
X130049258Y-123397584D01*
X129969216Y-123373647D01*
X129923246Y-123359899D01*
X129914270Y-123359844D01*
X129914269Y-123359844D01*
X129855015Y-123359482D01*
X129782747Y-123359041D01*
X129647654Y-123397651D01*
X129528828Y-123472624D01*
X129435821Y-123577935D01*
X129376109Y-123705117D01*
X129374729Y-123713981D01*
X129374728Y-123713984D01*
X129357182Y-123826679D01*
X129354493Y-123843946D01*
X117436234Y-123843946D01*
X117374572Y-123697259D01*
X117372636Y-123692369D01*
X117364995Y-123671821D01*
X117040137Y-122798303D01*
X117038405Y-122793329D01*
X116743648Y-121886158D01*
X116742123Y-121881106D01*
X116485615Y-120962398D01*
X116484302Y-120957286D01*
X116266483Y-120028610D01*
X116265386Y-120023448D01*
X116160648Y-119474393D01*
X116086646Y-119086463D01*
X116085770Y-119081281D01*
X115946425Y-118137640D01*
X115945766Y-118132426D01*
X115941581Y-118092602D01*
X115898364Y-117681419D01*
X115897674Y-117668249D01*
X115897674Y-116400000D01*
X119249170Y-116400000D01*
X119270328Y-116519991D01*
X119331249Y-116625509D01*
X119339690Y-116632592D01*
X119339691Y-116632593D01*
X119364998Y-116653828D01*
X119424585Y-116703828D01*
X119539079Y-116745500D01*
X119660921Y-116745500D01*
X119775415Y-116703828D01*
X119835002Y-116653828D01*
X119860309Y-116632593D01*
X119860310Y-116632592D01*
X119868751Y-116625509D01*
X119929672Y-116519991D01*
X119950830Y-116400000D01*
X119929672Y-116280009D01*
X119868751Y-116174491D01*
X119788794Y-116107398D01*
X119783861Y-116103259D01*
X119775415Y-116096172D01*
X119660921Y-116054500D01*
X119539079Y-116054500D01*
X119424585Y-116096172D01*
X119416139Y-116103259D01*
X119411207Y-116107398D01*
X119331249Y-116174491D01*
X119270328Y-116280009D01*
X119249170Y-116400000D01*
X115897674Y-116400000D01*
X115897674Y-115075871D01*
X115917676Y-115007750D01*
X115971332Y-114961257D01*
X116023544Y-114949871D01*
X119325059Y-114946475D01*
X119393201Y-114966407D01*
X119439749Y-115020015D01*
X119449275Y-115050594D01*
X119470328Y-115169991D01*
X119531249Y-115275509D01*
X119624585Y-115353828D01*
X119739079Y-115395500D01*
X119860921Y-115395500D01*
X119975415Y-115353828D01*
X120068751Y-115275509D01*
X120129672Y-115169991D01*
X120150830Y-115050000D01*
X120155012Y-115050737D01*
X120168918Y-115003378D01*
X120222574Y-114956885D01*
X120274786Y-114945499D01*
X124256876Y-114941403D01*
X124721182Y-114940925D01*
X124789324Y-114960857D01*
X124835872Y-115014465D01*
X124847311Y-115067285D01*
X124846368Y-115395500D01*
X124844714Y-115970888D01*
X124824517Y-116038951D01*
X124799707Y-116067047D01*
X124731249Y-116124491D01*
X124670328Y-116230009D01*
X124649170Y-116350000D01*
X124670328Y-116469991D01*
X124731249Y-116575509D01*
X124797532Y-116631128D01*
X124836858Y-116690236D01*
X124842539Y-116728010D01*
X124835367Y-119224363D01*
X124832420Y-120250000D01*
X129106166Y-120250000D01*
X129174287Y-120270002D01*
X129200537Y-120292513D01*
X133497674Y-125150000D01*
X135097674Y-125700000D01*
X135105383Y-125700661D01*
X135105384Y-125700661D01*
X138591514Y-125999472D01*
X138597674Y-126000000D01*
X138603821Y-125999317D01*
X138603822Y-125999317D01*
X141294948Y-125700303D01*
X141294951Y-125700303D01*
X141297674Y-125700000D01*
X141300356Y-125699464D01*
X141300360Y-125699463D01*
X142252194Y-125509096D01*
X143297674Y-125300000D01*
X144997674Y-124300000D01*
X147534463Y-121951121D01*
X147686642Y-121810215D01*
X147697674Y-121800000D01*
X147706860Y-121774740D01*
X147879326Y-121300456D01*
X147915856Y-121200000D01*
X151974556Y-121200000D01*
X151976470Y-121210855D01*
X151990566Y-121290793D01*
X151994183Y-121311308D01*
X152050695Y-121409191D01*
X152059142Y-121416279D01*
X152122634Y-121469555D01*
X152137278Y-121481843D01*
X152147634Y-121485612D01*
X152147637Y-121485614D01*
X152228447Y-121515026D01*
X152243487Y-121520500D01*
X152356513Y-121520500D01*
X152371553Y-121515026D01*
X152452363Y-121485614D01*
X152452366Y-121485612D01*
X152462722Y-121481843D01*
X152471167Y-121474756D01*
X152480711Y-121469246D01*
X152481725Y-121471001D01*
X152534054Y-121448102D01*
X152604159Y-121459322D01*
X152622353Y-121471015D01*
X152628832Y-121474756D01*
X152637278Y-121481843D01*
X152647634Y-121485612D01*
X152647637Y-121485614D01*
X152728447Y-121515026D01*
X152743487Y-121520500D01*
X152856513Y-121520500D01*
X152871553Y-121515026D01*
X152952363Y-121485614D01*
X152952366Y-121485612D01*
X152962722Y-121481843D01*
X152971167Y-121474756D01*
X152980711Y-121469246D01*
X152981725Y-121471001D01*
X153034054Y-121448102D01*
X153104159Y-121459322D01*
X153122353Y-121471015D01*
X153128832Y-121474756D01*
X153137278Y-121481843D01*
X153147634Y-121485612D01*
X153147637Y-121485614D01*
X153228447Y-121515026D01*
X153243487Y-121520500D01*
X153356513Y-121520500D01*
X153371553Y-121515026D01*
X153452363Y-121485614D01*
X153452366Y-121485612D01*
X153462722Y-121481843D01*
X153471167Y-121474756D01*
X153480711Y-121469246D01*
X153481725Y-121471001D01*
X153534054Y-121448102D01*
X153604159Y-121459322D01*
X153622353Y-121471015D01*
X153628832Y-121474756D01*
X153637278Y-121481843D01*
X153647634Y-121485612D01*
X153647637Y-121485614D01*
X153728447Y-121515026D01*
X153743487Y-121520500D01*
X153856513Y-121520500D01*
X153871553Y-121515026D01*
X153952363Y-121485614D01*
X153952366Y-121485612D01*
X153962722Y-121481843D01*
X153971167Y-121474756D01*
X153980711Y-121469246D01*
X153981577Y-121470746D01*
X154034845Y-121447430D01*
X154104950Y-121458643D01*
X154118846Y-121467574D01*
X154118864Y-121467543D01*
X154128408Y-121473053D01*
X154136853Y-121480140D01*
X154147209Y-121483909D01*
X154147212Y-121483911D01*
X154232701Y-121515026D01*
X154243062Y-121518797D01*
X154356088Y-121518797D01*
X154366449Y-121515026D01*
X154451938Y-121483911D01*
X154451941Y-121483909D01*
X154462297Y-121480140D01*
X154470742Y-121473053D01*
X154480286Y-121467543D01*
X154481448Y-121469555D01*
X154532829Y-121447072D01*
X154602933Y-121458293D01*
X154626043Y-121473146D01*
X154628833Y-121474757D01*
X154637278Y-121481843D01*
X154647634Y-121485612D01*
X154647637Y-121485614D01*
X154728447Y-121515026D01*
X154743487Y-121520500D01*
X154856513Y-121520500D01*
X154859280Y-121519493D01*
X154924892Y-121526811D01*
X154979995Y-121571579D01*
X154994612Y-121599933D01*
X154994796Y-121600439D01*
X154996710Y-121611292D01*
X155053222Y-121709175D01*
X155139805Y-121781827D01*
X155150161Y-121785596D01*
X155150164Y-121785598D01*
X155217800Y-121810215D01*
X155246014Y-121820484D01*
X155359040Y-121820484D01*
X155387254Y-121810215D01*
X155454890Y-121785598D01*
X155454893Y-121785596D01*
X155465249Y-121781827D01*
X155551832Y-121709175D01*
X155608344Y-121611292D01*
X155611493Y-121593434D01*
X155643019Y-121529821D01*
X155703932Y-121493350D01*
X155778674Y-121496910D01*
X155788494Y-121500484D01*
X155843487Y-121520500D01*
X155956513Y-121520500D01*
X155971553Y-121515026D01*
X156052363Y-121485614D01*
X156052366Y-121485612D01*
X156062722Y-121481843D01*
X156077366Y-121469555D01*
X156140858Y-121416279D01*
X156149305Y-121409191D01*
X156205817Y-121311308D01*
X156209435Y-121290793D01*
X156223530Y-121210855D01*
X156225444Y-121200000D01*
X156222101Y-121181043D01*
X156207731Y-121099544D01*
X156207730Y-121099542D01*
X156205817Y-121088692D01*
X156149305Y-120990809D01*
X156077735Y-120930754D01*
X156071168Y-120925244D01*
X156062722Y-120918157D01*
X156052366Y-120914388D01*
X156052363Y-120914386D01*
X155966874Y-120883271D01*
X155966873Y-120883271D01*
X155956513Y-120879500D01*
X155843487Y-120879500D01*
X155833127Y-120883271D01*
X155833126Y-120883271D01*
X155747637Y-120914386D01*
X155747634Y-120914388D01*
X155737278Y-120918157D01*
X155728832Y-120925244D01*
X155722266Y-120930754D01*
X155650695Y-120990809D01*
X155594183Y-121088692D01*
X155592270Y-121099543D01*
X155592269Y-121099545D01*
X155591034Y-121106550D01*
X155559508Y-121170163D01*
X155498595Y-121206634D01*
X155423853Y-121203074D01*
X155369401Y-121183255D01*
X155369400Y-121183255D01*
X155359040Y-121179484D01*
X155246014Y-121179484D01*
X155243247Y-121180491D01*
X155177635Y-121173173D01*
X155122532Y-121128405D01*
X155107915Y-121100051D01*
X155107731Y-121099544D01*
X155105817Y-121088692D01*
X155049305Y-120990809D01*
X154977735Y-120930754D01*
X154971168Y-120925244D01*
X154962722Y-120918157D01*
X154952366Y-120914388D01*
X154952363Y-120914386D01*
X154866874Y-120883271D01*
X154866873Y-120883271D01*
X154856513Y-120879500D01*
X154743487Y-120879500D01*
X154733127Y-120883271D01*
X154733126Y-120883271D01*
X154647637Y-120914386D01*
X154647634Y-120914388D01*
X154637278Y-120918157D01*
X154628833Y-120925244D01*
X154619289Y-120930754D01*
X154618127Y-120928742D01*
X154566746Y-120951225D01*
X154496642Y-120940004D01*
X154473532Y-120925151D01*
X154470742Y-120923540D01*
X154462297Y-120916454D01*
X154451941Y-120912685D01*
X154451938Y-120912683D01*
X154366449Y-120881568D01*
X154366448Y-120881568D01*
X154356088Y-120877797D01*
X154243062Y-120877797D01*
X154232702Y-120881568D01*
X154232701Y-120881568D01*
X154147212Y-120912683D01*
X154147209Y-120912685D01*
X154136853Y-120916454D01*
X154128408Y-120923541D01*
X154118864Y-120929051D01*
X154117998Y-120927551D01*
X154064730Y-120950867D01*
X153994625Y-120939654D01*
X153980729Y-120930723D01*
X153980711Y-120930754D01*
X153971167Y-120925244D01*
X153962722Y-120918157D01*
X153952366Y-120914388D01*
X153952363Y-120914386D01*
X153866874Y-120883271D01*
X153866873Y-120883271D01*
X153856513Y-120879500D01*
X153743487Y-120879500D01*
X153733127Y-120883271D01*
X153733126Y-120883271D01*
X153647637Y-120914386D01*
X153647634Y-120914388D01*
X153637278Y-120918157D01*
X153628833Y-120925244D01*
X153619289Y-120930754D01*
X153618275Y-120928999D01*
X153565946Y-120951898D01*
X153495841Y-120940678D01*
X153477647Y-120928985D01*
X153471168Y-120925244D01*
X153462722Y-120918157D01*
X153452366Y-120914388D01*
X153452363Y-120914386D01*
X153366874Y-120883271D01*
X153366873Y-120883271D01*
X153356513Y-120879500D01*
X153243487Y-120879500D01*
X153233127Y-120883271D01*
X153233126Y-120883271D01*
X153147637Y-120914386D01*
X153147634Y-120914388D01*
X153137278Y-120918157D01*
X153128833Y-120925244D01*
X153119289Y-120930754D01*
X153118275Y-120928999D01*
X153065946Y-120951898D01*
X152995841Y-120940678D01*
X152977647Y-120928985D01*
X152971168Y-120925244D01*
X152962722Y-120918157D01*
X152952366Y-120914388D01*
X152952363Y-120914386D01*
X152866874Y-120883271D01*
X152866873Y-120883271D01*
X152856513Y-120879500D01*
X152743487Y-120879500D01*
X152733127Y-120883271D01*
X152733126Y-120883271D01*
X152647637Y-120914386D01*
X152647634Y-120914388D01*
X152637278Y-120918157D01*
X152628833Y-120925244D01*
X152619289Y-120930754D01*
X152618275Y-120928999D01*
X152565946Y-120951898D01*
X152495841Y-120940678D01*
X152477647Y-120928985D01*
X152471168Y-120925244D01*
X152462722Y-120918157D01*
X152452366Y-120914388D01*
X152452363Y-120914386D01*
X152366874Y-120883271D01*
X152366873Y-120883271D01*
X152356513Y-120879500D01*
X152243487Y-120879500D01*
X152233127Y-120883271D01*
X152233126Y-120883271D01*
X152147637Y-120914386D01*
X152147634Y-120914388D01*
X152137278Y-120918157D01*
X152128832Y-120925244D01*
X152122266Y-120930754D01*
X152050695Y-120990809D01*
X151994183Y-121088692D01*
X151992270Y-121099542D01*
X151992269Y-121099544D01*
X151977899Y-121181043D01*
X151974556Y-121200000D01*
X147915856Y-121200000D01*
X148097674Y-120700000D01*
X148097674Y-119093946D01*
X157254493Y-119093946D01*
X157255657Y-119102848D01*
X157255657Y-119102851D01*
X157257495Y-119116903D01*
X157272711Y-119233262D01*
X157329297Y-119361864D01*
X157335074Y-119368737D01*
X157335075Y-119368738D01*
X157342108Y-119377105D01*
X157419704Y-119469416D01*
X157536663Y-119547271D01*
X157670772Y-119589169D01*
X157679742Y-119589333D01*
X157679746Y-119589334D01*
X157744544Y-119590521D01*
X157811250Y-119591744D01*
X157889716Y-119570352D01*
X157938145Y-119557149D01*
X157938147Y-119557148D01*
X157946804Y-119554788D01*
X158066538Y-119481271D01*
X158160825Y-119377105D01*
X158222086Y-119250662D01*
X158245396Y-119112107D01*
X158245544Y-119100000D01*
X158225626Y-118960917D01*
X158167472Y-118833015D01*
X158075758Y-118726576D01*
X158068227Y-118721695D01*
X158068224Y-118721692D01*
X157965388Y-118655037D01*
X157965386Y-118655036D01*
X157957857Y-118650156D01*
X157949260Y-118647585D01*
X157949258Y-118647584D01*
X157869216Y-118623647D01*
X157823246Y-118609899D01*
X157814270Y-118609844D01*
X157814269Y-118609844D01*
X157755015Y-118609482D01*
X157682747Y-118609041D01*
X157547654Y-118647651D01*
X157428828Y-118722624D01*
X157335821Y-118827935D01*
X157276109Y-118955117D01*
X157274729Y-118963981D01*
X157274728Y-118963984D01*
X157273822Y-118969807D01*
X157254493Y-119093946D01*
X148097674Y-119093946D01*
X148097674Y-118200000D01*
X150954247Y-118200000D01*
X150975098Y-118318254D01*
X151035138Y-118422246D01*
X151127123Y-118499431D01*
X151137481Y-118503201D01*
X151137483Y-118503202D01*
X151185162Y-118520555D01*
X151239961Y-118540500D01*
X151360039Y-118540500D01*
X151414838Y-118520555D01*
X151462517Y-118503202D01*
X151462519Y-118503201D01*
X151472877Y-118499431D01*
X151564862Y-118422246D01*
X151624902Y-118318254D01*
X151645753Y-118200000D01*
X152054247Y-118200000D01*
X152075098Y-118318254D01*
X152135138Y-118422246D01*
X152227123Y-118499431D01*
X152237481Y-118503201D01*
X152237483Y-118503202D01*
X152285162Y-118520555D01*
X152339961Y-118540500D01*
X152460039Y-118540500D01*
X152514838Y-118520555D01*
X152562517Y-118503202D01*
X152562519Y-118503201D01*
X152572877Y-118499431D01*
X152664862Y-118422246D01*
X152724902Y-118318254D01*
X152745753Y-118200000D01*
X153154247Y-118200000D01*
X153175098Y-118318254D01*
X153235138Y-118422246D01*
X153327123Y-118499431D01*
X153337481Y-118503201D01*
X153337483Y-118503202D01*
X153385162Y-118520555D01*
X153439961Y-118540500D01*
X153560039Y-118540500D01*
X153614838Y-118520555D01*
X153662517Y-118503202D01*
X153662519Y-118503201D01*
X153672877Y-118499431D01*
X153764862Y-118422246D01*
X153824902Y-118318254D01*
X153845753Y-118200000D01*
X154254247Y-118200000D01*
X154275098Y-118318254D01*
X154335138Y-118422246D01*
X154427123Y-118499431D01*
X154437481Y-118503201D01*
X154437483Y-118503202D01*
X154485162Y-118520555D01*
X154539961Y-118540500D01*
X154660039Y-118540500D01*
X154714838Y-118520555D01*
X154762517Y-118503202D01*
X154762519Y-118503201D01*
X154772877Y-118499431D01*
X154864862Y-118422246D01*
X154924902Y-118318254D01*
X154945753Y-118200000D01*
X155354247Y-118200000D01*
X155375098Y-118318254D01*
X155435138Y-118422246D01*
X155527123Y-118499431D01*
X155537481Y-118503201D01*
X155537483Y-118503202D01*
X155585162Y-118520555D01*
X155639961Y-118540500D01*
X155760039Y-118540500D01*
X155814838Y-118520555D01*
X155862517Y-118503202D01*
X155862519Y-118503201D01*
X155872877Y-118499431D01*
X155964862Y-118422246D01*
X156024902Y-118318254D01*
X156045753Y-118200000D01*
X156454247Y-118200000D01*
X156475098Y-118318254D01*
X156535138Y-118422246D01*
X156627123Y-118499431D01*
X156637481Y-118503201D01*
X156637483Y-118503202D01*
X156685162Y-118520555D01*
X156739961Y-118540500D01*
X156860039Y-118540500D01*
X156914838Y-118520555D01*
X156962517Y-118503202D01*
X156962519Y-118503201D01*
X156972877Y-118499431D01*
X157064862Y-118422246D01*
X157124902Y-118318254D01*
X157145753Y-118200000D01*
X157124902Y-118081746D01*
X157064862Y-117977754D01*
X156972877Y-117900569D01*
X156962519Y-117896799D01*
X156962517Y-117896798D01*
X156909015Y-117877325D01*
X156860039Y-117859500D01*
X156739961Y-117859500D01*
X156627124Y-117900569D01*
X156535138Y-117977754D01*
X156475098Y-118081746D01*
X156454247Y-118200000D01*
X156045753Y-118200000D01*
X156024902Y-118081746D01*
X155964862Y-117977754D01*
X155872877Y-117900569D01*
X155862519Y-117896799D01*
X155862517Y-117896798D01*
X155809015Y-117877325D01*
X155760039Y-117859500D01*
X155639961Y-117859500D01*
X155527124Y-117900569D01*
X155435138Y-117977754D01*
X155375098Y-118081746D01*
X155354247Y-118200000D01*
X154945753Y-118200000D01*
X154924902Y-118081746D01*
X154864862Y-117977754D01*
X154772877Y-117900569D01*
X154762519Y-117896799D01*
X154762517Y-117896798D01*
X154709015Y-117877325D01*
X154660039Y-117859500D01*
X154539961Y-117859500D01*
X154427124Y-117900569D01*
X154335138Y-117977754D01*
X154275098Y-118081746D01*
X154254247Y-118200000D01*
X153845753Y-118200000D01*
X153824902Y-118081746D01*
X153764862Y-117977754D01*
X153672877Y-117900569D01*
X153662519Y-117896799D01*
X153662517Y-117896798D01*
X153609015Y-117877325D01*
X153560039Y-117859500D01*
X153439961Y-117859500D01*
X153327124Y-117900569D01*
X153235138Y-117977754D01*
X153175098Y-118081746D01*
X153154247Y-118200000D01*
X152745753Y-118200000D01*
X152724902Y-118081746D01*
X152664862Y-117977754D01*
X152572877Y-117900569D01*
X152562519Y-117896799D01*
X152562517Y-117896798D01*
X152509015Y-117877325D01*
X152460039Y-117859500D01*
X152339961Y-117859500D01*
X152227124Y-117900569D01*
X152135138Y-117977754D01*
X152075098Y-118081746D01*
X152054247Y-118200000D01*
X151645753Y-118200000D01*
X151624902Y-118081746D01*
X151564862Y-117977754D01*
X151472877Y-117900569D01*
X151462519Y-117896799D01*
X151462517Y-117896798D01*
X151409015Y-117877325D01*
X151360039Y-117859500D01*
X151239961Y-117859500D01*
X151127124Y-117900569D01*
X151035138Y-117977754D01*
X150975098Y-118081746D01*
X150954247Y-118200000D01*
X148097674Y-118200000D01*
X148097674Y-117100000D01*
X150954247Y-117100000D01*
X150975098Y-117218254D01*
X151035138Y-117322246D01*
X151127123Y-117399431D01*
X151137481Y-117403201D01*
X151137483Y-117403202D01*
X151190985Y-117422675D01*
X151239961Y-117440500D01*
X151360039Y-117440500D01*
X151409015Y-117422675D01*
X151462517Y-117403202D01*
X151462519Y-117403201D01*
X151472877Y-117399431D01*
X151564862Y-117322246D01*
X151624902Y-117218254D01*
X151645753Y-117100000D01*
X152054247Y-117100000D01*
X152075098Y-117218254D01*
X152135138Y-117322246D01*
X152227123Y-117399431D01*
X152237481Y-117403201D01*
X152237483Y-117403202D01*
X152290985Y-117422675D01*
X152339961Y-117440500D01*
X152460039Y-117440500D01*
X152509015Y-117422675D01*
X152562517Y-117403202D01*
X152562519Y-117403201D01*
X152572877Y-117399431D01*
X152664862Y-117322246D01*
X152724902Y-117218254D01*
X152745753Y-117100000D01*
X153154247Y-117100000D01*
X153175098Y-117218254D01*
X153235138Y-117322246D01*
X153327123Y-117399431D01*
X153337481Y-117403201D01*
X153337483Y-117403202D01*
X153390985Y-117422675D01*
X153439961Y-117440500D01*
X153560039Y-117440500D01*
X153609015Y-117422675D01*
X153662517Y-117403202D01*
X153662519Y-117403201D01*
X153672877Y-117399431D01*
X153764862Y-117322246D01*
X153824902Y-117218254D01*
X153845753Y-117100000D01*
X154254247Y-117100000D01*
X154275098Y-117218254D01*
X154335138Y-117322246D01*
X154427123Y-117399431D01*
X154437481Y-117403201D01*
X154437483Y-117403202D01*
X154490985Y-117422675D01*
X154539961Y-117440500D01*
X154660039Y-117440500D01*
X154709015Y-117422675D01*
X154762517Y-117403202D01*
X154762519Y-117403201D01*
X154772877Y-117399431D01*
X154864862Y-117322246D01*
X154924902Y-117218254D01*
X154945753Y-117100000D01*
X155354247Y-117100000D01*
X155375098Y-117218254D01*
X155435138Y-117322246D01*
X155527123Y-117399431D01*
X155537481Y-117403201D01*
X155537483Y-117403202D01*
X155590985Y-117422675D01*
X155639961Y-117440500D01*
X155760039Y-117440500D01*
X155809015Y-117422675D01*
X155862517Y-117403202D01*
X155862519Y-117403201D01*
X155872877Y-117399431D01*
X155964862Y-117322246D01*
X156024902Y-117218254D01*
X156045753Y-117100000D01*
X156454247Y-117100000D01*
X156475098Y-117218254D01*
X156535138Y-117322246D01*
X156627123Y-117399431D01*
X156637481Y-117403201D01*
X156637483Y-117403202D01*
X156690985Y-117422675D01*
X156739961Y-117440500D01*
X156860039Y-117440500D01*
X156909015Y-117422675D01*
X156962517Y-117403202D01*
X156962519Y-117403201D01*
X156972877Y-117399431D01*
X157064862Y-117322246D01*
X157124902Y-117218254D01*
X157145753Y-117100000D01*
X157124902Y-116981746D01*
X157079916Y-116903828D01*
X157070375Y-116887302D01*
X157070374Y-116887300D01*
X157064862Y-116877754D01*
X157053336Y-116868082D01*
X156981323Y-116807656D01*
X156972877Y-116800569D01*
X156962519Y-116796799D01*
X156962517Y-116796798D01*
X156909015Y-116777325D01*
X156860039Y-116759500D01*
X156739961Y-116759500D01*
X156627124Y-116800569D01*
X156535138Y-116877754D01*
X156529626Y-116887300D01*
X156529625Y-116887302D01*
X156520084Y-116903828D01*
X156475098Y-116981746D01*
X156454247Y-117100000D01*
X156045753Y-117100000D01*
X156024902Y-116981746D01*
X155979916Y-116903828D01*
X155970375Y-116887302D01*
X155970374Y-116887300D01*
X155964862Y-116877754D01*
X155953336Y-116868082D01*
X155881323Y-116807656D01*
X155872877Y-116800569D01*
X155862519Y-116796799D01*
X155862517Y-116796798D01*
X155809015Y-116777325D01*
X155760039Y-116759500D01*
X155639961Y-116759500D01*
X155527124Y-116800569D01*
X155435138Y-116877754D01*
X155429626Y-116887300D01*
X155429625Y-116887302D01*
X155420084Y-116903828D01*
X155375098Y-116981746D01*
X155354247Y-117100000D01*
X154945753Y-117100000D01*
X154924902Y-116981746D01*
X154879916Y-116903828D01*
X154870375Y-116887302D01*
X154870374Y-116887300D01*
X154864862Y-116877754D01*
X154853336Y-116868082D01*
X154781323Y-116807656D01*
X154772877Y-116800569D01*
X154762519Y-116796799D01*
X154762517Y-116796798D01*
X154709015Y-116777325D01*
X154660039Y-116759500D01*
X154539961Y-116759500D01*
X154427124Y-116800569D01*
X154335138Y-116877754D01*
X154329626Y-116887300D01*
X154329625Y-116887302D01*
X154320084Y-116903828D01*
X154275098Y-116981746D01*
X154254247Y-117100000D01*
X153845753Y-117100000D01*
X153824902Y-116981746D01*
X153779916Y-116903828D01*
X153770375Y-116887302D01*
X153770374Y-116887300D01*
X153764862Y-116877754D01*
X153753336Y-116868082D01*
X153681323Y-116807656D01*
X153672877Y-116800569D01*
X153662519Y-116796799D01*
X153662517Y-116796798D01*
X153609015Y-116777325D01*
X153560039Y-116759500D01*
X153439961Y-116759500D01*
X153327124Y-116800569D01*
X153235138Y-116877754D01*
X153229626Y-116887300D01*
X153229625Y-116887302D01*
X153220084Y-116903828D01*
X153175098Y-116981746D01*
X153154247Y-117100000D01*
X152745753Y-117100000D01*
X152724902Y-116981746D01*
X152679916Y-116903828D01*
X152670375Y-116887302D01*
X152670374Y-116887300D01*
X152664862Y-116877754D01*
X152653336Y-116868082D01*
X152581323Y-116807656D01*
X152572877Y-116800569D01*
X152562519Y-116796799D01*
X152562517Y-116796798D01*
X152509015Y-116777325D01*
X152460039Y-116759500D01*
X152339961Y-116759500D01*
X152227124Y-116800569D01*
X152135138Y-116877754D01*
X152129626Y-116887300D01*
X152129625Y-116887302D01*
X152120084Y-116903828D01*
X152075098Y-116981746D01*
X152054247Y-117100000D01*
X151645753Y-117100000D01*
X151624902Y-116981746D01*
X151579916Y-116903828D01*
X151570375Y-116887302D01*
X151570374Y-116887300D01*
X151564862Y-116877754D01*
X151553336Y-116868082D01*
X151481323Y-116807656D01*
X151472877Y-116800569D01*
X151462519Y-116796799D01*
X151462517Y-116796798D01*
X151409015Y-116777325D01*
X151360039Y-116759500D01*
X151239961Y-116759500D01*
X151127124Y-116800569D01*
X151035138Y-116877754D01*
X151029626Y-116887300D01*
X151029625Y-116887302D01*
X151020084Y-116903828D01*
X150975098Y-116981746D01*
X150954247Y-117100000D01*
X148097674Y-117100000D01*
X148097674Y-116600000D01*
X159949170Y-116600000D01*
X159970328Y-116719991D01*
X160011513Y-116791325D01*
X160020942Y-116807656D01*
X160031249Y-116825509D01*
X160039690Y-116832592D01*
X160039691Y-116832593D01*
X160104890Y-116887302D01*
X160124585Y-116903828D01*
X160239079Y-116945500D01*
X160360921Y-116945500D01*
X160475415Y-116903828D01*
X160495110Y-116887302D01*
X160560309Y-116832593D01*
X160560310Y-116832592D01*
X160568751Y-116825509D01*
X160579059Y-116807656D01*
X160588487Y-116791325D01*
X160629672Y-116719991D01*
X160650830Y-116600000D01*
X160629672Y-116480009D01*
X160568751Y-116374491D01*
X160552501Y-116360855D01*
X160483861Y-116303259D01*
X160475415Y-116296172D01*
X160360921Y-116254500D01*
X160239079Y-116254500D01*
X160124585Y-116296172D01*
X160116139Y-116303259D01*
X160047500Y-116360855D01*
X160031249Y-116374491D01*
X159970328Y-116480009D01*
X159949170Y-116600000D01*
X148097674Y-116600000D01*
X148097674Y-116000000D01*
X150954247Y-116000000D01*
X150975098Y-116118254D01*
X150980610Y-116127801D01*
X151007567Y-116174491D01*
X151035138Y-116222246D01*
X151043585Y-116229334D01*
X151057328Y-116240866D01*
X151127123Y-116299431D01*
X151137481Y-116303201D01*
X151137483Y-116303202D01*
X151190985Y-116322675D01*
X151239961Y-116340500D01*
X151360039Y-116340500D01*
X151409015Y-116322675D01*
X151462517Y-116303202D01*
X151462519Y-116303201D01*
X151472877Y-116299431D01*
X151542672Y-116240866D01*
X151556415Y-116229334D01*
X151564862Y-116222246D01*
X151592434Y-116174491D01*
X151619390Y-116127801D01*
X151624902Y-116118254D01*
X151645753Y-116000000D01*
X152054247Y-116000000D01*
X152075098Y-116118254D01*
X152080610Y-116127801D01*
X152107567Y-116174491D01*
X152135138Y-116222246D01*
X152143585Y-116229334D01*
X152157328Y-116240866D01*
X152227123Y-116299431D01*
X152237481Y-116303201D01*
X152237483Y-116303202D01*
X152290985Y-116322675D01*
X152339961Y-116340500D01*
X152460039Y-116340500D01*
X152509015Y-116322675D01*
X152562517Y-116303202D01*
X152562519Y-116303201D01*
X152572877Y-116299431D01*
X152642672Y-116240866D01*
X152656415Y-116229334D01*
X152664862Y-116222246D01*
X152692434Y-116174491D01*
X152719390Y-116127801D01*
X152724902Y-116118254D01*
X152745753Y-116000000D01*
X153154247Y-116000000D01*
X153175098Y-116118254D01*
X153180610Y-116127801D01*
X153207567Y-116174491D01*
X153235138Y-116222246D01*
X153243585Y-116229334D01*
X153257328Y-116240866D01*
X153327123Y-116299431D01*
X153337481Y-116303201D01*
X153337483Y-116303202D01*
X153390985Y-116322675D01*
X153439961Y-116340500D01*
X153560039Y-116340500D01*
X153609015Y-116322675D01*
X153662517Y-116303202D01*
X153662519Y-116303201D01*
X153672877Y-116299431D01*
X153742672Y-116240866D01*
X153756415Y-116229334D01*
X153764862Y-116222246D01*
X153792434Y-116174491D01*
X153819390Y-116127801D01*
X153824902Y-116118254D01*
X153845753Y-116000000D01*
X154254247Y-116000000D01*
X154275098Y-116118254D01*
X154280610Y-116127801D01*
X154307567Y-116174491D01*
X154335138Y-116222246D01*
X154343585Y-116229334D01*
X154357328Y-116240866D01*
X154427123Y-116299431D01*
X154437481Y-116303201D01*
X154437483Y-116303202D01*
X154490985Y-116322675D01*
X154539961Y-116340500D01*
X154660039Y-116340500D01*
X154709015Y-116322675D01*
X154762517Y-116303202D01*
X154762519Y-116303201D01*
X154772877Y-116299431D01*
X154842672Y-116240866D01*
X154856415Y-116229334D01*
X154864862Y-116222246D01*
X154892434Y-116174491D01*
X154919390Y-116127801D01*
X154924902Y-116118254D01*
X154945753Y-116000000D01*
X155354247Y-116000000D01*
X155375098Y-116118254D01*
X155380610Y-116127801D01*
X155407567Y-116174491D01*
X155435138Y-116222246D01*
X155443585Y-116229334D01*
X155457328Y-116240866D01*
X155527123Y-116299431D01*
X155537481Y-116303201D01*
X155537483Y-116303202D01*
X155590985Y-116322675D01*
X155639961Y-116340500D01*
X155760039Y-116340500D01*
X155809015Y-116322675D01*
X155862517Y-116303202D01*
X155862519Y-116303201D01*
X155872877Y-116299431D01*
X155942672Y-116240866D01*
X155956415Y-116229334D01*
X155964862Y-116222246D01*
X155992434Y-116174491D01*
X156019390Y-116127801D01*
X156024902Y-116118254D01*
X156045753Y-116000000D01*
X156454247Y-116000000D01*
X156475098Y-116118254D01*
X156480610Y-116127801D01*
X156507567Y-116174491D01*
X156535138Y-116222246D01*
X156543585Y-116229334D01*
X156557328Y-116240866D01*
X156627123Y-116299431D01*
X156637481Y-116303201D01*
X156637483Y-116303202D01*
X156690985Y-116322675D01*
X156739961Y-116340500D01*
X156860039Y-116340500D01*
X156909015Y-116322675D01*
X156962517Y-116303202D01*
X156962519Y-116303201D01*
X156972877Y-116299431D01*
X157042672Y-116240866D01*
X157056415Y-116229334D01*
X157064862Y-116222246D01*
X157092434Y-116174491D01*
X157119390Y-116127801D01*
X157124902Y-116118254D01*
X157145753Y-116000000D01*
X157124902Y-115881746D01*
X157064862Y-115777754D01*
X156972877Y-115700569D01*
X156962519Y-115696799D01*
X156962517Y-115696798D01*
X156909015Y-115677325D01*
X156860039Y-115659500D01*
X156739961Y-115659500D01*
X156627124Y-115700569D01*
X156535138Y-115777754D01*
X156475098Y-115881746D01*
X156454247Y-116000000D01*
X156045753Y-116000000D01*
X156024902Y-115881746D01*
X155964862Y-115777754D01*
X155872877Y-115700569D01*
X155862519Y-115696799D01*
X155862517Y-115696798D01*
X155809015Y-115677325D01*
X155760039Y-115659500D01*
X155639961Y-115659500D01*
X155527124Y-115700569D01*
X155435138Y-115777754D01*
X155375098Y-115881746D01*
X155354247Y-116000000D01*
X154945753Y-116000000D01*
X154924902Y-115881746D01*
X154864862Y-115777754D01*
X154772877Y-115700569D01*
X154762519Y-115696799D01*
X154762517Y-115696798D01*
X154709015Y-115677325D01*
X154660039Y-115659500D01*
X154539961Y-115659500D01*
X154427124Y-115700569D01*
X154335138Y-115777754D01*
X154275098Y-115881746D01*
X154254247Y-116000000D01*
X153845753Y-116000000D01*
X153824902Y-115881746D01*
X153764862Y-115777754D01*
X153672877Y-115700569D01*
X153662519Y-115696799D01*
X153662517Y-115696798D01*
X153609015Y-115677325D01*
X153560039Y-115659500D01*
X153439961Y-115659500D01*
X153327124Y-115700569D01*
X153235138Y-115777754D01*
X153175098Y-115881746D01*
X153154247Y-116000000D01*
X152745753Y-116000000D01*
X152724902Y-115881746D01*
X152664862Y-115777754D01*
X152572877Y-115700569D01*
X152562519Y-115696799D01*
X152562517Y-115696798D01*
X152509015Y-115677325D01*
X152460039Y-115659500D01*
X152339961Y-115659500D01*
X152227124Y-115700569D01*
X152135138Y-115777754D01*
X152075098Y-115881746D01*
X152054247Y-116000000D01*
X151645753Y-116000000D01*
X151624902Y-115881746D01*
X151564862Y-115777754D01*
X151472877Y-115700569D01*
X151462519Y-115696799D01*
X151462517Y-115696798D01*
X151409015Y-115677325D01*
X151360039Y-115659500D01*
X151239961Y-115659500D01*
X151127124Y-115700569D01*
X151035138Y-115777754D01*
X150975098Y-115881746D01*
X150954247Y-116000000D01*
X148097674Y-116000000D01*
X148097674Y-114900000D01*
X150954247Y-114900000D01*
X150975098Y-115018254D01*
X151035138Y-115122246D01*
X151127123Y-115199431D01*
X151137481Y-115203201D01*
X151137483Y-115203202D01*
X151190985Y-115222675D01*
X151239961Y-115240500D01*
X151360039Y-115240500D01*
X151409015Y-115222675D01*
X151462517Y-115203202D01*
X151462519Y-115203201D01*
X151472877Y-115199431D01*
X151564862Y-115122246D01*
X151624902Y-115018254D01*
X151645753Y-114900000D01*
X152054247Y-114900000D01*
X152075098Y-115018254D01*
X152135138Y-115122246D01*
X152227123Y-115199431D01*
X152237481Y-115203201D01*
X152237483Y-115203202D01*
X152290985Y-115222675D01*
X152339961Y-115240500D01*
X152460039Y-115240500D01*
X152509015Y-115222675D01*
X152562517Y-115203202D01*
X152562519Y-115203201D01*
X152572877Y-115199431D01*
X152664862Y-115122246D01*
X152724902Y-115018254D01*
X152745753Y-114900000D01*
X153154247Y-114900000D01*
X153175098Y-115018254D01*
X153235138Y-115122246D01*
X153327123Y-115199431D01*
X153337481Y-115203201D01*
X153337483Y-115203202D01*
X153390985Y-115222675D01*
X153439961Y-115240500D01*
X153560039Y-115240500D01*
X153609015Y-115222675D01*
X153662517Y-115203202D01*
X153662519Y-115203201D01*
X153672877Y-115199431D01*
X153764862Y-115122246D01*
X153824902Y-115018254D01*
X153845753Y-114900000D01*
X154254247Y-114900000D01*
X154275098Y-115018254D01*
X154335138Y-115122246D01*
X154427123Y-115199431D01*
X154437481Y-115203201D01*
X154437483Y-115203202D01*
X154490985Y-115222675D01*
X154539961Y-115240500D01*
X154660039Y-115240500D01*
X154709015Y-115222675D01*
X154762517Y-115203202D01*
X154762519Y-115203201D01*
X154772877Y-115199431D01*
X154864862Y-115122246D01*
X154924902Y-115018254D01*
X154945753Y-114900000D01*
X155354247Y-114900000D01*
X155375098Y-115018254D01*
X155435138Y-115122246D01*
X155527123Y-115199431D01*
X155537481Y-115203201D01*
X155537483Y-115203202D01*
X155590985Y-115222675D01*
X155639961Y-115240500D01*
X155760039Y-115240500D01*
X155809015Y-115222675D01*
X155862517Y-115203202D01*
X155862519Y-115203201D01*
X155872877Y-115199431D01*
X155964862Y-115122246D01*
X156024902Y-115018254D01*
X156045753Y-114900000D01*
X156454247Y-114900000D01*
X156475098Y-115018254D01*
X156535138Y-115122246D01*
X156627123Y-115199431D01*
X156637481Y-115203201D01*
X156637483Y-115203202D01*
X156690985Y-115222675D01*
X156739961Y-115240500D01*
X156860039Y-115240500D01*
X156909015Y-115222675D01*
X156962517Y-115203202D01*
X156962519Y-115203201D01*
X156972877Y-115199431D01*
X157064862Y-115122246D01*
X157124902Y-115018254D01*
X157145753Y-114900000D01*
X157124902Y-114781746D01*
X157064862Y-114677754D01*
X156972877Y-114600569D01*
X156962519Y-114596799D01*
X156962517Y-114596798D01*
X156909015Y-114577325D01*
X156860039Y-114559500D01*
X156739961Y-114559500D01*
X156627124Y-114600569D01*
X156535138Y-114677754D01*
X156475098Y-114781746D01*
X156454247Y-114900000D01*
X156045753Y-114900000D01*
X156024902Y-114781746D01*
X155964862Y-114677754D01*
X155872877Y-114600569D01*
X155862519Y-114596799D01*
X155862517Y-114596798D01*
X155809015Y-114577325D01*
X155760039Y-114559500D01*
X155639961Y-114559500D01*
X155527124Y-114600569D01*
X155435138Y-114677754D01*
X155375098Y-114781746D01*
X155354247Y-114900000D01*
X154945753Y-114900000D01*
X154924902Y-114781746D01*
X154864862Y-114677754D01*
X154772877Y-114600569D01*
X154762519Y-114596799D01*
X154762517Y-114596798D01*
X154709015Y-114577325D01*
X154660039Y-114559500D01*
X154539961Y-114559500D01*
X154427124Y-114600569D01*
X154335138Y-114677754D01*
X154275098Y-114781746D01*
X154254247Y-114900000D01*
X153845753Y-114900000D01*
X153824902Y-114781746D01*
X153764862Y-114677754D01*
X153672877Y-114600569D01*
X153662519Y-114596799D01*
X153662517Y-114596798D01*
X153609015Y-114577325D01*
X153560039Y-114559500D01*
X153439961Y-114559500D01*
X153327124Y-114600569D01*
X153235138Y-114677754D01*
X153175098Y-114781746D01*
X153154247Y-114900000D01*
X152745753Y-114900000D01*
X152724902Y-114781746D01*
X152664862Y-114677754D01*
X152572877Y-114600569D01*
X152562519Y-114596799D01*
X152562517Y-114596798D01*
X152509015Y-114577325D01*
X152460039Y-114559500D01*
X152339961Y-114559500D01*
X152227124Y-114600569D01*
X152135138Y-114677754D01*
X152075098Y-114781746D01*
X152054247Y-114900000D01*
X151645753Y-114900000D01*
X151624902Y-114781746D01*
X151564862Y-114677754D01*
X151472877Y-114600569D01*
X151462519Y-114596799D01*
X151462517Y-114596798D01*
X151409015Y-114577325D01*
X151360039Y-114559500D01*
X151239961Y-114559500D01*
X151127124Y-114600569D01*
X151035138Y-114677754D01*
X150975098Y-114781746D01*
X150954247Y-114900000D01*
X148097674Y-114900000D01*
X148097674Y-113800000D01*
X150954247Y-113800000D01*
X150975098Y-113918254D01*
X151035138Y-114022246D01*
X151127123Y-114099431D01*
X151137481Y-114103201D01*
X151137483Y-114103202D01*
X151190985Y-114122675D01*
X151239961Y-114140500D01*
X151360039Y-114140500D01*
X151409015Y-114122675D01*
X151462517Y-114103202D01*
X151462519Y-114103201D01*
X151472877Y-114099431D01*
X151564862Y-114022246D01*
X151624902Y-113918254D01*
X151645753Y-113800000D01*
X152054247Y-113800000D01*
X152075098Y-113918254D01*
X152135138Y-114022246D01*
X152227123Y-114099431D01*
X152237481Y-114103201D01*
X152237483Y-114103202D01*
X152290985Y-114122675D01*
X152339961Y-114140500D01*
X152460039Y-114140500D01*
X152509015Y-114122675D01*
X152562517Y-114103202D01*
X152562519Y-114103201D01*
X152572877Y-114099431D01*
X152664862Y-114022246D01*
X152724902Y-113918254D01*
X152745753Y-113800000D01*
X153154247Y-113800000D01*
X153175098Y-113918254D01*
X153235138Y-114022246D01*
X153327123Y-114099431D01*
X153337481Y-114103201D01*
X153337483Y-114103202D01*
X153390985Y-114122675D01*
X153439961Y-114140500D01*
X153560039Y-114140500D01*
X153609015Y-114122675D01*
X153662517Y-114103202D01*
X153662519Y-114103201D01*
X153672877Y-114099431D01*
X153764862Y-114022246D01*
X153824902Y-113918254D01*
X153845753Y-113800000D01*
X154254247Y-113800000D01*
X154275098Y-113918254D01*
X154335138Y-114022246D01*
X154427123Y-114099431D01*
X154437481Y-114103201D01*
X154437483Y-114103202D01*
X154490985Y-114122675D01*
X154539961Y-114140500D01*
X154660039Y-114140500D01*
X154709015Y-114122675D01*
X154762517Y-114103202D01*
X154762519Y-114103201D01*
X154772877Y-114099431D01*
X154864862Y-114022246D01*
X154924902Y-113918254D01*
X154945753Y-113800000D01*
X155354247Y-113800000D01*
X155375098Y-113918254D01*
X155435138Y-114022246D01*
X155527123Y-114099431D01*
X155537481Y-114103201D01*
X155537483Y-114103202D01*
X155590985Y-114122675D01*
X155639961Y-114140500D01*
X155760039Y-114140500D01*
X155809015Y-114122675D01*
X155862517Y-114103202D01*
X155862519Y-114103201D01*
X155872877Y-114099431D01*
X155964862Y-114022246D01*
X156024902Y-113918254D01*
X156045753Y-113800000D01*
X156454247Y-113800000D01*
X156475098Y-113918254D01*
X156535138Y-114022246D01*
X156627123Y-114099431D01*
X156637481Y-114103201D01*
X156637483Y-114103202D01*
X156690985Y-114122675D01*
X156739961Y-114140500D01*
X156860039Y-114140500D01*
X156909015Y-114122675D01*
X156962517Y-114103202D01*
X156962519Y-114103201D01*
X156972877Y-114099431D01*
X157064862Y-114022246D01*
X157124902Y-113918254D01*
X157145753Y-113800000D01*
X157124902Y-113681746D01*
X157093834Y-113627935D01*
X157070375Y-113587302D01*
X157070374Y-113587300D01*
X157064862Y-113577754D01*
X156982974Y-113509041D01*
X156981323Y-113507656D01*
X156972877Y-113500569D01*
X156962519Y-113496799D01*
X156962517Y-113496798D01*
X156901227Y-113474491D01*
X156860039Y-113459500D01*
X156739961Y-113459500D01*
X156627124Y-113500569D01*
X156535138Y-113577754D01*
X156529626Y-113587300D01*
X156529625Y-113587302D01*
X156506166Y-113627935D01*
X156475098Y-113681746D01*
X156454247Y-113800000D01*
X156045753Y-113800000D01*
X156024902Y-113681746D01*
X155993834Y-113627935D01*
X155970375Y-113587302D01*
X155970374Y-113587300D01*
X155964862Y-113577754D01*
X155882974Y-113509041D01*
X155881323Y-113507656D01*
X155872877Y-113500569D01*
X155862519Y-113496799D01*
X155862517Y-113496798D01*
X155801227Y-113474491D01*
X155760039Y-113459500D01*
X155639961Y-113459500D01*
X155527124Y-113500569D01*
X155435138Y-113577754D01*
X155429626Y-113587300D01*
X155429625Y-113587302D01*
X155406166Y-113627935D01*
X155375098Y-113681746D01*
X155354247Y-113800000D01*
X154945753Y-113800000D01*
X154924902Y-113681746D01*
X154893834Y-113627935D01*
X154870375Y-113587302D01*
X154870374Y-113587300D01*
X154864862Y-113577754D01*
X154782974Y-113509041D01*
X154781323Y-113507656D01*
X154772877Y-113500569D01*
X154762519Y-113496799D01*
X154762517Y-113496798D01*
X154701227Y-113474491D01*
X154660039Y-113459500D01*
X154539961Y-113459500D01*
X154427124Y-113500569D01*
X154335138Y-113577754D01*
X154329626Y-113587300D01*
X154329625Y-113587302D01*
X154306166Y-113627935D01*
X154275098Y-113681746D01*
X154254247Y-113800000D01*
X153845753Y-113800000D01*
X153824902Y-113681746D01*
X153793834Y-113627935D01*
X153770375Y-113587302D01*
X153770374Y-113587300D01*
X153764862Y-113577754D01*
X153682974Y-113509041D01*
X153681323Y-113507656D01*
X153672877Y-113500569D01*
X153662519Y-113496799D01*
X153662517Y-113496798D01*
X153601227Y-113474491D01*
X153560039Y-113459500D01*
X153439961Y-113459500D01*
X153327124Y-113500569D01*
X153235138Y-113577754D01*
X153229626Y-113587300D01*
X153229625Y-113587302D01*
X153206166Y-113627935D01*
X153175098Y-113681746D01*
X153154247Y-113800000D01*
X152745753Y-113800000D01*
X152724902Y-113681746D01*
X152693834Y-113627935D01*
X152670375Y-113587302D01*
X152670374Y-113587300D01*
X152664862Y-113577754D01*
X152582974Y-113509041D01*
X152581323Y-113507656D01*
X152572877Y-113500569D01*
X152562519Y-113496799D01*
X152562517Y-113496798D01*
X152501227Y-113474491D01*
X152460039Y-113459500D01*
X152339961Y-113459500D01*
X152227124Y-113500569D01*
X152135138Y-113577754D01*
X152129626Y-113587300D01*
X152129625Y-113587302D01*
X152106166Y-113627935D01*
X152075098Y-113681746D01*
X152054247Y-113800000D01*
X151645753Y-113800000D01*
X151624902Y-113681746D01*
X151593834Y-113627935D01*
X151570375Y-113587302D01*
X151570374Y-113587300D01*
X151564862Y-113577754D01*
X151482974Y-113509041D01*
X151481323Y-113507656D01*
X151472877Y-113500569D01*
X151462519Y-113496799D01*
X151462517Y-113496798D01*
X151401227Y-113474491D01*
X151360039Y-113459500D01*
X151239961Y-113459500D01*
X151127124Y-113500569D01*
X151035138Y-113577754D01*
X151029626Y-113587300D01*
X151029625Y-113587302D01*
X151006166Y-113627935D01*
X150975098Y-113681746D01*
X150954247Y-113800000D01*
X148097674Y-113800000D01*
X148097674Y-113271500D01*
X148103987Y-113250000D01*
X160099170Y-113250000D01*
X160120328Y-113369991D01*
X160181249Y-113475509D01*
X160189690Y-113482592D01*
X160189691Y-113482593D01*
X160266139Y-113546741D01*
X160274585Y-113553828D01*
X160389079Y-113595500D01*
X160510921Y-113595500D01*
X160625415Y-113553828D01*
X160633861Y-113546741D01*
X160710309Y-113482593D01*
X160710310Y-113482592D01*
X160718751Y-113475509D01*
X160779672Y-113369991D01*
X160800830Y-113250000D01*
X160779672Y-113130009D01*
X160718751Y-113024491D01*
X160625415Y-112946172D01*
X160510921Y-112904500D01*
X160389079Y-112904500D01*
X160274585Y-112946172D01*
X160181249Y-113024491D01*
X160120328Y-113130009D01*
X160099170Y-113250000D01*
X148103987Y-113250000D01*
X148117676Y-113203379D01*
X148171332Y-113156886D01*
X148223674Y-113145500D01*
X148287488Y-113145500D01*
X148401982Y-113103828D01*
X148495318Y-113025509D01*
X148556239Y-112919991D01*
X148577397Y-112800000D01*
X148559764Y-112700000D01*
X150954247Y-112700000D01*
X150975098Y-112818254D01*
X150980610Y-112827801D01*
X151027568Y-112909134D01*
X151035138Y-112922246D01*
X151127123Y-112999431D01*
X151137481Y-113003201D01*
X151137483Y-113003202D01*
X151176512Y-113017407D01*
X151239961Y-113040500D01*
X151360039Y-113040500D01*
X151423488Y-113017407D01*
X151462517Y-113003202D01*
X151462519Y-113003201D01*
X151472877Y-112999431D01*
X151564862Y-112922246D01*
X151572433Y-112909134D01*
X151619390Y-112827801D01*
X151624902Y-112818254D01*
X151645753Y-112700000D01*
X152054247Y-112700000D01*
X152075098Y-112818254D01*
X152080610Y-112827801D01*
X152127568Y-112909134D01*
X152135138Y-112922246D01*
X152227123Y-112999431D01*
X152237481Y-113003201D01*
X152237483Y-113003202D01*
X152276512Y-113017407D01*
X152339961Y-113040500D01*
X152460039Y-113040500D01*
X152523488Y-113017407D01*
X152562517Y-113003202D01*
X152562519Y-113003201D01*
X152572877Y-112999431D01*
X152664862Y-112922246D01*
X152672433Y-112909134D01*
X152719390Y-112827801D01*
X152724902Y-112818254D01*
X152745753Y-112700000D01*
X153154247Y-112700000D01*
X153175098Y-112818254D01*
X153180610Y-112827801D01*
X153227568Y-112909134D01*
X153235138Y-112922246D01*
X153327123Y-112999431D01*
X153337481Y-113003201D01*
X153337483Y-113003202D01*
X153376512Y-113017407D01*
X153439961Y-113040500D01*
X153560039Y-113040500D01*
X153623488Y-113017407D01*
X153662517Y-113003202D01*
X153662519Y-113003201D01*
X153672877Y-112999431D01*
X153764862Y-112922246D01*
X153772433Y-112909134D01*
X153819390Y-112827801D01*
X153824902Y-112818254D01*
X153845753Y-112700000D01*
X154254247Y-112700000D01*
X154275098Y-112818254D01*
X154280610Y-112827801D01*
X154327568Y-112909134D01*
X154335138Y-112922246D01*
X154427123Y-112999431D01*
X154437481Y-113003201D01*
X154437483Y-113003202D01*
X154476512Y-113017407D01*
X154539961Y-113040500D01*
X154660039Y-113040500D01*
X154723488Y-113017407D01*
X154762517Y-113003202D01*
X154762519Y-113003201D01*
X154772877Y-112999431D01*
X154864862Y-112922246D01*
X154872433Y-112909134D01*
X154919390Y-112827801D01*
X154924902Y-112818254D01*
X154945753Y-112700000D01*
X155354247Y-112700000D01*
X155375098Y-112818254D01*
X155380610Y-112827801D01*
X155427568Y-112909134D01*
X155435138Y-112922246D01*
X155527123Y-112999431D01*
X155537481Y-113003201D01*
X155537483Y-113003202D01*
X155576512Y-113017407D01*
X155639961Y-113040500D01*
X155760039Y-113040500D01*
X155823488Y-113017407D01*
X155862517Y-113003202D01*
X155862519Y-113003201D01*
X155872877Y-112999431D01*
X155964862Y-112922246D01*
X155972433Y-112909134D01*
X156019390Y-112827801D01*
X156024902Y-112818254D01*
X156045753Y-112700000D01*
X156454247Y-112700000D01*
X156475098Y-112818254D01*
X156480610Y-112827801D01*
X156527568Y-112909134D01*
X156535138Y-112922246D01*
X156627123Y-112999431D01*
X156637481Y-113003201D01*
X156637483Y-113003202D01*
X156676512Y-113017407D01*
X156739961Y-113040500D01*
X156860039Y-113040500D01*
X156923488Y-113017407D01*
X156962517Y-113003202D01*
X156962519Y-113003201D01*
X156972877Y-112999431D01*
X157064862Y-112922246D01*
X157072433Y-112909134D01*
X157119390Y-112827801D01*
X157124902Y-112818254D01*
X157145753Y-112700000D01*
X157124902Y-112581746D01*
X157093355Y-112527105D01*
X157070375Y-112487302D01*
X157070374Y-112487300D01*
X157064862Y-112477754D01*
X157024572Y-112443946D01*
X156981323Y-112407656D01*
X156972877Y-112400569D01*
X156962519Y-112396799D01*
X156962517Y-112396798D01*
X156899172Y-112373743D01*
X156860039Y-112359500D01*
X156739961Y-112359500D01*
X156627124Y-112400569D01*
X156535138Y-112477754D01*
X156529626Y-112487300D01*
X156529625Y-112487302D01*
X156506645Y-112527105D01*
X156475098Y-112581746D01*
X156454247Y-112700000D01*
X156045753Y-112700000D01*
X156024902Y-112581746D01*
X155993355Y-112527105D01*
X155970375Y-112487302D01*
X155970374Y-112487300D01*
X155964862Y-112477754D01*
X155924572Y-112443946D01*
X155881323Y-112407656D01*
X155872877Y-112400569D01*
X155862519Y-112396799D01*
X155862517Y-112396798D01*
X155799172Y-112373743D01*
X155760039Y-112359500D01*
X155639961Y-112359500D01*
X155527124Y-112400569D01*
X155435138Y-112477754D01*
X155429626Y-112487300D01*
X155429625Y-112487302D01*
X155406645Y-112527105D01*
X155375098Y-112581746D01*
X155354247Y-112700000D01*
X154945753Y-112700000D01*
X154924902Y-112581746D01*
X154893355Y-112527105D01*
X154870375Y-112487302D01*
X154870374Y-112487300D01*
X154864862Y-112477754D01*
X154824572Y-112443946D01*
X154781323Y-112407656D01*
X154772877Y-112400569D01*
X154762519Y-112396799D01*
X154762517Y-112396798D01*
X154699172Y-112373743D01*
X154660039Y-112359500D01*
X154539961Y-112359500D01*
X154427124Y-112400569D01*
X154335138Y-112477754D01*
X154329626Y-112487300D01*
X154329625Y-112487302D01*
X154306645Y-112527105D01*
X154275098Y-112581746D01*
X154254247Y-112700000D01*
X153845753Y-112700000D01*
X153824902Y-112581746D01*
X153793355Y-112527105D01*
X153770375Y-112487302D01*
X153770374Y-112487300D01*
X153764862Y-112477754D01*
X153724572Y-112443946D01*
X153681323Y-112407656D01*
X153672877Y-112400569D01*
X153662519Y-112396799D01*
X153662517Y-112396798D01*
X153599172Y-112373743D01*
X153560039Y-112359500D01*
X153439961Y-112359500D01*
X153327124Y-112400569D01*
X153235138Y-112477754D01*
X153229626Y-112487300D01*
X153229625Y-112487302D01*
X153206645Y-112527105D01*
X153175098Y-112581746D01*
X153154247Y-112700000D01*
X152745753Y-112700000D01*
X152724902Y-112581746D01*
X152693355Y-112527105D01*
X152670375Y-112487302D01*
X152670374Y-112487300D01*
X152664862Y-112477754D01*
X152624572Y-112443946D01*
X152581323Y-112407656D01*
X152572877Y-112400569D01*
X152562519Y-112396799D01*
X152562517Y-112396798D01*
X152499172Y-112373743D01*
X152460039Y-112359500D01*
X152339961Y-112359500D01*
X152227124Y-112400569D01*
X152135138Y-112477754D01*
X152129626Y-112487300D01*
X152129625Y-112487302D01*
X152106645Y-112527105D01*
X152075098Y-112581746D01*
X152054247Y-112700000D01*
X151645753Y-112700000D01*
X151624902Y-112581746D01*
X151593355Y-112527105D01*
X151570375Y-112487302D01*
X151570374Y-112487300D01*
X151564862Y-112477754D01*
X151524572Y-112443946D01*
X151481323Y-112407656D01*
X151472877Y-112400569D01*
X151462519Y-112396799D01*
X151462517Y-112396798D01*
X151399172Y-112373743D01*
X151360039Y-112359500D01*
X151239961Y-112359500D01*
X151127124Y-112400569D01*
X151035138Y-112477754D01*
X151029626Y-112487300D01*
X151029625Y-112487302D01*
X151006645Y-112527105D01*
X150975098Y-112581746D01*
X150954247Y-112700000D01*
X148559764Y-112700000D01*
X148556239Y-112680009D01*
X148510428Y-112600662D01*
X148500829Y-112584036D01*
X148500828Y-112584035D01*
X148495318Y-112574491D01*
X148401982Y-112496172D01*
X148287488Y-112454500D01*
X148223674Y-112454500D01*
X148155553Y-112434498D01*
X148109060Y-112380842D01*
X148097674Y-112328500D01*
X148097674Y-110750000D01*
X148849170Y-110750000D01*
X148870328Y-110869991D01*
X148875841Y-110879539D01*
X148920681Y-110957204D01*
X148931249Y-110975509D01*
X149024585Y-111053828D01*
X149139079Y-111095500D01*
X149260921Y-111095500D01*
X149375415Y-111053828D01*
X149468751Y-110975509D01*
X149479320Y-110957204D01*
X149524159Y-110879539D01*
X149529672Y-110869991D01*
X149550830Y-110750000D01*
X149529672Y-110630009D01*
X149468751Y-110524491D01*
X149444209Y-110503897D01*
X149383861Y-110453259D01*
X149375415Y-110446172D01*
X149260921Y-110404500D01*
X149139079Y-110404500D01*
X149024585Y-110446172D01*
X149016139Y-110453259D01*
X148955792Y-110503897D01*
X148931249Y-110524491D01*
X148870328Y-110630009D01*
X148849170Y-110750000D01*
X148097674Y-110750000D01*
X148097674Y-109750000D01*
X154974556Y-109750000D01*
X154994183Y-109861308D01*
X155050695Y-109959191D01*
X155137278Y-110031843D01*
X155147634Y-110035612D01*
X155147637Y-110035614D01*
X155233126Y-110066729D01*
X155243487Y-110070500D01*
X155356513Y-110070500D01*
X155366874Y-110066729D01*
X155452363Y-110035614D01*
X155452366Y-110035612D01*
X155462722Y-110031843D01*
X155549305Y-109959191D01*
X155605817Y-109861308D01*
X155625444Y-109750000D01*
X155605817Y-109638692D01*
X155549305Y-109540809D01*
X155496523Y-109496520D01*
X155457198Y-109437412D01*
X155456072Y-109366424D01*
X155496523Y-109303480D01*
X155549305Y-109259191D01*
X155605817Y-109161308D01*
X155625444Y-109050000D01*
X155605817Y-108938692D01*
X155549305Y-108840809D01*
X155462722Y-108768157D01*
X155452366Y-108764388D01*
X155452363Y-108764386D01*
X155366874Y-108733271D01*
X155366873Y-108733271D01*
X155356513Y-108729500D01*
X155243487Y-108729500D01*
X155233127Y-108733271D01*
X155233126Y-108733271D01*
X155147637Y-108764386D01*
X155147634Y-108764388D01*
X155137278Y-108768157D01*
X155050695Y-108840809D01*
X154994183Y-108938692D01*
X154974556Y-109050000D01*
X154994183Y-109161308D01*
X155050695Y-109259191D01*
X155103477Y-109303480D01*
X155142802Y-109362588D01*
X155143928Y-109433576D01*
X155103477Y-109496520D01*
X155050695Y-109540809D01*
X154994183Y-109638692D01*
X154974556Y-109750000D01*
X148097674Y-109750000D01*
X148097674Y-108300000D01*
X149037654Y-108300000D01*
X149065512Y-108348251D01*
G37*
%TD.AperFunction*%
%TD*%
%TA.AperFunction,Conductor*%
%TO.N,+3.3V*%
G36*
X139147191Y-92370605D02*
G01*
X140100201Y-92410548D01*
X140105459Y-92410879D01*
X140353596Y-92431715D01*
X141055997Y-92490698D01*
X141061246Y-92491250D01*
X141524937Y-92549827D01*
X142007594Y-92610801D01*
X142012790Y-92611568D01*
X142953302Y-92770644D01*
X142958454Y-92771626D01*
X143353789Y-92855657D01*
X143891531Y-92969958D01*
X143896669Y-92971164D01*
X144820539Y-93208374D01*
X144825622Y-93209793D01*
X145738783Y-93485492D01*
X145743802Y-93487123D01*
X146112041Y-93615357D01*
X146644599Y-93800813D01*
X146649523Y-93802644D01*
X147164569Y-94006565D01*
X147536429Y-94153795D01*
X147541294Y-94155840D01*
X148412693Y-94543812D01*
X148417468Y-94546059D01*
X149271852Y-94970179D01*
X149276529Y-94972624D01*
X150112407Y-95432151D01*
X150116977Y-95434790D01*
X150932891Y-95928926D01*
X150937347Y-95931754D01*
X151731824Y-96459603D01*
X151736158Y-96462615D01*
X152507852Y-97023283D01*
X152512054Y-97026472D01*
X152804206Y-97258029D01*
X153259597Y-97618968D01*
X153263663Y-97622332D01*
X153862970Y-98139640D01*
X153901467Y-98199293D01*
X153901602Y-98270289D01*
X153863333Y-98330088D01*
X153798808Y-98359704D01*
X153730801Y-98350745D01*
X153612972Y-98300000D01*
X153443345Y-98226947D01*
X153443335Y-98226943D01*
X153440411Y-98225684D01*
X153069317Y-98108678D01*
X152780673Y-98048903D01*
X152691422Y-98030420D01*
X152691419Y-98030420D01*
X152688297Y-98029773D01*
X152390473Y-97998996D01*
X152304411Y-97990102D01*
X152304408Y-97990102D01*
X152301255Y-97989776D01*
X152298089Y-97989770D01*
X152298080Y-97989770D01*
X152105974Y-97989435D01*
X151912151Y-97989097D01*
X151719178Y-98008358D01*
X151528144Y-98027426D01*
X151528138Y-98027427D01*
X151524971Y-98027743D01*
X151362219Y-98060855D01*
X151146804Y-98104681D01*
X151146800Y-98104682D01*
X151143679Y-98105317D01*
X151140637Y-98106264D01*
X151140631Y-98106266D01*
X150957929Y-98163172D01*
X150772178Y-98221027D01*
X150769238Y-98222281D01*
X150417209Y-98372434D01*
X150417205Y-98372436D01*
X150414272Y-98373687D01*
X150073625Y-98561734D01*
X150071004Y-98563549D01*
X150070999Y-98563552D01*
X150044584Y-98581843D01*
X149753726Y-98783243D01*
X149751298Y-98785317D01*
X149751295Y-98785319D01*
X149612449Y-98903905D01*
X149457849Y-99035946D01*
X149455649Y-99038248D01*
X149455646Y-99038251D01*
X149340887Y-99158339D01*
X149189024Y-99317255D01*
X148950003Y-99624291D01*
X148948307Y-99626995D01*
X148948304Y-99626999D01*
X148818766Y-99833501D01*
X148743234Y-99953909D01*
X148570833Y-100302735D01*
X148434566Y-100667198D01*
X148335828Y-101043566D01*
X148335335Y-101046715D01*
X148335333Y-101046724D01*
X148289249Y-101341012D01*
X148275630Y-101427984D01*
X148254587Y-101816519D01*
X148272917Y-102205191D01*
X148330430Y-102590021D01*
X148331216Y-102593103D01*
X148331216Y-102593105D01*
X148422859Y-102952633D01*
X148426538Y-102967068D01*
X148501112Y-103170851D01*
X148557433Y-103324756D01*
X148560257Y-103332474D01*
X148730219Y-103682495D01*
X148934682Y-104013549D01*
X149012057Y-104114386D01*
X149138484Y-104279149D01*
X149171553Y-104322246D01*
X149173735Y-104324562D01*
X149173744Y-104324572D01*
X149255054Y-104410855D01*
X149438408Y-104605425D01*
X149732513Y-104860187D01*
X149735123Y-104862022D01*
X149735129Y-104862026D01*
X149860304Y-104950000D01*
X150050858Y-105083924D01*
X150053633Y-105085481D01*
X150360345Y-105257599D01*
X150390184Y-105274344D01*
X150393083Y-105275605D01*
X150393088Y-105275607D01*
X150438839Y-105295500D01*
X150747015Y-105429499D01*
X151117700Y-105547799D01*
X151324517Y-105591382D01*
X151495322Y-105627377D01*
X151495327Y-105627378D01*
X151498441Y-105628034D01*
X151885342Y-105669382D01*
X151888529Y-105669399D01*
X151888535Y-105669399D01*
X152065240Y-105670324D01*
X152274440Y-105671419D01*
X152421548Y-105657254D01*
X152658588Y-105634430D01*
X152658593Y-105634429D01*
X152661753Y-105634125D01*
X152664873Y-105633502D01*
X152664877Y-105633501D01*
X152994065Y-105567723D01*
X153043314Y-105557882D01*
X153328816Y-105470050D01*
X153412175Y-105444406D01*
X153412178Y-105444405D01*
X153415217Y-105443470D01*
X153418145Y-105442233D01*
X153418151Y-105442231D01*
X153696878Y-105324491D01*
X153773653Y-105292060D01*
X153776456Y-105290526D01*
X153776461Y-105290523D01*
X153934812Y-105203828D01*
X154114954Y-105105203D01*
X154435625Y-104884813D01*
X154438053Y-104882754D01*
X154729952Y-104635205D01*
X154729954Y-104635203D01*
X154732382Y-104633144D01*
X154734587Y-104630852D01*
X154734593Y-104630847D01*
X154956741Y-104400000D01*
X155524556Y-104400000D01*
X155544183Y-104511308D01*
X155549693Y-104520851D01*
X155593179Y-104596172D01*
X155600695Y-104609191D01*
X155609142Y-104616279D01*
X155629241Y-104633144D01*
X155687278Y-104681843D01*
X155697634Y-104685612D01*
X155697637Y-104685614D01*
X155783126Y-104716729D01*
X155793487Y-104720500D01*
X155906513Y-104720500D01*
X155916874Y-104716729D01*
X156002363Y-104685614D01*
X156002366Y-104685612D01*
X156012722Y-104681843D01*
X156070759Y-104633144D01*
X156090858Y-104616279D01*
X156099305Y-104609191D01*
X156106822Y-104596172D01*
X156150307Y-104520851D01*
X156155817Y-104511308D01*
X156175444Y-104400000D01*
X157524556Y-104400000D01*
X157544183Y-104511308D01*
X157549693Y-104520851D01*
X157593179Y-104596172D01*
X157600695Y-104609191D01*
X157609142Y-104616279D01*
X157629241Y-104633144D01*
X157687278Y-104681843D01*
X157697634Y-104685612D01*
X157697637Y-104685614D01*
X157783126Y-104716729D01*
X157793487Y-104720500D01*
X157906513Y-104720500D01*
X157916874Y-104716729D01*
X158002363Y-104685614D01*
X158002366Y-104685612D01*
X158012722Y-104681843D01*
X158070759Y-104633144D01*
X158090858Y-104616279D01*
X158099305Y-104609191D01*
X158106822Y-104596172D01*
X158150307Y-104520851D01*
X158155817Y-104511308D01*
X158175444Y-104400000D01*
X158155817Y-104288692D01*
X158099305Y-104190809D01*
X158012722Y-104118157D01*
X158002366Y-104114388D01*
X158002363Y-104114386D01*
X157916874Y-104083271D01*
X157916873Y-104083271D01*
X157906513Y-104079500D01*
X157793487Y-104079500D01*
X157783127Y-104083271D01*
X157783126Y-104083271D01*
X157697637Y-104114386D01*
X157697634Y-104114388D01*
X157687278Y-104118157D01*
X157600695Y-104190809D01*
X157544183Y-104288692D01*
X157524556Y-104400000D01*
X156175444Y-104400000D01*
X156155817Y-104288692D01*
X156099305Y-104190809D01*
X156012722Y-104118157D01*
X156002366Y-104114388D01*
X156002363Y-104114386D01*
X155916874Y-104083271D01*
X155916873Y-104083271D01*
X155906513Y-104079500D01*
X155793487Y-104079500D01*
X155783127Y-104083271D01*
X155783126Y-104083271D01*
X155697637Y-104114386D01*
X155697634Y-104114388D01*
X155687278Y-104118157D01*
X155600695Y-104190809D01*
X155544183Y-104288692D01*
X155524556Y-104400000D01*
X154956741Y-104400000D01*
X154967187Y-104389145D01*
X155002187Y-104352775D01*
X155242278Y-104046576D01*
X155450197Y-103717681D01*
X155451617Y-103714832D01*
X155451622Y-103714824D01*
X155622394Y-103372307D01*
X155623814Y-103369459D01*
X155761353Y-103005474D01*
X155772394Y-102963981D01*
X155860583Y-102632538D01*
X155861404Y-102629453D01*
X155867656Y-102590426D01*
X155922439Y-102248398D01*
X155922944Y-102245247D01*
X155925072Y-102208352D01*
X155945244Y-101858483D01*
X155945342Y-101856788D01*
X155945436Y-101829942D01*
X155925750Y-101441336D01*
X155879772Y-101140866D01*
X155867378Y-101059870D01*
X155867376Y-101059861D01*
X155866894Y-101056710D01*
X155772815Y-100692933D01*
X155770267Y-100683080D01*
X155770264Y-100683072D01*
X155769470Y-100680000D01*
X155765871Y-100670271D01*
X155635585Y-100318061D01*
X155635582Y-100318055D01*
X155634476Y-100315064D01*
X155581389Y-100206700D01*
X155569382Y-100136726D01*
X155597112Y-100071369D01*
X155655775Y-100031379D01*
X155726745Y-100029453D01*
X155788176Y-100066958D01*
X155998005Y-100299997D01*
X156001454Y-100303992D01*
X156609478Y-101038967D01*
X156612756Y-101043102D01*
X157189473Y-101802899D01*
X157192555Y-101807142D01*
X157736671Y-102590021D01*
X157736952Y-102590426D01*
X157739862Y-102594807D01*
X157952042Y-102929149D01*
X158250967Y-103400180D01*
X158253701Y-103404694D01*
X158730631Y-104230760D01*
X158733174Y-104235385D01*
X159175104Y-105080719D01*
X159177450Y-105085446D01*
X159583575Y-105948507D01*
X159585722Y-105953328D01*
X159945637Y-106809528D01*
X159955363Y-106832666D01*
X159957299Y-106837556D01*
X160021917Y-107011308D01*
X160039869Y-107059580D01*
X160044866Y-107130401D01*
X160010781Y-107192680D01*
X159948437Y-107226646D01*
X159921771Y-107229500D01*
X159843487Y-107229500D01*
X159833127Y-107233271D01*
X159833126Y-107233271D01*
X159747637Y-107264386D01*
X159747634Y-107264388D01*
X159737278Y-107268157D01*
X159650695Y-107340809D01*
X159594183Y-107438692D01*
X159592270Y-107449542D01*
X159592269Y-107449544D01*
X159582798Y-107503259D01*
X159574556Y-107550000D01*
X159576470Y-107560855D01*
X159580558Y-107584036D01*
X159594183Y-107661308D01*
X159650695Y-107759191D01*
X159659142Y-107766279D01*
X159719266Y-107816729D01*
X159737278Y-107831843D01*
X159747634Y-107835612D01*
X159747637Y-107835614D01*
X159827068Y-107864524D01*
X159843487Y-107870500D01*
X159956513Y-107870500D01*
X159972932Y-107864524D01*
X160052363Y-107835614D01*
X160052366Y-107835612D01*
X160062722Y-107831843D01*
X160123733Y-107780649D01*
X160188773Y-107752185D01*
X160258878Y-107763403D01*
X160311789Y-107810741D01*
X160324555Y-107838233D01*
X160435605Y-108180009D01*
X160586287Y-108643762D01*
X160587813Y-108648814D01*
X160648573Y-108866431D01*
X155606805Y-108944296D01*
X155605817Y-108938692D01*
X155549305Y-108840809D01*
X155462722Y-108768157D01*
X155452366Y-108764388D01*
X155452363Y-108764386D01*
X155366874Y-108733271D01*
X155366873Y-108733271D01*
X155356513Y-108729500D01*
X155243487Y-108729500D01*
X155233127Y-108733271D01*
X155233126Y-108733271D01*
X155147637Y-108764386D01*
X155147634Y-108764388D01*
X155137278Y-108768157D01*
X155050695Y-108840809D01*
X154994183Y-108938692D01*
X154992270Y-108949542D01*
X154992269Y-108949544D01*
X154991519Y-108953799D01*
X152000000Y-109000000D01*
X147574442Y-109944782D01*
X147525416Y-109945493D01*
X145830597Y-109634775D01*
X145767200Y-109602817D01*
X145755190Y-109589879D01*
X145578489Y-109370500D01*
X145553703Y-109339727D01*
X145156974Y-108907532D01*
X144733182Y-108501839D01*
X144537087Y-108337004D01*
X144497813Y-108277860D01*
X144496748Y-108206871D01*
X144534232Y-108146576D01*
X144546798Y-108139060D01*
X146208146Y-108139060D01*
X146210060Y-108149915D01*
X146225343Y-108236585D01*
X146227773Y-108250368D01*
X146284285Y-108348251D01*
X146370868Y-108420903D01*
X146381224Y-108424672D01*
X146381227Y-108424674D01*
X146461328Y-108453828D01*
X146477077Y-108459560D01*
X146590103Y-108459560D01*
X146605852Y-108453828D01*
X146685953Y-108424674D01*
X146685956Y-108424672D01*
X146696312Y-108420903D01*
X146782895Y-108348251D01*
X146839407Y-108250368D01*
X146841838Y-108236585D01*
X146857105Y-108150000D01*
X148999170Y-108150000D01*
X149020328Y-108269991D01*
X149031387Y-108289145D01*
X149065512Y-108348251D01*
X149081249Y-108375509D01*
X149174585Y-108453828D01*
X149289079Y-108495500D01*
X149410921Y-108495500D01*
X149525415Y-108453828D01*
X149618751Y-108375509D01*
X149630396Y-108355339D01*
X149670673Y-108285578D01*
X149722056Y-108236585D01*
X149791769Y-108223149D01*
X149857680Y-108249536D01*
X149898862Y-108307368D01*
X149903877Y-108326694D01*
X149920328Y-108419991D01*
X149981249Y-108525509D01*
X150074585Y-108603828D01*
X150189079Y-108645500D01*
X150310921Y-108645500D01*
X150425415Y-108603828D01*
X150518751Y-108525509D01*
X150579672Y-108419991D01*
X150600830Y-108300000D01*
X150579672Y-108180009D01*
X150518751Y-108074491D01*
X150468820Y-108032593D01*
X150433861Y-108003259D01*
X150425415Y-107996172D01*
X150310921Y-107954500D01*
X150189079Y-107954500D01*
X150074585Y-107996172D01*
X150066139Y-108003259D01*
X150031181Y-108032593D01*
X149981249Y-108074491D01*
X149975739Y-108084035D01*
X149975738Y-108084036D01*
X149929327Y-108164422D01*
X149877944Y-108213415D01*
X149808231Y-108226851D01*
X149742320Y-108200464D01*
X149701138Y-108142632D01*
X149696122Y-108123302D01*
X149689199Y-108084036D01*
X149679672Y-108030009D01*
X149618751Y-107924491D01*
X149600450Y-107909134D01*
X149533861Y-107853259D01*
X149525415Y-107846172D01*
X149410921Y-107804500D01*
X149289079Y-107804500D01*
X149174585Y-107846172D01*
X149166139Y-107853259D01*
X149099551Y-107909134D01*
X149081249Y-107924491D01*
X149020328Y-108030009D01*
X148999170Y-108150000D01*
X146857105Y-108150000D01*
X146857120Y-108149915D01*
X146859034Y-108139060D01*
X146856255Y-108123302D01*
X146841321Y-108038604D01*
X146841320Y-108038602D01*
X146839407Y-108027752D01*
X146782895Y-107929869D01*
X146768044Y-107917407D01*
X146704758Y-107864304D01*
X146696312Y-107857217D01*
X146685956Y-107853448D01*
X146685953Y-107853446D01*
X146600464Y-107822331D01*
X146600463Y-107822331D01*
X146590103Y-107818560D01*
X146477077Y-107818560D01*
X146466717Y-107822331D01*
X146466716Y-107822331D01*
X146381227Y-107853446D01*
X146381224Y-107853448D01*
X146370868Y-107857217D01*
X146362422Y-107864304D01*
X146299137Y-107917407D01*
X146284285Y-107929869D01*
X146227773Y-108027752D01*
X146225860Y-108038602D01*
X146225859Y-108038604D01*
X146210925Y-108123302D01*
X146208146Y-108139060D01*
X144546798Y-108139060D01*
X144575064Y-108122154D01*
X144625415Y-108103828D01*
X144660377Y-108074491D01*
X144710309Y-108032593D01*
X144710310Y-108032592D01*
X144718751Y-108025509D01*
X144779672Y-107919991D01*
X144800830Y-107800000D01*
X144779672Y-107680009D01*
X144718751Y-107574491D01*
X144702501Y-107560855D01*
X144633861Y-107503259D01*
X144629977Y-107500000D01*
X153774556Y-107500000D01*
X153776470Y-107510855D01*
X153786487Y-107567660D01*
X153794183Y-107611308D01*
X153850695Y-107709191D01*
X153937278Y-107781843D01*
X153947634Y-107785612D01*
X153947637Y-107785614D01*
X154033126Y-107816729D01*
X154043487Y-107820500D01*
X154156513Y-107820500D01*
X154166874Y-107816729D01*
X154252363Y-107785614D01*
X154252366Y-107785612D01*
X154262722Y-107781843D01*
X154349305Y-107709191D01*
X154405817Y-107611308D01*
X154413514Y-107567660D01*
X154423530Y-107510855D01*
X154425444Y-107500000D01*
X154405817Y-107388692D01*
X154349305Y-107290809D01*
X154330756Y-107275244D01*
X154271168Y-107225244D01*
X154262722Y-107218157D01*
X154252366Y-107214388D01*
X154252363Y-107214386D01*
X154166874Y-107183271D01*
X154166873Y-107183271D01*
X154156513Y-107179500D01*
X154043487Y-107179500D01*
X154033127Y-107183271D01*
X154033126Y-107183271D01*
X153947637Y-107214386D01*
X153947634Y-107214388D01*
X153937278Y-107218157D01*
X153928832Y-107225244D01*
X153869245Y-107275244D01*
X153850695Y-107290809D01*
X153794183Y-107388692D01*
X153774556Y-107500000D01*
X144629977Y-107500000D01*
X144625415Y-107496172D01*
X144510921Y-107454500D01*
X144389079Y-107454500D01*
X144274585Y-107496172D01*
X144266139Y-107503259D01*
X144197500Y-107560855D01*
X144181249Y-107574491D01*
X144120328Y-107680009D01*
X144107602Y-107752185D01*
X144105043Y-107766695D01*
X144073516Y-107830307D01*
X144012602Y-107866777D01*
X143941641Y-107864524D01*
X143906275Y-107846297D01*
X143813224Y-107777819D01*
X143813212Y-107777811D01*
X143811579Y-107776609D01*
X143317611Y-107460095D01*
X143119228Y-107350356D01*
X142806029Y-107177104D01*
X142806022Y-107177100D01*
X142804246Y-107176118D01*
X142802410Y-107175252D01*
X142802404Y-107175249D01*
X142275482Y-106926737D01*
X142275473Y-106926733D01*
X142273626Y-106925862D01*
X142258848Y-106920026D01*
X144677876Y-106920026D01*
X144699034Y-107040017D01*
X144759955Y-107145535D01*
X144768396Y-107152618D01*
X144768397Y-107152619D01*
X144844800Y-107216729D01*
X144853291Y-107223854D01*
X144967785Y-107265526D01*
X145089627Y-107265526D01*
X145204121Y-107223854D01*
X145212612Y-107216729D01*
X145289015Y-107152619D01*
X145289016Y-107152618D01*
X145297457Y-107145535D01*
X145323747Y-107100000D01*
X148049170Y-107100000D01*
X148070328Y-107219991D01*
X148131249Y-107325509D01*
X148139690Y-107332592D01*
X148139691Y-107332593D01*
X148160860Y-107350356D01*
X148224585Y-107403828D01*
X148339079Y-107445500D01*
X148460921Y-107445500D01*
X148575415Y-107403828D01*
X148639140Y-107350356D01*
X148660309Y-107332593D01*
X148660310Y-107332592D01*
X148668751Y-107325509D01*
X148729672Y-107219991D01*
X148750830Y-107100000D01*
X148729672Y-106980009D01*
X148683479Y-106900000D01*
X152474556Y-106900000D01*
X152476470Y-106910855D01*
X152479271Y-106926737D01*
X152494183Y-107011308D01*
X152535596Y-107083038D01*
X152544108Y-107097781D01*
X152550695Y-107109191D01*
X152637278Y-107181843D01*
X152647634Y-107185612D01*
X152647637Y-107185614D01*
X152712259Y-107209134D01*
X152743487Y-107220500D01*
X152856513Y-107220500D01*
X152887741Y-107209134D01*
X152952363Y-107185614D01*
X152952366Y-107185612D01*
X152962722Y-107181843D01*
X153049305Y-107109191D01*
X153055893Y-107097781D01*
X153064404Y-107083038D01*
X153105817Y-107011308D01*
X153120730Y-106926737D01*
X153123530Y-106910855D01*
X153125444Y-106900000D01*
X153119577Y-106866729D01*
X153107731Y-106799544D01*
X153107730Y-106799542D01*
X153105817Y-106788692D01*
X153049305Y-106690809D01*
X153035629Y-106679333D01*
X152971168Y-106625244D01*
X152962722Y-106618157D01*
X152952366Y-106614388D01*
X152952363Y-106614386D01*
X152866874Y-106583271D01*
X152866873Y-106583271D01*
X152856513Y-106579500D01*
X152743487Y-106579500D01*
X152733127Y-106583271D01*
X152733126Y-106583271D01*
X152713883Y-106590275D01*
X152637278Y-106618157D01*
X152628831Y-106625245D01*
X152622975Y-106628626D01*
X152562690Y-106643251D01*
X152563749Y-106654338D01*
X152549146Y-106693492D01*
X152494183Y-106788692D01*
X152492270Y-106799542D01*
X152492269Y-106799544D01*
X152480423Y-106866729D01*
X152474556Y-106900000D01*
X148683479Y-106900000D01*
X148668751Y-106874491D01*
X148624755Y-106837573D01*
X148583861Y-106803259D01*
X148575415Y-106796172D01*
X148460921Y-106754500D01*
X148339079Y-106754500D01*
X148224585Y-106796172D01*
X148216139Y-106803259D01*
X148175246Y-106837573D01*
X148131249Y-106874491D01*
X148070328Y-106980009D01*
X148049170Y-107100000D01*
X145323747Y-107100000D01*
X145358378Y-107040017D01*
X145379536Y-106920026D01*
X145358378Y-106800035D01*
X145297457Y-106694517D01*
X145257881Y-106661308D01*
X145212567Y-106623285D01*
X145204121Y-106616198D01*
X145089627Y-106574526D01*
X144967785Y-106574526D01*
X144853291Y-106616198D01*
X144844845Y-106623285D01*
X144799532Y-106661308D01*
X144759955Y-106694517D01*
X144699034Y-106800035D01*
X144677876Y-106920026D01*
X142258848Y-106920026D01*
X141953768Y-106799544D01*
X141729859Y-106711118D01*
X141729855Y-106711116D01*
X141727962Y-106710369D01*
X141441614Y-106618157D01*
X141171446Y-106531155D01*
X141171437Y-106531152D01*
X141169529Y-106530538D01*
X141167582Y-106530047D01*
X141167571Y-106530044D01*
X140875888Y-106456508D01*
X140600656Y-106387119D01*
X140023713Y-106280709D01*
X140010533Y-106279149D01*
X139764255Y-106250000D01*
X151874556Y-106250000D01*
X151876470Y-106260855D01*
X151892252Y-106350356D01*
X151894183Y-106361308D01*
X151950695Y-106459191D01*
X151959142Y-106466279D01*
X152028832Y-106524756D01*
X152037278Y-106531843D01*
X152047634Y-106535612D01*
X152047637Y-106535614D01*
X152133126Y-106566729D01*
X152143487Y-106570500D01*
X152256513Y-106570500D01*
X152283013Y-106560855D01*
X152352361Y-106535614D01*
X152362722Y-106531843D01*
X152371169Y-106524755D01*
X152377025Y-106521374D01*
X152437310Y-106506749D01*
X152436251Y-106495662D01*
X152450854Y-106456508D01*
X152464481Y-106432905D01*
X152483478Y-106400000D01*
X153724556Y-106400000D01*
X153726470Y-106410855D01*
X153731379Y-106438692D01*
X153744183Y-106511308D01*
X153800695Y-106609191D01*
X153809142Y-106616279D01*
X153854499Y-106654338D01*
X153887278Y-106681843D01*
X153897634Y-106685612D01*
X153897637Y-106685614D01*
X153963943Y-106709747D01*
X153993487Y-106720500D01*
X154106513Y-106720500D01*
X154136057Y-106709747D01*
X154202363Y-106685614D01*
X154202366Y-106685612D01*
X154212722Y-106681843D01*
X154245501Y-106654338D01*
X154290858Y-106616279D01*
X154299305Y-106609191D01*
X154333478Y-106550000D01*
X156824556Y-106550000D01*
X156826470Y-106560855D01*
X156841872Y-106648201D01*
X156844183Y-106661308D01*
X156876180Y-106716729D01*
X156892921Y-106745725D01*
X156900695Y-106759191D01*
X156909142Y-106766279D01*
X156935853Y-106788692D01*
X156987278Y-106831843D01*
X156997634Y-106835612D01*
X156997637Y-106835614D01*
X157083126Y-106866729D01*
X157093487Y-106870500D01*
X157206513Y-106870500D01*
X157216874Y-106866729D01*
X157302363Y-106835614D01*
X157302366Y-106835612D01*
X157312722Y-106831843D01*
X157364147Y-106788692D01*
X157390858Y-106766279D01*
X157399305Y-106759191D01*
X157407080Y-106745725D01*
X157423820Y-106716729D01*
X157455817Y-106661308D01*
X157458129Y-106648201D01*
X157473530Y-106560855D01*
X157475444Y-106550000D01*
X157470993Y-106524756D01*
X157457731Y-106449544D01*
X157457730Y-106449542D01*
X157455817Y-106438692D01*
X157399305Y-106340809D01*
X157350128Y-106299544D01*
X157321168Y-106275244D01*
X157312722Y-106268157D01*
X157302366Y-106264388D01*
X157302363Y-106264386D01*
X157216874Y-106233271D01*
X157216873Y-106233271D01*
X157206513Y-106229500D01*
X157093487Y-106229500D01*
X157083127Y-106233271D01*
X157083126Y-106233271D01*
X156997637Y-106264386D01*
X156997634Y-106264388D01*
X156987278Y-106268157D01*
X156978832Y-106275244D01*
X156949873Y-106299544D01*
X156900695Y-106340809D01*
X156844183Y-106438692D01*
X156842270Y-106449542D01*
X156842269Y-106449544D01*
X156829007Y-106524756D01*
X156824556Y-106550000D01*
X154333478Y-106550000D01*
X154355817Y-106511308D01*
X154368622Y-106438692D01*
X154373530Y-106410855D01*
X154375444Y-106400000D01*
X154373107Y-106386747D01*
X154357731Y-106299544D01*
X154357730Y-106299542D01*
X154355817Y-106288692D01*
X154299305Y-106190809D01*
X154250128Y-106149544D01*
X154221168Y-106125244D01*
X154212722Y-106118157D01*
X154202366Y-106114388D01*
X154202363Y-106114386D01*
X154116874Y-106083271D01*
X154116873Y-106083271D01*
X154106513Y-106079500D01*
X153993487Y-106079500D01*
X153983127Y-106083271D01*
X153983126Y-106083271D01*
X153897637Y-106114386D01*
X153897634Y-106114388D01*
X153887278Y-106118157D01*
X153878832Y-106125244D01*
X153849873Y-106149544D01*
X153800695Y-106190809D01*
X153744183Y-106288692D01*
X153742270Y-106299542D01*
X153742269Y-106299544D01*
X153726893Y-106386747D01*
X153724556Y-106400000D01*
X152483478Y-106400000D01*
X152505817Y-106361308D01*
X152507749Y-106350356D01*
X152523530Y-106260855D01*
X152525444Y-106250000D01*
X152523530Y-106239145D01*
X152507731Y-106149544D01*
X152507730Y-106149542D01*
X152505817Y-106138692D01*
X152449305Y-106040809D01*
X152362722Y-105968157D01*
X152352366Y-105964388D01*
X152352363Y-105964386D01*
X152266874Y-105933271D01*
X152266873Y-105933271D01*
X152256513Y-105929500D01*
X152143487Y-105929500D01*
X152133127Y-105933271D01*
X152133126Y-105933271D01*
X152047637Y-105964386D01*
X152047634Y-105964388D01*
X152037278Y-105968157D01*
X151950695Y-106040809D01*
X151894183Y-106138692D01*
X151892270Y-106149542D01*
X151892269Y-106149544D01*
X151876470Y-106239145D01*
X151874556Y-106250000D01*
X139764255Y-106250000D01*
X139443102Y-106211989D01*
X139443095Y-106211988D01*
X139441106Y-106211753D01*
X139439104Y-106211646D01*
X139439100Y-106211646D01*
X139202549Y-106199042D01*
X138855263Y-106180538D01*
X138268627Y-106187193D01*
X138266609Y-106187347D01*
X138266598Y-106187347D01*
X138031900Y-106205201D01*
X137683643Y-106231692D01*
X137681638Y-106231976D01*
X137681634Y-106231976D01*
X137104785Y-106313560D01*
X137104779Y-106313561D01*
X137102750Y-106313848D01*
X137100760Y-106314262D01*
X137100748Y-106314264D01*
X136530359Y-106432905D01*
X136530351Y-106432907D01*
X136528370Y-106433319D01*
X135962896Y-106589608D01*
X135714456Y-106675881D01*
X135643545Y-106679333D01*
X135582023Y-106643898D01*
X135549426Y-106580827D01*
X135547124Y-106557158D01*
X135544695Y-105550000D01*
X137649170Y-105550000D01*
X137670328Y-105669991D01*
X137731249Y-105775509D01*
X137824585Y-105853828D01*
X137939079Y-105895500D01*
X138060921Y-105895500D01*
X138175415Y-105853828D01*
X138268751Y-105775509D01*
X138329672Y-105669991D01*
X138350830Y-105550000D01*
X138329672Y-105430009D01*
X138268751Y-105324491D01*
X138175415Y-105246172D01*
X138060921Y-105204500D01*
X137939079Y-105204500D01*
X137824585Y-105246172D01*
X137731249Y-105324491D01*
X137670328Y-105430009D01*
X137649170Y-105550000D01*
X135544695Y-105550000D01*
X135543127Y-104900000D01*
X141049170Y-104900000D01*
X141070328Y-105019991D01*
X141131249Y-105125509D01*
X141139690Y-105132592D01*
X141139691Y-105132593D01*
X141190836Y-105175509D01*
X141224585Y-105203828D01*
X141339079Y-105245500D01*
X141460921Y-105245500D01*
X141575415Y-105203828D01*
X141609164Y-105175509D01*
X141660309Y-105132593D01*
X141660310Y-105132592D01*
X141668751Y-105125509D01*
X141729672Y-105019991D01*
X141742014Y-104950000D01*
X146349170Y-104950000D01*
X146370328Y-105069991D01*
X146431249Y-105175509D01*
X146524585Y-105253828D01*
X146639079Y-105295500D01*
X146760921Y-105295500D01*
X146875415Y-105253828D01*
X146968751Y-105175509D01*
X147029672Y-105069991D01*
X147050830Y-104950000D01*
X147029672Y-104830009D01*
X146968751Y-104724491D01*
X146875415Y-104646172D01*
X146760921Y-104604500D01*
X146639079Y-104604500D01*
X146524585Y-104646172D01*
X146431249Y-104724491D01*
X146370328Y-104830009D01*
X146349170Y-104950000D01*
X141742014Y-104950000D01*
X141750830Y-104900000D01*
X141729672Y-104780009D01*
X141668751Y-104674491D01*
X141599378Y-104616279D01*
X141583861Y-104603259D01*
X141575415Y-104596172D01*
X141460921Y-104554500D01*
X141339079Y-104554500D01*
X141224585Y-104596172D01*
X141216139Y-104603259D01*
X141200623Y-104616279D01*
X141131249Y-104674491D01*
X141070328Y-104780009D01*
X141049170Y-104900000D01*
X135543127Y-104900000D01*
X135538666Y-103050000D01*
X138724556Y-103050000D01*
X138744183Y-103161308D01*
X138800695Y-103259191D01*
X138887278Y-103331843D01*
X138897634Y-103335612D01*
X138897637Y-103335614D01*
X138982445Y-103366481D01*
X138993487Y-103370500D01*
X139106513Y-103370500D01*
X139117555Y-103366481D01*
X139202363Y-103335614D01*
X139202366Y-103335612D01*
X139212722Y-103331843D01*
X139299305Y-103259191D01*
X139355817Y-103161308D01*
X139375444Y-103050000D01*
X139360821Y-102967068D01*
X139357731Y-102949544D01*
X139357730Y-102949542D01*
X139355817Y-102938692D01*
X139299305Y-102840809D01*
X139212722Y-102768157D01*
X139202366Y-102764388D01*
X139202363Y-102764386D01*
X139116874Y-102733271D01*
X139116873Y-102733271D01*
X139106513Y-102729500D01*
X138993487Y-102729500D01*
X138983127Y-102733271D01*
X138983126Y-102733271D01*
X138897637Y-102764386D01*
X138897634Y-102764388D01*
X138887278Y-102768157D01*
X138800695Y-102840809D01*
X138744183Y-102938692D01*
X138742270Y-102949542D01*
X138742269Y-102949544D01*
X138739179Y-102967068D01*
X138724556Y-103050000D01*
X135538666Y-103050000D01*
X135534325Y-101250000D01*
X141649170Y-101250000D01*
X141670328Y-101369991D01*
X141731249Y-101475509D01*
X141824585Y-101553828D01*
X141939079Y-101595500D01*
X142060921Y-101595500D01*
X142175415Y-101553828D01*
X142268751Y-101475509D01*
X142329672Y-101369991D01*
X142350830Y-101250000D01*
X142329672Y-101130009D01*
X142268751Y-101024491D01*
X142175415Y-100946172D01*
X142060921Y-100904500D01*
X141939079Y-100904500D01*
X141824585Y-100946172D01*
X141731249Y-101024491D01*
X141670328Y-101130009D01*
X141649170Y-101250000D01*
X135534325Y-101250000D01*
X135532155Y-100350000D01*
X142349170Y-100350000D01*
X142370328Y-100469991D01*
X142431249Y-100575509D01*
X142524585Y-100653828D01*
X142639079Y-100695500D01*
X142760921Y-100695500D01*
X142875415Y-100653828D01*
X142968751Y-100575509D01*
X143029672Y-100469991D01*
X143050830Y-100350000D01*
X143033197Y-100250000D01*
X145249170Y-100250000D01*
X145270328Y-100369991D01*
X145331249Y-100475509D01*
X145424585Y-100553828D01*
X145539079Y-100595500D01*
X145660921Y-100595500D01*
X145775415Y-100553828D01*
X145868751Y-100475509D01*
X145929672Y-100369991D01*
X145950830Y-100250000D01*
X145929672Y-100130009D01*
X145868751Y-100024491D01*
X145798614Y-99965638D01*
X145783861Y-99953259D01*
X145775415Y-99946172D01*
X145660921Y-99904500D01*
X145539079Y-99904500D01*
X145424585Y-99946172D01*
X145416139Y-99953259D01*
X145401387Y-99965638D01*
X145331249Y-100024491D01*
X145270328Y-100130009D01*
X145249170Y-100250000D01*
X143033197Y-100250000D01*
X143029672Y-100230009D01*
X142968751Y-100124491D01*
X142875415Y-100046172D01*
X142760921Y-100004500D01*
X142639079Y-100004500D01*
X142524585Y-100046172D01*
X142431249Y-100124491D01*
X142370328Y-100230009D01*
X142349170Y-100350000D01*
X135532155Y-100350000D01*
X135526608Y-98050000D01*
X137699170Y-98050000D01*
X137720328Y-98169991D01*
X137781249Y-98275509D01*
X137789690Y-98282592D01*
X137789691Y-98282593D01*
X137810436Y-98300000D01*
X137874585Y-98353828D01*
X137989079Y-98395500D01*
X138110921Y-98395500D01*
X138155469Y-98379286D01*
X138226323Y-98374784D01*
X138288363Y-98409304D01*
X138307681Y-98434688D01*
X138350695Y-98509191D01*
X138437278Y-98581843D01*
X138447634Y-98585612D01*
X138447637Y-98585614D01*
X138533126Y-98616729D01*
X138543487Y-98620500D01*
X138656513Y-98620500D01*
X138666874Y-98616729D01*
X138752363Y-98585614D01*
X138752366Y-98585612D01*
X138762722Y-98581843D01*
X138849305Y-98509191D01*
X138905817Y-98411308D01*
X138908605Y-98395500D01*
X138923530Y-98310855D01*
X138925444Y-98300000D01*
X138921836Y-98279539D01*
X138907731Y-98199544D01*
X138907730Y-98199542D01*
X138905817Y-98188692D01*
X138883478Y-98150000D01*
X143649170Y-98150000D01*
X143670328Y-98269991D01*
X143731249Y-98375509D01*
X143824585Y-98453828D01*
X143939079Y-98495500D01*
X144060921Y-98495500D01*
X144175415Y-98453828D01*
X144268751Y-98375509D01*
X144329672Y-98269991D01*
X144350830Y-98150000D01*
X144329672Y-98030009D01*
X144268751Y-97924491D01*
X144175415Y-97846172D01*
X144060921Y-97804500D01*
X143939079Y-97804500D01*
X143824585Y-97846172D01*
X143731249Y-97924491D01*
X143670328Y-98030009D01*
X143649170Y-98150000D01*
X138883478Y-98150000D01*
X138849305Y-98090809D01*
X138789786Y-98040866D01*
X138771168Y-98025244D01*
X138762722Y-98018157D01*
X138752366Y-98014388D01*
X138752363Y-98014386D01*
X138666874Y-97983271D01*
X138666873Y-97983271D01*
X138656513Y-97979500D01*
X138543487Y-97979500D01*
X138531077Y-97984017D01*
X138527668Y-97984234D01*
X138522272Y-97985185D01*
X138522166Y-97984583D01*
X138460223Y-97988517D01*
X138398184Y-97953997D01*
X138378867Y-97928614D01*
X138324262Y-97834036D01*
X138324261Y-97834035D01*
X138318751Y-97824491D01*
X138225415Y-97746172D01*
X138110921Y-97704500D01*
X137989079Y-97704500D01*
X137874585Y-97746172D01*
X137781249Y-97824491D01*
X137720328Y-97930009D01*
X137699170Y-98050000D01*
X135526608Y-98050000D01*
X135524920Y-97350000D01*
X138499170Y-97350000D01*
X138520328Y-97469991D01*
X138581249Y-97575509D01*
X138589690Y-97582592D01*
X138589691Y-97582593D01*
X138637050Y-97622332D01*
X138674585Y-97653828D01*
X138789079Y-97695500D01*
X138910921Y-97695500D01*
X139025415Y-97653828D01*
X139062950Y-97622332D01*
X139110309Y-97582593D01*
X139110310Y-97582592D01*
X139118751Y-97575509D01*
X139179672Y-97469991D01*
X139200830Y-97350000D01*
X139179672Y-97230009D01*
X139118751Y-97124491D01*
X139025415Y-97046172D01*
X138910921Y-97004500D01*
X138789079Y-97004500D01*
X138674585Y-97046172D01*
X138581249Y-97124491D01*
X138520328Y-97230009D01*
X138499170Y-97350000D01*
X135524920Y-97350000D01*
X135514770Y-93141087D01*
X136259500Y-93141087D01*
X136259501Y-94858912D01*
X136264751Y-94885311D01*
X136284753Y-94915247D01*
X136314689Y-94935249D01*
X136341087Y-94940500D01*
X137199514Y-94940500D01*
X138058912Y-94940499D01*
X138064986Y-94939291D01*
X138064987Y-94939291D01*
X138073138Y-94937670D01*
X138073139Y-94937670D01*
X138085311Y-94935249D01*
X138095629Y-94928355D01*
X138095631Y-94928354D01*
X138104929Y-94922141D01*
X138115247Y-94915247D01*
X138135249Y-94885311D01*
X138140500Y-94858913D01*
X138140499Y-94000000D01*
X138794319Y-94000000D01*
X138814984Y-94196618D01*
X138876077Y-94384643D01*
X138974928Y-94555857D01*
X138979346Y-94560764D01*
X138979347Y-94560765D01*
X139022899Y-94609134D01*
X139107216Y-94702778D01*
X139209508Y-94777098D01*
X139246299Y-94803828D01*
X139267159Y-94818984D01*
X139273187Y-94821668D01*
X139273189Y-94821669D01*
X139439314Y-94895632D01*
X139447768Y-94899396D01*
X139522342Y-94915247D01*
X139634692Y-94939128D01*
X139634696Y-94939128D01*
X139641149Y-94940500D01*
X139838851Y-94940500D01*
X139845304Y-94939128D01*
X139845308Y-94939128D01*
X139852967Y-94937500D01*
X145311670Y-94937500D01*
X145332828Y-95057491D01*
X145393749Y-95163009D01*
X145487085Y-95241328D01*
X145601579Y-95283000D01*
X145723421Y-95283000D01*
X145837915Y-95241328D01*
X145931251Y-95163009D01*
X145992172Y-95057491D01*
X146013330Y-94937500D01*
X145992172Y-94817509D01*
X145931251Y-94711991D01*
X145920272Y-94702778D01*
X145846361Y-94640759D01*
X145837915Y-94633672D01*
X145723421Y-94592000D01*
X145601579Y-94592000D01*
X145487085Y-94633672D01*
X145478639Y-94640759D01*
X145404729Y-94702778D01*
X145393749Y-94711991D01*
X145332828Y-94817509D01*
X145311670Y-94937500D01*
X139852967Y-94937500D01*
X139957658Y-94915247D01*
X140032232Y-94899396D01*
X140040686Y-94895632D01*
X140206811Y-94821669D01*
X140206813Y-94821668D01*
X140212841Y-94818984D01*
X140233702Y-94803828D01*
X140270492Y-94777098D01*
X140372784Y-94702778D01*
X140457101Y-94609134D01*
X140500653Y-94560765D01*
X140500654Y-94560764D01*
X140505072Y-94555857D01*
X140537321Y-94500000D01*
X143149170Y-94500000D01*
X143170328Y-94619991D01*
X143231249Y-94725509D01*
X143324585Y-94803828D01*
X143439079Y-94845500D01*
X143560921Y-94845500D01*
X143675415Y-94803828D01*
X143768751Y-94725509D01*
X143829672Y-94619991D01*
X143850830Y-94500000D01*
X143829672Y-94380009D01*
X143768751Y-94274491D01*
X143675415Y-94196172D01*
X143560921Y-94154500D01*
X143439079Y-94154500D01*
X143324585Y-94196172D01*
X143231249Y-94274491D01*
X143170328Y-94380009D01*
X143149170Y-94500000D01*
X140537321Y-94500000D01*
X140603923Y-94384643D01*
X140665016Y-94196618D01*
X140685681Y-94000000D01*
X140665016Y-93803382D01*
X140603923Y-93615357D01*
X140505072Y-93444143D01*
X140372784Y-93297222D01*
X140212841Y-93181016D01*
X140206813Y-93178332D01*
X140206811Y-93178331D01*
X140038263Y-93103289D01*
X140038262Y-93103289D01*
X140032232Y-93100604D01*
X139925224Y-93077859D01*
X139845308Y-93060872D01*
X139845304Y-93060872D01*
X139838851Y-93059500D01*
X139641149Y-93059500D01*
X139634696Y-93060872D01*
X139634692Y-93060872D01*
X139554776Y-93077859D01*
X139447768Y-93100604D01*
X139441738Y-93103289D01*
X139441737Y-93103289D01*
X139273190Y-93178331D01*
X139273188Y-93178332D01*
X139267160Y-93181016D01*
X139261819Y-93184896D01*
X139261818Y-93184897D01*
X139228601Y-93209031D01*
X139107216Y-93297222D01*
X138974928Y-93444143D01*
X138876077Y-93615357D01*
X138814984Y-93803382D01*
X138794319Y-94000000D01*
X138140499Y-94000000D01*
X138140499Y-93141088D01*
X138135249Y-93114689D01*
X138125171Y-93099605D01*
X138122141Y-93095071D01*
X138115247Y-93084753D01*
X138085311Y-93064751D01*
X138058913Y-93059500D01*
X137200486Y-93059500D01*
X136341088Y-93059501D01*
X136335014Y-93060709D01*
X136335013Y-93060709D01*
X136326862Y-93062330D01*
X136326861Y-93062330D01*
X136314689Y-93064751D01*
X136304371Y-93071645D01*
X136304369Y-93071646D01*
X136304368Y-93071647D01*
X136284753Y-93084753D01*
X136264751Y-93114689D01*
X136259500Y-93141087D01*
X135514770Y-93141087D01*
X135513701Y-92698015D01*
X135533539Y-92629846D01*
X135587082Y-92583224D01*
X135623909Y-92572705D01*
X136268696Y-92491250D01*
X136273945Y-92490698D01*
X136976346Y-92431715D01*
X137224483Y-92410879D01*
X137229741Y-92410548D01*
X138182751Y-92370605D01*
X138188028Y-92370494D01*
X139141914Y-92370494D01*
X139147191Y-92370605D01*
G37*
%TD.AperFunction*%
%TD*%
%TA.AperFunction,Conductor*%
%TO.N,+3.3V*%
G36*
X155788176Y-100066958D02*
G01*
X155998005Y-100299997D01*
X156001454Y-100303992D01*
X156609478Y-101038967D01*
X156612756Y-101043102D01*
X157189473Y-101802899D01*
X157192555Y-101807142D01*
X157736671Y-102590021D01*
X157736952Y-102590426D01*
X157739872Y-102594822D01*
X158250967Y-103400180D01*
X158253701Y-103404694D01*
X158730631Y-104230760D01*
X158733174Y-104235385D01*
X159175104Y-105080719D01*
X159177450Y-105085446D01*
X159583575Y-105948507D01*
X159585722Y-105953328D01*
X159941440Y-106799544D01*
X159955363Y-106832666D01*
X159957299Y-106837556D01*
X159976485Y-106889145D01*
X160039869Y-107059580D01*
X160044866Y-107130401D01*
X160010781Y-107192680D01*
X159948437Y-107226646D01*
X159921771Y-107229500D01*
X159843487Y-107229500D01*
X159833127Y-107233271D01*
X159833126Y-107233271D01*
X159747637Y-107264386D01*
X159747634Y-107264388D01*
X159737278Y-107268157D01*
X159650695Y-107340809D01*
X159594183Y-107438692D01*
X159592270Y-107449542D01*
X159592269Y-107449544D01*
X159581458Y-107510855D01*
X159574556Y-107550000D01*
X159594183Y-107661308D01*
X159650695Y-107759191D01*
X159659142Y-107766279D01*
X159712130Y-107810741D01*
X159737278Y-107831843D01*
X159747634Y-107835612D01*
X159747637Y-107835614D01*
X159833126Y-107866729D01*
X159843487Y-107870500D01*
X159956513Y-107870500D01*
X159966874Y-107866729D01*
X160052363Y-107835614D01*
X160052366Y-107835612D01*
X160062722Y-107831843D01*
X160123733Y-107780649D01*
X160188773Y-107752185D01*
X160258878Y-107763403D01*
X160311789Y-107810741D01*
X160324555Y-107838233D01*
X160362333Y-107954500D01*
X160586294Y-108643784D01*
X160587819Y-108648836D01*
X160844327Y-109567544D01*
X160845640Y-109572656D01*
X161063459Y-110501332D01*
X161064556Y-110506494D01*
X161149084Y-110949603D01*
X161222070Y-111332207D01*
X161243292Y-111443458D01*
X161244169Y-111448641D01*
X161379231Y-112363272D01*
X161383514Y-112392279D01*
X161384174Y-112397499D01*
X161465458Y-113170866D01*
X161483884Y-113346181D01*
X161484324Y-113351423D01*
X161499680Y-113595500D01*
X161544217Y-114303406D01*
X161544438Y-114308679D01*
X161550701Y-114607654D01*
X161563958Y-115240500D01*
X161564415Y-115262332D01*
X161564415Y-115267610D01*
X161544438Y-116221263D01*
X161544217Y-116226536D01*
X161537047Y-116340500D01*
X161501369Y-116907599D01*
X161484325Y-117178503D01*
X161483885Y-117183751D01*
X161388362Y-118092602D01*
X161384176Y-118132426D01*
X161383517Y-118137640D01*
X161261493Y-118963984D01*
X161244172Y-119081281D01*
X161243296Y-119086463D01*
X161239331Y-119107246D01*
X161176629Y-119435944D01*
X161164409Y-119500000D01*
X158036035Y-119500000D01*
X158066538Y-119481271D01*
X158160825Y-119377105D01*
X158222086Y-119250662D01*
X158245396Y-119112107D01*
X158245544Y-119100000D01*
X158225626Y-118960917D01*
X158167472Y-118833015D01*
X158075758Y-118726576D01*
X158068227Y-118721695D01*
X158068224Y-118721692D01*
X157965388Y-118655037D01*
X157965386Y-118655036D01*
X157957857Y-118650156D01*
X157949260Y-118647585D01*
X157949258Y-118647584D01*
X157869216Y-118623647D01*
X157823246Y-118609899D01*
X157814270Y-118609844D01*
X157814269Y-118609844D01*
X157755015Y-118609482D01*
X157682747Y-118609041D01*
X157547654Y-118647651D01*
X157428828Y-118722624D01*
X157335821Y-118827935D01*
X157276109Y-118955117D01*
X157274729Y-118963981D01*
X157274728Y-118963984D01*
X157273822Y-118969807D01*
X157254493Y-119093946D01*
X157255657Y-119102848D01*
X157255657Y-119102851D01*
X157257495Y-119116903D01*
X157272711Y-119233262D01*
X157329297Y-119361864D01*
X157335074Y-119368737D01*
X157335075Y-119368738D01*
X157342108Y-119377105D01*
X157419704Y-119469416D01*
X157465649Y-119500000D01*
X156600000Y-119500000D01*
X156600000Y-118476672D01*
X156627123Y-118499431D01*
X156637481Y-118503201D01*
X156637483Y-118503202D01*
X156685162Y-118520555D01*
X156739961Y-118540500D01*
X156860039Y-118540500D01*
X156914838Y-118520555D01*
X156962517Y-118503202D01*
X156962519Y-118503201D01*
X156972877Y-118499431D01*
X157064862Y-118422246D01*
X157124902Y-118318254D01*
X157145753Y-118200000D01*
X157124902Y-118081746D01*
X157064862Y-117977754D01*
X156972877Y-117900569D01*
X156962519Y-117896799D01*
X156962517Y-117896798D01*
X156909015Y-117877325D01*
X156860039Y-117859500D01*
X156739961Y-117859500D01*
X156627124Y-117900569D01*
X156600000Y-117923329D01*
X156600000Y-117376672D01*
X156627123Y-117399431D01*
X156637481Y-117403201D01*
X156637483Y-117403202D01*
X156690985Y-117422675D01*
X156739961Y-117440500D01*
X156860039Y-117440500D01*
X156909015Y-117422675D01*
X156962517Y-117403202D01*
X156962519Y-117403201D01*
X156972877Y-117399431D01*
X157064862Y-117322246D01*
X157124902Y-117218254D01*
X157145753Y-117100000D01*
X157124902Y-116981746D01*
X157079916Y-116903828D01*
X157070375Y-116887302D01*
X157070374Y-116887300D01*
X157064862Y-116877754D01*
X156972877Y-116800569D01*
X156962519Y-116796799D01*
X156962517Y-116796798D01*
X156909015Y-116777325D01*
X156860039Y-116759500D01*
X156739961Y-116759500D01*
X156627124Y-116800569D01*
X156600000Y-116823329D01*
X156600000Y-116600000D01*
X159949170Y-116600000D01*
X159970328Y-116719991D01*
X160011513Y-116791325D01*
X160020942Y-116807656D01*
X160031249Y-116825509D01*
X160039690Y-116832592D01*
X160039691Y-116832593D01*
X160104890Y-116887302D01*
X160124585Y-116903828D01*
X160239079Y-116945500D01*
X160360921Y-116945500D01*
X160475415Y-116903828D01*
X160495110Y-116887302D01*
X160560309Y-116832593D01*
X160560310Y-116832592D01*
X160568751Y-116825509D01*
X160579059Y-116807656D01*
X160588487Y-116791325D01*
X160629672Y-116719991D01*
X160650830Y-116600000D01*
X160629672Y-116480009D01*
X160568751Y-116374491D01*
X160475415Y-116296172D01*
X160360921Y-116254500D01*
X160239079Y-116254500D01*
X160124585Y-116296172D01*
X160031249Y-116374491D01*
X159970328Y-116480009D01*
X159949170Y-116600000D01*
X156600000Y-116600000D01*
X156600000Y-116276672D01*
X156627123Y-116299431D01*
X156637481Y-116303201D01*
X156637483Y-116303202D01*
X156690985Y-116322675D01*
X156739961Y-116340500D01*
X156860039Y-116340500D01*
X156909015Y-116322675D01*
X156962517Y-116303202D01*
X156962519Y-116303201D01*
X156972877Y-116299431D01*
X157064862Y-116222246D01*
X157124902Y-116118254D01*
X157145753Y-116000000D01*
X157124902Y-115881746D01*
X157064862Y-115777754D01*
X156972877Y-115700569D01*
X156962519Y-115696799D01*
X156962517Y-115696798D01*
X156909015Y-115677325D01*
X156860039Y-115659500D01*
X156739961Y-115659500D01*
X156627124Y-115700569D01*
X156600000Y-115723329D01*
X156600000Y-115176672D01*
X156627123Y-115199431D01*
X156637481Y-115203201D01*
X156637483Y-115203202D01*
X156690985Y-115222675D01*
X156739961Y-115240500D01*
X156860039Y-115240500D01*
X156909015Y-115222675D01*
X156962517Y-115203202D01*
X156962519Y-115203201D01*
X156972877Y-115199431D01*
X157064862Y-115122246D01*
X157124902Y-115018254D01*
X157145753Y-114900000D01*
X157124902Y-114781746D01*
X157064862Y-114677754D01*
X156972877Y-114600569D01*
X156962519Y-114596799D01*
X156962517Y-114596798D01*
X156909015Y-114577325D01*
X156860039Y-114559500D01*
X156739961Y-114559500D01*
X156627124Y-114600569D01*
X156600000Y-114623329D01*
X156600000Y-114076672D01*
X156627123Y-114099431D01*
X156637481Y-114103201D01*
X156637483Y-114103202D01*
X156690985Y-114122675D01*
X156739961Y-114140500D01*
X156860039Y-114140500D01*
X156909015Y-114122675D01*
X156962517Y-114103202D01*
X156962519Y-114103201D01*
X156972877Y-114099431D01*
X157064862Y-114022246D01*
X157124902Y-113918254D01*
X157145753Y-113800000D01*
X157124902Y-113681746D01*
X157064862Y-113577754D01*
X156972877Y-113500569D01*
X156962519Y-113496799D01*
X156962517Y-113496798D01*
X156904024Y-113475509D01*
X156860039Y-113459500D01*
X156739961Y-113459500D01*
X156627124Y-113500569D01*
X156600000Y-113523329D01*
X156600000Y-113250000D01*
X160099170Y-113250000D01*
X160120328Y-113369991D01*
X160181249Y-113475509D01*
X160189690Y-113482592D01*
X160189691Y-113482593D01*
X160219560Y-113507656D01*
X160274585Y-113553828D01*
X160389079Y-113595500D01*
X160510921Y-113595500D01*
X160625415Y-113553828D01*
X160680440Y-113507656D01*
X160710309Y-113482593D01*
X160710310Y-113482592D01*
X160718751Y-113475509D01*
X160779672Y-113369991D01*
X160800830Y-113250000D01*
X160779672Y-113130009D01*
X160718751Y-113024491D01*
X160680443Y-112992346D01*
X160633861Y-112953259D01*
X160625415Y-112946172D01*
X160510921Y-112904500D01*
X160389079Y-112904500D01*
X160274585Y-112946172D01*
X160266139Y-112953259D01*
X160219558Y-112992346D01*
X160181249Y-113024491D01*
X160120328Y-113130009D01*
X160099170Y-113250000D01*
X156600000Y-113250000D01*
X156600000Y-112976672D01*
X156627123Y-112999431D01*
X156637481Y-113003201D01*
X156637483Y-113003202D01*
X156676512Y-113017407D01*
X156739961Y-113040500D01*
X156860039Y-113040500D01*
X156923488Y-113017407D01*
X156962517Y-113003202D01*
X156962519Y-113003201D01*
X156972877Y-112999431D01*
X157064862Y-112922246D01*
X157124902Y-112818254D01*
X157145753Y-112700000D01*
X157124902Y-112581746D01*
X157064862Y-112477754D01*
X156972877Y-112400569D01*
X156962519Y-112396799D01*
X156962517Y-112396798D01*
X156909015Y-112377325D01*
X156860039Y-112359500D01*
X156739961Y-112359500D01*
X156627124Y-112400569D01*
X156600000Y-112423329D01*
X156600000Y-112100000D01*
X150500000Y-112100000D01*
X150488481Y-109750000D01*
X154974556Y-109750000D01*
X154994183Y-109861308D01*
X155050695Y-109959191D01*
X155137278Y-110031843D01*
X155147634Y-110035612D01*
X155147637Y-110035614D01*
X155233126Y-110066729D01*
X155243487Y-110070500D01*
X155356513Y-110070500D01*
X155366874Y-110066729D01*
X155452363Y-110035614D01*
X155452366Y-110035612D01*
X155462722Y-110031843D01*
X155549305Y-109959191D01*
X155605817Y-109861308D01*
X155625444Y-109750000D01*
X155605817Y-109638692D01*
X155549305Y-109540809D01*
X155496523Y-109496520D01*
X155457198Y-109437412D01*
X155456072Y-109366424D01*
X155496523Y-109303480D01*
X155549305Y-109259191D01*
X155605817Y-109161308D01*
X155625444Y-109050000D01*
X155605817Y-108938692D01*
X155549305Y-108840809D01*
X155462722Y-108768157D01*
X155452366Y-108764388D01*
X155452363Y-108764386D01*
X155366874Y-108733271D01*
X155366873Y-108733271D01*
X155356513Y-108729500D01*
X155243487Y-108729500D01*
X155233127Y-108733271D01*
X155233126Y-108733271D01*
X155147637Y-108764386D01*
X155147634Y-108764388D01*
X155137278Y-108768157D01*
X155050695Y-108840809D01*
X154994183Y-108938692D01*
X154974556Y-109050000D01*
X154994183Y-109161308D01*
X155050695Y-109259191D01*
X155103477Y-109303480D01*
X155142802Y-109362588D01*
X155143928Y-109433576D01*
X155103477Y-109496520D01*
X155050695Y-109540809D01*
X154994183Y-109638692D01*
X154974556Y-109750000D01*
X150488481Y-109750000D01*
X150482627Y-108555821D01*
X150510309Y-108532593D01*
X150510310Y-108532592D01*
X150518751Y-108525509D01*
X150579672Y-108419991D01*
X150600830Y-108300000D01*
X150579672Y-108180009D01*
X150518751Y-108074491D01*
X150480108Y-108042065D01*
X150477451Y-107500000D01*
X153774556Y-107500000D01*
X153776470Y-107510855D01*
X153785287Y-107560855D01*
X153794183Y-107611308D01*
X153850695Y-107709191D01*
X153937278Y-107781843D01*
X153947634Y-107785612D01*
X153947637Y-107785614D01*
X154016674Y-107810741D01*
X154043487Y-107820500D01*
X154156513Y-107820500D01*
X154183326Y-107810741D01*
X154252363Y-107785614D01*
X154252366Y-107785612D01*
X154262722Y-107781843D01*
X154349305Y-107709191D01*
X154405817Y-107611308D01*
X154414714Y-107560855D01*
X154423530Y-107510855D01*
X154425444Y-107500000D01*
X154405817Y-107388692D01*
X154349305Y-107290809D01*
X154330756Y-107275244D01*
X154271168Y-107225244D01*
X154262722Y-107218157D01*
X154252366Y-107214388D01*
X154252363Y-107214386D01*
X154166874Y-107183271D01*
X154166873Y-107183271D01*
X154156513Y-107179500D01*
X154043487Y-107179500D01*
X154033127Y-107183271D01*
X154033126Y-107183271D01*
X153947637Y-107214386D01*
X153947634Y-107214388D01*
X153937278Y-107218157D01*
X153928832Y-107225244D01*
X153869245Y-107275244D01*
X153850695Y-107290809D01*
X153794183Y-107388692D01*
X153774556Y-107500000D01*
X150477451Y-107500000D01*
X150474509Y-106900000D01*
X152474556Y-106900000D01*
X152494183Y-107011308D01*
X152535596Y-107083038D01*
X152544108Y-107097781D01*
X152550695Y-107109191D01*
X152637278Y-107181843D01*
X152647634Y-107185612D01*
X152647637Y-107185614D01*
X152726689Y-107214386D01*
X152743487Y-107220500D01*
X152856513Y-107220500D01*
X152873311Y-107214386D01*
X152952363Y-107185614D01*
X152952366Y-107185612D01*
X152962722Y-107181843D01*
X153049305Y-107109191D01*
X153055893Y-107097781D01*
X153064404Y-107083038D01*
X153105817Y-107011308D01*
X153125444Y-106900000D01*
X153119577Y-106866729D01*
X153107731Y-106799544D01*
X153107730Y-106799542D01*
X153105817Y-106788692D01*
X153049305Y-106690809D01*
X152975199Y-106628626D01*
X152971168Y-106625244D01*
X152962722Y-106618157D01*
X152952366Y-106614388D01*
X152952363Y-106614386D01*
X152866874Y-106583271D01*
X152866873Y-106583271D01*
X152856513Y-106579500D01*
X152743487Y-106579500D01*
X152637278Y-106618157D01*
X152628831Y-106625245D01*
X152622975Y-106628626D01*
X152562690Y-106643251D01*
X152563749Y-106654338D01*
X152549146Y-106693492D01*
X152494183Y-106788692D01*
X152492270Y-106799542D01*
X152492269Y-106799544D01*
X152480423Y-106866729D01*
X152474556Y-106900000D01*
X150474509Y-106900000D01*
X150471323Y-106250000D01*
X151874556Y-106250000D01*
X151876470Y-106260855D01*
X151892252Y-106350356D01*
X151894183Y-106361308D01*
X151950695Y-106459191D01*
X151959142Y-106466279D01*
X152028832Y-106524756D01*
X152037278Y-106531843D01*
X152047634Y-106535612D01*
X152047637Y-106535614D01*
X152133126Y-106566729D01*
X152143487Y-106570500D01*
X152256513Y-106570500D01*
X152283013Y-106560855D01*
X152352361Y-106535614D01*
X152362722Y-106531843D01*
X152371169Y-106524755D01*
X152377025Y-106521374D01*
X152437310Y-106506749D01*
X152436251Y-106495662D01*
X152450854Y-106456508D01*
X152461140Y-106438692D01*
X152483479Y-106400000D01*
X153724556Y-106400000D01*
X153726470Y-106410855D01*
X153731379Y-106438692D01*
X153744183Y-106511308D01*
X153800695Y-106609191D01*
X153809142Y-106616279D01*
X153854499Y-106654338D01*
X153887278Y-106681843D01*
X153897634Y-106685612D01*
X153897637Y-106685614D01*
X153983126Y-106716729D01*
X153993487Y-106720500D01*
X154106513Y-106720500D01*
X154116874Y-106716729D01*
X154202363Y-106685614D01*
X154202366Y-106685612D01*
X154212722Y-106681843D01*
X154245501Y-106654338D01*
X154290858Y-106616279D01*
X154299305Y-106609191D01*
X154333478Y-106550000D01*
X156824556Y-106550000D01*
X156826470Y-106560855D01*
X156837824Y-106625244D01*
X156844183Y-106661308D01*
X156900695Y-106759191D01*
X156987278Y-106831843D01*
X156997634Y-106835612D01*
X156997637Y-106835614D01*
X157083126Y-106866729D01*
X157093487Y-106870500D01*
X157206513Y-106870500D01*
X157216874Y-106866729D01*
X157302363Y-106835614D01*
X157302366Y-106835612D01*
X157312722Y-106831843D01*
X157399305Y-106759191D01*
X157455817Y-106661308D01*
X157462177Y-106625244D01*
X157473530Y-106560855D01*
X157475444Y-106550000D01*
X157470993Y-106524756D01*
X157457731Y-106449544D01*
X157457730Y-106449542D01*
X157455817Y-106438692D01*
X157399305Y-106340809D01*
X157350128Y-106299544D01*
X157321168Y-106275244D01*
X157312722Y-106268157D01*
X157302366Y-106264388D01*
X157302363Y-106264386D01*
X157216874Y-106233271D01*
X157216873Y-106233271D01*
X157206513Y-106229500D01*
X157093487Y-106229500D01*
X157083127Y-106233271D01*
X157083126Y-106233271D01*
X156997637Y-106264386D01*
X156997634Y-106264388D01*
X156987278Y-106268157D01*
X156978832Y-106275244D01*
X156949873Y-106299544D01*
X156900695Y-106340809D01*
X156844183Y-106438692D01*
X156842270Y-106449542D01*
X156842269Y-106449544D01*
X156829007Y-106524756D01*
X156824556Y-106550000D01*
X154333478Y-106550000D01*
X154355817Y-106511308D01*
X154368622Y-106438692D01*
X154373530Y-106410855D01*
X154375444Y-106400000D01*
X154370304Y-106370851D01*
X154357731Y-106299544D01*
X154357730Y-106299542D01*
X154355817Y-106288692D01*
X154299305Y-106190809D01*
X154250128Y-106149544D01*
X154221168Y-106125244D01*
X154212722Y-106118157D01*
X154202366Y-106114388D01*
X154202363Y-106114386D01*
X154116874Y-106083271D01*
X154116873Y-106083271D01*
X154106513Y-106079500D01*
X153993487Y-106079500D01*
X153983127Y-106083271D01*
X153983126Y-106083271D01*
X153897637Y-106114386D01*
X153897634Y-106114388D01*
X153887278Y-106118157D01*
X153878832Y-106125244D01*
X153849873Y-106149544D01*
X153800695Y-106190809D01*
X153744183Y-106288692D01*
X153742270Y-106299542D01*
X153742269Y-106299544D01*
X153729696Y-106370851D01*
X153724556Y-106400000D01*
X152483479Y-106400000D01*
X152505817Y-106361308D01*
X152507749Y-106350356D01*
X152523530Y-106260855D01*
X152525444Y-106250000D01*
X152523530Y-106239145D01*
X152507731Y-106149544D01*
X152507730Y-106149542D01*
X152505817Y-106138692D01*
X152449305Y-106040809D01*
X152362722Y-105968157D01*
X152352366Y-105964388D01*
X152352363Y-105964386D01*
X152266874Y-105933271D01*
X152266873Y-105933271D01*
X152256513Y-105929500D01*
X152143487Y-105929500D01*
X152133127Y-105933271D01*
X152133126Y-105933271D01*
X152047637Y-105964386D01*
X152047634Y-105964388D01*
X152037278Y-105968157D01*
X151950695Y-106040809D01*
X151894183Y-106138692D01*
X151892270Y-106149542D01*
X151892269Y-106149544D01*
X151876470Y-106239145D01*
X151874556Y-106250000D01*
X150471323Y-106250000D01*
X150466704Y-105307616D01*
X150747015Y-105429499D01*
X151117700Y-105547799D01*
X151324517Y-105591382D01*
X151495322Y-105627377D01*
X151495327Y-105627378D01*
X151498441Y-105628034D01*
X151885342Y-105669382D01*
X151888529Y-105669399D01*
X151888535Y-105669399D01*
X152065240Y-105670324D01*
X152274440Y-105671419D01*
X152421548Y-105657254D01*
X152658588Y-105634430D01*
X152658593Y-105634429D01*
X152661753Y-105634125D01*
X152664873Y-105633502D01*
X152664877Y-105633501D01*
X153040186Y-105558507D01*
X153040185Y-105558507D01*
X153043314Y-105557882D01*
X153328816Y-105470050D01*
X153412175Y-105444406D01*
X153412178Y-105444405D01*
X153415217Y-105443470D01*
X153418145Y-105442233D01*
X153418151Y-105442231D01*
X153579606Y-105374029D01*
X153773653Y-105292060D01*
X153776456Y-105290526D01*
X153776461Y-105290523D01*
X153992077Y-105172476D01*
X154114954Y-105105203D01*
X154435625Y-104884813D01*
X154670512Y-104685614D01*
X154729952Y-104635205D01*
X154729954Y-104635203D01*
X154732382Y-104633144D01*
X154734587Y-104630852D01*
X154734593Y-104630847D01*
X154956741Y-104400000D01*
X155524556Y-104400000D01*
X155544183Y-104511308D01*
X155600695Y-104609191D01*
X155609142Y-104616279D01*
X155629241Y-104633144D01*
X155687278Y-104681843D01*
X155697634Y-104685612D01*
X155697637Y-104685614D01*
X155783126Y-104716729D01*
X155793487Y-104720500D01*
X155906513Y-104720500D01*
X155916874Y-104716729D01*
X156002363Y-104685614D01*
X156002366Y-104685612D01*
X156012722Y-104681843D01*
X156070759Y-104633144D01*
X156090858Y-104616279D01*
X156099305Y-104609191D01*
X156155817Y-104511308D01*
X156175444Y-104400000D01*
X157524556Y-104400000D01*
X157544183Y-104511308D01*
X157600695Y-104609191D01*
X157609142Y-104616279D01*
X157629241Y-104633144D01*
X157687278Y-104681843D01*
X157697634Y-104685612D01*
X157697637Y-104685614D01*
X157783126Y-104716729D01*
X157793487Y-104720500D01*
X157906513Y-104720500D01*
X157916874Y-104716729D01*
X158002363Y-104685614D01*
X158002366Y-104685612D01*
X158012722Y-104681843D01*
X158070759Y-104633144D01*
X158090858Y-104616279D01*
X158099305Y-104609191D01*
X158155817Y-104511308D01*
X158175444Y-104400000D01*
X158155817Y-104288692D01*
X158099305Y-104190809D01*
X158012722Y-104118157D01*
X158002366Y-104114388D01*
X158002363Y-104114386D01*
X157916874Y-104083271D01*
X157916873Y-104083271D01*
X157906513Y-104079500D01*
X157793487Y-104079500D01*
X157783127Y-104083271D01*
X157783126Y-104083271D01*
X157697637Y-104114386D01*
X157697634Y-104114388D01*
X157687278Y-104118157D01*
X157600695Y-104190809D01*
X157544183Y-104288692D01*
X157524556Y-104400000D01*
X156175444Y-104400000D01*
X156155817Y-104288692D01*
X156099305Y-104190809D01*
X156012722Y-104118157D01*
X156002366Y-104114388D01*
X156002363Y-104114386D01*
X155916874Y-104083271D01*
X155916873Y-104083271D01*
X155906513Y-104079500D01*
X155793487Y-104079500D01*
X155783127Y-104083271D01*
X155783126Y-104083271D01*
X155697637Y-104114386D01*
X155697634Y-104114388D01*
X155687278Y-104118157D01*
X155600695Y-104190809D01*
X155544183Y-104288692D01*
X155524556Y-104400000D01*
X154956741Y-104400000D01*
X154967187Y-104389145D01*
X155002187Y-104352775D01*
X155242278Y-104046576D01*
X155450197Y-103717681D01*
X155451617Y-103714832D01*
X155451622Y-103714824D01*
X155622394Y-103372307D01*
X155623814Y-103369459D01*
X155761353Y-103005474D01*
X155861404Y-102629453D01*
X155867656Y-102590426D01*
X155922439Y-102248398D01*
X155922944Y-102245247D01*
X155945342Y-101856788D01*
X155945436Y-101829942D01*
X155925750Y-101441336D01*
X155866894Y-101056710D01*
X155769470Y-100680000D01*
X155768365Y-100677012D01*
X155635585Y-100318061D01*
X155635582Y-100318055D01*
X155634476Y-100315064D01*
X155581389Y-100206700D01*
X155569382Y-100136726D01*
X155597112Y-100071369D01*
X155655775Y-100031379D01*
X155726745Y-100029453D01*
X155788176Y-100066958D01*
G37*
%TD.AperFunction*%
%TD*%
%TA.AperFunction,Conductor*%
%TO.N,+VSW*%
G36*
X130942121Y-94820002D02*
G01*
X130988614Y-94873658D01*
X131000000Y-94926000D01*
X131000000Y-101097139D01*
X130999870Y-101102860D01*
X130965524Y-101858483D01*
X130900000Y-103300000D01*
X130900000Y-106498186D01*
X130899949Y-106501785D01*
X130891157Y-106809487D01*
X130869217Y-106877008D01*
X130814255Y-106921950D01*
X130743722Y-106930042D01*
X130729116Y-106926608D01*
X130673246Y-106909899D01*
X130664270Y-106909844D01*
X130664269Y-106909844D01*
X130605015Y-106909482D01*
X130532747Y-106909041D01*
X130397654Y-106947651D01*
X130375448Y-106961662D01*
X130365263Y-106968088D01*
X130296978Y-106987521D01*
X130229026Y-106966951D01*
X130182983Y-106912909D01*
X130173775Y-106840621D01*
X130174704Y-106835103D01*
X130195396Y-106712107D01*
X130195544Y-106700000D01*
X130175626Y-106560917D01*
X130117472Y-106433015D01*
X130025758Y-106326576D01*
X130018227Y-106321695D01*
X130018224Y-106321692D01*
X129915388Y-106255037D01*
X129915386Y-106255036D01*
X129907857Y-106250156D01*
X129899260Y-106247585D01*
X129899258Y-106247584D01*
X129819216Y-106223647D01*
X129773246Y-106209899D01*
X129764270Y-106209844D01*
X129764269Y-106209844D01*
X129705015Y-106209482D01*
X129632747Y-106209041D01*
X129549448Y-106232848D01*
X129478454Y-106232336D01*
X129419007Y-106193522D01*
X129389980Y-106128730D01*
X129390570Y-106090797D01*
X129394589Y-106066908D01*
X129394590Y-106066899D01*
X129395396Y-106062107D01*
X129395544Y-106050000D01*
X129375626Y-105910917D01*
X129317472Y-105783015D01*
X129225758Y-105676576D01*
X129218227Y-105671695D01*
X129218224Y-105671692D01*
X129115388Y-105605037D01*
X129115386Y-105605036D01*
X129107857Y-105600156D01*
X129099260Y-105597585D01*
X129099258Y-105597584D01*
X129015027Y-105572394D01*
X128973246Y-105559899D01*
X128964270Y-105559844D01*
X128964269Y-105559844D01*
X128905015Y-105559482D01*
X128832747Y-105559041D01*
X128697654Y-105597651D01*
X128578828Y-105672624D01*
X128572886Y-105679352D01*
X128572885Y-105679353D01*
X128545165Y-105710740D01*
X128485079Y-105748558D01*
X128470450Y-105748420D01*
X128474258Y-105757260D01*
X128463237Y-105826035D01*
X128429924Y-105896991D01*
X128426109Y-105905117D01*
X128424729Y-105913981D01*
X128424728Y-105913984D01*
X128409042Y-106014733D01*
X128404493Y-106043946D01*
X128405657Y-106052848D01*
X128405657Y-106052851D01*
X128415580Y-106128730D01*
X128422711Y-106183262D01*
X128435564Y-106212472D01*
X128465589Y-106280709D01*
X128479297Y-106311864D01*
X128485074Y-106318737D01*
X128485075Y-106318738D01*
X128547963Y-106393552D01*
X128569704Y-106419416D01*
X128686663Y-106497271D01*
X128695233Y-106499948D01*
X128695232Y-106499948D01*
X128793146Y-106530538D01*
X128820772Y-106539169D01*
X128829742Y-106539333D01*
X128829746Y-106539334D01*
X128894544Y-106540521D01*
X128961250Y-106541744D01*
X129052476Y-106516873D01*
X129123459Y-106518253D01*
X129182428Y-106557790D01*
X129210660Y-106622932D01*
X129210118Y-106657819D01*
X129204493Y-106693946D01*
X129205657Y-106702848D01*
X129205657Y-106702851D01*
X129219602Y-106809487D01*
X129222711Y-106833262D01*
X129279208Y-106961661D01*
X129279208Y-106961662D01*
X129279297Y-106961864D01*
X129279268Y-106961877D01*
X129297045Y-107025816D01*
X129276063Y-107093642D01*
X129221743Y-107139356D01*
X129171058Y-107150000D01*
X125518572Y-107150000D01*
X122437500Y-111775000D01*
X122437944Y-111794377D01*
X122437944Y-111794378D01*
X122463305Y-112900092D01*
X122495041Y-114283765D01*
X122497044Y-114371111D01*
X122478609Y-114439672D01*
X122426034Y-114487383D01*
X122371077Y-114500000D01*
X120643071Y-114500000D01*
X120574950Y-114479998D01*
X120528457Y-114426342D01*
X120518353Y-114356068D01*
X120549657Y-114289444D01*
X120554798Y-114283765D01*
X120554802Y-114283759D01*
X120560825Y-114277105D01*
X120589569Y-114217777D01*
X120618172Y-114158741D01*
X120618172Y-114158740D01*
X120622086Y-114150662D01*
X120645396Y-114012107D01*
X120645544Y-114000000D01*
X120625626Y-113860917D01*
X120593172Y-113789540D01*
X120571187Y-113741185D01*
X120571186Y-113741183D01*
X120567472Y-113733015D01*
X120475758Y-113626576D01*
X120468227Y-113621695D01*
X120468224Y-113621692D01*
X120365388Y-113555037D01*
X120365386Y-113555036D01*
X120357857Y-113550156D01*
X120349260Y-113547585D01*
X120349258Y-113547584D01*
X120265796Y-113522624D01*
X120223246Y-113509899D01*
X120214270Y-113509844D01*
X120214269Y-113509844D01*
X120155015Y-113509482D01*
X120082747Y-113509041D01*
X119947654Y-113547651D01*
X119828828Y-113622624D01*
X119735821Y-113727935D01*
X119676109Y-113855117D01*
X119674729Y-113863981D01*
X119674728Y-113863984D01*
X119665149Y-113925509D01*
X119654493Y-113993946D01*
X119655657Y-114002848D01*
X119655657Y-114002851D01*
X119667838Y-114095999D01*
X119672711Y-114133262D01*
X119729297Y-114261864D01*
X119755406Y-114292924D01*
X119783928Y-114357939D01*
X119772772Y-114428054D01*
X119725481Y-114481007D01*
X119658956Y-114500000D01*
X115910163Y-114500000D01*
X115842042Y-114479998D01*
X115795549Y-114426342D01*
X115784191Y-114371361D01*
X115785504Y-114308679D01*
X115785725Y-114303406D01*
X115822038Y-113726215D01*
X115845618Y-113351423D01*
X115846058Y-113346181D01*
X115864484Y-113170866D01*
X115940886Y-112443946D01*
X119654493Y-112443946D01*
X119655657Y-112452848D01*
X119655657Y-112452851D01*
X119657495Y-112466903D01*
X119672711Y-112583262D01*
X119729297Y-112711864D01*
X119735074Y-112718737D01*
X119735075Y-112718738D01*
X119742108Y-112727105D01*
X119819704Y-112819416D01*
X119936663Y-112897271D01*
X120070772Y-112939169D01*
X120079742Y-112939333D01*
X120079746Y-112939334D01*
X120144544Y-112940521D01*
X120211250Y-112941744D01*
X120268624Y-112926102D01*
X120338145Y-112907149D01*
X120338147Y-112907148D01*
X120346804Y-112904788D01*
X120466538Y-112831271D01*
X120560825Y-112727105D01*
X120622086Y-112600662D01*
X120645396Y-112462107D01*
X120645544Y-112450000D01*
X120625626Y-112310917D01*
X120593172Y-112239540D01*
X120571187Y-112191185D01*
X120571186Y-112191183D01*
X120567472Y-112183015D01*
X120475758Y-112076576D01*
X120468227Y-112071695D01*
X120468224Y-112071692D01*
X120365388Y-112005037D01*
X120365386Y-112005036D01*
X120357857Y-112000156D01*
X120349260Y-111997585D01*
X120349258Y-111997584D01*
X120269216Y-111973647D01*
X120223246Y-111959899D01*
X120214270Y-111959844D01*
X120214269Y-111959844D01*
X120155015Y-111959482D01*
X120082747Y-111959041D01*
X119947654Y-111997651D01*
X119828828Y-112072624D01*
X119735821Y-112177935D01*
X119676109Y-112305117D01*
X119674729Y-112313981D01*
X119674728Y-112313984D01*
X119662538Y-112392279D01*
X119654493Y-112443946D01*
X115940886Y-112443946D01*
X115945768Y-112397499D01*
X115946428Y-112392279D01*
X115949166Y-112373743D01*
X116085773Y-111448641D01*
X116086650Y-111443458D01*
X116107873Y-111332207D01*
X116180783Y-110950000D01*
X117849170Y-110950000D01*
X117870328Y-111069991D01*
X117931249Y-111175509D01*
X118024585Y-111253828D01*
X118139079Y-111295500D01*
X118260921Y-111295500D01*
X118375415Y-111253828D01*
X118468751Y-111175509D01*
X118529672Y-111069991D01*
X118550830Y-110950000D01*
X118529672Y-110830009D01*
X118468751Y-110724491D01*
X118390093Y-110658488D01*
X118383861Y-110653259D01*
X118375415Y-110646172D01*
X118260921Y-110604500D01*
X118139079Y-110604500D01*
X118024585Y-110646172D01*
X118016139Y-110653259D01*
X118009908Y-110658488D01*
X117931249Y-110724491D01*
X117870328Y-110830009D01*
X117849170Y-110950000D01*
X116180783Y-110950000D01*
X116225152Y-110717407D01*
X116265386Y-110506494D01*
X116266483Y-110501332D01*
X116484302Y-109572656D01*
X116485615Y-109567544D01*
X116630116Y-109050000D01*
X119749170Y-109050000D01*
X119770328Y-109169991D01*
X119831249Y-109275509D01*
X119839690Y-109282592D01*
X119839691Y-109282593D01*
X119916139Y-109346741D01*
X119924585Y-109353828D01*
X120039079Y-109395500D01*
X120160921Y-109395500D01*
X120275415Y-109353828D01*
X120283861Y-109346741D01*
X120360309Y-109282593D01*
X120360310Y-109282592D01*
X120368751Y-109275509D01*
X120429672Y-109169991D01*
X120450830Y-109050000D01*
X120429672Y-108930009D01*
X120388487Y-108858675D01*
X120374262Y-108834036D01*
X120374261Y-108834035D01*
X120368751Y-108824491D01*
X120275415Y-108746172D01*
X120160921Y-108704500D01*
X120039079Y-108704500D01*
X119924585Y-108746172D01*
X119831249Y-108824491D01*
X119825739Y-108834035D01*
X119825738Y-108834036D01*
X119811513Y-108858675D01*
X119770328Y-108930009D01*
X119749170Y-109050000D01*
X116630116Y-109050000D01*
X116742123Y-108648836D01*
X116743648Y-108643784D01*
X117025420Y-107776576D01*
X117038408Y-107736603D01*
X117040140Y-107731629D01*
X117051845Y-107700156D01*
X117372643Y-106837556D01*
X117374579Y-106832666D01*
X117378070Y-106824363D01*
X117744220Y-105953328D01*
X117746367Y-105948507D01*
X118152492Y-105085446D01*
X118154838Y-105080719D01*
X118596768Y-104235385D01*
X118599311Y-104230760D01*
X119076241Y-103404694D01*
X119078975Y-103400180D01*
X119590070Y-102594822D01*
X119592990Y-102590426D01*
X119593272Y-102590021D01*
X120137387Y-101807142D01*
X120140469Y-101802899D01*
X120717186Y-101043102D01*
X120720464Y-101038967D01*
X121328488Y-100303992D01*
X121331937Y-100299997D01*
X121391803Y-100233509D01*
X121541067Y-100067734D01*
X121601512Y-100030495D01*
X121672495Y-100031847D01*
X121731480Y-100071360D01*
X121759738Y-100136491D01*
X121747659Y-100207872D01*
X121700775Y-100302735D01*
X121564508Y-100667198D01*
X121465770Y-101043566D01*
X121465277Y-101046715D01*
X121465275Y-101046724D01*
X121436373Y-101231289D01*
X121405572Y-101427984D01*
X121384529Y-101816519D01*
X121402859Y-102205191D01*
X121460372Y-102590021D01*
X121461158Y-102593103D01*
X121461158Y-102593105D01*
X121552801Y-102952633D01*
X121556480Y-102967068D01*
X121690199Y-103332474D01*
X121860161Y-103682495D01*
X122064624Y-104013549D01*
X122301495Y-104322246D01*
X122303677Y-104324562D01*
X122303686Y-104324572D01*
X122332434Y-104355078D01*
X122568350Y-104605425D01*
X122862455Y-104860187D01*
X122865065Y-104862022D01*
X122865071Y-104862026D01*
X123037738Y-104983378D01*
X123180800Y-105083924D01*
X123520126Y-105274344D01*
X123523025Y-105275605D01*
X123523030Y-105275607D01*
X123659795Y-105335074D01*
X123876957Y-105429499D01*
X124247642Y-105547799D01*
X124454459Y-105591382D01*
X124625264Y-105627377D01*
X124625269Y-105627378D01*
X124628383Y-105628034D01*
X125015284Y-105669382D01*
X125018471Y-105669399D01*
X125018477Y-105669399D01*
X125195182Y-105670324D01*
X125404382Y-105671419D01*
X125551490Y-105657254D01*
X125788530Y-105634430D01*
X125788535Y-105634429D01*
X125791695Y-105634125D01*
X125794815Y-105633502D01*
X125794819Y-105633501D01*
X126150285Y-105562472D01*
X126173256Y-105557882D01*
X126458758Y-105470050D01*
X126542117Y-105444406D01*
X126542120Y-105444405D01*
X126545159Y-105443470D01*
X126548087Y-105442233D01*
X126548093Y-105442231D01*
X126749279Y-105357246D01*
X126903595Y-105292060D01*
X126906398Y-105290526D01*
X126906403Y-105290523D01*
X127235643Y-105110269D01*
X127305000Y-105095100D01*
X127371548Y-105119837D01*
X127414158Y-105176625D01*
X127420651Y-105240172D01*
X127404493Y-105343946D01*
X127405657Y-105352848D01*
X127405657Y-105352851D01*
X127417630Y-105444406D01*
X127422711Y-105483262D01*
X127479297Y-105611864D01*
X127569704Y-105719416D01*
X127686663Y-105797271D01*
X127820772Y-105839169D01*
X127829742Y-105839333D01*
X127829746Y-105839334D01*
X127894544Y-105840521D01*
X127961250Y-105841744D01*
X128018870Y-105826035D01*
X128088145Y-105807149D01*
X128088147Y-105807148D01*
X128096804Y-105804788D01*
X128216538Y-105731271D01*
X128255768Y-105687931D01*
X128316309Y-105650851D01*
X128328978Y-105651125D01*
X128325843Y-105644086D01*
X128337332Y-105572394D01*
X128343413Y-105559844D01*
X128372086Y-105500662D01*
X128395396Y-105362107D01*
X128395544Y-105350000D01*
X128375626Y-105210917D01*
X128329864Y-105110269D01*
X128321187Y-105091185D01*
X128321186Y-105091183D01*
X128317472Y-105083015D01*
X128225758Y-104976576D01*
X128218227Y-104971695D01*
X128218224Y-104971692D01*
X128115388Y-104905037D01*
X128115386Y-104905036D01*
X128107857Y-104900156D01*
X128099260Y-104897585D01*
X128099258Y-104897584D01*
X128019216Y-104873647D01*
X127973246Y-104859899D01*
X127964270Y-104859844D01*
X127964269Y-104859844D01*
X127956006Y-104859794D01*
X127937810Y-104859683D01*
X127869813Y-104839266D01*
X127823648Y-104785328D01*
X127813973Y-104714993D01*
X127843859Y-104650594D01*
X127857080Y-104637592D01*
X127859887Y-104635211D01*
X127859890Y-104635208D01*
X127862324Y-104633144D01*
X127864529Y-104630852D01*
X127864535Y-104630847D01*
X127974550Y-104516524D01*
X128132129Y-104352775D01*
X128372220Y-104046576D01*
X128580139Y-103717681D01*
X128581559Y-103714832D01*
X128581564Y-103714824D01*
X128752336Y-103372307D01*
X128753756Y-103369459D01*
X128891295Y-103005474D01*
X128902336Y-102963981D01*
X128990525Y-102632538D01*
X128991346Y-102629453D01*
X128997598Y-102590426D01*
X129052381Y-102248398D01*
X129052886Y-102245247D01*
X129055014Y-102208352D01*
X129075186Y-101858483D01*
X129075284Y-101856788D01*
X129075378Y-101829942D01*
X129055692Y-101441336D01*
X128996836Y-101056710D01*
X128899412Y-100680000D01*
X128895813Y-100670271D01*
X128765527Y-100318061D01*
X128765524Y-100318055D01*
X128764418Y-100315064D01*
X128593236Y-99965638D01*
X128585936Y-99953909D01*
X128389305Y-99638009D01*
X128387619Y-99635300D01*
X128149671Y-99327431D01*
X128125379Y-99301833D01*
X127884029Y-99047502D01*
X127884026Y-99047500D01*
X127881830Y-99045185D01*
X127586837Y-98791451D01*
X127267713Y-98568827D01*
X126927725Y-98379592D01*
X126924805Y-98378334D01*
X126924800Y-98378332D01*
X126573287Y-98226947D01*
X126573277Y-98226943D01*
X126570353Y-98225684D01*
X126199259Y-98108678D01*
X125925807Y-98052049D01*
X125821364Y-98030420D01*
X125821361Y-98030420D01*
X125818239Y-98029773D01*
X125520415Y-97998996D01*
X125434353Y-97990102D01*
X125434350Y-97990102D01*
X125431197Y-97989776D01*
X125428031Y-97989770D01*
X125428022Y-97989770D01*
X125235916Y-97989435D01*
X125042093Y-97989097D01*
X124849120Y-98008358D01*
X124658086Y-98027426D01*
X124658080Y-98027427D01*
X124654913Y-98027743D01*
X124457119Y-98067984D01*
X124276746Y-98104681D01*
X124276742Y-98104682D01*
X124273621Y-98105317D01*
X124270579Y-98106264D01*
X124270573Y-98106266D01*
X124087871Y-98163172D01*
X123902120Y-98221027D01*
X123599852Y-98349955D01*
X123529347Y-98358284D01*
X123465531Y-98327171D01*
X123428666Y-98266496D01*
X123430457Y-98195522D01*
X123468088Y-98138677D01*
X124066279Y-97622332D01*
X124070345Y-97618968D01*
X124525737Y-97258029D01*
X124817888Y-97026472D01*
X124822090Y-97023283D01*
X125593784Y-96462615D01*
X125598118Y-96459603D01*
X125850438Y-96291962D01*
X126392616Y-95931740D01*
X126397050Y-95928926D01*
X126664647Y-95766864D01*
X127212956Y-95434796D01*
X127217526Y-95432157D01*
X128053413Y-94972624D01*
X128058090Y-94970179D01*
X128374443Y-94813140D01*
X128430467Y-94800000D01*
X130874000Y-94800000D01*
X130942121Y-94820002D01*
G37*
%TD.AperFunction*%
%TD*%
M02*
