  0
SECTION
  2
HEADER
  9
$ANGBASE
  50
0.0
  9
$ANGDIR
  70
1
  9
$MEASUREMENT
  70
1
  0
ENDSEC
  0
SECTION
  2
TABLES
  0
TABLE
  2
LTYPE
  70
4
  0
LTYPE
  5
40F
  2
CONTINUOUS
  70
0
  3
Solid line
  72
65
  73
0
  40
0.0
  0
LTYPE
  5
410
  2
DASHDOT
 70
0
  3
Dash Dot ____ _ ____ _
 72
65
 73
4
 40
2.0
 49
1.25
 49
-0.25
 49
0.25
 49
-0.25
  0
LTYPE
  5
411
  2
DASHED
 70
0
  3
Dashed __ __ __ __ __
 72
65
 73
2
 40
0.75
 49
0.5
 49
-0.25
  0
LTYPE
  5
43B
  2
DOTTED
 70
0
  3
Dotted .  .  .  .
 72
65
 73
2
 40
0.2
 49
0.0
 49
-0.2
  0
ENDTAB
  0
TABLE
  2
STYLE
  70
4
  0
STYLE
  2
KICAD
  70
0
  40
0
  41
1
  42
1
  50
0
  71
0
  3
isocp.shx
  0
STYLE
  2
KICADB
  70
0
  40
0
  41
1
  42
1
  50
0
  71
0
  3
isocp.shx
  0
STYLE
  2
KICADI
  70
0
  40
0
  41
1
  42
1
  50
15
  71
0
  3
isocp.shx
  0
STYLE
  2
KICADBI
  70
0
  40
0
  41
1
  42
1
  50
15
  71
0
  3
isocp.shx
  0
ENDTAB
  0
TABLE
  2
LAYER
  70
1
  0
LAYER
  2
BLACK
  70
0
  62
7
  6
CONTINUOUS
  0
ENDTAB
  0
ENDSEC
  0
SECTION
  2
ENTITIES
0
LINE
8
BLACK
6
CONTINUOUS
10
115.869
20
-111.409
11
116.271
21
-109.515
0
LINE
8
BLACK
6
CONTINUOUS
10
116.271
20
-109.515
11
116.831
21
-107.662
0
LINE
8
BLACK
6
CONTINUOUS
10
116.831
20
-107.662
11
117.544
21
-105.861
0
LINE
8
BLACK
6
CONTINUOUS
10
117.544
20
-105.861
11
118.405
21
-104.127
0
LINE
8
BLACK
6
CONTINUOUS
10
118.405
20
-104.127
11
119.408
21
-102.471
0
LINE
8
BLACK
6
CONTINUOUS
10
119.408
20
-102.471
11
120.546
21
-100.904
0
LINE
8
BLACK
6
CONTINUOUS
10
120.546
20
-100.904
11
121.811
21
-99.4382
0
LINE
8
BLACK
6
CONTINUOUS
10
121.811
20
-99.4382
11
123.195
21
-98.0835
0
LINE
8
BLACK
6
CONTINUOUS
10
123.195
20
-98.0835
11
124.687
21
-96.8492
0
LINE
8
BLACK
6
CONTINUOUS
10
124.687
20
-96.8492
11
126.277
21
-95.7441
0
LINE
8
BLACK
6
CONTINUOUS
10
126.277
20
-95.7441
11
127.954
21
-94.7759
0
LINE
8
BLACK
6
CONTINUOUS
10
127.954
20
-94.7759
11
129.706
21
-93.9515
0
LINE
8
BLACK
6
CONTINUOUS
10
129.706
20
-93.9515
11
131.52
21
-93.2765
0
LINE
8
BLACK
6
CONTINUOUS
10
131.52
20
-93.2765
11
133.385
21
-92.7558
0
LINE
8
BLACK
6
CONTINUOUS
10
133.385
20
-92.7558
11
135.288
21
-92.393
0
LINE
8
BLACK
6
CONTINUOUS
10
135.288
20
-92.393
11
137.213
21
-92.1906
0
LINE
8
BLACK
6
CONTINUOUS
10
137.213
20
-92.1906
11
139.149
21
-92.15
0
LINE
8
BLACK
6
CONTINUOUS
10
139.149
20
-92.15
11
141.082
21
-92.2716
0
LINE
8
BLACK
6
CONTINUOUS
10
141.082
20
-92.2716
11
142.997
21
-92.5545
0
LINE
8
BLACK
6
CONTINUOUS
10
142.997
20
-92.5545
11
144.882
21
-92.9967
0
LINE
8
BLACK
6
CONTINUOUS
10
144.882
20
-92.9967
11
146.724
21
-93.595
0
LINE
8
BLACK
6
CONTINUOUS
10
146.724
20
-93.595
11
148.509
21
-94.3454
0
LINE
8
BLACK
6
CONTINUOUS
10
148.509
20
-94.3454
11
150.225
21
-95.2425
0
LINE
8
BLACK
6
CONTINUOUS
10
150.225
20
-95.2425
11
151.86
21
-96.28
0
LINE
8
BLACK
6
CONTINUOUS
10
151.86
20
-96.28
11
153.402
21
-97.4507
0
LINE
8
BLACK
6
CONTINUOUS
10
153.402
20
-97.4507
11
154.841
21
-98.7464
0
LINE
8
BLACK
6
CONTINUOUS
10
154.841
20
-98.7464
11
156.167
21
-100.158
0
LINE
8
BLACK
6
CONTINUOUS
10
156.167
20
-100.158
11
157.369
21
-101.675
0
LINE
8
BLACK
6
CONTINUOUS
10
157.369
20
-101.675
11
158.441
21
-103.288
0
LINE
8
BLACK
6
CONTINUOUS
10
158.441
20
-103.288
11
159.374
21
-104.985
0
LINE
8
BLACK
6
CONTINUOUS
10
159.374
20
-104.985
11
160.161
21
-106.754
0
LINE
8
BLACK
6
CONTINUOUS
10
160.161
20
-106.754
11
160.798
21
-108.583
0
LINE
8
BLACK
6
CONTINUOUS
10
160.798
20
-108.583
11
161.28
21
-110.458
0
LINE
8
BLACK
6
CONTINUOUS
10
161.28
20
-110.458
11
161.603
21
-112.367
0
LINE
8
BLACK
6
CONTINUOUS
10
161.603
20
-112.367
11
161.765
21
-114.297
0
LINE
8
BLACK
6
CONTINUOUS
10
161.765
20
-114.297
11
161.765
21
-116.233
0
LINE
8
BLACK
6
CONTINUOUS
10
161.765
20
-116.233
11
161.603
21
-118.163
0
LINE
8
BLACK
6
CONTINUOUS
10
161.603
20
-118.163
11
161.28
21
-120.072
0
LINE
8
BLACK
6
CONTINUOUS
10
161.28
20
-120.072
11
160.798
21
-121.947
0
LINE
8
BLACK
6
CONTINUOUS
10
160.798
20
-121.947
11
160.161
21
-123.776
0
LINE
8
BLACK
6
CONTINUOUS
10
160.161
20
-123.776
11
159.374
21
-125.545
0
LINE
8
BLACK
6
CONTINUOUS
10
159.374
20
-125.545
11
158.441
21
-127.242
0
LINE
8
BLACK
6
CONTINUOUS
10
158.441
20
-127.242
11
157.369
21
-128.855
0
LINE
8
BLACK
6
CONTINUOUS
10
157.369
20
-128.855
11
156.167
21
-130.372
0
LINE
8
BLACK
6
CONTINUOUS
10
156.167
20
-130.372
11
154.841
21
-131.784
0
LINE
8
BLACK
6
CONTINUOUS
10
154.841
20
-131.784
11
153.402
21
-133.079
0
LINE
8
BLACK
6
CONTINUOUS
10
153.402
20
-133.079
11
151.86
21
-134.25
0
LINE
8
BLACK
6
CONTINUOUS
10
151.86
20
-134.25
11
150.225
21
-135.287
0
LINE
8
BLACK
6
CONTINUOUS
10
150.225
20
-135.287
11
148.509
21
-136.185
0
LINE
8
BLACK
6
CONTINUOUS
10
148.509
20
-136.185
11
146.724
21
-136.935
0
LINE
8
BLACK
6
CONTINUOUS
10
146.724
20
-136.935
11
144.882
21
-137.533
0
LINE
8
BLACK
6
CONTINUOUS
10
144.882
20
-137.533
11
142.997
21
-137.975
0
LINE
8
BLACK
6
CONTINUOUS
10
142.997
20
-137.975
11
141.082
21
-138.258
0
LINE
8
BLACK
6
CONTINUOUS
10
141.082
20
-138.258
11
139.149
21
-138.38
0
LINE
8
BLACK
6
CONTINUOUS
10
139.149
20
-138.38
11
137.213
21
-138.339
0
LINE
8
BLACK
6
CONTINUOUS
10
137.213
20
-138.339
11
135.288
21
-138.137
0
LINE
8
BLACK
6
CONTINUOUS
10
135.288
20
-138.137
11
133.385
21
-137.774
0
LINE
8
BLACK
6
CONTINUOUS
10
133.385
20
-137.774
11
131.52
21
-137.253
0
LINE
8
BLACK
6
CONTINUOUS
10
131.52
20
-137.253
11
129.706
21
-136.578
0
LINE
8
BLACK
6
CONTINUOUS
10
129.706
20
-136.578
11
127.954
21
-135.754
0
LINE
8
BLACK
6
CONTINUOUS
10
127.954
20
-135.754
11
126.277
21
-134.786
0
LINE
8
BLACK
6
CONTINUOUS
10
126.277
20
-134.786
11
124.687
21
-133.681
0
LINE
8
BLACK
6
CONTINUOUS
10
124.687
20
-133.681
11
123.195
21
-132.446
0
LINE
8
BLACK
6
CONTINUOUS
10
123.195
20
-132.446
11
121.811
21
-131.092
0
LINE
8
BLACK
6
CONTINUOUS
10
121.811
20
-131.092
11
120.546
21
-129.626
0
LINE
8
BLACK
6
CONTINUOUS
10
120.546
20
-129.626
11
119.408
21
-128.059
0
LINE
8
BLACK
6
CONTINUOUS
10
119.408
20
-128.059
11
118.405
21
-126.403
0
LINE
8
BLACK
6
CONTINUOUS
10
118.405
20
-126.403
11
117.544
21
-124.669
0
LINE
8
BLACK
6
CONTINUOUS
10
117.544
20
-124.669
11
116.831
21
-122.868
0
LINE
8
BLACK
6
CONTINUOUS
10
116.831
20
-122.868
11
116.271
21
-121.015
0
LINE
8
BLACK
6
CONTINUOUS
10
116.271
20
-121.015
11
115.869
21
-119.121
0
LINE
8
BLACK
6
CONTINUOUS
10
115.869
20
-119.121
11
115.626
21
-117.2
0
LINE
8
BLACK
6
CONTINUOUS
10
115.626
20
-117.2
11
115.545
21
-115.265
0
LINE
8
BLACK
6
CONTINUOUS
10
115.545
20
-115.265
11
115.626
21
-113.33
0
LINE
8
BLACK
6
CONTINUOUS
10
115.626
20
-113.33
11
115.869
21
-111.409
0
LINE
8
BLACK
6
CONTINUOUS
10
116.086
20
-119.084
11
116.484
21
-120.96
0
LINE
8
BLACK
6
CONTINUOUS
10
116.484
20
-120.96
11
117.039
21
-122.796
0
LINE
8
BLACK
6
CONTINUOUS
10
117.039
20
-122.796
11
117.745
21
-124.579
0
LINE
8
BLACK
6
CONTINUOUS
10
117.745
20
-124.579
11
118.598
21
-126.297
0
LINE
8
BLACK
6
CONTINUOUS
10
118.598
20
-126.297
11
119.591
21
-127.938
0
LINE
8
BLACK
6
CONTINUOUS
10
119.591
20
-127.938
11
120.718
21
-129.489
0
LINE
8
BLACK
6
CONTINUOUS
10
120.718
20
-129.489
11
121.972
21
-130.941
0
LINE
8
BLACK
6
CONTINUOUS
10
121.972
20
-130.941
11
123.342
21
-132.283
0
LINE
8
BLACK
6
CONTINUOUS
10
123.342
20
-132.283
11
124.82
21
-133.506
0
LINE
8
BLACK
6
CONTINUOUS
10
124.82
20
-133.506
11
126.395
21
-134.6
0
LINE
8
BLACK
6
CONTINUOUS
10
126.395
20
-134.6
11
128.055
21
-135.559
0
LINE
8
BLACK
6
CONTINUOUS
10
128.055
20
-135.559
11
129.791
21
-136.376
0
LINE
8
BLACK
6
CONTINUOUS
10
129.791
20
-136.376
11
131.588
21
-137.044
0
LINE
8
BLACK
6
CONTINUOUS
10
131.588
20
-137.044
11
133.436
21
-137.56
0
LINE
8
BLACK
6
CONTINUOUS
10
133.436
20
-137.56
11
135.32
21
-137.919
0
LINE
8
BLACK
6
CONTINUOUS
10
135.32
20
-137.919
11
137.227
21
-138.12
0
LINE
8
BLACK
6
CONTINUOUS
10
137.227
20
-138.12
11
139.145
21
-138.16
0
LINE
8
BLACK
6
CONTINUOUS
10
139.145
20
-138.16
11
141.059
21
-138.04
0
LINE
8
BLACK
6
CONTINUOUS
10
141.059
20
-138.04
11
142.956
21
-137.759
0
LINE
8
BLACK
6
CONTINUOUS
10
142.956
20
-137.759
11
144.823
21
-137.321
0
LINE
8
BLACK
6
CONTINUOUS
10
144.823
20
-137.321
11
146.647
21
-136.729
0
LINE
8
BLACK
6
CONTINUOUS
10
146.647
20
-136.729
11
148.415
21
-135.986
0
LINE
8
BLACK
6
CONTINUOUS
10
148.415
20
-135.986
11
150.115
21
-135.097
0
LINE
8
BLACK
6
CONTINUOUS
10
150.115
20
-135.097
11
151.734
21
-134.069
0
LINE
8
BLACK
6
CONTINUOUS
10
151.734
20
-134.069
11
153.262
21
-132.91
0
LINE
8
BLACK
6
CONTINUOUS
10
153.262
20
-132.91
11
154.687
21
-131.626
0
LINE
8
BLACK
6
CONTINUOUS
10
154.687
20
-131.626
11
156
21
-130.228
0
LINE
8
BLACK
6
CONTINUOUS
10
156
20
-130.228
11
157.191
21
-128.725
0
LINE
8
BLACK
6
CONTINUOUS
10
157.191
20
-128.725
11
158.253
21
-127.128
0
LINE
8
BLACK
6
CONTINUOUS
10
158.253
20
-127.128
11
159.177
21
-125.447
0
LINE
8
BLACK
6
CONTINUOUS
10
159.177
20
-125.447
11
159.957
21
-123.695
0
LINE
8
BLACK
6
CONTINUOUS
10
159.957
20
-123.695
11
160.588
21
-121.884
0
LINE
8
BLACK
6
CONTINUOUS
10
160.588
20
-121.884
11
161.065
21
-120.026
0
LINE
8
BLACK
6
CONTINUOUS
10
161.065
20
-120.026
11
161.384
21
-118.135
0
LINE
8
BLACK
6
CONTINUOUS
10
161.384
20
-118.135
11
161.545
21
-116.224
0
LINE
8
BLACK
6
CONTINUOUS
10
161.545
20
-116.224
11
161.545
21
-114.306
0
LINE
8
BLACK
6
CONTINUOUS
10
161.545
20
-114.306
11
161.384
21
-112.395
0
LINE
8
BLACK
6
CONTINUOUS
10
161.384
20
-112.395
11
161.065
21
-110.504
0
LINE
8
BLACK
6
CONTINUOUS
10
161.065
20
-110.504
11
160.588
21
-108.646
0
LINE
8
BLACK
6
CONTINUOUS
10
160.588
20
-108.646
11
159.957
21
-106.835
0
LINE
8
BLACK
6
CONTINUOUS
10
159.957
20
-106.835
11
159.177
21
-105.083
0
LINE
8
BLACK
6
CONTINUOUS
10
159.177
20
-105.083
11
158.253
21
-103.402
0
LINE
8
BLACK
6
CONTINUOUS
10
158.253
20
-103.402
11
157.191
21
-101.805
0
LINE
8
BLACK
6
CONTINUOUS
10
157.191
20
-101.805
11
156
21
-100.302
0
LINE
8
BLACK
6
CONTINUOUS
10
156
20
-100.302
11
154.687
21
-98.9035
0
LINE
8
BLACK
6
CONTINUOUS
10
154.687
20
-98.9035
11
153.262
21
-97.6202
0
LINE
8
BLACK
6
CONTINUOUS
10
153.262
20
-97.6202
11
151.734
21
-96.4607
0
LINE
8
BLACK
6
CONTINUOUS
10
151.734
20
-96.4607
11
150.115
21
-95.433
0
LINE
8
BLACK
6
CONTINUOUS
10
150.115
20
-95.433
11
148.415
21
-94.5444
0
LINE
8
BLACK
6
CONTINUOUS
10
148.415
20
-94.5444
11
146.647
21
-93.8012
0
LINE
8
BLACK
6
CONTINUOUS
10
146.647
20
-93.8012
11
144.823
21
-93.2085
0
LINE
8
BLACK
6
CONTINUOUS
10
144.823
20
-93.2085
11
142.956
21
-92.7706
0
LINE
8
BLACK
6
CONTINUOUS
10
142.956
20
-92.7706
11
141.059
21
-92.4904
0
LINE
8
BLACK
6
CONTINUOUS
10
141.059
20
-92.4904
11
139.145
21
-92.37
0
LINE
8
BLACK
6
CONTINUOUS
10
139.145
20
-92.37
11
137.227
21
-92.4102
0
LINE
8
BLACK
6
CONTINUOUS
10
137.227
20
-92.4102
11
135.32
21
-92.6106
0
LINE
8
BLACK
6
CONTINUOUS
10
135.32
20
-92.6106
11
133.436
21
-92.97
0
LINE
8
BLACK
6
CONTINUOUS
10
133.436
20
-92.97
11
131.588
21
-93.4858
0
LINE
8
BLACK
6
CONTINUOUS
10
131.588
20
-93.4858
11
129.791
21
-94.1543
0
LINE
8
BLACK
6
CONTINUOUS
10
129.791
20
-94.1543
11
128.055
21
-94.9709
0
LINE
8
BLACK
6
CONTINUOUS
10
128.055
20
-94.9709
11
126.395
21
-95.9299
0
LINE
8
BLACK
6
CONTINUOUS
10
126.395
20
-95.9299
11
124.82
21
-97.0244
0
LINE
8
BLACK
6
CONTINUOUS
10
124.82
20
-97.0244
11
123.342
21
-98.247
0
LINE
8
BLACK
6
CONTINUOUS
10
123.342
20
-98.247
11
121.972
21
-99.5888
0
LINE
8
BLACK
6
CONTINUOUS
10
121.972
20
-99.5888
11
120.718
21
-101.041
0
LINE
8
BLACK
6
CONTINUOUS
10
120.718
20
-101.041
11
119.591
21
-102.592
0
LINE
8
BLACK
6
CONTINUOUS
10
119.591
20
-102.592
11
118.598
21
-104.233
0
LINE
8
BLACK
6
CONTINUOUS
10
118.598
20
-104.233
11
117.745
21
-105.951
0
LINE
8
BLACK
6
CONTINUOUS
10
117.745
20
-105.951
11
117.039
21
-107.734
0
LINE
8
BLACK
6
CONTINUOUS
10
117.039
20
-107.734
11
116.484
21
-109.57
0
LINE
8
BLACK
6
CONTINUOUS
10
116.484
20
-109.57
11
116.086
21
-111.446
0
LINE
8
BLACK
6
CONTINUOUS
10
116.086
20
-111.446
11
115.845
21
-113.349
0
LINE
8
BLACK
6
CONTINUOUS
10
115.845
20
-113.349
11
115.765
21
-115.265
0
LINE
8
BLACK
6
CONTINUOUS
10
115.765
20
-115.265
11
115.845
21
-117.181
0
LINE
8
BLACK
6
CONTINUOUS
10
115.845
20
-117.181
11
116.086
21
-119.084
0
LINE
8
BLACK
6
CONTINUOUS
10
129.887
20
-112.861
11
130.286
21
-111.712
0
LINE
8
BLACK
6
CONTINUOUS
10
130.286
20
-111.712
11
130.834
21
-110.627
0
LINE
8
BLACK
6
CONTINUOUS
10
130.834
20
-110.627
11
131.522
21
-109.625
0
LINE
8
BLACK
6
CONTINUOUS
10
131.522
20
-109.625
11
132.338
21
-108.723
0
LINE
8
BLACK
6
CONTINUOUS
10
132.338
20
-108.723
11
133.266
21
-107.938
0
LINE
8
BLACK
6
CONTINUOUS
10
133.266
20
-107.938
11
134.291
21
-107.284
0
LINE
8
BLACK
6
CONTINUOUS
10
134.291
20
-107.284
11
135.394
21
-106.772
0
LINE
8
BLACK
6
CONTINUOUS
10
135.394
20
-106.772
11
136.555
21
-106.412
0
LINE
8
BLACK
6
CONTINUOUS
10
136.555
20
-106.412
11
137.754
21
-106.21
0
LINE
8
BLACK
6
CONTINUOUS
10
137.754
20
-106.21
11
138.969
21
-106.169
0
LINE
8
BLACK
6
CONTINUOUS
10
138.969
20
-106.169
11
140.179
21
-106.291
0
LINE
8
BLACK
6
CONTINUOUS
10
140.179
20
-106.291
11
141.361
21
-106.573
0
LINE
8
BLACK
6
CONTINUOUS
10
141.361
20
-106.573
11
142.496
21
-107.009
0
LINE
8
BLACK
6
CONTINUOUS
10
142.496
20
-107.009
11
143.562
21
-107.594
0
LINE
8
BLACK
6
CONTINUOUS
10
143.562
20
-107.594
11
144.541
21
-108.315
0
LINE
8
BLACK
6
CONTINUOUS
10
144.541
20
-108.315
11
145.415
21
-109.16
0
LINE
8
BLACK
6
CONTINUOUS
10
145.415
20
-109.16
11
146.168
21
-110.114
0
LINE
8
BLACK
6
CONTINUOUS
10
146.168
20
-110.114
11
146.788
21
-111.16
0
LINE
8
BLACK
6
CONTINUOUS
10
146.788
20
-111.16
11
147.262
21
-112.28
0
LINE
8
BLACK
6
CONTINUOUS
10
147.262
20
-112.28
11
147.584
21
-113.452
0
LINE
8
BLACK
6
CONTINUOUS
10
147.584
20
-113.452
11
147.746
21
-114.657
0
LINE
8
BLACK
6
CONTINUOUS
10
147.746
20
-114.657
11
147.746
21
-115.873
0
LINE
8
BLACK
6
CONTINUOUS
10
147.746
20
-115.873
11
147.584
21
-117.078
0
LINE
8
BLACK
6
CONTINUOUS
10
147.584
20
-117.078
11
147.262
21
-118.25
0
LINE
8
BLACK
6
CONTINUOUS
10
147.262
20
-118.25
11
146.788
21
-119.37
0
LINE
8
BLACK
6
CONTINUOUS
10
146.788
20
-119.37
11
146.168
21
-120.416
0
LINE
8
BLACK
6
CONTINUOUS
10
146.168
20
-120.416
11
145.415
21
-121.37
0
LINE
8
BLACK
6
CONTINUOUS
10
145.415
20
-121.37
11
144.541
21
-122.215
0
LINE
8
BLACK
6
CONTINUOUS
10
144.541
20
-122.215
11
143.562
21
-122.936
0
LINE
8
BLACK
6
CONTINUOUS
10
143.562
20
-122.936
11
142.496
21
-123.52
0
LINE
8
BLACK
6
CONTINUOUS
10
142.496
20
-123.52
11
141.361
21
-123.957
0
LINE
8
BLACK
6
CONTINUOUS
10
141.361
20
-123.957
11
140.179
21
-124.239
0
LINE
8
BLACK
6
CONTINUOUS
10
140.179
20
-124.239
11
138.969
21
-124.361
0
LINE
8
BLACK
6
CONTINUOUS
10
138.969
20
-124.361
11
137.754
21
-124.32
0
LINE
8
BLACK
6
CONTINUOUS
10
137.754
20
-124.32
11
136.555
21
-124.118
0
LINE
8
BLACK
6
CONTINUOUS
10
136.555
20
-124.118
11
135.394
21
-123.758
0
LINE
8
BLACK
6
CONTINUOUS
10
135.394
20
-123.758
11
134.291
21
-123.246
0
LINE
8
BLACK
6
CONTINUOUS
10
134.291
20
-123.246
11
133.266
21
-122.592
0
LINE
8
BLACK
6
CONTINUOUS
10
133.266
20
-122.592
11
132.338
21
-121.807
0
LINE
8
BLACK
6
CONTINUOUS
10
132.338
20
-121.807
11
131.522
21
-120.905
0
LINE
8
BLACK
6
CONTINUOUS
10
131.522
20
-120.905
11
130.834
21
-119.903
0
LINE
8
BLACK
6
CONTINUOUS
10
130.834
20
-119.903
11
130.286
21
-118.818
0
LINE
8
BLACK
6
CONTINUOUS
10
130.286
20
-118.818
11
129.887
21
-117.669
0
LINE
8
BLACK
6
CONTINUOUS
10
129.887
20
-117.669
11
129.645
21
-116.478
0
LINE
8
BLACK
6
CONTINUOUS
10
129.645
20
-116.478
11
129.564
21
-115.265
0
LINE
8
BLACK
6
CONTINUOUS
10
129.564
20
-115.265
11
129.645
21
-114.052
0
LINE
8
BLACK
6
CONTINUOUS
10
129.645
20
-114.052
11
129.887
21
-112.861
0
LINE
8
BLACK
6
CONTINUOUS
10
130.099
20
-117.611
11
130.489
21
-118.732
0
LINE
8
BLACK
6
CONTINUOUS
10
130.489
20
-118.732
11
131.024
21
-119.791
0
LINE
8
BLACK
6
CONTINUOUS
10
131.024
20
-119.791
11
131.695
21
-120.769
0
LINE
8
BLACK
6
CONTINUOUS
10
131.695
20
-120.769
11
132.491
21
-121.649
0
LINE
8
BLACK
6
CONTINUOUS
10
132.491
20
-121.649
11
133.397
21
-122.415
0
LINE
8
BLACK
6
CONTINUOUS
10
133.397
20
-122.415
11
134.397
21
-123.053
0
LINE
8
BLACK
6
CONTINUOUS
10
134.397
20
-123.053
11
135.473
21
-123.553
0
LINE
8
BLACK
6
CONTINUOUS
10
135.473
20
-123.553
11
136.606
21
-123.904
0
LINE
8
BLACK
6
CONTINUOUS
10
136.606
20
-123.904
11
137.776
21
-124.101
0
LINE
8
BLACK
6
CONTINUOUS
10
137.776
20
-124.101
11
138.962
21
-124.141
0
LINE
8
BLACK
6
CONTINUOUS
10
138.962
20
-124.141
11
140.142
21
-124.022
0
LINE
8
BLACK
6
CONTINUOUS
10
140.142
20
-124.022
11
141.296
21
-123.747
0
LINE
8
BLACK
6
CONTINUOUS
10
141.296
20
-123.747
11
142.403
21
-123.321
0
LINE
8
BLACK
6
CONTINUOUS
10
142.403
20
-123.321
11
143.444
21
-122.751
0
LINE
8
BLACK
6
CONTINUOUS
10
143.444
20
-122.751
11
144.399
21
-122.047
0
LINE
8
BLACK
6
CONTINUOUS
10
144.399
20
-122.047
11
145.252
21
-121.222
0
LINE
8
BLACK
6
CONTINUOUS
10
145.252
20
-121.222
11
145.987
21
-120.291
0
LINE
8
BLACK
6
CONTINUOUS
10
145.987
20
-120.291
11
146.591
21
-119.27
0
LINE
8
BLACK
6
CONTINUOUS
10
146.591
20
-119.27
11
147.055
21
-118.178
0
LINE
8
BLACK
6
CONTINUOUS
10
147.055
20
-118.178
11
147.368
21
-117.034
0
LINE
8
BLACK
6
CONTINUOUS
10
147.368
20
-117.034
11
147.526
21
-115.858
0
LINE
8
BLACK
6
CONTINUOUS
10
147.526
20
-115.858
11
147.526
21
-114.672
0
LINE
8
BLACK
6
CONTINUOUS
10
147.526
20
-114.672
11
147.368
21
-113.496
0
LINE
8
BLACK
6
CONTINUOUS
10
147.368
20
-113.496
11
147.055
21
-112.352
0
LINE
8
BLACK
6
CONTINUOUS
10
147.055
20
-112.352
11
146.591
21
-111.26
0
LINE
8
BLACK
6
CONTINUOUS
10
146.591
20
-111.26
11
145.987
21
-110.239
0
LINE
8
BLACK
6
CONTINUOUS
10
145.987
20
-110.239
11
145.252
21
-109.308
0
LINE
8
BLACK
6
CONTINUOUS
10
145.252
20
-109.308
11
144.399
21
-108.483
0
LINE
8
BLACK
6
CONTINUOUS
10
144.399
20
-108.483
11
143.444
21
-107.779
0
LINE
8
BLACK
6
CONTINUOUS
10
143.444
20
-107.779
11
142.403
21
-107.209
0
LINE
8
BLACK
6
CONTINUOUS
10
142.403
20
-107.209
11
141.296
21
-106.783
0
LINE
8
BLACK
6
CONTINUOUS
10
141.296
20
-106.783
11
140.142
21
-106.508
0
LINE
8
BLACK
6
CONTINUOUS
10
140.142
20
-106.508
11
138.962
21
-106.389
0
LINE
8
BLACK
6
CONTINUOUS
10
138.962
20
-106.389
11
137.776
21
-106.429
0
LINE
8
BLACK
6
CONTINUOUS
10
137.776
20
-106.429
11
136.606
21
-106.626
0
LINE
8
BLACK
6
CONTINUOUS
10
136.606
20
-106.626
11
135.473
21
-106.977
0
LINE
8
BLACK
6
CONTINUOUS
10
135.473
20
-106.977
11
134.397
21
-107.477
0
LINE
8
BLACK
6
CONTINUOUS
10
134.397
20
-107.477
11
133.397
21
-108.115
0
LINE
8
BLACK
6
CONTINUOUS
10
133.397
20
-108.115
11
132.491
21
-108.881
0
LINE
8
BLACK
6
CONTINUOUS
10
132.491
20
-108.881
11
131.695
21
-109.761
0
LINE
8
BLACK
6
CONTINUOUS
10
131.695
20
-109.761
11
131.024
21
-110.739
0
LINE
8
BLACK
6
CONTINUOUS
10
131.024
20
-110.739
11
130.489
21
-111.798
0
LINE
8
BLACK
6
CONTINUOUS
10
130.489
20
-111.798
11
130.099
21
-112.919
0
LINE
8
BLACK
6
CONTINUOUS
10
130.099
20
-112.919
11
129.863
21
-114.081
0
LINE
8
BLACK
6
CONTINUOUS
10
129.863
20
-114.081
11
129.784
21
-115.265
0
LINE
8
BLACK
6
CONTINUOUS
10
129.784
20
-115.265
11
129.863
21
-116.449
0
LINE
8
BLACK
6
CONTINUOUS
10
129.863
20
-116.449
11
130.099
21
-117.611
  0
ENDSEC
  0
EOF
