%TF.GenerationSoftware,KiCad,Pcbnew,5.1.10-88a1d61d58~90~ubuntu20.04.1*%
%TF.CreationDate,2021-11-09T12:00:25+00:00*%
%TF.ProjectId,UFOControlDeck,55464f43-6f6e-4747-926f-6c4465636b2e,rev?*%
%TF.SameCoordinates,Original*%
%TF.FileFunction,Paste,Top*%
%TF.FilePolarity,Positive*%
%FSLAX46Y46*%
G04 Gerber Fmt 4.6, Leading zero omitted, Abs format (unit mm)*
G04 Created by KiCad (PCBNEW 5.1.10-88a1d61d58~90~ubuntu20.04.1) date 2021-11-09 12:00:25*
%MOMM*%
%LPD*%
G01*
G04 APERTURE LIST*
%ADD10C,0.010000*%
%ADD11R,0.250000X0.900000*%
%ADD12R,1.300000X0.250000*%
%ADD13R,0.900000X0.250000*%
%ADD14R,0.750000X2.100000*%
%ADD15R,2.000000X1.500000*%
%ADD16R,2.000000X3.800000*%
%ADD17R,1.600000X1.300000*%
%ADD18R,1.600000X2.000000*%
%ADD19R,0.650000X1.060000*%
%ADD20R,1.200000X3.900000*%
%ADD21R,1.060000X0.650000*%
%ADD22R,0.650000X0.850000*%
G04 APERTURE END LIST*
D10*
%TO.C,U8*%
G36*
X120900000Y-112175000D02*
G01*
X120900000Y-112425000D01*
X121400000Y-112425000D01*
X121400000Y-112975000D01*
X120900000Y-112975000D01*
X120900000Y-113225000D01*
X121400000Y-113225000D01*
X121400000Y-113775000D01*
X120900000Y-113775000D01*
X120900000Y-114025000D01*
X122200000Y-114025000D01*
X122200000Y-112175000D01*
X120900000Y-112175000D01*
G37*
X120900000Y-112175000D02*
X120900000Y-112425000D01*
X121400000Y-112425000D01*
X121400000Y-112975000D01*
X120900000Y-112975000D01*
X120900000Y-113225000D01*
X121400000Y-113225000D01*
X121400000Y-113775000D01*
X120900000Y-113775000D01*
X120900000Y-114025000D01*
X122200000Y-114025000D01*
X122200000Y-112175000D01*
X120900000Y-112175000D01*
G36*
X124500000Y-112175000D02*
G01*
X124500000Y-112425000D01*
X124000000Y-112425000D01*
X124000000Y-112975000D01*
X124500000Y-112975000D01*
X124500000Y-113225000D01*
X124000000Y-113225000D01*
X124000000Y-113775000D01*
X124500000Y-113775000D01*
X124500000Y-114025000D01*
X123200000Y-114025000D01*
X123200000Y-112175000D01*
X124500000Y-112175000D01*
G37*
X124500000Y-112175000D02*
X124500000Y-112425000D01*
X124000000Y-112425000D01*
X124000000Y-112975000D01*
X124500000Y-112975000D01*
X124500000Y-113225000D01*
X124000000Y-113225000D01*
X124000000Y-113775000D01*
X124500000Y-113775000D01*
X124500000Y-114025000D01*
X123200000Y-114025000D01*
X123200000Y-112175000D01*
X124500000Y-112175000D01*
%TD*%
%TO.C,D3*%
G36*
G01*
X146012500Y-108500000D02*
X146487500Y-108500000D01*
G75*
G02*
X146725000Y-108737500I0J-237500D01*
G01*
X146725000Y-109312500D01*
G75*
G02*
X146487500Y-109550000I-237500J0D01*
G01*
X146012500Y-109550000D01*
G75*
G02*
X145775000Y-109312500I0J237500D01*
G01*
X145775000Y-108737500D01*
G75*
G02*
X146012500Y-108500000I237500J0D01*
G01*
G37*
G36*
G01*
X146012500Y-106750000D02*
X146487500Y-106750000D01*
G75*
G02*
X146725000Y-106987500I0J-237500D01*
G01*
X146725000Y-107562500D01*
G75*
G02*
X146487500Y-107800000I-237500J0D01*
G01*
X146012500Y-107800000D01*
G75*
G02*
X145775000Y-107562500I0J237500D01*
G01*
X145775000Y-106987500D01*
G75*
G02*
X146012500Y-106750000I237500J0D01*
G01*
G37*
%TD*%
%TO.C,D1*%
G36*
G01*
X147512500Y-108500000D02*
X147987500Y-108500000D01*
G75*
G02*
X148225000Y-108737500I0J-237500D01*
G01*
X148225000Y-109312500D01*
G75*
G02*
X147987500Y-109550000I-237500J0D01*
G01*
X147512500Y-109550000D01*
G75*
G02*
X147275000Y-109312500I0J237500D01*
G01*
X147275000Y-108737500D01*
G75*
G02*
X147512500Y-108500000I237500J0D01*
G01*
G37*
G36*
G01*
X147512500Y-106750000D02*
X147987500Y-106750000D01*
G75*
G02*
X148225000Y-106987500I0J-237500D01*
G01*
X148225000Y-107562500D01*
G75*
G02*
X147987500Y-107800000I-237500J0D01*
G01*
X147512500Y-107800000D01*
G75*
G02*
X147275000Y-107562500I0J237500D01*
G01*
X147275000Y-106987500D01*
G75*
G02*
X147512500Y-106750000I237500J0D01*
G01*
G37*
%TD*%
%TO.C,C48*%
G36*
G01*
X142837500Y-95012499D02*
X142362500Y-95012499D01*
G75*
G02*
X142125000Y-94774999I0J237500D01*
G01*
X142125000Y-94174999D01*
G75*
G02*
X142362500Y-93937499I237500J0D01*
G01*
X142837500Y-93937499D01*
G75*
G02*
X143075000Y-94174999I0J-237500D01*
G01*
X143075000Y-94774999D01*
G75*
G02*
X142837500Y-95012499I-237500J0D01*
G01*
G37*
G36*
G01*
X142837500Y-96737499D02*
X142362500Y-96737499D01*
G75*
G02*
X142125000Y-96499999I0J237500D01*
G01*
X142125000Y-95899999D01*
G75*
G02*
X142362500Y-95662499I237500J0D01*
G01*
X142837500Y-95662499D01*
G75*
G02*
X143075000Y-95899999I0J-237500D01*
G01*
X143075000Y-96499999D01*
G75*
G02*
X142837500Y-96737499I-237500J0D01*
G01*
G37*
%TD*%
D11*
%TO.C,U8*%
X122525000Y-109350000D03*
D12*
X123850000Y-111500000D03*
D13*
X124050000Y-111000000D03*
X124050000Y-110000000D03*
X124050000Y-109500000D03*
D12*
X121550000Y-111500000D03*
D13*
X121350000Y-111000000D03*
X121350000Y-110500000D03*
X121350000Y-110000000D03*
X121350000Y-109500000D03*
%TD*%
%TO.C,R35*%
G36*
G01*
X117162500Y-111075000D02*
X117637500Y-111075000D01*
G75*
G02*
X117875000Y-111312500I0J-237500D01*
G01*
X117875000Y-111812500D01*
G75*
G02*
X117637500Y-112050000I-237500J0D01*
G01*
X117162500Y-112050000D01*
G75*
G02*
X116925000Y-111812500I0J237500D01*
G01*
X116925000Y-111312500D01*
G75*
G02*
X117162500Y-111075000I237500J0D01*
G01*
G37*
G36*
G01*
X117162500Y-109250000D02*
X117637500Y-109250000D01*
G75*
G02*
X117875000Y-109487500I0J-237500D01*
G01*
X117875000Y-109987500D01*
G75*
G02*
X117637500Y-110225000I-237500J0D01*
G01*
X117162500Y-110225000D01*
G75*
G02*
X116925000Y-109987500I0J237500D01*
G01*
X116925000Y-109487500D01*
G75*
G02*
X117162500Y-109250000I237500J0D01*
G01*
G37*
%TD*%
%TO.C,R15*%
G36*
G01*
X154912500Y-122587500D02*
X154912500Y-122112500D01*
G75*
G02*
X155150000Y-121875000I237500J0D01*
G01*
X155650000Y-121875000D01*
G75*
G02*
X155887500Y-122112500I0J-237500D01*
G01*
X155887500Y-122587500D01*
G75*
G02*
X155650000Y-122825000I-237500J0D01*
G01*
X155150000Y-122825000D01*
G75*
G02*
X154912500Y-122587500I0J237500D01*
G01*
G37*
G36*
G01*
X153087500Y-122587500D02*
X153087500Y-122112500D01*
G75*
G02*
X153325000Y-121875000I237500J0D01*
G01*
X153825000Y-121875000D01*
G75*
G02*
X154062500Y-122112500I0J-237500D01*
G01*
X154062500Y-122587500D01*
G75*
G02*
X153825000Y-122825000I-237500J0D01*
G01*
X153325000Y-122825000D01*
G75*
G02*
X153087500Y-122587500I0J237500D01*
G01*
G37*
%TD*%
%TO.C,R14*%
G36*
G01*
X154062500Y-123712500D02*
X154062500Y-124187500D01*
G75*
G02*
X153825000Y-124425000I-237500J0D01*
G01*
X153325000Y-124425000D01*
G75*
G02*
X153087500Y-124187500I0J237500D01*
G01*
X153087500Y-123712500D01*
G75*
G02*
X153325000Y-123475000I237500J0D01*
G01*
X153825000Y-123475000D01*
G75*
G02*
X154062500Y-123712500I0J-237500D01*
G01*
G37*
G36*
G01*
X155887500Y-123712500D02*
X155887500Y-124187500D01*
G75*
G02*
X155650000Y-124425000I-237500J0D01*
G01*
X155150000Y-124425000D01*
G75*
G02*
X154912500Y-124187500I0J237500D01*
G01*
X154912500Y-123712500D01*
G75*
G02*
X155150000Y-123475000I237500J0D01*
G01*
X155650000Y-123475000D01*
G75*
G02*
X155887500Y-123712500I0J-237500D01*
G01*
G37*
%TD*%
%TO.C,R9*%
G36*
G01*
X131062500Y-126787500D02*
X131062500Y-127262500D01*
G75*
G02*
X130825000Y-127500000I-237500J0D01*
G01*
X130325000Y-127500000D01*
G75*
G02*
X130087500Y-127262500I0J237500D01*
G01*
X130087500Y-126787500D01*
G75*
G02*
X130325000Y-126550000I237500J0D01*
G01*
X130825000Y-126550000D01*
G75*
G02*
X131062500Y-126787500I0J-237500D01*
G01*
G37*
G36*
G01*
X132887500Y-126787500D02*
X132887500Y-127262500D01*
G75*
G02*
X132650000Y-127500000I-237500J0D01*
G01*
X132150000Y-127500000D01*
G75*
G02*
X131912500Y-127262500I0J237500D01*
G01*
X131912500Y-126787500D01*
G75*
G02*
X132150000Y-126550000I237500J0D01*
G01*
X132650000Y-126550000D01*
G75*
G02*
X132887500Y-126787500I0J-237500D01*
G01*
G37*
%TD*%
%TO.C,R6*%
G36*
G01*
X117637500Y-113537500D02*
X117162500Y-113537500D01*
G75*
G02*
X116925000Y-113300000I0J237500D01*
G01*
X116925000Y-112800000D01*
G75*
G02*
X117162500Y-112562500I237500J0D01*
G01*
X117637500Y-112562500D01*
G75*
G02*
X117875000Y-112800000I0J-237500D01*
G01*
X117875000Y-113300000D01*
G75*
G02*
X117637500Y-113537500I-237500J0D01*
G01*
G37*
G36*
G01*
X117637500Y-115362500D02*
X117162500Y-115362500D01*
G75*
G02*
X116925000Y-115125000I0J237500D01*
G01*
X116925000Y-114625000D01*
G75*
G02*
X117162500Y-114387500I237500J0D01*
G01*
X117637500Y-114387500D01*
G75*
G02*
X117875000Y-114625000I0J-237500D01*
G01*
X117875000Y-115125000D01*
G75*
G02*
X117637500Y-115362500I-237500J0D01*
G01*
G37*
%TD*%
%TO.C,R5*%
G36*
G01*
X118712500Y-109162500D02*
X119187500Y-109162500D01*
G75*
G02*
X119425000Y-109400000I0J-237500D01*
G01*
X119425000Y-109900000D01*
G75*
G02*
X119187500Y-110137500I-237500J0D01*
G01*
X118712500Y-110137500D01*
G75*
G02*
X118475000Y-109900000I0J237500D01*
G01*
X118475000Y-109400000D01*
G75*
G02*
X118712500Y-109162500I237500J0D01*
G01*
G37*
G36*
G01*
X118712500Y-107337500D02*
X119187500Y-107337500D01*
G75*
G02*
X119425000Y-107575000I0J-237500D01*
G01*
X119425000Y-108075000D01*
G75*
G02*
X119187500Y-108312500I-237500J0D01*
G01*
X118712500Y-108312500D01*
G75*
G02*
X118475000Y-108075000I0J237500D01*
G01*
X118475000Y-107575000D01*
G75*
G02*
X118712500Y-107337500I237500J0D01*
G01*
G37*
%TD*%
%TO.C,R4*%
G36*
G01*
X118712500Y-113062500D02*
X119187500Y-113062500D01*
G75*
G02*
X119425000Y-113300000I0J-237500D01*
G01*
X119425000Y-113800000D01*
G75*
G02*
X119187500Y-114037500I-237500J0D01*
G01*
X118712500Y-114037500D01*
G75*
G02*
X118475000Y-113800000I0J237500D01*
G01*
X118475000Y-113300000D01*
G75*
G02*
X118712500Y-113062500I237500J0D01*
G01*
G37*
G36*
G01*
X118712500Y-111237500D02*
X119187500Y-111237500D01*
G75*
G02*
X119425000Y-111475000I0J-237500D01*
G01*
X119425000Y-111975000D01*
G75*
G02*
X119187500Y-112212500I-237500J0D01*
G01*
X118712500Y-112212500D01*
G75*
G02*
X118475000Y-111975000I0J237500D01*
G01*
X118475000Y-111475000D01*
G75*
G02*
X118712500Y-111237500I237500J0D01*
G01*
G37*
%TD*%
%TO.C,D13*%
G36*
G01*
X149012500Y-108500000D02*
X149487500Y-108500000D01*
G75*
G02*
X149725000Y-108737500I0J-237500D01*
G01*
X149725000Y-109312500D01*
G75*
G02*
X149487500Y-109550000I-237500J0D01*
G01*
X149012500Y-109550000D01*
G75*
G02*
X148775000Y-109312500I0J237500D01*
G01*
X148775000Y-108737500D01*
G75*
G02*
X149012500Y-108500000I237500J0D01*
G01*
G37*
G36*
G01*
X149012500Y-106750000D02*
X149487500Y-106750000D01*
G75*
G02*
X149725000Y-106987500I0J-237500D01*
G01*
X149725000Y-107562500D01*
G75*
G02*
X149487500Y-107800000I-237500J0D01*
G01*
X149012500Y-107800000D01*
G75*
G02*
X148775000Y-107562500I0J237500D01*
G01*
X148775000Y-106987500D01*
G75*
G02*
X149012500Y-106750000I237500J0D01*
G01*
G37*
%TD*%
%TO.C,C40*%
G36*
G01*
X127562500Y-114212499D02*
X128037500Y-114212499D01*
G75*
G02*
X128275000Y-114449999I0J-237500D01*
G01*
X128275000Y-115049999D01*
G75*
G02*
X128037500Y-115287499I-237500J0D01*
G01*
X127562500Y-115287499D01*
G75*
G02*
X127325000Y-115049999I0J237500D01*
G01*
X127325000Y-114449999D01*
G75*
G02*
X127562500Y-114212499I237500J0D01*
G01*
G37*
G36*
G01*
X127562500Y-112487499D02*
X128037500Y-112487499D01*
G75*
G02*
X128275000Y-112724999I0J-237500D01*
G01*
X128275000Y-113324999D01*
G75*
G02*
X128037500Y-113562499I-237500J0D01*
G01*
X127562500Y-113562499D01*
G75*
G02*
X127325000Y-113324999I0J237500D01*
G01*
X127325000Y-112724999D01*
G75*
G02*
X127562500Y-112487499I237500J0D01*
G01*
G37*
%TD*%
%TO.C,C39*%
G36*
G01*
X126012500Y-114225000D02*
X126487500Y-114225000D01*
G75*
G02*
X126725000Y-114462500I0J-237500D01*
G01*
X126725000Y-115062500D01*
G75*
G02*
X126487500Y-115300000I-237500J0D01*
G01*
X126012500Y-115300000D01*
G75*
G02*
X125775000Y-115062500I0J237500D01*
G01*
X125775000Y-114462500D01*
G75*
G02*
X126012500Y-114225000I237500J0D01*
G01*
G37*
G36*
G01*
X126012500Y-112500000D02*
X126487500Y-112500000D01*
G75*
G02*
X126725000Y-112737500I0J-237500D01*
G01*
X126725000Y-113337500D01*
G75*
G02*
X126487500Y-113575000I-237500J0D01*
G01*
X126012500Y-113575000D01*
G75*
G02*
X125775000Y-113337500I0J237500D01*
G01*
X125775000Y-112737500D01*
G75*
G02*
X126012500Y-112500000I237500J0D01*
G01*
G37*
%TD*%
%TO.C,C14*%
G36*
G01*
X157747748Y-126038128D02*
X157411872Y-125702252D01*
G75*
G02*
X157411872Y-125366376I167938J167938D01*
G01*
X157836136Y-124942112D01*
G75*
G02*
X158172012Y-124942112I167938J-167938D01*
G01*
X158507888Y-125277988D01*
G75*
G02*
X158507888Y-125613864I-167938J-167938D01*
G01*
X158083624Y-126038128D01*
G75*
G02*
X157747748Y-126038128I-167938J167938D01*
G01*
G37*
G36*
G01*
X156527988Y-127257888D02*
X156192112Y-126922012D01*
G75*
G02*
X156192112Y-126586136I167938J167938D01*
G01*
X156616376Y-126161872D01*
G75*
G02*
X156952252Y-126161872I167938J-167938D01*
G01*
X157288128Y-126497748D01*
G75*
G02*
X157288128Y-126833624I-167938J-167938D01*
G01*
X156863864Y-127257888D01*
G75*
G02*
X156527988Y-127257888I-167938J167938D01*
G01*
G37*
%TD*%
%TO.C,C9*%
G36*
G01*
X128037500Y-110175000D02*
X127562500Y-110175000D01*
G75*
G02*
X127325000Y-109937500I0J237500D01*
G01*
X127325000Y-109337500D01*
G75*
G02*
X127562500Y-109100000I237500J0D01*
G01*
X128037500Y-109100000D01*
G75*
G02*
X128275000Y-109337500I0J-237500D01*
G01*
X128275000Y-109937500D01*
G75*
G02*
X128037500Y-110175000I-237500J0D01*
G01*
G37*
G36*
G01*
X128037500Y-111900000D02*
X127562500Y-111900000D01*
G75*
G02*
X127325000Y-111662500I0J237500D01*
G01*
X127325000Y-111062500D01*
G75*
G02*
X127562500Y-110825000I237500J0D01*
G01*
X128037500Y-110825000D01*
G75*
G02*
X128275000Y-111062500I0J-237500D01*
G01*
X128275000Y-111662500D01*
G75*
G02*
X128037500Y-111900000I-237500J0D01*
G01*
G37*
%TD*%
%TO.C,C8*%
G36*
G01*
X126487500Y-110175000D02*
X126012500Y-110175000D01*
G75*
G02*
X125775000Y-109937500I0J237500D01*
G01*
X125775000Y-109337500D01*
G75*
G02*
X126012500Y-109100000I237500J0D01*
G01*
X126487500Y-109100000D01*
G75*
G02*
X126725000Y-109337500I0J-237500D01*
G01*
X126725000Y-109937500D01*
G75*
G02*
X126487500Y-110175000I-237500J0D01*
G01*
G37*
G36*
G01*
X126487500Y-111900000D02*
X126012500Y-111900000D01*
G75*
G02*
X125775000Y-111662500I0J237500D01*
G01*
X125775000Y-111062500D01*
G75*
G02*
X126012500Y-110825000I237500J0D01*
G01*
X126487500Y-110825000D01*
G75*
G02*
X126725000Y-111062500I0J-237500D01*
G01*
X126725000Y-111662500D01*
G75*
G02*
X126487500Y-111900000I-237500J0D01*
G01*
G37*
%TD*%
%TO.C,C6*%
G36*
G01*
X124012500Y-108087500D02*
X124012500Y-107612500D01*
G75*
G02*
X124250000Y-107375000I237500J0D01*
G01*
X124850000Y-107375000D01*
G75*
G02*
X125087500Y-107612500I0J-237500D01*
G01*
X125087500Y-108087500D01*
G75*
G02*
X124850000Y-108325000I-237500J0D01*
G01*
X124250000Y-108325000D01*
G75*
G02*
X124012500Y-108087500I0J237500D01*
G01*
G37*
G36*
G01*
X122287500Y-108087500D02*
X122287500Y-107612500D01*
G75*
G02*
X122525000Y-107375000I237500J0D01*
G01*
X123125000Y-107375000D01*
G75*
G02*
X123362500Y-107612500I0J-237500D01*
G01*
X123362500Y-108087500D01*
G75*
G02*
X123125000Y-108325000I-237500J0D01*
G01*
X122525000Y-108325000D01*
G75*
G02*
X122287500Y-108087500I0J237500D01*
G01*
G37*
%TD*%
%TO.C,C4*%
G36*
G01*
X117287500Y-116162500D02*
X117287500Y-116637500D01*
G75*
G02*
X117050000Y-116875000I-237500J0D01*
G01*
X116450000Y-116875000D01*
G75*
G02*
X116212500Y-116637500I0J237500D01*
G01*
X116212500Y-116162500D01*
G75*
G02*
X116450000Y-115925000I237500J0D01*
G01*
X117050000Y-115925000D01*
G75*
G02*
X117287500Y-116162500I0J-237500D01*
G01*
G37*
G36*
G01*
X119012500Y-116162500D02*
X119012500Y-116637500D01*
G75*
G02*
X118775000Y-116875000I-237500J0D01*
G01*
X118175000Y-116875000D01*
G75*
G02*
X117937500Y-116637500I0J237500D01*
G01*
X117937500Y-116162500D01*
G75*
G02*
X118175000Y-115925000I237500J0D01*
G01*
X118775000Y-115925000D01*
G75*
G02*
X119012500Y-116162500I0J-237500D01*
G01*
G37*
%TD*%
%TO.C,R2*%
G36*
G01*
X143212500Y-105612500D02*
X143212500Y-106087500D01*
G75*
G02*
X142975000Y-106325000I-237500J0D01*
G01*
X142475000Y-106325000D01*
G75*
G02*
X142237500Y-106087500I0J237500D01*
G01*
X142237500Y-105612500D01*
G75*
G02*
X142475000Y-105375000I237500J0D01*
G01*
X142975000Y-105375000D01*
G75*
G02*
X143212500Y-105612500I0J-237500D01*
G01*
G37*
G36*
G01*
X145037500Y-105612500D02*
X145037500Y-106087500D01*
G75*
G02*
X144800000Y-106325000I-237500J0D01*
G01*
X144300000Y-106325000D01*
G75*
G02*
X144062500Y-106087500I0J237500D01*
G01*
X144062500Y-105612500D01*
G75*
G02*
X144300000Y-105375000I237500J0D01*
G01*
X144800000Y-105375000D01*
G75*
G02*
X145037500Y-105612500I0J-237500D01*
G01*
G37*
%TD*%
%TO.C,R1*%
G36*
G01*
X148062500Y-97962500D02*
X148537500Y-97962500D01*
G75*
G02*
X148775000Y-98200000I0J-237500D01*
G01*
X148775000Y-98700000D01*
G75*
G02*
X148537500Y-98937500I-237500J0D01*
G01*
X148062500Y-98937500D01*
G75*
G02*
X147825000Y-98700000I0J237500D01*
G01*
X147825000Y-98200000D01*
G75*
G02*
X148062500Y-97962500I237500J0D01*
G01*
G37*
G36*
G01*
X148062500Y-96137500D02*
X148537500Y-96137500D01*
G75*
G02*
X148775000Y-96375000I0J-237500D01*
G01*
X148775000Y-96875000D01*
G75*
G02*
X148537500Y-97112500I-237500J0D01*
G01*
X148062500Y-97112500D01*
G75*
G02*
X147825000Y-96875000I0J237500D01*
G01*
X147825000Y-96375000D01*
G75*
G02*
X148062500Y-96137500I237500J0D01*
G01*
G37*
%TD*%
D14*
%TO.C,J2*%
X143245000Y-131000000D03*
X143245000Y-127400000D03*
X141975000Y-131000000D03*
X141975000Y-127400000D03*
X140705000Y-131000000D03*
X140705000Y-127400000D03*
X139435000Y-131000000D03*
X139435000Y-127400000D03*
X138165000Y-131000000D03*
X138165000Y-127400000D03*
X136895000Y-131000000D03*
X136895000Y-127400000D03*
X135625000Y-131000000D03*
X135625000Y-127400000D03*
X134355000Y-131000000D03*
X134355000Y-127400000D03*
%TD*%
D15*
%TO.C,U6*%
X127800000Y-123100000D03*
X127800000Y-118500000D03*
X127800000Y-120800000D03*
D16*
X121500000Y-120800000D03*
%TD*%
%TO.C,U3*%
G36*
G01*
X156482379Y-113714758D02*
X156017621Y-113714758D01*
G75*
G02*
X155785242Y-113482379I0J232379D01*
G01*
X155785242Y-113017621D01*
G75*
G02*
X156017621Y-112785242I232379J0D01*
G01*
X156482379Y-112785242D01*
G75*
G02*
X156714758Y-113017621I0J-232379D01*
G01*
X156714758Y-113482379D01*
G75*
G02*
X156482379Y-113714758I-232379J0D01*
G01*
G37*
G36*
G01*
X155382379Y-113714758D02*
X154917621Y-113714758D01*
G75*
G02*
X154685242Y-113482379I0J232379D01*
G01*
X154685242Y-113017621D01*
G75*
G02*
X154917621Y-112785242I232379J0D01*
G01*
X155382379Y-112785242D01*
G75*
G02*
X155614758Y-113017621I0J-232379D01*
G01*
X155614758Y-113482379D01*
G75*
G02*
X155382379Y-113714758I-232379J0D01*
G01*
G37*
G36*
G01*
X154282379Y-113714758D02*
X153817621Y-113714758D01*
G75*
G02*
X153585242Y-113482379I0J232379D01*
G01*
X153585242Y-113017621D01*
G75*
G02*
X153817621Y-112785242I232379J0D01*
G01*
X154282379Y-112785242D01*
G75*
G02*
X154514758Y-113017621I0J-232379D01*
G01*
X154514758Y-113482379D01*
G75*
G02*
X154282379Y-113714758I-232379J0D01*
G01*
G37*
G36*
G01*
X153182379Y-113714758D02*
X152717621Y-113714758D01*
G75*
G02*
X152485242Y-113482379I0J232379D01*
G01*
X152485242Y-113017621D01*
G75*
G02*
X152717621Y-112785242I232379J0D01*
G01*
X153182379Y-112785242D01*
G75*
G02*
X153414758Y-113017621I0J-232379D01*
G01*
X153414758Y-113482379D01*
G75*
G02*
X153182379Y-113714758I-232379J0D01*
G01*
G37*
G36*
G01*
X152082379Y-113714758D02*
X151617621Y-113714758D01*
G75*
G02*
X151385242Y-113482379I0J232379D01*
G01*
X151385242Y-113017621D01*
G75*
G02*
X151617621Y-112785242I232379J0D01*
G01*
X152082379Y-112785242D01*
G75*
G02*
X152314758Y-113017621I0J-232379D01*
G01*
X152314758Y-113482379D01*
G75*
G02*
X152082379Y-113714758I-232379J0D01*
G01*
G37*
G36*
G01*
X156482379Y-114814758D02*
X156017621Y-114814758D01*
G75*
G02*
X155785242Y-114582379I0J232379D01*
G01*
X155785242Y-114117621D01*
G75*
G02*
X156017621Y-113885242I232379J0D01*
G01*
X156482379Y-113885242D01*
G75*
G02*
X156714758Y-114117621I0J-232379D01*
G01*
X156714758Y-114582379D01*
G75*
G02*
X156482379Y-114814758I-232379J0D01*
G01*
G37*
G36*
G01*
X155382379Y-114814758D02*
X154917621Y-114814758D01*
G75*
G02*
X154685242Y-114582379I0J232379D01*
G01*
X154685242Y-114117621D01*
G75*
G02*
X154917621Y-113885242I232379J0D01*
G01*
X155382379Y-113885242D01*
G75*
G02*
X155614758Y-114117621I0J-232379D01*
G01*
X155614758Y-114582379D01*
G75*
G02*
X155382379Y-114814758I-232379J0D01*
G01*
G37*
G36*
G01*
X154282379Y-114814758D02*
X153817621Y-114814758D01*
G75*
G02*
X153585242Y-114582379I0J232379D01*
G01*
X153585242Y-114117621D01*
G75*
G02*
X153817621Y-113885242I232379J0D01*
G01*
X154282379Y-113885242D01*
G75*
G02*
X154514758Y-114117621I0J-232379D01*
G01*
X154514758Y-114582379D01*
G75*
G02*
X154282379Y-114814758I-232379J0D01*
G01*
G37*
G36*
G01*
X153182379Y-114814758D02*
X152717621Y-114814758D01*
G75*
G02*
X152485242Y-114582379I0J232379D01*
G01*
X152485242Y-114117621D01*
G75*
G02*
X152717621Y-113885242I232379J0D01*
G01*
X153182379Y-113885242D01*
G75*
G02*
X153414758Y-114117621I0J-232379D01*
G01*
X153414758Y-114582379D01*
G75*
G02*
X153182379Y-114814758I-232379J0D01*
G01*
G37*
G36*
G01*
X152082379Y-114814758D02*
X151617621Y-114814758D01*
G75*
G02*
X151385242Y-114582379I0J232379D01*
G01*
X151385242Y-114117621D01*
G75*
G02*
X151617621Y-113885242I232379J0D01*
G01*
X152082379Y-113885242D01*
G75*
G02*
X152314758Y-114117621I0J-232379D01*
G01*
X152314758Y-114582379D01*
G75*
G02*
X152082379Y-114814758I-232379J0D01*
G01*
G37*
G36*
G01*
X156482379Y-115914758D02*
X156017621Y-115914758D01*
G75*
G02*
X155785242Y-115682379I0J232379D01*
G01*
X155785242Y-115217621D01*
G75*
G02*
X156017621Y-114985242I232379J0D01*
G01*
X156482379Y-114985242D01*
G75*
G02*
X156714758Y-115217621I0J-232379D01*
G01*
X156714758Y-115682379D01*
G75*
G02*
X156482379Y-115914758I-232379J0D01*
G01*
G37*
G36*
G01*
X155382379Y-115914758D02*
X154917621Y-115914758D01*
G75*
G02*
X154685242Y-115682379I0J232379D01*
G01*
X154685242Y-115217621D01*
G75*
G02*
X154917621Y-114985242I232379J0D01*
G01*
X155382379Y-114985242D01*
G75*
G02*
X155614758Y-115217621I0J-232379D01*
G01*
X155614758Y-115682379D01*
G75*
G02*
X155382379Y-115914758I-232379J0D01*
G01*
G37*
G36*
G01*
X154282379Y-115914758D02*
X153817621Y-115914758D01*
G75*
G02*
X153585242Y-115682379I0J232379D01*
G01*
X153585242Y-115217621D01*
G75*
G02*
X153817621Y-114985242I232379J0D01*
G01*
X154282379Y-114985242D01*
G75*
G02*
X154514758Y-115217621I0J-232379D01*
G01*
X154514758Y-115682379D01*
G75*
G02*
X154282379Y-115914758I-232379J0D01*
G01*
G37*
G36*
G01*
X153182379Y-115914758D02*
X152717621Y-115914758D01*
G75*
G02*
X152485242Y-115682379I0J232379D01*
G01*
X152485242Y-115217621D01*
G75*
G02*
X152717621Y-114985242I232379J0D01*
G01*
X153182379Y-114985242D01*
G75*
G02*
X153414758Y-115217621I0J-232379D01*
G01*
X153414758Y-115682379D01*
G75*
G02*
X153182379Y-115914758I-232379J0D01*
G01*
G37*
G36*
G01*
X152082379Y-115914758D02*
X151617621Y-115914758D01*
G75*
G02*
X151385242Y-115682379I0J232379D01*
G01*
X151385242Y-115217621D01*
G75*
G02*
X151617621Y-114985242I232379J0D01*
G01*
X152082379Y-114985242D01*
G75*
G02*
X152314758Y-115217621I0J-232379D01*
G01*
X152314758Y-115682379D01*
G75*
G02*
X152082379Y-115914758I-232379J0D01*
G01*
G37*
G36*
G01*
X156482379Y-117014758D02*
X156017621Y-117014758D01*
G75*
G02*
X155785242Y-116782379I0J232379D01*
G01*
X155785242Y-116317621D01*
G75*
G02*
X156017621Y-116085242I232379J0D01*
G01*
X156482379Y-116085242D01*
G75*
G02*
X156714758Y-116317621I0J-232379D01*
G01*
X156714758Y-116782379D01*
G75*
G02*
X156482379Y-117014758I-232379J0D01*
G01*
G37*
G36*
G01*
X155382379Y-117014758D02*
X154917621Y-117014758D01*
G75*
G02*
X154685242Y-116782379I0J232379D01*
G01*
X154685242Y-116317621D01*
G75*
G02*
X154917621Y-116085242I232379J0D01*
G01*
X155382379Y-116085242D01*
G75*
G02*
X155614758Y-116317621I0J-232379D01*
G01*
X155614758Y-116782379D01*
G75*
G02*
X155382379Y-117014758I-232379J0D01*
G01*
G37*
G36*
G01*
X154282379Y-117014758D02*
X153817621Y-117014758D01*
G75*
G02*
X153585242Y-116782379I0J232379D01*
G01*
X153585242Y-116317621D01*
G75*
G02*
X153817621Y-116085242I232379J0D01*
G01*
X154282379Y-116085242D01*
G75*
G02*
X154514758Y-116317621I0J-232379D01*
G01*
X154514758Y-116782379D01*
G75*
G02*
X154282379Y-117014758I-232379J0D01*
G01*
G37*
G36*
G01*
X153182379Y-117014758D02*
X152717621Y-117014758D01*
G75*
G02*
X152485242Y-116782379I0J232379D01*
G01*
X152485242Y-116317621D01*
G75*
G02*
X152717621Y-116085242I232379J0D01*
G01*
X153182379Y-116085242D01*
G75*
G02*
X153414758Y-116317621I0J-232379D01*
G01*
X153414758Y-116782379D01*
G75*
G02*
X153182379Y-117014758I-232379J0D01*
G01*
G37*
G36*
G01*
X152082379Y-117014758D02*
X151617621Y-117014758D01*
G75*
G02*
X151385242Y-116782379I0J232379D01*
G01*
X151385242Y-116317621D01*
G75*
G02*
X151617621Y-116085242I232379J0D01*
G01*
X152082379Y-116085242D01*
G75*
G02*
X152314758Y-116317621I0J-232379D01*
G01*
X152314758Y-116782379D01*
G75*
G02*
X152082379Y-117014758I-232379J0D01*
G01*
G37*
G36*
G01*
X156482379Y-118114758D02*
X156017621Y-118114758D01*
G75*
G02*
X155785242Y-117882379I0J232379D01*
G01*
X155785242Y-117417621D01*
G75*
G02*
X156017621Y-117185242I232379J0D01*
G01*
X156482379Y-117185242D01*
G75*
G02*
X156714758Y-117417621I0J-232379D01*
G01*
X156714758Y-117882379D01*
G75*
G02*
X156482379Y-118114758I-232379J0D01*
G01*
G37*
G36*
G01*
X155382379Y-118114758D02*
X154917621Y-118114758D01*
G75*
G02*
X154685242Y-117882379I0J232379D01*
G01*
X154685242Y-117417621D01*
G75*
G02*
X154917621Y-117185242I232379J0D01*
G01*
X155382379Y-117185242D01*
G75*
G02*
X155614758Y-117417621I0J-232379D01*
G01*
X155614758Y-117882379D01*
G75*
G02*
X155382379Y-118114758I-232379J0D01*
G01*
G37*
G36*
G01*
X154282379Y-118114758D02*
X153817621Y-118114758D01*
G75*
G02*
X153585242Y-117882379I0J232379D01*
G01*
X153585242Y-117417621D01*
G75*
G02*
X153817621Y-117185242I232379J0D01*
G01*
X154282379Y-117185242D01*
G75*
G02*
X154514758Y-117417621I0J-232379D01*
G01*
X154514758Y-117882379D01*
G75*
G02*
X154282379Y-118114758I-232379J0D01*
G01*
G37*
G36*
G01*
X153182379Y-118114758D02*
X152717621Y-118114758D01*
G75*
G02*
X152485242Y-117882379I0J232379D01*
G01*
X152485242Y-117417621D01*
G75*
G02*
X152717621Y-117185242I232379J0D01*
G01*
X153182379Y-117185242D01*
G75*
G02*
X153414758Y-117417621I0J-232379D01*
G01*
X153414758Y-117882379D01*
G75*
G02*
X153182379Y-118114758I-232379J0D01*
G01*
G37*
G36*
G01*
X152082379Y-118114758D02*
X151617621Y-118114758D01*
G75*
G02*
X151385242Y-117882379I0J232379D01*
G01*
X151385242Y-117417621D01*
G75*
G02*
X151617621Y-117185242I232379J0D01*
G01*
X152082379Y-117185242D01*
G75*
G02*
X152314758Y-117417621I0J-232379D01*
G01*
X152314758Y-117882379D01*
G75*
G02*
X152082379Y-118114758I-232379J0D01*
G01*
G37*
G36*
G01*
X149487500Y-119825000D02*
X148737500Y-119825000D01*
G75*
G02*
X148675000Y-119762500I0J62500D01*
G01*
X148675000Y-119637500D01*
G75*
G02*
X148737500Y-119575000I62500J0D01*
G01*
X149487500Y-119575000D01*
G75*
G02*
X149550000Y-119637500I0J-62500D01*
G01*
X149550000Y-119762500D01*
G75*
G02*
X149487500Y-119825000I-62500J0D01*
G01*
G37*
G36*
G01*
X149487500Y-119325000D02*
X148737500Y-119325000D01*
G75*
G02*
X148675000Y-119262500I0J62500D01*
G01*
X148675000Y-119137500D01*
G75*
G02*
X148737500Y-119075000I62500J0D01*
G01*
X149487500Y-119075000D01*
G75*
G02*
X149550000Y-119137500I0J-62500D01*
G01*
X149550000Y-119262500D01*
G75*
G02*
X149487500Y-119325000I-62500J0D01*
G01*
G37*
G36*
G01*
X149487500Y-118825000D02*
X148737500Y-118825000D01*
G75*
G02*
X148675000Y-118762500I0J62500D01*
G01*
X148675000Y-118637500D01*
G75*
G02*
X148737500Y-118575000I62500J0D01*
G01*
X149487500Y-118575000D01*
G75*
G02*
X149550000Y-118637500I0J-62500D01*
G01*
X149550000Y-118762500D01*
G75*
G02*
X149487500Y-118825000I-62500J0D01*
G01*
G37*
G36*
G01*
X149487500Y-118325000D02*
X148737500Y-118325000D01*
G75*
G02*
X148675000Y-118262500I0J62500D01*
G01*
X148675000Y-118137500D01*
G75*
G02*
X148737500Y-118075000I62500J0D01*
G01*
X149487500Y-118075000D01*
G75*
G02*
X149550000Y-118137500I0J-62500D01*
G01*
X149550000Y-118262500D01*
G75*
G02*
X149487500Y-118325000I-62500J0D01*
G01*
G37*
G36*
G01*
X149487500Y-117825000D02*
X148737500Y-117825000D01*
G75*
G02*
X148675000Y-117762500I0J62500D01*
G01*
X148675000Y-117637500D01*
G75*
G02*
X148737500Y-117575000I62500J0D01*
G01*
X149487500Y-117575000D01*
G75*
G02*
X149550000Y-117637500I0J-62500D01*
G01*
X149550000Y-117762500D01*
G75*
G02*
X149487500Y-117825000I-62500J0D01*
G01*
G37*
G36*
G01*
X149487500Y-117325000D02*
X148737500Y-117325000D01*
G75*
G02*
X148675000Y-117262500I0J62500D01*
G01*
X148675000Y-117137500D01*
G75*
G02*
X148737500Y-117075000I62500J0D01*
G01*
X149487500Y-117075000D01*
G75*
G02*
X149550000Y-117137500I0J-62500D01*
G01*
X149550000Y-117262500D01*
G75*
G02*
X149487500Y-117325000I-62500J0D01*
G01*
G37*
G36*
G01*
X149487500Y-116825000D02*
X148737500Y-116825000D01*
G75*
G02*
X148675000Y-116762500I0J62500D01*
G01*
X148675000Y-116637500D01*
G75*
G02*
X148737500Y-116575000I62500J0D01*
G01*
X149487500Y-116575000D01*
G75*
G02*
X149550000Y-116637500I0J-62500D01*
G01*
X149550000Y-116762500D01*
G75*
G02*
X149487500Y-116825000I-62500J0D01*
G01*
G37*
G36*
G01*
X149487500Y-116325000D02*
X148737500Y-116325000D01*
G75*
G02*
X148675000Y-116262500I0J62500D01*
G01*
X148675000Y-116137500D01*
G75*
G02*
X148737500Y-116075000I62500J0D01*
G01*
X149487500Y-116075000D01*
G75*
G02*
X149550000Y-116137500I0J-62500D01*
G01*
X149550000Y-116262500D01*
G75*
G02*
X149487500Y-116325000I-62500J0D01*
G01*
G37*
G36*
G01*
X149487500Y-115825000D02*
X148737500Y-115825000D01*
G75*
G02*
X148675000Y-115762500I0J62500D01*
G01*
X148675000Y-115637500D01*
G75*
G02*
X148737500Y-115575000I62500J0D01*
G01*
X149487500Y-115575000D01*
G75*
G02*
X149550000Y-115637500I0J-62500D01*
G01*
X149550000Y-115762500D01*
G75*
G02*
X149487500Y-115825000I-62500J0D01*
G01*
G37*
G36*
G01*
X149487500Y-115325000D02*
X148737500Y-115325000D01*
G75*
G02*
X148675000Y-115262500I0J62500D01*
G01*
X148675000Y-115137500D01*
G75*
G02*
X148737500Y-115075000I62500J0D01*
G01*
X149487500Y-115075000D01*
G75*
G02*
X149550000Y-115137500I0J-62500D01*
G01*
X149550000Y-115262500D01*
G75*
G02*
X149487500Y-115325000I-62500J0D01*
G01*
G37*
G36*
G01*
X149487500Y-114825000D02*
X148737500Y-114825000D01*
G75*
G02*
X148675000Y-114762500I0J62500D01*
G01*
X148675000Y-114637500D01*
G75*
G02*
X148737500Y-114575000I62500J0D01*
G01*
X149487500Y-114575000D01*
G75*
G02*
X149550000Y-114637500I0J-62500D01*
G01*
X149550000Y-114762500D01*
G75*
G02*
X149487500Y-114825000I-62500J0D01*
G01*
G37*
G36*
G01*
X149487500Y-114325000D02*
X148737500Y-114325000D01*
G75*
G02*
X148675000Y-114262500I0J62500D01*
G01*
X148675000Y-114137500D01*
G75*
G02*
X148737500Y-114075000I62500J0D01*
G01*
X149487500Y-114075000D01*
G75*
G02*
X149550000Y-114137500I0J-62500D01*
G01*
X149550000Y-114262500D01*
G75*
G02*
X149487500Y-114325000I-62500J0D01*
G01*
G37*
G36*
G01*
X149487500Y-113825000D02*
X148737500Y-113825000D01*
G75*
G02*
X148675000Y-113762500I0J62500D01*
G01*
X148675000Y-113637500D01*
G75*
G02*
X148737500Y-113575000I62500J0D01*
G01*
X149487500Y-113575000D01*
G75*
G02*
X149550000Y-113637500I0J-62500D01*
G01*
X149550000Y-113762500D01*
G75*
G02*
X149487500Y-113825000I-62500J0D01*
G01*
G37*
G36*
G01*
X149487500Y-113325000D02*
X148737500Y-113325000D01*
G75*
G02*
X148675000Y-113262500I0J62500D01*
G01*
X148675000Y-113137500D01*
G75*
G02*
X148737500Y-113075000I62500J0D01*
G01*
X149487500Y-113075000D01*
G75*
G02*
X149550000Y-113137500I0J-62500D01*
G01*
X149550000Y-113262500D01*
G75*
G02*
X149487500Y-113325000I-62500J0D01*
G01*
G37*
G36*
G01*
X149487500Y-112825000D02*
X148737500Y-112825000D01*
G75*
G02*
X148675000Y-112762500I0J62500D01*
G01*
X148675000Y-112637500D01*
G75*
G02*
X148737500Y-112575000I62500J0D01*
G01*
X149487500Y-112575000D01*
G75*
G02*
X149550000Y-112637500I0J-62500D01*
G01*
X149550000Y-112762500D01*
G75*
G02*
X149487500Y-112825000I-62500J0D01*
G01*
G37*
G36*
G01*
X149487500Y-112325000D02*
X148737500Y-112325000D01*
G75*
G02*
X148675000Y-112262500I0J62500D01*
G01*
X148675000Y-112137500D01*
G75*
G02*
X148737500Y-112075000I62500J0D01*
G01*
X149487500Y-112075000D01*
G75*
G02*
X149550000Y-112137500I0J-62500D01*
G01*
X149550000Y-112262500D01*
G75*
G02*
X149487500Y-112325000I-62500J0D01*
G01*
G37*
G36*
G01*
X149487500Y-111825000D02*
X148737500Y-111825000D01*
G75*
G02*
X148675000Y-111762500I0J62500D01*
G01*
X148675000Y-111637500D01*
G75*
G02*
X148737500Y-111575000I62500J0D01*
G01*
X149487500Y-111575000D01*
G75*
G02*
X149550000Y-111637500I0J-62500D01*
G01*
X149550000Y-111762500D01*
G75*
G02*
X149487500Y-111825000I-62500J0D01*
G01*
G37*
G36*
G01*
X149487500Y-111325000D02*
X148737500Y-111325000D01*
G75*
G02*
X148675000Y-111262500I0J62500D01*
G01*
X148675000Y-111137500D01*
G75*
G02*
X148737500Y-111075000I62500J0D01*
G01*
X149487500Y-111075000D01*
G75*
G02*
X149550000Y-111137500I0J-62500D01*
G01*
X149550000Y-111262500D01*
G75*
G02*
X149487500Y-111325000I-62500J0D01*
G01*
G37*
G36*
G01*
X149862500Y-110950000D02*
X149737500Y-110950000D01*
G75*
G02*
X149675000Y-110887500I0J62500D01*
G01*
X149675000Y-110137500D01*
G75*
G02*
X149737500Y-110075000I62500J0D01*
G01*
X149862500Y-110075000D01*
G75*
G02*
X149925000Y-110137500I0J-62500D01*
G01*
X149925000Y-110887500D01*
G75*
G02*
X149862500Y-110950000I-62500J0D01*
G01*
G37*
G36*
G01*
X150362500Y-110950000D02*
X150237500Y-110950000D01*
G75*
G02*
X150175000Y-110887500I0J62500D01*
G01*
X150175000Y-110137500D01*
G75*
G02*
X150237500Y-110075000I62500J0D01*
G01*
X150362500Y-110075000D01*
G75*
G02*
X150425000Y-110137500I0J-62500D01*
G01*
X150425000Y-110887500D01*
G75*
G02*
X150362500Y-110950000I-62500J0D01*
G01*
G37*
G36*
G01*
X150862500Y-110950000D02*
X150737500Y-110950000D01*
G75*
G02*
X150675000Y-110887500I0J62500D01*
G01*
X150675000Y-110137500D01*
G75*
G02*
X150737500Y-110075000I62500J0D01*
G01*
X150862500Y-110075000D01*
G75*
G02*
X150925000Y-110137500I0J-62500D01*
G01*
X150925000Y-110887500D01*
G75*
G02*
X150862500Y-110950000I-62500J0D01*
G01*
G37*
G36*
G01*
X151362500Y-110950000D02*
X151237500Y-110950000D01*
G75*
G02*
X151175000Y-110887500I0J62500D01*
G01*
X151175000Y-110137500D01*
G75*
G02*
X151237500Y-110075000I62500J0D01*
G01*
X151362500Y-110075000D01*
G75*
G02*
X151425000Y-110137500I0J-62500D01*
G01*
X151425000Y-110887500D01*
G75*
G02*
X151362500Y-110950000I-62500J0D01*
G01*
G37*
G36*
G01*
X151862500Y-110950000D02*
X151737500Y-110950000D01*
G75*
G02*
X151675000Y-110887500I0J62500D01*
G01*
X151675000Y-110137500D01*
G75*
G02*
X151737500Y-110075000I62500J0D01*
G01*
X151862500Y-110075000D01*
G75*
G02*
X151925000Y-110137500I0J-62500D01*
G01*
X151925000Y-110887500D01*
G75*
G02*
X151862500Y-110950000I-62500J0D01*
G01*
G37*
G36*
G01*
X152362500Y-110950000D02*
X152237500Y-110950000D01*
G75*
G02*
X152175000Y-110887500I0J62500D01*
G01*
X152175000Y-110137500D01*
G75*
G02*
X152237500Y-110075000I62500J0D01*
G01*
X152362500Y-110075000D01*
G75*
G02*
X152425000Y-110137500I0J-62500D01*
G01*
X152425000Y-110887500D01*
G75*
G02*
X152362500Y-110950000I-62500J0D01*
G01*
G37*
G36*
G01*
X152862500Y-110950000D02*
X152737500Y-110950000D01*
G75*
G02*
X152675000Y-110887500I0J62500D01*
G01*
X152675000Y-110137500D01*
G75*
G02*
X152737500Y-110075000I62500J0D01*
G01*
X152862500Y-110075000D01*
G75*
G02*
X152925000Y-110137500I0J-62500D01*
G01*
X152925000Y-110887500D01*
G75*
G02*
X152862500Y-110950000I-62500J0D01*
G01*
G37*
G36*
G01*
X153362500Y-110950000D02*
X153237500Y-110950000D01*
G75*
G02*
X153175000Y-110887500I0J62500D01*
G01*
X153175000Y-110137500D01*
G75*
G02*
X153237500Y-110075000I62500J0D01*
G01*
X153362500Y-110075000D01*
G75*
G02*
X153425000Y-110137500I0J-62500D01*
G01*
X153425000Y-110887500D01*
G75*
G02*
X153362500Y-110950000I-62500J0D01*
G01*
G37*
G36*
G01*
X153862500Y-110950000D02*
X153737500Y-110950000D01*
G75*
G02*
X153675000Y-110887500I0J62500D01*
G01*
X153675000Y-110137500D01*
G75*
G02*
X153737500Y-110075000I62500J0D01*
G01*
X153862500Y-110075000D01*
G75*
G02*
X153925000Y-110137500I0J-62500D01*
G01*
X153925000Y-110887500D01*
G75*
G02*
X153862500Y-110950000I-62500J0D01*
G01*
G37*
G36*
G01*
X154362500Y-110950000D02*
X154237500Y-110950000D01*
G75*
G02*
X154175000Y-110887500I0J62500D01*
G01*
X154175000Y-110137500D01*
G75*
G02*
X154237500Y-110075000I62500J0D01*
G01*
X154362500Y-110075000D01*
G75*
G02*
X154425000Y-110137500I0J-62500D01*
G01*
X154425000Y-110887500D01*
G75*
G02*
X154362500Y-110950000I-62500J0D01*
G01*
G37*
G36*
G01*
X154862500Y-110950000D02*
X154737500Y-110950000D01*
G75*
G02*
X154675000Y-110887500I0J62500D01*
G01*
X154675000Y-110137500D01*
G75*
G02*
X154737500Y-110075000I62500J0D01*
G01*
X154862500Y-110075000D01*
G75*
G02*
X154925000Y-110137500I0J-62500D01*
G01*
X154925000Y-110887500D01*
G75*
G02*
X154862500Y-110950000I-62500J0D01*
G01*
G37*
G36*
G01*
X155362500Y-110950000D02*
X155237500Y-110950000D01*
G75*
G02*
X155175000Y-110887500I0J62500D01*
G01*
X155175000Y-110137500D01*
G75*
G02*
X155237500Y-110075000I62500J0D01*
G01*
X155362500Y-110075000D01*
G75*
G02*
X155425000Y-110137500I0J-62500D01*
G01*
X155425000Y-110887500D01*
G75*
G02*
X155362500Y-110950000I-62500J0D01*
G01*
G37*
G36*
G01*
X155862500Y-110950000D02*
X155737500Y-110950000D01*
G75*
G02*
X155675000Y-110887500I0J62500D01*
G01*
X155675000Y-110137500D01*
G75*
G02*
X155737500Y-110075000I62500J0D01*
G01*
X155862500Y-110075000D01*
G75*
G02*
X155925000Y-110137500I0J-62500D01*
G01*
X155925000Y-110887500D01*
G75*
G02*
X155862500Y-110950000I-62500J0D01*
G01*
G37*
G36*
G01*
X156362500Y-110950000D02*
X156237500Y-110950000D01*
G75*
G02*
X156175000Y-110887500I0J62500D01*
G01*
X156175000Y-110137500D01*
G75*
G02*
X156237500Y-110075000I62500J0D01*
G01*
X156362500Y-110075000D01*
G75*
G02*
X156425000Y-110137500I0J-62500D01*
G01*
X156425000Y-110887500D01*
G75*
G02*
X156362500Y-110950000I-62500J0D01*
G01*
G37*
G36*
G01*
X156862500Y-110950000D02*
X156737500Y-110950000D01*
G75*
G02*
X156675000Y-110887500I0J62500D01*
G01*
X156675000Y-110137500D01*
G75*
G02*
X156737500Y-110075000I62500J0D01*
G01*
X156862500Y-110075000D01*
G75*
G02*
X156925000Y-110137500I0J-62500D01*
G01*
X156925000Y-110887500D01*
G75*
G02*
X156862500Y-110950000I-62500J0D01*
G01*
G37*
G36*
G01*
X157362500Y-110950000D02*
X157237500Y-110950000D01*
G75*
G02*
X157175000Y-110887500I0J62500D01*
G01*
X157175000Y-110137500D01*
G75*
G02*
X157237500Y-110075000I62500J0D01*
G01*
X157362500Y-110075000D01*
G75*
G02*
X157425000Y-110137500I0J-62500D01*
G01*
X157425000Y-110887500D01*
G75*
G02*
X157362500Y-110950000I-62500J0D01*
G01*
G37*
G36*
G01*
X157862500Y-110950000D02*
X157737500Y-110950000D01*
G75*
G02*
X157675000Y-110887500I0J62500D01*
G01*
X157675000Y-110137500D01*
G75*
G02*
X157737500Y-110075000I62500J0D01*
G01*
X157862500Y-110075000D01*
G75*
G02*
X157925000Y-110137500I0J-62500D01*
G01*
X157925000Y-110887500D01*
G75*
G02*
X157862500Y-110950000I-62500J0D01*
G01*
G37*
G36*
G01*
X158362500Y-110950000D02*
X158237500Y-110950000D01*
G75*
G02*
X158175000Y-110887500I0J62500D01*
G01*
X158175000Y-110137500D01*
G75*
G02*
X158237500Y-110075000I62500J0D01*
G01*
X158362500Y-110075000D01*
G75*
G02*
X158425000Y-110137500I0J-62500D01*
G01*
X158425000Y-110887500D01*
G75*
G02*
X158362500Y-110950000I-62500J0D01*
G01*
G37*
G36*
G01*
X159362500Y-111325000D02*
X158612500Y-111325000D01*
G75*
G02*
X158550000Y-111262500I0J62500D01*
G01*
X158550000Y-111137500D01*
G75*
G02*
X158612500Y-111075000I62500J0D01*
G01*
X159362500Y-111075000D01*
G75*
G02*
X159425000Y-111137500I0J-62500D01*
G01*
X159425000Y-111262500D01*
G75*
G02*
X159362500Y-111325000I-62500J0D01*
G01*
G37*
G36*
G01*
X159362500Y-111825000D02*
X158612500Y-111825000D01*
G75*
G02*
X158550000Y-111762500I0J62500D01*
G01*
X158550000Y-111637500D01*
G75*
G02*
X158612500Y-111575000I62500J0D01*
G01*
X159362500Y-111575000D01*
G75*
G02*
X159425000Y-111637500I0J-62500D01*
G01*
X159425000Y-111762500D01*
G75*
G02*
X159362500Y-111825000I-62500J0D01*
G01*
G37*
G36*
G01*
X159362500Y-112325000D02*
X158612500Y-112325000D01*
G75*
G02*
X158550000Y-112262500I0J62500D01*
G01*
X158550000Y-112137500D01*
G75*
G02*
X158612500Y-112075000I62500J0D01*
G01*
X159362500Y-112075000D01*
G75*
G02*
X159425000Y-112137500I0J-62500D01*
G01*
X159425000Y-112262500D01*
G75*
G02*
X159362500Y-112325000I-62500J0D01*
G01*
G37*
G36*
G01*
X159362500Y-112825000D02*
X158612500Y-112825000D01*
G75*
G02*
X158550000Y-112762500I0J62500D01*
G01*
X158550000Y-112637500D01*
G75*
G02*
X158612500Y-112575000I62500J0D01*
G01*
X159362500Y-112575000D01*
G75*
G02*
X159425000Y-112637500I0J-62500D01*
G01*
X159425000Y-112762500D01*
G75*
G02*
X159362500Y-112825000I-62500J0D01*
G01*
G37*
G36*
G01*
X159362500Y-113325000D02*
X158612500Y-113325000D01*
G75*
G02*
X158550000Y-113262500I0J62500D01*
G01*
X158550000Y-113137500D01*
G75*
G02*
X158612500Y-113075000I62500J0D01*
G01*
X159362500Y-113075000D01*
G75*
G02*
X159425000Y-113137500I0J-62500D01*
G01*
X159425000Y-113262500D01*
G75*
G02*
X159362500Y-113325000I-62500J0D01*
G01*
G37*
G36*
G01*
X159362500Y-113825000D02*
X158612500Y-113825000D01*
G75*
G02*
X158550000Y-113762500I0J62500D01*
G01*
X158550000Y-113637500D01*
G75*
G02*
X158612500Y-113575000I62500J0D01*
G01*
X159362500Y-113575000D01*
G75*
G02*
X159425000Y-113637500I0J-62500D01*
G01*
X159425000Y-113762500D01*
G75*
G02*
X159362500Y-113825000I-62500J0D01*
G01*
G37*
G36*
G01*
X159362500Y-114325000D02*
X158612500Y-114325000D01*
G75*
G02*
X158550000Y-114262500I0J62500D01*
G01*
X158550000Y-114137500D01*
G75*
G02*
X158612500Y-114075000I62500J0D01*
G01*
X159362500Y-114075000D01*
G75*
G02*
X159425000Y-114137500I0J-62500D01*
G01*
X159425000Y-114262500D01*
G75*
G02*
X159362500Y-114325000I-62500J0D01*
G01*
G37*
G36*
G01*
X159362500Y-114825000D02*
X158612500Y-114825000D01*
G75*
G02*
X158550000Y-114762500I0J62500D01*
G01*
X158550000Y-114637500D01*
G75*
G02*
X158612500Y-114575000I62500J0D01*
G01*
X159362500Y-114575000D01*
G75*
G02*
X159425000Y-114637500I0J-62500D01*
G01*
X159425000Y-114762500D01*
G75*
G02*
X159362500Y-114825000I-62500J0D01*
G01*
G37*
G36*
G01*
X159362500Y-115325000D02*
X158612500Y-115325000D01*
G75*
G02*
X158550000Y-115262500I0J62500D01*
G01*
X158550000Y-115137500D01*
G75*
G02*
X158612500Y-115075000I62500J0D01*
G01*
X159362500Y-115075000D01*
G75*
G02*
X159425000Y-115137500I0J-62500D01*
G01*
X159425000Y-115262500D01*
G75*
G02*
X159362500Y-115325000I-62500J0D01*
G01*
G37*
G36*
G01*
X159362500Y-115825000D02*
X158612500Y-115825000D01*
G75*
G02*
X158550000Y-115762500I0J62500D01*
G01*
X158550000Y-115637500D01*
G75*
G02*
X158612500Y-115575000I62500J0D01*
G01*
X159362500Y-115575000D01*
G75*
G02*
X159425000Y-115637500I0J-62500D01*
G01*
X159425000Y-115762500D01*
G75*
G02*
X159362500Y-115825000I-62500J0D01*
G01*
G37*
G36*
G01*
X159362500Y-116325000D02*
X158612500Y-116325000D01*
G75*
G02*
X158550000Y-116262500I0J62500D01*
G01*
X158550000Y-116137500D01*
G75*
G02*
X158612500Y-116075000I62500J0D01*
G01*
X159362500Y-116075000D01*
G75*
G02*
X159425000Y-116137500I0J-62500D01*
G01*
X159425000Y-116262500D01*
G75*
G02*
X159362500Y-116325000I-62500J0D01*
G01*
G37*
G36*
G01*
X159362500Y-116825000D02*
X158612500Y-116825000D01*
G75*
G02*
X158550000Y-116762500I0J62500D01*
G01*
X158550000Y-116637500D01*
G75*
G02*
X158612500Y-116575000I62500J0D01*
G01*
X159362500Y-116575000D01*
G75*
G02*
X159425000Y-116637500I0J-62500D01*
G01*
X159425000Y-116762500D01*
G75*
G02*
X159362500Y-116825000I-62500J0D01*
G01*
G37*
G36*
G01*
X159362500Y-117325000D02*
X158612500Y-117325000D01*
G75*
G02*
X158550000Y-117262500I0J62500D01*
G01*
X158550000Y-117137500D01*
G75*
G02*
X158612500Y-117075000I62500J0D01*
G01*
X159362500Y-117075000D01*
G75*
G02*
X159425000Y-117137500I0J-62500D01*
G01*
X159425000Y-117262500D01*
G75*
G02*
X159362500Y-117325000I-62500J0D01*
G01*
G37*
G36*
G01*
X159362500Y-117825000D02*
X158612500Y-117825000D01*
G75*
G02*
X158550000Y-117762500I0J62500D01*
G01*
X158550000Y-117637500D01*
G75*
G02*
X158612500Y-117575000I62500J0D01*
G01*
X159362500Y-117575000D01*
G75*
G02*
X159425000Y-117637500I0J-62500D01*
G01*
X159425000Y-117762500D01*
G75*
G02*
X159362500Y-117825000I-62500J0D01*
G01*
G37*
G36*
G01*
X159362500Y-118325000D02*
X158612500Y-118325000D01*
G75*
G02*
X158550000Y-118262500I0J62500D01*
G01*
X158550000Y-118137500D01*
G75*
G02*
X158612500Y-118075000I62500J0D01*
G01*
X159362500Y-118075000D01*
G75*
G02*
X159425000Y-118137500I0J-62500D01*
G01*
X159425000Y-118262500D01*
G75*
G02*
X159362500Y-118325000I-62500J0D01*
G01*
G37*
G36*
G01*
X159362500Y-118825000D02*
X158612500Y-118825000D01*
G75*
G02*
X158550000Y-118762500I0J62500D01*
G01*
X158550000Y-118637500D01*
G75*
G02*
X158612500Y-118575000I62500J0D01*
G01*
X159362500Y-118575000D01*
G75*
G02*
X159425000Y-118637500I0J-62500D01*
G01*
X159425000Y-118762500D01*
G75*
G02*
X159362500Y-118825000I-62500J0D01*
G01*
G37*
G36*
G01*
X159362500Y-119325000D02*
X158612500Y-119325000D01*
G75*
G02*
X158550000Y-119262500I0J62500D01*
G01*
X158550000Y-119137500D01*
G75*
G02*
X158612500Y-119075000I62500J0D01*
G01*
X159362500Y-119075000D01*
G75*
G02*
X159425000Y-119137500I0J-62500D01*
G01*
X159425000Y-119262500D01*
G75*
G02*
X159362500Y-119325000I-62500J0D01*
G01*
G37*
G36*
G01*
X159362500Y-119825000D02*
X158612500Y-119825000D01*
G75*
G02*
X158550000Y-119762500I0J62500D01*
G01*
X158550000Y-119637500D01*
G75*
G02*
X158612500Y-119575000I62500J0D01*
G01*
X159362500Y-119575000D01*
G75*
G02*
X159425000Y-119637500I0J-62500D01*
G01*
X159425000Y-119762500D01*
G75*
G02*
X159362500Y-119825000I-62500J0D01*
G01*
G37*
G36*
G01*
X158362500Y-120825000D02*
X158237500Y-120825000D01*
G75*
G02*
X158175000Y-120762500I0J62500D01*
G01*
X158175000Y-120012500D01*
G75*
G02*
X158237500Y-119950000I62500J0D01*
G01*
X158362500Y-119950000D01*
G75*
G02*
X158425000Y-120012500I0J-62500D01*
G01*
X158425000Y-120762500D01*
G75*
G02*
X158362500Y-120825000I-62500J0D01*
G01*
G37*
G36*
G01*
X157862500Y-120825000D02*
X157737500Y-120825000D01*
G75*
G02*
X157675000Y-120762500I0J62500D01*
G01*
X157675000Y-120012500D01*
G75*
G02*
X157737500Y-119950000I62500J0D01*
G01*
X157862500Y-119950000D01*
G75*
G02*
X157925000Y-120012500I0J-62500D01*
G01*
X157925000Y-120762500D01*
G75*
G02*
X157862500Y-120825000I-62500J0D01*
G01*
G37*
G36*
G01*
X157362500Y-120825000D02*
X157237500Y-120825000D01*
G75*
G02*
X157175000Y-120762500I0J62500D01*
G01*
X157175000Y-120012500D01*
G75*
G02*
X157237500Y-119950000I62500J0D01*
G01*
X157362500Y-119950000D01*
G75*
G02*
X157425000Y-120012500I0J-62500D01*
G01*
X157425000Y-120762500D01*
G75*
G02*
X157362500Y-120825000I-62500J0D01*
G01*
G37*
G36*
G01*
X156862500Y-120825000D02*
X156737500Y-120825000D01*
G75*
G02*
X156675000Y-120762500I0J62500D01*
G01*
X156675000Y-120012500D01*
G75*
G02*
X156737500Y-119950000I62500J0D01*
G01*
X156862500Y-119950000D01*
G75*
G02*
X156925000Y-120012500I0J-62500D01*
G01*
X156925000Y-120762500D01*
G75*
G02*
X156862500Y-120825000I-62500J0D01*
G01*
G37*
G36*
G01*
X156362500Y-120825000D02*
X156237500Y-120825000D01*
G75*
G02*
X156175000Y-120762500I0J62500D01*
G01*
X156175000Y-120012500D01*
G75*
G02*
X156237500Y-119950000I62500J0D01*
G01*
X156362500Y-119950000D01*
G75*
G02*
X156425000Y-120012500I0J-62500D01*
G01*
X156425000Y-120762500D01*
G75*
G02*
X156362500Y-120825000I-62500J0D01*
G01*
G37*
G36*
G01*
X155862500Y-120825000D02*
X155737500Y-120825000D01*
G75*
G02*
X155675000Y-120762500I0J62500D01*
G01*
X155675000Y-120012500D01*
G75*
G02*
X155737500Y-119950000I62500J0D01*
G01*
X155862500Y-119950000D01*
G75*
G02*
X155925000Y-120012500I0J-62500D01*
G01*
X155925000Y-120762500D01*
G75*
G02*
X155862500Y-120825000I-62500J0D01*
G01*
G37*
G36*
G01*
X155362500Y-120825000D02*
X155237500Y-120825000D01*
G75*
G02*
X155175000Y-120762500I0J62500D01*
G01*
X155175000Y-120012500D01*
G75*
G02*
X155237500Y-119950000I62500J0D01*
G01*
X155362500Y-119950000D01*
G75*
G02*
X155425000Y-120012500I0J-62500D01*
G01*
X155425000Y-120762500D01*
G75*
G02*
X155362500Y-120825000I-62500J0D01*
G01*
G37*
G36*
G01*
X154862500Y-120825000D02*
X154737500Y-120825000D01*
G75*
G02*
X154675000Y-120762500I0J62500D01*
G01*
X154675000Y-120012500D01*
G75*
G02*
X154737500Y-119950000I62500J0D01*
G01*
X154862500Y-119950000D01*
G75*
G02*
X154925000Y-120012500I0J-62500D01*
G01*
X154925000Y-120762500D01*
G75*
G02*
X154862500Y-120825000I-62500J0D01*
G01*
G37*
G36*
G01*
X154362500Y-120825000D02*
X154237500Y-120825000D01*
G75*
G02*
X154175000Y-120762500I0J62500D01*
G01*
X154175000Y-120012500D01*
G75*
G02*
X154237500Y-119950000I62500J0D01*
G01*
X154362500Y-119950000D01*
G75*
G02*
X154425000Y-120012500I0J-62500D01*
G01*
X154425000Y-120762500D01*
G75*
G02*
X154362500Y-120825000I-62500J0D01*
G01*
G37*
G36*
G01*
X153862500Y-120825000D02*
X153737500Y-120825000D01*
G75*
G02*
X153675000Y-120762500I0J62500D01*
G01*
X153675000Y-120012500D01*
G75*
G02*
X153737500Y-119950000I62500J0D01*
G01*
X153862500Y-119950000D01*
G75*
G02*
X153925000Y-120012500I0J-62500D01*
G01*
X153925000Y-120762500D01*
G75*
G02*
X153862500Y-120825000I-62500J0D01*
G01*
G37*
G36*
G01*
X153362500Y-120825000D02*
X153237500Y-120825000D01*
G75*
G02*
X153175000Y-120762500I0J62500D01*
G01*
X153175000Y-120012500D01*
G75*
G02*
X153237500Y-119950000I62500J0D01*
G01*
X153362500Y-119950000D01*
G75*
G02*
X153425000Y-120012500I0J-62500D01*
G01*
X153425000Y-120762500D01*
G75*
G02*
X153362500Y-120825000I-62500J0D01*
G01*
G37*
G36*
G01*
X152862500Y-120825000D02*
X152737500Y-120825000D01*
G75*
G02*
X152675000Y-120762500I0J62500D01*
G01*
X152675000Y-120012500D01*
G75*
G02*
X152737500Y-119950000I62500J0D01*
G01*
X152862500Y-119950000D01*
G75*
G02*
X152925000Y-120012500I0J-62500D01*
G01*
X152925000Y-120762500D01*
G75*
G02*
X152862500Y-120825000I-62500J0D01*
G01*
G37*
G36*
G01*
X152362500Y-120825000D02*
X152237500Y-120825000D01*
G75*
G02*
X152175000Y-120762500I0J62500D01*
G01*
X152175000Y-120012500D01*
G75*
G02*
X152237500Y-119950000I62500J0D01*
G01*
X152362500Y-119950000D01*
G75*
G02*
X152425000Y-120012500I0J-62500D01*
G01*
X152425000Y-120762500D01*
G75*
G02*
X152362500Y-120825000I-62500J0D01*
G01*
G37*
G36*
G01*
X151862500Y-120825000D02*
X151737500Y-120825000D01*
G75*
G02*
X151675000Y-120762500I0J62500D01*
G01*
X151675000Y-120012500D01*
G75*
G02*
X151737500Y-119950000I62500J0D01*
G01*
X151862500Y-119950000D01*
G75*
G02*
X151925000Y-120012500I0J-62500D01*
G01*
X151925000Y-120762500D01*
G75*
G02*
X151862500Y-120825000I-62500J0D01*
G01*
G37*
G36*
G01*
X151362500Y-120825000D02*
X151237500Y-120825000D01*
G75*
G02*
X151175000Y-120762500I0J62500D01*
G01*
X151175000Y-120012500D01*
G75*
G02*
X151237500Y-119950000I62500J0D01*
G01*
X151362500Y-119950000D01*
G75*
G02*
X151425000Y-120012500I0J-62500D01*
G01*
X151425000Y-120762500D01*
G75*
G02*
X151362500Y-120825000I-62500J0D01*
G01*
G37*
G36*
G01*
X150862500Y-120825000D02*
X150737500Y-120825000D01*
G75*
G02*
X150675000Y-120762500I0J62500D01*
G01*
X150675000Y-120012500D01*
G75*
G02*
X150737500Y-119950000I62500J0D01*
G01*
X150862500Y-119950000D01*
G75*
G02*
X150925000Y-120012500I0J-62500D01*
G01*
X150925000Y-120762500D01*
G75*
G02*
X150862500Y-120825000I-62500J0D01*
G01*
G37*
G36*
G01*
X150362500Y-120825000D02*
X150237500Y-120825000D01*
G75*
G02*
X150175000Y-120762500I0J62500D01*
G01*
X150175000Y-120012500D01*
G75*
G02*
X150237500Y-119950000I62500J0D01*
G01*
X150362500Y-119950000D01*
G75*
G02*
X150425000Y-120012500I0J-62500D01*
G01*
X150425000Y-120762500D01*
G75*
G02*
X150362500Y-120825000I-62500J0D01*
G01*
G37*
G36*
G01*
X149862500Y-120825000D02*
X149737500Y-120825000D01*
G75*
G02*
X149675000Y-120762500I0J62500D01*
G01*
X149675000Y-120012500D01*
G75*
G02*
X149737500Y-119950000I62500J0D01*
G01*
X149862500Y-119950000D01*
G75*
G02*
X149925000Y-120012500I0J-62500D01*
G01*
X149925000Y-120762500D01*
G75*
G02*
X149862500Y-120825000I-62500J0D01*
G01*
G37*
%TD*%
%TO.C,C7*%
G36*
G01*
X129612500Y-122025000D02*
X130087500Y-122025000D01*
G75*
G02*
X130325000Y-122262500I0J-237500D01*
G01*
X130325000Y-122862500D01*
G75*
G02*
X130087500Y-123100000I-237500J0D01*
G01*
X129612500Y-123100000D01*
G75*
G02*
X129375000Y-122862500I0J237500D01*
G01*
X129375000Y-122262500D01*
G75*
G02*
X129612500Y-122025000I237500J0D01*
G01*
G37*
G36*
G01*
X129612500Y-120300000D02*
X130087500Y-120300000D01*
G75*
G02*
X130325000Y-120537500I0J-237500D01*
G01*
X130325000Y-121137500D01*
G75*
G02*
X130087500Y-121375000I-237500J0D01*
G01*
X129612500Y-121375000D01*
G75*
G02*
X129375000Y-121137500I0J237500D01*
G01*
X129375000Y-120537500D01*
G75*
G02*
X129612500Y-120300000I237500J0D01*
G01*
G37*
%TD*%
%TO.C,C1*%
G36*
G01*
X126612499Y-116062500D02*
X126612499Y-116537500D01*
G75*
G02*
X126374999Y-116775000I-237500J0D01*
G01*
X125774999Y-116775000D01*
G75*
G02*
X125537499Y-116537500I0J237500D01*
G01*
X125537499Y-116062500D01*
G75*
G02*
X125774999Y-115825000I237500J0D01*
G01*
X126374999Y-115825000D01*
G75*
G02*
X126612499Y-116062500I0J-237500D01*
G01*
G37*
G36*
G01*
X128337499Y-116062500D02*
X128337499Y-116537500D01*
G75*
G02*
X128099999Y-116775000I-237500J0D01*
G01*
X127499999Y-116775000D01*
G75*
G02*
X127262499Y-116537500I0J237500D01*
G01*
X127262499Y-116062500D01*
G75*
G02*
X127499999Y-115825000I237500J0D01*
G01*
X128099999Y-115825000D01*
G75*
G02*
X128337499Y-116062500I0J-237500D01*
G01*
G37*
%TD*%
%TO.C,D2*%
G36*
G01*
X135850000Y-101662500D02*
X135850000Y-102137500D01*
G75*
G02*
X135612500Y-102375000I-237500J0D01*
G01*
X135037500Y-102375000D01*
G75*
G02*
X134800000Y-102137500I0J237500D01*
G01*
X134800000Y-101662500D01*
G75*
G02*
X135037500Y-101425000I237500J0D01*
G01*
X135612500Y-101425000D01*
G75*
G02*
X135850000Y-101662500I0J-237500D01*
G01*
G37*
G36*
G01*
X137600000Y-101662500D02*
X137600000Y-102137500D01*
G75*
G02*
X137362500Y-102375000I-237500J0D01*
G01*
X136787500Y-102375000D01*
G75*
G02*
X136550000Y-102137500I0J237500D01*
G01*
X136550000Y-101662500D01*
G75*
G02*
X136787500Y-101425000I237500J0D01*
G01*
X137362500Y-101425000D01*
G75*
G02*
X137600000Y-101662500I0J-237500D01*
G01*
G37*
%TD*%
%TO.C,R32*%
G36*
G01*
X140362500Y-103475000D02*
X140837500Y-103475000D01*
G75*
G02*
X141075000Y-103712500I0J-237500D01*
G01*
X141075000Y-104212500D01*
G75*
G02*
X140837500Y-104450000I-237500J0D01*
G01*
X140362500Y-104450000D01*
G75*
G02*
X140125000Y-104212500I0J237500D01*
G01*
X140125000Y-103712500D01*
G75*
G02*
X140362500Y-103475000I237500J0D01*
G01*
G37*
G36*
G01*
X140362500Y-101650000D02*
X140837500Y-101650000D01*
G75*
G02*
X141075000Y-101887500I0J-237500D01*
G01*
X141075000Y-102387500D01*
G75*
G02*
X140837500Y-102625000I-237500J0D01*
G01*
X140362500Y-102625000D01*
G75*
G02*
X140125000Y-102387500I0J237500D01*
G01*
X140125000Y-101887500D01*
G75*
G02*
X140362500Y-101650000I237500J0D01*
G01*
G37*
%TD*%
%TO.C,R13*%
G36*
G01*
X135775000Y-103162500D02*
X135775000Y-103637500D01*
G75*
G02*
X135537500Y-103875000I-237500J0D01*
G01*
X135037500Y-103875000D01*
G75*
G02*
X134800000Y-103637500I0J237500D01*
G01*
X134800000Y-103162500D01*
G75*
G02*
X135037500Y-102925000I237500J0D01*
G01*
X135537500Y-102925000D01*
G75*
G02*
X135775000Y-103162500I0J-237500D01*
G01*
G37*
G36*
G01*
X137600000Y-103162500D02*
X137600000Y-103637500D01*
G75*
G02*
X137362500Y-103875000I-237500J0D01*
G01*
X136862500Y-103875000D01*
G75*
G02*
X136625000Y-103637500I0J237500D01*
G01*
X136625000Y-103162500D01*
G75*
G02*
X136862500Y-102925000I237500J0D01*
G01*
X137362500Y-102925000D01*
G75*
G02*
X137600000Y-103162500I0J-237500D01*
G01*
G37*
%TD*%
%TO.C,C49*%
G36*
G01*
X139962499Y-105737500D02*
X139962499Y-105262500D01*
G75*
G02*
X140199999Y-105025000I237500J0D01*
G01*
X140799999Y-105025000D01*
G75*
G02*
X141037499Y-105262500I0J-237500D01*
G01*
X141037499Y-105737500D01*
G75*
G02*
X140799999Y-105975000I-237500J0D01*
G01*
X140199999Y-105975000D01*
G75*
G02*
X139962499Y-105737500I0J237500D01*
G01*
G37*
G36*
G01*
X138237499Y-105737500D02*
X138237499Y-105262500D01*
G75*
G02*
X138474999Y-105025000I237500J0D01*
G01*
X139074999Y-105025000D01*
G75*
G02*
X139312499Y-105262500I0J-237500D01*
G01*
X139312499Y-105737500D01*
G75*
G02*
X139074999Y-105975000I-237500J0D01*
G01*
X138474999Y-105975000D01*
G75*
G02*
X138237499Y-105737500I0J237500D01*
G01*
G37*
%TD*%
D17*
%TO.C,RV1*%
X130400000Y-104850000D03*
D18*
X133300000Y-103600000D03*
D17*
X130400000Y-102350000D03*
%TD*%
D19*
%TO.C,U2*%
X146650000Y-100500000D03*
X144750000Y-100500000D03*
X144750000Y-98300000D03*
X145700000Y-98300000D03*
X146650000Y-98300000D03*
%TD*%
%TO.C,C11*%
G36*
G01*
X136475000Y-105737500D02*
X136475000Y-105262500D01*
G75*
G02*
X136712500Y-105025000I237500J0D01*
G01*
X137312500Y-105025000D01*
G75*
G02*
X137550000Y-105262500I0J-237500D01*
G01*
X137550000Y-105737500D01*
G75*
G02*
X137312500Y-105975000I-237500J0D01*
G01*
X136712500Y-105975000D01*
G75*
G02*
X136475000Y-105737500I0J237500D01*
G01*
G37*
G36*
G01*
X134750000Y-105737500D02*
X134750000Y-105262500D01*
G75*
G02*
X134987500Y-105025000I237500J0D01*
G01*
X135587500Y-105025000D01*
G75*
G02*
X135825000Y-105262500I0J-237500D01*
G01*
X135825000Y-105737500D01*
G75*
G02*
X135587500Y-105975000I-237500J0D01*
G01*
X134987500Y-105975000D01*
G75*
G02*
X134750000Y-105737500I0J237500D01*
G01*
G37*
%TD*%
%TO.C,U9*%
G36*
G01*
X139822500Y-99275000D02*
X140157500Y-99275000D01*
G75*
G02*
X140325000Y-99442500I0J-167500D01*
G01*
X140325000Y-99777500D01*
G75*
G02*
X140157500Y-99945000I-167500J0D01*
G01*
X139822500Y-99945000D01*
G75*
G02*
X139655000Y-99777500I0J167500D01*
G01*
X139655000Y-99442500D01*
G75*
G02*
X139822500Y-99275000I167500J0D01*
G01*
G37*
G36*
G01*
X140642500Y-99275000D02*
X140977500Y-99275000D01*
G75*
G02*
X141145000Y-99442500I0J-167500D01*
G01*
X141145000Y-99777500D01*
G75*
G02*
X140977500Y-99945000I-167500J0D01*
G01*
X140642500Y-99945000D01*
G75*
G02*
X140475000Y-99777500I0J167500D01*
G01*
X140475000Y-99442500D01*
G75*
G02*
X140642500Y-99275000I167500J0D01*
G01*
G37*
G36*
G01*
X139822500Y-98455000D02*
X140157500Y-98455000D01*
G75*
G02*
X140325000Y-98622500I0J-167500D01*
G01*
X140325000Y-98957500D01*
G75*
G02*
X140157500Y-99125000I-167500J0D01*
G01*
X139822500Y-99125000D01*
G75*
G02*
X139655000Y-98957500I0J167500D01*
G01*
X139655000Y-98622500D01*
G75*
G02*
X139822500Y-98455000I167500J0D01*
G01*
G37*
G36*
G01*
X140642500Y-98455000D02*
X140977500Y-98455000D01*
G75*
G02*
X141145000Y-98622500I0J-167500D01*
G01*
X141145000Y-98957500D01*
G75*
G02*
X140977500Y-99125000I-167500J0D01*
G01*
X140642500Y-99125000D01*
G75*
G02*
X140475000Y-98957500I0J167500D01*
G01*
X140475000Y-98622500D01*
G75*
G02*
X140642500Y-98455000I167500J0D01*
G01*
G37*
G36*
G01*
X141512500Y-98575000D02*
X142212500Y-98575000D01*
G75*
G02*
X142275000Y-98637500I0J-62500D01*
G01*
X142275000Y-98762500D01*
G75*
G02*
X142212500Y-98825000I-62500J0D01*
G01*
X141512500Y-98825000D01*
G75*
G02*
X141450000Y-98762500I0J62500D01*
G01*
X141450000Y-98637500D01*
G75*
G02*
X141512500Y-98575000I62500J0D01*
G01*
G37*
G36*
G01*
X141512500Y-99075000D02*
X142212500Y-99075000D01*
G75*
G02*
X142275000Y-99137500I0J-62500D01*
G01*
X142275000Y-99262500D01*
G75*
G02*
X142212500Y-99325000I-62500J0D01*
G01*
X141512500Y-99325000D01*
G75*
G02*
X141450000Y-99262500I0J62500D01*
G01*
X141450000Y-99137500D01*
G75*
G02*
X141512500Y-99075000I62500J0D01*
G01*
G37*
G36*
G01*
X141512500Y-99575000D02*
X142212500Y-99575000D01*
G75*
G02*
X142275000Y-99637500I0J-62500D01*
G01*
X142275000Y-99762500D01*
G75*
G02*
X142212500Y-99825000I-62500J0D01*
G01*
X141512500Y-99825000D01*
G75*
G02*
X141450000Y-99762500I0J62500D01*
G01*
X141450000Y-99637500D01*
G75*
G02*
X141512500Y-99575000I62500J0D01*
G01*
G37*
G36*
G01*
X140837500Y-100250000D02*
X140962500Y-100250000D01*
G75*
G02*
X141025000Y-100312500I0J-62500D01*
G01*
X141025000Y-101012500D01*
G75*
G02*
X140962500Y-101075000I-62500J0D01*
G01*
X140837500Y-101075000D01*
G75*
G02*
X140775000Y-101012500I0J62500D01*
G01*
X140775000Y-100312500D01*
G75*
G02*
X140837500Y-100250000I62500J0D01*
G01*
G37*
G36*
G01*
X140337500Y-100250000D02*
X140462500Y-100250000D01*
G75*
G02*
X140525000Y-100312500I0J-62500D01*
G01*
X140525000Y-101012500D01*
G75*
G02*
X140462500Y-101075000I-62500J0D01*
G01*
X140337500Y-101075000D01*
G75*
G02*
X140275000Y-101012500I0J62500D01*
G01*
X140275000Y-100312500D01*
G75*
G02*
X140337500Y-100250000I62500J0D01*
G01*
G37*
G36*
G01*
X139837500Y-100250000D02*
X139962500Y-100250000D01*
G75*
G02*
X140025000Y-100312500I0J-62500D01*
G01*
X140025000Y-101012500D01*
G75*
G02*
X139962500Y-101075000I-62500J0D01*
G01*
X139837500Y-101075000D01*
G75*
G02*
X139775000Y-101012500I0J62500D01*
G01*
X139775000Y-100312500D01*
G75*
G02*
X139837500Y-100250000I62500J0D01*
G01*
G37*
G36*
G01*
X138587500Y-99575000D02*
X139287500Y-99575000D01*
G75*
G02*
X139350000Y-99637500I0J-62500D01*
G01*
X139350000Y-99762500D01*
G75*
G02*
X139287500Y-99825000I-62500J0D01*
G01*
X138587500Y-99825000D01*
G75*
G02*
X138525000Y-99762500I0J62500D01*
G01*
X138525000Y-99637500D01*
G75*
G02*
X138587500Y-99575000I62500J0D01*
G01*
G37*
G36*
G01*
X138587500Y-99075000D02*
X139287500Y-99075000D01*
G75*
G02*
X139350000Y-99137500I0J-62500D01*
G01*
X139350000Y-99262500D01*
G75*
G02*
X139287500Y-99325000I-62500J0D01*
G01*
X138587500Y-99325000D01*
G75*
G02*
X138525000Y-99262500I0J62500D01*
G01*
X138525000Y-99137500D01*
G75*
G02*
X138587500Y-99075000I62500J0D01*
G01*
G37*
G36*
G01*
X138587500Y-98575000D02*
X139287500Y-98575000D01*
G75*
G02*
X139350000Y-98637500I0J-62500D01*
G01*
X139350000Y-98762500D01*
G75*
G02*
X139287500Y-98825000I-62500J0D01*
G01*
X138587500Y-98825000D01*
G75*
G02*
X138525000Y-98762500I0J62500D01*
G01*
X138525000Y-98637500D01*
G75*
G02*
X138587500Y-98575000I62500J0D01*
G01*
G37*
G36*
G01*
X139837500Y-97325000D02*
X139962500Y-97325000D01*
G75*
G02*
X140025000Y-97387500I0J-62500D01*
G01*
X140025000Y-98087500D01*
G75*
G02*
X139962500Y-98150000I-62500J0D01*
G01*
X139837500Y-98150000D01*
G75*
G02*
X139775000Y-98087500I0J62500D01*
G01*
X139775000Y-97387500D01*
G75*
G02*
X139837500Y-97325000I62500J0D01*
G01*
G37*
G36*
G01*
X140337500Y-97325000D02*
X140462500Y-97325000D01*
G75*
G02*
X140525000Y-97387500I0J-62500D01*
G01*
X140525000Y-98087500D01*
G75*
G02*
X140462500Y-98150000I-62500J0D01*
G01*
X140337500Y-98150000D01*
G75*
G02*
X140275000Y-98087500I0J62500D01*
G01*
X140275000Y-97387500D01*
G75*
G02*
X140337500Y-97325000I62500J0D01*
G01*
G37*
G36*
G01*
X140837500Y-97325000D02*
X140962500Y-97325000D01*
G75*
G02*
X141025000Y-97387500I0J-62500D01*
G01*
X141025000Y-98087500D01*
G75*
G02*
X140962500Y-98150000I-62500J0D01*
G01*
X140837500Y-98150000D01*
G75*
G02*
X140775000Y-98087500I0J62500D01*
G01*
X140775000Y-97387500D01*
G75*
G02*
X140837500Y-97325000I62500J0D01*
G01*
G37*
%TD*%
D20*
%TO.C,L1*%
X130200000Y-97300000D03*
X133000000Y-97300000D03*
%TD*%
%TO.C,D12*%
G36*
G01*
X148262500Y-134575001D02*
X148737500Y-134575001D01*
G75*
G02*
X148975000Y-134812501I0J-237500D01*
G01*
X148975000Y-135387501D01*
G75*
G02*
X148737500Y-135625001I-237500J0D01*
G01*
X148262500Y-135625001D01*
G75*
G02*
X148025000Y-135387501I0J237500D01*
G01*
X148025000Y-134812501D01*
G75*
G02*
X148262500Y-134575001I237500J0D01*
G01*
G37*
G36*
G01*
X148262500Y-132825001D02*
X148737500Y-132825001D01*
G75*
G02*
X148975000Y-133062501I0J-237500D01*
G01*
X148975000Y-133637501D01*
G75*
G02*
X148737500Y-133875001I-237500J0D01*
G01*
X148262500Y-133875001D01*
G75*
G02*
X148025000Y-133637501I0J237500D01*
G01*
X148025000Y-133062501D01*
G75*
G02*
X148262500Y-132825001I237500J0D01*
G01*
G37*
%TD*%
%TO.C,D11*%
G36*
G01*
X146762500Y-135275000D02*
X147237500Y-135275000D01*
G75*
G02*
X147475000Y-135512500I0J-237500D01*
G01*
X147475000Y-136087500D01*
G75*
G02*
X147237500Y-136325000I-237500J0D01*
G01*
X146762500Y-136325000D01*
G75*
G02*
X146525000Y-136087500I0J237500D01*
G01*
X146525000Y-135512500D01*
G75*
G02*
X146762500Y-135275000I237500J0D01*
G01*
G37*
G36*
G01*
X146762500Y-133525000D02*
X147237500Y-133525000D01*
G75*
G02*
X147475000Y-133762500I0J-237500D01*
G01*
X147475000Y-134337500D01*
G75*
G02*
X147237500Y-134575000I-237500J0D01*
G01*
X146762500Y-134575000D01*
G75*
G02*
X146525000Y-134337500I0J237500D01*
G01*
X146525000Y-133762500D01*
G75*
G02*
X146762500Y-133525000I237500J0D01*
G01*
G37*
%TD*%
%TO.C,D10*%
G36*
G01*
X145262500Y-135875000D02*
X145737500Y-135875000D01*
G75*
G02*
X145975000Y-136112500I0J-237500D01*
G01*
X145975000Y-136687500D01*
G75*
G02*
X145737500Y-136925000I-237500J0D01*
G01*
X145262500Y-136925000D01*
G75*
G02*
X145025000Y-136687500I0J237500D01*
G01*
X145025000Y-136112500D01*
G75*
G02*
X145262500Y-135875000I237500J0D01*
G01*
G37*
G36*
G01*
X145262500Y-134125000D02*
X145737500Y-134125000D01*
G75*
G02*
X145975000Y-134362500I0J-237500D01*
G01*
X145975000Y-134937500D01*
G75*
G02*
X145737500Y-135175000I-237500J0D01*
G01*
X145262500Y-135175000D01*
G75*
G02*
X145025000Y-134937500I0J237500D01*
G01*
X145025000Y-134362500D01*
G75*
G02*
X145262500Y-134125000I237500J0D01*
G01*
G37*
%TD*%
%TO.C,D9*%
G36*
G01*
X143762500Y-136275000D02*
X144237500Y-136275000D01*
G75*
G02*
X144475000Y-136512500I0J-237500D01*
G01*
X144475000Y-137087500D01*
G75*
G02*
X144237500Y-137325000I-237500J0D01*
G01*
X143762500Y-137325000D01*
G75*
G02*
X143525000Y-137087500I0J237500D01*
G01*
X143525000Y-136512500D01*
G75*
G02*
X143762500Y-136275000I237500J0D01*
G01*
G37*
G36*
G01*
X143762500Y-134525000D02*
X144237500Y-134525000D01*
G75*
G02*
X144475000Y-134762500I0J-237500D01*
G01*
X144475000Y-135337500D01*
G75*
G02*
X144237500Y-135575000I-237500J0D01*
G01*
X143762500Y-135575000D01*
G75*
G02*
X143525000Y-135337500I0J237500D01*
G01*
X143525000Y-134762500D01*
G75*
G02*
X143762500Y-134525000I237500J0D01*
G01*
G37*
%TD*%
%TO.C,D8*%
G36*
G01*
X142262500Y-136575000D02*
X142737500Y-136575000D01*
G75*
G02*
X142975000Y-136812500I0J-237500D01*
G01*
X142975000Y-137387500D01*
G75*
G02*
X142737500Y-137625000I-237500J0D01*
G01*
X142262500Y-137625000D01*
G75*
G02*
X142025000Y-137387500I0J237500D01*
G01*
X142025000Y-136812500D01*
G75*
G02*
X142262500Y-136575000I237500J0D01*
G01*
G37*
G36*
G01*
X142262500Y-134825000D02*
X142737500Y-134825000D01*
G75*
G02*
X142975000Y-135062500I0J-237500D01*
G01*
X142975000Y-135637500D01*
G75*
G02*
X142737500Y-135875000I-237500J0D01*
G01*
X142262500Y-135875000D01*
G75*
G02*
X142025000Y-135637500I0J237500D01*
G01*
X142025000Y-135062500D01*
G75*
G02*
X142262500Y-134825000I237500J0D01*
G01*
G37*
%TD*%
%TO.C,D7*%
G36*
G01*
X140762499Y-136875000D02*
X141237499Y-136875000D01*
G75*
G02*
X141474999Y-137112500I0J-237500D01*
G01*
X141474999Y-137687500D01*
G75*
G02*
X141237499Y-137925000I-237500J0D01*
G01*
X140762499Y-137925000D01*
G75*
G02*
X140524999Y-137687500I0J237500D01*
G01*
X140524999Y-137112500D01*
G75*
G02*
X140762499Y-136875000I237500J0D01*
G01*
G37*
G36*
G01*
X140762499Y-135125000D02*
X141237499Y-135125000D01*
G75*
G02*
X141474999Y-135362500I0J-237500D01*
G01*
X141474999Y-135937500D01*
G75*
G02*
X141237499Y-136175000I-237500J0D01*
G01*
X140762499Y-136175000D01*
G75*
G02*
X140524999Y-135937500I0J237500D01*
G01*
X140524999Y-135362500D01*
G75*
G02*
X140762499Y-135125000I237500J0D01*
G01*
G37*
%TD*%
%TO.C,D6*%
G36*
G01*
X137762500Y-136975000D02*
X138237500Y-136975000D01*
G75*
G02*
X138475000Y-137212500I0J-237500D01*
G01*
X138475000Y-137787500D01*
G75*
G02*
X138237500Y-138025000I-237500J0D01*
G01*
X137762500Y-138025000D01*
G75*
G02*
X137525000Y-137787500I0J237500D01*
G01*
X137525000Y-137212500D01*
G75*
G02*
X137762500Y-136975000I237500J0D01*
G01*
G37*
G36*
G01*
X137762500Y-135225000D02*
X138237500Y-135225000D01*
G75*
G02*
X138475000Y-135462500I0J-237500D01*
G01*
X138475000Y-136037500D01*
G75*
G02*
X138237500Y-136275000I-237500J0D01*
G01*
X137762500Y-136275000D01*
G75*
G02*
X137525000Y-136037500I0J237500D01*
G01*
X137525000Y-135462500D01*
G75*
G02*
X137762500Y-135225000I237500J0D01*
G01*
G37*
%TD*%
%TO.C,D5*%
G36*
G01*
X139262500Y-136975000D02*
X139737500Y-136975000D01*
G75*
G02*
X139975000Y-137212500I0J-237500D01*
G01*
X139975000Y-137787500D01*
G75*
G02*
X139737500Y-138025000I-237500J0D01*
G01*
X139262500Y-138025000D01*
G75*
G02*
X139025000Y-137787500I0J237500D01*
G01*
X139025000Y-137212500D01*
G75*
G02*
X139262500Y-136975000I237500J0D01*
G01*
G37*
G36*
G01*
X139262500Y-135225000D02*
X139737500Y-135225000D01*
G75*
G02*
X139975000Y-135462500I0J-237500D01*
G01*
X139975000Y-136037500D01*
G75*
G02*
X139737500Y-136275000I-237500J0D01*
G01*
X139262500Y-136275000D01*
G75*
G02*
X139025000Y-136037500I0J237500D01*
G01*
X139025000Y-135462500D01*
G75*
G02*
X139262500Y-135225000I237500J0D01*
G01*
G37*
%TD*%
D21*
%TO.C,U5*%
X144399999Y-102250000D03*
X144399999Y-104150000D03*
X142199999Y-104150000D03*
X142199999Y-103200000D03*
X142199999Y-102250000D03*
%TD*%
D22*
%TO.C,U4*%
X157350000Y-122100000D03*
X159000000Y-122100000D03*
X159000000Y-123650000D03*
X157350000Y-123650000D03*
%TD*%
%TO.C,R12*%
G36*
G01*
X144662500Y-96212500D02*
X145137500Y-96212500D01*
G75*
G02*
X145375000Y-96450000I0J-237500D01*
G01*
X145375000Y-96950000D01*
G75*
G02*
X145137500Y-97187500I-237500J0D01*
G01*
X144662500Y-97187500D01*
G75*
G02*
X144425000Y-96950000I0J237500D01*
G01*
X144425000Y-96450000D01*
G75*
G02*
X144662500Y-96212500I237500J0D01*
G01*
G37*
G36*
G01*
X144662500Y-94387500D02*
X145137500Y-94387500D01*
G75*
G02*
X145375000Y-94625000I0J-237500D01*
G01*
X145375000Y-95125000D01*
G75*
G02*
X145137500Y-95362500I-237500J0D01*
G01*
X144662500Y-95362500D01*
G75*
G02*
X144425000Y-95125000I0J237500D01*
G01*
X144425000Y-94625000D01*
G75*
G02*
X144662500Y-94387500I237500J0D01*
G01*
G37*
%TD*%
%TO.C,R11*%
G36*
G01*
X136612500Y-99037500D02*
X136612500Y-98562500D01*
G75*
G02*
X136850000Y-98325000I237500J0D01*
G01*
X137350000Y-98325000D01*
G75*
G02*
X137587500Y-98562500I0J-237500D01*
G01*
X137587500Y-99037500D01*
G75*
G02*
X137350000Y-99275000I-237500J0D01*
G01*
X136850000Y-99275000D01*
G75*
G02*
X136612500Y-99037500I0J237500D01*
G01*
G37*
G36*
G01*
X134787500Y-99037500D02*
X134787500Y-98562500D01*
G75*
G02*
X135025000Y-98325000I237500J0D01*
G01*
X135525000Y-98325000D01*
G75*
G02*
X135762500Y-98562500I0J-237500D01*
G01*
X135762500Y-99037500D01*
G75*
G02*
X135525000Y-99275000I-237500J0D01*
G01*
X135025000Y-99275000D01*
G75*
G02*
X134787500Y-99037500I0J237500D01*
G01*
G37*
%TD*%
%TO.C,D4*%
G36*
G01*
X136575000Y-100537500D02*
X136575000Y-100062500D01*
G75*
G02*
X136812500Y-99825000I237500J0D01*
G01*
X137387500Y-99825000D01*
G75*
G02*
X137625000Y-100062500I0J-237500D01*
G01*
X137625000Y-100537500D01*
G75*
G02*
X137387500Y-100775000I-237500J0D01*
G01*
X136812500Y-100775000D01*
G75*
G02*
X136575000Y-100537500I0J237500D01*
G01*
G37*
G36*
G01*
X134825000Y-100537500D02*
X134825000Y-100062500D01*
G75*
G02*
X135062500Y-99825000I237500J0D01*
G01*
X135637500Y-99825000D01*
G75*
G02*
X135875000Y-100062500I0J-237500D01*
G01*
X135875000Y-100537500D01*
G75*
G02*
X135637500Y-100775000I-237500J0D01*
G01*
X135062500Y-100775000D01*
G75*
G02*
X134825000Y-100537500I0J237500D01*
G01*
G37*
%TD*%
%TO.C,C13*%
G36*
G01*
X146162500Y-96125000D02*
X146637500Y-96125000D01*
G75*
G02*
X146875000Y-96362500I0J-237500D01*
G01*
X146875000Y-96962500D01*
G75*
G02*
X146637500Y-97200000I-237500J0D01*
G01*
X146162500Y-97200000D01*
G75*
G02*
X145925000Y-96962500I0J237500D01*
G01*
X145925000Y-96362500D01*
G75*
G02*
X146162500Y-96125000I237500J0D01*
G01*
G37*
G36*
G01*
X146162500Y-94400000D02*
X146637500Y-94400000D01*
G75*
G02*
X146875000Y-94637500I0J-237500D01*
G01*
X146875000Y-95237500D01*
G75*
G02*
X146637500Y-95475000I-237500J0D01*
G01*
X146162500Y-95475000D01*
G75*
G02*
X145925000Y-95237500I0J237500D01*
G01*
X145925000Y-94637500D01*
G75*
G02*
X146162500Y-94400000I237500J0D01*
G01*
G37*
%TD*%
%TO.C,C10*%
G36*
G01*
X135912500Y-97062500D02*
X135912500Y-97537500D01*
G75*
G02*
X135675000Y-97775000I-237500J0D01*
G01*
X135075000Y-97775000D01*
G75*
G02*
X134837500Y-97537500I0J237500D01*
G01*
X134837500Y-97062500D01*
G75*
G02*
X135075000Y-96825000I237500J0D01*
G01*
X135675000Y-96825000D01*
G75*
G02*
X135912500Y-97062500I0J-237500D01*
G01*
G37*
G36*
G01*
X137637500Y-97062500D02*
X137637500Y-97537500D01*
G75*
G02*
X137400000Y-97775000I-237500J0D01*
G01*
X136800000Y-97775000D01*
G75*
G02*
X136562500Y-97537500I0J237500D01*
G01*
X136562500Y-97062500D01*
G75*
G02*
X136800000Y-96825000I237500J0D01*
G01*
X137400000Y-96825000D01*
G75*
G02*
X137637500Y-97062500I0J-237500D01*
G01*
G37*
%TD*%
M02*
