  0
SECTION
  2
HEADER
  9
$ANGBASE
  50
0.0
  9
$ANGDIR
  70
1
  9
$MEASUREMENT
  70
1
  0
ENDSEC
  0
SECTION
  2
TABLES
  0
TABLE
  2
LTYPE
  70
4
  0
LTYPE
  5
40F
  2
CONTINUOUS
  70
0
  3
Solid line
  72
65
  73
0
  40
0.0
  0
LTYPE
  5
410
  2
DASHDOT
 70
0
  3
Dash Dot ____ _ ____ _
 72
65
 73
4
 40
2.0
 49
1.25
 49
-0.25
 49
0.25
 49
-0.25
  0
LTYPE
  5
411
  2
DASHED
 70
0
  3
Dashed __ __ __ __ __
 72
65
 73
2
 40
0.75
 49
0.5
 49
-0.25
  0
LTYPE
  5
43B
  2
DOTTED
 70
0
  3
Dotted .  .  .  .
 72
65
 73
2
 40
0.2
 49
0.0
 49
-0.2
  0
ENDTAB
  0
TABLE
  2
STYLE
  70
4
  0
STYLE
  2
KICAD
  70
0
  40
0
  41
1
  42
1
  50
0
  71
0
  3
isocp.shx
  0
STYLE
  2
KICADB
  70
0
  40
0
  41
1
  42
1
  50
0
  71
0
  3
isocp.shx
  0
STYLE
  2
KICADI
  70
0
  40
0
  41
1
  42
1
  50
15
  71
0
  3
isocp.shx
  0
STYLE
  2
KICADBI
  70
0
  40
0
  41
1
  42
1
  50
15
  71
0
  3
isocp.shx
  0
ENDTAB
  0
TABLE
  2
LAYER
  70
1
  0
LAYER
  2
BLACK
  70
0
  62
7
  6
CONTINUOUS
  0
ENDTAB
  0
ENDSEC
  0
SECTION
  2
ENTITIES
0
LINE
8
BLACK
6
CONTINUOUS
10
138.284
20
-137.017
11
138.328
21
-137.031
0
LINE
8
BLACK
6
CONTINUOUS
10
138.328
20
-137.031
11
138.369
21
-137.053
0
LINE
8
BLACK
6
CONTINUOUS
10
138.369
20
-137.053
11
138.405
21
-137.082
0
LINE
8
BLACK
6
CONTINUOUS
10
138.405
20
-137.082
11
138.435
21
-137.118
0
LINE
8
BLACK
6
CONTINUOUS
10
138.435
20
-137.118
11
138.457
21
-137.159
0
LINE
8
BLACK
6
CONTINUOUS
10
138.457
20
-137.159
11
138.47
21
-137.204
0
LINE
8
BLACK
6
CONTINUOUS
10
138.47
20
-137.204
11
138.475
21
-137.25
0
LINE
8
BLACK
6
CONTINUOUS
10
138.475
20
-137.25
11
138.475
21
-137.75
0
LINE
8
BLACK
6
CONTINUOUS
10
138.475
20
-137.75
11
138.47
21
-137.796
0
LINE
8
BLACK
6
CONTINUOUS
10
138.47
20
-137.796
11
138.457
21
-137.841
0
LINE
8
BLACK
6
CONTINUOUS
10
138.457
20
-137.841
11
138.435
21
-137.882
0
LINE
8
BLACK
6
CONTINUOUS
10
138.435
20
-137.882
11
138.405
21
-137.918
0
LINE
8
BLACK
6
CONTINUOUS
10
138.405
20
-137.918
11
138.369
21
-137.947
0
LINE
8
BLACK
6
CONTINUOUS
10
138.369
20
-137.947
11
138.328
21
-137.969
0
LINE
8
BLACK
6
CONTINUOUS
10
138.328
20
-137.969
11
138.284
21
-137.983
0
LINE
8
BLACK
6
CONTINUOUS
10
138.284
20
-137.983
11
138.237
21
-137.987
0
LINE
8
BLACK
6
CONTINUOUS
10
138.237
20
-137.987
11
137.762
21
-137.987
0
LINE
8
BLACK
6
CONTINUOUS
10
137.762
20
-137.987
11
137.716
21
-137.983
0
LINE
8
BLACK
6
CONTINUOUS
10
137.716
20
-137.983
11
137.672
21
-137.969
0
LINE
8
BLACK
6
CONTINUOUS
10
137.672
20
-137.969
11
137.631
21
-137.947
0
LINE
8
BLACK
6
CONTINUOUS
10
137.631
20
-137.947
11
137.595
21
-137.918
0
LINE
8
BLACK
6
CONTINUOUS
10
137.595
20
-137.918
11
137.565
21
-137.882
0
LINE
8
BLACK
6
CONTINUOUS
10
137.565
20
-137.882
11
137.543
21
-137.841
0
LINE
8
BLACK
6
CONTINUOUS
10
137.543
20
-137.841
11
137.53
21
-137.796
0
LINE
8
BLACK
6
CONTINUOUS
10
137.53
20
-137.796
11
137.525
21
-137.75
0
LINE
8
BLACK
6
CONTINUOUS
10
137.525
20
-137.75
11
137.525
21
-137.25
0
LINE
8
BLACK
6
CONTINUOUS
10
137.525
20
-137.25
11
137.53
21
-137.204
0
LINE
8
BLACK
6
CONTINUOUS
10
137.53
20
-137.204
11
137.543
21
-137.159
0
LINE
8
BLACK
6
CONTINUOUS
10
137.543
20
-137.159
11
137.565
21
-137.118
0
LINE
8
BLACK
6
CONTINUOUS
10
137.565
20
-137.118
11
137.595
21
-137.082
0
LINE
8
BLACK
6
CONTINUOUS
10
137.595
20
-137.082
11
137.631
21
-137.053
0
LINE
8
BLACK
6
CONTINUOUS
10
137.631
20
-137.053
11
137.672
21
-137.031
0
LINE
8
BLACK
6
CONTINUOUS
10
137.672
20
-137.031
11
137.716
21
-137.017
0
LINE
8
BLACK
6
CONTINUOUS
10
137.716
20
-137.017
11
137.762
21
-137.012
0
LINE
8
BLACK
6
CONTINUOUS
10
137.762
20
-137.012
11
138.237
21
-137.012
0
LINE
8
BLACK
6
CONTINUOUS
10
138.237
20
-137.012
11
138.284
21
-137.017
0
LINE
8
BLACK
6
CONTINUOUS
10
139.784
20
-137.017
11
139.828
21
-137.031
0
LINE
8
BLACK
6
CONTINUOUS
10
139.828
20
-137.031
11
139.869
21
-137.053
0
LINE
8
BLACK
6
CONTINUOUS
10
139.869
20
-137.053
11
139.905
21
-137.082
0
LINE
8
BLACK
6
CONTINUOUS
10
139.905
20
-137.082
11
139.935
21
-137.118
0
LINE
8
BLACK
6
CONTINUOUS
10
139.935
20
-137.118
11
139.957
21
-137.159
0
LINE
8
BLACK
6
CONTINUOUS
10
139.957
20
-137.159
11
139.97
21
-137.204
0
LINE
8
BLACK
6
CONTINUOUS
10
139.97
20
-137.204
11
139.975
21
-137.25
0
LINE
8
BLACK
6
CONTINUOUS
10
139.975
20
-137.25
11
139.975
21
-137.75
0
LINE
8
BLACK
6
CONTINUOUS
10
139.975
20
-137.75
11
139.97
21
-137.796
0
LINE
8
BLACK
6
CONTINUOUS
10
139.97
20
-137.796
11
139.957
21
-137.841
0
LINE
8
BLACK
6
CONTINUOUS
10
139.957
20
-137.841
11
139.935
21
-137.882
0
LINE
8
BLACK
6
CONTINUOUS
10
139.935
20
-137.882
11
139.905
21
-137.918
0
LINE
8
BLACK
6
CONTINUOUS
10
139.905
20
-137.918
11
139.869
21
-137.947
0
LINE
8
BLACK
6
CONTINUOUS
10
139.869
20
-137.947
11
139.828
21
-137.969
0
LINE
8
BLACK
6
CONTINUOUS
10
139.828
20
-137.969
11
139.784
21
-137.983
0
LINE
8
BLACK
6
CONTINUOUS
10
139.784
20
-137.983
11
139.737
21
-137.987
0
LINE
8
BLACK
6
CONTINUOUS
10
139.737
20
-137.987
11
139.262
21
-137.987
0
LINE
8
BLACK
6
CONTINUOUS
10
139.262
20
-137.987
11
139.216
21
-137.983
0
LINE
8
BLACK
6
CONTINUOUS
10
139.216
20
-137.983
11
139.172
21
-137.969
0
LINE
8
BLACK
6
CONTINUOUS
10
139.172
20
-137.969
11
139.131
21
-137.947
0
LINE
8
BLACK
6
CONTINUOUS
10
139.131
20
-137.947
11
139.095
21
-137.918
0
LINE
8
BLACK
6
CONTINUOUS
10
139.095
20
-137.918
11
139.065
21
-137.882
0
LINE
8
BLACK
6
CONTINUOUS
10
139.065
20
-137.882
11
139.043
21
-137.841
0
LINE
8
BLACK
6
CONTINUOUS
10
139.043
20
-137.841
11
139.03
21
-137.796
0
LINE
8
BLACK
6
CONTINUOUS
10
139.03
20
-137.796
11
139.025
21
-137.75
0
LINE
8
BLACK
6
CONTINUOUS
10
139.025
20
-137.75
11
139.025
21
-137.25
0
LINE
8
BLACK
6
CONTINUOUS
10
139.025
20
-137.25
11
139.03
21
-137.204
0
LINE
8
BLACK
6
CONTINUOUS
10
139.03
20
-137.204
11
139.043
21
-137.159
0
LINE
8
BLACK
6
CONTINUOUS
10
139.043
20
-137.159
11
139.065
21
-137.118
0
LINE
8
BLACK
6
CONTINUOUS
10
139.065
20
-137.118
11
139.095
21
-137.082
0
LINE
8
BLACK
6
CONTINUOUS
10
139.095
20
-137.082
11
139.131
21
-137.053
0
LINE
8
BLACK
6
CONTINUOUS
10
139.131
20
-137.053
11
139.172
21
-137.031
0
LINE
8
BLACK
6
CONTINUOUS
10
139.172
20
-137.031
11
139.216
21
-137.017
0
LINE
8
BLACK
6
CONTINUOUS
10
139.216
20
-137.017
11
139.262
21
-137.012
0
LINE
8
BLACK
6
CONTINUOUS
10
139.262
20
-137.012
11
139.737
21
-137.012
0
LINE
8
BLACK
6
CONTINUOUS
10
139.737
20
-137.012
11
139.784
21
-137.017
0
LINE
8
BLACK
6
CONTINUOUS
10
141.284
20
-136.917
11
141.328
21
-136.931
0
LINE
8
BLACK
6
CONTINUOUS
10
141.328
20
-136.931
11
141.369
21
-136.953
0
LINE
8
BLACK
6
CONTINUOUS
10
141.369
20
-136.953
11
141.405
21
-136.982
0
LINE
8
BLACK
6
CONTINUOUS
10
141.405
20
-136.982
11
141.435
21
-137.018
0
LINE
8
BLACK
6
CONTINUOUS
10
141.435
20
-137.018
11
141.457
21
-137.059
0
LINE
8
BLACK
6
CONTINUOUS
10
141.457
20
-137.059
11
141.47
21
-137.104
0
LINE
8
BLACK
6
CONTINUOUS
10
141.47
20
-137.104
11
141.475
21
-137.15
0
LINE
8
BLACK
6
CONTINUOUS
10
141.475
20
-137.15
11
141.475
21
-137.65
0
LINE
8
BLACK
6
CONTINUOUS
10
141.475
20
-137.65
11
141.47
21
-137.696
0
LINE
8
BLACK
6
CONTINUOUS
10
141.47
20
-137.696
11
141.457
21
-137.741
0
LINE
8
BLACK
6
CONTINUOUS
10
141.457
20
-137.741
11
141.435
21
-137.782
0
LINE
8
BLACK
6
CONTINUOUS
10
141.435
20
-137.782
11
141.405
21
-137.818
0
LINE
8
BLACK
6
CONTINUOUS
10
141.405
20
-137.818
11
141.369
21
-137.847
0
LINE
8
BLACK
6
CONTINUOUS
10
141.369
20
-137.847
11
141.328
21
-137.869
0
LINE
8
BLACK
6
CONTINUOUS
10
141.328
20
-137.869
11
141.284
21
-137.883
0
LINE
8
BLACK
6
CONTINUOUS
10
141.284
20
-137.883
11
141.237
21
-137.887
0
LINE
8
BLACK
6
CONTINUOUS
10
141.237
20
-137.887
11
140.762
21
-137.887
0
LINE
8
BLACK
6
CONTINUOUS
10
140.762
20
-137.887
11
140.716
21
-137.883
0
LINE
8
BLACK
6
CONTINUOUS
10
140.716
20
-137.883
11
140.672
21
-137.869
0
LINE
8
BLACK
6
CONTINUOUS
10
140.672
20
-137.869
11
140.631
21
-137.847
0
LINE
8
BLACK
6
CONTINUOUS
10
140.631
20
-137.847
11
140.595
21
-137.818
0
LINE
8
BLACK
6
CONTINUOUS
10
140.595
20
-137.818
11
140.565
21
-137.782
0
LINE
8
BLACK
6
CONTINUOUS
10
140.565
20
-137.782
11
140.543
21
-137.741
0
LINE
8
BLACK
6
CONTINUOUS
10
140.543
20
-137.741
11
140.53
21
-137.696
0
LINE
8
BLACK
6
CONTINUOUS
10
140.53
20
-137.696
11
140.525
21
-137.65
0
LINE
8
BLACK
6
CONTINUOUS
10
140.525
20
-137.65
11
140.525
21
-137.15
0
LINE
8
BLACK
6
CONTINUOUS
10
140.525
20
-137.15
11
140.53
21
-137.104
0
LINE
8
BLACK
6
CONTINUOUS
10
140.53
20
-137.104
11
140.543
21
-137.059
0
LINE
8
BLACK
6
CONTINUOUS
10
140.543
20
-137.059
11
140.565
21
-137.018
0
LINE
8
BLACK
6
CONTINUOUS
10
140.565
20
-137.018
11
140.595
21
-136.982
0
LINE
8
BLACK
6
CONTINUOUS
10
140.595
20
-136.982
11
140.631
21
-136.953
0
LINE
8
BLACK
6
CONTINUOUS
10
140.631
20
-136.953
11
140.672
21
-136.931
0
LINE
8
BLACK
6
CONTINUOUS
10
140.672
20
-136.931
11
140.716
21
-136.917
0
LINE
8
BLACK
6
CONTINUOUS
10
140.716
20
-136.917
11
140.762
21
-136.912
0
LINE
8
BLACK
6
CONTINUOUS
10
140.762
20
-136.912
11
141.237
21
-136.912
0
LINE
8
BLACK
6
CONTINUOUS
10
141.237
20
-136.912
11
141.284
21
-136.917
0
LINE
8
BLACK
6
CONTINUOUS
10
142.784
20
-136.617
11
142.828
21
-136.631
0
LINE
8
BLACK
6
CONTINUOUS
10
142.828
20
-136.631
11
142.869
21
-136.653
0
LINE
8
BLACK
6
CONTINUOUS
10
142.869
20
-136.653
11
142.905
21
-136.682
0
LINE
8
BLACK
6
CONTINUOUS
10
142.905
20
-136.682
11
142.935
21
-136.718
0
LINE
8
BLACK
6
CONTINUOUS
10
142.935
20
-136.718
11
142.957
21
-136.759
0
LINE
8
BLACK
6
CONTINUOUS
10
142.957
20
-136.759
11
142.97
21
-136.804
0
LINE
8
BLACK
6
CONTINUOUS
10
142.97
20
-136.804
11
142.975
21
-136.85
0
LINE
8
BLACK
6
CONTINUOUS
10
142.975
20
-136.85
11
142.975
21
-137.35
0
LINE
8
BLACK
6
CONTINUOUS
10
142.975
20
-137.35
11
142.97
21
-137.396
0
LINE
8
BLACK
6
CONTINUOUS
10
142.97
20
-137.396
11
142.957
21
-137.441
0
LINE
8
BLACK
6
CONTINUOUS
10
142.957
20
-137.441
11
142.935
21
-137.482
0
LINE
8
BLACK
6
CONTINUOUS
10
142.935
20
-137.482
11
142.905
21
-137.518
0
LINE
8
BLACK
6
CONTINUOUS
10
142.905
20
-137.518
11
142.869
21
-137.547
0
LINE
8
BLACK
6
CONTINUOUS
10
142.869
20
-137.547
11
142.828
21
-137.569
0
LINE
8
BLACK
6
CONTINUOUS
10
142.828
20
-137.569
11
142.784
21
-137.583
0
LINE
8
BLACK
6
CONTINUOUS
10
142.784
20
-137.583
11
142.737
21
-137.588
0
LINE
8
BLACK
6
CONTINUOUS
10
142.737
20
-137.588
11
142.262
21
-137.588
0
LINE
8
BLACK
6
CONTINUOUS
10
142.262
20
-137.588
11
142.216
21
-137.583
0
LINE
8
BLACK
6
CONTINUOUS
10
142.216
20
-137.583
11
142.172
21
-137.569
0
LINE
8
BLACK
6
CONTINUOUS
10
142.172
20
-137.569
11
142.131
21
-137.547
0
LINE
8
BLACK
6
CONTINUOUS
10
142.131
20
-137.547
11
142.095
21
-137.518
0
LINE
8
BLACK
6
CONTINUOUS
10
142.095
20
-137.518
11
142.065
21
-137.482
0
LINE
8
BLACK
6
CONTINUOUS
10
142.065
20
-137.482
11
142.043
21
-137.441
0
LINE
8
BLACK
6
CONTINUOUS
10
142.043
20
-137.441
11
142.03
21
-137.396
0
LINE
8
BLACK
6
CONTINUOUS
10
142.03
20
-137.396
11
142.025
21
-137.35
0
LINE
8
BLACK
6
CONTINUOUS
10
142.025
20
-137.35
11
142.025
21
-136.85
0
LINE
8
BLACK
6
CONTINUOUS
10
142.025
20
-136.85
11
142.03
21
-136.804
0
LINE
8
BLACK
6
CONTINUOUS
10
142.03
20
-136.804
11
142.043
21
-136.759
0
LINE
8
BLACK
6
CONTINUOUS
10
142.043
20
-136.759
11
142.065
21
-136.718
0
LINE
8
BLACK
6
CONTINUOUS
10
142.065
20
-136.718
11
142.095
21
-136.682
0
LINE
8
BLACK
6
CONTINUOUS
10
142.095
20
-136.682
11
142.131
21
-136.653
0
LINE
8
BLACK
6
CONTINUOUS
10
142.131
20
-136.653
11
142.172
21
-136.631
0
LINE
8
BLACK
6
CONTINUOUS
10
142.172
20
-136.631
11
142.216
21
-136.617
0
LINE
8
BLACK
6
CONTINUOUS
10
142.216
20
-136.617
11
142.262
21
-136.612
0
LINE
8
BLACK
6
CONTINUOUS
10
142.262
20
-136.612
11
142.737
21
-136.612
0
LINE
8
BLACK
6
CONTINUOUS
10
142.737
20
-136.612
11
142.784
21
-136.617
0
LINE
8
BLACK
6
CONTINUOUS
10
144.284
20
-136.317
11
144.328
21
-136.331
0
LINE
8
BLACK
6
CONTINUOUS
10
144.328
20
-136.331
11
144.369
21
-136.353
0
LINE
8
BLACK
6
CONTINUOUS
10
144.369
20
-136.353
11
144.405
21
-136.382
0
LINE
8
BLACK
6
CONTINUOUS
10
144.405
20
-136.382
11
144.435
21
-136.418
0
LINE
8
BLACK
6
CONTINUOUS
10
144.435
20
-136.418
11
144.457
21
-136.459
0
LINE
8
BLACK
6
CONTINUOUS
10
144.457
20
-136.459
11
144.47
21
-136.504
0
LINE
8
BLACK
6
CONTINUOUS
10
144.47
20
-136.504
11
144.475
21
-136.55
0
LINE
8
BLACK
6
CONTINUOUS
10
144.475
20
-136.55
11
144.475
21
-137.05
0
LINE
8
BLACK
6
CONTINUOUS
10
144.475
20
-137.05
11
144.47
21
-137.096
0
LINE
8
BLACK
6
CONTINUOUS
10
144.47
20
-137.096
11
144.457
21
-137.141
0
LINE
8
BLACK
6
CONTINUOUS
10
144.457
20
-137.141
11
144.435
21
-137.182
0
LINE
8
BLACK
6
CONTINUOUS
10
144.435
20
-137.182
11
144.405
21
-137.218
0
LINE
8
BLACK
6
CONTINUOUS
10
144.405
20
-137.218
11
144.369
21
-137.247
0
LINE
8
BLACK
6
CONTINUOUS
10
144.369
20
-137.247
11
144.328
21
-137.269
0
LINE
8
BLACK
6
CONTINUOUS
10
144.328
20
-137.269
11
144.284
21
-137.283
0
LINE
8
BLACK
6
CONTINUOUS
10
144.284
20
-137.283
11
144.237
21
-137.287
0
LINE
8
BLACK
6
CONTINUOUS
10
144.237
20
-137.287
11
143.762
21
-137.287
0
LINE
8
BLACK
6
CONTINUOUS
10
143.762
20
-137.287
11
143.716
21
-137.283
0
LINE
8
BLACK
6
CONTINUOUS
10
143.716
20
-137.283
11
143.672
21
-137.269
0
LINE
8
BLACK
6
CONTINUOUS
10
143.672
20
-137.269
11
143.631
21
-137.247
0
LINE
8
BLACK
6
CONTINUOUS
10
143.631
20
-137.247
11
143.595
21
-137.218
0
LINE
8
BLACK
6
CONTINUOUS
10
143.595
20
-137.218
11
143.565
21
-137.182
0
LINE
8
BLACK
6
CONTINUOUS
10
143.565
20
-137.182
11
143.543
21
-137.141
0
LINE
8
BLACK
6
CONTINUOUS
10
143.543
20
-137.141
11
143.53
21
-137.096
0
LINE
8
BLACK
6
CONTINUOUS
10
143.53
20
-137.096
11
143.525
21
-137.05
0
LINE
8
BLACK
6
CONTINUOUS
10
143.525
20
-137.05
11
143.525
21
-136.55
0
LINE
8
BLACK
6
CONTINUOUS
10
143.525
20
-136.55
11
143.53
21
-136.504
0
LINE
8
BLACK
6
CONTINUOUS
10
143.53
20
-136.504
11
143.543
21
-136.459
0
LINE
8
BLACK
6
CONTINUOUS
10
143.543
20
-136.459
11
143.565
21
-136.418
0
LINE
8
BLACK
6
CONTINUOUS
10
143.565
20
-136.418
11
143.595
21
-136.382
0
LINE
8
BLACK
6
CONTINUOUS
10
143.595
20
-136.382
11
143.631
21
-136.353
0
LINE
8
BLACK
6
CONTINUOUS
10
143.631
20
-136.353
11
143.672
21
-136.331
0
LINE
8
BLACK
6
CONTINUOUS
10
143.672
20
-136.331
11
143.716
21
-136.317
0
LINE
8
BLACK
6
CONTINUOUS
10
143.716
20
-136.317
11
143.762
21
-136.312
0
LINE
8
BLACK
6
CONTINUOUS
10
143.762
20
-136.312
11
144.237
21
-136.312
0
LINE
8
BLACK
6
CONTINUOUS
10
144.237
20
-136.312
11
144.284
21
-136.317
0
LINE
8
BLACK
6
CONTINUOUS
10
145.784
20
-135.917
11
145.828
21
-135.931
0
LINE
8
BLACK
6
CONTINUOUS
10
145.828
20
-135.931
11
145.869
21
-135.953
0
LINE
8
BLACK
6
CONTINUOUS
10
145.869
20
-135.953
11
145.905
21
-135.982
0
LINE
8
BLACK
6
CONTINUOUS
10
145.905
20
-135.982
11
145.935
21
-136.018
0
LINE
8
BLACK
6
CONTINUOUS
10
145.935
20
-136.018
11
145.957
21
-136.059
0
LINE
8
BLACK
6
CONTINUOUS
10
145.957
20
-136.059
11
145.97
21
-136.104
0
LINE
8
BLACK
6
CONTINUOUS
10
145.97
20
-136.104
11
145.975
21
-136.15
0
LINE
8
BLACK
6
CONTINUOUS
10
145.975
20
-136.15
11
145.975
21
-136.65
0
LINE
8
BLACK
6
CONTINUOUS
10
145.975
20
-136.65
11
145.97
21
-136.696
0
LINE
8
BLACK
6
CONTINUOUS
10
145.97
20
-136.696
11
145.957
21
-136.741
0
LINE
8
BLACK
6
CONTINUOUS
10
145.957
20
-136.741
11
145.935
21
-136.782
0
LINE
8
BLACK
6
CONTINUOUS
10
145.935
20
-136.782
11
145.905
21
-136.818
0
LINE
8
BLACK
6
CONTINUOUS
10
145.905
20
-136.818
11
145.869
21
-136.847
0
LINE
8
BLACK
6
CONTINUOUS
10
145.869
20
-136.847
11
145.828
21
-136.869
0
LINE
8
BLACK
6
CONTINUOUS
10
145.828
20
-136.869
11
145.784
21
-136.883
0
LINE
8
BLACK
6
CONTINUOUS
10
145.784
20
-136.883
11
145.737
21
-136.887
0
LINE
8
BLACK
6
CONTINUOUS
10
145.737
20
-136.887
11
145.262
21
-136.887
0
LINE
8
BLACK
6
CONTINUOUS
10
145.262
20
-136.887
11
145.216
21
-136.883
0
LINE
8
BLACK
6
CONTINUOUS
10
145.216
20
-136.883
11
145.172
21
-136.869
0
LINE
8
BLACK
6
CONTINUOUS
10
145.172
20
-136.869
11
145.131
21
-136.847
0
LINE
8
BLACK
6
CONTINUOUS
10
145.131
20
-136.847
11
145.095
21
-136.818
0
LINE
8
BLACK
6
CONTINUOUS
10
145.095
20
-136.818
11
145.065
21
-136.782
0
LINE
8
BLACK
6
CONTINUOUS
10
145.065
20
-136.782
11
145.043
21
-136.741
0
LINE
8
BLACK
6
CONTINUOUS
10
145.043
20
-136.741
11
145.03
21
-136.696
0
LINE
8
BLACK
6
CONTINUOUS
10
145.03
20
-136.696
11
145.025
21
-136.65
0
LINE
8
BLACK
6
CONTINUOUS
10
145.025
20
-136.65
11
145.025
21
-136.15
0
LINE
8
BLACK
6
CONTINUOUS
10
145.025
20
-136.15
11
145.03
21
-136.104
0
LINE
8
BLACK
6
CONTINUOUS
10
145.03
20
-136.104
11
145.043
21
-136.059
0
LINE
8
BLACK
6
CONTINUOUS
10
145.043
20
-136.059
11
145.065
21
-136.018
0
LINE
8
BLACK
6
CONTINUOUS
10
145.065
20
-136.018
11
145.095
21
-135.982
0
LINE
8
BLACK
6
CONTINUOUS
10
145.095
20
-135.982
11
145.131
21
-135.953
0
LINE
8
BLACK
6
CONTINUOUS
10
145.131
20
-135.953
11
145.172
21
-135.931
0
LINE
8
BLACK
6
CONTINUOUS
10
145.172
20
-135.931
11
145.216
21
-135.917
0
LINE
8
BLACK
6
CONTINUOUS
10
145.216
20
-135.917
11
145.262
21
-135.912
0
LINE
8
BLACK
6
CONTINUOUS
10
145.262
20
-135.912
11
145.737
21
-135.912
0
LINE
8
BLACK
6
CONTINUOUS
10
145.737
20
-135.912
11
145.784
21
-135.917
0
LINE
8
BLACK
6
CONTINUOUS
10
147.284
20
-135.317
11
147.328
21
-135.331
0
LINE
8
BLACK
6
CONTINUOUS
10
147.328
20
-135.331
11
147.369
21
-135.353
0
LINE
8
BLACK
6
CONTINUOUS
10
147.369
20
-135.353
11
147.405
21
-135.382
0
LINE
8
BLACK
6
CONTINUOUS
10
147.405
20
-135.382
11
147.435
21
-135.418
0
LINE
8
BLACK
6
CONTINUOUS
10
147.435
20
-135.418
11
147.457
21
-135.459
0
LINE
8
BLACK
6
CONTINUOUS
10
147.457
20
-135.459
11
147.47
21
-135.504
0
LINE
8
BLACK
6
CONTINUOUS
10
147.47
20
-135.504
11
147.475
21
-135.55
0
LINE
8
BLACK
6
CONTINUOUS
10
147.475
20
-135.55
11
147.475
21
-136.05
0
LINE
8
BLACK
6
CONTINUOUS
10
147.475
20
-136.05
11
147.47
21
-136.096
0
LINE
8
BLACK
6
CONTINUOUS
10
147.47
20
-136.096
11
147.457
21
-136.141
0
LINE
8
BLACK
6
CONTINUOUS
10
147.457
20
-136.141
11
147.435
21
-136.182
0
LINE
8
BLACK
6
CONTINUOUS
10
147.435
20
-136.182
11
147.405
21
-136.218
0
LINE
8
BLACK
6
CONTINUOUS
10
147.405
20
-136.218
11
147.369
21
-136.247
0
LINE
8
BLACK
6
CONTINUOUS
10
147.369
20
-136.247
11
147.328
21
-136.269
0
LINE
8
BLACK
6
CONTINUOUS
10
147.328
20
-136.269
11
147.284
21
-136.283
0
LINE
8
BLACK
6
CONTINUOUS
10
147.284
20
-136.283
11
147.237
21
-136.287
0
LINE
8
BLACK
6
CONTINUOUS
10
147.237
20
-136.287
11
146.762
21
-136.287
0
LINE
8
BLACK
6
CONTINUOUS
10
146.762
20
-136.287
11
146.716
21
-136.283
0
LINE
8
BLACK
6
CONTINUOUS
10
146.716
20
-136.283
11
146.672
21
-136.269
0
LINE
8
BLACK
6
CONTINUOUS
10
146.672
20
-136.269
11
146.631
21
-136.247
0
LINE
8
BLACK
6
CONTINUOUS
10
146.631
20
-136.247
11
146.595
21
-136.218
0
LINE
8
BLACK
6
CONTINUOUS
10
146.595
20
-136.218
11
146.565
21
-136.182
0
LINE
8
BLACK
6
CONTINUOUS
10
146.565
20
-136.182
11
146.543
21
-136.141
0
LINE
8
BLACK
6
CONTINUOUS
10
146.543
20
-136.141
11
146.53
21
-136.096
0
LINE
8
BLACK
6
CONTINUOUS
10
146.53
20
-136.096
11
146.525
21
-136.05
0
LINE
8
BLACK
6
CONTINUOUS
10
146.525
20
-136.05
11
146.525
21
-135.55
0
LINE
8
BLACK
6
CONTINUOUS
10
146.525
20
-135.55
11
146.53
21
-135.504
0
LINE
8
BLACK
6
CONTINUOUS
10
146.53
20
-135.504
11
146.543
21
-135.459
0
LINE
8
BLACK
6
CONTINUOUS
10
146.543
20
-135.459
11
146.565
21
-135.418
0
LINE
8
BLACK
6
CONTINUOUS
10
146.565
20
-135.418
11
146.595
21
-135.382
0
LINE
8
BLACK
6
CONTINUOUS
10
146.595
20
-135.382
11
146.631
21
-135.353
0
LINE
8
BLACK
6
CONTINUOUS
10
146.631
20
-135.353
11
146.672
21
-135.331
0
LINE
8
BLACK
6
CONTINUOUS
10
146.672
20
-135.331
11
146.716
21
-135.317
0
LINE
8
BLACK
6
CONTINUOUS
10
146.716
20
-135.317
11
146.762
21
-135.312
0
LINE
8
BLACK
6
CONTINUOUS
10
146.762
20
-135.312
11
147.237
21
-135.312
0
LINE
8
BLACK
6
CONTINUOUS
10
147.237
20
-135.312
11
147.284
21
-135.317
0
LINE
8
BLACK
6
CONTINUOUS
10
138.284
20
-135.192
11
138.328
21
-135.206
0
LINE
8
BLACK
6
CONTINUOUS
10
138.328
20
-135.206
11
138.369
21
-135.228
0
LINE
8
BLACK
6
CONTINUOUS
10
138.369
20
-135.228
11
138.405
21
-135.257
0
LINE
8
BLACK
6
CONTINUOUS
10
138.405
20
-135.257
11
138.435
21
-135.293
0
LINE
8
BLACK
6
CONTINUOUS
10
138.435
20
-135.293
11
138.457
21
-135.334
0
LINE
8
BLACK
6
CONTINUOUS
10
138.457
20
-135.334
11
138.47
21
-135.379
0
LINE
8
BLACK
6
CONTINUOUS
10
138.47
20
-135.379
11
138.475
21
-135.425
0
LINE
8
BLACK
6
CONTINUOUS
10
138.475
20
-135.425
11
138.475
21
-135.925
0
LINE
8
BLACK
6
CONTINUOUS
10
138.475
20
-135.925
11
138.47
21
-135.971
0
LINE
8
BLACK
6
CONTINUOUS
10
138.47
20
-135.971
11
138.457
21
-136.016
0
LINE
8
BLACK
6
CONTINUOUS
10
138.457
20
-136.016
11
138.435
21
-136.057
0
LINE
8
BLACK
6
CONTINUOUS
10
138.435
20
-136.057
11
138.405
21
-136.093
0
LINE
8
BLACK
6
CONTINUOUS
10
138.405
20
-136.093
11
138.369
21
-136.122
0
LINE
8
BLACK
6
CONTINUOUS
10
138.369
20
-136.122
11
138.328
21
-136.144
0
LINE
8
BLACK
6
CONTINUOUS
10
138.328
20
-136.144
11
138.284
21
-136.158
0
LINE
8
BLACK
6
CONTINUOUS
10
138.284
20
-136.158
11
138.237
21
-136.162
0
LINE
8
BLACK
6
CONTINUOUS
10
138.237
20
-136.162
11
137.762
21
-136.162
0
LINE
8
BLACK
6
CONTINUOUS
10
137.762
20
-136.162
11
137.716
21
-136.158
0
LINE
8
BLACK
6
CONTINUOUS
10
137.716
20
-136.158
11
137.672
21
-136.144
0
LINE
8
BLACK
6
CONTINUOUS
10
137.672
20
-136.144
11
137.631
21
-136.122
0
LINE
8
BLACK
6
CONTINUOUS
10
137.631
20
-136.122
11
137.595
21
-136.093
0
LINE
8
BLACK
6
CONTINUOUS
10
137.595
20
-136.093
11
137.565
21
-136.057
0
LINE
8
BLACK
6
CONTINUOUS
10
137.565
20
-136.057
11
137.543
21
-136.016
0
LINE
8
BLACK
6
CONTINUOUS
10
137.543
20
-136.016
11
137.53
21
-135.971
0
LINE
8
BLACK
6
CONTINUOUS
10
137.53
20
-135.971
11
137.525
21
-135.925
0
LINE
8
BLACK
6
CONTINUOUS
10
137.525
20
-135.925
11
137.525
21
-135.425
0
LINE
8
BLACK
6
CONTINUOUS
10
137.525
20
-135.425
11
137.53
21
-135.379
0
LINE
8
BLACK
6
CONTINUOUS
10
137.53
20
-135.379
11
137.543
21
-135.334
0
LINE
8
BLACK
6
CONTINUOUS
10
137.543
20
-135.334
11
137.565
21
-135.293
0
LINE
8
BLACK
6
CONTINUOUS
10
137.565
20
-135.293
11
137.595
21
-135.257
0
LINE
8
BLACK
6
CONTINUOUS
10
137.595
20
-135.257
11
137.631
21
-135.228
0
LINE
8
BLACK
6
CONTINUOUS
10
137.631
20
-135.228
11
137.672
21
-135.206
0
LINE
8
BLACK
6
CONTINUOUS
10
137.672
20
-135.206
11
137.716
21
-135.192
0
LINE
8
BLACK
6
CONTINUOUS
10
137.716
20
-135.192
11
137.762
21
-135.188
0
LINE
8
BLACK
6
CONTINUOUS
10
137.762
20
-135.188
11
138.237
21
-135.188
0
LINE
8
BLACK
6
CONTINUOUS
10
138.237
20
-135.188
11
138.284
21
-135.192
0
LINE
8
BLACK
6
CONTINUOUS
10
139.784
20
-135.192
11
139.828
21
-135.206
0
LINE
8
BLACK
6
CONTINUOUS
10
139.828
20
-135.206
11
139.869
21
-135.228
0
LINE
8
BLACK
6
CONTINUOUS
10
139.869
20
-135.228
11
139.905
21
-135.257
0
LINE
8
BLACK
6
CONTINUOUS
10
139.905
20
-135.257
11
139.935
21
-135.293
0
LINE
8
BLACK
6
CONTINUOUS
10
139.935
20
-135.293
11
139.957
21
-135.334
0
LINE
8
BLACK
6
CONTINUOUS
10
139.957
20
-135.334
11
139.97
21
-135.379
0
LINE
8
BLACK
6
CONTINUOUS
10
139.97
20
-135.379
11
139.975
21
-135.425
0
LINE
8
BLACK
6
CONTINUOUS
10
139.975
20
-135.425
11
139.975
21
-135.925
0
LINE
8
BLACK
6
CONTINUOUS
10
139.975
20
-135.925
11
139.97
21
-135.971
0
LINE
8
BLACK
6
CONTINUOUS
10
139.97
20
-135.971
11
139.957
21
-136.016
0
LINE
8
BLACK
6
CONTINUOUS
10
139.957
20
-136.016
11
139.935
21
-136.057
0
LINE
8
BLACK
6
CONTINUOUS
10
139.935
20
-136.057
11
139.905
21
-136.093
0
LINE
8
BLACK
6
CONTINUOUS
10
139.905
20
-136.093
11
139.869
21
-136.122
0
LINE
8
BLACK
6
CONTINUOUS
10
139.869
20
-136.122
11
139.828
21
-136.144
0
LINE
8
BLACK
6
CONTINUOUS
10
139.828
20
-136.144
11
139.784
21
-136.158
0
LINE
8
BLACK
6
CONTINUOUS
10
139.784
20
-136.158
11
139.737
21
-136.162
0
LINE
8
BLACK
6
CONTINUOUS
10
139.737
20
-136.162
11
139.262
21
-136.162
0
LINE
8
BLACK
6
CONTINUOUS
10
139.262
20
-136.162
11
139.216
21
-136.158
0
LINE
8
BLACK
6
CONTINUOUS
10
139.216
20
-136.158
11
139.172
21
-136.144
0
LINE
8
BLACK
6
CONTINUOUS
10
139.172
20
-136.144
11
139.131
21
-136.122
0
LINE
8
BLACK
6
CONTINUOUS
10
139.131
20
-136.122
11
139.095
21
-136.093
0
LINE
8
BLACK
6
CONTINUOUS
10
139.095
20
-136.093
11
139.065
21
-136.057
0
LINE
8
BLACK
6
CONTINUOUS
10
139.065
20
-136.057
11
139.043
21
-136.016
0
LINE
8
BLACK
6
CONTINUOUS
10
139.043
20
-136.016
11
139.03
21
-135.971
0
LINE
8
BLACK
6
CONTINUOUS
10
139.03
20
-135.971
11
139.025
21
-135.925
0
LINE
8
BLACK
6
CONTINUOUS
10
139.025
20
-135.925
11
139.025
21
-135.425
0
LINE
8
BLACK
6
CONTINUOUS
10
139.025
20
-135.425
11
139.03
21
-135.379
0
LINE
8
BLACK
6
CONTINUOUS
10
139.03
20
-135.379
11
139.043
21
-135.334
0
LINE
8
BLACK
6
CONTINUOUS
10
139.043
20
-135.334
11
139.065
21
-135.293
0
LINE
8
BLACK
6
CONTINUOUS
10
139.065
20
-135.293
11
139.095
21
-135.257
0
LINE
8
BLACK
6
CONTINUOUS
10
139.095
20
-135.257
11
139.131
21
-135.228
0
LINE
8
BLACK
6
CONTINUOUS
10
139.131
20
-135.228
11
139.172
21
-135.206
0
LINE
8
BLACK
6
CONTINUOUS
10
139.172
20
-135.206
11
139.216
21
-135.192
0
LINE
8
BLACK
6
CONTINUOUS
10
139.216
20
-135.192
11
139.262
21
-135.188
0
LINE
8
BLACK
6
CONTINUOUS
10
139.262
20
-135.188
11
139.737
21
-135.188
0
LINE
8
BLACK
6
CONTINUOUS
10
139.737
20
-135.188
11
139.784
21
-135.192
0
LINE
8
BLACK
6
CONTINUOUS
10
141.284
20
-135.092
11
141.328
21
-135.106
0
LINE
8
BLACK
6
CONTINUOUS
10
141.328
20
-135.106
11
141.369
21
-135.128
0
LINE
8
BLACK
6
CONTINUOUS
10
141.369
20
-135.128
11
141.405
21
-135.157
0
LINE
8
BLACK
6
CONTINUOUS
10
141.405
20
-135.157
11
141.435
21
-135.193
0
LINE
8
BLACK
6
CONTINUOUS
10
141.435
20
-135.193
11
141.457
21
-135.234
0
LINE
8
BLACK
6
CONTINUOUS
10
141.457
20
-135.234
11
141.47
21
-135.279
0
LINE
8
BLACK
6
CONTINUOUS
10
141.47
20
-135.279
11
141.475
21
-135.325
0
LINE
8
BLACK
6
CONTINUOUS
10
141.475
20
-135.325
11
141.475
21
-135.825
0
LINE
8
BLACK
6
CONTINUOUS
10
141.475
20
-135.825
11
141.47
21
-135.871
0
LINE
8
BLACK
6
CONTINUOUS
10
141.47
20
-135.871
11
141.457
21
-135.916
0
LINE
8
BLACK
6
CONTINUOUS
10
141.457
20
-135.916
11
141.435
21
-135.957
0
LINE
8
BLACK
6
CONTINUOUS
10
141.435
20
-135.957
11
141.405
21
-135.993
0
LINE
8
BLACK
6
CONTINUOUS
10
141.405
20
-135.993
11
141.369
21
-136.022
0
LINE
8
BLACK
6
CONTINUOUS
10
141.369
20
-136.022
11
141.328
21
-136.044
0
LINE
8
BLACK
6
CONTINUOUS
10
141.328
20
-136.044
11
141.284
21
-136.058
0
LINE
8
BLACK
6
CONTINUOUS
10
141.284
20
-136.058
11
141.237
21
-136.062
0
LINE
8
BLACK
6
CONTINUOUS
10
141.237
20
-136.062
11
140.762
21
-136.062
0
LINE
8
BLACK
6
CONTINUOUS
10
140.762
20
-136.062
11
140.716
21
-136.058
0
LINE
8
BLACK
6
CONTINUOUS
10
140.716
20
-136.058
11
140.672
21
-136.044
0
LINE
8
BLACK
6
CONTINUOUS
10
140.672
20
-136.044
11
140.631
21
-136.022
0
LINE
8
BLACK
6
CONTINUOUS
10
140.631
20
-136.022
11
140.595
21
-135.993
0
LINE
8
BLACK
6
CONTINUOUS
10
140.595
20
-135.993
11
140.565
21
-135.957
0
LINE
8
BLACK
6
CONTINUOUS
10
140.565
20
-135.957
11
140.543
21
-135.916
0
LINE
8
BLACK
6
CONTINUOUS
10
140.543
20
-135.916
11
140.53
21
-135.871
0
LINE
8
BLACK
6
CONTINUOUS
10
140.53
20
-135.871
11
140.525
21
-135.825
0
LINE
8
BLACK
6
CONTINUOUS
10
140.525
20
-135.825
11
140.525
21
-135.325
0
LINE
8
BLACK
6
CONTINUOUS
10
140.525
20
-135.325
11
140.53
21
-135.279
0
LINE
8
BLACK
6
CONTINUOUS
10
140.53
20
-135.279
11
140.543
21
-135.234
0
LINE
8
BLACK
6
CONTINUOUS
10
140.543
20
-135.234
11
140.565
21
-135.193
0
LINE
8
BLACK
6
CONTINUOUS
10
140.565
20
-135.193
11
140.595
21
-135.157
0
LINE
8
BLACK
6
CONTINUOUS
10
140.595
20
-135.157
11
140.631
21
-135.128
0
LINE
8
BLACK
6
CONTINUOUS
10
140.631
20
-135.128
11
140.672
21
-135.106
0
LINE
8
BLACK
6
CONTINUOUS
10
140.672
20
-135.106
11
140.716
21
-135.092
0
LINE
8
BLACK
6
CONTINUOUS
10
140.716
20
-135.092
11
140.762
21
-135.088
0
LINE
8
BLACK
6
CONTINUOUS
10
140.762
20
-135.088
11
141.237
21
-135.088
0
LINE
8
BLACK
6
CONTINUOUS
10
141.237
20
-135.088
11
141.284
21
-135.092
0
LINE
8
BLACK
6
CONTINUOUS
10
142.784
20
-134.792
11
142.828
21
-134.806
0
LINE
8
BLACK
6
CONTINUOUS
10
142.828
20
-134.806
11
142.869
21
-134.828
0
LINE
8
BLACK
6
CONTINUOUS
10
142.869
20
-134.828
11
142.905
21
-134.857
0
LINE
8
BLACK
6
CONTINUOUS
10
142.905
20
-134.857
11
142.935
21
-134.893
0
LINE
8
BLACK
6
CONTINUOUS
10
142.935
20
-134.893
11
142.957
21
-134.934
0
LINE
8
BLACK
6
CONTINUOUS
10
142.957
20
-134.934
11
142.97
21
-134.979
0
LINE
8
BLACK
6
CONTINUOUS
10
142.97
20
-134.979
11
142.975
21
-135.025
0
LINE
8
BLACK
6
CONTINUOUS
10
142.975
20
-135.025
11
142.975
21
-135.525
0
LINE
8
BLACK
6
CONTINUOUS
10
142.975
20
-135.525
11
142.97
21
-135.571
0
LINE
8
BLACK
6
CONTINUOUS
10
142.97
20
-135.571
11
142.957
21
-135.616
0
LINE
8
BLACK
6
CONTINUOUS
10
142.957
20
-135.616
11
142.935
21
-135.657
0
LINE
8
BLACK
6
CONTINUOUS
10
142.935
20
-135.657
11
142.905
21
-135.693
0
LINE
8
BLACK
6
CONTINUOUS
10
142.905
20
-135.693
11
142.869
21
-135.722
0
LINE
8
BLACK
6
CONTINUOUS
10
142.869
20
-135.722
11
142.828
21
-135.744
0
LINE
8
BLACK
6
CONTINUOUS
10
142.828
20
-135.744
11
142.784
21
-135.758
0
LINE
8
BLACK
6
CONTINUOUS
10
142.784
20
-135.758
11
142.737
21
-135.762
0
LINE
8
BLACK
6
CONTINUOUS
10
142.737
20
-135.762
11
142.262
21
-135.762
0
LINE
8
BLACK
6
CONTINUOUS
10
142.262
20
-135.762
11
142.216
21
-135.758
0
LINE
8
BLACK
6
CONTINUOUS
10
142.216
20
-135.758
11
142.172
21
-135.744
0
LINE
8
BLACK
6
CONTINUOUS
10
142.172
20
-135.744
11
142.131
21
-135.722
0
LINE
8
BLACK
6
CONTINUOUS
10
142.131
20
-135.722
11
142.095
21
-135.693
0
LINE
8
BLACK
6
CONTINUOUS
10
142.095
20
-135.693
11
142.065
21
-135.657
0
LINE
8
BLACK
6
CONTINUOUS
10
142.065
20
-135.657
11
142.043
21
-135.616
0
LINE
8
BLACK
6
CONTINUOUS
10
142.043
20
-135.616
11
142.03
21
-135.571
0
LINE
8
BLACK
6
CONTINUOUS
10
142.03
20
-135.571
11
142.025
21
-135.525
0
LINE
8
BLACK
6
CONTINUOUS
10
142.025
20
-135.525
11
142.025
21
-135.025
0
LINE
8
BLACK
6
CONTINUOUS
10
142.025
20
-135.025
11
142.03
21
-134.979
0
LINE
8
BLACK
6
CONTINUOUS
10
142.03
20
-134.979
11
142.043
21
-134.934
0
LINE
8
BLACK
6
CONTINUOUS
10
142.043
20
-134.934
11
142.065
21
-134.893
0
LINE
8
BLACK
6
CONTINUOUS
10
142.065
20
-134.893
11
142.095
21
-134.857
0
LINE
8
BLACK
6
CONTINUOUS
10
142.095
20
-134.857
11
142.131
21
-134.828
0
LINE
8
BLACK
6
CONTINUOUS
10
142.131
20
-134.828
11
142.172
21
-134.806
0
LINE
8
BLACK
6
CONTINUOUS
10
142.172
20
-134.806
11
142.216
21
-134.792
0
LINE
8
BLACK
6
CONTINUOUS
10
142.216
20
-134.792
11
142.262
21
-134.787
0
LINE
8
BLACK
6
CONTINUOUS
10
142.262
20
-134.787
11
142.737
21
-134.787
0
LINE
8
BLACK
6
CONTINUOUS
10
142.737
20
-134.787
11
142.784
21
-134.792
0
LINE
8
BLACK
6
CONTINUOUS
10
148.784
20
-134.617
11
148.828
21
-134.631
0
LINE
8
BLACK
6
CONTINUOUS
10
148.828
20
-134.631
11
148.869
21
-134.653
0
LINE
8
BLACK
6
CONTINUOUS
10
148.869
20
-134.653
11
148.905
21
-134.682
0
LINE
8
BLACK
6
CONTINUOUS
10
148.905
20
-134.682
11
148.935
21
-134.718
0
LINE
8
BLACK
6
CONTINUOUS
10
148.935
20
-134.718
11
148.957
21
-134.759
0
LINE
8
BLACK
6
CONTINUOUS
10
148.957
20
-134.759
11
148.97
21
-134.804
0
LINE
8
BLACK
6
CONTINUOUS
10
148.97
20
-134.804
11
148.975
21
-134.85
0
LINE
8
BLACK
6
CONTINUOUS
10
148.975
20
-134.85
11
148.975
21
-135.35
0
LINE
8
BLACK
6
CONTINUOUS
10
148.975
20
-135.35
11
148.97
21
-135.396
0
LINE
8
BLACK
6
CONTINUOUS
10
148.97
20
-135.396
11
148.957
21
-135.441
0
LINE
8
BLACK
6
CONTINUOUS
10
148.957
20
-135.441
11
148.935
21
-135.482
0
LINE
8
BLACK
6
CONTINUOUS
10
148.935
20
-135.482
11
148.905
21
-135.518
0
LINE
8
BLACK
6
CONTINUOUS
10
148.905
20
-135.518
11
148.869
21
-135.547
0
LINE
8
BLACK
6
CONTINUOUS
10
148.869
20
-135.547
11
148.828
21
-135.569
0
LINE
8
BLACK
6
CONTINUOUS
10
148.828
20
-135.569
11
148.784
21
-135.583
0
LINE
8
BLACK
6
CONTINUOUS
10
148.784
20
-135.583
11
148.737
21
-135.588
0
LINE
8
BLACK
6
CONTINUOUS
10
148.737
20
-135.588
11
148.262
21
-135.588
0
LINE
8
BLACK
6
CONTINUOUS
10
148.262
20
-135.588
11
148.216
21
-135.583
0
LINE
8
BLACK
6
CONTINUOUS
10
148.216
20
-135.583
11
148.172
21
-135.569
0
LINE
8
BLACK
6
CONTINUOUS
10
148.172
20
-135.569
11
148.131
21
-135.547
0
LINE
8
BLACK
6
CONTINUOUS
10
148.131
20
-135.547
11
148.095
21
-135.518
0
LINE
8
BLACK
6
CONTINUOUS
10
148.095
20
-135.518
11
148.065
21
-135.482
0
LINE
8
BLACK
6
CONTINUOUS
10
148.065
20
-135.482
11
148.043
21
-135.441
0
LINE
8
BLACK
6
CONTINUOUS
10
148.043
20
-135.441
11
148.03
21
-135.396
0
LINE
8
BLACK
6
CONTINUOUS
10
148.03
20
-135.396
11
148.025
21
-135.35
0
LINE
8
BLACK
6
CONTINUOUS
10
148.025
20
-135.35
11
148.025
21
-134.85
0
LINE
8
BLACK
6
CONTINUOUS
10
148.025
20
-134.85
11
148.03
21
-134.804
0
LINE
8
BLACK
6
CONTINUOUS
10
148.03
20
-134.804
11
148.043
21
-134.759
0
LINE
8
BLACK
6
CONTINUOUS
10
148.043
20
-134.759
11
148.065
21
-134.718
0
LINE
8
BLACK
6
CONTINUOUS
10
148.065
20
-134.718
11
148.095
21
-134.682
0
LINE
8
BLACK
6
CONTINUOUS
10
148.095
20
-134.682
11
148.131
21
-134.653
0
LINE
8
BLACK
6
CONTINUOUS
10
148.131
20
-134.653
11
148.172
21
-134.631
0
LINE
8
BLACK
6
CONTINUOUS
10
148.172
20
-134.631
11
148.216
21
-134.617
0
LINE
8
BLACK
6
CONTINUOUS
10
148.216
20
-134.617
11
148.262
21
-134.612
0
LINE
8
BLACK
6
CONTINUOUS
10
148.262
20
-134.612
11
148.737
21
-134.612
0
LINE
8
BLACK
6
CONTINUOUS
10
148.737
20
-134.612
11
148.784
21
-134.617
0
LINE
8
BLACK
6
CONTINUOUS
10
144.284
20
-134.492
11
144.328
21
-134.506
0
LINE
8
BLACK
6
CONTINUOUS
10
144.328
20
-134.506
11
144.369
21
-134.528
0
LINE
8
BLACK
6
CONTINUOUS
10
144.369
20
-134.528
11
144.405
21
-134.557
0
LINE
8
BLACK
6
CONTINUOUS
10
144.405
20
-134.557
11
144.435
21
-134.593
0
LINE
8
BLACK
6
CONTINUOUS
10
144.435
20
-134.593
11
144.457
21
-134.634
0
LINE
8
BLACK
6
CONTINUOUS
10
144.457
20
-134.634
11
144.47
21
-134.679
0
LINE
8
BLACK
6
CONTINUOUS
10
144.47
20
-134.679
11
144.475
21
-134.725
0
LINE
8
BLACK
6
CONTINUOUS
10
144.475
20
-134.725
11
144.475
21
-135.225
0
LINE
8
BLACK
6
CONTINUOUS
10
144.475
20
-135.225
11
144.47
21
-135.271
0
LINE
8
BLACK
6
CONTINUOUS
10
144.47
20
-135.271
11
144.457
21
-135.316
0
LINE
8
BLACK
6
CONTINUOUS
10
144.457
20
-135.316
11
144.435
21
-135.357
0
LINE
8
BLACK
6
CONTINUOUS
10
144.435
20
-135.357
11
144.405
21
-135.393
0
LINE
8
BLACK
6
CONTINUOUS
10
144.405
20
-135.393
11
144.369
21
-135.422
0
LINE
8
BLACK
6
CONTINUOUS
10
144.369
20
-135.422
11
144.328
21
-135.444
0
LINE
8
BLACK
6
CONTINUOUS
10
144.328
20
-135.444
11
144.284
21
-135.458
0
LINE
8
BLACK
6
CONTINUOUS
10
144.284
20
-135.458
11
144.237
21
-135.463
0
LINE
8
BLACK
6
CONTINUOUS
10
144.237
20
-135.463
11
143.762
21
-135.463
0
LINE
8
BLACK
6
CONTINUOUS
10
143.762
20
-135.463
11
143.716
21
-135.458
0
LINE
8
BLACK
6
CONTINUOUS
10
143.716
20
-135.458
11
143.672
21
-135.444
0
LINE
8
BLACK
6
CONTINUOUS
10
143.672
20
-135.444
11
143.631
21
-135.422
0
LINE
8
BLACK
6
CONTINUOUS
10
143.631
20
-135.422
11
143.595
21
-135.393
0
LINE
8
BLACK
6
CONTINUOUS
10
143.595
20
-135.393
11
143.565
21
-135.357
0
LINE
8
BLACK
6
CONTINUOUS
10
143.565
20
-135.357
11
143.543
21
-135.316
0
LINE
8
BLACK
6
CONTINUOUS
10
143.543
20
-135.316
11
143.53
21
-135.271
0
LINE
8
BLACK
6
CONTINUOUS
10
143.53
20
-135.271
11
143.525
21
-135.225
0
LINE
8
BLACK
6
CONTINUOUS
10
143.525
20
-135.225
11
143.525
21
-134.725
0
LINE
8
BLACK
6
CONTINUOUS
10
143.525
20
-134.725
11
143.53
21
-134.679
0
LINE
8
BLACK
6
CONTINUOUS
10
143.53
20
-134.679
11
143.543
21
-134.634
0
LINE
8
BLACK
6
CONTINUOUS
10
143.543
20
-134.634
11
143.565
21
-134.593
0
LINE
8
BLACK
6
CONTINUOUS
10
143.565
20
-134.593
11
143.595
21
-134.557
0
LINE
8
BLACK
6
CONTINUOUS
10
143.595
20
-134.557
11
143.631
21
-134.528
0
LINE
8
BLACK
6
CONTINUOUS
10
143.631
20
-134.528
11
143.672
21
-134.506
0
LINE
8
BLACK
6
CONTINUOUS
10
143.672
20
-134.506
11
143.716
21
-134.492
0
LINE
8
BLACK
6
CONTINUOUS
10
143.716
20
-134.492
11
143.762
21
-134.487
0
LINE
8
BLACK
6
CONTINUOUS
10
143.762
20
-134.487
11
144.237
21
-134.487
0
LINE
8
BLACK
6
CONTINUOUS
10
144.237
20
-134.487
11
144.284
21
-134.492
0
LINE
8
BLACK
6
CONTINUOUS
10
145.784
20
-134.092
11
145.828
21
-134.106
0
LINE
8
BLACK
6
CONTINUOUS
10
145.828
20
-134.106
11
145.869
21
-134.128
0
LINE
8
BLACK
6
CONTINUOUS
10
145.869
20
-134.128
11
145.905
21
-134.157
0
LINE
8
BLACK
6
CONTINUOUS
10
145.905
20
-134.157
11
145.935
21
-134.193
0
LINE
8
BLACK
6
CONTINUOUS
10
145.935
20
-134.193
11
145.957
21
-134.234
0
LINE
8
BLACK
6
CONTINUOUS
10
145.957
20
-134.234
11
145.97
21
-134.279
0
LINE
8
BLACK
6
CONTINUOUS
10
145.97
20
-134.279
11
145.975
21
-134.325
0
LINE
8
BLACK
6
CONTINUOUS
10
145.975
20
-134.325
11
145.975
21
-134.825
0
LINE
8
BLACK
6
CONTINUOUS
10
145.975
20
-134.825
11
145.97
21
-134.871
0
LINE
8
BLACK
6
CONTINUOUS
10
145.97
20
-134.871
11
145.957
21
-134.916
0
LINE
8
BLACK
6
CONTINUOUS
10
145.957
20
-134.916
11
145.935
21
-134.957
0
LINE
8
BLACK
6
CONTINUOUS
10
145.935
20
-134.957
11
145.905
21
-134.993
0
LINE
8
BLACK
6
CONTINUOUS
10
145.905
20
-134.993
11
145.869
21
-135.022
0
LINE
8
BLACK
6
CONTINUOUS
10
145.869
20
-135.022
11
145.828
21
-135.044
0
LINE
8
BLACK
6
CONTINUOUS
10
145.828
20
-135.044
11
145.784
21
-135.058
0
LINE
8
BLACK
6
CONTINUOUS
10
145.784
20
-135.058
11
145.737
21
-135.062
0
LINE
8
BLACK
6
CONTINUOUS
10
145.737
20
-135.062
11
145.262
21
-135.062
0
LINE
8
BLACK
6
CONTINUOUS
10
145.262
20
-135.062
11
145.216
21
-135.058
0
LINE
8
BLACK
6
CONTINUOUS
10
145.216
20
-135.058
11
145.172
21
-135.044
0
LINE
8
BLACK
6
CONTINUOUS
10
145.172
20
-135.044
11
145.131
21
-135.022
0
LINE
8
BLACK
6
CONTINUOUS
10
145.131
20
-135.022
11
145.095
21
-134.993
0
LINE
8
BLACK
6
CONTINUOUS
10
145.095
20
-134.993
11
145.065
21
-134.957
0
LINE
8
BLACK
6
CONTINUOUS
10
145.065
20
-134.957
11
145.043
21
-134.916
0
LINE
8
BLACK
6
CONTINUOUS
10
145.043
20
-134.916
11
145.03
21
-134.871
0
LINE
8
BLACK
6
CONTINUOUS
10
145.03
20
-134.871
11
145.025
21
-134.825
0
LINE
8
BLACK
6
CONTINUOUS
10
145.025
20
-134.825
11
145.025
21
-134.325
0
LINE
8
BLACK
6
CONTINUOUS
10
145.025
20
-134.325
11
145.03
21
-134.279
0
LINE
8
BLACK
6
CONTINUOUS
10
145.03
20
-134.279
11
145.043
21
-134.234
0
LINE
8
BLACK
6
CONTINUOUS
10
145.043
20
-134.234
11
145.065
21
-134.193
0
LINE
8
BLACK
6
CONTINUOUS
10
145.065
20
-134.193
11
145.095
21
-134.157
0
LINE
8
BLACK
6
CONTINUOUS
10
145.095
20
-134.157
11
145.131
21
-134.128
0
LINE
8
BLACK
6
CONTINUOUS
10
145.131
20
-134.128
11
145.172
21
-134.106
0
LINE
8
BLACK
6
CONTINUOUS
10
145.172
20
-134.106
11
145.216
21
-134.092
0
LINE
8
BLACK
6
CONTINUOUS
10
145.216
20
-134.092
11
145.262
21
-134.088
0
LINE
8
BLACK
6
CONTINUOUS
10
145.262
20
-134.088
11
145.737
21
-134.088
0
LINE
8
BLACK
6
CONTINUOUS
10
145.737
20
-134.088
11
145.784
21
-134.092
0
LINE
8
BLACK
6
CONTINUOUS
10
147.284
20
-133.492
11
147.328
21
-133.506
0
LINE
8
BLACK
6
CONTINUOUS
10
147.328
20
-133.506
11
147.369
21
-133.528
0
LINE
8
BLACK
6
CONTINUOUS
10
147.369
20
-133.528
11
147.405
21
-133.557
0
LINE
8
BLACK
6
CONTINUOUS
10
147.405
20
-133.557
11
147.435
21
-133.593
0
LINE
8
BLACK
6
CONTINUOUS
10
147.435
20
-133.593
11
147.457
21
-133.634
0
LINE
8
BLACK
6
CONTINUOUS
10
147.457
20
-133.634
11
147.47
21
-133.679
0
LINE
8
BLACK
6
CONTINUOUS
10
147.47
20
-133.679
11
147.475
21
-133.725
0
LINE
8
BLACK
6
CONTINUOUS
10
147.475
20
-133.725
11
147.475
21
-134.225
0
LINE
8
BLACK
6
CONTINUOUS
10
147.475
20
-134.225
11
147.47
21
-134.271
0
LINE
8
BLACK
6
CONTINUOUS
10
147.47
20
-134.271
11
147.457
21
-134.316
0
LINE
8
BLACK
6
CONTINUOUS
10
147.457
20
-134.316
11
147.435
21
-134.357
0
LINE
8
BLACK
6
CONTINUOUS
10
147.435
20
-134.357
11
147.405
21
-134.393
0
LINE
8
BLACK
6
CONTINUOUS
10
147.405
20
-134.393
11
147.369
21
-134.422
0
LINE
8
BLACK
6
CONTINUOUS
10
147.369
20
-134.422
11
147.328
21
-134.444
0
LINE
8
BLACK
6
CONTINUOUS
10
147.328
20
-134.444
11
147.284
21
-134.458
0
LINE
8
BLACK
6
CONTINUOUS
10
147.284
20
-134.458
11
147.237
21
-134.463
0
LINE
8
BLACK
6
CONTINUOUS
10
147.237
20
-134.463
11
146.762
21
-134.463
0
LINE
8
BLACK
6
CONTINUOUS
10
146.762
20
-134.463
11
146.716
21
-134.458
0
LINE
8
BLACK
6
CONTINUOUS
10
146.716
20
-134.458
11
146.672
21
-134.444
0
LINE
8
BLACK
6
CONTINUOUS
10
146.672
20
-134.444
11
146.631
21
-134.422
0
LINE
8
BLACK
6
CONTINUOUS
10
146.631
20
-134.422
11
146.595
21
-134.393
0
LINE
8
BLACK
6
CONTINUOUS
10
146.595
20
-134.393
11
146.565
21
-134.357
0
LINE
8
BLACK
6
CONTINUOUS
10
146.565
20
-134.357
11
146.543
21
-134.316
0
LINE
8
BLACK
6
CONTINUOUS
10
146.543
20
-134.316
11
146.53
21
-134.271
0
LINE
8
BLACK
6
CONTINUOUS
10
146.53
20
-134.271
11
146.525
21
-134.225
0
LINE
8
BLACK
6
CONTINUOUS
10
146.525
20
-134.225
11
146.525
21
-133.725
0
LINE
8
BLACK
6
CONTINUOUS
10
146.525
20
-133.725
11
146.53
21
-133.679
0
LINE
8
BLACK
6
CONTINUOUS
10
146.53
20
-133.679
11
146.543
21
-133.634
0
LINE
8
BLACK
6
CONTINUOUS
10
146.543
20
-133.634
11
146.565
21
-133.593
0
LINE
8
BLACK
6
CONTINUOUS
10
146.565
20
-133.593
11
146.595
21
-133.557
0
LINE
8
BLACK
6
CONTINUOUS
10
146.595
20
-133.557
11
146.631
21
-133.528
0
LINE
8
BLACK
6
CONTINUOUS
10
146.631
20
-133.528
11
146.672
21
-133.506
0
LINE
8
BLACK
6
CONTINUOUS
10
146.672
20
-133.506
11
146.716
21
-133.492
0
LINE
8
BLACK
6
CONTINUOUS
10
146.716
20
-133.492
11
146.762
21
-133.487
0
LINE
8
BLACK
6
CONTINUOUS
10
146.762
20
-133.487
11
147.237
21
-133.487
0
LINE
8
BLACK
6
CONTINUOUS
10
147.237
20
-133.487
11
147.284
21
-133.492
0
LINE
8
BLACK
6
CONTINUOUS
10
148.784
20
-132.792
11
148.828
21
-132.806
0
LINE
8
BLACK
6
CONTINUOUS
10
148.828
20
-132.806
11
148.869
21
-132.828
0
LINE
8
BLACK
6
CONTINUOUS
10
148.869
20
-132.828
11
148.905
21
-132.857
0
LINE
8
BLACK
6
CONTINUOUS
10
148.905
20
-132.857
11
148.935
21
-132.893
0
LINE
8
BLACK
6
CONTINUOUS
10
148.935
20
-132.893
11
148.957
21
-132.934
0
LINE
8
BLACK
6
CONTINUOUS
10
148.957
20
-132.934
11
148.97
21
-132.979
0
LINE
8
BLACK
6
CONTINUOUS
10
148.97
20
-132.979
11
148.975
21
-133.025
0
LINE
8
BLACK
6
CONTINUOUS
10
148.975
20
-133.025
11
148.975
21
-133.525
0
LINE
8
BLACK
6
CONTINUOUS
10
148.975
20
-133.525
11
148.97
21
-133.571
0
LINE
8
BLACK
6
CONTINUOUS
10
148.97
20
-133.571
11
148.957
21
-133.616
0
LINE
8
BLACK
6
CONTINUOUS
10
148.957
20
-133.616
11
148.935
21
-133.657
0
LINE
8
BLACK
6
CONTINUOUS
10
148.935
20
-133.657
11
148.905
21
-133.693
0
LINE
8
BLACK
6
CONTINUOUS
10
148.905
20
-133.693
11
148.869
21
-133.722
0
LINE
8
BLACK
6
CONTINUOUS
10
148.869
20
-133.722
11
148.828
21
-133.744
0
LINE
8
BLACK
6
CONTINUOUS
10
148.828
20
-133.744
11
148.784
21
-133.758
0
LINE
8
BLACK
6
CONTINUOUS
10
148.784
20
-133.758
11
148.737
21
-133.762
0
LINE
8
BLACK
6
CONTINUOUS
10
148.737
20
-133.762
11
148.262
21
-133.762
0
LINE
8
BLACK
6
CONTINUOUS
10
148.262
20
-133.762
11
148.216
21
-133.758
0
LINE
8
BLACK
6
CONTINUOUS
10
148.216
20
-133.758
11
148.172
21
-133.744
0
LINE
8
BLACK
6
CONTINUOUS
10
148.172
20
-133.744
11
148.131
21
-133.722
0
LINE
8
BLACK
6
CONTINUOUS
10
148.131
20
-133.722
11
148.095
21
-133.693
0
LINE
8
BLACK
6
CONTINUOUS
10
148.095
20
-133.693
11
148.065
21
-133.657
0
LINE
8
BLACK
6
CONTINUOUS
10
148.065
20
-133.657
11
148.043
21
-133.616
0
LINE
8
BLACK
6
CONTINUOUS
10
148.043
20
-133.616
11
148.03
21
-133.571
0
LINE
8
BLACK
6
CONTINUOUS
10
148.03
20
-133.571
11
148.025
21
-133.525
0
LINE
8
BLACK
6
CONTINUOUS
10
148.025
20
-133.525
11
148.025
21
-133.025
0
LINE
8
BLACK
6
CONTINUOUS
10
148.025
20
-133.025
11
148.03
21
-132.979
0
LINE
8
BLACK
6
CONTINUOUS
10
148.03
20
-132.979
11
148.043
21
-132.934
0
LINE
8
BLACK
6
CONTINUOUS
10
148.043
20
-132.934
11
148.065
21
-132.893
0
LINE
8
BLACK
6
CONTINUOUS
10
148.065
20
-132.893
11
148.095
21
-132.857
0
LINE
8
BLACK
6
CONTINUOUS
10
148.095
20
-132.857
11
148.131
21
-132.828
0
LINE
8
BLACK
6
CONTINUOUS
10
148.131
20
-132.828
11
148.172
21
-132.806
0
LINE
8
BLACK
6
CONTINUOUS
10
148.172
20
-132.806
11
148.216
21
-132.792
0
LINE
8
BLACK
6
CONTINUOUS
10
148.216
20
-132.792
11
148.262
21
-132.787
0
LINE
8
BLACK
6
CONTINUOUS
10
148.262
20
-132.787
11
148.737
21
-132.787
0
LINE
8
BLACK
6
CONTINUOUS
10
148.737
20
-132.787
11
148.784
21
-132.792
0
LINE
8
BLACK
6
CONTINUOUS
10
143.415
20
-132.65
11
142.675
21
-132.65
0
LINE
8
BLACK
6
CONTINUOUS
10
142.675
20
-132.65
11
142.675
21
-130.25
0
LINE
8
BLACK
6
CONTINUOUS
10
142.675
20
-130.25
11
143.415
21
-130.25
0
LINE
8
BLACK
6
CONTINUOUS
10
143.415
20
-130.25
11
143.415
21
-132.65
0
LINE
8
BLACK
6
CONTINUOUS
10
142.145
20
-132.65
11
141.405
21
-132.65
0
LINE
8
BLACK
6
CONTINUOUS
10
141.405
20
-132.65
11
141.405
21
-130.25
0
LINE
8
BLACK
6
CONTINUOUS
10
141.405
20
-130.25
11
142.145
21
-130.25
0
LINE
8
BLACK
6
CONTINUOUS
10
142.145
20
-130.25
11
142.145
21
-132.65
0
LINE
8
BLACK
6
CONTINUOUS
10
140.875
20
-132.65
11
140.135
21
-132.65
0
LINE
8
BLACK
6
CONTINUOUS
10
140.135
20
-132.65
11
140.135
21
-130.25
0
LINE
8
BLACK
6
CONTINUOUS
10
140.135
20
-130.25
11
140.875
21
-130.25
0
LINE
8
BLACK
6
CONTINUOUS
10
140.875
20
-130.25
11
140.875
21
-132.65
0
LINE
8
BLACK
6
CONTINUOUS
10
139.605
20
-132.65
11
138.865
21
-132.65
0
LINE
8
BLACK
6
CONTINUOUS
10
138.865
20
-132.65
11
138.865
21
-130.25
0
LINE
8
BLACK
6
CONTINUOUS
10
138.865
20
-130.25
11
139.605
21
-130.25
0
LINE
8
BLACK
6
CONTINUOUS
10
139.605
20
-130.25
11
139.605
21
-132.65
0
LINE
8
BLACK
6
CONTINUOUS
10
138.335
20
-132.65
11
137.595
21
-132.65
0
LINE
8
BLACK
6
CONTINUOUS
10
137.595
20
-132.65
11
137.595
21
-130.25
0
LINE
8
BLACK
6
CONTINUOUS
10
137.595
20
-130.25
11
138.335
21
-130.25
0
LINE
8
BLACK
6
CONTINUOUS
10
138.335
20
-130.25
11
138.335
21
-132.65
0
LINE
8
BLACK
6
CONTINUOUS
10
137.065
20
-132.65
11
136.325
21
-132.65
0
LINE
8
BLACK
6
CONTINUOUS
10
136.325
20
-132.65
11
136.325
21
-130.25
0
LINE
8
BLACK
6
CONTINUOUS
10
136.325
20
-130.25
11
137.065
21
-130.25
0
LINE
8
BLACK
6
CONTINUOUS
10
137.065
20
-130.25
11
137.065
21
-132.65
0
LINE
8
BLACK
6
CONTINUOUS
10
135.795
20
-132.65
11
135.055
21
-132.65
0
LINE
8
BLACK
6
CONTINUOUS
10
135.055
20
-132.65
11
135.055
21
-130.25
0
LINE
8
BLACK
6
CONTINUOUS
10
135.055
20
-130.25
11
135.795
21
-130.25
0
LINE
8
BLACK
6
CONTINUOUS
10
135.795
20
-130.25
11
135.795
21
-132.65
0
LINE
8
BLACK
6
CONTINUOUS
10
134.525
20
-132.65
11
133.785
21
-132.65
0
LINE
8
BLACK
6
CONTINUOUS
10
133.785
20
-132.65
11
133.785
21
-130.25
0
LINE
8
BLACK
6
CONTINUOUS
10
133.785
20
-130.25
11
134.525
21
-130.25
0
LINE
8
BLACK
6
CONTINUOUS
10
134.525
20
-130.25
11
134.525
21
-132.65
0
LINE
8
BLACK
6
CONTINUOUS
10
137.065
20
-128.75
11
136.325
21
-128.75
0
LINE
8
BLACK
6
CONTINUOUS
10
136.325
20
-128.75
11
136.325
21
-126.35
0
LINE
8
BLACK
6
CONTINUOUS
10
136.325
20
-126.35
11
137.065
21
-126.35
0
LINE
8
BLACK
6
CONTINUOUS
10
137.065
20
-126.35
11
137.065
21
-128.75
0
LINE
8
BLACK
6
CONTINUOUS
10
138.335
20
-128.75
11
137.595
21
-128.75
0
LINE
8
BLACK
6
CONTINUOUS
10
137.595
20
-128.75
11
137.595
21
-126.35
0
LINE
8
BLACK
6
CONTINUOUS
10
137.595
20
-126.35
11
138.335
21
-126.35
0
LINE
8
BLACK
6
CONTINUOUS
10
138.335
20
-126.35
11
138.335
21
-128.75
0
LINE
8
BLACK
6
CONTINUOUS
10
139.605
20
-128.75
11
138.865
21
-128.75
0
LINE
8
BLACK
6
CONTINUOUS
10
138.865
20
-128.75
11
138.865
21
-126.35
0
LINE
8
BLACK
6
CONTINUOUS
10
138.865
20
-126.35
11
139.605
21
-126.35
0
LINE
8
BLACK
6
CONTINUOUS
10
139.605
20
-126.35
11
139.605
21
-128.75
0
LINE
8
BLACK
6
CONTINUOUS
10
135.795
20
-128.75
11
135.055
21
-128.75
0
LINE
8
BLACK
6
CONTINUOUS
10
135.055
20
-128.75
11
135.055
21
-126.35
0
LINE
8
BLACK
6
CONTINUOUS
10
135.055
20
-126.35
11
135.795
21
-126.35
0
LINE
8
BLACK
6
CONTINUOUS
10
135.795
20
-126.35
11
135.795
21
-128.75
0
LINE
8
BLACK
6
CONTINUOUS
10
140.875
20
-128.75
11
140.135
21
-128.75
0
LINE
8
BLACK
6
CONTINUOUS
10
140.135
20
-128.75
11
140.135
21
-126.35
0
LINE
8
BLACK
6
CONTINUOUS
10
140.135
20
-126.35
11
140.875
21
-126.35
0
LINE
8
BLACK
6
CONTINUOUS
10
140.875
20
-126.35
11
140.875
21
-128.75
0
LINE
8
BLACK
6
CONTINUOUS
10
142.145
20
-128.75
11
141.405
21
-128.75
0
LINE
8
BLACK
6
CONTINUOUS
10
141.405
20
-128.75
11
141.405
21
-126.35
0
LINE
8
BLACK
6
CONTINUOUS
10
141.405
20
-126.35
11
142.145
21
-126.35
0
LINE
8
BLACK
6
CONTINUOUS
10
142.145
20
-126.35
11
142.145
21
-128.75
0
LINE
8
BLACK
6
CONTINUOUS
10
134.525
20
-128.75
11
133.785
21
-128.75
0
LINE
8
BLACK
6
CONTINUOUS
10
133.785
20
-128.75
11
133.785
21
-126.35
0
LINE
8
BLACK
6
CONTINUOUS
10
133.785
20
-126.35
11
134.525
21
-126.35
0
LINE
8
BLACK
6
CONTINUOUS
10
134.525
20
-126.35
11
134.525
21
-128.75
0
LINE
8
BLACK
6
CONTINUOUS
10
143.415
20
-128.75
11
142.675
21
-128.75
0
LINE
8
BLACK
6
CONTINUOUS
10
142.675
20
-128.75
11
142.675
21
-126.35
0
LINE
8
BLACK
6
CONTINUOUS
10
142.675
20
-126.35
11
143.415
21
-126.35
0
LINE
8
BLACK
6
CONTINUOUS
10
143.415
20
-126.35
11
143.415
21
-128.75
0
LINE
8
BLACK
6
CONTINUOUS
10
155.184
20
-119.08
11
155.228
21
-119.093
0
LINE
8
BLACK
6
CONTINUOUS
10
155.228
20
-119.093
11
155.269
21
-119.115
0
LINE
8
BLACK
6
CONTINUOUS
10
155.269
20
-119.115
11
155.305
21
-119.145
0
LINE
8
BLACK
6
CONTINUOUS
10
155.305
20
-119.145
11
155.335
21
-119.181
0
LINE
8
BLACK
6
CONTINUOUS
10
155.335
20
-119.181
11
155.357
21
-119.222
0
LINE
8
BLACK
6
CONTINUOUS
10
155.357
20
-119.222
11
155.37
21
-119.266
0
LINE
8
BLACK
6
CONTINUOUS
10
155.37
20
-119.266
11
155.375
21
-119.312
0
LINE
8
BLACK
6
CONTINUOUS
10
155.375
20
-119.312
11
155.375
21
-119.787
0
LINE
8
BLACK
6
CONTINUOUS
10
155.375
20
-119.787
11
155.37
21
-119.834
0
LINE
8
BLACK
6
CONTINUOUS
10
155.37
20
-119.834
11
155.357
21
-119.878
0
LINE
8
BLACK
6
CONTINUOUS
10
155.357
20
-119.878
11
155.335
21
-119.919
0
LINE
8
BLACK
6
CONTINUOUS
10
155.335
20
-119.919
11
155.305
21
-119.955
0
LINE
8
BLACK
6
CONTINUOUS
10
155.305
20
-119.955
11
155.269
21
-119.985
0
LINE
8
BLACK
6
CONTINUOUS
10
155.269
20
-119.985
11
155.228
21
-120.007
0
LINE
8
BLACK
6
CONTINUOUS
10
155.228
20
-120.007
11
155.184
21
-120.02
0
LINE
8
BLACK
6
CONTINUOUS
10
155.184
20
-120.02
11
155.137
21
-120.025
0
LINE
8
BLACK
6
CONTINUOUS
10
155.137
20
-120.025
11
154.537
21
-120.025
0
LINE
8
BLACK
6
CONTINUOUS
10
154.537
20
-120.025
11
154.491
21
-120.02
0
LINE
8
BLACK
6
CONTINUOUS
10
154.491
20
-120.02
11
154.447
21
-120.007
0
LINE
8
BLACK
6
CONTINUOUS
10
154.447
20
-120.007
11
154.406
21
-119.985
0
LINE
8
BLACK
6
CONTINUOUS
10
154.406
20
-119.985
11
154.37
21
-119.955
0
LINE
8
BLACK
6
CONTINUOUS
10
154.37
20
-119.955
11
154.34
21
-119.919
0
LINE
8
BLACK
6
CONTINUOUS
10
154.34
20
-119.919
11
154.318
21
-119.878
0
LINE
8
BLACK
6
CONTINUOUS
10
154.318
20
-119.878
11
154.305
21
-119.834
0
LINE
8
BLACK
6
CONTINUOUS
10
154.305
20
-119.834
11
154.3
21
-119.787
0
LINE
8
BLACK
6
CONTINUOUS
10
154.3
20
-119.787
11
154.3
21
-119.312
0
LINE
8
BLACK
6
CONTINUOUS
10
154.3
20
-119.312
11
154.305
21
-119.266
0
LINE
8
BLACK
6
CONTINUOUS
10
154.305
20
-119.266
11
154.318
21
-119.222
0
LINE
8
BLACK
6
CONTINUOUS
10
154.318
20
-119.222
11
154.34
21
-119.181
0
LINE
8
BLACK
6
CONTINUOUS
10
154.34
20
-119.181
11
154.37
21
-119.145
0
LINE
8
BLACK
6
CONTINUOUS
10
154.37
20
-119.145
11
154.406
21
-119.115
0
LINE
8
BLACK
6
CONTINUOUS
10
154.406
20
-119.115
11
154.447
21
-119.093
0
LINE
8
BLACK
6
CONTINUOUS
10
154.447
20
-119.093
11
154.491
21
-119.08
0
LINE
8
BLACK
6
CONTINUOUS
10
154.491
20
-119.08
11
154.537
21
-119.075
0
LINE
8
BLACK
6
CONTINUOUS
10
154.537
20
-119.075
11
155.137
21
-119.075
0
LINE
8
BLACK
6
CONTINUOUS
10
155.137
20
-119.075
11
155.184
21
-119.08
0
LINE
8
BLACK
6
CONTINUOUS
10
156.909
20
-119.08
11
156.953
21
-119.093
0
LINE
8
BLACK
6
CONTINUOUS
10
156.953
20
-119.093
11
156.994
21
-119.115
0
LINE
8
BLACK
6
CONTINUOUS
10
156.994
20
-119.115
11
157.03
21
-119.145
0
LINE
8
BLACK
6
CONTINUOUS
10
157.03
20
-119.145
11
157.06
21
-119.181
0
LINE
8
BLACK
6
CONTINUOUS
10
157.06
20
-119.181
11
157.082
21
-119.222
0
LINE
8
BLACK
6
CONTINUOUS
10
157.082
20
-119.222
11
157.095
21
-119.266
0
LINE
8
BLACK
6
CONTINUOUS
10
157.095
20
-119.266
11
157.1
21
-119.312
0
LINE
8
BLACK
6
CONTINUOUS
10
157.1
20
-119.312
11
157.1
21
-119.787
0
LINE
8
BLACK
6
CONTINUOUS
10
157.1
20
-119.787
11
157.095
21
-119.834
0
LINE
8
BLACK
6
CONTINUOUS
10
157.095
20
-119.834
11
157.082
21
-119.878
0
LINE
8
BLACK
6
CONTINUOUS
10
157.082
20
-119.878
11
157.06
21
-119.919
0
LINE
8
BLACK
6
CONTINUOUS
10
157.06
20
-119.919
11
157.03
21
-119.955
0
LINE
8
BLACK
6
CONTINUOUS
10
157.03
20
-119.955
11
156.994
21
-119.985
0
LINE
8
BLACK
6
CONTINUOUS
10
156.994
20
-119.985
11
156.953
21
-120.007
0
LINE
8
BLACK
6
CONTINUOUS
10
156.953
20
-120.007
11
156.909
21
-120.02
0
LINE
8
BLACK
6
CONTINUOUS
10
156.909
20
-120.02
11
156.862
21
-120.025
0
LINE
8
BLACK
6
CONTINUOUS
10
156.862
20
-120.025
11
156.262
21
-120.025
0
LINE
8
BLACK
6
CONTINUOUS
10
156.262
20
-120.025
11
156.216
21
-120.02
0
LINE
8
BLACK
6
CONTINUOUS
10
156.216
20
-120.02
11
156.172
21
-120.007
0
LINE
8
BLACK
6
CONTINUOUS
10
156.172
20
-120.007
11
156.131
21
-119.985
0
LINE
8
BLACK
6
CONTINUOUS
10
156.131
20
-119.985
11
156.095
21
-119.955
0
LINE
8
BLACK
6
CONTINUOUS
10
156.095
20
-119.955
11
156.065
21
-119.919
0
LINE
8
BLACK
6
CONTINUOUS
10
156.065
20
-119.919
11
156.043
21
-119.878
0
LINE
8
BLACK
6
CONTINUOUS
10
156.043
20
-119.878
11
156.03
21
-119.834
0
LINE
8
BLACK
6
CONTINUOUS
10
156.03
20
-119.834
11
156.025
21
-119.787
0
LINE
8
BLACK
6
CONTINUOUS
10
156.025
20
-119.787
11
156.025
21
-119.312
0
LINE
8
BLACK
6
CONTINUOUS
10
156.025
20
-119.312
11
156.03
21
-119.266
0
LINE
8
BLACK
6
CONTINUOUS
10
156.03
20
-119.266
11
156.043
21
-119.222
0
LINE
8
BLACK
6
CONTINUOUS
10
156.043
20
-119.222
11
156.065
21
-119.181
0
LINE
8
BLACK
6
CONTINUOUS
10
156.065
20
-119.181
11
156.095
21
-119.145
0
LINE
8
BLACK
6
CONTINUOUS
10
156.095
20
-119.145
11
156.131
21
-119.115
0
LINE
8
BLACK
6
CONTINUOUS
10
156.131
20
-119.115
11
156.172
21
-119.093
0
LINE
8
BLACK
6
CONTINUOUS
10
156.172
20
-119.093
11
156.216
21
-119.08
0
LINE
8
BLACK
6
CONTINUOUS
10
156.216
20
-119.08
11
156.262
21
-119.075
0
LINE
8
BLACK
6
CONTINUOUS
10
156.262
20
-119.075
11
156.862
21
-119.075
0
LINE
8
BLACK
6
CONTINUOUS
10
156.862
20
-119.075
11
156.909
21
-119.08
0
LINE
8
BLACK
6
CONTINUOUS
10
151.534
20
-119.03
11
151.578
21
-119.043
0
LINE
8
BLACK
6
CONTINUOUS
10
151.578
20
-119.043
11
151.619
21
-119.065
0
LINE
8
BLACK
6
CONTINUOUS
10
151.619
20
-119.065
11
151.655
21
-119.095
0
LINE
8
BLACK
6
CONTINUOUS
10
151.655
20
-119.095
11
151.685
21
-119.131
0
LINE
8
BLACK
6
CONTINUOUS
10
151.685
20
-119.131
11
151.707
21
-119.172
0
LINE
8
BLACK
6
CONTINUOUS
10
151.707
20
-119.172
11
151.72
21
-119.216
0
LINE
8
BLACK
6
CONTINUOUS
10
151.72
20
-119.216
11
151.725
21
-119.262
0
LINE
8
BLACK
6
CONTINUOUS
10
151.725
20
-119.262
11
151.725
21
-119.737
0
LINE
8
BLACK
6
CONTINUOUS
10
151.725
20
-119.737
11
151.72
21
-119.784
0
LINE
8
BLACK
6
CONTINUOUS
10
151.72
20
-119.784
11
151.707
21
-119.828
0
LINE
8
BLACK
6
CONTINUOUS
10
151.707
20
-119.828
11
151.685
21
-119.869
0
LINE
8
BLACK
6
CONTINUOUS
10
151.685
20
-119.869
11
151.655
21
-119.905
0
LINE
8
BLACK
6
CONTINUOUS
10
151.655
20
-119.905
11
151.619
21
-119.935
0
LINE
8
BLACK
6
CONTINUOUS
10
151.619
20
-119.935
11
151.578
21
-119.957
0
LINE
8
BLACK
6
CONTINUOUS
10
151.578
20
-119.957
11
151.534
21
-119.97
0
LINE
8
BLACK
6
CONTINUOUS
10
151.534
20
-119.97
11
151.487
21
-119.975
0
LINE
8
BLACK
6
CONTINUOUS
10
151.487
20
-119.975
11
150.887
21
-119.975
0
LINE
8
BLACK
6
CONTINUOUS
10
150.887
20
-119.975
11
150.841
21
-119.97
0
LINE
8
BLACK
6
CONTINUOUS
10
150.841
20
-119.97
11
150.797
21
-119.957
0
LINE
8
BLACK
6
CONTINUOUS
10
150.797
20
-119.957
11
150.756
21
-119.935
0
LINE
8
BLACK
6
CONTINUOUS
10
150.756
20
-119.935
11
150.72
21
-119.905
0
LINE
8
BLACK
6
CONTINUOUS
10
150.72
20
-119.905
11
150.69
21
-119.869
0
LINE
8
BLACK
6
CONTINUOUS
10
150.69
20
-119.869
11
150.668
21
-119.828
0
LINE
8
BLACK
6
CONTINUOUS
10
150.668
20
-119.828
11
150.655
21
-119.784
0
LINE
8
BLACK
6
CONTINUOUS
10
150.655
20
-119.784
11
150.65
21
-119.737
0
LINE
8
BLACK
6
CONTINUOUS
10
150.65
20
-119.737
11
150.65
21
-119.262
0
LINE
8
BLACK
6
CONTINUOUS
10
150.65
20
-119.262
11
150.655
21
-119.216
0
LINE
8
BLACK
6
CONTINUOUS
10
150.655
20
-119.216
11
150.668
21
-119.172
0
LINE
8
BLACK
6
CONTINUOUS
10
150.668
20
-119.172
11
150.69
21
-119.131
0
LINE
8
BLACK
6
CONTINUOUS
10
150.69
20
-119.131
11
150.72
21
-119.095
0
LINE
8
BLACK
6
CONTINUOUS
10
150.72
20
-119.095
11
150.756
21
-119.065
0
LINE
8
BLACK
6
CONTINUOUS
10
150.756
20
-119.065
11
150.797
21
-119.043
0
LINE
8
BLACK
6
CONTINUOUS
10
150.797
20
-119.043
11
150.841
21
-119.03
0
LINE
8
BLACK
6
CONTINUOUS
10
150.841
20
-119.03
11
150.887
21
-119.025
0
LINE
8
BLACK
6
CONTINUOUS
10
150.887
20
-119.025
11
151.487
21
-119.025
0
LINE
8
BLACK
6
CONTINUOUS
10
151.487
20
-119.025
11
151.534
21
-119.03
0
LINE
8
BLACK
6
CONTINUOUS
10
153.259
20
-119.03
11
153.303
21
-119.043
0
LINE
8
BLACK
6
CONTINUOUS
10
153.303
20
-119.043
11
153.344
21
-119.065
0
LINE
8
BLACK
6
CONTINUOUS
10
153.344
20
-119.065
11
153.38
21
-119.095
0
LINE
8
BLACK
6
CONTINUOUS
10
153.38
20
-119.095
11
153.41
21
-119.131
0
LINE
8
BLACK
6
CONTINUOUS
10
153.41
20
-119.131
11
153.432
21
-119.172
0
LINE
8
BLACK
6
CONTINUOUS
10
153.432
20
-119.172
11
153.445
21
-119.216
0
LINE
8
BLACK
6
CONTINUOUS
10
153.445
20
-119.216
11
153.45
21
-119.262
0
LINE
8
BLACK
6
CONTINUOUS
10
153.45
20
-119.262
11
153.45
21
-119.737
0
LINE
8
BLACK
6
CONTINUOUS
10
153.45
20
-119.737
11
153.445
21
-119.784
0
LINE
8
BLACK
6
CONTINUOUS
10
153.445
20
-119.784
11
153.432
21
-119.828
0
LINE
8
BLACK
6
CONTINUOUS
10
153.432
20
-119.828
11
153.41
21
-119.869
0
LINE
8
BLACK
6
CONTINUOUS
10
153.41
20
-119.869
11
153.38
21
-119.905
0
LINE
8
BLACK
6
CONTINUOUS
10
153.38
20
-119.905
11
153.344
21
-119.935
0
LINE
8
BLACK
6
CONTINUOUS
10
153.344
20
-119.935
11
153.303
21
-119.957
0
LINE
8
BLACK
6
CONTINUOUS
10
153.303
20
-119.957
11
153.259
21
-119.97
0
LINE
8
BLACK
6
CONTINUOUS
10
153.259
20
-119.97
11
153.213
21
-119.975
0
LINE
8
BLACK
6
CONTINUOUS
10
153.213
20
-119.975
11
152.612
21
-119.975
0
LINE
8
BLACK
6
CONTINUOUS
10
152.612
20
-119.975
11
152.566
21
-119.97
0
LINE
8
BLACK
6
CONTINUOUS
10
152.566
20
-119.97
11
152.522
21
-119.957
0
LINE
8
BLACK
6
CONTINUOUS
10
152.522
20
-119.957
11
152.481
21
-119.935
0
LINE
8
BLACK
6
CONTINUOUS
10
152.481
20
-119.935
11
152.445
21
-119.905
0
LINE
8
BLACK
6
CONTINUOUS
10
152.445
20
-119.905
11
152.415
21
-119.869
0
LINE
8
BLACK
6
CONTINUOUS
10
152.415
20
-119.869
11
152.393
21
-119.828
0
LINE
8
BLACK
6
CONTINUOUS
10
152.393
20
-119.828
11
152.38
21
-119.784
0
LINE
8
BLACK
6
CONTINUOUS
10
152.38
20
-119.784
11
152.375
21
-119.737
0
LINE
8
BLACK
6
CONTINUOUS
10
152.375
20
-119.737
11
152.375
21
-119.262
0
LINE
8
BLACK
6
CONTINUOUS
10
152.375
20
-119.262
11
152.38
21
-119.216
0
LINE
8
BLACK
6
CONTINUOUS
10
152.38
20
-119.216
11
152.393
21
-119.172
0
LINE
8
BLACK
6
CONTINUOUS
10
152.393
20
-119.172
11
152.415
21
-119.131
0
LINE
8
BLACK
6
CONTINUOUS
10
152.415
20
-119.131
11
152.445
21
-119.095
0
LINE
8
BLACK
6
CONTINUOUS
10
152.445
20
-119.095
11
152.481
21
-119.065
0
LINE
8
BLACK
6
CONTINUOUS
10
152.481
20
-119.065
11
152.522
21
-119.043
0
LINE
8
BLACK
6
CONTINUOUS
10
152.522
20
-119.043
11
152.566
21
-119.03
0
LINE
8
BLACK
6
CONTINUOUS
10
152.566
20
-119.03
11
152.612
21
-119.025
0
LINE
8
BLACK
6
CONTINUOUS
10
152.612
20
-119.025
11
153.213
21
-119.025
0
LINE
8
BLACK
6
CONTINUOUS
10
153.213
20
-119.025
11
153.259
21
-119.03
0
LINE
8
BLACK
6
CONTINUOUS
10
158.484
20
-117.58
11
158.528
21
-117.593
0
LINE
8
BLACK
6
CONTINUOUS
10
158.528
20
-117.593
11
158.569
21
-117.615
0
LINE
8
BLACK
6
CONTINUOUS
10
158.569
20
-117.615
11
158.605
21
-117.645
0
LINE
8
BLACK
6
CONTINUOUS
10
158.605
20
-117.645
11
158.635
21
-117.681
0
LINE
8
BLACK
6
CONTINUOUS
10
158.635
20
-117.681
11
158.657
21
-117.722
0
LINE
8
BLACK
6
CONTINUOUS
10
158.657
20
-117.722
11
158.67
21
-117.766
0
LINE
8
BLACK
6
CONTINUOUS
10
158.67
20
-117.766
11
158.675
21
-117.812
0
LINE
8
BLACK
6
CONTINUOUS
10
158.675
20
-117.812
11
158.675
21
-118.412
0
LINE
8
BLACK
6
CONTINUOUS
10
158.675
20
-118.412
11
158.67
21
-118.459
0
LINE
8
BLACK
6
CONTINUOUS
10
158.67
20
-118.459
11
158.657
21
-118.503
0
LINE
8
BLACK
6
CONTINUOUS
10
158.657
20
-118.503
11
158.635
21
-118.544
0
LINE
8
BLACK
6
CONTINUOUS
10
158.635
20
-118.544
11
158.605
21
-118.58
0
LINE
8
BLACK
6
CONTINUOUS
10
158.605
20
-118.58
11
158.569
21
-118.61
0
LINE
8
BLACK
6
CONTINUOUS
10
158.569
20
-118.61
11
158.528
21
-118.632
0
LINE
8
BLACK
6
CONTINUOUS
10
158.528
20
-118.632
11
158.484
21
-118.645
0
LINE
8
BLACK
6
CONTINUOUS
10
158.484
20
-118.645
11
158.438
21
-118.65
0
LINE
8
BLACK
6
CONTINUOUS
10
158.438
20
-118.65
11
157.963
21
-118.65
0
LINE
8
BLACK
6
CONTINUOUS
10
157.963
20
-118.65
11
157.916
21
-118.645
0
LINE
8
BLACK
6
CONTINUOUS
10
157.916
20
-118.645
11
157.872
21
-118.632
0
LINE
8
BLACK
6
CONTINUOUS
10
157.872
20
-118.632
11
157.831
21
-118.61
0
LINE
8
BLACK
6
CONTINUOUS
10
157.831
20
-118.61
11
157.795
21
-118.58
0
LINE
8
BLACK
6
CONTINUOUS
10
157.795
20
-118.58
11
157.765
21
-118.544
0
LINE
8
BLACK
6
CONTINUOUS
10
157.765
20
-118.544
11
157.743
21
-118.503
0
LINE
8
BLACK
6
CONTINUOUS
10
157.743
20
-118.503
11
157.73
21
-118.459
0
LINE
8
BLACK
6
CONTINUOUS
10
157.73
20
-118.459
11
157.725
21
-118.412
0
LINE
8
BLACK
6
CONTINUOUS
10
157.725
20
-118.412
11
157.725
21
-117.812
0
LINE
8
BLACK
6
CONTINUOUS
10
157.725
20
-117.812
11
157.73
21
-117.766
0
LINE
8
BLACK
6
CONTINUOUS
10
157.73
20
-117.766
11
157.743
21
-117.722
0
LINE
8
BLACK
6
CONTINUOUS
10
157.743
20
-117.722
11
157.765
21
-117.681
0
LINE
8
BLACK
6
CONTINUOUS
10
157.765
20
-117.681
11
157.795
21
-117.645
0
LINE
8
BLACK
6
CONTINUOUS
10
157.795
20
-117.645
11
157.831
21
-117.615
0
LINE
8
BLACK
6
CONTINUOUS
10
157.831
20
-117.615
11
157.872
21
-117.593
0
LINE
8
BLACK
6
CONTINUOUS
10
157.872
20
-117.593
11
157.916
21
-117.58
0
LINE
8
BLACK
6
CONTINUOUS
10
157.916
20
-117.58
11
157.963
21
-117.575
0
LINE
8
BLACK
6
CONTINUOUS
10
157.963
20
-117.575
11
158.438
21
-117.575
0
LINE
8
BLACK
6
CONTINUOUS
10
158.438
20
-117.575
11
158.484
21
-117.58
0
LINE
8
BLACK
6
CONTINUOUS
10
150.184
20
-117.43
11
150.228
21
-117.443
0
LINE
8
BLACK
6
CONTINUOUS
10
150.228
20
-117.443
11
150.269
21
-117.465
0
LINE
8
BLACK
6
CONTINUOUS
10
150.269
20
-117.465
11
150.305
21
-117.495
0
LINE
8
BLACK
6
CONTINUOUS
10
150.305
20
-117.495
11
150.335
21
-117.531
0
LINE
8
BLACK
6
CONTINUOUS
10
150.335
20
-117.531
11
150.357
21
-117.572
0
LINE
8
BLACK
6
CONTINUOUS
10
150.357
20
-117.572
11
150.37
21
-117.616
0
LINE
8
BLACK
6
CONTINUOUS
10
150.37
20
-117.616
11
150.375
21
-117.662
0
LINE
8
BLACK
6
CONTINUOUS
10
150.375
20
-117.662
11
150.375
21
-118.262
0
LINE
8
BLACK
6
CONTINUOUS
10
150.375
20
-118.262
11
150.37
21
-118.309
0
LINE
8
BLACK
6
CONTINUOUS
10
150.37
20
-118.309
11
150.357
21
-118.353
0
LINE
8
BLACK
6
CONTINUOUS
10
150.357
20
-118.353
11
150.335
21
-118.394
0
LINE
8
BLACK
6
CONTINUOUS
10
150.335
20
-118.394
11
150.305
21
-118.43
0
LINE
8
BLACK
6
CONTINUOUS
10
150.305
20
-118.43
11
150.269
21
-118.46
0
LINE
8
BLACK
6
CONTINUOUS
10
150.269
20
-118.46
11
150.228
21
-118.482
0
LINE
8
BLACK
6
CONTINUOUS
10
150.228
20
-118.482
11
150.184
21
-118.495
0
LINE
8
BLACK
6
CONTINUOUS
10
150.184
20
-118.495
11
150.137
21
-118.5
0
LINE
8
BLACK
6
CONTINUOUS
10
150.137
20
-118.5
11
149.662
21
-118.5
0
LINE
8
BLACK
6
CONTINUOUS
10
149.662
20
-118.5
11
149.616
21
-118.495
0
LINE
8
BLACK
6
CONTINUOUS
10
149.616
20
-118.495
11
149.572
21
-118.482
0
LINE
8
BLACK
6
CONTINUOUS
10
149.572
20
-118.482
11
149.531
21
-118.46
0
LINE
8
BLACK
6
CONTINUOUS
10
149.531
20
-118.46
11
149.495
21
-118.43
0
LINE
8
BLACK
6
CONTINUOUS
10
149.495
20
-118.43
11
149.465
21
-118.394
0
LINE
8
BLACK
6
CONTINUOUS
10
149.465
20
-118.394
11
149.443
21
-118.353
0
LINE
8
BLACK
6
CONTINUOUS
10
149.443
20
-118.353
11
149.43
21
-118.309
0
LINE
8
BLACK
6
CONTINUOUS
10
149.43
20
-118.309
11
149.425
21
-118.262
0
LINE
8
BLACK
6
CONTINUOUS
10
149.425
20
-118.262
11
149.425
21
-117.662
0
LINE
8
BLACK
6
CONTINUOUS
10
149.425
20
-117.662
11
149.43
21
-117.616
0
LINE
8
BLACK
6
CONTINUOUS
10
149.43
20
-117.616
11
149.443
21
-117.572
0
LINE
8
BLACK
6
CONTINUOUS
10
149.443
20
-117.572
11
149.465
21
-117.531
0
LINE
8
BLACK
6
CONTINUOUS
10
149.465
20
-117.531
11
149.495
21
-117.495
0
LINE
8
BLACK
6
CONTINUOUS
10
149.495
20
-117.495
11
149.531
21
-117.465
0
LINE
8
BLACK
6
CONTINUOUS
10
149.531
20
-117.465
11
149.572
21
-117.443
0
LINE
8
BLACK
6
CONTINUOUS
10
149.572
20
-117.443
11
149.616
21
-117.43
0
LINE
8
BLACK
6
CONTINUOUS
10
149.616
20
-117.43
11
149.662
21
-117.425
0
LINE
8
BLACK
6
CONTINUOUS
10
149.662
20
-117.425
11
150.137
21
-117.425
0
LINE
8
BLACK
6
CONTINUOUS
10
150.137
20
-117.425
11
150.184
21
-117.43
0
LINE
8
BLACK
6
CONTINUOUS
10
158.484
20
-115.855
11
158.528
21
-115.868
0
LINE
8
BLACK
6
CONTINUOUS
10
158.528
20
-115.868
11
158.569
21
-115.89
0
LINE
8
BLACK
6
CONTINUOUS
10
158.569
20
-115.89
11
158.605
21
-115.92
0
LINE
8
BLACK
6
CONTINUOUS
10
158.605
20
-115.92
11
158.635
21
-115.956
0
LINE
8
BLACK
6
CONTINUOUS
10
158.635
20
-115.956
11
158.657
21
-115.997
0
LINE
8
BLACK
6
CONTINUOUS
10
158.657
20
-115.997
11
158.67
21
-116.041
0
LINE
8
BLACK
6
CONTINUOUS
10
158.67
20
-116.041
11
158.675
21
-116.087
0
LINE
8
BLACK
6
CONTINUOUS
10
158.675
20
-116.087
11
158.675
21
-116.688
0
LINE
8
BLACK
6
CONTINUOUS
10
158.675
20
-116.688
11
158.67
21
-116.734
0
LINE
8
BLACK
6
CONTINUOUS
10
158.67
20
-116.734
11
158.657
21
-116.778
0
LINE
8
BLACK
6
CONTINUOUS
10
158.657
20
-116.778
11
158.635
21
-116.819
0
LINE
8
BLACK
6
CONTINUOUS
10
158.635
20
-116.819
11
158.605
21
-116.855
0
LINE
8
BLACK
6
CONTINUOUS
10
158.605
20
-116.855
11
158.569
21
-116.885
0
LINE
8
BLACK
6
CONTINUOUS
10
158.569
20
-116.885
11
158.528
21
-116.907
0
LINE
8
BLACK
6
CONTINUOUS
10
158.528
20
-116.907
11
158.484
21
-116.92
0
LINE
8
BLACK
6
CONTINUOUS
10
158.484
20
-116.92
11
158.438
21
-116.925
0
LINE
8
BLACK
6
CONTINUOUS
10
158.438
20
-116.925
11
157.963
21
-116.925
0
LINE
8
BLACK
6
CONTINUOUS
10
157.963
20
-116.925
11
157.916
21
-116.92
0
LINE
8
BLACK
6
CONTINUOUS
10
157.916
20
-116.92
11
157.872
21
-116.907
0
LINE
8
BLACK
6
CONTINUOUS
10
157.872
20
-116.907
11
157.831
21
-116.885
0
LINE
8
BLACK
6
CONTINUOUS
10
157.831
20
-116.885
11
157.795
21
-116.855
0
LINE
8
BLACK
6
CONTINUOUS
10
157.795
20
-116.855
11
157.765
21
-116.819
0
LINE
8
BLACK
6
CONTINUOUS
10
157.765
20
-116.819
11
157.743
21
-116.778
0
LINE
8
BLACK
6
CONTINUOUS
10
157.743
20
-116.778
11
157.73
21
-116.734
0
LINE
8
BLACK
6
CONTINUOUS
10
157.73
20
-116.734
11
157.725
21
-116.688
0
LINE
8
BLACK
6
CONTINUOUS
10
157.725
20
-116.688
11
157.725
21
-116.087
0
LINE
8
BLACK
6
CONTINUOUS
10
157.725
20
-116.087
11
157.73
21
-116.041
0
LINE
8
BLACK
6
CONTINUOUS
10
157.73
20
-116.041
11
157.743
21
-115.997
0
LINE
8
BLACK
6
CONTINUOUS
10
157.743
20
-115.997
11
157.765
21
-115.956
0
LINE
8
BLACK
6
CONTINUOUS
10
157.765
20
-115.956
11
157.795
21
-115.92
0
LINE
8
BLACK
6
CONTINUOUS
10
157.795
20
-115.92
11
157.831
21
-115.89
0
LINE
8
BLACK
6
CONTINUOUS
10
157.831
20
-115.89
11
157.872
21
-115.868
0
LINE
8
BLACK
6
CONTINUOUS
10
157.872
20
-115.868
11
157.916
21
-115.855
0
LINE
8
BLACK
6
CONTINUOUS
10
157.916
20
-115.855
11
157.963
21
-115.85
0
LINE
8
BLACK
6
CONTINUOUS
10
157.963
20
-115.85
11
158.438
21
-115.85
0
LINE
8
BLACK
6
CONTINUOUS
10
158.438
20
-115.85
11
158.484
21
-115.855
0
LINE
8
BLACK
6
CONTINUOUS
10
150.184
20
-115.705
11
150.228
21
-115.718
0
LINE
8
BLACK
6
CONTINUOUS
10
150.228
20
-115.718
11
150.269
21
-115.74
0
LINE
8
BLACK
6
CONTINUOUS
10
150.269
20
-115.74
11
150.305
21
-115.77
0
LINE
8
BLACK
6
CONTINUOUS
10
150.305
20
-115.77
11
150.335
21
-115.806
0
LINE
8
BLACK
6
CONTINUOUS
10
150.335
20
-115.806
11
150.357
21
-115.847
0
LINE
8
BLACK
6
CONTINUOUS
10
150.357
20
-115.847
11
150.37
21
-115.891
0
LINE
8
BLACK
6
CONTINUOUS
10
150.37
20
-115.891
11
150.375
21
-115.938
0
LINE
8
BLACK
6
CONTINUOUS
10
150.375
20
-115.938
11
150.375
21
-116.537
0
LINE
8
BLACK
6
CONTINUOUS
10
150.375
20
-116.537
11
150.37
21
-116.584
0
LINE
8
BLACK
6
CONTINUOUS
10
150.37
20
-116.584
11
150.357
21
-116.628
0
LINE
8
BLACK
6
CONTINUOUS
10
150.357
20
-116.628
11
150.335
21
-116.669
0
LINE
8
BLACK
6
CONTINUOUS
10
150.335
20
-116.669
11
150.305
21
-116.705
0
LINE
8
BLACK
6
CONTINUOUS
10
150.305
20
-116.705
11
150.269
21
-116.735
0
LINE
8
BLACK
6
CONTINUOUS
10
150.269
20
-116.735
11
150.228
21
-116.757
0
LINE
8
BLACK
6
CONTINUOUS
10
150.228
20
-116.757
11
150.184
21
-116.77
0
LINE
8
BLACK
6
CONTINUOUS
10
150.184
20
-116.77
11
150.137
21
-116.775
0
LINE
8
BLACK
6
CONTINUOUS
10
150.137
20
-116.775
11
149.662
21
-116.775
0
LINE
8
BLACK
6
CONTINUOUS
10
149.662
20
-116.775
11
149.616
21
-116.77
0
LINE
8
BLACK
6
CONTINUOUS
10
149.616
20
-116.77
11
149.572
21
-116.757
0
LINE
8
BLACK
6
CONTINUOUS
10
149.572
20
-116.757
11
149.531
21
-116.735
0
LINE
8
BLACK
6
CONTINUOUS
10
149.531
20
-116.735
11
149.495
21
-116.705
0
LINE
8
BLACK
6
CONTINUOUS
10
149.495
20
-116.705
11
149.465
21
-116.669
0
LINE
8
BLACK
6
CONTINUOUS
10
149.465
20
-116.669
11
149.443
21
-116.628
0
LINE
8
BLACK
6
CONTINUOUS
10
149.443
20
-116.628
11
149.43
21
-116.584
0
LINE
8
BLACK
6
CONTINUOUS
10
149.43
20
-116.584
11
149.425
21
-116.537
0
LINE
8
BLACK
6
CONTINUOUS
10
149.425
20
-116.537
11
149.425
21
-115.938
0
LINE
8
BLACK
6
CONTINUOUS
10
149.425
20
-115.938
11
149.43
21
-115.891
0
LINE
8
BLACK
6
CONTINUOUS
10
149.43
20
-115.891
11
149.443
21
-115.847
0
LINE
8
BLACK
6
CONTINUOUS
10
149.443
20
-115.847
11
149.465
21
-115.806
0
LINE
8
BLACK
6
CONTINUOUS
10
149.465
20
-115.806
11
149.495
21
-115.77
0
LINE
8
BLACK
6
CONTINUOUS
10
149.495
20
-115.77
11
149.531
21
-115.74
0
LINE
8
BLACK
6
CONTINUOUS
10
149.531
20
-115.74
11
149.572
21
-115.718
0
LINE
8
BLACK
6
CONTINUOUS
10
149.572
20
-115.718
11
149.616
21
-115.705
0
LINE
8
BLACK
6
CONTINUOUS
10
149.616
20
-115.705
11
149.662
21
-115.7
0
LINE
8
BLACK
6
CONTINUOUS
10
149.662
20
-115.7
11
150.137
21
-115.7
0
LINE
8
BLACK
6
CONTINUOUS
10
150.137
20
-115.7
11
150.184
21
-115.705
0
LINE
8
BLACK
6
CONTINUOUS
10
158.484
20
-114.267
11
158.528
21
-114.281
0
LINE
8
BLACK
6
CONTINUOUS
10
158.528
20
-114.281
11
158.569
21
-114.303
0
LINE
8
BLACK
6
CONTINUOUS
10
158.569
20
-114.303
11
158.605
21
-114.332
0
LINE
8
BLACK
6
CONTINUOUS
10
158.605
20
-114.332
11
158.635
21
-114.368
0
LINE
8
BLACK
6
CONTINUOUS
10
158.635
20
-114.368
11
158.657
21
-114.409
0
LINE
8
BLACK
6
CONTINUOUS
10
158.657
20
-114.409
11
158.67
21
-114.454
0
LINE
8
BLACK
6
CONTINUOUS
10
158.67
20
-114.454
11
158.675
21
-114.5
0
LINE
8
BLACK
6
CONTINUOUS
10
158.675
20
-114.5
11
158.675
21
-115.1
0
LINE
8
BLACK
6
CONTINUOUS
10
158.675
20
-115.1
11
158.67
21
-115.146
0
LINE
8
BLACK
6
CONTINUOUS
10
158.67
20
-115.146
11
158.657
21
-115.191
0
LINE
8
BLACK
6
CONTINUOUS
10
158.657
20
-115.191
11
158.635
21
-115.232
0
LINE
8
BLACK
6
CONTINUOUS
10
158.635
20
-115.232
11
158.605
21
-115.268
0
LINE
8
BLACK
6
CONTINUOUS
10
158.605
20
-115.268
11
158.569
21
-115.297
0
LINE
8
BLACK
6
CONTINUOUS
10
158.569
20
-115.297
11
158.528
21
-115.319
0
LINE
8
BLACK
6
CONTINUOUS
10
158.528
20
-115.319
11
158.484
21
-115.333
0
LINE
8
BLACK
6
CONTINUOUS
10
158.484
20
-115.333
11
158.438
21
-115.337
0
LINE
8
BLACK
6
CONTINUOUS
10
158.438
20
-115.337
11
157.963
21
-115.337
0
LINE
8
BLACK
6
CONTINUOUS
10
157.963
20
-115.337
11
157.916
21
-115.333
0
LINE
8
BLACK
6
CONTINUOUS
10
157.916
20
-115.333
11
157.872
21
-115.319
0
LINE
8
BLACK
6
CONTINUOUS
10
157.872
20
-115.319
11
157.831
21
-115.297
0
LINE
8
BLACK
6
CONTINUOUS
10
157.831
20
-115.297
11
157.795
21
-115.268
0
LINE
8
BLACK
6
CONTINUOUS
10
157.795
20
-115.268
11
157.765
21
-115.232
0
LINE
8
BLACK
6
CONTINUOUS
10
157.765
20
-115.232
11
157.743
21
-115.191
0
LINE
8
BLACK
6
CONTINUOUS
10
157.743
20
-115.191
11
157.73
21
-115.146
0
LINE
8
BLACK
6
CONTINUOUS
10
157.73
20
-115.146
11
157.725
21
-115.1
0
LINE
8
BLACK
6
CONTINUOUS
10
157.725
20
-115.1
11
157.725
21
-114.5
0
LINE
8
BLACK
6
CONTINUOUS
10
157.725
20
-114.5
11
157.73
21
-114.454
0
LINE
8
BLACK
6
CONTINUOUS
10
157.73
20
-114.454
11
157.743
21
-114.409
0
LINE
8
BLACK
6
CONTINUOUS
10
157.743
20
-114.409
11
157.765
21
-114.368
0
LINE
8
BLACK
6
CONTINUOUS
10
157.765
20
-114.368
11
157.795
21
-114.332
0
LINE
8
BLACK
6
CONTINUOUS
10
157.795
20
-114.332
11
157.831
21
-114.303
0
LINE
8
BLACK
6
CONTINUOUS
10
157.831
20
-114.303
11
157.872
21
-114.281
0
LINE
8
BLACK
6
CONTINUOUS
10
157.872
20
-114.281
11
157.916
21
-114.267
0
LINE
8
BLACK
6
CONTINUOUS
10
157.916
20
-114.267
11
157.963
21
-114.262
0
LINE
8
BLACK
6
CONTINUOUS
10
157.963
20
-114.262
11
158.438
21
-114.262
0
LINE
8
BLACK
6
CONTINUOUS
10
158.438
20
-114.262
11
158.484
21
-114.267
0
LINE
8
BLACK
6
CONTINUOUS
10
150.184
20
-114.13
11
150.228
21
-114.143
0
LINE
8
BLACK
6
CONTINUOUS
10
150.228
20
-114.143
11
150.269
21
-114.165
0
LINE
8
BLACK
6
CONTINUOUS
10
150.269
20
-114.165
11
150.305
21
-114.195
0
LINE
8
BLACK
6
CONTINUOUS
10
150.305
20
-114.195
11
150.335
21
-114.231
0
LINE
8
BLACK
6
CONTINUOUS
10
150.335
20
-114.231
11
150.357
21
-114.272
0
LINE
8
BLACK
6
CONTINUOUS
10
150.357
20
-114.272
11
150.37
21
-114.316
0
LINE
8
BLACK
6
CONTINUOUS
10
150.37
20
-114.316
11
150.375
21
-114.362
0
LINE
8
BLACK
6
CONTINUOUS
10
150.375
20
-114.362
11
150.375
21
-114.962
0
LINE
8
BLACK
6
CONTINUOUS
10
150.375
20
-114.962
11
150.37
21
-115.009
0
LINE
8
BLACK
6
CONTINUOUS
10
150.37
20
-115.009
11
150.357
21
-115.053
0
LINE
8
BLACK
6
CONTINUOUS
10
150.357
20
-115.053
11
150.335
21
-115.094
0
LINE
8
BLACK
6
CONTINUOUS
10
150.335
20
-115.094
11
150.305
21
-115.13
0
LINE
8
BLACK
6
CONTINUOUS
10
150.305
20
-115.13
11
150.269
21
-115.16
0
LINE
8
BLACK
6
CONTINUOUS
10
150.269
20
-115.16
11
150.228
21
-115.182
0
LINE
8
BLACK
6
CONTINUOUS
10
150.228
20
-115.182
11
150.184
21
-115.195
0
LINE
8
BLACK
6
CONTINUOUS
10
150.184
20
-115.195
11
150.137
21
-115.2
0
LINE
8
BLACK
6
CONTINUOUS
10
150.137
20
-115.2
11
149.662
21
-115.2
0
LINE
8
BLACK
6
CONTINUOUS
10
149.662
20
-115.2
11
149.616
21
-115.195
0
LINE
8
BLACK
6
CONTINUOUS
10
149.616
20
-115.195
11
149.572
21
-115.182
0
LINE
8
BLACK
6
CONTINUOUS
10
149.572
20
-115.182
11
149.531
21
-115.16
0
LINE
8
BLACK
6
CONTINUOUS
10
149.531
20
-115.16
11
149.495
21
-115.13
0
LINE
8
BLACK
6
CONTINUOUS
10
149.495
20
-115.13
11
149.465
21
-115.094
0
LINE
8
BLACK
6
CONTINUOUS
10
149.465
20
-115.094
11
149.443
21
-115.053
0
LINE
8
BLACK
6
CONTINUOUS
10
149.443
20
-115.053
11
149.43
21
-115.009
0
LINE
8
BLACK
6
CONTINUOUS
10
149.43
20
-115.009
11
149.425
21
-114.962
0
LINE
8
BLACK
6
CONTINUOUS
10
149.425
20
-114.962
11
149.425
21
-114.362
0
LINE
8
BLACK
6
CONTINUOUS
10
149.425
20
-114.362
11
149.43
21
-114.316
0
LINE
8
BLACK
6
CONTINUOUS
10
149.43
20
-114.316
11
149.443
21
-114.272
0
LINE
8
BLACK
6
CONTINUOUS
10
149.443
20
-114.272
11
149.465
21
-114.231
0
LINE
8
BLACK
6
CONTINUOUS
10
149.465
20
-114.231
11
149.495
21
-114.195
0
LINE
8
BLACK
6
CONTINUOUS
10
149.495
20
-114.195
11
149.531
21
-114.165
0
LINE
8
BLACK
6
CONTINUOUS
10
149.531
20
-114.165
11
149.572
21
-114.143
0
LINE
8
BLACK
6
CONTINUOUS
10
149.572
20
-114.143
11
149.616
21
-114.13
0
LINE
8
BLACK
6
CONTINUOUS
10
149.616
20
-114.13
11
149.662
21
-114.125
0
LINE
8
BLACK
6
CONTINUOUS
10
149.662
20
-114.125
11
150.137
21
-114.125
0
LINE
8
BLACK
6
CONTINUOUS
10
150.137
20
-114.125
11
150.184
21
-114.13
0
LINE
8
BLACK
6
CONTINUOUS
10
158.484
20
-112.542
11
158.528
21
-112.556
0
LINE
8
BLACK
6
CONTINUOUS
10
158.528
20
-112.556
11
158.569
21
-112.578
0
LINE
8
BLACK
6
CONTINUOUS
10
158.569
20
-112.578
11
158.605
21
-112.607
0
LINE
8
BLACK
6
CONTINUOUS
10
158.605
20
-112.607
11
158.635
21
-112.643
0
LINE
8
BLACK
6
CONTINUOUS
10
158.635
20
-112.643
11
158.657
21
-112.684
0
LINE
8
BLACK
6
CONTINUOUS
10
158.657
20
-112.684
11
158.67
21
-112.729
0
LINE
8
BLACK
6
CONTINUOUS
10
158.67
20
-112.729
11
158.675
21
-112.775
0
LINE
8
BLACK
6
CONTINUOUS
10
158.675
20
-112.775
11
158.675
21
-113.375
0
LINE
8
BLACK
6
CONTINUOUS
10
158.675
20
-113.375
11
158.67
21
-113.421
0
LINE
8
BLACK
6
CONTINUOUS
10
158.67
20
-113.421
11
158.657
21
-113.466
0
LINE
8
BLACK
6
CONTINUOUS
10
158.657
20
-113.466
11
158.635
21
-113.507
0
LINE
8
BLACK
6
CONTINUOUS
10
158.635
20
-113.507
11
158.605
21
-113.543
0
LINE
8
BLACK
6
CONTINUOUS
10
158.605
20
-113.543
11
158.569
21
-113.572
0
LINE
8
BLACK
6
CONTINUOUS
10
158.569
20
-113.572
11
158.528
21
-113.594
0
LINE
8
BLACK
6
CONTINUOUS
10
158.528
20
-113.594
11
158.484
21
-113.608
0
LINE
8
BLACK
6
CONTINUOUS
10
158.484
20
-113.608
11
158.438
21
-113.612
0
LINE
8
BLACK
6
CONTINUOUS
10
158.438
20
-113.612
11
157.963
21
-113.612
0
LINE
8
BLACK
6
CONTINUOUS
10
157.963
20
-113.612
11
157.916
21
-113.608
0
LINE
8
BLACK
6
CONTINUOUS
10
157.916
20
-113.608
11
157.872
21
-113.594
0
LINE
8
BLACK
6
CONTINUOUS
10
157.872
20
-113.594
11
157.831
21
-113.572
0
LINE
8
BLACK
6
CONTINUOUS
10
157.831
20
-113.572
11
157.795
21
-113.543
0
LINE
8
BLACK
6
CONTINUOUS
10
157.795
20
-113.543
11
157.765
21
-113.507
0
LINE
8
BLACK
6
CONTINUOUS
10
157.765
20
-113.507
11
157.743
21
-113.466
0
LINE
8
BLACK
6
CONTINUOUS
10
157.743
20
-113.466
11
157.73
21
-113.421
0
LINE
8
BLACK
6
CONTINUOUS
10
157.73
20
-113.421
11
157.725
21
-113.375
0
LINE
8
BLACK
6
CONTINUOUS
10
157.725
20
-113.375
11
157.725
21
-112.775
0
LINE
8
BLACK
6
CONTINUOUS
10
157.725
20
-112.775
11
157.73
21
-112.729
0
LINE
8
BLACK
6
CONTINUOUS
10
157.73
20
-112.729
11
157.743
21
-112.684
0
LINE
8
BLACK
6
CONTINUOUS
10
157.743
20
-112.684
11
157.765
21
-112.643
0
LINE
8
BLACK
6
CONTINUOUS
10
157.765
20
-112.643
11
157.795
21
-112.607
0
LINE
8
BLACK
6
CONTINUOUS
10
157.795
20
-112.607
11
157.831
21
-112.578
0
LINE
8
BLACK
6
CONTINUOUS
10
157.831
20
-112.578
11
157.872
21
-112.556
0
LINE
8
BLACK
6
CONTINUOUS
10
157.872
20
-112.556
11
157.916
21
-112.542
0
LINE
8
BLACK
6
CONTINUOUS
10
157.916
20
-112.542
11
157.963
21
-112.537
0
LINE
8
BLACK
6
CONTINUOUS
10
157.963
20
-112.537
11
158.438
21
-112.537
0
LINE
8
BLACK
6
CONTINUOUS
10
158.438
20
-112.537
11
158.484
21
-112.542
0
LINE
8
BLACK
6
CONTINUOUS
10
150.184
20
-112.405
11
150.228
21
-112.418
0
LINE
8
BLACK
6
CONTINUOUS
10
150.228
20
-112.418
11
150.269
21
-112.44
0
LINE
8
BLACK
6
CONTINUOUS
10
150.269
20
-112.44
11
150.305
21
-112.47
0
LINE
8
BLACK
6
CONTINUOUS
10
150.305
20
-112.47
11
150.335
21
-112.506
0
LINE
8
BLACK
6
CONTINUOUS
10
150.335
20
-112.506
11
150.357
21
-112.547
0
LINE
8
BLACK
6
CONTINUOUS
10
150.357
20
-112.547
11
150.37
21
-112.591
0
LINE
8
BLACK
6
CONTINUOUS
10
150.37
20
-112.591
11
150.375
21
-112.637
0
LINE
8
BLACK
6
CONTINUOUS
10
150.375
20
-112.637
11
150.375
21
-113.237
0
LINE
8
BLACK
6
CONTINUOUS
10
150.375
20
-113.237
11
150.37
21
-113.284
0
LINE
8
BLACK
6
CONTINUOUS
10
150.37
20
-113.284
11
150.357
21
-113.328
0
LINE
8
BLACK
6
CONTINUOUS
10
150.357
20
-113.328
11
150.335
21
-113.369
0
LINE
8
BLACK
6
CONTINUOUS
10
150.335
20
-113.369
11
150.305
21
-113.405
0
LINE
8
BLACK
6
CONTINUOUS
10
150.305
20
-113.405
11
150.269
21
-113.435
0
LINE
8
BLACK
6
CONTINUOUS
10
150.269
20
-113.435
11
150.228
21
-113.457
0
LINE
8
BLACK
6
CONTINUOUS
10
150.228
20
-113.457
11
150.184
21
-113.47
0
LINE
8
BLACK
6
CONTINUOUS
10
150.184
20
-113.47
11
150.137
21
-113.475
0
LINE
8
BLACK
6
CONTINUOUS
10
150.137
20
-113.475
11
149.662
21
-113.475
0
LINE
8
BLACK
6
CONTINUOUS
10
149.662
20
-113.475
11
149.616
21
-113.47
0
LINE
8
BLACK
6
CONTINUOUS
10
149.616
20
-113.47
11
149.572
21
-113.457
0
LINE
8
BLACK
6
CONTINUOUS
10
149.572
20
-113.457
11
149.531
21
-113.435
0
LINE
8
BLACK
6
CONTINUOUS
10
149.531
20
-113.435
11
149.495
21
-113.405
0
LINE
8
BLACK
6
CONTINUOUS
10
149.495
20
-113.405
11
149.465
21
-113.369
0
LINE
8
BLACK
6
CONTINUOUS
10
149.465
20
-113.369
11
149.443
21
-113.328
0
LINE
8
BLACK
6
CONTINUOUS
10
149.443
20
-113.328
11
149.43
21
-113.284
0
LINE
8
BLACK
6
CONTINUOUS
10
149.43
20
-113.284
11
149.425
21
-113.237
0
LINE
8
BLACK
6
CONTINUOUS
10
149.425
20
-113.237
11
149.425
21
-112.637
0
LINE
8
BLACK
6
CONTINUOUS
10
149.425
20
-112.637
11
149.43
21
-112.591
0
LINE
8
BLACK
6
CONTINUOUS
10
149.43
20
-112.591
11
149.443
21
-112.547
0
LINE
8
BLACK
6
CONTINUOUS
10
149.443
20
-112.547
11
149.465
21
-112.506
0
LINE
8
BLACK
6
CONTINUOUS
10
149.465
20
-112.506
11
149.495
21
-112.47
0
LINE
8
BLACK
6
CONTINUOUS
10
149.495
20
-112.47
11
149.531
21
-112.44
0
LINE
8
BLACK
6
CONTINUOUS
10
149.531
20
-112.44
11
149.572
21
-112.418
0
LINE
8
BLACK
6
CONTINUOUS
10
149.572
20
-112.418
11
149.616
21
-112.405
0
LINE
8
BLACK
6
CONTINUOUS
10
149.616
20
-112.405
11
149.662
21
-112.4
0
LINE
8
BLACK
6
CONTINUOUS
10
149.662
20
-112.4
11
150.137
21
-112.4
0
LINE
8
BLACK
6
CONTINUOUS
10
150.137
20
-112.4
11
150.184
21
-112.405
0
LINE
8
BLACK
6
CONTINUOUS
10
148.034
20
-111.13
11
148.078
21
-111.143
0
LINE
8
BLACK
6
CONTINUOUS
10
148.078
20
-111.143
11
148.119
21
-111.165
0
LINE
8
BLACK
6
CONTINUOUS
10
148.119
20
-111.165
11
148.155
21
-111.195
0
LINE
8
BLACK
6
CONTINUOUS
10
148.155
20
-111.195
11
148.185
21
-111.231
0
LINE
8
BLACK
6
CONTINUOUS
10
148.185
20
-111.231
11
148.207
21
-111.272
0
LINE
8
BLACK
6
CONTINUOUS
10
148.207
20
-111.272
11
148.22
21
-111.316
0
LINE
8
BLACK
6
CONTINUOUS
10
148.22
20
-111.316
11
148.225
21
-111.362
0
LINE
8
BLACK
6
CONTINUOUS
10
148.225
20
-111.362
11
148.225
21
-111.862
0
LINE
8
BLACK
6
CONTINUOUS
10
148.225
20
-111.862
11
148.22
21
-111.909
0
LINE
8
BLACK
6
CONTINUOUS
10
148.22
20
-111.909
11
148.207
21
-111.953
0
LINE
8
BLACK
6
CONTINUOUS
10
148.207
20
-111.953
11
148.185
21
-111.994
0
LINE
8
BLACK
6
CONTINUOUS
10
148.185
20
-111.994
11
148.155
21
-112.03
0
LINE
8
BLACK
6
CONTINUOUS
10
148.155
20
-112.03
11
148.119
21
-112.06
0
LINE
8
BLACK
6
CONTINUOUS
10
148.119
20
-112.06
11
148.078
21
-112.082
0
LINE
8
BLACK
6
CONTINUOUS
10
148.078
20
-112.082
11
148.034
21
-112.095
0
LINE
8
BLACK
6
CONTINUOUS
10
148.034
20
-112.095
11
147.987
21
-112.1
0
LINE
8
BLACK
6
CONTINUOUS
10
147.987
20
-112.1
11
147.512
21
-112.1
0
LINE
8
BLACK
6
CONTINUOUS
10
147.512
20
-112.1
11
147.466
21
-112.095
0
LINE
8
BLACK
6
CONTINUOUS
10
147.466
20
-112.095
11
147.422
21
-112.082
0
LINE
8
BLACK
6
CONTINUOUS
10
147.422
20
-112.082
11
147.381
21
-112.06
0
LINE
8
BLACK
6
CONTINUOUS
10
147.381
20
-112.06
11
147.345
21
-112.03
0
LINE
8
BLACK
6
CONTINUOUS
10
147.345
20
-112.03
11
147.315
21
-111.994
0
LINE
8
BLACK
6
CONTINUOUS
10
147.315
20
-111.994
11
147.293
21
-111.953
0
LINE
8
BLACK
6
CONTINUOUS
10
147.293
20
-111.953
11
147.28
21
-111.909
0
LINE
8
BLACK
6
CONTINUOUS
10
147.28
20
-111.909
11
147.275
21
-111.862
0
LINE
8
BLACK
6
CONTINUOUS
10
147.275
20
-111.862
11
147.275
21
-111.362
0
LINE
8
BLACK
6
CONTINUOUS
10
147.275
20
-111.362
11
147.28
21
-111.316
0
LINE
8
BLACK
6
CONTINUOUS
10
147.28
20
-111.316
11
147.293
21
-111.272
0
LINE
8
BLACK
6
CONTINUOUS
10
147.293
20
-111.272
11
147.315
21
-111.231
0
LINE
8
BLACK
6
CONTINUOUS
10
147.315
20
-111.231
11
147.345
21
-111.195
0
LINE
8
BLACK
6
CONTINUOUS
10
147.345
20
-111.195
11
147.381
21
-111.165
0
LINE
8
BLACK
6
CONTINUOUS
10
147.381
20
-111.165
11
147.422
21
-111.143
0
LINE
8
BLACK
6
CONTINUOUS
10
147.422
20
-111.143
11
147.466
21
-111.13
0
LINE
8
BLACK
6
CONTINUOUS
10
147.466
20
-111.13
11
147.512
21
-111.125
0
LINE
8
BLACK
6
CONTINUOUS
10
147.512
20
-111.125
11
147.987
21
-111.125
0
LINE
8
BLACK
6
CONTINUOUS
10
147.987
20
-111.125
11
148.034
21
-111.13
0
LINE
8
BLACK
6
CONTINUOUS
10
153.659
20
-110.73
11
153.703
21
-110.743
0
LINE
8
BLACK
6
CONTINUOUS
10
153.703
20
-110.743
11
153.744
21
-110.765
0
LINE
8
BLACK
6
CONTINUOUS
10
153.744
20
-110.765
11
153.78
21
-110.795
0
LINE
8
BLACK
6
CONTINUOUS
10
153.78
20
-110.795
11
153.81
21
-110.831
0
LINE
8
BLACK
6
CONTINUOUS
10
153.81
20
-110.831
11
153.832
21
-110.872
0
LINE
8
BLACK
6
CONTINUOUS
10
153.832
20
-110.872
11
153.845
21
-110.916
0
LINE
8
BLACK
6
CONTINUOUS
10
153.845
20
-110.916
11
153.85
21
-110.962
0
LINE
8
BLACK
6
CONTINUOUS
10
153.85
20
-110.962
11
153.85
21
-111.438
0
LINE
8
BLACK
6
CONTINUOUS
10
153.85
20
-111.438
11
153.845
21
-111.484
0
LINE
8
BLACK
6
CONTINUOUS
10
153.845
20
-111.484
11
153.832
21
-111.528
0
LINE
8
BLACK
6
CONTINUOUS
10
153.832
20
-111.528
11
153.81
21
-111.569
0
LINE
8
BLACK
6
CONTINUOUS
10
153.81
20
-111.569
11
153.78
21
-111.605
0
LINE
8
BLACK
6
CONTINUOUS
10
153.78
20
-111.605
11
153.744
21
-111.635
0
LINE
8
BLACK
6
CONTINUOUS
10
153.744
20
-111.635
11
153.703
21
-111.657
0
LINE
8
BLACK
6
CONTINUOUS
10
153.703
20
-111.657
11
153.659
21
-111.67
0
LINE
8
BLACK
6
CONTINUOUS
10
153.659
20
-111.67
11
153.612
21
-111.675
0
LINE
8
BLACK
6
CONTINUOUS
10
153.612
20
-111.675
11
153.012
21
-111.675
0
LINE
8
BLACK
6
CONTINUOUS
10
153.012
20
-111.675
11
152.966
21
-111.67
0
LINE
8
BLACK
6
CONTINUOUS
10
152.966
20
-111.67
11
152.922
21
-111.657
0
LINE
8
BLACK
6
CONTINUOUS
10
152.922
20
-111.657
11
152.881
21
-111.635
0
LINE
8
BLACK
6
CONTINUOUS
10
152.881
20
-111.635
11
152.845
21
-111.605
0
LINE
8
BLACK
6
CONTINUOUS
10
152.845
20
-111.605
11
152.815
21
-111.569
0
LINE
8
BLACK
6
CONTINUOUS
10
152.815
20
-111.569
11
152.793
21
-111.528
0
LINE
8
BLACK
6
CONTINUOUS
10
152.793
20
-111.528
11
152.78
21
-111.484
0
LINE
8
BLACK
6
CONTINUOUS
10
152.78
20
-111.484
11
152.775
21
-111.438
0
LINE
8
BLACK
6
CONTINUOUS
10
152.775
20
-111.438
11
152.775
21
-110.962
0
LINE
8
BLACK
6
CONTINUOUS
10
152.775
20
-110.962
11
152.78
21
-110.916
0
LINE
8
BLACK
6
CONTINUOUS
10
152.78
20
-110.916
11
152.793
21
-110.872
0
LINE
8
BLACK
6
CONTINUOUS
10
152.793
20
-110.872
11
152.815
21
-110.831
0
LINE
8
BLACK
6
CONTINUOUS
10
152.815
20
-110.831
11
152.845
21
-110.795
0
LINE
8
BLACK
6
CONTINUOUS
10
152.845
20
-110.795
11
152.881
21
-110.765
0
LINE
8
BLACK
6
CONTINUOUS
10
152.881
20
-110.765
11
152.922
21
-110.743
0
LINE
8
BLACK
6
CONTINUOUS
10
152.922
20
-110.743
11
152.966
21
-110.73
0
LINE
8
BLACK
6
CONTINUOUS
10
152.966
20
-110.73
11
153.012
21
-110.725
0
LINE
8
BLACK
6
CONTINUOUS
10
153.012
20
-110.725
11
153.612
21
-110.725
0
LINE
8
BLACK
6
CONTINUOUS
10
153.612
20
-110.725
11
153.659
21
-110.73
0
LINE
8
BLACK
6
CONTINUOUS
10
151.934
20
-110.73
11
151.978
21
-110.743
0
LINE
8
BLACK
6
CONTINUOUS
10
151.978
20
-110.743
11
152.019
21
-110.765
0
LINE
8
BLACK
6
CONTINUOUS
10
152.019
20
-110.765
11
152.055
21
-110.795
0
LINE
8
BLACK
6
CONTINUOUS
10
152.055
20
-110.795
11
152.085
21
-110.831
0
LINE
8
BLACK
6
CONTINUOUS
10
152.085
20
-110.831
11
152.107
21
-110.872
0
LINE
8
BLACK
6
CONTINUOUS
10
152.107
20
-110.872
11
152.12
21
-110.916
0
LINE
8
BLACK
6
CONTINUOUS
10
152.12
20
-110.916
11
152.125
21
-110.962
0
LINE
8
BLACK
6
CONTINUOUS
10
152.125
20
-110.962
11
152.125
21
-111.438
0
LINE
8
BLACK
6
CONTINUOUS
10
152.125
20
-111.438
11
152.12
21
-111.484
0
LINE
8
BLACK
6
CONTINUOUS
10
152.12
20
-111.484
11
152.107
21
-111.528
0
LINE
8
BLACK
6
CONTINUOUS
10
152.107
20
-111.528
11
152.085
21
-111.569
0
LINE
8
BLACK
6
CONTINUOUS
10
152.085
20
-111.569
11
152.055
21
-111.605
0
LINE
8
BLACK
6
CONTINUOUS
10
152.055
20
-111.605
11
152.019
21
-111.635
0
LINE
8
BLACK
6
CONTINUOUS
10
152.019
20
-111.635
11
151.978
21
-111.657
0
LINE
8
BLACK
6
CONTINUOUS
10
151.978
20
-111.657
11
151.934
21
-111.67
0
LINE
8
BLACK
6
CONTINUOUS
10
151.934
20
-111.67
11
151.887
21
-111.675
0
LINE
8
BLACK
6
CONTINUOUS
10
151.887
20
-111.675
11
151.287
21
-111.675
0
LINE
8
BLACK
6
CONTINUOUS
10
151.287
20
-111.675
11
151.241
21
-111.67
0
LINE
8
BLACK
6
CONTINUOUS
10
151.241
20
-111.67
11
151.197
21
-111.657
0
LINE
8
BLACK
6
CONTINUOUS
10
151.197
20
-111.657
11
151.156
21
-111.635
0
LINE
8
BLACK
6
CONTINUOUS
10
151.156
20
-111.635
11
151.12
21
-111.605
0
LINE
8
BLACK
6
CONTINUOUS
10
151.12
20
-111.605
11
151.09
21
-111.569
0
LINE
8
BLACK
6
CONTINUOUS
10
151.09
20
-111.569
11
151.068
21
-111.528
0
LINE
8
BLACK
6
CONTINUOUS
10
151.068
20
-111.528
11
151.055
21
-111.484
0
LINE
8
BLACK
6
CONTINUOUS
10
151.055
20
-111.484
11
151.05
21
-111.438
0
LINE
8
BLACK
6
CONTINUOUS
10
151.05
20
-111.438
11
151.05
21
-110.962
0
LINE
8
BLACK
6
CONTINUOUS
10
151.05
20
-110.962
11
151.055
21
-110.916
0
LINE
8
BLACK
6
CONTINUOUS
10
151.055
20
-110.916
11
151.068
21
-110.872
0
LINE
8
BLACK
6
CONTINUOUS
10
151.068
20
-110.872
11
151.09
21
-110.831
0
LINE
8
BLACK
6
CONTINUOUS
10
151.09
20
-110.831
11
151.12
21
-110.795
0
LINE
8
BLACK
6
CONTINUOUS
10
151.12
20
-110.795
11
151.156
21
-110.765
0
LINE
8
BLACK
6
CONTINUOUS
10
151.156
20
-110.765
11
151.197
21
-110.743
0
LINE
8
BLACK
6
CONTINUOUS
10
151.197
20
-110.743
11
151.241
21
-110.73
0
LINE
8
BLACK
6
CONTINUOUS
10
151.241
20
-110.73
11
151.287
21
-110.725
0
LINE
8
BLACK
6
CONTINUOUS
10
151.287
20
-110.725
11
151.887
21
-110.725
0
LINE
8
BLACK
6
CONTINUOUS
10
151.887
20
-110.725
11
151.934
21
-110.73
0
LINE
8
BLACK
6
CONTINUOUS
10
155.584
20
-110.68
11
155.628
21
-110.693
0
LINE
8
BLACK
6
CONTINUOUS
10
155.628
20
-110.693
11
155.669
21
-110.715
0
LINE
8
BLACK
6
CONTINUOUS
10
155.669
20
-110.715
11
155.705
21
-110.745
0
LINE
8
BLACK
6
CONTINUOUS
10
155.705
20
-110.745
11
155.735
21
-110.781
0
LINE
8
BLACK
6
CONTINUOUS
10
155.735
20
-110.781
11
155.757
21
-110.822
0
LINE
8
BLACK
6
CONTINUOUS
10
155.757
20
-110.822
11
155.77
21
-110.866
0
LINE
8
BLACK
6
CONTINUOUS
10
155.77
20
-110.866
11
155.775
21
-110.912
0
LINE
8
BLACK
6
CONTINUOUS
10
155.775
20
-110.912
11
155.775
21
-111.387
0
LINE
8
BLACK
6
CONTINUOUS
10
155.775
20
-111.387
11
155.77
21
-111.434
0
LINE
8
BLACK
6
CONTINUOUS
10
155.77
20
-111.434
11
155.757
21
-111.478
0
LINE
8
BLACK
6
CONTINUOUS
10
155.757
20
-111.478
11
155.735
21
-111.519
0
LINE
8
BLACK
6
CONTINUOUS
10
155.735
20
-111.519
11
155.705
21
-111.555
0
LINE
8
BLACK
6
CONTINUOUS
10
155.705
20
-111.555
11
155.669
21
-111.585
0
LINE
8
BLACK
6
CONTINUOUS
10
155.669
20
-111.585
11
155.628
21
-111.607
0
LINE
8
BLACK
6
CONTINUOUS
10
155.628
20
-111.607
11
155.584
21
-111.62
0
LINE
8
BLACK
6
CONTINUOUS
10
155.584
20
-111.62
11
155.537
21
-111.625
0
LINE
8
BLACK
6
CONTINUOUS
10
155.537
20
-111.625
11
154.938
21
-111.625
0
LINE
8
BLACK
6
CONTINUOUS
10
154.938
20
-111.625
11
154.891
21
-111.62
0
LINE
8
BLACK
6
CONTINUOUS
10
154.891
20
-111.62
11
154.847
21
-111.607
0
LINE
8
BLACK
6
CONTINUOUS
10
154.847
20
-111.607
11
154.806
21
-111.585
0
LINE
8
BLACK
6
CONTINUOUS
10
154.806
20
-111.585
11
154.77
21
-111.555
0
LINE
8
BLACK
6
CONTINUOUS
10
154.77
20
-111.555
11
154.74
21
-111.519
0
LINE
8
BLACK
6
CONTINUOUS
10
154.74
20
-111.519
11
154.718
21
-111.478
0
LINE
8
BLACK
6
CONTINUOUS
10
154.718
20
-111.478
11
154.705
21
-111.434
0
LINE
8
BLACK
6
CONTINUOUS
10
154.705
20
-111.434
11
154.7
21
-111.387
0
LINE
8
BLACK
6
CONTINUOUS
10
154.7
20
-111.387
11
154.7
21
-110.912
0
LINE
8
BLACK
6
CONTINUOUS
10
154.7
20
-110.912
11
154.705
21
-110.866
0
LINE
8
BLACK
6
CONTINUOUS
10
154.705
20
-110.866
11
154.718
21
-110.822
0
LINE
8
BLACK
6
CONTINUOUS
10
154.718
20
-110.822
11
154.74
21
-110.781
0
LINE
8
BLACK
6
CONTINUOUS
10
154.74
20
-110.781
11
154.77
21
-110.745
0
LINE
8
BLACK
6
CONTINUOUS
10
154.77
20
-110.745
11
154.806
21
-110.715
0
LINE
8
BLACK
6
CONTINUOUS
10
154.806
20
-110.715
11
154.847
21
-110.693
0
LINE
8
BLACK
6
CONTINUOUS
10
154.847
20
-110.693
11
154.891
21
-110.68
0
LINE
8
BLACK
6
CONTINUOUS
10
154.891
20
-110.68
11
154.938
21
-110.675
0
LINE
8
BLACK
6
CONTINUOUS
10
154.938
20
-110.675
11
155.537
21
-110.675
0
LINE
8
BLACK
6
CONTINUOUS
10
155.537
20
-110.675
11
155.584
21
-110.68
0
LINE
8
BLACK
6
CONTINUOUS
10
157.309
20
-110.68
11
157.353
21
-110.693
0
LINE
8
BLACK
6
CONTINUOUS
10
157.353
20
-110.693
11
157.394
21
-110.715
0
LINE
8
BLACK
6
CONTINUOUS
10
157.394
20
-110.715
11
157.43
21
-110.745
0
LINE
8
BLACK
6
CONTINUOUS
10
157.43
20
-110.745
11
157.46
21
-110.781
0
LINE
8
BLACK
6
CONTINUOUS
10
157.46
20
-110.781
11
157.482
21
-110.822
0
LINE
8
BLACK
6
CONTINUOUS
10
157.482
20
-110.822
11
157.495
21
-110.866
0
LINE
8
BLACK
6
CONTINUOUS
10
157.495
20
-110.866
11
157.5
21
-110.912
0
LINE
8
BLACK
6
CONTINUOUS
10
157.5
20
-110.912
11
157.5
21
-111.387
0
LINE
8
BLACK
6
CONTINUOUS
10
157.5
20
-111.387
11
157.495
21
-111.434
0
LINE
8
BLACK
6
CONTINUOUS
10
157.495
20
-111.434
11
157.482
21
-111.478
0
LINE
8
BLACK
6
CONTINUOUS
10
157.482
20
-111.478
11
157.46
21
-111.519
0
LINE
8
BLACK
6
CONTINUOUS
10
157.46
20
-111.519
11
157.43
21
-111.555
0
LINE
8
BLACK
6
CONTINUOUS
10
157.43
20
-111.555
11
157.394
21
-111.585
0
LINE
8
BLACK
6
CONTINUOUS
10
157.394
20
-111.585
11
157.353
21
-111.607
0
LINE
8
BLACK
6
CONTINUOUS
10
157.353
20
-111.607
11
157.309
21
-111.62
0
LINE
8
BLACK
6
CONTINUOUS
10
157.309
20
-111.62
11
157.262
21
-111.625
0
LINE
8
BLACK
6
CONTINUOUS
10
157.262
20
-111.625
11
156.662
21
-111.625
0
LINE
8
BLACK
6
CONTINUOUS
10
156.662
20
-111.625
11
156.616
21
-111.62
0
LINE
8
BLACK
6
CONTINUOUS
10
156.616
20
-111.62
11
156.572
21
-111.607
0
LINE
8
BLACK
6
CONTINUOUS
10
156.572
20
-111.607
11
156.531
21
-111.585
0
LINE
8
BLACK
6
CONTINUOUS
10
156.531
20
-111.585
11
156.495
21
-111.555
0
LINE
8
BLACK
6
CONTINUOUS
10
156.495
20
-111.555
11
156.465
21
-111.519
0
LINE
8
BLACK
6
CONTINUOUS
10
156.465
20
-111.519
11
156.443
21
-111.478
0
LINE
8
BLACK
6
CONTINUOUS
10
156.443
20
-111.478
11
156.43
21
-111.434
0
LINE
8
BLACK
6
CONTINUOUS
10
156.43
20
-111.434
11
156.425
21
-111.387
0
LINE
8
BLACK
6
CONTINUOUS
10
156.425
20
-111.387
11
156.425
21
-110.912
0
LINE
8
BLACK
6
CONTINUOUS
10
156.425
20
-110.912
11
156.43
21
-110.866
0
LINE
8
BLACK
6
CONTINUOUS
10
156.43
20
-110.866
11
156.443
21
-110.822
0
LINE
8
BLACK
6
CONTINUOUS
10
156.443
20
-110.822
11
156.465
21
-110.781
0
LINE
8
BLACK
6
CONTINUOUS
10
156.465
20
-110.781
11
156.495
21
-110.745
0
LINE
8
BLACK
6
CONTINUOUS
10
156.495
20
-110.745
11
156.531
21
-110.715
0
LINE
8
BLACK
6
CONTINUOUS
10
156.531
20
-110.715
11
156.572
21
-110.693
0
LINE
8
BLACK
6
CONTINUOUS
10
156.572
20
-110.693
11
156.616
21
-110.68
0
LINE
8
BLACK
6
CONTINUOUS
10
156.616
20
-110.68
11
156.662
21
-110.675
0
LINE
8
BLACK
6
CONTINUOUS
10
156.662
20
-110.675
11
157.262
21
-110.675
0
LINE
8
BLACK
6
CONTINUOUS
10
157.262
20
-110.675
11
157.309
21
-110.68
0
LINE
8
BLACK
6
CONTINUOUS
10
148.034
20
-109.305
11
148.078
21
-109.318
0
LINE
8
BLACK
6
CONTINUOUS
10
148.078
20
-109.318
11
148.119
21
-109.34
0
LINE
8
BLACK
6
CONTINUOUS
10
148.119
20
-109.34
11
148.155
21
-109.37
0
LINE
8
BLACK
6
CONTINUOUS
10
148.155
20
-109.37
11
148.185
21
-109.406
0
LINE
8
BLACK
6
CONTINUOUS
10
148.185
20
-109.406
11
148.207
21
-109.447
0
LINE
8
BLACK
6
CONTINUOUS
10
148.207
20
-109.447
11
148.22
21
-109.491
0
LINE
8
BLACK
6
CONTINUOUS
10
148.22
20
-109.491
11
148.225
21
-109.537
0
LINE
8
BLACK
6
CONTINUOUS
10
148.225
20
-109.537
11
148.225
21
-110.037
0
LINE
8
BLACK
6
CONTINUOUS
10
148.225
20
-110.037
11
148.22
21
-110.084
0
LINE
8
BLACK
6
CONTINUOUS
10
148.22
20
-110.084
11
148.207
21
-110.128
0
LINE
8
BLACK
6
CONTINUOUS
10
148.207
20
-110.128
11
148.185
21
-110.169
0
LINE
8
BLACK
6
CONTINUOUS
10
148.185
20
-110.169
11
148.155
21
-110.205
0
LINE
8
BLACK
6
CONTINUOUS
10
148.155
20
-110.205
11
148.119
21
-110.235
0
LINE
8
BLACK
6
CONTINUOUS
10
148.119
20
-110.235
11
148.078
21
-110.257
0
LINE
8
BLACK
6
CONTINUOUS
10
148.078
20
-110.257
11
148.034
21
-110.27
0
LINE
8
BLACK
6
CONTINUOUS
10
148.034
20
-110.27
11
147.987
21
-110.275
0
LINE
8
BLACK
6
CONTINUOUS
10
147.987
20
-110.275
11
147.512
21
-110.275
0
LINE
8
BLACK
6
CONTINUOUS
10
147.512
20
-110.275
11
147.466
21
-110.27
0
LINE
8
BLACK
6
CONTINUOUS
10
147.466
20
-110.27
11
147.422
21
-110.257
0
LINE
8
BLACK
6
CONTINUOUS
10
147.422
20
-110.257
11
147.381
21
-110.235
0
LINE
8
BLACK
6
CONTINUOUS
10
147.381
20
-110.235
11
147.345
21
-110.205
0
LINE
8
BLACK
6
CONTINUOUS
10
147.345
20
-110.205
11
147.315
21
-110.169
0
LINE
8
BLACK
6
CONTINUOUS
10
147.315
20
-110.169
11
147.293
21
-110.128
0
LINE
8
BLACK
6
CONTINUOUS
10
147.293
20
-110.128
11
147.28
21
-110.084
0
LINE
8
BLACK
6
CONTINUOUS
10
147.28
20
-110.084
11
147.275
21
-110.037
0
LINE
8
BLACK
6
CONTINUOUS
10
147.275
20
-110.037
11
147.275
21
-109.537
0
LINE
8
BLACK
6
CONTINUOUS
10
147.275
20
-109.537
11
147.28
21
-109.491
0
LINE
8
BLACK
6
CONTINUOUS
10
147.28
20
-109.491
11
147.293
21
-109.447
0
LINE
8
BLACK
6
CONTINUOUS
10
147.293
20
-109.447
11
147.315
21
-109.406
0
LINE
8
BLACK
6
CONTINUOUS
10
147.315
20
-109.406
11
147.345
21
-109.37
0
LINE
8
BLACK
6
CONTINUOUS
10
147.345
20
-109.37
11
147.381
21
-109.34
0
LINE
8
BLACK
6
CONTINUOUS
10
147.381
20
-109.34
11
147.422
21
-109.318
0
LINE
8
BLACK
6
CONTINUOUS
10
147.422
20
-109.318
11
147.466
21
-109.305
0
LINE
8
BLACK
6
CONTINUOUS
10
147.466
20
-109.305
11
147.512
21
-109.3
0
LINE
8
BLACK
6
CONTINUOUS
10
147.512
20
-109.3
11
147.987
21
-109.3
0
LINE
8
BLACK
6
CONTINUOUS
10
147.987
20
-109.3
11
148.034
21
-109.305
0
LINE
8
BLACK
6
CONTINUOUS
10
151.184
20
-108.73
11
151.228
21
-108.743
0
LINE
8
BLACK
6
CONTINUOUS
10
151.228
20
-108.743
11
151.269
21
-108.765
0
LINE
8
BLACK
6
CONTINUOUS
10
151.269
20
-108.765
11
151.305
21
-108.795
0
LINE
8
BLACK
6
CONTINUOUS
10
151.305
20
-108.795
11
151.335
21
-108.831
0
LINE
8
BLACK
6
CONTINUOUS
10
151.335
20
-108.831
11
151.357
21
-108.872
0
LINE
8
BLACK
6
CONTINUOUS
10
151.357
20
-108.872
11
151.37
21
-108.916
0
LINE
8
BLACK
6
CONTINUOUS
10
151.37
20
-108.916
11
151.375
21
-108.962
0
LINE
8
BLACK
6
CONTINUOUS
10
151.375
20
-108.962
11
151.375
21
-109.462
0
LINE
8
BLACK
6
CONTINUOUS
10
151.375
20
-109.462
11
151.37
21
-109.509
0
LINE
8
BLACK
6
CONTINUOUS
10
151.37
20
-109.509
11
151.357
21
-109.553
0
LINE
8
BLACK
6
CONTINUOUS
10
151.357
20
-109.553
11
151.335
21
-109.594
0
LINE
8
BLACK
6
CONTINUOUS
10
151.335
20
-109.594
11
151.305
21
-109.63
0
LINE
8
BLACK
6
CONTINUOUS
10
151.305
20
-109.63
11
151.269
21
-109.66
0
LINE
8
BLACK
6
CONTINUOUS
10
151.269
20
-109.66
11
151.228
21
-109.682
0
LINE
8
BLACK
6
CONTINUOUS
10
151.228
20
-109.682
11
151.184
21
-109.695
0
LINE
8
BLACK
6
CONTINUOUS
10
151.184
20
-109.695
11
151.137
21
-109.7
0
LINE
8
BLACK
6
CONTINUOUS
10
151.137
20
-109.7
11
150.662
21
-109.7
0
LINE
8
BLACK
6
CONTINUOUS
10
150.662
20
-109.7
11
150.616
21
-109.695
0
LINE
8
BLACK
6
CONTINUOUS
10
150.616
20
-109.695
11
150.572
21
-109.682
0
LINE
8
BLACK
6
CONTINUOUS
10
150.572
20
-109.682
11
150.531
21
-109.66
0
LINE
8
BLACK
6
CONTINUOUS
10
150.531
20
-109.66
11
150.495
21
-109.63
0
LINE
8
BLACK
6
CONTINUOUS
10
150.495
20
-109.63
11
150.465
21
-109.594
0
LINE
8
BLACK
6
CONTINUOUS
10
150.465
20
-109.594
11
150.443
21
-109.553
0
LINE
8
BLACK
6
CONTINUOUS
10
150.443
20
-109.553
11
150.43
21
-109.509
0
LINE
8
BLACK
6
CONTINUOUS
10
150.43
20
-109.509
11
150.425
21
-109.462
0
LINE
8
BLACK
6
CONTINUOUS
10
150.425
20
-109.462
11
150.425
21
-108.962
0
LINE
8
BLACK
6
CONTINUOUS
10
150.425
20
-108.962
11
150.43
21
-108.916
0
LINE
8
BLACK
6
CONTINUOUS
10
150.43
20
-108.916
11
150.443
21
-108.872
0
LINE
8
BLACK
6
CONTINUOUS
10
150.443
20
-108.872
11
150.465
21
-108.831
0
LINE
8
BLACK
6
CONTINUOUS
10
150.465
20
-108.831
11
150.495
21
-108.795
0
LINE
8
BLACK
6
CONTINUOUS
10
150.495
20
-108.795
11
150.531
21
-108.765
0
LINE
8
BLACK
6
CONTINUOUS
10
150.531
20
-108.765
11
150.572
21
-108.743
0
LINE
8
BLACK
6
CONTINUOUS
10
150.572
20
-108.743
11
150.616
21
-108.73
0
LINE
8
BLACK
6
CONTINUOUS
10
150.616
20
-108.73
11
150.662
21
-108.725
0
LINE
8
BLACK
6
CONTINUOUS
10
150.662
20
-108.725
11
151.137
21
-108.725
0
LINE
8
BLACK
6
CONTINUOUS
10
151.137
20
-108.725
11
151.184
21
-108.73
0
LINE
8
BLACK
6
CONTINUOUS
10
149.634
20
-108.717
11
149.678
21
-108.731
0
LINE
8
BLACK
6
CONTINUOUS
10
149.678
20
-108.731
11
149.719
21
-108.753
0
LINE
8
BLACK
6
CONTINUOUS
10
149.719
20
-108.753
11
149.755
21
-108.782
0
LINE
8
BLACK
6
CONTINUOUS
10
149.755
20
-108.782
11
149.785
21
-108.818
0
LINE
8
BLACK
6
CONTINUOUS
10
149.785
20
-108.818
11
149.807
21
-108.859
0
LINE
8
BLACK
6
CONTINUOUS
10
149.807
20
-108.859
11
149.82
21
-108.904
0
LINE
8
BLACK
6
CONTINUOUS
10
149.82
20
-108.904
11
149.825
21
-108.95
0
LINE
8
BLACK
6
CONTINUOUS
10
149.825
20
-108.95
11
149.825
21
-109.45
0
LINE
8
BLACK
6
CONTINUOUS
10
149.825
20
-109.45
11
149.82
21
-109.496
0
LINE
8
BLACK
6
CONTINUOUS
10
149.82
20
-109.496
11
149.807
21
-109.541
0
LINE
8
BLACK
6
CONTINUOUS
10
149.807
20
-109.541
11
149.785
21
-109.582
0
LINE
8
BLACK
6
CONTINUOUS
10
149.785
20
-109.582
11
149.755
21
-109.618
0
LINE
8
BLACK
6
CONTINUOUS
10
149.755
20
-109.618
11
149.719
21
-109.647
0
LINE
8
BLACK
6
CONTINUOUS
10
149.719
20
-109.647
11
149.678
21
-109.669
0
LINE
8
BLACK
6
CONTINUOUS
10
149.678
20
-109.669
11
149.634
21
-109.683
0
LINE
8
BLACK
6
CONTINUOUS
10
149.634
20
-109.683
11
149.588
21
-109.688
0
LINE
8
BLACK
6
CONTINUOUS
10
149.588
20
-109.688
11
149.112
21
-109.688
0
LINE
8
BLACK
6
CONTINUOUS
10
149.112
20
-109.688
11
149.066
21
-109.683
0
LINE
8
BLACK
6
CONTINUOUS
10
149.066
20
-109.683
11
149.022
21
-109.669
0
LINE
8
BLACK
6
CONTINUOUS
10
149.022
20
-109.669
11
148.981
21
-109.647
0
LINE
8
BLACK
6
CONTINUOUS
10
148.981
20
-109.647
11
148.945
21
-109.618
0
LINE
8
BLACK
6
CONTINUOUS
10
148.945
20
-109.618
11
148.915
21
-109.582
0
LINE
8
BLACK
6
CONTINUOUS
10
148.915
20
-109.582
11
148.893
21
-109.541
0
LINE
8
BLACK
6
CONTINUOUS
10
148.893
20
-109.541
11
148.88
21
-109.496
0
LINE
8
BLACK
6
CONTINUOUS
10
148.88
20
-109.496
11
148.875
21
-109.45
0
LINE
8
BLACK
6
CONTINUOUS
10
148.875
20
-109.45
11
148.875
21
-108.95
0
LINE
8
BLACK
6
CONTINUOUS
10
148.875
20
-108.95
11
148.88
21
-108.904
0
LINE
8
BLACK
6
CONTINUOUS
10
148.88
20
-108.904
11
148.893
21
-108.859
0
LINE
8
BLACK
6
CONTINUOUS
10
148.893
20
-108.859
11
148.915
21
-108.818
0
LINE
8
BLACK
6
CONTINUOUS
10
148.915
20
-108.818
11
148.945
21
-108.782
0
LINE
8
BLACK
6
CONTINUOUS
10
148.945
20
-108.782
11
148.981
21
-108.753
0
LINE
8
BLACK
6
CONTINUOUS
10
148.981
20
-108.753
11
149.022
21
-108.731
0
LINE
8
BLACK
6
CONTINUOUS
10
149.022
20
-108.731
11
149.066
21
-108.717
0
LINE
8
BLACK
6
CONTINUOUS
10
149.066
20
-108.717
11
149.112
21
-108.712
0
LINE
8
BLACK
6
CONTINUOUS
10
149.112
20
-108.712
11
149.588
21
-108.712
0
LINE
8
BLACK
6
CONTINUOUS
10
149.588
20
-108.712
11
149.634
21
-108.717
0
LINE
8
BLACK
6
CONTINUOUS
10
146.134
20
-107.742
11
146.178
21
-107.756
0
LINE
8
BLACK
6
CONTINUOUS
10
146.178
20
-107.756
11
146.219
21
-107.778
0
LINE
8
BLACK
6
CONTINUOUS
10
146.219
20
-107.778
11
146.255
21
-107.807
0
LINE
8
BLACK
6
CONTINUOUS
10
146.255
20
-107.807
11
146.285
21
-107.843
0
LINE
8
BLACK
6
CONTINUOUS
10
146.285
20
-107.843
11
146.307
21
-107.884
0
LINE
8
BLACK
6
CONTINUOUS
10
146.307
20
-107.884
11
146.32
21
-107.929
0
LINE
8
BLACK
6
CONTINUOUS
10
146.32
20
-107.929
11
146.325
21
-107.975
0
LINE
8
BLACK
6
CONTINUOUS
10
146.325
20
-107.975
11
146.325
21
-108.475
0
LINE
8
BLACK
6
CONTINUOUS
10
146.325
20
-108.475
11
146.32
21
-108.521
0
LINE
8
BLACK
6
CONTINUOUS
10
146.32
20
-108.521
11
146.307
21
-108.566
0
LINE
8
BLACK
6
CONTINUOUS
10
146.307
20
-108.566
11
146.285
21
-108.607
0
LINE
8
BLACK
6
CONTINUOUS
10
146.285
20
-108.607
11
146.255
21
-108.643
0
LINE
8
BLACK
6
CONTINUOUS
10
146.255
20
-108.643
11
146.219
21
-108.672
0
LINE
8
BLACK
6
CONTINUOUS
10
146.219
20
-108.672
11
146.178
21
-108.694
0
LINE
8
BLACK
6
CONTINUOUS
10
146.178
20
-108.694
11
146.134
21
-108.708
0
LINE
8
BLACK
6
CONTINUOUS
10
146.134
20
-108.708
11
146.088
21
-108.712
0
LINE
8
BLACK
6
CONTINUOUS
10
146.088
20
-108.712
11
145.612
21
-108.712
0
LINE
8
BLACK
6
CONTINUOUS
10
145.612
20
-108.712
11
145.566
21
-108.708
0
LINE
8
BLACK
6
CONTINUOUS
10
145.566
20
-108.708
11
145.522
21
-108.694
0
LINE
8
BLACK
6
CONTINUOUS
10
145.522
20
-108.694
11
145.481
21
-108.672
0
LINE
8
BLACK
6
CONTINUOUS
10
145.481
20
-108.672
11
145.445
21
-108.643
0
LINE
8
BLACK
6
CONTINUOUS
10
145.445
20
-108.643
11
145.415
21
-108.607
0
LINE
8
BLACK
6
CONTINUOUS
10
145.415
20
-108.607
11
145.393
21
-108.566
0
LINE
8
BLACK
6
CONTINUOUS
10
145.393
20
-108.566
11
145.38
21
-108.521
0
LINE
8
BLACK
6
CONTINUOUS
10
145.38
20
-108.521
11
145.375
21
-108.475
0
LINE
8
BLACK
6
CONTINUOUS
10
145.375
20
-108.475
11
145.375
21
-107.975
0
LINE
8
BLACK
6
CONTINUOUS
10
145.375
20
-107.975
11
145.38
21
-107.929
0
LINE
8
BLACK
6
CONTINUOUS
10
145.38
20
-107.929
11
145.393
21
-107.884
0
LINE
8
BLACK
6
CONTINUOUS
10
145.393
20
-107.884
11
145.415
21
-107.843
0
LINE
8
BLACK
6
CONTINUOUS
10
145.415
20
-107.843
11
145.445
21
-107.807
0
LINE
8
BLACK
6
CONTINUOUS
10
145.445
20
-107.807
11
145.481
21
-107.778
0
LINE
8
BLACK
6
CONTINUOUS
10
145.481
20
-107.778
11
145.522
21
-107.756
0
LINE
8
BLACK
6
CONTINUOUS
10
145.522
20
-107.756
11
145.566
21
-107.742
0
LINE
8
BLACK
6
CONTINUOUS
10
145.566
20
-107.742
11
145.612
21
-107.737
0
LINE
8
BLACK
6
CONTINUOUS
10
145.612
20
-107.737
11
146.088
21
-107.737
0
LINE
8
BLACK
6
CONTINUOUS
10
146.088
20
-107.737
11
146.134
21
-107.742
0
LINE
8
BLACK
6
CONTINUOUS
10
147.634
20
-107.717
11
147.678
21
-107.731
0
LINE
8
BLACK
6
CONTINUOUS
10
147.678
20
-107.731
11
147.719
21
-107.753
0
LINE
8
BLACK
6
CONTINUOUS
10
147.719
20
-107.753
11
147.755
21
-107.782
0
LINE
8
BLACK
6
CONTINUOUS
10
147.755
20
-107.782
11
147.785
21
-107.818
0
LINE
8
BLACK
6
CONTINUOUS
10
147.785
20
-107.818
11
147.807
21
-107.859
0
LINE
8
BLACK
6
CONTINUOUS
10
147.807
20
-107.859
11
147.82
21
-107.904
0
LINE
8
BLACK
6
CONTINUOUS
10
147.82
20
-107.904
11
147.825
21
-107.95
0
LINE
8
BLACK
6
CONTINUOUS
10
147.825
20
-107.95
11
147.825
21
-108.45
0
LINE
8
BLACK
6
CONTINUOUS
10
147.825
20
-108.45
11
147.82
21
-108.496
0
LINE
8
BLACK
6
CONTINUOUS
10
147.82
20
-108.496
11
147.807
21
-108.541
0
LINE
8
BLACK
6
CONTINUOUS
10
147.807
20
-108.541
11
147.785
21
-108.582
0
LINE
8
BLACK
6
CONTINUOUS
10
147.785
20
-108.582
11
147.755
21
-108.618
0
LINE
8
BLACK
6
CONTINUOUS
10
147.755
20
-108.618
11
147.719
21
-108.647
0
LINE
8
BLACK
6
CONTINUOUS
10
147.719
20
-108.647
11
147.678
21
-108.669
0
LINE
8
BLACK
6
CONTINUOUS
10
147.678
20
-108.669
11
147.634
21
-108.683
0
LINE
8
BLACK
6
CONTINUOUS
10
147.634
20
-108.683
11
147.588
21
-108.688
0
LINE
8
BLACK
6
CONTINUOUS
10
147.588
20
-108.688
11
147.112
21
-108.688
0
LINE
8
BLACK
6
CONTINUOUS
10
147.112
20
-108.688
11
147.066
21
-108.683
0
LINE
8
BLACK
6
CONTINUOUS
10
147.066
20
-108.683
11
147.022
21
-108.669
0
LINE
8
BLACK
6
CONTINUOUS
10
147.022
20
-108.669
11
146.981
21
-108.647
0
LINE
8
BLACK
6
CONTINUOUS
10
146.981
20
-108.647
11
146.945
21
-108.618
0
LINE
8
BLACK
6
CONTINUOUS
10
146.945
20
-108.618
11
146.915
21
-108.582
0
LINE
8
BLACK
6
CONTINUOUS
10
146.915
20
-108.582
11
146.893
21
-108.541
0
LINE
8
BLACK
6
CONTINUOUS
10
146.893
20
-108.541
11
146.88
21
-108.496
0
LINE
8
BLACK
6
CONTINUOUS
10
146.88
20
-108.496
11
146.875
21
-108.45
0
LINE
8
BLACK
6
CONTINUOUS
10
146.875
20
-108.45
11
146.875
21
-107.95
0
LINE
8
BLACK
6
CONTINUOUS
10
146.875
20
-107.95
11
146.88
21
-107.904
0
LINE
8
BLACK
6
CONTINUOUS
10
146.88
20
-107.904
11
146.893
21
-107.859
0
LINE
8
BLACK
6
CONTINUOUS
10
146.893
20
-107.859
11
146.915
21
-107.818
0
LINE
8
BLACK
6
CONTINUOUS
10
146.915
20
-107.818
11
146.945
21
-107.782
0
LINE
8
BLACK
6
CONTINUOUS
10
146.945
20
-107.782
11
146.981
21
-107.753
0
LINE
8
BLACK
6
CONTINUOUS
10
146.981
20
-107.753
11
147.022
21
-107.731
0
LINE
8
BLACK
6
CONTINUOUS
10
147.022
20
-107.731
11
147.066
21
-107.717
0
LINE
8
BLACK
6
CONTINUOUS
10
147.066
20
-107.717
11
147.112
21
-107.712
0
LINE
8
BLACK
6
CONTINUOUS
10
147.112
20
-107.712
11
147.588
21
-107.712
0
LINE
8
BLACK
6
CONTINUOUS
10
147.588
20
-107.712
11
147.634
21
-107.717
0
LINE
8
BLACK
6
CONTINUOUS
10
151.184
20
-106.905
11
151.228
21
-106.918
0
LINE
8
BLACK
6
CONTINUOUS
10
151.228
20
-106.918
11
151.269
21
-106.94
0
LINE
8
BLACK
6
CONTINUOUS
10
151.269
20
-106.94
11
151.305
21
-106.97
0
LINE
8
BLACK
6
CONTINUOUS
10
151.305
20
-106.97
11
151.335
21
-107.006
0
LINE
8
BLACK
6
CONTINUOUS
10
151.335
20
-107.006
11
151.357
21
-107.047
0
LINE
8
BLACK
6
CONTINUOUS
10
151.357
20
-107.047
11
151.37
21
-107.091
0
LINE
8
BLACK
6
CONTINUOUS
10
151.37
20
-107.091
11
151.375
21
-107.137
0
LINE
8
BLACK
6
CONTINUOUS
10
151.375
20
-107.137
11
151.375
21
-107.637
0
LINE
8
BLACK
6
CONTINUOUS
10
151.375
20
-107.637
11
151.37
21
-107.684
0
LINE
8
BLACK
6
CONTINUOUS
10
151.37
20
-107.684
11
151.357
21
-107.728
0
LINE
8
BLACK
6
CONTINUOUS
10
151.357
20
-107.728
11
151.335
21
-107.769
0
LINE
8
BLACK
6
CONTINUOUS
10
151.335
20
-107.769
11
151.305
21
-107.805
0
LINE
8
BLACK
6
CONTINUOUS
10
151.305
20
-107.805
11
151.269
21
-107.835
0
LINE
8
BLACK
6
CONTINUOUS
10
151.269
20
-107.835
11
151.228
21
-107.857
0
LINE
8
BLACK
6
CONTINUOUS
10
151.228
20
-107.857
11
151.184
21
-107.87
0
LINE
8
BLACK
6
CONTINUOUS
10
151.184
20
-107.87
11
151.137
21
-107.875
0
LINE
8
BLACK
6
CONTINUOUS
10
151.137
20
-107.875
11
150.662
21
-107.875
0
LINE
8
BLACK
6
CONTINUOUS
10
150.662
20
-107.875
11
150.616
21
-107.87
0
LINE
8
BLACK
6
CONTINUOUS
10
150.616
20
-107.87
11
150.572
21
-107.857
0
LINE
8
BLACK
6
CONTINUOUS
10
150.572
20
-107.857
11
150.531
21
-107.835
0
LINE
8
BLACK
6
CONTINUOUS
10
150.531
20
-107.835
11
150.495
21
-107.805
0
LINE
8
BLACK
6
CONTINUOUS
10
150.495
20
-107.805
11
150.465
21
-107.769
0
LINE
8
BLACK
6
CONTINUOUS
10
150.465
20
-107.769
11
150.443
21
-107.728
0
LINE
8
BLACK
6
CONTINUOUS
10
150.443
20
-107.728
11
150.43
21
-107.684
0
LINE
8
BLACK
6
CONTINUOUS
10
150.43
20
-107.684
11
150.425
21
-107.637
0
LINE
8
BLACK
6
CONTINUOUS
10
150.425
20
-107.637
11
150.425
21
-107.137
0
LINE
8
BLACK
6
CONTINUOUS
10
150.425
20
-107.137
11
150.43
21
-107.091
0
LINE
8
BLACK
6
CONTINUOUS
10
150.43
20
-107.091
11
150.443
21
-107.047
0
LINE
8
BLACK
6
CONTINUOUS
10
150.443
20
-107.047
11
150.465
21
-107.006
0
LINE
8
BLACK
6
CONTINUOUS
10
150.465
20
-107.006
11
150.495
21
-106.97
0
LINE
8
BLACK
6
CONTINUOUS
10
150.495
20
-106.97
11
150.531
21
-106.94
0
LINE
8
BLACK
6
CONTINUOUS
10
150.531
20
-106.94
11
150.572
21
-106.918
0
LINE
8
BLACK
6
CONTINUOUS
10
150.572
20
-106.918
11
150.616
21
-106.905
0
LINE
8
BLACK
6
CONTINUOUS
10
150.616
20
-106.905
11
150.662
21
-106.9
0
LINE
8
BLACK
6
CONTINUOUS
10
150.662
20
-106.9
11
151.137
21
-106.9
0
LINE
8
BLACK
6
CONTINUOUS
10
151.137
20
-106.9
11
151.184
21
-106.905
0
LINE
8
BLACK
6
CONTINUOUS
10
149.634
20
-106.892
11
149.678
21
-106.906
0
LINE
8
BLACK
6
CONTINUOUS
10
149.678
20
-106.906
11
149.719
21
-106.928
0
LINE
8
BLACK
6
CONTINUOUS
10
149.719
20
-106.928
11
149.755
21
-106.957
0
LINE
8
BLACK
6
CONTINUOUS
10
149.755
20
-106.957
11
149.785
21
-106.993
0
LINE
8
BLACK
6
CONTINUOUS
10
149.785
20
-106.993
11
149.807
21
-107.034
0
LINE
8
BLACK
6
CONTINUOUS
10
149.807
20
-107.034
11
149.82
21
-107.079
0
LINE
8
BLACK
6
CONTINUOUS
10
149.82
20
-107.079
11
149.825
21
-107.125
0
LINE
8
BLACK
6
CONTINUOUS
10
149.825
20
-107.125
11
149.825
21
-107.625
0
LINE
8
BLACK
6
CONTINUOUS
10
149.825
20
-107.625
11
149.82
21
-107.671
0
LINE
8
BLACK
6
CONTINUOUS
10
149.82
20
-107.671
11
149.807
21
-107.716
0
LINE
8
BLACK
6
CONTINUOUS
10
149.807
20
-107.716
11
149.785
21
-107.757
0
LINE
8
BLACK
6
CONTINUOUS
10
149.785
20
-107.757
11
149.755
21
-107.793
0
LINE
8
BLACK
6
CONTINUOUS
10
149.755
20
-107.793
11
149.719
21
-107.822
0
LINE
8
BLACK
6
CONTINUOUS
10
149.719
20
-107.822
11
149.678
21
-107.844
0
LINE
8
BLACK
6
CONTINUOUS
10
149.678
20
-107.844
11
149.634
21
-107.858
0
LINE
8
BLACK
6
CONTINUOUS
10
149.634
20
-107.858
11
149.588
21
-107.862
0
LINE
8
BLACK
6
CONTINUOUS
10
149.588
20
-107.862
11
149.112
21
-107.862
0
LINE
8
BLACK
6
CONTINUOUS
10
149.112
20
-107.862
11
149.066
21
-107.858
0
LINE
8
BLACK
6
CONTINUOUS
10
149.066
20
-107.858
11
149.022
21
-107.844
0
LINE
8
BLACK
6
CONTINUOUS
10
149.022
20
-107.844
11
148.981
21
-107.822
0
LINE
8
BLACK
6
CONTINUOUS
10
148.981
20
-107.822
11
148.945
21
-107.793
0
LINE
8
BLACK
6
CONTINUOUS
10
148.945
20
-107.793
11
148.915
21
-107.757
0
LINE
8
BLACK
6
CONTINUOUS
10
148.915
20
-107.757
11
148.893
21
-107.716
0
LINE
8
BLACK
6
CONTINUOUS
10
148.893
20
-107.716
11
148.88
21
-107.671
0
LINE
8
BLACK
6
CONTINUOUS
10
148.88
20
-107.671
11
148.875
21
-107.625
0
LINE
8
BLACK
6
CONTINUOUS
10
148.875
20
-107.625
11
148.875
21
-107.125
0
LINE
8
BLACK
6
CONTINUOUS
10
148.875
20
-107.125
11
148.88
21
-107.079
0
LINE
8
BLACK
6
CONTINUOUS
10
148.88
20
-107.079
11
148.893
21
-107.034
0
LINE
8
BLACK
6
CONTINUOUS
10
148.893
20
-107.034
11
148.915
21
-106.993
0
LINE
8
BLACK
6
CONTINUOUS
10
148.915
20
-106.993
11
148.945
21
-106.957
0
LINE
8
BLACK
6
CONTINUOUS
10
148.945
20
-106.957
11
148.981
21
-106.928
0
LINE
8
BLACK
6
CONTINUOUS
10
148.981
20
-106.928
11
149.022
21
-106.906
0
LINE
8
BLACK
6
CONTINUOUS
10
149.022
20
-106.906
11
149.066
21
-106.892
0
LINE
8
BLACK
6
CONTINUOUS
10
149.066
20
-106.892
11
149.112
21
-106.887
0
LINE
8
BLACK
6
CONTINUOUS
10
149.112
20
-106.887
11
149.588
21
-106.887
0
LINE
8
BLACK
6
CONTINUOUS
10
149.588
20
-106.887
11
149.634
21
-106.892
0
LINE
8
BLACK
6
CONTINUOUS
10
146.134
20
-105.917
11
146.178
21
-105.931
0
LINE
8
BLACK
6
CONTINUOUS
10
146.178
20
-105.931
11
146.219
21
-105.953
0
LINE
8
BLACK
6
CONTINUOUS
10
146.219
20
-105.953
11
146.255
21
-105.982
0
LINE
8
BLACK
6
CONTINUOUS
10
146.255
20
-105.982
11
146.285
21
-106.018
0
LINE
8
BLACK
6
CONTINUOUS
10
146.285
20
-106.018
11
146.307
21
-106.059
0
LINE
8
BLACK
6
CONTINUOUS
10
146.307
20
-106.059
11
146.32
21
-106.104
0
LINE
8
BLACK
6
CONTINUOUS
10
146.32
20
-106.104
11
146.325
21
-106.15
0
LINE
8
BLACK
6
CONTINUOUS
10
146.325
20
-106.15
11
146.325
21
-106.65
0
LINE
8
BLACK
6
CONTINUOUS
10
146.325
20
-106.65
11
146.32
21
-106.696
0
LINE
8
BLACK
6
CONTINUOUS
10
146.32
20
-106.696
11
146.307
21
-106.741
0
LINE
8
BLACK
6
CONTINUOUS
10
146.307
20
-106.741
11
146.285
21
-106.782
0
LINE
8
BLACK
6
CONTINUOUS
10
146.285
20
-106.782
11
146.255
21
-106.818
0
LINE
8
BLACK
6
CONTINUOUS
10
146.255
20
-106.818
11
146.219
21
-106.847
0
LINE
8
BLACK
6
CONTINUOUS
10
146.219
20
-106.847
11
146.178
21
-106.869
0
LINE
8
BLACK
6
CONTINUOUS
10
146.178
20
-106.869
11
146.134
21
-106.883
0
LINE
8
BLACK
6
CONTINUOUS
10
146.134
20
-106.883
11
146.088
21
-106.887
0
LINE
8
BLACK
6
CONTINUOUS
10
146.088
20
-106.887
11
145.612
21
-106.887
0
LINE
8
BLACK
6
CONTINUOUS
10
145.612
20
-106.887
11
145.566
21
-106.883
0
LINE
8
BLACK
6
CONTINUOUS
10
145.566
20
-106.883
11
145.522
21
-106.869
0
LINE
8
BLACK
6
CONTINUOUS
10
145.522
20
-106.869
11
145.481
21
-106.847
0
LINE
8
BLACK
6
CONTINUOUS
10
145.481
20
-106.847
11
145.445
21
-106.818
0
LINE
8
BLACK
6
CONTINUOUS
10
145.445
20
-106.818
11
145.415
21
-106.782
0
LINE
8
BLACK
6
CONTINUOUS
10
145.415
20
-106.782
11
145.393
21
-106.741
0
LINE
8
BLACK
6
CONTINUOUS
10
145.393
20
-106.741
11
145.38
21
-106.696
0
LINE
8
BLACK
6
CONTINUOUS
10
145.38
20
-106.696
11
145.375
21
-106.65
0
LINE
8
BLACK
6
CONTINUOUS
10
145.375
20
-106.65
11
145.375
21
-106.15
0
LINE
8
BLACK
6
CONTINUOUS
10
145.375
20
-106.15
11
145.38
21
-106.104
0
LINE
8
BLACK
6
CONTINUOUS
10
145.38
20
-106.104
11
145.393
21
-106.059
0
LINE
8
BLACK
6
CONTINUOUS
10
145.393
20
-106.059
11
145.415
21
-106.018
0
LINE
8
BLACK
6
CONTINUOUS
10
145.415
20
-106.018
11
145.445
21
-105.982
0
LINE
8
BLACK
6
CONTINUOUS
10
145.445
20
-105.982
11
145.481
21
-105.953
0
LINE
8
BLACK
6
CONTINUOUS
10
145.481
20
-105.953
11
145.522
21
-105.931
0
LINE
8
BLACK
6
CONTINUOUS
10
145.522
20
-105.931
11
145.566
21
-105.917
0
LINE
8
BLACK
6
CONTINUOUS
10
145.566
20
-105.917
11
145.612
21
-105.912
0
LINE
8
BLACK
6
CONTINUOUS
10
145.612
20
-105.912
11
146.088
21
-105.912
0
LINE
8
BLACK
6
CONTINUOUS
10
146.088
20
-105.912
11
146.134
21
-105.917
0
LINE
8
BLACK
6
CONTINUOUS
10
147.634
20
-105.892
11
147.678
21
-105.906
0
LINE
8
BLACK
6
CONTINUOUS
10
147.678
20
-105.906
11
147.719
21
-105.928
0
LINE
8
BLACK
6
CONTINUOUS
10
147.719
20
-105.928
11
147.755
21
-105.957
0
LINE
8
BLACK
6
CONTINUOUS
10
147.755
20
-105.957
11
147.785
21
-105.993
0
LINE
8
BLACK
6
CONTINUOUS
10
147.785
20
-105.993
11
147.807
21
-106.034
0
LINE
8
BLACK
6
CONTINUOUS
10
147.807
20
-106.034
11
147.82
21
-106.079
0
LINE
8
BLACK
6
CONTINUOUS
10
147.82
20
-106.079
11
147.825
21
-106.125
0
LINE
8
BLACK
6
CONTINUOUS
10
147.825
20
-106.125
11
147.825
21
-106.625
0
LINE
8
BLACK
6
CONTINUOUS
10
147.825
20
-106.625
11
147.82
21
-106.671
0
LINE
8
BLACK
6
CONTINUOUS
10
147.82
20
-106.671
11
147.807
21
-106.716
0
LINE
8
BLACK
6
CONTINUOUS
10
147.807
20
-106.716
11
147.785
21
-106.757
0
LINE
8
BLACK
6
CONTINUOUS
10
147.785
20
-106.757
11
147.755
21
-106.793
0
LINE
8
BLACK
6
CONTINUOUS
10
147.755
20
-106.793
11
147.719
21
-106.822
0
LINE
8
BLACK
6
CONTINUOUS
10
147.719
20
-106.822
11
147.678
21
-106.844
0
LINE
8
BLACK
6
CONTINUOUS
10
147.678
20
-106.844
11
147.634
21
-106.858
0
LINE
8
BLACK
6
CONTINUOUS
10
147.634
20
-106.858
11
147.588
21
-106.862
0
LINE
8
BLACK
6
CONTINUOUS
10
147.588
20
-106.862
11
147.112
21
-106.862
0
LINE
8
BLACK
6
CONTINUOUS
10
147.112
20
-106.862
11
147.066
21
-106.858
0
LINE
8
BLACK
6
CONTINUOUS
10
147.066
20
-106.858
11
147.022
21
-106.844
0
LINE
8
BLACK
6
CONTINUOUS
10
147.022
20
-106.844
11
146.981
21
-106.822
0
LINE
8
BLACK
6
CONTINUOUS
10
146.981
20
-106.822
11
146.945
21
-106.793
0
LINE
8
BLACK
6
CONTINUOUS
10
146.945
20
-106.793
11
146.915
21
-106.757
0
LINE
8
BLACK
6
CONTINUOUS
10
146.915
20
-106.757
11
146.893
21
-106.716
0
LINE
8
BLACK
6
CONTINUOUS
10
146.893
20
-106.716
11
146.88
21
-106.671
0
LINE
8
BLACK
6
CONTINUOUS
10
146.88
20
-106.671
11
146.875
21
-106.625
0
LINE
8
BLACK
6
CONTINUOUS
10
146.875
20
-106.625
11
146.875
21
-106.125
0
LINE
8
BLACK
6
CONTINUOUS
10
146.875
20
-106.125
11
146.88
21
-106.079
0
LINE
8
BLACK
6
CONTINUOUS
10
146.88
20
-106.079
11
146.893
21
-106.034
0
LINE
8
BLACK
6
CONTINUOUS
10
146.893
20
-106.034
11
146.915
21
-105.993
0
LINE
8
BLACK
6
CONTINUOUS
10
146.915
20
-105.993
11
146.945
21
-105.957
0
LINE
8
BLACK
6
CONTINUOUS
10
146.945
20
-105.957
11
146.981
21
-105.928
0
LINE
8
BLACK
6
CONTINUOUS
10
146.981
20
-105.928
11
147.022
21
-105.906
0
LINE
8
BLACK
6
CONTINUOUS
10
147.022
20
-105.906
11
147.066
21
-105.892
0
LINE
8
BLACK
6
CONTINUOUS
10
147.066
20
-105.892
11
147.112
21
-105.887
0
LINE
8
BLACK
6
CONTINUOUS
10
147.112
20
-105.887
11
147.588
21
-105.887
0
LINE
8
BLACK
6
CONTINUOUS
10
147.588
20
-105.887
11
147.634
21
-105.892
0
LINE
8
BLACK
6
CONTINUOUS
10
144.571
20
-104.43
11
144.616
21
-104.443
0
LINE
8
BLACK
6
CONTINUOUS
10
144.616
20
-104.443
11
144.657
21
-104.465
0
LINE
8
BLACK
6
CONTINUOUS
10
144.657
20
-104.465
11
144.693
21
-104.495
0
LINE
8
BLACK
6
CONTINUOUS
10
144.693
20
-104.495
11
144.722
21
-104.531
0
LINE
8
BLACK
6
CONTINUOUS
10
144.722
20
-104.531
11
144.744
21
-104.572
0
LINE
8
BLACK
6
CONTINUOUS
10
144.744
20
-104.572
11
144.758
21
-104.616
0
LINE
8
BLACK
6
CONTINUOUS
10
144.758
20
-104.616
11
144.762
21
-104.662
0
LINE
8
BLACK
6
CONTINUOUS
10
144.762
20
-104.662
11
144.762
21
-105.137
0
LINE
8
BLACK
6
CONTINUOUS
10
144.762
20
-105.137
11
144.758
21
-105.184
0
LINE
8
BLACK
6
CONTINUOUS
10
144.758
20
-105.184
11
144.744
21
-105.228
0
LINE
8
BLACK
6
CONTINUOUS
10
144.744
20
-105.228
11
144.722
21
-105.269
0
LINE
8
BLACK
6
CONTINUOUS
10
144.722
20
-105.269
11
144.693
21
-105.305
0
LINE
8
BLACK
6
CONTINUOUS
10
144.693
20
-105.305
11
144.657
21
-105.335
0
LINE
8
BLACK
6
CONTINUOUS
10
144.657
20
-105.335
11
144.616
21
-105.357
0
LINE
8
BLACK
6
CONTINUOUS
10
144.616
20
-105.357
11
144.571
21
-105.37
0
LINE
8
BLACK
6
CONTINUOUS
10
144.571
20
-105.37
11
144.525
21
-105.375
0
LINE
8
BLACK
6
CONTINUOUS
10
144.525
20
-105.375
11
144.025
21
-105.375
0
LINE
8
BLACK
6
CONTINUOUS
10
144.025
20
-105.375
11
143.979
21
-105.37
0
LINE
8
BLACK
6
CONTINUOUS
10
143.979
20
-105.37
11
143.934
21
-105.357
0
LINE
8
BLACK
6
CONTINUOUS
10
143.934
20
-105.357
11
143.893
21
-105.335
0
LINE
8
BLACK
6
CONTINUOUS
10
143.893
20
-105.335
11
143.857
21
-105.305
0
LINE
8
BLACK
6
CONTINUOUS
10
143.857
20
-105.305
11
143.828
21
-105.269
0
LINE
8
BLACK
6
CONTINUOUS
10
143.828
20
-105.269
11
143.806
21
-105.228
0
LINE
8
BLACK
6
CONTINUOUS
10
143.806
20
-105.228
11
143.792
21
-105.184
0
LINE
8
BLACK
6
CONTINUOUS
10
143.792
20
-105.184
11
143.787
21
-105.137
0
LINE
8
BLACK
6
CONTINUOUS
10
143.787
20
-105.137
11
143.787
21
-104.662
0
LINE
8
BLACK
6
CONTINUOUS
10
143.787
20
-104.662
11
143.792
21
-104.616
0
LINE
8
BLACK
6
CONTINUOUS
10
143.792
20
-104.616
11
143.806
21
-104.572
0
LINE
8
BLACK
6
CONTINUOUS
10
143.806
20
-104.572
11
143.828
21
-104.531
0
LINE
8
BLACK
6
CONTINUOUS
10
143.828
20
-104.531
11
143.857
21
-104.495
0
LINE
8
BLACK
6
CONTINUOUS
10
143.857
20
-104.495
11
143.893
21
-104.465
0
LINE
8
BLACK
6
CONTINUOUS
10
143.893
20
-104.465
11
143.934
21
-104.443
0
LINE
8
BLACK
6
CONTINUOUS
10
143.934
20
-104.443
11
143.979
21
-104.43
0
LINE
8
BLACK
6
CONTINUOUS
10
143.979
20
-104.43
11
144.025
21
-104.425
0
LINE
8
BLACK
6
CONTINUOUS
10
144.025
20
-104.425
11
144.525
21
-104.425
0
LINE
8
BLACK
6
CONTINUOUS
10
144.525
20
-104.425
11
144.571
21
-104.43
0
LINE
8
BLACK
6
CONTINUOUS
10
142.746
20
-104.43
11
142.791
21
-104.443
0
LINE
8
BLACK
6
CONTINUOUS
10
142.791
20
-104.443
11
142.832
21
-104.465
0
LINE
8
BLACK
6
CONTINUOUS
10
142.832
20
-104.465
11
142.868
21
-104.495
0
LINE
8
BLACK
6
CONTINUOUS
10
142.868
20
-104.495
11
142.897
21
-104.531
0
LINE
8
BLACK
6
CONTINUOUS
10
142.897
20
-104.531
11
142.919
21
-104.572
0
LINE
8
BLACK
6
CONTINUOUS
10
142.919
20
-104.572
11
142.933
21
-104.616
0
LINE
8
BLACK
6
CONTINUOUS
10
142.933
20
-104.616
11
142.938
21
-104.662
0
LINE
8
BLACK
6
CONTINUOUS
10
142.938
20
-104.662
11
142.938
21
-105.137
0
LINE
8
BLACK
6
CONTINUOUS
10
142.938
20
-105.137
11
142.933
21
-105.184
0
LINE
8
BLACK
6
CONTINUOUS
10
142.933
20
-105.184
11
142.919
21
-105.228
0
LINE
8
BLACK
6
CONTINUOUS
10
142.919
20
-105.228
11
142.897
21
-105.269
0
LINE
8
BLACK
6
CONTINUOUS
10
142.897
20
-105.269
11
142.868
21
-105.305
0
LINE
8
BLACK
6
CONTINUOUS
10
142.868
20
-105.305
11
142.832
21
-105.335
0
LINE
8
BLACK
6
CONTINUOUS
10
142.832
20
-105.335
11
142.791
21
-105.357
0
LINE
8
BLACK
6
CONTINUOUS
10
142.791
20
-105.357
11
142.746
21
-105.37
0
LINE
8
BLACK
6
CONTINUOUS
10
142.746
20
-105.37
11
142.7
21
-105.375
0
LINE
8
BLACK
6
CONTINUOUS
10
142.7
20
-105.375
11
142.2
21
-105.375
0
LINE
8
BLACK
6
CONTINUOUS
10
142.2
20
-105.375
11
142.154
21
-105.37
0
LINE
8
BLACK
6
CONTINUOUS
10
142.154
20
-105.37
11
142.109
21
-105.357
0
LINE
8
BLACK
6
CONTINUOUS
10
142.109
20
-105.357
11
142.068
21
-105.335
0
LINE
8
BLACK
6
CONTINUOUS
10
142.068
20
-105.335
11
142.032
21
-105.305
0
LINE
8
BLACK
6
CONTINUOUS
10
142.032
20
-105.305
11
142.003
21
-105.269
0
LINE
8
BLACK
6
CONTINUOUS
10
142.003
20
-105.269
11
141.981
21
-105.228
0
LINE
8
BLACK
6
CONTINUOUS
10
141.981
20
-105.228
11
141.967
21
-105.184
0
LINE
8
BLACK
6
CONTINUOUS
10
141.967
20
-105.184
11
141.963
21
-105.137
0
LINE
8
BLACK
6
CONTINUOUS
10
141.963
20
-105.137
11
141.963
21
-104.662
0
LINE
8
BLACK
6
CONTINUOUS
10
141.963
20
-104.662
11
141.967
21
-104.616
0
LINE
8
BLACK
6
CONTINUOUS
10
141.967
20
-104.616
11
141.981
21
-104.572
0
LINE
8
BLACK
6
CONTINUOUS
10
141.981
20
-104.572
11
142.003
21
-104.531
0
LINE
8
BLACK
6
CONTINUOUS
10
142.003
20
-104.531
11
142.032
21
-104.495
0
LINE
8
BLACK
6
CONTINUOUS
10
142.032
20
-104.495
11
142.068
21
-104.465
0
LINE
8
BLACK
6
CONTINUOUS
10
142.068
20
-104.465
11
142.109
21
-104.443
0
LINE
8
BLACK
6
CONTINUOUS
10
142.109
20
-104.443
11
142.154
21
-104.43
0
LINE
8
BLACK
6
CONTINUOUS
10
142.154
20
-104.43
11
142.2
21
-104.425
0
LINE
8
BLACK
6
CONTINUOUS
10
142.2
20
-104.425
11
142.7
21
-104.425
0
LINE
8
BLACK
6
CONTINUOUS
10
142.7
20
-104.425
11
142.746
21
-104.43
0
LINE
8
BLACK
6
CONTINUOUS
10
147.971
20
-104.43
11
148.016
21
-104.443
0
LINE
8
BLACK
6
CONTINUOUS
10
148.016
20
-104.443
11
148.057
21
-104.465
0
LINE
8
BLACK
6
CONTINUOUS
10
148.057
20
-104.465
11
148.093
21
-104.495
0
LINE
8
BLACK
6
CONTINUOUS
10
148.093
20
-104.495
11
148.122
21
-104.531
0
LINE
8
BLACK
6
CONTINUOUS
10
148.122
20
-104.531
11
148.144
21
-104.572
0
LINE
8
BLACK
6
CONTINUOUS
10
148.144
20
-104.572
11
148.158
21
-104.616
0
LINE
8
BLACK
6
CONTINUOUS
10
148.158
20
-104.616
11
148.162
21
-104.662
0
LINE
8
BLACK
6
CONTINUOUS
10
148.162
20
-104.662
11
148.162
21
-105.137
0
LINE
8
BLACK
6
CONTINUOUS
10
148.162
20
-105.137
11
148.158
21
-105.184
0
LINE
8
BLACK
6
CONTINUOUS
10
148.158
20
-105.184
11
148.144
21
-105.228
0
LINE
8
BLACK
6
CONTINUOUS
10
148.144
20
-105.228
11
148.122
21
-105.269
0
LINE
8
BLACK
6
CONTINUOUS
10
148.122
20
-105.269
11
148.093
21
-105.305
0
LINE
8
BLACK
6
CONTINUOUS
10
148.093
20
-105.305
11
148.057
21
-105.335
0
LINE
8
BLACK
6
CONTINUOUS
10
148.057
20
-105.335
11
148.016
21
-105.357
0
LINE
8
BLACK
6
CONTINUOUS
10
148.016
20
-105.357
11
147.971
21
-105.37
0
LINE
8
BLACK
6
CONTINUOUS
10
147.971
20
-105.37
11
147.925
21
-105.375
0
LINE
8
BLACK
6
CONTINUOUS
10
147.925
20
-105.375
11
147.425
21
-105.375
0
LINE
8
BLACK
6
CONTINUOUS
10
147.425
20
-105.375
11
147.379
21
-105.37
0
LINE
8
BLACK
6
CONTINUOUS
10
147.379
20
-105.37
11
147.334
21
-105.357
0
LINE
8
BLACK
6
CONTINUOUS
10
147.334
20
-105.357
11
147.293
21
-105.335
0
LINE
8
BLACK
6
CONTINUOUS
10
147.293
20
-105.335
11
147.257
21
-105.305
0
LINE
8
BLACK
6
CONTINUOUS
10
147.257
20
-105.305
11
147.228
21
-105.269
0
LINE
8
BLACK
6
CONTINUOUS
10
147.228
20
-105.269
11
147.206
21
-105.228
0
LINE
8
BLACK
6
CONTINUOUS
10
147.206
20
-105.228
11
147.192
21
-105.184
0
LINE
8
BLACK
6
CONTINUOUS
10
147.192
20
-105.184
11
147.188
21
-105.137
0
LINE
8
BLACK
6
CONTINUOUS
10
147.188
20
-105.137
11
147.188
21
-104.662
0
LINE
8
BLACK
6
CONTINUOUS
10
147.188
20
-104.662
11
147.192
21
-104.616
0
LINE
8
BLACK
6
CONTINUOUS
10
147.192
20
-104.616
11
147.206
21
-104.572
0
LINE
8
BLACK
6
CONTINUOUS
10
147.206
20
-104.572
11
147.228
21
-104.531
0
LINE
8
BLACK
6
CONTINUOUS
10
147.228
20
-104.531
11
147.257
21
-104.495
0
LINE
8
BLACK
6
CONTINUOUS
10
147.257
20
-104.495
11
147.293
21
-104.465
0
LINE
8
BLACK
6
CONTINUOUS
10
147.293
20
-104.465
11
147.334
21
-104.443
0
LINE
8
BLACK
6
CONTINUOUS
10
147.334
20
-104.443
11
147.379
21
-104.43
0
LINE
8
BLACK
6
CONTINUOUS
10
147.379
20
-104.43
11
147.425
21
-104.425
0
LINE
8
BLACK
6
CONTINUOUS
10
147.425
20
-104.425
11
147.925
21
-104.425
0
LINE
8
BLACK
6
CONTINUOUS
10
147.925
20
-104.425
11
147.971
21
-104.43
0
LINE
8
BLACK
6
CONTINUOUS
10
146.146
20
-104.43
11
146.191
21
-104.443
0
LINE
8
BLACK
6
CONTINUOUS
10
146.191
20
-104.443
11
146.232
21
-104.465
0
LINE
8
BLACK
6
CONTINUOUS
10
146.232
20
-104.465
11
146.268
21
-104.495
0
LINE
8
BLACK
6
CONTINUOUS
10
146.268
20
-104.495
11
146.297
21
-104.531
0
LINE
8
BLACK
6
CONTINUOUS
10
146.297
20
-104.531
11
146.319
21
-104.572
0
LINE
8
BLACK
6
CONTINUOUS
10
146.319
20
-104.572
11
146.333
21
-104.616
0
LINE
8
BLACK
6
CONTINUOUS
10
146.333
20
-104.616
11
146.338
21
-104.662
0
LINE
8
BLACK
6
CONTINUOUS
10
146.338
20
-104.662
11
146.338
21
-105.137
0
LINE
8
BLACK
6
CONTINUOUS
10
146.338
20
-105.137
11
146.333
21
-105.184
0
LINE
8
BLACK
6
CONTINUOUS
10
146.333
20
-105.184
11
146.319
21
-105.228
0
LINE
8
BLACK
6
CONTINUOUS
10
146.319
20
-105.228
11
146.297
21
-105.269
0
LINE
8
BLACK
6
CONTINUOUS
10
146.297
20
-105.269
11
146.268
21
-105.305
0
LINE
8
BLACK
6
CONTINUOUS
10
146.268
20
-105.305
11
146.232
21
-105.335
0
LINE
8
BLACK
6
CONTINUOUS
10
146.232
20
-105.335
11
146.191
21
-105.357
0
LINE
8
BLACK
6
CONTINUOUS
10
146.191
20
-105.357
11
146.146
21
-105.37
0
LINE
8
BLACK
6
CONTINUOUS
10
146.146
20
-105.37
11
146.1
21
-105.375
0
LINE
8
BLACK
6
CONTINUOUS
10
146.1
20
-105.375
11
145.6
21
-105.375
0
LINE
8
BLACK
6
CONTINUOUS
10
145.6
20
-105.375
11
145.554
21
-105.37
0
LINE
8
BLACK
6
CONTINUOUS
10
145.554
20
-105.37
11
145.509
21
-105.357
0
LINE
8
BLACK
6
CONTINUOUS
10
145.509
20
-105.357
11
145.468
21
-105.335
0
LINE
8
BLACK
6
CONTINUOUS
10
145.468
20
-105.335
11
145.432
21
-105.305
0
LINE
8
BLACK
6
CONTINUOUS
10
145.432
20
-105.305
11
145.403
21
-105.269
0
LINE
8
BLACK
6
CONTINUOUS
10
145.403
20
-105.269
11
145.381
21
-105.228
0
LINE
8
BLACK
6
CONTINUOUS
10
145.381
20
-105.228
11
145.367
21
-105.184
0
LINE
8
BLACK
6
CONTINUOUS
10
145.367
20
-105.184
11
145.362
21
-105.137
0
LINE
8
BLACK
6
CONTINUOUS
10
145.362
20
-105.137
11
145.362
21
-104.662
0
LINE
8
BLACK
6
CONTINUOUS
10
145.362
20
-104.662
11
145.367
21
-104.616
0
LINE
8
BLACK
6
CONTINUOUS
10
145.367
20
-104.616
11
145.381
21
-104.572
0
LINE
8
BLACK
6
CONTINUOUS
10
145.381
20
-104.572
11
145.403
21
-104.531
0
LINE
8
BLACK
6
CONTINUOUS
10
145.403
20
-104.531
11
145.432
21
-104.495
0
LINE
8
BLACK
6
CONTINUOUS
10
145.432
20
-104.495
11
145.468
21
-104.465
0
LINE
8
BLACK
6
CONTINUOUS
10
145.468
20
-104.465
11
145.509
21
-104.443
0
LINE
8
BLACK
6
CONTINUOUS
10
145.509
20
-104.443
11
145.554
21
-104.43
0
LINE
8
BLACK
6
CONTINUOUS
10
145.554
20
-104.43
11
145.6
21
-104.425
0
LINE
8
BLACK
6
CONTINUOUS
10
145.6
20
-104.425
11
146.1
21
-104.425
0
LINE
8
BLACK
6
CONTINUOUS
10
146.1
20
-104.425
11
146.146
21
-104.43
0
LINE
8
BLACK
6
CONTINUOUS
10
144.521
20
-101.83
11
144.566
21
-101.843
0
LINE
8
BLACK
6
CONTINUOUS
10
144.566
20
-101.843
11
144.607
21
-101.865
0
LINE
8
BLACK
6
CONTINUOUS
10
144.607
20
-101.865
11
144.643
21
-101.895
0
LINE
8
BLACK
6
CONTINUOUS
10
144.643
20
-101.895
11
144.672
21
-101.931
0
LINE
8
BLACK
6
CONTINUOUS
10
144.672
20
-101.931
11
144.694
21
-101.972
0
LINE
8
BLACK
6
CONTINUOUS
10
144.694
20
-101.972
11
144.708
21
-102.016
0
LINE
8
BLACK
6
CONTINUOUS
10
144.708
20
-102.016
11
144.713
21
-102.062
0
LINE
8
BLACK
6
CONTINUOUS
10
144.713
20
-102.062
11
144.713
21
-102.537
0
LINE
8
BLACK
6
CONTINUOUS
10
144.713
20
-102.537
11
144.708
21
-102.584
0
LINE
8
BLACK
6
CONTINUOUS
10
144.708
20
-102.584
11
144.694
21
-102.628
0
LINE
8
BLACK
6
CONTINUOUS
10
144.694
20
-102.628
11
144.672
21
-102.669
0
LINE
8
BLACK
6
CONTINUOUS
10
144.672
20
-102.669
11
144.643
21
-102.705
0
LINE
8
BLACK
6
CONTINUOUS
10
144.643
20
-102.705
11
144.607
21
-102.735
0
LINE
8
BLACK
6
CONTINUOUS
10
144.607
20
-102.735
11
144.566
21
-102.757
0
LINE
8
BLACK
6
CONTINUOUS
10
144.566
20
-102.757
11
144.521
21
-102.77
0
LINE
8
BLACK
6
CONTINUOUS
10
144.521
20
-102.77
11
144.475
21
-102.775
0
LINE
8
BLACK
6
CONTINUOUS
10
144.475
20
-102.775
11
143.875
21
-102.775
0
LINE
8
BLACK
6
CONTINUOUS
10
143.875
20
-102.775
11
143.829
21
-102.77
0
LINE
8
BLACK
6
CONTINUOUS
10
143.829
20
-102.77
11
143.784
21
-102.757
0
LINE
8
BLACK
6
CONTINUOUS
10
143.784
20
-102.757
11
143.743
21
-102.735
0
LINE
8
BLACK
6
CONTINUOUS
10
143.743
20
-102.735
11
143.707
21
-102.705
0
LINE
8
BLACK
6
CONTINUOUS
10
143.707
20
-102.705
11
143.678
21
-102.669
0
LINE
8
BLACK
6
CONTINUOUS
10
143.678
20
-102.669
11
143.656
21
-102.628
0
LINE
8
BLACK
6
CONTINUOUS
10
143.656
20
-102.628
11
143.642
21
-102.584
0
LINE
8
BLACK
6
CONTINUOUS
10
143.642
20
-102.584
11
143.637
21
-102.537
0
LINE
8
BLACK
6
CONTINUOUS
10
143.637
20
-102.537
11
143.637
21
-102.062
0
LINE
8
BLACK
6
CONTINUOUS
10
143.637
20
-102.062
11
143.642
21
-102.016
0
LINE
8
BLACK
6
CONTINUOUS
10
143.642
20
-102.016
11
143.656
21
-101.972
0
LINE
8
BLACK
6
CONTINUOUS
10
143.656
20
-101.972
11
143.678
21
-101.931
0
LINE
8
BLACK
6
CONTINUOUS
10
143.678
20
-101.931
11
143.707
21
-101.895
0
LINE
8
BLACK
6
CONTINUOUS
10
143.707
20
-101.895
11
143.743
21
-101.865
0
LINE
8
BLACK
6
CONTINUOUS
10
143.743
20
-101.865
11
143.784
21
-101.843
0
LINE
8
BLACK
6
CONTINUOUS
10
143.784
20
-101.843
11
143.829
21
-101.83
0
LINE
8
BLACK
6
CONTINUOUS
10
143.829
20
-101.83
11
143.875
21
-101.825
0
LINE
8
BLACK
6
CONTINUOUS
10
143.875
20
-101.825
11
144.475
21
-101.825
0
LINE
8
BLACK
6
CONTINUOUS
10
144.475
20
-101.825
11
144.521
21
-101.83
0
LINE
8
BLACK
6
CONTINUOUS
10
142.796
20
-101.83
11
142.841
21
-101.843
0
LINE
8
BLACK
6
CONTINUOUS
10
142.841
20
-101.843
11
142.882
21
-101.865
0
LINE
8
BLACK
6
CONTINUOUS
10
142.882
20
-101.865
11
142.918
21
-101.895
0
LINE
8
BLACK
6
CONTINUOUS
10
142.918
20
-101.895
11
142.947
21
-101.931
0
LINE
8
BLACK
6
CONTINUOUS
10
142.947
20
-101.931
11
142.969
21
-101.972
0
LINE
8
BLACK
6
CONTINUOUS
10
142.969
20
-101.972
11
142.983
21
-102.016
0
LINE
8
BLACK
6
CONTINUOUS
10
142.983
20
-102.016
11
142.987
21
-102.062
0
LINE
8
BLACK
6
CONTINUOUS
10
142.987
20
-102.062
11
142.987
21
-102.537
0
LINE
8
BLACK
6
CONTINUOUS
10
142.987
20
-102.537
11
142.983
21
-102.584
0
LINE
8
BLACK
6
CONTINUOUS
10
142.983
20
-102.584
11
142.969
21
-102.628
0
LINE
8
BLACK
6
CONTINUOUS
10
142.969
20
-102.628
11
142.947
21
-102.669
0
LINE
8
BLACK
6
CONTINUOUS
10
142.947
20
-102.669
11
142.918
21
-102.705
0
LINE
8
BLACK
6
CONTINUOUS
10
142.918
20
-102.705
11
142.882
21
-102.735
0
LINE
8
BLACK
6
CONTINUOUS
10
142.882
20
-102.735
11
142.841
21
-102.757
0
LINE
8
BLACK
6
CONTINUOUS
10
142.841
20
-102.757
11
142.796
21
-102.77
0
LINE
8
BLACK
6
CONTINUOUS
10
142.796
20
-102.77
11
142.75
21
-102.775
0
LINE
8
BLACK
6
CONTINUOUS
10
142.75
20
-102.775
11
142.15
21
-102.775
0
LINE
8
BLACK
6
CONTINUOUS
10
142.15
20
-102.775
11
142.104
21
-102.77
0
LINE
8
BLACK
6
CONTINUOUS
10
142.104
20
-102.77
11
142.059
21
-102.757
0
LINE
8
BLACK
6
CONTINUOUS
10
142.059
20
-102.757
11
142.018
21
-102.735
0
LINE
8
BLACK
6
CONTINUOUS
10
142.018
20
-102.735
11
141.982
21
-102.705
0
LINE
8
BLACK
6
CONTINUOUS
10
141.982
20
-102.705
11
141.953
21
-102.669
0
LINE
8
BLACK
6
CONTINUOUS
10
141.953
20
-102.669
11
141.931
21
-102.628
0
LINE
8
BLACK
6
CONTINUOUS
10
141.931
20
-102.628
11
141.917
21
-102.584
0
LINE
8
BLACK
6
CONTINUOUS
10
141.917
20
-102.584
11
141.912
21
-102.537
0
LINE
8
BLACK
6
CONTINUOUS
10
141.912
20
-102.537
11
141.912
21
-102.062
0
LINE
8
BLACK
6
CONTINUOUS
10
141.912
20
-102.062
11
141.917
21
-102.016
0
LINE
8
BLACK
6
CONTINUOUS
10
141.917
20
-102.016
11
141.931
21
-101.972
0
LINE
8
BLACK
6
CONTINUOUS
10
141.931
20
-101.972
11
141.953
21
-101.931
0
LINE
8
BLACK
6
CONTINUOUS
10
141.953
20
-101.931
11
141.982
21
-101.895
0
LINE
8
BLACK
6
CONTINUOUS
10
141.982
20
-101.895
11
142.018
21
-101.865
0
LINE
8
BLACK
6
CONTINUOUS
10
142.018
20
-101.865
11
142.059
21
-101.843
0
LINE
8
BLACK
6
CONTINUOUS
10
142.059
20
-101.843
11
142.104
21
-101.83
0
LINE
8
BLACK
6
CONTINUOUS
10
142.104
20
-101.83
11
142.15
21
-101.825
0
LINE
8
BLACK
6
CONTINUOUS
10
142.15
20
-101.825
11
142.75
21
-101.825
0
LINE
8
BLACK
6
CONTINUOUS
10
142.75
20
-101.825
11
142.796
21
-101.83
0
LINE
8
BLACK
6
CONTINUOUS
10
145.171
20
-100.055
11
145.216
21
-100.068
0
LINE
8
BLACK
6
CONTINUOUS
10
145.216
20
-100.068
11
145.257
21
-100.09
0
LINE
8
BLACK
6
CONTINUOUS
10
145.257
20
-100.09
11
145.293
21
-100.12
0
LINE
8
BLACK
6
CONTINUOUS
10
145.293
20
-100.12
11
145.322
21
-100.156
0
LINE
8
BLACK
6
CONTINUOUS
10
145.322
20
-100.156
11
145.344
21
-100.197
0
LINE
8
BLACK
6
CONTINUOUS
10
145.344
20
-100.197
11
145.358
21
-100.241
0
LINE
8
BLACK
6
CONTINUOUS
10
145.358
20
-100.241
11
145.362
21
-100.287
0
LINE
8
BLACK
6
CONTINUOUS
10
145.362
20
-100.287
11
145.362
21
-100.762
0
LINE
8
BLACK
6
CONTINUOUS
10
145.362
20
-100.762
11
145.358
21
-100.809
0
LINE
8
BLACK
6
CONTINUOUS
10
145.358
20
-100.809
11
145.344
21
-100.853
0
LINE
8
BLACK
6
CONTINUOUS
10
145.344
20
-100.853
11
145.322
21
-100.894
0
LINE
8
BLACK
6
CONTINUOUS
10
145.322
20
-100.894
11
145.293
21
-100.93
0
LINE
8
BLACK
6
CONTINUOUS
10
145.293
20
-100.93
11
145.257
21
-100.96
0
LINE
8
BLACK
6
CONTINUOUS
10
145.257
20
-100.96
11
145.216
21
-100.982
0
LINE
8
BLACK
6
CONTINUOUS
10
145.216
20
-100.982
11
145.171
21
-100.995
0
LINE
8
BLACK
6
CONTINUOUS
10
145.171
20
-100.995
11
145.125
21
-101
0
LINE
8
BLACK
6
CONTINUOUS
10
145.125
20
-101
11
144.525
21
-101
0
LINE
8
BLACK
6
CONTINUOUS
10
144.525
20
-101
11
144.479
21
-100.995
0
LINE
8
BLACK
6
CONTINUOUS
10
144.479
20
-100.995
11
144.434
21
-100.982
0
LINE
8
BLACK
6
CONTINUOUS
10
144.434
20
-100.982
11
144.393
21
-100.96
0
LINE
8
BLACK
6
CONTINUOUS
10
144.393
20
-100.96
11
144.357
21
-100.93
0
LINE
8
BLACK
6
CONTINUOUS
10
144.357
20
-100.93
11
144.328
21
-100.894
0
LINE
8
BLACK
6
CONTINUOUS
10
144.328
20
-100.894
11
144.306
21
-100.853
0
LINE
8
BLACK
6
CONTINUOUS
10
144.306
20
-100.853
11
144.292
21
-100.809
0
LINE
8
BLACK
6
CONTINUOUS
10
144.292
20
-100.809
11
144.287
21
-100.762
0
LINE
8
BLACK
6
CONTINUOUS
10
144.287
20
-100.762
11
144.287
21
-100.287
0
LINE
8
BLACK
6
CONTINUOUS
10
144.287
20
-100.287
11
144.292
21
-100.241
0
LINE
8
BLACK
6
CONTINUOUS
10
144.292
20
-100.241
11
144.306
21
-100.197
0
LINE
8
BLACK
6
CONTINUOUS
10
144.306
20
-100.197
11
144.328
21
-100.156
0
LINE
8
BLACK
6
CONTINUOUS
10
144.328
20
-100.156
11
144.357
21
-100.12
0
LINE
8
BLACK
6
CONTINUOUS
10
144.357
20
-100.12
11
144.393
21
-100.09
0
LINE
8
BLACK
6
CONTINUOUS
10
144.393
20
-100.09
11
144.434
21
-100.068
0
LINE
8
BLACK
6
CONTINUOUS
10
144.434
20
-100.068
11
144.479
21
-100.055
0
LINE
8
BLACK
6
CONTINUOUS
10
144.479
20
-100.055
11
144.525
21
-100.05
0
LINE
8
BLACK
6
CONTINUOUS
10
144.525
20
-100.05
11
145.125
21
-100.05
0
LINE
8
BLACK
6
CONTINUOUS
10
145.125
20
-100.05
11
145.171
21
-100.055
0
LINE
8
BLACK
6
CONTINUOUS
10
146.896
20
-100.055
11
146.941
21
-100.068
0
LINE
8
BLACK
6
CONTINUOUS
10
146.941
20
-100.068
11
146.982
21
-100.09
0
LINE
8
BLACK
6
CONTINUOUS
10
146.982
20
-100.09
11
147.018
21
-100.12
0
LINE
8
BLACK
6
CONTINUOUS
10
147.018
20
-100.12
11
147.047
21
-100.156
0
LINE
8
BLACK
6
CONTINUOUS
10
147.047
20
-100.156
11
147.069
21
-100.197
0
LINE
8
BLACK
6
CONTINUOUS
10
147.069
20
-100.197
11
147.083
21
-100.241
0
LINE
8
BLACK
6
CONTINUOUS
10
147.083
20
-100.241
11
147.088
21
-100.287
0
LINE
8
BLACK
6
CONTINUOUS
10
147.088
20
-100.287
11
147.088
21
-100.762
0
LINE
8
BLACK
6
CONTINUOUS
10
147.088
20
-100.762
11
147.083
21
-100.809
0
LINE
8
BLACK
6
CONTINUOUS
10
147.083
20
-100.809
11
147.069
21
-100.853
0
LINE
8
BLACK
6
CONTINUOUS
10
147.069
20
-100.853
11
147.047
21
-100.894
0
LINE
8
BLACK
6
CONTINUOUS
10
147.047
20
-100.894
11
147.018
21
-100.93
0
LINE
8
BLACK
6
CONTINUOUS
10
147.018
20
-100.93
11
146.982
21
-100.96
0
LINE
8
BLACK
6
CONTINUOUS
10
146.982
20
-100.96
11
146.941
21
-100.982
0
LINE
8
BLACK
6
CONTINUOUS
10
146.941
20
-100.982
11
146.896
21
-100.995
0
LINE
8
BLACK
6
CONTINUOUS
10
146.896
20
-100.995
11
146.85
21
-101
0
LINE
8
BLACK
6
CONTINUOUS
10
146.85
20
-101
11
146.25
21
-101
0
LINE
8
BLACK
6
CONTINUOUS
10
146.25
20
-101
11
146.204
21
-100.995
0
LINE
8
BLACK
6
CONTINUOUS
10
146.204
20
-100.995
11
146.159
21
-100.982
0
LINE
8
BLACK
6
CONTINUOUS
10
146.159
20
-100.982
11
146.118
21
-100.96
0
LINE
8
BLACK
6
CONTINUOUS
10
146.118
20
-100.96
11
146.082
21
-100.93
0
LINE
8
BLACK
6
CONTINUOUS
10
146.082
20
-100.93
11
146.053
21
-100.894
0
LINE
8
BLACK
6
CONTINUOUS
10
146.053
20
-100.894
11
146.031
21
-100.853
0
LINE
8
BLACK
6
CONTINUOUS
10
146.031
20
-100.853
11
146.017
21
-100.809
0
LINE
8
BLACK
6
CONTINUOUS
10
146.017
20
-100.809
11
146.012
21
-100.762
0
LINE
8
BLACK
6
CONTINUOUS
10
146.012
20
-100.762
11
146.012
21
-100.287
0
LINE
8
BLACK
6
CONTINUOUS
10
146.012
20
-100.287
11
146.017
21
-100.241
0
LINE
8
BLACK
6
CONTINUOUS
10
146.017
20
-100.241
11
146.031
21
-100.197
0
LINE
8
BLACK
6
CONTINUOUS
10
146.031
20
-100.197
11
146.053
21
-100.156
0
LINE
8
BLACK
6
CONTINUOUS
10
146.053
20
-100.156
11
146.082
21
-100.12
0
LINE
8
BLACK
6
CONTINUOUS
10
146.082
20
-100.12
11
146.118
21
-100.09
0
LINE
8
BLACK
6
CONTINUOUS
10
146.118
20
-100.09
11
146.159
21
-100.068
0
LINE
8
BLACK
6
CONTINUOUS
10
146.159
20
-100.068
11
146.204
21
-100.055
0
LINE
8
BLACK
6
CONTINUOUS
10
146.204
20
-100.055
11
146.25
21
-100.05
0
LINE
8
BLACK
6
CONTINUOUS
10
146.25
20
-100.05
11
146.85
21
-100.05
0
LINE
8
BLACK
6
CONTINUOUS
10
146.85
20
-100.05
11
146.896
21
-100.055
  0
ENDSEC
  0
EOF
