  0
SECTION
  2
HEADER
  9
$ANGBASE
  50
0.0
  9
$ANGDIR
  70
1
  9
$MEASUREMENT
  70
1
  0
ENDSEC
  0
SECTION
  2
TABLES
  0
TABLE
  2
LTYPE
  70
4
  0
LTYPE
  5
40F
  2
CONTINUOUS
  70
0
  3
Solid line
  72
65
  73
0
  40
0.0
  0
LTYPE
  5
410
  2
DASHDOT
 70
0
  3
Dash Dot ____ _ ____ _
 72
65
 73
4
 40
2.0
 49
1.25
 49
-0.25
 49
0.25
 49
-0.25
  0
LTYPE
  5
411
  2
DASHED
 70
0
  3
Dashed __ __ __ __ __
 72
65
 73
2
 40
0.75
 49
0.5
 49
-0.25
  0
LTYPE
  5
43B
  2
DOTTED
 70
0
  3
Dotted .  .  .  .
 72
65
 73
2
 40
0.2
 49
0.0
 49
-0.2
  0
ENDTAB
  0
TABLE
  2
STYLE
  70
4
  0
STYLE
  2
KICAD
  70
0
  40
0
  41
1
  42
1
  50
0
  71
0
  3
isocp.shx
  0
STYLE
  2
KICADB
  70
0
  40
0
  41
1
  42
1
  50
0
  71
0
  3
isocp.shx
  0
STYLE
  2
KICADI
  70
0
  40
0
  41
1
  42
1
  50
15
  71
0
  3
isocp.shx
  0
STYLE
  2
KICADBI
  70
0
  40
0
  41
1
  42
1
  50
15
  71
0
  3
isocp.shx
  0
ENDTAB
  0
TABLE
  2
LAYER
  70
1
  0
LAYER
  2
BLACK
  70
0
  62
7
  6
CONTINUOUS
  0
ENDTAB
  0
ENDSEC
  0
SECTION
  2
ENTITIES
0
LINE
8
BLACK
6
CONTINUOUS
10
139.828
20
-137.031
11
139.905
21
-137.082
0
LINE
8
BLACK
6
CONTINUOUS
10
139.905
20
-137.082
11
139.957
21
-137.159
0
LINE
8
BLACK
6
CONTINUOUS
10
139.957
20
-137.159
11
139.975
21
-137.25
0
LINE
8
BLACK
6
CONTINUOUS
10
139.975
20
-137.25
11
139.975
21
-137.75
0
LINE
8
BLACK
6
CONTINUOUS
10
139.975
20
-137.75
11
139.957
21
-137.841
0
LINE
8
BLACK
6
CONTINUOUS
10
139.957
20
-137.841
11
139.905
21
-137.918
0
LINE
8
BLACK
6
CONTINUOUS
10
139.905
20
-137.918
11
139.828
21
-137.969
0
LINE
8
BLACK
6
CONTINUOUS
10
139.828
20
-137.969
11
139.737
21
-137.987
0
LINE
8
BLACK
6
CONTINUOUS
10
139.737
20
-137.987
11
139.262
21
-137.987
0
LINE
8
BLACK
6
CONTINUOUS
10
139.262
20
-137.987
11
139.172
21
-137.969
0
LINE
8
BLACK
6
CONTINUOUS
10
139.172
20
-137.969
11
139.095
21
-137.918
0
LINE
8
BLACK
6
CONTINUOUS
10
139.095
20
-137.918
11
139.043
21
-137.841
0
LINE
8
BLACK
6
CONTINUOUS
10
139.043
20
-137.841
11
139.025
21
-137.75
0
LINE
8
BLACK
6
CONTINUOUS
10
139.025
20
-137.75
11
139.025
21
-137.25
0
LINE
8
BLACK
6
CONTINUOUS
10
139.025
20
-137.25
11
139.043
21
-137.159
0
LINE
8
BLACK
6
CONTINUOUS
10
139.043
20
-137.159
11
139.095
21
-137.082
0
LINE
8
BLACK
6
CONTINUOUS
10
139.095
20
-137.082
11
139.172
21
-137.031
0
LINE
8
BLACK
6
CONTINUOUS
10
139.172
20
-137.031
11
139.262
21
-137.012
0
LINE
8
BLACK
6
CONTINUOUS
10
139.262
20
-137.012
11
139.737
21
-137.012
0
LINE
8
BLACK
6
CONTINUOUS
10
139.737
20
-137.012
11
139.828
21
-137.031
0
LINE
8
BLACK
6
CONTINUOUS
10
138.328
20
-137.031
11
138.405
21
-137.082
0
LINE
8
BLACK
6
CONTINUOUS
10
138.405
20
-137.082
11
138.457
21
-137.159
0
LINE
8
BLACK
6
CONTINUOUS
10
138.457
20
-137.159
11
138.475
21
-137.25
0
LINE
8
BLACK
6
CONTINUOUS
10
138.475
20
-137.25
11
138.475
21
-137.75
0
LINE
8
BLACK
6
CONTINUOUS
10
138.475
20
-137.75
11
138.457
21
-137.841
0
LINE
8
BLACK
6
CONTINUOUS
10
138.457
20
-137.841
11
138.405
21
-137.918
0
LINE
8
BLACK
6
CONTINUOUS
10
138.405
20
-137.918
11
138.328
21
-137.969
0
LINE
8
BLACK
6
CONTINUOUS
10
138.328
20
-137.969
11
138.237
21
-137.987
0
LINE
8
BLACK
6
CONTINUOUS
10
138.237
20
-137.987
11
137.762
21
-137.987
0
LINE
8
BLACK
6
CONTINUOUS
10
137.762
20
-137.987
11
137.672
21
-137.969
0
LINE
8
BLACK
6
CONTINUOUS
10
137.672
20
-137.969
11
137.595
21
-137.918
0
LINE
8
BLACK
6
CONTINUOUS
10
137.595
20
-137.918
11
137.543
21
-137.841
0
LINE
8
BLACK
6
CONTINUOUS
10
137.543
20
-137.841
11
137.525
21
-137.75
0
LINE
8
BLACK
6
CONTINUOUS
10
137.525
20
-137.75
11
137.525
21
-137.25
0
LINE
8
BLACK
6
CONTINUOUS
10
137.525
20
-137.25
11
137.543
21
-137.159
0
LINE
8
BLACK
6
CONTINUOUS
10
137.543
20
-137.159
11
137.595
21
-137.082
0
LINE
8
BLACK
6
CONTINUOUS
10
137.595
20
-137.082
11
137.672
21
-137.031
0
LINE
8
BLACK
6
CONTINUOUS
10
137.672
20
-137.031
11
137.762
21
-137.012
0
LINE
8
BLACK
6
CONTINUOUS
10
137.762
20
-137.012
11
138.237
21
-137.012
0
LINE
8
BLACK
6
CONTINUOUS
10
138.237
20
-137.012
11
138.328
21
-137.031
0
LINE
8
BLACK
6
CONTINUOUS
10
141.328
20
-136.931
11
141.405
21
-136.982
0
LINE
8
BLACK
6
CONTINUOUS
10
141.405
20
-136.982
11
141.457
21
-137.059
0
LINE
8
BLACK
6
CONTINUOUS
10
141.457
20
-137.059
11
141.475
21
-137.15
0
LINE
8
BLACK
6
CONTINUOUS
10
141.475
20
-137.15
11
141.475
21
-137.65
0
LINE
8
BLACK
6
CONTINUOUS
10
141.475
20
-137.65
11
141.457
21
-137.741
0
LINE
8
BLACK
6
CONTINUOUS
10
141.457
20
-137.741
11
141.405
21
-137.818
0
LINE
8
BLACK
6
CONTINUOUS
10
141.405
20
-137.818
11
141.328
21
-137.869
0
LINE
8
BLACK
6
CONTINUOUS
10
141.328
20
-137.869
11
141.237
21
-137.887
0
LINE
8
BLACK
6
CONTINUOUS
10
141.237
20
-137.887
11
140.762
21
-137.887
0
LINE
8
BLACK
6
CONTINUOUS
10
140.762
20
-137.887
11
140.672
21
-137.869
0
LINE
8
BLACK
6
CONTINUOUS
10
140.672
20
-137.869
11
140.595
21
-137.818
0
LINE
8
BLACK
6
CONTINUOUS
10
140.595
20
-137.818
11
140.543
21
-137.741
0
LINE
8
BLACK
6
CONTINUOUS
10
140.543
20
-137.741
11
140.525
21
-137.65
0
LINE
8
BLACK
6
CONTINUOUS
10
140.525
20
-137.65
11
140.525
21
-137.15
0
LINE
8
BLACK
6
CONTINUOUS
10
140.525
20
-137.15
11
140.543
21
-137.059
0
LINE
8
BLACK
6
CONTINUOUS
10
140.543
20
-137.059
11
140.595
21
-136.982
0
LINE
8
BLACK
6
CONTINUOUS
10
140.595
20
-136.982
11
140.672
21
-136.931
0
LINE
8
BLACK
6
CONTINUOUS
10
140.672
20
-136.931
11
140.762
21
-136.912
0
LINE
8
BLACK
6
CONTINUOUS
10
140.762
20
-136.912
11
141.237
21
-136.912
0
LINE
8
BLACK
6
CONTINUOUS
10
141.237
20
-136.912
11
141.328
21
-136.931
0
LINE
8
BLACK
6
CONTINUOUS
10
142.828
20
-136.631
11
142.905
21
-136.682
0
LINE
8
BLACK
6
CONTINUOUS
10
142.905
20
-136.682
11
142.957
21
-136.759
0
LINE
8
BLACK
6
CONTINUOUS
10
142.957
20
-136.759
11
142.975
21
-136.85
0
LINE
8
BLACK
6
CONTINUOUS
10
142.975
20
-136.85
11
142.975
21
-137.35
0
LINE
8
BLACK
6
CONTINUOUS
10
142.975
20
-137.35
11
142.957
21
-137.441
0
LINE
8
BLACK
6
CONTINUOUS
10
142.957
20
-137.441
11
142.905
21
-137.518
0
LINE
8
BLACK
6
CONTINUOUS
10
142.905
20
-137.518
11
142.828
21
-137.569
0
LINE
8
BLACK
6
CONTINUOUS
10
142.828
20
-137.569
11
142.737
21
-137.588
0
LINE
8
BLACK
6
CONTINUOUS
10
142.737
20
-137.588
11
142.262
21
-137.588
0
LINE
8
BLACK
6
CONTINUOUS
10
142.262
20
-137.588
11
142.172
21
-137.569
0
LINE
8
BLACK
6
CONTINUOUS
10
142.172
20
-137.569
11
142.095
21
-137.518
0
LINE
8
BLACK
6
CONTINUOUS
10
142.095
20
-137.518
11
142.043
21
-137.441
0
LINE
8
BLACK
6
CONTINUOUS
10
142.043
20
-137.441
11
142.025
21
-137.35
0
LINE
8
BLACK
6
CONTINUOUS
10
142.025
20
-137.35
11
142.025
21
-136.85
0
LINE
8
BLACK
6
CONTINUOUS
10
142.025
20
-136.85
11
142.043
21
-136.759
0
LINE
8
BLACK
6
CONTINUOUS
10
142.043
20
-136.759
11
142.095
21
-136.682
0
LINE
8
BLACK
6
CONTINUOUS
10
142.095
20
-136.682
11
142.172
21
-136.631
0
LINE
8
BLACK
6
CONTINUOUS
10
142.172
20
-136.631
11
142.262
21
-136.612
0
LINE
8
BLACK
6
CONTINUOUS
10
142.262
20
-136.612
11
142.737
21
-136.612
0
LINE
8
BLACK
6
CONTINUOUS
10
142.737
20
-136.612
11
142.828
21
-136.631
0
LINE
8
BLACK
6
CONTINUOUS
10
144.328
20
-136.331
11
144.405
21
-136.382
0
LINE
8
BLACK
6
CONTINUOUS
10
144.405
20
-136.382
11
144.457
21
-136.459
0
LINE
8
BLACK
6
CONTINUOUS
10
144.457
20
-136.459
11
144.475
21
-136.55
0
LINE
8
BLACK
6
CONTINUOUS
10
144.475
20
-136.55
11
144.475
21
-137.05
0
LINE
8
BLACK
6
CONTINUOUS
10
144.475
20
-137.05
11
144.457
21
-137.141
0
LINE
8
BLACK
6
CONTINUOUS
10
144.457
20
-137.141
11
144.405
21
-137.218
0
LINE
8
BLACK
6
CONTINUOUS
10
144.405
20
-137.218
11
144.328
21
-137.269
0
LINE
8
BLACK
6
CONTINUOUS
10
144.328
20
-137.269
11
144.237
21
-137.287
0
LINE
8
BLACK
6
CONTINUOUS
10
144.237
20
-137.287
11
143.762
21
-137.287
0
LINE
8
BLACK
6
CONTINUOUS
10
143.762
20
-137.287
11
143.672
21
-137.269
0
LINE
8
BLACK
6
CONTINUOUS
10
143.672
20
-137.269
11
143.595
21
-137.218
0
LINE
8
BLACK
6
CONTINUOUS
10
143.595
20
-137.218
11
143.543
21
-137.141
0
LINE
8
BLACK
6
CONTINUOUS
10
143.543
20
-137.141
11
143.525
21
-137.05
0
LINE
8
BLACK
6
CONTINUOUS
10
143.525
20
-137.05
11
143.525
21
-136.55
0
LINE
8
BLACK
6
CONTINUOUS
10
143.525
20
-136.55
11
143.543
21
-136.459
0
LINE
8
BLACK
6
CONTINUOUS
10
143.543
20
-136.459
11
143.595
21
-136.382
0
LINE
8
BLACK
6
CONTINUOUS
10
143.595
20
-136.382
11
143.672
21
-136.331
0
LINE
8
BLACK
6
CONTINUOUS
10
143.672
20
-136.331
11
143.762
21
-136.312
0
LINE
8
BLACK
6
CONTINUOUS
10
143.762
20
-136.312
11
144.237
21
-136.312
0
LINE
8
BLACK
6
CONTINUOUS
10
144.237
20
-136.312
11
144.328
21
-136.331
0
LINE
8
BLACK
6
CONTINUOUS
10
145.828
20
-135.931
11
145.905
21
-135.982
0
LINE
8
BLACK
6
CONTINUOUS
10
145.905
20
-135.982
11
145.957
21
-136.059
0
LINE
8
BLACK
6
CONTINUOUS
10
145.957
20
-136.059
11
145.975
21
-136.15
0
LINE
8
BLACK
6
CONTINUOUS
10
145.975
20
-136.15
11
145.975
21
-136.65
0
LINE
8
BLACK
6
CONTINUOUS
10
145.975
20
-136.65
11
145.957
21
-136.741
0
LINE
8
BLACK
6
CONTINUOUS
10
145.957
20
-136.741
11
145.905
21
-136.818
0
LINE
8
BLACK
6
CONTINUOUS
10
145.905
20
-136.818
11
145.828
21
-136.869
0
LINE
8
BLACK
6
CONTINUOUS
10
145.828
20
-136.869
11
145.737
21
-136.887
0
LINE
8
BLACK
6
CONTINUOUS
10
145.737
20
-136.887
11
145.262
21
-136.887
0
LINE
8
BLACK
6
CONTINUOUS
10
145.262
20
-136.887
11
145.172
21
-136.869
0
LINE
8
BLACK
6
CONTINUOUS
10
145.172
20
-136.869
11
145.095
21
-136.818
0
LINE
8
BLACK
6
CONTINUOUS
10
145.095
20
-136.818
11
145.043
21
-136.741
0
LINE
8
BLACK
6
CONTINUOUS
10
145.043
20
-136.741
11
145.025
21
-136.65
0
LINE
8
BLACK
6
CONTINUOUS
10
145.025
20
-136.65
11
145.025
21
-136.15
0
LINE
8
BLACK
6
CONTINUOUS
10
145.025
20
-136.15
11
145.043
21
-136.059
0
LINE
8
BLACK
6
CONTINUOUS
10
145.043
20
-136.059
11
145.095
21
-135.982
0
LINE
8
BLACK
6
CONTINUOUS
10
145.095
20
-135.982
11
145.172
21
-135.931
0
LINE
8
BLACK
6
CONTINUOUS
10
145.172
20
-135.931
11
145.262
21
-135.912
0
LINE
8
BLACK
6
CONTINUOUS
10
145.262
20
-135.912
11
145.737
21
-135.912
0
LINE
8
BLACK
6
CONTINUOUS
10
145.737
20
-135.912
11
145.828
21
-135.931
0
LINE
8
BLACK
6
CONTINUOUS
10
147.328
20
-135.331
11
147.405
21
-135.382
0
LINE
8
BLACK
6
CONTINUOUS
10
147.405
20
-135.382
11
147.457
21
-135.459
0
LINE
8
BLACK
6
CONTINUOUS
10
147.457
20
-135.459
11
147.475
21
-135.55
0
LINE
8
BLACK
6
CONTINUOUS
10
147.475
20
-135.55
11
147.475
21
-136.05
0
LINE
8
BLACK
6
CONTINUOUS
10
147.475
20
-136.05
11
147.457
21
-136.141
0
LINE
8
BLACK
6
CONTINUOUS
10
147.457
20
-136.141
11
147.405
21
-136.218
0
LINE
8
BLACK
6
CONTINUOUS
10
147.405
20
-136.218
11
147.328
21
-136.269
0
LINE
8
BLACK
6
CONTINUOUS
10
147.328
20
-136.269
11
147.237
21
-136.287
0
LINE
8
BLACK
6
CONTINUOUS
10
147.237
20
-136.287
11
146.762
21
-136.287
0
LINE
8
BLACK
6
CONTINUOUS
10
146.762
20
-136.287
11
146.672
21
-136.269
0
LINE
8
BLACK
6
CONTINUOUS
10
146.672
20
-136.269
11
146.595
21
-136.218
0
LINE
8
BLACK
6
CONTINUOUS
10
146.595
20
-136.218
11
146.543
21
-136.141
0
LINE
8
BLACK
6
CONTINUOUS
10
146.543
20
-136.141
11
146.525
21
-136.05
0
LINE
8
BLACK
6
CONTINUOUS
10
146.525
20
-136.05
11
146.525
21
-135.55
0
LINE
8
BLACK
6
CONTINUOUS
10
146.525
20
-135.55
11
146.543
21
-135.459
0
LINE
8
BLACK
6
CONTINUOUS
10
146.543
20
-135.459
11
146.595
21
-135.382
0
LINE
8
BLACK
6
CONTINUOUS
10
146.595
20
-135.382
11
146.672
21
-135.331
0
LINE
8
BLACK
6
CONTINUOUS
10
146.672
20
-135.331
11
146.762
21
-135.312
0
LINE
8
BLACK
6
CONTINUOUS
10
146.762
20
-135.312
11
147.237
21
-135.312
0
LINE
8
BLACK
6
CONTINUOUS
10
147.237
20
-135.312
11
147.328
21
-135.331
0
LINE
8
BLACK
6
CONTINUOUS
10
139.828
20
-135.206
11
139.905
21
-135.257
0
LINE
8
BLACK
6
CONTINUOUS
10
139.905
20
-135.257
11
139.957
21
-135.334
0
LINE
8
BLACK
6
CONTINUOUS
10
139.957
20
-135.334
11
139.975
21
-135.425
0
LINE
8
BLACK
6
CONTINUOUS
10
139.975
20
-135.425
11
139.975
21
-135.925
0
LINE
8
BLACK
6
CONTINUOUS
10
139.975
20
-135.925
11
139.957
21
-136.016
0
LINE
8
BLACK
6
CONTINUOUS
10
139.957
20
-136.016
11
139.905
21
-136.093
0
LINE
8
BLACK
6
CONTINUOUS
10
139.905
20
-136.093
11
139.828
21
-136.144
0
LINE
8
BLACK
6
CONTINUOUS
10
139.828
20
-136.144
11
139.737
21
-136.162
0
LINE
8
BLACK
6
CONTINUOUS
10
139.737
20
-136.162
11
139.262
21
-136.162
0
LINE
8
BLACK
6
CONTINUOUS
10
139.262
20
-136.162
11
139.172
21
-136.144
0
LINE
8
BLACK
6
CONTINUOUS
10
139.172
20
-136.144
11
139.095
21
-136.093
0
LINE
8
BLACK
6
CONTINUOUS
10
139.095
20
-136.093
11
139.043
21
-136.016
0
LINE
8
BLACK
6
CONTINUOUS
10
139.043
20
-136.016
11
139.025
21
-135.925
0
LINE
8
BLACK
6
CONTINUOUS
10
139.025
20
-135.925
11
139.025
21
-135.425
0
LINE
8
BLACK
6
CONTINUOUS
10
139.025
20
-135.425
11
139.043
21
-135.334
0
LINE
8
BLACK
6
CONTINUOUS
10
139.043
20
-135.334
11
139.095
21
-135.257
0
LINE
8
BLACK
6
CONTINUOUS
10
139.095
20
-135.257
11
139.172
21
-135.206
0
LINE
8
BLACK
6
CONTINUOUS
10
139.172
20
-135.206
11
139.262
21
-135.188
0
LINE
8
BLACK
6
CONTINUOUS
10
139.262
20
-135.188
11
139.737
21
-135.188
0
LINE
8
BLACK
6
CONTINUOUS
10
139.737
20
-135.188
11
139.828
21
-135.206
0
LINE
8
BLACK
6
CONTINUOUS
10
138.328
20
-135.206
11
138.405
21
-135.257
0
LINE
8
BLACK
6
CONTINUOUS
10
138.405
20
-135.257
11
138.457
21
-135.334
0
LINE
8
BLACK
6
CONTINUOUS
10
138.457
20
-135.334
11
138.475
21
-135.425
0
LINE
8
BLACK
6
CONTINUOUS
10
138.475
20
-135.425
11
138.475
21
-135.925
0
LINE
8
BLACK
6
CONTINUOUS
10
138.475
20
-135.925
11
138.457
21
-136.016
0
LINE
8
BLACK
6
CONTINUOUS
10
138.457
20
-136.016
11
138.405
21
-136.093
0
LINE
8
BLACK
6
CONTINUOUS
10
138.405
20
-136.093
11
138.328
21
-136.144
0
LINE
8
BLACK
6
CONTINUOUS
10
138.328
20
-136.144
11
138.237
21
-136.162
0
LINE
8
BLACK
6
CONTINUOUS
10
138.237
20
-136.162
11
137.762
21
-136.162
0
LINE
8
BLACK
6
CONTINUOUS
10
137.762
20
-136.162
11
137.672
21
-136.144
0
LINE
8
BLACK
6
CONTINUOUS
10
137.672
20
-136.144
11
137.595
21
-136.093
0
LINE
8
BLACK
6
CONTINUOUS
10
137.595
20
-136.093
11
137.543
21
-136.016
0
LINE
8
BLACK
6
CONTINUOUS
10
137.543
20
-136.016
11
137.525
21
-135.925
0
LINE
8
BLACK
6
CONTINUOUS
10
137.525
20
-135.925
11
137.525
21
-135.425
0
LINE
8
BLACK
6
CONTINUOUS
10
137.525
20
-135.425
11
137.543
21
-135.334
0
LINE
8
BLACK
6
CONTINUOUS
10
137.543
20
-135.334
11
137.595
21
-135.257
0
LINE
8
BLACK
6
CONTINUOUS
10
137.595
20
-135.257
11
137.672
21
-135.206
0
LINE
8
BLACK
6
CONTINUOUS
10
137.672
20
-135.206
11
137.762
21
-135.188
0
LINE
8
BLACK
6
CONTINUOUS
10
137.762
20
-135.188
11
138.237
21
-135.188
0
LINE
8
BLACK
6
CONTINUOUS
10
138.237
20
-135.188
11
138.328
21
-135.206
0
LINE
8
BLACK
6
CONTINUOUS
10
141.328
20
-135.106
11
141.405
21
-135.157
0
LINE
8
BLACK
6
CONTINUOUS
10
141.405
20
-135.157
11
141.457
21
-135.234
0
LINE
8
BLACK
6
CONTINUOUS
10
141.457
20
-135.234
11
141.475
21
-135.325
0
LINE
8
BLACK
6
CONTINUOUS
10
141.475
20
-135.325
11
141.475
21
-135.825
0
LINE
8
BLACK
6
CONTINUOUS
10
141.475
20
-135.825
11
141.457
21
-135.916
0
LINE
8
BLACK
6
CONTINUOUS
10
141.457
20
-135.916
11
141.405
21
-135.993
0
LINE
8
BLACK
6
CONTINUOUS
10
141.405
20
-135.993
11
141.328
21
-136.044
0
LINE
8
BLACK
6
CONTINUOUS
10
141.328
20
-136.044
11
141.237
21
-136.062
0
LINE
8
BLACK
6
CONTINUOUS
10
141.237
20
-136.062
11
140.762
21
-136.062
0
LINE
8
BLACK
6
CONTINUOUS
10
140.762
20
-136.062
11
140.672
21
-136.044
0
LINE
8
BLACK
6
CONTINUOUS
10
140.672
20
-136.044
11
140.595
21
-135.993
0
LINE
8
BLACK
6
CONTINUOUS
10
140.595
20
-135.993
11
140.543
21
-135.916
0
LINE
8
BLACK
6
CONTINUOUS
10
140.543
20
-135.916
11
140.525
21
-135.825
0
LINE
8
BLACK
6
CONTINUOUS
10
140.525
20
-135.825
11
140.525
21
-135.325
0
LINE
8
BLACK
6
CONTINUOUS
10
140.525
20
-135.325
11
140.543
21
-135.234
0
LINE
8
BLACK
6
CONTINUOUS
10
140.543
20
-135.234
11
140.595
21
-135.157
0
LINE
8
BLACK
6
CONTINUOUS
10
140.595
20
-135.157
11
140.672
21
-135.106
0
LINE
8
BLACK
6
CONTINUOUS
10
140.672
20
-135.106
11
140.762
21
-135.088
0
LINE
8
BLACK
6
CONTINUOUS
10
140.762
20
-135.088
11
141.237
21
-135.088
0
LINE
8
BLACK
6
CONTINUOUS
10
141.237
20
-135.088
11
141.328
21
-135.106
0
LINE
8
BLACK
6
CONTINUOUS
10
142.828
20
-134.806
11
142.905
21
-134.857
0
LINE
8
BLACK
6
CONTINUOUS
10
142.905
20
-134.857
11
142.957
21
-134.934
0
LINE
8
BLACK
6
CONTINUOUS
10
142.957
20
-134.934
11
142.975
21
-135.025
0
LINE
8
BLACK
6
CONTINUOUS
10
142.975
20
-135.025
11
142.975
21
-135.525
0
LINE
8
BLACK
6
CONTINUOUS
10
142.975
20
-135.525
11
142.957
21
-135.616
0
LINE
8
BLACK
6
CONTINUOUS
10
142.957
20
-135.616
11
142.905
21
-135.693
0
LINE
8
BLACK
6
CONTINUOUS
10
142.905
20
-135.693
11
142.828
21
-135.744
0
LINE
8
BLACK
6
CONTINUOUS
10
142.828
20
-135.744
11
142.737
21
-135.762
0
LINE
8
BLACK
6
CONTINUOUS
10
142.737
20
-135.762
11
142.262
21
-135.762
0
LINE
8
BLACK
6
CONTINUOUS
10
142.262
20
-135.762
11
142.172
21
-135.744
0
LINE
8
BLACK
6
CONTINUOUS
10
142.172
20
-135.744
11
142.095
21
-135.693
0
LINE
8
BLACK
6
CONTINUOUS
10
142.095
20
-135.693
11
142.043
21
-135.616
0
LINE
8
BLACK
6
CONTINUOUS
10
142.043
20
-135.616
11
142.025
21
-135.525
0
LINE
8
BLACK
6
CONTINUOUS
10
142.025
20
-135.525
11
142.025
21
-135.025
0
LINE
8
BLACK
6
CONTINUOUS
10
142.025
20
-135.025
11
142.043
21
-134.934
0
LINE
8
BLACK
6
CONTINUOUS
10
142.043
20
-134.934
11
142.095
21
-134.857
0
LINE
8
BLACK
6
CONTINUOUS
10
142.095
20
-134.857
11
142.172
21
-134.806
0
LINE
8
BLACK
6
CONTINUOUS
10
142.172
20
-134.806
11
142.262
21
-134.787
0
LINE
8
BLACK
6
CONTINUOUS
10
142.262
20
-134.787
11
142.737
21
-134.787
0
LINE
8
BLACK
6
CONTINUOUS
10
142.737
20
-134.787
11
142.828
21
-134.806
0
LINE
8
BLACK
6
CONTINUOUS
10
148.828
20
-134.631
11
148.905
21
-134.682
0
LINE
8
BLACK
6
CONTINUOUS
10
148.905
20
-134.682
11
148.957
21
-134.759
0
LINE
8
BLACK
6
CONTINUOUS
10
148.957
20
-134.759
11
148.975
21
-134.85
0
LINE
8
BLACK
6
CONTINUOUS
10
148.975
20
-134.85
11
148.975
21
-135.35
0
LINE
8
BLACK
6
CONTINUOUS
10
148.975
20
-135.35
11
148.957
21
-135.441
0
LINE
8
BLACK
6
CONTINUOUS
10
148.957
20
-135.441
11
148.905
21
-135.518
0
LINE
8
BLACK
6
CONTINUOUS
10
148.905
20
-135.518
11
148.828
21
-135.569
0
LINE
8
BLACK
6
CONTINUOUS
10
148.828
20
-135.569
11
148.737
21
-135.588
0
LINE
8
BLACK
6
CONTINUOUS
10
148.737
20
-135.588
11
148.262
21
-135.588
0
LINE
8
BLACK
6
CONTINUOUS
10
148.262
20
-135.588
11
148.172
21
-135.569
0
LINE
8
BLACK
6
CONTINUOUS
10
148.172
20
-135.569
11
148.095
21
-135.518
0
LINE
8
BLACK
6
CONTINUOUS
10
148.095
20
-135.518
11
148.043
21
-135.441
0
LINE
8
BLACK
6
CONTINUOUS
10
148.043
20
-135.441
11
148.025
21
-135.35
0
LINE
8
BLACK
6
CONTINUOUS
10
148.025
20
-135.35
11
148.025
21
-134.85
0
LINE
8
BLACK
6
CONTINUOUS
10
148.025
20
-134.85
11
148.043
21
-134.759
0
LINE
8
BLACK
6
CONTINUOUS
10
148.043
20
-134.759
11
148.095
21
-134.682
0
LINE
8
BLACK
6
CONTINUOUS
10
148.095
20
-134.682
11
148.172
21
-134.631
0
LINE
8
BLACK
6
CONTINUOUS
10
148.172
20
-134.631
11
148.262
21
-134.612
0
LINE
8
BLACK
6
CONTINUOUS
10
148.262
20
-134.612
11
148.737
21
-134.612
0
LINE
8
BLACK
6
CONTINUOUS
10
148.737
20
-134.612
11
148.828
21
-134.631
0
LINE
8
BLACK
6
CONTINUOUS
10
144.328
20
-134.506
11
144.405
21
-134.557
0
LINE
8
BLACK
6
CONTINUOUS
10
144.405
20
-134.557
11
144.457
21
-134.634
0
LINE
8
BLACK
6
CONTINUOUS
10
144.457
20
-134.634
11
144.475
21
-134.725
0
LINE
8
BLACK
6
CONTINUOUS
10
144.475
20
-134.725
11
144.475
21
-135.225
0
LINE
8
BLACK
6
CONTINUOUS
10
144.475
20
-135.225
11
144.457
21
-135.316
0
LINE
8
BLACK
6
CONTINUOUS
10
144.457
20
-135.316
11
144.405
21
-135.393
0
LINE
8
BLACK
6
CONTINUOUS
10
144.405
20
-135.393
11
144.328
21
-135.444
0
LINE
8
BLACK
6
CONTINUOUS
10
144.328
20
-135.444
11
144.237
21
-135.463
0
LINE
8
BLACK
6
CONTINUOUS
10
144.237
20
-135.463
11
143.762
21
-135.463
0
LINE
8
BLACK
6
CONTINUOUS
10
143.762
20
-135.463
11
143.672
21
-135.444
0
LINE
8
BLACK
6
CONTINUOUS
10
143.672
20
-135.444
11
143.595
21
-135.393
0
LINE
8
BLACK
6
CONTINUOUS
10
143.595
20
-135.393
11
143.543
21
-135.316
0
LINE
8
BLACK
6
CONTINUOUS
10
143.543
20
-135.316
11
143.525
21
-135.225
0
LINE
8
BLACK
6
CONTINUOUS
10
143.525
20
-135.225
11
143.525
21
-134.725
0
LINE
8
BLACK
6
CONTINUOUS
10
143.525
20
-134.725
11
143.543
21
-134.634
0
LINE
8
BLACK
6
CONTINUOUS
10
143.543
20
-134.634
11
143.595
21
-134.557
0
LINE
8
BLACK
6
CONTINUOUS
10
143.595
20
-134.557
11
143.672
21
-134.506
0
LINE
8
BLACK
6
CONTINUOUS
10
143.672
20
-134.506
11
143.762
21
-134.487
0
LINE
8
BLACK
6
CONTINUOUS
10
143.762
20
-134.487
11
144.237
21
-134.487
0
LINE
8
BLACK
6
CONTINUOUS
10
144.237
20
-134.487
11
144.328
21
-134.506
0
LINE
8
BLACK
6
CONTINUOUS
10
145.828
20
-134.106
11
145.905
21
-134.157
0
LINE
8
BLACK
6
CONTINUOUS
10
145.905
20
-134.157
11
145.957
21
-134.234
0
LINE
8
BLACK
6
CONTINUOUS
10
145.957
20
-134.234
11
145.975
21
-134.325
0
LINE
8
BLACK
6
CONTINUOUS
10
145.975
20
-134.325
11
145.975
21
-134.825
0
LINE
8
BLACK
6
CONTINUOUS
10
145.975
20
-134.825
11
145.957
21
-134.916
0
LINE
8
BLACK
6
CONTINUOUS
10
145.957
20
-134.916
11
145.905
21
-134.993
0
LINE
8
BLACK
6
CONTINUOUS
10
145.905
20
-134.993
11
145.828
21
-135.044
0
LINE
8
BLACK
6
CONTINUOUS
10
145.828
20
-135.044
11
145.737
21
-135.062
0
LINE
8
BLACK
6
CONTINUOUS
10
145.737
20
-135.062
11
145.262
21
-135.062
0
LINE
8
BLACK
6
CONTINUOUS
10
145.262
20
-135.062
11
145.172
21
-135.044
0
LINE
8
BLACK
6
CONTINUOUS
10
145.172
20
-135.044
11
145.095
21
-134.993
0
LINE
8
BLACK
6
CONTINUOUS
10
145.095
20
-134.993
11
145.043
21
-134.916
0
LINE
8
BLACK
6
CONTINUOUS
10
145.043
20
-134.916
11
145.025
21
-134.825
0
LINE
8
BLACK
6
CONTINUOUS
10
145.025
20
-134.825
11
145.025
21
-134.325
0
LINE
8
BLACK
6
CONTINUOUS
10
145.025
20
-134.325
11
145.043
21
-134.234
0
LINE
8
BLACK
6
CONTINUOUS
10
145.043
20
-134.234
11
145.095
21
-134.157
0
LINE
8
BLACK
6
CONTINUOUS
10
145.095
20
-134.157
11
145.172
21
-134.106
0
LINE
8
BLACK
6
CONTINUOUS
10
145.172
20
-134.106
11
145.262
21
-134.088
0
LINE
8
BLACK
6
CONTINUOUS
10
145.262
20
-134.088
11
145.737
21
-134.088
0
LINE
8
BLACK
6
CONTINUOUS
10
145.737
20
-134.088
11
145.828
21
-134.106
0
LINE
8
BLACK
6
CONTINUOUS
10
147.328
20
-133.506
11
147.405
21
-133.557
0
LINE
8
BLACK
6
CONTINUOUS
10
147.405
20
-133.557
11
147.457
21
-133.634
0
LINE
8
BLACK
6
CONTINUOUS
10
147.457
20
-133.634
11
147.475
21
-133.725
0
LINE
8
BLACK
6
CONTINUOUS
10
147.475
20
-133.725
11
147.475
21
-134.225
0
LINE
8
BLACK
6
CONTINUOUS
10
147.475
20
-134.225
11
147.457
21
-134.316
0
LINE
8
BLACK
6
CONTINUOUS
10
147.457
20
-134.316
11
147.405
21
-134.393
0
LINE
8
BLACK
6
CONTINUOUS
10
147.405
20
-134.393
11
147.328
21
-134.444
0
LINE
8
BLACK
6
CONTINUOUS
10
147.328
20
-134.444
11
147.237
21
-134.463
0
LINE
8
BLACK
6
CONTINUOUS
10
147.237
20
-134.463
11
146.762
21
-134.463
0
LINE
8
BLACK
6
CONTINUOUS
10
146.762
20
-134.463
11
146.672
21
-134.444
0
LINE
8
BLACK
6
CONTINUOUS
10
146.672
20
-134.444
11
146.595
21
-134.393
0
LINE
8
BLACK
6
CONTINUOUS
10
146.595
20
-134.393
11
146.543
21
-134.316
0
LINE
8
BLACK
6
CONTINUOUS
10
146.543
20
-134.316
11
146.525
21
-134.225
0
LINE
8
BLACK
6
CONTINUOUS
10
146.525
20
-134.225
11
146.525
21
-133.725
0
LINE
8
BLACK
6
CONTINUOUS
10
146.525
20
-133.725
11
146.543
21
-133.634
0
LINE
8
BLACK
6
CONTINUOUS
10
146.543
20
-133.634
11
146.595
21
-133.557
0
LINE
8
BLACK
6
CONTINUOUS
10
146.595
20
-133.557
11
146.672
21
-133.506
0
LINE
8
BLACK
6
CONTINUOUS
10
146.672
20
-133.506
11
146.762
21
-133.487
0
LINE
8
BLACK
6
CONTINUOUS
10
146.762
20
-133.487
11
147.237
21
-133.487
0
LINE
8
BLACK
6
CONTINUOUS
10
147.237
20
-133.487
11
147.328
21
-133.506
0
LINE
8
BLACK
6
CONTINUOUS
10
148.828
20
-132.806
11
148.905
21
-132.857
0
LINE
8
BLACK
6
CONTINUOUS
10
148.905
20
-132.857
11
148.957
21
-132.934
0
LINE
8
BLACK
6
CONTINUOUS
10
148.957
20
-132.934
11
148.975
21
-133.025
0
LINE
8
BLACK
6
CONTINUOUS
10
148.975
20
-133.025
11
148.975
21
-133.525
0
LINE
8
BLACK
6
CONTINUOUS
10
148.975
20
-133.525
11
148.957
21
-133.616
0
LINE
8
BLACK
6
CONTINUOUS
10
148.957
20
-133.616
11
148.905
21
-133.693
0
LINE
8
BLACK
6
CONTINUOUS
10
148.905
20
-133.693
11
148.828
21
-133.744
0
LINE
8
BLACK
6
CONTINUOUS
10
148.828
20
-133.744
11
148.737
21
-133.762
0
LINE
8
BLACK
6
CONTINUOUS
10
148.737
20
-133.762
11
148.262
21
-133.762
0
LINE
8
BLACK
6
CONTINUOUS
10
148.262
20
-133.762
11
148.172
21
-133.744
0
LINE
8
BLACK
6
CONTINUOUS
10
148.172
20
-133.744
11
148.095
21
-133.693
0
LINE
8
BLACK
6
CONTINUOUS
10
148.095
20
-133.693
11
148.043
21
-133.616
0
LINE
8
BLACK
6
CONTINUOUS
10
148.043
20
-133.616
11
148.025
21
-133.525
0
LINE
8
BLACK
6
CONTINUOUS
10
148.025
20
-133.525
11
148.025
21
-133.025
0
LINE
8
BLACK
6
CONTINUOUS
10
148.025
20
-133.025
11
148.043
21
-132.934
0
LINE
8
BLACK
6
CONTINUOUS
10
148.043
20
-132.934
11
148.095
21
-132.857
0
LINE
8
BLACK
6
CONTINUOUS
10
148.095
20
-132.857
11
148.172
21
-132.806
0
LINE
8
BLACK
6
CONTINUOUS
10
148.172
20
-132.806
11
148.262
21
-132.787
0
LINE
8
BLACK
6
CONTINUOUS
10
148.262
20
-132.787
11
148.737
21
-132.787
0
LINE
8
BLACK
6
CONTINUOUS
10
148.737
20
-132.787
11
148.828
21
-132.806
0
LINE
8
BLACK
6
CONTINUOUS
10
138.335
20
-132.65
11
137.595
21
-132.65
0
LINE
8
BLACK
6
CONTINUOUS
10
137.595
20
-132.65
11
137.595
21
-130.25
0
LINE
8
BLACK
6
CONTINUOUS
10
137.595
20
-130.25
11
138.335
21
-130.25
0
LINE
8
BLACK
6
CONTINUOUS
10
138.335
20
-130.25
11
138.335
21
-132.65
0
LINE
8
BLACK
6
CONTINUOUS
10
143.415
20
-132.65
11
142.675
21
-132.65
0
LINE
8
BLACK
6
CONTINUOUS
10
142.675
20
-132.65
11
142.675
21
-130.25
0
LINE
8
BLACK
6
CONTINUOUS
10
142.675
20
-130.25
11
143.415
21
-130.25
0
LINE
8
BLACK
6
CONTINUOUS
10
143.415
20
-130.25
11
143.415
21
-132.65
0
LINE
8
BLACK
6
CONTINUOUS
10
142.145
20
-132.65
11
141.405
21
-132.65
0
LINE
8
BLACK
6
CONTINUOUS
10
141.405
20
-132.65
11
141.405
21
-130.25
0
LINE
8
BLACK
6
CONTINUOUS
10
141.405
20
-130.25
11
142.145
21
-130.25
0
LINE
8
BLACK
6
CONTINUOUS
10
142.145
20
-130.25
11
142.145
21
-132.65
0
LINE
8
BLACK
6
CONTINUOUS
10
140.875
20
-132.65
11
140.135
21
-132.65
0
LINE
8
BLACK
6
CONTINUOUS
10
140.135
20
-132.65
11
140.135
21
-130.25
0
LINE
8
BLACK
6
CONTINUOUS
10
140.135
20
-130.25
11
140.875
21
-130.25
0
LINE
8
BLACK
6
CONTINUOUS
10
140.875
20
-130.25
11
140.875
21
-132.65
0
LINE
8
BLACK
6
CONTINUOUS
10
139.605
20
-132.65
11
138.865
21
-132.65
0
LINE
8
BLACK
6
CONTINUOUS
10
138.865
20
-132.65
11
138.865
21
-130.25
0
LINE
8
BLACK
6
CONTINUOUS
10
138.865
20
-130.25
11
139.605
21
-130.25
0
LINE
8
BLACK
6
CONTINUOUS
10
139.605
20
-130.25
11
139.605
21
-132.65
0
LINE
8
BLACK
6
CONTINUOUS
10
137.065
20
-132.65
11
136.325
21
-132.65
0
LINE
8
BLACK
6
CONTINUOUS
10
136.325
20
-132.65
11
136.325
21
-130.25
0
LINE
8
BLACK
6
CONTINUOUS
10
136.325
20
-130.25
11
137.065
21
-130.25
0
LINE
8
BLACK
6
CONTINUOUS
10
137.065
20
-130.25
11
137.065
21
-132.65
0
LINE
8
BLACK
6
CONTINUOUS
10
135.795
20
-132.65
11
135.055
21
-132.65
0
LINE
8
BLACK
6
CONTINUOUS
10
135.055
20
-132.65
11
135.055
21
-130.25
0
LINE
8
BLACK
6
CONTINUOUS
10
135.055
20
-130.25
11
135.795
21
-130.25
0
LINE
8
BLACK
6
CONTINUOUS
10
135.795
20
-130.25
11
135.795
21
-132.65
0
LINE
8
BLACK
6
CONTINUOUS
10
134.525
20
-132.65
11
133.785
21
-132.65
0
LINE
8
BLACK
6
CONTINUOUS
10
133.785
20
-132.65
11
133.785
21
-130.25
0
LINE
8
BLACK
6
CONTINUOUS
10
133.785
20
-130.25
11
134.525
21
-130.25
0
LINE
8
BLACK
6
CONTINUOUS
10
134.525
20
-130.25
11
134.525
21
-132.65
0
LINE
8
BLACK
6
CONTINUOUS
10
152.296
20
-124.955
11
152.674
21
-124.994
0
LINE
8
BLACK
6
CONTINUOUS
10
152.674
20
-124.994
11
153.045
21
-125.071
0
LINE
8
BLACK
6
CONTINUOUS
10
153.045
20
-125.071
11
153.407
21
-125.185
0
LINE
8
BLACK
6
CONTINUOUS
10
153.407
20
-125.185
11
153.756
21
-125.335
0
LINE
8
BLACK
6
CONTINUOUS
10
153.756
20
-125.335
11
154.087
21
-125.52
0
LINE
8
BLACK
6
CONTINUOUS
10
154.087
20
-125.52
11
154.398
21
-125.737
0
LINE
8
BLACK
6
CONTINUOUS
10
154.398
20
-125.737
11
154.686
21
-125.984
0
LINE
8
BLACK
6
CONTINUOUS
10
154.686
20
-125.984
11
154.947
21
-126.26
0
LINE
8
BLACK
6
CONTINUOUS
10
154.947
20
-126.26
11
155.179
21
-126.56
0
LINE
8
BLACK
6
CONTINUOUS
10
155.179
20
-126.56
11
155.38
21
-126.882
0
LINE
8
BLACK
6
CONTINUOUS
10
155.38
20
-126.882
11
155.547
21
-127.223
0
LINE
8
BLACK
6
CONTINUOUS
10
155.547
20
-127.223
11
155.678
21
-127.579
0
LINE
8
BLACK
6
CONTINUOUS
10
155.678
20
-127.579
11
155.773
21
-127.946
0
LINE
8
BLACK
6
CONTINUOUS
10
155.773
20
-127.946
11
155.831
21
-128.321
0
LINE
8
BLACK
6
CONTINUOUS
10
155.831
20
-128.321
11
155.85
21
-128.7
0
LINE
8
BLACK
6
CONTINUOUS
10
155.85
20
-128.7
11
155.85
21
-128.726
0
LINE
8
BLACK
6
CONTINUOUS
10
155.85
20
-128.726
11
155.828
21
-129.105
0
LINE
8
BLACK
6
CONTINUOUS
10
155.828
20
-129.105
11
155.768
21
-129.48
0
LINE
8
BLACK
6
CONTINUOUS
10
155.768
20
-129.48
11
155.67
21
-129.846
0
LINE
8
BLACK
6
CONTINUOUS
10
155.67
20
-129.846
11
155.536
21
-130.201
0
LINE
8
BLACK
6
CONTINUOUS
10
155.536
20
-130.201
11
155.367
21
-130.541
0
LINE
8
BLACK
6
CONTINUOUS
10
155.367
20
-130.541
11
155.164
21
-130.862
0
LINE
8
BLACK
6
CONTINUOUS
10
155.164
20
-130.862
11
154.93
21
-131.16
0
LINE
8
BLACK
6
CONTINUOUS
10
154.93
20
-131.16
11
154.667
21
-131.434
0
LINE
8
BLACK
6
CONTINUOUS
10
154.667
20
-131.434
11
154.378
21
-131.679
0
LINE
8
BLACK
6
CONTINUOUS
10
154.378
20
-131.679
11
154.065
21
-131.894
0
LINE
8
BLACK
6
CONTINUOUS
10
154.065
20
-131.894
11
153.732
21
-132.076
0
LINE
8
BLACK
6
CONTINUOUS
10
153.732
20
-132.076
11
153.383
21
-132.224
0
LINE
8
BLACK
6
CONTINUOUS
10
153.383
20
-132.224
11
153.02
21
-132.335
0
LINE
8
BLACK
6
CONTINUOUS
10
153.02
20
-132.335
11
152.648
21
-132.41
0
LINE
8
BLACK
6
CONTINUOUS
10
152.648
20
-132.41
11
152.27
21
-132.446
0
LINE
8
BLACK
6
CONTINUOUS
10
152.27
20
-132.446
11
151.891
21
-132.444
0
LINE
8
BLACK
6
CONTINUOUS
10
151.891
20
-132.444
11
151.513
21
-132.404
0
LINE
8
BLACK
6
CONTINUOUS
10
151.513
20
-132.404
11
151.142
21
-132.326
0
LINE
8
BLACK
6
CONTINUOUS
10
151.142
20
-132.326
11
150.781
21
-132.21
0
LINE
8
BLACK
6
CONTINUOUS
10
150.781
20
-132.21
11
150.433
21
-132.059
0
LINE
8
BLACK
6
CONTINUOUS
10
150.433
20
-132.059
11
150.102
21
-131.873
0
LINE
8
BLACK
6
CONTINUOUS
10
150.102
20
-131.873
11
149.791
21
-131.655
0
LINE
8
BLACK
6
CONTINUOUS
10
149.791
20
-131.655
11
149.504
21
-131.407
0
LINE
8
BLACK
6
CONTINUOUS
10
149.504
20
-131.407
11
149.244
21
-131.13
0
LINE
8
BLACK
6
CONTINUOUS
10
149.244
20
-131.13
11
149.013
21
-130.829
0
LINE
8
BLACK
6
CONTINUOUS
10
149.013
20
-130.829
11
148.814
21
-130.507
0
LINE
8
BLACK
6
CONTINUOUS
10
148.814
20
-130.507
11
148.648
21
-130.165
0
LINE
8
BLACK
6
CONTINUOUS
10
148.648
20
-130.165
11
148.518
21
-129.809
0
LINE
8
BLACK
6
CONTINUOUS
10
148.518
20
-129.809
11
148.424
21
-129.441
0
LINE
8
BLACK
6
CONTINUOUS
10
148.424
20
-129.441
11
148.368
21
-129.066
0
LINE
8
BLACK
6
CONTINUOUS
10
148.368
20
-129.066
11
148.35
21
-128.687
0
LINE
8
BLACK
6
CONTINUOUS
10
148.35
20
-128.687
11
148.371
21
-128.308
0
LINE
8
BLACK
6
CONTINUOUS
10
148.371
20
-128.308
11
148.429
21
-127.933
0
LINE
8
BLACK
6
CONTINUOUS
10
148.429
20
-127.933
11
148.526
21
-127.566
0
LINE
8
BLACK
6
CONTINUOUS
10
148.526
20
-127.566
11
148.658
21
-127.211
0
LINE
8
BLACK
6
CONTINUOUS
10
148.658
20
-127.211
11
148.827
21
-126.871
0
LINE
8
BLACK
6
CONTINUOUS
10
148.827
20
-126.871
11
149.028
21
-126.549
0
LINE
8
BLACK
6
CONTINUOUS
10
149.028
20
-126.549
11
149.261
21
-126.25
0
LINE
8
BLACK
6
CONTINUOUS
10
149.261
20
-126.25
11
149.523
21
-125.975
0
LINE
8
BLACK
6
CONTINUOUS
10
149.523
20
-125.975
11
149.812
21
-125.729
0
LINE
8
BLACK
6
CONTINUOUS
10
149.812
20
-125.729
11
150.124
21
-125.513
0
LINE
8
BLACK
6
CONTINUOUS
10
150.124
20
-125.513
11
150.456
21
-125.33
0
LINE
8
BLACK
6
CONTINUOUS
10
150.456
20
-125.33
11
150.805
21
-125.181
0
LINE
8
BLACK
6
CONTINUOUS
10
150.805
20
-125.181
11
151.167
21
-125.068
0
LINE
8
BLACK
6
CONTINUOUS
10
151.167
20
-125.068
11
151.539
21
-124.992
0
LINE
8
BLACK
6
CONTINUOUS
10
151.539
20
-124.992
11
151.917
21
-124.954
0
LINE
8
BLACK
6
CONTINUOUS
10
151.917
20
-124.954
11
152.296
21
-124.955
0
LINE
8
BLACK
6
CONTINUOUS
10
125.426
20
-124.955
11
125.804
21
-124.994
0
LINE
8
BLACK
6
CONTINUOUS
10
125.804
20
-124.994
11
126.175
21
-125.071
0
LINE
8
BLACK
6
CONTINUOUS
10
126.175
20
-125.071
11
126.537
21
-125.185
0
LINE
8
BLACK
6
CONTINUOUS
10
126.537
20
-125.185
11
126.886
21
-125.335
0
LINE
8
BLACK
6
CONTINUOUS
10
126.886
20
-125.335
11
127.217
21
-125.52
0
LINE
8
BLACK
6
CONTINUOUS
10
127.217
20
-125.52
11
127.528
21
-125.737
0
LINE
8
BLACK
6
CONTINUOUS
10
127.528
20
-125.737
11
127.816
21
-125.984
0
LINE
8
BLACK
6
CONTINUOUS
10
127.816
20
-125.984
11
128.077
21
-126.26
0
LINE
8
BLACK
6
CONTINUOUS
10
128.077
20
-126.26
11
128.309
21
-126.56
0
LINE
8
BLACK
6
CONTINUOUS
10
128.309
20
-126.56
11
128.51
21
-126.882
0
LINE
8
BLACK
6
CONTINUOUS
10
128.51
20
-126.882
11
128.677
21
-127.223
0
LINE
8
BLACK
6
CONTINUOUS
10
128.677
20
-127.223
11
128.808
21
-127.579
0
LINE
8
BLACK
6
CONTINUOUS
10
128.808
20
-127.579
11
128.903
21
-127.946
0
LINE
8
BLACK
6
CONTINUOUS
10
128.903
20
-127.946
11
128.961
21
-128.321
0
LINE
8
BLACK
6
CONTINUOUS
10
128.961
20
-128.321
11
128.98
21
-128.7
0
LINE
8
BLACK
6
CONTINUOUS
10
128.98
20
-128.7
11
128.98
21
-128.726
0
LINE
8
BLACK
6
CONTINUOUS
10
128.98
20
-128.726
11
128.958
21
-129.105
0
LINE
8
BLACK
6
CONTINUOUS
10
128.958
20
-129.105
11
128.898
21
-129.48
0
LINE
8
BLACK
6
CONTINUOUS
10
128.898
20
-129.48
11
128.8
21
-129.846
0
LINE
8
BLACK
6
CONTINUOUS
10
128.8
20
-129.846
11
128.666
21
-130.201
0
LINE
8
BLACK
6
CONTINUOUS
10
128.666
20
-130.201
11
128.497
21
-130.541
0
LINE
8
BLACK
6
CONTINUOUS
10
128.497
20
-130.541
11
128.294
21
-130.862
0
LINE
8
BLACK
6
CONTINUOUS
10
128.294
20
-130.862
11
128.06
21
-131.16
0
LINE
8
BLACK
6
CONTINUOUS
10
128.06
20
-131.16
11
127.797
21
-131.434
0
LINE
8
BLACK
6
CONTINUOUS
10
127.797
20
-131.434
11
127.508
21
-131.679
0
LINE
8
BLACK
6
CONTINUOUS
10
127.508
20
-131.679
11
127.195
21
-131.894
0
LINE
8
BLACK
6
CONTINUOUS
10
127.195
20
-131.894
11
126.862
21
-132.076
0
LINE
8
BLACK
6
CONTINUOUS
10
126.862
20
-132.076
11
126.513
21
-132.224
0
LINE
8
BLACK
6
CONTINUOUS
10
126.513
20
-132.224
11
126.15
21
-132.335
0
LINE
8
BLACK
6
CONTINUOUS
10
126.15
20
-132.335
11
125.778
21
-132.41
0
LINE
8
BLACK
6
CONTINUOUS
10
125.778
20
-132.41
11
125.4
21
-132.446
0
LINE
8
BLACK
6
CONTINUOUS
10
125.4
20
-132.446
11
125.021
21
-132.444
0
LINE
8
BLACK
6
CONTINUOUS
10
125.021
20
-132.444
11
124.643
21
-132.404
0
LINE
8
BLACK
6
CONTINUOUS
10
124.643
20
-132.404
11
124.272
21
-132.326
0
LINE
8
BLACK
6
CONTINUOUS
10
124.272
20
-132.326
11
123.911
21
-132.21
0
LINE
8
BLACK
6
CONTINUOUS
10
123.911
20
-132.21
11
123.563
21
-132.059
0
LINE
8
BLACK
6
CONTINUOUS
10
123.563
20
-132.059
11
123.232
21
-131.873
0
LINE
8
BLACK
6
CONTINUOUS
10
123.232
20
-131.873
11
122.921
21
-131.655
0
LINE
8
BLACK
6
CONTINUOUS
10
122.921
20
-131.655
11
122.634
21
-131.407
0
LINE
8
BLACK
6
CONTINUOUS
10
122.634
20
-131.407
11
122.374
21
-131.13
0
LINE
8
BLACK
6
CONTINUOUS
10
122.374
20
-131.13
11
122.143
21
-130.829
0
LINE
8
BLACK
6
CONTINUOUS
10
122.143
20
-130.829
11
121.944
21
-130.507
0
LINE
8
BLACK
6
CONTINUOUS
10
121.944
20
-130.507
11
121.778
21
-130.165
0
LINE
8
BLACK
6
CONTINUOUS
10
121.778
20
-130.165
11
121.648
21
-129.809
0
LINE
8
BLACK
6
CONTINUOUS
10
121.648
20
-129.809
11
121.554
21
-129.441
0
LINE
8
BLACK
6
CONTINUOUS
10
121.554
20
-129.441
11
121.498
21
-129.066
0
LINE
8
BLACK
6
CONTINUOUS
10
121.498
20
-129.066
11
121.48
21
-128.687
0
LINE
8
BLACK
6
CONTINUOUS
10
121.48
20
-128.687
11
121.5
21
-128.308
0
LINE
8
BLACK
6
CONTINUOUS
10
121.5
20
-128.308
11
121.559
21
-127.933
0
LINE
8
BLACK
6
CONTINUOUS
10
121.559
20
-127.933
11
121.655
21
-127.566
0
LINE
8
BLACK
6
CONTINUOUS
10
121.655
20
-127.566
11
121.788
21
-127.211
0
LINE
8
BLACK
6
CONTINUOUS
10
121.788
20
-127.211
11
121.956
21
-126.871
0
LINE
8
BLACK
6
CONTINUOUS
10
121.956
20
-126.871
11
122.158
21
-126.549
0
LINE
8
BLACK
6
CONTINUOUS
10
122.158
20
-126.549
11
122.391
21
-126.25
0
LINE
8
BLACK
6
CONTINUOUS
10
122.391
20
-126.25
11
122.653
21
-125.975
0
LINE
8
BLACK
6
CONTINUOUS
10
122.653
20
-125.975
11
122.942
21
-125.729
0
LINE
8
BLACK
6
CONTINUOUS
10
122.942
20
-125.729
11
123.254
21
-125.513
0
LINE
8
BLACK
6
CONTINUOUS
10
123.254
20
-125.513
11
123.586
21
-125.33
0
LINE
8
BLACK
6
CONTINUOUS
10
123.586
20
-125.33
11
123.935
21
-125.181
0
LINE
8
BLACK
6
CONTINUOUS
10
123.935
20
-125.181
11
124.297
21
-125.068
0
LINE
8
BLACK
6
CONTINUOUS
10
124.297
20
-125.068
11
124.669
21
-124.992
0
LINE
8
BLACK
6
CONTINUOUS
10
124.669
20
-124.992
11
125.047
21
-124.954
0
LINE
8
BLACK
6
CONTINUOUS
10
125.047
20
-124.954
11
125.426
21
-124.955
0
LINE
8
BLACK
6
CONTINUOUS
10
138.335
20
-128.75
11
137.595
21
-128.75
0
LINE
8
BLACK
6
CONTINUOUS
10
137.595
20
-128.75
11
137.595
21
-126.35
0
LINE
8
BLACK
6
CONTINUOUS
10
137.595
20
-126.35
11
138.335
21
-126.35
0
LINE
8
BLACK
6
CONTINUOUS
10
138.335
20
-126.35
11
138.335
21
-128.75
0
LINE
8
BLACK
6
CONTINUOUS
10
137.065
20
-128.75
11
136.325
21
-128.75
0
LINE
8
BLACK
6
CONTINUOUS
10
136.325
20
-128.75
11
136.325
21
-126.35
0
LINE
8
BLACK
6
CONTINUOUS
10
136.325
20
-126.35
11
137.065
21
-126.35
0
LINE
8
BLACK
6
CONTINUOUS
10
137.065
20
-126.35
11
137.065
21
-128.75
0
LINE
8
BLACK
6
CONTINUOUS
10
139.605
20
-128.75
11
138.865
21
-128.75
0
LINE
8
BLACK
6
CONTINUOUS
10
138.865
20
-128.75
11
138.865
21
-126.35
0
LINE
8
BLACK
6
CONTINUOUS
10
138.865
20
-126.35
11
139.605
21
-126.35
0
LINE
8
BLACK
6
CONTINUOUS
10
139.605
20
-126.35
11
139.605
21
-128.75
0
LINE
8
BLACK
6
CONTINUOUS
10
140.875
20
-128.75
11
140.135
21
-128.75
0
LINE
8
BLACK
6
CONTINUOUS
10
140.135
20
-128.75
11
140.135
21
-126.35
0
LINE
8
BLACK
6
CONTINUOUS
10
140.135
20
-126.35
11
140.875
21
-126.35
0
LINE
8
BLACK
6
CONTINUOUS
10
140.875
20
-126.35
11
140.875
21
-128.75
0
LINE
8
BLACK
6
CONTINUOUS
10
135.795
20
-128.75
11
135.055
21
-128.75
0
LINE
8
BLACK
6
CONTINUOUS
10
135.055
20
-128.75
11
135.055
21
-126.35
0
LINE
8
BLACK
6
CONTINUOUS
10
135.055
20
-126.35
11
135.795
21
-126.35
0
LINE
8
BLACK
6
CONTINUOUS
10
135.795
20
-126.35
11
135.795
21
-128.75
0
LINE
8
BLACK
6
CONTINUOUS
10
142.145
20
-128.75
11
141.405
21
-128.75
0
LINE
8
BLACK
6
CONTINUOUS
10
141.405
20
-128.75
11
141.405
21
-126.35
0
LINE
8
BLACK
6
CONTINUOUS
10
141.405
20
-126.35
11
142.145
21
-126.35
0
LINE
8
BLACK
6
CONTINUOUS
10
142.145
20
-126.35
11
142.145
21
-128.75
0
LINE
8
BLACK
6
CONTINUOUS
10
143.415
20
-128.75
11
142.675
21
-128.75
0
LINE
8
BLACK
6
CONTINUOUS
10
142.675
20
-128.75
11
142.675
21
-126.35
0
LINE
8
BLACK
6
CONTINUOUS
10
142.675
20
-126.35
11
143.415
21
-126.35
0
LINE
8
BLACK
6
CONTINUOUS
10
143.415
20
-126.35
11
143.415
21
-128.75
0
LINE
8
BLACK
6
CONTINUOUS
10
134.525
20
-128.75
11
133.785
21
-128.75
0
LINE
8
BLACK
6
CONTINUOUS
10
133.785
20
-128.75
11
133.785
21
-126.35
0
LINE
8
BLACK
6
CONTINUOUS
10
133.785
20
-126.35
11
134.525
21
-126.35
0
LINE
8
BLACK
6
CONTINUOUS
10
134.525
20
-126.35
11
134.525
21
-128.75
0
LINE
8
BLACK
6
CONTINUOUS
10
155.228
20
-119.093
11
155.305
21
-119.145
0
LINE
8
BLACK
6
CONTINUOUS
10
155.305
20
-119.145
11
155.357
21
-119.222
0
LINE
8
BLACK
6
CONTINUOUS
10
155.357
20
-119.222
11
155.375
21
-119.312
0
LINE
8
BLACK
6
CONTINUOUS
10
155.375
20
-119.312
11
155.375
21
-119.787
0
LINE
8
BLACK
6
CONTINUOUS
10
155.375
20
-119.787
11
155.357
21
-119.878
0
LINE
8
BLACK
6
CONTINUOUS
10
155.357
20
-119.878
11
155.305
21
-119.955
0
LINE
8
BLACK
6
CONTINUOUS
10
155.305
20
-119.955
11
155.228
21
-120.007
0
LINE
8
BLACK
6
CONTINUOUS
10
155.228
20
-120.007
11
155.137
21
-120.025
0
LINE
8
BLACK
6
CONTINUOUS
10
155.137
20
-120.025
11
154.537
21
-120.025
0
LINE
8
BLACK
6
CONTINUOUS
10
154.537
20
-120.025
11
154.447
21
-120.007
0
LINE
8
BLACK
6
CONTINUOUS
10
154.447
20
-120.007
11
154.37
21
-119.955
0
LINE
8
BLACK
6
CONTINUOUS
10
154.37
20
-119.955
11
154.318
21
-119.878
0
LINE
8
BLACK
6
CONTINUOUS
10
154.318
20
-119.878
11
154.3
21
-119.787
0
LINE
8
BLACK
6
CONTINUOUS
10
154.3
20
-119.787
11
154.3
21
-119.312
0
LINE
8
BLACK
6
CONTINUOUS
10
154.3
20
-119.312
11
154.318
21
-119.222
0
LINE
8
BLACK
6
CONTINUOUS
10
154.318
20
-119.222
11
154.37
21
-119.145
0
LINE
8
BLACK
6
CONTINUOUS
10
154.37
20
-119.145
11
154.447
21
-119.093
0
LINE
8
BLACK
6
CONTINUOUS
10
154.447
20
-119.093
11
154.537
21
-119.075
0
LINE
8
BLACK
6
CONTINUOUS
10
154.537
20
-119.075
11
155.137
21
-119.075
0
LINE
8
BLACK
6
CONTINUOUS
10
155.137
20
-119.075
11
155.228
21
-119.093
0
LINE
8
BLACK
6
CONTINUOUS
10
156.953
20
-119.093
11
157.03
21
-119.145
0
LINE
8
BLACK
6
CONTINUOUS
10
157.03
20
-119.145
11
157.082
21
-119.222
0
LINE
8
BLACK
6
CONTINUOUS
10
157.082
20
-119.222
11
157.1
21
-119.312
0
LINE
8
BLACK
6
CONTINUOUS
10
157.1
20
-119.312
11
157.1
21
-119.787
0
LINE
8
BLACK
6
CONTINUOUS
10
157.1
20
-119.787
11
157.082
21
-119.878
0
LINE
8
BLACK
6
CONTINUOUS
10
157.082
20
-119.878
11
157.03
21
-119.955
0
LINE
8
BLACK
6
CONTINUOUS
10
157.03
20
-119.955
11
156.953
21
-120.007
0
LINE
8
BLACK
6
CONTINUOUS
10
156.953
20
-120.007
11
156.862
21
-120.025
0
LINE
8
BLACK
6
CONTINUOUS
10
156.862
20
-120.025
11
156.262
21
-120.025
0
LINE
8
BLACK
6
CONTINUOUS
10
156.262
20
-120.025
11
156.172
21
-120.007
0
LINE
8
BLACK
6
CONTINUOUS
10
156.172
20
-120.007
11
156.095
21
-119.955
0
LINE
8
BLACK
6
CONTINUOUS
10
156.095
20
-119.955
11
156.043
21
-119.878
0
LINE
8
BLACK
6
CONTINUOUS
10
156.043
20
-119.878
11
156.025
21
-119.787
0
LINE
8
BLACK
6
CONTINUOUS
10
156.025
20
-119.787
11
156.025
21
-119.312
0
LINE
8
BLACK
6
CONTINUOUS
10
156.025
20
-119.312
11
156.043
21
-119.222
0
LINE
8
BLACK
6
CONTINUOUS
10
156.043
20
-119.222
11
156.095
21
-119.145
0
LINE
8
BLACK
6
CONTINUOUS
10
156.095
20
-119.145
11
156.172
21
-119.093
0
LINE
8
BLACK
6
CONTINUOUS
10
156.172
20
-119.093
11
156.262
21
-119.075
0
LINE
8
BLACK
6
CONTINUOUS
10
156.262
20
-119.075
11
156.862
21
-119.075
0
LINE
8
BLACK
6
CONTINUOUS
10
156.862
20
-119.075
11
156.953
21
-119.093
0
LINE
8
BLACK
6
CONTINUOUS
10
153.303
20
-119.043
11
153.38
21
-119.095
0
LINE
8
BLACK
6
CONTINUOUS
10
153.38
20
-119.095
11
153.432
21
-119.172
0
LINE
8
BLACK
6
CONTINUOUS
10
153.432
20
-119.172
11
153.45
21
-119.262
0
LINE
8
BLACK
6
CONTINUOUS
10
153.45
20
-119.262
11
153.45
21
-119.737
0
LINE
8
BLACK
6
CONTINUOUS
10
153.45
20
-119.737
11
153.432
21
-119.828
0
LINE
8
BLACK
6
CONTINUOUS
10
153.432
20
-119.828
11
153.38
21
-119.905
0
LINE
8
BLACK
6
CONTINUOUS
10
153.38
20
-119.905
11
153.303
21
-119.957
0
LINE
8
BLACK
6
CONTINUOUS
10
153.303
20
-119.957
11
153.213
21
-119.975
0
LINE
8
BLACK
6
CONTINUOUS
10
153.213
20
-119.975
11
152.612
21
-119.975
0
LINE
8
BLACK
6
CONTINUOUS
10
152.612
20
-119.975
11
152.522
21
-119.957
0
LINE
8
BLACK
6
CONTINUOUS
10
152.522
20
-119.957
11
152.445
21
-119.905
0
LINE
8
BLACK
6
CONTINUOUS
10
152.445
20
-119.905
11
152.393
21
-119.828
0
LINE
8
BLACK
6
CONTINUOUS
10
152.393
20
-119.828
11
152.375
21
-119.737
0
LINE
8
BLACK
6
CONTINUOUS
10
152.375
20
-119.737
11
152.375
21
-119.262
0
LINE
8
BLACK
6
CONTINUOUS
10
152.375
20
-119.262
11
152.393
21
-119.172
0
LINE
8
BLACK
6
CONTINUOUS
10
152.393
20
-119.172
11
152.445
21
-119.095
0
LINE
8
BLACK
6
CONTINUOUS
10
152.445
20
-119.095
11
152.522
21
-119.043
0
LINE
8
BLACK
6
CONTINUOUS
10
152.522
20
-119.043
11
152.612
21
-119.025
0
LINE
8
BLACK
6
CONTINUOUS
10
152.612
20
-119.025
11
153.213
21
-119.025
0
LINE
8
BLACK
6
CONTINUOUS
10
153.213
20
-119.025
11
153.303
21
-119.043
0
LINE
8
BLACK
6
CONTINUOUS
10
151.578
20
-119.043
11
151.655
21
-119.095
0
LINE
8
BLACK
6
CONTINUOUS
10
151.655
20
-119.095
11
151.707
21
-119.172
0
LINE
8
BLACK
6
CONTINUOUS
10
151.707
20
-119.172
11
151.725
21
-119.262
0
LINE
8
BLACK
6
CONTINUOUS
10
151.725
20
-119.262
11
151.725
21
-119.737
0
LINE
8
BLACK
6
CONTINUOUS
10
151.725
20
-119.737
11
151.707
21
-119.828
0
LINE
8
BLACK
6
CONTINUOUS
10
151.707
20
-119.828
11
151.655
21
-119.905
0
LINE
8
BLACK
6
CONTINUOUS
10
151.655
20
-119.905
11
151.578
21
-119.957
0
LINE
8
BLACK
6
CONTINUOUS
10
151.578
20
-119.957
11
151.487
21
-119.975
0
LINE
8
BLACK
6
CONTINUOUS
10
151.487
20
-119.975
11
150.887
21
-119.975
0
LINE
8
BLACK
6
CONTINUOUS
10
150.887
20
-119.975
11
150.797
21
-119.957
0
LINE
8
BLACK
6
CONTINUOUS
10
150.797
20
-119.957
11
150.72
21
-119.905
0
LINE
8
BLACK
6
CONTINUOUS
10
150.72
20
-119.905
11
150.668
21
-119.828
0
LINE
8
BLACK
6
CONTINUOUS
10
150.668
20
-119.828
11
150.65
21
-119.737
0
LINE
8
BLACK
6
CONTINUOUS
10
150.65
20
-119.737
11
150.65
21
-119.262
0
LINE
8
BLACK
6
CONTINUOUS
10
150.65
20
-119.262
11
150.668
21
-119.172
0
LINE
8
BLACK
6
CONTINUOUS
10
150.668
20
-119.172
11
150.72
21
-119.095
0
LINE
8
BLACK
6
CONTINUOUS
10
150.72
20
-119.095
11
150.797
21
-119.043
0
LINE
8
BLACK
6
CONTINUOUS
10
150.797
20
-119.043
11
150.887
21
-119.025
0
LINE
8
BLACK
6
CONTINUOUS
10
150.887
20
-119.025
11
151.487
21
-119.025
0
LINE
8
BLACK
6
CONTINUOUS
10
151.487
20
-119.025
11
151.578
21
-119.043
0
LINE
8
BLACK
6
CONTINUOUS
10
158.528
20
-117.593
11
158.605
21
-117.645
0
LINE
8
BLACK
6
CONTINUOUS
10
158.605
20
-117.645
11
158.657
21
-117.722
0
LINE
8
BLACK
6
CONTINUOUS
10
158.657
20
-117.722
11
158.675
21
-117.812
0
LINE
8
BLACK
6
CONTINUOUS
10
158.675
20
-117.812
11
158.675
21
-118.412
0
LINE
8
BLACK
6
CONTINUOUS
10
158.675
20
-118.412
11
158.657
21
-118.503
0
LINE
8
BLACK
6
CONTINUOUS
10
158.657
20
-118.503
11
158.605
21
-118.58
0
LINE
8
BLACK
6
CONTINUOUS
10
158.605
20
-118.58
11
158.528
21
-118.632
0
LINE
8
BLACK
6
CONTINUOUS
10
158.528
20
-118.632
11
158.438
21
-118.65
0
LINE
8
BLACK
6
CONTINUOUS
10
158.438
20
-118.65
11
157.963
21
-118.65
0
LINE
8
BLACK
6
CONTINUOUS
10
157.963
20
-118.65
11
157.872
21
-118.632
0
LINE
8
BLACK
6
CONTINUOUS
10
157.872
20
-118.632
11
157.795
21
-118.58
0
LINE
8
BLACK
6
CONTINUOUS
10
157.795
20
-118.58
11
157.743
21
-118.503
0
LINE
8
BLACK
6
CONTINUOUS
10
157.743
20
-118.503
11
157.725
21
-118.412
0
LINE
8
BLACK
6
CONTINUOUS
10
157.725
20
-118.412
11
157.725
21
-117.812
0
LINE
8
BLACK
6
CONTINUOUS
10
157.725
20
-117.812
11
157.743
21
-117.722
0
LINE
8
BLACK
6
CONTINUOUS
10
157.743
20
-117.722
11
157.795
21
-117.645
0
LINE
8
BLACK
6
CONTINUOUS
10
157.795
20
-117.645
11
157.872
21
-117.593
0
LINE
8
BLACK
6
CONTINUOUS
10
157.872
20
-117.593
11
157.963
21
-117.575
0
LINE
8
BLACK
6
CONTINUOUS
10
157.963
20
-117.575
11
158.438
21
-117.575
0
LINE
8
BLACK
6
CONTINUOUS
10
158.438
20
-117.575
11
158.528
21
-117.593
0
LINE
8
BLACK
6
CONTINUOUS
10
150.228
20
-117.443
11
150.305
21
-117.495
0
LINE
8
BLACK
6
CONTINUOUS
10
150.305
20
-117.495
11
150.357
21
-117.572
0
LINE
8
BLACK
6
CONTINUOUS
10
150.357
20
-117.572
11
150.375
21
-117.662
0
LINE
8
BLACK
6
CONTINUOUS
10
150.375
20
-117.662
11
150.375
21
-118.262
0
LINE
8
BLACK
6
CONTINUOUS
10
150.375
20
-118.262
11
150.357
21
-118.353
0
LINE
8
BLACK
6
CONTINUOUS
10
150.357
20
-118.353
11
150.305
21
-118.43
0
LINE
8
BLACK
6
CONTINUOUS
10
150.305
20
-118.43
11
150.228
21
-118.482
0
LINE
8
BLACK
6
CONTINUOUS
10
150.228
20
-118.482
11
150.137
21
-118.5
0
LINE
8
BLACK
6
CONTINUOUS
10
150.137
20
-118.5
11
149.662
21
-118.5
0
LINE
8
BLACK
6
CONTINUOUS
10
149.662
20
-118.5
11
149.572
21
-118.482
0
LINE
8
BLACK
6
CONTINUOUS
10
149.572
20
-118.482
11
149.495
21
-118.43
0
LINE
8
BLACK
6
CONTINUOUS
10
149.495
20
-118.43
11
149.443
21
-118.353
0
LINE
8
BLACK
6
CONTINUOUS
10
149.443
20
-118.353
11
149.425
21
-118.262
0
LINE
8
BLACK
6
CONTINUOUS
10
149.425
20
-118.262
11
149.425
21
-117.662
0
LINE
8
BLACK
6
CONTINUOUS
10
149.425
20
-117.662
11
149.443
21
-117.572
0
LINE
8
BLACK
6
CONTINUOUS
10
149.443
20
-117.572
11
149.495
21
-117.495
0
LINE
8
BLACK
6
CONTINUOUS
10
149.495
20
-117.495
11
149.572
21
-117.443
0
LINE
8
BLACK
6
CONTINUOUS
10
149.572
20
-117.443
11
149.662
21
-117.425
0
LINE
8
BLACK
6
CONTINUOUS
10
149.662
20
-117.425
11
150.137
21
-117.425
0
LINE
8
BLACK
6
CONTINUOUS
10
150.137
20
-117.425
11
150.228
21
-117.443
0
LINE
8
BLACK
6
CONTINUOUS
10
158.528
20
-115.868
11
158.605
21
-115.92
0
LINE
8
BLACK
6
CONTINUOUS
10
158.605
20
-115.92
11
158.657
21
-115.997
0
LINE
8
BLACK
6
CONTINUOUS
10
158.657
20
-115.997
11
158.675
21
-116.087
0
LINE
8
BLACK
6
CONTINUOUS
10
158.675
20
-116.087
11
158.675
21
-116.688
0
LINE
8
BLACK
6
CONTINUOUS
10
158.675
20
-116.688
11
158.657
21
-116.778
0
LINE
8
BLACK
6
CONTINUOUS
10
158.657
20
-116.778
11
158.605
21
-116.855
0
LINE
8
BLACK
6
CONTINUOUS
10
158.605
20
-116.855
11
158.528
21
-116.907
0
LINE
8
BLACK
6
CONTINUOUS
10
158.528
20
-116.907
11
158.438
21
-116.925
0
LINE
8
BLACK
6
CONTINUOUS
10
158.438
20
-116.925
11
157.963
21
-116.925
0
LINE
8
BLACK
6
CONTINUOUS
10
157.963
20
-116.925
11
157.872
21
-116.907
0
LINE
8
BLACK
6
CONTINUOUS
10
157.872
20
-116.907
11
157.795
21
-116.855
0
LINE
8
BLACK
6
CONTINUOUS
10
157.795
20
-116.855
11
157.743
21
-116.778
0
LINE
8
BLACK
6
CONTINUOUS
10
157.743
20
-116.778
11
157.725
21
-116.688
0
LINE
8
BLACK
6
CONTINUOUS
10
157.725
20
-116.688
11
157.725
21
-116.087
0
LINE
8
BLACK
6
CONTINUOUS
10
157.725
20
-116.087
11
157.743
21
-115.997
0
LINE
8
BLACK
6
CONTINUOUS
10
157.743
20
-115.997
11
157.795
21
-115.92
0
LINE
8
BLACK
6
CONTINUOUS
10
157.795
20
-115.92
11
157.872
21
-115.868
0
LINE
8
BLACK
6
CONTINUOUS
10
157.872
20
-115.868
11
157.963
21
-115.85
0
LINE
8
BLACK
6
CONTINUOUS
10
157.963
20
-115.85
11
158.438
21
-115.85
0
LINE
8
BLACK
6
CONTINUOUS
10
158.438
20
-115.85
11
158.528
21
-115.868
0
LINE
8
BLACK
6
CONTINUOUS
10
150.228
20
-115.718
11
150.305
21
-115.77
0
LINE
8
BLACK
6
CONTINUOUS
10
150.305
20
-115.77
11
150.357
21
-115.847
0
LINE
8
BLACK
6
CONTINUOUS
10
150.357
20
-115.847
11
150.375
21
-115.938
0
LINE
8
BLACK
6
CONTINUOUS
10
150.375
20
-115.938
11
150.375
21
-116.537
0
LINE
8
BLACK
6
CONTINUOUS
10
150.375
20
-116.537
11
150.357
21
-116.628
0
LINE
8
BLACK
6
CONTINUOUS
10
150.357
20
-116.628
11
150.305
21
-116.705
0
LINE
8
BLACK
6
CONTINUOUS
10
150.305
20
-116.705
11
150.228
21
-116.757
0
LINE
8
BLACK
6
CONTINUOUS
10
150.228
20
-116.757
11
150.137
21
-116.775
0
LINE
8
BLACK
6
CONTINUOUS
10
150.137
20
-116.775
11
149.662
21
-116.775
0
LINE
8
BLACK
6
CONTINUOUS
10
149.662
20
-116.775
11
149.572
21
-116.757
0
LINE
8
BLACK
6
CONTINUOUS
10
149.572
20
-116.757
11
149.495
21
-116.705
0
LINE
8
BLACK
6
CONTINUOUS
10
149.495
20
-116.705
11
149.443
21
-116.628
0
LINE
8
BLACK
6
CONTINUOUS
10
149.443
20
-116.628
11
149.425
21
-116.537
0
LINE
8
BLACK
6
CONTINUOUS
10
149.425
20
-116.537
11
149.425
21
-115.938
0
LINE
8
BLACK
6
CONTINUOUS
10
149.425
20
-115.938
11
149.443
21
-115.847
0
LINE
8
BLACK
6
CONTINUOUS
10
149.443
20
-115.847
11
149.495
21
-115.77
0
LINE
8
BLACK
6
CONTINUOUS
10
149.495
20
-115.77
11
149.572
21
-115.718
0
LINE
8
BLACK
6
CONTINUOUS
10
149.572
20
-115.718
11
149.662
21
-115.7
0
LINE
8
BLACK
6
CONTINUOUS
10
149.662
20
-115.7
11
150.137
21
-115.7
0
LINE
8
BLACK
6
CONTINUOUS
10
150.137
20
-115.7
11
150.228
21
-115.718
0
LINE
8
BLACK
6
CONTINUOUS
10
158.528
20
-114.281
11
158.605
21
-114.332
0
LINE
8
BLACK
6
CONTINUOUS
10
158.605
20
-114.332
11
158.657
21
-114.409
0
LINE
8
BLACK
6
CONTINUOUS
10
158.657
20
-114.409
11
158.675
21
-114.5
0
LINE
8
BLACK
6
CONTINUOUS
10
158.675
20
-114.5
11
158.675
21
-115.1
0
LINE
8
BLACK
6
CONTINUOUS
10
158.675
20
-115.1
11
158.657
21
-115.191
0
LINE
8
BLACK
6
CONTINUOUS
10
158.657
20
-115.191
11
158.605
21
-115.268
0
LINE
8
BLACK
6
CONTINUOUS
10
158.605
20
-115.268
11
158.528
21
-115.319
0
LINE
8
BLACK
6
CONTINUOUS
10
158.528
20
-115.319
11
158.438
21
-115.337
0
LINE
8
BLACK
6
CONTINUOUS
10
158.438
20
-115.337
11
157.963
21
-115.337
0
LINE
8
BLACK
6
CONTINUOUS
10
157.963
20
-115.337
11
157.872
21
-115.319
0
LINE
8
BLACK
6
CONTINUOUS
10
157.872
20
-115.319
11
157.795
21
-115.268
0
LINE
8
BLACK
6
CONTINUOUS
10
157.795
20
-115.268
11
157.743
21
-115.191
0
LINE
8
BLACK
6
CONTINUOUS
10
157.743
20
-115.191
11
157.725
21
-115.1
0
LINE
8
BLACK
6
CONTINUOUS
10
157.725
20
-115.1
11
157.725
21
-114.5
0
LINE
8
BLACK
6
CONTINUOUS
10
157.725
20
-114.5
11
157.743
21
-114.409
0
LINE
8
BLACK
6
CONTINUOUS
10
157.743
20
-114.409
11
157.795
21
-114.332
0
LINE
8
BLACK
6
CONTINUOUS
10
157.795
20
-114.332
11
157.872
21
-114.281
0
LINE
8
BLACK
6
CONTINUOUS
10
157.872
20
-114.281
11
157.963
21
-114.262
0
LINE
8
BLACK
6
CONTINUOUS
10
157.963
20
-114.262
11
158.438
21
-114.262
0
LINE
8
BLACK
6
CONTINUOUS
10
158.438
20
-114.262
11
158.528
21
-114.281
0
LINE
8
BLACK
6
CONTINUOUS
10
150.228
20
-114.143
11
150.305
21
-114.195
0
LINE
8
BLACK
6
CONTINUOUS
10
150.305
20
-114.195
11
150.357
21
-114.272
0
LINE
8
BLACK
6
CONTINUOUS
10
150.357
20
-114.272
11
150.375
21
-114.362
0
LINE
8
BLACK
6
CONTINUOUS
10
150.375
20
-114.362
11
150.375
21
-114.962
0
LINE
8
BLACK
6
CONTINUOUS
10
150.375
20
-114.962
11
150.357
21
-115.053
0
LINE
8
BLACK
6
CONTINUOUS
10
150.357
20
-115.053
11
150.305
21
-115.13
0
LINE
8
BLACK
6
CONTINUOUS
10
150.305
20
-115.13
11
150.228
21
-115.182
0
LINE
8
BLACK
6
CONTINUOUS
10
150.228
20
-115.182
11
150.137
21
-115.2
0
LINE
8
BLACK
6
CONTINUOUS
10
150.137
20
-115.2
11
149.662
21
-115.2
0
LINE
8
BLACK
6
CONTINUOUS
10
149.662
20
-115.2
11
149.572
21
-115.182
0
LINE
8
BLACK
6
CONTINUOUS
10
149.572
20
-115.182
11
149.495
21
-115.13
0
LINE
8
BLACK
6
CONTINUOUS
10
149.495
20
-115.13
11
149.443
21
-115.053
0
LINE
8
BLACK
6
CONTINUOUS
10
149.443
20
-115.053
11
149.425
21
-114.962
0
LINE
8
BLACK
6
CONTINUOUS
10
149.425
20
-114.962
11
149.425
21
-114.362
0
LINE
8
BLACK
6
CONTINUOUS
10
149.425
20
-114.362
11
149.443
21
-114.272
0
LINE
8
BLACK
6
CONTINUOUS
10
149.443
20
-114.272
11
149.495
21
-114.195
0
LINE
8
BLACK
6
CONTINUOUS
10
149.495
20
-114.195
11
149.572
21
-114.143
0
LINE
8
BLACK
6
CONTINUOUS
10
149.572
20
-114.143
11
149.662
21
-114.125
0
LINE
8
BLACK
6
CONTINUOUS
10
149.662
20
-114.125
11
150.137
21
-114.125
0
LINE
8
BLACK
6
CONTINUOUS
10
150.137
20
-114.125
11
150.228
21
-114.143
0
LINE
8
BLACK
6
CONTINUOUS
10
158.528
20
-112.556
11
158.605
21
-112.607
0
LINE
8
BLACK
6
CONTINUOUS
10
158.605
20
-112.607
11
158.657
21
-112.684
0
LINE
8
BLACK
6
CONTINUOUS
10
158.657
20
-112.684
11
158.675
21
-112.775
0
LINE
8
BLACK
6
CONTINUOUS
10
158.675
20
-112.775
11
158.675
21
-113.375
0
LINE
8
BLACK
6
CONTINUOUS
10
158.675
20
-113.375
11
158.657
21
-113.466
0
LINE
8
BLACK
6
CONTINUOUS
10
158.657
20
-113.466
11
158.605
21
-113.543
0
LINE
8
BLACK
6
CONTINUOUS
10
158.605
20
-113.543
11
158.528
21
-113.594
0
LINE
8
BLACK
6
CONTINUOUS
10
158.528
20
-113.594
11
158.438
21
-113.612
0
LINE
8
BLACK
6
CONTINUOUS
10
158.438
20
-113.612
11
157.963
21
-113.612
0
LINE
8
BLACK
6
CONTINUOUS
10
157.963
20
-113.612
11
157.872
21
-113.594
0
LINE
8
BLACK
6
CONTINUOUS
10
157.872
20
-113.594
11
157.795
21
-113.543
0
LINE
8
BLACK
6
CONTINUOUS
10
157.795
20
-113.543
11
157.743
21
-113.466
0
LINE
8
BLACK
6
CONTINUOUS
10
157.743
20
-113.466
11
157.725
21
-113.375
0
LINE
8
BLACK
6
CONTINUOUS
10
157.725
20
-113.375
11
157.725
21
-112.775
0
LINE
8
BLACK
6
CONTINUOUS
10
157.725
20
-112.775
11
157.743
21
-112.684
0
LINE
8
BLACK
6
CONTINUOUS
10
157.743
20
-112.684
11
157.795
21
-112.607
0
LINE
8
BLACK
6
CONTINUOUS
10
157.795
20
-112.607
11
157.872
21
-112.556
0
LINE
8
BLACK
6
CONTINUOUS
10
157.872
20
-112.556
11
157.963
21
-112.537
0
LINE
8
BLACK
6
CONTINUOUS
10
157.963
20
-112.537
11
158.438
21
-112.537
0
LINE
8
BLACK
6
CONTINUOUS
10
158.438
20
-112.537
11
158.528
21
-112.556
0
LINE
8
BLACK
6
CONTINUOUS
10
150.228
20
-112.418
11
150.305
21
-112.47
0
LINE
8
BLACK
6
CONTINUOUS
10
150.305
20
-112.47
11
150.357
21
-112.547
0
LINE
8
BLACK
6
CONTINUOUS
10
150.357
20
-112.547
11
150.375
21
-112.637
0
LINE
8
BLACK
6
CONTINUOUS
10
150.375
20
-112.637
11
150.375
21
-113.237
0
LINE
8
BLACK
6
CONTINUOUS
10
150.375
20
-113.237
11
150.357
21
-113.328
0
LINE
8
BLACK
6
CONTINUOUS
10
150.357
20
-113.328
11
150.305
21
-113.405
0
LINE
8
BLACK
6
CONTINUOUS
10
150.305
20
-113.405
11
150.228
21
-113.457
0
LINE
8
BLACK
6
CONTINUOUS
10
150.228
20
-113.457
11
150.137
21
-113.475
0
LINE
8
BLACK
6
CONTINUOUS
10
150.137
20
-113.475
11
149.662
21
-113.475
0
LINE
8
BLACK
6
CONTINUOUS
10
149.662
20
-113.475
11
149.572
21
-113.457
0
LINE
8
BLACK
6
CONTINUOUS
10
149.572
20
-113.457
11
149.495
21
-113.405
0
LINE
8
BLACK
6
CONTINUOUS
10
149.495
20
-113.405
11
149.443
21
-113.328
0
LINE
8
BLACK
6
CONTINUOUS
10
149.443
20
-113.328
11
149.425
21
-113.237
0
LINE
8
BLACK
6
CONTINUOUS
10
149.425
20
-113.237
11
149.425
21
-112.637
0
LINE
8
BLACK
6
CONTINUOUS
10
149.425
20
-112.637
11
149.443
21
-112.547
0
LINE
8
BLACK
6
CONTINUOUS
10
149.443
20
-112.547
11
149.495
21
-112.47
0
LINE
8
BLACK
6
CONTINUOUS
10
149.495
20
-112.47
11
149.572
21
-112.418
0
LINE
8
BLACK
6
CONTINUOUS
10
149.572
20
-112.418
11
149.662
21
-112.4
0
LINE
8
BLACK
6
CONTINUOUS
10
149.662
20
-112.4
11
150.137
21
-112.4
0
LINE
8
BLACK
6
CONTINUOUS
10
150.137
20
-112.4
11
150.228
21
-112.418
0
LINE
8
BLACK
6
CONTINUOUS
10
148.078
20
-111.143
11
148.155
21
-111.195
0
LINE
8
BLACK
6
CONTINUOUS
10
148.155
20
-111.195
11
148.207
21
-111.272
0
LINE
8
BLACK
6
CONTINUOUS
10
148.207
20
-111.272
11
148.225
21
-111.362
0
LINE
8
BLACK
6
CONTINUOUS
10
148.225
20
-111.362
11
148.225
21
-111.862
0
LINE
8
BLACK
6
CONTINUOUS
10
148.225
20
-111.862
11
148.207
21
-111.953
0
LINE
8
BLACK
6
CONTINUOUS
10
148.207
20
-111.953
11
148.155
21
-112.03
0
LINE
8
BLACK
6
CONTINUOUS
10
148.155
20
-112.03
11
148.078
21
-112.082
0
LINE
8
BLACK
6
CONTINUOUS
10
148.078
20
-112.082
11
147.987
21
-112.1
0
LINE
8
BLACK
6
CONTINUOUS
10
147.987
20
-112.1
11
147.512
21
-112.1
0
LINE
8
BLACK
6
CONTINUOUS
10
147.512
20
-112.1
11
147.422
21
-112.082
0
LINE
8
BLACK
6
CONTINUOUS
10
147.422
20
-112.082
11
147.345
21
-112.03
0
LINE
8
BLACK
6
CONTINUOUS
10
147.345
20
-112.03
11
147.293
21
-111.953
0
LINE
8
BLACK
6
CONTINUOUS
10
147.293
20
-111.953
11
147.275
21
-111.862
0
LINE
8
BLACK
6
CONTINUOUS
10
147.275
20
-111.862
11
147.275
21
-111.362
0
LINE
8
BLACK
6
CONTINUOUS
10
147.275
20
-111.362
11
147.293
21
-111.272
0
LINE
8
BLACK
6
CONTINUOUS
10
147.293
20
-111.272
11
147.345
21
-111.195
0
LINE
8
BLACK
6
CONTINUOUS
10
147.345
20
-111.195
11
147.422
21
-111.143
0
LINE
8
BLACK
6
CONTINUOUS
10
147.422
20
-111.143
11
147.512
21
-111.125
0
LINE
8
BLACK
6
CONTINUOUS
10
147.512
20
-111.125
11
147.987
21
-111.125
0
LINE
8
BLACK
6
CONTINUOUS
10
147.987
20
-111.125
11
148.078
21
-111.143
0
LINE
8
BLACK
6
CONTINUOUS
10
151.978
20
-110.743
11
152.055
21
-110.795
0
LINE
8
BLACK
6
CONTINUOUS
10
152.055
20
-110.795
11
152.107
21
-110.872
0
LINE
8
BLACK
6
CONTINUOUS
10
152.107
20
-110.872
11
152.125
21
-110.962
0
LINE
8
BLACK
6
CONTINUOUS
10
152.125
20
-110.962
11
152.125
21
-111.438
0
LINE
8
BLACK
6
CONTINUOUS
10
152.125
20
-111.438
11
152.107
21
-111.528
0
LINE
8
BLACK
6
CONTINUOUS
10
152.107
20
-111.528
11
152.055
21
-111.605
0
LINE
8
BLACK
6
CONTINUOUS
10
152.055
20
-111.605
11
151.978
21
-111.657
0
LINE
8
BLACK
6
CONTINUOUS
10
151.978
20
-111.657
11
151.887
21
-111.675
0
LINE
8
BLACK
6
CONTINUOUS
10
151.887
20
-111.675
11
151.287
21
-111.675
0
LINE
8
BLACK
6
CONTINUOUS
10
151.287
20
-111.675
11
151.197
21
-111.657
0
LINE
8
BLACK
6
CONTINUOUS
10
151.197
20
-111.657
11
151.12
21
-111.605
0
LINE
8
BLACK
6
CONTINUOUS
10
151.12
20
-111.605
11
151.068
21
-111.528
0
LINE
8
BLACK
6
CONTINUOUS
10
151.068
20
-111.528
11
151.05
21
-111.438
0
LINE
8
BLACK
6
CONTINUOUS
10
151.05
20
-111.438
11
151.05
21
-110.962
0
LINE
8
BLACK
6
CONTINUOUS
10
151.05
20
-110.962
11
151.068
21
-110.872
0
LINE
8
BLACK
6
CONTINUOUS
10
151.068
20
-110.872
11
151.12
21
-110.795
0
LINE
8
BLACK
6
CONTINUOUS
10
151.12
20
-110.795
11
151.197
21
-110.743
0
LINE
8
BLACK
6
CONTINUOUS
10
151.197
20
-110.743
11
151.287
21
-110.725
0
LINE
8
BLACK
6
CONTINUOUS
10
151.287
20
-110.725
11
151.887
21
-110.725
0
LINE
8
BLACK
6
CONTINUOUS
10
151.887
20
-110.725
11
151.978
21
-110.743
0
LINE
8
BLACK
6
CONTINUOUS
10
153.703
20
-110.743
11
153.78
21
-110.795
0
LINE
8
BLACK
6
CONTINUOUS
10
153.78
20
-110.795
11
153.832
21
-110.872
0
LINE
8
BLACK
6
CONTINUOUS
10
153.832
20
-110.872
11
153.85
21
-110.962
0
LINE
8
BLACK
6
CONTINUOUS
10
153.85
20
-110.962
11
153.85
21
-111.438
0
LINE
8
BLACK
6
CONTINUOUS
10
153.85
20
-111.438
11
153.832
21
-111.528
0
LINE
8
BLACK
6
CONTINUOUS
10
153.832
20
-111.528
11
153.78
21
-111.605
0
LINE
8
BLACK
6
CONTINUOUS
10
153.78
20
-111.605
11
153.703
21
-111.657
0
LINE
8
BLACK
6
CONTINUOUS
10
153.703
20
-111.657
11
153.612
21
-111.675
0
LINE
8
BLACK
6
CONTINUOUS
10
153.612
20
-111.675
11
153.012
21
-111.675
0
LINE
8
BLACK
6
CONTINUOUS
10
153.012
20
-111.675
11
152.922
21
-111.657
0
LINE
8
BLACK
6
CONTINUOUS
10
152.922
20
-111.657
11
152.845
21
-111.605
0
LINE
8
BLACK
6
CONTINUOUS
10
152.845
20
-111.605
11
152.793
21
-111.528
0
LINE
8
BLACK
6
CONTINUOUS
10
152.793
20
-111.528
11
152.775
21
-111.438
0
LINE
8
BLACK
6
CONTINUOUS
10
152.775
20
-111.438
11
152.775
21
-110.962
0
LINE
8
BLACK
6
CONTINUOUS
10
152.775
20
-110.962
11
152.793
21
-110.872
0
LINE
8
BLACK
6
CONTINUOUS
10
152.793
20
-110.872
11
152.845
21
-110.795
0
LINE
8
BLACK
6
CONTINUOUS
10
152.845
20
-110.795
11
152.922
21
-110.743
0
LINE
8
BLACK
6
CONTINUOUS
10
152.922
20
-110.743
11
153.012
21
-110.725
0
LINE
8
BLACK
6
CONTINUOUS
10
153.012
20
-110.725
11
153.612
21
-110.725
0
LINE
8
BLACK
6
CONTINUOUS
10
153.612
20
-110.725
11
153.703
21
-110.743
0
LINE
8
BLACK
6
CONTINUOUS
10
155.628
20
-110.693
11
155.705
21
-110.745
0
LINE
8
BLACK
6
CONTINUOUS
10
155.705
20
-110.745
11
155.757
21
-110.822
0
LINE
8
BLACK
6
CONTINUOUS
10
155.757
20
-110.822
11
155.775
21
-110.912
0
LINE
8
BLACK
6
CONTINUOUS
10
155.775
20
-110.912
11
155.775
21
-111.387
0
LINE
8
BLACK
6
CONTINUOUS
10
155.775
20
-111.387
11
155.757
21
-111.478
0
LINE
8
BLACK
6
CONTINUOUS
10
155.757
20
-111.478
11
155.705
21
-111.555
0
LINE
8
BLACK
6
CONTINUOUS
10
155.705
20
-111.555
11
155.628
21
-111.607
0
LINE
8
BLACK
6
CONTINUOUS
10
155.628
20
-111.607
11
155.537
21
-111.625
0
LINE
8
BLACK
6
CONTINUOUS
10
155.537
20
-111.625
11
154.938
21
-111.625
0
LINE
8
BLACK
6
CONTINUOUS
10
154.938
20
-111.625
11
154.847
21
-111.607
0
LINE
8
BLACK
6
CONTINUOUS
10
154.847
20
-111.607
11
154.77
21
-111.555
0
LINE
8
BLACK
6
CONTINUOUS
10
154.77
20
-111.555
11
154.718
21
-111.478
0
LINE
8
BLACK
6
CONTINUOUS
10
154.718
20
-111.478
11
154.7
21
-111.387
0
LINE
8
BLACK
6
CONTINUOUS
10
154.7
20
-111.387
11
154.7
21
-110.912
0
LINE
8
BLACK
6
CONTINUOUS
10
154.7
20
-110.912
11
154.718
21
-110.822
0
LINE
8
BLACK
6
CONTINUOUS
10
154.718
20
-110.822
11
154.77
21
-110.745
0
LINE
8
BLACK
6
CONTINUOUS
10
154.77
20
-110.745
11
154.847
21
-110.693
0
LINE
8
BLACK
6
CONTINUOUS
10
154.847
20
-110.693
11
154.938
21
-110.675
0
LINE
8
BLACK
6
CONTINUOUS
10
154.938
20
-110.675
11
155.537
21
-110.675
0
LINE
8
BLACK
6
CONTINUOUS
10
155.537
20
-110.675
11
155.628
21
-110.693
0
LINE
8
BLACK
6
CONTINUOUS
10
157.353
20
-110.693
11
157.43
21
-110.745
0
LINE
8
BLACK
6
CONTINUOUS
10
157.43
20
-110.745
11
157.482
21
-110.822
0
LINE
8
BLACK
6
CONTINUOUS
10
157.482
20
-110.822
11
157.5
21
-110.912
0
LINE
8
BLACK
6
CONTINUOUS
10
157.5
20
-110.912
11
157.5
21
-111.387
0
LINE
8
BLACK
6
CONTINUOUS
10
157.5
20
-111.387
11
157.482
21
-111.478
0
LINE
8
BLACK
6
CONTINUOUS
10
157.482
20
-111.478
11
157.43
21
-111.555
0
LINE
8
BLACK
6
CONTINUOUS
10
157.43
20
-111.555
11
157.353
21
-111.607
0
LINE
8
BLACK
6
CONTINUOUS
10
157.353
20
-111.607
11
157.262
21
-111.625
0
LINE
8
BLACK
6
CONTINUOUS
10
157.262
20
-111.625
11
156.662
21
-111.625
0
LINE
8
BLACK
6
CONTINUOUS
10
156.662
20
-111.625
11
156.572
21
-111.607
0
LINE
8
BLACK
6
CONTINUOUS
10
156.572
20
-111.607
11
156.495
21
-111.555
0
LINE
8
BLACK
6
CONTINUOUS
10
156.495
20
-111.555
11
156.443
21
-111.478
0
LINE
8
BLACK
6
CONTINUOUS
10
156.443
20
-111.478
11
156.425
21
-111.387
0
LINE
8
BLACK
6
CONTINUOUS
10
156.425
20
-111.387
11
156.425
21
-110.912
0
LINE
8
BLACK
6
CONTINUOUS
10
156.425
20
-110.912
11
156.443
21
-110.822
0
LINE
8
BLACK
6
CONTINUOUS
10
156.443
20
-110.822
11
156.495
21
-110.745
0
LINE
8
BLACK
6
CONTINUOUS
10
156.495
20
-110.745
11
156.572
21
-110.693
0
LINE
8
BLACK
6
CONTINUOUS
10
156.572
20
-110.693
11
156.662
21
-110.675
0
LINE
8
BLACK
6
CONTINUOUS
10
156.662
20
-110.675
11
157.262
21
-110.675
0
LINE
8
BLACK
6
CONTINUOUS
10
157.262
20
-110.675
11
157.353
21
-110.693
0
LINE
8
BLACK
6
CONTINUOUS
10
148.078
20
-109.318
11
148.155
21
-109.37
0
LINE
8
BLACK
6
CONTINUOUS
10
148.155
20
-109.37
11
148.207
21
-109.447
0
LINE
8
BLACK
6
CONTINUOUS
10
148.207
20
-109.447
11
148.225
21
-109.537
0
LINE
8
BLACK
6
CONTINUOUS
10
148.225
20
-109.537
11
148.225
21
-110.037
0
LINE
8
BLACK
6
CONTINUOUS
10
148.225
20
-110.037
11
148.207
21
-110.128
0
LINE
8
BLACK
6
CONTINUOUS
10
148.207
20
-110.128
11
148.155
21
-110.205
0
LINE
8
BLACK
6
CONTINUOUS
10
148.155
20
-110.205
11
148.078
21
-110.257
0
LINE
8
BLACK
6
CONTINUOUS
10
148.078
20
-110.257
11
147.987
21
-110.275
0
LINE
8
BLACK
6
CONTINUOUS
10
147.987
20
-110.275
11
147.512
21
-110.275
0
LINE
8
BLACK
6
CONTINUOUS
10
147.512
20
-110.275
11
147.422
21
-110.257
0
LINE
8
BLACK
6
CONTINUOUS
10
147.422
20
-110.257
11
147.345
21
-110.205
0
LINE
8
BLACK
6
CONTINUOUS
10
147.345
20
-110.205
11
147.293
21
-110.128
0
LINE
8
BLACK
6
CONTINUOUS
10
147.293
20
-110.128
11
147.275
21
-110.037
0
LINE
8
BLACK
6
CONTINUOUS
10
147.275
20
-110.037
11
147.275
21
-109.537
0
LINE
8
BLACK
6
CONTINUOUS
10
147.275
20
-109.537
11
147.293
21
-109.447
0
LINE
8
BLACK
6
CONTINUOUS
10
147.293
20
-109.447
11
147.345
21
-109.37
0
LINE
8
BLACK
6
CONTINUOUS
10
147.345
20
-109.37
11
147.422
21
-109.318
0
LINE
8
BLACK
6
CONTINUOUS
10
147.422
20
-109.318
11
147.512
21
-109.3
0
LINE
8
BLACK
6
CONTINUOUS
10
147.512
20
-109.3
11
147.987
21
-109.3
0
LINE
8
BLACK
6
CONTINUOUS
10
147.987
20
-109.3
11
148.078
21
-109.318
0
LINE
8
BLACK
6
CONTINUOUS
10
151.228
20
-108.743
11
151.305
21
-108.795
0
LINE
8
BLACK
6
CONTINUOUS
10
151.305
20
-108.795
11
151.357
21
-108.872
0
LINE
8
BLACK
6
CONTINUOUS
10
151.357
20
-108.872
11
151.375
21
-108.962
0
LINE
8
BLACK
6
CONTINUOUS
10
151.375
20
-108.962
11
151.375
21
-109.462
0
LINE
8
BLACK
6
CONTINUOUS
10
151.375
20
-109.462
11
151.357
21
-109.553
0
LINE
8
BLACK
6
CONTINUOUS
10
151.357
20
-109.553
11
151.305
21
-109.63
0
LINE
8
BLACK
6
CONTINUOUS
10
151.305
20
-109.63
11
151.228
21
-109.682
0
LINE
8
BLACK
6
CONTINUOUS
10
151.228
20
-109.682
11
151.137
21
-109.7
0
LINE
8
BLACK
6
CONTINUOUS
10
151.137
20
-109.7
11
150.662
21
-109.7
0
LINE
8
BLACK
6
CONTINUOUS
10
150.662
20
-109.7
11
150.572
21
-109.682
0
LINE
8
BLACK
6
CONTINUOUS
10
150.572
20
-109.682
11
150.495
21
-109.63
0
LINE
8
BLACK
6
CONTINUOUS
10
150.495
20
-109.63
11
150.443
21
-109.553
0
LINE
8
BLACK
6
CONTINUOUS
10
150.443
20
-109.553
11
150.425
21
-109.462
0
LINE
8
BLACK
6
CONTINUOUS
10
150.425
20
-109.462
11
150.425
21
-108.962
0
LINE
8
BLACK
6
CONTINUOUS
10
150.425
20
-108.962
11
150.443
21
-108.872
0
LINE
8
BLACK
6
CONTINUOUS
10
150.443
20
-108.872
11
150.495
21
-108.795
0
LINE
8
BLACK
6
CONTINUOUS
10
150.495
20
-108.795
11
150.572
21
-108.743
0
LINE
8
BLACK
6
CONTINUOUS
10
150.572
20
-108.743
11
150.662
21
-108.725
0
LINE
8
BLACK
6
CONTINUOUS
10
150.662
20
-108.725
11
151.137
21
-108.725
0
LINE
8
BLACK
6
CONTINUOUS
10
151.137
20
-108.725
11
151.228
21
-108.743
0
LINE
8
BLACK
6
CONTINUOUS
10
149.678
20
-108.731
11
149.755
21
-108.782
0
LINE
8
BLACK
6
CONTINUOUS
10
149.755
20
-108.782
11
149.807
21
-108.859
0
LINE
8
BLACK
6
CONTINUOUS
10
149.807
20
-108.859
11
149.825
21
-108.95
0
LINE
8
BLACK
6
CONTINUOUS
10
149.825
20
-108.95
11
149.825
21
-109.45
0
LINE
8
BLACK
6
CONTINUOUS
10
149.825
20
-109.45
11
149.807
21
-109.541
0
LINE
8
BLACK
6
CONTINUOUS
10
149.807
20
-109.541
11
149.755
21
-109.618
0
LINE
8
BLACK
6
CONTINUOUS
10
149.755
20
-109.618
11
149.678
21
-109.669
0
LINE
8
BLACK
6
CONTINUOUS
10
149.678
20
-109.669
11
149.588
21
-109.688
0
LINE
8
BLACK
6
CONTINUOUS
10
149.588
20
-109.688
11
149.112
21
-109.688
0
LINE
8
BLACK
6
CONTINUOUS
10
149.112
20
-109.688
11
149.022
21
-109.669
0
LINE
8
BLACK
6
CONTINUOUS
10
149.022
20
-109.669
11
148.945
21
-109.618
0
LINE
8
BLACK
6
CONTINUOUS
10
148.945
20
-109.618
11
148.893
21
-109.541
0
LINE
8
BLACK
6
CONTINUOUS
10
148.893
20
-109.541
11
148.875
21
-109.45
0
LINE
8
BLACK
6
CONTINUOUS
10
148.875
20
-109.45
11
148.875
21
-108.95
0
LINE
8
BLACK
6
CONTINUOUS
10
148.875
20
-108.95
11
148.893
21
-108.859
0
LINE
8
BLACK
6
CONTINUOUS
10
148.893
20
-108.859
11
148.945
21
-108.782
0
LINE
8
BLACK
6
CONTINUOUS
10
148.945
20
-108.782
11
149.022
21
-108.731
0
LINE
8
BLACK
6
CONTINUOUS
10
149.022
20
-108.731
11
149.112
21
-108.712
0
LINE
8
BLACK
6
CONTINUOUS
10
149.112
20
-108.712
11
149.588
21
-108.712
0
LINE
8
BLACK
6
CONTINUOUS
10
149.588
20
-108.712
11
149.678
21
-108.731
0
LINE
8
BLACK
6
CONTINUOUS
10
146.178
20
-107.756
11
146.255
21
-107.807
0
LINE
8
BLACK
6
CONTINUOUS
10
146.255
20
-107.807
11
146.307
21
-107.884
0
LINE
8
BLACK
6
CONTINUOUS
10
146.307
20
-107.884
11
146.325
21
-107.975
0
LINE
8
BLACK
6
CONTINUOUS
10
146.325
20
-107.975
11
146.325
21
-108.475
0
LINE
8
BLACK
6
CONTINUOUS
10
146.325
20
-108.475
11
146.307
21
-108.566
0
LINE
8
BLACK
6
CONTINUOUS
10
146.307
20
-108.566
11
146.255
21
-108.643
0
LINE
8
BLACK
6
CONTINUOUS
10
146.255
20
-108.643
11
146.178
21
-108.694
0
LINE
8
BLACK
6
CONTINUOUS
10
146.178
20
-108.694
11
146.088
21
-108.712
0
LINE
8
BLACK
6
CONTINUOUS
10
146.088
20
-108.712
11
145.612
21
-108.712
0
LINE
8
BLACK
6
CONTINUOUS
10
145.612
20
-108.712
11
145.522
21
-108.694
0
LINE
8
BLACK
6
CONTINUOUS
10
145.522
20
-108.694
11
145.445
21
-108.643
0
LINE
8
BLACK
6
CONTINUOUS
10
145.445
20
-108.643
11
145.393
21
-108.566
0
LINE
8
BLACK
6
CONTINUOUS
10
145.393
20
-108.566
11
145.375
21
-108.475
0
LINE
8
BLACK
6
CONTINUOUS
10
145.375
20
-108.475
11
145.375
21
-107.975
0
LINE
8
BLACK
6
CONTINUOUS
10
145.375
20
-107.975
11
145.393
21
-107.884
0
LINE
8
BLACK
6
CONTINUOUS
10
145.393
20
-107.884
11
145.445
21
-107.807
0
LINE
8
BLACK
6
CONTINUOUS
10
145.445
20
-107.807
11
145.522
21
-107.756
0
LINE
8
BLACK
6
CONTINUOUS
10
145.522
20
-107.756
11
145.612
21
-107.737
0
LINE
8
BLACK
6
CONTINUOUS
10
145.612
20
-107.737
11
146.088
21
-107.737
0
LINE
8
BLACK
6
CONTINUOUS
10
146.088
20
-107.737
11
146.178
21
-107.756
0
LINE
8
BLACK
6
CONTINUOUS
10
147.678
20
-107.731
11
147.755
21
-107.782
0
LINE
8
BLACK
6
CONTINUOUS
10
147.755
20
-107.782
11
147.807
21
-107.859
0
LINE
8
BLACK
6
CONTINUOUS
10
147.807
20
-107.859
11
147.825
21
-107.95
0
LINE
8
BLACK
6
CONTINUOUS
10
147.825
20
-107.95
11
147.825
21
-108.45
0
LINE
8
BLACK
6
CONTINUOUS
10
147.825
20
-108.45
11
147.807
21
-108.541
0
LINE
8
BLACK
6
CONTINUOUS
10
147.807
20
-108.541
11
147.755
21
-108.618
0
LINE
8
BLACK
6
CONTINUOUS
10
147.755
20
-108.618
11
147.678
21
-108.669
0
LINE
8
BLACK
6
CONTINUOUS
10
147.678
20
-108.669
11
147.588
21
-108.688
0
LINE
8
BLACK
6
CONTINUOUS
10
147.588
20
-108.688
11
147.112
21
-108.688
0
LINE
8
BLACK
6
CONTINUOUS
10
147.112
20
-108.688
11
147.022
21
-108.669
0
LINE
8
BLACK
6
CONTINUOUS
10
147.022
20
-108.669
11
146.945
21
-108.618
0
LINE
8
BLACK
6
CONTINUOUS
10
146.945
20
-108.618
11
146.893
21
-108.541
0
LINE
8
BLACK
6
CONTINUOUS
10
146.893
20
-108.541
11
146.875
21
-108.45
0
LINE
8
BLACK
6
CONTINUOUS
10
146.875
20
-108.45
11
146.875
21
-107.95
0
LINE
8
BLACK
6
CONTINUOUS
10
146.875
20
-107.95
11
146.893
21
-107.859
0
LINE
8
BLACK
6
CONTINUOUS
10
146.893
20
-107.859
11
146.945
21
-107.782
0
LINE
8
BLACK
6
CONTINUOUS
10
146.945
20
-107.782
11
147.022
21
-107.731
0
LINE
8
BLACK
6
CONTINUOUS
10
147.022
20
-107.731
11
147.112
21
-107.712
0
LINE
8
BLACK
6
CONTINUOUS
10
147.112
20
-107.712
11
147.588
21
-107.712
0
LINE
8
BLACK
6
CONTINUOUS
10
147.588
20
-107.712
11
147.678
21
-107.731
0
LINE
8
BLACK
6
CONTINUOUS
10
157.25
20
-108.255
11
156.25
21
-108.255
0
LINE
8
BLACK
6
CONTINUOUS
10
156.25
20
-108.255
11
156.25
21
-107.205
0
LINE
8
BLACK
6
CONTINUOUS
10
156.25
20
-107.205
11
157.25
21
-107.205
0
LINE
8
BLACK
6
CONTINUOUS
10
157.25
20
-107.205
11
157.25
21
-108.255
0
LINE
8
BLACK
6
CONTINUOUS
10
151.228
20
-106.918
11
151.305
21
-106.97
0
LINE
8
BLACK
6
CONTINUOUS
10
151.305
20
-106.97
11
151.357
21
-107.047
0
LINE
8
BLACK
6
CONTINUOUS
10
151.357
20
-107.047
11
151.375
21
-107.137
0
LINE
8
BLACK
6
CONTINUOUS
10
151.375
20
-107.137
11
151.375
21
-107.637
0
LINE
8
BLACK
6
CONTINUOUS
10
151.375
20
-107.637
11
151.357
21
-107.728
0
LINE
8
BLACK
6
CONTINUOUS
10
151.357
20
-107.728
11
151.305
21
-107.805
0
LINE
8
BLACK
6
CONTINUOUS
10
151.305
20
-107.805
11
151.228
21
-107.857
0
LINE
8
BLACK
6
CONTINUOUS
10
151.228
20
-107.857
11
151.137
21
-107.875
0
LINE
8
BLACK
6
CONTINUOUS
10
151.137
20
-107.875
11
150.662
21
-107.875
0
LINE
8
BLACK
6
CONTINUOUS
10
150.662
20
-107.875
11
150.572
21
-107.857
0
LINE
8
BLACK
6
CONTINUOUS
10
150.572
20
-107.857
11
150.495
21
-107.805
0
LINE
8
BLACK
6
CONTINUOUS
10
150.495
20
-107.805
11
150.443
21
-107.728
0
LINE
8
BLACK
6
CONTINUOUS
10
150.443
20
-107.728
11
150.425
21
-107.637
0
LINE
8
BLACK
6
CONTINUOUS
10
150.425
20
-107.637
11
150.425
21
-107.137
0
LINE
8
BLACK
6
CONTINUOUS
10
150.425
20
-107.137
11
150.443
21
-107.047
0
LINE
8
BLACK
6
CONTINUOUS
10
150.443
20
-107.047
11
150.495
21
-106.97
0
LINE
8
BLACK
6
CONTINUOUS
10
150.495
20
-106.97
11
150.572
21
-106.918
0
LINE
8
BLACK
6
CONTINUOUS
10
150.572
20
-106.918
11
150.662
21
-106.9
0
LINE
8
BLACK
6
CONTINUOUS
10
150.662
20
-106.9
11
151.137
21
-106.9
0
LINE
8
BLACK
6
CONTINUOUS
10
151.137
20
-106.9
11
151.228
21
-106.918
0
LINE
8
BLACK
6
CONTINUOUS
10
149.678
20
-106.906
11
149.755
21
-106.957
0
LINE
8
BLACK
6
CONTINUOUS
10
149.755
20
-106.957
11
149.807
21
-107.034
0
LINE
8
BLACK
6
CONTINUOUS
10
149.807
20
-107.034
11
149.825
21
-107.125
0
LINE
8
BLACK
6
CONTINUOUS
10
149.825
20
-107.125
11
149.825
21
-107.625
0
LINE
8
BLACK
6
CONTINUOUS
10
149.825
20
-107.625
11
149.807
21
-107.716
0
LINE
8
BLACK
6
CONTINUOUS
10
149.807
20
-107.716
11
149.755
21
-107.793
0
LINE
8
BLACK
6
CONTINUOUS
10
149.755
20
-107.793
11
149.678
21
-107.844
0
LINE
8
BLACK
6
CONTINUOUS
10
149.678
20
-107.844
11
149.588
21
-107.862
0
LINE
8
BLACK
6
CONTINUOUS
10
149.588
20
-107.862
11
149.112
21
-107.862
0
LINE
8
BLACK
6
CONTINUOUS
10
149.112
20
-107.862
11
149.022
21
-107.844
0
LINE
8
BLACK
6
CONTINUOUS
10
149.022
20
-107.844
11
148.945
21
-107.793
0
LINE
8
BLACK
6
CONTINUOUS
10
148.945
20
-107.793
11
148.893
21
-107.716
0
LINE
8
BLACK
6
CONTINUOUS
10
148.893
20
-107.716
11
148.875
21
-107.625
0
LINE
8
BLACK
6
CONTINUOUS
10
148.875
20
-107.625
11
148.875
21
-107.125
0
LINE
8
BLACK
6
CONTINUOUS
10
148.875
20
-107.125
11
148.893
21
-107.034
0
LINE
8
BLACK
6
CONTINUOUS
10
148.893
20
-107.034
11
148.945
21
-106.957
0
LINE
8
BLACK
6
CONTINUOUS
10
148.945
20
-106.957
11
149.022
21
-106.906
0
LINE
8
BLACK
6
CONTINUOUS
10
149.022
20
-106.906
11
149.112
21
-106.887
0
LINE
8
BLACK
6
CONTINUOUS
10
149.112
20
-106.887
11
149.588
21
-106.887
0
LINE
8
BLACK
6
CONTINUOUS
10
149.588
20
-106.887
11
149.678
21
-106.906
0
LINE
8
BLACK
6
CONTINUOUS
10
155.8
20
-107.305
11
154.75
21
-107.305
0
LINE
8
BLACK
6
CONTINUOUS
10
154.75
20
-107.305
11
154.75
21
-105.105
0
LINE
8
BLACK
6
CONTINUOUS
10
154.75
20
-105.105
11
155.8
21
-105.105
0
LINE
8
BLACK
6
CONTINUOUS
10
155.8
20
-105.105
11
155.8
21
-107.305
0
LINE
8
BLACK
6
CONTINUOUS
10
158.75
20
-107.305
11
157.7
21
-107.305
0
LINE
8
BLACK
6
CONTINUOUS
10
157.7
20
-107.305
11
157.7
21
-105.105
0
LINE
8
BLACK
6
CONTINUOUS
10
157.7
20
-105.105
11
158.75
21
-105.105
0
LINE
8
BLACK
6
CONTINUOUS
10
158.75
20
-105.105
11
158.75
21
-107.305
0
LINE
8
BLACK
6
CONTINUOUS
10
146.178
20
-105.931
11
146.255
21
-105.982
0
LINE
8
BLACK
6
CONTINUOUS
10
146.255
20
-105.982
11
146.307
21
-106.059
0
LINE
8
BLACK
6
CONTINUOUS
10
146.307
20
-106.059
11
146.325
21
-106.15
0
LINE
8
BLACK
6
CONTINUOUS
10
146.325
20
-106.15
11
146.325
21
-106.65
0
LINE
8
BLACK
6
CONTINUOUS
10
146.325
20
-106.65
11
146.307
21
-106.741
0
LINE
8
BLACK
6
CONTINUOUS
10
146.307
20
-106.741
11
146.255
21
-106.818
0
LINE
8
BLACK
6
CONTINUOUS
10
146.255
20
-106.818
11
146.178
21
-106.869
0
LINE
8
BLACK
6
CONTINUOUS
10
146.178
20
-106.869
11
146.088
21
-106.887
0
LINE
8
BLACK
6
CONTINUOUS
10
146.088
20
-106.887
11
145.612
21
-106.887
0
LINE
8
BLACK
6
CONTINUOUS
10
145.612
20
-106.887
11
145.522
21
-106.869
0
LINE
8
BLACK
6
CONTINUOUS
10
145.522
20
-106.869
11
145.445
21
-106.818
0
LINE
8
BLACK
6
CONTINUOUS
10
145.445
20
-106.818
11
145.393
21
-106.741
0
LINE
8
BLACK
6
CONTINUOUS
10
145.393
20
-106.741
11
145.375
21
-106.65
0
LINE
8
BLACK
6
CONTINUOUS
10
145.375
20
-106.65
11
145.375
21
-106.15
0
LINE
8
BLACK
6
CONTINUOUS
10
145.375
20
-106.15
11
145.393
21
-106.059
0
LINE
8
BLACK
6
CONTINUOUS
10
145.393
20
-106.059
11
145.445
21
-105.982
0
LINE
8
BLACK
6
CONTINUOUS
10
145.445
20
-105.982
11
145.522
21
-105.931
0
LINE
8
BLACK
6
CONTINUOUS
10
145.522
20
-105.931
11
145.612
21
-105.912
0
LINE
8
BLACK
6
CONTINUOUS
10
145.612
20
-105.912
11
146.088
21
-105.912
0
LINE
8
BLACK
6
CONTINUOUS
10
146.088
20
-105.912
11
146.178
21
-105.931
0
LINE
8
BLACK
6
CONTINUOUS
10
147.678
20
-105.906
11
147.755
21
-105.957
0
LINE
8
BLACK
6
CONTINUOUS
10
147.755
20
-105.957
11
147.807
21
-106.034
0
LINE
8
BLACK
6
CONTINUOUS
10
147.807
20
-106.034
11
147.825
21
-106.125
0
LINE
8
BLACK
6
CONTINUOUS
10
147.825
20
-106.125
11
147.825
21
-106.625
0
LINE
8
BLACK
6
CONTINUOUS
10
147.825
20
-106.625
11
147.807
21
-106.716
0
LINE
8
BLACK
6
CONTINUOUS
10
147.807
20
-106.716
11
147.755
21
-106.793
0
LINE
8
BLACK
6
CONTINUOUS
10
147.755
20
-106.793
11
147.678
21
-106.844
0
LINE
8
BLACK
6
CONTINUOUS
10
147.678
20
-106.844
11
147.588
21
-106.862
0
LINE
8
BLACK
6
CONTINUOUS
10
147.588
20
-106.862
11
147.112
21
-106.862
0
LINE
8
BLACK
6
CONTINUOUS
10
147.112
20
-106.862
11
147.022
21
-106.844
0
LINE
8
BLACK
6
CONTINUOUS
10
147.022
20
-106.844
11
146.945
21
-106.793
0
LINE
8
BLACK
6
CONTINUOUS
10
146.945
20
-106.793
11
146.893
21
-106.716
0
LINE
8
BLACK
6
CONTINUOUS
10
146.893
20
-106.716
11
146.875
21
-106.625
0
LINE
8
BLACK
6
CONTINUOUS
10
146.875
20
-106.625
11
146.875
21
-106.125
0
LINE
8
BLACK
6
CONTINUOUS
10
146.875
20
-106.125
11
146.893
21
-106.034
0
LINE
8
BLACK
6
CONTINUOUS
10
146.893
20
-106.034
11
146.945
21
-105.957
0
LINE
8
BLACK
6
CONTINUOUS
10
146.945
20
-105.957
11
147.022
21
-105.906
0
LINE
8
BLACK
6
CONTINUOUS
10
147.022
20
-105.906
11
147.112
21
-105.887
0
LINE
8
BLACK
6
CONTINUOUS
10
147.112
20
-105.887
11
147.588
21
-105.887
0
LINE
8
BLACK
6
CONTINUOUS
10
147.588
20
-105.887
11
147.678
21
-105.906
0
LINE
8
BLACK
6
CONTINUOUS
10
136.157
20
-105.166
11
136.206
21
-105.199
0
LINE
8
BLACK
6
CONTINUOUS
10
136.206
20
-105.199
11
136.239
21
-105.248
0
LINE
8
BLACK
6
CONTINUOUS
10
136.239
20
-105.248
11
136.25
21
-105.305
0
LINE
8
BLACK
6
CONTINUOUS
10
136.25
20
-105.305
11
136.25
21
-105.605
0
LINE
8
BLACK
6
CONTINUOUS
10
136.25
20
-105.605
11
136.239
21
-105.662
0
LINE
8
BLACK
6
CONTINUOUS
10
136.239
20
-105.662
11
136.206
21
-105.711
0
LINE
8
BLACK
6
CONTINUOUS
10
136.206
20
-105.711
11
136.157
21
-105.744
0
LINE
8
BLACK
6
CONTINUOUS
10
136.157
20
-105.744
11
136.1
21
-105.755
0
LINE
8
BLACK
6
CONTINUOUS
10
136.1
20
-105.755
11
134.45
21
-105.755
0
LINE
8
BLACK
6
CONTINUOUS
10
134.45
20
-105.755
11
134.393
21
-105.744
0
LINE
8
BLACK
6
CONTINUOUS
10
134.393
20
-105.744
11
134.344
21
-105.711
0
LINE
8
BLACK
6
CONTINUOUS
10
134.344
20
-105.711
11
134.311
21
-105.662
0
LINE
8
BLACK
6
CONTINUOUS
10
134.311
20
-105.662
11
134.3
21
-105.605
0
LINE
8
BLACK
6
CONTINUOUS
10
134.3
20
-105.605
11
134.3
21
-105.305
0
LINE
8
BLACK
6
CONTINUOUS
10
134.3
20
-105.305
11
134.311
21
-105.248
0
LINE
8
BLACK
6
CONTINUOUS
10
134.311
20
-105.248
11
134.344
21
-105.199
0
LINE
8
BLACK
6
CONTINUOUS
10
134.344
20
-105.199
11
134.393
21
-105.166
0
LINE
8
BLACK
6
CONTINUOUS
10
134.393
20
-105.166
11
134.45
21
-105.155
0
LINE
8
BLACK
6
CONTINUOUS
10
134.45
20
-105.155
11
136.1
21
-105.155
0
LINE
8
BLACK
6
CONTINUOUS
10
136.1
20
-105.155
11
136.157
21
-105.166
0
LINE
8
BLACK
6
CONTINUOUS
10
131.207
20
-105.166
11
131.256
21
-105.199
0
LINE
8
BLACK
6
CONTINUOUS
10
131.256
20
-105.199
11
131.289
21
-105.248
0
LINE
8
BLACK
6
CONTINUOUS
10
131.289
20
-105.248
11
131.3
21
-105.305
0
LINE
8
BLACK
6
CONTINUOUS
10
131.3
20
-105.305
11
131.3
21
-105.605
0
LINE
8
BLACK
6
CONTINUOUS
10
131.3
20
-105.605
11
131.289
21
-105.662
0
LINE
8
BLACK
6
CONTINUOUS
10
131.289
20
-105.662
11
131.256
21
-105.711
0
LINE
8
BLACK
6
CONTINUOUS
10
131.256
20
-105.711
11
131.207
21
-105.744
0
LINE
8
BLACK
6
CONTINUOUS
10
131.207
20
-105.744
11
131.15
21
-105.755
0
LINE
8
BLACK
6
CONTINUOUS
10
131.15
20
-105.755
11
129.5
21
-105.755
0
LINE
8
BLACK
6
CONTINUOUS
10
129.5
20
-105.755
11
129.443
21
-105.744
0
LINE
8
BLACK
6
CONTINUOUS
10
129.443
20
-105.744
11
129.394
21
-105.711
0
LINE
8
BLACK
6
CONTINUOUS
10
129.394
20
-105.711
11
129.361
21
-105.662
0
LINE
8
BLACK
6
CONTINUOUS
10
129.361
20
-105.662
11
129.35
21
-105.605
0
LINE
8
BLACK
6
CONTINUOUS
10
129.35
20
-105.605
11
129.35
21
-105.305
0
LINE
8
BLACK
6
CONTINUOUS
10
129.35
20
-105.305
11
129.361
21
-105.248
0
LINE
8
BLACK
6
CONTINUOUS
10
129.361
20
-105.248
11
129.394
21
-105.199
0
LINE
8
BLACK
6
CONTINUOUS
10
129.394
20
-105.199
11
129.443
21
-105.166
0
LINE
8
BLACK
6
CONTINUOUS
10
129.443
20
-105.166
11
129.5
21
-105.155
0
LINE
8
BLACK
6
CONTINUOUS
10
129.5
20
-105.155
11
131.15
21
-105.155
0
LINE
8
BLACK
6
CONTINUOUS
10
131.15
20
-105.155
11
131.207
21
-105.166
0
LINE
8
BLACK
6
CONTINUOUS
10
152.296
20
-98.0851
11
152.674
21
-98.1241
0
LINE
8
BLACK
6
CONTINUOUS
10
152.674
20
-98.1241
11
153.045
21
-98.201
0
LINE
8
BLACK
6
CONTINUOUS
10
153.045
20
-98.201
11
153.407
21
-98.3151
0
LINE
8
BLACK
6
CONTINUOUS
10
153.407
20
-98.3151
11
153.756
21
-98.4652
0
LINE
8
BLACK
6
CONTINUOUS
10
153.756
20
-98.4652
11
154.087
21
-98.6498
0
LINE
8
BLACK
6
CONTINUOUS
10
154.087
20
-98.6498
11
154.398
21
-98.8669
0
LINE
8
BLACK
6
CONTINUOUS
10
154.398
20
-98.8669
11
154.686
21
-99.1143
0
LINE
8
BLACK
6
CONTINUOUS
10
154.686
20
-99.1143
11
154.947
21
-99.3895
0
LINE
8
BLACK
6
CONTINUOUS
10
154.947
20
-99.3895
11
155.179
21
-99.6898
0
LINE
8
BLACK
6
CONTINUOUS
10
155.179
20
-99.6898
11
155.38
21
-100.012
0
LINE
8
BLACK
6
CONTINUOUS
10
155.38
20
-100.012
11
155.547
21
-100.353
0
LINE
8
BLACK
6
CONTINUOUS
10
155.547
20
-100.353
11
155.678
21
-100.709
0
LINE
8
BLACK
6
CONTINUOUS
10
155.678
20
-100.709
11
155.773
21
-101.076
0
LINE
8
BLACK
6
CONTINUOUS
10
155.773
20
-101.076
11
155.831
21
-101.451
0
LINE
8
BLACK
6
CONTINUOUS
10
155.831
20
-101.451
11
155.85
21
-101.83
0
LINE
8
BLACK
6
CONTINUOUS
10
155.85
20
-101.83
11
155.85
21
-101.856
0
LINE
8
BLACK
6
CONTINUOUS
10
155.85
20
-101.856
11
155.828
21
-102.235
0
LINE
8
BLACK
6
CONTINUOUS
10
155.828
20
-102.235
11
155.768
21
-102.61
0
LINE
8
BLACK
6
CONTINUOUS
10
155.768
20
-102.61
11
155.67
21
-102.976
0
LINE
8
BLACK
6
CONTINUOUS
10
155.67
20
-102.976
11
155.536
21
-103.331
0
LINE
8
BLACK
6
CONTINUOUS
10
155.536
20
-103.331
11
155.367
21
-103.671
0
LINE
8
BLACK
6
CONTINUOUS
10
155.367
20
-103.671
11
155.164
21
-103.992
0
LINE
8
BLACK
6
CONTINUOUS
10
155.164
20
-103.992
11
154.93
21
-104.29
0
LINE
8
BLACK
6
CONTINUOUS
10
154.93
20
-104.29
11
154.667
21
-104.564
0
LINE
8
BLACK
6
CONTINUOUS
10
154.667
20
-104.564
11
154.378
21
-104.809
0
LINE
8
BLACK
6
CONTINUOUS
10
154.378
20
-104.809
11
154.065
21
-105.024
0
LINE
8
BLACK
6
CONTINUOUS
10
154.065
20
-105.024
11
153.732
21
-105.206
0
LINE
8
BLACK
6
CONTINUOUS
10
153.732
20
-105.206
11
153.383
21
-105.354
0
LINE
8
BLACK
6
CONTINUOUS
10
153.383
20
-105.354
11
153.02
21
-105.465
0
LINE
8
BLACK
6
CONTINUOUS
10
153.02
20
-105.465
11
152.648
21
-105.54
0
LINE
8
BLACK
6
CONTINUOUS
10
152.648
20
-105.54
11
152.27
21
-105.576
0
LINE
8
BLACK
6
CONTINUOUS
10
152.27
20
-105.576
11
151.891
21
-105.574
0
LINE
8
BLACK
6
CONTINUOUS
10
151.891
20
-105.574
11
151.513
21
-105.534
0
LINE
8
BLACK
6
CONTINUOUS
10
151.513
20
-105.534
11
151.142
21
-105.456
0
LINE
8
BLACK
6
CONTINUOUS
10
151.142
20
-105.456
11
150.781
21
-105.34
0
LINE
8
BLACK
6
CONTINUOUS
10
150.781
20
-105.34
11
150.433
21
-105.189
0
LINE
8
BLACK
6
CONTINUOUS
10
150.433
20
-105.189
11
150.102
21
-105.003
0
LINE
8
BLACK
6
CONTINUOUS
10
150.102
20
-105.003
11
149.791
21
-104.785
0
LINE
8
BLACK
6
CONTINUOUS
10
149.791
20
-104.785
11
149.504
21
-104.537
0
LINE
8
BLACK
6
CONTINUOUS
10
149.504
20
-104.537
11
149.244
21
-104.26
0
LINE
8
BLACK
6
CONTINUOUS
10
149.244
20
-104.26
11
149.013
21
-103.959
0
LINE
8
BLACK
6
CONTINUOUS
10
149.013
20
-103.959
11
148.814
21
-103.637
0
LINE
8
BLACK
6
CONTINUOUS
10
148.814
20
-103.637
11
148.648
21
-103.295
0
LINE
8
BLACK
6
CONTINUOUS
10
148.648
20
-103.295
11
148.518
21
-102.939
0
LINE
8
BLACK
6
CONTINUOUS
10
148.518
20
-102.939
11
148.424
21
-102.571
0
LINE
8
BLACK
6
CONTINUOUS
10
148.424
20
-102.571
11
148.368
21
-102.196
0
LINE
8
BLACK
6
CONTINUOUS
10
148.368
20
-102.196
11
148.35
21
-101.817
0
LINE
8
BLACK
6
CONTINUOUS
10
148.35
20
-101.817
11
148.371
21
-101.438
0
LINE
8
BLACK
6
CONTINUOUS
10
148.371
20
-101.438
11
148.429
21
-101.063
0
LINE
8
BLACK
6
CONTINUOUS
10
148.429
20
-101.063
11
148.526
21
-100.696
0
LINE
8
BLACK
6
CONTINUOUS
10
148.526
20
-100.696
11
148.658
21
-100.341
0
LINE
8
BLACK
6
CONTINUOUS
10
148.658
20
-100.341
11
148.827
21
-100
0
LINE
8
BLACK
6
CONTINUOUS
10
148.827
20
-100
11
149.028
21
-99.679
0
LINE
8
BLACK
6
CONTINUOUS
10
149.028
20
-99.679
11
149.261
21
-99.3796
0
LINE
8
BLACK
6
CONTINUOUS
10
149.261
20
-99.3796
11
149.523
21
-99.1053
0
LINE
8
BLACK
6
CONTINUOUS
10
149.523
20
-99.1053
11
149.812
21
-98.8589
0
LINE
8
BLACK
6
CONTINUOUS
10
149.812
20
-98.8589
11
150.124
21
-98.6428
0
LINE
8
BLACK
6
CONTINUOUS
10
150.124
20
-98.6428
11
150.456
21
-98.4595
0
LINE
8
BLACK
6
CONTINUOUS
10
150.456
20
-98.4595
11
150.805
21
-98.3106
0
LINE
8
BLACK
6
CONTINUOUS
10
150.805
20
-98.3106
11
151.167
21
-98.1978
0
LINE
8
BLACK
6
CONTINUOUS
10
151.167
20
-98.1978
11
151.539
21
-98.1221
0
LINE
8
BLACK
6
CONTINUOUS
10
151.539
20
-98.1221
11
151.917
21
-98.0844
0
LINE
8
BLACK
6
CONTINUOUS
10
151.917
20
-98.0844
11
152.296
21
-98.0851
0
LINE
8
BLACK
6
CONTINUOUS
10
125.426
20
-98.0851
11
125.804
21
-98.1241
0
LINE
8
BLACK
6
CONTINUOUS
10
125.804
20
-98.1241
11
126.175
21
-98.201
0
LINE
8
BLACK
6
CONTINUOUS
10
126.175
20
-98.201
11
126.537
21
-98.3151
0
LINE
8
BLACK
6
CONTINUOUS
10
126.537
20
-98.3151
11
126.886
21
-98.4652
0
LINE
8
BLACK
6
CONTINUOUS
10
126.886
20
-98.4652
11
127.217
21
-98.6498
0
LINE
8
BLACK
6
CONTINUOUS
10
127.217
20
-98.6498
11
127.528
21
-98.8669
0
LINE
8
BLACK
6
CONTINUOUS
10
127.528
20
-98.8669
11
127.816
21
-99.1143
0
LINE
8
BLACK
6
CONTINUOUS
10
127.816
20
-99.1143
11
128.077
21
-99.3895
0
LINE
8
BLACK
6
CONTINUOUS
10
128.077
20
-99.3895
11
128.309
21
-99.6898
0
LINE
8
BLACK
6
CONTINUOUS
10
128.309
20
-99.6898
11
128.51
21
-100.012
0
LINE
8
BLACK
6
CONTINUOUS
10
128.51
20
-100.012
11
128.677
21
-100.353
0
LINE
8
BLACK
6
CONTINUOUS
10
128.677
20
-100.353
11
128.808
21
-100.709
0
LINE
8
BLACK
6
CONTINUOUS
10
128.808
20
-100.709
11
128.903
21
-101.076
0
LINE
8
BLACK
6
CONTINUOUS
10
128.903
20
-101.076
11
128.961
21
-101.451
0
LINE
8
BLACK
6
CONTINUOUS
10
128.961
20
-101.451
11
128.98
21
-101.83
0
LINE
8
BLACK
6
CONTINUOUS
10
128.98
20
-101.83
11
128.98
21
-101.856
0
LINE
8
BLACK
6
CONTINUOUS
10
128.98
20
-101.856
11
128.958
21
-102.235
0
LINE
8
BLACK
6
CONTINUOUS
10
128.958
20
-102.235
11
128.898
21
-102.61
0
LINE
8
BLACK
6
CONTINUOUS
10
128.898
20
-102.61
11
128.8
21
-102.976
0
LINE
8
BLACK
6
CONTINUOUS
10
128.8
20
-102.976
11
128.666
21
-103.331
0
LINE
8
BLACK
6
CONTINUOUS
10
128.666
20
-103.331
11
128.497
21
-103.671
0
LINE
8
BLACK
6
CONTINUOUS
10
128.497
20
-103.671
11
128.294
21
-103.992
0
LINE
8
BLACK
6
CONTINUOUS
10
128.294
20
-103.992
11
128.06
21
-104.29
0
LINE
8
BLACK
6
CONTINUOUS
10
128.06
20
-104.29
11
127.797
21
-104.564
0
LINE
8
BLACK
6
CONTINUOUS
10
127.797
20
-104.564
11
127.508
21
-104.809
0
LINE
8
BLACK
6
CONTINUOUS
10
127.508
20
-104.809
11
127.195
21
-105.024
0
LINE
8
BLACK
6
CONTINUOUS
10
127.195
20
-105.024
11
126.862
21
-105.206
0
LINE
8
BLACK
6
CONTINUOUS
10
126.862
20
-105.206
11
126.513
21
-105.354
0
LINE
8
BLACK
6
CONTINUOUS
10
126.513
20
-105.354
11
126.15
21
-105.465
0
LINE
8
BLACK
6
CONTINUOUS
10
126.15
20
-105.465
11
125.778
21
-105.54
0
LINE
8
BLACK
6
CONTINUOUS
10
125.778
20
-105.54
11
125.4
21
-105.576
0
LINE
8
BLACK
6
CONTINUOUS
10
125.4
20
-105.576
11
125.021
21
-105.574
0
LINE
8
BLACK
6
CONTINUOUS
10
125.021
20
-105.574
11
124.643
21
-105.534
0
LINE
8
BLACK
6
CONTINUOUS
10
124.643
20
-105.534
11
124.272
21
-105.456
0
LINE
8
BLACK
6
CONTINUOUS
10
124.272
20
-105.456
11
123.911
21
-105.34
0
LINE
8
BLACK
6
CONTINUOUS
10
123.911
20
-105.34
11
123.563
21
-105.189
0
LINE
8
BLACK
6
CONTINUOUS
10
123.563
20
-105.189
11
123.232
21
-105.003
0
LINE
8
BLACK
6
CONTINUOUS
10
123.232
20
-105.003
11
122.921
21
-104.785
0
LINE
8
BLACK
6
CONTINUOUS
10
122.921
20
-104.785
11
122.634
21
-104.537
0
LINE
8
BLACK
6
CONTINUOUS
10
122.634
20
-104.537
11
122.374
21
-104.26
0
LINE
8
BLACK
6
CONTINUOUS
10
122.374
20
-104.26
11
122.143
21
-103.959
0
LINE
8
BLACK
6
CONTINUOUS
10
122.143
20
-103.959
11
121.944
21
-103.637
0
LINE
8
BLACK
6
CONTINUOUS
10
121.944
20
-103.637
11
121.778
21
-103.295
0
LINE
8
BLACK
6
CONTINUOUS
10
121.778
20
-103.295
11
121.648
21
-102.939
0
LINE
8
BLACK
6
CONTINUOUS
10
121.648
20
-102.939
11
121.554
21
-102.571
0
LINE
8
BLACK
6
CONTINUOUS
10
121.554
20
-102.571
11
121.498
21
-102.196
0
LINE
8
BLACK
6
CONTINUOUS
10
121.498
20
-102.196
11
121.48
21
-101.817
0
LINE
8
BLACK
6
CONTINUOUS
10
121.48
20
-101.817
11
121.5
21
-101.438
0
LINE
8
BLACK
6
CONTINUOUS
10
121.5
20
-101.438
11
121.559
21
-101.063
0
LINE
8
BLACK
6
CONTINUOUS
10
121.559
20
-101.063
11
121.655
21
-100.696
0
LINE
8
BLACK
6
CONTINUOUS
10
121.655
20
-100.696
11
121.788
21
-100.341
0
LINE
8
BLACK
6
CONTINUOUS
10
121.788
20
-100.341
11
121.956
21
-100
0
LINE
8
BLACK
6
CONTINUOUS
10
121.956
20
-100
11
122.158
21
-99.679
0
LINE
8
BLACK
6
CONTINUOUS
10
122.158
20
-99.679
11
122.391
21
-99.3796
0
LINE
8
BLACK
6
CONTINUOUS
10
122.391
20
-99.3796
11
122.653
21
-99.1053
0
LINE
8
BLACK
6
CONTINUOUS
10
122.653
20
-99.1053
11
122.942
21
-98.8589
0
LINE
8
BLACK
6
CONTINUOUS
10
122.942
20
-98.8589
11
123.254
21
-98.6428
0
LINE
8
BLACK
6
CONTINUOUS
10
123.254
20
-98.6428
11
123.586
21
-98.4595
0
LINE
8
BLACK
6
CONTINUOUS
10
123.586
20
-98.4595
11
123.935
21
-98.3106
0
LINE
8
BLACK
6
CONTINUOUS
10
123.935
20
-98.3106
11
124.297
21
-98.1978
0
LINE
8
BLACK
6
CONTINUOUS
10
124.297
20
-98.1978
11
124.669
21
-98.1221
0
LINE
8
BLACK
6
CONTINUOUS
10
124.669
20
-98.1221
11
125.047
21
-98.0844
0
LINE
8
BLACK
6
CONTINUOUS
10
125.047
20
-98.0844
11
125.426
21
-98.0851
0
LINE
8
BLACK
6
CONTINUOUS
10
146.191
20
-104.443
11
146.268
21
-104.495
0
LINE
8
BLACK
6
CONTINUOUS
10
146.268
20
-104.495
11
146.319
21
-104.572
0
LINE
8
BLACK
6
CONTINUOUS
10
146.319
20
-104.572
11
146.338
21
-104.662
0
LINE
8
BLACK
6
CONTINUOUS
10
146.338
20
-104.662
11
146.338
21
-105.137
0
LINE
8
BLACK
6
CONTINUOUS
10
146.338
20
-105.137
11
146.319
21
-105.228
0
LINE
8
BLACK
6
CONTINUOUS
10
146.319
20
-105.228
11
146.268
21
-105.305
0
LINE
8
BLACK
6
CONTINUOUS
10
146.268
20
-105.305
11
146.191
21
-105.357
0
LINE
8
BLACK
6
CONTINUOUS
10
146.191
20
-105.357
11
146.1
21
-105.375
0
LINE
8
BLACK
6
CONTINUOUS
10
146.1
20
-105.375
11
145.6
21
-105.375
0
LINE
8
BLACK
6
CONTINUOUS
10
145.6
20
-105.375
11
145.509
21
-105.357
0
LINE
8
BLACK
6
CONTINUOUS
10
145.509
20
-105.357
11
145.432
21
-105.305
0
LINE
8
BLACK
6
CONTINUOUS
10
145.432
20
-105.305
11
145.381
21
-105.228
0
LINE
8
BLACK
6
CONTINUOUS
10
145.381
20
-105.228
11
145.362
21
-105.137
0
LINE
8
BLACK
6
CONTINUOUS
10
145.362
20
-105.137
11
145.362
21
-104.662
0
LINE
8
BLACK
6
CONTINUOUS
10
145.362
20
-104.662
11
145.381
21
-104.572
0
LINE
8
BLACK
6
CONTINUOUS
10
145.381
20
-104.572
11
145.432
21
-104.495
0
LINE
8
BLACK
6
CONTINUOUS
10
145.432
20
-104.495
11
145.509
21
-104.443
0
LINE
8
BLACK
6
CONTINUOUS
10
145.509
20
-104.443
11
145.6
21
-104.425
0
LINE
8
BLACK
6
CONTINUOUS
10
145.6
20
-104.425
11
146.1
21
-104.425
0
LINE
8
BLACK
6
CONTINUOUS
10
146.1
20
-104.425
11
146.191
21
-104.443
0
LINE
8
BLACK
6
CONTINUOUS
10
148.016
20
-104.443
11
148.093
21
-104.495
0
LINE
8
BLACK
6
CONTINUOUS
10
148.093
20
-104.495
11
148.144
21
-104.572
0
LINE
8
BLACK
6
CONTINUOUS
10
148.144
20
-104.572
11
148.162
21
-104.662
0
LINE
8
BLACK
6
CONTINUOUS
10
148.162
20
-104.662
11
148.162
21
-105.137
0
LINE
8
BLACK
6
CONTINUOUS
10
148.162
20
-105.137
11
148.144
21
-105.228
0
LINE
8
BLACK
6
CONTINUOUS
10
148.144
20
-105.228
11
148.093
21
-105.305
0
LINE
8
BLACK
6
CONTINUOUS
10
148.093
20
-105.305
11
148.016
21
-105.357
0
LINE
8
BLACK
6
CONTINUOUS
10
148.016
20
-105.357
11
147.925
21
-105.375
0
LINE
8
BLACK
6
CONTINUOUS
10
147.925
20
-105.375
11
147.425
21
-105.375
0
LINE
8
BLACK
6
CONTINUOUS
10
147.425
20
-105.375
11
147.334
21
-105.357
0
LINE
8
BLACK
6
CONTINUOUS
10
147.334
20
-105.357
11
147.257
21
-105.305
0
LINE
8
BLACK
6
CONTINUOUS
10
147.257
20
-105.305
11
147.206
21
-105.228
0
LINE
8
BLACK
6
CONTINUOUS
10
147.206
20
-105.228
11
147.188
21
-105.137
0
LINE
8
BLACK
6
CONTINUOUS
10
147.188
20
-105.137
11
147.188
21
-104.662
0
LINE
8
BLACK
6
CONTINUOUS
10
147.188
20
-104.662
11
147.206
21
-104.572
0
LINE
8
BLACK
6
CONTINUOUS
10
147.206
20
-104.572
11
147.257
21
-104.495
0
LINE
8
BLACK
6
CONTINUOUS
10
147.257
20
-104.495
11
147.334
21
-104.443
0
LINE
8
BLACK
6
CONTINUOUS
10
147.334
20
-104.443
11
147.425
21
-104.425
0
LINE
8
BLACK
6
CONTINUOUS
10
147.425
20
-104.425
11
147.925
21
-104.425
0
LINE
8
BLACK
6
CONTINUOUS
10
147.925
20
-104.425
11
148.016
21
-104.443
0
LINE
8
BLACK
6
CONTINUOUS
10
142.791
20
-104.443
11
142.868
21
-104.495
0
LINE
8
BLACK
6
CONTINUOUS
10
142.868
20
-104.495
11
142.919
21
-104.572
0
LINE
8
BLACK
6
CONTINUOUS
10
142.919
20
-104.572
11
142.938
21
-104.662
0
LINE
8
BLACK
6
CONTINUOUS
10
142.938
20
-104.662
11
142.938
21
-105.137
0
LINE
8
BLACK
6
CONTINUOUS
10
142.938
20
-105.137
11
142.919
21
-105.228
0
LINE
8
BLACK
6
CONTINUOUS
10
142.919
20
-105.228
11
142.868
21
-105.305
0
LINE
8
BLACK
6
CONTINUOUS
10
142.868
20
-105.305
11
142.791
21
-105.357
0
LINE
8
BLACK
6
CONTINUOUS
10
142.791
20
-105.357
11
142.7
21
-105.375
0
LINE
8
BLACK
6
CONTINUOUS
10
142.7
20
-105.375
11
142.2
21
-105.375
0
LINE
8
BLACK
6
CONTINUOUS
10
142.2
20
-105.375
11
142.109
21
-105.357
0
LINE
8
BLACK
6
CONTINUOUS
10
142.109
20
-105.357
11
142.032
21
-105.305
0
LINE
8
BLACK
6
CONTINUOUS
10
142.032
20
-105.305
11
141.981
21
-105.228
0
LINE
8
BLACK
6
CONTINUOUS
10
141.981
20
-105.228
11
141.963
21
-105.137
0
LINE
8
BLACK
6
CONTINUOUS
10
141.963
20
-105.137
11
141.963
21
-104.662
0
LINE
8
BLACK
6
CONTINUOUS
10
141.963
20
-104.662
11
141.981
21
-104.572
0
LINE
8
BLACK
6
CONTINUOUS
10
141.981
20
-104.572
11
142.032
21
-104.495
0
LINE
8
BLACK
6
CONTINUOUS
10
142.032
20
-104.495
11
142.109
21
-104.443
0
LINE
8
BLACK
6
CONTINUOUS
10
142.109
20
-104.443
11
142.2
21
-104.425
0
LINE
8
BLACK
6
CONTINUOUS
10
142.2
20
-104.425
11
142.7
21
-104.425
0
LINE
8
BLACK
6
CONTINUOUS
10
142.7
20
-104.425
11
142.791
21
-104.443
0
LINE
8
BLACK
6
CONTINUOUS
10
144.616
20
-104.443
11
144.693
21
-104.495
0
LINE
8
BLACK
6
CONTINUOUS
10
144.693
20
-104.495
11
144.744
21
-104.572
0
LINE
8
BLACK
6
CONTINUOUS
10
144.744
20
-104.572
11
144.762
21
-104.662
0
LINE
8
BLACK
6
CONTINUOUS
10
144.762
20
-104.662
11
144.762
21
-105.137
0
LINE
8
BLACK
6
CONTINUOUS
10
144.762
20
-105.137
11
144.744
21
-105.228
0
LINE
8
BLACK
6
CONTINUOUS
10
144.744
20
-105.228
11
144.693
21
-105.305
0
LINE
8
BLACK
6
CONTINUOUS
10
144.693
20
-105.305
11
144.616
21
-105.357
0
LINE
8
BLACK
6
CONTINUOUS
10
144.616
20
-105.357
11
144.525
21
-105.375
0
LINE
8
BLACK
6
CONTINUOUS
10
144.525
20
-105.375
11
144.025
21
-105.375
0
LINE
8
BLACK
6
CONTINUOUS
10
144.025
20
-105.375
11
143.934
21
-105.357
0
LINE
8
BLACK
6
CONTINUOUS
10
143.934
20
-105.357
11
143.857
21
-105.305
0
LINE
8
BLACK
6
CONTINUOUS
10
143.857
20
-105.305
11
143.806
21
-105.228
0
LINE
8
BLACK
6
CONTINUOUS
10
143.806
20
-105.228
11
143.787
21
-105.137
0
LINE
8
BLACK
6
CONTINUOUS
10
143.787
20
-105.137
11
143.787
21
-104.662
0
LINE
8
BLACK
6
CONTINUOUS
10
143.787
20
-104.662
11
143.806
21
-104.572
0
LINE
8
BLACK
6
CONTINUOUS
10
143.806
20
-104.572
11
143.857
21
-104.495
0
LINE
8
BLACK
6
CONTINUOUS
10
143.857
20
-104.495
11
143.934
21
-104.443
0
LINE
8
BLACK
6
CONTINUOUS
10
143.934
20
-104.443
11
144.025
21
-104.425
0
LINE
8
BLACK
6
CONTINUOUS
10
144.025
20
-104.425
11
144.525
21
-104.425
0
LINE
8
BLACK
6
CONTINUOUS
10
144.525
20
-104.425
11
144.616
21
-104.443
0
LINE
8
BLACK
6
CONTINUOUS
10
131.207
20
-103.896
11
131.256
21
-103.929
0
LINE
8
BLACK
6
CONTINUOUS
10
131.256
20
-103.929
11
131.289
21
-103.978
0
LINE
8
BLACK
6
CONTINUOUS
10
131.289
20
-103.978
11
131.3
21
-104.035
0
LINE
8
BLACK
6
CONTINUOUS
10
131.3
20
-104.035
11
131.3
21
-104.335
0
LINE
8
BLACK
6
CONTINUOUS
10
131.3
20
-104.335
11
131.289
21
-104.392
0
LINE
8
BLACK
6
CONTINUOUS
10
131.289
20
-104.392
11
131.256
21
-104.441
0
LINE
8
BLACK
6
CONTINUOUS
10
131.256
20
-104.441
11
131.207
21
-104.474
0
LINE
8
BLACK
6
CONTINUOUS
10
131.207
20
-104.474
11
131.15
21
-104.485
0
LINE
8
BLACK
6
CONTINUOUS
10
131.15
20
-104.485
11
129.5
21
-104.485
0
LINE
8
BLACK
6
CONTINUOUS
10
129.5
20
-104.485
11
129.443
21
-104.474
0
LINE
8
BLACK
6
CONTINUOUS
10
129.443
20
-104.474
11
129.394
21
-104.441
0
LINE
8
BLACK
6
CONTINUOUS
10
129.394
20
-104.441
11
129.361
21
-104.392
0
LINE
8
BLACK
6
CONTINUOUS
10
129.361
20
-104.392
11
129.35
21
-104.335
0
LINE
8
BLACK
6
CONTINUOUS
10
129.35
20
-104.335
11
129.35
21
-104.035
0
LINE
8
BLACK
6
CONTINUOUS
10
129.35
20
-104.035
11
129.361
21
-103.978
0
LINE
8
BLACK
6
CONTINUOUS
10
129.361
20
-103.978
11
129.394
21
-103.929
0
LINE
8
BLACK
6
CONTINUOUS
10
129.394
20
-103.929
11
129.443
21
-103.896
0
LINE
8
BLACK
6
CONTINUOUS
10
129.443
20
-103.896
11
129.5
21
-103.885
0
LINE
8
BLACK
6
CONTINUOUS
10
129.5
20
-103.885
11
131.15
21
-103.885
0
LINE
8
BLACK
6
CONTINUOUS
10
131.15
20
-103.885
11
131.207
21
-103.896
0
LINE
8
BLACK
6
CONTINUOUS
10
136.157
20
-103.896
11
136.206
21
-103.929
0
LINE
8
BLACK
6
CONTINUOUS
10
136.206
20
-103.929
11
136.239
21
-103.978
0
LINE
8
BLACK
6
CONTINUOUS
10
136.239
20
-103.978
11
136.25
21
-104.035
0
LINE
8
BLACK
6
CONTINUOUS
10
136.25
20
-104.035
11
136.25
21
-104.335
0
LINE
8
BLACK
6
CONTINUOUS
10
136.25
20
-104.335
11
136.239
21
-104.392
0
LINE
8
BLACK
6
CONTINUOUS
10
136.239
20
-104.392
11
136.206
21
-104.441
0
LINE
8
BLACK
6
CONTINUOUS
10
136.206
20
-104.441
11
136.157
21
-104.474
0
LINE
8
BLACK
6
CONTINUOUS
10
136.157
20
-104.474
11
136.1
21
-104.485
0
LINE
8
BLACK
6
CONTINUOUS
10
136.1
20
-104.485
11
134.45
21
-104.485
0
LINE
8
BLACK
6
CONTINUOUS
10
134.45
20
-104.485
11
134.393
21
-104.474
0
LINE
8
BLACK
6
CONTINUOUS
10
134.393
20
-104.474
11
134.344
21
-104.441
0
LINE
8
BLACK
6
CONTINUOUS
10
134.344
20
-104.441
11
134.311
21
-104.392
0
LINE
8
BLACK
6
CONTINUOUS
10
134.311
20
-104.392
11
134.3
21
-104.335
0
LINE
8
BLACK
6
CONTINUOUS
10
134.3
20
-104.335
11
134.3
21
-104.035
0
LINE
8
BLACK
6
CONTINUOUS
10
134.3
20
-104.035
11
134.311
21
-103.978
0
LINE
8
BLACK
6
CONTINUOUS
10
134.311
20
-103.978
11
134.344
21
-103.929
0
LINE
8
BLACK
6
CONTINUOUS
10
134.344
20
-103.929
11
134.393
21
-103.896
0
LINE
8
BLACK
6
CONTINUOUS
10
134.393
20
-103.896
11
134.45
21
-103.885
0
LINE
8
BLACK
6
CONTINUOUS
10
134.45
20
-103.885
11
136.1
21
-103.885
0
LINE
8
BLACK
6
CONTINUOUS
10
136.1
20
-103.885
11
136.157
21
-103.896
0
LINE
8
BLACK
6
CONTINUOUS
10
136.157
20
-102.626
11
136.206
21
-102.659
0
LINE
8
BLACK
6
CONTINUOUS
10
136.206
20
-102.659
11
136.239
21
-102.708
0
LINE
8
BLACK
6
CONTINUOUS
10
136.239
20
-102.708
11
136.25
21
-102.765
0
LINE
8
BLACK
6
CONTINUOUS
10
136.25
20
-102.765
11
136.25
21
-103.065
0
LINE
8
BLACK
6
CONTINUOUS
10
136.25
20
-103.065
11
136.239
21
-103.122
0
LINE
8
BLACK
6
CONTINUOUS
10
136.239
20
-103.122
11
136.206
21
-103.171
0
LINE
8
BLACK
6
CONTINUOUS
10
136.206
20
-103.171
11
136.157
21
-103.204
0
LINE
8
BLACK
6
CONTINUOUS
10
136.157
20
-103.204
11
136.1
21
-103.215
0
LINE
8
BLACK
6
CONTINUOUS
10
136.1
20
-103.215
11
134.45
21
-103.215
0
LINE
8
BLACK
6
CONTINUOUS
10
134.45
20
-103.215
11
134.393
21
-103.204
0
LINE
8
BLACK
6
CONTINUOUS
10
134.393
20
-103.204
11
134.344
21
-103.171
0
LINE
8
BLACK
6
CONTINUOUS
10
134.344
20
-103.171
11
134.311
21
-103.122
0
LINE
8
BLACK
6
CONTINUOUS
10
134.311
20
-103.122
11
134.3
21
-103.065
0
LINE
8
BLACK
6
CONTINUOUS
10
134.3
20
-103.065
11
134.3
21
-102.765
0
LINE
8
BLACK
6
CONTINUOUS
10
134.3
20
-102.765
11
134.311
21
-102.708
0
LINE
8
BLACK
6
CONTINUOUS
10
134.311
20
-102.708
11
134.344
21
-102.659
0
LINE
8
BLACK
6
CONTINUOUS
10
134.344
20
-102.659
11
134.393
21
-102.626
0
LINE
8
BLACK
6
CONTINUOUS
10
134.393
20
-102.626
11
134.45
21
-102.615
0
LINE
8
BLACK
6
CONTINUOUS
10
134.45
20
-102.615
11
136.1
21
-102.615
0
LINE
8
BLACK
6
CONTINUOUS
10
136.1
20
-102.615
11
136.157
21
-102.626
0
LINE
8
BLACK
6
CONTINUOUS
10
131.207
20
-102.626
11
131.256
21
-102.659
0
LINE
8
BLACK
6
CONTINUOUS
10
131.256
20
-102.659
11
131.289
21
-102.708
0
LINE
8
BLACK
6
CONTINUOUS
10
131.289
20
-102.708
11
131.3
21
-102.765
0
LINE
8
BLACK
6
CONTINUOUS
10
131.3
20
-102.765
11
131.3
21
-103.065
0
LINE
8
BLACK
6
CONTINUOUS
10
131.3
20
-103.065
11
131.289
21
-103.122
0
LINE
8
BLACK
6
CONTINUOUS
10
131.289
20
-103.122
11
131.256
21
-103.171
0
LINE
8
BLACK
6
CONTINUOUS
10
131.256
20
-103.171
11
131.207
21
-103.204
0
LINE
8
BLACK
6
CONTINUOUS
10
131.207
20
-103.204
11
131.15
21
-103.215
0
LINE
8
BLACK
6
CONTINUOUS
10
131.15
20
-103.215
11
129.5
21
-103.215
0
LINE
8
BLACK
6
CONTINUOUS
10
129.5
20
-103.215
11
129.443
21
-103.204
0
LINE
8
BLACK
6
CONTINUOUS
10
129.443
20
-103.204
11
129.394
21
-103.171
0
LINE
8
BLACK
6
CONTINUOUS
10
129.394
20
-103.171
11
129.361
21
-103.122
0
LINE
8
BLACK
6
CONTINUOUS
10
129.361
20
-103.122
11
129.35
21
-103.065
0
LINE
8
BLACK
6
CONTINUOUS
10
129.35
20
-103.065
11
129.35
21
-102.765
0
LINE
8
BLACK
6
CONTINUOUS
10
129.35
20
-102.765
11
129.361
21
-102.708
0
LINE
8
BLACK
6
CONTINUOUS
10
129.361
20
-102.708
11
129.394
21
-102.659
0
LINE
8
BLACK
6
CONTINUOUS
10
129.394
20
-102.659
11
129.443
21
-102.626
0
LINE
8
BLACK
6
CONTINUOUS
10
129.443
20
-102.626
11
129.5
21
-102.615
0
LINE
8
BLACK
6
CONTINUOUS
10
129.5
20
-102.615
11
131.15
21
-102.615
0
LINE
8
BLACK
6
CONTINUOUS
10
131.15
20
-102.615
11
131.207
21
-102.626
0
LINE
8
BLACK
6
CONTINUOUS
10
144.566
20
-101.843
11
144.643
21
-101.895
0
LINE
8
BLACK
6
CONTINUOUS
10
144.643
20
-101.895
11
144.694
21
-101.972
0
LINE
8
BLACK
6
CONTINUOUS
10
144.694
20
-101.972
11
144.713
21
-102.062
0
LINE
8
BLACK
6
CONTINUOUS
10
144.713
20
-102.062
11
144.713
21
-102.537
0
LINE
8
BLACK
6
CONTINUOUS
10
144.713
20
-102.537
11
144.694
21
-102.628
0
LINE
8
BLACK
6
CONTINUOUS
10
144.694
20
-102.628
11
144.643
21
-102.705
0
LINE
8
BLACK
6
CONTINUOUS
10
144.643
20
-102.705
11
144.566
21
-102.757
0
LINE
8
BLACK
6
CONTINUOUS
10
144.566
20
-102.757
11
144.475
21
-102.775
0
LINE
8
BLACK
6
CONTINUOUS
10
144.475
20
-102.775
11
143.875
21
-102.775
0
LINE
8
BLACK
6
CONTINUOUS
10
143.875
20
-102.775
11
143.784
21
-102.757
0
LINE
8
BLACK
6
CONTINUOUS
10
143.784
20
-102.757
11
143.707
21
-102.705
0
LINE
8
BLACK
6
CONTINUOUS
10
143.707
20
-102.705
11
143.656
21
-102.628
0
LINE
8
BLACK
6
CONTINUOUS
10
143.656
20
-102.628
11
143.637
21
-102.537
0
LINE
8
BLACK
6
CONTINUOUS
10
143.637
20
-102.537
11
143.637
21
-102.062
0
LINE
8
BLACK
6
CONTINUOUS
10
143.637
20
-102.062
11
143.656
21
-101.972
0
LINE
8
BLACK
6
CONTINUOUS
10
143.656
20
-101.972
11
143.707
21
-101.895
0
LINE
8
BLACK
6
CONTINUOUS
10
143.707
20
-101.895
11
143.784
21
-101.843
0
LINE
8
BLACK
6
CONTINUOUS
10
143.784
20
-101.843
11
143.875
21
-101.825
0
LINE
8
BLACK
6
CONTINUOUS
10
143.875
20
-101.825
11
144.475
21
-101.825
0
LINE
8
BLACK
6
CONTINUOUS
10
144.475
20
-101.825
11
144.566
21
-101.843
0
LINE
8
BLACK
6
CONTINUOUS
10
142.841
20
-101.843
11
142.918
21
-101.895
0
LINE
8
BLACK
6
CONTINUOUS
10
142.918
20
-101.895
11
142.969
21
-101.972
0
LINE
8
BLACK
6
CONTINUOUS
10
142.969
20
-101.972
11
142.987
21
-102.062
0
LINE
8
BLACK
6
CONTINUOUS
10
142.987
20
-102.062
11
142.987
21
-102.537
0
LINE
8
BLACK
6
CONTINUOUS
10
142.987
20
-102.537
11
142.969
21
-102.628
0
LINE
8
BLACK
6
CONTINUOUS
10
142.969
20
-102.628
11
142.918
21
-102.705
0
LINE
8
BLACK
6
CONTINUOUS
10
142.918
20
-102.705
11
142.841
21
-102.757
0
LINE
8
BLACK
6
CONTINUOUS
10
142.841
20
-102.757
11
142.75
21
-102.775
0
LINE
8
BLACK
6
CONTINUOUS
10
142.75
20
-102.775
11
142.15
21
-102.775
0
LINE
8
BLACK
6
CONTINUOUS
10
142.15
20
-102.775
11
142.059
21
-102.757
0
LINE
8
BLACK
6
CONTINUOUS
10
142.059
20
-102.757
11
141.982
21
-102.705
0
LINE
8
BLACK
6
CONTINUOUS
10
141.982
20
-102.705
11
141.931
21
-102.628
0
LINE
8
BLACK
6
CONTINUOUS
10
141.931
20
-102.628
11
141.912
21
-102.537
0
LINE
8
BLACK
6
CONTINUOUS
10
141.912
20
-102.537
11
141.912
21
-102.062
0
LINE
8
BLACK
6
CONTINUOUS
10
141.912
20
-102.062
11
141.931
21
-101.972
0
LINE
8
BLACK
6
CONTINUOUS
10
141.931
20
-101.972
11
141.982
21
-101.895
0
LINE
8
BLACK
6
CONTINUOUS
10
141.982
20
-101.895
11
142.059
21
-101.843
0
LINE
8
BLACK
6
CONTINUOUS
10
142.059
20
-101.843
11
142.15
21
-101.825
0
LINE
8
BLACK
6
CONTINUOUS
10
142.15
20
-101.825
11
142.75
21
-101.825
0
LINE
8
BLACK
6
CONTINUOUS
10
142.75
20
-101.825
11
142.841
21
-101.843
0
LINE
8
BLACK
6
CONTINUOUS
10
131.207
20
-101.356
11
131.256
21
-101.389
0
LINE
8
BLACK
6
CONTINUOUS
10
131.256
20
-101.389
11
131.289
21
-101.438
0
LINE
8
BLACK
6
CONTINUOUS
10
131.289
20
-101.438
11
131.3
21
-101.495
0
LINE
8
BLACK
6
CONTINUOUS
10
131.3
20
-101.495
11
131.3
21
-101.795
0
LINE
8
BLACK
6
CONTINUOUS
10
131.3
20
-101.795
11
131.289
21
-101.852
0
LINE
8
BLACK
6
CONTINUOUS
10
131.289
20
-101.852
11
131.256
21
-101.901
0
LINE
8
BLACK
6
CONTINUOUS
10
131.256
20
-101.901
11
131.207
21
-101.934
0
LINE
8
BLACK
6
CONTINUOUS
10
131.207
20
-101.934
11
131.15
21
-101.945
0
LINE
8
BLACK
6
CONTINUOUS
10
131.15
20
-101.945
11
129.5
21
-101.945
0
LINE
8
BLACK
6
CONTINUOUS
10
129.5
20
-101.945
11
129.443
21
-101.934
0
LINE
8
BLACK
6
CONTINUOUS
10
129.443
20
-101.934
11
129.394
21
-101.901
0
LINE
8
BLACK
6
CONTINUOUS
10
129.394
20
-101.901
11
129.361
21
-101.852
0
LINE
8
BLACK
6
CONTINUOUS
10
129.361
20
-101.852
11
129.35
21
-101.795
0
LINE
8
BLACK
6
CONTINUOUS
10
129.35
20
-101.795
11
129.35
21
-101.495
0
LINE
8
BLACK
6
CONTINUOUS
10
129.35
20
-101.495
11
129.361
21
-101.438
0
LINE
8
BLACK
6
CONTINUOUS
10
129.361
20
-101.438
11
129.394
21
-101.389
0
LINE
8
BLACK
6
CONTINUOUS
10
129.394
20
-101.389
11
129.443
21
-101.356
0
LINE
8
BLACK
6
CONTINUOUS
10
129.443
20
-101.356
11
129.5
21
-101.345
0
LINE
8
BLACK
6
CONTINUOUS
10
129.5
20
-101.345
11
131.15
21
-101.345
0
LINE
8
BLACK
6
CONTINUOUS
10
131.15
20
-101.345
11
131.207
21
-101.356
0
LINE
8
BLACK
6
CONTINUOUS
10
136.157
20
-101.356
11
136.206
21
-101.389
0
LINE
8
BLACK
6
CONTINUOUS
10
136.206
20
-101.389
11
136.239
21
-101.438
0
LINE
8
BLACK
6
CONTINUOUS
10
136.239
20
-101.438
11
136.25
21
-101.495
0
LINE
8
BLACK
6
CONTINUOUS
10
136.25
20
-101.495
11
136.25
21
-101.795
0
LINE
8
BLACK
6
CONTINUOUS
10
136.25
20
-101.795
11
136.239
21
-101.852
0
LINE
8
BLACK
6
CONTINUOUS
10
136.239
20
-101.852
11
136.206
21
-101.901
0
LINE
8
BLACK
6
CONTINUOUS
10
136.206
20
-101.901
11
136.157
21
-101.934
0
LINE
8
BLACK
6
CONTINUOUS
10
136.157
20
-101.934
11
136.1
21
-101.945
0
LINE
8
BLACK
6
CONTINUOUS
10
136.1
20
-101.945
11
134.45
21
-101.945
0
LINE
8
BLACK
6
CONTINUOUS
10
134.45
20
-101.945
11
134.393
21
-101.934
0
LINE
8
BLACK
6
CONTINUOUS
10
134.393
20
-101.934
11
134.344
21
-101.901
0
LINE
8
BLACK
6
CONTINUOUS
10
134.344
20
-101.901
11
134.311
21
-101.852
0
LINE
8
BLACK
6
CONTINUOUS
10
134.311
20
-101.852
11
134.3
21
-101.795
0
LINE
8
BLACK
6
CONTINUOUS
10
134.3
20
-101.795
11
134.3
21
-101.495
0
LINE
8
BLACK
6
CONTINUOUS
10
134.3
20
-101.495
11
134.311
21
-101.438
0
LINE
8
BLACK
6
CONTINUOUS
10
134.311
20
-101.438
11
134.344
21
-101.389
0
LINE
8
BLACK
6
CONTINUOUS
10
134.344
20
-101.389
11
134.393
21
-101.356
0
LINE
8
BLACK
6
CONTINUOUS
10
134.393
20
-101.356
11
134.45
21
-101.345
0
LINE
8
BLACK
6
CONTINUOUS
10
134.45
20
-101.345
11
136.1
21
-101.345
0
LINE
8
BLACK
6
CONTINUOUS
10
136.1
20
-101.345
11
136.157
21
-101.356
0
LINE
8
BLACK
6
CONTINUOUS
10
146.941
20
-100.068
11
147.018
21
-100.12
0
LINE
8
BLACK
6
CONTINUOUS
10
147.018
20
-100.12
11
147.069
21
-100.197
0
LINE
8
BLACK
6
CONTINUOUS
10
147.069
20
-100.197
11
147.088
21
-100.287
0
LINE
8
BLACK
6
CONTINUOUS
10
147.088
20
-100.287
11
147.088
21
-100.762
0
LINE
8
BLACK
6
CONTINUOUS
10
147.088
20
-100.762
11
147.069
21
-100.853
0
LINE
8
BLACK
6
CONTINUOUS
10
147.069
20
-100.853
11
147.018
21
-100.93
0
LINE
8
BLACK
6
CONTINUOUS
10
147.018
20
-100.93
11
146.941
21
-100.982
0
LINE
8
BLACK
6
CONTINUOUS
10
146.941
20
-100.982
11
146.85
21
-101
0
LINE
8
BLACK
6
CONTINUOUS
10
146.85
20
-101
11
146.25
21
-101
0
LINE
8
BLACK
6
CONTINUOUS
10
146.25
20
-101
11
146.159
21
-100.982
0
LINE
8
BLACK
6
CONTINUOUS
10
146.159
20
-100.982
11
146.082
21
-100.93
0
LINE
8
BLACK
6
CONTINUOUS
10
146.082
20
-100.93
11
146.031
21
-100.853
0
LINE
8
BLACK
6
CONTINUOUS
10
146.031
20
-100.853
11
146.012
21
-100.762
0
LINE
8
BLACK
6
CONTINUOUS
10
146.012
20
-100.762
11
146.012
21
-100.287
0
LINE
8
BLACK
6
CONTINUOUS
10
146.012
20
-100.287
11
146.031
21
-100.197
0
LINE
8
BLACK
6
CONTINUOUS
10
146.031
20
-100.197
11
146.082
21
-100.12
0
LINE
8
BLACK
6
CONTINUOUS
10
146.082
20
-100.12
11
146.159
21
-100.068
0
LINE
8
BLACK
6
CONTINUOUS
10
146.159
20
-100.068
11
146.25
21
-100.05
0
LINE
8
BLACK
6
CONTINUOUS
10
146.25
20
-100.05
11
146.85
21
-100.05
0
LINE
8
BLACK
6
CONTINUOUS
10
146.85
20
-100.05
11
146.941
21
-100.068
0
LINE
8
BLACK
6
CONTINUOUS
10
145.216
20
-100.068
11
145.293
21
-100.12
0
LINE
8
BLACK
6
CONTINUOUS
10
145.293
20
-100.12
11
145.344
21
-100.197
0
LINE
8
BLACK
6
CONTINUOUS
10
145.344
20
-100.197
11
145.362
21
-100.287
0
LINE
8
BLACK
6
CONTINUOUS
10
145.362
20
-100.287
11
145.362
21
-100.762
0
LINE
8
BLACK
6
CONTINUOUS
10
145.362
20
-100.762
11
145.344
21
-100.853
0
LINE
8
BLACK
6
CONTINUOUS
10
145.344
20
-100.853
11
145.293
21
-100.93
0
LINE
8
BLACK
6
CONTINUOUS
10
145.293
20
-100.93
11
145.216
21
-100.982
0
LINE
8
BLACK
6
CONTINUOUS
10
145.216
20
-100.982
11
145.125
21
-101
0
LINE
8
BLACK
6
CONTINUOUS
10
145.125
20
-101
11
144.525
21
-101
0
LINE
8
BLACK
6
CONTINUOUS
10
144.525
20
-101
11
144.434
21
-100.982
0
LINE
8
BLACK
6
CONTINUOUS
10
144.434
20
-100.982
11
144.357
21
-100.93
0
LINE
8
BLACK
6
CONTINUOUS
10
144.357
20
-100.93
11
144.306
21
-100.853
0
LINE
8
BLACK
6
CONTINUOUS
10
144.306
20
-100.853
11
144.287
21
-100.762
0
LINE
8
BLACK
6
CONTINUOUS
10
144.287
20
-100.762
11
144.287
21
-100.287
0
LINE
8
BLACK
6
CONTINUOUS
10
144.287
20
-100.287
11
144.306
21
-100.197
0
LINE
8
BLACK
6
CONTINUOUS
10
144.306
20
-100.197
11
144.357
21
-100.12
0
LINE
8
BLACK
6
CONTINUOUS
10
144.357
20
-100.12
11
144.434
21
-100.068
0
LINE
8
BLACK
6
CONTINUOUS
10
144.434
20
-100.068
11
144.525
21
-100.05
0
LINE
8
BLACK
6
CONTINUOUS
10
144.525
20
-100.05
11
145.125
21
-100.05
0
LINE
8
BLACK
6
CONTINUOUS
10
145.125
20
-100.05
11
145.216
21
-100.068
0
LINE
8
BLACK
6
CONTINUOUS
10
138.45
20
-100.995
11
137.4
21
-100.995
0
LINE
8
BLACK
6
CONTINUOUS
10
137.4
20
-100.995
11
137.4
21
-98.795
0
LINE
8
BLACK
6
CONTINUOUS
10
137.4
20
-98.795
11
138.45
21
-98.795
0
LINE
8
BLACK
6
CONTINUOUS
10
138.45
20
-98.795
11
138.45
21
-100.995
0
LINE
8
BLACK
6
CONTINUOUS
10
141.4
20
-100.995
11
140.35
21
-100.995
0
LINE
8
BLACK
6
CONTINUOUS
10
140.35
20
-100.995
11
140.35
21
-98.795
0
LINE
8
BLACK
6
CONTINUOUS
10
140.35
20
-98.795
11
141.4
21
-98.795
0
LINE
8
BLACK
6
CONTINUOUS
10
141.4
20
-98.795
11
141.4
21
-100.995
0
LINE
8
BLACK
6
CONTINUOUS
10
139.9
20
-98.895
11
138.9
21
-98.895
0
LINE
8
BLACK
6
CONTINUOUS
10
138.9
20
-98.895
11
138.9
21
-97.845
0
LINE
8
BLACK
6
CONTINUOUS
10
138.9
20
-97.845
11
139.9
21
-97.845
0
LINE
8
BLACK
6
CONTINUOUS
10
139.9
20
-97.845
11
139.9
21
-98.895
0
LINE
8
BLACK
6
CONTINUOUS
10
138.05
20
-94.85
11
136.35
21
-94.85
0
LINE
8
BLACK
6
CONTINUOUS
10
136.35
20
-94.85
11
136.35
21
-93.15
0
LINE
8
BLACK
6
CONTINUOUS
10
136.35
20
-93.15
11
138.05
21
-93.15
0
LINE
8
BLACK
6
CONTINUOUS
10
138.05
20
-93.15
11
138.05
21
-94.85
0
LINE
8
BLACK
6
CONTINUOUS
10
140.003
20
-93.1916
11
140.165
21
-93.2639
0
LINE
8
BLACK
6
CONTINUOUS
10
140.165
20
-93.2639
11
140.309
21
-93.3683
0
LINE
8
BLACK
6
CONTINUOUS
10
140.309
20
-93.3683
11
140.428
21
-93.5004
0
LINE
8
BLACK
6
CONTINUOUS
10
140.428
20
-93.5004
11
140.517
21
-93.6543
0
LINE
8
BLACK
6
CONTINUOUS
10
140.517
20
-93.6543
11
140.571
21
-93.8233
0
LINE
8
BLACK
6
CONTINUOUS
10
140.571
20
-93.8233
11
140.59
21
-94
0
LINE
8
BLACK
6
CONTINUOUS
10
140.59
20
-94
11
140.571
21
-94.1767
0
LINE
8
BLACK
6
CONTINUOUS
10
140.571
20
-94.1767
11
140.517
21
-94.3457
0
LINE
8
BLACK
6
CONTINUOUS
10
140.517
20
-94.3457
11
140.428
21
-94.4996
0
LINE
8
BLACK
6
CONTINUOUS
10
140.428
20
-94.4996
11
140.309
21
-94.6317
0
LINE
8
BLACK
6
CONTINUOUS
10
140.309
20
-94.6317
11
140.165
21
-94.7361
0
LINE
8
BLACK
6
CONTINUOUS
10
140.165
20
-94.7361
11
140.003
21
-94.8084
0
LINE
8
BLACK
6
CONTINUOUS
10
140.003
20
-94.8084
11
139.829
21
-94.8453
0
LINE
8
BLACK
6
CONTINUOUS
10
139.829
20
-94.8453
11
139.651
21
-94.8453
0
LINE
8
BLACK
6
CONTINUOUS
10
139.651
20
-94.8453
11
139.477
21
-94.8084
0
LINE
8
BLACK
6
CONTINUOUS
10
139.477
20
-94.8084
11
139.315
21
-94.7361
0
LINE
8
BLACK
6
CONTINUOUS
10
139.315
20
-94.7361
11
139.171
21
-94.6317
0
LINE
8
BLACK
6
CONTINUOUS
10
139.171
20
-94.6317
11
139.052
21
-94.4996
0
LINE
8
BLACK
6
CONTINUOUS
10
139.052
20
-94.4996
11
138.963
21
-94.3457
0
LINE
8
BLACK
6
CONTINUOUS
10
138.963
20
-94.3457
11
138.909
21
-94.1767
0
LINE
8
BLACK
6
CONTINUOUS
10
138.909
20
-94.1767
11
138.89
21
-94
0
LINE
8
BLACK
6
CONTINUOUS
10
138.89
20
-94
11
138.909
21
-93.8233
0
LINE
8
BLACK
6
CONTINUOUS
10
138.909
20
-93.8233
11
138.963
21
-93.6543
0
LINE
8
BLACK
6
CONTINUOUS
10
138.963
20
-93.6543
11
139.052
21
-93.5004
0
LINE
8
BLACK
6
CONTINUOUS
10
139.052
20
-93.5004
11
139.171
21
-93.3683
0
LINE
8
BLACK
6
CONTINUOUS
10
139.171
20
-93.3683
11
139.315
21
-93.2639
0
LINE
8
BLACK
6
CONTINUOUS
10
139.315
20
-93.2639
11
139.477
21
-93.1916
0
LINE
8
BLACK
6
CONTINUOUS
10
139.477
20
-93.1916
11
139.651
21
-93.1547
0
LINE
8
BLACK
6
CONTINUOUS
10
139.651
20
-93.1547
11
139.829
21
-93.1547
0
LINE
8
BLACK
6
CONTINUOUS
10
139.829
20
-93.1547
11
140.003
21
-93.1916
  0
ENDSEC
  0
EOF
