%TF.GenerationSoftware,KiCad,Pcbnew,6.0.6-3a73a75311~116~ubuntu20.04.1*%
%TF.CreationDate,2022-09-27T10:12:31+01:00*%
%TF.ProjectId,UFOControlDeck,55464f43-6f6e-4747-926f-6c4465636b2e,rev?*%
%TF.SameCoordinates,Original*%
%TF.FileFunction,Legend,Top*%
%TF.FilePolarity,Positive*%
%FSLAX46Y46*%
G04 Gerber Fmt 4.6, Leading zero omitted, Abs format (unit mm)*
G04 Created by KiCad (PCBNEW 6.0.6-3a73a75311~116~ubuntu20.04.1) date 2022-09-27 10:12:31*
%MOMM*%
%LPD*%
G01*
G04 APERTURE LIST*
%ADD10C,0.150000*%
%ADD11C,0.120000*%
%ADD12C,0.127000*%
%ADD13C,0.200000*%
G04 APERTURE END LIST*
D10*
%TO.C,C10*%
X134757142Y-96457142D02*
X134709523Y-96504761D01*
X134566666Y-96552380D01*
X134471428Y-96552380D01*
X134328571Y-96504761D01*
X134233333Y-96409523D01*
X134185714Y-96314285D01*
X134138095Y-96123809D01*
X134138095Y-95980952D01*
X134185714Y-95790476D01*
X134233333Y-95695238D01*
X134328571Y-95600000D01*
X134471428Y-95552380D01*
X134566666Y-95552380D01*
X134709523Y-95600000D01*
X134757142Y-95647619D01*
X135709523Y-96552380D02*
X135138095Y-96552380D01*
X135423809Y-96552380D02*
X135423809Y-95552380D01*
X135328571Y-95695238D01*
X135233333Y-95790476D01*
X135138095Y-95838095D01*
X136328571Y-95552380D02*
X136423809Y-95552380D01*
X136519047Y-95600000D01*
X136566666Y-95647619D01*
X136614285Y-95742857D01*
X136661904Y-95933333D01*
X136661904Y-96171428D01*
X136614285Y-96361904D01*
X136566666Y-96457142D01*
X136519047Y-96504761D01*
X136423809Y-96552380D01*
X136328571Y-96552380D01*
X136233333Y-96504761D01*
X136185714Y-96457142D01*
X136138095Y-96361904D01*
X136090476Y-96171428D01*
X136090476Y-95933333D01*
X136138095Y-95742857D01*
X136185714Y-95647619D01*
X136233333Y-95600000D01*
X136328571Y-95552380D01*
%TO.C,D4*%
X132811904Y-100752380D02*
X132811904Y-99752380D01*
X133050000Y-99752380D01*
X133192857Y-99800000D01*
X133288095Y-99895238D01*
X133335714Y-99990476D01*
X133383333Y-100180952D01*
X133383333Y-100323809D01*
X133335714Y-100514285D01*
X133288095Y-100609523D01*
X133192857Y-100704761D01*
X133050000Y-100752380D01*
X132811904Y-100752380D01*
X134240476Y-100085714D02*
X134240476Y-100752380D01*
X134002380Y-99704761D02*
X133764285Y-100419047D01*
X134383333Y-100419047D01*
%TO.C,R11*%
X138357142Y-96852380D02*
X138023809Y-96376190D01*
X137785714Y-96852380D02*
X137785714Y-95852380D01*
X138166666Y-95852380D01*
X138261904Y-95900000D01*
X138309523Y-95947619D01*
X138357142Y-96042857D01*
X138357142Y-96185714D01*
X138309523Y-96280952D01*
X138261904Y-96328571D01*
X138166666Y-96376190D01*
X137785714Y-96376190D01*
X139309523Y-96852380D02*
X138738095Y-96852380D01*
X139023809Y-96852380D02*
X139023809Y-95852380D01*
X138928571Y-95995238D01*
X138833333Y-96090476D01*
X138738095Y-96138095D01*
X140261904Y-96852380D02*
X139690476Y-96852380D01*
X139976190Y-96852380D02*
X139976190Y-95852380D01*
X139880952Y-95995238D01*
X139785714Y-96090476D01*
X139690476Y-96138095D01*
%TO.C,U4*%
X147688095Y-124602380D02*
X147688095Y-125411904D01*
X147735714Y-125507142D01*
X147783333Y-125554761D01*
X147878571Y-125602380D01*
X148069047Y-125602380D01*
X148164285Y-125554761D01*
X148211904Y-125507142D01*
X148259523Y-125411904D01*
X148259523Y-124602380D01*
X149164285Y-124935714D02*
X149164285Y-125602380D01*
X148926190Y-124554761D02*
X148688095Y-125269047D01*
X149307142Y-125269047D01*
%TO.C,U5*%
X145988095Y-103252380D02*
X145988095Y-104061904D01*
X146035714Y-104157142D01*
X146083333Y-104204761D01*
X146178571Y-104252380D01*
X146369047Y-104252380D01*
X146464285Y-104204761D01*
X146511904Y-104157142D01*
X146559523Y-104061904D01*
X146559523Y-103252380D01*
X147511904Y-103252380D02*
X147035714Y-103252380D01*
X146988095Y-103728571D01*
X147035714Y-103680952D01*
X147130952Y-103633333D01*
X147369047Y-103633333D01*
X147464285Y-103680952D01*
X147511904Y-103728571D01*
X147559523Y-103823809D01*
X147559523Y-104061904D01*
X147511904Y-104157142D01*
X147464285Y-104204761D01*
X147369047Y-104252380D01*
X147130952Y-104252380D01*
X147035714Y-104204761D01*
X146988095Y-104157142D01*
%TO.C,D9*%
X144452380Y-133938095D02*
X143452380Y-133938095D01*
X143452380Y-133700000D01*
X143500000Y-133557142D01*
X143595238Y-133461904D01*
X143690476Y-133414285D01*
X143880952Y-133366666D01*
X144023809Y-133366666D01*
X144214285Y-133414285D01*
X144309523Y-133461904D01*
X144404761Y-133557142D01*
X144452380Y-133700000D01*
X144452380Y-133938095D01*
X144452380Y-132890476D02*
X144452380Y-132700000D01*
X144404761Y-132604761D01*
X144357142Y-132557142D01*
X144214285Y-132461904D01*
X144023809Y-132414285D01*
X143642857Y-132414285D01*
X143547619Y-132461904D01*
X143500000Y-132509523D01*
X143452380Y-132604761D01*
X143452380Y-132795238D01*
X143500000Y-132890476D01*
X143547619Y-132938095D01*
X143642857Y-132985714D01*
X143880952Y-132985714D01*
X143976190Y-132938095D01*
X144023809Y-132890476D01*
X144071428Y-132795238D01*
X144071428Y-132604761D01*
X144023809Y-132509523D01*
X143976190Y-132461904D01*
X143880952Y-132414285D01*
%TO.C,D12*%
X150061251Y-134928511D02*
X149354145Y-134221404D01*
X149522503Y-134053045D01*
X149657190Y-133985702D01*
X149791877Y-133985702D01*
X149892893Y-134019374D01*
X150061251Y-134120389D01*
X150162267Y-134221404D01*
X150263282Y-134389763D01*
X150296954Y-134490778D01*
X150296954Y-134625465D01*
X150229610Y-134760152D01*
X150061251Y-134928511D01*
X151138748Y-133851015D02*
X150734687Y-134255076D01*
X150936717Y-134053045D02*
X150229610Y-133345938D01*
X150263282Y-133514297D01*
X150263282Y-133648984D01*
X150229610Y-133750000D01*
X150768358Y-132941877D02*
X150768358Y-132874534D01*
X150802030Y-132773519D01*
X150970389Y-132605160D01*
X151071404Y-132571488D01*
X151138748Y-132571488D01*
X151239763Y-132605160D01*
X151307106Y-132672503D01*
X151374450Y-132807190D01*
X151374450Y-133615312D01*
X151812183Y-133177580D01*
%TO.C,D8*%
X136652380Y-137238095D02*
X135652380Y-137238095D01*
X135652380Y-137000000D01*
X135700000Y-136857142D01*
X135795238Y-136761904D01*
X135890476Y-136714285D01*
X136080952Y-136666666D01*
X136223809Y-136666666D01*
X136414285Y-136714285D01*
X136509523Y-136761904D01*
X136604761Y-136857142D01*
X136652380Y-137000000D01*
X136652380Y-137238095D01*
X136080952Y-136095238D02*
X136033333Y-136190476D01*
X135985714Y-136238095D01*
X135890476Y-136285714D01*
X135842857Y-136285714D01*
X135747619Y-136238095D01*
X135700000Y-136190476D01*
X135652380Y-136095238D01*
X135652380Y-135904761D01*
X135700000Y-135809523D01*
X135747619Y-135761904D01*
X135842857Y-135714285D01*
X135890476Y-135714285D01*
X135985714Y-135761904D01*
X136033333Y-135809523D01*
X136080952Y-135904761D01*
X136080952Y-136095238D01*
X136128571Y-136190476D01*
X136176190Y-136238095D01*
X136271428Y-136285714D01*
X136461904Y-136285714D01*
X136557142Y-136238095D01*
X136604761Y-136190476D01*
X136652380Y-136095238D01*
X136652380Y-135904761D01*
X136604761Y-135809523D01*
X136557142Y-135761904D01*
X136461904Y-135714285D01*
X136271428Y-135714285D01*
X136176190Y-135761904D01*
X136128571Y-135809523D01*
X136080952Y-135904761D01*
%TO.C,D11*%
X147452380Y-133014285D02*
X146452380Y-133014285D01*
X146452380Y-132776190D01*
X146500000Y-132633333D01*
X146595238Y-132538095D01*
X146690476Y-132490476D01*
X146880952Y-132442857D01*
X147023809Y-132442857D01*
X147214285Y-132490476D01*
X147309523Y-132538095D01*
X147404761Y-132633333D01*
X147452380Y-132776190D01*
X147452380Y-133014285D01*
X147452380Y-131490476D02*
X147452380Y-132061904D01*
X147452380Y-131776190D02*
X146452380Y-131776190D01*
X146595238Y-131871428D01*
X146690476Y-131966666D01*
X146738095Y-132061904D01*
X147452380Y-130538095D02*
X147452380Y-131109523D01*
X147452380Y-130823809D02*
X146452380Y-130823809D01*
X146595238Y-130919047D01*
X146690476Y-131014285D01*
X146738095Y-131109523D01*
%TO.C,D10*%
X145952380Y-133614285D02*
X144952380Y-133614285D01*
X144952380Y-133376190D01*
X145000000Y-133233333D01*
X145095238Y-133138095D01*
X145190476Y-133090476D01*
X145380952Y-133042857D01*
X145523809Y-133042857D01*
X145714285Y-133090476D01*
X145809523Y-133138095D01*
X145904761Y-133233333D01*
X145952380Y-133376190D01*
X145952380Y-133614285D01*
X145952380Y-132090476D02*
X145952380Y-132661904D01*
X145952380Y-132376190D02*
X144952380Y-132376190D01*
X145095238Y-132471428D01*
X145190476Y-132566666D01*
X145238095Y-132661904D01*
X144952380Y-131471428D02*
X144952380Y-131376190D01*
X145000000Y-131280952D01*
X145047619Y-131233333D01*
X145142857Y-131185714D01*
X145333333Y-131138095D01*
X145571428Y-131138095D01*
X145761904Y-131185714D01*
X145857142Y-131233333D01*
X145904761Y-131280952D01*
X145952380Y-131376190D01*
X145952380Y-131471428D01*
X145904761Y-131566666D01*
X145857142Y-131614285D01*
X145761904Y-131661904D01*
X145571428Y-131709523D01*
X145333333Y-131709523D01*
X145142857Y-131661904D01*
X145047619Y-131614285D01*
X145000000Y-131566666D01*
X144952380Y-131471428D01*
%TO.C,J1*%
X134322380Y-94333333D02*
X135036666Y-94333333D01*
X135179523Y-94380952D01*
X135274761Y-94476190D01*
X135322380Y-94619047D01*
X135322380Y-94714285D01*
X135322380Y-93333333D02*
X135322380Y-93904761D01*
X135322380Y-93619047D02*
X134322380Y-93619047D01*
X134465238Y-93714285D01*
X134560476Y-93809523D01*
X134608095Y-93904761D01*
%TO.C,L1*%
X132333333Y-94852380D02*
X131857142Y-94852380D01*
X131857142Y-93852380D01*
X133190476Y-94852380D02*
X132619047Y-94852380D01*
X132904761Y-94852380D02*
X132904761Y-93852380D01*
X132809523Y-93995238D01*
X132714285Y-94090476D01*
X132619047Y-94138095D01*
%TO.C,H1*%
X125838095Y-97752380D02*
X125838095Y-96752380D01*
X125838095Y-97228571D02*
X126409523Y-97228571D01*
X126409523Y-97752380D02*
X126409523Y-96752380D01*
X127409523Y-97752380D02*
X126838095Y-97752380D01*
X127123809Y-97752380D02*
X127123809Y-96752380D01*
X127028571Y-96895238D01*
X126933333Y-96990476D01*
X126838095Y-97038095D01*
%TO.C,H2*%
X128788095Y-132302380D02*
X128788095Y-131302380D01*
X128788095Y-131778571D02*
X129359523Y-131778571D01*
X129359523Y-132302380D02*
X129359523Y-131302380D01*
X129788095Y-131397619D02*
X129835714Y-131350000D01*
X129930952Y-131302380D01*
X130169047Y-131302380D01*
X130264285Y-131350000D01*
X130311904Y-131397619D01*
X130359523Y-131492857D01*
X130359523Y-131588095D01*
X130311904Y-131730952D01*
X129740476Y-132302380D01*
X130359523Y-132302380D01*
%TO.C,H3*%
X156088095Y-104302380D02*
X156088095Y-103302380D01*
X156088095Y-103778571D02*
X156659523Y-103778571D01*
X156659523Y-104302380D02*
X156659523Y-103302380D01*
X157040476Y-103302380D02*
X157659523Y-103302380D01*
X157326190Y-103683333D01*
X157469047Y-103683333D01*
X157564285Y-103730952D01*
X157611904Y-103778571D01*
X157659523Y-103873809D01*
X157659523Y-104111904D01*
X157611904Y-104207142D01*
X157564285Y-104254761D01*
X157469047Y-104302380D01*
X157183333Y-104302380D01*
X157088095Y-104254761D01*
X157040476Y-104207142D01*
%TO.C,H4*%
X146288095Y-128702380D02*
X146288095Y-127702380D01*
X146288095Y-128178571D02*
X146859523Y-128178571D01*
X146859523Y-128702380D02*
X146859523Y-127702380D01*
X147764285Y-128035714D02*
X147764285Y-128702380D01*
X147526190Y-127654761D02*
X147288095Y-128369047D01*
X147907142Y-128369047D01*
%TO.C,U2*%
X145988095Y-101752380D02*
X145988095Y-102561904D01*
X146035714Y-102657142D01*
X146083333Y-102704761D01*
X146178571Y-102752380D01*
X146369047Y-102752380D01*
X146464285Y-102704761D01*
X146511904Y-102657142D01*
X146559523Y-102561904D01*
X146559523Y-101752380D01*
X146988095Y-101847619D02*
X147035714Y-101800000D01*
X147130952Y-101752380D01*
X147369047Y-101752380D01*
X147464285Y-101800000D01*
X147511904Y-101847619D01*
X147559523Y-101942857D01*
X147559523Y-102038095D01*
X147511904Y-102180952D01*
X146940476Y-102752380D01*
X147559523Y-102752380D01*
%TO.C,U9*%
X142288095Y-97002380D02*
X142288095Y-97811904D01*
X142335714Y-97907142D01*
X142383333Y-97954761D01*
X142478571Y-98002380D01*
X142669047Y-98002380D01*
X142764285Y-97954761D01*
X142811904Y-97907142D01*
X142859523Y-97811904D01*
X142859523Y-97002380D01*
X143383333Y-98002380D02*
X143573809Y-98002380D01*
X143669047Y-97954761D01*
X143716666Y-97907142D01*
X143811904Y-97764285D01*
X143859523Y-97573809D01*
X143859523Y-97192857D01*
X143811904Y-97097619D01*
X143764285Y-97050000D01*
X143669047Y-97002380D01*
X143478571Y-97002380D01*
X143383333Y-97050000D01*
X143335714Y-97097619D01*
X143288095Y-97192857D01*
X143288095Y-97430952D01*
X143335714Y-97526190D01*
X143383333Y-97573809D01*
X143478571Y-97621428D01*
X143669047Y-97621428D01*
X143764285Y-97573809D01*
X143811904Y-97526190D01*
X143859523Y-97430952D01*
%TO.C,R13*%
X130357142Y-108702380D02*
X130023809Y-108226190D01*
X129785714Y-108702380D02*
X129785714Y-107702380D01*
X130166666Y-107702380D01*
X130261904Y-107750000D01*
X130309523Y-107797619D01*
X130357142Y-107892857D01*
X130357142Y-108035714D01*
X130309523Y-108130952D01*
X130261904Y-108178571D01*
X130166666Y-108226190D01*
X129785714Y-108226190D01*
X131309523Y-108702380D02*
X130738095Y-108702380D01*
X131023809Y-108702380D02*
X131023809Y-107702380D01*
X130928571Y-107845238D01*
X130833333Y-107940476D01*
X130738095Y-107988095D01*
X131642857Y-107702380D02*
X132261904Y-107702380D01*
X131928571Y-108083333D01*
X132071428Y-108083333D01*
X132166666Y-108130952D01*
X132214285Y-108178571D01*
X132261904Y-108273809D01*
X132261904Y-108511904D01*
X132214285Y-108607142D01*
X132166666Y-108654761D01*
X132071428Y-108702380D01*
X131785714Y-108702380D01*
X131690476Y-108654761D01*
X131642857Y-108607142D01*
%TO.C,D2*%
X125211904Y-106752380D02*
X125211904Y-105752380D01*
X125450000Y-105752380D01*
X125592857Y-105800000D01*
X125688095Y-105895238D01*
X125735714Y-105990476D01*
X125783333Y-106180952D01*
X125783333Y-106323809D01*
X125735714Y-106514285D01*
X125688095Y-106609523D01*
X125592857Y-106704761D01*
X125450000Y-106752380D01*
X125211904Y-106752380D01*
X126164285Y-105847619D02*
X126211904Y-105800000D01*
X126307142Y-105752380D01*
X126545238Y-105752380D01*
X126640476Y-105800000D01*
X126688095Y-105847619D01*
X126735714Y-105942857D01*
X126735714Y-106038095D01*
X126688095Y-106180952D01*
X126116666Y-106752380D01*
X126735714Y-106752380D01*
%TO.C,C1*%
X123883333Y-116707142D02*
X123835714Y-116754761D01*
X123692857Y-116802380D01*
X123597619Y-116802380D01*
X123454761Y-116754761D01*
X123359523Y-116659523D01*
X123311904Y-116564285D01*
X123264285Y-116373809D01*
X123264285Y-116230952D01*
X123311904Y-116040476D01*
X123359523Y-115945238D01*
X123454761Y-115850000D01*
X123597619Y-115802380D01*
X123692857Y-115802380D01*
X123835714Y-115850000D01*
X123883333Y-115897619D01*
X124835714Y-116802380D02*
X124264285Y-116802380D01*
X124550000Y-116802380D02*
X124550000Y-115802380D01*
X124454761Y-115945238D01*
X124359523Y-116040476D01*
X124264285Y-116088095D01*
%TO.C,D5*%
X134452380Y-136738095D02*
X133452380Y-136738095D01*
X133452380Y-136500000D01*
X133500000Y-136357142D01*
X133595238Y-136261904D01*
X133690476Y-136214285D01*
X133880952Y-136166666D01*
X134023809Y-136166666D01*
X134214285Y-136214285D01*
X134309523Y-136261904D01*
X134404761Y-136357142D01*
X134452380Y-136500000D01*
X134452380Y-136738095D01*
X133452380Y-135261904D02*
X133452380Y-135738095D01*
X133928571Y-135785714D01*
X133880952Y-135738095D01*
X133833333Y-135642857D01*
X133833333Y-135404761D01*
X133880952Y-135309523D01*
X133928571Y-135261904D01*
X134023809Y-135214285D01*
X134261904Y-135214285D01*
X134357142Y-135261904D01*
X134404761Y-135309523D01*
X134452380Y-135404761D01*
X134452380Y-135642857D01*
X134404761Y-135738095D01*
X134357142Y-135785714D01*
%TO.C,D7*%
X135552380Y-137138095D02*
X134552380Y-137138095D01*
X134552380Y-136900000D01*
X134600000Y-136757142D01*
X134695238Y-136661904D01*
X134790476Y-136614285D01*
X134980952Y-136566666D01*
X135123809Y-136566666D01*
X135314285Y-136614285D01*
X135409523Y-136661904D01*
X135504761Y-136757142D01*
X135552380Y-136900000D01*
X135552380Y-137138095D01*
X134552380Y-136233333D02*
X134552380Y-135566666D01*
X135552380Y-135995238D01*
%TO.C,D6*%
X133252380Y-136138095D02*
X132252380Y-136138095D01*
X132252380Y-135900000D01*
X132300000Y-135757142D01*
X132395238Y-135661904D01*
X132490476Y-135614285D01*
X132680952Y-135566666D01*
X132823809Y-135566666D01*
X133014285Y-135614285D01*
X133109523Y-135661904D01*
X133204761Y-135757142D01*
X133252380Y-135900000D01*
X133252380Y-136138095D01*
X132252380Y-134709523D02*
X132252380Y-134900000D01*
X132300000Y-134995238D01*
X132347619Y-135042857D01*
X132490476Y-135138095D01*
X132680952Y-135185714D01*
X133061904Y-135185714D01*
X133157142Y-135138095D01*
X133204761Y-135090476D01*
X133252380Y-134995238D01*
X133252380Y-134804761D01*
X133204761Y-134709523D01*
X133157142Y-134661904D01*
X133061904Y-134614285D01*
X132823809Y-134614285D01*
X132728571Y-134661904D01*
X132680952Y-134709523D01*
X132633333Y-134804761D01*
X132633333Y-134995238D01*
X132680952Y-135090476D01*
X132728571Y-135138095D01*
X132823809Y-135185714D01*
%TO.C,C7*%
X131637142Y-121866666D02*
X131684761Y-121914285D01*
X131732380Y-122057142D01*
X131732380Y-122152380D01*
X131684761Y-122295238D01*
X131589523Y-122390476D01*
X131494285Y-122438095D01*
X131303809Y-122485714D01*
X131160952Y-122485714D01*
X130970476Y-122438095D01*
X130875238Y-122390476D01*
X130780000Y-122295238D01*
X130732380Y-122152380D01*
X130732380Y-122057142D01*
X130780000Y-121914285D01*
X130827619Y-121866666D01*
X130732380Y-121533333D02*
X130732380Y-120866666D01*
X131732380Y-121295238D01*
%TO.C,U3*%
X148301522Y-122075973D02*
X148873942Y-121503553D01*
X148907614Y-121402538D01*
X148907614Y-121335194D01*
X148873942Y-121234179D01*
X148739255Y-121099492D01*
X148638240Y-121065820D01*
X148570896Y-121065820D01*
X148469881Y-121099492D01*
X147897461Y-121671912D01*
X147628087Y-121402538D02*
X147190355Y-120964805D01*
X147695431Y-120931133D01*
X147594416Y-120830118D01*
X147560744Y-120729103D01*
X147560744Y-120661759D01*
X147594416Y-120560744D01*
X147762774Y-120392385D01*
X147863790Y-120358713D01*
X147931133Y-120358713D01*
X148032148Y-120392385D01*
X148234179Y-120594416D01*
X148267851Y-120695431D01*
X148267851Y-120762774D01*
%TO.C,J2*%
X131672380Y-129533333D02*
X132386666Y-129533333D01*
X132529523Y-129580952D01*
X132624761Y-129676190D01*
X132672380Y-129819047D01*
X132672380Y-129914285D01*
X131767619Y-129104761D02*
X131720000Y-129057142D01*
X131672380Y-128961904D01*
X131672380Y-128723809D01*
X131720000Y-128628571D01*
X131767619Y-128580952D01*
X131862857Y-128533333D01*
X131958095Y-128533333D01*
X132100952Y-128580952D01*
X132672380Y-129152380D01*
X132672380Y-128533333D01*
%TO.C,U6*%
X121388095Y-124502380D02*
X121388095Y-125311904D01*
X121435714Y-125407142D01*
X121483333Y-125454761D01*
X121578571Y-125502380D01*
X121769047Y-125502380D01*
X121864285Y-125454761D01*
X121911904Y-125407142D01*
X121959523Y-125311904D01*
X121959523Y-124502380D01*
X122864285Y-124502380D02*
X122673809Y-124502380D01*
X122578571Y-124550000D01*
X122530952Y-124597619D01*
X122435714Y-124740476D01*
X122388095Y-124930952D01*
X122388095Y-125311904D01*
X122435714Y-125407142D01*
X122483333Y-125454761D01*
X122578571Y-125502380D01*
X122769047Y-125502380D01*
X122864285Y-125454761D01*
X122911904Y-125407142D01*
X122959523Y-125311904D01*
X122959523Y-125073809D01*
X122911904Y-124978571D01*
X122864285Y-124930952D01*
X122769047Y-124883333D01*
X122578571Y-124883333D01*
X122483333Y-124930952D01*
X122435714Y-124978571D01*
X122388095Y-125073809D01*
%TO.C,R1*%
X150182380Y-97704166D02*
X149706190Y-98037500D01*
X150182380Y-98275595D02*
X149182380Y-98275595D01*
X149182380Y-97894642D01*
X149230000Y-97799404D01*
X149277619Y-97751785D01*
X149372857Y-97704166D01*
X149515714Y-97704166D01*
X149610952Y-97751785D01*
X149658571Y-97799404D01*
X149706190Y-97894642D01*
X149706190Y-98275595D01*
X150182380Y-96751785D02*
X150182380Y-97323214D01*
X150182380Y-97037500D02*
X149182380Y-97037500D01*
X149325238Y-97132738D01*
X149420476Y-97227976D01*
X149468095Y-97323214D01*
%TO.C,R2*%
X144333333Y-107627380D02*
X144000000Y-107151190D01*
X143761904Y-107627380D02*
X143761904Y-106627380D01*
X144142857Y-106627380D01*
X144238095Y-106675000D01*
X144285714Y-106722619D01*
X144333333Y-106817857D01*
X144333333Y-106960714D01*
X144285714Y-107055952D01*
X144238095Y-107103571D01*
X144142857Y-107151190D01*
X143761904Y-107151190D01*
X144714285Y-106722619D02*
X144761904Y-106675000D01*
X144857142Y-106627380D01*
X145095238Y-106627380D01*
X145190476Y-106675000D01*
X145238095Y-106722619D01*
X145285714Y-106817857D01*
X145285714Y-106913095D01*
X145238095Y-107055952D01*
X144666666Y-107627380D01*
X145285714Y-107627380D01*
%TO.C,C6*%
X123520833Y-106777142D02*
X123473214Y-106824761D01*
X123330357Y-106872380D01*
X123235119Y-106872380D01*
X123092261Y-106824761D01*
X122997023Y-106729523D01*
X122949404Y-106634285D01*
X122901785Y-106443809D01*
X122901785Y-106300952D01*
X122949404Y-106110476D01*
X122997023Y-106015238D01*
X123092261Y-105920000D01*
X123235119Y-105872380D01*
X123330357Y-105872380D01*
X123473214Y-105920000D01*
X123520833Y-105967619D01*
X124377976Y-105872380D02*
X124187500Y-105872380D01*
X124092261Y-105920000D01*
X124044642Y-105967619D01*
X123949404Y-106110476D01*
X123901785Y-106300952D01*
X123901785Y-106681904D01*
X123949404Y-106777142D01*
X123997023Y-106824761D01*
X124092261Y-106872380D01*
X124282738Y-106872380D01*
X124377976Y-106824761D01*
X124425595Y-106777142D01*
X124473214Y-106681904D01*
X124473214Y-106443809D01*
X124425595Y-106348571D01*
X124377976Y-106300952D01*
X124282738Y-106253333D01*
X124092261Y-106253333D01*
X123997023Y-106300952D01*
X123949404Y-106348571D01*
X123901785Y-106443809D01*
%TO.C,R6*%
X121252380Y-116166666D02*
X120776190Y-116500000D01*
X121252380Y-116738095D02*
X120252380Y-116738095D01*
X120252380Y-116357142D01*
X120300000Y-116261904D01*
X120347619Y-116214285D01*
X120442857Y-116166666D01*
X120585714Y-116166666D01*
X120680952Y-116214285D01*
X120728571Y-116261904D01*
X120776190Y-116357142D01*
X120776190Y-116738095D01*
X120252380Y-115309523D02*
X120252380Y-115500000D01*
X120300000Y-115595238D01*
X120347619Y-115642857D01*
X120490476Y-115738095D01*
X120680952Y-115785714D01*
X121061904Y-115785714D01*
X121157142Y-115738095D01*
X121204761Y-115690476D01*
X121252380Y-115595238D01*
X121252380Y-115404761D01*
X121204761Y-115309523D01*
X121157142Y-115261904D01*
X121061904Y-115214285D01*
X120823809Y-115214285D01*
X120728571Y-115261904D01*
X120680952Y-115309523D01*
X120633333Y-115404761D01*
X120633333Y-115595238D01*
X120680952Y-115690476D01*
X120728571Y-115738095D01*
X120823809Y-115785714D01*
%TO.C,R35*%
X119752380Y-106392857D02*
X119276190Y-106726190D01*
X119752380Y-106964285D02*
X118752380Y-106964285D01*
X118752380Y-106583333D01*
X118800000Y-106488095D01*
X118847619Y-106440476D01*
X118942857Y-106392857D01*
X119085714Y-106392857D01*
X119180952Y-106440476D01*
X119228571Y-106488095D01*
X119276190Y-106583333D01*
X119276190Y-106964285D01*
X118752380Y-106059523D02*
X118752380Y-105440476D01*
X119133333Y-105773809D01*
X119133333Y-105630952D01*
X119180952Y-105535714D01*
X119228571Y-105488095D01*
X119323809Y-105440476D01*
X119561904Y-105440476D01*
X119657142Y-105488095D01*
X119704761Y-105535714D01*
X119752380Y-105630952D01*
X119752380Y-105916666D01*
X119704761Y-106011904D01*
X119657142Y-106059523D01*
X118752380Y-104535714D02*
X118752380Y-105011904D01*
X119228571Y-105059523D01*
X119180952Y-105011904D01*
X119133333Y-104916666D01*
X119133333Y-104678571D01*
X119180952Y-104583333D01*
X119228571Y-104535714D01*
X119323809Y-104488095D01*
X119561904Y-104488095D01*
X119657142Y-104535714D01*
X119704761Y-104583333D01*
X119752380Y-104678571D01*
X119752380Y-104916666D01*
X119704761Y-105011904D01*
X119657142Y-105059523D01*
%TO.C,C4*%
X117445833Y-118187142D02*
X117398214Y-118234761D01*
X117255357Y-118282380D01*
X117160119Y-118282380D01*
X117017261Y-118234761D01*
X116922023Y-118139523D01*
X116874404Y-118044285D01*
X116826785Y-117853809D01*
X116826785Y-117710952D01*
X116874404Y-117520476D01*
X116922023Y-117425238D01*
X117017261Y-117330000D01*
X117160119Y-117282380D01*
X117255357Y-117282380D01*
X117398214Y-117330000D01*
X117445833Y-117377619D01*
X118302976Y-117615714D02*
X118302976Y-118282380D01*
X118064880Y-117234761D02*
X117826785Y-117949047D01*
X118445833Y-117949047D01*
%TO.C,C8*%
X127907142Y-107816666D02*
X127954761Y-107864285D01*
X128002380Y-108007142D01*
X128002380Y-108102380D01*
X127954761Y-108245238D01*
X127859523Y-108340476D01*
X127764285Y-108388095D01*
X127573809Y-108435714D01*
X127430952Y-108435714D01*
X127240476Y-108388095D01*
X127145238Y-108340476D01*
X127050000Y-108245238D01*
X127002380Y-108102380D01*
X127002380Y-108007142D01*
X127050000Y-107864285D01*
X127097619Y-107816666D01*
X127430952Y-107245238D02*
X127383333Y-107340476D01*
X127335714Y-107388095D01*
X127240476Y-107435714D01*
X127192857Y-107435714D01*
X127097619Y-107388095D01*
X127050000Y-107340476D01*
X127002380Y-107245238D01*
X127002380Y-107054761D01*
X127050000Y-106959523D01*
X127097619Y-106911904D01*
X127192857Y-106864285D01*
X127240476Y-106864285D01*
X127335714Y-106911904D01*
X127383333Y-106959523D01*
X127430952Y-107054761D01*
X127430952Y-107245238D01*
X127478571Y-107340476D01*
X127526190Y-107388095D01*
X127621428Y-107435714D01*
X127811904Y-107435714D01*
X127907142Y-107388095D01*
X127954761Y-107340476D01*
X128002380Y-107245238D01*
X128002380Y-107054761D01*
X127954761Y-106959523D01*
X127907142Y-106911904D01*
X127811904Y-106864285D01*
X127621428Y-106864285D01*
X127526190Y-106911904D01*
X127478571Y-106959523D01*
X127430952Y-107054761D01*
%TO.C,C9*%
X129257142Y-107816666D02*
X129304761Y-107864285D01*
X129352380Y-108007142D01*
X129352380Y-108102380D01*
X129304761Y-108245238D01*
X129209523Y-108340476D01*
X129114285Y-108388095D01*
X128923809Y-108435714D01*
X128780952Y-108435714D01*
X128590476Y-108388095D01*
X128495238Y-108340476D01*
X128400000Y-108245238D01*
X128352380Y-108102380D01*
X128352380Y-108007142D01*
X128400000Y-107864285D01*
X128447619Y-107816666D01*
X129352380Y-107340476D02*
X129352380Y-107150000D01*
X129304761Y-107054761D01*
X129257142Y-107007142D01*
X129114285Y-106911904D01*
X128923809Y-106864285D01*
X128542857Y-106864285D01*
X128447619Y-106911904D01*
X128400000Y-106959523D01*
X128352380Y-107054761D01*
X128352380Y-107245238D01*
X128400000Y-107340476D01*
X128447619Y-107388095D01*
X128542857Y-107435714D01*
X128780952Y-107435714D01*
X128876190Y-107388095D01*
X128923809Y-107340476D01*
X128971428Y-107245238D01*
X128971428Y-107054761D01*
X128923809Y-106959523D01*
X128876190Y-106911904D01*
X128780952Y-106864285D01*
%TO.C,C14*%
X146557142Y-126907142D02*
X146509523Y-126954761D01*
X146366666Y-127002380D01*
X146271428Y-127002380D01*
X146128571Y-126954761D01*
X146033333Y-126859523D01*
X145985714Y-126764285D01*
X145938095Y-126573809D01*
X145938095Y-126430952D01*
X145985714Y-126240476D01*
X146033333Y-126145238D01*
X146128571Y-126050000D01*
X146271428Y-126002380D01*
X146366666Y-126002380D01*
X146509523Y-126050000D01*
X146557142Y-126097619D01*
X147509523Y-127002380D02*
X146938095Y-127002380D01*
X147223809Y-127002380D02*
X147223809Y-126002380D01*
X147128571Y-126145238D01*
X147033333Y-126240476D01*
X146938095Y-126288095D01*
X148366666Y-126335714D02*
X148366666Y-127002380D01*
X148128571Y-125954761D02*
X147890476Y-126669047D01*
X148509523Y-126669047D01*
%TO.C,C39*%
X129807142Y-110992857D02*
X129854761Y-111040476D01*
X129902380Y-111183333D01*
X129902380Y-111278571D01*
X129854761Y-111421428D01*
X129759523Y-111516666D01*
X129664285Y-111564285D01*
X129473809Y-111611904D01*
X129330952Y-111611904D01*
X129140476Y-111564285D01*
X129045238Y-111516666D01*
X128950000Y-111421428D01*
X128902380Y-111278571D01*
X128902380Y-111183333D01*
X128950000Y-111040476D01*
X128997619Y-110992857D01*
X128902380Y-110659523D02*
X128902380Y-110040476D01*
X129283333Y-110373809D01*
X129283333Y-110230952D01*
X129330952Y-110135714D01*
X129378571Y-110088095D01*
X129473809Y-110040476D01*
X129711904Y-110040476D01*
X129807142Y-110088095D01*
X129854761Y-110135714D01*
X129902380Y-110230952D01*
X129902380Y-110516666D01*
X129854761Y-110611904D01*
X129807142Y-110659523D01*
X129902380Y-109564285D02*
X129902380Y-109373809D01*
X129854761Y-109278571D01*
X129807142Y-109230952D01*
X129664285Y-109135714D01*
X129473809Y-109088095D01*
X129092857Y-109088095D01*
X128997619Y-109135714D01*
X128950000Y-109183333D01*
X128902380Y-109278571D01*
X128902380Y-109469047D01*
X128950000Y-109564285D01*
X128997619Y-109611904D01*
X129092857Y-109659523D01*
X129330952Y-109659523D01*
X129426190Y-109611904D01*
X129473809Y-109564285D01*
X129521428Y-109469047D01*
X129521428Y-109278571D01*
X129473809Y-109183333D01*
X129426190Y-109135714D01*
X129330952Y-109088095D01*
%TO.C,C40*%
X129507142Y-113742857D02*
X129554761Y-113790476D01*
X129602380Y-113933333D01*
X129602380Y-114028571D01*
X129554761Y-114171428D01*
X129459523Y-114266666D01*
X129364285Y-114314285D01*
X129173809Y-114361904D01*
X129030952Y-114361904D01*
X128840476Y-114314285D01*
X128745238Y-114266666D01*
X128650000Y-114171428D01*
X128602380Y-114028571D01*
X128602380Y-113933333D01*
X128650000Y-113790476D01*
X128697619Y-113742857D01*
X128935714Y-112885714D02*
X129602380Y-112885714D01*
X128554761Y-113123809D02*
X129269047Y-113361904D01*
X129269047Y-112742857D01*
X128602380Y-112171428D02*
X128602380Y-112076190D01*
X128650000Y-111980952D01*
X128697619Y-111933333D01*
X128792857Y-111885714D01*
X128983333Y-111838095D01*
X129221428Y-111838095D01*
X129411904Y-111885714D01*
X129507142Y-111933333D01*
X129554761Y-111980952D01*
X129602380Y-112076190D01*
X129602380Y-112171428D01*
X129554761Y-112266666D01*
X129507142Y-112314285D01*
X129411904Y-112361904D01*
X129221428Y-112409523D01*
X128983333Y-112409523D01*
X128792857Y-112361904D01*
X128697619Y-112314285D01*
X128650000Y-112266666D01*
X128602380Y-112171428D01*
%TO.C,D13*%
X151302380Y-109014285D02*
X150302380Y-109014285D01*
X150302380Y-108776190D01*
X150350000Y-108633333D01*
X150445238Y-108538095D01*
X150540476Y-108490476D01*
X150730952Y-108442857D01*
X150873809Y-108442857D01*
X151064285Y-108490476D01*
X151159523Y-108538095D01*
X151254761Y-108633333D01*
X151302380Y-108776190D01*
X151302380Y-109014285D01*
X151302380Y-107490476D02*
X151302380Y-108061904D01*
X151302380Y-107776190D02*
X150302380Y-107776190D01*
X150445238Y-107871428D01*
X150540476Y-107966666D01*
X150588095Y-108061904D01*
X150302380Y-107157142D02*
X150302380Y-106538095D01*
X150683333Y-106871428D01*
X150683333Y-106728571D01*
X150730952Y-106633333D01*
X150778571Y-106585714D01*
X150873809Y-106538095D01*
X151111904Y-106538095D01*
X151207142Y-106585714D01*
X151254761Y-106633333D01*
X151302380Y-106728571D01*
X151302380Y-107014285D01*
X151254761Y-107109523D01*
X151207142Y-107157142D01*
%TO.C,R4*%
X122602380Y-116166666D02*
X122126190Y-116500000D01*
X122602380Y-116738095D02*
X121602380Y-116738095D01*
X121602380Y-116357142D01*
X121650000Y-116261904D01*
X121697619Y-116214285D01*
X121792857Y-116166666D01*
X121935714Y-116166666D01*
X122030952Y-116214285D01*
X122078571Y-116261904D01*
X122126190Y-116357142D01*
X122126190Y-116738095D01*
X121935714Y-115309523D02*
X122602380Y-115309523D01*
X121554761Y-115547619D02*
X122269047Y-115785714D01*
X122269047Y-115166666D01*
%TO.C,R5*%
X121402380Y-106516666D02*
X120926190Y-106850000D01*
X121402380Y-107088095D02*
X120402380Y-107088095D01*
X120402380Y-106707142D01*
X120450000Y-106611904D01*
X120497619Y-106564285D01*
X120592857Y-106516666D01*
X120735714Y-106516666D01*
X120830952Y-106564285D01*
X120878571Y-106611904D01*
X120926190Y-106707142D01*
X120926190Y-107088095D01*
X120402380Y-105611904D02*
X120402380Y-106088095D01*
X120878571Y-106135714D01*
X120830952Y-106088095D01*
X120783333Y-105992857D01*
X120783333Y-105754761D01*
X120830952Y-105659523D01*
X120878571Y-105611904D01*
X120973809Y-105564285D01*
X121211904Y-105564285D01*
X121307142Y-105611904D01*
X121354761Y-105659523D01*
X121402380Y-105754761D01*
X121402380Y-105992857D01*
X121354761Y-106088095D01*
X121307142Y-106135714D01*
%TO.C,R9*%
X132183333Y-126152380D02*
X131850000Y-125676190D01*
X131611904Y-126152380D02*
X131611904Y-125152380D01*
X131992857Y-125152380D01*
X132088095Y-125200000D01*
X132135714Y-125247619D01*
X132183333Y-125342857D01*
X132183333Y-125485714D01*
X132135714Y-125580952D01*
X132088095Y-125628571D01*
X131992857Y-125676190D01*
X131611904Y-125676190D01*
X132659523Y-126152380D02*
X132850000Y-126152380D01*
X132945238Y-126104761D01*
X132992857Y-126057142D01*
X133088095Y-125914285D01*
X133135714Y-125723809D01*
X133135714Y-125342857D01*
X133088095Y-125247619D01*
X133040476Y-125200000D01*
X132945238Y-125152380D01*
X132754761Y-125152380D01*
X132659523Y-125200000D01*
X132611904Y-125247619D01*
X132564285Y-125342857D01*
X132564285Y-125580952D01*
X132611904Y-125676190D01*
X132659523Y-125723809D01*
X132754761Y-125771428D01*
X132945238Y-125771428D01*
X133040476Y-125723809D01*
X133088095Y-125676190D01*
X133135714Y-125580952D01*
%TO.C,R14*%
X150257142Y-124402380D02*
X149923809Y-123926190D01*
X149685714Y-124402380D02*
X149685714Y-123402380D01*
X150066666Y-123402380D01*
X150161904Y-123450000D01*
X150209523Y-123497619D01*
X150257142Y-123592857D01*
X150257142Y-123735714D01*
X150209523Y-123830952D01*
X150161904Y-123878571D01*
X150066666Y-123926190D01*
X149685714Y-123926190D01*
X151209523Y-124402380D02*
X150638095Y-124402380D01*
X150923809Y-124402380D02*
X150923809Y-123402380D01*
X150828571Y-123545238D01*
X150733333Y-123640476D01*
X150638095Y-123688095D01*
X152066666Y-123735714D02*
X152066666Y-124402380D01*
X151828571Y-123354761D02*
X151590476Y-124069047D01*
X152209523Y-124069047D01*
%TO.C,R15*%
X150407142Y-122802380D02*
X150073809Y-122326190D01*
X149835714Y-122802380D02*
X149835714Y-121802380D01*
X150216666Y-121802380D01*
X150311904Y-121850000D01*
X150359523Y-121897619D01*
X150407142Y-121992857D01*
X150407142Y-122135714D01*
X150359523Y-122230952D01*
X150311904Y-122278571D01*
X150216666Y-122326190D01*
X149835714Y-122326190D01*
X151359523Y-122802380D02*
X150788095Y-122802380D01*
X151073809Y-122802380D02*
X151073809Y-121802380D01*
X150978571Y-121945238D01*
X150883333Y-122040476D01*
X150788095Y-122088095D01*
X152264285Y-121802380D02*
X151788095Y-121802380D01*
X151740476Y-122278571D01*
X151788095Y-122230952D01*
X151883333Y-122183333D01*
X152121428Y-122183333D01*
X152216666Y-122230952D01*
X152264285Y-122278571D01*
X152311904Y-122373809D01*
X152311904Y-122611904D01*
X152264285Y-122707142D01*
X152216666Y-122754761D01*
X152121428Y-122802380D01*
X151883333Y-122802380D01*
X151788095Y-122754761D01*
X151740476Y-122707142D01*
%TO.C,U8*%
X120090476Y-107961904D02*
X120090476Y-108609523D01*
X120128571Y-108685714D01*
X120166666Y-108723809D01*
X120242857Y-108761904D01*
X120395238Y-108761904D01*
X120471428Y-108723809D01*
X120509523Y-108685714D01*
X120547619Y-108609523D01*
X120547619Y-107961904D01*
X121042857Y-108304761D02*
X120966666Y-108266666D01*
X120928571Y-108228571D01*
X120890476Y-108152380D01*
X120890476Y-108114285D01*
X120928571Y-108038095D01*
X120966666Y-108000000D01*
X121042857Y-107961904D01*
X121195238Y-107961904D01*
X121271428Y-108000000D01*
X121309523Y-108038095D01*
X121347619Y-108114285D01*
X121347619Y-108152380D01*
X121309523Y-108228571D01*
X121271428Y-108266666D01*
X121195238Y-108304761D01*
X121042857Y-108304761D01*
X120966666Y-108342857D01*
X120928571Y-108380952D01*
X120890476Y-108457142D01*
X120890476Y-108609523D01*
X120928571Y-108685714D01*
X120966666Y-108723809D01*
X121042857Y-108761904D01*
X121195238Y-108761904D01*
X121271428Y-108723809D01*
X121309523Y-108685714D01*
X121347619Y-108609523D01*
X121347619Y-108457142D01*
X121309523Y-108380952D01*
X121271428Y-108342857D01*
X121195238Y-108304761D01*
%TO.C,D3*%
X146652380Y-106238095D02*
X145652380Y-106238095D01*
X145652380Y-106000000D01*
X145700000Y-105857142D01*
X145795238Y-105761904D01*
X145890476Y-105714285D01*
X146080952Y-105666666D01*
X146223809Y-105666666D01*
X146414285Y-105714285D01*
X146509523Y-105761904D01*
X146604761Y-105857142D01*
X146652380Y-106000000D01*
X146652380Y-106238095D01*
X145652380Y-105333333D02*
X145652380Y-104714285D01*
X146033333Y-105047619D01*
X146033333Y-104904761D01*
X146080952Y-104809523D01*
X146128571Y-104761904D01*
X146223809Y-104714285D01*
X146461904Y-104714285D01*
X146557142Y-104761904D01*
X146604761Y-104809523D01*
X146652380Y-104904761D01*
X146652380Y-105190476D01*
X146604761Y-105285714D01*
X146557142Y-105333333D01*
%TO.C,D1*%
X148252380Y-106188095D02*
X147252380Y-106188095D01*
X147252380Y-105950000D01*
X147300000Y-105807142D01*
X147395238Y-105711904D01*
X147490476Y-105664285D01*
X147680952Y-105616666D01*
X147823809Y-105616666D01*
X148014285Y-105664285D01*
X148109523Y-105711904D01*
X148204761Y-105807142D01*
X148252380Y-105950000D01*
X148252380Y-106188095D01*
X148252380Y-104664285D02*
X148252380Y-105235714D01*
X148252380Y-104950000D02*
X147252380Y-104950000D01*
X147395238Y-105045238D01*
X147490476Y-105140476D01*
X147538095Y-105235714D01*
%TO.C,J5*%
X153402380Y-106908333D02*
X154116666Y-106908333D01*
X154259523Y-106955952D01*
X154354761Y-107051190D01*
X154402380Y-107194047D01*
X154402380Y-107289285D01*
X153402380Y-105955952D02*
X153402380Y-106432142D01*
X153878571Y-106479761D01*
X153830952Y-106432142D01*
X153783333Y-106336904D01*
X153783333Y-106098809D01*
X153830952Y-106003571D01*
X153878571Y-105955952D01*
X153973809Y-105908333D01*
X154211904Y-105908333D01*
X154307142Y-105955952D01*
X154354761Y-106003571D01*
X154402380Y-106098809D01*
X154402380Y-106336904D01*
X154354761Y-106432142D01*
X154307142Y-106479761D01*
%TO.C,R28*%
X131322380Y-105180357D02*
X130846190Y-105513690D01*
X131322380Y-105751785D02*
X130322380Y-105751785D01*
X130322380Y-105370833D01*
X130370000Y-105275595D01*
X130417619Y-105227976D01*
X130512857Y-105180357D01*
X130655714Y-105180357D01*
X130750952Y-105227976D01*
X130798571Y-105275595D01*
X130846190Y-105370833D01*
X130846190Y-105751785D01*
X130417619Y-104799404D02*
X130370000Y-104751785D01*
X130322380Y-104656547D01*
X130322380Y-104418452D01*
X130370000Y-104323214D01*
X130417619Y-104275595D01*
X130512857Y-104227976D01*
X130608095Y-104227976D01*
X130750952Y-104275595D01*
X131322380Y-104847023D01*
X131322380Y-104227976D01*
X130750952Y-103656547D02*
X130703333Y-103751785D01*
X130655714Y-103799404D01*
X130560476Y-103847023D01*
X130512857Y-103847023D01*
X130417619Y-103799404D01*
X130370000Y-103751785D01*
X130322380Y-103656547D01*
X130322380Y-103466071D01*
X130370000Y-103370833D01*
X130417619Y-103323214D01*
X130512857Y-103275595D01*
X130560476Y-103275595D01*
X130655714Y-103323214D01*
X130703333Y-103370833D01*
X130750952Y-103466071D01*
X130750952Y-103656547D01*
X130798571Y-103751785D01*
X130846190Y-103799404D01*
X130941428Y-103847023D01*
X131131904Y-103847023D01*
X131227142Y-103799404D01*
X131274761Y-103751785D01*
X131322380Y-103656547D01*
X131322380Y-103466071D01*
X131274761Y-103370833D01*
X131227142Y-103323214D01*
X131131904Y-103275595D01*
X130941428Y-103275595D01*
X130846190Y-103323214D01*
X130798571Y-103370833D01*
X130750952Y-103466071D01*
%TO.C,R27*%
X132057142Y-102652380D02*
X131723809Y-102176190D01*
X131485714Y-102652380D02*
X131485714Y-101652380D01*
X131866666Y-101652380D01*
X131961904Y-101700000D01*
X132009523Y-101747619D01*
X132057142Y-101842857D01*
X132057142Y-101985714D01*
X132009523Y-102080952D01*
X131961904Y-102128571D01*
X131866666Y-102176190D01*
X131485714Y-102176190D01*
X132438095Y-101747619D02*
X132485714Y-101700000D01*
X132580952Y-101652380D01*
X132819047Y-101652380D01*
X132914285Y-101700000D01*
X132961904Y-101747619D01*
X133009523Y-101842857D01*
X133009523Y-101938095D01*
X132961904Y-102080952D01*
X132390476Y-102652380D01*
X133009523Y-102652380D01*
X133342857Y-101652380D02*
X134009523Y-101652380D01*
X133580952Y-102652380D01*
D11*
%TO.C,C10*%
X136383767Y-96790000D02*
X136091233Y-96790000D01*
X136383767Y-97810000D02*
X136091233Y-97810000D01*
%TO.C,C13*%
X145890000Y-95653733D02*
X145890000Y-95946267D01*
X146910000Y-95653733D02*
X146910000Y-95946267D01*
%TO.C,D4*%
X134565000Y-99565000D02*
X134565000Y-101035000D01*
X134565000Y-101035000D02*
X137025000Y-101035000D01*
X137025000Y-99565000D02*
X134565000Y-99565000D01*
%TO.C,R11*%
X135932776Y-98277500D02*
X136442224Y-98277500D01*
X135932776Y-99322500D02*
X136442224Y-99322500D01*
%TO.C,R12*%
X144377500Y-95532776D02*
X144377500Y-96042224D01*
X145422500Y-95532776D02*
X145422500Y-96042224D01*
%TO.C,U4*%
X156825000Y-122875000D02*
X156825000Y-124015000D01*
%TO.C,U5*%
X142399999Y-104810000D02*
X144199999Y-104810000D01*
X144199999Y-101590000D02*
X141749999Y-101590000D01*
%TO.C,D9*%
X144735000Y-136725000D02*
X144735000Y-134265000D01*
X144735000Y-134265000D02*
X143265000Y-134265000D01*
X143265000Y-134265000D02*
X143265000Y-136725000D01*
%TO.C,D12*%
X149235000Y-135025001D02*
X149235000Y-132565001D01*
X149235000Y-132565001D02*
X147765000Y-132565001D01*
X147765000Y-132565001D02*
X147765000Y-135025001D01*
%TO.C,D8*%
X143235000Y-134565000D02*
X141765000Y-134565000D01*
X143235000Y-137025000D02*
X143235000Y-134565000D01*
X141765000Y-134565000D02*
X141765000Y-137025000D01*
%TO.C,D11*%
X146265000Y-133265000D02*
X146265000Y-135725000D01*
X147735000Y-133265000D02*
X146265000Y-133265000D01*
X147735000Y-135725000D02*
X147735000Y-133265000D01*
%TO.C,D10*%
X146235000Y-133865000D02*
X144765000Y-133865000D01*
X144765000Y-133865000D02*
X144765000Y-136325000D01*
X146235000Y-136325000D02*
X146235000Y-133865000D01*
%TO.C,J1*%
X141070000Y-95330000D02*
X141070000Y-92670000D01*
X138470000Y-92670000D02*
X141070000Y-92670000D01*
X135870000Y-95330000D02*
X135870000Y-94000000D01*
X137200000Y-95330000D02*
X135870000Y-95330000D01*
X138470000Y-95330000D02*
X138470000Y-92670000D01*
X138470000Y-95330000D02*
X141070000Y-95330000D01*
%TO.C,C48*%
X142090000Y-95483766D02*
X142090000Y-95191232D01*
X143110000Y-95483766D02*
X143110000Y-95191232D01*
%TO.C,L1*%
X133600000Y-99400000D02*
X129600000Y-99400000D01*
X133600000Y-95200000D02*
X129600000Y-95200000D01*
%TO.C,C11*%
X139560000Y-102916234D02*
X139560000Y-103208768D01*
X138540000Y-102916234D02*
X138540000Y-103208768D01*
%TO.C,U2*%
X147310000Y-100300000D02*
X147310000Y-97850000D01*
X144090000Y-98500000D02*
X144090000Y-100300000D01*
%TO.C,U9*%
X142010000Y-100085000D02*
X142010000Y-100810000D01*
X138790000Y-97590000D02*
X139515000Y-97590000D01*
X138790000Y-100810000D02*
X139515000Y-100810000D01*
X142010000Y-98315000D02*
X142010000Y-97590000D01*
X138790000Y-98315000D02*
X138790000Y-97590000D01*
X142010000Y-100810000D02*
X141285000Y-100810000D01*
X138790000Y-100085000D02*
X138790000Y-100810000D01*
%TO.C,C49*%
X139491232Y-104990000D02*
X139783766Y-104990000D01*
X139491232Y-106010000D02*
X139783766Y-106010000D01*
%TO.C,R13*%
X136454724Y-102877500D02*
X135945276Y-102877500D01*
X136454724Y-103922500D02*
X135945276Y-103922500D01*
%TO.C,R32*%
X141122500Y-102795276D02*
X141122500Y-103304724D01*
X140077500Y-102795276D02*
X140077500Y-103304724D01*
%TO.C,D2*%
X137860000Y-101165000D02*
X135400000Y-101165000D01*
X137860000Y-102635000D02*
X137860000Y-101165000D01*
X135400000Y-102635000D02*
X137860000Y-102635000D01*
%TO.C,C1*%
X127083766Y-115790000D02*
X126791232Y-115790000D01*
X127083766Y-116810000D02*
X126791232Y-116810000D01*
%TO.C,D5*%
X140235000Y-137425000D02*
X140235000Y-134965000D01*
X140235000Y-134965000D02*
X138765000Y-134965000D01*
X138765000Y-134965000D02*
X138765000Y-137425000D01*
%TO.C,D7*%
X141734999Y-134865000D02*
X140264999Y-134865000D01*
X140264999Y-134865000D02*
X140264999Y-137325000D01*
X141734999Y-137325000D02*
X141734999Y-134865000D01*
%TO.C,D6*%
X137265000Y-134965000D02*
X137265000Y-137425000D01*
X138735000Y-134965000D02*
X137265000Y-134965000D01*
X138735000Y-137425000D02*
X138735000Y-134965000D01*
%TO.C,C7*%
X130360000Y-121553733D02*
X130360000Y-121846267D01*
X129340000Y-121553733D02*
X129340000Y-121846267D01*
%TO.C,U3*%
X159160000Y-110340000D02*
X158685000Y-110340000D01*
X159160000Y-110815000D02*
X159160000Y-110340000D01*
X148940000Y-110815000D02*
X148940000Y-110340000D01*
X148940000Y-120085000D02*
X148940000Y-120560000D01*
X159160000Y-120560000D02*
X158685000Y-120560000D01*
X159160000Y-120085000D02*
X159160000Y-120560000D01*
X148940000Y-110340000D02*
X149415000Y-110340000D01*
%TO.C,J2*%
X133660000Y-127870000D02*
X133720000Y-127870000D01*
X133660000Y-130530000D02*
X133660000Y-127870000D01*
X143880000Y-130530000D02*
X143940000Y-130530000D01*
X133660000Y-130530000D02*
X133720000Y-130530000D01*
X143940000Y-130530000D02*
X143940000Y-127870000D01*
X143880000Y-127870000D02*
X143940000Y-127870000D01*
X133720000Y-127870000D02*
X133720000Y-126410000D01*
%TO.C,U6*%
X122740000Y-117390000D02*
X122740000Y-118650000D01*
X126500000Y-117390000D02*
X122740000Y-117390000D01*
X122740000Y-124210000D02*
X122740000Y-122950000D01*
X128750000Y-124210000D02*
X122740000Y-124210000D01*
%TO.C,R1*%
X148822500Y-97282776D02*
X148822500Y-97792224D01*
X147777500Y-97282776D02*
X147777500Y-97792224D01*
%TO.C,R2*%
X143892224Y-105327500D02*
X143382776Y-105327500D01*
X143892224Y-106372500D02*
X143382776Y-106372500D01*
%TO.C,C6*%
X123541233Y-108360000D02*
X123833767Y-108360000D01*
X123541233Y-107340000D02*
X123833767Y-107340000D01*
%TO.C,R6*%
X116877500Y-114217224D02*
X116877500Y-113707776D01*
X117922500Y-114217224D02*
X117922500Y-113707776D01*
%TO.C,R35*%
X116877500Y-110395276D02*
X116877500Y-110904724D01*
X117922500Y-110395276D02*
X117922500Y-110904724D01*
%TO.C,C4*%
X117758767Y-116910000D02*
X117466233Y-116910000D01*
X117758767Y-115890000D02*
X117466233Y-115890000D01*
%TO.C,C8*%
X126760000Y-110646267D02*
X126760000Y-110353733D01*
X125740000Y-110646267D02*
X125740000Y-110353733D01*
%TO.C,C9*%
X128310000Y-110646267D02*
X128310000Y-110353733D01*
X127290000Y-110646267D02*
X127290000Y-110353733D01*
%TO.C,C14*%
X156885949Y-125842802D02*
X157092802Y-125635949D01*
X157607198Y-126564051D02*
X157814051Y-126357198D01*
%TO.C,C39*%
X125740000Y-113753733D02*
X125740000Y-114046267D01*
X126760000Y-113753733D02*
X126760000Y-114046267D01*
%TO.C,C40*%
X128310000Y-113741232D02*
X128310000Y-114033766D01*
X127290000Y-113741232D02*
X127290000Y-114033766D01*
%TO.C,D13*%
X149985000Y-106490000D02*
X148515000Y-106490000D01*
X149985000Y-108950000D02*
X149985000Y-106490000D01*
X148515000Y-106490000D02*
X148515000Y-108950000D01*
%TO.C,R4*%
X119472500Y-112382776D02*
X119472500Y-112892224D01*
X118427500Y-112382776D02*
X118427500Y-112892224D01*
%TO.C,R5*%
X118427500Y-108482776D02*
X118427500Y-108992224D01*
X119472500Y-108482776D02*
X119472500Y-108992224D01*
%TO.C,R9*%
X131742224Y-127547500D02*
X131232776Y-127547500D01*
X131742224Y-126502500D02*
X131232776Y-126502500D01*
%TO.C,R14*%
X154742224Y-124472500D02*
X154232776Y-124472500D01*
X154742224Y-123427500D02*
X154232776Y-123427500D01*
%TO.C,R15*%
X154232776Y-121827500D02*
X154742224Y-121827500D01*
X154232776Y-122872500D02*
X154742224Y-122872500D01*
D12*
%TO.C,U8*%
X122970000Y-109055000D02*
X124200000Y-109055000D01*
X121200000Y-114345000D02*
X124200000Y-114345000D01*
X121200000Y-109055000D02*
X122080000Y-109055000D01*
D13*
X120400000Y-109500000D02*
G75*
G03*
X120400000Y-109500000I-100000J0D01*
G01*
D11*
%TO.C,D3*%
X146985000Y-108950000D02*
X146985000Y-106490000D01*
X145515000Y-106490000D02*
X145515000Y-108950000D01*
X146985000Y-106490000D02*
X145515000Y-106490000D01*
%TO.C,D1*%
X148485000Y-106490000D02*
X147015000Y-106490000D01*
X147015000Y-106490000D02*
X147015000Y-108950000D01*
X148485000Y-108950000D02*
X148485000Y-106490000D01*
%TO.C,J5*%
X155750000Y-107935000D02*
X156390000Y-107935000D01*
X158550000Y-107935000D02*
X157910000Y-107935000D01*
X156390000Y-107935000D02*
X156390000Y-108565000D01*
X155800000Y-105215000D02*
X158500000Y-105215000D01*
%TO.C,R28*%
X131777500Y-104792224D02*
X131777500Y-104282776D01*
X132822500Y-104792224D02*
X132822500Y-104282776D01*
%TO.C,R27*%
X133277500Y-104792224D02*
X133277500Y-104282776D01*
X134322500Y-104792224D02*
X134322500Y-104282776D01*
%TD*%
M02*
