%TF.GenerationSoftware,KiCad,Pcbnew,5.1.10-88a1d61d58~90~ubuntu20.04.1*%
%TF.CreationDate,2021-11-09T12:00:25+00:00*%
%TF.ProjectId,UFOControlDeck,55464f43-6f6e-4747-926f-6c4465636b2e,rev?*%
%TF.SameCoordinates,Original*%
%TF.FileFunction,Paste,Bot*%
%TF.FilePolarity,Positive*%
%FSLAX46Y46*%
G04 Gerber Fmt 4.6, Leading zero omitted, Abs format (unit mm)*
G04 Created by KiCad (PCBNEW 5.1.10-88a1d61d58~90~ubuntu20.04.1) date 2021-11-09 12:00:25*
%MOMM*%
%LPD*%
G01*
G04 APERTURE LIST*
%ADD10R,0.740000X2.400000*%
G04 APERTURE END LIST*
%TO.C,R26*%
G36*
G01*
X143787500Y-105137500D02*
X143787500Y-104662500D01*
G75*
G02*
X144025000Y-104425000I237500J0D01*
G01*
X144525000Y-104425000D01*
G75*
G02*
X144762500Y-104662500I0J-237500D01*
G01*
X144762500Y-105137500D01*
G75*
G02*
X144525000Y-105375000I-237500J0D01*
G01*
X144025000Y-105375000D01*
G75*
G02*
X143787500Y-105137500I0J237500D01*
G01*
G37*
G36*
G01*
X141962500Y-105137500D02*
X141962500Y-104662500D01*
G75*
G02*
X142200000Y-104425000I237500J0D01*
G01*
X142700000Y-104425000D01*
G75*
G02*
X142937500Y-104662500I0J-237500D01*
G01*
X142937500Y-105137500D01*
G75*
G02*
X142700000Y-105375000I-237500J0D01*
G01*
X142200000Y-105375000D01*
G75*
G02*
X141962500Y-105137500I0J237500D01*
G01*
G37*
%TD*%
%TO.C,R10*%
G36*
G01*
X147987500Y-110275000D02*
X147512500Y-110275000D01*
G75*
G02*
X147275000Y-110037500I0J237500D01*
G01*
X147275000Y-109537500D01*
G75*
G02*
X147512500Y-109300000I237500J0D01*
G01*
X147987500Y-109300000D01*
G75*
G02*
X148225000Y-109537500I0J-237500D01*
G01*
X148225000Y-110037500D01*
G75*
G02*
X147987500Y-110275000I-237500J0D01*
G01*
G37*
G36*
G01*
X147987500Y-112100000D02*
X147512500Y-112100000D01*
G75*
G02*
X147275000Y-111862500I0J237500D01*
G01*
X147275000Y-111362500D01*
G75*
G02*
X147512500Y-111125000I237500J0D01*
G01*
X147987500Y-111125000D01*
G75*
G02*
X148225000Y-111362500I0J-237500D01*
G01*
X148225000Y-111862500D01*
G75*
G02*
X147987500Y-112100000I-237500J0D01*
G01*
G37*
%TD*%
%TO.C,R8*%
G36*
G01*
X150662500Y-108725000D02*
X151137500Y-108725000D01*
G75*
G02*
X151375000Y-108962500I0J-237500D01*
G01*
X151375000Y-109462500D01*
G75*
G02*
X151137500Y-109700000I-237500J0D01*
G01*
X150662500Y-109700000D01*
G75*
G02*
X150425000Y-109462500I0J237500D01*
G01*
X150425000Y-108962500D01*
G75*
G02*
X150662500Y-108725000I237500J0D01*
G01*
G37*
G36*
G01*
X150662500Y-106900000D02*
X151137500Y-106900000D01*
G75*
G02*
X151375000Y-107137500I0J-237500D01*
G01*
X151375000Y-107637500D01*
G75*
G02*
X151137500Y-107875000I-237500J0D01*
G01*
X150662500Y-107875000D01*
G75*
G02*
X150425000Y-107637500I0J237500D01*
G01*
X150425000Y-107137500D01*
G75*
G02*
X150662500Y-106900000I237500J0D01*
G01*
G37*
%TD*%
%TO.C,R7*%
G36*
G01*
X147187500Y-105137500D02*
X147187500Y-104662500D01*
G75*
G02*
X147425000Y-104425000I237500J0D01*
G01*
X147925000Y-104425000D01*
G75*
G02*
X148162500Y-104662500I0J-237500D01*
G01*
X148162500Y-105137500D01*
G75*
G02*
X147925000Y-105375000I-237500J0D01*
G01*
X147425000Y-105375000D01*
G75*
G02*
X147187500Y-105137500I0J237500D01*
G01*
G37*
G36*
G01*
X145362500Y-105137500D02*
X145362500Y-104662500D01*
G75*
G02*
X145600000Y-104425000I237500J0D01*
G01*
X146100000Y-104425000D01*
G75*
G02*
X146337500Y-104662500I0J-237500D01*
G01*
X146337500Y-105137500D01*
G75*
G02*
X146100000Y-105375000I-237500J0D01*
G01*
X145600000Y-105375000D01*
G75*
G02*
X145362500Y-105137500I0J237500D01*
G01*
G37*
%TD*%
%TO.C,R3*%
G36*
G01*
X147112500Y-107712500D02*
X147587500Y-107712500D01*
G75*
G02*
X147825000Y-107950000I0J-237500D01*
G01*
X147825000Y-108450000D01*
G75*
G02*
X147587500Y-108687500I-237500J0D01*
G01*
X147112500Y-108687500D01*
G75*
G02*
X146875000Y-108450000I0J237500D01*
G01*
X146875000Y-107950000D01*
G75*
G02*
X147112500Y-107712500I237500J0D01*
G01*
G37*
G36*
G01*
X147112500Y-105887500D02*
X147587500Y-105887500D01*
G75*
G02*
X147825000Y-106125000I0J-237500D01*
G01*
X147825000Y-106625000D01*
G75*
G02*
X147587500Y-106862500I-237500J0D01*
G01*
X147112500Y-106862500D01*
G75*
G02*
X146875000Y-106625000I0J237500D01*
G01*
X146875000Y-106125000D01*
G75*
G02*
X147112500Y-105887500I237500J0D01*
G01*
G37*
%TD*%
%TO.C,R25*%
G36*
G01*
X146087500Y-106887500D02*
X145612500Y-106887500D01*
G75*
G02*
X145375000Y-106650000I0J237500D01*
G01*
X145375000Y-106150000D01*
G75*
G02*
X145612500Y-105912500I237500J0D01*
G01*
X146087500Y-105912500D01*
G75*
G02*
X146325000Y-106150000I0J-237500D01*
G01*
X146325000Y-106650000D01*
G75*
G02*
X146087500Y-106887500I-237500J0D01*
G01*
G37*
G36*
G01*
X146087500Y-108712500D02*
X145612500Y-108712500D01*
G75*
G02*
X145375000Y-108475000I0J237500D01*
G01*
X145375000Y-107975000D01*
G75*
G02*
X145612500Y-107737500I237500J0D01*
G01*
X146087500Y-107737500D01*
G75*
G02*
X146325000Y-107975000I0J-237500D01*
G01*
X146325000Y-108475000D01*
G75*
G02*
X146087500Y-108712500I-237500J0D01*
G01*
G37*
%TD*%
%TO.C,R24*%
G36*
G01*
X149112500Y-108712500D02*
X149587500Y-108712500D01*
G75*
G02*
X149825000Y-108950000I0J-237500D01*
G01*
X149825000Y-109450000D01*
G75*
G02*
X149587500Y-109687500I-237500J0D01*
G01*
X149112500Y-109687500D01*
G75*
G02*
X148875000Y-109450000I0J237500D01*
G01*
X148875000Y-108950000D01*
G75*
G02*
X149112500Y-108712500I237500J0D01*
G01*
G37*
G36*
G01*
X149112500Y-106887500D02*
X149587500Y-106887500D01*
G75*
G02*
X149825000Y-107125000I0J-237500D01*
G01*
X149825000Y-107625000D01*
G75*
G02*
X149587500Y-107862500I-237500J0D01*
G01*
X149112500Y-107862500D01*
G75*
G02*
X148875000Y-107625000I0J237500D01*
G01*
X148875000Y-107125000D01*
G75*
G02*
X149112500Y-106887500I237500J0D01*
G01*
G37*
%TD*%
%TO.C,C46*%
G36*
G01*
X143637500Y-102537500D02*
X143637500Y-102062500D01*
G75*
G02*
X143875000Y-101825000I237500J0D01*
G01*
X144475000Y-101825000D01*
G75*
G02*
X144712500Y-102062500I0J-237500D01*
G01*
X144712500Y-102537500D01*
G75*
G02*
X144475000Y-102775000I-237500J0D01*
G01*
X143875000Y-102775000D01*
G75*
G02*
X143637500Y-102537500I0J237500D01*
G01*
G37*
G36*
G01*
X141912500Y-102537500D02*
X141912500Y-102062500D01*
G75*
G02*
X142150000Y-101825000I237500J0D01*
G01*
X142750000Y-101825000D01*
G75*
G02*
X142987500Y-102062500I0J-237500D01*
G01*
X142987500Y-102537500D01*
G75*
G02*
X142750000Y-102775000I-237500J0D01*
G01*
X142150000Y-102775000D01*
G75*
G02*
X141912500Y-102537500I0J237500D01*
G01*
G37*
%TD*%
%TO.C,C38*%
G36*
G01*
X156425000Y-111387500D02*
X156425000Y-110912500D01*
G75*
G02*
X156662500Y-110675000I237500J0D01*
G01*
X157262500Y-110675000D01*
G75*
G02*
X157500000Y-110912500I0J-237500D01*
G01*
X157500000Y-111387500D01*
G75*
G02*
X157262500Y-111625000I-237500J0D01*
G01*
X156662500Y-111625000D01*
G75*
G02*
X156425000Y-111387500I0J237500D01*
G01*
G37*
G36*
G01*
X154700000Y-111387500D02*
X154700000Y-110912500D01*
G75*
G02*
X154937500Y-110675000I237500J0D01*
G01*
X155537500Y-110675000D01*
G75*
G02*
X155775000Y-110912500I0J-237500D01*
G01*
X155775000Y-111387500D01*
G75*
G02*
X155537500Y-111625000I-237500J0D01*
G01*
X154937500Y-111625000D01*
G75*
G02*
X154700000Y-111387500I0J237500D01*
G01*
G37*
%TD*%
%TO.C,C37*%
G36*
G01*
X152775000Y-111437500D02*
X152775000Y-110962500D01*
G75*
G02*
X153012500Y-110725000I237500J0D01*
G01*
X153612500Y-110725000D01*
G75*
G02*
X153850000Y-110962500I0J-237500D01*
G01*
X153850000Y-111437500D01*
G75*
G02*
X153612500Y-111675000I-237500J0D01*
G01*
X153012500Y-111675000D01*
G75*
G02*
X152775000Y-111437500I0J237500D01*
G01*
G37*
G36*
G01*
X151050000Y-111437500D02*
X151050000Y-110962500D01*
G75*
G02*
X151287500Y-110725000I237500J0D01*
G01*
X151887500Y-110725000D01*
G75*
G02*
X152125000Y-110962500I0J-237500D01*
G01*
X152125000Y-111437500D01*
G75*
G02*
X151887500Y-111675000I-237500J0D01*
G01*
X151287500Y-111675000D01*
G75*
G02*
X151050000Y-111437500I0J237500D01*
G01*
G37*
%TD*%
%TO.C,C35*%
G36*
G01*
X149662500Y-114125000D02*
X150137500Y-114125000D01*
G75*
G02*
X150375000Y-114362500I0J-237500D01*
G01*
X150375000Y-114962500D01*
G75*
G02*
X150137500Y-115200000I-237500J0D01*
G01*
X149662500Y-115200000D01*
G75*
G02*
X149425000Y-114962500I0J237500D01*
G01*
X149425000Y-114362500D01*
G75*
G02*
X149662500Y-114125000I237500J0D01*
G01*
G37*
G36*
G01*
X149662500Y-112400000D02*
X150137500Y-112400000D01*
G75*
G02*
X150375000Y-112637500I0J-237500D01*
G01*
X150375000Y-113237500D01*
G75*
G02*
X150137500Y-113475000I-237500J0D01*
G01*
X149662500Y-113475000D01*
G75*
G02*
X149425000Y-113237500I0J237500D01*
G01*
X149425000Y-112637500D01*
G75*
G02*
X149662500Y-112400000I237500J0D01*
G01*
G37*
%TD*%
%TO.C,C34*%
G36*
G01*
X149662500Y-117425000D02*
X150137500Y-117425000D01*
G75*
G02*
X150375000Y-117662500I0J-237500D01*
G01*
X150375000Y-118262500D01*
G75*
G02*
X150137500Y-118500000I-237500J0D01*
G01*
X149662500Y-118500000D01*
G75*
G02*
X149425000Y-118262500I0J237500D01*
G01*
X149425000Y-117662500D01*
G75*
G02*
X149662500Y-117425000I237500J0D01*
G01*
G37*
G36*
G01*
X149662500Y-115700000D02*
X150137500Y-115700000D01*
G75*
G02*
X150375000Y-115937500I0J-237500D01*
G01*
X150375000Y-116537500D01*
G75*
G02*
X150137500Y-116775000I-237500J0D01*
G01*
X149662500Y-116775000D01*
G75*
G02*
X149425000Y-116537500I0J237500D01*
G01*
X149425000Y-115937500D01*
G75*
G02*
X149662500Y-115700000I237500J0D01*
G01*
G37*
%TD*%
%TO.C,C33*%
G36*
G01*
X158437500Y-113612500D02*
X157962500Y-113612500D01*
G75*
G02*
X157725000Y-113375000I0J237500D01*
G01*
X157725000Y-112775000D01*
G75*
G02*
X157962500Y-112537500I237500J0D01*
G01*
X158437500Y-112537500D01*
G75*
G02*
X158675000Y-112775000I0J-237500D01*
G01*
X158675000Y-113375000D01*
G75*
G02*
X158437500Y-113612500I-237500J0D01*
G01*
G37*
G36*
G01*
X158437500Y-115337500D02*
X157962500Y-115337500D01*
G75*
G02*
X157725000Y-115100000I0J237500D01*
G01*
X157725000Y-114500000D01*
G75*
G02*
X157962500Y-114262500I237500J0D01*
G01*
X158437500Y-114262500D01*
G75*
G02*
X158675000Y-114500000I0J-237500D01*
G01*
X158675000Y-115100000D01*
G75*
G02*
X158437500Y-115337500I-237500J0D01*
G01*
G37*
%TD*%
%TO.C,C32*%
G36*
G01*
X152375000Y-119737500D02*
X152375000Y-119262500D01*
G75*
G02*
X152612500Y-119025000I237500J0D01*
G01*
X153212500Y-119025000D01*
G75*
G02*
X153450000Y-119262500I0J-237500D01*
G01*
X153450000Y-119737500D01*
G75*
G02*
X153212500Y-119975000I-237500J0D01*
G01*
X152612500Y-119975000D01*
G75*
G02*
X152375000Y-119737500I0J237500D01*
G01*
G37*
G36*
G01*
X150650000Y-119737500D02*
X150650000Y-119262500D01*
G75*
G02*
X150887500Y-119025000I237500J0D01*
G01*
X151487500Y-119025000D01*
G75*
G02*
X151725000Y-119262500I0J-237500D01*
G01*
X151725000Y-119737500D01*
G75*
G02*
X151487500Y-119975000I-237500J0D01*
G01*
X150887500Y-119975000D01*
G75*
G02*
X150650000Y-119737500I0J237500D01*
G01*
G37*
%TD*%
%TO.C,C31*%
G36*
G01*
X156025000Y-119787500D02*
X156025000Y-119312500D01*
G75*
G02*
X156262500Y-119075000I237500J0D01*
G01*
X156862500Y-119075000D01*
G75*
G02*
X157100000Y-119312500I0J-237500D01*
G01*
X157100000Y-119787500D01*
G75*
G02*
X156862500Y-120025000I-237500J0D01*
G01*
X156262500Y-120025000D01*
G75*
G02*
X156025000Y-119787500I0J237500D01*
G01*
G37*
G36*
G01*
X154300000Y-119787500D02*
X154300000Y-119312500D01*
G75*
G02*
X154537500Y-119075000I237500J0D01*
G01*
X155137500Y-119075000D01*
G75*
G02*
X155375000Y-119312500I0J-237500D01*
G01*
X155375000Y-119787500D01*
G75*
G02*
X155137500Y-120025000I-237500J0D01*
G01*
X154537500Y-120025000D01*
G75*
G02*
X154300000Y-119787500I0J237500D01*
G01*
G37*
%TD*%
%TO.C,C30*%
G36*
G01*
X157962500Y-117575000D02*
X158437500Y-117575000D01*
G75*
G02*
X158675000Y-117812500I0J-237500D01*
G01*
X158675000Y-118412500D01*
G75*
G02*
X158437500Y-118650000I-237500J0D01*
G01*
X157962500Y-118650000D01*
G75*
G02*
X157725000Y-118412500I0J237500D01*
G01*
X157725000Y-117812500D01*
G75*
G02*
X157962500Y-117575000I237500J0D01*
G01*
G37*
G36*
G01*
X157962500Y-115850000D02*
X158437500Y-115850000D01*
G75*
G02*
X158675000Y-116087500I0J-237500D01*
G01*
X158675000Y-116687500D01*
G75*
G02*
X158437500Y-116925000I-237500J0D01*
G01*
X157962500Y-116925000D01*
G75*
G02*
X157725000Y-116687500I0J237500D01*
G01*
X157725000Y-116087500D01*
G75*
G02*
X157962500Y-115850000I237500J0D01*
G01*
G37*
%TD*%
D10*
%TO.C,J13*%
X143045000Y-131450000D03*
X143045000Y-127550000D03*
X141775000Y-131450000D03*
X141775000Y-127550000D03*
X140505000Y-131450000D03*
X140505000Y-127550000D03*
X139235000Y-131450000D03*
X139235000Y-127550000D03*
X137965000Y-131450000D03*
X137965000Y-127550000D03*
X136695000Y-131450000D03*
X136695000Y-127550000D03*
X135425000Y-131450000D03*
X135425000Y-127550000D03*
X134155000Y-131450000D03*
X134155000Y-127550000D03*
%TD*%
%TO.C,C12*%
G36*
G01*
X146012500Y-100762500D02*
X146012500Y-100287500D01*
G75*
G02*
X146250000Y-100050000I237500J0D01*
G01*
X146850000Y-100050000D01*
G75*
G02*
X147087500Y-100287500I0J-237500D01*
G01*
X147087500Y-100762500D01*
G75*
G02*
X146850000Y-101000000I-237500J0D01*
G01*
X146250000Y-101000000D01*
G75*
G02*
X146012500Y-100762500I0J237500D01*
G01*
G37*
G36*
G01*
X144287500Y-100762500D02*
X144287500Y-100287500D01*
G75*
G02*
X144525000Y-100050000I237500J0D01*
G01*
X145125000Y-100050000D01*
G75*
G02*
X145362500Y-100287500I0J-237500D01*
G01*
X145362500Y-100762500D01*
G75*
G02*
X145125000Y-101000000I-237500J0D01*
G01*
X144525000Y-101000000D01*
G75*
G02*
X144287500Y-100762500I0J237500D01*
G01*
G37*
%TD*%
%TO.C,R23*%
G36*
G01*
X148262500Y-134612500D02*
X148737500Y-134612500D01*
G75*
G02*
X148975000Y-134850000I0J-237500D01*
G01*
X148975000Y-135350000D01*
G75*
G02*
X148737500Y-135587500I-237500J0D01*
G01*
X148262500Y-135587500D01*
G75*
G02*
X148025000Y-135350000I0J237500D01*
G01*
X148025000Y-134850000D01*
G75*
G02*
X148262500Y-134612500I237500J0D01*
G01*
G37*
G36*
G01*
X148262500Y-132787500D02*
X148737500Y-132787500D01*
G75*
G02*
X148975000Y-133025000I0J-237500D01*
G01*
X148975000Y-133525000D01*
G75*
G02*
X148737500Y-133762500I-237500J0D01*
G01*
X148262500Y-133762500D01*
G75*
G02*
X148025000Y-133525000I0J237500D01*
G01*
X148025000Y-133025000D01*
G75*
G02*
X148262500Y-132787500I237500J0D01*
G01*
G37*
%TD*%
%TO.C,R22*%
G36*
G01*
X146762500Y-135312500D02*
X147237500Y-135312500D01*
G75*
G02*
X147475000Y-135550000I0J-237500D01*
G01*
X147475000Y-136050000D01*
G75*
G02*
X147237500Y-136287500I-237500J0D01*
G01*
X146762500Y-136287500D01*
G75*
G02*
X146525000Y-136050000I0J237500D01*
G01*
X146525000Y-135550000D01*
G75*
G02*
X146762500Y-135312500I237500J0D01*
G01*
G37*
G36*
G01*
X146762500Y-133487500D02*
X147237500Y-133487500D01*
G75*
G02*
X147475000Y-133725000I0J-237500D01*
G01*
X147475000Y-134225000D01*
G75*
G02*
X147237500Y-134462500I-237500J0D01*
G01*
X146762500Y-134462500D01*
G75*
G02*
X146525000Y-134225000I0J237500D01*
G01*
X146525000Y-133725000D01*
G75*
G02*
X146762500Y-133487500I237500J0D01*
G01*
G37*
%TD*%
%TO.C,R21*%
G36*
G01*
X145262500Y-135912500D02*
X145737500Y-135912500D01*
G75*
G02*
X145975000Y-136150000I0J-237500D01*
G01*
X145975000Y-136650000D01*
G75*
G02*
X145737500Y-136887500I-237500J0D01*
G01*
X145262500Y-136887500D01*
G75*
G02*
X145025000Y-136650000I0J237500D01*
G01*
X145025000Y-136150000D01*
G75*
G02*
X145262500Y-135912500I237500J0D01*
G01*
G37*
G36*
G01*
X145262500Y-134087500D02*
X145737500Y-134087500D01*
G75*
G02*
X145975000Y-134325000I0J-237500D01*
G01*
X145975000Y-134825000D01*
G75*
G02*
X145737500Y-135062500I-237500J0D01*
G01*
X145262500Y-135062500D01*
G75*
G02*
X145025000Y-134825000I0J237500D01*
G01*
X145025000Y-134325000D01*
G75*
G02*
X145262500Y-134087500I237500J0D01*
G01*
G37*
%TD*%
%TO.C,R20*%
G36*
G01*
X143762500Y-136312500D02*
X144237500Y-136312500D01*
G75*
G02*
X144475000Y-136550000I0J-237500D01*
G01*
X144475000Y-137050000D01*
G75*
G02*
X144237500Y-137287500I-237500J0D01*
G01*
X143762500Y-137287500D01*
G75*
G02*
X143525000Y-137050000I0J237500D01*
G01*
X143525000Y-136550000D01*
G75*
G02*
X143762500Y-136312500I237500J0D01*
G01*
G37*
G36*
G01*
X143762500Y-134487500D02*
X144237500Y-134487500D01*
G75*
G02*
X144475000Y-134725000I0J-237500D01*
G01*
X144475000Y-135225000D01*
G75*
G02*
X144237500Y-135462500I-237500J0D01*
G01*
X143762500Y-135462500D01*
G75*
G02*
X143525000Y-135225000I0J237500D01*
G01*
X143525000Y-134725000D01*
G75*
G02*
X143762500Y-134487500I237500J0D01*
G01*
G37*
%TD*%
%TO.C,R19*%
G36*
G01*
X142262500Y-136612500D02*
X142737500Y-136612500D01*
G75*
G02*
X142975000Y-136850000I0J-237500D01*
G01*
X142975000Y-137350000D01*
G75*
G02*
X142737500Y-137587500I-237500J0D01*
G01*
X142262500Y-137587500D01*
G75*
G02*
X142025000Y-137350000I0J237500D01*
G01*
X142025000Y-136850000D01*
G75*
G02*
X142262500Y-136612500I237500J0D01*
G01*
G37*
G36*
G01*
X142262500Y-134787500D02*
X142737500Y-134787500D01*
G75*
G02*
X142975000Y-135025000I0J-237500D01*
G01*
X142975000Y-135525000D01*
G75*
G02*
X142737500Y-135762500I-237500J0D01*
G01*
X142262500Y-135762500D01*
G75*
G02*
X142025000Y-135525000I0J237500D01*
G01*
X142025000Y-135025000D01*
G75*
G02*
X142262500Y-134787500I237500J0D01*
G01*
G37*
%TD*%
%TO.C,R18*%
G36*
G01*
X140762500Y-136912500D02*
X141237500Y-136912500D01*
G75*
G02*
X141475000Y-137150000I0J-237500D01*
G01*
X141475000Y-137650000D01*
G75*
G02*
X141237500Y-137887500I-237500J0D01*
G01*
X140762500Y-137887500D01*
G75*
G02*
X140525000Y-137650000I0J237500D01*
G01*
X140525000Y-137150000D01*
G75*
G02*
X140762500Y-136912500I237500J0D01*
G01*
G37*
G36*
G01*
X140762500Y-135087500D02*
X141237500Y-135087500D01*
G75*
G02*
X141475000Y-135325000I0J-237500D01*
G01*
X141475000Y-135825000D01*
G75*
G02*
X141237500Y-136062500I-237500J0D01*
G01*
X140762500Y-136062500D01*
G75*
G02*
X140525000Y-135825000I0J237500D01*
G01*
X140525000Y-135325000D01*
G75*
G02*
X140762500Y-135087500I237500J0D01*
G01*
G37*
%TD*%
%TO.C,R17*%
G36*
G01*
X139262500Y-137012500D02*
X139737500Y-137012500D01*
G75*
G02*
X139975000Y-137250000I0J-237500D01*
G01*
X139975000Y-137750000D01*
G75*
G02*
X139737500Y-137987500I-237500J0D01*
G01*
X139262500Y-137987500D01*
G75*
G02*
X139025000Y-137750000I0J237500D01*
G01*
X139025000Y-137250000D01*
G75*
G02*
X139262500Y-137012500I237500J0D01*
G01*
G37*
G36*
G01*
X139262500Y-135187500D02*
X139737500Y-135187500D01*
G75*
G02*
X139975000Y-135425000I0J-237500D01*
G01*
X139975000Y-135925000D01*
G75*
G02*
X139737500Y-136162500I-237500J0D01*
G01*
X139262500Y-136162500D01*
G75*
G02*
X139025000Y-135925000I0J237500D01*
G01*
X139025000Y-135425000D01*
G75*
G02*
X139262500Y-135187500I237500J0D01*
G01*
G37*
%TD*%
%TO.C,R16*%
G36*
G01*
X137762500Y-137012500D02*
X138237500Y-137012500D01*
G75*
G02*
X138475000Y-137250000I0J-237500D01*
G01*
X138475000Y-137750000D01*
G75*
G02*
X138237500Y-137987500I-237500J0D01*
G01*
X137762500Y-137987500D01*
G75*
G02*
X137525000Y-137750000I0J237500D01*
G01*
X137525000Y-137250000D01*
G75*
G02*
X137762500Y-137012500I237500J0D01*
G01*
G37*
G36*
G01*
X137762500Y-135187500D02*
X138237500Y-135187500D01*
G75*
G02*
X138475000Y-135425000I0J-237500D01*
G01*
X138475000Y-135925000D01*
G75*
G02*
X138237500Y-136162500I-237500J0D01*
G01*
X137762500Y-136162500D01*
G75*
G02*
X137525000Y-135925000I0J237500D01*
G01*
X137525000Y-135425000D01*
G75*
G02*
X137762500Y-135187500I237500J0D01*
G01*
G37*
%TD*%
M02*
