%TF.GenerationSoftware,KiCad,Pcbnew,6.0.6-3a73a75311~116~ubuntu20.04.1*%
%TF.CreationDate,2022-09-27T10:12:31+01:00*%
%TF.ProjectId,UFOControlDeck,55464f43-6f6e-4747-926f-6c4465636b2e,rev?*%
%TF.SameCoordinates,Original*%
%TF.FileFunction,Paste,Bot*%
%TF.FilePolarity,Positive*%
%FSLAX46Y46*%
G04 Gerber Fmt 4.6, Leading zero omitted, Abs format (unit mm)*
G04 Created by KiCad (PCBNEW 6.0.6-3a73a75311~116~ubuntu20.04.1) date 2022-09-27 10:12:31*
%MOMM*%
%LPD*%
G01*
G04 APERTURE LIST*
G04 Aperture macros list*
%AMRoundRect*
0 Rectangle with rounded corners*
0 $1 Rounding radius*
0 $2 $3 $4 $5 $6 $7 $8 $9 X,Y pos of 4 corners*
0 Add a 4 corners polygon primitive as box body*
4,1,4,$2,$3,$4,$5,$6,$7,$8,$9,$2,$3,0*
0 Add four circle primitives for the rounded corners*
1,1,$1+$1,$2,$3*
1,1,$1+$1,$4,$5*
1,1,$1+$1,$6,$7*
1,1,$1+$1,$8,$9*
0 Add four rect primitives between the rounded corners*
20,1,$1+$1,$2,$3,$4,$5,0*
20,1,$1+$1,$4,$5,$6,$7,0*
20,1,$1+$1,$6,$7,$8,$9,0*
20,1,$1+$1,$8,$9,$2,$3,0*%
G04 Aperture macros list end*
%ADD10RoundRect,0.237500X-0.237500X0.250000X-0.237500X-0.250000X0.237500X-0.250000X0.237500X0.250000X0*%
%ADD11R,0.740000X2.400000*%
%ADD12RoundRect,0.237500X-0.300000X-0.237500X0.300000X-0.237500X0.300000X0.237500X-0.300000X0.237500X0*%
%ADD13RoundRect,0.237500X-0.237500X0.300000X-0.237500X-0.300000X0.237500X-0.300000X0.237500X0.300000X0*%
%ADD14RoundRect,0.237500X0.237500X-0.300000X0.237500X0.300000X-0.237500X0.300000X-0.237500X-0.300000X0*%
%ADD15RoundRect,0.237500X0.237500X-0.250000X0.237500X0.250000X-0.237500X0.250000X-0.237500X-0.250000X0*%
%ADD16RoundRect,0.237500X-0.250000X-0.237500X0.250000X-0.237500X0.250000X0.237500X-0.250000X0.237500X0*%
%ADD17R,1.000000X1.050000*%
%ADD18R,1.050000X2.200000*%
%ADD19RoundRect,0.150000X0.825000X0.150000X-0.825000X0.150000X-0.825000X-0.150000X0.825000X-0.150000X0*%
G04 APERTURE END LIST*
D10*
%TO.C,R19*%
X142500000Y-135275000D03*
X142500000Y-137100000D03*
%TD*%
%TO.C,R20*%
X144000000Y-134975000D03*
X144000000Y-136800000D03*
%TD*%
%TO.C,R21*%
X145500000Y-134575000D03*
X145500000Y-136400000D03*
%TD*%
%TO.C,R22*%
X147000000Y-133975000D03*
X147000000Y-135800000D03*
%TD*%
%TO.C,R23*%
X148500000Y-133275000D03*
X148500000Y-135100000D03*
%TD*%
D11*
%TO.C,J13*%
X134155000Y-127550000D03*
X134155000Y-131450000D03*
X135425000Y-127550000D03*
X135425000Y-131450000D03*
X136695000Y-127550000D03*
X136695000Y-131450000D03*
X137965000Y-127550000D03*
X137965000Y-131450000D03*
X139235000Y-127550000D03*
X139235000Y-131450000D03*
X140505000Y-127550000D03*
X140505000Y-131450000D03*
X141775000Y-127550000D03*
X141775000Y-131450000D03*
X143045000Y-127550000D03*
X143045000Y-131450000D03*
%TD*%
D12*
%TO.C,C12*%
X144825000Y-100525000D03*
X146550000Y-100525000D03*
%TD*%
D10*
%TO.C,R16*%
X138000000Y-135675000D03*
X138000000Y-137500000D03*
%TD*%
%TO.C,R18*%
X141000000Y-135575000D03*
X141000000Y-137400000D03*
%TD*%
%TO.C,R17*%
X139500000Y-135675000D03*
X139500000Y-137500000D03*
%TD*%
D13*
%TO.C,C30*%
X158200000Y-116387500D03*
X158200000Y-118112500D03*
%TD*%
D12*
%TO.C,C31*%
X154837500Y-119550000D03*
X156562500Y-119550000D03*
%TD*%
%TO.C,C32*%
X151187500Y-119500000D03*
X152912500Y-119500000D03*
%TD*%
D14*
%TO.C,C33*%
X158200000Y-114800000D03*
X158200000Y-113075000D03*
%TD*%
D13*
%TO.C,C34*%
X149900000Y-116237500D03*
X149900000Y-117962500D03*
%TD*%
%TO.C,C35*%
X149900000Y-112937500D03*
X149900000Y-114662500D03*
%TD*%
D12*
%TO.C,C37*%
X151587500Y-111200000D03*
X153312500Y-111200000D03*
%TD*%
%TO.C,C38*%
X155237500Y-111150000D03*
X156962500Y-111150000D03*
%TD*%
%TO.C,C46*%
X142450000Y-102300000D03*
X144175000Y-102300000D03*
%TD*%
D10*
%TO.C,R24*%
X149350000Y-107375000D03*
X149350000Y-109200000D03*
%TD*%
D15*
%TO.C,R25*%
X145850000Y-108225000D03*
X145850000Y-106400000D03*
%TD*%
D10*
%TO.C,R3*%
X147350000Y-106375000D03*
X147350000Y-108200000D03*
%TD*%
D16*
%TO.C,R7*%
X145850000Y-104900000D03*
X147675000Y-104900000D03*
%TD*%
D10*
%TO.C,R8*%
X150900000Y-107387500D03*
X150900000Y-109212500D03*
%TD*%
D16*
%TO.C,R26*%
X142450000Y-104900000D03*
X144275000Y-104900000D03*
%TD*%
D15*
%TO.C,R10*%
X147750000Y-111612500D03*
X147750000Y-109787500D03*
%TD*%
D17*
%TO.C,J6*%
X156750000Y-107730000D03*
D18*
X155275000Y-106205000D03*
X158225000Y-106205000D03*
%TD*%
D17*
%TO.C,J4*%
X139400000Y-98370000D03*
D18*
X140875000Y-99895000D03*
X137925000Y-99895000D03*
%TD*%
D19*
%TO.C,U1*%
X135275000Y-101645000D03*
X135275000Y-102915000D03*
X135275000Y-104185000D03*
X135275000Y-105455000D03*
X130325000Y-105455000D03*
X130325000Y-104185000D03*
X130325000Y-102915000D03*
X130325000Y-101645000D03*
%TD*%
M02*
