%TF.GenerationSoftware,KiCad,Pcbnew,5.1.10-88a1d61d58~90~ubuntu20.04.1*%
%TF.CreationDate,2021-11-01T14:17:02+00:00*%
%TF.ProjectId,UFOMothership,55464f4d-6f74-4686-9572-736869702e6b,rev?*%
%TF.SameCoordinates,Original*%
%TF.FileFunction,Copper,L1,Top*%
%TF.FilePolarity,Positive*%
%FSLAX46Y46*%
G04 Gerber Fmt 4.6, Leading zero omitted, Abs format (unit mm)*
G04 Created by KiCad (PCBNEW 5.1.10-88a1d61d58~90~ubuntu20.04.1) date 2021-11-01 14:17:02*
%MOMM*%
%LPD*%
G01*
G04 APERTURE LIST*
%TA.AperFunction,ComponentPad*%
%ADD10C,6.400000*%
%TD*%
%TA.AperFunction,ComponentPad*%
%ADD11C,0.800000*%
%TD*%
%TA.AperFunction,ViaPad*%
%ADD12C,0.800000*%
%TD*%
%TA.AperFunction,Conductor*%
%ADD13C,0.250000*%
%TD*%
G04 APERTURE END LIST*
D10*
%TO.P,REF\u002A\u002A,1*%
%TO.N,N/C*%
X205000000Y-40000000D03*
D11*
X207400000Y-40000000D03*
X206697056Y-41697056D03*
X205000000Y-42400000D03*
X203302944Y-41697056D03*
X202600000Y-40000000D03*
X203302944Y-38302944D03*
X205000000Y-37600000D03*
X206697056Y-38302944D03*
%TD*%
D10*
%TO.P,REF\u002A\u002A,1*%
%TO.N,N/C*%
X75000000Y-40000000D03*
D11*
X77400000Y-40000000D03*
X76697056Y-41697056D03*
X75000000Y-42400000D03*
X73302944Y-41697056D03*
X72600000Y-40000000D03*
X73302944Y-38302944D03*
X75000000Y-37600000D03*
X76697056Y-38302944D03*
%TD*%
D10*
%TO.P,REF\u002A\u002A,1*%
%TO.N,N/C*%
X75000000Y-145000000D03*
D11*
X77400000Y-145000000D03*
X76697056Y-146697056D03*
X75000000Y-147400000D03*
X73302944Y-146697056D03*
X72600000Y-145000000D03*
X73302944Y-143302944D03*
X75000000Y-142600000D03*
X76697056Y-143302944D03*
%TD*%
%TO.P,REF\u002A\u002A,1*%
%TO.N,N/C*%
X206697056Y-143302944D03*
X205000000Y-142600000D03*
X203302944Y-143302944D03*
X202600000Y-145000000D03*
X203302944Y-146697056D03*
X205000000Y-147400000D03*
X206697056Y-146697056D03*
X207400000Y-145000000D03*
D10*
X205000000Y-145000000D03*
%TD*%
D12*
%TO.N,*%
X145000000Y-110000000D03*
X185000000Y-100000000D03*
X150000000Y-95000000D03*
X105000000Y-110000000D03*
X125000000Y-100000000D03*
X125000000Y-110000000D03*
X115000000Y-115000000D03*
X110000000Y-120000000D03*
X190000000Y-115000000D03*
X170000000Y-105000000D03*
X165000000Y-115000000D03*
X165000000Y-115000000D03*
%TD*%
D13*
%TO.N,*%
X110000000Y-55000000D02*
X165000000Y-55000000D01*
X165000000Y-55000000D02*
X160000000Y-60000000D01*
X160000000Y-60000000D02*
X175000000Y-60000000D01*
X175000000Y-60000000D02*
X185000000Y-70000000D01*
X185000000Y-70000000D02*
X185000000Y-85000000D01*
X185000000Y-85000000D02*
X175000000Y-75000000D01*
X175000000Y-75000000D02*
X135000000Y-75000000D01*
X135000000Y-75000000D02*
X125000000Y-85000000D01*
X125000000Y-85000000D02*
X120000000Y-85000000D01*
X120000000Y-85000000D02*
X105000000Y-100000000D01*
X105000000Y-100000000D02*
X105000000Y-85000000D01*
X105000000Y-85000000D02*
X110000000Y-80000000D01*
X110000000Y-80000000D02*
X110000000Y-55000000D01*
%TD*%
M02*
