%TF.GenerationSoftware,KiCad,Pcbnew,5.1.10-88a1d61d58~90~ubuntu20.04.1*%
%TF.CreationDate,2021-11-01T14:17:02+00:00*%
%TF.ProjectId,UFOMothership,55464f4d-6f74-4686-9572-736869702e6b,rev?*%
%TF.SameCoordinates,Original*%
%TF.FileFunction,Legend,Top*%
%TF.FilePolarity,Positive*%
%FSLAX46Y46*%
G04 Gerber Fmt 4.6, Leading zero omitted, Abs format (unit mm)*
G04 Created by KiCad (PCBNEW 5.1.10-88a1d61d58~90~ubuntu20.04.1) date 2021-11-01 14:17:02*
%MOMM*%
%LPD*%
G01*
G04 APERTURE LIST*
%ADD10C,0.150000*%
G04 APERTURE END LIST*
%TO.C,REF\u002A\u002A*%
D10*
X203666666Y-36252380D02*
X203333333Y-35776190D01*
X203095238Y-36252380D02*
X203095238Y-35252380D01*
X203476190Y-35252380D01*
X203571428Y-35300000D01*
X203619047Y-35347619D01*
X203666666Y-35442857D01*
X203666666Y-35585714D01*
X203619047Y-35680952D01*
X203571428Y-35728571D01*
X203476190Y-35776190D01*
X203095238Y-35776190D01*
X204095238Y-35728571D02*
X204428571Y-35728571D01*
X204571428Y-36252380D02*
X204095238Y-36252380D01*
X204095238Y-35252380D01*
X204571428Y-35252380D01*
X205333333Y-35728571D02*
X205000000Y-35728571D01*
X205000000Y-36252380D02*
X205000000Y-35252380D01*
X205476190Y-35252380D01*
X206000000Y-35252380D02*
X206000000Y-35490476D01*
X205761904Y-35395238D02*
X206000000Y-35490476D01*
X206238095Y-35395238D01*
X205857142Y-35680952D02*
X206000000Y-35490476D01*
X206142857Y-35680952D01*
X206761904Y-35252380D02*
X206761904Y-35490476D01*
X206523809Y-35395238D02*
X206761904Y-35490476D01*
X207000000Y-35395238D01*
X206619047Y-35680952D02*
X206761904Y-35490476D01*
X206904761Y-35680952D01*
X73666666Y-36252380D02*
X73333333Y-35776190D01*
X73095238Y-36252380D02*
X73095238Y-35252380D01*
X73476190Y-35252380D01*
X73571428Y-35300000D01*
X73619047Y-35347619D01*
X73666666Y-35442857D01*
X73666666Y-35585714D01*
X73619047Y-35680952D01*
X73571428Y-35728571D01*
X73476190Y-35776190D01*
X73095238Y-35776190D01*
X74095238Y-35728571D02*
X74428571Y-35728571D01*
X74571428Y-36252380D02*
X74095238Y-36252380D01*
X74095238Y-35252380D01*
X74571428Y-35252380D01*
X75333333Y-35728571D02*
X75000000Y-35728571D01*
X75000000Y-36252380D02*
X75000000Y-35252380D01*
X75476190Y-35252380D01*
X76000000Y-35252380D02*
X76000000Y-35490476D01*
X75761904Y-35395238D02*
X76000000Y-35490476D01*
X76238095Y-35395238D01*
X75857142Y-35680952D02*
X76000000Y-35490476D01*
X76142857Y-35680952D01*
X76761904Y-35252380D02*
X76761904Y-35490476D01*
X76523809Y-35395238D02*
X76761904Y-35490476D01*
X77000000Y-35395238D01*
X76619047Y-35680952D02*
X76761904Y-35490476D01*
X76904761Y-35680952D01*
X73666666Y-141252380D02*
X73333333Y-140776190D01*
X73095238Y-141252380D02*
X73095238Y-140252380D01*
X73476190Y-140252380D01*
X73571428Y-140300000D01*
X73619047Y-140347619D01*
X73666666Y-140442857D01*
X73666666Y-140585714D01*
X73619047Y-140680952D01*
X73571428Y-140728571D01*
X73476190Y-140776190D01*
X73095238Y-140776190D01*
X74095238Y-140728571D02*
X74428571Y-140728571D01*
X74571428Y-141252380D02*
X74095238Y-141252380D01*
X74095238Y-140252380D01*
X74571428Y-140252380D01*
X75333333Y-140728571D02*
X75000000Y-140728571D01*
X75000000Y-141252380D02*
X75000000Y-140252380D01*
X75476190Y-140252380D01*
X76000000Y-140252380D02*
X76000000Y-140490476D01*
X75761904Y-140395238D02*
X76000000Y-140490476D01*
X76238095Y-140395238D01*
X75857142Y-140680952D02*
X76000000Y-140490476D01*
X76142857Y-140680952D01*
X76761904Y-140252380D02*
X76761904Y-140490476D01*
X76523809Y-140395238D02*
X76761904Y-140490476D01*
X77000000Y-140395238D01*
X76619047Y-140680952D02*
X76761904Y-140490476D01*
X76904761Y-140680952D01*
X203666666Y-141252380D02*
X203333333Y-140776190D01*
X203095238Y-141252380D02*
X203095238Y-140252380D01*
X203476190Y-140252380D01*
X203571428Y-140300000D01*
X203619047Y-140347619D01*
X203666666Y-140442857D01*
X203666666Y-140585714D01*
X203619047Y-140680952D01*
X203571428Y-140728571D01*
X203476190Y-140776190D01*
X203095238Y-140776190D01*
X204095238Y-140728571D02*
X204428571Y-140728571D01*
X204571428Y-141252380D02*
X204095238Y-141252380D01*
X204095238Y-140252380D01*
X204571428Y-140252380D01*
X205333333Y-140728571D02*
X205000000Y-140728571D01*
X205000000Y-141252380D02*
X205000000Y-140252380D01*
X205476190Y-140252380D01*
X206000000Y-140252380D02*
X206000000Y-140490476D01*
X205761904Y-140395238D02*
X206000000Y-140490476D01*
X206238095Y-140395238D01*
X205857142Y-140680952D02*
X206000000Y-140490476D01*
X206142857Y-140680952D01*
X206761904Y-140252380D02*
X206761904Y-140490476D01*
X206523809Y-140395238D02*
X206761904Y-140490476D01*
X207000000Y-140395238D01*
X206619047Y-140680952D02*
X206761904Y-140490476D01*
X206904761Y-140680952D01*
%TD*%
M02*
