M48
; DRILL file {KiCad 5.1.10-88a1d61d58~90~ubuntu20.04.1} date Mon Nov  1 14:16:54 2021
; FORMAT={-:-/ absolute / inch / decimal}
; #@! TF.CreationDate,2021-11-01T14:16:54+00:00
; #@! TF.GenerationSoftware,Kicad,Pcbnew,5.1.10-88a1d61d58~90~ubuntu20.04.1
; #@! TF.FileFunction,Plated,1,2,PTH
FMAT,2
INCH
T1C0.0157
T2C0.0197
T3C0.1260
%
G90
G05
T1
X4.1339Y-4.3307
X4.3307Y-4.7244
X4.5276Y-4.5276
X4.9213Y-3.937
X4.9213Y-4.3307
X5.7087Y-4.3307
X5.9055Y-3.7402
X6.4961Y-4.5276
X6.4961Y-4.5276
X6.6929Y-4.1339
X7.2835Y-3.937
X7.4803Y-4.5276
T2
X2.8583Y-1.5748
X2.8583Y-5.7087
X2.8859Y-1.508
X2.8859Y-1.6416
X2.8859Y-5.6418
X2.8859Y-5.7755
X2.9528Y-1.4803
X2.9528Y-1.6693
X2.9528Y-5.6142
X2.9528Y-5.8031
X3.0196Y-1.508
X3.0196Y-1.6416
X3.0196Y-5.6418
X3.0196Y-5.7755
X3.0472Y-1.5748
X3.0472Y-5.7087
X7.9764Y-1.5748
X7.9764Y-5.7087
X8.0041Y-1.508
X8.0041Y-1.6416
X8.0041Y-5.6418
X8.0041Y-5.7755
X8.0709Y-1.4803
X8.0709Y-1.6693
X8.0709Y-5.6142
X8.0709Y-5.8031
X8.1377Y-1.508
X8.1377Y-1.6416
X8.1377Y-5.6418
X8.1377Y-5.7755
X8.1654Y-1.5748
X8.1654Y-5.7087
T3
X2.9528Y-1.5748
X2.9528Y-5.7087
X8.0709Y-1.5748
X8.0709Y-5.7087
T0
M30
