%TF.GenerationSoftware,KiCad,Pcbnew,6.0.6-3a73a75311~116~ubuntu20.04.1*%
%TF.CreationDate,2022-09-22T11:08:13+01:00*%
%TF.ProjectId,UFOMothership,55464f4d-6f74-4686-9572-736869702e6b,rev?*%
%TF.SameCoordinates,Original*%
%TF.FileFunction,Legend,Top*%
%TF.FilePolarity,Positive*%
%FSLAX46Y46*%
G04 Gerber Fmt 4.6, Leading zero omitted, Abs format (unit mm)*
G04 Created by KiCad (PCBNEW 6.0.6-3a73a75311~116~ubuntu20.04.1) date 2022-09-22 11:08:13*
%MOMM*%
%LPD*%
G01*
G04 APERTURE LIST*
%ADD10C,0.150000*%
%ADD11C,0.120000*%
%ADD12C,0.200000*%
G04 APERTURE END LIST*
D10*
%TO.C,X1*%
X177507943Y-95052782D02*
X178686454Y-95288484D01*
X177979347Y-94581378D02*
X178215049Y-95759889D01*
X179326217Y-94648721D02*
X178922156Y-95052782D01*
X179124187Y-94850752D02*
X178417080Y-94143645D01*
X178450752Y-94312004D01*
X178450752Y-94446691D01*
X178417080Y-94547706D01*
%TO.C,C24*%
X177905823Y-99823073D02*
X177973167Y-99823073D01*
X178107854Y-99890417D01*
X178175197Y-99957760D01*
X178242541Y-100092447D01*
X178242541Y-100227134D01*
X178208869Y-100328149D01*
X178107854Y-100496508D01*
X178006839Y-100597523D01*
X177838480Y-100698539D01*
X177737465Y-100732210D01*
X177602778Y-100732210D01*
X177468091Y-100664867D01*
X177400747Y-100597523D01*
X177333404Y-100462836D01*
X177333404Y-100395493D01*
X177064029Y-100126119D02*
X176996686Y-100126119D01*
X176895671Y-100092447D01*
X176727312Y-99924088D01*
X176693640Y-99823073D01*
X176693640Y-99755730D01*
X176727312Y-99654714D01*
X176794655Y-99587371D01*
X176929342Y-99520027D01*
X177737465Y-99520027D01*
X177299732Y-99082294D01*
X176222236Y-98947607D02*
X176693640Y-98476203D01*
X176121220Y-99385340D02*
X176794655Y-99048623D01*
X176356923Y-98610890D01*
%TO.C,REF\u002A\u002A*%
X204866666Y-104452380D02*
X204533333Y-103976190D01*
X204295238Y-104452380D02*
X204295238Y-103452380D01*
X204676190Y-103452380D01*
X204771428Y-103500000D01*
X204819047Y-103547619D01*
X204866666Y-103642857D01*
X204866666Y-103785714D01*
X204819047Y-103880952D01*
X204771428Y-103928571D01*
X204676190Y-103976190D01*
X204295238Y-103976190D01*
X205295238Y-103928571D02*
X205628571Y-103928571D01*
X205771428Y-104452380D02*
X205295238Y-104452380D01*
X205295238Y-103452380D01*
X205771428Y-103452380D01*
X206533333Y-103928571D02*
X206200000Y-103928571D01*
X206200000Y-104452380D02*
X206200000Y-103452380D01*
X206676190Y-103452380D01*
X207200000Y-103452380D02*
X207200000Y-103690476D01*
X206961904Y-103595238D02*
X207200000Y-103690476D01*
X207438095Y-103595238D01*
X207057142Y-103880952D02*
X207200000Y-103690476D01*
X207342857Y-103880952D01*
X207961904Y-103452380D02*
X207961904Y-103690476D01*
X207723809Y-103595238D02*
X207961904Y-103690476D01*
X208200000Y-103595238D01*
X207819047Y-103880952D02*
X207961904Y-103690476D01*
X208104761Y-103880952D01*
X204866666Y-52652380D02*
X204533333Y-52176190D01*
X204295238Y-52652380D02*
X204295238Y-51652380D01*
X204676190Y-51652380D01*
X204771428Y-51700000D01*
X204819047Y-51747619D01*
X204866666Y-51842857D01*
X204866666Y-51985714D01*
X204819047Y-52080952D01*
X204771428Y-52128571D01*
X204676190Y-52176190D01*
X204295238Y-52176190D01*
X205295238Y-52128571D02*
X205628571Y-52128571D01*
X205771428Y-52652380D02*
X205295238Y-52652380D01*
X205295238Y-51652380D01*
X205771428Y-51652380D01*
X206533333Y-52128571D02*
X206200000Y-52128571D01*
X206200000Y-52652380D02*
X206200000Y-51652380D01*
X206676190Y-51652380D01*
X207200000Y-51652380D02*
X207200000Y-51890476D01*
X206961904Y-51795238D02*
X207200000Y-51890476D01*
X207438095Y-51795238D01*
X207057142Y-52080952D02*
X207200000Y-51890476D01*
X207342857Y-52080952D01*
X207961904Y-51652380D02*
X207961904Y-51890476D01*
X207723809Y-51795238D02*
X207961904Y-51890476D01*
X208200000Y-51795238D01*
X207819047Y-52080952D02*
X207961904Y-51890476D01*
X208104761Y-52080952D01*
%TO.C,R7*%
X144252380Y-76966666D02*
X143776190Y-77300000D01*
X144252380Y-77538095D02*
X143252380Y-77538095D01*
X143252380Y-77157142D01*
X143300000Y-77061904D01*
X143347619Y-77014285D01*
X143442857Y-76966666D01*
X143585714Y-76966666D01*
X143680952Y-77014285D01*
X143728571Y-77061904D01*
X143776190Y-77157142D01*
X143776190Y-77538095D01*
X143252380Y-76633333D02*
X143252380Y-75966666D01*
X144252380Y-76395238D01*
%TO.C,C16*%
X176557142Y-66757142D02*
X176509523Y-66804761D01*
X176366666Y-66852380D01*
X176271428Y-66852380D01*
X176128571Y-66804761D01*
X176033333Y-66709523D01*
X175985714Y-66614285D01*
X175938095Y-66423809D01*
X175938095Y-66280952D01*
X175985714Y-66090476D01*
X176033333Y-65995238D01*
X176128571Y-65900000D01*
X176271428Y-65852380D01*
X176366666Y-65852380D01*
X176509523Y-65900000D01*
X176557142Y-65947619D01*
X177509523Y-66852380D02*
X176938095Y-66852380D01*
X177223809Y-66852380D02*
X177223809Y-65852380D01*
X177128571Y-65995238D01*
X177033333Y-66090476D01*
X176938095Y-66138095D01*
X178366666Y-65852380D02*
X178176190Y-65852380D01*
X178080952Y-65900000D01*
X178033333Y-65947619D01*
X177938095Y-66090476D01*
X177890476Y-66280952D01*
X177890476Y-66661904D01*
X177938095Y-66757142D01*
X177985714Y-66804761D01*
X178080952Y-66852380D01*
X178271428Y-66852380D01*
X178366666Y-66804761D01*
X178414285Y-66757142D01*
X178461904Y-66661904D01*
X178461904Y-66423809D01*
X178414285Y-66328571D01*
X178366666Y-66280952D01*
X178271428Y-66233333D01*
X178080952Y-66233333D01*
X177985714Y-66280952D01*
X177938095Y-66328571D01*
X177890476Y-66423809D01*
%TO.C,R9*%
X196433333Y-74852380D02*
X196100000Y-74376190D01*
X195861904Y-74852380D02*
X195861904Y-73852380D01*
X196242857Y-73852380D01*
X196338095Y-73900000D01*
X196385714Y-73947619D01*
X196433333Y-74042857D01*
X196433333Y-74185714D01*
X196385714Y-74280952D01*
X196338095Y-74328571D01*
X196242857Y-74376190D01*
X195861904Y-74376190D01*
X196909523Y-74852380D02*
X197100000Y-74852380D01*
X197195238Y-74804761D01*
X197242857Y-74757142D01*
X197338095Y-74614285D01*
X197385714Y-74423809D01*
X197385714Y-74042857D01*
X197338095Y-73947619D01*
X197290476Y-73900000D01*
X197195238Y-73852380D01*
X197004761Y-73852380D01*
X196909523Y-73900000D01*
X196861904Y-73947619D01*
X196814285Y-74042857D01*
X196814285Y-74280952D01*
X196861904Y-74376190D01*
X196909523Y-74423809D01*
X197004761Y-74471428D01*
X197195238Y-74471428D01*
X197290476Y-74423809D01*
X197338095Y-74376190D01*
X197385714Y-74280952D01*
%TO.C,J7*%
X178872380Y-107933333D02*
X179586666Y-107933333D01*
X179729523Y-107980952D01*
X179824761Y-108076190D01*
X179872380Y-108219047D01*
X179872380Y-108314285D01*
X178872380Y-107552380D02*
X178872380Y-106885714D01*
X179872380Y-107314285D01*
%TO.C,C15*%
X201019642Y-81927142D02*
X200972023Y-81974761D01*
X200829166Y-82022380D01*
X200733928Y-82022380D01*
X200591071Y-81974761D01*
X200495833Y-81879523D01*
X200448214Y-81784285D01*
X200400595Y-81593809D01*
X200400595Y-81450952D01*
X200448214Y-81260476D01*
X200495833Y-81165238D01*
X200591071Y-81070000D01*
X200733928Y-81022380D01*
X200829166Y-81022380D01*
X200972023Y-81070000D01*
X201019642Y-81117619D01*
X201972023Y-82022380D02*
X201400595Y-82022380D01*
X201686309Y-82022380D02*
X201686309Y-81022380D01*
X201591071Y-81165238D01*
X201495833Y-81260476D01*
X201400595Y-81308095D01*
X202876785Y-81022380D02*
X202400595Y-81022380D01*
X202352976Y-81498571D01*
X202400595Y-81450952D01*
X202495833Y-81403333D01*
X202733928Y-81403333D01*
X202829166Y-81450952D01*
X202876785Y-81498571D01*
X202924404Y-81593809D01*
X202924404Y-81831904D01*
X202876785Y-81927142D01*
X202829166Y-81974761D01*
X202733928Y-82022380D01*
X202495833Y-82022380D01*
X202400595Y-81974761D01*
X202352976Y-81927142D01*
%TO.C,J6*%
X136382380Y-108933333D02*
X137096666Y-108933333D01*
X137239523Y-108980952D01*
X137334761Y-109076190D01*
X137382380Y-109219047D01*
X137382380Y-109314285D01*
X136382380Y-108028571D02*
X136382380Y-108219047D01*
X136430000Y-108314285D01*
X136477619Y-108361904D01*
X136620476Y-108457142D01*
X136810952Y-108504761D01*
X137191904Y-108504761D01*
X137287142Y-108457142D01*
X137334761Y-108409523D01*
X137382380Y-108314285D01*
X137382380Y-108123809D01*
X137334761Y-108028571D01*
X137287142Y-107980952D01*
X137191904Y-107933333D01*
X136953809Y-107933333D01*
X136858571Y-107980952D01*
X136810952Y-108028571D01*
X136763333Y-108123809D01*
X136763333Y-108314285D01*
X136810952Y-108409523D01*
X136858571Y-108457142D01*
X136953809Y-108504761D01*
%TO.C,U1*%
X148838095Y-74527380D02*
X148838095Y-75336904D01*
X148885714Y-75432142D01*
X148933333Y-75479761D01*
X149028571Y-75527380D01*
X149219047Y-75527380D01*
X149314285Y-75479761D01*
X149361904Y-75432142D01*
X149409523Y-75336904D01*
X149409523Y-74527380D01*
X150409523Y-75527380D02*
X149838095Y-75527380D01*
X150123809Y-75527380D02*
X150123809Y-74527380D01*
X150028571Y-74670238D01*
X149933333Y-74765476D01*
X149838095Y-74813095D01*
%TO.C,C11*%
X184694642Y-61127142D02*
X184647023Y-61174761D01*
X184504166Y-61222380D01*
X184408928Y-61222380D01*
X184266071Y-61174761D01*
X184170833Y-61079523D01*
X184123214Y-60984285D01*
X184075595Y-60793809D01*
X184075595Y-60650952D01*
X184123214Y-60460476D01*
X184170833Y-60365238D01*
X184266071Y-60270000D01*
X184408928Y-60222380D01*
X184504166Y-60222380D01*
X184647023Y-60270000D01*
X184694642Y-60317619D01*
X185647023Y-61222380D02*
X185075595Y-61222380D01*
X185361309Y-61222380D02*
X185361309Y-60222380D01*
X185266071Y-60365238D01*
X185170833Y-60460476D01*
X185075595Y-60508095D01*
X186599404Y-61222380D02*
X186027976Y-61222380D01*
X186313690Y-61222380D02*
X186313690Y-60222380D01*
X186218452Y-60365238D01*
X186123214Y-60460476D01*
X186027976Y-60508095D01*
%TO.C,J4*%
X206626666Y-72352380D02*
X206626666Y-73066666D01*
X206579047Y-73209523D01*
X206483809Y-73304761D01*
X206340952Y-73352380D01*
X206245714Y-73352380D01*
X207531428Y-72685714D02*
X207531428Y-73352380D01*
X207293333Y-72304761D02*
X207055238Y-73019047D01*
X207674285Y-73019047D01*
%TO.C,REF\u002A\u002A*%
X130866666Y-104452380D02*
X130533333Y-103976190D01*
X130295238Y-104452380D02*
X130295238Y-103452380D01*
X130676190Y-103452380D01*
X130771428Y-103500000D01*
X130819047Y-103547619D01*
X130866666Y-103642857D01*
X130866666Y-103785714D01*
X130819047Y-103880952D01*
X130771428Y-103928571D01*
X130676190Y-103976190D01*
X130295238Y-103976190D01*
X131295238Y-103928571D02*
X131628571Y-103928571D01*
X131771428Y-104452380D02*
X131295238Y-104452380D01*
X131295238Y-103452380D01*
X131771428Y-103452380D01*
X132533333Y-103928571D02*
X132200000Y-103928571D01*
X132200000Y-104452380D02*
X132200000Y-103452380D01*
X132676190Y-103452380D01*
X133200000Y-103452380D02*
X133200000Y-103690476D01*
X132961904Y-103595238D02*
X133200000Y-103690476D01*
X133438095Y-103595238D01*
X133057142Y-103880952D02*
X133200000Y-103690476D01*
X133342857Y-103880952D01*
X133961904Y-103452380D02*
X133961904Y-103690476D01*
X133723809Y-103595238D02*
X133961904Y-103690476D01*
X134200000Y-103595238D01*
X133819047Y-103880952D02*
X133961904Y-103690476D01*
X134104761Y-103880952D01*
%TO.C,U2*%
X172238095Y-84052380D02*
X172238095Y-84861904D01*
X172285714Y-84957142D01*
X172333333Y-85004761D01*
X172428571Y-85052380D01*
X172619047Y-85052380D01*
X172714285Y-85004761D01*
X172761904Y-84957142D01*
X172809523Y-84861904D01*
X172809523Y-84052380D01*
X173238095Y-84147619D02*
X173285714Y-84100000D01*
X173380952Y-84052380D01*
X173619047Y-84052380D01*
X173714285Y-84100000D01*
X173761904Y-84147619D01*
X173809523Y-84242857D01*
X173809523Y-84338095D01*
X173761904Y-84480952D01*
X173190476Y-85052380D01*
X173809523Y-85052380D01*
%TO.C,C21*%
X175157142Y-76442857D02*
X175204761Y-76490476D01*
X175252380Y-76633333D01*
X175252380Y-76728571D01*
X175204761Y-76871428D01*
X175109523Y-76966666D01*
X175014285Y-77014285D01*
X174823809Y-77061904D01*
X174680952Y-77061904D01*
X174490476Y-77014285D01*
X174395238Y-76966666D01*
X174300000Y-76871428D01*
X174252380Y-76728571D01*
X174252380Y-76633333D01*
X174300000Y-76490476D01*
X174347619Y-76442857D01*
X174347619Y-76061904D02*
X174300000Y-76014285D01*
X174252380Y-75919047D01*
X174252380Y-75680952D01*
X174300000Y-75585714D01*
X174347619Y-75538095D01*
X174442857Y-75490476D01*
X174538095Y-75490476D01*
X174680952Y-75538095D01*
X175252380Y-76109523D01*
X175252380Y-75490476D01*
X175252380Y-74538095D02*
X175252380Y-75109523D01*
X175252380Y-74823809D02*
X174252380Y-74823809D01*
X174395238Y-74919047D01*
X174490476Y-75014285D01*
X174538095Y-75109523D01*
%TO.C,R3*%
X168720833Y-86822380D02*
X168387500Y-86346190D01*
X168149404Y-86822380D02*
X168149404Y-85822380D01*
X168530357Y-85822380D01*
X168625595Y-85870000D01*
X168673214Y-85917619D01*
X168720833Y-86012857D01*
X168720833Y-86155714D01*
X168673214Y-86250952D01*
X168625595Y-86298571D01*
X168530357Y-86346190D01*
X168149404Y-86346190D01*
X169054166Y-85822380D02*
X169673214Y-85822380D01*
X169339880Y-86203333D01*
X169482738Y-86203333D01*
X169577976Y-86250952D01*
X169625595Y-86298571D01*
X169673214Y-86393809D01*
X169673214Y-86631904D01*
X169625595Y-86727142D01*
X169577976Y-86774761D01*
X169482738Y-86822380D01*
X169197023Y-86822380D01*
X169101785Y-86774761D01*
X169054166Y-86727142D01*
%TO.C,R8*%
X166233333Y-84652380D02*
X165900000Y-84176190D01*
X165661904Y-84652380D02*
X165661904Y-83652380D01*
X166042857Y-83652380D01*
X166138095Y-83700000D01*
X166185714Y-83747619D01*
X166233333Y-83842857D01*
X166233333Y-83985714D01*
X166185714Y-84080952D01*
X166138095Y-84128571D01*
X166042857Y-84176190D01*
X165661904Y-84176190D01*
X166804761Y-84080952D02*
X166709523Y-84033333D01*
X166661904Y-83985714D01*
X166614285Y-83890476D01*
X166614285Y-83842857D01*
X166661904Y-83747619D01*
X166709523Y-83700000D01*
X166804761Y-83652380D01*
X166995238Y-83652380D01*
X167090476Y-83700000D01*
X167138095Y-83747619D01*
X167185714Y-83842857D01*
X167185714Y-83890476D01*
X167138095Y-83985714D01*
X167090476Y-84033333D01*
X166995238Y-84080952D01*
X166804761Y-84080952D01*
X166709523Y-84128571D01*
X166661904Y-84176190D01*
X166614285Y-84271428D01*
X166614285Y-84461904D01*
X166661904Y-84557142D01*
X166709523Y-84604761D01*
X166804761Y-84652380D01*
X166995238Y-84652380D01*
X167090476Y-84604761D01*
X167138095Y-84557142D01*
X167185714Y-84461904D01*
X167185714Y-84271428D01*
X167138095Y-84176190D01*
X167090476Y-84128571D01*
X166995238Y-84080952D01*
%TO.C,C3*%
X154583333Y-73897142D02*
X154535714Y-73944761D01*
X154392857Y-73992380D01*
X154297619Y-73992380D01*
X154154761Y-73944761D01*
X154059523Y-73849523D01*
X154011904Y-73754285D01*
X153964285Y-73563809D01*
X153964285Y-73420952D01*
X154011904Y-73230476D01*
X154059523Y-73135238D01*
X154154761Y-73040000D01*
X154297619Y-72992380D01*
X154392857Y-72992380D01*
X154535714Y-73040000D01*
X154583333Y-73087619D01*
X154916666Y-72992380D02*
X155535714Y-72992380D01*
X155202380Y-73373333D01*
X155345238Y-73373333D01*
X155440476Y-73420952D01*
X155488095Y-73468571D01*
X155535714Y-73563809D01*
X155535714Y-73801904D01*
X155488095Y-73897142D01*
X155440476Y-73944761D01*
X155345238Y-73992380D01*
X155059523Y-73992380D01*
X154964285Y-73944761D01*
X154916666Y-73897142D01*
%TO.C,R10*%
X171682380Y-104930357D02*
X171206190Y-105263690D01*
X171682380Y-105501785D02*
X170682380Y-105501785D01*
X170682380Y-105120833D01*
X170730000Y-105025595D01*
X170777619Y-104977976D01*
X170872857Y-104930357D01*
X171015714Y-104930357D01*
X171110952Y-104977976D01*
X171158571Y-105025595D01*
X171206190Y-105120833D01*
X171206190Y-105501785D01*
X171682380Y-103977976D02*
X171682380Y-104549404D01*
X171682380Y-104263690D02*
X170682380Y-104263690D01*
X170825238Y-104358928D01*
X170920476Y-104454166D01*
X170968095Y-104549404D01*
X170682380Y-103358928D02*
X170682380Y-103263690D01*
X170730000Y-103168452D01*
X170777619Y-103120833D01*
X170872857Y-103073214D01*
X171063333Y-103025595D01*
X171301428Y-103025595D01*
X171491904Y-103073214D01*
X171587142Y-103120833D01*
X171634761Y-103168452D01*
X171682380Y-103263690D01*
X171682380Y-103358928D01*
X171634761Y-103454166D01*
X171587142Y-103501785D01*
X171491904Y-103549404D01*
X171301428Y-103597023D01*
X171063333Y-103597023D01*
X170872857Y-103549404D01*
X170777619Y-103501785D01*
X170730000Y-103454166D01*
X170682380Y-103358928D01*
%TO.C,U3*%
X180588095Y-90634880D02*
X180588095Y-91444404D01*
X180635714Y-91539642D01*
X180683333Y-91587261D01*
X180778571Y-91634880D01*
X180969047Y-91634880D01*
X181064285Y-91587261D01*
X181111904Y-91539642D01*
X181159523Y-91444404D01*
X181159523Y-90634880D01*
X181540476Y-90634880D02*
X182159523Y-90634880D01*
X181826190Y-91015833D01*
X181969047Y-91015833D01*
X182064285Y-91063452D01*
X182111904Y-91111071D01*
X182159523Y-91206309D01*
X182159523Y-91444404D01*
X182111904Y-91539642D01*
X182064285Y-91587261D01*
X181969047Y-91634880D01*
X181683333Y-91634880D01*
X181588095Y-91587261D01*
X181540476Y-91539642D01*
%TO.C,R15*%
X204357142Y-85052380D02*
X204023809Y-84576190D01*
X203785714Y-85052380D02*
X203785714Y-84052380D01*
X204166666Y-84052380D01*
X204261904Y-84100000D01*
X204309523Y-84147619D01*
X204357142Y-84242857D01*
X204357142Y-84385714D01*
X204309523Y-84480952D01*
X204261904Y-84528571D01*
X204166666Y-84576190D01*
X203785714Y-84576190D01*
X205309523Y-85052380D02*
X204738095Y-85052380D01*
X205023809Y-85052380D02*
X205023809Y-84052380D01*
X204928571Y-84195238D01*
X204833333Y-84290476D01*
X204738095Y-84338095D01*
X206214285Y-84052380D02*
X205738095Y-84052380D01*
X205690476Y-84528571D01*
X205738095Y-84480952D01*
X205833333Y-84433333D01*
X206071428Y-84433333D01*
X206166666Y-84480952D01*
X206214285Y-84528571D01*
X206261904Y-84623809D01*
X206261904Y-84861904D01*
X206214285Y-84957142D01*
X206166666Y-85004761D01*
X206071428Y-85052380D01*
X205833333Y-85052380D01*
X205738095Y-85004761D01*
X205690476Y-84957142D01*
%TO.C,J2*%
X145402380Y-108933333D02*
X146116666Y-108933333D01*
X146259523Y-108980952D01*
X146354761Y-109076190D01*
X146402380Y-109219047D01*
X146402380Y-109314285D01*
X145497619Y-108504761D02*
X145450000Y-108457142D01*
X145402380Y-108361904D01*
X145402380Y-108123809D01*
X145450000Y-108028571D01*
X145497619Y-107980952D01*
X145592857Y-107933333D01*
X145688095Y-107933333D01*
X145830952Y-107980952D01*
X146402380Y-108552380D01*
X146402380Y-107933333D01*
%TO.C,TP1*%
X192214880Y-68061904D02*
X192214880Y-67490476D01*
X193214880Y-67776190D02*
X192214880Y-67776190D01*
X193214880Y-67157142D02*
X192214880Y-67157142D01*
X192214880Y-66776190D01*
X192262500Y-66680952D01*
X192310119Y-66633333D01*
X192405357Y-66585714D01*
X192548214Y-66585714D01*
X192643452Y-66633333D01*
X192691071Y-66680952D01*
X192738690Y-66776190D01*
X192738690Y-67157142D01*
X193214880Y-65633333D02*
X193214880Y-66204761D01*
X193214880Y-65919047D02*
X192214880Y-65919047D01*
X192357738Y-66014285D01*
X192452976Y-66109523D01*
X192500595Y-66204761D01*
%TO.C,TP2*%
X159538095Y-81202380D02*
X160109523Y-81202380D01*
X159823809Y-82202380D02*
X159823809Y-81202380D01*
X160442857Y-82202380D02*
X160442857Y-81202380D01*
X160823809Y-81202380D01*
X160919047Y-81250000D01*
X160966666Y-81297619D01*
X161014285Y-81392857D01*
X161014285Y-81535714D01*
X160966666Y-81630952D01*
X160919047Y-81678571D01*
X160823809Y-81726190D01*
X160442857Y-81726190D01*
X161395238Y-81297619D02*
X161442857Y-81250000D01*
X161538095Y-81202380D01*
X161776190Y-81202380D01*
X161871428Y-81250000D01*
X161919047Y-81297619D01*
X161966666Y-81392857D01*
X161966666Y-81488095D01*
X161919047Y-81630952D01*
X161347619Y-82202380D01*
X161966666Y-82202380D01*
%TO.C,C4*%
X136157142Y-80966666D02*
X136204761Y-81014285D01*
X136252380Y-81157142D01*
X136252380Y-81252380D01*
X136204761Y-81395238D01*
X136109523Y-81490476D01*
X136014285Y-81538095D01*
X135823809Y-81585714D01*
X135680952Y-81585714D01*
X135490476Y-81538095D01*
X135395238Y-81490476D01*
X135300000Y-81395238D01*
X135252380Y-81252380D01*
X135252380Y-81157142D01*
X135300000Y-81014285D01*
X135347619Y-80966666D01*
X135585714Y-80109523D02*
X136252380Y-80109523D01*
X135204761Y-80347619D02*
X135919047Y-80585714D01*
X135919047Y-79966666D01*
%TO.C,C22*%
X181527142Y-77780356D02*
X181574761Y-77827975D01*
X181622380Y-77970832D01*
X181622380Y-78066070D01*
X181574761Y-78208927D01*
X181479523Y-78304165D01*
X181384285Y-78351784D01*
X181193809Y-78399403D01*
X181050952Y-78399403D01*
X180860476Y-78351784D01*
X180765238Y-78304165D01*
X180670000Y-78208927D01*
X180622380Y-78066070D01*
X180622380Y-77970832D01*
X180670000Y-77827975D01*
X180717619Y-77780356D01*
X180717619Y-77399403D02*
X180670000Y-77351784D01*
X180622380Y-77256546D01*
X180622380Y-77018451D01*
X180670000Y-76923213D01*
X180717619Y-76875594D01*
X180812857Y-76827975D01*
X180908095Y-76827975D01*
X181050952Y-76875594D01*
X181622380Y-77447022D01*
X181622380Y-76827975D01*
X180717619Y-76447022D02*
X180670000Y-76399403D01*
X180622380Y-76304165D01*
X180622380Y-76066070D01*
X180670000Y-75970832D01*
X180717619Y-75923213D01*
X180812857Y-75875594D01*
X180908095Y-75875594D01*
X181050952Y-75923213D01*
X181622380Y-76494641D01*
X181622380Y-75875594D01*
%TO.C,C5*%
X142033333Y-92357142D02*
X141985714Y-92404761D01*
X141842857Y-92452380D01*
X141747619Y-92452380D01*
X141604761Y-92404761D01*
X141509523Y-92309523D01*
X141461904Y-92214285D01*
X141414285Y-92023809D01*
X141414285Y-91880952D01*
X141461904Y-91690476D01*
X141509523Y-91595238D01*
X141604761Y-91500000D01*
X141747619Y-91452380D01*
X141842857Y-91452380D01*
X141985714Y-91500000D01*
X142033333Y-91547619D01*
X142938095Y-91452380D02*
X142461904Y-91452380D01*
X142414285Y-91928571D01*
X142461904Y-91880952D01*
X142557142Y-91833333D01*
X142795238Y-91833333D01*
X142890476Y-91880952D01*
X142938095Y-91928571D01*
X142985714Y-92023809D01*
X142985714Y-92261904D01*
X142938095Y-92357142D01*
X142890476Y-92404761D01*
X142795238Y-92452380D01*
X142557142Y-92452380D01*
X142461904Y-92404761D01*
X142414285Y-92357142D01*
%TO.C,C12*%
X184894641Y-73787142D02*
X184847022Y-73834761D01*
X184704165Y-73882380D01*
X184608927Y-73882380D01*
X184466070Y-73834761D01*
X184370832Y-73739523D01*
X184323213Y-73644285D01*
X184275594Y-73453809D01*
X184275594Y-73310952D01*
X184323213Y-73120476D01*
X184370832Y-73025238D01*
X184466070Y-72930000D01*
X184608927Y-72882380D01*
X184704165Y-72882380D01*
X184847022Y-72930000D01*
X184894641Y-72977619D01*
X185847022Y-73882380D02*
X185275594Y-73882380D01*
X185561308Y-73882380D02*
X185561308Y-72882380D01*
X185466070Y-73025238D01*
X185370832Y-73120476D01*
X185275594Y-73168095D01*
X186227975Y-72977619D02*
X186275594Y-72930000D01*
X186370832Y-72882380D01*
X186608927Y-72882380D01*
X186704165Y-72930000D01*
X186751784Y-72977619D01*
X186799403Y-73072857D01*
X186799403Y-73168095D01*
X186751784Y-73310952D01*
X186180356Y-73882380D01*
X186799403Y-73882380D01*
%TO.C,U6*%
X165438095Y-81252380D02*
X165438095Y-82061904D01*
X165485714Y-82157142D01*
X165533333Y-82204761D01*
X165628571Y-82252380D01*
X165819047Y-82252380D01*
X165914285Y-82204761D01*
X165961904Y-82157142D01*
X166009523Y-82061904D01*
X166009523Y-81252380D01*
X166914285Y-81252380D02*
X166723809Y-81252380D01*
X166628571Y-81300000D01*
X166580952Y-81347619D01*
X166485714Y-81490476D01*
X166438095Y-81680952D01*
X166438095Y-82061904D01*
X166485714Y-82157142D01*
X166533333Y-82204761D01*
X166628571Y-82252380D01*
X166819047Y-82252380D01*
X166914285Y-82204761D01*
X166961904Y-82157142D01*
X167009523Y-82061904D01*
X167009523Y-81823809D01*
X166961904Y-81728571D01*
X166914285Y-81680952D01*
X166819047Y-81633333D01*
X166628571Y-81633333D01*
X166533333Y-81680952D01*
X166485714Y-81728571D01*
X166438095Y-81823809D01*
%TO.C,C2*%
X142033333Y-94757142D02*
X141985714Y-94804761D01*
X141842857Y-94852380D01*
X141747619Y-94852380D01*
X141604761Y-94804761D01*
X141509523Y-94709523D01*
X141461904Y-94614285D01*
X141414285Y-94423809D01*
X141414285Y-94280952D01*
X141461904Y-94090476D01*
X141509523Y-93995238D01*
X141604761Y-93900000D01*
X141747619Y-93852380D01*
X141842857Y-93852380D01*
X141985714Y-93900000D01*
X142033333Y-93947619D01*
X142414285Y-93947619D02*
X142461904Y-93900000D01*
X142557142Y-93852380D01*
X142795238Y-93852380D01*
X142890476Y-93900000D01*
X142938095Y-93947619D01*
X142985714Y-94042857D01*
X142985714Y-94138095D01*
X142938095Y-94280952D01*
X142366666Y-94852380D01*
X142985714Y-94852380D01*
%TO.C,REF\u002A\u002A*%
X130866666Y-52652380D02*
X130533333Y-52176190D01*
X130295238Y-52652380D02*
X130295238Y-51652380D01*
X130676190Y-51652380D01*
X130771428Y-51700000D01*
X130819047Y-51747619D01*
X130866666Y-51842857D01*
X130866666Y-51985714D01*
X130819047Y-52080952D01*
X130771428Y-52128571D01*
X130676190Y-52176190D01*
X130295238Y-52176190D01*
X131295238Y-52128571D02*
X131628571Y-52128571D01*
X131771428Y-52652380D02*
X131295238Y-52652380D01*
X131295238Y-51652380D01*
X131771428Y-51652380D01*
X132533333Y-52128571D02*
X132200000Y-52128571D01*
X132200000Y-52652380D02*
X132200000Y-51652380D01*
X132676190Y-51652380D01*
X133200000Y-51652380D02*
X133200000Y-51890476D01*
X132961904Y-51795238D02*
X133200000Y-51890476D01*
X133438095Y-51795238D01*
X133057142Y-52080952D02*
X133200000Y-51890476D01*
X133342857Y-52080952D01*
X133961904Y-51652380D02*
X133961904Y-51890476D01*
X133723809Y-51795238D02*
X133961904Y-51890476D01*
X134200000Y-51795238D01*
X133819047Y-52080952D02*
X133961904Y-51890476D01*
X134104761Y-52080952D01*
%TO.C,C10*%
X202957142Y-71642857D02*
X203004761Y-71690476D01*
X203052380Y-71833333D01*
X203052380Y-71928571D01*
X203004761Y-72071428D01*
X202909523Y-72166666D01*
X202814285Y-72214285D01*
X202623809Y-72261904D01*
X202480952Y-72261904D01*
X202290476Y-72214285D01*
X202195238Y-72166666D01*
X202100000Y-72071428D01*
X202052380Y-71928571D01*
X202052380Y-71833333D01*
X202100000Y-71690476D01*
X202147619Y-71642857D01*
X203052380Y-70690476D02*
X203052380Y-71261904D01*
X203052380Y-70976190D02*
X202052380Y-70976190D01*
X202195238Y-71071428D01*
X202290476Y-71166666D01*
X202338095Y-71261904D01*
X202052380Y-70071428D02*
X202052380Y-69976190D01*
X202100000Y-69880952D01*
X202147619Y-69833333D01*
X202242857Y-69785714D01*
X202433333Y-69738095D01*
X202671428Y-69738095D01*
X202861904Y-69785714D01*
X202957142Y-69833333D01*
X203004761Y-69880952D01*
X203052380Y-69976190D01*
X203052380Y-70071428D01*
X203004761Y-70166666D01*
X202957142Y-70214285D01*
X202861904Y-70261904D01*
X202671428Y-70309523D01*
X202433333Y-70309523D01*
X202242857Y-70261904D01*
X202147619Y-70214285D01*
X202100000Y-70166666D01*
X202052380Y-70071428D01*
%TO.C,C17*%
X176557142Y-68357142D02*
X176509523Y-68404761D01*
X176366666Y-68452380D01*
X176271428Y-68452380D01*
X176128571Y-68404761D01*
X176033333Y-68309523D01*
X175985714Y-68214285D01*
X175938095Y-68023809D01*
X175938095Y-67880952D01*
X175985714Y-67690476D01*
X176033333Y-67595238D01*
X176128571Y-67500000D01*
X176271428Y-67452380D01*
X176366666Y-67452380D01*
X176509523Y-67500000D01*
X176557142Y-67547619D01*
X177509523Y-68452380D02*
X176938095Y-68452380D01*
X177223809Y-68452380D02*
X177223809Y-67452380D01*
X177128571Y-67595238D01*
X177033333Y-67690476D01*
X176938095Y-67738095D01*
X177842857Y-67452380D02*
X178509523Y-67452380D01*
X178080952Y-68452380D01*
%TO.C,J1*%
X132266666Y-68922380D02*
X132266666Y-69636666D01*
X132219047Y-69779523D01*
X132123809Y-69874761D01*
X131980952Y-69922380D01*
X131885714Y-69922380D01*
X133266666Y-69922380D02*
X132695238Y-69922380D01*
X132980952Y-69922380D02*
X132980952Y-68922380D01*
X132885714Y-69065238D01*
X132790476Y-69160476D01*
X132695238Y-69208095D01*
%TO.C,R2*%
X165633333Y-90052380D02*
X165300000Y-89576190D01*
X165061904Y-90052380D02*
X165061904Y-89052380D01*
X165442857Y-89052380D01*
X165538095Y-89100000D01*
X165585714Y-89147619D01*
X165633333Y-89242857D01*
X165633333Y-89385714D01*
X165585714Y-89480952D01*
X165538095Y-89528571D01*
X165442857Y-89576190D01*
X165061904Y-89576190D01*
X166014285Y-89147619D02*
X166061904Y-89100000D01*
X166157142Y-89052380D01*
X166395238Y-89052380D01*
X166490476Y-89100000D01*
X166538095Y-89147619D01*
X166585714Y-89242857D01*
X166585714Y-89338095D01*
X166538095Y-89480952D01*
X165966666Y-90052380D01*
X166585714Y-90052380D01*
%TO.C,C20*%
X191557142Y-81957142D02*
X191509523Y-82004761D01*
X191366666Y-82052380D01*
X191271428Y-82052380D01*
X191128571Y-82004761D01*
X191033333Y-81909523D01*
X190985714Y-81814285D01*
X190938095Y-81623809D01*
X190938095Y-81480952D01*
X190985714Y-81290476D01*
X191033333Y-81195238D01*
X191128571Y-81100000D01*
X191271428Y-81052380D01*
X191366666Y-81052380D01*
X191509523Y-81100000D01*
X191557142Y-81147619D01*
X191938095Y-81147619D02*
X191985714Y-81100000D01*
X192080952Y-81052380D01*
X192319047Y-81052380D01*
X192414285Y-81100000D01*
X192461904Y-81147619D01*
X192509523Y-81242857D01*
X192509523Y-81338095D01*
X192461904Y-81480952D01*
X191890476Y-82052380D01*
X192509523Y-82052380D01*
X193128571Y-81052380D02*
X193223809Y-81052380D01*
X193319047Y-81100000D01*
X193366666Y-81147619D01*
X193414285Y-81242857D01*
X193461904Y-81433333D01*
X193461904Y-81671428D01*
X193414285Y-81861904D01*
X193366666Y-81957142D01*
X193319047Y-82004761D01*
X193223809Y-82052380D01*
X193128571Y-82052380D01*
X193033333Y-82004761D01*
X192985714Y-81957142D01*
X192938095Y-81861904D01*
X192890476Y-81671428D01*
X192890476Y-81433333D01*
X192938095Y-81242857D01*
X192985714Y-81147619D01*
X193033333Y-81100000D01*
X193128571Y-81052380D01*
%TO.C,C19*%
X178127142Y-77780356D02*
X178174761Y-77827975D01*
X178222380Y-77970832D01*
X178222380Y-78066070D01*
X178174761Y-78208927D01*
X178079523Y-78304165D01*
X177984285Y-78351784D01*
X177793809Y-78399403D01*
X177650952Y-78399403D01*
X177460476Y-78351784D01*
X177365238Y-78304165D01*
X177270000Y-78208927D01*
X177222380Y-78066070D01*
X177222380Y-77970832D01*
X177270000Y-77827975D01*
X177317619Y-77780356D01*
X178222380Y-76827975D02*
X178222380Y-77399403D01*
X178222380Y-77113689D02*
X177222380Y-77113689D01*
X177365238Y-77208927D01*
X177460476Y-77304165D01*
X177508095Y-77399403D01*
X178222380Y-76351784D02*
X178222380Y-76161308D01*
X178174761Y-76066070D01*
X178127142Y-76018451D01*
X177984285Y-75923213D01*
X177793809Y-75875594D01*
X177412857Y-75875594D01*
X177317619Y-75923213D01*
X177270000Y-75970832D01*
X177222380Y-76066070D01*
X177222380Y-76256546D01*
X177270000Y-76351784D01*
X177317619Y-76399403D01*
X177412857Y-76447022D01*
X177650952Y-76447022D01*
X177746190Y-76399403D01*
X177793809Y-76351784D01*
X177841428Y-76256546D01*
X177841428Y-76066070D01*
X177793809Y-75970832D01*
X177746190Y-75923213D01*
X177650952Y-75875594D01*
%TO.C,C6*%
X134557142Y-80966666D02*
X134604761Y-81014285D01*
X134652380Y-81157142D01*
X134652380Y-81252380D01*
X134604761Y-81395238D01*
X134509523Y-81490476D01*
X134414285Y-81538095D01*
X134223809Y-81585714D01*
X134080952Y-81585714D01*
X133890476Y-81538095D01*
X133795238Y-81490476D01*
X133700000Y-81395238D01*
X133652380Y-81252380D01*
X133652380Y-81157142D01*
X133700000Y-81014285D01*
X133747619Y-80966666D01*
X133652380Y-80109523D02*
X133652380Y-80300000D01*
X133700000Y-80395238D01*
X133747619Y-80442857D01*
X133890476Y-80538095D01*
X134080952Y-80585714D01*
X134461904Y-80585714D01*
X134557142Y-80538095D01*
X134604761Y-80490476D01*
X134652380Y-80395238D01*
X134652380Y-80204761D01*
X134604761Y-80109523D01*
X134557142Y-80061904D01*
X134461904Y-80014285D01*
X134223809Y-80014285D01*
X134128571Y-80061904D01*
X134080952Y-80109523D01*
X134033333Y-80204761D01*
X134033333Y-80395238D01*
X134080952Y-80490476D01*
X134128571Y-80538095D01*
X134223809Y-80585714D01*
%TO.C,R14*%
X204357142Y-86652380D02*
X204023809Y-86176190D01*
X203785714Y-86652380D02*
X203785714Y-85652380D01*
X204166666Y-85652380D01*
X204261904Y-85700000D01*
X204309523Y-85747619D01*
X204357142Y-85842857D01*
X204357142Y-85985714D01*
X204309523Y-86080952D01*
X204261904Y-86128571D01*
X204166666Y-86176190D01*
X203785714Y-86176190D01*
X205309523Y-86652380D02*
X204738095Y-86652380D01*
X205023809Y-86652380D02*
X205023809Y-85652380D01*
X204928571Y-85795238D01*
X204833333Y-85890476D01*
X204738095Y-85938095D01*
X206166666Y-85985714D02*
X206166666Y-86652380D01*
X205928571Y-85604761D02*
X205690476Y-86319047D01*
X206309523Y-86319047D01*
%TO.C,U9*%
X181438095Y-71052380D02*
X181438095Y-71861904D01*
X181485714Y-71957142D01*
X181533333Y-72004761D01*
X181628571Y-72052380D01*
X181819047Y-72052380D01*
X181914285Y-72004761D01*
X181961904Y-71957142D01*
X182009523Y-71861904D01*
X182009523Y-71052380D01*
X182533333Y-72052380D02*
X182723809Y-72052380D01*
X182819047Y-72004761D01*
X182866666Y-71957142D01*
X182961904Y-71814285D01*
X183009523Y-71623809D01*
X183009523Y-71242857D01*
X182961904Y-71147619D01*
X182914285Y-71100000D01*
X182819047Y-71052380D01*
X182628571Y-71052380D01*
X182533333Y-71100000D01*
X182485714Y-71147619D01*
X182438095Y-71242857D01*
X182438095Y-71480952D01*
X182485714Y-71576190D01*
X182533333Y-71623809D01*
X182628571Y-71671428D01*
X182819047Y-71671428D01*
X182914285Y-71623809D01*
X182961904Y-71576190D01*
X183009523Y-71480952D01*
%TO.C,U5*%
X195388096Y-81334880D02*
X195388096Y-82144404D01*
X195435715Y-82239642D01*
X195483334Y-82287261D01*
X195578572Y-82334880D01*
X195769048Y-82334880D01*
X195864286Y-82287261D01*
X195911905Y-82239642D01*
X195959524Y-82144404D01*
X195959524Y-81334880D01*
X196911905Y-81334880D02*
X196435715Y-81334880D01*
X196388096Y-81811071D01*
X196435715Y-81763452D01*
X196530953Y-81715833D01*
X196769048Y-81715833D01*
X196864286Y-81763452D01*
X196911905Y-81811071D01*
X196959524Y-81906309D01*
X196959524Y-82144404D01*
X196911905Y-82239642D01*
X196864286Y-82287261D01*
X196769048Y-82334880D01*
X196530953Y-82334880D01*
X196435715Y-82287261D01*
X196388096Y-82239642D01*
%TO.C,R13*%
X201069642Y-91852380D02*
X200736309Y-91376190D01*
X200498214Y-91852380D02*
X200498214Y-90852380D01*
X200879166Y-90852380D01*
X200974404Y-90900000D01*
X201022023Y-90947619D01*
X201069642Y-91042857D01*
X201069642Y-91185714D01*
X201022023Y-91280952D01*
X200974404Y-91328571D01*
X200879166Y-91376190D01*
X200498214Y-91376190D01*
X202022023Y-91852380D02*
X201450595Y-91852380D01*
X201736309Y-91852380D02*
X201736309Y-90852380D01*
X201641071Y-90995238D01*
X201545833Y-91090476D01*
X201450595Y-91138095D01*
X202355357Y-90852380D02*
X202974404Y-90852380D01*
X202641071Y-91233333D01*
X202783928Y-91233333D01*
X202879166Y-91280952D01*
X202926785Y-91328571D01*
X202974404Y-91423809D01*
X202974404Y-91661904D01*
X202926785Y-91757142D01*
X202879166Y-91804761D01*
X202783928Y-91852380D01*
X202498214Y-91852380D01*
X202402976Y-91804761D01*
X202355357Y-91757142D01*
%TO.C,U7*%
X187252380Y-77161904D02*
X188061904Y-77161904D01*
X188157142Y-77114285D01*
X188204761Y-77066666D01*
X188252380Y-76971428D01*
X188252380Y-76780952D01*
X188204761Y-76685714D01*
X188157142Y-76638095D01*
X188061904Y-76590476D01*
X187252380Y-76590476D01*
X187252380Y-76209523D02*
X187252380Y-75542857D01*
X188252380Y-75971428D01*
%TO.C,R16*%
X196357142Y-73252380D02*
X196023809Y-72776190D01*
X195785714Y-73252380D02*
X195785714Y-72252380D01*
X196166666Y-72252380D01*
X196261904Y-72300000D01*
X196309523Y-72347619D01*
X196357142Y-72442857D01*
X196357142Y-72585714D01*
X196309523Y-72680952D01*
X196261904Y-72728571D01*
X196166666Y-72776190D01*
X195785714Y-72776190D01*
X197309523Y-73252380D02*
X196738095Y-73252380D01*
X197023809Y-73252380D02*
X197023809Y-72252380D01*
X196928571Y-72395238D01*
X196833333Y-72490476D01*
X196738095Y-72538095D01*
X198166666Y-72252380D02*
X197976190Y-72252380D01*
X197880952Y-72300000D01*
X197833333Y-72347619D01*
X197738095Y-72490476D01*
X197690476Y-72680952D01*
X197690476Y-73061904D01*
X197738095Y-73157142D01*
X197785714Y-73204761D01*
X197880952Y-73252380D01*
X198071428Y-73252380D01*
X198166666Y-73204761D01*
X198214285Y-73157142D01*
X198261904Y-73061904D01*
X198261904Y-72823809D01*
X198214285Y-72728571D01*
X198166666Y-72680952D01*
X198071428Y-72633333D01*
X197880952Y-72633333D01*
X197785714Y-72680952D01*
X197738095Y-72728571D01*
X197690476Y-72823809D01*
%TO.C,J3*%
X206626666Y-98259880D02*
X206626666Y-98974166D01*
X206579047Y-99117023D01*
X206483809Y-99212261D01*
X206340952Y-99259880D01*
X206245714Y-99259880D01*
X207007619Y-98259880D02*
X207626666Y-98259880D01*
X207293333Y-98640833D01*
X207436190Y-98640833D01*
X207531428Y-98688452D01*
X207579047Y-98736071D01*
X207626666Y-98831309D01*
X207626666Y-99069404D01*
X207579047Y-99164642D01*
X207531428Y-99212261D01*
X207436190Y-99259880D01*
X207150476Y-99259880D01*
X207055238Y-99212261D01*
X207007619Y-99164642D01*
%TO.C,C18*%
X188219642Y-80927142D02*
X188172023Y-80974761D01*
X188029166Y-81022380D01*
X187933928Y-81022380D01*
X187791071Y-80974761D01*
X187695833Y-80879523D01*
X187648214Y-80784285D01*
X187600595Y-80593809D01*
X187600595Y-80450952D01*
X187648214Y-80260476D01*
X187695833Y-80165238D01*
X187791071Y-80070000D01*
X187933928Y-80022380D01*
X188029166Y-80022380D01*
X188172023Y-80070000D01*
X188219642Y-80117619D01*
X189172023Y-81022380D02*
X188600595Y-81022380D01*
X188886309Y-81022380D02*
X188886309Y-80022380D01*
X188791071Y-80165238D01*
X188695833Y-80260476D01*
X188600595Y-80308095D01*
X189743452Y-80450952D02*
X189648214Y-80403333D01*
X189600595Y-80355714D01*
X189552976Y-80260476D01*
X189552976Y-80212857D01*
X189600595Y-80117619D01*
X189648214Y-80070000D01*
X189743452Y-80022380D01*
X189933928Y-80022380D01*
X190029166Y-80070000D01*
X190076785Y-80117619D01*
X190124404Y-80212857D01*
X190124404Y-80260476D01*
X190076785Y-80355714D01*
X190029166Y-80403333D01*
X189933928Y-80450952D01*
X189743452Y-80450952D01*
X189648214Y-80498571D01*
X189600595Y-80546190D01*
X189552976Y-80641428D01*
X189552976Y-80831904D01*
X189600595Y-80927142D01*
X189648214Y-80974761D01*
X189743452Y-81022380D01*
X189933928Y-81022380D01*
X190029166Y-80974761D01*
X190076785Y-80927142D01*
X190124404Y-80831904D01*
X190124404Y-80641428D01*
X190076785Y-80546190D01*
X190029166Y-80498571D01*
X189933928Y-80450952D01*
%TO.C,R1*%
X174720833Y-93422380D02*
X174387500Y-92946190D01*
X174149404Y-93422380D02*
X174149404Y-92422380D01*
X174530357Y-92422380D01*
X174625595Y-92470000D01*
X174673214Y-92517619D01*
X174720833Y-92612857D01*
X174720833Y-92755714D01*
X174673214Y-92850952D01*
X174625595Y-92898571D01*
X174530357Y-92946190D01*
X174149404Y-92946190D01*
X175673214Y-93422380D02*
X175101785Y-93422380D01*
X175387500Y-93422380D02*
X175387500Y-92422380D01*
X175292261Y-92565238D01*
X175197023Y-92660476D01*
X175101785Y-92708095D01*
%TO.C,C7*%
X139357142Y-80966666D02*
X139404761Y-81014285D01*
X139452380Y-81157142D01*
X139452380Y-81252380D01*
X139404761Y-81395238D01*
X139309523Y-81490476D01*
X139214285Y-81538095D01*
X139023809Y-81585714D01*
X138880952Y-81585714D01*
X138690476Y-81538095D01*
X138595238Y-81490476D01*
X138500000Y-81395238D01*
X138452380Y-81252380D01*
X138452380Y-81157142D01*
X138500000Y-81014285D01*
X138547619Y-80966666D01*
X138452380Y-80633333D02*
X138452380Y-79966666D01*
X139452380Y-80395238D01*
%TO.C,R12*%
X194282380Y-94155357D02*
X193806190Y-94488690D01*
X194282380Y-94726785D02*
X193282380Y-94726785D01*
X193282380Y-94345833D01*
X193330000Y-94250595D01*
X193377619Y-94202976D01*
X193472857Y-94155357D01*
X193615714Y-94155357D01*
X193710952Y-94202976D01*
X193758571Y-94250595D01*
X193806190Y-94345833D01*
X193806190Y-94726785D01*
X194282380Y-93202976D02*
X194282380Y-93774404D01*
X194282380Y-93488690D02*
X193282380Y-93488690D01*
X193425238Y-93583928D01*
X193520476Y-93679166D01*
X193568095Y-93774404D01*
X193377619Y-92822023D02*
X193330000Y-92774404D01*
X193282380Y-92679166D01*
X193282380Y-92441071D01*
X193330000Y-92345833D01*
X193377619Y-92298214D01*
X193472857Y-92250595D01*
X193568095Y-92250595D01*
X193710952Y-92298214D01*
X194282380Y-92869642D01*
X194282380Y-92250595D01*
%TO.C,C9*%
X192633333Y-70757142D02*
X192585714Y-70804761D01*
X192442857Y-70852380D01*
X192347619Y-70852380D01*
X192204761Y-70804761D01*
X192109523Y-70709523D01*
X192061904Y-70614285D01*
X192014285Y-70423809D01*
X192014285Y-70280952D01*
X192061904Y-70090476D01*
X192109523Y-69995238D01*
X192204761Y-69900000D01*
X192347619Y-69852380D01*
X192442857Y-69852380D01*
X192585714Y-69900000D01*
X192633333Y-69947619D01*
X193109523Y-70852380D02*
X193300000Y-70852380D01*
X193395238Y-70804761D01*
X193442857Y-70757142D01*
X193538095Y-70614285D01*
X193585714Y-70423809D01*
X193585714Y-70042857D01*
X193538095Y-69947619D01*
X193490476Y-69900000D01*
X193395238Y-69852380D01*
X193204761Y-69852380D01*
X193109523Y-69900000D01*
X193061904Y-69947619D01*
X193014285Y-70042857D01*
X193014285Y-70280952D01*
X193061904Y-70376190D01*
X193109523Y-70423809D01*
X193204761Y-70471428D01*
X193395238Y-70471428D01*
X193490476Y-70423809D01*
X193538095Y-70376190D01*
X193585714Y-70280952D01*
%TO.C,U8*%
X181238095Y-63852380D02*
X181238095Y-64661904D01*
X181285714Y-64757142D01*
X181333333Y-64804761D01*
X181428571Y-64852380D01*
X181619047Y-64852380D01*
X181714285Y-64804761D01*
X181761904Y-64757142D01*
X181809523Y-64661904D01*
X181809523Y-63852380D01*
X182428571Y-64280952D02*
X182333333Y-64233333D01*
X182285714Y-64185714D01*
X182238095Y-64090476D01*
X182238095Y-64042857D01*
X182285714Y-63947619D01*
X182333333Y-63900000D01*
X182428571Y-63852380D01*
X182619047Y-63852380D01*
X182714285Y-63900000D01*
X182761904Y-63947619D01*
X182809523Y-64042857D01*
X182809523Y-64090476D01*
X182761904Y-64185714D01*
X182714285Y-64233333D01*
X182619047Y-64280952D01*
X182428571Y-64280952D01*
X182333333Y-64328571D01*
X182285714Y-64376190D01*
X182238095Y-64471428D01*
X182238095Y-64661904D01*
X182285714Y-64757142D01*
X182333333Y-64804761D01*
X182428571Y-64852380D01*
X182619047Y-64852380D01*
X182714285Y-64804761D01*
X182761904Y-64757142D01*
X182809523Y-64661904D01*
X182809523Y-64471428D01*
X182761904Y-64376190D01*
X182714285Y-64328571D01*
X182619047Y-64280952D01*
%TO.C,C1*%
X155787142Y-79304165D02*
X155834761Y-79351784D01*
X155882380Y-79494641D01*
X155882380Y-79589879D01*
X155834761Y-79732737D01*
X155739523Y-79827975D01*
X155644285Y-79875594D01*
X155453809Y-79923213D01*
X155310952Y-79923213D01*
X155120476Y-79875594D01*
X155025238Y-79827975D01*
X154930000Y-79732737D01*
X154882380Y-79589879D01*
X154882380Y-79494641D01*
X154930000Y-79351784D01*
X154977619Y-79304165D01*
X155882380Y-78351784D02*
X155882380Y-78923213D01*
X155882380Y-78637499D02*
X154882380Y-78637499D01*
X155025238Y-78732737D01*
X155120476Y-78827975D01*
X155168095Y-78923213D01*
%TO.C,C8*%
X137757142Y-80966666D02*
X137804761Y-81014285D01*
X137852380Y-81157142D01*
X137852380Y-81252380D01*
X137804761Y-81395238D01*
X137709523Y-81490476D01*
X137614285Y-81538095D01*
X137423809Y-81585714D01*
X137280952Y-81585714D01*
X137090476Y-81538095D01*
X136995238Y-81490476D01*
X136900000Y-81395238D01*
X136852380Y-81252380D01*
X136852380Y-81157142D01*
X136900000Y-81014285D01*
X136947619Y-80966666D01*
X137280952Y-80395238D02*
X137233333Y-80490476D01*
X137185714Y-80538095D01*
X137090476Y-80585714D01*
X137042857Y-80585714D01*
X136947619Y-80538095D01*
X136900000Y-80490476D01*
X136852380Y-80395238D01*
X136852380Y-80204761D01*
X136900000Y-80109523D01*
X136947619Y-80061904D01*
X137042857Y-80014285D01*
X137090476Y-80014285D01*
X137185714Y-80061904D01*
X137233333Y-80109523D01*
X137280952Y-80204761D01*
X137280952Y-80395238D01*
X137328571Y-80490476D01*
X137376190Y-80538095D01*
X137471428Y-80585714D01*
X137661904Y-80585714D01*
X137757142Y-80538095D01*
X137804761Y-80490476D01*
X137852380Y-80395238D01*
X137852380Y-80204761D01*
X137804761Y-80109523D01*
X137757142Y-80061904D01*
X137661904Y-80014285D01*
X137471428Y-80014285D01*
X137376190Y-80061904D01*
X137328571Y-80109523D01*
X137280952Y-80204761D01*
%TO.C,R11*%
X171682380Y-101530357D02*
X171206190Y-101863690D01*
X171682380Y-102101785D02*
X170682380Y-102101785D01*
X170682380Y-101720833D01*
X170730000Y-101625595D01*
X170777619Y-101577976D01*
X170872857Y-101530357D01*
X171015714Y-101530357D01*
X171110952Y-101577976D01*
X171158571Y-101625595D01*
X171206190Y-101720833D01*
X171206190Y-102101785D01*
X171682380Y-100577976D02*
X171682380Y-101149404D01*
X171682380Y-100863690D02*
X170682380Y-100863690D01*
X170825238Y-100958928D01*
X170920476Y-101054166D01*
X170968095Y-101149404D01*
X171682380Y-99625595D02*
X171682380Y-100197023D01*
X171682380Y-99911309D02*
X170682380Y-99911309D01*
X170825238Y-100006547D01*
X170920476Y-100101785D01*
X170968095Y-100197023D01*
%TO.C,R4*%
X186520833Y-99622380D02*
X186187500Y-99146190D01*
X185949404Y-99622380D02*
X185949404Y-98622380D01*
X186330357Y-98622380D01*
X186425595Y-98670000D01*
X186473214Y-98717619D01*
X186520833Y-98812857D01*
X186520833Y-98955714D01*
X186473214Y-99050952D01*
X186425595Y-99098571D01*
X186330357Y-99146190D01*
X185949404Y-99146190D01*
X187377976Y-98955714D02*
X187377976Y-99622380D01*
X187139880Y-98574761D02*
X186901785Y-99289047D01*
X187520833Y-99289047D01*
%TO.C,L1*%
X197733333Y-64252380D02*
X197257142Y-64252380D01*
X197257142Y-63252380D01*
X198590476Y-64252380D02*
X198019047Y-64252380D01*
X198304761Y-64252380D02*
X198304761Y-63252380D01*
X198209523Y-63395238D01*
X198114285Y-63490476D01*
X198019047Y-63538095D01*
%TO.C,R6*%
X154633333Y-75252380D02*
X154300000Y-74776190D01*
X154061904Y-75252380D02*
X154061904Y-74252380D01*
X154442857Y-74252380D01*
X154538095Y-74300000D01*
X154585714Y-74347619D01*
X154633333Y-74442857D01*
X154633333Y-74585714D01*
X154585714Y-74680952D01*
X154538095Y-74728571D01*
X154442857Y-74776190D01*
X154061904Y-74776190D01*
X155490476Y-74252380D02*
X155300000Y-74252380D01*
X155204761Y-74300000D01*
X155157142Y-74347619D01*
X155061904Y-74490476D01*
X155014285Y-74680952D01*
X155014285Y-75061904D01*
X155061904Y-75157142D01*
X155109523Y-75204761D01*
X155204761Y-75252380D01*
X155395238Y-75252380D01*
X155490476Y-75204761D01*
X155538095Y-75157142D01*
X155585714Y-75061904D01*
X155585714Y-74823809D01*
X155538095Y-74728571D01*
X155490476Y-74680952D01*
X155395238Y-74633333D01*
X155204761Y-74633333D01*
X155109523Y-74680952D01*
X155061904Y-74728571D01*
X155014285Y-74823809D01*
%TO.C,C14*%
X192587142Y-79042857D02*
X192634761Y-79090476D01*
X192682380Y-79233333D01*
X192682380Y-79328571D01*
X192634761Y-79471428D01*
X192539523Y-79566666D01*
X192444285Y-79614285D01*
X192253809Y-79661904D01*
X192110952Y-79661904D01*
X191920476Y-79614285D01*
X191825238Y-79566666D01*
X191730000Y-79471428D01*
X191682380Y-79328571D01*
X191682380Y-79233333D01*
X191730000Y-79090476D01*
X191777619Y-79042857D01*
X192682380Y-78090476D02*
X192682380Y-78661904D01*
X192682380Y-78376190D02*
X191682380Y-78376190D01*
X191825238Y-78471428D01*
X191920476Y-78566666D01*
X191968095Y-78661904D01*
X192015714Y-77233333D02*
X192682380Y-77233333D01*
X191634761Y-77471428D02*
X192349047Y-77709523D01*
X192349047Y-77090476D01*
%TO.C,U4*%
X151038095Y-86952380D02*
X151038095Y-87761904D01*
X151085714Y-87857142D01*
X151133333Y-87904761D01*
X151228571Y-87952380D01*
X151419047Y-87952380D01*
X151514285Y-87904761D01*
X151561904Y-87857142D01*
X151609523Y-87761904D01*
X151609523Y-86952380D01*
X152514285Y-87285714D02*
X152514285Y-87952380D01*
X152276190Y-86904761D02*
X152038095Y-87619047D01*
X152657142Y-87619047D01*
%TO.C,C13*%
X167157142Y-76757142D02*
X167109523Y-76804761D01*
X166966666Y-76852380D01*
X166871428Y-76852380D01*
X166728571Y-76804761D01*
X166633333Y-76709523D01*
X166585714Y-76614285D01*
X166538095Y-76423809D01*
X166538095Y-76280952D01*
X166585714Y-76090476D01*
X166633333Y-75995238D01*
X166728571Y-75900000D01*
X166871428Y-75852380D01*
X166966666Y-75852380D01*
X167109523Y-75900000D01*
X167157142Y-75947619D01*
X168109523Y-76852380D02*
X167538095Y-76852380D01*
X167823809Y-76852380D02*
X167823809Y-75852380D01*
X167728571Y-75995238D01*
X167633333Y-76090476D01*
X167538095Y-76138095D01*
X168442857Y-75852380D02*
X169061904Y-75852380D01*
X168728571Y-76233333D01*
X168871428Y-76233333D01*
X168966666Y-76280952D01*
X169014285Y-76328571D01*
X169061904Y-76423809D01*
X169061904Y-76661904D01*
X169014285Y-76757142D01*
X168966666Y-76804761D01*
X168871428Y-76852380D01*
X168585714Y-76852380D01*
X168490476Y-76804761D01*
X168442857Y-76757142D01*
%TO.C,C23*%
X189357142Y-88557142D02*
X189309523Y-88604761D01*
X189166666Y-88652380D01*
X189071428Y-88652380D01*
X188928571Y-88604761D01*
X188833333Y-88509523D01*
X188785714Y-88414285D01*
X188738095Y-88223809D01*
X188738095Y-88080952D01*
X188785714Y-87890476D01*
X188833333Y-87795238D01*
X188928571Y-87700000D01*
X189071428Y-87652380D01*
X189166666Y-87652380D01*
X189309523Y-87700000D01*
X189357142Y-87747619D01*
X189738095Y-87747619D02*
X189785714Y-87700000D01*
X189880952Y-87652380D01*
X190119047Y-87652380D01*
X190214285Y-87700000D01*
X190261904Y-87747619D01*
X190309523Y-87842857D01*
X190309523Y-87938095D01*
X190261904Y-88080952D01*
X189690476Y-88652380D01*
X190309523Y-88652380D01*
X190642857Y-87652380D02*
X191261904Y-87652380D01*
X190928571Y-88033333D01*
X191071428Y-88033333D01*
X191166666Y-88080952D01*
X191214285Y-88128571D01*
X191261904Y-88223809D01*
X191261904Y-88461904D01*
X191214285Y-88557142D01*
X191166666Y-88604761D01*
X191071428Y-88652380D01*
X190785714Y-88652380D01*
X190690476Y-88604761D01*
X190642857Y-88557142D01*
D11*
%TO.C,X1*%
X177742804Y-96829810D02*
X179970190Y-99057196D01*
X179970190Y-99057196D02*
X182657196Y-96370190D01*
%TO.C,C24*%
X177952682Y-99073931D02*
X177745829Y-98867078D01*
X178673931Y-98352682D02*
X178467078Y-98145829D01*
%TO.C,R7*%
X145722500Y-76545276D02*
X145722500Y-77054724D01*
X144677500Y-76545276D02*
X144677500Y-77054724D01*
%TO.C,C16*%
X180546267Y-66910000D02*
X180253733Y-66910000D01*
X180546267Y-65890000D02*
X180253733Y-65890000D01*
%TO.C,R9*%
X193345276Y-74922500D02*
X193854724Y-74922500D01*
X193345276Y-73877500D02*
X193854724Y-73877500D01*
%TO.C,J7*%
X180920000Y-106270000D02*
X180920000Y-104810000D01*
X191140000Y-108930000D02*
X191140000Y-106270000D01*
X191080000Y-108930000D02*
X191140000Y-108930000D01*
X180860000Y-108930000D02*
X180920000Y-108930000D01*
X180860000Y-108930000D02*
X180860000Y-106270000D01*
X191080000Y-106270000D02*
X191140000Y-106270000D01*
X180860000Y-106270000D02*
X180920000Y-106270000D01*
%TO.C,C15*%
X201516233Y-82490000D02*
X201808767Y-82490000D01*
X201516233Y-83510000D02*
X201808767Y-83510000D01*
%TO.C,J6*%
X140530000Y-107270000D02*
X143130000Y-107270000D01*
X140530000Y-109930000D02*
X140530000Y-107270000D01*
X140530000Y-109930000D02*
X143130000Y-109930000D01*
X139260000Y-109930000D02*
X137930000Y-109930000D01*
X137930000Y-109930000D02*
X137930000Y-108600000D01*
X143130000Y-109930000D02*
X143130000Y-107270000D01*
%TO.C,U1*%
X147475000Y-75955000D02*
X146355000Y-77075000D01*
X151282500Y-75955000D02*
X152845000Y-75955000D01*
X152845000Y-75955000D02*
X152845000Y-77517500D01*
X152845000Y-75955000D02*
X152845000Y-77517500D01*
X151282500Y-82445000D02*
X152845000Y-82445000D01*
X146355000Y-77075000D02*
X146355000Y-77517500D01*
X151282500Y-75955000D02*
X152845000Y-75955000D01*
X147917500Y-82445000D02*
X146355000Y-82445000D01*
X152845000Y-75955000D02*
X152845000Y-77517500D01*
X151282500Y-75955000D02*
X152845000Y-75955000D01*
X147917500Y-75955000D02*
X147475000Y-75955000D01*
X152845000Y-82445000D02*
X152845000Y-80882500D01*
X146355000Y-82445000D02*
X146355000Y-80882500D01*
D12*
X146575000Y-76075000D02*
G75*
G03*
X146575000Y-76075000I-100000J0D01*
G01*
D11*
%TO.C,C11*%
X185191233Y-61690000D02*
X185483767Y-61690000D01*
X185191233Y-62710000D02*
X185483767Y-62710000D01*
%TO.C,J4*%
X205265000Y-66800000D02*
X204765000Y-66550000D01*
X204765000Y-67050000D02*
X205265000Y-66800000D01*
X204765000Y-66550000D02*
X204765000Y-67050000D01*
%TO.C,U2*%
X171390000Y-80600000D02*
X171390000Y-79100000D01*
X171390000Y-80600000D02*
X171390000Y-83525000D01*
X174610000Y-80600000D02*
X174610000Y-79100000D01*
X174610000Y-80600000D02*
X174610000Y-82100000D01*
%TO.C,C21*%
X176710000Y-77283766D02*
X176710000Y-76991232D01*
X175690000Y-77283766D02*
X175690000Y-76991232D01*
%TO.C,R3*%
X168632776Y-88322500D02*
X169142224Y-88322500D01*
X168632776Y-87277500D02*
X169142224Y-87277500D01*
%TO.C,R8*%
X169032776Y-84910000D02*
X169542224Y-84910000D01*
X169032776Y-83865000D02*
X169542224Y-83865000D01*
%TO.C,C3*%
X152283767Y-73710000D02*
X151991233Y-73710000D01*
X152283767Y-72690000D02*
X151991233Y-72690000D01*
%TO.C,R10*%
X170322500Y-104032776D02*
X170322500Y-104542224D01*
X169277500Y-104032776D02*
X169277500Y-104542224D01*
%TO.C,U3*%
X176240000Y-89972500D02*
X176240000Y-89497500D01*
X186460000Y-79752500D02*
X186460000Y-80227500D01*
X176240000Y-79752500D02*
X176240000Y-80227500D01*
X176715000Y-79752500D02*
X176240000Y-79752500D01*
X185985000Y-89972500D02*
X186460000Y-89972500D01*
X176715000Y-89972500D02*
X176240000Y-89972500D01*
X185985000Y-79752500D02*
X186460000Y-79752500D01*
%TO.C,R15*%
X201457776Y-85122500D02*
X201967224Y-85122500D01*
X201457776Y-84077500D02*
X201967224Y-84077500D01*
%TO.C,J2*%
X148280000Y-109930000D02*
X146950000Y-109930000D01*
X149550000Y-109930000D02*
X177550000Y-109930000D01*
X177550000Y-109930000D02*
X177550000Y-107270000D01*
X146950000Y-109930000D02*
X146950000Y-108600000D01*
X149550000Y-107270000D02*
X177550000Y-107270000D01*
X149550000Y-109930000D02*
X149550000Y-107270000D01*
D10*
%TO.C,TP1*%
X189412500Y-68700000D02*
X189412500Y-64900000D01*
X191612500Y-64900000D02*
X191612500Y-68700000D01*
X189412500Y-64900000D02*
X191612500Y-64900000D01*
X191612500Y-68700000D02*
X189412500Y-68700000D01*
%TO.C,TP2*%
X158900000Y-85100000D02*
X158900000Y-82900000D01*
X158900000Y-82900000D02*
X162700000Y-82900000D01*
X162700000Y-85100000D02*
X158900000Y-85100000D01*
X162700000Y-82900000D02*
X162700000Y-85100000D01*
D11*
%TO.C,C4*%
X142510000Y-80946267D02*
X142510000Y-80653733D01*
X141490000Y-80946267D02*
X141490000Y-80653733D01*
%TO.C,C22*%
X183110000Y-77283766D02*
X183110000Y-76991232D01*
X182090000Y-77283766D02*
X182090000Y-76991232D01*
%TO.C,C5*%
X145546267Y-92510000D02*
X145253733Y-92510000D01*
X145546267Y-91490000D02*
X145253733Y-91490000D01*
%TO.C,C12*%
X185683766Y-71490000D02*
X185391232Y-71490000D01*
X185683766Y-72510000D02*
X185391232Y-72510000D01*
%TO.C,U6*%
X169200000Y-83347500D02*
X168550000Y-83347500D01*
X169200000Y-80227500D02*
X169850000Y-80227500D01*
X169200000Y-80227500D02*
X168550000Y-80227500D01*
X169200000Y-83347500D02*
X170875000Y-83347500D01*
%TO.C,C2*%
X145546267Y-94910000D02*
X145253733Y-94910000D01*
X145546267Y-93890000D02*
X145253733Y-93890000D01*
%TO.C,C10*%
X202290000Y-67516233D02*
X202290000Y-67808767D01*
X203310000Y-67516233D02*
X203310000Y-67808767D01*
%TO.C,C17*%
X180546267Y-67490000D02*
X180253733Y-67490000D01*
X180546267Y-68510000D02*
X180253733Y-68510000D01*
%TO.C,J1*%
X131270000Y-70470000D02*
X132600000Y-70470000D01*
X131270000Y-73070000D02*
X131270000Y-75670000D01*
X131270000Y-73070000D02*
X133930000Y-73070000D01*
X131270000Y-75670000D02*
X133930000Y-75670000D01*
X133930000Y-73070000D02*
X133930000Y-75670000D01*
X131270000Y-71800000D02*
X131270000Y-70470000D01*
%TO.C,R2*%
X168632776Y-89922500D02*
X169142224Y-89922500D01*
X168632776Y-88877500D02*
X169142224Y-88877500D01*
%TO.C,C20*%
X188716233Y-84510000D02*
X189008767Y-84510000D01*
X188716233Y-83490000D02*
X189008767Y-83490000D01*
%TO.C,C19*%
X178690000Y-77283766D02*
X178690000Y-76991232D01*
X179710000Y-77283766D02*
X179710000Y-76991232D01*
%TO.C,C6*%
X139890000Y-80946267D02*
X139890000Y-80653733D01*
X140910000Y-80946267D02*
X140910000Y-80653733D01*
%TO.C,R14*%
X201457776Y-86677500D02*
X201967224Y-86677500D01*
X201457776Y-87722500D02*
X201967224Y-87722500D01*
%TO.C,U9*%
X186900000Y-67790000D02*
X183900000Y-67790000D01*
X185400000Y-71010000D02*
X183900000Y-71010000D01*
%TO.C,U5*%
X196150001Y-91597500D02*
X198100001Y-91597500D01*
X196150001Y-82727500D02*
X192700001Y-82727500D01*
X196150001Y-82727500D02*
X198100001Y-82727500D01*
X196150001Y-91597500D02*
X194200001Y-91597500D01*
%TO.C,R13*%
X201457776Y-90322500D02*
X201967224Y-90322500D01*
X201457776Y-89277500D02*
X201967224Y-89277500D01*
%TO.C,U7*%
X188352501Y-73800000D02*
X188352501Y-74600000D01*
X188352501Y-73800000D02*
X188352501Y-73000000D01*
X191472501Y-73800000D02*
X191472501Y-74600000D01*
X191472501Y-73800000D02*
X191472501Y-72000000D01*
%TO.C,R16*%
X193854724Y-72277500D02*
X193345276Y-72277500D01*
X193854724Y-73322500D02*
X193345276Y-73322500D01*
%TO.C,J3*%
X204765000Y-92957500D02*
X205265000Y-92707500D01*
X204765000Y-92457500D02*
X204765000Y-92957500D01*
X205265000Y-92707500D02*
X204765000Y-92457500D01*
%TO.C,C18*%
X188716233Y-81490000D02*
X189008767Y-81490000D01*
X188716233Y-82510000D02*
X189008767Y-82510000D01*
%TO.C,R1*%
X174632776Y-94922500D02*
X175142224Y-94922500D01*
X174632776Y-93877500D02*
X175142224Y-93877500D01*
%TO.C,C7*%
X145710000Y-80946267D02*
X145710000Y-80653733D01*
X144690000Y-80946267D02*
X144690000Y-80653733D01*
%TO.C,R12*%
X192922500Y-93257776D02*
X192922500Y-93767224D01*
X191877500Y-93257776D02*
X191877500Y-93767224D01*
%TO.C,C9*%
X189966234Y-69890000D02*
X190258768Y-69890000D01*
X189966234Y-70910000D02*
X190258768Y-70910000D01*
%TO.C,U8*%
X186899999Y-63240001D02*
X183899999Y-63240001D01*
X185399999Y-66460001D02*
X183899999Y-66460001D01*
%TO.C,C1*%
X154510000Y-78991232D02*
X154510000Y-79283766D01*
X153490000Y-78991232D02*
X153490000Y-79283766D01*
%TO.C,C8*%
X143090000Y-80946267D02*
X143090000Y-80653733D01*
X144110000Y-80946267D02*
X144110000Y-80653733D01*
%TO.C,R11*%
X169277500Y-100632776D02*
X169277500Y-101142224D01*
X170322500Y-100632776D02*
X170322500Y-101142224D01*
%TO.C,R4*%
X186432776Y-100077500D02*
X186942224Y-100077500D01*
X186432776Y-101122500D02*
X186942224Y-101122500D01*
%TO.C,L1*%
X194900000Y-64700000D02*
X200900000Y-64700000D01*
X194900000Y-68900000D02*
X200900000Y-68900000D01*
%TO.C,R6*%
X151832776Y-74277500D02*
X152342224Y-74277500D01*
X151832776Y-75322500D02*
X152342224Y-75322500D01*
%TO.C,C14*%
X191310000Y-78253733D02*
X191310000Y-78546267D01*
X190290000Y-78253733D02*
X190290000Y-78546267D01*
%TO.C,U4*%
X147700000Y-88590000D02*
X153710000Y-88590000D01*
X153710000Y-95410000D02*
X153710000Y-94150000D01*
X153710000Y-88590000D02*
X153710000Y-89850000D01*
X149950000Y-95410000D02*
X153710000Y-95410000D01*
%TO.C,C13*%
X171008768Y-76910000D02*
X170716234Y-76910000D01*
X171008768Y-75890000D02*
X170716234Y-75890000D01*
%TO.C,C23*%
X188716233Y-86510000D02*
X189008767Y-86510000D01*
X188716233Y-85490000D02*
X189008767Y-85490000D01*
%TD*%
M02*
