%TF.GenerationSoftware,KiCad,Pcbnew,6.0.6-3a73a75311~116~ubuntu20.04.1*%
%TF.CreationDate,2022-09-22T11:08:13+01:00*%
%TF.ProjectId,UFOMothership,55464f4d-6f74-4686-9572-736869702e6b,rev?*%
%TF.SameCoordinates,Original*%
%TF.FileFunction,Copper,L2,Inr*%
%TF.FilePolarity,Positive*%
%FSLAX46Y46*%
G04 Gerber Fmt 4.6, Leading zero omitted, Abs format (unit mm)*
G04 Created by KiCad (PCBNEW 6.0.6-3a73a75311~116~ubuntu20.04.1) date 2022-09-22 11:08:13*
%MOMM*%
%LPD*%
G01*
G04 APERTURE LIST*
%TA.AperFunction,ComponentPad*%
%ADD10C,0.800000*%
%TD*%
%TA.AperFunction,ComponentPad*%
%ADD11C,6.400000*%
%TD*%
%TA.AperFunction,ComponentPad*%
%ADD12R,1.700000X1.700000*%
%TD*%
%TA.AperFunction,ComponentPad*%
%ADD13O,1.700000X1.700000*%
%TD*%
%TA.AperFunction,ComponentPad*%
%ADD14C,0.970000*%
%TD*%
%TA.AperFunction,ComponentPad*%
%ADD15C,0.500000*%
%TD*%
%TA.AperFunction,ViaPad*%
%ADD16C,0.800000*%
%TD*%
%TA.AperFunction,ViaPad*%
%ADD17C,0.400000*%
%TD*%
G04 APERTURE END LIST*
D10*
%TO.N,N/C*%
%TO.C,REF\u002A\u002A*%
X206200000Y-110600000D03*
D11*
X206200000Y-108200000D03*
D10*
X207897056Y-106502944D03*
X204502944Y-106502944D03*
X207897056Y-109897056D03*
X204502944Y-109897056D03*
X203800000Y-108200000D03*
X206200000Y-105800000D03*
X208600000Y-108200000D03*
%TD*%
D11*
%TO.N,N/C*%
%TO.C,REF\u002A\u002A*%
X206200000Y-56400000D03*
D10*
X207897056Y-54702944D03*
X204502944Y-58097056D03*
X207897056Y-58097056D03*
X208600000Y-56400000D03*
X206200000Y-58800000D03*
X206200000Y-54000000D03*
X204502944Y-54702944D03*
X203800000Y-56400000D03*
%TD*%
D12*
%TO.N,+5V*%
%TO.C,J6*%
X139260000Y-108600000D03*
D13*
%TO.N,GND*%
X141800000Y-108600000D03*
%TD*%
D14*
%TO.N,GND*%
%TO.C,J4*%
X204680000Y-70292500D03*
X204680000Y-63307500D03*
%TD*%
D10*
%TO.N,N/C*%
%TO.C,REF\u002A\u002A*%
X130502944Y-106502944D03*
X130502944Y-109897056D03*
X134600000Y-108200000D03*
X133897056Y-106502944D03*
X132200000Y-105800000D03*
X133897056Y-109897056D03*
D11*
X132200000Y-108200000D03*
D10*
X132200000Y-110600000D03*
X129800000Y-108200000D03*
%TD*%
D15*
%TO.N,GND*%
%TO.C,U3*%
X180800000Y-86512500D03*
X184100000Y-85412500D03*
X179700000Y-82112500D03*
X178600000Y-82112500D03*
X184100000Y-86512500D03*
X183000000Y-82112500D03*
X180800000Y-87612500D03*
X184100000Y-82112500D03*
X183000000Y-87612500D03*
X184100000Y-84312500D03*
X183000000Y-85412500D03*
X184100000Y-87612500D03*
X178600000Y-85412500D03*
X178600000Y-86512500D03*
X178600000Y-83212500D03*
X179700000Y-84312500D03*
X181900000Y-87612500D03*
X181900000Y-86512500D03*
X179700000Y-86512500D03*
X180800000Y-83212500D03*
X181900000Y-83212500D03*
X178600000Y-87612500D03*
X180800000Y-84312500D03*
X181900000Y-85412500D03*
X180800000Y-82112500D03*
X180800000Y-85412500D03*
X179700000Y-83212500D03*
X181900000Y-84312500D03*
X179700000Y-87612500D03*
X179700000Y-85412500D03*
X183000000Y-86512500D03*
X183000000Y-83212500D03*
X184100000Y-83212500D03*
X181900000Y-82112500D03*
X183000000Y-84312500D03*
X178600000Y-84312500D03*
%TD*%
D12*
%TO.N,/GPIO0*%
%TO.C,J2*%
X148280000Y-108600000D03*
D13*
%TO.N,/GPIO1*%
X150820000Y-108600000D03*
%TO.N,/GPIO2*%
X153360000Y-108600000D03*
%TO.N,/GPIO3*%
X155900000Y-108600000D03*
%TO.N,/GPIO4*%
X158440000Y-108600000D03*
%TO.N,/GPIO5*%
X160980000Y-108600000D03*
%TO.N,/GPIO6*%
X163520000Y-108600000D03*
%TO.N,/GPIO7*%
X166060000Y-108600000D03*
%TO.N,/SCL*%
X168600000Y-108600000D03*
%TO.N,/SDA*%
X171140000Y-108600000D03*
%TO.N,/TRIGGER_IN*%
X173680000Y-108600000D03*
%TO.N,GND*%
X176220000Y-108600000D03*
%TD*%
D10*
%TO.N,N/C*%
%TO.C,REF\u002A\u002A*%
X130502944Y-54702944D03*
X132200000Y-58800000D03*
X134600000Y-56400000D03*
X133897056Y-58097056D03*
D11*
X132200000Y-56400000D03*
D10*
X133897056Y-54702944D03*
X132200000Y-54000000D03*
X129800000Y-56400000D03*
X130502944Y-58097056D03*
%TD*%
D12*
%TO.N,+VDC*%
%TO.C,J1*%
X132600000Y-71800000D03*
D13*
%TO.N,GND*%
X132600000Y-74340000D03*
%TD*%
D15*
%TO.N,/BIAS*%
%TO.C,U9*%
X184825000Y-70340000D03*
X185975000Y-68460000D03*
X184825000Y-68460000D03*
X184825000Y-69400000D03*
X185975000Y-70340000D03*
X185975000Y-69400000D03*
%TD*%
D14*
%TO.N,GND*%
%TO.C,J3*%
X204680000Y-96200000D03*
X204680000Y-89215000D03*
%TD*%
D15*
%TO.N,/BIAS*%
%TO.C,U8*%
X185974999Y-63910001D03*
X185974999Y-64850001D03*
X184824999Y-65790001D03*
X185974999Y-65790001D03*
X184824999Y-64850001D03*
X184824999Y-63910001D03*
%TD*%
D16*
%TO.N,GND*%
X178000000Y-100000000D03*
%TO.N,+3.3V*%
X172600000Y-96600000D03*
D17*
%TO.N,Net-(C3-Pad2)*%
X150600000Y-77200000D03*
X150600000Y-74000000D03*
%TO.N,GND*%
X150600000Y-80200000D03*
X202600000Y-96400000D03*
X177000000Y-76200000D03*
X185400000Y-104200000D03*
X201800000Y-75000000D03*
X142200000Y-78600000D03*
X203800000Y-72400000D03*
X203400000Y-89800000D03*
X189800000Y-87000000D03*
X208600000Y-77000000D03*
X195400000Y-90000000D03*
X200800000Y-81000000D03*
X142200000Y-74000000D03*
X159800000Y-85600000D03*
X183400000Y-76200000D03*
X201600000Y-94000000D03*
X203400000Y-83000000D03*
X142200000Y-76400000D03*
X194000000Y-92000000D03*
X203000000Y-78600000D03*
X208600000Y-73200000D03*
X149200000Y-72600000D03*
X170000000Y-77400000D03*
X204200000Y-99000000D03*
X148600000Y-80200000D03*
X149600000Y-79400000D03*
X146400000Y-80200000D03*
X148600000Y-79400000D03*
X149200000Y-74600000D03*
X203800000Y-91600000D03*
X184800000Y-100600000D03*
X161400000Y-85600000D03*
X151600000Y-80200000D03*
X195200000Y-81800000D03*
X147200000Y-88200000D03*
X143600000Y-94400000D03*
X179400000Y-65400000D03*
X151600000Y-81000000D03*
X171200000Y-78600000D03*
X180000000Y-76200000D03*
X140600000Y-75600000D03*
X190800000Y-80200000D03*
X154400000Y-72800000D03*
X208200000Y-99000000D03*
X147600000Y-80200000D03*
X149600000Y-81000000D03*
X190000000Y-70400000D03*
X201800000Y-70200000D03*
X203800000Y-94000000D03*
X192400000Y-95200000D03*
X149600000Y-80200000D03*
X147600000Y-79400000D03*
X163000000Y-85600000D03*
X143600000Y-92000000D03*
X208600000Y-85400000D03*
X196400000Y-93200000D03*
X201600000Y-91600000D03*
X150600000Y-79400000D03*
X145000000Y-74600000D03*
X190000000Y-71800000D03*
X195400000Y-74400000D03*
X203400000Y-84600000D03*
X154400000Y-75600000D03*
X145000000Y-72600000D03*
X140600000Y-77400000D03*
X179400000Y-69000000D03*
X150600000Y-81000000D03*
X144800000Y-88200000D03*
X190800000Y-84000000D03*
X152800000Y-79600000D03*
X147200000Y-74000000D03*
X140600000Y-72600000D03*
X183400000Y-62200000D03*
X147600000Y-81000000D03*
X144400000Y-78600000D03*
X146000000Y-89800000D03*
X200200000Y-77800000D03*
X201800000Y-72400000D03*
X208600000Y-81000000D03*
X203400000Y-87200000D03*
X170200000Y-79800000D03*
X148600000Y-81000000D03*
X203800000Y-75000000D03*
X158600000Y-85600000D03*
X152800000Y-80600000D03*
X190800000Y-82000000D03*
X183800000Y-72000000D03*
X197800000Y-79800000D03*
X199200000Y-94000000D03*
X143600000Y-89800000D03*
X151600000Y-79400000D03*
%TO.N,+VDC*%
X156600000Y-77600000D03*
X156600000Y-78800000D03*
X155600000Y-77600000D03*
X155600000Y-78800000D03*
D16*
X190862501Y-76137499D03*
D17*
X182600000Y-73000000D03*
D16*
%TO.N,+5V*%
X152200000Y-83000000D03*
X147600000Y-83000000D03*
X140400000Y-83000000D03*
X142000000Y-83000000D03*
D17*
X149400000Y-96400000D03*
X146800000Y-96400000D03*
D16*
X149600000Y-83000000D03*
X145200000Y-83000000D03*
X143600000Y-83000000D03*
D17*
X200000000Y-83200000D03*
X146000000Y-95600000D03*
X148200000Y-96400000D03*
D16*
%TO.N,/SCL*%
X168600000Y-96574001D03*
X172800000Y-87000000D03*
%TO.N,/SDA*%
X173800000Y-87400000D03*
X171200000Y-96574001D03*
X174713357Y-86264160D03*
D17*
%TO.N,+3.3V*%
X175000000Y-85000000D03*
X157400000Y-92200000D03*
X167000000Y-89400000D03*
X182600000Y-79000000D03*
X175200000Y-81600000D03*
X179100000Y-78900000D03*
X187087500Y-82112500D03*
X167400000Y-84400000D03*
X172600000Y-94200000D03*
X167000000Y-87800000D03*
X157400000Y-89000000D03*
X170200000Y-99200000D03*
X181400000Y-93000000D03*
X157400000Y-90600000D03*
X175200000Y-78800000D03*
X172675000Y-76925000D03*
X157400000Y-93800000D03*
X169800000Y-104200000D03*
D16*
%TO.N,TDI*%
X189200000Y-103200000D03*
X186912299Y-90712299D03*
%TO.N,TMS*%
X185498789Y-92125809D03*
X186600000Y-103200000D03*
%TO.N,/GPIO0*%
X175600000Y-90400000D03*
X187400000Y-88200000D03*
%TO.N,/GPIO1*%
X175800000Y-91400000D03*
X188600000Y-87800000D03*
%TO.N,Net-(R5-Pad2)*%
X180211829Y-91212770D03*
%TO.N,TCK*%
X187800000Y-103200000D03*
X186205544Y-91419054D03*
D17*
%TO.N,/BIAS*%
X193800000Y-64000000D03*
X188200000Y-62600000D03*
X197200000Y-71000000D03*
X196000000Y-64000000D03*
X193600000Y-75800000D03*
X196200000Y-69400000D03*
X197200000Y-75800000D03*
X196000000Y-60600000D03*
X186200000Y-60600000D03*
X187600000Y-72000000D03*
X192600000Y-70400000D03*
X185800000Y-75800000D03*
X193800000Y-69400000D03*
X188000000Y-70200000D03*
X193800000Y-66600000D03*
X192600000Y-60600000D03*
X189200000Y-60600000D03*
X190800000Y-63600000D03*
D16*
%TO.N,TDO*%
X190400000Y-103200000D03*
X187812299Y-89812299D03*
%TD*%
%TA.AperFunction,Conductor*%
%TO.N,GND*%
G36*
X204945909Y-53020502D02*
G01*
X204992402Y-53074158D01*
X205002506Y-53144432D01*
X204973012Y-53209012D01*
X204930439Y-53240972D01*
X204611723Y-53387565D01*
X204608789Y-53389321D01*
X204608787Y-53389322D01*
X204514763Y-53445594D01*
X204295672Y-53576718D01*
X204001898Y-53798897D01*
X203733837Y-54051505D01*
X203494626Y-54331585D01*
X203492698Y-54334412D01*
X203492696Y-54334414D01*
X203486251Y-54343862D01*
X203287062Y-54635862D01*
X203113574Y-54960776D01*
X203112299Y-54963948D01*
X203112297Y-54963952D01*
X203109240Y-54971558D01*
X202976192Y-55302526D01*
X202975273Y-55305794D01*
X202975271Y-55305801D01*
X202922387Y-55493942D01*
X202876521Y-55657115D01*
X202875959Y-55660472D01*
X202875959Y-55660473D01*
X202874015Y-55672093D01*
X202815729Y-56020393D01*
X202794527Y-56388113D01*
X202813162Y-56755971D01*
X202813699Y-56759326D01*
X202813700Y-56759332D01*
X202854038Y-57011170D01*
X202871416Y-57119665D01*
X202968608Y-57474941D01*
X203103602Y-57817642D01*
X203274817Y-58143759D01*
X203276718Y-58146588D01*
X203276724Y-58146598D01*
X203461707Y-58421879D01*
X203480252Y-58449477D01*
X203717502Y-58731221D01*
X203820006Y-58829176D01*
X203981329Y-58983341D01*
X203981336Y-58983347D01*
X203983792Y-58985694D01*
X204276008Y-59209919D01*
X204590731Y-59401274D01*
X204924279Y-59557519D01*
X204927497Y-59558621D01*
X204927500Y-59558622D01*
X205269528Y-59675725D01*
X205269536Y-59675727D01*
X205272751Y-59676828D01*
X205632070Y-59757804D01*
X205715002Y-59767253D01*
X205994650Y-59799115D01*
X205994658Y-59799115D01*
X205998033Y-59799500D01*
X206001437Y-59799518D01*
X206001440Y-59799518D01*
X206201074Y-59800563D01*
X206366358Y-59801428D01*
X206369744Y-59801078D01*
X206369746Y-59801078D01*
X206729345Y-59763918D01*
X206729354Y-59763917D01*
X206732737Y-59763567D01*
X206736070Y-59762853D01*
X206736073Y-59762852D01*
X206913488Y-59724817D01*
X207092884Y-59686358D01*
X207442586Y-59570705D01*
X207777752Y-59417961D01*
X207874965Y-59360240D01*
X208091516Y-59231662D01*
X208091521Y-59231659D01*
X208094461Y-59229913D01*
X208121091Y-59209919D01*
X208386276Y-59010812D01*
X208389009Y-59008760D01*
X208657950Y-58757089D01*
X208898138Y-58477846D01*
X208915838Y-58452093D01*
X209104831Y-58177104D01*
X209106762Y-58174295D01*
X209108374Y-58171301D01*
X209108379Y-58171293D01*
X209279761Y-57853001D01*
X209281383Y-57849989D01*
X209419958Y-57508720D01*
X209452321Y-57395108D01*
X209490220Y-57335074D01*
X209554559Y-57305059D01*
X209624913Y-57314593D01*
X209678943Y-57360651D01*
X209699500Y-57429627D01*
X209699500Y-107168325D01*
X209679498Y-107236446D01*
X209625842Y-107282939D01*
X209555568Y-107293043D01*
X209490988Y-107263549D01*
X209452083Y-107201997D01*
X209427620Y-107113786D01*
X209424443Y-107105801D01*
X209292690Y-106774722D01*
X209291431Y-106771558D01*
X209261358Y-106714760D01*
X209120677Y-106449060D01*
X209120673Y-106449053D01*
X209119078Y-106446041D01*
X208912578Y-106141041D01*
X208674346Y-105860128D01*
X208407168Y-105606586D01*
X208114172Y-105383382D01*
X208111260Y-105381625D01*
X208111255Y-105381622D01*
X207801705Y-105194889D01*
X207801696Y-105194884D01*
X207798783Y-105193127D01*
X207795693Y-105191693D01*
X207795688Y-105191690D01*
X207631737Y-105115587D01*
X207464691Y-105038047D01*
X207461466Y-105036955D01*
X207461460Y-105036953D01*
X207119032Y-104921048D01*
X207119027Y-104921047D01*
X207115805Y-104919956D01*
X206881920Y-104868104D01*
X206759536Y-104840972D01*
X206759532Y-104840971D01*
X206756206Y-104840234D01*
X206606624Y-104823720D01*
X206393482Y-104800189D01*
X206393475Y-104800189D01*
X206390100Y-104799816D01*
X206386701Y-104799810D01*
X206386700Y-104799810D01*
X206212980Y-104799507D01*
X206021770Y-104799173D01*
X205884556Y-104813837D01*
X205658910Y-104837951D01*
X205658904Y-104837952D01*
X205655526Y-104838313D01*
X205295650Y-104916779D01*
X204946354Y-105033652D01*
X204943261Y-105035075D01*
X204943260Y-105035075D01*
X204933674Y-105039484D01*
X204611723Y-105187565D01*
X204608789Y-105189321D01*
X204608787Y-105189322D01*
X204514763Y-105245594D01*
X204295672Y-105376718D01*
X204001898Y-105598897D01*
X203733837Y-105851505D01*
X203494626Y-106131585D01*
X203492698Y-106134412D01*
X203492696Y-106134414D01*
X203486251Y-106143862D01*
X203287062Y-106435862D01*
X203113574Y-106760776D01*
X203112299Y-106763948D01*
X203112297Y-106763952D01*
X203109240Y-106771558D01*
X202976192Y-107102526D01*
X202975273Y-107105794D01*
X202975271Y-107105801D01*
X202922387Y-107293942D01*
X202876521Y-107457115D01*
X202875959Y-107460472D01*
X202875959Y-107460473D01*
X202832203Y-107721951D01*
X202815729Y-107820393D01*
X202794527Y-108188113D01*
X202813162Y-108555971D01*
X202813699Y-108559326D01*
X202813700Y-108559332D01*
X202824935Y-108629474D01*
X202871416Y-108919665D01*
X202968608Y-109274941D01*
X203047735Y-109475816D01*
X203084521Y-109569201D01*
X203103602Y-109617642D01*
X203274817Y-109943759D01*
X203276718Y-109946588D01*
X203276724Y-109946598D01*
X203461707Y-110221879D01*
X203480252Y-110249477D01*
X203717502Y-110531221D01*
X203820006Y-110629176D01*
X203981329Y-110783341D01*
X203981336Y-110783347D01*
X203983792Y-110785694D01*
X204276008Y-111009919D01*
X204590731Y-111201274D01*
X204922976Y-111356908D01*
X204922975Y-111356908D01*
X204924279Y-111357519D01*
X204924135Y-111357826D01*
X204978347Y-111400737D01*
X205001357Y-111467901D01*
X204984401Y-111536843D01*
X204932864Y-111585675D01*
X204875481Y-111599500D01*
X133520861Y-111599500D01*
X133452740Y-111579498D01*
X133406247Y-111525842D01*
X133396143Y-111455568D01*
X133425637Y-111390988D01*
X133468610Y-111358845D01*
X133471520Y-111357519D01*
X133777752Y-111217961D01*
X133874965Y-111160240D01*
X134091516Y-111031662D01*
X134091521Y-111031659D01*
X134094461Y-111029913D01*
X134121091Y-111009919D01*
X134386276Y-110810812D01*
X134389009Y-110808760D01*
X134657950Y-110557089D01*
X134898138Y-110277846D01*
X134915838Y-110252093D01*
X135104831Y-109977104D01*
X135106762Y-109974295D01*
X135108374Y-109971301D01*
X135108379Y-109971293D01*
X135279761Y-109653001D01*
X135281383Y-109649989D01*
X135354571Y-109469748D01*
X138209500Y-109469748D01*
X138210707Y-109475816D01*
X138214331Y-109494033D01*
X138221133Y-109528231D01*
X138265448Y-109594552D01*
X138331769Y-109638867D01*
X138343938Y-109641288D01*
X138343939Y-109641288D01*
X138371766Y-109646823D01*
X138390252Y-109650500D01*
X140129748Y-109650500D01*
X140148234Y-109646823D01*
X140176061Y-109641288D01*
X140176062Y-109641288D01*
X140188231Y-109638867D01*
X140254552Y-109594552D01*
X140298867Y-109528231D01*
X140305670Y-109494033D01*
X140309293Y-109475816D01*
X140310500Y-109469748D01*
X147229500Y-109469748D01*
X147230707Y-109475816D01*
X147234331Y-109494033D01*
X147241133Y-109528231D01*
X147285448Y-109594552D01*
X147351769Y-109638867D01*
X147363938Y-109641288D01*
X147363939Y-109641288D01*
X147391766Y-109646823D01*
X147410252Y-109650500D01*
X149149748Y-109650500D01*
X149168234Y-109646823D01*
X149196061Y-109641288D01*
X149196062Y-109641288D01*
X149208231Y-109638867D01*
X149274552Y-109594552D01*
X149318867Y-109528231D01*
X149325670Y-109494033D01*
X149329293Y-109475816D01*
X149330500Y-109469748D01*
X149330500Y-108585262D01*
X149764520Y-108585262D01*
X149781759Y-108790553D01*
X149783458Y-108796478D01*
X149827804Y-108951130D01*
X149838544Y-108988586D01*
X149841359Y-108994063D01*
X149841360Y-108994066D01*
X149900050Y-109108265D01*
X149932712Y-109171818D01*
X150060677Y-109333270D01*
X150217564Y-109466791D01*
X150397398Y-109567297D01*
X150481280Y-109594552D01*
X150587471Y-109629056D01*
X150587475Y-109629057D01*
X150593329Y-109630959D01*
X150797894Y-109655351D01*
X150804029Y-109654879D01*
X150804031Y-109654879D01*
X150876625Y-109649293D01*
X151003300Y-109639546D01*
X151009230Y-109637890D01*
X151009232Y-109637890D01*
X151195797Y-109585800D01*
X151195796Y-109585800D01*
X151201725Y-109584145D01*
X151207214Y-109581372D01*
X151207220Y-109581370D01*
X151380116Y-109494033D01*
X151385610Y-109491258D01*
X151547951Y-109364424D01*
X151593313Y-109311872D01*
X151678540Y-109213134D01*
X151678540Y-109213133D01*
X151682564Y-109208472D01*
X151687528Y-109199735D01*
X151735895Y-109114593D01*
X151784323Y-109029344D01*
X151849351Y-108833863D01*
X151875171Y-108629474D01*
X151875583Y-108600000D01*
X151874138Y-108585262D01*
X152304520Y-108585262D01*
X152321759Y-108790553D01*
X152323458Y-108796478D01*
X152367804Y-108951130D01*
X152378544Y-108988586D01*
X152381359Y-108994063D01*
X152381360Y-108994066D01*
X152440050Y-109108265D01*
X152472712Y-109171818D01*
X152600677Y-109333270D01*
X152757564Y-109466791D01*
X152937398Y-109567297D01*
X153021280Y-109594552D01*
X153127471Y-109629056D01*
X153127475Y-109629057D01*
X153133329Y-109630959D01*
X153337894Y-109655351D01*
X153344029Y-109654879D01*
X153344031Y-109654879D01*
X153416625Y-109649293D01*
X153543300Y-109639546D01*
X153549230Y-109637890D01*
X153549232Y-109637890D01*
X153735797Y-109585800D01*
X153735796Y-109585800D01*
X153741725Y-109584145D01*
X153747214Y-109581372D01*
X153747220Y-109581370D01*
X153920116Y-109494033D01*
X153925610Y-109491258D01*
X154087951Y-109364424D01*
X154133313Y-109311872D01*
X154218540Y-109213134D01*
X154218540Y-109213133D01*
X154222564Y-109208472D01*
X154227528Y-109199735D01*
X154275895Y-109114593D01*
X154324323Y-109029344D01*
X154389351Y-108833863D01*
X154415171Y-108629474D01*
X154415583Y-108600000D01*
X154414138Y-108585262D01*
X154844520Y-108585262D01*
X154861759Y-108790553D01*
X154863458Y-108796478D01*
X154907804Y-108951130D01*
X154918544Y-108988586D01*
X154921359Y-108994063D01*
X154921360Y-108994066D01*
X154980050Y-109108265D01*
X155012712Y-109171818D01*
X155140677Y-109333270D01*
X155297564Y-109466791D01*
X155477398Y-109567297D01*
X155561280Y-109594552D01*
X155667471Y-109629056D01*
X155667475Y-109629057D01*
X155673329Y-109630959D01*
X155877894Y-109655351D01*
X155884029Y-109654879D01*
X155884031Y-109654879D01*
X155956625Y-109649293D01*
X156083300Y-109639546D01*
X156089230Y-109637890D01*
X156089232Y-109637890D01*
X156275797Y-109585800D01*
X156275796Y-109585800D01*
X156281725Y-109584145D01*
X156287214Y-109581372D01*
X156287220Y-109581370D01*
X156460116Y-109494033D01*
X156465610Y-109491258D01*
X156627951Y-109364424D01*
X156673313Y-109311872D01*
X156758540Y-109213134D01*
X156758540Y-109213133D01*
X156762564Y-109208472D01*
X156767528Y-109199735D01*
X156815895Y-109114593D01*
X156864323Y-109029344D01*
X156929351Y-108833863D01*
X156955171Y-108629474D01*
X156955583Y-108600000D01*
X156954138Y-108585262D01*
X157384520Y-108585262D01*
X157401759Y-108790553D01*
X157403458Y-108796478D01*
X157447804Y-108951130D01*
X157458544Y-108988586D01*
X157461359Y-108994063D01*
X157461360Y-108994066D01*
X157520050Y-109108265D01*
X157552712Y-109171818D01*
X157680677Y-109333270D01*
X157837564Y-109466791D01*
X158017398Y-109567297D01*
X158101280Y-109594552D01*
X158207471Y-109629056D01*
X158207475Y-109629057D01*
X158213329Y-109630959D01*
X158417894Y-109655351D01*
X158424029Y-109654879D01*
X158424031Y-109654879D01*
X158496625Y-109649293D01*
X158623300Y-109639546D01*
X158629230Y-109637890D01*
X158629232Y-109637890D01*
X158815797Y-109585800D01*
X158815796Y-109585800D01*
X158821725Y-109584145D01*
X158827214Y-109581372D01*
X158827220Y-109581370D01*
X159000116Y-109494033D01*
X159005610Y-109491258D01*
X159167951Y-109364424D01*
X159213313Y-109311872D01*
X159298540Y-109213134D01*
X159298540Y-109213133D01*
X159302564Y-109208472D01*
X159307528Y-109199735D01*
X159355895Y-109114593D01*
X159404323Y-109029344D01*
X159469351Y-108833863D01*
X159495171Y-108629474D01*
X159495583Y-108600000D01*
X159494138Y-108585262D01*
X159924520Y-108585262D01*
X159941759Y-108790553D01*
X159943458Y-108796478D01*
X159987804Y-108951130D01*
X159998544Y-108988586D01*
X160001359Y-108994063D01*
X160001360Y-108994066D01*
X160060050Y-109108265D01*
X160092712Y-109171818D01*
X160220677Y-109333270D01*
X160377564Y-109466791D01*
X160557398Y-109567297D01*
X160641280Y-109594552D01*
X160747471Y-109629056D01*
X160747475Y-109629057D01*
X160753329Y-109630959D01*
X160957894Y-109655351D01*
X160964029Y-109654879D01*
X160964031Y-109654879D01*
X161036625Y-109649293D01*
X161163300Y-109639546D01*
X161169230Y-109637890D01*
X161169232Y-109637890D01*
X161355797Y-109585800D01*
X161355796Y-109585800D01*
X161361725Y-109584145D01*
X161367214Y-109581372D01*
X161367220Y-109581370D01*
X161540116Y-109494033D01*
X161545610Y-109491258D01*
X161707951Y-109364424D01*
X161753313Y-109311872D01*
X161838540Y-109213134D01*
X161838540Y-109213133D01*
X161842564Y-109208472D01*
X161847528Y-109199735D01*
X161895895Y-109114593D01*
X161944323Y-109029344D01*
X162009351Y-108833863D01*
X162035171Y-108629474D01*
X162035583Y-108600000D01*
X162034138Y-108585262D01*
X162464520Y-108585262D01*
X162481759Y-108790553D01*
X162483458Y-108796478D01*
X162527804Y-108951130D01*
X162538544Y-108988586D01*
X162541359Y-108994063D01*
X162541360Y-108994066D01*
X162600050Y-109108265D01*
X162632712Y-109171818D01*
X162760677Y-109333270D01*
X162917564Y-109466791D01*
X163097398Y-109567297D01*
X163181280Y-109594552D01*
X163287471Y-109629056D01*
X163287475Y-109629057D01*
X163293329Y-109630959D01*
X163497894Y-109655351D01*
X163504029Y-109654879D01*
X163504031Y-109654879D01*
X163576625Y-109649293D01*
X163703300Y-109639546D01*
X163709230Y-109637890D01*
X163709232Y-109637890D01*
X163895797Y-109585800D01*
X163895796Y-109585800D01*
X163901725Y-109584145D01*
X163907214Y-109581372D01*
X163907220Y-109581370D01*
X164080116Y-109494033D01*
X164085610Y-109491258D01*
X164247951Y-109364424D01*
X164293313Y-109311872D01*
X164378540Y-109213134D01*
X164378540Y-109213133D01*
X164382564Y-109208472D01*
X164387528Y-109199735D01*
X164435895Y-109114593D01*
X164484323Y-109029344D01*
X164549351Y-108833863D01*
X164575171Y-108629474D01*
X164575583Y-108600000D01*
X164574138Y-108585262D01*
X165004520Y-108585262D01*
X165021759Y-108790553D01*
X165023458Y-108796478D01*
X165067804Y-108951130D01*
X165078544Y-108988586D01*
X165081359Y-108994063D01*
X165081360Y-108994066D01*
X165140050Y-109108265D01*
X165172712Y-109171818D01*
X165300677Y-109333270D01*
X165457564Y-109466791D01*
X165637398Y-109567297D01*
X165721280Y-109594552D01*
X165827471Y-109629056D01*
X165827475Y-109629057D01*
X165833329Y-109630959D01*
X166037894Y-109655351D01*
X166044029Y-109654879D01*
X166044031Y-109654879D01*
X166116625Y-109649293D01*
X166243300Y-109639546D01*
X166249230Y-109637890D01*
X166249232Y-109637890D01*
X166435797Y-109585800D01*
X166435796Y-109585800D01*
X166441725Y-109584145D01*
X166447214Y-109581372D01*
X166447220Y-109581370D01*
X166620116Y-109494033D01*
X166625610Y-109491258D01*
X166787951Y-109364424D01*
X166833313Y-109311872D01*
X166918540Y-109213134D01*
X166918540Y-109213133D01*
X166922564Y-109208472D01*
X166927528Y-109199735D01*
X166975895Y-109114593D01*
X167024323Y-109029344D01*
X167089351Y-108833863D01*
X167115171Y-108629474D01*
X167115583Y-108600000D01*
X167114138Y-108585262D01*
X167544520Y-108585262D01*
X167561759Y-108790553D01*
X167563458Y-108796478D01*
X167607804Y-108951130D01*
X167618544Y-108988586D01*
X167621359Y-108994063D01*
X167621360Y-108994066D01*
X167680050Y-109108265D01*
X167712712Y-109171818D01*
X167840677Y-109333270D01*
X167997564Y-109466791D01*
X168177398Y-109567297D01*
X168261280Y-109594552D01*
X168367471Y-109629056D01*
X168367475Y-109629057D01*
X168373329Y-109630959D01*
X168577894Y-109655351D01*
X168584029Y-109654879D01*
X168584031Y-109654879D01*
X168656625Y-109649293D01*
X168783300Y-109639546D01*
X168789230Y-109637890D01*
X168789232Y-109637890D01*
X168975797Y-109585800D01*
X168975796Y-109585800D01*
X168981725Y-109584145D01*
X168987214Y-109581372D01*
X168987220Y-109581370D01*
X169160116Y-109494033D01*
X169165610Y-109491258D01*
X169327951Y-109364424D01*
X169373313Y-109311872D01*
X169458540Y-109213134D01*
X169458540Y-109213133D01*
X169462564Y-109208472D01*
X169467528Y-109199735D01*
X169515895Y-109114593D01*
X169564323Y-109029344D01*
X169629351Y-108833863D01*
X169655171Y-108629474D01*
X169655583Y-108600000D01*
X169654138Y-108585262D01*
X170084520Y-108585262D01*
X170101759Y-108790553D01*
X170103458Y-108796478D01*
X170147804Y-108951130D01*
X170158544Y-108988586D01*
X170161359Y-108994063D01*
X170161360Y-108994066D01*
X170220050Y-109108265D01*
X170252712Y-109171818D01*
X170380677Y-109333270D01*
X170537564Y-109466791D01*
X170717398Y-109567297D01*
X170801280Y-109594552D01*
X170907471Y-109629056D01*
X170907475Y-109629057D01*
X170913329Y-109630959D01*
X171117894Y-109655351D01*
X171124029Y-109654879D01*
X171124031Y-109654879D01*
X171196625Y-109649293D01*
X171323300Y-109639546D01*
X171329230Y-109637890D01*
X171329232Y-109637890D01*
X171515797Y-109585800D01*
X171515796Y-109585800D01*
X171521725Y-109584145D01*
X171527214Y-109581372D01*
X171527220Y-109581370D01*
X171700116Y-109494033D01*
X171705610Y-109491258D01*
X171867951Y-109364424D01*
X171913313Y-109311872D01*
X171998540Y-109213134D01*
X171998540Y-109213133D01*
X172002564Y-109208472D01*
X172007528Y-109199735D01*
X172055895Y-109114593D01*
X172104323Y-109029344D01*
X172169351Y-108833863D01*
X172195171Y-108629474D01*
X172195583Y-108600000D01*
X172194138Y-108585262D01*
X172624520Y-108585262D01*
X172641759Y-108790553D01*
X172643458Y-108796478D01*
X172687804Y-108951130D01*
X172698544Y-108988586D01*
X172701359Y-108994063D01*
X172701360Y-108994066D01*
X172760050Y-109108265D01*
X172792712Y-109171818D01*
X172920677Y-109333270D01*
X173077564Y-109466791D01*
X173257398Y-109567297D01*
X173341280Y-109594552D01*
X173447471Y-109629056D01*
X173447475Y-109629057D01*
X173453329Y-109630959D01*
X173657894Y-109655351D01*
X173664029Y-109654879D01*
X173664031Y-109654879D01*
X173736625Y-109649293D01*
X173863300Y-109639546D01*
X173869230Y-109637890D01*
X173869232Y-109637890D01*
X174055797Y-109585800D01*
X174055796Y-109585800D01*
X174061725Y-109584145D01*
X174067214Y-109581372D01*
X174067220Y-109581370D01*
X174240116Y-109494033D01*
X174245610Y-109491258D01*
X174407951Y-109364424D01*
X174453313Y-109311872D01*
X174538540Y-109213134D01*
X174538540Y-109213133D01*
X174542564Y-109208472D01*
X174547528Y-109199735D01*
X174595895Y-109114593D01*
X174644323Y-109029344D01*
X174709351Y-108833863D01*
X174735171Y-108629474D01*
X174735583Y-108600000D01*
X174715480Y-108394970D01*
X174655935Y-108197749D01*
X174559218Y-108015849D01*
X174485859Y-107925902D01*
X174432906Y-107860975D01*
X174432903Y-107860972D01*
X174429011Y-107856200D01*
X174411786Y-107841950D01*
X174275025Y-107728811D01*
X174275021Y-107728809D01*
X174270275Y-107724882D01*
X174089055Y-107626897D01*
X173892254Y-107565977D01*
X173886129Y-107565333D01*
X173886128Y-107565333D01*
X173693498Y-107545087D01*
X173693496Y-107545087D01*
X173687369Y-107544443D01*
X173600529Y-107552346D01*
X173488342Y-107562555D01*
X173488339Y-107562556D01*
X173482203Y-107563114D01*
X173284572Y-107621280D01*
X173102002Y-107716726D01*
X173097201Y-107720586D01*
X173097198Y-107720588D01*
X172954138Y-107835611D01*
X172941447Y-107845815D01*
X172809024Y-108003630D01*
X172806056Y-108009028D01*
X172806053Y-108009033D01*
X172799315Y-108021290D01*
X172709776Y-108184162D01*
X172647484Y-108380532D01*
X172646798Y-108386649D01*
X172646797Y-108386653D01*
X172628186Y-108552576D01*
X172624520Y-108585262D01*
X172194138Y-108585262D01*
X172175480Y-108394970D01*
X172115935Y-108197749D01*
X172019218Y-108015849D01*
X171945859Y-107925902D01*
X171892906Y-107860975D01*
X171892903Y-107860972D01*
X171889011Y-107856200D01*
X171871786Y-107841950D01*
X171735025Y-107728811D01*
X171735021Y-107728809D01*
X171730275Y-107724882D01*
X171549055Y-107626897D01*
X171352254Y-107565977D01*
X171346129Y-107565333D01*
X171346128Y-107565333D01*
X171153498Y-107545087D01*
X171153496Y-107545087D01*
X171147369Y-107544443D01*
X171060529Y-107552346D01*
X170948342Y-107562555D01*
X170948339Y-107562556D01*
X170942203Y-107563114D01*
X170744572Y-107621280D01*
X170562002Y-107716726D01*
X170557201Y-107720586D01*
X170557198Y-107720588D01*
X170414138Y-107835611D01*
X170401447Y-107845815D01*
X170269024Y-108003630D01*
X170266056Y-108009028D01*
X170266053Y-108009033D01*
X170259315Y-108021290D01*
X170169776Y-108184162D01*
X170107484Y-108380532D01*
X170106798Y-108386649D01*
X170106797Y-108386653D01*
X170088186Y-108552576D01*
X170084520Y-108585262D01*
X169654138Y-108585262D01*
X169635480Y-108394970D01*
X169575935Y-108197749D01*
X169479218Y-108015849D01*
X169405859Y-107925902D01*
X169352906Y-107860975D01*
X169352903Y-107860972D01*
X169349011Y-107856200D01*
X169331786Y-107841950D01*
X169195025Y-107728811D01*
X169195021Y-107728809D01*
X169190275Y-107724882D01*
X169009055Y-107626897D01*
X168812254Y-107565977D01*
X168806129Y-107565333D01*
X168806128Y-107565333D01*
X168613498Y-107545087D01*
X168613496Y-107545087D01*
X168607369Y-107544443D01*
X168520529Y-107552346D01*
X168408342Y-107562555D01*
X168408339Y-107562556D01*
X168402203Y-107563114D01*
X168204572Y-107621280D01*
X168022002Y-107716726D01*
X168017201Y-107720586D01*
X168017198Y-107720588D01*
X167874138Y-107835611D01*
X167861447Y-107845815D01*
X167729024Y-108003630D01*
X167726056Y-108009028D01*
X167726053Y-108009033D01*
X167719315Y-108021290D01*
X167629776Y-108184162D01*
X167567484Y-108380532D01*
X167566798Y-108386649D01*
X167566797Y-108386653D01*
X167548186Y-108552576D01*
X167544520Y-108585262D01*
X167114138Y-108585262D01*
X167095480Y-108394970D01*
X167035935Y-108197749D01*
X166939218Y-108015849D01*
X166865859Y-107925902D01*
X166812906Y-107860975D01*
X166812903Y-107860972D01*
X166809011Y-107856200D01*
X166791786Y-107841950D01*
X166655025Y-107728811D01*
X166655021Y-107728809D01*
X166650275Y-107724882D01*
X166469055Y-107626897D01*
X166272254Y-107565977D01*
X166266129Y-107565333D01*
X166266128Y-107565333D01*
X166073498Y-107545087D01*
X166073496Y-107545087D01*
X166067369Y-107544443D01*
X165980529Y-107552346D01*
X165868342Y-107562555D01*
X165868339Y-107562556D01*
X165862203Y-107563114D01*
X165664572Y-107621280D01*
X165482002Y-107716726D01*
X165477201Y-107720586D01*
X165477198Y-107720588D01*
X165334138Y-107835611D01*
X165321447Y-107845815D01*
X165189024Y-108003630D01*
X165186056Y-108009028D01*
X165186053Y-108009033D01*
X165179315Y-108021290D01*
X165089776Y-108184162D01*
X165027484Y-108380532D01*
X165026798Y-108386649D01*
X165026797Y-108386653D01*
X165008186Y-108552576D01*
X165004520Y-108585262D01*
X164574138Y-108585262D01*
X164555480Y-108394970D01*
X164495935Y-108197749D01*
X164399218Y-108015849D01*
X164325859Y-107925902D01*
X164272906Y-107860975D01*
X164272903Y-107860972D01*
X164269011Y-107856200D01*
X164251786Y-107841950D01*
X164115025Y-107728811D01*
X164115021Y-107728809D01*
X164110275Y-107724882D01*
X163929055Y-107626897D01*
X163732254Y-107565977D01*
X163726129Y-107565333D01*
X163726128Y-107565333D01*
X163533498Y-107545087D01*
X163533496Y-107545087D01*
X163527369Y-107544443D01*
X163440529Y-107552346D01*
X163328342Y-107562555D01*
X163328339Y-107562556D01*
X163322203Y-107563114D01*
X163124572Y-107621280D01*
X162942002Y-107716726D01*
X162937201Y-107720586D01*
X162937198Y-107720588D01*
X162794138Y-107835611D01*
X162781447Y-107845815D01*
X162649024Y-108003630D01*
X162646056Y-108009028D01*
X162646053Y-108009033D01*
X162639315Y-108021290D01*
X162549776Y-108184162D01*
X162487484Y-108380532D01*
X162486798Y-108386649D01*
X162486797Y-108386653D01*
X162468186Y-108552576D01*
X162464520Y-108585262D01*
X162034138Y-108585262D01*
X162015480Y-108394970D01*
X161955935Y-108197749D01*
X161859218Y-108015849D01*
X161785859Y-107925902D01*
X161732906Y-107860975D01*
X161732903Y-107860972D01*
X161729011Y-107856200D01*
X161711786Y-107841950D01*
X161575025Y-107728811D01*
X161575021Y-107728809D01*
X161570275Y-107724882D01*
X161389055Y-107626897D01*
X161192254Y-107565977D01*
X161186129Y-107565333D01*
X161186128Y-107565333D01*
X160993498Y-107545087D01*
X160993496Y-107545087D01*
X160987369Y-107544443D01*
X160900529Y-107552346D01*
X160788342Y-107562555D01*
X160788339Y-107562556D01*
X160782203Y-107563114D01*
X160584572Y-107621280D01*
X160402002Y-107716726D01*
X160397201Y-107720586D01*
X160397198Y-107720588D01*
X160254138Y-107835611D01*
X160241447Y-107845815D01*
X160109024Y-108003630D01*
X160106056Y-108009028D01*
X160106053Y-108009033D01*
X160099315Y-108021290D01*
X160009776Y-108184162D01*
X159947484Y-108380532D01*
X159946798Y-108386649D01*
X159946797Y-108386653D01*
X159928186Y-108552576D01*
X159924520Y-108585262D01*
X159494138Y-108585262D01*
X159475480Y-108394970D01*
X159415935Y-108197749D01*
X159319218Y-108015849D01*
X159245859Y-107925902D01*
X159192906Y-107860975D01*
X159192903Y-107860972D01*
X159189011Y-107856200D01*
X159171786Y-107841950D01*
X159035025Y-107728811D01*
X159035021Y-107728809D01*
X159030275Y-107724882D01*
X158849055Y-107626897D01*
X158652254Y-107565977D01*
X158646129Y-107565333D01*
X158646128Y-107565333D01*
X158453498Y-107545087D01*
X158453496Y-107545087D01*
X158447369Y-107544443D01*
X158360529Y-107552346D01*
X158248342Y-107562555D01*
X158248339Y-107562556D01*
X158242203Y-107563114D01*
X158044572Y-107621280D01*
X157862002Y-107716726D01*
X157857201Y-107720586D01*
X157857198Y-107720588D01*
X157714138Y-107835611D01*
X157701447Y-107845815D01*
X157569024Y-108003630D01*
X157566056Y-108009028D01*
X157566053Y-108009033D01*
X157559315Y-108021290D01*
X157469776Y-108184162D01*
X157407484Y-108380532D01*
X157406798Y-108386649D01*
X157406797Y-108386653D01*
X157388186Y-108552576D01*
X157384520Y-108585262D01*
X156954138Y-108585262D01*
X156935480Y-108394970D01*
X156875935Y-108197749D01*
X156779218Y-108015849D01*
X156705859Y-107925902D01*
X156652906Y-107860975D01*
X156652903Y-107860972D01*
X156649011Y-107856200D01*
X156631786Y-107841950D01*
X156495025Y-107728811D01*
X156495021Y-107728809D01*
X156490275Y-107724882D01*
X156309055Y-107626897D01*
X156112254Y-107565977D01*
X156106129Y-107565333D01*
X156106128Y-107565333D01*
X155913498Y-107545087D01*
X155913496Y-107545087D01*
X155907369Y-107544443D01*
X155820529Y-107552346D01*
X155708342Y-107562555D01*
X155708339Y-107562556D01*
X155702203Y-107563114D01*
X155504572Y-107621280D01*
X155322002Y-107716726D01*
X155317201Y-107720586D01*
X155317198Y-107720588D01*
X155174138Y-107835611D01*
X155161447Y-107845815D01*
X155029024Y-108003630D01*
X155026056Y-108009028D01*
X155026053Y-108009033D01*
X155019315Y-108021290D01*
X154929776Y-108184162D01*
X154867484Y-108380532D01*
X154866798Y-108386649D01*
X154866797Y-108386653D01*
X154848186Y-108552576D01*
X154844520Y-108585262D01*
X154414138Y-108585262D01*
X154395480Y-108394970D01*
X154335935Y-108197749D01*
X154239218Y-108015849D01*
X154165859Y-107925902D01*
X154112906Y-107860975D01*
X154112903Y-107860972D01*
X154109011Y-107856200D01*
X154091786Y-107841950D01*
X153955025Y-107728811D01*
X153955021Y-107728809D01*
X153950275Y-107724882D01*
X153769055Y-107626897D01*
X153572254Y-107565977D01*
X153566129Y-107565333D01*
X153566128Y-107565333D01*
X153373498Y-107545087D01*
X153373496Y-107545087D01*
X153367369Y-107544443D01*
X153280529Y-107552346D01*
X153168342Y-107562555D01*
X153168339Y-107562556D01*
X153162203Y-107563114D01*
X152964572Y-107621280D01*
X152782002Y-107716726D01*
X152777201Y-107720586D01*
X152777198Y-107720588D01*
X152634138Y-107835611D01*
X152621447Y-107845815D01*
X152489024Y-108003630D01*
X152486056Y-108009028D01*
X152486053Y-108009033D01*
X152479315Y-108021290D01*
X152389776Y-108184162D01*
X152327484Y-108380532D01*
X152326798Y-108386649D01*
X152326797Y-108386653D01*
X152308186Y-108552576D01*
X152304520Y-108585262D01*
X151874138Y-108585262D01*
X151855480Y-108394970D01*
X151795935Y-108197749D01*
X151699218Y-108015849D01*
X151625859Y-107925902D01*
X151572906Y-107860975D01*
X151572903Y-107860972D01*
X151569011Y-107856200D01*
X151551786Y-107841950D01*
X151415025Y-107728811D01*
X151415021Y-107728809D01*
X151410275Y-107724882D01*
X151229055Y-107626897D01*
X151032254Y-107565977D01*
X151026129Y-107565333D01*
X151026128Y-107565333D01*
X150833498Y-107545087D01*
X150833496Y-107545087D01*
X150827369Y-107544443D01*
X150740529Y-107552346D01*
X150628342Y-107562555D01*
X150628339Y-107562556D01*
X150622203Y-107563114D01*
X150424572Y-107621280D01*
X150242002Y-107716726D01*
X150237201Y-107720586D01*
X150237198Y-107720588D01*
X150094138Y-107835611D01*
X150081447Y-107845815D01*
X149949024Y-108003630D01*
X149946056Y-108009028D01*
X149946053Y-108009033D01*
X149939315Y-108021290D01*
X149849776Y-108184162D01*
X149787484Y-108380532D01*
X149786798Y-108386649D01*
X149786797Y-108386653D01*
X149768186Y-108552576D01*
X149764520Y-108585262D01*
X149330500Y-108585262D01*
X149330500Y-107730252D01*
X149318867Y-107671769D01*
X149274552Y-107605448D01*
X149208231Y-107561133D01*
X149196062Y-107558712D01*
X149196061Y-107558712D01*
X149155816Y-107550707D01*
X149149748Y-107549500D01*
X147410252Y-107549500D01*
X147404184Y-107550707D01*
X147363939Y-107558712D01*
X147363938Y-107558712D01*
X147351769Y-107561133D01*
X147285448Y-107605448D01*
X147241133Y-107671769D01*
X147229500Y-107730252D01*
X147229500Y-109469748D01*
X140310500Y-109469748D01*
X140310500Y-107730252D01*
X140298867Y-107671769D01*
X140254552Y-107605448D01*
X140188231Y-107561133D01*
X140176062Y-107558712D01*
X140176061Y-107558712D01*
X140135816Y-107550707D01*
X140129748Y-107549500D01*
X138390252Y-107549500D01*
X138384184Y-107550707D01*
X138343939Y-107558712D01*
X138343938Y-107558712D01*
X138331769Y-107561133D01*
X138265448Y-107605448D01*
X138221133Y-107671769D01*
X138209500Y-107730252D01*
X138209500Y-109469748D01*
X135354571Y-109469748D01*
X135419958Y-109308720D01*
X135520865Y-108954482D01*
X135576420Y-108629474D01*
X135582353Y-108594765D01*
X135582353Y-108594763D01*
X135582925Y-108591418D01*
X135583677Y-108579137D01*
X135605301Y-108225572D01*
X135605411Y-108223775D01*
X135605450Y-108212700D01*
X135605488Y-108201820D01*
X135605488Y-108201808D01*
X135605494Y-108200000D01*
X135585575Y-107832209D01*
X135526052Y-107468720D01*
X135427620Y-107113786D01*
X135424443Y-107105801D01*
X135292690Y-106774722D01*
X135291431Y-106771558D01*
X135261358Y-106714760D01*
X135120677Y-106449060D01*
X135120673Y-106449053D01*
X135119078Y-106446041D01*
X134912578Y-106141041D01*
X134674346Y-105860128D01*
X134407168Y-105606586D01*
X134114172Y-105383382D01*
X134111260Y-105381625D01*
X134111255Y-105381622D01*
X133801705Y-105194889D01*
X133801696Y-105194884D01*
X133798783Y-105193127D01*
X133795693Y-105191693D01*
X133795688Y-105191690D01*
X133631737Y-105115587D01*
X133464691Y-105038047D01*
X133461466Y-105036955D01*
X133461460Y-105036953D01*
X133119032Y-104921048D01*
X133119027Y-104921047D01*
X133115805Y-104919956D01*
X132881920Y-104868104D01*
X132759536Y-104840972D01*
X132759532Y-104840971D01*
X132756206Y-104840234D01*
X132606624Y-104823720D01*
X132393482Y-104800189D01*
X132393475Y-104800189D01*
X132390100Y-104799816D01*
X132386701Y-104799810D01*
X132386700Y-104799810D01*
X132212980Y-104799507D01*
X132021770Y-104799173D01*
X131884556Y-104813837D01*
X131658910Y-104837951D01*
X131658904Y-104837952D01*
X131655526Y-104838313D01*
X131295650Y-104916779D01*
X130946354Y-105033652D01*
X130943261Y-105035075D01*
X130943260Y-105035075D01*
X130933674Y-105039484D01*
X130611723Y-105187565D01*
X130608789Y-105189321D01*
X130608787Y-105189322D01*
X130514763Y-105245594D01*
X130295672Y-105376718D01*
X130001898Y-105598897D01*
X129733837Y-105851505D01*
X129494626Y-106131585D01*
X129492698Y-106134412D01*
X129492696Y-106134414D01*
X129486251Y-106143862D01*
X129287062Y-106435862D01*
X129113574Y-106760776D01*
X129112299Y-106763948D01*
X129112297Y-106763952D01*
X129109240Y-106771558D01*
X128976192Y-107102526D01*
X128975273Y-107105794D01*
X128975271Y-107105801D01*
X128947799Y-107203537D01*
X128910110Y-107263703D01*
X128845875Y-107293942D01*
X128775489Y-107284653D01*
X128721298Y-107238785D01*
X128700500Y-107169441D01*
X128700500Y-104200000D01*
X169394508Y-104200000D01*
X169414354Y-104325304D01*
X169471950Y-104438342D01*
X169561658Y-104528050D01*
X169674696Y-104585646D01*
X169684485Y-104587196D01*
X169684487Y-104587197D01*
X169790207Y-104603941D01*
X169800000Y-104605492D01*
X169809793Y-104603941D01*
X169915513Y-104587197D01*
X169915515Y-104587196D01*
X169925304Y-104585646D01*
X170038342Y-104528050D01*
X170128050Y-104438342D01*
X170185646Y-104325304D01*
X170205492Y-104200000D01*
X170185646Y-104074696D01*
X170128050Y-103961658D01*
X170038342Y-103871950D01*
X169925304Y-103814354D01*
X169915515Y-103812804D01*
X169915513Y-103812803D01*
X169809793Y-103796059D01*
X169800000Y-103794508D01*
X169790207Y-103796059D01*
X169684487Y-103812803D01*
X169684485Y-103812804D01*
X169674696Y-103814354D01*
X169561658Y-103871950D01*
X169471950Y-103961658D01*
X169414354Y-104074696D01*
X169394508Y-104200000D01*
X128700500Y-104200000D01*
X128700500Y-103200000D01*
X185994318Y-103200000D01*
X186014956Y-103356762D01*
X186075464Y-103502841D01*
X186171718Y-103628282D01*
X186297159Y-103724536D01*
X186443238Y-103785044D01*
X186600000Y-103805682D01*
X186608188Y-103804604D01*
X186748574Y-103786122D01*
X186756762Y-103785044D01*
X186902841Y-103724536D01*
X187028282Y-103628282D01*
X187100037Y-103534769D01*
X187157375Y-103492902D01*
X187228246Y-103488680D01*
X187290149Y-103523444D01*
X187299963Y-103534769D01*
X187371718Y-103628282D01*
X187497159Y-103724536D01*
X187643238Y-103785044D01*
X187800000Y-103805682D01*
X187808188Y-103804604D01*
X187948574Y-103786122D01*
X187956762Y-103785044D01*
X188102841Y-103724536D01*
X188228282Y-103628282D01*
X188324536Y-103502841D01*
X188383591Y-103360270D01*
X188428139Y-103304989D01*
X188495503Y-103282568D01*
X188564294Y-103300126D01*
X188612672Y-103352088D01*
X188616409Y-103360270D01*
X188675464Y-103502841D01*
X188771718Y-103628282D01*
X188897159Y-103724536D01*
X189043238Y-103785044D01*
X189200000Y-103805682D01*
X189208188Y-103804604D01*
X189348574Y-103786122D01*
X189356762Y-103785044D01*
X189502841Y-103724536D01*
X189628282Y-103628282D01*
X189700037Y-103534769D01*
X189757375Y-103492902D01*
X189828246Y-103488680D01*
X189890149Y-103523444D01*
X189899963Y-103534769D01*
X189971718Y-103628282D01*
X190097159Y-103724536D01*
X190243238Y-103785044D01*
X190400000Y-103805682D01*
X190408188Y-103804604D01*
X190548574Y-103786122D01*
X190556762Y-103785044D01*
X190702841Y-103724536D01*
X190828282Y-103628282D01*
X190924536Y-103502841D01*
X190985044Y-103356762D01*
X191005682Y-103200000D01*
X190985044Y-103043238D01*
X190924536Y-102897159D01*
X190828282Y-102771718D01*
X190702841Y-102675464D01*
X190556762Y-102614956D01*
X190400000Y-102594318D01*
X190243238Y-102614956D01*
X190097159Y-102675464D01*
X189971718Y-102771718D01*
X189966695Y-102778264D01*
X189899963Y-102865231D01*
X189842625Y-102907098D01*
X189771754Y-102911320D01*
X189709851Y-102876556D01*
X189700037Y-102865231D01*
X189633305Y-102778264D01*
X189628282Y-102771718D01*
X189502841Y-102675464D01*
X189356762Y-102614956D01*
X189200000Y-102594318D01*
X189043238Y-102614956D01*
X188897159Y-102675464D01*
X188771718Y-102771718D01*
X188675464Y-102897159D01*
X188623261Y-103023188D01*
X188616409Y-103039730D01*
X188571861Y-103095011D01*
X188504497Y-103117432D01*
X188435706Y-103099874D01*
X188387328Y-103047912D01*
X188383591Y-103039730D01*
X188376739Y-103023188D01*
X188324536Y-102897159D01*
X188228282Y-102771718D01*
X188102841Y-102675464D01*
X187956762Y-102614956D01*
X187800000Y-102594318D01*
X187643238Y-102614956D01*
X187497159Y-102675464D01*
X187371718Y-102771718D01*
X187366695Y-102778264D01*
X187299963Y-102865231D01*
X187242625Y-102907098D01*
X187171754Y-102911320D01*
X187109851Y-102876556D01*
X187100037Y-102865231D01*
X187033305Y-102778264D01*
X187028282Y-102771718D01*
X186902841Y-102675464D01*
X186756762Y-102614956D01*
X186600000Y-102594318D01*
X186443238Y-102614956D01*
X186297159Y-102675464D01*
X186171718Y-102771718D01*
X186075464Y-102897159D01*
X186014956Y-103043238D01*
X185994318Y-103200000D01*
X128700500Y-103200000D01*
X128700500Y-99200000D01*
X169794508Y-99200000D01*
X169814354Y-99325304D01*
X169871950Y-99438342D01*
X169961658Y-99528050D01*
X170074696Y-99585646D01*
X170084485Y-99587196D01*
X170084487Y-99587197D01*
X170190207Y-99603941D01*
X170200000Y-99605492D01*
X170209793Y-99603941D01*
X170315513Y-99587197D01*
X170315515Y-99587196D01*
X170325304Y-99585646D01*
X170438342Y-99528050D01*
X170528050Y-99438342D01*
X170585646Y-99325304D01*
X170605492Y-99200000D01*
X170585646Y-99074696D01*
X170528050Y-98961658D01*
X170438342Y-98871950D01*
X170325304Y-98814354D01*
X170315515Y-98812804D01*
X170315513Y-98812803D01*
X170209793Y-98796059D01*
X170200000Y-98794508D01*
X170190207Y-98796059D01*
X170084487Y-98812803D01*
X170084485Y-98812804D01*
X170074696Y-98814354D01*
X169961658Y-98871950D01*
X169871950Y-98961658D01*
X169814354Y-99074696D01*
X169794508Y-99200000D01*
X128700500Y-99200000D01*
X128700500Y-96400000D01*
X146394508Y-96400000D01*
X146396059Y-96409793D01*
X146411371Y-96506468D01*
X146414354Y-96525304D01*
X146471950Y-96638342D01*
X146561658Y-96728050D01*
X146674696Y-96785646D01*
X146684485Y-96787196D01*
X146684487Y-96787197D01*
X146790207Y-96803941D01*
X146800000Y-96805492D01*
X146809793Y-96803941D01*
X146915513Y-96787197D01*
X146915515Y-96787196D01*
X146925304Y-96785646D01*
X147038342Y-96728050D01*
X147128050Y-96638342D01*
X147185646Y-96525304D01*
X147188630Y-96506468D01*
X147203941Y-96409793D01*
X147205492Y-96400000D01*
X147794508Y-96400000D01*
X147796059Y-96409793D01*
X147811371Y-96506468D01*
X147814354Y-96525304D01*
X147871950Y-96638342D01*
X147961658Y-96728050D01*
X148074696Y-96785646D01*
X148084485Y-96787196D01*
X148084487Y-96787197D01*
X148190207Y-96803941D01*
X148200000Y-96805492D01*
X148209793Y-96803941D01*
X148315513Y-96787197D01*
X148315515Y-96787196D01*
X148325304Y-96785646D01*
X148438342Y-96728050D01*
X148528050Y-96638342D01*
X148585646Y-96525304D01*
X148588630Y-96506468D01*
X148603941Y-96409793D01*
X148605492Y-96400000D01*
X148994508Y-96400000D01*
X148996059Y-96409793D01*
X149011371Y-96506468D01*
X149014354Y-96525304D01*
X149071950Y-96638342D01*
X149161658Y-96728050D01*
X149274696Y-96785646D01*
X149284485Y-96787196D01*
X149284487Y-96787197D01*
X149390207Y-96803941D01*
X149400000Y-96805492D01*
X149409793Y-96803941D01*
X149515513Y-96787197D01*
X149515515Y-96787196D01*
X149525304Y-96785646D01*
X149638342Y-96728050D01*
X149728050Y-96638342D01*
X149760834Y-96574001D01*
X167994318Y-96574001D01*
X168014956Y-96730763D01*
X168018116Y-96738392D01*
X168022334Y-96748574D01*
X168075464Y-96876842D01*
X168171718Y-97002283D01*
X168297159Y-97098537D01*
X168443238Y-97159045D01*
X168600000Y-97179683D01*
X168608188Y-97178605D01*
X168748574Y-97160123D01*
X168756762Y-97159045D01*
X168902841Y-97098537D01*
X169028282Y-97002283D01*
X169124536Y-96876842D01*
X169177666Y-96748574D01*
X169181884Y-96738392D01*
X169185044Y-96730763D01*
X169205682Y-96574001D01*
X170594318Y-96574001D01*
X170614956Y-96730763D01*
X170618116Y-96738392D01*
X170622334Y-96748574D01*
X170675464Y-96876842D01*
X170771718Y-97002283D01*
X170897159Y-97098537D01*
X171043238Y-97159045D01*
X171200000Y-97179683D01*
X171208188Y-97178605D01*
X171348574Y-97160123D01*
X171356762Y-97159045D01*
X171502841Y-97098537D01*
X171628282Y-97002283D01*
X171724536Y-96876842D01*
X171779050Y-96745234D01*
X171823597Y-96689954D01*
X171890960Y-96667533D01*
X171959752Y-96685091D01*
X172008130Y-96737053D01*
X172014606Y-96754103D01*
X172014956Y-96756762D01*
X172018115Y-96764389D01*
X172018116Y-96764392D01*
X172045210Y-96829801D01*
X172075464Y-96902841D01*
X172171718Y-97028282D01*
X172297159Y-97124536D01*
X172443238Y-97185044D01*
X172600000Y-97205682D01*
X172608188Y-97204604D01*
X172748574Y-97186122D01*
X172756762Y-97185044D01*
X172902841Y-97124536D01*
X173028282Y-97028282D01*
X173124536Y-96902841D01*
X173185044Y-96756762D01*
X173205682Y-96600000D01*
X173185044Y-96443238D01*
X173179050Y-96428766D01*
X173174275Y-96417239D01*
X173124536Y-96297159D01*
X173028282Y-96171718D01*
X172902841Y-96075464D01*
X172756762Y-96014956D01*
X172600000Y-95994318D01*
X172443238Y-96014956D01*
X172297159Y-96075464D01*
X172171718Y-96171718D01*
X172075464Y-96297159D01*
X172025726Y-96417239D01*
X172020951Y-96428766D01*
X171976403Y-96484047D01*
X171909040Y-96506468D01*
X171840248Y-96488910D01*
X171791870Y-96436948D01*
X171785394Y-96419898D01*
X171785044Y-96417239D01*
X171777904Y-96400000D01*
X171754790Y-96344199D01*
X171724536Y-96271160D01*
X171628282Y-96145719D01*
X171502841Y-96049465D01*
X171356762Y-95988957D01*
X171343394Y-95987197D01*
X171208188Y-95969397D01*
X171200000Y-95968319D01*
X171191812Y-95969397D01*
X171056607Y-95987197D01*
X171043238Y-95988957D01*
X170897159Y-96049465D01*
X170771718Y-96145719D01*
X170675464Y-96271160D01*
X170614956Y-96417239D01*
X170594318Y-96574001D01*
X169205682Y-96574001D01*
X169185044Y-96417239D01*
X169124536Y-96271160D01*
X169028282Y-96145719D01*
X168902841Y-96049465D01*
X168756762Y-95988957D01*
X168743394Y-95987197D01*
X168608188Y-95969397D01*
X168600000Y-95968319D01*
X168591812Y-95969397D01*
X168456607Y-95987197D01*
X168443238Y-95988957D01*
X168297159Y-96049465D01*
X168171718Y-96145719D01*
X168075464Y-96271160D01*
X168014956Y-96417239D01*
X167994318Y-96574001D01*
X149760834Y-96574001D01*
X149785646Y-96525304D01*
X149788630Y-96506468D01*
X149803941Y-96409793D01*
X149805492Y-96400000D01*
X149785646Y-96274696D01*
X149728050Y-96161658D01*
X149638342Y-96071950D01*
X149525304Y-96014354D01*
X149515515Y-96012804D01*
X149515513Y-96012803D01*
X149409793Y-95996059D01*
X149400000Y-95994508D01*
X149390207Y-95996059D01*
X149284487Y-96012803D01*
X149284485Y-96012804D01*
X149274696Y-96014354D01*
X149161658Y-96071950D01*
X149071950Y-96161658D01*
X149014354Y-96274696D01*
X148994508Y-96400000D01*
X148605492Y-96400000D01*
X148585646Y-96274696D01*
X148528050Y-96161658D01*
X148438342Y-96071950D01*
X148325304Y-96014354D01*
X148315515Y-96012804D01*
X148315513Y-96012803D01*
X148209793Y-95996059D01*
X148200000Y-95994508D01*
X148190207Y-95996059D01*
X148084487Y-96012803D01*
X148084485Y-96012804D01*
X148074696Y-96014354D01*
X147961658Y-96071950D01*
X147871950Y-96161658D01*
X147814354Y-96274696D01*
X147794508Y-96400000D01*
X147205492Y-96400000D01*
X147185646Y-96274696D01*
X147128050Y-96161658D01*
X147038342Y-96071950D01*
X146925304Y-96014354D01*
X146915515Y-96012804D01*
X146915513Y-96012803D01*
X146809793Y-95996059D01*
X146800000Y-95994508D01*
X146790207Y-95996059D01*
X146684487Y-96012803D01*
X146684485Y-96012804D01*
X146674696Y-96014354D01*
X146561658Y-96071950D01*
X146471950Y-96161658D01*
X146414354Y-96274696D01*
X146394508Y-96400000D01*
X128700500Y-96400000D01*
X128700500Y-95600000D01*
X145594508Y-95600000D01*
X145614354Y-95725304D01*
X145671950Y-95838342D01*
X145761658Y-95928050D01*
X145874696Y-95985646D01*
X145884485Y-95987196D01*
X145884487Y-95987197D01*
X145990207Y-96003941D01*
X146000000Y-96005492D01*
X146009793Y-96003941D01*
X146115513Y-95987197D01*
X146115515Y-95987196D01*
X146125304Y-95985646D01*
X146238342Y-95928050D01*
X146328050Y-95838342D01*
X146385646Y-95725304D01*
X146405492Y-95600000D01*
X146385646Y-95474696D01*
X146328050Y-95361658D01*
X146238342Y-95271950D01*
X146125304Y-95214354D01*
X146115515Y-95212804D01*
X146115513Y-95212803D01*
X146009793Y-95196059D01*
X146000000Y-95194508D01*
X145990207Y-95196059D01*
X145884487Y-95212803D01*
X145884485Y-95212804D01*
X145874696Y-95214354D01*
X145761658Y-95271950D01*
X145671950Y-95361658D01*
X145614354Y-95474696D01*
X145594508Y-95600000D01*
X128700500Y-95600000D01*
X128700500Y-93800000D01*
X156994508Y-93800000D01*
X156996059Y-93809793D01*
X157005904Y-93871950D01*
X157014354Y-93925304D01*
X157071950Y-94038342D01*
X157161658Y-94128050D01*
X157274696Y-94185646D01*
X157284485Y-94187196D01*
X157284487Y-94187197D01*
X157390207Y-94203941D01*
X157400000Y-94205492D01*
X157409793Y-94203941D01*
X157434676Y-94200000D01*
X172194508Y-94200000D01*
X172214354Y-94325304D01*
X172271950Y-94438342D01*
X172361658Y-94528050D01*
X172474696Y-94585646D01*
X172484485Y-94587196D01*
X172484487Y-94587197D01*
X172590207Y-94603941D01*
X172600000Y-94605492D01*
X172609793Y-94603941D01*
X172715513Y-94587197D01*
X172715515Y-94587196D01*
X172725304Y-94585646D01*
X172838342Y-94528050D01*
X172928050Y-94438342D01*
X172985646Y-94325304D01*
X173005492Y-94200000D01*
X172994809Y-94132550D01*
X172987197Y-94084487D01*
X172987196Y-94084485D01*
X172985646Y-94074696D01*
X172928050Y-93961658D01*
X172838342Y-93871950D01*
X172725304Y-93814354D01*
X172715515Y-93812804D01*
X172715513Y-93812803D01*
X172609793Y-93796059D01*
X172600000Y-93794508D01*
X172590207Y-93796059D01*
X172484487Y-93812803D01*
X172484485Y-93812804D01*
X172474696Y-93814354D01*
X172361658Y-93871950D01*
X172271950Y-93961658D01*
X172214354Y-94074696D01*
X172212804Y-94084485D01*
X172212803Y-94084487D01*
X172205191Y-94132550D01*
X172194508Y-94200000D01*
X157434676Y-94200000D01*
X157515513Y-94187197D01*
X157515515Y-94187196D01*
X157525304Y-94185646D01*
X157638342Y-94128050D01*
X157728050Y-94038342D01*
X157785646Y-93925304D01*
X157794097Y-93871950D01*
X157803941Y-93809793D01*
X157805492Y-93800000D01*
X157785646Y-93674696D01*
X157728050Y-93561658D01*
X157638342Y-93471950D01*
X157525304Y-93414354D01*
X157515515Y-93412804D01*
X157515513Y-93412803D01*
X157409793Y-93396059D01*
X157400000Y-93394508D01*
X157390207Y-93396059D01*
X157284487Y-93412803D01*
X157284485Y-93412804D01*
X157274696Y-93414354D01*
X157161658Y-93471950D01*
X157071950Y-93561658D01*
X157014354Y-93674696D01*
X156994508Y-93800000D01*
X128700500Y-93800000D01*
X128700500Y-93000000D01*
X180994508Y-93000000D01*
X181014354Y-93125304D01*
X181071950Y-93238342D01*
X181161658Y-93328050D01*
X181274696Y-93385646D01*
X181284485Y-93387196D01*
X181284487Y-93387197D01*
X181390207Y-93403941D01*
X181400000Y-93405492D01*
X181409793Y-93403941D01*
X181515513Y-93387197D01*
X181515515Y-93387196D01*
X181525304Y-93385646D01*
X181638342Y-93328050D01*
X181728050Y-93238342D01*
X181785646Y-93125304D01*
X181805492Y-93000000D01*
X181785646Y-92874696D01*
X181728050Y-92761658D01*
X181638342Y-92671950D01*
X181525304Y-92614354D01*
X181515515Y-92612804D01*
X181515513Y-92612803D01*
X181409793Y-92596059D01*
X181400000Y-92594508D01*
X181390207Y-92596059D01*
X181284487Y-92612803D01*
X181284485Y-92612804D01*
X181274696Y-92614354D01*
X181161658Y-92671950D01*
X181071950Y-92761658D01*
X181014354Y-92874696D01*
X180994508Y-93000000D01*
X128700500Y-93000000D01*
X128700500Y-92200000D01*
X156994508Y-92200000D01*
X157014354Y-92325304D01*
X157071950Y-92438342D01*
X157161658Y-92528050D01*
X157274696Y-92585646D01*
X157284485Y-92587196D01*
X157284487Y-92587197D01*
X157390207Y-92603941D01*
X157400000Y-92605492D01*
X157409793Y-92603941D01*
X157515513Y-92587197D01*
X157515515Y-92587196D01*
X157525304Y-92585646D01*
X157638342Y-92528050D01*
X157728050Y-92438342D01*
X157785646Y-92325304D01*
X157805492Y-92200000D01*
X157794778Y-92132351D01*
X157793742Y-92125809D01*
X184893107Y-92125809D01*
X184913745Y-92282571D01*
X184974253Y-92428650D01*
X185070507Y-92554091D01*
X185195948Y-92650345D01*
X185342027Y-92710853D01*
X185498789Y-92731491D01*
X185506977Y-92730413D01*
X185647363Y-92711931D01*
X185655551Y-92710853D01*
X185801630Y-92650345D01*
X185927071Y-92554091D01*
X186023325Y-92428650D01*
X186083833Y-92282571D01*
X186103610Y-92132351D01*
X186132333Y-92067423D01*
X186191598Y-92028332D01*
X186212086Y-92023875D01*
X186350274Y-92005682D01*
X186362306Y-92004098D01*
X186508385Y-91943590D01*
X186633826Y-91847336D01*
X186646670Y-91830598D01*
X186725053Y-91728446D01*
X186730080Y-91721895D01*
X186790588Y-91575816D01*
X186799519Y-91507981D01*
X186810365Y-91425596D01*
X186839088Y-91360668D01*
X186898353Y-91321577D01*
X186918841Y-91317120D01*
X187028697Y-91302657D01*
X187069061Y-91297343D01*
X187215140Y-91236835D01*
X187340581Y-91140581D01*
X187353425Y-91123843D01*
X187373900Y-91097159D01*
X187436835Y-91015140D01*
X187497343Y-90869061D01*
X187517981Y-90712299D01*
X187503197Y-90600000D01*
X187498421Y-90563723D01*
X187498420Y-90563721D01*
X187497343Y-90555537D01*
X187494406Y-90548447D01*
X187496091Y-90477739D01*
X187535886Y-90418944D01*
X187601151Y-90390998D01*
X187648373Y-90394375D01*
X187655537Y-90397343D01*
X187663721Y-90398420D01*
X187663723Y-90398421D01*
X187804111Y-90416903D01*
X187812299Y-90417981D01*
X187820487Y-90416903D01*
X187960873Y-90398421D01*
X187969061Y-90397343D01*
X188115140Y-90336835D01*
X188205565Y-90267450D01*
X188234035Y-90245604D01*
X188240581Y-90240581D01*
X188336835Y-90115140D01*
X188397343Y-89969061D01*
X188417981Y-89812299D01*
X188397343Y-89655537D01*
X188336835Y-89509458D01*
X188240581Y-89384017D01*
X188115140Y-89287763D01*
X187969061Y-89227255D01*
X187812299Y-89206617D01*
X187655537Y-89227255D01*
X187509458Y-89287763D01*
X187384017Y-89384017D01*
X187287763Y-89509458D01*
X187227255Y-89655537D01*
X187206617Y-89812299D01*
X187207695Y-89820487D01*
X187215595Y-89880491D01*
X187227255Y-89969061D01*
X187230192Y-89976151D01*
X187228507Y-90046859D01*
X187188712Y-90105654D01*
X187123447Y-90133600D01*
X187076225Y-90130223D01*
X187069061Y-90127255D01*
X187060877Y-90126178D01*
X187060875Y-90126177D01*
X186920487Y-90107695D01*
X186912299Y-90106617D01*
X186755537Y-90127255D01*
X186609458Y-90187763D01*
X186484017Y-90284017D01*
X186387763Y-90409458D01*
X186327255Y-90555537D01*
X186326177Y-90563726D01*
X186307478Y-90705757D01*
X186278755Y-90770685D01*
X186219490Y-90809776D01*
X186199002Y-90814233D01*
X186094804Y-90827951D01*
X186048782Y-90834010D01*
X185902703Y-90894518D01*
X185777262Y-90990772D01*
X185772239Y-90997318D01*
X185758564Y-91015140D01*
X185681008Y-91116213D01*
X185620500Y-91262292D01*
X185615744Y-91298421D01*
X185600723Y-91412512D01*
X185572000Y-91477440D01*
X185512735Y-91516531D01*
X185492247Y-91520988D01*
X185388049Y-91534706D01*
X185342027Y-91540765D01*
X185195948Y-91601273D01*
X185070507Y-91697527D01*
X185065484Y-91704073D01*
X185051809Y-91721895D01*
X184974253Y-91822968D01*
X184913745Y-91969047D01*
X184893107Y-92125809D01*
X157793742Y-92125809D01*
X157787197Y-92084487D01*
X157787196Y-92084485D01*
X157785646Y-92074696D01*
X157728050Y-91961658D01*
X157638342Y-91871950D01*
X157525304Y-91814354D01*
X157515515Y-91812804D01*
X157515513Y-91812803D01*
X157409793Y-91796059D01*
X157400000Y-91794508D01*
X157390207Y-91796059D01*
X157284487Y-91812803D01*
X157284485Y-91812804D01*
X157274696Y-91814354D01*
X157161658Y-91871950D01*
X157071950Y-91961658D01*
X157014354Y-92074696D01*
X157012804Y-92084485D01*
X157012803Y-92084487D01*
X157005222Y-92132351D01*
X156994508Y-92200000D01*
X128700500Y-92200000D01*
X128700500Y-90600000D01*
X156994508Y-90600000D01*
X157014354Y-90725304D01*
X157071950Y-90838342D01*
X157161658Y-90928050D01*
X157274696Y-90985646D01*
X157284485Y-90987196D01*
X157284487Y-90987197D01*
X157390207Y-91003941D01*
X157400000Y-91005492D01*
X157409793Y-91003941D01*
X157515513Y-90987197D01*
X157515515Y-90987196D01*
X157525304Y-90985646D01*
X157638342Y-90928050D01*
X157728050Y-90838342D01*
X157785646Y-90725304D01*
X157805492Y-90600000D01*
X157798450Y-90555537D01*
X157787197Y-90484487D01*
X157787196Y-90484485D01*
X157785646Y-90474696D01*
X157747586Y-90400000D01*
X174994318Y-90400000D01*
X175014956Y-90556762D01*
X175075464Y-90702841D01*
X175171718Y-90828282D01*
X175178264Y-90833305D01*
X175266911Y-90901326D01*
X175308778Y-90958664D01*
X175313000Y-91029535D01*
X175290171Y-91077991D01*
X175280493Y-91090604D01*
X175280491Y-91090608D01*
X175275464Y-91097159D01*
X175214956Y-91243238D01*
X175213878Y-91251426D01*
X175211369Y-91270481D01*
X175194318Y-91400000D01*
X175197688Y-91425596D01*
X175209660Y-91516531D01*
X175214956Y-91556762D01*
X175275464Y-91702841D01*
X175371718Y-91828282D01*
X175497159Y-91924536D01*
X175643238Y-91985044D01*
X175800000Y-92005682D01*
X175808188Y-92004604D01*
X175812032Y-92004098D01*
X175956762Y-91985044D01*
X176102841Y-91924536D01*
X176228282Y-91828282D01*
X176324536Y-91702841D01*
X176385044Y-91556762D01*
X176390341Y-91516531D01*
X176402312Y-91425596D01*
X176405682Y-91400000D01*
X176388631Y-91270481D01*
X176386122Y-91251426D01*
X176385044Y-91243238D01*
X176372424Y-91212770D01*
X179606147Y-91212770D01*
X179626785Y-91369532D01*
X179687293Y-91515611D01*
X179783547Y-91641052D01*
X179908988Y-91737306D01*
X180055067Y-91797814D01*
X180211829Y-91818452D01*
X180220017Y-91817374D01*
X180242957Y-91814354D01*
X180368591Y-91797814D01*
X180514670Y-91737306D01*
X180640111Y-91641052D01*
X180736365Y-91515611D01*
X180796873Y-91369532D01*
X180817511Y-91212770D01*
X180796873Y-91056008D01*
X180736365Y-90909929D01*
X180640111Y-90784488D01*
X180514670Y-90688234D01*
X180368591Y-90627726D01*
X180211829Y-90607088D01*
X180055067Y-90627726D01*
X179908988Y-90688234D01*
X179783547Y-90784488D01*
X179687293Y-90909929D01*
X179626785Y-91056008D01*
X179606147Y-91212770D01*
X176372424Y-91212770D01*
X176324536Y-91097159D01*
X176228282Y-90971718D01*
X176133089Y-90898674D01*
X176091222Y-90841336D01*
X176087000Y-90770465D01*
X176109829Y-90722009D01*
X176119507Y-90709396D01*
X176119509Y-90709392D01*
X176124536Y-90702841D01*
X176185044Y-90556762D01*
X176205682Y-90400000D01*
X176185044Y-90243238D01*
X176124536Y-90097159D01*
X176028282Y-89971718D01*
X176014149Y-89960873D01*
X175909392Y-89880491D01*
X175902841Y-89875464D01*
X175756762Y-89814956D01*
X175600000Y-89794318D01*
X175443238Y-89814956D01*
X175297159Y-89875464D01*
X175290608Y-89880491D01*
X175185852Y-89960873D01*
X175171718Y-89971718D01*
X175075464Y-90097159D01*
X175014956Y-90243238D01*
X174994318Y-90400000D01*
X157747586Y-90400000D01*
X157728050Y-90361658D01*
X157638342Y-90271950D01*
X157525304Y-90214354D01*
X157515515Y-90212804D01*
X157515513Y-90212803D01*
X157409793Y-90196059D01*
X157400000Y-90194508D01*
X157390207Y-90196059D01*
X157284487Y-90212803D01*
X157284485Y-90212804D01*
X157274696Y-90214354D01*
X157161658Y-90271950D01*
X157071950Y-90361658D01*
X157014354Y-90474696D01*
X157012804Y-90484485D01*
X157012803Y-90484487D01*
X157001550Y-90555537D01*
X156994508Y-90600000D01*
X128700500Y-90600000D01*
X128700500Y-89000000D01*
X156994508Y-89000000D01*
X156996059Y-89009793D01*
X157005904Y-89071950D01*
X157014354Y-89125304D01*
X157071950Y-89238342D01*
X157161658Y-89328050D01*
X157274696Y-89385646D01*
X157284485Y-89387196D01*
X157284487Y-89387197D01*
X157390207Y-89403941D01*
X157400000Y-89405492D01*
X157409793Y-89403941D01*
X157434676Y-89400000D01*
X166594508Y-89400000D01*
X166596059Y-89409793D01*
X166610807Y-89502907D01*
X166614354Y-89525304D01*
X166671950Y-89638342D01*
X166761658Y-89728050D01*
X166874696Y-89785646D01*
X166884485Y-89787196D01*
X166884487Y-89787197D01*
X166990207Y-89803941D01*
X167000000Y-89805492D01*
X167009793Y-89803941D01*
X167115513Y-89787197D01*
X167115515Y-89787196D01*
X167125304Y-89785646D01*
X167238342Y-89728050D01*
X167328050Y-89638342D01*
X167385646Y-89525304D01*
X167389194Y-89502907D01*
X167403941Y-89409793D01*
X167405492Y-89400000D01*
X167394809Y-89332550D01*
X167387197Y-89284487D01*
X167387196Y-89284485D01*
X167385646Y-89274696D01*
X167328050Y-89161658D01*
X167238342Y-89071950D01*
X167125304Y-89014354D01*
X167115515Y-89012804D01*
X167115513Y-89012803D01*
X167009793Y-88996059D01*
X167000000Y-88994508D01*
X166990207Y-88996059D01*
X166884487Y-89012803D01*
X166884485Y-89012804D01*
X166874696Y-89014354D01*
X166761658Y-89071950D01*
X166671950Y-89161658D01*
X166614354Y-89274696D01*
X166612804Y-89284485D01*
X166612803Y-89284487D01*
X166605191Y-89332550D01*
X166594508Y-89400000D01*
X157434676Y-89400000D01*
X157515513Y-89387197D01*
X157515515Y-89387196D01*
X157525304Y-89385646D01*
X157638342Y-89328050D01*
X157728050Y-89238342D01*
X157785646Y-89125304D01*
X157794097Y-89071950D01*
X157803941Y-89009793D01*
X157805492Y-89000000D01*
X157785646Y-88874696D01*
X157728050Y-88761658D01*
X157638342Y-88671950D01*
X157525304Y-88614354D01*
X157515515Y-88612804D01*
X157515513Y-88612803D01*
X157409793Y-88596059D01*
X157400000Y-88594508D01*
X157390207Y-88596059D01*
X157284487Y-88612803D01*
X157284485Y-88612804D01*
X157274696Y-88614354D01*
X157161658Y-88671950D01*
X157071950Y-88761658D01*
X157014354Y-88874696D01*
X156994508Y-89000000D01*
X128700500Y-89000000D01*
X128700500Y-87800000D01*
X166594508Y-87800000D01*
X166614354Y-87925304D01*
X166671950Y-88038342D01*
X166761658Y-88128050D01*
X166874696Y-88185646D01*
X166884485Y-88187196D01*
X166884487Y-88187197D01*
X166990207Y-88203941D01*
X167000000Y-88205492D01*
X167009793Y-88203941D01*
X167034676Y-88200000D01*
X186794318Y-88200000D01*
X186814956Y-88356762D01*
X186875464Y-88502841D01*
X186971718Y-88628282D01*
X187097159Y-88724536D01*
X187243238Y-88785044D01*
X187400000Y-88805682D01*
X187408188Y-88804604D01*
X187548574Y-88786122D01*
X187556762Y-88785044D01*
X187702841Y-88724536D01*
X187828282Y-88628282D01*
X187924536Y-88502841D01*
X187985044Y-88356762D01*
X187989048Y-88326346D01*
X188017769Y-88261419D01*
X188077034Y-88222326D01*
X188148025Y-88221481D01*
X188190673Y-88242828D01*
X188290604Y-88319507D01*
X188290608Y-88319509D01*
X188297159Y-88324536D01*
X188443238Y-88385044D01*
X188600000Y-88405682D01*
X188608188Y-88404604D01*
X188748574Y-88386122D01*
X188756762Y-88385044D01*
X188902841Y-88324536D01*
X189028282Y-88228282D01*
X189049984Y-88200000D01*
X189064451Y-88181145D01*
X189124536Y-88102841D01*
X189185044Y-87956762D01*
X189205682Y-87800000D01*
X189185044Y-87643238D01*
X189124536Y-87497159D01*
X189056059Y-87407918D01*
X189033305Y-87378264D01*
X189028282Y-87371718D01*
X188902841Y-87275464D01*
X188756762Y-87214956D01*
X188600000Y-87194318D01*
X188443238Y-87214956D01*
X188297159Y-87275464D01*
X188171718Y-87371718D01*
X188166695Y-87378264D01*
X188143941Y-87407918D01*
X188075464Y-87497159D01*
X188014956Y-87643238D01*
X188011130Y-87672304D01*
X188010952Y-87673653D01*
X187982231Y-87738581D01*
X187922966Y-87777674D01*
X187851975Y-87778519D01*
X187809327Y-87757172D01*
X187709396Y-87680493D01*
X187709392Y-87680491D01*
X187702841Y-87675464D01*
X187556762Y-87614956D01*
X187400000Y-87594318D01*
X187243238Y-87614956D01*
X187097159Y-87675464D01*
X186971718Y-87771718D01*
X186966695Y-87778264D01*
X186943941Y-87807918D01*
X186875464Y-87897159D01*
X186814956Y-88043238D01*
X186794318Y-88200000D01*
X167034676Y-88200000D01*
X167115513Y-88187197D01*
X167115515Y-88187196D01*
X167125304Y-88185646D01*
X167238342Y-88128050D01*
X167328050Y-88038342D01*
X167385646Y-87925304D01*
X167405492Y-87800000D01*
X167385646Y-87674696D01*
X167328050Y-87561658D01*
X167238342Y-87471950D01*
X167125304Y-87414354D01*
X167115515Y-87412804D01*
X167115513Y-87412803D01*
X167009793Y-87396059D01*
X167000000Y-87394508D01*
X166990207Y-87396059D01*
X166884487Y-87412803D01*
X166884485Y-87412804D01*
X166874696Y-87414354D01*
X166761658Y-87471950D01*
X166671950Y-87561658D01*
X166614354Y-87674696D01*
X166594508Y-87800000D01*
X128700500Y-87800000D01*
X128700500Y-87000000D01*
X172194318Y-87000000D01*
X172214956Y-87156762D01*
X172275464Y-87302841D01*
X172280491Y-87309392D01*
X172350017Y-87400000D01*
X172371718Y-87428282D01*
X172497159Y-87524536D01*
X172643238Y-87585044D01*
X172800000Y-87605682D01*
X172808188Y-87604604D01*
X172948574Y-87586122D01*
X172956762Y-87585044D01*
X172964389Y-87581885D01*
X172964392Y-87581884D01*
X173070735Y-87537835D01*
X173141325Y-87530246D01*
X173204812Y-87562025D01*
X173235362Y-87606025D01*
X173275464Y-87702841D01*
X173280491Y-87709392D01*
X173350017Y-87800000D01*
X173371718Y-87828282D01*
X173497159Y-87924536D01*
X173643238Y-87985044D01*
X173800000Y-88005682D01*
X173808188Y-88004604D01*
X173948574Y-87986122D01*
X173956762Y-87985044D01*
X174102841Y-87924536D01*
X174228282Y-87828282D01*
X174249984Y-87800000D01*
X174319509Y-87709392D01*
X174324536Y-87702841D01*
X174385044Y-87556762D01*
X174405682Y-87400000D01*
X174385044Y-87243238D01*
X174324536Y-87097159D01*
X174256059Y-87007918D01*
X174233305Y-86978264D01*
X174228282Y-86971718D01*
X174102841Y-86875464D01*
X173956762Y-86814956D01*
X173800000Y-86794318D01*
X173643238Y-86814956D01*
X173635611Y-86818115D01*
X173635608Y-86818116D01*
X173529265Y-86862165D01*
X173458675Y-86869754D01*
X173395188Y-86837975D01*
X173364638Y-86793974D01*
X173362452Y-86788696D01*
X173324536Y-86697159D01*
X173228282Y-86571718D01*
X173102841Y-86475464D01*
X172956762Y-86414956D01*
X172800000Y-86394318D01*
X172643238Y-86414956D01*
X172497159Y-86475464D01*
X172371718Y-86571718D01*
X172275464Y-86697159D01*
X172214956Y-86843238D01*
X172194318Y-87000000D01*
X128700500Y-87000000D01*
X128700500Y-86264160D01*
X174107675Y-86264160D01*
X174128313Y-86420922D01*
X174188821Y-86567001D01*
X174285075Y-86692442D01*
X174410516Y-86788696D01*
X174556595Y-86849204D01*
X174713357Y-86869842D01*
X174721545Y-86868764D01*
X174861931Y-86850282D01*
X174870119Y-86849204D01*
X175016198Y-86788696D01*
X175141639Y-86692442D01*
X175237893Y-86567001D01*
X175298401Y-86420922D01*
X175319039Y-86264160D01*
X175298401Y-86107398D01*
X175237893Y-85961319D01*
X175141639Y-85835878D01*
X175016198Y-85739624D01*
X174870119Y-85679116D01*
X174713357Y-85658478D01*
X174556595Y-85679116D01*
X174410516Y-85739624D01*
X174285075Y-85835878D01*
X174188821Y-85961319D01*
X174128313Y-86107398D01*
X174107675Y-86264160D01*
X128700500Y-86264160D01*
X128700500Y-85000000D01*
X174594508Y-85000000D01*
X174614354Y-85125304D01*
X174671950Y-85238342D01*
X174761658Y-85328050D01*
X174874696Y-85385646D01*
X174884485Y-85387196D01*
X174884487Y-85387197D01*
X174990207Y-85403941D01*
X175000000Y-85405492D01*
X175009793Y-85403941D01*
X175115513Y-85387197D01*
X175115515Y-85387196D01*
X175125304Y-85385646D01*
X175238342Y-85328050D01*
X175328050Y-85238342D01*
X175385646Y-85125304D01*
X175405492Y-85000000D01*
X175385646Y-84874696D01*
X175328050Y-84761658D01*
X175238342Y-84671950D01*
X175125304Y-84614354D01*
X175115515Y-84612804D01*
X175115513Y-84612803D01*
X175009793Y-84596059D01*
X175000000Y-84594508D01*
X174990207Y-84596059D01*
X174884487Y-84612803D01*
X174884485Y-84612804D01*
X174874696Y-84614354D01*
X174761658Y-84671950D01*
X174671950Y-84761658D01*
X174614354Y-84874696D01*
X174594508Y-85000000D01*
X128700500Y-85000000D01*
X128700500Y-84400000D01*
X166994508Y-84400000D01*
X167014354Y-84525304D01*
X167071950Y-84638342D01*
X167161658Y-84728050D01*
X167274696Y-84785646D01*
X167284485Y-84787196D01*
X167284487Y-84787197D01*
X167390207Y-84803941D01*
X167400000Y-84805492D01*
X167409793Y-84803941D01*
X167515513Y-84787197D01*
X167515515Y-84787196D01*
X167525304Y-84785646D01*
X167638342Y-84728050D01*
X167728050Y-84638342D01*
X167785646Y-84525304D01*
X167805492Y-84400000D01*
X167785646Y-84274696D01*
X167728050Y-84161658D01*
X167638342Y-84071950D01*
X167525304Y-84014354D01*
X167515515Y-84012804D01*
X167515513Y-84012803D01*
X167409793Y-83996059D01*
X167400000Y-83994508D01*
X167390207Y-83996059D01*
X167284487Y-84012803D01*
X167284485Y-84012804D01*
X167274696Y-84014354D01*
X167161658Y-84071950D01*
X167071950Y-84161658D01*
X167014354Y-84274696D01*
X166994508Y-84400000D01*
X128700500Y-84400000D01*
X128700500Y-83000000D01*
X139794318Y-83000000D01*
X139814956Y-83156762D01*
X139875464Y-83302841D01*
X139971718Y-83428282D01*
X140097159Y-83524536D01*
X140243238Y-83585044D01*
X140400000Y-83605682D01*
X140408188Y-83604604D01*
X140548574Y-83586122D01*
X140556762Y-83585044D01*
X140702841Y-83524536D01*
X140828282Y-83428282D01*
X140924536Y-83302841D01*
X140985044Y-83156762D01*
X141005682Y-83000000D01*
X141394318Y-83000000D01*
X141414956Y-83156762D01*
X141475464Y-83302841D01*
X141571718Y-83428282D01*
X141697159Y-83524536D01*
X141843238Y-83585044D01*
X142000000Y-83605682D01*
X142008188Y-83604604D01*
X142148574Y-83586122D01*
X142156762Y-83585044D01*
X142302841Y-83524536D01*
X142428282Y-83428282D01*
X142524536Y-83302841D01*
X142585044Y-83156762D01*
X142605682Y-83000000D01*
X142994318Y-83000000D01*
X143014956Y-83156762D01*
X143075464Y-83302841D01*
X143171718Y-83428282D01*
X143297159Y-83524536D01*
X143443238Y-83585044D01*
X143600000Y-83605682D01*
X143608188Y-83604604D01*
X143748574Y-83586122D01*
X143756762Y-83585044D01*
X143902841Y-83524536D01*
X144028282Y-83428282D01*
X144124536Y-83302841D01*
X144185044Y-83156762D01*
X144205682Y-83000000D01*
X144594318Y-83000000D01*
X144614956Y-83156762D01*
X144675464Y-83302841D01*
X144771718Y-83428282D01*
X144897159Y-83524536D01*
X145043238Y-83585044D01*
X145200000Y-83605682D01*
X145208188Y-83604604D01*
X145348574Y-83586122D01*
X145356762Y-83585044D01*
X145502841Y-83524536D01*
X145628282Y-83428282D01*
X145724536Y-83302841D01*
X145785044Y-83156762D01*
X145805682Y-83000000D01*
X146994318Y-83000000D01*
X147014956Y-83156762D01*
X147075464Y-83302841D01*
X147171718Y-83428282D01*
X147297159Y-83524536D01*
X147443238Y-83585044D01*
X147600000Y-83605682D01*
X147608188Y-83604604D01*
X147748574Y-83586122D01*
X147756762Y-83585044D01*
X147902841Y-83524536D01*
X148028282Y-83428282D01*
X148124536Y-83302841D01*
X148185044Y-83156762D01*
X148205682Y-83000000D01*
X148994318Y-83000000D01*
X149014956Y-83156762D01*
X149075464Y-83302841D01*
X149171718Y-83428282D01*
X149297159Y-83524536D01*
X149443238Y-83585044D01*
X149600000Y-83605682D01*
X149608188Y-83604604D01*
X149748574Y-83586122D01*
X149756762Y-83585044D01*
X149902841Y-83524536D01*
X150028282Y-83428282D01*
X150124536Y-83302841D01*
X150185044Y-83156762D01*
X150205682Y-83000000D01*
X151594318Y-83000000D01*
X151614956Y-83156762D01*
X151675464Y-83302841D01*
X151771718Y-83428282D01*
X151897159Y-83524536D01*
X152043238Y-83585044D01*
X152200000Y-83605682D01*
X152208188Y-83604604D01*
X152348574Y-83586122D01*
X152356762Y-83585044D01*
X152502841Y-83524536D01*
X152628282Y-83428282D01*
X152724536Y-83302841D01*
X152767134Y-83200000D01*
X199594508Y-83200000D01*
X199614354Y-83325304D01*
X199671950Y-83438342D01*
X199761658Y-83528050D01*
X199874696Y-83585646D01*
X199884485Y-83587196D01*
X199884487Y-83587197D01*
X199990207Y-83603941D01*
X200000000Y-83605492D01*
X200009793Y-83603941D01*
X200115513Y-83587197D01*
X200115515Y-83587196D01*
X200125304Y-83585646D01*
X200238342Y-83528050D01*
X200328050Y-83438342D01*
X200385646Y-83325304D01*
X200405492Y-83200000D01*
X200385646Y-83074696D01*
X200328050Y-82961658D01*
X200238342Y-82871950D01*
X200125304Y-82814354D01*
X200115515Y-82812804D01*
X200115513Y-82812803D01*
X200009793Y-82796059D01*
X200000000Y-82794508D01*
X199990207Y-82796059D01*
X199884487Y-82812803D01*
X199884485Y-82812804D01*
X199874696Y-82814354D01*
X199761658Y-82871950D01*
X199671950Y-82961658D01*
X199614354Y-83074696D01*
X199594508Y-83200000D01*
X152767134Y-83200000D01*
X152785044Y-83156762D01*
X152805682Y-83000000D01*
X152785044Y-82843238D01*
X152724536Y-82697159D01*
X152628282Y-82571718D01*
X152502841Y-82475464D01*
X152356762Y-82414956D01*
X152200000Y-82394318D01*
X152043238Y-82414956D01*
X151897159Y-82475464D01*
X151771718Y-82571718D01*
X151675464Y-82697159D01*
X151614956Y-82843238D01*
X151594318Y-83000000D01*
X150205682Y-83000000D01*
X150185044Y-82843238D01*
X150124536Y-82697159D01*
X150028282Y-82571718D01*
X149902841Y-82475464D01*
X149756762Y-82414956D01*
X149600000Y-82394318D01*
X149443238Y-82414956D01*
X149297159Y-82475464D01*
X149171718Y-82571718D01*
X149075464Y-82697159D01*
X149014956Y-82843238D01*
X148994318Y-83000000D01*
X148205682Y-83000000D01*
X148185044Y-82843238D01*
X148124536Y-82697159D01*
X148028282Y-82571718D01*
X147902841Y-82475464D01*
X147756762Y-82414956D01*
X147600000Y-82394318D01*
X147443238Y-82414956D01*
X147297159Y-82475464D01*
X147171718Y-82571718D01*
X147075464Y-82697159D01*
X147014956Y-82843238D01*
X146994318Y-83000000D01*
X145805682Y-83000000D01*
X145785044Y-82843238D01*
X145724536Y-82697159D01*
X145628282Y-82571718D01*
X145502841Y-82475464D01*
X145356762Y-82414956D01*
X145200000Y-82394318D01*
X145043238Y-82414956D01*
X144897159Y-82475464D01*
X144771718Y-82571718D01*
X144675464Y-82697159D01*
X144614956Y-82843238D01*
X144594318Y-83000000D01*
X144205682Y-83000000D01*
X144185044Y-82843238D01*
X144124536Y-82697159D01*
X144028282Y-82571718D01*
X143902841Y-82475464D01*
X143756762Y-82414956D01*
X143600000Y-82394318D01*
X143443238Y-82414956D01*
X143297159Y-82475464D01*
X143171718Y-82571718D01*
X143075464Y-82697159D01*
X143014956Y-82843238D01*
X142994318Y-83000000D01*
X142605682Y-83000000D01*
X142585044Y-82843238D01*
X142524536Y-82697159D01*
X142428282Y-82571718D01*
X142302841Y-82475464D01*
X142156762Y-82414956D01*
X142000000Y-82394318D01*
X141843238Y-82414956D01*
X141697159Y-82475464D01*
X141571718Y-82571718D01*
X141475464Y-82697159D01*
X141414956Y-82843238D01*
X141394318Y-83000000D01*
X141005682Y-83000000D01*
X140985044Y-82843238D01*
X140924536Y-82697159D01*
X140828282Y-82571718D01*
X140702841Y-82475464D01*
X140556762Y-82414956D01*
X140400000Y-82394318D01*
X140243238Y-82414956D01*
X140097159Y-82475464D01*
X139971718Y-82571718D01*
X139875464Y-82697159D01*
X139814956Y-82843238D01*
X139794318Y-83000000D01*
X128700500Y-83000000D01*
X128700500Y-82112500D01*
X186682008Y-82112500D01*
X186701854Y-82237804D01*
X186759450Y-82350842D01*
X186849158Y-82440550D01*
X186962196Y-82498146D01*
X186971985Y-82499696D01*
X186971987Y-82499697D01*
X187077707Y-82516441D01*
X187087500Y-82517992D01*
X187097293Y-82516441D01*
X187203013Y-82499697D01*
X187203015Y-82499696D01*
X187212804Y-82498146D01*
X187325842Y-82440550D01*
X187415550Y-82350842D01*
X187473146Y-82237804D01*
X187492992Y-82112500D01*
X187473146Y-81987196D01*
X187415550Y-81874158D01*
X187325842Y-81784450D01*
X187212804Y-81726854D01*
X187203015Y-81725304D01*
X187203013Y-81725303D01*
X187097293Y-81708559D01*
X187087500Y-81707008D01*
X187077707Y-81708559D01*
X186971987Y-81725303D01*
X186971985Y-81725304D01*
X186962196Y-81726854D01*
X186849158Y-81784450D01*
X186759450Y-81874158D01*
X186701854Y-81987196D01*
X186682008Y-82112500D01*
X128700500Y-82112500D01*
X128700500Y-81600000D01*
X174794508Y-81600000D01*
X174814354Y-81725304D01*
X174871950Y-81838342D01*
X174961658Y-81928050D01*
X175074696Y-81985646D01*
X175084485Y-81987196D01*
X175084487Y-81987197D01*
X175190207Y-82003941D01*
X175200000Y-82005492D01*
X175209793Y-82003941D01*
X175315513Y-81987197D01*
X175315515Y-81987196D01*
X175325304Y-81985646D01*
X175438342Y-81928050D01*
X175528050Y-81838342D01*
X175585646Y-81725304D01*
X175605492Y-81600000D01*
X175585646Y-81474696D01*
X175528050Y-81361658D01*
X175438342Y-81271950D01*
X175325304Y-81214354D01*
X175315515Y-81212804D01*
X175315513Y-81212803D01*
X175209793Y-81196059D01*
X175200000Y-81194508D01*
X175190207Y-81196059D01*
X175084487Y-81212803D01*
X175084485Y-81212804D01*
X175074696Y-81214354D01*
X174961658Y-81271950D01*
X174871950Y-81361658D01*
X174814354Y-81474696D01*
X174794508Y-81600000D01*
X128700500Y-81600000D01*
X128700500Y-78800000D01*
X155194508Y-78800000D01*
X155196059Y-78809793D01*
X155212092Y-78911019D01*
X155214354Y-78925304D01*
X155271950Y-79038342D01*
X155361658Y-79128050D01*
X155474696Y-79185646D01*
X155484485Y-79187196D01*
X155484487Y-79187197D01*
X155590207Y-79203941D01*
X155600000Y-79205492D01*
X155609793Y-79203941D01*
X155715513Y-79187197D01*
X155715515Y-79187196D01*
X155725304Y-79185646D01*
X155838342Y-79128050D01*
X155928050Y-79038342D01*
X155985646Y-78925304D01*
X155987588Y-78926294D01*
X156020241Y-78878542D01*
X156085638Y-78850905D01*
X156155595Y-78863012D01*
X156207900Y-78911019D01*
X156214317Y-78925068D01*
X156214354Y-78925304D01*
X156271950Y-79038342D01*
X156361658Y-79128050D01*
X156474696Y-79185646D01*
X156484485Y-79187196D01*
X156484487Y-79187197D01*
X156590207Y-79203941D01*
X156600000Y-79205492D01*
X156609793Y-79203941D01*
X156715513Y-79187197D01*
X156715515Y-79187196D01*
X156725304Y-79185646D01*
X156838342Y-79128050D01*
X156928050Y-79038342D01*
X156985646Y-78925304D01*
X156987909Y-78911019D01*
X157003941Y-78809793D01*
X157005492Y-78800000D01*
X174794508Y-78800000D01*
X174796059Y-78809793D01*
X174812092Y-78911019D01*
X174814354Y-78925304D01*
X174871950Y-79038342D01*
X174961658Y-79128050D01*
X175074696Y-79185646D01*
X175084485Y-79187196D01*
X175084487Y-79187197D01*
X175190207Y-79203941D01*
X175200000Y-79205492D01*
X175209793Y-79203941D01*
X175315513Y-79187197D01*
X175315515Y-79187196D01*
X175325304Y-79185646D01*
X175438342Y-79128050D01*
X175528050Y-79038342D01*
X175585646Y-78925304D01*
X175587909Y-78911019D01*
X175589654Y-78900000D01*
X178694508Y-78900000D01*
X178696059Y-78909793D01*
X178698673Y-78926294D01*
X178714354Y-79025304D01*
X178771950Y-79138342D01*
X178861658Y-79228050D01*
X178974696Y-79285646D01*
X178984485Y-79287196D01*
X178984487Y-79287197D01*
X179090207Y-79303941D01*
X179100000Y-79305492D01*
X179109793Y-79303941D01*
X179215513Y-79287197D01*
X179215515Y-79287196D01*
X179225304Y-79285646D01*
X179338342Y-79228050D01*
X179428050Y-79138342D01*
X179485646Y-79025304D01*
X179489654Y-79000000D01*
X182194508Y-79000000D01*
X182214354Y-79125304D01*
X182271950Y-79238342D01*
X182361658Y-79328050D01*
X182474696Y-79385646D01*
X182484485Y-79387196D01*
X182484487Y-79387197D01*
X182590207Y-79403941D01*
X182600000Y-79405492D01*
X182609793Y-79403941D01*
X182715513Y-79387197D01*
X182715515Y-79387196D01*
X182725304Y-79385646D01*
X182838342Y-79328050D01*
X182928050Y-79238342D01*
X182985646Y-79125304D01*
X183005492Y-79000000D01*
X183003941Y-78990207D01*
X182987197Y-78884487D01*
X182987196Y-78884485D01*
X182985646Y-78874696D01*
X182928050Y-78761658D01*
X182838342Y-78671950D01*
X182725304Y-78614354D01*
X182715515Y-78612804D01*
X182715513Y-78612803D01*
X182609793Y-78596059D01*
X182600000Y-78594508D01*
X182590207Y-78596059D01*
X182484487Y-78612803D01*
X182484485Y-78612804D01*
X182474696Y-78614354D01*
X182361658Y-78671950D01*
X182271950Y-78761658D01*
X182214354Y-78874696D01*
X182212804Y-78884485D01*
X182212803Y-78884487D01*
X182196059Y-78990207D01*
X182194508Y-79000000D01*
X179489654Y-79000000D01*
X179501328Y-78926294D01*
X179503941Y-78909793D01*
X179505492Y-78900000D01*
X179485646Y-78774696D01*
X179428050Y-78661658D01*
X179338342Y-78571950D01*
X179225304Y-78514354D01*
X179215515Y-78512804D01*
X179215513Y-78512803D01*
X179109793Y-78496059D01*
X179100000Y-78494508D01*
X179090207Y-78496059D01*
X178984487Y-78512803D01*
X178984485Y-78512804D01*
X178974696Y-78514354D01*
X178861658Y-78571950D01*
X178771950Y-78661658D01*
X178714354Y-78774696D01*
X178694508Y-78900000D01*
X175589654Y-78900000D01*
X175603941Y-78809793D01*
X175605492Y-78800000D01*
X175593052Y-78721458D01*
X175587197Y-78684487D01*
X175587196Y-78684485D01*
X175585646Y-78674696D01*
X175528050Y-78561658D01*
X175438342Y-78471950D01*
X175325304Y-78414354D01*
X175315515Y-78412804D01*
X175315513Y-78412803D01*
X175209793Y-78396059D01*
X175200000Y-78394508D01*
X175190207Y-78396059D01*
X175084487Y-78412803D01*
X175084485Y-78412804D01*
X175074696Y-78414354D01*
X174961658Y-78471950D01*
X174871950Y-78561658D01*
X174814354Y-78674696D01*
X174812804Y-78684485D01*
X174812803Y-78684487D01*
X174806948Y-78721458D01*
X174794508Y-78800000D01*
X157005492Y-78800000D01*
X156993052Y-78721458D01*
X156987197Y-78684487D01*
X156987196Y-78684485D01*
X156985646Y-78674696D01*
X156928050Y-78561658D01*
X156838342Y-78471950D01*
X156725304Y-78414354D01*
X156715515Y-78412804D01*
X156715513Y-78412803D01*
X156609793Y-78396059D01*
X156600000Y-78394508D01*
X156590207Y-78396059D01*
X156484487Y-78412803D01*
X156484485Y-78412804D01*
X156474696Y-78414354D01*
X156361658Y-78471950D01*
X156271950Y-78561658D01*
X156214354Y-78674696D01*
X156212412Y-78673706D01*
X156179759Y-78721458D01*
X156114362Y-78749095D01*
X156044405Y-78736988D01*
X155992100Y-78688981D01*
X155985683Y-78674932D01*
X155985646Y-78674696D01*
X155928050Y-78561658D01*
X155838342Y-78471950D01*
X155725304Y-78414354D01*
X155715515Y-78412804D01*
X155715513Y-78412803D01*
X155609793Y-78396059D01*
X155600000Y-78394508D01*
X155590207Y-78396059D01*
X155484487Y-78412803D01*
X155484485Y-78412804D01*
X155474696Y-78414354D01*
X155361658Y-78471950D01*
X155271950Y-78561658D01*
X155214354Y-78674696D01*
X155212804Y-78684485D01*
X155212803Y-78684487D01*
X155206948Y-78721458D01*
X155194508Y-78800000D01*
X128700500Y-78800000D01*
X128700500Y-77200000D01*
X150194508Y-77200000D01*
X150196059Y-77209793D01*
X150211320Y-77306145D01*
X150214354Y-77325304D01*
X150271950Y-77438342D01*
X150361658Y-77528050D01*
X150474696Y-77585646D01*
X150484485Y-77587196D01*
X150484487Y-77587197D01*
X150590207Y-77603941D01*
X150600000Y-77605492D01*
X150609793Y-77603941D01*
X150634676Y-77600000D01*
X155194508Y-77600000D01*
X155196059Y-77609793D01*
X155212092Y-77711019D01*
X155214354Y-77725304D01*
X155271950Y-77838342D01*
X155361658Y-77928050D01*
X155474696Y-77985646D01*
X155484485Y-77987196D01*
X155484487Y-77987197D01*
X155590207Y-78003941D01*
X155600000Y-78005492D01*
X155609793Y-78003941D01*
X155715513Y-77987197D01*
X155715515Y-77987196D01*
X155725304Y-77985646D01*
X155838342Y-77928050D01*
X155928050Y-77838342D01*
X155985646Y-77725304D01*
X155987588Y-77726294D01*
X156020241Y-77678542D01*
X156085638Y-77650905D01*
X156155595Y-77663012D01*
X156207900Y-77711019D01*
X156214317Y-77725068D01*
X156214354Y-77725304D01*
X156271950Y-77838342D01*
X156361658Y-77928050D01*
X156474696Y-77985646D01*
X156484485Y-77987196D01*
X156484487Y-77987197D01*
X156590207Y-78003941D01*
X156600000Y-78005492D01*
X156609793Y-78003941D01*
X156715513Y-77987197D01*
X156715515Y-77987196D01*
X156725304Y-77985646D01*
X156838342Y-77928050D01*
X156928050Y-77838342D01*
X156985646Y-77725304D01*
X156987909Y-77711019D01*
X157003941Y-77609793D01*
X157005492Y-77600000D01*
X156994809Y-77532550D01*
X156987197Y-77484487D01*
X156987196Y-77484485D01*
X156985646Y-77474696D01*
X156928050Y-77361658D01*
X156838342Y-77271950D01*
X156725304Y-77214354D01*
X156715515Y-77212804D01*
X156715513Y-77212803D01*
X156609793Y-77196059D01*
X156600000Y-77194508D01*
X156590207Y-77196059D01*
X156484487Y-77212803D01*
X156484485Y-77212804D01*
X156474696Y-77214354D01*
X156361658Y-77271950D01*
X156271950Y-77361658D01*
X156214354Y-77474696D01*
X156212412Y-77473706D01*
X156179759Y-77521458D01*
X156114362Y-77549095D01*
X156044405Y-77536988D01*
X155992100Y-77488981D01*
X155985683Y-77474932D01*
X155985646Y-77474696D01*
X155928050Y-77361658D01*
X155838342Y-77271950D01*
X155725304Y-77214354D01*
X155715515Y-77212804D01*
X155715513Y-77212803D01*
X155609793Y-77196059D01*
X155600000Y-77194508D01*
X155590207Y-77196059D01*
X155484487Y-77212803D01*
X155484485Y-77212804D01*
X155474696Y-77214354D01*
X155361658Y-77271950D01*
X155271950Y-77361658D01*
X155214354Y-77474696D01*
X155212804Y-77484485D01*
X155212803Y-77484487D01*
X155205191Y-77532550D01*
X155194508Y-77600000D01*
X150634676Y-77600000D01*
X150715513Y-77587197D01*
X150715515Y-77587196D01*
X150725304Y-77585646D01*
X150838342Y-77528050D01*
X150928050Y-77438342D01*
X150985646Y-77325304D01*
X150988681Y-77306145D01*
X151003941Y-77209793D01*
X151005492Y-77200000D01*
X151003941Y-77190207D01*
X150987197Y-77084487D01*
X150987196Y-77084485D01*
X150985646Y-77074696D01*
X150928050Y-76961658D01*
X150891392Y-76925000D01*
X172269508Y-76925000D01*
X172271059Y-76934793D01*
X172274204Y-76954647D01*
X172289354Y-77050304D01*
X172346950Y-77163342D01*
X172436658Y-77253050D01*
X172549696Y-77310646D01*
X172559485Y-77312196D01*
X172559487Y-77312197D01*
X172665207Y-77328941D01*
X172675000Y-77330492D01*
X172684793Y-77328941D01*
X172790513Y-77312197D01*
X172790515Y-77312196D01*
X172800304Y-77310646D01*
X172913342Y-77253050D01*
X173003050Y-77163342D01*
X173060646Y-77050304D01*
X173075797Y-76954647D01*
X173078941Y-76934793D01*
X173080492Y-76925000D01*
X173071377Y-76867450D01*
X173062197Y-76809487D01*
X173062196Y-76809485D01*
X173060646Y-76799696D01*
X173003050Y-76686658D01*
X172913342Y-76596950D01*
X172800304Y-76539354D01*
X172790515Y-76537804D01*
X172790513Y-76537803D01*
X172684793Y-76521059D01*
X172675000Y-76519508D01*
X172665207Y-76521059D01*
X172559487Y-76537803D01*
X172559485Y-76537804D01*
X172549696Y-76539354D01*
X172436658Y-76596950D01*
X172346950Y-76686658D01*
X172289354Y-76799696D01*
X172287804Y-76809485D01*
X172287803Y-76809487D01*
X172278623Y-76867450D01*
X172269508Y-76925000D01*
X150891392Y-76925000D01*
X150838342Y-76871950D01*
X150725304Y-76814354D01*
X150715515Y-76812804D01*
X150715513Y-76812803D01*
X150609793Y-76796059D01*
X150600000Y-76794508D01*
X150590207Y-76796059D01*
X150484487Y-76812803D01*
X150484485Y-76812804D01*
X150474696Y-76814354D01*
X150361658Y-76871950D01*
X150271950Y-76961658D01*
X150214354Y-77074696D01*
X150212804Y-77084485D01*
X150212803Y-77084487D01*
X150196059Y-77190207D01*
X150194508Y-77200000D01*
X128700500Y-77200000D01*
X128700500Y-75800000D01*
X185394508Y-75800000D01*
X185414354Y-75925304D01*
X185471950Y-76038342D01*
X185561658Y-76128050D01*
X185674696Y-76185646D01*
X185684485Y-76187196D01*
X185684487Y-76187197D01*
X185790207Y-76203941D01*
X185800000Y-76205492D01*
X185809793Y-76203941D01*
X185915513Y-76187197D01*
X185915515Y-76187196D01*
X185925304Y-76185646D01*
X186019797Y-76137499D01*
X190256819Y-76137499D01*
X190277457Y-76294261D01*
X190337965Y-76440340D01*
X190434219Y-76565781D01*
X190559660Y-76662035D01*
X190705739Y-76722543D01*
X190862501Y-76743181D01*
X190870689Y-76742103D01*
X191011075Y-76723621D01*
X191019263Y-76722543D01*
X191165342Y-76662035D01*
X191290783Y-76565781D01*
X191387037Y-76440340D01*
X191447545Y-76294261D01*
X191468183Y-76137499D01*
X191447545Y-75980737D01*
X191387037Y-75834658D01*
X191360443Y-75800000D01*
X193194508Y-75800000D01*
X193214354Y-75925304D01*
X193271950Y-76038342D01*
X193361658Y-76128050D01*
X193474696Y-76185646D01*
X193484485Y-76187196D01*
X193484487Y-76187197D01*
X193590207Y-76203941D01*
X193600000Y-76205492D01*
X193609793Y-76203941D01*
X193715513Y-76187197D01*
X193715515Y-76187196D01*
X193725304Y-76185646D01*
X193838342Y-76128050D01*
X193928050Y-76038342D01*
X193985646Y-75925304D01*
X194005492Y-75800000D01*
X196794508Y-75800000D01*
X196814354Y-75925304D01*
X196871950Y-76038342D01*
X196961658Y-76128050D01*
X197074696Y-76185646D01*
X197084485Y-76187196D01*
X197084487Y-76187197D01*
X197190207Y-76203941D01*
X197200000Y-76205492D01*
X197209793Y-76203941D01*
X197315513Y-76187197D01*
X197315515Y-76187196D01*
X197325304Y-76185646D01*
X197438342Y-76128050D01*
X197528050Y-76038342D01*
X197585646Y-75925304D01*
X197605492Y-75800000D01*
X197603941Y-75790207D01*
X197587197Y-75684487D01*
X197587196Y-75684485D01*
X197585646Y-75674696D01*
X197528050Y-75561658D01*
X197438342Y-75471950D01*
X197325304Y-75414354D01*
X197315515Y-75412804D01*
X197315513Y-75412803D01*
X197209793Y-75396059D01*
X197200000Y-75394508D01*
X197190207Y-75396059D01*
X197084487Y-75412803D01*
X197084485Y-75412804D01*
X197074696Y-75414354D01*
X196961658Y-75471950D01*
X196871950Y-75561658D01*
X196814354Y-75674696D01*
X196812804Y-75684485D01*
X196812803Y-75684487D01*
X196796059Y-75790207D01*
X196794508Y-75800000D01*
X194005492Y-75800000D01*
X194003941Y-75790207D01*
X193987197Y-75684487D01*
X193987196Y-75684485D01*
X193985646Y-75674696D01*
X193928050Y-75561658D01*
X193838342Y-75471950D01*
X193725304Y-75414354D01*
X193715515Y-75412804D01*
X193715513Y-75412803D01*
X193609793Y-75396059D01*
X193600000Y-75394508D01*
X193590207Y-75396059D01*
X193484487Y-75412803D01*
X193484485Y-75412804D01*
X193474696Y-75414354D01*
X193361658Y-75471950D01*
X193271950Y-75561658D01*
X193214354Y-75674696D01*
X193212804Y-75684485D01*
X193212803Y-75684487D01*
X193196059Y-75790207D01*
X193194508Y-75800000D01*
X191360443Y-75800000D01*
X191290783Y-75709217D01*
X191165342Y-75612963D01*
X191019263Y-75552455D01*
X190862501Y-75531817D01*
X190705739Y-75552455D01*
X190559660Y-75612963D01*
X190434219Y-75709217D01*
X190337965Y-75834658D01*
X190277457Y-75980737D01*
X190256819Y-76137499D01*
X186019797Y-76137499D01*
X186038342Y-76128050D01*
X186128050Y-76038342D01*
X186185646Y-75925304D01*
X186205492Y-75800000D01*
X186203941Y-75790207D01*
X186187197Y-75684487D01*
X186187196Y-75684485D01*
X186185646Y-75674696D01*
X186128050Y-75561658D01*
X186038342Y-75471950D01*
X185925304Y-75414354D01*
X185915515Y-75412804D01*
X185915513Y-75412803D01*
X185809793Y-75396059D01*
X185800000Y-75394508D01*
X185790207Y-75396059D01*
X185684487Y-75412803D01*
X185684485Y-75412804D01*
X185674696Y-75414354D01*
X185561658Y-75471950D01*
X185471950Y-75561658D01*
X185414354Y-75674696D01*
X185412804Y-75684485D01*
X185412803Y-75684487D01*
X185396059Y-75790207D01*
X185394508Y-75800000D01*
X128700500Y-75800000D01*
X128700500Y-74000000D01*
X150194508Y-74000000D01*
X150214354Y-74125304D01*
X150271950Y-74238342D01*
X150361658Y-74328050D01*
X150474696Y-74385646D01*
X150484485Y-74387196D01*
X150484487Y-74387197D01*
X150590207Y-74403941D01*
X150600000Y-74405492D01*
X150609793Y-74403941D01*
X150715513Y-74387197D01*
X150715515Y-74387196D01*
X150725304Y-74385646D01*
X150838342Y-74328050D01*
X150928050Y-74238342D01*
X150985646Y-74125304D01*
X151005492Y-74000000D01*
X150985646Y-73874696D01*
X150928050Y-73761658D01*
X150838342Y-73671950D01*
X150725304Y-73614354D01*
X150715515Y-73612804D01*
X150715513Y-73612803D01*
X150609793Y-73596059D01*
X150600000Y-73594508D01*
X150590207Y-73596059D01*
X150484487Y-73612803D01*
X150484485Y-73612804D01*
X150474696Y-73614354D01*
X150361658Y-73671950D01*
X150271950Y-73761658D01*
X150214354Y-73874696D01*
X150194508Y-74000000D01*
X128700500Y-74000000D01*
X128700500Y-73000000D01*
X182194508Y-73000000D01*
X182214354Y-73125304D01*
X182271950Y-73238342D01*
X182361658Y-73328050D01*
X182474696Y-73385646D01*
X182484485Y-73387196D01*
X182484487Y-73387197D01*
X182590207Y-73403941D01*
X182600000Y-73405492D01*
X182609793Y-73403941D01*
X182715513Y-73387197D01*
X182715515Y-73387196D01*
X182725304Y-73385646D01*
X182838342Y-73328050D01*
X182928050Y-73238342D01*
X182985646Y-73125304D01*
X183005492Y-73000000D01*
X182985646Y-72874696D01*
X182928050Y-72761658D01*
X182838342Y-72671950D01*
X182725304Y-72614354D01*
X182715515Y-72612804D01*
X182715513Y-72612803D01*
X182609793Y-72596059D01*
X182600000Y-72594508D01*
X182590207Y-72596059D01*
X182484487Y-72612803D01*
X182484485Y-72612804D01*
X182474696Y-72614354D01*
X182361658Y-72671950D01*
X182271950Y-72761658D01*
X182214354Y-72874696D01*
X182194508Y-73000000D01*
X128700500Y-73000000D01*
X128700500Y-72669748D01*
X131549500Y-72669748D01*
X131561133Y-72728231D01*
X131605448Y-72794552D01*
X131671769Y-72838867D01*
X131683938Y-72841288D01*
X131683939Y-72841288D01*
X131724184Y-72849293D01*
X131730252Y-72850500D01*
X133469748Y-72850500D01*
X133475816Y-72849293D01*
X133516061Y-72841288D01*
X133516062Y-72841288D01*
X133528231Y-72838867D01*
X133594552Y-72794552D01*
X133638867Y-72728231D01*
X133650500Y-72669748D01*
X133650500Y-72000000D01*
X187194508Y-72000000D01*
X187214354Y-72125304D01*
X187271950Y-72238342D01*
X187361658Y-72328050D01*
X187474696Y-72385646D01*
X187484485Y-72387196D01*
X187484487Y-72387197D01*
X187590207Y-72403941D01*
X187600000Y-72405492D01*
X187609793Y-72403941D01*
X187715513Y-72387197D01*
X187715515Y-72387196D01*
X187725304Y-72385646D01*
X187838342Y-72328050D01*
X187928050Y-72238342D01*
X187985646Y-72125304D01*
X188005492Y-72000000D01*
X187985646Y-71874696D01*
X187928050Y-71761658D01*
X187838342Y-71671950D01*
X187725304Y-71614354D01*
X187715515Y-71612804D01*
X187715513Y-71612803D01*
X187609793Y-71596059D01*
X187600000Y-71594508D01*
X187590207Y-71596059D01*
X187484487Y-71612803D01*
X187484485Y-71612804D01*
X187474696Y-71614354D01*
X187361658Y-71671950D01*
X187271950Y-71761658D01*
X187214354Y-71874696D01*
X187194508Y-72000000D01*
X133650500Y-72000000D01*
X133650500Y-71000000D01*
X196794508Y-71000000D01*
X196814354Y-71125304D01*
X196871950Y-71238342D01*
X196961658Y-71328050D01*
X197074696Y-71385646D01*
X197084485Y-71387196D01*
X197084487Y-71387197D01*
X197190207Y-71403941D01*
X197200000Y-71405492D01*
X197209793Y-71403941D01*
X197315513Y-71387197D01*
X197315515Y-71387196D01*
X197325304Y-71385646D01*
X197438342Y-71328050D01*
X197528050Y-71238342D01*
X197585646Y-71125304D01*
X197605492Y-71000000D01*
X197585646Y-70874696D01*
X197528050Y-70761658D01*
X197438342Y-70671950D01*
X197325304Y-70614354D01*
X197315515Y-70612804D01*
X197315513Y-70612803D01*
X197209793Y-70596059D01*
X197200000Y-70594508D01*
X197190207Y-70596059D01*
X197084487Y-70612803D01*
X197084485Y-70612804D01*
X197074696Y-70614354D01*
X196961658Y-70671950D01*
X196871950Y-70761658D01*
X196814354Y-70874696D01*
X196794508Y-71000000D01*
X133650500Y-71000000D01*
X133650500Y-70930252D01*
X133638867Y-70871769D01*
X133594552Y-70805448D01*
X133528231Y-70761133D01*
X133516062Y-70758712D01*
X133516061Y-70758712D01*
X133475816Y-70750707D01*
X133469748Y-70749500D01*
X131730252Y-70749500D01*
X131724184Y-70750707D01*
X131683939Y-70758712D01*
X131683938Y-70758712D01*
X131671769Y-70761133D01*
X131605448Y-70805448D01*
X131561133Y-70871769D01*
X131549500Y-70930252D01*
X131549500Y-72669748D01*
X128700500Y-72669748D01*
X128700500Y-70334440D01*
X184369901Y-70334440D01*
X184371065Y-70343342D01*
X184371065Y-70343345D01*
X184385468Y-70453489D01*
X184385469Y-70453493D01*
X184386633Y-70462394D01*
X184390250Y-70470614D01*
X184418201Y-70534137D01*
X184438605Y-70580510D01*
X184444382Y-70587383D01*
X184444383Y-70587384D01*
X184515468Y-70671950D01*
X184521639Y-70679291D01*
X184629060Y-70750796D01*
X184684210Y-70768026D01*
X184740608Y-70785646D01*
X184752233Y-70789278D01*
X184761203Y-70789442D01*
X184761207Y-70789443D01*
X184819942Y-70790519D01*
X184881255Y-70791643D01*
X184967880Y-70768026D01*
X184997092Y-70760062D01*
X184997093Y-70760062D01*
X185005755Y-70757700D01*
X185013405Y-70753003D01*
X185013407Y-70753002D01*
X185108072Y-70694878D01*
X185108075Y-70694875D01*
X185115724Y-70690179D01*
X185121750Y-70683522D01*
X185196300Y-70601161D01*
X185196303Y-70601157D01*
X185202322Y-70594507D01*
X185258588Y-70478375D01*
X185276336Y-70372882D01*
X185291604Y-70341458D01*
X185290520Y-70339045D01*
X185508829Y-70339045D01*
X185525525Y-70377450D01*
X185536633Y-70462394D01*
X185540250Y-70470614D01*
X185568201Y-70534137D01*
X185588605Y-70580510D01*
X185594382Y-70587383D01*
X185594383Y-70587384D01*
X185665468Y-70671950D01*
X185671639Y-70679291D01*
X185779060Y-70750796D01*
X185834210Y-70768026D01*
X185890608Y-70785646D01*
X185902233Y-70789278D01*
X185911203Y-70789442D01*
X185911207Y-70789443D01*
X185969942Y-70790519D01*
X186031255Y-70791643D01*
X186117880Y-70768026D01*
X186147092Y-70760062D01*
X186147093Y-70760062D01*
X186155755Y-70757700D01*
X186163405Y-70753003D01*
X186163407Y-70753002D01*
X186258072Y-70694878D01*
X186258075Y-70694875D01*
X186265724Y-70690179D01*
X186271750Y-70683522D01*
X186346300Y-70601161D01*
X186346303Y-70601157D01*
X186352322Y-70594507D01*
X186408588Y-70478375D01*
X186426336Y-70372884D01*
X186429190Y-70355917D01*
X186429997Y-70351120D01*
X186430133Y-70340000D01*
X186413112Y-70221144D01*
X186413111Y-70221142D01*
X186411839Y-70212259D01*
X186406265Y-70200000D01*
X187594508Y-70200000D01*
X187596059Y-70209793D01*
X187606339Y-70274696D01*
X187614354Y-70325304D01*
X187671950Y-70438342D01*
X187761658Y-70528050D01*
X187874696Y-70585646D01*
X187884485Y-70587196D01*
X187884487Y-70587197D01*
X187990207Y-70603941D01*
X188000000Y-70605492D01*
X188009793Y-70603941D01*
X188115513Y-70587197D01*
X188115515Y-70587196D01*
X188125304Y-70585646D01*
X188238342Y-70528050D01*
X188328050Y-70438342D01*
X188347586Y-70400000D01*
X192194508Y-70400000D01*
X192214354Y-70525304D01*
X192271950Y-70638342D01*
X192361658Y-70728050D01*
X192474696Y-70785646D01*
X192484485Y-70787196D01*
X192484487Y-70787197D01*
X192590207Y-70803941D01*
X192600000Y-70805492D01*
X192609793Y-70803941D01*
X192715513Y-70787197D01*
X192715515Y-70787196D01*
X192725304Y-70785646D01*
X192838342Y-70728050D01*
X192928050Y-70638342D01*
X192985646Y-70525304D01*
X193005492Y-70400000D01*
X193003941Y-70390207D01*
X192987197Y-70284487D01*
X192987196Y-70284485D01*
X192985646Y-70274696D01*
X192928050Y-70161658D01*
X192838342Y-70071950D01*
X192725304Y-70014354D01*
X192715515Y-70012804D01*
X192715513Y-70012803D01*
X192609793Y-69996059D01*
X192600000Y-69994508D01*
X192590207Y-69996059D01*
X192484487Y-70012803D01*
X192484485Y-70012804D01*
X192474696Y-70014354D01*
X192361658Y-70071950D01*
X192271950Y-70161658D01*
X192214354Y-70274696D01*
X192212804Y-70284485D01*
X192212803Y-70284487D01*
X192196059Y-70390207D01*
X192194508Y-70400000D01*
X188347586Y-70400000D01*
X188385646Y-70325304D01*
X188393662Y-70274696D01*
X188403941Y-70209793D01*
X188405492Y-70200000D01*
X188385646Y-70074696D01*
X188328050Y-69961658D01*
X188238342Y-69871950D01*
X188125304Y-69814354D01*
X188115515Y-69812804D01*
X188115513Y-69812803D01*
X188009793Y-69796059D01*
X188000000Y-69794508D01*
X187990207Y-69796059D01*
X187884487Y-69812803D01*
X187884485Y-69812804D01*
X187874696Y-69814354D01*
X187761658Y-69871950D01*
X187671950Y-69961658D01*
X187614354Y-70074696D01*
X187594508Y-70200000D01*
X186406265Y-70200000D01*
X186388832Y-70161658D01*
X186362145Y-70102962D01*
X186362143Y-70102959D01*
X186358428Y-70094788D01*
X186332625Y-70064842D01*
X186280051Y-70003826D01*
X186280049Y-70003824D01*
X186274193Y-69997028D01*
X186266661Y-69992146D01*
X186242075Y-69976210D01*
X186195790Y-69922375D01*
X186185959Y-69852062D01*
X186215702Y-69787596D01*
X186244675Y-69763103D01*
X186265724Y-69750179D01*
X186271750Y-69743522D01*
X186346300Y-69661161D01*
X186346303Y-69661157D01*
X186352322Y-69654507D01*
X186408588Y-69538375D01*
X186426336Y-69432884D01*
X186429190Y-69415917D01*
X186429997Y-69411120D01*
X186430133Y-69400000D01*
X193394508Y-69400000D01*
X193396059Y-69409793D01*
X193412483Y-69513489D01*
X193414354Y-69525304D01*
X193471950Y-69638342D01*
X193561658Y-69728050D01*
X193674696Y-69785646D01*
X193684485Y-69787196D01*
X193684487Y-69787197D01*
X193790207Y-69803941D01*
X193800000Y-69805492D01*
X193809793Y-69803941D01*
X193915513Y-69787197D01*
X193915515Y-69787196D01*
X193925304Y-69785646D01*
X194038342Y-69728050D01*
X194128050Y-69638342D01*
X194185646Y-69525304D01*
X194187518Y-69513489D01*
X194203941Y-69409793D01*
X194205492Y-69400000D01*
X195794508Y-69400000D01*
X195796059Y-69409793D01*
X195812483Y-69513489D01*
X195814354Y-69525304D01*
X195871950Y-69638342D01*
X195961658Y-69728050D01*
X196074696Y-69785646D01*
X196084485Y-69787196D01*
X196084487Y-69787197D01*
X196190207Y-69803941D01*
X196200000Y-69805492D01*
X196209793Y-69803941D01*
X196315513Y-69787197D01*
X196315515Y-69787196D01*
X196325304Y-69785646D01*
X196438342Y-69728050D01*
X196528050Y-69638342D01*
X196585646Y-69525304D01*
X196587518Y-69513489D01*
X196603941Y-69409793D01*
X196605492Y-69400000D01*
X196585646Y-69274696D01*
X196528050Y-69161658D01*
X196438342Y-69071950D01*
X196325304Y-69014354D01*
X196315515Y-69012804D01*
X196315513Y-69012803D01*
X196209793Y-68996059D01*
X196200000Y-68994508D01*
X196190207Y-68996059D01*
X196084487Y-69012803D01*
X196084485Y-69012804D01*
X196074696Y-69014354D01*
X195961658Y-69071950D01*
X195871950Y-69161658D01*
X195814354Y-69274696D01*
X195794508Y-69400000D01*
X194205492Y-69400000D01*
X194185646Y-69274696D01*
X194128050Y-69161658D01*
X194038342Y-69071950D01*
X193925304Y-69014354D01*
X193915515Y-69012804D01*
X193915513Y-69012803D01*
X193809793Y-68996059D01*
X193800000Y-68994508D01*
X193790207Y-68996059D01*
X193684487Y-69012803D01*
X193684485Y-69012804D01*
X193674696Y-69014354D01*
X193561658Y-69071950D01*
X193471950Y-69161658D01*
X193414354Y-69274696D01*
X193394508Y-69400000D01*
X186430133Y-69400000D01*
X186422748Y-69348433D01*
X186413112Y-69281145D01*
X186413111Y-69281142D01*
X186411839Y-69272259D01*
X186358428Y-69154788D01*
X186287051Y-69071950D01*
X186280051Y-69063826D01*
X186280049Y-69063824D01*
X186274193Y-69057028D01*
X186266661Y-69052146D01*
X186242075Y-69036210D01*
X186195790Y-68982375D01*
X186185959Y-68912062D01*
X186215702Y-68847596D01*
X186244675Y-68823103D01*
X186265724Y-68810179D01*
X186271750Y-68803522D01*
X186346300Y-68721161D01*
X186346303Y-68721157D01*
X186352322Y-68714507D01*
X186408588Y-68598375D01*
X186426336Y-68492884D01*
X186429190Y-68475917D01*
X186429997Y-68471120D01*
X186430133Y-68460000D01*
X186413112Y-68341144D01*
X186413111Y-68341142D01*
X186411839Y-68332259D01*
X186358428Y-68214788D01*
X186274193Y-68117028D01*
X186165906Y-68046841D01*
X186157311Y-68044271D01*
X186157310Y-68044270D01*
X186050874Y-68012438D01*
X186050872Y-68012438D01*
X186042273Y-68009866D01*
X186033298Y-68009811D01*
X186033297Y-68009811D01*
X185978641Y-68009477D01*
X185913231Y-68009078D01*
X185901475Y-68012438D01*
X185797786Y-68042072D01*
X185797784Y-68042073D01*
X185789155Y-68044539D01*
X185680019Y-68113399D01*
X185594596Y-68210122D01*
X185590782Y-68218245D01*
X185590781Y-68218247D01*
X185564794Y-68273598D01*
X185539754Y-68326932D01*
X185538374Y-68335796D01*
X185538373Y-68335799D01*
X185524300Y-68426188D01*
X185508829Y-68459045D01*
X185525525Y-68497450D01*
X185536633Y-68582394D01*
X185588605Y-68700510D01*
X185671639Y-68799291D01*
X185709874Y-68824742D01*
X185755496Y-68879138D01*
X185764468Y-68949566D01*
X185733939Y-69013664D01*
X185707292Y-69036190D01*
X185687614Y-69048606D01*
X185687610Y-69048609D01*
X185680019Y-69053399D01*
X185674076Y-69060128D01*
X185674075Y-69060129D01*
X185663635Y-69071950D01*
X185594596Y-69150122D01*
X185590782Y-69158245D01*
X185590781Y-69158247D01*
X185585033Y-69170491D01*
X185539754Y-69266932D01*
X185538374Y-69275796D01*
X185538373Y-69275799D01*
X185524300Y-69366188D01*
X185508829Y-69399045D01*
X185525525Y-69437450D01*
X185536633Y-69522394D01*
X185588605Y-69640510D01*
X185594382Y-69647383D01*
X185594383Y-69647384D01*
X185662190Y-69728050D01*
X185671639Y-69739291D01*
X185709874Y-69764742D01*
X185755496Y-69819138D01*
X185764468Y-69889566D01*
X185733939Y-69953664D01*
X185707292Y-69976190D01*
X185687614Y-69988606D01*
X185687610Y-69988609D01*
X185680019Y-69993399D01*
X185594596Y-70090122D01*
X185590782Y-70098245D01*
X185590781Y-70098247D01*
X185564794Y-70153598D01*
X185539754Y-70206932D01*
X185538374Y-70215796D01*
X185538373Y-70215799D01*
X185524300Y-70306188D01*
X185508829Y-70339045D01*
X185290520Y-70339045D01*
X185275073Y-70304667D01*
X185269516Y-70265863D01*
X185261839Y-70212259D01*
X185238832Y-70161658D01*
X185212145Y-70102962D01*
X185212143Y-70102959D01*
X185208428Y-70094788D01*
X185182625Y-70064842D01*
X185130051Y-70003826D01*
X185130049Y-70003824D01*
X185124193Y-69997028D01*
X185116661Y-69992146D01*
X185092075Y-69976210D01*
X185045790Y-69922375D01*
X185035959Y-69852062D01*
X185065702Y-69787596D01*
X185094675Y-69763103D01*
X185115724Y-69750179D01*
X185121750Y-69743522D01*
X185196300Y-69661161D01*
X185196303Y-69661157D01*
X185202322Y-69654507D01*
X185258588Y-69538375D01*
X185276336Y-69432882D01*
X185291604Y-69401458D01*
X185275073Y-69364667D01*
X185263590Y-69284487D01*
X185261839Y-69272259D01*
X185208428Y-69154788D01*
X185137051Y-69071950D01*
X185130051Y-69063826D01*
X185130049Y-69063824D01*
X185124193Y-69057028D01*
X185116661Y-69052146D01*
X185092075Y-69036210D01*
X185045790Y-68982375D01*
X185035959Y-68912062D01*
X185065702Y-68847596D01*
X185094675Y-68823103D01*
X185115724Y-68810179D01*
X185121750Y-68803522D01*
X185196300Y-68721161D01*
X185196303Y-68721157D01*
X185202322Y-68714507D01*
X185258588Y-68598375D01*
X185276336Y-68492882D01*
X185291604Y-68461458D01*
X185275073Y-68424667D01*
X185272887Y-68409403D01*
X185261839Y-68332259D01*
X185208428Y-68214788D01*
X185124193Y-68117028D01*
X185015906Y-68046841D01*
X185007311Y-68044271D01*
X185007310Y-68044270D01*
X184900874Y-68012438D01*
X184900872Y-68012438D01*
X184892273Y-68009866D01*
X184883298Y-68009811D01*
X184883297Y-68009811D01*
X184828641Y-68009477D01*
X184763231Y-68009078D01*
X184751475Y-68012438D01*
X184647786Y-68042072D01*
X184647784Y-68042073D01*
X184639155Y-68044539D01*
X184530019Y-68113399D01*
X184444596Y-68210122D01*
X184440782Y-68218245D01*
X184440781Y-68218247D01*
X184414794Y-68273598D01*
X184389754Y-68326932D01*
X184387541Y-68341145D01*
X184371282Y-68445567D01*
X184371282Y-68445571D01*
X184369901Y-68454440D01*
X184371065Y-68463342D01*
X184371065Y-68463345D01*
X184385468Y-68573489D01*
X184385469Y-68573493D01*
X184386633Y-68582394D01*
X184438605Y-68700510D01*
X184521639Y-68799291D01*
X184559874Y-68824742D01*
X184605496Y-68879138D01*
X184614468Y-68949566D01*
X184583939Y-69013664D01*
X184557292Y-69036190D01*
X184537614Y-69048606D01*
X184537610Y-69048609D01*
X184530019Y-69053399D01*
X184524076Y-69060128D01*
X184524075Y-69060129D01*
X184513635Y-69071950D01*
X184444596Y-69150122D01*
X184440782Y-69158245D01*
X184440781Y-69158247D01*
X184435033Y-69170491D01*
X184389754Y-69266932D01*
X184387541Y-69281145D01*
X184371282Y-69385567D01*
X184371282Y-69385571D01*
X184369901Y-69394440D01*
X184371065Y-69403342D01*
X184371065Y-69403345D01*
X184385468Y-69513489D01*
X184385469Y-69513493D01*
X184386633Y-69522394D01*
X184438605Y-69640510D01*
X184444382Y-69647383D01*
X184444383Y-69647384D01*
X184512190Y-69728050D01*
X184521639Y-69739291D01*
X184559874Y-69764742D01*
X184605496Y-69819138D01*
X184614468Y-69889566D01*
X184583939Y-69953664D01*
X184557292Y-69976190D01*
X184537614Y-69988606D01*
X184537610Y-69988609D01*
X184530019Y-69993399D01*
X184444596Y-70090122D01*
X184440782Y-70098245D01*
X184440781Y-70098247D01*
X184414794Y-70153598D01*
X184389754Y-70206932D01*
X184387541Y-70221145D01*
X184371282Y-70325567D01*
X184371282Y-70325571D01*
X184369901Y-70334440D01*
X128700500Y-70334440D01*
X128700500Y-66600000D01*
X193394508Y-66600000D01*
X193414354Y-66725304D01*
X193471950Y-66838342D01*
X193561658Y-66928050D01*
X193674696Y-66985646D01*
X193684485Y-66987196D01*
X193684487Y-66987197D01*
X193790207Y-67003941D01*
X193800000Y-67005492D01*
X193809793Y-67003941D01*
X193915513Y-66987197D01*
X193915515Y-66987196D01*
X193925304Y-66985646D01*
X194038342Y-66928050D01*
X194128050Y-66838342D01*
X194185646Y-66725304D01*
X194205492Y-66600000D01*
X194185646Y-66474696D01*
X194128050Y-66361658D01*
X194038342Y-66271950D01*
X193925304Y-66214354D01*
X193915515Y-66212804D01*
X193915513Y-66212803D01*
X193809793Y-66196059D01*
X193800000Y-66194508D01*
X193790207Y-66196059D01*
X193684487Y-66212803D01*
X193684485Y-66212804D01*
X193674696Y-66214354D01*
X193561658Y-66271950D01*
X193471950Y-66361658D01*
X193414354Y-66474696D01*
X193394508Y-66600000D01*
X128700500Y-66600000D01*
X128700500Y-65784441D01*
X184369900Y-65784441D01*
X184371064Y-65793343D01*
X184371064Y-65793346D01*
X184385467Y-65903490D01*
X184385468Y-65903494D01*
X184386632Y-65912395D01*
X184438604Y-66030511D01*
X184521638Y-66129292D01*
X184629059Y-66200797D01*
X184752232Y-66239279D01*
X184761202Y-66239443D01*
X184761206Y-66239444D01*
X184819941Y-66240520D01*
X184881254Y-66241644D01*
X184964842Y-66218855D01*
X184997091Y-66210063D01*
X184997092Y-66210063D01*
X185005754Y-66207701D01*
X185013404Y-66203004D01*
X185013406Y-66203003D01*
X185108071Y-66144879D01*
X185108074Y-66144876D01*
X185115723Y-66140180D01*
X185121749Y-66133523D01*
X185196299Y-66051162D01*
X185196302Y-66051158D01*
X185202321Y-66044508D01*
X185258587Y-65928376D01*
X185276335Y-65822883D01*
X185291603Y-65791459D01*
X185290519Y-65789046D01*
X185508828Y-65789046D01*
X185525524Y-65827451D01*
X185536632Y-65912395D01*
X185588604Y-66030511D01*
X185671638Y-66129292D01*
X185779059Y-66200797D01*
X185902232Y-66239279D01*
X185911202Y-66239443D01*
X185911206Y-66239444D01*
X185969941Y-66240520D01*
X186031254Y-66241644D01*
X186114842Y-66218855D01*
X186147091Y-66210063D01*
X186147092Y-66210063D01*
X186155754Y-66207701D01*
X186163404Y-66203004D01*
X186163406Y-66203003D01*
X186258071Y-66144879D01*
X186258074Y-66144876D01*
X186265723Y-66140180D01*
X186271749Y-66133523D01*
X186346299Y-66051162D01*
X186346302Y-66051158D01*
X186352321Y-66044508D01*
X186408587Y-65928376D01*
X186426335Y-65822885D01*
X186429189Y-65805918D01*
X186429996Y-65801121D01*
X186430132Y-65790001D01*
X186413111Y-65671145D01*
X186413110Y-65671143D01*
X186411838Y-65662260D01*
X186358427Y-65544789D01*
X186274192Y-65447029D01*
X186266660Y-65442147D01*
X186242074Y-65426211D01*
X186195789Y-65372376D01*
X186185958Y-65302063D01*
X186215701Y-65237597D01*
X186244674Y-65213104D01*
X186265723Y-65200180D01*
X186271749Y-65193523D01*
X186346299Y-65111162D01*
X186346302Y-65111158D01*
X186352321Y-65104508D01*
X186408587Y-64988376D01*
X186426335Y-64882885D01*
X186429189Y-64865918D01*
X186429996Y-64861121D01*
X186430132Y-64850001D01*
X186413111Y-64731145D01*
X186413110Y-64731143D01*
X186411838Y-64722260D01*
X186358427Y-64604789D01*
X186274192Y-64507029D01*
X186266660Y-64502147D01*
X186242074Y-64486211D01*
X186195789Y-64432376D01*
X186185958Y-64362063D01*
X186215701Y-64297597D01*
X186244674Y-64273104D01*
X186265723Y-64260180D01*
X186271749Y-64253523D01*
X186346299Y-64171162D01*
X186346302Y-64171158D01*
X186352321Y-64164508D01*
X186408587Y-64048376D01*
X186426335Y-63942885D01*
X186429189Y-63925918D01*
X186429996Y-63921121D01*
X186430132Y-63910001D01*
X186413111Y-63791145D01*
X186413110Y-63791143D01*
X186411838Y-63782260D01*
X186358427Y-63664789D01*
X186311040Y-63609793D01*
X186302602Y-63600000D01*
X190394508Y-63600000D01*
X190396059Y-63609793D01*
X190405904Y-63671950D01*
X190414354Y-63725304D01*
X190471950Y-63838342D01*
X190561658Y-63928050D01*
X190674696Y-63985646D01*
X190684485Y-63987196D01*
X190684487Y-63987197D01*
X190790207Y-64003941D01*
X190800000Y-64005492D01*
X190809793Y-64003941D01*
X190834676Y-64000000D01*
X193394508Y-64000000D01*
X193414354Y-64125304D01*
X193471950Y-64238342D01*
X193561658Y-64328050D01*
X193674696Y-64385646D01*
X193684485Y-64387196D01*
X193684487Y-64387197D01*
X193790207Y-64403941D01*
X193800000Y-64405492D01*
X193809793Y-64403941D01*
X193915513Y-64387197D01*
X193915515Y-64387196D01*
X193925304Y-64385646D01*
X194038342Y-64328050D01*
X194128050Y-64238342D01*
X194185646Y-64125304D01*
X194205492Y-64000000D01*
X195594508Y-64000000D01*
X195614354Y-64125304D01*
X195671950Y-64238342D01*
X195761658Y-64328050D01*
X195874696Y-64385646D01*
X195884485Y-64387196D01*
X195884487Y-64387197D01*
X195990207Y-64403941D01*
X196000000Y-64405492D01*
X196009793Y-64403941D01*
X196115513Y-64387197D01*
X196115515Y-64387196D01*
X196125304Y-64385646D01*
X196238342Y-64328050D01*
X196328050Y-64238342D01*
X196385646Y-64125304D01*
X196405492Y-64000000D01*
X196394809Y-63932550D01*
X196387197Y-63884487D01*
X196387196Y-63884485D01*
X196385646Y-63874696D01*
X196328050Y-63761658D01*
X196238342Y-63671950D01*
X196125304Y-63614354D01*
X196115515Y-63612804D01*
X196115513Y-63612803D01*
X196009793Y-63596059D01*
X196000000Y-63594508D01*
X195990207Y-63596059D01*
X195884487Y-63612803D01*
X195884485Y-63612804D01*
X195874696Y-63614354D01*
X195761658Y-63671950D01*
X195671950Y-63761658D01*
X195614354Y-63874696D01*
X195612804Y-63884485D01*
X195612803Y-63884487D01*
X195605191Y-63932550D01*
X195594508Y-64000000D01*
X194205492Y-64000000D01*
X194194809Y-63932550D01*
X194187197Y-63884487D01*
X194187196Y-63884485D01*
X194185646Y-63874696D01*
X194128050Y-63761658D01*
X194038342Y-63671950D01*
X193925304Y-63614354D01*
X193915515Y-63612804D01*
X193915513Y-63612803D01*
X193809793Y-63596059D01*
X193800000Y-63594508D01*
X193790207Y-63596059D01*
X193684487Y-63612803D01*
X193684485Y-63612804D01*
X193674696Y-63614354D01*
X193561658Y-63671950D01*
X193471950Y-63761658D01*
X193414354Y-63874696D01*
X193412804Y-63884485D01*
X193412803Y-63884487D01*
X193405191Y-63932550D01*
X193394508Y-64000000D01*
X190834676Y-64000000D01*
X190915513Y-63987197D01*
X190915515Y-63987196D01*
X190925304Y-63985646D01*
X191038342Y-63928050D01*
X191128050Y-63838342D01*
X191185646Y-63725304D01*
X191194097Y-63671950D01*
X191203941Y-63609793D01*
X191205492Y-63600000D01*
X191198936Y-63558609D01*
X191187197Y-63484487D01*
X191187196Y-63484485D01*
X191185646Y-63474696D01*
X191128050Y-63361658D01*
X191038342Y-63271950D01*
X190925304Y-63214354D01*
X190915515Y-63212804D01*
X190915513Y-63212803D01*
X190809793Y-63196059D01*
X190800000Y-63194508D01*
X190790207Y-63196059D01*
X190684487Y-63212803D01*
X190684485Y-63212804D01*
X190674696Y-63214354D01*
X190561658Y-63271950D01*
X190471950Y-63361658D01*
X190414354Y-63474696D01*
X190412804Y-63484485D01*
X190412803Y-63484487D01*
X190401064Y-63558609D01*
X190394508Y-63600000D01*
X186302602Y-63600000D01*
X186280050Y-63573827D01*
X186280048Y-63573825D01*
X186274192Y-63567029D01*
X186165905Y-63496842D01*
X186157310Y-63494272D01*
X186157309Y-63494271D01*
X186050873Y-63462439D01*
X186050871Y-63462439D01*
X186042272Y-63459867D01*
X186033297Y-63459812D01*
X186033296Y-63459812D01*
X185978640Y-63459478D01*
X185913230Y-63459079D01*
X185858587Y-63474696D01*
X185797785Y-63492073D01*
X185797783Y-63492074D01*
X185789154Y-63494540D01*
X185680018Y-63563400D01*
X185674075Y-63570129D01*
X185674074Y-63570130D01*
X185647694Y-63600000D01*
X185594595Y-63660123D01*
X185590781Y-63668246D01*
X185590780Y-63668248D01*
X185564793Y-63723599D01*
X185539753Y-63776933D01*
X185538373Y-63785797D01*
X185538372Y-63785800D01*
X185524299Y-63876189D01*
X185508828Y-63909046D01*
X185525524Y-63947451D01*
X185536632Y-64032395D01*
X185588604Y-64150511D01*
X185594381Y-64157384D01*
X185594382Y-64157385D01*
X185665858Y-64242416D01*
X185671638Y-64249292D01*
X185709873Y-64274743D01*
X185755495Y-64329139D01*
X185764467Y-64399567D01*
X185733938Y-64463665D01*
X185707291Y-64486191D01*
X185687613Y-64498607D01*
X185687609Y-64498610D01*
X185680018Y-64503400D01*
X185594595Y-64600123D01*
X185590781Y-64608246D01*
X185590780Y-64608248D01*
X185564793Y-64663599D01*
X185539753Y-64716933D01*
X185538373Y-64725797D01*
X185538372Y-64725800D01*
X185524299Y-64816189D01*
X185508828Y-64849046D01*
X185525524Y-64887451D01*
X185536632Y-64972395D01*
X185588604Y-65090511D01*
X185671638Y-65189292D01*
X185709873Y-65214743D01*
X185755495Y-65269139D01*
X185764467Y-65339567D01*
X185733938Y-65403665D01*
X185707291Y-65426191D01*
X185687613Y-65438607D01*
X185687609Y-65438610D01*
X185680018Y-65443400D01*
X185594595Y-65540123D01*
X185590781Y-65548246D01*
X185590780Y-65548248D01*
X185564793Y-65603599D01*
X185539753Y-65656933D01*
X185538373Y-65665797D01*
X185538372Y-65665800D01*
X185524299Y-65756189D01*
X185508828Y-65789046D01*
X185290519Y-65789046D01*
X185275072Y-65754668D01*
X185272886Y-65739404D01*
X185261838Y-65662260D01*
X185208427Y-65544789D01*
X185124192Y-65447029D01*
X185116660Y-65442147D01*
X185092074Y-65426211D01*
X185045789Y-65372376D01*
X185035958Y-65302063D01*
X185065701Y-65237597D01*
X185094674Y-65213104D01*
X185115723Y-65200180D01*
X185121749Y-65193523D01*
X185196299Y-65111162D01*
X185196302Y-65111158D01*
X185202321Y-65104508D01*
X185258587Y-64988376D01*
X185276335Y-64882883D01*
X185291603Y-64851459D01*
X185275072Y-64814668D01*
X185272886Y-64799404D01*
X185261838Y-64722260D01*
X185208427Y-64604789D01*
X185124192Y-64507029D01*
X185116660Y-64502147D01*
X185092074Y-64486211D01*
X185045789Y-64432376D01*
X185035958Y-64362063D01*
X185065701Y-64297597D01*
X185094674Y-64273104D01*
X185115723Y-64260180D01*
X185121749Y-64253523D01*
X185196299Y-64171162D01*
X185196302Y-64171158D01*
X185202321Y-64164508D01*
X185258587Y-64048376D01*
X185276335Y-63942883D01*
X185291603Y-63911459D01*
X185275072Y-63874668D01*
X185270874Y-63845353D01*
X185261838Y-63782260D01*
X185208427Y-63664789D01*
X185161040Y-63609793D01*
X185130050Y-63573827D01*
X185130048Y-63573825D01*
X185124192Y-63567029D01*
X185015905Y-63496842D01*
X185007310Y-63494272D01*
X185007309Y-63494271D01*
X184900873Y-63462439D01*
X184900871Y-63462439D01*
X184892272Y-63459867D01*
X184883297Y-63459812D01*
X184883296Y-63459812D01*
X184828640Y-63459478D01*
X184763230Y-63459079D01*
X184708587Y-63474696D01*
X184647785Y-63492073D01*
X184647783Y-63492074D01*
X184639154Y-63494540D01*
X184530018Y-63563400D01*
X184524075Y-63570129D01*
X184524074Y-63570130D01*
X184497694Y-63600000D01*
X184444595Y-63660123D01*
X184440781Y-63668246D01*
X184440780Y-63668248D01*
X184414793Y-63723599D01*
X184389753Y-63776933D01*
X184387540Y-63791146D01*
X184371281Y-63895568D01*
X184371281Y-63895572D01*
X184369900Y-63904441D01*
X184371064Y-63913343D01*
X184371064Y-63913346D01*
X184385467Y-64023490D01*
X184385468Y-64023494D01*
X184386632Y-64032395D01*
X184438604Y-64150511D01*
X184444381Y-64157384D01*
X184444382Y-64157385D01*
X184515858Y-64242416D01*
X184521638Y-64249292D01*
X184559873Y-64274743D01*
X184605495Y-64329139D01*
X184614467Y-64399567D01*
X184583938Y-64463665D01*
X184557291Y-64486191D01*
X184537613Y-64498607D01*
X184537609Y-64498610D01*
X184530018Y-64503400D01*
X184444595Y-64600123D01*
X184440781Y-64608246D01*
X184440780Y-64608248D01*
X184414793Y-64663599D01*
X184389753Y-64716933D01*
X184387540Y-64731146D01*
X184371281Y-64835568D01*
X184371281Y-64835572D01*
X184369900Y-64844441D01*
X184371064Y-64853343D01*
X184371064Y-64853346D01*
X184385467Y-64963490D01*
X184385468Y-64963494D01*
X184386632Y-64972395D01*
X184438604Y-65090511D01*
X184521638Y-65189292D01*
X184559873Y-65214743D01*
X184605495Y-65269139D01*
X184614467Y-65339567D01*
X184583938Y-65403665D01*
X184557291Y-65426191D01*
X184537613Y-65438607D01*
X184537609Y-65438610D01*
X184530018Y-65443400D01*
X184444595Y-65540123D01*
X184440781Y-65548246D01*
X184440780Y-65548248D01*
X184414793Y-65603599D01*
X184389753Y-65656933D01*
X184387540Y-65671146D01*
X184371281Y-65775568D01*
X184371281Y-65775572D01*
X184369900Y-65784441D01*
X128700500Y-65784441D01*
X128700500Y-62600000D01*
X187794508Y-62600000D01*
X187814354Y-62725304D01*
X187871950Y-62838342D01*
X187961658Y-62928050D01*
X188074696Y-62985646D01*
X188084485Y-62987196D01*
X188084487Y-62987197D01*
X188190207Y-63003941D01*
X188200000Y-63005492D01*
X188209793Y-63003941D01*
X188315513Y-62987197D01*
X188315515Y-62987196D01*
X188325304Y-62985646D01*
X188438342Y-62928050D01*
X188528050Y-62838342D01*
X188585646Y-62725304D01*
X188605492Y-62600000D01*
X188585646Y-62474696D01*
X188528050Y-62361658D01*
X188438342Y-62271950D01*
X188325304Y-62214354D01*
X188315515Y-62212804D01*
X188315513Y-62212803D01*
X188209793Y-62196059D01*
X188200000Y-62194508D01*
X188190207Y-62196059D01*
X188084487Y-62212803D01*
X188084485Y-62212804D01*
X188074696Y-62214354D01*
X187961658Y-62271950D01*
X187871950Y-62361658D01*
X187814354Y-62474696D01*
X187794508Y-62600000D01*
X128700500Y-62600000D01*
X128700500Y-60600000D01*
X185794508Y-60600000D01*
X185814354Y-60725304D01*
X185871950Y-60838342D01*
X185961658Y-60928050D01*
X186074696Y-60985646D01*
X186084485Y-60987196D01*
X186084487Y-60987197D01*
X186190207Y-61003941D01*
X186200000Y-61005492D01*
X186209793Y-61003941D01*
X186315513Y-60987197D01*
X186315515Y-60987196D01*
X186325304Y-60985646D01*
X186438342Y-60928050D01*
X186528050Y-60838342D01*
X186585646Y-60725304D01*
X186605492Y-60600000D01*
X188794508Y-60600000D01*
X188814354Y-60725304D01*
X188871950Y-60838342D01*
X188961658Y-60928050D01*
X189074696Y-60985646D01*
X189084485Y-60987196D01*
X189084487Y-60987197D01*
X189190207Y-61003941D01*
X189200000Y-61005492D01*
X189209793Y-61003941D01*
X189315513Y-60987197D01*
X189315515Y-60987196D01*
X189325304Y-60985646D01*
X189438342Y-60928050D01*
X189528050Y-60838342D01*
X189585646Y-60725304D01*
X189605492Y-60600000D01*
X192194508Y-60600000D01*
X192214354Y-60725304D01*
X192271950Y-60838342D01*
X192361658Y-60928050D01*
X192474696Y-60985646D01*
X192484485Y-60987196D01*
X192484487Y-60987197D01*
X192590207Y-61003941D01*
X192600000Y-61005492D01*
X192609793Y-61003941D01*
X192715513Y-60987197D01*
X192715515Y-60987196D01*
X192725304Y-60985646D01*
X192838342Y-60928050D01*
X192928050Y-60838342D01*
X192985646Y-60725304D01*
X193005492Y-60600000D01*
X195594508Y-60600000D01*
X195614354Y-60725304D01*
X195671950Y-60838342D01*
X195761658Y-60928050D01*
X195874696Y-60985646D01*
X195884485Y-60987196D01*
X195884487Y-60987197D01*
X195990207Y-61003941D01*
X196000000Y-61005492D01*
X196009793Y-61003941D01*
X196115513Y-60987197D01*
X196115515Y-60987196D01*
X196125304Y-60985646D01*
X196238342Y-60928050D01*
X196328050Y-60838342D01*
X196385646Y-60725304D01*
X196405492Y-60600000D01*
X196385646Y-60474696D01*
X196328050Y-60361658D01*
X196238342Y-60271950D01*
X196125304Y-60214354D01*
X196115515Y-60212804D01*
X196115513Y-60212803D01*
X196009793Y-60196059D01*
X196000000Y-60194508D01*
X195990207Y-60196059D01*
X195884487Y-60212803D01*
X195884485Y-60212804D01*
X195874696Y-60214354D01*
X195761658Y-60271950D01*
X195671950Y-60361658D01*
X195614354Y-60474696D01*
X195594508Y-60600000D01*
X193005492Y-60600000D01*
X192985646Y-60474696D01*
X192928050Y-60361658D01*
X192838342Y-60271950D01*
X192725304Y-60214354D01*
X192715515Y-60212804D01*
X192715513Y-60212803D01*
X192609793Y-60196059D01*
X192600000Y-60194508D01*
X192590207Y-60196059D01*
X192484487Y-60212803D01*
X192484485Y-60212804D01*
X192474696Y-60214354D01*
X192361658Y-60271950D01*
X192271950Y-60361658D01*
X192214354Y-60474696D01*
X192194508Y-60600000D01*
X189605492Y-60600000D01*
X189585646Y-60474696D01*
X189528050Y-60361658D01*
X189438342Y-60271950D01*
X189325304Y-60214354D01*
X189315515Y-60212804D01*
X189315513Y-60212803D01*
X189209793Y-60196059D01*
X189200000Y-60194508D01*
X189190207Y-60196059D01*
X189084487Y-60212803D01*
X189084485Y-60212804D01*
X189074696Y-60214354D01*
X188961658Y-60271950D01*
X188871950Y-60361658D01*
X188814354Y-60474696D01*
X188794508Y-60600000D01*
X186605492Y-60600000D01*
X186585646Y-60474696D01*
X186528050Y-60361658D01*
X186438342Y-60271950D01*
X186325304Y-60214354D01*
X186315515Y-60212804D01*
X186315513Y-60212803D01*
X186209793Y-60196059D01*
X186200000Y-60194508D01*
X186190207Y-60196059D01*
X186084487Y-60212803D01*
X186084485Y-60212804D01*
X186074696Y-60214354D01*
X185961658Y-60271950D01*
X185871950Y-60361658D01*
X185814354Y-60474696D01*
X185794508Y-60600000D01*
X128700500Y-60600000D01*
X128700500Y-57432983D01*
X128720502Y-57364862D01*
X128774158Y-57318369D01*
X128844432Y-57308265D01*
X128909012Y-57337759D01*
X128948034Y-57399735D01*
X128968608Y-57474941D01*
X129103602Y-57817642D01*
X129274817Y-58143759D01*
X129276718Y-58146588D01*
X129276724Y-58146598D01*
X129461707Y-58421879D01*
X129480252Y-58449477D01*
X129717502Y-58731221D01*
X129820006Y-58829176D01*
X129981329Y-58983341D01*
X129981336Y-58983347D01*
X129983792Y-58985694D01*
X130276008Y-59209919D01*
X130590731Y-59401274D01*
X130924279Y-59557519D01*
X130927497Y-59558621D01*
X130927500Y-59558622D01*
X131269528Y-59675725D01*
X131269536Y-59675727D01*
X131272751Y-59676828D01*
X131632070Y-59757804D01*
X131715002Y-59767253D01*
X131994650Y-59799115D01*
X131994658Y-59799115D01*
X131998033Y-59799500D01*
X132001437Y-59799518D01*
X132001440Y-59799518D01*
X132201074Y-59800563D01*
X132366358Y-59801428D01*
X132369744Y-59801078D01*
X132369746Y-59801078D01*
X132729345Y-59763918D01*
X132729354Y-59763917D01*
X132732737Y-59763567D01*
X132736070Y-59762853D01*
X132736073Y-59762852D01*
X132913488Y-59724817D01*
X133092884Y-59686358D01*
X133442586Y-59570705D01*
X133777752Y-59417961D01*
X133874965Y-59360240D01*
X134091516Y-59231662D01*
X134091521Y-59231659D01*
X134094461Y-59229913D01*
X134121091Y-59209919D01*
X134386276Y-59010812D01*
X134389009Y-59008760D01*
X134657950Y-58757089D01*
X134898138Y-58477846D01*
X134915838Y-58452093D01*
X135104831Y-58177104D01*
X135106762Y-58174295D01*
X135108374Y-58171301D01*
X135108379Y-58171293D01*
X135279761Y-57853001D01*
X135281383Y-57849989D01*
X135419958Y-57508720D01*
X135520865Y-57154482D01*
X135582925Y-56791418D01*
X135584888Y-56759332D01*
X135605301Y-56425572D01*
X135605411Y-56423775D01*
X135605494Y-56400000D01*
X135585575Y-56032209D01*
X135526052Y-55668720D01*
X135427620Y-55313786D01*
X135424443Y-55305801D01*
X135292690Y-54974722D01*
X135291431Y-54971558D01*
X135261358Y-54914760D01*
X135120677Y-54649060D01*
X135120673Y-54649053D01*
X135119078Y-54646041D01*
X134912578Y-54341041D01*
X134674346Y-54060128D01*
X134407168Y-53806586D01*
X134114172Y-53583382D01*
X134111260Y-53581625D01*
X134111255Y-53581622D01*
X133801705Y-53394889D01*
X133801696Y-53394884D01*
X133798783Y-53393127D01*
X133795693Y-53391693D01*
X133795688Y-53391690D01*
X133470596Y-53240788D01*
X133417229Y-53193964D01*
X133397648Y-53125720D01*
X133418072Y-53057725D01*
X133472014Y-53011565D01*
X133523646Y-53000500D01*
X204877788Y-53000500D01*
X204945909Y-53020502D01*
G37*
%TD.AperFunction*%
%TD*%
M02*
